<svg xmlns="http://www.w3.org/2000/svg" viewBox="0 0 3540.43 1738.79"><defs><style>.cls-1{fill:#fffced;}.cls-2{fill:#feea87;}.cls-3{fill:#aacde1;}.cls-4{fill:#7cacd0;}.cls-5{fill:#2d2d2d;}.cls-6{fill:#fffcef;}.cls-7{fill:#bcbec0;}.cls-8{fill:#d1d3d4;}.cls-9{fill:#fce27f;}</style></defs><title>background</title><g id="Layer_2" data-name="Layer 2"><g id="Layer_5" data-name="Layer 5"><rect class="cls-1" x="21.12" width="3501.71" height="894.58"/><polygon class="cls-2" points="3540.43 893 0 893 1766.8 67.58 3540.43 893"/><rect class="cls-3" x="21.12" y="890.04" width="3501.71" height="848.76"/><rect class="cls-4" x="20.8" y="1614.39" width="3494.32" height="124.4"/><path class="cls-5" d="M1792.09,34.52c12.08,5.42-16,11.73-35.46,11.35s-45.13-7.22-35-12.72c12.49-6.77,16-11.73,35.46-11.35S1777.63,28,1792.09,34.52Z"/><path class="cls-6" d="M1890.81,312.51c.74-38.79-37.42-95.48-65.49-128.65-25.12-29.68-27.21-101.79-27.21-101.79C1791,44.81,1803.36,42,1780,39.1l-15.9-.31-6.3-.12-15.9-.31c-29.12-.56-14.71,8.55-26.68,42.11,0,0-4.81,73.64-31,102.33-29.32,32.05-62.52,80.08-63.33,122.25-1.4,72.85,48.69,117,129.52,121.52v.13c1.05,0,2.1,0,3.15,0s2.1.08,3.15.1v-.13C1837.63,425.31,1889.42,385.36,1890.81,312.51Z"/><rect class="cls-7" x="1709.99" y="35.41" width="91.7" height="51.99" rx="5" ry="5" transform="translate(1.52 -34.04) rotate(1.11)"/><rect class="cls-8" x="1707.97" y="45.87" width="96.11" height="31.71" rx="5" ry="5" transform="translate(1.53 -34.05) rotate(1.11)"/><path class="cls-9" d="M1753,91.53c3.16,15.82,6.34,31.66,8.54,47.66,2.17,15.76,4.88,33.45,1.86,49.25-2.35,12.29-14.58,29.35-28.86,20.46-6.16-3.83-8.35-11.51-3.39-17.29s13.07-6.56,20-4.49c12.84,3.84,27.37,15.36,32.36,28,6,15.21-6.94,27.19-19.23,33.8a46.25,46.25,0,0,1-20,5.8,30.81,30.81,0,0,1-10.23-1.11c-3.38-1.06-2.72-3.78-.5-5.82,1.43-1.31,4-2,5.85-2.47,13.24-3.63,27.08,3.43,33.06,15.49a36.59,36.59,0,0,1,3.07,22.56c-1.47,8-5.71,15.07-8.5,22.62-4,10.7-4.3,24.54,6.3,31.5,2.57,1.69,5-2.43,2.4-4.11-8.1-5.32-7.45-16.37-4.71-24.47,3-8.89,8.14-16.93,9.43-26.37,2-15-4.18-31.48-17.94-38.83a33.86,33.86,0,0,0-20.26-3.77c-5.48.73-15.82,3.65-16.57,10.38-.79,7.07,8.89,8.61,13.93,9,8.32.71,16.66-1.39,24.16-4.9,13.29-6.22,28.3-18.67,25.78-35s-19.14-29.64-33.47-35.61c-11.75-4.9-31-2.23-32.47,13.49-1.38,14.59,16,22,27.7,16.38,19.23-9.22,18.48-34.17,17.3-52.13-1.58-24.06-6.32-47.76-11-71.36-.6-3-5.19-1.73-4.59,1.26Z"/></g></g></svg>