<svg xmlns="http://www.w3.org/2000/svg" viewBox="0 0 488.36 691.56"><defs><style>.cls-1{isolation:isolate;}.cls-2{fill:#81b4d4;}.cls-3{fill:#71d0f1;}.cls-4{fill:#88d5ef;}.cls-5{fill:#2c3681;}.cls-6{fill:#2b3990;}.cls-7{fill:#262262;}.cls-8,.cls-9{fill:#1b75bc;}.cls-9{opacity:0.17;mix-blend-mode:multiply;}.cls-10{fill:#1f76bc;}.cls-11{fill:#fff;}.cls-12{fill:#8dc740;}.cls-13{fill:#2076bc;}.cls-14{fill:#feffff;stroke:#fff;stroke-miterlimit:10;stroke-width:4.54px;}</style></defs><title>coconut</title><g class="cls-1"><g id="Layer_2" data-name="Layer 2"><g id="drinks_and_fruits" data-name="drinks and fruits"><path class="cls-2" d="M488.36,662.34c0-16-83.84-24.24-189.6-24.24s-190.18,2-190.18,18,76.84,38.56,191.74,35.1C406,688,488.36,678.3,488.36,662.34Z"/><path class="cls-3" d="M355,688.51H10.55S0,419.61,0,330C0,265.83,10.55,73.39,10.55,73.39H355s10.54,210,10.54,270.65C365.56,437.19,355,688.51,355,688.51Z"/><path class="cls-4" d="M3.63,213.85C1.64,259.4,0,304.68,0,330c0,89.63,10.54,358.53,10.54,358.53H355S365.56,437.19,365.56,344c0-25.69-1.89-78.18-4.07-130.16-54.36-8-133-18.18-181.21-18.18C129.35,195.71,54.63,205.85,3.63,213.85Z"/><path class="cls-5" d="M360.34,71.64c0,3.51-26.21,5.71-58.53,6.35-71.93,1.41-58.53-2.84-58.53-6.35S232,63.88,301.81,65.29C334.13,65.94,360.34,68.13,360.34,71.64Z"/><path class="cls-5" d="M5.6,71.61c0,3.51,26.21,5.71,58.53,6.35,71.93,1.41,58.53-2.84,58.53-6.35s11.28-7.76-58.53-6.35C31.81,65.92,5.6,68.11,5.6,71.61Z"/><rect class="cls-6" x="117.01" y="8.85" width="136.12" height="66.33"/><ellipse class="cls-7" cx="185.08" cy="8.85" rx="68.06" ry="8.85"/><ellipse class="cls-6" cx="185.08" cy="75.18" rx="68.06" ry="7.69"/><path class="cls-8" d="M3.88,500.22c3,95,6.67,188.29,6.67,188.29H355s3.94-94,7-188.29Z"/><path class="cls-9" d="M281.94,685.68,81.73,688.5S126,452.33,125.43,368.44C125,297.95,77.5,70.94,77.5,70.94H287.58S248.74,288.78,248.1,358.57C247.33,442.46,281.94,685.68,281.94,685.68Z"/><path class="cls-10" d="M308.72,381.63c-1.07,0-2.19-.05-3.34-.16a22,22,0,0,1-16.94-9.78,23.57,23.57,0,0,1-19,9.47,24.64,24.64,0,0,1-3.48-.25c-5.47-.78-9.79-4.1-12.86-9.84-2.88-5.4-4-11.22-4.62-15.69a107,107,0,0,1-.8-19.85V332.3c0-2.63,0-5.33,0-8l-2.12,0a32.4,32.4,0,0,1-8-.81,12,12,0,0,1-9.43-10.71,5.19,5.19,0,0,1,1-4.2,3.75,3.75,0,0,1,2.85-1.22,6.75,6.75,0,0,1,2.6.6,50.83,50.83,0,0,0,14.21,3.29c0-.38.07-.74.1-1.08s.06-.57.08-.85a4.8,4.8,0,0,0-.95-3.16c-1-1.45-2.05-3.38-1.6-5.5s2.19-3.41,3.66-4.32a40,40,0,0,1,13.94-4.87,35.6,35.6,0,0,1,6.66-.69c.7,0,1.39,0,2.06.08a9,9,0,0,1,5,1.93,6,6,0,0,1,2.3,5.64c-.45,3.52-1.15,7-1.83,10.4l-.35,1.73h.43a25.68,25.68,0,0,1,8,1.12,8.53,8.53,0,0,1,2.47,1.23,4.93,4.93,0,0,1,1,7.4,6.48,6.48,0,0,1-5.17,2.64,8.15,8.15,0,0,1-2.27-.34,30.08,30.08,0,0,0-6.65-1,120.61,120.61,0,0,0-2.22,13.13,246,246,0,0,0-1.9,27.58,14.45,14.45,0,0,0,.81,5.57c.63,1.59,1.24,1.59,1.54,1.59a3.83,3.83,0,0,0,1.35-.32c2-.8,3.43-2.38,5.12-4.37.18-.21.34-.44.5-.67a12.44,12.44,0,0,1,.85-1.11c1.48-1.67,1.9-3.41,1.55-6.44-1.28-11.24.58-20.45,5.7-28.18,4.07-6.15,10-9.67,17.76-10.47a25.66,25.66,0,0,1,2.65-.14c8.93,0,15.75,4.89,19.73,14.14a46,46,0,0,1,2.06,31.19,2.92,2.92,0,0,0,1.21-.56c1.86-1.32,3-3.39,4.22-5.59l.24-.43a82.27,82.27,0,0,0,5.52-12.74,15.1,15.1,0,0,1,.87-2.05l.06-.13a3.1,3.1,0,0,1,2.89-2.13,3.13,3.13,0,0,1,.53,0,3.21,3.21,0,0,1,2.6,2.77l0,.16a13.13,13.13,0,0,1,.42,5.06c-.85,7.42-2.92,13.47-6.32,18.49a19.83,19.83,0,0,1-5.78,5.67,13.24,13.24,0,0,1-7.16,2.22,12.54,12.54,0,0,1-4.08-.7C322.35,378.78,316.39,381.63,308.72,381.63Zm7.46-48.71a3,3,0,0,0-1.93.93,9.35,9.35,0,0,0-2.45,4.24,37.64,37.64,0,0,0-1.53,12.43,42.72,42.72,0,0,0,.78,9.32c.54,2.68,1.24,4.77,2.86,6.26a3.24,3.24,0,0,0,2.19.92h0a2.79,2.79,0,0,0,2.06-.94,26.1,26.1,0,0,1-3.55-14.67c.1-3.79.8-9.13,5.48-12.8a13.72,13.72,0,0,0-1.94-4.41A2.69,2.69,0,0,0,316.17,332.92Z"/><path class="cls-11" d="M270.71,293.06c.62,0,1.25,0,1.88.07a6.72,6.72,0,0,1,3.76,1.44,3.68,3.68,0,0,1,1.47,3.58c-.58,4.51-1.57,8.93-2.43,13.39-.2,1-.09,1.34.9,1.34h.23c.6,0,1.21,0,1.81,0a23.76,23.76,0,0,1,7.35,1,6.28,6.28,0,0,1,1.82.9,2.67,2.67,0,0,1,.54,4.14,4.22,4.22,0,0,1-3.41,1.8,6,6,0,0,1-1.64-.25,33.57,33.57,0,0,0-7.79-1.15H275c-.86,0-1.19.37-1.4,1.21a118,118,0,0,0-2.4,13.94,247.07,247.07,0,0,0-1.91,27.84,16.83,16.83,0,0,0,1,6.43c.79,2,2,3,3.66,3a6,6,0,0,0,2.2-.49c2.54-1,4.29-3,6-5,.47-.55.84-1.19,1.32-1.73,2.11-2.38,2.48-5,2.11-8.2-1.07-9.38-.05-18.53,5.33-26.67,3.8-5.73,9.28-8.76,16.1-9.47a23.36,23.36,0,0,1,2.41-.13c9.12,0,14.63,5.75,17.65,12.77a43.79,43.79,0,0,1,1.69,30.61c-.35,1.19,0,1.52,1,1.8a4.17,4.17,0,0,0,1.19.18,4.8,4.8,0,0,0,2.79-1c2.42-1.72,3.74-4.27,5.13-6.78a85.06,85.06,0,0,0,5.68-13.09,13,13,0,0,1,.74-1.75c.22-.42.37-1,.94-1h.15c.64.11.69.8.83,1.3a10.89,10.89,0,0,1,.35,4.19c-.72,6.25-2.37,12.2-5.94,17.47a17.53,17.53,0,0,1-5.12,5,11,11,0,0,1-5.94,1.87,10.43,10.43,0,0,1-3.93-.8,1.87,1.87,0,0,0-.68-.17c-.34,0-.6.18-.89.6-4.07,6-9.8,8.14-16.33,8.14-1,0-2.07-.05-3.13-.15a20,20,0,0,1-16.42-10.66c-.24-.42-.42-.58-.58-.58s-.42.33-.66.66c-2.85,3.93-6.23,7.21-10.9,8.91a22,22,0,0,1-10.73,1.12c-5.3-.76-8.75-4.12-11.18-8.66a44.64,44.64,0,0,1-4.37-14.94,105,105,0,0,1-.78-19.43c0-4.18,0-8.35,0-12.53,0-.9-.19-1.11-1-1.11h-.1c-1.1,0-2.2,0-3.3,0a30.13,30.13,0,0,1-7.41-.74,9.81,9.81,0,0,1-7.72-8.77c-.22-1.9.32-2.89,1.58-2.89a4.62,4.62,0,0,1,1.72.42,54.16,54.16,0,0,0,15.87,3.56l.38,0c.77,0,1.11-.32,1.07-1.29a25.25,25.25,0,0,1,.21-2.85,7,7,0,0,0-1.33-4.61c-2.07-3.06-1.76-4.68,1.37-6.61a37.77,37.77,0,0,1,13.16-4.57,33.82,33.82,0,0,1,6.24-.65m45.38,76.24a5.15,5.15,0,0,0,4.36-2.48,1,1,0,0,0,.09-1.21,23.78,23.78,0,0,1-3.66-14.12c.13-4.62,1.2-8.82,5.33-11.61a.72.72,0,0,0,.32-.92,17.59,17.59,0,0,0-2.56-6.1,4.76,4.76,0,0,0-3.8-2.2,5.19,5.19,0,0,0-3.46,1.53,11.68,11.68,0,0,0-3.08,5.21A40.15,40.15,0,0,0,308,350.55a44.49,44.49,0,0,0,.83,9.74c.56,2.78,1.36,5.47,3.55,7.48a5.51,5.51,0,0,0,3.73,1.52m-45.38-80.78a37.76,37.76,0,0,0-7.08.73,42.09,42.09,0,0,0-14.72,5.17c-1.71,1.06-4.05,2.8-4.69,5.78s.8,5.57,1.94,7.25a3,3,0,0,1,.55,1.27,43.89,43.89,0,0,1-11.24-2.85,9,9,0,0,0-3.47-.77,6,6,0,0,0-4.55,2,7.34,7.34,0,0,0-1.54,6,14.35,14.35,0,0,0,11.13,12.65,34.12,34.12,0,0,0,8.35.88c0,1.93,0,3.85,0,5.73q0,1.61,0,3.22a109,109,0,0,0,.82,20.17c.66,4.65,1.82,10.73,4.86,16.44,3.42,6.42,8.32,10.13,14.54,11a26.92,26.92,0,0,0,3.8.27,26.62,26.62,0,0,0,9.13-1.63,25.06,25.06,0,0,0,9.76-6.54,24.51,24.51,0,0,0,16.85,8.47c1.22.11,2.41.17,3.55.17,7.86,0,14.11-2.74,18.6-8.15a14.47,14.47,0,0,0,3.23.37,15.47,15.47,0,0,0,8.38-2.58,22.08,22.08,0,0,0,6.44-6.32c3.61-5.33,5.8-11.71,6.69-19.5a15.38,15.38,0,0,0-.48-5.93l0-.07a5.4,5.4,0,0,0-5.33-4.56,5.29,5.29,0,0,0-5,3.47l0,.06a17.38,17.38,0,0,0-1,2.31A81.08,81.08,0,0,1,335,355.14,47.93,47.93,0,0,0,331.24,331c-4.3-10-12.05-15.52-21.82-15.52a28,28,0,0,0-2.88.15c-8.42.87-15,4.74-19.42,11.48-5.42,8.19-7.4,17.9-6.06,29.69.3,2.64-.12,3.68-1,4.67a14.77,14.77,0,0,0-1,1.29c-.15.21-.28.4-.38.51-1.46,1.72-2.7,3.09-4.17,3.7a12.41,12.41,0,0,1-.64-4.68A243.64,243.64,0,0,1,275.75,335c.45-3.57,1-7.32,1.74-11a24.69,24.69,0,0,1,4.24.79,10.52,10.52,0,0,0,2.9.43,8.72,8.72,0,0,0,6.94-3.48,7.19,7.19,0,0,0-1.38-10.66,10.73,10.73,0,0,0-3.12-1.56,25.76,25.76,0,0,0-6.42-1.16c.63-3.13,1.25-6.35,1.67-9.64a8.23,8.23,0,0,0-3.14-7.7A11.21,11.21,0,0,0,273,288.6c-.73-.06-1.49-.09-2.25-.09Zm41.83,60a32.51,32.51,0,0,1,1.41-9.71,7.28,7.28,0,0,1,1.83-3.26,2.56,2.56,0,0,1,.32-.25,2.44,2.44,0,0,1,.22.27,8.91,8.91,0,0,1,1.16,2.32,17,17,0,0,0-4.94,10.64Z"/><path class="cls-12" d="M51.18,382.47a39.18,39.18,0,0,1-10.38-1.39c-9.73-2.67-16.87-9.32-21.24-19.76C16.92,355,15.47,347.93,15,339.07c-.57-10.78.36-20.11,2.84-28.53,2.59-8.81,6.7-15.68,12.55-21,7.27-6.63,16.26-10,27.49-10.2,9.21.07,17.17,4.66,23.72,13.63a42,42,0,0,1,5.13,9.43c1.82-3.52,2.22-8.91.56-11.9a6,6,0,0,0-1.13-1.5c-1.32-1.23-1.69-2.51-1.16-3.86a3.78,3.78,0,0,1,3.32-2.38c.33,0,.67,0,1,0a9.31,9.31,0,0,1,1.25.08,17.09,17.09,0,0,1,5.1,1.47c5.31,2.52,7.42,6.44,6.66,12.34a22.34,22.34,0,0,1-8.24,14.62,35.71,35.71,0,0,1-4,3,98.45,98.45,0,0,1-.29,35.39,47.36,47.36,0,0,1-6.19,16.33,32.42,32.42,0,0,1-18.25,14.26A48,48,0,0,1,51.18,382.47Zm-3.77-67.54a63.7,63.7,0,0,0-1.12,8.14,106.19,106.19,0,0,0,.55,22c.78,5.92,2,10.18,4.08,13.83,2.89,5.14,7,6.22,10,6.22a13.21,13.21,0,0,0,8-2.79,21.81,21.81,0,0,0,7-10.55c3.19-9.35,3.94-19.52,2.37-31.91a36.68,36.68,0,0,1-12.11,2.3q-.64,0-1.28,0C59.65,321.85,52.53,320.77,47.41,314.92ZM63.67,297.2a4.1,4.1,0,0,0-4.2,2.65,7.37,7.37,0,0,0,.51,6.69,8.53,8.53,0,0,0,7.9,4.31l.73,0h.63a21.93,21.93,0,0,0,6.87-1.19,28.64,28.64,0,0,0-3.74-7.43,11.25,11.25,0,0,0-6.94-4.83A8.82,8.82,0,0,0,63.67,297.2Z"/><path class="cls-11" d="M57.94,281.59c8.91.07,16.18,4.95,21.84,12.69a40.8,40.8,0,0,1,5.78,11.51c.18.55.35.78.56.78s.43-.18.74-.5c3.74-3.71,5-12.1,2.44-16.7a8.27,8.27,0,0,0-1.56-2.05c-.41-.38-.85-.75-.6-1.38a1.51,1.51,0,0,1,1.39-.94c.27,0,.55,0,.83,0a7,7,0,0,1,.94.06,15,15,0,0,1,4.43,1.27c4.48,2.13,6,5.1,5.38,10a20.24,20.24,0,0,1-7.46,13.18,32.66,32.66,0,0,1-4.16,3.07,1.23,1.23,0,0,0-.65,1.53,95.73,95.73,0,0,1-.19,35.07,45.4,45.4,0,0,1-5.88,15.56,30.11,30.11,0,0,1-17,13.3,45.51,45.51,0,0,1-13.58,2.21,36.72,36.72,0,0,1-9.78-1.31c-9.75-2.68-15.94-9.34-19.74-18.45-2.87-6.87-4-14.11-4.38-21.49-.49-9.4.08-18.69,2.75-27.77,2.26-7.67,5.93-14.54,11.9-20,7.06-6.44,15.49-9.39,26-9.61m9.94,31.53.85,0h.52A25.17,25.17,0,0,0,78,311.38c.65-.24.91-.51.66-1.26a33,33,0,0,0-4.48-9.25,13.59,13.59,0,0,0-8.31-5.71,11.07,11.07,0,0,0-2.22-.24,6.28,6.28,0,0,0-6.33,4.15,9.68,9.68,0,0,0,.7,8.64,10.75,10.75,0,0,0,9.84,5.41m-7,54.22a15.49,15.49,0,0,0,9.41-3.28,24.14,24.14,0,0,0,7.78-11.6c3.79-11.13,3.9-22.53,2.32-34-.14-1-.22-1.43-.66-1.43a4.77,4.77,0,0,0-1.29.37,35.88,35.88,0,0,1-12.26,2.5l-1.17,0c-7.78-.36-14.55-2.61-18.49-10.23-.21.61-.42,1.11-.56,1.63a60.9,60.9,0,0,0-2,11.66,107.9,107.9,0,0,0,.56,22.43A39.93,39.93,0,0,0,48.94,360c3,5.28,7.51,7.38,12,7.38m-3-90.3h-.07c-11.8.25-21.28,3.78-29,10.79-6.17,5.63-10.49,12.84-13.2,22.06-2.55,8.67-3.51,18.25-2.93,29.29.48,9.13,2,16.44,4.73,23,4.65,11.12,12.3,18.21,22.73,21.08a41.45,41.45,0,0,0,11,1.47,50.25,50.25,0,0,0,14.93-2.41,34.63,34.63,0,0,0,19.5-15.23A49.57,49.57,0,0,0,92.1,350a100.38,100.38,0,0,0,.54-34.75c.94-.67,1.91-1.43,3-2.31a24.83,24.83,0,0,0,9-16.06c.89-6.92-1.7-11.72-7.94-14.69a19.33,19.33,0,0,0-5.76-1.67,11.56,11.56,0,0,0-1.56-.1c-.39,0-.78,0-1.2.05a6,6,0,0,0-5.25,3.82,5.48,5.48,0,0,0,1.67,6.3l.05,0a3.77,3.77,0,0,1,.7.94,8.34,8.34,0,0,1,.76,4.11,41.74,41.74,0,0,0-2.63-4.08C76.55,282.16,67.74,277.12,58,277Zm10,31.53a6.27,6.27,0,0,1-6-3.21,5.17,5.17,0,0,1-.32-4.74c.15-.4.42-1.16,2.06-1.16a6.56,6.56,0,0,1,1.3.14,9.12,9.12,0,0,1,5.57,4,22.22,22.22,0,0,1,2.54,4.56,17.83,17.83,0,0,1-3.83.44h-.75l-.62,0Zm-7,54.22c-2.35,0-5.65-.88-8-5.06-1.9-3.38-3.07-7.4-3.81-13a103.82,103.82,0,0,1-.54-21.48c.1-1.33.24-2.6.4-3.82,4.05,3,9.31,4.64,15.87,4.95q.7,0,1.39,0a36,36,0,0,0,10.16-1.57c1.1,10.81.26,19.84-2.57,28.17a19.63,19.63,0,0,1-6.28,9.49,10.89,10.89,0,0,1-6.61,2.31Z"/><path class="cls-12" d="M176.63,484.75a34.8,34.8,0,0,1-12-2c-8.82-3.17-15.08-9.43-19.13-19.11-2.61-6.24-4-13.14-4.52-21.7-.08-1.47-.14-2.93-.19-4.13l-.06-1.33v-.06c.11-9.1.85-19.79,5.44-30.1,6.16-13.83,16.64-22,31.15-24.26a35.28,35.28,0,0,1,5.43-.44c10,0,18.4,4.7,25,14a42.52,42.52,0,0,1,4.87,9,15.88,15.88,0,0,0,1.66-7.68,8.39,8.39,0,0,0-2.43-5.9,3.26,3.26,0,0,1-1.18-2.77,3.44,3.44,0,0,1,1.79-2.63A4.69,4.69,0,0,1,215,385h.35a16,16,0,0,1,10,4c3.26,3,3.3,6.74,3,9.7-.67,6-3.55,11-8.81,15.26-1.11.9-2.26,1.74-3.4,2.5,2.39,14.55,1.93,27.65-1.43,40-2.33,8.59-6.34,15.14-12.27,20-5.26,4.34-11.65,6.89-19.51,7.8A54.3,54.3,0,0,1,176.63,484.75Zm-3.25-67.5c-.42,2-.66,3.78-.84,5.33a103.77,103.77,0,0,0,0,22.88,44.3,44.3,0,0,0,3.59,14.38c2.29,4.9,6.09,7.6,10.71,7.6a13.41,13.41,0,0,0,8.51-3.19c3.25-2.81,5.57-6.66,7.09-11.78,2.71-9.14,3.31-19.05,1.81-30.28A37.06,37.06,0,0,1,192,424.46q-1,0-2-.07C185,424.06,178.32,422.9,173.38,417.24Zm16-17.76a3.9,3.9,0,0,0-3,1.24c-1.73,1.76-2.05,4.07-1,7,1.24,3.47,4.71,5.46,9.53,5.46h0l.88,0a22.8,22.8,0,0,0,6.24-1.21,28,28,0,0,0-3.86-7.59,11.06,11.06,0,0,0-5.23-4.19A11.24,11.24,0,0,0,189.43,399.49Z"/><path class="cls-11" d="M182.78,383.93c9.67,0,17.24,4.71,23.19,13a42.63,42.63,0,0,1,5.48,10.91c.27.77.4,1.13.63,1.13s.48-.29,1-.85c3.54-3.86,5.68-14,.37-18.75-.72-.65-.49-1.3.28-1.77a2.39,2.39,0,0,1,1.25-.35h.19a13.91,13.91,0,0,1,8.68,3.45c2.35,2.13,2.56,4.85,2.24,7.77-.64,5.76-3.58,10.19-8,13.75a41.54,41.54,0,0,1-3.63,2.64,1.33,1.33,0,0,0-.64,1.65c2.22,13.23,2.21,26.4-1.32,39.42-2,7.37-5.5,13.9-11.52,18.86-5.33,4.39-11.57,6.51-18.33,7.29a52.52,52.52,0,0,1-6,.37,32.71,32.71,0,0,1-11.19-1.82c-8.74-3.14-14.31-9.48-17.81-17.85a62.59,62.59,0,0,1-4.35-21c-.11-2-.19-4.08-.24-5.36.13-10.54,1.22-20.16,5.24-29.2,5.72-12.85,15.37-20.75,29.42-22.94a32.9,32.9,0,0,1,5.08-.41M195,415.5l1,0a25.6,25.6,0,0,0,8.11-1.79c.6-.24.84-.45.6-1.16A32.53,32.53,0,0,0,200,403a13.38,13.38,0,0,0-6.31-5,13.56,13.56,0,0,0-4.3-.86,6.19,6.19,0,0,0-4.63,1.92c-2.61,2.67-2.71,6-1.51,9.4,1.52,4.27,5.7,7,11.67,7m-8.1,54.2a15.6,15.6,0,0,0,10-3.75,26.19,26.19,0,0,0,7.79-12.86c3.16-10.64,3.3-21.45,1.73-32.35-.15-1-.23-1.43-.65-1.43a4.18,4.18,0,0,0-1.16.34A35.86,35.86,0,0,1,192,422.19q-.9,0-1.81-.06c-7.44-.5-13.86-2.84-17.69-10.22a47,47,0,0,0-2.22,10.4,106.74,106.74,0,0,0,0,23.37,46.78,46.78,0,0,0,3.79,15.1c3,6.43,7.94,8.92,12.77,8.92m-4.08-90.32h0a37.6,37.6,0,0,0-5.78.46c-15.32,2.39-26.38,11-32.87,25.59-4.76,10.69-5.52,21.67-5.63,31v.26l.05,1.23c0,1.2.11,2.69.19,4.18.49,8.83,2,16,4.69,22.46,4.25,10.17,11.14,17,20.46,20.37A37,37,0,0,0,176.63,487a56.67,56.67,0,0,0,6.54-.4c8.31-1,15.08-3.68,20.69-8.3,6.3-5.2,10.56-12.12,13-21.18,3.33-12.29,3.89-25.26,1.71-39.56.8-.57,1.59-1.17,2.37-1.8,5.67-4.59,8.91-10.23,9.64-16.78.36-3.23.37-7.94-3.7-11.64a18.48,18.48,0,0,0-11.41-4.61l-.51,0a7,7,0,0,0-3.62,1,5.78,5.78,0,0,0-2.87,4.36,5.58,5.58,0,0,0,1.92,4.67,6.21,6.21,0,0,1,1.68,4.32c0,.34,0,.68,0,1a41,41,0,0,0-2.42-3.81c-7.09-9.9-16.13-14.92-26.89-14.92ZM195,411c-2.24,0-6.17-.51-7.39-3.95-1.1-3.09,0-4.17.47-4.7a1.67,1.67,0,0,1,1.38-.56,9.29,9.29,0,0,1,2.83.61,8.94,8.94,0,0,1,4.15,3.4,22.5,22.5,0,0,1,2.65,4.72,17.6,17.6,0,0,1-3.22.45h-.1l-.77,0Zm-8.1,54.2c-3.74,0-6.73-2.18-8.65-6.29a42.13,42.13,0,0,1-3.39-13.66,101.52,101.52,0,0,1,0-22.38q.06-.55.13-1.08c3.87,2.88,8.82,4.5,15,4.91.7,0,1.41.07,2.12.07a37.11,37.11,0,0,0,10.34-1.56,67.71,67.71,0,0,1-2.06,26.63c-1.41,4.76-3.44,8.16-6.4,10.71a11.07,11.07,0,0,1-7,2.64Z"/><path class="cls-13" d="M188.55,381.64A34.42,34.42,0,0,1,174.79,379a24.34,24.34,0,0,1-10.07-7.79l-1.11,1.57a19.79,19.79,0,0,1-16.65,8.45,25.2,25.2,0,0,1-7.13-1c-5.5-1.62-9.28-5.76-11.22-12.28-1.51-5.08-1.84-10.57-1.07-17.77.13-1.18.26-2.34.4-3.51a51.76,51.76,0,0,0-2.86,12.24,84.06,84.06,0,0,0-.52,8.73c-.05,2-.1,4-.25,6.09-.2,2.73-1.07,6.36-6.33,6.36l-.87,0a24.33,24.33,0,0,1-16.37-7.44,9.14,9.14,0,0,1-2.61-6.61v-.37c-.12-8.62-.25-17.52-1.23-26.19a9.09,9.09,0,0,0-1.82-4.73c-1.47-1.9-2.9-4.19-2.37-6.67s2.82-4,4.76-5a37.64,37.64,0,0,1,18-4.65c1.07,0,2.15,0,3.23.14a10.8,10.8,0,0,1,3.17.79,5,5,0,0,1,3.34,5.08,74.4,74.4,0,0,1-.88,9v0a69.57,69.57,0,0,1,9.92-11.61,7.84,7.84,0,0,1,5.3-2.21,8.41,8.41,0,0,1,3.73.94A22.45,22.45,0,0,1,154,331.82c1.05,2.39.62,4.66,0,6.75l-.16.54a107.76,107.76,0,0,0-3.8,15.35c-.57,4-1.22,8.49-.72,12.83a5.54,5.54,0,0,0,.25,1.12c.34,1,.69,1,1,1a2.91,2.91,0,0,0,.75-.12c1.41-.38,2.6-1.29,4.11-3.14A42.81,42.81,0,0,0,159,360.7l.79-1.34c0-.09-.09-.65-.09-.65-1.51-12.49.92-22.69,7.43-31.2,4.35-5.69,9.21-8.76,14.84-9.41a28.41,28.41,0,0,1,3.22-.19,18.66,18.66,0,0,1,14.9,6.62,12.78,12.78,0,0,1,3,7.89,38.65,38.65,0,0,1-4.24,19.26,20.5,20.5,0,0,1-3.72,5.21,11.06,11.06,0,0,1-11.2,3.12,20.17,20.17,0,0,0,2.57,7.28c1.55,2.51,3.46,3.73,5.84,3.73a9.35,9.35,0,0,0,3.07-.58c3.75-1.32,6.89-3.83,10.19-8.17s5.34-9.24,7.52-14.47l.56-1.34c.33-.8.66-1.6,1-2.4s.64-1.59,1-2.39l0-.11a3,3,0,0,1,2.86-2.25h.12c.84,0,2.36.43,3,2.72a17.48,17.48,0,0,1,.17,8.52,48.37,48.37,0,0,1-9.9,21c-5,6-11.84,9.4-20.24,10C190.65,381.6,189.58,381.64,188.55,381.64Zm-5.13-34a7.44,7.44,0,0,0,2.29,1.94,1.14,1.14,0,0,0,.33.1h0a.85.85,0,0,0,.21,0,4.17,4.17,0,0,0,2.36-2c2.28-3.36,3.49-7.38,3.94-13,0-.16,0-.33,0-.49a6.52,6.52,0,0,0,0-.8c-.08-.71-.33-1.55-1.11-1.55a2.56,2.56,0,0,0-1.11.32,9.94,9.94,0,0,0-4,4.32c-1.9,3.35-2.58,7.23-3.12,10.93Z"/><path class="cls-11" d="M185.19,320.19A16.43,16.43,0,0,1,198.36,326a10.45,10.45,0,0,1,2.48,6.5,36.25,36.25,0,0,1-4,18.14,18.37,18.37,0,0,1-3.31,4.64,9.06,9.06,0,0,1-6.49,2.89,9.94,9.94,0,0,1-4.51-1.15l-1.4-.74c.48,4.45,1.19,8.55,3.45,12.2,2,3.18,4.62,4.8,7.78,4.8a11.56,11.56,0,0,0,3.82-.71c4.77-1.68,8.26-5,11.25-8.93,3.76-4.93,6-10.65,8.37-16.3.67-1.59,1.28-3.2,1.94-4.79.16-.39.28-1,.81-1h0c.59,0,.78.59.91,1.06a15.2,15.2,0,0,1,.14,7.42,45.89,45.89,0,0,1-9.43,20c-4.83,5.8-11.22,8.65-18.65,9.17q-1.51.11-3,.11a32.45,32.45,0,0,1-12.88-2.49A21.91,21.91,0,0,1,165.3,368c-.14-.23-.29-.44-.52-.8-1.06,1.48-2,2.85-3,4.24a17.51,17.51,0,0,1-14.8,7.49,23,23,0,0,1-6.49-1c-5.33-1.57-8.17-5.65-9.68-10.75-1.65-5.54-1.6-11.2-1-16.88a67.66,67.66,0,0,1,2.31-13c.09-.29.23-.66-.19-.81a.64.64,0,0,0-.23,0,1,1,0,0,0-.7.45,29.14,29.14,0,0,0-3,4.35c-3.07,5.34-4.33,11.21-5.12,17.23-.65,5-.43,10-.79,15-.22,3.1-1.25,4.25-4.07,4.25l-.73,0a22.08,22.08,0,0,1-14.88-6.77,6.92,6.92,0,0,1-2-5c-.12-8.94-.24-17.89-1.25-26.79a11.33,11.33,0,0,0-2.28-5.86c-3.07-4-2.71-6,1.67-8.32a35.28,35.28,0,0,1,16.91-4.38q1.5,0,3,.13a8.52,8.52,0,0,1,2.5.63,2.8,2.8,0,0,1,1.93,2.93,119.39,119.39,0,0,1-1.31,12.18,32,32,0,0,0-.36,5.92c1.61-2.59,3.13-5.2,4.89-7.66a66.78,66.78,0,0,1,9.61-11.28,5.59,5.59,0,0,1,3.78-1.63,6.13,6.13,0,0,1,2.72.71,20.16,20.16,0,0,1,9.71,10.26,7.22,7.22,0,0,1-.11,5.18,112.72,112.72,0,0,0-4,16.23c-.64,4.45-1.25,8.9-.73,13.42a7.74,7.74,0,0,0,.36,1.59c.58,1.7,1.63,2.55,3.13,2.55a5.14,5.14,0,0,0,1.34-.2,10.45,10.45,0,0,0,5.28-3.9,59.23,59.23,0,0,0,4.64-7.21,2.8,2.8,0,0,0,.15-2c-1.3-10.7.26-20.77,7-29.54,3.37-4.4,7.6-7.88,13.29-8.53a26,26,0,0,1,3-.18M186,352a3,3,0,0,0,.81-.12,6.41,6.41,0,0,0,3.64-2.88c2.91-4.29,3.94-9.16,4.33-14.22a15.31,15.31,0,0,0,0-1.63c-.24-2.27-1.59-3.58-3.37-3.58a4.75,4.75,0,0,0-2.13.56,12.25,12.25,0,0,0-5,5.23c-2.06,3.64-2.8,7.66-3.39,11.73a2,2,0,0,0,.39,1.66,11.06,11.06,0,0,0,3.5,3A3,3,0,0,0,186,352m-.84-36.33a30.75,30.75,0,0,0-3.48.21c-6.27.72-11.63,4.08-16.38,10.29-6.87,9-9.45,19.69-7.89,32.75l-.39.67a41.13,41.13,0,0,1-3.39,5.19,8.8,8.8,0,0,1-2.1,2,49.86,49.86,0,0,1,.74-12,104.36,104.36,0,0,1,3.73-15l.16-.54a11.52,11.52,0,0,0-.09-8.32,24.67,24.67,0,0,0-11.85-12.5,10.65,10.65,0,0,0-4.74-1.18,10,10,0,0,0-6.81,2.79,55.28,55.28,0,0,0-5.29,5.5q0-.6,0-1.2a7.33,7.33,0,0,0-4.76-7.22,13.09,13.09,0,0,0-3.83-.95c-1.14-.1-2.29-.15-3.42-.15a39.89,39.89,0,0,0-19.06,4.92c-2.37,1.28-5.19,3.18-5.91,6.56s1.11,6.35,2.8,8.53a6.82,6.82,0,0,1,1.36,3.6c1,8.55,1.1,17.41,1.22,26V366a11.46,11.46,0,0,0,3.26,8.17A26.54,26.54,0,0,0,117,382.24l1,0c3.65,0,8.1-1.47,8.6-8.47.1-1.42.16-2.83.2-4.21,2.27,6.69,6.44,11,12.41,12.73a27.47,27.47,0,0,0,7.77,1.14,22,22,0,0,0,17.91-8.6,26.9,26.9,0,0,0,9,6.2,37.16,37.16,0,0,0,14.66,2.85c1.08,0,2.2,0,3.32-.12,9-.63,16.39-4.27,21.83-10.8A50.61,50.61,0,0,0,224.08,351a19.71,19.71,0,0,0-.21-9.61,5.48,5.48,0,0,0-5.11-4.37h-.2a5.2,5.2,0,0,0-5,3.72l0,.06c-.32.77-.65,1.59-1,2.4s-.63,1.57-1,2.36l-.56,1.34c-2.12,5.08-4.13,9.89-7.24,14s-5.84,6.24-9.14,7.4a7.11,7.11,0,0,1-2.32.45c-1.06,0-2.46-.3-3.91-2.65a14.92,14.92,0,0,1-1.52-3.38H187a13.54,13.54,0,0,0,9.71-4.22,23,23,0,0,0,4.13-5.77,40.9,40.9,0,0,0,4.49-20.38,15,15,0,0,0-3.56-9.28,20.83,20.83,0,0,0-16.63-7.42Zm.38,31a26.64,26.64,0,0,1,2.69-9.06,10.38,10.38,0,0,1,2-2.64c-.44,5-1.53,8.56-3.51,11.49a4.86,4.86,0,0,1-.6.75c-.17-.15-.36-.33-.55-.54Z"/><path class="cls-10" d="M314.59,484a34.71,34.71,0,0,1-13.71-2.6,24.33,24.33,0,0,1-10.19-7.83l-1.08,1.54a19.86,19.86,0,0,1-16.75,8.5,24,24,0,0,1-7-1.06c-5.9-1.81-9.68-6.19-11.54-13.38-1.25-4.83-1.49-10-.78-16.64.13-1.2.26-2.38.4-3.53a52.2,52.2,0,0,0-2.83,12.12,87.53,87.53,0,0,0-.54,9c0,1.89-.1,3.84-.23,5.78-.36,5.43-3.67,6.57-6.4,6.57a12.58,12.58,0,0,1-1.38-.08,26.2,26.2,0,0,1-14.76-6.43,10.71,10.71,0,0,1-3.67-8.69c0-5-.2-10.07-.43-15l-.12-2.71c-.07-1.57-.22-3.12-.38-4.76-.1-1-.2-2-.28-3A8.63,8.63,0,0,0,221,437c-1.46-1.9-2.88-4.18-2.35-6.66s2.78-4,4.9-5.11a38.2,38.2,0,0,1,18.19-4.55c.81,0,1.64,0,2.46.07a11.76,11.76,0,0,1,2.32.42c3.27.86,4.55,2.52,4.56,5.91a55.55,55.55,0,0,1-.76,8.16l-.07.49a69.46,69.46,0,0,1,8.59-10.39c1.87-1.82,4-3.51,6.69-3.51,1.78,0,3.56.69,6,2.3a23.08,23.08,0,0,1,8.14,9.31,9,9,0,0,1,.58,6.49c-.36,1.31-.74,2.61-1.12,3.92a97.52,97.52,0,0,0-2.83,11.38c-.75,4.55-1.59,9.71-1,14.64.17,1.33.59,2,1.25,2a3.87,3.87,0,0,0,1.85-.63,11.54,11.54,0,0,0,3.29-3.11,46.55,46.55,0,0,0,3.21-5l.84-1.43c0-.07-.08-.53-.08-.53-1.44-11,.36-20.37,5.51-28.61,3.92-6.27,8.58-10,14.24-11.53a23.41,23.41,0,0,1,6-.81A19.43,19.43,0,0,1,325.24,426a12.3,12.3,0,0,1,3.82,8.63c.29,9.08-1.82,16.57-6.45,22.89-2.58,3.53-5.73,5.32-9.35,5.32a12,12,0,0,1-3.36-.5,18.87,18.87,0,0,0,3.12,8.13,6.43,6.43,0,0,0,5.36,2.95,9.2,9.2,0,0,0,3.25-.66c4-1.51,7.35-4.39,10.66-9.05,2.9-4.08,4.8-8.65,6.82-13.49l.32-.76c.39-.92.76-1.85,1.13-2.77s.71-1.77,1.07-2.64l0-.1a3,3,0,0,1,2.87-2.21h.2a3.12,3.12,0,0,1,2.83,2.55,16.57,16.57,0,0,1,.26,8.6c-2.09,9.4-5.79,16.79-11.33,22.59-4.89,5.13-11.29,8-19,8.43C316.5,483.92,315.53,484,314.59,484Zm2.77-49.85a4,4,0,0,0-1.68.74,10.5,10.5,0,0,0-3.3,3.76,28,28,0,0,0-3,10.18,2.09,2.09,0,0,0,.72,2,3.26,3.26,0,0,0,2.05,1.23h0c.72,0,1.44-.71,1.91-1.3,3.25-4.11,4.09-9.07,4.5-13.82v-.59c0-1.68-.43-1.91-.72-2.07A.91.91,0,0,0,317.36,434.11Z"/><path class="cls-11" d="M311.4,422.48a17.25,17.25,0,0,1,12.27,5.12,10.07,10.07,0,0,1,3.13,7.07c.25,7.77-1.34,15.1-6,21.48-2.16,2.95-4.67,4.39-7.51,4.39a11.76,11.76,0,0,1-5.52-1.58c-.15-.08-.32-.13-.63-.25.51,4.71,1.28,9.21,4.07,13.06a8.67,8.67,0,0,0,7.2,3.89,11.42,11.42,0,0,0,4.06-.81c5-1.92,8.66-5.57,11.7-9.86,3.2-4.51,5.26-9.62,7.38-14.68.75-1.8,1.45-3.62,2.2-5.42.16-.39.29-.92.81-.92h.05c.54,0,.69.56.82,1a14.31,14.31,0,0,1,.2,7.41c-1.79,8.06-5,15.47-10.76,21.52-4.73,5-10.72,7.32-17.51,7.73q-1.39.08-2.77.09a32.67,32.67,0,0,1-12.83-2.42,21.83,21.83,0,0,1-11-9.78c-1.07,1.51-2.05,2.89-3,4.27a17.66,17.66,0,0,1-14.89,7.54,21.84,21.84,0,0,1-6.38-1c-5.75-1.77-8.58-6.25-10-11.77a44,44,0,0,1-.72-15.83,65.69,65.69,0,0,1,2.31-13c.1-.31.21-.69-.12-.86a.6.6,0,0,0-.29-.08c-.3,0-.54.27-.74.52a29.46,29.46,0,0,0-3.68,5.55c-2.57,5-3.71,10.39-4.43,15.91-.65,5-.46,10-.79,15-.2,3.11-1.44,4.44-4.13,4.44a10.27,10.27,0,0,1-1.13-.07,23.85,23.85,0,0,1-13.51-5.87,8.52,8.52,0,0,1-2.91-7c0-5.94-.29-11.89-.55-17.83-.12-2.63-.46-5.24-.67-7.87a10.93,10.93,0,0,0-2.3-6c-3.08-4-2.67-6,1.82-8.38a35.83,35.83,0,0,1,17.11-4.28q1.16,0,2.33.07a9.64,9.64,0,0,1,1.87.34c2.3.61,2.87,1.37,2.87,3.72,0,3.83-.78,7.58-1.21,11.36-.24,2.08-.46,6.37-.42,6.37h0c1.09-1.77,2.13-3.56,3.27-5.29a73.06,73.06,0,0,1,10-12.56c2-1.92,3.47-2.86,5.1-2.86,1.36,0,2.81.65,4.71,1.91a20.79,20.79,0,0,1,7.36,8.41,6.76,6.76,0,0,1,.44,4.9c-1.43,5.15-3.14,10.24-4,15.54-.83,5.06-1.63,10.15-1,15.3.34,2.62,1.64,4,3.51,4a6.11,6.11,0,0,0,3-.93,13.81,13.81,0,0,0,4-3.69,68.76,68.76,0,0,0,4.3-6.78,2.55,2.55,0,0,0,.13-1.83c-1.26-9.61,0-18.77,5.18-27.11,3.08-4.93,7.12-9,12.89-10.54a21.07,21.07,0,0,1,5.37-.73m.73,31.82a4.81,4.81,0,0,0,3.69-2.17c3.49-4.42,4.53-9.69,5-15.13,0-.23,0-.45,0-.68,0-1.67-.33-3.23-1.92-4.08a3.18,3.18,0,0,0-1.53-.4,5.5,5.5,0,0,0-2.93,1.11,12.86,12.86,0,0,0-4,4.54,29.91,29.91,0,0,0-3.29,11,4.31,4.31,0,0,0,1.32,3.88,5.26,5.26,0,0,0,3.7,1.94m-.73-36.36a25.68,25.68,0,0,0-6.53.88c-6.25,1.65-11.35,5.74-15.58,12.53-5.4,8.64-7.32,18.42-5.87,29.87L283,462a44.74,44.74,0,0,1-3,4.73,10.14,10.14,0,0,1-2.39,2.39c-.49-4.46.26-9.07,1-13.53a94.25,94.25,0,0,1,2.77-11.11c.38-1.31.77-2.63,1.13-3.95a11.25,11.25,0,0,0-.72-8.08,25.33,25.33,0,0,0-8.93-10.22,13.17,13.17,0,0,0-7.23-2.68c-3.55,0-6.18,2.1-8.28,4.16-1.33,1.3-2.62,2.69-3.91,4.2q0-.42,0-.84c0-4.4-2-7-6.26-8.1a14.08,14.08,0,0,0-2.76-.49c-.87-.05-1.74-.08-2.59-.08a40.44,40.44,0,0,0-19.25,4.82c-2.43,1.3-5.31,3.23-6,6.63s1.09,6.34,2.77,8.52a6.37,6.37,0,0,1,1.37,3.58c.08,1,.18,2.05.28,3.08.16,1.61.31,3.13.37,4.64l.12,2.7c.23,4.9.46,10,.43,14.89a13,13,0,0,0,4.44,10.41,28.43,28.43,0,0,0,16,7,14.87,14.87,0,0,0,1.63.1c2.43,0,8.15-.85,8.66-8.69.09-1.38.14-2.76.18-4.11,2.26,6.63,6.43,10.92,12.41,12.76a26.25,26.25,0,0,0,7.71,1.16,22.08,22.08,0,0,0,18-8.62,26.89,26.89,0,0,0,9.16,6.24,37,37,0,0,0,14.59,2.77c1,0,2,0,3-.09,8.32-.5,15.22-3.57,20.52-9.13,5.83-6.12,9.73-13.86,11.91-23.67a18.8,18.8,0,0,0-.29-9.73,5.37,5.37,0,0,0-4.87-4.17h-.34a5.23,5.23,0,0,0-5,3.67l0,.06c-.37.88-.73,1.78-1.09,2.68s-.73,1.82-1.11,2.72l-.32.77c-2,4.71-3.83,9.16-6.57,13-3.08,4.34-6,6.88-9.62,8.24a7,7,0,0,1-2.44.51,4.1,4.1,0,0,1-3.52-2,13.84,13.84,0,0,1-2-4h.37c3,0,7.4-1.09,11.18-6.26,4.94-6.75,7.19-14.7,6.89-24.31a14.53,14.53,0,0,0-4.52-10.19,21.93,21.93,0,0,0-15.42-6.39Zm.21,31.17h0a26,26,0,0,1,2.74-9.36,9.6,9.6,0,0,1,1.87-2.44c-.4,4.21-1.21,8.53-4,12l-.2.24a4.44,4.44,0,0,1-.33-.31l-.12-.13Z"/><path class="cls-14" d="M247.18,444.77"/><path class="cls-11" d="M91.82,256.35c-8.39,0-13.89-8.13-13.89-20.24,0-6.86,1.61-13.89,3.81-18.21.51-1,.42-1.61.17-1.61s-1.19,1.1-1.36,1.36C76.66,223.31,68,241.27,68,251.27c0,1.52-.25,3.64-2.88,3.64-3.39,0-9.49-8.81-9.49-14.82,0-9.15,1.95-21.34,3.64-26.09.08-.25.42-1.61.17-1.61s-1.19,1.1-1.36,1.35c-5.5,7.45-13.47,26-13.47,34,0,1.78.25,6.1-2,6.1-6.69,0-9.4-10.84-9.4-17.19,0-12.11,1.36-24.22,1.36-36.42,0-4.83-4.49-2.63-4.49-6.35,0-3.9,11.77-4.91,14.48-4.91,3.64,0,10.59-.17,10.59,5.17a12.73,12.73,0,0,1-.93,4.32A160.74,160.74,0,0,0,47,223.82c.08.34.42.34.59-.08,2.12-5.68,13.72-29.14,19.48-29.14,4.74,0,9.66,7.12,9.66,12.45a4.56,4.56,0,0,1-.34,1.86A124.36,124.36,0,0,0,70.56,226c0,.42.17.51.51,0,4.57-10.76,14.31-27.53,18.46-27.53,4.66,0,9.66,7.11,9.66,12.45a4.54,4.54,0,0,1-.34,1.86c-5.67,13.38-8.47,22.11-8.47,28.54,0,6,1.52,9.49,4.4,9.49s4.83-3.3,4.83-5.51a2.33,2.33,0,0,1,2.46-2,1.47,1.47,0,0,1,1.53,1.52A11.38,11.38,0,0,1,91.82,256.35Z"/><path class="cls-11" d="M157.47,247.29c-3,4.57-6.69,9-14.65,9-5.25,0-9.57-2.46-11.69-7.71a14.26,14.26,0,0,1-12.54,7.71c-7.37,0-13.13-4.83-13.13-15.67,0-5,1.27-9.4,1.27-11.94,0-.76-.93-1.61-1.61-2.63a4.16,4.16,0,0,1-1-2.46c0-2.71,9.4-6,16-6,3,0,4.91.85,4.91,2.2,0,3.22-1.86,8-3.56,13.72-1.44,4.91-2.54,8.72-2.54,13.21,0,2.46,1.27,4.57,3.22,4.57,5.67,0,9.15-16.86,9.15-25.24,0-.68-.93-1.61-1.61-2.54a4.62,4.62,0,0,1-1-2.54c0-2.63,9.32-5.93,16-5.93,3,0,4.83.85,4.83,2.12,0,3.22-1.78,8.13-3.47,13.72a54.6,54.6,0,0,0-2.88,15.84c0,2.46,1.27,4.57,3.22,4.57,3.47,0,6.78-4.83,8.55-7.88a97.48,97.48,0,0,0,5.67-12.54c.25-.59.51-.93.68-.93.59-.17,1,1.69,1,3.64C162.3,237.88,159.59,244.07,157.47,247.29Z"/><path class="cls-11" d="M184.66,247.62c-3.39,5-7.2,8.64-13,8.64-7.28,0-16.35-5.34-16.35-25.24,0-26.09,10.42-41.25,18.29-41.25,4.07,0,8.55,2.12,8.55,12.28,0,7.71-4.07,24.65-12.62,29.73.25,9.49,2.37,17.11,5.93,17.11,2.8,0,5.51-2.71,8-7.79,2.2-4.4,3.39-7.62,4.15-9.49.51-1.1.76-1.69,1-1.69.85,0,.93,2.54.93,4C189.66,236.36,188.13,242.63,184.66,247.62Zm-8.13-49.89c-2.46,0-7,12.11-7,28.46v.68c6.27-6.27,8.55-20,8.55-27C178.05,198.16,177.29,197.73,176.53,197.73Z"/><path class="cls-11" d="M214.39,247.29c-3,4.57-6.69,9-14.65,9-11.52,0-13.47-15.75-13.47-28.37,0-4.66,0-8.89.25-11.94-.93.08-1.86.08-2.88.08-2.29,0-5.08-.08-7.28-1.1a7.28,7.28,0,0,1-3.73-6.1c0-.93.34-1.52,1.1-1.52a6.86,6.86,0,0,1,2.12.68,39.66,39.66,0,0,0,11.26,2.2c.17-1.61.25-2.8.25-3.47a4.52,4.52,0,0,0-.85-2.63,4.39,4.39,0,0,1-1-2.54c0-2.63,9.32-5.93,16-5.93,3,0,4.57,1.69,4.57,3s-.85,5.42-1.95,11.1l1.1-.08c1.53,0,8.56-.17,8.56,3,0,1.35-2,2.63-2.88,2.63a1.08,1.08,0,0,1-.51-.08,22.09,22.09,0,0,0-7-1c-1.44,4.15-3.3,19.4-3.3,30.58,0,4.4,1.27,6.61,3.22,6.61,3.47,0,6.78-4.83,8.55-7.88a97.62,97.62,0,0,0,5.67-12.54c.25-.59.42-.93.68-.93.59-.17,1,1.69,1,3.64C219.22,237.88,216.51,244.07,214.39,247.29Z"/><path class="cls-11" d="M241,247.29c-3,4.57-6.69,9-14.65,9-7.37,0-13-4.83-13-15.67,0-5,1.52-12,1.52-14.57,0-.68-.93-1.61-1.61-2.54a4.62,4.62,0,0,1-1-2.54c0-2.63,9.4-5.93,16-5.93,3,0,4.91.85,4.91,2.12,0,3.22-1.86,8.13-3.56,13.72-1.44,4.91-2.88,10.42-2.88,15.84,0,2.46,1.27,4.57,3.3,4.57,3.39,0,6.69-4.83,8.47-7.88a86.34,86.34,0,0,0,5.67-12.54c.25-.59.51-.93.68-.93.59-.17,1,1.69,1,3.64C245.82,237.88,243.11,244.07,241,247.29Zm-18.8-37c-3.22,0-7.45-1.61-7.45-5.51,0-5.34,7-8.47,11.6-8.47,3.3,0,7.54,1.52,7.54,5.42C233.88,207.05,226.76,210.27,222.19,210.27Z"/><path class="cls-11" d="M263.52,255.84c-3.9,0-6.52-1.27-8-3.13-.34,5.59-.59,12.37-.59,21.18,0,6.69,1.19,6.27,1.19,8.64s-9.4-.51-11.6-3.22c-1.27-1.61-1.1-2.37-1.1-4.32,0-23.12-1.19-44.21-2.79-49a10.2,10.2,0,0,0-1.61-2.54,4.62,4.62,0,0,1-1-2.54c0-2.63,8.22-5.93,14.82-5.93,3,0,4.91,2.2,4.91,3.47v1.27c2.37-2.71,5.51-4.49,8.39-4.49,6,0,13.47,2.63,13.47,16.52C279.53,244.91,273.94,255.84,263.52,255.84Zm-2-33.37c-1.61,0-3,2.2-4.07,4.83-.25,6-.85,11-1.36,17.28.59,2.63,2,5.08,3.64,5.08,2.88,0,6.27-5.42,6.27-14.57C266,226.87,263.95,222.47,261.49,222.47Z"/><path class="cls-11" d="M312.14,247.62c-3.39,5-7.2,8.64-13,8.64-7.28,0-16.35-5.34-16.35-25.24,0-26.09,10.42-41.25,18.29-41.25,4.07,0,8.55,2.12,8.55,12.28,0,7.71-4.07,24.65-12.62,29.73.25,9.49,2.37,17.11,5.93,17.11,2.8,0,5.51-2.71,8-7.79,2.2-4.4,3.39-7.62,4.15-9.49.51-1.1.76-1.69,1-1.69.85,0,.93,2.54.93,4C317.14,236.36,315.62,242.63,312.14,247.62ZM304,197.73c-2.46,0-7,12.11-7,28.46v.68c6.27-6.27,8.55-20,8.55-27C305.54,198.16,304.78,197.73,304,197.73Z"/><path class="cls-11" d="M346.45,246.44A19,19,0,0,1,329,256.52c-10.84,0-19.4-5.59-19.4-19,0-14.91,9.4-22.78,15.84-22.78,6.95,0,11.94,3.64,11.94,9.49,0,7.79-3.9,17.28-9.49,17.28a7.1,7.1,0,0,1-4.49-1.44c.68,8.22,3.81,12.2,8,12.2,4.66,0,9.57-4.49,12.45-9.49a102.92,102.92,0,0,0,5.34-11.86c.25-.68.51-1.1.68-1.1.42,0,1,.93,1,3.73C350.85,236.78,349,242,346.45,246.44Zm-15.67-25.16c-2.54,0-6.95,3.9-7.45,13.21.93,1.44,2.29,2.71,3.64,2.71,3.56,0,6.18-7.79,6.18-12.71C333.15,222,331.8,221.28,330.78,221.28Z"/><path class="cls-6" d="M91.16,251.4c-8.39,0-13.89-8.13-13.89-20.24,0-6.86,1.61-13.89,3.81-18.21.51-1,.42-1.61.17-1.61s-1.19,1.1-1.36,1.36c-3.9,5.67-12.54,23.63-12.54,33.63,0,1.52-.25,3.64-2.88,3.64-3.39,0-9.49-8.81-9.49-14.82,0-9.15,1.95-21.34,3.64-26.09.08-.25.42-1.61.17-1.61s-1.19,1.1-1.36,1.35c-5.5,7.45-13.47,26-13.47,34,0,1.78.25,6.1-2,6.1-6.69,0-9.4-10.84-9.4-17.19,0-12.11,1.36-24.22,1.36-36.42,0-4.83-4.49-2.63-4.49-6.35,0-3.9,11.77-4.91,14.48-4.91,3.64,0,10.59-.17,10.59,5.17a12.73,12.73,0,0,1-.93,4.32,160.74,160.74,0,0,0-7.2,25.41c.08.34.42.34.59-.08,2.12-5.68,13.72-29.14,19.48-29.14,4.74,0,9.66,7.12,9.66,12.45a4.56,4.56,0,0,1-.34,1.86,124.36,124.36,0,0,0-5.84,17.11c0,.42.17.51.51,0,4.57-10.76,14.31-27.53,18.46-27.53,4.66,0,9.66,7.11,9.66,12.45a4.54,4.54,0,0,1-.34,1.86c-5.67,13.38-8.47,22.11-8.47,28.54,0,6,1.52,9.49,4.4,9.49s4.83-3.3,4.83-5.51a2.33,2.33,0,0,1,2.46-2,1.47,1.47,0,0,1,1.53,1.52A11.38,11.38,0,0,1,91.16,251.4Z"/><path class="cls-6" d="M156.8,242.34c-3,4.57-6.69,9-14.65,9-5.25,0-9.57-2.46-11.69-7.71a14.26,14.26,0,0,1-12.54,7.71c-7.37,0-13.13-4.83-13.13-15.67,0-5,1.27-9.4,1.27-11.94,0-.76-.93-1.61-1.61-2.63a4.16,4.16,0,0,1-1-2.46c0-2.71,9.4-6,16-6,3,0,4.91.85,4.91,2.2,0,3.22-1.86,8-3.56,13.72-1.44,4.91-2.54,8.72-2.54,13.21,0,2.46,1.27,4.57,3.22,4.57,5.67,0,9.15-16.86,9.15-25.24,0-.68-.93-1.61-1.61-2.54a4.62,4.62,0,0,1-1-2.54c0-2.63,9.32-5.93,16-5.93,3,0,4.83.85,4.83,2.12,0,3.22-1.78,8.13-3.47,13.72a54.6,54.6,0,0,0-2.88,15.84c0,2.46,1.27,4.57,3.22,4.57,3.47,0,6.78-4.83,8.55-7.88a97.48,97.48,0,0,0,5.67-12.54c.25-.59.51-.93.68-.93.59-.17,1,1.69,1,3.64C161.63,232.94,158.92,239.12,156.8,242.34Z"/><path class="cls-6" d="M184,242.68c-3.39,5-7.2,8.64-13,8.64-7.28,0-16.35-5.34-16.35-25.24,0-26.09,10.42-41.25,18.29-41.25,4.07,0,8.55,2.12,8.55,12.28,0,7.71-4.07,24.65-12.62,29.73.25,9.49,2.37,17.11,5.93,17.11,2.8,0,5.51-2.71,8-7.79,2.2-4.4,3.39-7.62,4.15-9.49.51-1.1.76-1.69,1-1.69.85,0,.93,2.54.93,4C189,231.41,187.47,237.68,184,242.68Zm-8.13-49.89c-2.46,0-7,12.11-7,28.46v.68c6.27-6.27,8.55-20,8.55-27C177.39,193.21,176.62,192.79,175.86,192.79Z"/><path class="cls-6" d="M213.73,242.34c-3,4.57-6.69,9-14.65,9-11.52,0-13.47-15.75-13.47-28.37,0-4.66,0-8.89.25-11.94-.93.08-1.86.08-2.88.08-2.29,0-5.08-.08-7.28-1.1a7.28,7.28,0,0,1-3.73-6.1c0-.93.34-1.52,1.1-1.52a6.86,6.86,0,0,1,2.12.68,39.66,39.66,0,0,0,11.26,2.2c.17-1.61.25-2.8.25-3.47a4.52,4.52,0,0,0-.85-2.63,4.39,4.39,0,0,1-1-2.54c0-2.63,9.32-5.93,16-5.93,3,0,4.57,1.69,4.57,3s-.85,5.42-1.95,11.1l1.1-.08c1.53,0,8.56-.17,8.56,3,0,1.35-2,2.63-2.88,2.63a1.08,1.08,0,0,1-.51-.08,22.09,22.09,0,0,0-7-1c-1.44,4.15-3.3,19.4-3.3,30.58,0,4.4,1.27,6.61,3.22,6.61,3.47,0,6.78-4.83,8.55-7.88a97.62,97.62,0,0,0,5.67-12.54c.25-.59.42-.93.68-.93.59-.17,1,1.69,1,3.64C218.55,232.94,215.84,239.12,213.73,242.34Z"/><path class="cls-6" d="M240.32,242.34c-3,4.57-6.69,9-14.65,9-7.37,0-13-4.83-13-15.67,0-5,1.52-12,1.52-14.57,0-.68-.93-1.61-1.61-2.54a4.62,4.62,0,0,1-1-2.54c0-2.63,9.4-5.93,16-5.93,3,0,4.91.85,4.91,2.12,0,3.22-1.86,8.13-3.56,13.72-1.44,4.91-2.88,10.42-2.88,15.84,0,2.46,1.27,4.57,3.3,4.57,3.39,0,6.69-4.83,8.47-7.88a86.34,86.34,0,0,0,5.67-12.54c.25-.59.51-.93.68-.93.59-.17,1,1.69,1,3.64C245.15,232.94,242.44,239.12,240.32,242.34Zm-18.8-37c-3.22,0-7.45-1.61-7.45-5.51,0-5.34,7-8.47,11.6-8.47,3.3,0,7.54,1.52,7.54,5.42C233.21,202.11,226.09,205.33,221.52,205.33Z"/><path class="cls-6" d="M262.86,250.9c-3.9,0-6.52-1.27-8-3.13-.34,5.59-.59,12.37-.59,21.18,0,6.69,1.19,6.27,1.19,8.64s-9.4-.51-11.6-3.22c-1.27-1.61-1.1-2.37-1.1-4.32,0-23.12-1.19-44.21-2.79-49a10.2,10.2,0,0,0-1.61-2.54,4.62,4.62,0,0,1-1-2.54c0-2.63,8.22-5.93,14.82-5.93,3,0,4.91,2.2,4.91,3.47v1.27c2.37-2.71,5.51-4.49,8.39-4.49,6,0,13.47,2.63,13.47,16.52C278.86,240,273.27,250.9,262.86,250.9Zm-2-33.37c-1.61,0-3,2.2-4.07,4.83-.25,6-.85,11-1.36,17.28.59,2.63,2,5.08,3.64,5.08,2.88,0,6.27-5.42,6.27-14.57C265.31,221.93,263.28,217.52,260.82,217.52Z"/><path class="cls-6" d="M311.48,242.68c-3.39,5-7.2,8.64-13,8.64-7.28,0-16.35-5.34-16.35-25.24,0-26.09,10.42-41.25,18.29-41.25,4.07,0,8.55,2.12,8.55,12.28,0,7.71-4.07,24.65-12.62,29.73.25,9.49,2.37,17.11,5.93,17.11,2.8,0,5.51-2.71,8-7.79,2.2-4.4,3.39-7.62,4.15-9.49.51-1.1.76-1.69,1-1.69.85,0,.93,2.54.93,4C316.47,231.41,314.95,237.68,311.48,242.68Zm-8.13-49.89c-2.46,0-7,12.11-7,28.46v.68c6.27-6.27,8.55-20,8.55-27C304.87,193.21,304.11,192.79,303.34,192.79Z"/><path class="cls-6" d="M345.78,241.49a19,19,0,0,1-17.45,10.08c-10.84,0-19.4-5.59-19.4-19,0-14.91,9.4-22.78,15.84-22.78,6.95,0,11.94,3.64,11.94,9.49,0,7.79-3.9,17.28-9.49,17.28a7.1,7.1,0,0,1-4.49-1.44c.68,8.22,3.81,12.2,8,12.2,4.66,0,9.57-4.49,12.45-9.49A102.92,102.92,0,0,0,348.49,226c.25-.68.51-1.1.68-1.1.42,0,1,.93,1,3.73C350.19,231.84,348.32,237.09,345.78,241.49Zm-15.67-25.16c-2.54,0-6.95,3.9-7.45,13.21.93,1.44,2.29,2.71,3.64,2.71,3.56,0,6.18-7.79,6.18-12.71C332.48,217.1,331.13,216.34,330.11,216.34Z"/><path class="cls-11" d="M48.29,520.11H60.22v38.52H48.29Z"/><path class="cls-11" d="M68,530.72H78v4.55a14.84,14.84,0,0,1,4.52-4,11.9,11.9,0,0,1,5.57-1.2,9.13,9.13,0,0,1,7,2.64q2.51,2.64,2.51,8.16v17.74H86.81V543.28a5.59,5.59,0,0,0-1-3.72,3.47,3.47,0,0,0-2.73-1.09A3.89,3.89,0,0,0,80,539.95q-1.21,1.47-1.21,5.28v13.4H68Z"/><path class="cls-11" d="M116.85,520.11v10.62h5.89v7.83h-5.89v9.89a5.3,5.3,0,0,0,.34,2.36,2,2,0,0,0,1.84.89,11.73,11.73,0,0,0,3.31-.68l.79,7.38a34.82,34.82,0,0,1-7.41.87,12.89,12.89,0,0,1-5.89-1,6.24,6.24,0,0,1-2.8-3.11,18.27,18.27,0,0,1-.91-6.76v-9.82h-3.94v-7.83h3.94V525.6Z"/><path class="cls-11" d="M158.81,547.33H137.37a6.92,6.92,0,0,0,1.39,3.84,5.07,5.07,0,0,0,4,1.81,6.08,6.08,0,0,0,3-.79,7,7,0,0,0,1.87-1.76l10.54,1a15.09,15.09,0,0,1-5.83,6q-3.42,1.83-9.8,1.83a20.06,20.06,0,0,1-8.72-1.56,12.8,12.8,0,0,1-5.27-5,15,15,0,0,1-2.09-8,14.06,14.06,0,0,1,4.19-10.59q4.19-4,11.58-4,6,0,9.46,1.81a12.25,12.25,0,0,1,5.28,5.26,19.22,19.22,0,0,1,1.81,9Zm-10.88-5.12a7.15,7.15,0,0,0-1.67-4.44,5.24,5.24,0,0,0-7.63.68,7.41,7.41,0,0,0-1.23,3.76Z"/><path class="cls-11" d="M163.83,530.72h10v4.57a10.89,10.89,0,0,1,3-4.09,6.29,6.29,0,0,1,3.8-1.12,11.3,11.3,0,0,1,5.18,1.47l-3.31,7.62a8.41,8.41,0,0,0-3-.79,3.7,3.7,0,0,0-3.26,1.73q-1.66,2.44-1.66,9.15v9.35H163.83Z"/><path class="cls-11" d="M187.59,530.72h11.13l5.41,17.69,5.62-17.69h10.79l-11.86,27.91h-9.49Z"/><path class="cls-11" d="M224,520.11h10.7v7.28H224Zm0,10.62h10.7v27.91H224Z"/><path class="cls-11" d="M272.52,547.33H251.07a6.92,6.92,0,0,0,1.39,3.84,5.07,5.07,0,0,0,4,1.81,6.08,6.08,0,0,0,3-.79,7,7,0,0,0,1.87-1.76l10.54,1a15.09,15.09,0,0,1-5.83,6q-3.42,1.83-9.8,1.83a20.06,20.06,0,0,1-8.72-1.56,12.8,12.8,0,0,1-5.27-5,15,15,0,0,1-2.09-8,14.06,14.06,0,0,1,4.19-10.59q4.19-4,11.58-4,6,0,9.46,1.81a12.25,12.25,0,0,1,5.28,5.26,19.22,19.22,0,0,1,1.81,9Zm-10.88-5.12a7.15,7.15,0,0,0-1.67-4.44,5.24,5.24,0,0,0-7.63.68,7.41,7.41,0,0,0-1.23,3.76Z"/><path class="cls-11" d="M274.3,530.72h10.34l4.47,17.57,5.66-17.57h9.67l5.9,17.61,4.5-17.61h10.28l-10.28,27.91h-9.52l-5.65-16.79-5.46,16.79h-9.56Z"/></g></g></g></svg>