<svg xmlns="http://www.w3.org/2000/svg" viewBox="0 0 399.92 608.13"><defs><style>.cls-1{isolation:isolate;}.cls-2{fill:#81b4d4;}.cls-3{fill:#1b1b26;}.cls-4,.cls-7{fill:#eac247;}.cls-5{fill:#d32027;stroke-width:0.69px;}.cls-5,.cls-6{stroke:#fff;}.cls-5,.cls-6,.cls-7{stroke-miterlimit:10;}.cls-6{fill:#fff;stroke-width:11.05px;}.cls-7{stroke:#231f20;stroke-width:4.14px;}.cls-8{fill:#fdf9cc;opacity:0.21;mix-blend-mode:overlay;}.cls-9{fill:#cb9536;}.cls-10{fill:#cb6328;opacity:0.12;mix-blend-mode:multiply;}</style></defs><title>monster</title><g class="cls-1"><g id="Layer_2" data-name="Layer 2"><g id="drinks_and_fruits" data-name="drinks and fruits"><path class="cls-2" d="M399.92,576.72c0-16-83.84-24.24-189.6-24.24s-190.18,2-190.18,18S97,609,211.89,605.59C317.59,602.41,399.92,592.68,399.92,576.72Z"/><path class="cls-3" d="M249.88,598.75c-50.11,11.34-160,13.63-213.86,0-19.29-4.88-36-16.13-36-36V68.35C15.39,31.76,38.19,47.3,36.46,20.7l215.87.35c-1.73,24.52,17.27,12.43,33.58,47.3V562.72C285.91,582.62,269.29,594.36,249.88,598.75Z"/><path class="cls-4" d="M19.86,103.14H10.63V99H33.36v4.16H24.23v30.34H19.86Z"/><path class="cls-4" d="M38.74,133.48V99H57.31v4.16H43.1v10.91H56.3v4.16H43.1v11.11H57.31v4.16Z"/><path class="cls-4" d="M65.08,133.48V99h4.36v30.34H83.65v4.16Z"/><path class="cls-4" d="M89,133.48V99h18.57v4.16H93.34v10.91h13.19v4.16H93.34v11.11h14.21v4.16Z"/><path class="cls-4" d="M115.31,99h10.15c6.44,0,10.86,3.86,10.86,10.35s-4.41,10.35-10.86,10.35h-5.78v13.8h-4.36Zm10.15,4.16h-5.78v12.38h5.78c3.6,0,6.34-1.93,6.34-6.14S129.06,103.14,125.46,103.14Z"/><path class="cls-4" d="M166.81,118.21H147.07v15.27h-4.36V99h4.36v15.07h19.74V99h4.36v34.5h-4.36Z"/><path class="cls-4" d="M195.53,98.48a17.76,17.76,0,1,1-17.76,17.76A17.4,17.4,0,0,1,195.53,98.48Zm0,31.2a13.45,13.45,0,1,0-13.19-13.44A13.11,13.11,0,0,0,195.53,129.68Z"/><path class="cls-4" d="M224.51,108.73v24.76h-4.36V102.89l-2.38-3.55V99H223l19.79,27V99h4.36v34.5h-4.36Z"/><path class="cls-4" d="M256.17,133.48V99h18.57v4.16H260.53v10.91h13.19v4.16H260.53v11.11h14.21v4.16Z"/><path class="cls-5" d="M35.79,153.15a12.36,12.36,0,0,0-7.38-2.64c-3.69,0-5.93,1.89-5.93,4.74,0,1.74,1,3.14,3.14,4.49l5.88,3.69c4.19,2.64,5.73,5.18,5.73,8.72,0,4.84-3.54,9.22-10.72,9.22a18.53,18.53,0,0,1-8.32-2v-5a13,13,0,0,0,8.22,3c4.09,0,6.28-2.34,6.28-5,0-1.79-1.2-3.44-3.69-5l-5.83-3.69c-3.89-2.39-5.28-4.94-5.28-8.33,0-4.34,2.94-8.87,10.62-8.87a14.64,14.64,0,0,1,7.28,1.84Z"/><path class="cls-5" d="M67.8,179a17.64,17.64,0,0,1-8.92,2.34,17.45,17.45,0,0,1,0-34.9,17.63,17.63,0,0,1,8.92,2.34v5a13.67,13.67,0,0,0-8.92-3.14,13.21,13.21,0,0,0,0,26.42A13.81,13.81,0,0,0,67.8,174Z"/><path class="cls-5" d="M74.53,147h10c6.33,0,10.67,3.54,10.67,9.52,0,4.89-3,7.73-7,8.67,4,1.89,7.53,7.68,8.77,15.7H92.57c-1.54-8.42-5.78-14.16-10.22-14.16H78.81v14.16H74.53Zm10,4.09H78.81v11.57h5.73c3.54,0,6.23-2,6.23-5.73S88.09,151.06,84.55,151.06Z"/><path class="cls-5" d="M103.14,180.87V147h18.25v4.09h-14v10.72h13v4.09h-13v10.92h14v4.09Z"/><path class="cls-5" d="M129,180.87V147h18.25v4.09h-14v10.72h13v4.09h-13v10.92h14v4.09Z"/><path class="cls-5" d="M159.37,156.54v24.33h-4.29V150.81l-2.34-3.49V147h5.18l19.44,26.52V147h4.29v33.9h-4.29Z"/><path class="cls-5" d="M190.47,147h4.29v33.9h-4.29Z"/><path class="cls-5" d="M208.07,156.54v24.33h-4.29V150.81l-2.34-3.49V147h5.18l19.44,26.52V147h4.29v33.9h-4.29Z"/><path class="cls-5" d="M263.9,153.2a18.13,18.13,0,0,0-9.22-2.49,12.89,12.89,0,0,0-13.31,13.21c0,7.18,5.18,13.21,12.51,13.21s11.86-5.08,11.86-11.22c0-.4,0-1.3-.1-1.65h-12v-3.89H270a23.67,23.67,0,0,1,.4,4.44c0,9.12-6.13,16.55-16.6,16.55-9.77,0-16.9-7.63-16.9-17.45s7.48-17.45,17.8-17.45a20.08,20.08,0,0,1,9.22,2Z"/><path class="cls-6" d="M270.71,497a16.75,16.75,0,0,0-5.14-6.82c-10.89-8.53-21.75-17.08-32.69-25.54-4.89-3.78-9.88-7.43-14.91-11a23.78,23.78,0,0,0-9.75-4.15,7.36,7.36,0,0,0-5.08.68c-6.25,3.41-12.58,6.68-18.87,10-.36.19-.71.41-1.19.69l81.21,64.46c.17-.43.31-.74.41-1.05q2.66-8.34,5.31-16.68c.46-1.46.88-2.94,1.31-4.4v-4.38C271.12,498.2,271,497.59,270.71,497Z"/><path class="cls-6" d="M100.38,265.21c.25,11.16.71,22.32,1.12,33.48.08,2.1.3,4.2.53,6.29.21,1.88.94,2.54,2.86,2.59a11.38,11.38,0,0,0,2.43-.2,26.81,26.81,0,0,0,7.21-2.67,22.9,22.9,0,0,0,6.64-4.59c2-2.21,4-4.52,6-6.77a2.53,2.53,0,0,0,.64-1.87c-.09-3.78-.14-7.56-.2-11.34q-.4-27.51-.78-55a6.2,6.2,0,0,0-.79-2.94,14.82,14.82,0,0,0-3.65-4.3,39.38,39.38,0,0,0-13.94-7.53c-1.43-.43-2.91-.68-4.37-1h-3.61l-1,.43c0,.41,0,.75,0,1.09C99.72,229,100,247.09,100.38,265.21Z"/><path class="cls-6" d="M175.92,468.39a40.49,40.49,0,0,1-7.29,3.19,31.24,31.24,0,0,1-13.31,1.64A22.74,22.74,0,0,1,140.91,466a50.58,50.58,0,0,1-5.89-8c-6.28-9.9-12-20.15-17.57-30.45C104,402.77,91.06,377.66,78.36,352.43a16,16,0,0,1-.89-2.13,40.13,40.13,0,0,1-2-18A27.08,27.08,0,0,1,80.84,319a31.64,31.64,0,0,1,10.84-8.75l1.85-.94c0-.43,0-.81,0-1.19q-.39-13.33-.78-26.66-.52-17.52-1-35-.52-17.71-1-35.42c0-.42-.06-.83-.09-1.24a2.57,2.57,0,0,0-.45-.1c-.3,0-.6,0-.9,0a110.2,110.2,0,0,0-17.17,2.54,87,87,0,0,0-28.7,12,57.66,57.66,0,0,0-22,26.28c-3.82,9.2-5.08,18.85-5,28.72,0,3.91.21,7.82.38,11.72.42,9.7.93,19.39,2,29,.67,6.36,1.34,12.72,2.18,19.06q1.77,13.27,4.51,26.39a296.61,296.61,0,0,0,10.37,38.09,165.32,165.32,0,0,0,13.36,29.79c3.24,5.46,6.79,10.74,10.33,16a497.17,497.17,0,0,0,29.9,40.52,286.09,286.09,0,0,0,28,29.68A170.11,170.11,0,0,0,143,538.91a100.92,100.92,0,0,0,30.58,12.83,44.32,44.32,0,0,0,11,1.31c4.16-.12,8.33,0,12.5,0a13.44,13.44,0,0,0,3.31-.37A220.64,220.64,0,0,0,232.76,542a147.31,147.31,0,0,0,21.53-11c.39-.24.76-.51,1.26-.86l-79-62.11C176.3,468.21,176.1,468.29,175.92,468.39Z"/><path class="cls-7" d="M270.71,497a16.75,16.75,0,0,0-5.14-6.82c-10.89-8.53-21.75-17.08-32.69-25.54-4.89-3.78-9.88-7.43-14.91-11a23.78,23.78,0,0,0-9.75-4.15,7.36,7.36,0,0,0-5.08.68c-6.25,3.41-12.58,6.68-18.87,10-.36.19-.71.41-1.19.69l81.21,64.46c.17-.43.31-.74.41-1.05q2.66-8.34,5.31-16.68c.46-1.46.88-2.94,1.31-4.4v-4.38C271.12,498.2,271,497.59,270.71,497Z"/><path class="cls-7" d="M100.38,265.21c.25,11.16.71,22.32,1.12,33.48.08,2.1.3,4.2.53,6.29.21,1.88.94,2.54,2.86,2.59a11.38,11.38,0,0,0,2.43-.2,26.81,26.81,0,0,0,7.21-2.67,22.9,22.9,0,0,0,6.64-4.59c2-2.21,4-4.52,6-6.77a2.53,2.53,0,0,0,.64-1.87c-.09-3.78-.14-7.56-.2-11.34q-.4-27.51-.78-55a6.2,6.2,0,0,0-.79-2.94,14.82,14.82,0,0,0-3.65-4.3,39.38,39.38,0,0,0-13.94-7.53c-1.43-.43-2.91-.68-4.37-1h-3.61l-1,.43c0,.41,0,.75,0,1.09C99.72,229,100,247.09,100.38,265.21Z"/><path class="cls-7" d="M175.92,468.39a40.49,40.49,0,0,1-7.29,3.19,31.24,31.24,0,0,1-13.31,1.64A22.74,22.74,0,0,1,140.91,466a50.58,50.58,0,0,1-5.89-8c-6.28-9.9-12-20.15-17.57-30.45C104,402.77,91.06,377.66,78.36,352.43a16,16,0,0,1-.89-2.13,40.13,40.13,0,0,1-2-18A27.08,27.08,0,0,1,80.84,319a31.64,31.64,0,0,1,10.84-8.75l1.85-.94c0-.43,0-.81,0-1.19q-.39-13.33-.78-26.66-.52-17.52-1-35-.52-17.71-1-35.42c0-.42-.06-.83-.09-1.24a2.57,2.57,0,0,0-.45-.1c-.3,0-.6,0-.9,0a110.2,110.2,0,0,0-17.17,2.54,87,87,0,0,0-28.7,12,57.66,57.66,0,0,0-22,26.28c-3.82,9.2-5.08,18.85-5,28.72,0,3.91.21,7.82.38,11.72.42,9.7.93,19.39,2,29,.67,6.36,1.34,12.72,2.18,19.06q1.77,13.27,4.51,26.39a296.61,296.61,0,0,0,10.37,38.09,165.32,165.32,0,0,0,13.36,29.79c3.24,5.46,6.79,10.74,10.33,16a497.17,497.17,0,0,0,29.9,40.52,286.09,286.09,0,0,0,28,29.68A170.11,170.11,0,0,0,143,538.91a100.92,100.92,0,0,0,30.58,12.83,44.32,44.32,0,0,0,11,1.31c4.16-.12,8.33,0,12.5,0a13.44,13.44,0,0,0,3.31-.37A220.64,220.64,0,0,0,232.76,542a147.31,147.31,0,0,0,21.53-11c.39-.24.76-.51,1.26-.86l-79-62.11C176.3,468.21,176.1,468.29,175.92,468.39Z"/><path class="cls-8" d="M44.93,204c7.33,125.68-5.14,336.46.93,397,7.67,1.51,16.16,2.78,25.21,3.8,11.14-55.11,11.2-278.39,11.2-417.64,0-129.44,19.16-115.37,18.07-161.4L79.86,23.29C76.25,46.17,36.49,59.18,44.93,204Z"/><polygon class="cls-9" points="252.55 20.79 35.9 20.79 36.65 9.16 252.76 9.74 252.55 20.79"/><ellipse class="cls-9" cx="144.22" cy="20.61" rx="108.45" ry="9.92"/><ellipse class="cls-4" cx="144.92" cy="9.92" rx="108.45" ry="9.92"/><path class="cls-10" d="M252.31,21.42a1.24,1.24,0,0,0,.36-.81,1,1,0,0,0-.11-.43l.17-9.18a1.47,1.47,0,0,0,.63-1.07C253.37,4.44,204.81,0,144.92,0c-6.84,0-13.53.06-20,.17C178.63,8.84,154.54,163,137.68,336.46c-9.56,98.31-1.2,97.56-53,268.6,54.2,6,116.84,2.41,165.2-6.31,19.58-3.53,36-16.13,36-36V68.35C269.68,33.66,250.8,45.44,252.31,21.42Z"/></g></g></g></svg>