<svg xmlns="http://www.w3.org/2000/svg" viewBox="0 0 319.1 302.95"><defs><style>.cls-1{fill:#81b4d4;}.cls-2{fill:#009444;}.cls-3{fill:#231f20;}.cls-4{fill:#e8ecee;stroke:#231f20;stroke-miterlimit:10;stroke-width:1.98px;}.cls-5{fill:#f7941d;}.cls-6{fill:#f36e24;}.cls-7{fill:#d35461;}</style></defs><title>orangeboy</title><g id="Layer_2" data-name="Layer 2"><g id="Layer_16" data-name="Layer 16"><path class="cls-1" d="M33.9,294.5C44,286.05,80.09,281.22,123.4,281c53.3-.28,80.72,6.45,80.72,14.39s-39.24,7.56-92.54,7.56S26.66,300.53,33.9,294.5Z"/><path class="cls-2" d="M2.06,32.37c-12.28-4.66,32.73,21.3,69.55,17s71.83-19.6,70.24-33.28S131.8-3.9,95.29,2.52C59.42,8.82,25.5,41.26,2.06,32.37Z"/><polygon class="cls-2" points="119.18 47.52 125.22 47.2 126.02 31.15 117.97 32.6 119.18 47.52"/><path class="cls-3" d="M269.37,117.83c22.49-15.28,28.79-35.15,34.2-28.34,1.87,2.36-15.37,28.29-39.71,40.41-23.55,11.73-33.8,13.52-35.67,11.17C221.56,132.71,246.89,133.11,269.37,117.83Z"/><path class="cls-4" d="M318.11,87.77c-.18-10.49-8.52-19.56-19-19-7,.38-9.33,5.64-14.25,12.79-2.58-5.2-4.37-7.15-9.63-5.3-2.76,1-3.05,6.46-.79,11.94a32.89,32.89,0,0,0,4.81,8,2.6,2.6,0,0,0-.9.89c-1.46,2.53,1.94,7.23,7.6,10.49s11.42,3.86,12.88,1.33a3,3,0,0,0,.24-2.12h0C310,106.56,318.28,98.17,318.11,87.77Z"/><path class="cls-3" d="M126,301.95c-6.23-.61-13.18-2.46-15.41-4-3.28-2.29-1.42-14.72-1.18-18l3.12-41.84c.24-3.23,3.8-2.38,8.21-2h0c1.64,8.37.23,46.45,3.62,48.8,13.21,9.14,28.54,16.51,16.39,17.4A64.76,64.76,0,0,1,126,301.95Z"/><path class="cls-3" d="M189.23,295.19c-6.26,0-13.35-1.19-15.73-2.53-3.48-2-2.81-14.52-2.88-17.76L169.74,233c-.07-3.24,3.56-2.73,8-2.82h0c2.43,8.18,4.65,46.22,8.25,48.23,14,7.84,30,13.72,18,15.76A64.76,64.76,0,0,1,189.23,295.19Z"/><ellipse class="cls-5" cx="139.68" cy="143.5" rx="108.92" ry="100.06"/><path class="cls-6" d="M154.61,230.27c-58.21,0-105.4-44-105.4-98.26,0-31.1,15.5-58.82,39.69-76.83-34.83,16.7-58.6,50.13-58.6,88.65,0,55.23,48.85,100,109.11,100,35.95,0,67.83-15.93,87.71-40.51A109.22,109.22,0,0,1,154.61,230.27Z"/><circle class="cls-3" cx="108.86" cy="120.7" r="6.33" transform="translate(-6.43 6.13) rotate(-3.13)"/><circle class="cls-3" cx="198.36" cy="111.41" r="6.33" transform="translate(-5.79 11.01) rotate(-3.13)"/><path class="cls-3" d="M118.14,86.22c.37,1.13-5.79-1.05-12.63,1.17S95.1,94.6,94.73,93.47s3.29-5.9,10.12-8.12S117.77,85.09,118.14,86.22Z"/><path class="cls-3" d="M184.7,82.88c-.18,1.17,5.41-1.47,12.51-.37s11.53,5.36,11.71,4.19-4.28-5.21-11.38-6.32S184.88,81.71,184.7,82.88Z"/><path class="cls-7" d="M180.92,142.93c-1.6,6.36-9.05,11.92-20.36,12s-18.94-5.31-20.6-11.62c-2.05-7.82,1-11.07,20.36-12C182,130.23,182.51,136.6,180.92,142.93Z"/><path class="cls-3" d="M32.85,196.56c-2.44,27.08,7.8,50.67-.9,50.54-3,0-12.13-29.82-6.08-56.33,5.86-25.64,11-34.71,14-34.66C50.52,156.27,35.28,169.49,32.85,196.56Z"/><path class="cls-4" d="M51.84,226.56a22.62,22.62,0,0,0-11-5.4c1.08-.81,1.67-1.69,1.59-2.56-.25-2.64-6.49-4.21-13.94-3.52s-13.29,3.4-13,6c.11,1.16,1.38,2.12,3.4,2.76-4.32,2.83-7.4,8.27-5,19.44,2.3,10.72,14.62,13,23.92,11.18,8.82-1.7,11.51-6.57,10-16.1,2.74,1.2,5.39,1.18,6.91-.34C57.09,235.69,55.81,230.53,51.84,226.56Z"/></g></g></svg>