<svg xmlns="http://www.w3.org/2000/svg" viewBox="0 0 363.32 855.8"><defs><style>.cls-1{isolation:isolate;}.cls-2{fill:#81b4d4;}.cls-3{fill:#e0bc8d;}.cls-4{fill:#cd985a;}.cls-5{fill:#e9cc9a;}.cls-6{fill:#af7c48;}.cls-7{fill:#147559;}.cls-11,.cls-8{fill:#603913;}.cls-8{opacity:0.12;mix-blend-mode:multiply;}.cls-9{fill:#754c29;}.cls-10{fill:#fff;}</style></defs><title>starbucks</title><g class="cls-1"><g id="Layer_2" data-name="Layer 2"><g id="drinks_and_fruits" data-name="drinks and fruits"><path class="cls-2" d="M0,833.63c0-12.11,76.67-18.39,173.39-18.39s173.92,1.55,173.92,13.66S277,858.15,172,855.53C75.3,853.11,0,845.74,0,833.63Z"/><path class="cls-3" d="M314.41,853l-195.82,1.49c-25.5.19-50.87-23.06-51.24-55.19C65.68,657,41.11,357.63,103.9,267.54,148.18,204,144.85,19.11,144.85,19.11l117.39.28s-1.18,153,58.88,251.27c47.55,77.82,36.64,373.47,42.13,516.31C364.7,824.74,344.4,852.75,314.41,853Z"/><path class="cls-4" d="M263.74,53.91c-16.39-3.13-41-9.26-54.12-9.26-14.84,0-49.18,1.54-64.9,1.92-.75,40.27-4.35,116.66-20.17,172.91,13.45-10.85,13.53-61.22,39.86-43.25,10.07,6.87,28.13,15.07,44.2,15.07,16.56,0,21.35-5.67,43.19-15.07,28.39-12.22,33.34,39.18,44.86,43C274.36,159.16,266.5,93,263.74,53.91Z"/><path class="cls-5" d="M263.15,44.76c-16.39-3.16-40.52-9.15-53.53-9.15-14.8,0-49,1.54-64.77,1.92-.35,34.61-2.87,111.23-17.38,170.8.26,0,.67.29.78,0,4-9,5.66-60.27,36.16-41.18,10.34,6.47,27.12,23.1,43.19,23.1,16.56,0,22.36-13.71,44.2-23.1,29.06-12.5,34.15,33.15,40.66,40.14C271.65,145.59,265.17,79.77,263.15,44.76Z"/><path class="cls-6" d="M262.47,29.94c-16.39-3.08-41.49-9.4-54.85-9.4-14.19,0-46.21,1.41-62.73,1.87.13,16.84,0,95-12.41,162.37,4.83-15.89,6.78-47.14,29.94-32.65,10.34,6.47,28.13,40.18,44.2,40.18,16.56,0,21.35-30.78,43.19-40.18,26.09-11.22,28.45,28.9,37.33,38.26C267.46,123.46,263.33,55.48,262.47,29.94Z"/><rect class="cls-4" x="131.95" width="142.66" height="54.15" rx="10.06" ry="10.06"/><path class="cls-4" d="M273.91,57.71c0,3.88-30.93,2-70.31,2s-72.32,1.87-72.32-2,31.93-7,71.32-7S273.91,53.83,273.91,57.71Z"/><ellipse class="cls-7" cx="254.05" cy="509.1" rx="64.79" ry="62.78"/><path class="cls-5" d="M91.94,701.58H205.22C187.71,666.33,119.6,604.1,119.6,546c0-100.94,66.53-107.93,56.87-106.59C150.67,443,78,431.37,92.1,567,99,633.9,87.81,677.65,91.94,701.58Z"/><path class="cls-4" d="M106.43,701.58H222.77c-8.46-32-90.11-92.36-90.11-155.58,0-100.94,61.51-109.94,51.85-108.59-25.8,3.58-100.45,7-90.4,132.59C99.24,634.19,99.46,677.8,106.43,701.58Z"/><path class="cls-6" d="M232.71,701.58c.14-30.28-91-90.86-91-157.59,0-100.94,56.24-108.85,46.59-107.51-25.8,3.58-93.18,32.37-93.18,133.32,0,65.11,9.35,108.75,20.92,131.79Z"/><path class="cls-8" d="M255.4,299.86c23.33,90.56,71.35,347.15-99.52,554.33L314.41,853c30-.23,50.28-28.24,48.83-66-5.48-142.84,5.43-438.5-42.13-516.31C280.38,204,267.82,112.16,264,60c6.33-.29,10-.94,10-2.27s-3.6-2.52-9.84-3.56h.44A10.1,10.1,0,0,0,274.61,44V10.1A10.1,10.1,0,0,0,264.51,0H182.45C207.38,29.55,217.84,154.05,255.4,299.86Z"/><path class="cls-9" d="M81.91,528.57c-.36.89-.8,1-1.43.36-1.25-1.34-2.14-4-.8-8.84C81.91,512,90.31,495,98.17,482.67a6.53,6.53,0,0,1-5.72-3.57c-.45-.89-.18-1.34,1-1.52,7.5-.89,14.2-4.55,20.18-4.82,4.55-.18,8.48,1.16,10.63,7.23,1.88,5.36.63,10.81-2.77,15.36-4.82,6.43-14.47,12.06-24.38,14.38A74.28,74.28,0,0,1,105.58,522c1.25,2.41,1.61,5.45.45,7.23-.45.71-.89,1-1.43.18a233,233,0,0,0-14.74-18.49C87.45,515.62,84.86,521.25,81.91,528.57Zm18.31-36.35c-2.41,4.29-4.64,8-7.06,12.41,19.74-4.38,29.83-17.42,27.24-23.76-2-5-10.9-.36-16.79,1.25C103.61,484.63,102.63,487.76,100.22,492.22Z"/><path class="cls-9" d="M156.22,527c4.2.27,10.45-6.07,13.84-12.86.54-1.16,1.52-1.25,1.88,0,.45,1.43,0,3.3-.89,5.45-1.07,2.59-7.68,10.09-14.74,9.82-6-.27-9.38-4.38-7.32-13.93.27-1.25.54-2.32.89-3.48a15.79,15.79,0,0,1-2.05.09,17.7,17.7,0,0,1-3.13-.27c-2.23,7.23-7.5,15.27-13.58,17.15a9.61,9.61,0,0,1-11.34-3.75c-3.84-5.27-2.5-13.13,1.52-20.09,3.48-6.07,8.75-11.16,14.11-11.61,2.68-.27,4.29.54,6.07,2.95,2.14,2.86,4.64,3.39,4.2,9.82a25.36,25.36,0,0,1-.45,3.39,21.94,21.94,0,0,0,2.5.18c.89,0,1.88,0,2.77-.09a97.4,97.4,0,0,1,21-35.19c1.25-1.34,2.68-1.61,3.84-.45,2.41,2.41,3,5.63,2,9.73-1.34,5-5,11.43-8.39,15.63-3.66,4.56-7.41,8.4-12.06,10.54C153.18,519,152.2,526.7,156.22,527Zm-22.77-26.79a29.85,29.85,0,0,0-7,8.31c-3.75,6.7-5,15-2.68,17s7.95-1.16,12.33-9.2a54.47,54.47,0,0,0,3-6.88C135.68,507,133.45,503.47,133.45,500.17Zm7.14-.18c-.45-2.86-2.23-2.32-2.68.27a7.78,7.78,0,0,0,2,6.43A17.53,17.53,0,0,0,140.59,500Zm27.24-3.66c3.93-5.72,7.5-13.58,6.34-14.38-1-.63-7.77,9-13.84,20.45-.71,1.34-1.34,2.68-1.87,3.84C162.65,503.39,166,499,167.83,496.33Z"/><path class="cls-9" d="M180.6,527.14c7.41.36,13.93-6.79,17.77-12.68.45-.71,1.16-.71,1.52.09s.09,3.22-1.52,5.54c-3.75,5.45-10.63,9.56-17.5,9.65-11.34.18-15.27-11-9.47-22.51s14.92-16.17,19.38-13.58a16.62,16.62,0,0,1,5.27,4.64c1.61,2.14.89,7.59-2.86,12.15-4.38,5.36-10.36,7.68-16.61,2.59C173.72,521.25,175.87,526.87,180.6,527.14ZM188,506.6c2.86-3.75,4.82-8.4,3.57-9.38-1.88-1.52-9.29,3.84-13.49,12.32-.27.54-.54,1.07-.71,1.52C181.76,513.83,185.42,510,188,506.6Z"/><path class="cls-9" d="M229.37,479.09c-.45-1-.27-1.52.89-1.61,7.41-.8,14.11-4.55,20.18-4.82,4.55-.18,8.48,1.25,10.63,7.41,1.88,5.36.36,10.54-2.68,15.27-4.47,7-14.11,13.66-25.81,15.9a8.18,8.18,0,0,1-5.54-.89c-2.5,4.91-5.18,10.81-8.31,18.22-.36.89-.8.89-1.43.27-1.25-1.34-2.14-4-.8-8.84,2.32-8.13,10.72-24.92,18.49-37.15A6.62,6.62,0,0,1,229.37,479.09Zm27.86,1.79c-1.87-4.91-10.81-.27-16.7,1.43,0,2.41-.89,5.54-3.39,9.82-2.32,4.11-4.82,8.22-7.5,13.22C249.64,501.6,259.64,487.13,257.23,480.88Z"/><path class="cls-9" d="M262.77,527c4.29.36,10.54-6.07,14-12.95.63-1.16,1.61-1.25,2,0,.45,1.43.09,3.39-.89,5.54-1.25,2.68-7.77,10.09-14.91,9.91-6.16-.18-9.47-4.47-7.41-14.11,3.3-15.54,13.49-31.71,22.6-41.17,1.34-1.43,2.59-1.61,3.84-.45,2.59,2.32,3.13,5.63,2.05,9.82-2.77,11-12.77,21.7-20.72,26.88C259.73,519.19,258.75,526.61,262.77,527ZM281,481.68c-1.16-.71-7.77,9.2-13.93,20.63a47.92,47.92,0,0,0-2.14,4.29C277.15,496.69,282.15,482.4,281,481.68Z"/><path class="cls-9" d="M307.24,493.83q1.21-1.74,2.14-.54c1.34,1.61,2.05,5.45-.09,9.91-2,4-6.43,10.72-8.57,15.45-2.23,5-2.32,8.84.71,8.66,3.66-.18,8.57-6.25,11.7-12.41.45-.8,1.07-.89,1.43-.09s.36,3-.8,5.54c-2.32,4.91-7.95,9.82-12.86,9.56s-7.32-3.13-7.32-7.32c-2.86,3.66-6.88,7-11.16,7-8.31,0-10-11.34-2.59-22.15,7.23-10.54,14.29-14.56,18.75-14.56,3.84,0,5.63,2.95,5.45,6.43C305.19,497.13,306.26,495.26,307.24,493.83Zm-7.14,3.66c-2.86-.27-9.38,5.54-14.29,13.49-4.73,7.68-5.89,15.54-2.41,15.63,3.66.09,8.31-5.63,12.86-13.49C301.89,503.3,302.69,497.76,300.1,497.49Z"/><path class="cls-9" d="M328.77,531.61c-5,12-11.34,26.35-18.75,29.2-1.7.63-3.39.63-5.09-1.88-1.79-2.68-3.57-5.81-1.79-11.07,2.68-8,10.27-13.4,19.11-16.88.89-2.05,1.79-4.29,2.77-6.43-2.77,2.86-6.16,5.18-9.74,4.91-6.43-.54-6.61-7.06-4.55-13a95.32,95.32,0,0,1,12.15-22.6,1.24,1.24,0,0,1,2.23,0c2.14,2.86,1.61,6.61-1.7,11.88a81.4,81.4,0,0,0-6.88,13c-1.79,4.38-1.61,7.5.45,7.68,3.48.27,7.95-5.45,12.5-13.22,3.84-6.61,7.68-14.65,10.81-19.2.8-1.16,1.43-1.34,2.23-.62,1.25,1.61,2,5.45-.36,10-2.68,5.18-8.13,15.9-11.88,24.56a47.55,47.55,0,0,0,15.81-13.75c.45-.63,1.25-.71,1.43.18s-.09,2.86-1.61,5.18C342.43,525.18,336.18,528.57,328.77,531.61ZM306.71,555.9c1.16,1.7,8.48-8,14-21.17C309.12,541.43,305.1,553.67,306.71,555.9Z"/><path class="cls-10" d="M80.19,523.4c-.36.89-.8,1-1.43.36-1.25-1.34-2.14-4-.8-8.84,2.23-8.13,10.63-25.1,18.49-37.42a6.53,6.53,0,0,1-5.72-3.57c-.45-.89-.18-1.34,1-1.52,7.5-.89,14.2-4.55,20.18-4.82,4.55-.18,8.48,1.16,10.63,7.23,1.88,5.36.63,10.81-2.77,15.36-4.82,6.43-14.47,12.06-24.38,14.38a74.3,74.3,0,0,1,8.48,12.24c1.25,2.41,1.61,5.45.45,7.23-.45.71-.89,1-1.43.18a233,233,0,0,0-14.74-18.49C85.72,510.45,83.13,516.07,80.19,523.4ZM98.5,487c-2.41,4.29-4.64,8-7.06,12.41,19.74-4.38,29.83-17.42,27.24-23.76-2-5-10.9-.36-16.79,1.25C101.89,479.45,100.91,482.58,98.5,487Z"/><path class="cls-10" d="M154.49,521.79c4.2.27,10.45-6.07,13.84-12.86.54-1.16,1.52-1.25,1.88,0,.45,1.43,0,3.3-.89,5.45-1.07,2.59-7.68,10.09-14.74,9.82-6-.27-9.38-4.38-7.32-13.93.27-1.25.54-2.32.89-3.48a15.79,15.79,0,0,1-2.05.09,17.7,17.7,0,0,1-3.13-.27c-2.23,7.23-7.5,15.27-13.58,17.15A9.61,9.61,0,0,1,118.06,520c-3.84-5.27-2.5-13.13,1.52-20.09,3.48-6.07,8.75-11.16,14.11-11.61,2.68-.27,4.29.54,6.07,2.95,2.14,2.86,4.64,3.39,4.2,9.82a25.36,25.36,0,0,1-.45,3.39,22.05,22.05,0,0,0,2.5.18c.89,0,1.88,0,2.77-.09a97.4,97.4,0,0,1,21-35.19c1.25-1.34,2.68-1.61,3.84-.45,2.41,2.41,3,5.63,2,9.73-1.34,5-5,11.43-8.39,15.63-3.66,4.55-7.41,8.4-12.06,10.54C151.46,513.84,150.48,521.52,154.49,521.79ZM131.72,495a29.85,29.85,0,0,0-7,8.31c-3.75,6.7-5,15-2.68,17s7.95-1.16,12.33-9.2a54.47,54.47,0,0,0,3-6.88C134,501.87,131.72,498.3,131.72,495Zm7.14-.18c-.45-2.86-2.23-2.32-2.68.27a7.78,7.78,0,0,0,2,6.43A17.53,17.53,0,0,0,138.87,494.82Zm27.24-3.66c3.93-5.72,7.5-13.58,6.34-14.38-1-.63-7.77,9-13.84,20.45-.71,1.34-1.34,2.68-1.87,3.84C160.92,498.21,164.23,493.83,166.1,491.15Z"/><path class="cls-10" d="M178.88,522c7.41.36,13.93-6.79,17.77-12.68.45-.71,1.16-.71,1.52.09s.09,3.22-1.52,5.54c-3.75,5.45-10.63,9.56-17.5,9.65-11.34.18-15.27-11-9.47-22.51s14.92-16.17,19.38-13.58a16.62,16.62,0,0,1,5.27,4.64c1.61,2.14.89,7.59-2.86,12.15-4.38,5.36-10.36,7.68-16.61,2.59C172,516.07,174.14,521.7,178.88,522Zm7.41-20.54c2.86-3.75,4.82-8.4,3.57-9.38-1.88-1.52-9.29,3.84-13.49,12.32-.27.54-.54,1.07-.71,1.52C180,508.66,183.7,504.82,186.29,501.43Z"/><path class="cls-10" d="M227.64,473.92c-.45-1-.27-1.52.89-1.61,7.41-.8,14.11-4.55,20.18-4.82,4.55-.18,8.48,1.25,10.63,7.41,1.88,5.36.36,10.54-2.68,15.27-4.47,7-14.11,13.66-25.81,15.9a8.18,8.18,0,0,1-5.54-.89c-2.5,4.91-5.18,10.81-8.31,18.22-.36.89-.8.89-1.43.27-1.25-1.34-2.14-4-.8-8.84,2.32-8.13,10.72-24.92,18.49-37.15A6.62,6.62,0,0,1,227.64,473.92Zm27.86,1.79c-1.87-4.91-10.81-.27-16.7,1.43,0,2.41-.89,5.54-3.39,9.82-2.32,4.11-4.82,8.22-7.5,13.22C247.91,496.42,257.92,482,255.5,475.7Z"/><path class="cls-10" d="M261,521.79c4.29.36,10.54-6.07,14-12.95.63-1.16,1.61-1.25,2,0,.45,1.43.09,3.39-.89,5.54-1.25,2.68-7.77,10.09-14.91,9.91-6.16-.18-9.47-4.47-7.41-14.11,3.3-15.54,13.49-31.71,22.6-41.17,1.34-1.43,2.59-1.61,3.84-.45,2.59,2.32,3.13,5.63,2.05,9.82-2.77,11-12.77,21.7-20.72,26.88C258,514,257,521.43,261,521.79Zm18.22-45.28c-1.16-.71-7.77,9.2-13.93,20.63a47.92,47.92,0,0,0-2.14,4.29C275.42,491.51,280.42,477.22,279.26,476.51Z"/><path class="cls-10" d="M305.52,488.65q1.21-1.74,2.14-.54c1.34,1.61,2.05,5.45-.09,9.91-2,4-6.43,10.72-8.57,15.45-2.23,5-2.32,8.84.71,8.66,3.66-.18,8.57-6.25,11.7-12.41.45-.8,1.07-.89,1.43-.09s.36,3-.8,5.54c-2.32,4.91-7.95,9.82-12.86,9.56s-7.32-3.13-7.32-7.32c-2.86,3.66-6.88,7-11.16,7-8.31,0-10-11.34-2.59-22.15,7.23-10.54,14.29-14.56,18.75-14.56,3.84,0,5.63,2.95,5.45,6.43C303.47,492,304.54,490.08,305.52,488.65Zm-7.14,3.66c-2.86-.27-9.38,5.54-14.29,13.49-4.73,7.68-5.89,15.54-2.41,15.63,3.66.09,8.31-5.63,12.86-13.49C300.16,498.12,301,492.58,298.37,492.32Z"/><path class="cls-10" d="M327,526.43c-5,12-11.34,26.35-18.75,29.2-1.7.63-3.39.63-5.09-1.88-1.79-2.68-3.57-5.81-1.79-11.07,2.68-8,10.27-13.4,19.11-16.88.89-2.05,1.79-4.29,2.77-6.43-2.77,2.86-6.16,5.18-9.74,4.91-6.43-.54-6.61-7.06-4.55-13a95.32,95.32,0,0,1,12.15-22.6,1.24,1.24,0,0,1,2.23,0c2.14,2.86,1.61,6.61-1.7,11.88a81.4,81.4,0,0,0-6.88,13c-1.79,4.38-1.61,7.5.45,7.68,3.48.27,7.95-5.45,12.5-13.22,3.84-6.61,7.68-14.65,10.81-19.2.8-1.16,1.43-1.34,2.23-.62,1.25,1.61,2,5.45-.36,10-2.68,5.18-8.13,15.9-11.88,24.56a47.55,47.55,0,0,0,15.81-13.75c.45-.63,1.25-.71,1.43.18s-.09,2.86-1.61,5.18C340.71,520,334.46,523.4,327,526.43ZM305,550.72c1.16,1.7,8.48-8,14-21.17C307.4,536.26,303.38,548.49,305,550.72Z"/><path class="cls-11" d="M123.62,547.84v-4.48h5.44v4.48Zm5.44,3.06v19.8h-5.44V550.9Z"/><path class="cls-11" d="M138.51,550.9v2.76h.12a6.24,6.24,0,0,1,2.68-2.51,7.76,7.76,0,0,1,3.37-.79,9.25,9.25,0,0,1,3.58.59,5.32,5.32,0,0,1,2.2,1.65,6.39,6.39,0,0,1,1.13,2.57,16,16,0,0,1,.33,3.35V570.7h-5.44V559.52a6.94,6.94,0,0,0-.77-3.66,3,3,0,0,0-2.72-1.21,3.77,3.77,0,0,0-3.22,1.32,7.34,7.34,0,0,0-1,4.35V570.7h-5.44V550.9Z"/><path class="cls-11" d="M166.93,550.9v3.64h-4v9.8a1.84,1.84,0,0,0,2.3,2.3c.31,0,.6,0,.88,0a7.42,7.42,0,0,0,.8-.11v4.21a13,13,0,0,1-1.53.15q-.84,0-1.65,0a15.83,15.83,0,0,1-2.39-.17,5.64,5.64,0,0,1-2-.67,3.54,3.54,0,0,1-1.36-1.42,5.06,5.06,0,0,1-.5-2.41V554.54h-3.29V550.9h3.29V545h5.44v5.94Z"/><path class="cls-11" d="M175.36,566a5.58,5.58,0,0,0,6.36.36,3.42,3.42,0,0,0,1.46-1.74H188a9.09,9.09,0,0,1-3.52,5.09,10.37,10.37,0,0,1-5.75,1.53,11.3,11.3,0,0,1-4.21-.75,8.76,8.76,0,0,1-3.18-2.13,9.55,9.55,0,0,1-2-3.29,12,12,0,0,1-.71-4.21,11.57,11.57,0,0,1,.73-4.14,9.57,9.57,0,0,1,5.27-5.52,10.25,10.25,0,0,1,4.12-.8,9.41,9.41,0,0,1,4.4,1,8.79,8.79,0,0,1,3.08,2.62,10.79,10.79,0,0,1,1.74,3.75,14,14,0,0,1,.38,4.4H174A5.5,5.5,0,0,0,175.36,566Zm6.15-10.42a3.82,3.82,0,0,0-3-1.07,4.74,4.74,0,0,0-2.16.44A4.12,4.12,0,0,0,175,556a4,4,0,0,0-.73,1.38,6.22,6.22,0,0,0-.25,1.3h8.85A6.3,6.3,0,0,0,181.51,555.54Z"/><path class="cls-11" d="M196.69,550.9v3.68h.08a6.67,6.67,0,0,1,1-1.7,6.79,6.79,0,0,1,1.49-1.34,7.34,7.34,0,0,1,1.8-.86,6.5,6.5,0,0,1,2-.31,4.25,4.25,0,0,1,1.19.19v5.06q-.38-.08-.92-.13a9.77,9.77,0,0,0-1-.06,5.8,5.8,0,0,0-2.53.5,4.37,4.37,0,0,0-1.67,1.36,5.46,5.46,0,0,0-.9,2,10.94,10.94,0,0,0-.27,2.49v8.92h-5.44V550.9Z"/><path class="cls-11" d="M211.32,570.7l-6.78-19.8h5.71l4.17,13.52h.08l4.17-13.52h5.4l-6.7,19.8Z"/><path class="cls-11" d="M226.49,547.84v-4.48h5.44v4.48Zm5.44,3.06v19.8h-5.44V550.9Z"/><path class="cls-11" d="M242,566a5.58,5.58,0,0,0,6.36.36,3.42,3.42,0,0,0,1.46-1.74h4.79a9.09,9.09,0,0,1-3.52,5.09,10.37,10.37,0,0,1-5.75,1.53,11.3,11.3,0,0,1-4.21-.75,8.76,8.76,0,0,1-3.18-2.13,9.55,9.55,0,0,1-2-3.29,12,12,0,0,1-.71-4.21,11.57,11.57,0,0,1,.73-4.14,9.57,9.57,0,0,1,5.27-5.52,10.25,10.25,0,0,1,4.12-.8,9.41,9.41,0,0,1,4.4,1,8.79,8.79,0,0,1,3.08,2.62,10.79,10.79,0,0,1,1.74,3.75,14,14,0,0,1,.38,4.4H240.7A5.5,5.5,0,0,0,242,566Zm6.15-10.42a3.82,3.82,0,0,0-3-1.07,4.74,4.74,0,0,0-2.16.44,4.12,4.12,0,0,0-1.38,1.09,4,4,0,0,0-.73,1.38,6.22,6.22,0,0,0-.25,1.3h8.85A6.3,6.3,0,0,0,248.18,555.54Z"/><path class="cls-11" d="M275.24,570.7l-3.52-13.29h-.08l-3.37,13.29h-5.63l-6.28-19.8h5.75l3.64,13.44h.08l3.29-13.44h5.29l3.37,13.4h.08l3.64-13.4h5.59l-6.24,19.8Z"/><path class="cls-10" d="M120.87,546.47V542h5.44v4.48Zm5.44,3.06v19.8h-5.44v-19.8Z"/><path class="cls-10" d="M135.77,549.53v2.76h.12a6.24,6.24,0,0,1,2.68-2.51,7.76,7.76,0,0,1,3.37-.79,9.25,9.25,0,0,1,3.58.59,5.32,5.32,0,0,1,2.2,1.65,6.39,6.39,0,0,1,1.13,2.57,16,16,0,0,1,.33,3.35v12.18h-5.44V558.15a6.94,6.94,0,0,0-.77-3.66,3,3,0,0,0-2.72-1.21,3.77,3.77,0,0,0-3.22,1.32,7.34,7.34,0,0,0-1,4.35v10.38H130.6v-19.8Z"/><path class="cls-10" d="M164.19,549.53v3.64h-4V563a1.84,1.84,0,0,0,2.3,2.3c.31,0,.6,0,.88,0a7.42,7.42,0,0,0,.8-.11v4.21a13,13,0,0,1-1.53.15q-.84,0-1.65,0a15.83,15.83,0,0,1-2.39-.17,5.64,5.64,0,0,1-2-.67,3.54,3.54,0,0,1-1.36-1.42,5.06,5.06,0,0,1-.5-2.41V553.17h-3.29v-3.64h3.29V543.6h5.44v5.94Z"/><path class="cls-10" d="M172.62,564.58a5.58,5.58,0,0,0,6.36.36,3.42,3.42,0,0,0,1.46-1.74h4.79a9.09,9.09,0,0,1-3.52,5.09,10.37,10.37,0,0,1-5.75,1.53,11.3,11.3,0,0,1-4.21-.75,8.76,8.76,0,0,1-3.18-2.13,9.55,9.55,0,0,1-2-3.29,12,12,0,0,1-.71-4.21,11.57,11.57,0,0,1,.73-4.14,9.57,9.57,0,0,1,5.27-5.52,10.25,10.25,0,0,1,4.12-.8,9.41,9.41,0,0,1,4.4,1,8.79,8.79,0,0,1,3.08,2.62,10.79,10.79,0,0,1,1.74,3.75,14,14,0,0,1,.38,4.4H171.27A5.5,5.5,0,0,0,172.62,564.58Zm6.15-10.42a3.82,3.82,0,0,0-3-1.07,4.74,4.74,0,0,0-2.16.44,4.12,4.12,0,0,0-1.38,1.09,4,4,0,0,0-.73,1.38,6.22,6.22,0,0,0-.25,1.3h8.85A6.3,6.3,0,0,0,178.76,554.17Z"/><path class="cls-10" d="M193.95,549.53v3.68H194a6.67,6.67,0,0,1,1-1.7,6.79,6.79,0,0,1,1.49-1.34,7.34,7.34,0,0,1,1.8-.86,6.5,6.5,0,0,1,2-.31,4.25,4.25,0,0,1,1.19.19v5.06q-.38-.08-.92-.13a9.77,9.77,0,0,0-1-.06,5.8,5.8,0,0,0-2.53.5,4.37,4.37,0,0,0-1.67,1.36,5.46,5.46,0,0,0-.9,2,10.94,10.94,0,0,0-.27,2.49v8.92h-5.44v-19.8Z"/><path class="cls-10" d="M208.58,569.33l-6.78-19.8h5.71l4.17,13.52h.08l4.17-13.52h5.4l-6.7,19.8Z"/><path class="cls-10" d="M223.74,546.47V542h5.44v4.48Zm5.44,3.06v19.8h-5.44v-19.8Z"/><path class="cls-10" d="M239.29,564.58a5.58,5.58,0,0,0,6.36.36,3.42,3.42,0,0,0,1.46-1.74h4.79a9.09,9.09,0,0,1-3.52,5.09,10.37,10.37,0,0,1-5.75,1.53,11.3,11.3,0,0,1-4.21-.75,8.76,8.76,0,0,1-3.18-2.13,9.55,9.55,0,0,1-2-3.29,12,12,0,0,1-.71-4.21,11.57,11.57,0,0,1,.73-4.14,9.57,9.57,0,0,1,5.27-5.52,10.25,10.25,0,0,1,4.12-.8,9.41,9.41,0,0,1,4.4,1,8.79,8.79,0,0,1,3.08,2.62,10.79,10.79,0,0,1,1.74,3.75,14,14,0,0,1,.38,4.4H238A5.5,5.5,0,0,0,239.29,564.58Zm6.15-10.42a3.82,3.82,0,0,0-3-1.07,4.74,4.74,0,0,0-2.16.44,4.12,4.12,0,0,0-1.38,1.09,4,4,0,0,0-.73,1.38,6.22,6.22,0,0,0-.25,1.3h8.85A6.3,6.3,0,0,0,245.44,554.17Z"/><path class="cls-10" d="M272.5,569.33,269,556h-.08l-3.37,13.29H259.9l-6.28-19.8h5.75L263,563h.08l3.29-13.44h5.29l3.37,13.4h.08l3.64-13.4h5.59l-6.24,19.8Z"/></g></g></g></svg>