<svg xmlns="http://www.w3.org/2000/svg" viewBox="0 0 3494 1718"><defs><style>.cls-1{fill:#76ccd6;}.cls-2{fill:#99d8e2;}.cls-3{fill:#33b9b5;}.cls-4{fill:#287e82;}.cls-5{fill:#166868;}.cls-6{fill:#c7e9f3;}</style></defs><title>scene2-background</title><g id="Layer_2" data-name="Layer 2"><g id="Layer_5" data-name="Layer 5"><rect class="cls-1" width="3494" height="1718"/><polygon class="cls-2" points="3494 869.25 0 869.25 1743.63 46.79 3494 869.25"/><rect class="cls-3" y="869.24" width="3494" height="848.76"/><rect class="cls-4" y="1593.6" width="3494" height="124.4"/><path class="cls-5" d="M1780.39,13.73c12.14,5.42-16.09,11.73-35.64,11.35s-45.37-7.22-35.18-12.72C1722.12,5.59,1725.65.64,1745.21,1S1765.85,7.24,1780.39,13.73Z"/><path class="cls-6" d="M1879.63,291.72c.75-38.79-37.62-95.48-65.83-128.65-25.25-29.68-27.36-101.79-27.36-101.79-7.16-37.27,5.28-40.06-18.17-43l-16-.31-6.34-.12-16-.31c-29.28-.56-14.78,8.55-26.82,42.11,0,0-4.83,73.64-31.21,102.33-29.47,32.05-62.85,80.08-63.67,122.25-1.41,72.85,48.94,117,130.2,121.52v.13c1.06,0,2.11,0,3.17,0s2.11.08,3.17.1v-.13C1826.17,404.52,1878.23,364.57,1879.63,291.72Z"/><rect class="cls-4" x="1697.85" y="14.62" width="92.18" height="51.99" rx="5" ry="5" transform="translate(1.11 -33.64) rotate(1.11)"/><rect class="cls-3" x="1695.83" y="25.08" width="96.61" height="31.71" rx="5" ry="5" transform="translate(1.11 -33.64) rotate(1.11)"/><path class="cls-1" d="M1741.15,70.74c3.18,15.82,6.37,31.66,8.58,47.66,2.18,15.75,4.9,33.46,1.87,49.25-2.38,12.37-14.71,29.32-29,20.46-6.18-3.82-8.4-11.5-3.41-17.29s13.16-6.56,20.11-4.49c12.89,3.83,27.51,15.33,32.54,28,6,15.24-7,27.21-19.34,33.8a46.69,46.69,0,0,1-20.07,5.8,31.16,31.16,0,0,1-10.29-1.11c-3.4-1.06-2.74-3.77-.5-5.82,1.43-1.31,4-2,5.88-2.47,13.28-3.62,27.22,3.39,33.25,15.49a36.41,36.41,0,0,1,3.08,22.56c-1.48,8-5.74,15.07-8.55,22.62-4,10.71-4.31,24.56,6.33,31.5,2.57,1.68,5-2.44,2.4-4.11-8.13-5.31-7.5-16.35-4.74-24.47,3-8.89,8.18-16.92,9.48-26.37,2.06-15-4.23-31.5-18-38.83a34.16,34.16,0,0,0-20.35-3.77c-5.49.73-15.9,3.64-16.65,10.38-.79,7.08,9,8.61,14,9,8.36.71,16.74-1.38,24.29-4.9,13.31-6.2,28.45-18.63,25.91-35s-19.29-29.66-33.64-35.61c-11.76-4.88-31.13-2.28-32.63,13.49-1.39,14.65,16.14,22,27.83,16.38,19.29-9.2,18.57-34.12,17.38-52.13-1.59-24.06-6.35-47.76-11.09-71.36-.6-3-5.19-1.73-4.59,1.26Z"/></g></g></svg>