<svg xmlns="http://www.w3.org/2000/svg" viewBox="0 0 740.24 475.89"><defs><style>.cls-1{fill:#00aeef;}.cls-2{fill:#bbd532;}.cls-3{fill:#78c14b;}.cls-4{fill:#009444;}.cls-5{fill:#231f20;}.cls-6{fill:#e8ecee;stroke:#231f20;stroke-miterlimit:10;stroke-width:1.28px;}.cls-7{fill:#f7941d;}.cls-8{fill:#f36e24;}.cls-9{fill:#d35461;}.cls-10{fill:#23b2ae;}.cls-11{fill:#fff;}</style></defs><title>competency_based</title><g id="Layer_2" data-name="Layer 2"><g id="Layer_2-2" data-name="Layer 2"><path class="cls-1" d="M740.24,355c-1.65,2.23-3.26,4.49-5,6.68-7.89,10.11-17.63,10.6-26.63,1.36-8.79-9-15.31-9.73-26.23-3.56-5,2.85-6.84,6.69-6.71,12.34.33,14.23.1,28.47.45,42.7.12,4.73-1.34,6.12-6.14,6.67-16.4,1.9-32.25-.37-48.08-4.32C610.53,414,600,397,611.48,384.4c7.89-8.65,13-17.83,9.38-30.29-3.36-11.55-9.83-16.94-24-18.1-22.64-1.86-36.22,17.52-26.57,38a86,86,0,0,0,5.34,9.76c7.78,12.13,3.82,24.37-9.86,29.73a48.33,48.33,0,0,1-16.73,3c-9.19.18-18.4-.25-27.6-.21-3.13,0-3.68-.79-2.79-3.81,5.46-18.48,3.84-36.73-1.92-54.89-2.86-9-8.58-12.49-17.94-10.19-5.52,1.36-10.5,4.24-16.19,5.24-11.14,2-19.37-3.49-21.52-14.65-1.76-9.14,6.14-20.65,15.16-22.17,2.83-.48,5.1.76,7.4,2.06,5.52,3.1,10.91,6.5,16.63,9.18,9.75,4.57,19.44-1.34,20.27-12.12,1.28-16.72-1-33.23-3.28-49.71-1.88-13.42-2-13.42,10.78-16.26,14.41-3.19,28.68-3.1,42.63,2.22,5.68,2.17,11.07,1.67,15.2-2.61,4.34-4.48,3.46-10.29,1.13-15.41-2.25-4.94-5.69-9.32-8.14-14.19-5.72-11.39-2-23.56,8.39-28.66,10.07-4.92,26,.18,31,9.89,3.2,6.23,2.47,12.39-.74,18.22a71,71,0,0,1-7.13,10.21c-8.14,10.09-5.57,19.24,7,23.53,19.86,6.8,39.89,9.66,60.9,1.43-.17,17.5.77,34.48-.6,51.44-.6,7.47-.72,14.89.89,22.23,1.92,8.81,6.07,11.7,15.09,10.46a44.83,44.83,0,0,0,13.71-4.29c16-7.88,24-5.55,32.87,9.64Z"/><path class="cls-2" d="M602,0c4.94,3.25,9,7.36,11.38,12.8,2.84,6.5,3.38,13-.66,19.41q-4.55,7.2-8.68,14.67C596,61.41,601.22,75,616.83,80.3c17,5.78,34.46,8.12,52.32,5.4,4.93-.75,6.63.9,7.75,5.61,3,12.79,5.68,25.64,6.33,38.77.29,5.86-.25,12.11-6.8,15.17s-13.12,2.77-19.21-1.63c-1.77-1.28-3.72-2.31-5.42-3.68-8-6.44-16.41-6.3-25.09-1.6-9.4,5.09-13.74,13.35-13.66,23.72.11,14.46,7.94,23.47,21.75,26.33,5.64,1.17,10.52.16,14.31-4.15,5.16-5.86,11.55-5.93,18-3.7,6.24,2.15,6.77,8.06,7.05,13.62a159.69,159.69,0,0,1-.69,24.94c-.82,7.86-1.62,15.89-.16,23.59,1.25,6.6-1.46,8.16-6.84,9.36-19.05,4.22-37.28,3-54.62-6.78-5.1-2.89-5.66-6.09-2.52-10.51,1.64-2.31,3.35-4.6,5.2-6.74,10-11.57,9.59-27.2-1.05-36.33-12.05-10.34-29.55-9.24-39.33,2.39-6.29,7.48-5.54,15.71-2.78,24.15a55.19,55.19,0,0,0,8.47,15.46c2.67,3.62,3.36,7.13.6,10.81s-7.11,5.85-11,3.81c-15.54-8.17-31.55-5-47.56-3-3,.38-4.43.22-4.39-3.35.14-13-2.86-25.63-4.23-38.45a78.79,78.79,0,0,1,.11-20.95c1-6.24,4.87-10.12,10.86-11.84,5.7-1.64,11-.79,14.87,4,7.67,9.47,19,8.07,27.95,3,9.24-5.31,12.68-18,8.61-27.72-4.61-11-14.8-16.94-25.49-15.05-6,1.05-11,4-16.32,6.59-11.69,5.82-20.26,1.29-22.94-11.52-2.65-12.65.69-24.84,2.28-37.12,1.67-12.91,2.05-12.71,15.27-11.87,10,.63,20,1,30.13-.45,20-2.79,23.4-19.45,18.94-33.11-1.81-5.57-5.45-10.56-7.1-16.15-4.12-14-1-25.09,12.56-29.08,1.49-.44,3.61-.17,4.46-2.16Z"/><path class="cls-3" d="M393.46,246.93c-11.22-.88-23.32,2.82-35.66.91-5-.78-6.66-2.52-7.2-7.71-1.68-16.24,1-32.37.38-48.57-.66-16.59-11.58-23.28-26.47-15.7-6.65,3.39-13.21,7-21.13,4.06-7.5-2.78-13.15-7.4-14.16-15.64-1.28-10.47,2.77-19.13,11.71-24.63,7.07-4.34,14.46-3.8,21.38,1.45a38,38,0,0,0,17.84,7.78c9.88,1.36,18.37-5.56,20-15.35,2.62-15.66-1.1-30.45-5.66-45.08-1.41-4.53-.88-6.26,3.92-6.7,15.39-1.42,30.68-5.46,46.27-1.81a38.27,38.27,0,0,1,17.68,9.48c3.77,3.51,4.17,6.93,1,10.88-1.65,2-3.43,4-4.92,6.15-6.34,9.21-7.58,18.92-2.37,29.07,4.55,8.85,11.53,14.21,21.81,14.15,11.43-.07,20.62-4.92,25.68-15.14,3.63-7.32,3-15.35-1.63-22.51-2.51-3.84-5.49-7.39-7.89-11.29-3.66-6-2.58-15.53,1.76-21,1.9-2.39,4.35-2.71,7-2.89,10.56-.71,20.91,1.49,31.36,2.34,1.74.14,3.47.52,5.21.62,10.6.64,10.84.67,9.13,11.32s-3.39,21.16-2.6,32c1.5,20.67,15.6,28.41,33.55,18.33a43.38,43.38,0,0,1,9.57-4.16c10.52-2.94,18.12.47,22.52,10.27a19.23,19.23,0,0,1-7.71,24.52c-6.7,4-11.68,3.43-18.06-1.3-4.61-3.42-8.18-8.5-15-8.4-13,.19-22.83,10.86-23.31,25.79-.31,9.54,2.62,18.55,4.5,27.74,1.72,8.4,2.87,16.81.76,25.36-1.08,4.39-3.21,7.1-7.84,8.52-16.92,5.17-33.61,4.5-50.28-.91a18.47,18.47,0,0,1-8.71-5.61c-3.23-3.84-3.79-7.79-.19-11.75,2.35-2.59,4.67-5.21,7.14-7.68a26.87,26.87,0,0,0,.72-36.78c-10.72-11.56-24.33-12.51-36-2.52-13.2,11.25-14.93,23.73-5.26,38.25,2.18,3.28,4.8,6.3,6.73,9.71,3.47,6.11,1.67,10.43-4.94,12.8C407.63,247.55,401,247,393.46,246.93Z"/><path class="cls-4" d="M1.33,301.52c-7.92-3,21.12,13.75,44.88,11S92.57,299.86,91.54,291s-6.49-12.91-30-8.77C38.35,286.33,16.46,307.26,1.33,301.52Z"/><polygon class="cls-4" points="76.91 311.3 80.81 311.09 81.32 300.74 76.13 301.67 76.91 311.3"/><path class="cls-5" d="M173.84,356.67c14.51-9.86,18.58-22.69,22.07-18.29,1.21,1.52-9.92,18.26-25.63,26.08-15.19,7.57-21.81,8.73-23,7.21C143,366.28,159.33,366.53,173.84,356.67Z"/><path class="cls-6" d="M205.29,337.28c-.12-6.77-5.5-12.62-12.26-12.26-4.51.24-6,3.64-9.2,8.25-1.67-3.36-2.82-4.61-6.22-3.42-1.78.62-2,4.17-.51,7.71a21.22,21.22,0,0,0,3.11,5.14,1.68,1.68,0,0,0-.58.58c-.94,1.63,1.25,4.66,4.9,6.77s7.37,2.49,8.31.86a1.9,1.9,0,0,0,.16-1.37h0A12.16,12.16,0,0,0,205.29,337.28Z"/><path class="cls-5" d="M81.3,475.49c-4-.4-8.51-1.59-9.95-2.59-2.12-1.48-.91-9.5-.76-11.59l2-27c.16-2.09,2.45-1.53,5.3-1.32h0c1.06,5.4.15,30,2.34,31.49,8.52,5.9,18.42,10.66,10.58,11.23A41.79,41.79,0,0,1,81.3,475.49Z"/><path class="cls-5" d="M122.12,471.13c-4,0-8.62-.77-10.15-1.63-2.25-1.27-1.82-9.37-1.86-11.46L109.54,431c0-2.09,2.3-1.76,5.15-1.82h0c1.57,5.28,3,29.83,5.33,31.13,9,5.06,19.35,8.85,11.6,10.17A41.79,41.79,0,0,1,122.12,471.13Z"/><ellipse class="cls-7" cx="89.97" cy="373.46" rx="70.41" ry="64.53"/><path class="cls-8" d="M99.78,429.24c-37.57,0-68-28.39-68-63.41,0-20.07,10-38,25.62-49.58C34.89,327,19.55,348.6,19.55,373.46,19.55,409.1,51.08,438,90,438c23.2,0,43.77-10.28,56.6-26.14A70.49,70.49,0,0,1,99.78,429.24Z"/><circle class="cls-5" cx="70.12" cy="358.7" r="4.1" transform="translate(-19.5 4.37) rotate(-3.13)"/><circle class="cls-5" cx="128.13" cy="352.72" r="4.1" transform="translate(-19.09 7.53) rotate(-3.13)"/><path class="cls-5" d="M76.24,336.27c.24.73-3.74-.68-8.15.76s-6.72,4.65-7,3.92,2.12-3.8,6.53-5.24S76,335.55,76.24,336.27Z"/><path class="cls-5" d="M119.19,334.12c-.12.76,3.49-.95,8.07-.24s7.44,3.46,7.56,2.7-2.76-3.37-7.35-4.08S119.31,333.36,119.19,334.12Z"/><path class="cls-9" d="M116.75,372.87c-1,4.11-5.84,7.69-13.14,7.76s-12.22-3.42-13.29-7.5c-1.33-5,.65-7.14,13.14-7.76C117.44,364.68,117.78,368.79,116.75,372.87Z"/><path class="cls-5" d="M21.2,407.48c-1.57,17.47,5,32.7-.58,32.61-1.94,0-7.83-19.25-3.92-36.35,3.78-16.55,7.08-22.4,9-22.37C32.6,381.48,22.77,390,21.2,407.48Z"/><path class="cls-6" d="M33.45,426.85a14.6,14.6,0,0,0-7.1-3.49,2,2,0,0,0,1-1.65c-.16-1.7-4.19-2.72-9-2.27s-8.57,2.2-8.42,3.9c.07.75.89,1.37,2.2,1.78C9.38,427,7.4,430.46,8.95,437.67c1.49,6.92,9.43,8.37,15.43,7.21,5.69-1.1,7.43-4.24,6.47-10.39,1.77.78,3.48.76,4.46-.22C36.84,432.73,36,429.41,33.45,426.85Z"/><path class="cls-10" d="M206.36,346.4a27.91,27.91,0,0,1-11.52-2.82c-6.74-3-9.7-13.63-6.09-21.77,2.69-6.07,6.9-11.12,11-16,3.91-4.68,3.88-8.73-.1-13.13-5-5.53-10.42-9.11-16.58-10.93a215.36,215.36,0,0,0-34.32-7l-.46-.05c-1.19-.14-2.42-.28-3.17-1.29a3.62,3.62,0,0,1-.43-2.9c.3-1.67.59-3.35.87-5,2-11.74,4.06-23.88,12-34.07,2.38-3.05,4.73-4.53,7.19-4.53,2.27,0,4.48,1.26,6.76,3.84,1.6,1.81,3.06,3.77,4.48,5.66.7.94,1.4,1.87,2.12,2.8,4.19,5.38,8,7.78,12.5,7.78a14.65,14.65,0,0,0,4.5-.77,20.34,20.34,0,0,0,13.94-18c.36-7.7-2.66-13.28-9.22-17a19.53,19.53,0,0,0-9.74-2.82,18.23,18.23,0,0,0-9.76,3,11.83,11.83,0,0,1-6.41,2.09,11.4,11.4,0,0,1-3.55-.6c-4.89-1.58-6.81-4.61-5.86-9.25q2.21-10.75,4.36-21.51l2-10,.88.21q.8-3.06,1.61-6.12c1.57-5.92,3.19-12,4.59-18.1.32-1.37,1-4.21,3.72-4.21a7.22,7.22,0,0,1,2.87.76c14.93,6.62,31,8.34,47.48,9.64q.65.05,1.24.05c2.09,0,3.52-.47,4.35-1.45s1.22-3,.81-5.67a119.15,119.15,0,0,0-2.62-11.66c-.37-1.43-.74-2.86-1.1-4.29-2.6-10.57,1.76-19,12-23.1a20.92,20.92,0,0,1,7.84-1.55A17.23,17.23,0,0,1,270,115.33c5.42,9.88,3.52,19.66-5.08,26.16a41.63,41.63,0,0,1-4.31,2.73c-1.14.66-2.32,1.34-3.4,2.09-3.18,2.21-5,4.88-5.27,7.73s1,5.54,3.52,8.11c8.73,8.8,20.28,11.88,30.43,13.73a94.83,94.83,0,0,0,10.46,1.1c1.6.11,3.2.22,4.79.36l.54,0a3,3,0,0,1,2.61,1,3.06,3.06,0,0,1,0,2.77c-2.21,5.86-2.73,12.17-3.24,18.28a107.88,107.88,0,0,1-1.46,12l0,.19c-.91,4.61-1.86,9.37-3.23,14-1.24,4.15-4,6.53-7.54,6.53a10.91,10.91,0,0,1-5.45-1.65,58.42,58.42,0,0,1-10.14-8.08c-4.29-4-8.23-5.9-12.08-5.9a15.12,15.12,0,0,0-8.12,2.66,18.83,18.83,0,0,0-7.92,21c1.85,6.54,9.75,11.1,19.2,11.1q.67,0,1.34,0c1.64-.08,3.32-.29,5-.49,1-.12,1.94-.25,2.91-.34.53-.05,1.06-.08,1.57-.08,6.15,0,10,3.72,10.1,9.72.22,16.21-3.08,29.79-10.07,41.54-1.07,1.79-2.66,3.84-5.52,3.84a10.25,10.25,0,0,1-3.64-.8c-2.68-1-5.38-2.14-8-3.23-6.25-2.6-12.71-5.28-19.41-6.8a41.69,41.69,0,0,0-8.76-1.31c-5.82,0-6.71,3-9.19,14.55-.87,4,.56,8,1.95,11.81.26.72.52,1.44.76,2.15,3.05,8.92,1,16-6,21.09A18.39,18.39,0,0,1,206.36,346.4Z"/><path class="cls-11" d="M254.54,107.77A16.18,16.18,0,0,1,269,115.89c5.1,9.3,3.39,18.52-4.76,24.68-2.4,1.81-5.19,3.08-7.67,4.79-6.86,4.76-7.81,11.67-1.91,17.61,8.49,8.56,19.57,12,31,14.05,5,.92,10.23,1,15.36,1.48,1.38.12,3.11-.22,2.18,2.25-3.7,9.83-2.75,20.39-4.75,30.48-.93,4.71-1.87,9.44-3.24,14-1.13,3.77-3.48,5.71-6.43,5.71a9.82,9.82,0,0,1-4.87-1.5,57.27,57.27,0,0,1-10-7.95c-4.48-4.16-8.66-6.19-12.85-6.19a16.29,16.29,0,0,0-8.74,2.84A19.9,19.9,0,0,0,244,240.44c2,7,10.37,11.94,20.32,11.94q.69,0,1.39,0c2.65-.12,5.28-.58,7.92-.84q.75-.07,1.46-.07c5.27,0,8.87,3.06,8.94,8.58.19,14.43-2.37,28.28-9.91,40.93-1.34,2.25-2.66,3.28-4.52,3.28a9.27,9.27,0,0,1-3.23-.73c-9.13-3.48-17.95-7.89-27.55-10.07a43.27,43.27,0,0,0-9-1.34c-7,0-8,4.46-10.34,15.55-1.08,5,1.17,9.83,2.77,14.49,2.75,8,1.33,14.78-5.62,19.78a17.15,17.15,0,0,1-10.25,3.33,27.12,27.12,0,0,1-11-2.71c-6.39-2.89-8.76-12.91-5.51-20.25,2.62-5.92,6.72-10.83,10.81-15.73,4.23-5.07,4.29-9.76-.13-14.65a37.13,37.13,0,0,0-17.11-11.27,216.83,216.83,0,0,0-34.51-7c-1.93-.25-3.56-.18-3.07-2.89,2.43-13.45,3.78-27.22,12.65-38.6,2.1-2.7,4.17-4.09,6.28-4.09,1.9,0,3.85,1.13,5.89,3.45,2.35,2.66,4.37,5.6,6.56,8.4,3.67,4.71,7.84,8.22,13.42,8.22a15.71,15.71,0,0,0,4.86-.82,21.41,21.41,0,0,0,14.74-19c.38-8-2.83-14.11-9.8-18.11a20.64,20.64,0,0,0-10.32-3,19.32,19.32,0,0,0-10.37,3.17,10.71,10.71,0,0,1-5.79,1.91,10.31,10.31,0,0,1-3.2-.54c-4-1.3-6-3.56-5.08-7.91,2.08-10.11,4.1-20.24,6.15-30.36l.82.19c2.19-8.45,4.54-16.86,6.5-25.35.52-2.25,1.2-3.31,2.59-3.31a6.23,6.23,0,0,1,2.4.66c15.22,6.75,31.52,8.45,47.86,9.74q.7.05,1.33.06c5.13,0,7.19-2.72,6.3-8.45-.84-5.41-2.43-10.72-3.74-16.05-2.46-10,1.61-17.85,11.28-21.74a19.84,19.84,0,0,1,7.41-1.46m0-2.32a22.07,22.07,0,0,0-8.28,1.63c-10.8,4.35-15.42,13.26-12.66,24.45.35,1.44.73,2.87,1.1,4.31a118.26,118.26,0,0,1,2.6,11.54c.35,2.27.16,3.91-.54,4.74s-1.76,1-3.47,1c-.36,0-.75,0-1.15,0-16.4-1.29-32.34-3-47.1-9.55a8.29,8.29,0,0,0-3.34-.86c-3.67,0-4.53,3.71-4.85,5.11-1.4,6-3,12.15-4.58,18.06q-.67,2.52-1.33,5l-.94-.22-.48,2.35-1.76,8.75c-1.43,7.08-2.9,14.41-4.38,21.6-1.08,5.25,1.15,8.81,6.63,10.58a12.56,12.56,0,0,0,3.91.65,12.92,12.92,0,0,0,7-2.27,17.09,17.09,0,0,1,9.14-2.82,18.39,18.39,0,0,1,9.16,2.66c6.15,3.53,9,8.76,8.64,16a19.16,19.16,0,0,1-13.14,16.9,13.51,13.51,0,0,1-4.15.71c-4.06,0-7.64-2.26-11.59-7.33-.71-.91-1.42-1.86-2.11-2.78-1.43-1.91-2.91-3.89-4.54-5.74-2.51-2.85-5-4.23-7.63-4.23-2.84,0-5.5,1.63-8.11,5-8.12,10.42-10.21,22.71-12.23,34.59-.29,1.68-.57,3.35-.87,5a4.7,4.7,0,0,0,.64,3.8c1,1.41,2.67,1.6,4,1.75l.45.05a214.16,214.16,0,0,1,34.14,6.91c5.95,1.77,11.2,5.23,16,10.6,3.61,4,3.63,7.35.07,11.61-4.13,4.95-8.4,10.06-11.15,16.28-3.91,8.84-.73,19.95,6.68,23.3a29,29,0,0,0,12,2.92,19.52,19.52,0,0,0,11.6-3.77c7.52-5.4,9.7-12.94,6.46-22.41-.25-.72-.51-1.44-.77-2.17-1.39-3.84-2.7-7.47-1.92-11.08l0-.09c2.52-11.75,3.28-13.63,8.06-13.63a41.28,41.28,0,0,1,8.5,1.28c6.6,1.5,13,4.16,19.22,6.74,2.61,1.09,5.31,2.21,8,3.24a11.35,11.35,0,0,0,4.05.88c3.48,0,5.39-2.52,6.51-4.41,7.11-11.93,10.46-25.72,10.23-42.14-.09-6.6-4.51-10.86-11.26-10.86-.55,0-1.12,0-1.69.09-1,.1-2,.22-2.94.35-1.68.21-3.26.41-4.85.49l-1.29,0c-8.94,0-16.38-4.22-18.09-10.26a17.66,17.66,0,0,1,7.43-19.67,14,14,0,0,1,7.5-2.48c3.54,0,7.23,1.82,11.27,5.57a59.4,59.4,0,0,0,10.36,8.25,12.05,12.05,0,0,0,6,1.81c4.1,0,7.25-2.68,8.65-7.36s2.34-9.44,3.26-14.07l0-.18a108.83,108.83,0,0,0,1.48-12.15c.52-6.3,1-12.25,3.17-18a4.21,4.21,0,0,0-.12-3.82,4.06,4.06,0,0,0-3.53-1.53l-.49,0c-1.61-.15-3.25-.26-4.83-.36a92.4,92.4,0,0,1-10.33-1.09c-10-1.82-21.31-4.83-29.81-13.4-2.3-2.32-3.4-4.81-3.19-7.19s1.88-4.88,4.77-6.89c1-.72,2.14-1.36,3.32-2a42.43,42.43,0,0,0,4.43-2.81c9-6.77,11-17.36,5.4-27.64-3.2-5.84-9.37-9.32-16.5-9.32Z"/></g></g></svg>