<svg xmlns="http://www.w3.org/2000/svg" viewBox="0 0 867.56 305.45"><defs><style>.cls-1{fill:#865fa6;}.cls-2{fill:#6d6e71;}.cls-3{fill:#939598;}.cls-4{fill:#9c77b5;}.cls-5{fill:#6e4593;}.cls-6{fill:#d8302a;}.cls-7{fill:#ef4136;}.cls-8{fill:#bc2026;}.cls-9{fill:#93bb3e;}.cls-10{fill:#aecc36;}.cls-11{fill:#85aa3f;}.cls-12{fill:#5387c1;}.cls-13{fill:#5e98cb;}.cls-14{fill:#447aab;}.cls-15{fill:#231f20;}.cls-16,.cls-23,.cls-26{fill:#e8ecee;stroke:#231f20;stroke-miterlimit:10;}.cls-16{stroke-width:1.05px;}.cls-17{fill:#62b482;}.cls-18{fill:#77c69a;}.cls-19{fill:#f69592;}.cls-20{fill:#f7a4a5;}.cls-21{fill:#bce5ee;}.cls-22{fill:#97d7e2;}.cls-23{stroke-width:1.33px;}.cls-24{fill:#f69799;}.cls-25{fill:#009444;}.cls-26{stroke-width:1.28px;}.cls-27{fill:#f7941d;}.cls-28{fill:#f36e24;}.cls-29{fill:#d35461;}</style></defs><title>group_interview</title><g id="Layer_2" data-name="Layer 2"><g id="Layer_2-2" data-name="Layer 2"><path class="cls-1" d="M65.59,153.67,52.4,162.55c-1.69,1.14-1.82,5.18-4.19-2C40.38,137,33.7,48.84,33.7,48.84a6.34,6.34,0,0,1,3.75-6.52L49.83,38.9c1.55-.4.51,1.29.74,2.88L66.75,151A2.7,2.7,0,0,1,65.59,153.67Z"/><path class="cls-2" d="M44.37,248.3h0a3.91,3.91,0,0,0,3.32-3.11l16-80.21a3.91,3.91,0,0,0-3.09-4.6l-.43-.08a3.91,3.91,0,0,0-4.58,3.1L40,243.69A3.91,3.91,0,0,0,44.37,248.3Z"/><path class="cls-3" d="M145.64,267.43h0a4,4,0,0,0,4.86-4.27l-6.19-81.47A4,4,0,0,0,140,178h-.17a4,4,0,0,0-3.73,4.35l6.36,81.46A4,4,0,0,0,145.64,267.43Z"/><path class="cls-3" d="M241.42,247.54l.12,0a4.14,4.14,0,0,0,4.67-4.68L234.61,159.8a4.14,4.14,0,0,0-4.67-3.53h0a4.14,4.14,0,0,0-3.54,4.67L237.88,244A4.14,4.14,0,0,0,241.42,247.54Z"/><path class="cls-2" d="M168,237.27h0a4.13,4.13,0,0,0,3.76-4.1l.08-80.52a4.13,4.13,0,0,0-4.13-4.13h0a4.13,4.13,0,0,0-4.13,4.12l-.06,80.52A4.13,4.13,0,0,0,168,237.27Z"/><path class="cls-4" d="M43,49.16l10.31,96.11c.65,4.9-.61,9.17,10.88,7.82l107.16-8.26a9.29,9.29,0,0,0,8.45-10.63L167,48.43a9.29,9.29,0,0,0-9-7.92L52.38,38.64A9.29,9.29,0,0,0,43,49.16Z"/><path class="cls-1" d="M181.06,143.92,62.39,153.26a.71.71,0,0,0-.07,1.4l75.38,14.43c.07,0,.58-1,.65-1l101.84-12.6a.71.71,0,0,0,0-1.4l-59-10.17Z"/><path class="cls-5" d="M138.13,167.88l0,.87a1.43,1.43,0,0,0-1.05-.82L57.69,153.8a1.44,1.44,0,0,0-1.42.58L50,163.24a1.44,1.44,0,0,0,.9,2.24l84.08,15.82.2,0a34.54,34.54,0,0,0,5,0,1.76,1.76,0,0,0,.3,0l97.26-17.14a3.3,3.3,0,0,0,2.72-3.12l.39-6.63Z"/><path class="cls-6" d="M536.7,132.34l13.19,8.88c1.69,1.14,1.82,5.18,4.19-2,7.83-23.58,14.51-111.75,14.51-111.75A6.34,6.34,0,0,0,564.84,21l-12.39-3.42c-1.55-.4-.51,1.29-.74,2.88L535.54,129.7A2.7,2.7,0,0,0,536.7,132.34Z"/><path class="cls-2" d="M557.92,227h0a3.91,3.91,0,0,1-3.32-3.11l-16-80.21a3.91,3.91,0,0,1,3.09-4.6l.43-.08a3.91,3.91,0,0,1,4.58,3.1l15.52,80.3A3.91,3.91,0,0,1,557.92,227Z"/><path class="cls-3" d="M456.65,246.09h0a4,4,0,0,1-4.86-4.27L458,160.35a4,4,0,0,1,4.34-3.73h.17a4,4,0,0,1,3.73,4.35l-6.36,81.46A4,4,0,0,1,456.65,246.09Z"/><path class="cls-3" d="M360.87,226.2l-.12,0a4.14,4.14,0,0,1-4.67-4.68l11.61-83.07a4.14,4.14,0,0,1,4.67-3.53h0a4.14,4.14,0,0,1,3.54,4.67l-11.49,83.06A4.14,4.14,0,0,1,360.87,226.2Z"/><path class="cls-2" d="M434.24,215.93h0a4.13,4.13,0,0,1-3.76-4.1l-.08-80.52a4.13,4.13,0,0,1,4.13-4.13h0a4.13,4.13,0,0,1,4.13,4.12l.06,80.52A4.13,4.13,0,0,1,434.24,215.93Z"/><path class="cls-7" d="M559.29,27.82,549,123.93c-.65,4.9.61,9.17-10.88,7.82l-107.16-8.26a9.29,9.29,0,0,1-8.45-10.63l12.77-85.77a9.29,9.29,0,0,1,9-7.92L549.91,17.3A9.29,9.29,0,0,1,559.29,27.82Z"/><path class="cls-6" d="M421.23,122.59l118.67,9.34a.71.71,0,0,1,.07,1.4l-75.38,14.43c-.07,0-.58-1-.65-1L362.1,134.17a.71.71,0,0,1,0-1.4l59-10.17Z"/><path class="cls-8" d="M464.16,146.54l0,.87a1.43,1.43,0,0,1,1.05-.82l79.41-14.13A1.44,1.44,0,0,1,546,133l6.3,8.86a1.44,1.44,0,0,1-.9,2.24L467.34,160l-.2,0a34.54,34.54,0,0,1-5,0,1.76,1.76,0,0,1-.3,0L364.6,142.85a3.3,3.3,0,0,1-2.72-3.12l-.39-6.63Z"/><path class="cls-9" d="M674.84,156.44,688,165.32c1.69,1.14,1.82,5.18,4.19-2C700,139.78,706.73,51.62,706.73,51.62A6.34,6.34,0,0,0,703,45.1l-12.39-3.42c-1.55-.4-.51,1.29-.74,2.88L673.68,153.81A2.7,2.7,0,0,0,674.84,156.44Z"/><path class="cls-2" d="M696.06,251.07h0a3.91,3.91,0,0,1-3.32-3.11l-16-80.21a3.91,3.91,0,0,1,3.09-4.6l.43-.08a3.91,3.91,0,0,1,4.58,3.1l15.52,80.3A3.91,3.91,0,0,1,696.06,251.07Z"/><path class="cls-3" d="M594.79,270.2h0a4,4,0,0,1-4.86-4.27l6.19-81.47a4,4,0,0,1,4.34-3.73h.17a4,4,0,0,1,3.73,4.35L598,266.55A4,4,0,0,1,594.79,270.2Z"/><path class="cls-3" d="M499,250.31l-.12,0a4.14,4.14,0,0,1-4.67-4.68l11.61-83.07a4.14,4.14,0,0,1,4.67-3.53h0a4.14,4.14,0,0,1,3.54,4.67l-11.49,83.06A4.14,4.14,0,0,1,499,250.31Z"/><path class="cls-2" d="M572.38,240h0a4.13,4.13,0,0,1-3.76-4.1l-.08-80.52a4.13,4.13,0,0,1,4.13-4.13h0a4.13,4.13,0,0,1,4.13,4.12l.06,80.52A4.13,4.13,0,0,1,572.38,240Z"/><path class="cls-10" d="M697.42,51.93,687.12,148c-.65,4.9.61,9.17-10.88,7.82L569.08,147.6A9.29,9.29,0,0,1,560.63,137L573.4,51.2a9.29,9.29,0,0,1,9-7.92L688,41.41A9.29,9.29,0,0,1,697.42,51.93Z"/><path class="cls-9" d="M559.37,146.7,678,156a.71.71,0,0,1,.07,1.4l-75.38,14.43c-.07,0-.58-1-.65-1l-101.84-12.6a.71.71,0,0,1,0-1.4l59-10.17Z"/><path class="cls-11" d="M602.29,170.65l0,.87a1.43,1.43,0,0,1,1.05-.82l79.41-14.13a1.44,1.44,0,0,1,1.42.58l6.3,8.86a1.44,1.44,0,0,1-.9,2.24l-84.08,15.82-.2,0a34.54,34.54,0,0,1-5,0,1.76,1.76,0,0,1-.3,0L502.74,167a3.3,3.3,0,0,1-2.72-3.12l-.39-6.63Z"/><path class="cls-12" d="M835.61,191.61l13.19,8.88c1.69,1.14,1.82,5.18,4.19-2,7.83-23.58,14.51-111.75,14.51-111.75a6.34,6.34,0,0,0-3.75-6.52l-12.39-3.42c-1.55-.4-.51,1.29-.74,2.88L834.44,189A2.7,2.7,0,0,0,835.61,191.61Z"/><path class="cls-2" d="M856.83,286.24h0a3.91,3.91,0,0,1-3.32-3.11l-16-80.21a3.91,3.91,0,0,1,3.09-4.6l.43-.08a3.91,3.91,0,0,1,4.58,3.1l15.52,80.3A3.91,3.91,0,0,1,856.83,286.24Z"/><path class="cls-3" d="M755.56,305.37h0a4,4,0,0,1-4.86-4.27l6.19-81.47a4,4,0,0,1,4.34-3.73h.17a4,4,0,0,1,3.73,4.35l-6.36,81.46A4,4,0,0,1,755.56,305.37Z"/><path class="cls-3" d="M659.77,285.47l-.12,0a4.14,4.14,0,0,1-4.67-4.68l11.61-83.07a4.14,4.14,0,0,1,4.67-3.53h0a4.14,4.14,0,0,1,3.54,4.67l-11.49,83.06A4.14,4.14,0,0,1,659.77,285.47Z"/><path class="cls-2" d="M733.15,275.2h0a4.13,4.13,0,0,1-3.76-4.1l-.08-80.52a4.13,4.13,0,0,1,4.13-4.13h0a4.13,4.13,0,0,1,4.13,4.12l.06,80.52A4.13,4.13,0,0,1,733.15,275.2Z"/><path class="cls-13" d="M858.19,87.09,847.88,183.2c-.65,4.9.61,9.17-10.88,7.82l-107.16-8.26a9.29,9.29,0,0,1-8.45-10.63l12.77-85.77a9.29,9.29,0,0,1,9-7.92l105.62-1.87A9.29,9.29,0,0,1,858.19,87.09Z"/><path class="cls-12" d="M720.14,181.86,838.8,191.2a.71.71,0,0,1,.07,1.4L763.49,207c-.07,0-.58-1-.65-1L661,193.44a.71.71,0,0,1,0-1.4l59-10.17Z"/><path class="cls-14" d="M763.06,205.81l0,.87a1.43,1.43,0,0,1,1.05-.82l79.41-14.13a1.44,1.44,0,0,1,1.42.58l6.3,8.86a1.44,1.44,0,0,1-.9,2.24l-84.08,15.82-.2,0a34.54,34.54,0,0,1-5,0,1.76,1.76,0,0,1-.3,0l-97.26-17.14a3.3,3.3,0,0,1-2.72-3.12l-.39-6.63Z"/><path class="cls-15" d="M277.41,119.71c4.46,21.69,1.95,31.41,6.47,35.93,2.69,2.69,4.05-10-.12-30.3S268.41,89,266.42,89.43C260.79,90.59,274,102.95,277.41,119.71Z"/><path class="cls-16" d="M272.62,148.74a12.49,12.49,0,0,1,4.56-4.34A.84.84,0,0,1,277,144c-.14-1.37,3.41-2.86,7.93-3.33s8.31.25,8.45,1.62c.07.7-.83,1.43-2.33,2a12.6,12.6,0,0,1,4.58,8.65c.67,6.44-3.21,12.12-8.67,12.69-9.58,1-8.09-3.74-8.76-10.17-.07-.71-.12-1.42-.14-2.11-1.84,2.56-4.26,3.9-5.76,3C270.62,155.49,270.75,152,272.62,148.74Z"/><path class="cls-15" d="M135.19,200.54c-2.38-.3-7.2-1.58-6.19-5.38,3.91-14.66,6.91-61.48,6.91-61.48,0-3.94-3.17-17.17,0-17.17l2.78,17.25c3.17,0,2.8,2.21,2.58,6.13-2.44,45,.29,49.64.29,49.64C174.11,202.34,145.79,201.87,135.19,200.54Z"/><path class="cls-15" d="M190.33,199c-2.39-.06-7.33-.84-6.7-4.73,2.4-15,.63-61.86.63-61.86-.4-3.91-4.9-16.76-1.75-17.08L187,132.19c3.15-.32,3,1.91,3.19,5.84,2.13,45,5.32,49.36,5.32,49.36C229.23,196.83,201,199.23,190.33,199Z"/><path class="cls-17" d="M.59,32.07c-5.08-.24,20.74,132.56,158.91,127.56C290.77,154.88,309.68,20.95,308.43,15.45,308.43,15.45,114,37.39.59,32.07Z"/><path class="cls-18" d="M121.87,30.62c-17,17.22-26.93,38.25-26.93,61,0,25.25,12.33,48.42,32.89,66.58a190.46,190.46,0,0,0,32.3,1.48C291.4,154.88,310.31,20.95,309.06,15.45,309.06,15.45,216.5,25.89,121.87,30.62Z"/><path class="cls-19" d="M13.71,32.56C27.65,71,61.7,136.82,159.92,133.27c96.3-3.49,132.14-76.49,143.9-117.31C274.31,19.15,117.84,33.65,13.71,32.56Z"/><circle class="cls-15" cx="134.16" cy="67.51" r="4.31"/><circle class="cls-15" cx="213.86" cy="60.31" r="4.31"/><path class="cls-15" d="M190.87,77.49c.22,2-4.67,7.52-11.34,8.22s-12.6-3.61-12.81-5.66c0,0,6,4.6,12.63,3.89S190.87,77.49,190.87,77.49Z"/><path class="cls-20" d="M290.73,17.72c1.65,7.37.85,13.76-2.83,18.31s-9.38,6.53-16.59,6.6c4.19,16.64,2.39,30.41-6.17,36.1-5.78,3.85-13.78,3.42-22.58-.44-2.9,19.18-10.86,32.77-21.9,34.34-6.82,1-13.79-2.79-20-10-8.35,15.79-19.35,25.19-29.77,23.48-6.73-1.1-12.21-6.67-16-15.22-11.58,10.86-23.51,15.61-32.31,11.4-5.59-2.67-9.16-8.6-10.72-16.62-10.55,5.86-20.31,7.23-27.08,2.76S75.4,94.7,76.55,82.89c-8.69,2.65-16.28,2.2-21.47-2-6.41-5.18-8-15.14-5.43-27.23-7.52,1.31-13.94.18-18.33-3.76-4.21-3.79-6-9.71-5.71-16.91q-5.71,0-11.24-.06c13.93,38.42,48,104.26,146.2,100.71,96.3-3.49,132.14-76.49,143.9-117.31C301.29,16.67,296.63,17.15,290.73,17.72Z"/><path class="cls-15" d="M223.68,47.24c-.43.82-3.33-1.74-7.44-3.88s-7.87-3.06-7.44-3.88,4.1.26,8.22,2.4S224.1,46.42,223.68,47.24Z"/><path class="cls-15" d="M122.85,51.58c.43.82,3.33-1.74,7.44-3.88s7.87-3.06,7.44-3.88-4.1.26-8.22,2.4S122.42,50.76,122.85,51.58Z"/><path class="cls-15" d="M45.19,133c.14,22.14,4.62,31.13,1.14,36.49-2.07,3.19-6-8.92-6.18-29.66s7.48-38.71,9.5-38.72C55.4,101.05,45.08,115.88,45.19,133Z"/><path class="cls-16" d="M55.9,160.39a12.49,12.49,0,0,0-5.36-3.3.84.84,0,0,0,.07-.39c-.14-1.37-3.93-2.09-8.45-1.61s-8.07,2-7.93,3.34c.07.7,1.11,1.23,2.71,1.52a12.6,12.6,0,0,0-2.68,9.41c.68,6.44,5.66,11.19,11.12,10.61,9.57-1,7.13-5.33,6.45-11.77-.08-.71-.18-1.41-.3-2.09,2.33,2.12,5,2.93,6.27,1.78C59.26,166.58,58.42,163.22,55.9,160.39Z"/><path class="cls-15" d="M442.84,168.92c4.17-.41,8.81-1.65,10.31-2.69,2.19-1.53.95-9.84.79-12l-2.09-28c-.16-2.16-2.54-1.59-5.49-1.37h0c-1.09,5.6-.15,31.06-2.42,32.63-8.83,6.11-19.09,11-11,11.64A43.31,43.31,0,0,0,442.84,168.92Z"/><path class="cls-15" d="M479.22,169.72c4.17-.41,8.81-1.65,10.31-2.69,2.19-1.53.95-9.84.79-12l-2.09-28c-.16-2.16-2.54-1.59-5.49-1.37h0c-1.09,5.6-.15,31.06-2.42,32.63-8.83,6.11-19.09,11-11,11.64A43.31,43.31,0,0,0,479.22,169.72Z"/><path class="cls-15" d="M435.64,73.17c-22.8,16.84-58.28,24.53-73.82,0-.67-1.06-2.28-1-2.28-2.28h0c0-1.25,1.45-3.22,2.28-2.28,27.62,31.39,56.66,7.17,73.82,0,1.16-.48,2.28,1,2.28,2.28h0C437.92,72.15,436.65,72.43,435.64,73.17Z"/><rect class="cls-21" x="401.59" y="10.06" width="109.57" height="109.57"/><polygon class="cls-22" points="535 129.84 511.17 119.63 511.17 10.06 535 24.88 535 129.84"/><polygon class="cls-22" points="535 129.84 420.82 129.84 401.6 119.63 511.17 119.63 535 129.84"/><circle class="cls-15" cx="424.24" cy="46.75" r="4.63"/><circle class="cls-15" cx="480.9" cy="46.75" r="4.63"/><path class="cls-15" d="M539.46,97.4c-7.92-10.12-15.06-13.62-18.33-18-1-1.17-1.43-1.76-.26-2.77h0a2.82,2.82,0,0,1,4,.27s26.51,22.56,33,40.14c.53,1.45,2.7,10.08-.59,6.94-.76-.73-6.68-11.7-7.07-12.35C547.92,107.9,541.22,99.65,539.46,97.4Z"/><path class="cls-23" d="M568.61,119.08c-3-4.3-5.62-6.16-8.15-6.67,1.15-1.19,1.67-2.33,1.31-3.18-.79-1.82-5.36-1.59-10.21.5s-8.16,5.27-7.37,7.09a2.41,2.41,0,0,0,2,1.16,13.12,13.12,0,0,0-2.41,6.58c-.54,4.62.77,8.56,2.93,8.82,1.89.22,3.79-2.46,4.6-6.22,3.08,4.45,3.79,10.54,8.85,8.36C566.13,133,572.1,124.13,568.61,119.08Z"/><path class="cls-24" d="M468.3,69.95c-.25,3.21-7.18,5.83-16,5.83s-15.7-2.63-16-5.83c-.77-7.47,7.18-5.83,16-5.83S468.88,62.48,468.3,69.95Z"/><path class="cls-23" d="M367.58,66.14a12.23,12.23,0,0,0,1.94-2.25c2.08-3.08,2.48-6.43.91-7.49-1.28-.86-3.48.06-5.38,2.09a15.39,15.39,0,0,0-.92-1.67c-3.89-6.15-6.32-10.17-11.94-6.61s-9.3,10.75-5.41,16.9a12.5,12.5,0,0,0,9.29,6.16,2.62,2.62,0,0,0,.32,1.52c.84,1.58,2.72,2,7.48-.52s7.05-5.71,6.21-7.29C369.72,66.31,368.84,66,367.58,66.14Z"/><path class="cls-15" d="M488.13,29.59c-.23.72-3.66-2.43-7.68-3.69s-8-.81-7.73-1.53,3.77-1.38,8.2.06S488.36,28.87,488.13,29.59Z"/><path class="cls-15" d="M416.54,29.6c.23.72,3.65-2.44,7.67-3.69s8-.82,7.72-1.54-3.77-1.37-8.2.07S416.31,28.88,416.54,29.6Z"/><path class="cls-25" d="M705.78,20.93c7.94-3-21.16,13.77-45,11S614.37,19.26,615.4,10.41s6.5-12.94,30.1-8.79C668.7,5.7,690.63,26.68,705.78,20.93Z"/><polygon class="cls-25" points="630.06 30.72 626.15 30.52 625.64 20.14 630.84 21.08 630.06 30.72"/><path class="cls-15" d="M532.94,76.18c-14.54-9.88-18.61-22.73-22.11-18.33-1.21,1.52,9.94,18.29,25.67,26.13,15.22,7.58,21.85,8.74,23.06,7.22C563.86,85.81,547.48,86.07,532.94,76.18Z"/><path class="cls-26" d="M501.43,56.75c.12-6.78,5.51-12.65,12.28-12.28,4.52.24,6,3.65,9.22,8.27,1.67-3.37,2.82-4.62,6.23-3.43,1.78.62,2,4.18.51,7.72a21.26,21.26,0,0,1-3.11,5.15,1.68,1.68,0,0,1,.58.58c.94,1.63-1.26,4.67-4.91,6.78s-7.39,2.5-8.33.86a1.91,1.91,0,0,1-.16-1.37h0A12.18,12.18,0,0,1,501.43,56.75Z"/><path class="cls-15" d="M625.66,195.23c4-.4,8.52-1.59,10-2.6,2.12-1.48.92-9.52.76-11.61l-2-27.05c-.16-2.09-2.46-1.54-5.31-1.32h0c-1.06,5.41-.15,30-2.34,31.55-8.54,5.91-18.46,10.68-10.6,11.25A41.87,41.87,0,0,0,625.66,195.23Z"/><path class="cls-15" d="M584.76,190.86c4,0,8.63-.77,10.17-1.64,2.25-1.27,1.82-9.39,1.86-11.48l.57-27.12c0-2.1-2.3-1.76-5.16-1.82h0c-1.57,5.29-3,29.88-5.34,31.18-9.07,5.07-19.39,8.87-11.62,10.19A41.87,41.87,0,0,0,584.76,190.86Z"/><ellipse class="cls-27" cx="616.98" cy="93.01" rx="70.55" ry="64.66"/><path class="cls-28" d="M607.15,148.89c37.64,0,68.15-28.44,68.15-63.53,0-20.11-10-38-25.66-49.67C672.16,46.48,687.53,68.1,687.53,93c0,35.71-31.59,64.66-70.55,64.66-23.24,0-43.86-10.3-56.71-26.19A70.62,70.62,0,0,0,607.15,148.89Z"/><circle class="cls-15" cx="636.86" cy="78.21" r="4.1" transform="translate(523.96 709.85) rotate(-86.87)"/><circle class="cls-15" cx="578.74" cy="72.22" r="4.1" transform="translate(474.99 646.15) rotate(-86.87)"/><path class="cls-15" d="M630.73,55.75c-.24.73,3.75-.68,8.16.76s6.74,4.66,7,3.93-2.13-3.81-6.54-5.25S631,55,630.73,55.75Z"/><path class="cls-15" d="M587.69,53.59c.12.76-3.5-1-8.09-.24s-7.46,3.47-7.57,2.71,2.77-3.37,7.36-4.08S587.57,52.83,587.69,53.59Z"/><path class="cls-29" d="M590.14,92.42c1,4.11,5.85,7.71,13.17,7.78s12.24-3.43,13.32-7.52c1.33-5.06-.65-7.16-13.17-7.78C589.45,84.2,589.11,88.32,590.14,92.42Z"/><path class="cls-15" d="M685.88,127.09c1.57,17.51-5,32.76.58,32.68,1.94,0,7.85-19.28,3.93-36.42-3.79-16.58-7.09-22.44-9-22.41C674.45,101,684.3,109.59,685.88,127.09Z"/><path class="cls-26" d="M673.6,146.49a14.62,14.62,0,0,1,7.11-3.49,2,2,0,0,1-1-1.65c.16-1.71,4.19-2.72,9-2.27s8.59,2.2,8.43,3.91c-.07.75-.89,1.37-2.2,1.79,2.79,1.83,4.78,5.35,3.23,12.57-1.49,6.93-9.45,8.39-15.46,7.23-5.7-1.1-7.44-4.25-6.48-10.41-1.77.78-3.48.76-4.47-.22C670.2,152.39,671,149.06,673.6,146.49Z"/><path class="cls-15" d="M738.91,218.27c4.17-.41,8.81-1.65,10.31-2.69,2.19-1.53.95-9.84.79-12l-2.09-28c-.16-2.16-2.54-1.59-5.49-1.37h0c-1.09,5.6-.15,31.06-2.42,32.63-8.83,6.11-19.09,11-11,11.64A43.31,43.31,0,0,0,738.91,218.27Z"/><path class="cls-15" d="M775.28,219.06c4.17-.41,8.81-1.65,10.31-2.69,2.19-1.53.95-9.84.79-12l-2.09-28c-.16-2.16-2.54-1.59-5.49-1.37h0c-1.09,5.6-.15,31.06-2.42,32.63-8.83,6.11-19.09,11-11,11.64A43.31,43.31,0,0,0,775.28,219.06Z"/><path class="cls-15" d="M731.7,122.52c-22.8,16.84-58.28,24.53-73.82,0-.67-1.06-2.28-1-2.28-2.28h0c0-1.25,1.45-3.22,2.28-2.28,27.62,31.39,56.66,7.17,73.82,0,1.16-.48,2.28,1,2.28,2.28h0C734,121.49,732.71,121.77,731.7,122.52Z"/><rect class="cls-21" x="697.66" y="59.4" width="109.57" height="109.57"/><polygon class="cls-22" points="831.07 179.19 807.23 168.97 807.23 59.4 831.07 74.22 831.07 179.19"/><polygon class="cls-22" points="831.07 179.19 716.89 179.19 697.66 168.97 807.23 168.97 831.07 179.19"/><circle class="cls-15" cx="720.3" cy="96.09" r="4.63"/><circle class="cls-15" cx="776.96" cy="96.09" r="4.63"/><path class="cls-15" d="M835.52,146.74c-7.92-10.12-15.06-13.62-18.33-18-1-1.17-1.43-1.76-.26-2.77h0a2.82,2.82,0,0,1,4,.27s26.51,22.56,33,40.14c.53,1.45,2.7,10.08-.59,6.94-.76-.73-6.68-11.7-7.07-12.35C844,157.24,837.28,149,835.52,146.74Z"/><path class="cls-23" d="M864.68,168.42c-3-4.3-5.62-6.16-8.15-6.67,1.15-1.19,1.67-2.33,1.31-3.18-.79-1.82-5.36-1.59-10.21.5s-8.16,5.27-7.37,7.09a2.41,2.41,0,0,0,2,1.16,13.12,13.12,0,0,0-2.41,6.58c-.54,4.62.77,8.56,2.93,8.82,1.89.22,3.79-2.46,4.6-6.22,3.08,4.45,3.79,10.54,8.85,8.36C862.19,182.3,868.17,173.48,864.68,168.42Z"/><path class="cls-24" d="M764.36,119.29c-.25,3.21-7.18,5.83-16,5.83s-15.7-2.63-16-5.83c-.77-7.47,7.18-5.83,16-5.83S764.94,111.82,764.36,119.29Z"/><path class="cls-23" d="M663.64,115.48a12.23,12.23,0,0,0,1.94-2.25c2.08-3.08,2.48-6.43.91-7.49-1.28-.86-3.48.06-5.38,2.09a15.39,15.39,0,0,0-.92-1.67C656.3,100,653.87,96,648.25,99.55s-9.3,10.75-5.41,16.9a12.5,12.5,0,0,0,9.29,6.16,2.62,2.62,0,0,0,.32,1.52c.84,1.58,2.72,2,7.48-.52s7.05-5.71,6.21-7.29C665.79,115.65,664.9,115.38,663.64,115.48Z"/><path class="cls-15" d="M784.19,78.93c-.23.72-3.66-2.43-7.68-3.69s-8-.81-7.73-1.53,3.77-1.38,8.2.06S784.42,78.22,784.19,78.93Z"/><path class="cls-15" d="M712.6,78.94c.23.72,3.65-2.44,7.67-3.69s8-.82,7.72-1.54-3.77-1.37-8.2.07S712.37,78.22,712.6,78.94Z"/></g></g></svg>