<svg xmlns="http://www.w3.org/2000/svg" viewBox="0 0 715.76 513.99"><defs><style>.cls-1{isolation:isolate;}.cls-2{fill:#aaaaab;}.cls-3{fill:#c33b27;}.cls-4{fill:#f15a29;}.cls-5{fill:#008389;}.cls-6{fill:#00a79d;}.cls-7{fill:#231f20;}.cls-16,.cls-8{fill:#e8ecee;stroke:#231f20;stroke-miterlimit:10;}.cls-8{stroke-width:0.74px;}.cls-9{fill:#044926;}.cls-10{fill:#8dc63f;}.cls-11{fill:#006838;}.cls-12{fill:#fff;}.cls-13{fill:#b9bbbc;}.cls-14{fill:#f4f0e9;}.cls-15{fill:#009444;}.cls-16{stroke-width:1.18px;}.cls-17{fill:#f7941d;}.cls-18{fill:#f36e24;}.cls-19{fill:#d35461;}.cls-20{fill:#e92f60;}.cls-21{fill:#feed73;}.cls-22{fill:#c91977;opacity:0.24;mix-blend-mode:multiply;}.cls-23{fill:#bac8dc;}.cls-24{fill:#d9e1ee;}.cls-25{fill:#2b3990;}</style></defs><title>lunch_interview</title><g class="cls-1"><g id="Layer_2" data-name="Layer 2"><g id="Layer_2-2" data-name="Layer 2"><rect class="cls-2" x="572.2" y="301.17" width="15.49" height="193.56"/><path class="cls-2" d="M580,482.07c-9.74,0-36.31,16.2-33.1,21.24l0,0a1.47,1.47,0,0,0,.73.62,11.72,11.72,0,0,0,3.75,1.07c5.67,1.08,16.12,1.8,28.07,1.8,12.61,0,23.54-.8,29-2a7.85,7.85,0,0,0,3.35-1.15C617.15,499.29,589.67,482.07,580,482.07Z"/><path class="cls-3" d="M638.66,271.21H518.36V302a3.64,3.64,0,0,0-.07.71c0,8,26.95,14.56,60.19,14.56s60.19-6.52,60.19-14.56c0-.06,0-.11,0-.17h0Z"/><path class="cls-4" d="M638.66,271.52c0,4.45-26.95,8.07-60.19,8.07s-60.19-3.61-60.19-8.07,25.69-13.78,58.93-13.78S638.66,267.06,638.66,271.52Z"/><rect class="cls-2" x="72" y="301.36" width="15.49" height="193.56"/><path class="cls-2" d="M79.78,482.26c-9.74,0-36.31,16.2-33.1,21.24l0,0a1.47,1.47,0,0,0,.73.62,11.72,11.72,0,0,0,3.75,1.07c5.67,1.08,16.12,1.8,28.07,1.8,12.61,0,23.54-.8,29-2a7.85,7.85,0,0,0,3.35-1.15C116.95,499.48,89.47,482.26,79.78,482.26Z"/><path class="cls-5" d="M138.46,271.4H18.15v30.76a3.64,3.64,0,0,0-.07.71c0,8,26.95,14.56,60.19,14.56s60.19-6.52,60.19-14.56c0-.06,0-.11,0-.17h0Z"/><path class="cls-6" d="M138.46,271.7c0,4.45-26.95,8.07-60.19,8.07s-60.19-3.61-60.19-8.07S43.77,257.92,77,257.92,138.46,267.25,138.46,271.7Z"/><rect class="cls-2" x="315.21" y="254.09" width="17.83" height="228.46"/><path class="cls-7" d="M589.42,313.21c1.92-.2,5.84-1.14,5.09-4.23-2.89-11.9-4.44-49.76-4.44-49.76.07-3.18,2.88-13.8.32-13.86l-2.57,13.87c-2.56-.06-2.3,1.73-2.2,4.9,1.14,36.35-1.15,40.07-1.15,40.07C558,313.95,580.84,314.09,589.42,313.21Z"/><path class="cls-7" d="M564.42,312.61c1.93-.16,5.86-1,5.17-4.14-2.68-12-3.58-49.83-3.58-49.83.13-3.18,3.12-13.75.56-13.85l-2.8,13.83c-2.56-.1-2.33,1.69-2.28,4.87.52,36.36-1.84,40-1.84,40C533,312.81,555.83,313.34,564.42,312.61Z"/><path class="cls-7" d="M541.93,257.13c-1.55,15.56.94,22.21-1.91,25.71-1.69,2.08-3.58-6.71-2.14-21.3s8.13-26.63,9.55-26.49C551.47,235.45,543.12,245.1,541.93,257.13Z"/><path class="cls-8" d="M547.42,277.17a8.82,8.82,0,0,0-3.52-2.71.6.6,0,0,0,.08-.27c0-1-2.6-1.76-5.82-1.76s-5.82.79-5.82,1.76c0,.5.69.95,1.79,1.27a8.9,8.9,0,0,0-2.58,6.41c0,4.57,3.14,8.28,7,8.28,6.8,0,5.41-3.22,5.41-7.79,0-.5,0-1-.06-1.49,1.48,1.66,3.27,2.43,4.27,1.72S549,279.34,547.42,277.17Z"/><path class="cls-9" d="M611.67,133.52c-15.38,0-29,6-37.55,15.31-8.52-9.29-22.16-15.31-37.55-15.31-25.82,0-46.74,17-46.74,37.86s20.93,37.86,46.74,37.86c15.38,0,29-6,37.55-15.31,8.52,9.29,22.16,15.31,37.55,15.31,25.82,0,46.74-17,46.74-37.86S637.49,133.52,611.67,133.52Z"/><path class="cls-10" d="M597.59,273.4H549.75c-8.24,0-4.47-6.35-4.11-14.59,2.38-53.77-18.14-84.3-18.14-84.3,0-8.24,9.12-22.53,17.36-22.53,0,0,8,26.16,12.1,27.28,13.11,3.58,6.47-21.19,11.62-20.58a57,57,0,0,0,10.62,0c5.07-.37-1,22.38,13,20.89,4.14-.44,8.94-27.58,8.94-27.58,8.24,0,17,13.35,17,21.59,0,0-17.64,24.61-17.64,85.24C600.57,267.05,603.43,272.65,597.59,273.4Z"/><path class="cls-11" d="M715.76,122a35.59,35.59,0,0,0-14.4-28.62c2.43-16.77-6-35.88-23.07-48.24a61.23,61.23,0,0,0-12.9-7.18,35.66,35.66,0,0,0-52-23.87C604,5.43,590.43,0,575.29,0c-16.11,0-30.48,6.16-39.87,15.77a35.65,35.65,0,0,0-54.7,21.85,60.85,60.85,0,0,0-16.1,6.47C444,56,433.33,77.73,437.53,96.39a35.64,35.64,0,0,0,8.55,58.79c0,.12,0,.25,0,.37,2.92,23.22,28,39.18,56.12,35.65,21.72-2.73,38.84-16.33,44.13-33.09a58.72,58.72,0,0,0,28.94,7.41,59.54,59.54,0,0,0,24.86-5.32c5.95,14.72,20.91,26.85,40.12,30.56,27.78,5.37,53.9-8.9,58.34-31.88a35.44,35.44,0,0,0,.64-6.83A35.61,35.61,0,0,0,715.76,122Z"/><circle class="cls-7" cx="552.54" cy="211.07" r="3.83"/><circle class="cls-7" cx="587.33" cy="211.07" r="3.83"/><path class="cls-7" d="M595,197.44c-.28.82-3.33-1.16-7.44-2.58s-7.72-1.76-7.44-2.58,3.84-.32,7.95,1.1S595.26,196.62,595,197.44Z"/><path class="cls-7" d="M541.42,200.2c.28.82,3.33-1.16,7.44-2.58s7.72-1.76,7.44-2.58-3.84-.32-7.95,1.1S541.14,199.38,541.42,200.2Z"/><path class="cls-7" d="M603.93,257.13c1.55,15.56-.94,22.21,1.91,25.71,1.69,2.08,3.58-6.71,2.14-21.3s-8.13-26.63-9.55-26.49C594.39,235.45,602.74,245.1,603.93,257.13Z"/><path class="cls-8" d="M598.44,277.17a8.82,8.82,0,0,1,3.52-2.71.6.6,0,0,1-.08-.27c0-1,2.6-1.76,5.82-1.76s5.82.79,5.82,1.76c0,.5-.69.95-1.79,1.27a8.9,8.9,0,0,1,2.58,6.41c0,4.57-3.14,8.28-7,8.28-6.8,0-5.41-3.22-5.41-7.79,0-.5,0-1,.06-1.49-1.48,1.66-3.27,2.43-4.27,1.72S596.88,279.34,598.44,277.17Z"/><path class="cls-12" d="M584.26,221.76c0,2.92-6.07,9.06-13.56,9.06s-13.56-6.15-13.56-9.06,6.07-1.9,13.56-1.9S584.26,218.85,584.26,221.76Z"/><path class="cls-13" d="M498.12,241.89H154.24v31.65a1.51,1.51,0,0,0-.2.73c0,8.27,77,15,172,15s172-6.71,172-15a1.37,1.37,0,0,0,0-.17h0Z"/><ellipse class="cls-14" cx="326.08" cy="241.88" rx="172.04" ry="11.88"/><path class="cls-2" d="M324.23,469.89c-8.09,0-30.18,28.85-27.5,37.82l0,.06a2.3,2.3,0,0,0,.61,1.1,6.68,6.68,0,0,0,3.12,1.9c4.71,1.92,13.39,3.21,23.33,3.21,10.48,0,19.56-1.43,24.06-3.53a5.12,5.12,0,0,0,2.78-2C355.12,500.55,332.29,469.89,324.23,469.89Z"/><path class="cls-15" d="M1.23,149.46c-7.32-2.78,19.52,12.7,41.47,10.15s42.83-11.68,41.88-19.84-6-11.93-27.76-8.1C35.43,135.43,15.2,154.77,1.23,149.46Z"/><polygon class="cls-15" points="71.06 158.5 74.66 158.31 75.14 148.74 70.34 149.6 71.06 158.5"/><path class="cls-7" d="M160.62,200.42c13.41-9.11,17.17-21,20.39-16.9,1.11,1.4-9.17,16.87-23.68,24.09-14,7-20.15,8.06-21.27,6.66C132.11,209.29,147.21,209.53,160.62,200.42Z"/><path class="cls-16" d="M189.68,182.5c-.11-6.26-5.08-11.66-11.33-11.33-4.17.22-5.56,3.36-8.5,7.63-1.54-3.1-2.6-4.26-5.74-3.16-1.64.57-1.82,3.85-.47,7.12a19.61,19.61,0,0,0,2.87,4.75,1.55,1.55,0,0,0-.54.53c-.87,1.51,1.16,4.31,4.53,6.26s6.81,2.3,7.68.8a1.76,1.76,0,0,0,.15-1.27h0A11.23,11.23,0,0,0,189.68,182.5Z"/><path class="cls-7" d="M75.12,310.21c-3.72-.37-7.86-1.47-9.19-2.4-2-1.36-.84-8.78-.7-10.71l1.86-24.95c.14-1.93,2.27-1.42,4.89-1.22h0c1,5,.14,27.7,2.16,29.1,7.88,5.45,17,9.85,9.78,10.38A38.61,38.61,0,0,1,75.12,310.21Z"/><path class="cls-7" d="M112.83,306.18c-3.73,0-8-.71-9.38-1.51-2.08-1.17-1.68-8.66-1.72-10.59l-.53-25c0-1.93,2.12-1.63,4.76-1.68h0c1.45,4.88,2.77,27.56,4.92,28.76,8.36,4.67,17.88,8.18,10.72,9.4A38.61,38.61,0,0,1,112.83,306.18Z"/><ellipse class="cls-17" cx="83.12" cy="215.93" rx="65.06" ry="59.62"/><path class="cls-18" d="M92.19,267.47c-34.71,0-62.85-26.23-62.85-58.59,0-18.54,9.24-35.07,23.67-45.81C32.24,173,18.06,193,18.06,215.93c0,32.93,29.13,59.62,65.06,59.62,21.43,0,40.44-9.5,52.3-24.15A65.13,65.13,0,0,1,92.19,267.47Z"/><circle class="cls-7" cx="64.79" cy="202.29" r="3.78" transform="translate(-10.96 3.84) rotate(-3.13)"/><circle class="cls-7" cx="118.39" cy="196.77" r="3.78" transform="translate(-10.58 6.77) rotate(-3.13)"/><path class="cls-7" d="M70.44,181.57c.22.67-3.46-.63-7.53.7s-6.21,4.3-6.43,3.62,2-3.52,6-4.84S70.22,180.9,70.44,181.57Z"/><path class="cls-7" d="M110.13,179.58c-.11.7,3.22-.88,7.46-.22s6.88,3.2,7,2.5-2.55-3.11-6.79-3.77S110.24,178.88,110.13,179.58Z"/><path class="cls-19" d="M107.87,215.39c-1,3.79-5.4,7.11-12.14,7.17s-11.29-3.16-12.28-6.93c-1.22-4.66.6-6.6,12.14-7.17C108.51,207.82,108.82,211.61,107.87,215.39Z"/><path class="cls-7" d="M19.59,247.37c-1.45,16.15,4.65,30.21-.53,30.13-1.79,0-7.23-17.78-3.62-33.59,3.49-15.29,6.54-20.7,8.33-20.67C30.12,223.35,21,231.22,19.59,247.37Z"/><path class="cls-16" d="M30.91,265.26A13.49,13.49,0,0,0,24.35,262a1.85,1.85,0,0,0,.95-1.52c-.15-1.57-3.87-2.51-8.31-2.1s-7.92,2-7.78,3.6c.06.69.82,1.26,2,1.65-2.58,1.69-4.41,4.93-3,11.59,1.37,6.39,8.72,7.74,14.26,6.67,5.26-1,6.86-3.92,6-9.6,1.64.72,3.21.7,4.12-.2C34,270.7,33.28,267.62,30.91,265.26Z"/><path class="cls-20" d="M432.69,242.08s-4.36,2.18-14,2.18c-11.45,0-14-2.18-14-2.18l-3.07-56.46H434.8Z"/><rect class="cls-21" x="408.74" y="200.75" width="19.07" height="18.05" rx="7.4" ry="7.4"/><path class="cls-22" d="M418.28,186.1v58.15h.43c9.62,0,14-2.18,14-2.18l2.09-56Z"/><path class="cls-23" d="M436.32,183.45H400.21v3.26a.15.15,0,0,0,0,.07c0,.85,8.09,1.54,18.07,1.54s18.07-.69,18.07-1.54v0h0Z"/><ellipse class="cls-24" cx="418.25" cy="183.45" rx="18.07" ry="1.22"/><path class="cls-25" d="M419.93,183.06V160.14a1.68,1.68,0,0,0-1.67-1.67h0a1.68,1.68,0,0,0-1.67,1.67v22.92C416.59,184,419.93,184,419.93,183.06Z"/><path class="cls-25" d="M425.18,154.88l-7.89,3.89a1.57,1.57,0,0,0-.54,2.13h0a1.57,1.57,0,0,0,2,.87l7.89-3.89C427.36,157.53,425.88,154.53,425.18,154.88Z"/><path class="cls-20" d="M201.26,240.76s4.36,2.18,14,2.18c11.45,0,14-2.18,14-2.18l3.07-56.46H199.15Z"/><rect class="cls-21" x="206.15" y="199.43" width="19.07" height="18.05" rx="7.4" ry="7.4" transform="translate(431.36 416.9) rotate(-180)"/><path class="cls-22" d="M215.68,184.78v58.15h-.43c-9.62,0-14-2.18-14-2.18l-2.09-56Z"/><path class="cls-23" d="M197.63,182.13h36.12v3.26a.15.15,0,0,1,0,.07c0,.85-8.09,1.54-18.07,1.54s-18.07-.69-18.07-1.54v0h0Z"/><ellipse class="cls-24" cx="215.7" cy="182.13" rx="18.07" ry="1.22"/><path class="cls-25" d="M214,181.74V158.82a1.68,1.68,0,0,1,1.67-1.67h0a1.68,1.68,0,0,1,1.67,1.67v22.92C217.37,182.66,214,182.66,214,181.74Z"/><path class="cls-25" d="M208.77,153.56l7.89,3.89a1.57,1.57,0,0,1,.54,2.13h0a1.57,1.57,0,0,1-2,.87l-7.89-3.89C206.59,156.21,208.07,153.21,208.77,153.56Z"/></g></g></g></svg>