<svg xmlns="http://www.w3.org/2000/svg" viewBox="0 0 894.73 500.99"><defs><style>.cls-1{fill:#ffc534;}.cls-2{fill:#2a8364;}.cls-3{fill:#bcbec0;}.cls-4{fill:#231f20;}.cls-10,.cls-15,.cls-23,.cls-5{fill:#e8ecee;stroke:#231f20;stroke-miterlimit:10;}.cls-5{stroke-width:0.82px;}.cls-6{fill:#62b482;}.cls-7{fill:#77c69a;}.cls-8{fill:#f69592;}.cls-9{fill:#f7a4a5;}.cls-10{stroke-width:1.15px;}.cls-11{fill:#fee465;}.cls-12{fill:#ffd449;}.cls-13{fill:#754c29;}.cls-14{fill:#fee255;}.cls-15{stroke-width:0.75px;}.cls-16{fill:#ffd469;}.cls-17{fill:#fee96b;}.cls-18{fill:#b5c962;}.cls-19{fill:#cad86e;}.cls-20{fill:#009444;}.cls-21{fill:#f36e24;}.cls-22{fill:#f7941d;}.cls-23{stroke-width:1.74px;}</style></defs><title>multiple_interview</title><g id="Layer_2" data-name="Layer 2"><g id="Layer_2-2" data-name="Layer 2"><rect class="cls-1" x="237.17" y="84.16" width="19.13" height="308.61"/><polygon class="cls-1" points="365.94 63.85 383.86 76.15 255.62 95.29 237.32 84.2 365.94 63.85"/><polygon class="cls-2" points="194.39 387.63 236.16 392.26 236.1 86.9 193.76 93.12 194.39 387.63"/><rect class="cls-3" x="231.7" y="99.72" width="5.74" height="24.22" rx="2.76" ry="2.76"/><rect class="cls-3" x="231.7" y="351.47" width="5.74" height="24.22" rx="2.76" ry="2.76"/><path class="cls-4" d="M241.08,353.27c.31,17.26,3.88,24.22,1.22,28.42-1.59,2.5-4.78-6.89-5.08-23.06s5.48-30.23,7.05-30.26C248.75,328.28,240.84,339.93,241.08,353.27Z"/><path class="cls-5" d="M249.68,374.52a9.74,9.74,0,0,0-4.21-2.52.66.66,0,0,0,0-.31c-.12-1.06-3.08-1.59-6.6-1.18s-6.27,1.61-6.15,2.67c.06.55.88.95,2.12,1.16a9.82,9.82,0,0,0-2,7.36c.59,5,4.51,8.67,8.76,8.17,7.45-.88,5.51-4.22,4.92-9.23-.06-.55-.15-1.1-.26-1.63,1.83,1.63,3.9,2.24,4.9,1.33S251.67,376.7,249.68,374.52Z"/><path class="cls-4" d="M363,390.45c1.76-.63,5.21-2.43,3.79-5.15-5.48-10.48-15.75-45.57-15.75-45.57-.67-3-.52-13.6-2.93-13.06l.83,13.59c-2.41.54-1.75,2.16-.92,5.11,9.54,33.77,8.26,37.8,8.26,37.8C333.75,398.46,355.2,393.27,363,390.45Z"/><path class="cls-4" d="M320.84,398.68c1.81-.45,5.43-1.89,4.29-4.74-4.38-11-11-46.93-11-46.93-.36-3,.86-13.58-1.59-13.29l-.55,13.61c-2.45.29-2,2-1.43,5,6.06,34.57,4.38,38.44,4.38,38.44C290.89,403.68,312.76,400.69,320.84,398.68Z"/><path class="cls-6" d="M436.62,239.36c3.82-1,6.86,104.34-99.06,124.13-100.64,18.8-137.89-79.81-137.87-84.21C199.69,279.28,351.32,262.76,436.62,239.36Z"/><path class="cls-7" d="M344.15,259c15.84,10.19,27,24.48,30.89,41.75,4.31,19.2-1.11,38.92-13.64,56.24a148.44,148.44,0,0,1-24.31,6.64c-100.64,18.8-137.89-79.81-137.87-84.21C199.22,279.39,271.38,271.53,344.15,259Z"/><path class="cls-8" d="M426.72,242c-4,31.6-18.68,87.48-94,101.54-73.83,13.79-113.54-35.6-129.45-64.63C226.27,276.27,347.73,260.58,426.72,242Z"/><circle class="cls-4" cx="341.11" cy="289.11" r="3.36" transform="translate(-55.05 81.76) rotate(-12.66)"/><circle class="cls-4" cx="279.27" cy="297.25" r="3.36" transform="translate(-58.34 68.41) rotate(-12.66)"/><path class="cls-4" d="M299.68,306.39c.18,1.59,4.84,4.92,10,4.32s9-4.9,8.78-6.49c0,0-3.74,4.52-8.94,5.12S299.68,306.39,299.68,306.39Z"/><path class="cls-9" d="M213.54,278c0,5.88,1.71,10.61,5.28,13.44s8.25,3.36,13.75,2.18C232.23,307,236,317.15,243.43,320c5.05,1.94,11.06.25,17.1-4.19C266,329.91,274.38,338.89,283,338.2c5.35-.43,10-4.48,13.54-11,9,10.58,19,15.85,26.65,12.77,4.93-2,8.15-7.16,9.59-14.31,10.66,6.28,20.54,7.85,26.51,3.15,3.79-3,5.5-8.1,5.31-14.47,9,2.66,16.68,2,21.07-2.53s4.71-12.06,1.82-20.84c7.06.53,12.75-1.11,16-5.19,4-5,3.5-12.88-.52-21.64,5.94-.29,10.63-2.24,13.29-6,2.55-3.6,2.92-8.41,1.46-13.83q4.34-1,8.54-2c-4,31.6-18.68,87.48-94,101.54-73.83,13.79-113.54-35.6-129.45-64.63C205.33,279,209,278.56,213.54,278Z"/><path class="cls-4" d="M269.57,289c.46.55,2.24-1.89,5-4.22s5.46-3.67,5-4.22-3.08.9-5.84,3.23S269.11,288.44,269.57,289Z"/><path class="cls-4" d="M347,275.06c-.18.69-2.83-.75-6.32-1.68s-6.51-1-6.32-1.68,3.16-.51,6.66.42S347.17,274.37,347,275.06Z"/><path class="cls-4" d="M419.94,323.72c3.67,16.86,1.8,24.46,5.37,27.94,2.12,2.07,3.07-7.81-.37-23.61s-12.3-28.16-13.84-27.82C406.72,301.17,417.1,310.68,419.94,323.72Z"/><path class="cls-5" d="M416.47,346.38A9.74,9.74,0,0,1,420,343a.66.66,0,0,1-.12-.29c-.12-1.06,2.63-2.26,6.15-2.67s6.48.12,6.6,1.19c.06.55-.63,1.12-1.8,1.61a9.82,9.82,0,0,1,3.64,6.7c.58,5-2.39,9.47-6.64,10-7.45.87-6.34-2.84-6.92-7.85-.06-.55-.11-1.1-.13-1.64-1.41,2-3.28,3.08-4.46,2.43C415,351.65,415,349,416.47,346.38Z"/><rect class="cls-1" x="465.77" y="24.08" width="22.7" height="366.06"/><polygon class="cls-1" points="618.51 0 639.77 14.59 487.65 37.28 465.95 24.14 618.51 0"/><polygon class="cls-2" points="415.02 384.05 464.57 389.55 464.5 27.33 414.28 34.72 415.02 384.05"/><rect class="cls-3" x="459.28" y="42.54" width="6.8" height="28.73" rx="3.28" ry="3.28"/><rect class="cls-3" x="459.28" y="341.16" width="6.8" height="28.73" rx="3.28" ry="3.28"/><path class="cls-4" d="M531.08,228c-19.18-4.08-21.85-14.89-27.12-12.83-3.13,1.23,7.8,12,25.77,15.88s31.08-16.05,29.68-17.18C553.91,209.42,545.91,231.16,531.08,228Z"/><path class="cls-10" d="M493,205.45c3.36-4,9.42-.49,14.28,3.47.69-2.61,2-4.87,5-4.95,4.36-.11,3.31,6.14,2.93,9.9a11.07,11.07,0,0,1-.55,2.51,1.6,1.6,0,0,1,1.59.07c1,.91-.49,4.16-3.33,7.27s-5.94,4.89-6.93,4c-.35-.32-.39-.93-.17-1.72a17.65,17.65,0,0,1-12.38-4.09C488.42,217.68,489.43,209.65,493,205.45Z"/><path class="cls-4" d="M629.44,374.6c2.18-.89,6.42-3.35,4.48-6.69-7.48-12.88-22.37-56.47-22.37-56.47-1-3.73-1.41-17.09-4.41-16.27l1.8,17.06c-3,.82-2.08,2.81-.87,6.48,13.89,42,12.51,47.11,12.51,47.11C593,386.33,619.75,378.59,629.44,374.6Z"/><path class="cls-4" d="M597.1,379.62c2.12-1,6.15-2.53,4.31-5.93C595.8,363.35,587.92,322,587.92,322c-.7-3.8-1.54-6.3-4.6-5.74l-2.24-.14c-3.06.57.73,1.51,1.64,5.26,10.4,43,7.5,51.46,7.5,51.46C562.74,389.36,588.26,383.86,597.1,379.62Z"/><path class="cls-11" d="M508.75,118h0c2.63-3.36,1.5-7.69-1.33-10.88-12.11-13.63-23.12-19.36-23.12-19.36-3.36-2.63-6.13.91-8.75,4.27h0c-2.63,3.36-5.39,5.63-2,8.26,0,0,21,2.44,27.95,17C503.3,121.19,506.12,121.41,508.75,118Z"/><path class="cls-11" d="M559.47,353.61c2.54-4.06,2.87-8.16,2.92-11.93-2-21,2.58-62-10.66-110.79-20.52-75.53-74.74-121.28-48.91-128.3S598.45,132.27,619,207.8c17.31,63.73-7,120.65-30.49,141.09-5.17,5.91-10.4,11.67-11.73,13.93C573.84,367.75,556.08,359,559.47,353.61Z"/><path class="cls-12" d="M576.3,352.19c25.32-8.27,47.81-77.36,30.49-141.09C588,141.83,529.14,99,497.91,105.06a10.76,10.76,0,0,1,4.7-2.41c25.82-7,95.63,29.68,116.15,105.21,17.31,63.73-7,120.65-30.49,141.09-5.17,5.91-10.4,11.67-11.73,13.93s-5.51,1.69-9.5,0C571.32,362.11,576.36,356.14,576.3,352.19Z"/><path class="cls-13" d="M475.55,92.07c2.63-3.36,5.4-6.89,8.75-4.27,0,0,1.52.79,4,2.48a15,15,0,0,1-9.27,11.18,44.49,44.49,0,0,0-5.56-1.13C470.16,97.7,472.93,95.43,475.55,92.07Z"/><path class="cls-13" d="M559.27,353.66q.23-.37.44-.74c2.5-1.4,6.87-.94,11,1.42,3.5,2,5.91,4.86,6.59,7.44-.31.42-.56.79-.74,1.09C573.64,367.8,555.88,359.09,559.27,353.66Z"/><circle class="cls-4" cx="570.82" cy="169.62" r="3.54" transform="translate(-24.5 155.58) rotate(-15.2)"/><circle class="cls-4" cx="541.57" cy="183.38" r="3.54" transform="translate(-29.13 148.4) rotate(-15.2)"/><path class="cls-4" d="M554.07,194.19c.52,1.22,5,2.77,9,1.06s6-6,5.45-7.23c0,0-1.91,4.47-5.9,6.18S554.07,194.19,554.07,194.19Z"/><path class="cls-4" d="M556.73,158.1c.15.56,2.28-.62,5.1-1.39s5.25-.83,5.1-1.39-2.56-.39-5.38.37S556.58,157.54,556.73,158.1Z"/><path class="cls-4" d="M539.06,166.42c.36.46-1.82,1.43-4.06,3.19s-3.7,3.65-4.06,3.19,1.17-2.25,3.41-4S538.7,166,539.06,166.42Z"/><path class="cls-4" d="M625.57,227.58c7,18.32,6.17,27.18,10.76,30.48,2.73,2,2.12-9.3-4.41-26.47S613.34,202,611.66,202.67C606.9,204.48,620.17,213.41,625.57,227.58Z"/><path class="cls-10" d="M620.46,256.13a13.72,13.72,0,0,1,4.18-5.51.93.93,0,0,1-.22-.37c-.4-1.46,3.19-3.7,8-5s9.05-1.19,9.45.26c.2.75-.65,1.7-2.17,2.63a13.84,13.84,0,0,1,6.49,8.57c1.86,6.86-1.34,13.7-7.16,15.28-10.2,2.77-9.43-2.62-11.29-9.48-.21-.76-.38-1.51-.52-2.27-1.54,3.1-3.92,5-5.71,4.32C619.49,263.8,619,260,620.46,256.13Z"/><rect class="cls-14" x="365.64" y="63.85" width="19.13" height="329.82"/><rect class="cls-14" x="618.15" width="22.7" height="391.23"/><rect class="cls-1" x="40.93" y="136.16" width="16.15" height="260.42"/><polygon class="cls-1" points="149.59 119.03 164.71 129.41 56.5 145.56 41.06 136.2 149.59 119.03"/><polygon class="cls-2" points="4.82 392.25 40.08 396.16 40.03 138.47 4.3 143.73 4.82 392.25"/><rect class="cls-3" x="36.31" y="149.3" width="4.84" height="20.44" rx="2.33" ry="2.33"/><rect class="cls-3" x="36.31" y="361.74" width="4.84" height="20.44" rx="2.33" ry="2.33"/><path class="cls-4" d="M137.94,401.3c1.44-.53,4.28-2,3.1-4.25-4.53-8.61-13.07-37.46-13.07-37.46-.56-2.46-.46-11.19-2.44-10.74l.72,11.18c-2,.45-1.43,1.78-.74,4.2,7.93,27.77,6.89,31.08,6.89,31.08C113.86,408,131.5,403.64,137.94,401.3Z"/><path class="cls-4" d="M118.58,405.48c1.48-.43,4.41-1.72,3.38-4-3.94-8.89-10.51-38.26-10.51-38.26-.39-2.49.3-11.2-1.71-10.88l0,11.21c-2,.32-1.55,1.68-1,4.14,6,28.24,4.77,31.48,4.77,31.48C94.11,410.5,112,407.38,118.58,405.48Z"/><path class="cls-4" d="M54.93,280.73c.46,15.88,3.83,22.25,1.41,26.15-1.43,2.32-4.48-6.3-4.92-21.18s4.73-27.89,6.18-27.93C61.73,257.65,54.57,268.45,54.93,280.73Z"/><path class="cls-15" d="M63.53,301.71a9,9,0,0,0-3.9-2.28.61.61,0,0,0,0-.28c-.13-1-2.85-1.43-6.09-1s-5.76,1.55-5.63,2.53c.06.5.82.86,2,1a9,9,0,0,0-1.77,6.8c.59,4.61,4.24,7.93,8.15,7.43,6.85-.88,5-3.94,4.44-8.55-.07-.51-.15-1-.25-1.5,1.7,1.49,3.61,2,4.52,1.18S65.38,303.7,63.53,301.71Z"/><path class="cls-16" d="M131.26,206.41a7.53,7.53,0,0,0-4.91-5.39,7.53,7.53,0,0,0-4-10.29,7.53,7.53,0,0,0-5.52-8.63l-.34-.72a7.51,7.51,0,0,0-4.23-9.15,7.52,7.52,0,0,0-3.62-10.07,7.51,7.51,0,0,0-5-8.67,7.52,7.52,0,0,0-6-8.44A7.52,7.52,0,0,0,89,135.42a7.52,7.52,0,0,0-9.27-7c-.21,0-.41.11-.61.18A7.53,7.53,0,0,0,65.21,132a7.52,7.52,0,0,0-6.38,10.59,7.53,7.53,0,0,0-3.5,12.31,7.51,7.51,0,0,0-2.19,10.34,7.52,7.52,0,0,0-.35,10.91,7.52,7.52,0,0,0-2,9.78,7.5,7.5,0,0,0,.45,8.77A7.52,7.52,0,0,0,52.27,205a7.53,7.53,0,0,0,4.89,13.62c.55,11.72,1.19,24.09,1.63,36.74a133.94,133.94,0,0,1,52.84-25.46,139.81,139.81,0,0,1,23.65-3.53q-2.62-7-5.3-13.76A7.52,7.52,0,0,0,131.26,206.41Z"/><path class="cls-17" d="M124.08,214a7.53,7.53,0,0,0-3.64-11.61,7.53,7.53,0,0,0-4-10.29,7.53,7.53,0,0,0-5.52-8.63l-.34-.72a7.51,7.51,0,0,0-4.23-9.15,7.52,7.52,0,0,0-3.62-10.07,7.51,7.51,0,0,0-5-8.67,7.52,7.52,0,0,0-6-8.44A7.52,7.52,0,0,0,83,136.82a7.52,7.52,0,0,0-9.27-7c-.21,0-.41.11-.61.18a7.56,7.56,0,0,0-4.78-3.33,7.56,7.56,0,0,0-2.78,5.21,7.52,7.52,0,0,0-6.38,10.59,7.53,7.53,0,0,0-3.5,12.31,7.51,7.51,0,0,0-2.19,10.34,7.52,7.52,0,0,0-.35,10.91,7.52,7.52,0,0,0-2,9.78,7.5,7.5,0,0,0,.45,8.77,7.52,7.52,0,0,0,1.08,10.32,7.53,7.53,0,0,0,4.89,13.62c.5,10.75,1.08,22,1.52,33.59a135.35,135.35,0,0,1,46.64-20.8q1.59-.38,3.18-.72t3.13-.79a140.38,140.38,0,0,1,17-2.95Q126.58,220.36,124.08,214Z"/><path class="cls-18" d="M76.13,235.13c-34.56,14.88,18.36,135.2,35.12,136,27.93,1.28,37.49-47.1,35.27-93.94-2.31-48.81,1.92-90.59-25.86-112.17C114.54,160.21,163.44,197.53,76.13,235.13Z"/><path class="cls-19" d="M99,247.68c23.8,30.75,31.39,111.68,16.44,121.13-21.61,13.67-49.1-70-68.71-112.74-20.43-44.5-36-40.55-45.71-38.24C-8.05,220,44.22,176.89,99,247.68Z"/><circle class="cls-4" cx="63.9" cy="185.25" r="2.59" transform="translate(-41.1 19.8) rotate(-13.37)"/><circle class="cls-4" cx="91.48" cy="180.06" r="2.59" transform="translate(-39.16 26.03) rotate(-13.37)"/><path class="cls-4" d="M89,187.23c.54,1.05-1,5-4.39,6.75s-7.5.66-8-.39c0,0,4.15,1.24,7.58-.52S89,187.23,89,187.23Z"/><path class="cls-4" d="M64.11,166.58c.23.3-1.22,1-2.72,2.13s-2.48,2.43-2.72,2.13.79-1.49,2.29-2.67S63.87,166.28,64.11,166.58Z"/><path class="cls-4" d="M94.49,163.92c-.09.37-1.5-.38-3.35-.84s-3.44-.48-3.35-.84,1.67-.29,3.52.18S94.58,163.55,94.49,163.92Z"/><path class="cls-4" d="M145.45,263.81c5.18,15,4.29,22.17,7.93,25,2.16,1.66,2-7.47-2.89-21.55s-14.29-24.41-15.66-23.94C130.92,244.62,141.44,252.2,145.45,263.81Z"/><path class="cls-15" d="M144.72,284.9a9,9,0,0,1,2.84-3.51.61.61,0,0,1-.14-.25c-.23-1,2.16-2.35,5.34-3.1s5.93-.59,6.16.37c.12.49-.46,1.1-1.47,1.67a9,9,0,0,1,4.06,5.73c1.07,4.52-1.16,8.92-5,9.83-6.72,1.6-6.1-1.91-7.17-6.43-.12-.5-.22-1-.29-1.49-1.07,2-2.67,3.17-3.81,2.7C143.93,289.88,143.7,287.41,144.72,284.9Z"/><rect class="cls-14" x="149.33" y="119.03" width="16.15" height="278.32"/><path class="cls-4" d="M791.39,500.45c5.47-.54,11.57-2.16,13.54-3.53,2.88-2,1.24-12.93,1-15.77l-2.74-36.74c-.21-2.84-3.34-2.09-7.21-1.8h0c-1.44,7.35-.2,40.79-3.18,42.85-11.6,8-25.07,14.5-14.4,15.28A56.87,56.87,0,0,0,791.39,500.45Z"/><path class="cls-4" d="M863.86,408.17c2.14,23.78-6.85,44.5.79,44.38,2.64,0,10.66-26.19,5.34-49.47-5.14-22.52-9.63-30.48-12.27-30.44C848.34,372.79,861.72,384.4,863.86,408.17Z"/><path class="cls-20" d="M892.91,267c10.78-4.09-28.74,18.71-61.08,14.95s-63.08-17.21-61.69-29.23S779,235.16,811,240.79C842.54,246.33,872.33,274.81,892.91,267Z"/><ellipse class="cls-21" cx="772.3" cy="364.9" rx="95.82" ry="87.82"/><path class="cls-22" d="M753.44,451c-43.89-8-77-43.53-77-86.11,0-48.5,42.9-87.82,95.82-87.82a102.25,102.25,0,0,1,46.55,11,98.77,98.77,0,0,0-70,4c-47.94,21-68.25,68.66-44.83,120.64C712.39,431.38,734.05,443.1,753.44,451Z"/><path class="cls-23" d="M847.18,434.52a19.86,19.86,0,0,1,9.66-4.74,2.73,2.73,0,0,1-1.4-2.25c.22-2.32,5.7-3.7,12.24-3.09s11.67,3,11.45,5.31c-.1,1-1.21,1.86-3,2.43,3.8,2.49,6.5,7.26,4.39,17.07-2,9.41-12.84,11.39-21,9.82-7.75-1.49-10.11-5.77-8.8-14.14-2.41,1.06-4.73,1-6.07-.3C842.57,442.53,843.69,438,847.18,434.52Z"/><path class="cls-4" d="M684.1,408.65c-2.14,23.78,6.85,44.5-.79,44.38-2.64,0-10.66-26.19-5.34-49.47,5.14-22.52,9.63-30.48,12.27-30.44C699.62,373.27,686.24,384.87,684.1,408.65Z"/><path class="cls-23" d="M700.78,435a19.86,19.86,0,0,0-9.66-4.74,2.73,2.73,0,0,0,1.4-2.25c-.22-2.32-5.7-3.7-12.24-3.09s-11.67,3-11.45,5.31c.1,1,1.21,1.86,3,2.43-3.8,2.49-6.5,7.26-4.39,17.07,2,9.41,12.84,11.39,21,9.82,7.75-1.49,10.11-5.77,8.8-14.14,2.41,1.06,4.73,1,6.07-.3C705.4,443,704.27,438.48,700.78,435Z"/><path class="cls-4" d="M733.59,499.84c5.5,0,11.73-1,13.81-2.22,3.06-1.72,2.47-12.75,2.53-15.6l.77-36.83c.06-2.85-3.13-2.4-7-2.48h0c-2.13,7.18-4.09,40.59-7.25,42.36-12.31,6.88-26.34,12-15.79,13.84A56.87,56.87,0,0,0,733.59,499.84Z"/><polygon class="cls-20" points="790.06 280.31 784.76 280.03 784.06 265.94 791.12 267.21 790.06 280.31"/></g></g></svg>