<svg xmlns="http://www.w3.org/2000/svg" viewBox="0 0 334.31 640.33"><defs><style>.cls-1{fill:#603913;}.cls-2{fill:#7c5235;}.cls-3{fill:#875837;}.cls-4{fill:#1b120e;}.cls-5{fill:#a97c50;}.cls-6{fill:#8f5d3a;}.cls-7{fill:#c49a6c;}.cls-8{fill:#f2dbbb;}.cls-9{fill:#3c2415;}.cls-10{fill:#26160e;}.cls-11{font-size:26.76px;fill:#fff;font-family:ArialRoundedMTBold, Arial Rounded MT Bold;}.cls-12{fill:#009444;}.cls-13{fill:#231f20;}.cls-14{fill:#e8ecee;stroke:#231f20;stroke-miterlimit:10;stroke-width:1.29px;}.cls-15{fill:#c7377f;}.cls-16{fill:#f7941d;}.cls-17{fill:#f36e24;}.cls-18{fill:#d35461;}.cls-19{fill:#d64387;}.cls-20{fill:#ec5291;}.cls-21{fill:#dd2f7e;}.cls-22{fill:#f4edf1;}.cls-23{fill:#cbc9e5;}</style></defs><title>phone_interview</title><g id="Layer_2" data-name="Layer 2"><g id="Layer_2-2" data-name="Layer 2"><polygon class="cls-1" points="311.64 634.16 78.59 638.78 1.08 616.95 265.29 616.95 311.64 634.16"/><rect class="cls-2" x="3.47" y="45.94" width="185.4" height="571.5"/><path class="cls-3" d="M188.87,586l-8.26,10.27-14.22-17.69L182,559.1l6.84,8.51v-5.31l-4.71-5.86,4.71-5.86v-5.31L182,553.79l-14.1-17.54,15-18.69,5.54,6.9.38-.3v-4.54l-3.79-4.71,3.79-4.71v-5.31l-5.92,7.37L167.46,493l17.28-21.5,1.88,2.34,2.25-1.81v-.7l-2-2.49,2-2.49V461l-4.13,5.14-15.63-19.45,15.14-18.84,4.62,6.12V428.6l-2.49-3.36,2.49-3.1v-5.31l-4.62,5.75-15-18.69,15-18.66,4.65,5.78v-5.31l-2.51-3.13,2.51-3.13v-5.31l-4.65,5.78-17.28-21.5,15.91-19.8,6,6.45V340L185,336l3.88-4.83v-5.31l-6,7.48-15.14-18.84,15.13-18.82,6,9v-6.78L185,293l3.89-4.84v-5.31l-6,7.5-15-18.66,15.89-19.77,5.13,6.83V253l-3-3.73,3-3.73v-5.31l-5.13,6.38-15.91-19.8L183,207.93l5.85,7.28V209.9l-3.72-4.63,3.72-4.63v-5.31L183,202.62,167.89,183.8,183.84,164l5,6.26v-5.31L186,161.3l2.9-3.61v-5.31l-5,6.26-15.89-19.77L183.15,120l5.72,7.12v-5.31l-3.59-4.47,3.59-4.47v-5.31l-5.72,7.12L168,95.76l14-17.44,6.9,8.58V81.59l-4.76-5.93,4.76-5.93V64.43L182,73,166,53.17l5.82-7.24h-4.27l-3.68,4.58-3.68-4.58h-4.27l5.82,7.24-14,17.44-15.2-18.92,4.63-5.76H132.9L130.41,49l-2.49-3.1h-4.27l4.63,5.76-15.2,18.92-14-17.44,5.82-7.24H100.6l-3.68,4.58-3.68-4.58H89l5.82,7.24L78.84,73,64,54.61l7-8.67H66.75l-4.84,6-4.84-6H53.76l-.58.46,6.6,8.21L3.47,124.68V130L61.91,57.26l14.79,18.4L61.52,94.57,50.77,81.2l-2.59,2.08,11.2,13.94L5,164.82l2.59,2.08,53.88-67,14,17.44L59.64,137.08,51.4,126.83l-2.59,2.08,8.7,10.82L28.8,175.45l2.59,2.08,28.24-35.14,15.2,18.92L59.71,180.13,47,164.34l-2.59,2.08,13.15,16.36-3.15,3.92L57,188.78l2.69-3.35,15.95,19.84-15.91,19.8-4.6-5.73-2.59,2.08,5.06,6.3-.69.85,2.59,2.08.23-.28,15.19,18.9-13,16.18,2.59,2.08,12.55-15.61L93,271.7,78,290.37,49.52,255l-2.59,2.08,28.9,36L61.31,311.09l2.59,2.08L78,295.67,93.1,314.49,78,333.33l-27.81-34.6-2.59,2.08L75.82,336,65.68,348.6l2.59,2.08,9.68-12,15.91,19.8-17.28,21.5L52,349.36l-2.59,2.08,25,31.13-15,18.69-3-3.78-2.59,2.08,20.63,25.66-11.25,14,2.59,2.08,10.79-13.43,15.14,18.84L76.08,466.18,52,436.25l-2.59,2.08,24.51,30.49L62.56,483l2.59,2.08,10.93-13.59L93.35,493,77.86,512.25,41.4,466.88,38.8,469l36.93,45.94-14.1,17.54L27,489.39l-2.59,2.08,52.23,65L62.44,574.13,8.89,507.51,6.3,509.6l54,67.19-4,5,2.59,2.08,3.54-4.4,15.63,19.45L63.16,617.44h4.27l12.78-15.9L93,617.44h4.27L82.33,598.89,96.55,581.2,112,600.47l-13.64,17h4.27l11.5-14.31,11.5,14.31h4.27l-13.64-17,14.1-17.54,14.1,17.54-13.64,17h4.27l11.5-14.31,11.5,14.31h4.27l-13.64-17,15.49-19.27,14.22,17.69-14.91,18.55h4.27l12.78-15.9,8.26,11v-6l-6.12-7.62,6.12-7.62Zm-8.05-71.05-15,18.69L150.3,514.33l15-18.69Zm-52.54-332L112.38,202.7,97.19,183.8,113.08,164Zm-13.06-21.55,15.19-18.9,15.19,18.9-15.19,18.9Zm15.19,24.2,15.89,19.77-15.89,19.77-15.89-19.77Zm15.13,63.68-15.13,18.82-15.13-18.82,15.13-18.82Zm.78,43.92L130.41,313l-15.91-19.8,15.91-19.8Zm-.91,43.76-15,18.66-15-18.66,15-18.66Zm.14,42.8-15.14,18.84-15.14-18.84,15.14-18.84Zm2.14,45.64-17.28,21.5-17.28-21.5,17.28-21.5Zm-2.26,45.49-15,18.69-15-18.69,15-18.69Zm2.13,2.65L163.19,493l-15,18.69-15.63-19.45Zm-15-24L149.82,428l15,18.69-17.28,21.5Zm0-48.3,15.14-18.84L165,403.9l-15.14,18.84Zm0-43,15-18.66,15.14,18.84-15,18.66Zm0-42.63,15.91-19.8,15,18.66-15.91,19.8Zm0-44.9,15.13-18.82,15.91,19.8-15.13,18.82Zm0-42.95L148.43,208l15.13,18.82L147.67,246.6Zm0-44.85L147.73,164l15.89,19.77-15.19,18.9Zm0-43.1L148.49,120l15.19,18.9-15.95,19.84Zm-2.13-2.65-15.95-19.84,15.95-19.84,15.95,19.84Zm-2.13,2.65-15.19,18.9L97.13,138.88,112.32,120ZM95,136.22,79.8,117.31,95,98.41l15.2,18.92ZM111,161.37,95.06,181.15,79.11,161.3,95,141.53Zm-.7,44L95.12,224.17l-15.19-18.9,15.13-18.82Zm2.13,2.65,15.89,19.77L113.14,246.6,97.25,226.83Zm15.89,62.72-15.91,19.8L97.23,271.7l15.91-19.8Zm0,44.9-15,18.66-15.91-19.8,15-18.66Zm0,42.63-15.14,18.84-15-18.66,15.14-18.84Zm0,43L111,422.73,95.85,403.9l17.28-21.5ZM111,428l17.28,21.5-15,18.69L96,446.73Zm17.28,64.19-15.63,19.45L97.62,493l15.63-19.45Zm0,44.2L112.78,555.7,97.15,536.25,112.64,517Zm-13.5-22.1,15.63-19.45L146,514.33l-15.63,19.45ZM148.17,517l15.49,19.27L148,555.7l-15.49-19.27Zm34.43-48.15-17.28,21.5-15.63-19.45L167,449.38Zm-.49-43.59L167,444.08l-15-18.69,15.14-18.84Zm0-42.66-15,18.66-17.28-21.5,15-18.66ZM180.72,336l-15.91,19.8-15.14-18.84,15.91-19.8Zm0-43-15.13,18.82-15-18.66,15.13-18.82Zm.89-43.74-15.89,19.77-15.91-19.8,15.89-19.77Zm-.72-44-15.19,18.9-15.13-18.82,15.19-18.9Zm.82-44-15.95,19.84-15.89-19.77,15.95-19.84Zm-.69-44-15.2,18.92-15.19-18.9,15.2-18.92ZM163.89,55.83l15.95,19.84-14,17.44L149.87,73.26Zm-.2,39.93-15.2,18.92L132.54,94.83l15.2-18.92ZM130.41,54.35l15.2,18.92-15.2,18.92L115.2,73.26Zm-2.13,40.48-15.95,19.84L97.12,95.76l15.95-19.84Zm-31.35-39,14,17.44L95,93.1,81,75.67ZM63.65,97.22l15.19-18.9,14,17.44-15.19,18.9Zm-1.88,42.52L77.67,120l15.2,18.92L77,158.65Zm.08,43L77,164,92.92,183.8,77.8,202.62Zm0,44.95,15.91-19.8L93,226.83l-15.91,19.8Zm17.32,21.55,15.91-19.8L111,249.25,95.1,269.05ZM80.1,293l15-18.66,15.13,18.82-15,18.66Zm0,43,15.14-18.84,15.91,19.8L96,355.78ZM96,361.09l15,18.66-17.28,21.5-15-18.66ZM61.57,403.93l15-18.69,15,18.66-15,18.69ZM78.7,425.24l15-18.69,15.14,18.84-15,18.69Zm-.49,43.59,15.63-19.45,17.28,21.5L95.49,490.33Zm17.28,26.8,15,18.69L95,533.6,80,514.91ZM63.76,535.1l14.1-17.54,15,18.69-14.1,17.54ZM80.2,596.23,64.57,576.79,78.79,559.1l15.63,19.45Zm.72-39.79L95,538.9l15.63,19.45-14.1,17.54Zm33.25,41.37L98.68,578.55,112.78,561l15.49,19.27Zm.74-39.47,15.49-19.27,15.49,19.27-15.49,19.27Zm31.72,39.47-14.1-17.54L148,561l14.1,17.54Zm3.52-39.47,15.63-19.45,14.1,17.54-15.63,19.45Z"/><path class="cls-4" d="M95,405.2c-20.27-8.34-46.92-19.21-46.32,4.35.43,17-.59,69.68.6,110.32C51.74,603.18,42.64,622,52.84,622c9.63,0,13.75,3,25.49,1.08,36.41-5.94,106.31-2.16,111.73-6.48,4-3.2,4.75-82.07,4.55-116.67-.38-69.62,8.85-96.16-11.21-102.62C124.35,378.32,110.61,411.6,95,405.2Z"/><polygon class="cls-5" points="78.59 638.78 2.17 619.13 2.17 45.94 79.09 0 78.59 638.78"/><polygon class="cls-3" points="310.16 633.95 188.59 617.77 188.87 45.94 301.79 1.09 310.16 633.95"/><polygon class="cls-6" points="188.87 45.94 188.87 50.63 194.4 43.74 188.87 45.94"/><path class="cls-6" d="M302.3,39.94l-.13-10.15-1.88,2.34-15.2-18.92,4.84-6-1.15-.93L285.3,7.64l-2.35,2.92-1.21-1.51-3.23,1.28,2.31,2.88L266,31.62l-9.95-12.37-3.23,1.28,11,13.74-14,17.44-14-17.44L244.12,24l-6.27,2.49-4.13,5.14L231.6,29l-3.23,1.28,3.23,4-15.2,18.92L205.32,39.4l-3.23,1.28,12.18,15.15L198.31,75.68l-9.45-11.76v5.3l7.32,9.11-7.33,9.12v5.31L198.31,81l14,17.44-15.19,18.9L188.84,107v5.3L195,120l-6.17,7.68V133l8.31-10.34,15.2,18.92-15.89,19.77-7.63-9.49v5.3l5.5,6.84-5.51,6.85v5.31l7.64-9.51,15.95,19.84-15.13,18.82-8.47-10.54v5.3l6.34,7.89-6.35,7.9v5.31l8.48-10.55,15.19,18.9-15.91,19.8-7.77-9.67v5.3l5.64,7-5.65,7v5.31l7.78-9.68,15.89,19.77-15,18.66-8.68-10.8v5.3l6.55,8.15-6.56,8.16v5.31l8.7-10.82,15.13,18.82L197.43,336l-8.69-10.82v5.3l6.56,8.17-6.57,8.18v5.31l8.71-10.83,15.91,19.8-17.28,21.5-7.35-9.14v5.3l5.22,6.49-5.23,6.5v5.31l7.36-9.16,15,18.66-15,18.69-7.35-9.14v5.3l5.22,6.49-5.22,6.5v5.31l7.36-9.15,15.14,18.84-15.63,19.45-6.88-8.56v5.3l4.75,5.91-4.75,5.91v5.31l6.89-8.57,17.28,21.5-15.49,19.27-8.69-10.81v5.3l6.56,8.16-6.56,8.17V531l8.7-10.82,15,18.69-14.1,17.54-9.63-12v5.3l7.5,9.33-7.51,9.34v5.31l9.64-12,15.63,19.45L199.67,598.9l-11.06-13.76v5.3l8.93,11.11-8.94,11.13v5.09l.16,0,10.92-13.58L213.2,621l7.39,1,13-16.23,14.1,17.54-1.67,2.08,8.52,1.13L252,623.33l14.1-17.54,14.22,17.69-4.72,5.87,3.85.51,3-3.73,3.71,4.62,4.78.64-6.36-7.91,15.49-19.27L308,614l1.91-1.54,0-1.42-7.64-9.51,7.39-9.2-.07-5.22-9.46,11.77-14.22-17.69,15.63-19.45,7.84,9.75-.07-5.4-5.63-7,5.45-6.78-.07-5.22-7.51,9.35-14.1-17.54,15-18.69,5.54,6.9.77-.62-.05-3.78-4.14-5.15,4-5-.07-5.22-6.07,7.55-15.49-19.27,17.28-21.5,1.88,2.34,2-1.58,0-1.3-1.7-2.11,1.64-2-.07-5.22-3.71,4.61L288.58,449.4l15.14-18.84,1.75,2.17,2-1.62,0-1.21-1.61-2,1.56-1.94-.07-5.22-3.62,4.51-15-18.69,15-18.66L307,392l-.07-5.4-1.06-1.32,1-1.28-.07-5.22-3.09,3.84-17.28-21.5,15.91-19.8.64.79,2.59-2.08-1.1-1.36,1.76-2.2-.07-5.22L302.33,336l-15.14-18.84,15.13-18.82,3.46,4.31-.07-5.4-1.26-1.56,1.22-1.51-.07-5.22L302.31,293l-15-18.66,15.89-19.77,2,2.44L305,247l-1.83,2.28L287.3,229.5l15.19-18.9,2.11,2.62-.14-10.38-2,2.45-15.13-18.82,15.95-19.84.68.85-.09-6.88-.59.73-15.89-19.77,15.2-18.92.79,1-.09-7.15-.69.86-15.19-18.9,14-17.44,1.42,1.77-.12-8.71-1.31,1.63L285.49,55.84l14.79-18.4Zm-36.27-3,15.2,18.92-14,17.44L252,54.36ZM234.85,473.55l15-18.69,15,18.69-15,18.69ZM265.51,517l-15.63,19.45L234.25,517l15.63-19.45ZM232.6,428.05l17.28-21.5,17.28,21.5-17.28,21.5Zm2.14-45.64,15.14-18.84L265,382.42l-15.14,18.84Zm.14-42.8,15-18.66,15,18.66-15,18.66ZM234,295.85l15.91-19.8,15.91,19.8-15.91,19.8Zm.78-43.92,15.13-18.82L265,251.92l-15.13,18.82ZM234,208l15.89-19.77L265.77,208l-15.89,19.77Zm.7-44,15.19-18.9L265.07,164l-15.19,18.9Zm-.76-44,15.95-19.84L265.83,120l-15.95,19.84Zm-2.13-2.65-15.2-18.92,15.95-19.84,15.2,18.92Zm15.95,25.15-15.19,18.9-15.95-19.84,15.19-18.9Zm0,43.1-15.89,19.77-15.19-18.9,15.89-19.77Zm0,44.85-15.13,18.82L216.72,229.5l15.13-18.82Zm0,42.95-15.91,19.8L216.7,274.37l15.91-19.8Zm0,44.9-15,18.66-15.91-19.8,15-18.66Zm0,42.63L232.6,379.76l-15-18.66,15.14-18.84Zm0,43-17.28,21.5-15.14-18.84,17.28-21.5Zm-17.28,26.8,17.28,21.5-15,18.69-17.28-21.5Zm17.28,64.19-15.63,19.45-15-18.69,15.63-19.45Zm0,44.2-15.49,19.27-15.63-19.45,15.49-19.27Zm2.13,2.65L265.37,561l-15.49,19.27L234.39,561Zm2.13-2.65,15.63-19.45,15.49,19.27L267.5,558.37Zm0-44.2,15-18.69,15.63,19.45-15,18.69Zm0-42.69,17.28-21.5,15,18.69L267,470.9Zm0-48.3,15.14-18.84,17.28,21.5L269.29,425.4Zm0-43,15-18.66,15.14,18.84-15,18.66Zm0-42.63,15.91-19.8,15,18.66L267,337Zm0-44.9,15.13-18.82L283,274.37l-15.13,18.82Zm0-42.95,15.89-19.77L283,229.5l-15.89,19.77Zm0-44.85,15.19-18.9,15.89,19.77-15.19,18.9Zm0-43.1L268,122.65l15.19,18.9L267.2,161.39Zm0-45,15.2-18.92,15.95,19.84L268,117.34Zm13.07-21.57-15.2,18.92-15.2-18.92L249.88,57Zm-31.35-39,14,17.44-15.2,18.92-14-17.44ZM200.44,78.34l15.95-19.84,14,17.44L214.46,95.77ZM199.27,120l15.19-18.9L229.66,120l-15.19,18.9Zm-.69,44,15.89-19.77L230.42,164l-15.89,19.77Zm.82,44,15.13-18.82L229.72,208l-15.13,18.82Zm-.72,44,15.91-19.8,15.89,19.77-15.91,19.8Zm.89,43.74,15-18.66,15.13,18.82-15,18.66Zm0,43,15.14-18.84,15.91,19.8-15.14,18.84Zm-1.37,46.6,17.28-21.5,15,18.66-17.28,21.5Zm0,42.66,15-18.69,15.14,18.84-15,18.69Zm-.49,43.59,15.63-19.45,17.28,21.5L215,493Zm1.79,46.08L215,498.3,230,517l-15.49,19.27Zm.92,41.54,14.1-17.54L230.12,561,216,578.56Zm16.9,61.71L201.8,601.55,216,583.87l15.49,19.27Zm.86-39.61,14.1-17.54,15.49,19.27-14.1,17.54Zm31.72,39.47-14.1-17.54,14.1-17.54L264,603.14ZM252,582.94l15.49-19.27,14.1,17.54-15.49,19.27Zm45.94,18.61-15.49,19.27-14.22-17.69,15.49-19.27Zm1.41-42.44-15.63,19.45L269.63,561l15.63-19.45Zm.92-41.54-15,18.69L269.77,517l15-18.69Zm1.79-46.08L284.8,493l-15.63-19.45,17.28-21.5Zm-.49-43.59-15.14,18.84-15-18.69,15.14-18.84Zm0-42.66-15,18.66-17.28-21.5,15-18.66Zm-1.37-46.6-15.91,19.8-15.14-18.84,15.91-19.8Zm0-43-15.13,18.82-15-18.66L285.18,277Zm.89-43.74-15.89,19.77-15.91-19.8,15.89-19.77Zm-.72-44-15.19,18.9L270,208l15.19-18.9Zm.82-44-15.95,19.84L269.33,164l15.95-19.84Zm-.69-44-15.2,18.92L270.09,120l15.2-18.92Zm-1.17-41.64-14,17.44L269.35,75.93l14-17.44ZM283.36,53.19l-15.2-18.92,14.79-18.4,15.2,18.92Z"/><rect class="cls-7" x="301.42" y="0.01" width="29.83" height="634.36"/><rect class="cls-8" x="315.45" y="0.04" width="5.26" height="634.29"/><path class="cls-9" d="M274.65,406.69c12.79,5.77,59.21-20.07,58.61,3.59-.43,17.06.59,70-.6,110.79-2.44,83.66,7,114-3.21,114-9.63,0-13.56,1.63-24.41,0-36.49-5.47-111.73-14.1-117.16-17.9-4.21-2.95-.73-81.33-.54-116.07.38-69.91-5.62-109,5.09-102.77C238.73,425,233.94,388.33,274.65,406.69Z"/><path class="cls-10" d="M186.81,531.52v82.33c.29,1.84.64,3,1.08,3.3,5.24,3.67,75.7,11.85,113.36,17.34V403.56c-10.81,2.64-21.44,5.45-26.6,3.13-40.7-18.36-35.05,16.51-82.2-8.38-5.91-3.12-5.52,2-6.38,14l-.4,41.1c.3,14,1.79,29.39,1.69,47.71C187.3,509.31,187.07,520,186.81,531.52Z"/><rect class="cls-7" x="115.37" y="0.02" width="187.79" height="49.97"/><rect class="cls-1" x="119.14" y="7.24" width="182.34" height="33.26"/><text class="cls-11" transform="translate(127.96 33.3)">TELEPHONE</text><path class="cls-12" d="M103.5,455.91c-8-3,21.28,13.85,45.23,11.07s46.71-12.74,45.68-21.64-6.54-13-30.28-8.84C140.8,440.6,118.74,461.69,103.5,455.91Z"/><polygon class="cls-12" points="179.66 465.76 183.59 465.56 184.11 455.12 178.88 456.06 179.66 465.76"/><path class="cls-13" d="M277.34,511.49c14.62-9.94,18.72-22.86,22.24-18.43,1.22,1.53-10,18.4-25.82,26.28-15.31,7.63-22,8.79-23.2,7.26C246.24,521.17,262.72,521.43,277.34,511.49Z"/><path class="cls-14" d="M309,491.94c-.12-6.82-5.54-12.72-12.36-12.36-4.54.24-6.07,3.67-9.27,8.32-1.68-3.38-2.84-4.65-6.26-3.45-1.79.63-2,4.2-.51,7.77a21.39,21.39,0,0,0,3.13,5.18,1.69,1.69,0,0,0-.58.58c-.95,1.64,1.26,4.7,4.94,6.82s7.43,2.51,8.38.87a1.92,1.92,0,0,0,.16-1.38h0A12.25,12.25,0,0,0,309,491.94Z"/><path class="cls-13" d="M184.09,631.23c-4.05-.4-8.57-1.6-10-2.61-2.13-1.49-.92-9.57-.76-11.68l2-27.21c.16-2.1,2.47-1.55,5.34-1.33h0c1.06,5.44.15,30.21,2.35,31.73,8.59,5.94,18.56,10.74,10.66,11.32A42.11,42.11,0,0,1,184.09,631.23Z"/><path class="cls-15" d="M286.21,573.72a7.44,7.44,0,0,0-2.21-3,11.53,11.53,0,0,0,1.5-8.16c-.23-1.28-2.18-.74-1.95.54a9.14,9.14,0,0,1-1.42,6.81,3.65,3.65,0,0,0-.9,0,3.47,3.47,0,0,0-3.15,4.32,1,1,0,0,0,1.47.6,11.33,11.33,0,0,0,3-2.24,3.83,3.83,0,0,1,1.54,1.32,9.39,9.39,0,0,1,.95,3.33,12.72,12.72,0,0,1-.48,5.27,12.27,12.27,0,0,1-7.65,8.16c-4.28,1.43-10.7-.08-13.87-3.62a5.21,5.21,0,0,0-1.94-9,1,1,0,0,0-1.15.65,9,9,0,0,0,.58,7.46,3.47,3.47,0,0,1-.63.24c-3,.8-5.79-1.07-7.61-3.33a18.4,18.4,0,0,1-3.54-7,16.06,16.06,0,0,1-.36-2,6.71,6.71,0,0,0,1.35-.19c3.81-.93,4.43-6.61.56-7.87a.92.92,0,0,0-.89.23,8.89,8.89,0,0,0-2.76,5.27,5.91,5.91,0,0,1-2.19-2.11c-1.59-2.66-1.77-6.37-1.83-9.38a36.7,36.7,0,0,1,.92-9.16c.06-.25.12-.53.18-.84q.43.52.89,1a1.06,1.06,0,0,0,1.48,0c1.36-1.29,3.27-4.29,2.39-6.32-.71-1.64-2.63-1.37-3.83-.48a5.48,5.48,0,0,0-1.35,1.49,17.46,17.46,0,0,1-2.1-9c0-.37,0-.74.09-1.11a4.27,4.27,0,0,0,3.38-.87,4,4,0,0,0,.14-5.7,2.84,2.84,0,0,0-2.63-.88c-1.23.35-1.55,1.79-1.94,2.92-.2.56-.36,1.13-.5,1.7-1.4-1.08-1.87-3-2-4.69-.88-10.36,3.42-21.49,9.27-29.82.63-.9-.56-1.77-1.37-1.37-3.23,1.55-6.29-1.15-7.43-4a22.88,22.88,0,0,1-1.31-7.73,18.66,18.66,0,0,1,1-7.3,14.21,14.21,0,0,0,1.45.83,1,1,0,0,0,1.22-.16,7,7,0,0,0,1.8-6.22,1,1,0,0,0-1.51-.61,8.75,8.75,0,0,0-3.41,3.33,15.05,15.05,0,0,1-4.09-15.83,4.29,4.29,0,0,0,1.51-.23c2.59-.89,4.06-4.42,1.83-6.41a1,1,0,0,0-1.41,0,14.59,14.59,0,0,0-3.06,4.35l-.23-.09a8.42,8.42,0,0,1-3.26-3.31,17.08,17.08,0,0,1-2.32-5.84,14.26,14.26,0,0,1,0-5.64l.24,0c3.06-.74,5.39-3.79,4.32-6.9a1,1,0,0,0-1.41-.57,10.26,10.26,0,0,0-4.42,5.48,5.75,5.75,0,0,1-2.9-.72,14.31,14.31,0,0,1-5.07-6,15.83,15.83,0,0,1-1.71-6.49,7.14,7.14,0,0,0,3.23-7.92,1,1,0,0,0-1.62-.43,9.78,9.78,0,0,0-3.39,6.85,6.38,6.38,0,0,1-5.94-.85c-2.91-2.2-3.68-5.69-3.09-9a8.4,8.4,0,0,0,1.09-.33c3.23-1.25,5.39-4.13,4.77-7.63a1.06,1.06,0,0,0-.77-.77c-3.83-.63-5.79,3.54-6.68,6.65l0,.16h-.15c-4.07.12-6.68-3.93-7.72-7.37a19.36,19.36,0,0,1-.86-5.29,7.39,7.39,0,0,0,3.78,1c3.11,0,6.38-3.09,5.33-6.35-.88-2.73-4.14-3.53-6.63-2.73a6.18,6.18,0,0,0-3.87,3.45,12.83,12.83,0,0,1-1.4-10c1-3.82,3.51-6,6.38-8.47,6.57-5.62,3.57-13-.5-19.19-.31-.47-1.05,0-.76.45,3,5,6.29,11.66,1.31,16.51-3,3-6.23,4.55-7.84,8.74s-1.1,10.9,2.05,14.72a19.77,19.77,0,0,0,3.35,12.68,9.39,9.39,0,0,0,7.08,3.95,11.32,11.32,0,0,0,2.64,9.29,8.53,8.53,0,0,0,8.46,2.7,19.8,19.8,0,0,0,4.18,10.17c1.64,2.05,4,4.07,6.73,4.36a18.56,18.56,0,0,0,2,11.46c1,1.87,2.75,4.22,4.9,5.18-2,6.3-.11,13.82,5,18.08-3.61,8.57-.7,23.34,7.32,22.63a52.84,52.84,0,0,0-7.93,22.68c-.37,3.55-.9,8.15,1.47,11.19a6.24,6.24,0,0,0,2,1.64,20,20,0,0,0,3,13.11,37.17,37.17,0,0,0-.83,3.79,39.87,39.87,0,0,0-.58,11.17c.34,3.68,1.75,9.5,5.61,10.81.16,5.73,4,12.06,8.66,14.1a8.28,8.28,0,0,0,6.48,0A13.48,13.48,0,0,0,267,592a14.56,14.56,0,0,0,15.73-2.72C286.65,585.41,288.4,578.92,286.21,573.72ZM196.73,395c2.56-1.5,6.11.8,3.56,3.48-1.7,1.79-4.06,1-5.73-.44A4.85,4.85,0,0,1,196.73,395Zm9.39,16c.24-.42,1.45-2.5,2.08-2.16s-.27,1.65-.62,2.12a6,6,0,0,1-2.28,1.8A13.78,13.78,0,0,1,206.12,411Zm10.81,10.28a4.4,4.4,0,0,1-1.19,2.54A8,8,0,0,1,216.93,421.29Zm12.35,15.63a3,3,0,0,1-2.06,2.59A8.17,8.17,0,0,1,229.29,436.92Zm5,20a12.61,12.61,0,0,1,1.35-2,2.27,2.27,0,0,1-.56,1.45A2,2,0,0,1,234.33,456.89Zm6.1,17.37a4.51,4.51,0,0,1-.85,2.18q-.39-.22-.76-.46A7.45,7.45,0,0,1,240.43,474.26Zm3.11,56.4c.74.63-.27,2.4-.81,2.75a1.59,1.59,0,0,1-1.06.09c0-.15.07-.3.11-.45C242,532.19,242.41,529.68,243.54,530.66Zm1.8,15.46c1.53-1.21,1.36.18.84,1.32a5.88,5.88,0,0,1-.78,1.25c-.34-.4-.66-.8-1-1.23A3.29,3.29,0,0,1,245.34,546.12Zm4.47,22.27q.39-.89.77,0a.91.91,0,0,1,.44.91,1.9,1.9,0,0,1-1,2,2.71,2.71,0,0,1-1.64.54C248.4,570.43,248.78,569,249.81,568.39Zm12,16.81a6.91,6.91,0,0,1-.38-5C263.35,581.22,263.14,583.66,261.82,585.2Z"/><path class="cls-13" d="M225.22,626.83c-4.07,0-8.68-.78-10.23-1.65-2.26-1.28-1.83-9.44-1.87-11.55l-.57-27.28c0-2.11,2.31-1.77,5.19-1.84h0c1.58,5.32,3,30.06,5.37,31.37,9.12,5.1,19.5,8.92,11.69,10.25A42.11,42.11,0,0,1,225.22,626.83Z"/><ellipse class="cls-16" cx="192.82" cy="528.41" rx="70.96" ry="65.03"/><path class="cls-17" d="M202.71,584.62c-37.86,0-68.55-28.61-68.55-63.9,0-20.22,10.08-38.25,25.81-50-22.65,10.86-38.11,32.6-38.11,57.65,0,35.91,31.77,65,71,65,23.38,0,44.11-10.36,57-26.34A71,71,0,0,1,202.71,584.62Z"/><circle class="cls-13" cx="172.82" cy="513.53" r="4.13" transform="translate(-27.81 10.21) rotate(-3.13)"/><circle class="cls-13" cx="231.28" cy="507.51" r="4.13" transform="translate(-27.39 13.4) rotate(-3.13)"/><path class="cls-13" d="M179,490.93c.24.73-3.77-.69-8.21.76s-6.78,4.69-7,4,2.14-3.83,6.58-5.28S178.75,490.2,179,490.93Z"/><path class="cls-13" d="M222.27,488.76c-.12.76,3.52-1,8.13-.24s7.5,3.49,7.62,2.72-2.79-3.39-7.4-4.11S222.39,488,222.27,488.76Z"/><path class="cls-18" d="M218.51,530c-1.81,3.16-5.83,4.59-10.43,5-6.51.51-11.08-1.69-12.25-4.63-1.45-3.63,3.54-6,11.3-6.62C218.45,522.88,220.24,527,218.51,530Z"/><path class="cls-13" d="M123.52,562.69c-1.58,17.61,5.07,33-.58,32.87-2,0-7.89-19.39-4-36.63,3.81-16.68,7.13-22.57,9.09-22.54C135,536.49,125.11,545.08,123.52,562.69Z"/><path class="cls-14" d="M135.87,582.2a14.71,14.71,0,0,0-7.15-3.51,2,2,0,0,0,1-1.66c-.16-1.72-4.22-2.74-9.06-2.29s-8.64,2.21-8.48,3.93c.07.76.9,1.38,2.21,1.8-2.81,1.84-4.81,5.38-3.25,12.64,1.5,7,9.51,8.44,15.55,7.27,5.74-1.11,7.48-4.27,6.52-10.47,1.78.78,3.5.77,4.49-.22C139.29,588.14,138.45,584.78,135.87,582.2Z"/><path class="cls-7" d="M78.79,386.09l-2.26,2.71L63.87,373.65l12.52-15,2.42,2.9v-4.65l-.48-.58.48-.58v-5.28l-2.68,3.21L64,338.93l11.91-14.3,3,3.6v-5.31l-.77-.93.77-.93V315.8l-3,3.54-14.5-17.57,12.8-15.37L78.86,292v-4.5l-2.79-3.33,2.79-3.35v-5.25l-5,6L60,264.91l16.71-20.06,2.21,2.66v-5l-.13-.15.13-.15v-5.25l-2.31,2.77-14-17,12.54-15.06,3.83,4.59v-4.59L77,205.35l1.92-2.3V197.8l-4.11,4.92L62.23,187.54l14.24-17.1,2.48,3v-4.59l-.56-.68.57-.68v-5.24l-2.75,3.3L62.94,149.61l12.74-15.38,3.3,4v-4.61L77.6,131.9,79,130.23v-5.3l-3.6,4.31L60.59,111.4,77.12,91.23,79,93.49V83.61L76.9,86.17l-14-16.88,15-18L79,52.73v-8L77.76,46.3,63.44,29.05,79.08,10.34V5.13L61.34,26.52,52.51,15.87l-2.83,1.69L59.25,29,44.36,47,30.74,30.55l2.79-3.34L25.34,32.1,10.06,50.51,4.9,44.3,2.17,45.94v.3L7.91,53.1,2.17,60v4.73L9.9,55.49,23.64,71.94,10.94,87.24,2.17,76.73V81.5L9,89.63,2.18,97.8v4.6L10.9,91.95l14.54,17.4-14,16.93-9.21-11.1h0v5.2l7.08,8.48-7.07,8.52V142l9-10.8,14.32,17.14L13.28,163.09,2.17,149.65v5.23l9,10.81-9,10.83v6.15l11.45-14L28,186,11,206.36,2.17,195.84V201l6.69,7.94-6.69,8V223l9.19-11.1,13.15,15.6L12.2,242.22l-10-12.15v5.25L10,244.83l-7.85,9.41v5.43l10.09-12.12L24.77,262.7l-12,14.4L2.17,264.33v5.21l8.44,10.13L2.17,289.78v5.44l10.69-12.84,14.05,16.87L14.32,314.33,2.17,299.78v5.28l9.91,12L2.17,328.9v5.43l12.16-14.6,13.78,16.63L14,353.26,2.17,339v5.17l9.72,11.63L2.17,367.45V378l12.41,14.85-10,12L3.6,411.4l13.23-15.89L29,410.1,11.11,431.57l-.94,6.57,21.1-25.34,12.62,15.11L22.83,453.14l-.94,6.57L46.14,430.6l19.74,23.62-.27-4.91L48.11,428.23l12.12-14.56,14.43,17.28L74.4,426,62.19,411.32l14-16.87,2.54,3.07v-6l0-.05,0-.05ZM74.19,356,61.66,371,49.44,356.37,62,341.32ZM44,131.61l14.7,17.59-14.2,17L30,148.72Zm-.42-5.18-14.21-17L42.16,94.11l14.16,16.95Zm1.23,45,13.22,15.82L45.6,202.2,32.5,186.35Zm.84,36,12.56,15.17L41.43,242.74,28.82,227.67Zm-4,40.39,14.16,16.81L43.19,279.75l-14-17Zm1.56,37.24L57,301.76,45,316.09l-13.8-16.66Zm2,36.15,14.55,17.47-12.55,15L32.65,336.28Zm14,52.72L45.14,390.78,33,376.13l14.07-16.9ZM73.68,322,61.76,336.28,47.24,318.76l11.94-14.34ZM72,283.8,59.19,299.12,45.4,282.42,58,267.25Zm2.53-41.58L57.77,262.27,43.66,245.4l16.79-20.16ZM72.9,205l-12.54,15L47.8,204.87l12.46-15Zm1.39-37.21L60,184.9,46.86,169,61,151.93Zm-.83-36.26L60.66,146.88,46,129.25l12.66-15.44Zm1.45-43-16.6,20.07-14.1-17L60.84,71.74Zm-13.55-57,14.37,17.2-14.94,18L46.41,49.44ZM58.74,69.22l-16.58,20L27.73,71.8,44.31,52ZM12,52.92,28.58,33.13,42.26,49.5,25.74,69.41Zm.83,36.66L25.63,74.32,40.12,91.66,27.4,107Zm.45,39,14.1-16.88,14.23,17-14.08,17Zm2.43,37.48,12.19-14.87,14.54,17.41L30.11,183.46Zm-2.3,43.23,16.9-20.4,13.11,15.82L26.57,225Zm1,35.6,12.32-14.79,12.65,15L27,260.08ZM15,279.82l12-14.41,14,17L29,296.74ZM16.58,317l12.58-15.1L43,318.53,30.42,333.6Zm13.76,22,14.5,17.5L30.75,373.44,16.25,356ZM16.65,390.32,2.17,372.88l12-14.37,14.54,17.4Zm14.4,17.35L18.9,393l12-14.44,12.2,14.6Zm14.82,17.86L33.29,410.37l12.08-14.5L58,411ZM60,408.65l-12.6-15.18,14.06-16.88L74,391.79Z"/><rect class="cls-7" x="79.01" y="0.01" width="37.46" height="638.41"/><rect class="cls-8" x="96.64" y="0.04" width="6.61" height="631.38"/><path class="cls-9" d="M58.18,420.06c9,10.73,59.8-30.74,59.2-7.08-.43,17.06.59,70-.6,110.79-2.44,83.66,7.38,114.81-2.81,114.81-9.63,0-23.05,3-34.8,1.1-36.41-6-75.54-11.88-77.23-20.56C1,614.09.22,542.64.41,507.9.8,438-3.44,356.56,8.75,405.78,21.56,457.53,21.36,376.32,58.18,420.06Z"/><path class="cls-10" d="M79.23,417.09c-9.48,4.05-17.86,6.76-21,3-36.83-43.74-36.62,37.47-49.44-14.28C-3.44,356.56.8,438,.41,507.9.22,542.64,1,614.09,2,619.13c1.69,8.68,40.81,14.59,77.23,20.56h.05Z"/><path class="cls-15" d="M221.12,359.1s-43,8-51.62-6.73c-11.78-20.2-11.78-83-3.93-109.42,4.87-16.33,55.55-8.42,55.55-8.42Z"/><path class="cls-19" d="M221.12,234.6c-7.42,1.36-13.32,4.09-14.82,9.15-7.86,26.37-7.86,89.22,3.93,109.42,1.7,2.92,4.77,4.95,8.59,6.32,1.47-.23,2.31-.38,2.31-.38Z"/><path class="cls-20" d="M250.38,476.51c-.33,1.5.39,2.76,1,4,1.78,4,3.62,8,5.41,11.94.45,1,.79,2.08,1.2,3.12a3,3,0,0,0,3.16,2.15,29.09,29.09,0,0,0,6.43-1.17c1.83-.43,3.68-.75,5.54-1.06A2.42,2.42,0,0,1,275.7,497a37.74,37.74,0,0,1,1.78,3.77c1.06,2.64,2.15,5.28,3,8a48.92,48.92,0,0,1,2.29,11.71,59.1,59.1,0,0,1-.23,11.48c-.21,1.72-.31,3.46-.66,5.16-.41,2-1.17,2.32-2.78,2.53-2.48.32-5,.38-7.48.64a27.64,27.64,0,0,0-4,.7,2.92,2.92,0,0,0-2.3,2.9c-.14,1.84-.2,3.68-.42,5.51-.42,3.64-.93,7.26-1.38,10.9a17.82,17.82,0,0,0-.13,2.75,5.43,5.43,0,0,0,.43,1.38l1.35,1,.4.16c1.44.65,2.87,1.35,4.33,2a7.58,7.58,0,0,0,4.7.68,45.21,45.21,0,0,0,4.67-1.38,22.54,22.54,0,0,0,7.17-4.18c.76-.66,1.48-1.36,2.22-2l2.06-2.8c.07-.17.14-.35.22-.52a29,29,0,0,0,1.6-3.5c1.31-4.23,2.6-8.48,3.74-12.76a52.1,52.1,0,0,0,1.19-16.61c-.23-3.78-.72-7.56-1.3-11.3-.47-3-1.17-6.06-1.9-9.06a50.5,50.5,0,0,0-1.88-6.08,61.11,61.11,0,0,0-3.12-7.11c-1.41-2.64-3.07-5.15-4.72-7.65-1.29-2-2.69-3.86-4.12-5.74-.73-1-1.63-1.8-2.46-2.69l-2.8-2.06-.52-.22c-1.19-.53-2.36-1.12-3.58-1.59a23.64,23.64,0,0,0-7.62-1.39,24.56,24.56,0,0,0-4.73.32c-1.78.28-3.1,1.52-4.44,2.61-1,.82-1.94,1.75-2.9,2.62Z"/><ellipse class="cls-21" cx="259.5" cy="484.67" rx="4.74" ry="11.63" transform="translate(-164.08 134.21) rotate(-22.23)"/><ellipse class="cls-21" cx="270.33" cy="553.91" rx="11.63" ry="4.74" transform="translate(-293.7 802.42) rotate(-87.76)"/><polygon class="cls-22" points="177.05 271.57 170 271.84 167.01 269.71 174.88 260.39 177.87 262.52 177.05 271.57"/><path class="cls-23" d="M173.79,269.44s-6.81,1.12-7.06.27c-1.69-6,1.44-9.4,1.44-9.4l6.72.09Z"/><polygon class="cls-22" points="186.28 271.57 179.22 271.84 176.24 269.71 184.11 260.39 187.09 262.52 186.28 271.57"/><path class="cls-23" d="M183.22,269.45s-5.21,1.1-6.43-.18c-1.61-1.69.18-8.88.18-8.88H184Z"/><polygon class="cls-22" points="195.5 271.57 188.45 271.84 185.46 269.71 193.33 260.39 196.32 262.52 195.5 271.57"/><path class="cls-23" d="M192.25,269.44s-5.1,1-6.32-.26c-1.61-1.69.08-8.8.08-8.8h7.25Z"/><polygon class="cls-22" points="176.46 281.63 169.41 281.9 166.42 279.77 174.29 270.44 177.27 272.57 176.46 281.63"/><path class="cls-23" d="M173.2,279.5s-6.83,1.4-7-.35c-.91-7.55,1.24-8.67,1.24-8.67l6.62,0Z"/><polygon class="cls-22" points="185.69 281.63 178.63 281.9 175.65 279.77 183.52 270.44 186.5 272.57 185.69 281.63"/><path class="cls-23" d="M182.43,279.5s-5.54,1-6.76-.32c-1.61-1.69.52-8.74.52-8.74h7.06Z"/><polygon class="cls-22" points="194.91 281.63 187.86 281.9 184.87 279.77 192.74 270.44 195.73 272.57 194.91 281.63"/><path class="cls-23" d="M191.66,279.5s-5.37,1-6.59-.23c-1.61-1.69.35-8.82.35-8.82h7.06Z"/><polygon class="cls-22" points="175.36 291.6 168.3 291.86 165.32 289.73 173.19 280.41 176.17 282.54 175.36 291.6"/><path class="cls-23" d="M171.91,289.46s-7,1.3-7.06-.47c-.19-6.87,1.3-8.55,1.3-8.55l6.57,0Z"/><polygon class="cls-22" points="184.58 291.6 177.53 291.86 174.54 289.73 182.41 280.41 185.4 282.54 184.58 291.6"/><path class="cls-23" d="M181.33,289.46s-5.13,1.16-6.34-.11c-1.61-1.69.1-8.94.1-8.94h7.06Z"/><polygon class="cls-22" points="193.81 291.6 186.75 291.86 183.77 289.73 191.64 280.41 194.62 282.54 193.81 291.6"/><path class="cls-23" d="M190.55,289.46s-5.22.82-6.43-.46c-1.61-1.69.19-8.6.19-8.6h7.06Z"/></g></g></svg>