<svg xmlns="http://www.w3.org/2000/svg" viewBox="0 0 722.26 616.15"><defs><style>.cls-1{isolation:isolate;}.cls-2{fill:#0d936b;}.cls-3{fill:#0a826a;}.cls-4{fill:#2bb88f;}.cls-5{fill:#1da578;}.cls-6{fill:#a8cfe1;}.cls-7{fill:#93c6dd;}.cls-8{fill:#bcdaea;}.cls-16,.cls-9{fill:#058299;}.cls-10{fill:#aad486;}.cls-11{fill:#c6df91;}.cls-12{fill:#231f20;}.cls-13{fill:#fff;}.cls-14{fill:#8b5e3c;}.cls-15{fill:#e0f3fb;opacity:0.34;mix-blend-mode:overlay;}.cls-16{opacity:0.33;mix-blend-mode:screen;}.cls-17{fill:#05181a;}.cls-18{fill:#009444;}.cls-19{fill:#f36e24;}.cls-20{fill:#f7941d;}.cls-21{fill:#e8ecee;stroke:#231f20;stroke-miterlimit:10;stroke-width:2.06px;}</style></defs><title>skype_interview</title><g class="cls-1"><g id="Layer_2" data-name="Layer 2"><g id="Layer_2-2" data-name="Layer 2"><polygon class="cls-2" points="144.34 383.49 145.91 616.15 168.37 609.25 168.37 591.78 524.37 493.78 524.91 499.72 537.09 495.98 542.33 316.44 144.34 383.49"/><polygon class="cls-3" points="8.09 324 7.37 537.78 20.97 545.47 21.37 534.78 124.37 592.78 124.23 603.88 145.91 616.15 147.24 389.29 8.09 324"/><polygon class="cls-4" points="548.29 307.07 147.76 382.6 0 318.65 414.58 267.99 548.29 307.07"/><polygon class="cls-2" points="148.07 399.08 0.14 333.31 0.11 318.62 147.74 382.52 148.07 399.08"/><polygon class="cls-5" points="548.35 321.92 148.05 399.08 147.68 382.52 549.14 307.07 548.35 321.92"/><polygon class="cls-6" points="281.82 291.01 220.39 296.83 219.83 256.09 281.61 256.09 281.82 291.01"/><rect class="cls-7" x="207.85" y="256.54" width="12.54" height="40.29"/><path class="cls-7" d="M111.72,272.39l18.28-.8L126.55.19,108.14,2.05C97.62,3.44,93.47,6.53,93.47,15.81V254.14A18.25,18.25,0,0,0,111.72,272.39Z"/><path class="cls-8" d="M363.68,257,129.13,271.58A14.56,14.56,0,0,1,113.66,257V14.57A14.56,14.56,0,0,1,129.4,0L364,19.13a14.56,14.56,0,0,1,13.38,14.52V242.45A14.56,14.56,0,0,1,363.68,257Z"/><path class="cls-8" d="M203.5,345.82c0,10-75.41,10-75.41,0s16.88-18.05,37.7-18.05S203.5,335.86,203.5,345.82Z"/><path class="cls-9" d="M336.2,238.34l-178.81,8.48a17.67,17.67,0,0,1-18.5-17.65v-185a17.67,17.67,0,0,1,18.88-17.63l179,12.31a17.67,17.67,0,0,1,16.46,17.65L353,220.72A17.67,17.67,0,0,1,336.2,238.34Z"/><path class="cls-10" d="M335.19,200.58c-44.4-50.37-34-124.77-85.57-124.77s-50.4,88.65-80.86,128.73c-10.4,13.69-13.26,28.24-10.88,42.26l178.31-8.45a17.62,17.62,0,0,0,12.14-5.66C348.08,221.63,344.1,210.68,335.19,200.58Z"/><path class="cls-11" d="M335.58,200.58c-44.4-50.37-34-124.77-85.57-124.77q-1.73,0-3.38.13c-42.07,9.63-47.36,79.2-61.67,123.73a87.38,87.38,0,0,0-2,45.94l153.29-7.27a17.63,17.63,0,0,0,12.51-6.07C348.36,221.36,344.37,210.56,335.58,200.58Z"/><circle class="cls-12" cx="238.08" cy="147.73" r="3.47"/><circle class="cls-12" cx="289.28" cy="147.68" r="3.47"/><path class="cls-13" d="M282.56,164.1c0,4.44-6.59,8-14.73,8s-14.73-3.6-14.73-8,6.59-2.66,14.73-2.66S282.56,159.66,282.56,164.1Z"/><path class="cls-14" d="M249.76,78.71a5.47,5.47,0,0,1-1.59-4.95c-.38.23,1.23-16.17,3.72-22.92,1.16-3.14,2.56-3.64,5.89-3.2h0c3.32.44,6.33,3.46,5.89,6.78,0,0-8.89,7.11-9.65,21C253.83,78.75,253.08,79.15,249.76,78.71Z"/><path class="cls-12" d="M294.47,127.85c-.22.64-2.63-.91-5.88-2s-6.1-1.39-5.88-2,3-.25,6.28.87S294.7,127.2,294.47,127.85Z"/><path class="cls-12" d="M232.5,128.28c.27.63,2.55-1.12,5.7-2.49s6-1.87,5.7-2.49-3,0-6.2,1.36S232.22,127.65,232.5,128.28Z"/><path class="cls-12" d="M191.82,197c-2.22-.22-12.64,18.56-14.88,41.29q-.4,4-.58,7.63l6.06-.29c.08-4.12.3-8.83.84-14.23C185.11,212.65,198.12,197.62,191.82,197Z"/><path class="cls-15" d="M336.8,38.86l-23.29-1.6c-15.65,28.73-40.4,64.39-77.16,93.31-23,18.07-62.89,37.47-97.48,52.5v46.11a17.67,17.67,0,0,0,18.5,17.65l24.43-1.16c19.62-26.09,48.47-57.63,89.44-88.36,30.39-22.79,58.06-37.95,81.93-48l.07-52.79A17.67,17.67,0,0,0,336.8,38.86Z"/><path class="cls-16" d="M336.2,238.34l-178.81,8.48a17.67,17.67,0,0,1-18.5-17.65v-185a17.67,17.67,0,0,1,18.88-17.63l179,12.31a17.67,17.67,0,0,1,16.46,17.65L353,220.72A17.67,17.67,0,0,1,336.2,238.34Z"/><polygon class="cls-7" points="250.9 309.44 208.05 302.48 207.78 294.41 250.63 301.64 250.9 309.44"/><circle class="cls-17" cx="258.26" cy="22.49" r="5.26"/><polygon class="cls-7" points="250.35 309.44 307.11 301.37 306.83 294.41 250.07 294.69 250.35 309.44"/><polygon class="cls-8" points="307.39 294.41 249.79 301.37 219.74 296.63 282.07 290.79 307.39 294.41"/><path class="cls-7" d="M436,315.31,255.2,346.05a1.84,1.84,0,0,1-2.14-1.73l-.31-7a1.84,1.84,0,0,1,1.53-1.89l180.32-30.9A2,2,0,0,1,437,306.3l.51,7.2A1.84,1.84,0,0,1,436,315.31Z"/><path class="cls-7" d="M254.39,346l-55.3-17.3c-.75-.24-1.58-1.85-1.71-2.63-.52-3.08-.9-10.26,1.07-9.7l55,19.16c1.52.43-.09,1.31,0,2.89l.13,2.76C253.67,343.67,256.83,346.72,254.39,346Z"/><path class="cls-8" d="M435.14,305.29,253.39,335.7a.42.42,0,0,1-.18,0l-54.6-15.48a2.12,2.12,0,0,1,.29-4.15l165.85-22.56h.12l70.27,11A.42.42,0,0,1,435.14,305.29Z"/><path class="cls-7" d="M401.23,308.4l-147,22.9a3.15,3.15,0,0,1-1.35-.08l-33.57-9.56a3.15,3.15,0,0,1,.44-6.16l142.54-19.28a3.15,3.15,0,0,1,.91,0l38.05,5.95A3.15,3.15,0,0,1,401.23,308.4Z"/><path class="cls-12" d="M600,539.35c6.48-.64,13.7-2.56,16-4.18,3.41-2.38,1.47-15.3,1.22-18.66L614,473c-.25-3.36-4-2.47-8.53-2.13h0c-1.7,8.7-.24,48.28-3.76,50.72-13.73,9.5-29.67,17.16-17,18.09A67.31,67.31,0,0,0,600,539.35Z"/><path class="cls-12" d="M685.73,430.15c2.53,28.14-8.1,52.67.93,52.53,3.13,0,12.61-31,6.32-58.54-6.09-26.65-11.4-36.07-14.52-36C667.37,388.27,683.2,402,685.73,430.15Z"/><path class="cls-18" d="M720.12,263.07c12.76-4.84-34,22.14-72.29,17.69s-74.66-20.37-73-34.59,10.45-20.79,48.39-14.13C660.51,238.6,695.76,272.31,720.12,263.07Z"/><ellipse class="cls-19" cx="577.37" cy="378.94" rx="113.4" ry="103.93"/><path class="cls-20" d="M555.05,480.85C503.11,471.35,464,429.33,464,378.94,464,321.54,514.74,275,577.37,275a121,121,0,0,1,55.09,13.07c-25.66-8.3-55.19-7.38-82.85,4.76-56.74,24.89-80.77,81.26-53.05,142.78C506.47,457.61,532.11,471.48,555.05,480.85Z"/><path class="cls-21" d="M666,461.33a23.51,23.51,0,0,1,11.43-5.61c-1.12-.84-1.74-1.75-1.65-2.66.26-2.74,6.74-4.38,14.48-3.65s13.81,3.54,13.55,6.28c-.11,1.21-1.43,2.2-3.54,2.87,4.49,2.95,7.69,8.59,5.19,20.21-2.39,11.14-15.19,13.48-24.86,11.62-9.17-1.77-12-6.83-10.41-16.73-2.85,1.25-5.6,1.22-7.18-.36C660.54,470.81,661.87,465.45,666,461.33Z"/><path class="cls-12" d="M473,430.71c-2.53,28.14,8.1,52.67-.93,52.53-3.13,0-12.61-31-6.32-58.54,6.09-26.65,11.4-36.07,14.52-36C491.36,388.83,475.53,402.56,473,430.71Z"/><path class="cls-21" d="M492.74,461.89a23.51,23.51,0,0,0-11.43-5.61c1.12-.84,1.74-1.75,1.65-2.66-.26-2.74-6.74-4.38-14.48-3.65s-13.81,3.54-13.55,6.28c.11,1.21,1.43,2.2,3.54,2.87-4.49,2.95-7.69,8.59-5.19,20.21,2.39,11.14,15.19,13.48,24.86,11.62,9.17-1.77,12-6.83,10.41-16.73,2.85,1.25,5.6,1.22,7.18-.36C498.19,471.37,496.86,466,492.74,461.89Z"/><path class="cls-12" d="M531.56,538.63c6.51,0,13.88-1.24,16.34-2.63,3.62-2,2.92-15.09,3-18.46l.92-43.59c.07-3.37-3.7-2.84-8.29-2.93h0c-2.52,8.5-4.84,48-8.58,50.13-14.57,8.15-31.17,14.26-18.69,16.38A67.31,67.31,0,0,0,531.56,538.63Z"/><polygon class="cls-18" points="598.4 278.82 592.12 278.49 591.29 261.81 599.65 263.31 598.4 278.82"/></g></g></g></svg>