<svg xmlns="http://www.w3.org/2000/svg" viewBox="0 0 5888.13 359.58"><defs><style>.cls-1{fill:#fff;opacity:0.54;}</style></defs><title>forecloud</title><g id="Layer_2" data-name="Layer 2"><g id="Layer_18" data-name="Layer 18"><path class="cls-1" d="M5699.38,316.74c-25.1-.74-45.61-3.66-50.14-31.48-5.3-32.57-15.48-60.13-38.58-84.6-47.45-50.25-118.83-62.49-183.9-45-35.54,9.56-65.94,27.28-96.16,47.67-12.91,8.71-26,16-41.41,19-17.68,3.49-35.87,2.32-53.76,1.73l-267.38-8.87c-1.83-.06-3.14-2.51-1.6-3.85,36.82-32.05,33-86.84,10-126C4950,40.49,4898.16,21,4849.05,12.78,4800.2,4.66,4747.48,2,4698.17,7.31c-47.7,5.16-96,22.74-119.51,67.6-19.48,37.2-23.63,89.32-67.69,106.92-13.61,5.44-30.25,7.56-43.92,1.13-15.91-7.49-20.26-23.63-20.26-40,0-26-2.66-47.85-18.46-69.43-14.79-20.21-35.91-35.27-58.26-46.13-42.4-20.61-91.89-25.76-138.39-21.07-105.17,10.61-203.75,75.09-251,170.25a2.37,2.37,0,0,1-3.17.83,228.52,228.52,0,0,0-116.86-20.68c-38.76,3.45-73.54,18.49-107.6,36.41-53.67,28.24-114.68,68.16-177.27,44.38a2.37,2.37,0,0,1-1.68-2.21C3576,148.18,3514.11,64,3428.84,43c-83.73-20.59-176.89,23-216.5,99-13.2,25.35-27.93,64.42-58.76,70.91a39.14,39.14,0,0,0-10.23,13.58c-15.07,8.07-30.35,15.58-46.69,20.88a240.91,240.91,0,0,1-61.81,11.2c-59.26,3.07-116.16-14.81-165.88-45.26a1.41,1.41,0,0,0-1-2.43c-1,0-1.92.05-2.86,0a374.71,374.71,0,0,1-46.81-35c-10.24-17.47-18-37.75-26.79-51.44-20.79-32.33-51.83-57.58-86.87-73.07C2632.58,19.64,2549.89,32.74,2493,87.84c-28.49,27.61-49.23,63.59-57.79,102.4a185,185,0,0,0-3.73,24.67c-.33,4,.92,12.65-.6,16.27-2.23,5.3-9.76,5.91-14.76,7-23.84,5.21-48.24.88-70.94-7.11-44.31-15.59-83.18-43.17-126.34-61.37a232.52,232.52,0,0,0-135.66-14.1,224.22,224.22,0,0,0-35,9.91c-3.38,1.27-8.19,4.54-11.79,4.81-6.57.49-6.72-2.79-9.94-8.62a291.89,291.89,0,0,0-33.36-48.08,321.5,321.5,0,0,0-92.11-74C1832.74,2.82,1749.75-11,1674.17,9.56c-35.75,9.74-71.39,28.87-94.43,58.54-11.18,14.39-18.86,31.26-21,49.44-2.64,22.13,5.92,53.51-21.55,62.71-18.88,6.32-41.64-1.68-56.13-14.33-18-15.71-25.25-41.35-33.23-63-14.2-38.51-34.92-68.48-73.61-85.05-34.92-15-74.27-17.63-111.81-17.3-44.65.39-91,2.66-134.25,14.59-37.59,10.38-74.12,29.73-95.83,63.16-18.22,28.05-27.11,65-17.37,97.66a81,81,0,0,0,21.14,34.9q-133.73,4.45-267.45,8.9c-23.16.76-46.74,1.56-68.14-8.82-19.08-9.26-35.4-23.57-53.89-33.93-30.87-17.29-65.13-29.21-100.44-32.68-63.77-6.28-128.87,18.55-165.82,72.37a141.71,141.71,0,0,0-18,36.21c-6.13,18.83-2,49.37-24.75,56.38-18.43,5.68-41,3.32-59.95,2.33-23.13-1.21-46.33-3.58-69.51-2.26-32.54,1.87-67.8,11.52-90,36.82-.82.93-1.52,1.73-2.16,2.44q-14-.9-28.07-2.14a194.74,194.74,0,0,0-18.82-5.74,264,264,0,0,0-67-6.47c-2.31.06-3,3.7-.57,4.19a778.64,778.64,0,0,0,86.24,12.11q11.89,3.77,23.5,8.7a2.25,2.25,0,0,0,3-.78q2-3,4.14-5.69c59.13,3.45,118.65,2.43,177.8,2.31l309.37-.63,621.6-1.26q310.55-.63,621.1-1.25c205.76-.47,411.56-1.51,617.23-8,72.1-2.29,144.56-4.14,216.76-8.24q29.09,2.37,58.22,4.29c91.38,6,183.09,9.06,274.67,8,90.36-1,181.19-5.95,270.56-19.85l-.4-.39q140.72,8.26,281.65,12.29c196.21,5.9,392.52,7,588.8,7.49q297.64.78,595.28,1.34l593,1.3,297.91.66c81.81.18,164.39,3.05,246.24-1.85C5842.74,296.88,5760.13,318.54,5699.38,316.74Z"/></g></g></svg>