
<svg xmlns="http://www.w3.org/2000/svg" version="1.1" xmlns:xlink="http://www.w3.org/1999/xlink" preserveAspectRatio="none" x="0px" y="0px" width="550px" height="400px" viewBox="0 0 550 400">
<defs>
<g id="Layer0_0_FILL">
<path fill="#000000" stroke="none" d="
M 512.75 370.25
L 504.35 389.6 500.75 396.6 500.25 398.35 499.25 407.1 498.85 407.6 499 410.35
Q 499.25 411.5 501.5 413
L 510.1 417.6 512.5 418.25 525.6 419 555.6 422.6 555.85 422.75 555.6 416.85 557 407.6 527.5 404.25 512.6 405.25 512.25 405.1 513.35 402.25 521.5 388.75 527.5 374.75 528.25 369.5
Q 527.25 353.35 521.6 354.1 518.25 354.35 512.75 370.25
M 649.75 673.5
L 650.1 672.6
Q 650.5 672 649 669.1
L 641.75 660 640.75 658.1 640 655.35 640 644.85 642.25 602.5 641.5 556.85
Q 643 552 632.25 551.25 623 548.5 623.5 553.6
L 619.25 601.85 614 630.6 609.5 660.1 609.75 671.1 614.35 673.75 649.75 673.5
M 714.1 555
L 714.25 558.5 711.5 601.85 705 648.1 703.85 662.25 704 662.85 704 663.35 704.1 664.25 704.1 664.85 704.25 665.75 704.25 666.5 704.35 667.1 704.35 668.1 704.5 668.5 704.6 671
Q 708.6 673.85 709.5 673.75
L 744.75 673.75 746.1 673
Q 747.35 670 736.85 661.35
L 735 658.25 734 654.6 733.75 642 734.6 601.35 732.25 550.75 717.5 553.85 714.1 555
M 897.85 338.1
L 897.35 338.85 896.5 346.75 896.35 360.85
Q 896.1 361.6 899.25 365.25
L 916.1 387.25 925.1 398 929.6 404.75 929.75 405.1 929.1 405.6 935.5 408.75 941.75 412.85
Q 945.1 409.25 943.35 398.6
L 937.75 389.5 928.25 377.85 900.1 340.85 897.85 338.1
M 865.1 240.85
Q 868.35 237.6 859.6 231.35
L 855.75 228.75 849.25 225.85 842.5 224.25
Q 824.85 222.35 815.75 231.5
L 815.75 232.6 816.25 233.5 817.25 233.75 836 231 842.85 231 849.25 232.25 854.1 234.1 857.85 236.35 862.85 240.35 865.1 240.85
M 650.75 240.85
L 648.35 242.6 646.5 245.35 644.85 247
Q 638.75 255 643.35 256.75
L 645.25 255.5
Q 650.35 245.35 661.35 241.1 666.25 238.35 674.5 238.1
L 686.25 241 687.6 239.75 687.6 238.6 684.5 235.6 675.6 231.1 666.75 231.85 659.85 234.5 651.85 239.5 650.75 240.85
M 840.25 264.5
Q 835 267.85 839.25 279.1 844.5 289 850.1 289.1 854.75 288.35 856.35 282 857.1 278.75 856.75 276.35
L 855.35 272
Q 849.1 262.35 840.25 264.5
M 684.85 293
L 683.1 289.35
Q 674 280.25 665.25 285
L 661.6 287.35
Q 653.5 299 661.35 306.6 669.6 314.1 680.25 307.85
L 683.35 304.6 684 303.5 685.6 297.5 684.85 293 Z"/>

<path fill="#FFFFFF" stroke="none" d="
M 673.1 401.75
L 658.1 397.1 651.35 393 642.6 385.1 638.75 382.5 641.5 376 641.35 375.6 641.85 375.1 641.6 374.85 642.1 374.6 642.25 373.5 643.35 371.85
Q 628.85 370.1 615.75 375.5
L 604.35 379.75 597.5 381.85 588.6 382.85 582.6 385.1 580.25 385.6 573.75 385.35 571.5 385.85 567.35 388.25 567.1 388.85 565.5 390.1 565.1 390.5
Q 558.1 399.35 557 407.6
L 555.6 416.85 555.85 422.75
Q 556.75 431 561.5 435.1 562.35 436.75 573.25 438
L 591.85 445.5 592.5 445.85 594 446.35 594.25 446.5 604.1 450.6 638.1 461 640.5 461.75
Q 659.6 468.25 669.1 453.6 685.6 435.75 685.6 414.85 684.5 406.85 679.25 404.6
L 673.1 401.75
M 880.6 391.85
L 875 393.5 861 395.85 854.6 398.25
Q 843.1 403.1 854.1 432.6
L 859.6 448.6 862.6 455.5
Q 864.85 462 870.35 463.25
L 871.6 463.75 877.1 463.6 882.25 463 891.6 460.85 910.1 458.85 923.35 455.75
Q 926 457.75 934 457
L 937.6 455.85 941.5 453.6
Q 949.25 447.75 950.85 435.75 952.1 423.6 941.75 412.85
L 935.5 408.75 929.1 405.6 924.75 403.6
Q 919.5 392.6 908.6 387.5
L 900.85 385.5 896.25 384.85
Q 894.25 383.6 887.75 386.25
L 884.85 388.85 884.6 389 884.35 389.25 882 390.75 880.1 390.85 880.6 391.85 Z"/>

<path fill="#FF9400" stroke="none" d="
M 839.6 487.85
L 838.6 487
Q 837.85 488.25 835.5 489.5
L 833.6 491.6
Q 832 492.25 829.85 494.75
L 829.25 494.75 825.6 498.25 821.1 501.25 820.25 502.25 818.75 502.85 816.1 505.25 814 506.35 812.25 508 809.6 509.25 809.1 510 807.6 510.5 806.1 511.6 805.5 511.6 803 513.75
Q 801.85 513.35 796.75 517.35 791.85 519.1 791 520.35
L 785.25 522.75 782.75 524.5 775 527.35 773.35 528.5
Q 770.1 529.85 769.6 529.6
L 766.5 531.1 764.85 531.25 763 532.25 762.5 532.1 754.25 535.35 752.35 535.25 749.25 536.6 747.25 536.85 745.75 537.6 743.5 537.6
Q 740.1 539.1 738.6 539
L 737.25 539.75 734.5 539.75 733.1 540.35 730.85 540.35 729.85 541
Q 725.6 540.75 725.35 541.75
L 722.25 541.75 721.1 542.35 718.35 542.35 716.75 543.1
Q 710.75 542.6 710.25 543.75
L 702.1 543.6 701 544.25 684.5 544.25 684.1 544.1 684.25 543.75 674 543.75
Q 673.35 542.5 667.6 543.1
L 666.85 542.35
Q 664 542.85 658.5 541.1
L 655.1 541.1 654 540.35 650.5 540.35 649.6 539.75 647.85 539.75 646.85 539 644 539
Q 641.25 537.1 639.35 537.6
L 638.35 536.85 635.35 536.85 634.35 536.1 633.35 536.1 633 535.6 630.35 535.35
Q 627.1 533.25 623.85 533
L 622.75 532.25 619.85 532.25 619 531.6
Q 618.1 531.85 614.25 529.85
L 613 529.75 612.25 529.1 610.6 528.85 609.1 527.25 608 527.1
Q 607.6 526.1 603.25 525.35
L 601.85 524.5 600.85 524.5 599.6 524 599.35 523.5 597.35 523.1 596.25 522 594.5 521.6 593 520.75 592.1 520.75
Q 591.85 518.75 582.35 515.75
L 580.75 513.85
Q 575 512.35 574.1 510.75
L 572.75 510.6 571 508.5 570 508.5
Q 567.6 506 565.6 506.25
L 563.75 504 561.75 503.6 559.35 500.75
Q 557.25 500.75 555.6 498.6
L 553.85 498.35 551.5 495.35 549.35 494.75
Q 548.25 492.25 545 491.6
L 542.85 488.6 541.75 488.6 540.75 488.1 538.35 485 536 484.25 533.85 481.1 531.5 480.35 529.35 477.1 527.35 476.6 524.85 473.1 524.1 473.1 522.6 472.25 520.75 469.25 519.6 469.1 518.35 468.35
Q 515.85 462.75 513.75 463.5
L 510.5 458 509.35 457.85 508.35 457.25 506 453 505 452.25 503.85 452.1 500.85 446.25 499.85 446.25 499 445.75 496.6 441.1 495.5 440.35 494.5 440.35 491.85 434.25 490.85 434.25 489.85 433.5 487 426.6 486 426.6 485 425.85 483.35 421.25 482.25 420.35 481.35 420.35 479 413.25 478 412.5 477.1 412.5
Q 475.6 404.1 473.1 404.5
L 471.25 397.35 470.6 396.6 469.5 396.35 468 389.25 467.1 388.25 466.25 388.25 464.6 378.5 463.75 378.35 463 377.5
Q 463 368.6 460.5 368.35
L 459.75 358.35 459.1 358.35 458.35 357.6
Q 459.25 349.6 456.85 349.25
L 457.1 338.25 456.35 338.25 455.85 337.35
Q 457.35 329 455.5 328.25
L 456.6 318.35 456 318.25 455.75 317.5
Q 457.85 309.75 456.1 308.85
L 458 300.85 457.75 300.1 457.25 300.1 459.85 290.75 459.85 290.35 459.35 290.35 459.25 289.35
Q 461.35 284.5 461 283.85
L 462 282 461.85 280.75 461.35 280.5
Q 465.6 271.85 464.6 270.5
L 468 263.25 468.25 262.25 467.85 262
Q 478.8013671875 231.38359375 510.6 198.95
L 500.75 208.6 490.5 220.35 480.75 233.25 473.75 243.85 463.5 262.5 458.25 274.25 453.25 287.85 450 299 446.35 316.1 444.75 329 444 344.1 444.1 354.6 445.6 371.6 447.35 382.35 450.5 396 453.5 406 460 423 467.35 438.1 476.25 453 481 460 492.25 474.5 501 484.25 510.6 493.85 519 501.35 535.1 514 545.25 520.85 562.25 530.85 572.1 535.85 588.85 543.1 601.85 547.75 615.6 551.75 623.5 553.6
Q 623 548.5 632.25 551.25 643 552 641.5 556.85
L 658.75 558.6 680.75 558.85 696.85 557.6 714.1 555 717.5 553.85 732.25 550.75 749 545.5 765.85 538.75 781.75 531 791.75 525.35 807.85 514.85 817.6 507.6 829 498.1 839.6 487.85 Z"/>

<path fill="#641D1D" stroke="none" d="
M 668.1 351.6
Q 660.85 349.75 648 365.35
L 647.75 365.6 647 366.5 643.35 371.85 642.25 373.5 642.1 374.6 641.6 374.85 641.85 375.1 641.35 375.6 641.5 376 638.75 382.5 642.6 385.1 651.35 393 658.1 397.1 673.1 401.75 679.25 404.6
Q 684.5 406.85 685.6 414.85 685.6 435.75 669.1 453.6 659.6 468.25 640.5 461.75
L 638.1 461 639.75 463.85 639.6 464.25 640.6 466
Q 653.5 487 663.75 487.25 664.75 487.25 667.1 485.6
L 722.25 446.25 731 440.5 731.6 441.75 734.1 445.35
Q 741.6 456 757.35 457.35 777 454.75 783.1 442.1
L 783.35 442.35 838.6 487 839.6 487.85
Q 847.75 496.75 854.85 491.35 870 480 877.1 463.6
L 871.6 463.75 870.35 463.25
Q 864.85 462 862.6 455.5
L 859.6 448.6 854.1 432.6
Q 843.1 403.1 854.6 398.25
L 861 395.85 875 393.5 880.6 391.85 880.1 390.85
Q 864 355.85 849.75 358.25
L 847.5 359.6 797.1 395.75 796.6 395.75 796.25 396.35 784.35 404.25
Q 775.35 390.6 766.75 388.85 749.1 385.1 738.85 394.85
L 737.1 396.35 732.1 402.75 723.35 396 673.6 355.35 668.1 351.6 Z"/>

<path fill="#00792B" stroke="none" d="
M 733.35 80.1
L 739.25 74.75
Q 759.1 51.25 755.35 43.1 750.6 31.25 728.75 26.75
L 707.25 22.1 698 21.1 683.1 20.35 673.5 20.6 653.6 22.75 643.25 24.35 624.5 28.25 608.85 32.35 599.5 35.6 590.35 39.5 576.1 47.5 563.1 56.6 554.25 64 542.85 74.35 514.6 101.75 499.5 115.6 486.5 126.25 472.75 136.25 461.5 143.25 461.25 143.35 460.85 143.6 460.75 143.6 460.35 143.85 460.25 144 459.85 144.25 459.75 144.25 459.35 144.5 459.1 144.6 459 144.75 449.6 149.25 449.35 149.35 449.1 149.5 448.85 149.6 448.6 149.75 448.5 149.75 439.75 152.6 439.25 152.6 439 152.75 429.6 154.5 421.75 155.35 409.5 155.5 402.25 154.85 393.85 152.6 390.75 152.75
Q 391.5 155.5 399.1 161.6
L 401.85 162.75 414.5 165.5 425 166.5 440.5 166.5 458.6 164.75 478.35 161 501.35 155 525.25 147 553 135.6 581.35 121.6 638 90.6 653.25 82.75 653.5 82.6 653.75 82.5 655 81.85 655.25 81.75 655.5 81.6 655.75 81.5 656 81.35 661.6 78.75 664.5 83.6 664.6 83.85 665 84.5 669.75 95.35 669.85 95.75 670 96 670.1 96.35 670.25 96.6 670.35 96.85 670.35 97 670.6 97.85 672 101.35 672.75 105.1 671.5 132.6 671.6 133.35
Q 686.1 135.35 687.75 133.25
L 688.75 108.6 689.35 104.5 711 94.35 726.1 85.6 733.35 80.1 Z"/>

<path fill="#FFBF00" stroke="none" d="
M 831.75 196.85
L 818.1 185.1 811.1 179.75 795.6 169.1 777.25 158.6 763 151.85 750.25 146.75 737.6 142.5 721.1 138.1 706.85 135.35 687.75 133.25
Q 686.1 135.35 671.6 133.35
L 671.5 132.6 658.5 133 645.35 134.25 625.35 137.6 609.6 141.6 587.85 149.1 574.1 155.1 564.6 159.85 546.85 170.25 534.1 179 527.85 183.75 513.85 195.75
Q 512.2083984375 197.36640625 510.6 198.95 478.8013671875 231.38359375 467.85 262
L 468.25 262.25 468 263.25 464.6 270.5
Q 465.6 271.85 461.35 280.5
L 461.85 280.75 462 282 461 283.85
Q 461.35 284.5 459.25 289.35
L 459.35 290.35 459.85 290.35 459.85 290.75 457.25 300.1 457.75 300.1 458 300.85 456.1 308.85
Q 457.85 309.75 455.75 317.5
L 456 318.25 456.6 318.35 455.5 328.25
Q 457.35 329 455.85 337.35
L 456.35 338.25 457.1 338.25 456.85 349.25
Q 459.25 349.6 458.35 357.6
L 459.1 358.35 459.75 358.35 460.5 368.35
Q 463 368.6 463 377.5
L 463.75 378.35 464.6 378.5 466.25 388.25 467.1 388.25 468 389.25 469.5 396.35 470.6 396.6 471.25 397.35 473.1 404.5
Q 475.6 404.1 477.1 412.5
L 478 412.5 479 413.25 481.35 420.35 482.25 420.35 483.35 421.25 485 425.85 486 426.6 487 426.6 489.85 433.5 490.85 434.25 491.85 434.25 494.5 440.35 495.5 440.35 496.6 441.1 499 445.75 499.85 446.25 500.85 446.25 503.85 452.1 505 452.25 506 453 508.35 457.25 509.35 457.85 510.5 458 513.75 463.5
Q 515.85 462.75 518.35 468.35
L 519.6 469.1 520.75 469.25 522.6 472.25 524.1 473.1 524.85 473.1 527.35 476.6 529.35 477.1 531.5 480.35 533.85 481.1 536 484.25 538.35 485 540.75 488.1 541.75 488.6 542.85 488.6 545 491.6
Q 548.25 492.25 549.35 494.75
L 551.5 495.35 553.85 498.35 555.6 498.6
Q 557.25 500.75 559.35 500.75
L 561.75 503.6 563.75 504 565.6 506.25
Q 567.6 506 570 508.5
L 571 508.5 572.75 510.6 574.1 510.75
Q 575 512.35 580.75 513.85
L 582.35 515.75
Q 591.85 518.75 592.1 520.75
L 593 520.75 594.5 521.6 596.25 522 597.35 523.1 599.35 523.5 599.6 524 600.85 524.5 601.85 524.5 603.25 525.35
Q 607.6 526.1 608 527.1
L 609.1 527.25 610.6 528.85 612.25 529.1 613 529.75 614.25 529.85
Q 618.1 531.85 619 531.6
L 619.85 532.25 622.75 532.25 623.85 533
Q 627.1 533.25 630.35 535.35
L 633 535.6 633.35 536.1 634.35 536.1 635.35 536.85 638.35 536.85 639.35 537.6
Q 641.25 537.1 644 539
L 646.85 539 647.85 539.75 649.6 539.75 650.5 540.35 654 540.35 655.1 541.1 658.5 541.1
Q 664 542.85 666.85 542.35
L 667.6 543.1
Q 673.35 542.5 674 543.75
L 684.25 543.75 684.1 544.1 684.5 544.25 701 544.25 702.1 543.6 710.25 543.75
Q 710.75 542.6 716.75 543.1
L 718.35 542.35 721.1 542.35 722.25 541.75 725.35 541.75
Q 725.6 540.75 729.85 541
L 730.85 540.35 733.1 540.35 734.5 539.75 737.25 539.75 738.6 539
Q 740.1 539.1 743.5 537.6
L 745.75 537.6 747.25 536.85 749.25 536.6 752.35 535.25 754.25 535.35 762.5 532.1 763 532.25 764.85 531.25 766.5 531.1 769.6 529.6
Q 770.1 529.85 773.35 528.5
L 775 527.35 782.75 524.5 785.25 522.75 791 520.35
Q 791.85 519.1 796.75 517.35 801.85 513.35 803 513.75
L 805.5 511.6 806.1 511.6 807.6 510.5 809.1 510 809.6 509.25 812.25 508 814 506.35 816.1 505.25 818.75 502.85 820.25 502.25 821.1 501.25 825.6 498.25 829.25 494.75 829.85 494.75
Q 832 492.25 833.6 491.6
L 835.5 489.5
Q 837.85 488.25 838.6 487
L 783.35 442.35 783.1 442.1
Q 777 454.75 757.35 457.35 741.6 456 734.1 445.35
L 731.6 441.75 731 440.5 722.25 446.25 667.1 485.6
Q 664.75 487.25 663.75 487.25 653.5 487 640.6 466
L 639.6 464.25 639.75 463.85 638.1 461 604.1 450.6 594.25 446.5 594 446.35 592.5 445.85 591.85 445.5 573.25 438
Q 562.35 436.75 561.5 435.1 556.75 431 555.85 422.75
L 555.6 422.6 525.6 419 512.5 418.25 510.1 417.6 501.5 413
Q 499.25 411.5 499 410.35
L 498.85 407.6 499.25 407.1 500.25 398.35 500.75 396.6 504.35 389.6 512.75 370.25
Q 518.25 354.35 521.6 354.1 527.25 353.35 528.25 369.5
L 527.5 374.75 521.5 388.75 513.35 402.25 512.25 405.1 512.6 405.25 527.5 404.25 557 407.6
Q 558.1 399.35 565.1 390.5
L 565.5 390.1 567.1 388.85 567.35 388.25 571.5 385.85 573.75 385.35 580.25 385.6 582.6 385.1 588.6 382.85 597.5 381.85 604.35 379.75 615.75 375.5
Q 628.85 370.1 643.35 371.85
L 647 366.5 647.75 365.6 648 365.35
Q 660.85 349.75 668.1 351.6
L 673.6 355.35 723.35 396 732.1 402.75 737.1 396.35 738.85 394.85
Q 749.1 385.1 766.75 388.85 775.35 390.6 784.35 404.25
L 796.25 396.35 796.6 395.75 797.1 395.75 847.5 359.6 849.75 358.25
Q 864 355.85 880.1 390.85
L 882 390.75 884.35 389.25 884.6 389 884.85 388.85 887.75 386.25
Q 894.25 383.6 896.25 384.85
L 898 375.1 899.25 365.25
Q 896.1 361.6 896.35 360.85
L 896.5 346.75 897.35 338.85 897.85 338.1 900.1 340.85
Q 898.25 296.85 880.85 262.75
L 875.5 252.35 869.5 242.25 859.25 227.35 846.5 211.85 831.75 196.85
M 683.1 289.35
L 684.85 293 685.6 297.5 684 303.5 683.35 304.6 680.25 307.85
Q 669.6 314.1 661.35 306.6 653.5 299 661.6 287.35
L 665.25 285
Q 674 280.25 683.1 289.35
M 839.25 279.1
Q 835 267.85 840.25 264.5 849.1 262.35 855.35 272
L 856.75 276.35
Q 857.1 278.75 856.35 282 854.75 288.35 850.1 289.1 844.5 289 839.25 279.1
M 648.35 242.6
L 650.75 240.85 651.85 239.5 659.85 234.5 666.75 231.85 675.6 231.1 684.5 235.6 687.6 238.6 687.6 239.75 686.25 241 674.5 238.1
Q 666.25 238.35 661.35 241.1 650.35 245.35 645.25 255.5
L 643.35 256.75
Q 638.75 255 644.85 247
L 646.5 245.35 648.35 242.6
M 791.25 338.75
L 799.85 337.1 812.25 336.85 817.1 337.5
Q 821.25 338.85 816.25 341.1
L 795.6 347.6 779.1 349.75 769.25 350 748.85 347.6 732.5 342.6
Q 718 338.75 732.85 336.85
L 738.6 336.85 752.25 338.85 769 340.35 774.85 340.35 791.25 338.75
M 859.6 231.35
Q 868.35 237.6 865.1 240.85
L 862.85 240.35 857.85 236.35 854.1 234.1 849.25 232.25 842.85 231 836 231 817.25 233.75 816.25 233.5 815.75 232.6 815.75 231.5
Q 824.85 222.35 842.5 224.25
L 849.25 225.85 855.75 228.75 859.6 231.35 Z"/>

<path fill="#DD0026" stroke="none" d="
M 799.85 337.1
L 791.25 338.75 774.85 340.35 769 340.35 752.25 338.85 738.6 336.85 732.85 336.85
Q 718 338.75 732.5 342.6
L 748.85 347.6 769.25 350 779.1 349.75 795.6 347.6 816.25 341.1
Q 821.25 338.85 817.1 337.5
L 812.25 336.85 799.85 337.1 Z"/>
</g>
</defs>

<g transform="matrix( 0.5774383544921875, 0, 0, 0.5774383544921875, -116.7,-1.75) ">
<use xlink:href="#Layer0_0_FILL"/>
</g>
</svg>
