<svg xmlns="http://www.w3.org/2000/svg" viewBox="0 0 263.57 598.07"><defs><style>.cls-1{fill:#34b2e6;}.cls-2{fill:#231f20;}.cls-3{fill:#e8ecee;stroke:#231f20;stroke-miterlimit:10;stroke-width:2.15px;}.cls-4{fill:#fee465;}.cls-5{fill:#ffd449;}.cls-6{fill:#754c29;}</style></defs><title>banna</title><g id="Layer_2" data-name="Layer 2"><g id="drinks_and_fruits" data-name="drinks and fruits"><ellipse class="cls-1" cx="158.58" cy="587.25" rx="78.96" ry="10.82"/><path class="cls-2" d="M194.5,278.61c32.57-16.75,32.08-37.54,42.59-36.4,6.25.68-8.16,25.53-38.66,41.24S134.55,269.74,136.51,267C144.26,256.29,169.33,291.56,194.5,278.61Z"/><path class="cls-3" d="M252.12,219.3c-8-5.52-17.22,3.74-24,13.25-2.52-4.36-6.06-7.79-11.4-6.48-7.92,1.95-3,12.68-.44,19.28a20.67,20.67,0,0,0,2.22,4.26c-1.37-.08-2.38.2-2.82.9-1.35,2.13,2.93,7.26,9.55,11.47s13.09,5.9,14.44,3.77c.47-.75.24-1.87-.53-3.18,7.46-1.15,15.67-6.69,20.32-13.43C266.33,239.11,260.59,225.13,252.12,219.3Z"/><path class="cls-2" d="M89,591c-4.36-.55-13.21-2.9-11.35-9.87C84.82,554.26,90.32,468.4,90.32,468.4c0-7.22-5.82-31.49,0-31.49l5.1,31.63c5.81,0,5.13,4,4.74,11.25-4.48,82.45.53,91,.53,91C160.36,594.31,108.42,593.45,89,591Z"/><path class="cls-2" d="M149.75,584.21c-4.32-.8-12.33-1.55-10.67-8.57,5-21.38-1-99.73-1-99.73-.59-7.19-.31-12.12,5.48-12.59l4-1.35c5.79-.48-.57,3.07-.37,10.28,2.3,82.54,11.68,96.42,11.68,96.42C216.44,585,167.76,587.54,149.75,584.21Z"/><path class="cls-4" d="M180.91,69.49h0c-6.38-4.77-6.48-13.13-2.93-20.27C193.13,18.73,210.16,3,210.16,3c4.77-6.38,11.49-1.36,17.87,3.41h0c6.38,4.77,12.47,7.51,7.7,13.89,0,0-36.7,14.7-42,44.34C192.27,72.48,187.29,74.26,180.91,69.49Z"/><path class="cls-4" d="M204.84,518.91c-6.56-6.07-9.17-13.3-11.1-20.07-6.67-38.92-35-110.55-35-204.92,0-146.18,75.32-255.2,25.34-255.2S26.2,139.05,26.2,285.23c0,123.35,71.64,214,124,239.37,12.22,8.13,24.46,16,28,19.37C185.87,551.43,213.61,527,204.84,518.91Z"/><path class="cls-5" d="M173.8,524.6c-49.68-2.51-124-116-124-239.37,0-134.08,85.09-240,144.33-244.46a20.1,20.1,0,0,0-9.65-2c-50,0-157.84,100.32-157.84,246.5,0,123.35,71.64,214,124,239.37,12.22,8.13,24.46,16,28,19.37s10.76.34,17.12-4.7C187.65,540,175.63,531.74,173.8,524.6Z"/><path class="cls-6" d="M228,6.42c-6.38-4.77-13.1-9.79-17.87-3.41,0,0-2.35,2.17-6.07,6.44,4.62,8.51,11.47,14.2,22.18,15.61a83.09,83.09,0,0,1,9.46-4.77C240.5,13.92,234.41,11.18,228,6.42Z"/><path class="cls-6" d="M205.22,518.91q-.6-.55-1.15-1.12c-5.19-1.31-12.84,1.67-19.1,7.93-5.33,5.33-8.28,11.66-8.24,16.63.76.61,1.4,1.15,1.87,1.61C186.25,551.43,214,527,205.22,518.91Z"/><circle class="cls-2" cx="94.29" cy="192.85" r="6.62"/><circle class="cls-2" cx="153.75" cy="203.32" r="6.62"/><path class="cls-2" d="M136.51,228.92c-.34,2.46-7.66,7.44-15.68,6.32s-13.7-7.91-13.36-10.37c0,0,5.63,7.13,13.65,8.25S136.51,228.92,136.51,228.92Z"/><path class="cls-2" d="M114,165.18c0,1.08-4.42,0-9.88,0s-9.88,1.08-9.88,0,4.42-2,9.88-2S114,164.09,114,165.18Z"/><path class="cls-2" d="M150,171.51c-.42,1,4,1.69,8.88,3.76s8.46,4.76,8.88,3.76-3.21-3.49-8.11-5.57S150.39,170.51,150,171.51Z"/><path class="cls-2" d="M24,324.11c-3.62,36.45,2.19,52-4.47,60.21-4,4.88-8.38-15.72-5-49.87s19-62.37,22.36-62C46.32,273.35,26.77,295.94,24,324.11Z"/><path class="cls-3" d="M47.17,373.08a25.63,25.63,0,0,0-10.22-7.88,1.73,1.73,0,0,0,.22-.79c0-2.82-7.56-5.1-16.9-5.1s-16.9,2.28-16.9,5.1c0,1.45,2,2.75,5.19,3.68a25.84,25.84,0,0,0-7.5,18.62c0,13.28,9.13,24,20.39,24,19.75,0,15.71-9.34,15.71-22.62,0-1.46-.06-2.91-.17-4.34,4.29,4.83,9.51,7.05,12.4,5C52.69,386.43,51.69,379.4,47.17,373.08Z"/></g></g></svg>