<svg xmlns="http://www.w3.org/2000/svg" viewBox="0 0 367.99 743.89"><defs><style>.cls-1{fill:#34b2e6;}.cls-2{fill:#231f20;}.cls-3{fill:#e8ecee;stroke:#231f20;stroke-miterlimit:10;stroke-width:1.95px;}.cls-4{fill:#ffd469;}.cls-5{fill:#fee96b;}.cls-6{fill:#b5c962;}.cls-7{fill:#cad86e;}</style></defs><title>corn</title><g id="Layer_2" data-name="Layer 2"><g id="drinks_and_fruits" data-name="drinks and fruits"><ellipse class="cls-1" cx="172.76" cy="733.08" rx="78.96" ry="10.82"/><path class="cls-2" d="M238.14,737.27c4-.46,12-2.52,10.39-8.86C242.24,703.95,238,625.94,238,625.94c.06-6.55,5.55-28.54.28-28.59L233.37,626c-5.27-.05-4.69,3.63-4.4,10.17,3.36,74.9-1.26,82.65-1.26,82.65C173.32,739.66,220.48,739.32,238.14,737.27Z"/><path class="cls-2" d="M186.75,736.21c4-.19,12.16-1.7,11-8.14-4.61-24.83-3.57-102.94-3.57-102.94.51-6.53,7.47-28.1,2.22-28.5l-6.84,28.28c-5.26-.41-4.93,3.31-5.08,9.85-1.72,75-6.85,82.37-6.85,82.37C121.92,734.2,169,737.05,186.75,736.21Z"/><path class="cls-2" d="M100.86,382.9c-8.36,40.39-3.7,58.5-12.13,66.9-5,5-7.52-18.59.29-56.44s28.69-67.6,32.38-66.84C131.89,328.69,107.33,351.68,100.86,382.9Z"/><path class="cls-3" d="M110,441.06a23.27,23.27,0,0,0-8.48-8.09,1.57,1.57,0,0,0,.27-.69c.27-2.54-6.34-5.33-14.77-6.22s-15.47.45-15.74,3c-.14,1.3,1.54,2.67,4.34,3.81A23.46,23.46,0,0,0,67.07,449c-1.27,12,6,22.58,16.12,23.65,17.83,1.88,15.07-6.94,16.34-18.93.14-1.32.23-2.64.26-3.93,3.41,4.77,7.92,7.27,10.72,5.68C113.7,453.63,113.47,447.19,110,441.06Z"/><path class="cls-4" d="M338.27,241a19.54,19.54,0,0,0-9.17-16.56,19.55,19.55,0,0,0-3.94-28.4A19.54,19.54,0,0,0,316.4,171l-.44-2a19.49,19.49,0,0,0-5.19-25.64,19.54,19.54,0,0,0-3.09-27.61,19.49,19.49,0,0,0-7.3-24.87,19.51,19.51,0,0,0-10.19-25A19.53,19.53,0,0,0,274,36.32a19.52,19.52,0,0,0-19.22-23.2c-.55,0-1.1,0-1.64.08a19.56,19.56,0,0,0-37.06.21,19.52,19.52,0,0,0-22.47,22.92,19.55,19.55,0,0,0-16.22,29,19.49,19.49,0,0,0-11.74,24.81,19.53,19.53,0,0,0-7.45,27.35,19.53,19.53,0,0,0-11,23.46,19.48,19.48,0,0,0-4.13,22.42,19.52,19.52,0,0,0-3.46,26.72,19.56,19.56,0,0,0,4.18,37.33c-5.65,29.94-11.47,61.57-17.93,93.78,43.69-20.7,94.5-32.58,148.74-32.58a363,363,0,0,1,61.86,5.28Q334,274.68,331.32,256A19.52,19.52,0,0,0,338.27,241Z"/><path class="cls-5" d="M315.55,256a19.54,19.54,0,0,0-2.22-31.51,19.55,19.55,0,0,0-3.94-28.4A19.54,19.54,0,0,0,300.63,171l-.44-2A19.49,19.49,0,0,0,295,143.29a19.54,19.54,0,0,0-3.09-27.61,19.49,19.49,0,0,0-7.3-24.87,19.51,19.51,0,0,0-10.19-25,19.53,19.53,0,0,0-16.16-29.54A19.52,19.52,0,0,0,239,13.12c-.55,0-1.1,0-1.64.08A19.64,19.64,0,0,0,227.33,1.92a19.63,19.63,0,0,0-10.14,11.49,19.52,19.52,0,0,0-22.47,22.92,19.55,19.55,0,0,0-16.22,29,19.49,19.49,0,0,0-11.74,24.81,19.53,19.53,0,0,0-7.45,27.35,19.53,19.53,0,0,0-11,23.46,19.48,19.48,0,0,0-4.13,22.42,19.52,19.52,0,0,0-3.46,26.72,19.56,19.56,0,0,0,4.18,37.33c-5.18,27.45-10.51,56.32-16.33,85.75,39.31-15.71,83.53-24.54,130.29-24.54q4.25,0,8.46.1c2.79-.06,5.58-.1,8.38-.1a364.45,364.45,0,0,1,44.69,2.76Q318.08,273.45,315.55,256Z"/><path class="cls-6" d="M181.78,280.45C85.56,297.29,147,632.94,188.87,644.94c69.77,20,123-96.45,145.49-216.1,23.48-124.67,59.22-227.65,2-298.85C323.77,114.29,424.88,237.91,181.78,280.45Z"/><path class="cls-7" d="M232,325.89c41.65,91.94,12.23,300.91-31.18,315.81-62.8,21.56-82-206.34-105.86-326C70.1,191,28.48,191.69,2.5,191.69-21.75,191.69,136.15,114.22,232,325.89Z"/><circle class="cls-2" cx="180.83" cy="147.13" r="6.74"/><circle class="cls-2" cx="253.62" cy="150.58" r="6.74"/><path class="cls-2" d="M243.1,167.23c.73,3-5.41,12-15.13,14.43s-19.35-2.83-20.08-5.82c0,0,9.73,5.62,19.45,3.24S243.1,167.23,243.1,167.23Z"/><path class="cls-2" d="M192.57,100.11c.41.89-3.65,1.68-8.14,3.75s-7.73,4.65-8.14,3.75,2.9-3.3,7.4-5.37S192.16,99.22,192.57,100.11Z"/><path class="cls-2" d="M270.91,111.63c-.45.87-3.56-1.85-8-4.14s-8.41-3.27-8-4.14,4.38.27,8.78,2.56S271.36,110.76,270.91,111.63Z"/><path class="cls-2" d="M339.65,394.5c4.08,41-2.47,58.56,5,67.8,4.46,5.5,9.44-17.7,5.64-56.16s-21.43-70.24-25.18-69.87C314.48,337.33,336.5,362.78,339.65,394.5Z"/><path class="cls-3" d="M325.16,447.34a23.27,23.27,0,0,1,9.28-7.16,1.57,1.57,0,0,1-.2-.71c0-2.56,6.87-4.63,15.34-4.63s15.34,2.07,15.34,4.63c0,1.31-1.81,2.49-4.72,3.34A23.46,23.46,0,0,1,367,459.72c0,12.06-8.29,21.83-18.51,21.83-17.93,0-14.26-8.48-14.26-20.54,0-1.33.05-2.65.15-3.94-3.89,4.39-8.64,6.4-11.26,4.53C320.15,459.46,321.05,453.08,325.16,447.34Z"/></g></g></svg>