<svg xmlns="http://www.w3.org/2000/svg" viewBox="0 0 2820.4 460.7"><defs><style>.cls-1{fill:#55c5e8;}.cls-2{fill:#2b3990;}.cls-3{fill:#384ba0;}.cls-4{fill:#5168b1;}.cls-5{fill:#39b54a;}.cls-6{fill:#8dc63f;}.cls-7{fill:#d7df23;}.cls-8{fill:#f9ed32;}.cls-9{fill:#008184;}.cls-10{fill:#00a79d;}.cls-11{fill:#fff;}.cls-12{fill:#e6e7e8;}.cls-13{fill:#231f20;}.cls-14{fill:#1b75bc;}.cls-15{fill:#e8ecee;stroke:#231f20;stroke-miterlimit:10;stroke-width:0.66px;}.cls-16{fill:#044926;}.cls-17{fill:#006838;}</style></defs><title>desk-sc6</title><g id="Layer_2" data-name="Layer 2"><g id="drinks_and_fruits" data-name="drinks and fruits"><path class="cls-1" d="M1440.4,281.42c-177.94,0-314.19,2.74-419.27,7.12C909.48,262.6,783.51,243.42,654.4,243.42c-392.12,0-644,161.46-644,183s-112,45,606,29c141.28-3.15,308-1.43,455.71-.24q36.14.44,75.29.55c77,.47,145.9.49,199.21-.84,740.79-2.6,1475.71,32.39,1473.79-67.47C2819.26,328.34,2186,281.42,1440.4,281.42Z"/><rect class="cls-2" x="283.04" y="0.23" width="1946.42" height="319.13"/><polygon class="cls-3" points="283.02 319.32 18.87 457.64 0 50.68 283.11 0.27 283.02 319.32"/><rect class="cls-4" x="0.39" y="51.09" width="21.74" height="405.47"/><polygon class="cls-4" points="290.63 0 22.13 54.35 0.39 52.18 290.63 0"/><polygon class="cls-5" points="290.63 420 237 453.34 237 293.9 291.35 268.54 290.63 420"/><rect class="cls-6" x="71.77" y="291.73" width="165.95" height="161.61"/><polygon class="cls-6" points="334.11 248.97 237.72 293.9 236.28 280.86 310.19 238.1 334.11 248.97"/><rect class="cls-7" x="71.05" y="280.86" width="166.68" height="13.02"/><rect class="cls-6" x="306.57" y="235.2" width="310.89" height="14.19"/><rect class="cls-7" x="284.83" y="199.69" width="391.33" height="41.31"/><polygon class="cls-8" points="237.36 281.22 71.05 280.86 284.83 199.69 327.95 241 237.36 281.22"/><polygon class="cls-3" points="2229.38 319.32 2493.53 457.64 2512.4 50.68 2229.29 0.27 2229.38 319.32"/><rect class="cls-4" x="2490.27" y="51.09" width="21.74" height="405.47" transform="translate(5002.28 507.65) rotate(-180)"/><polygon class="cls-4" points="2221.77 0 2490.27 54.35 2512.01 52.18 2221.77 0"/><polygon class="cls-3" points="785.55 319.33 622.54 457.65 610.9 50.69 785.61 0.28 785.55 319.33"/><polygon class="cls-4" points="614.87 51.1 611.14 51.1 611.14 456.57 624.55 456.57 624.55 54.36 790.25 0.01 614.87 51.1"/><path class="cls-9" d="M901,307.09l121.77,25a3.21,3.21,0,0,0,2.77-.8l62.81-42.1c3.08.77,1.38-5.76-1.28-6.15L953.58,263.77c-1-.15-9,2.64-9.74,3.33L898.74,302C896.87,303.77,898.49,306.61,901,307.09Z"/><path class="cls-10" d="M1024.28,340.37c15.47-7.5,62.82-38.15,62.82-38.15,2.14-2,3.33-6,3.33-9l-.51-6.15-72,43.83-2.06,8.64S1022.33,341.32,1024.28,340.37Z"/><polygon class="cls-5" points="2221.94 413.48 2275.56 446.81 2275.56 287.38 2221.21 262.02 2221.94 413.48"/><rect class="cls-6" x="2274.84" y="285.21" width="165.95" height="161.61" transform="translate(4715.63 732.02) rotate(-180)"/><polygon class="cls-6" points="2178.45 242.45 2274.84 287.38 2276.29 274.34 2202.37 231.58 2178.45 242.45"/><rect class="cls-7" x="2274.84" y="274.34" width="166.68" height="13.02" transform="translate(4716.36 561.7) rotate(-180)"/><rect class="cls-6" x="1895.1" y="228.68" width="310.89" height="14.19" transform="translate(4101.09 471.55) rotate(-180)"/><rect class="cls-7" x="1836.4" y="193.17" width="391.33" height="41.31" transform="translate(4064.13 427.65) rotate(-180)"/><polygon class="cls-8" points="2275.2 274.7 2441.52 274.34 2227.73 193.17 2184.61 234.48 2275.2 274.7"/><polygon class="cls-11" points="344.36 214.66 344.87 196.3 294.39 196.3 295.45 221.73 294.93 221.81 300.24 227.12 353.9 219.68 344.36 214.66"/><rect class="cls-6" x="1083.98" y="295.9" width="165.95" height="149.44" transform="translate(2333.92 741.24) rotate(-180)"/><rect class="cls-7" x="1083.98" y="285.03" width="166.68" height="13.02" transform="translate(2334.65 583.08) rotate(-180)"/><polygon class="cls-6" points="725.01 253.56 1104.43 253.56 1104.43 239.37 724.9 242.99 725.01 253.56"/><polygon class="cls-7" points="725.08 243.18 1248.49 241.54 1248.49 200.24 785.96 200.42 725.08 243.18"/><polygon class="cls-8" points="1084.35 285.39 1250.66 285.03 1249.99 200.08 1102.65 241 1084.35 285.39"/><path class="cls-9" d="M1598.72,311.61l-121.77,25a3.21,3.21,0,0,1-2.77-.8l-62.81-42.1c-3.08.77-1.38-5.76,1.28-6.15l133.53-19.22c1-.15,9,2.64,9.74,3.33L1601,306.49C1602.89,308.3,1601.27,311.13,1598.72,311.61Z"/><path class="cls-10" d="M1475.48,344.9c-15.47-7.5-62.82-38.15-62.82-38.15-2.14-2-3.33-6-3.33-9l.51-6.15,72,43.83,2.06,8.64S1477.43,345.84,1475.48,344.9Z"/><path class="cls-12" d="M1517.69,367.58l.8-41.15-9.94-.19-.81,41.6-65.21,15.09.18.12-.23-.06.36,20.67,6.41-2.09s.67-10.46,1.3-14.27c0,0,0,0,0,0l52.88-10.59L1490.54,405h-.09l.91,12.06,6.12-.38,1.75-12.16,18.94-27,58.84,9.35c.94,2.88.32,12.2.32,12.2l6.6,2.34,3.12-18.23Z"/><ellipse class="cls-13" cx="1446.63" cy="401.79" rx="8.31" ry="8.73" transform="translate(1016.9 1840.37) rotate(-88.89)"/><ellipse class="cls-13" cx="1494.44" cy="417.27" rx="9.29" ry="7.72" transform="translate(1048.32 1903.35) rotate(-88.89)"/><ellipse class="cls-13" cx="1580.27" cy="397.45" rx="8.31" ry="8.73" transform="translate(1152.3 1969.73) rotate(-88.89)"/><polygon class="cls-3" points="1729.03 319.33 1885.77 457.65 1896.96 50.69 1728.97 0.28 1729.03 319.33"/><rect class="cls-4" x="1883.83" y="51.1" width="12.9" height="405.47" transform="translate(3780.57 507.67) rotate(-180)"/><polygon class="cls-4" points="1724.51 0.01 1883.83 54.36 1896.73 52.19 1724.51 0.01"/><rect class="cls-6" x="1263.68" y="295.9" width="165.95" height="149.12"/><rect class="cls-7" x="1262.96" y="285.03" width="166.68" height="13.02"/><polygon class="cls-6" points="1788.62 253.56 1409.19 253.56 1409.19 239.37 1788.72 242.99 1788.62 253.56"/><polygon class="cls-7" points="1788.54 243.18 1265.13 241.54 1265.13 200.24 1727.67 200.42 1788.54 243.18"/><polygon class="cls-8" points="1429.27 285.39 1262.96 285.03 1263.54 200.08 1410.98 241 1429.27 285.39"/><path class="cls-12" d="M1057,378.52l.18-.12L992,363.31l-.81-41.6-9.93.19.8,41.15-69.37,15.59,3.12,18.23,6.6-2.34s-.62-9.32.32-12.2L981.59,373l18.82,26.85.61,11.33,7.29,1.27.58-11.84.4,0-.36-.79,0-.38h-.19l-12.42-27.28,52.88,10.59s0,0,0,0c.62,3.81,1.3,14.27,1.3,14.27l6.41,2.09.36-20.67Z"/><ellipse class="cls-13" cx="1053.14" cy="397.27" rx="8.73" ry="8.31" transform="translate(-7.49 20.46) rotate(-1.11)"/><ellipse class="cls-13" cx="1004.9" cy="413.43" rx="7.72" ry="9.29" transform="translate(-7.82 19.53) rotate(-1.11)"/><ellipse class="cls-13" cx="919.49" cy="392.93" rx="8.73" ry="8.31" transform="translate(-7.43 17.87) rotate(-1.11)"/><polygon class="cls-11" points="388.16 195.39 251.88 210.93 236.34 111.71 378.59 109.32 388.16 195.39"/><polygon class="cls-12" points="300.67 227.15 300.67 227.12 295.95 220.93 295.97 220.93 295.06 208.92 289.35 209.99 291.7 220.93 291.87 221.67 299.9 231.08 299.87 231.4 353.47 222.94 353.87 219.75 300.67 227.15"/><polygon class="cls-12" points="388.04 195.5 252.05 210.19 236.42 111.81 231.83 116.99 247.08 215.37 247.14 215.31 383.06 200.68 388.04 195.5"/><rect class="cls-4" x="1247.6" y="0.44" width="18.43" height="456.47"/><path class="cls-9" d="M477.83,309.66,353.52,333a3.16,3.16,0,0,1-2.72-.78l-47.56-43.9a3.16,3.16,0,0,1,1.68-5.44l130.66-19.41a3.16,3.16,0,0,1,2.66.86l41.21,40A3.16,3.16,0,0,1,477.83,309.66Z"/><path class="cls-10" d="M352.07,341.16c-15.22-7.38-46.64-41.89-46.64-41.89-2.1-2-2.92-6.11-2.92-9l-.34-4.38,50.42,46.87,7.78,7.61S354,342.09,352.07,341.16Z"/><path class="cls-12" d="M408.73,359.19l.78-40.49-9.77-.19L399,359.45,334.79,374.3l.18.11-.22-.06.35,20.33,6.31-2.06s.66-10.29,1.28-14c0,0,0,0,0,0l52-10.42L382,396h-.09l.89,11.87,6-.37,1.72-12L409.21,369l57.89,9.2c.92,2.83.31,12,.31,12l6.5,2.31L477,374.54Z"/><path class="cls-10" d="M476.9,320.86,361,340.28a7.71,7.71,0,0,1-9-7.92l5.18-125.84a7.71,7.71,0,0,1,6.71-7.33L485.3,183.41a7.71,7.71,0,0,1,8.67,8.32l-10.67,122.2A7.71,7.71,0,0,1,476.9,320.86Z"/><ellipse class="cls-13" cx="338.82" cy="392.85" rx="8.18" ry="8.59" transform="matrix(0.02, -1, 1, 0.02, -60.52, 724)"/><ellipse class="cls-13" cx="385.72" cy="408.3" rx="9.14" ry="7.59" transform="translate(-29.97 786.05) rotate(-88.89)"/><ellipse class="cls-13" cx="470.31" cy="388.58" rx="8.18" ry="8.59" transform="translate(72.69 851.28) rotate(-88.89)"/><path class="cls-10" d="M1591.54,316.48l-107,27.52c-4.91.82-3.4-2.81-3.2-7.78l17.17-128.66c.16-3.81,7.75-11.3,11.53-11.79l95.59-18.2a7.78,7.78,0,0,1,9,8.2l-11,122.76C1603.28,312.1,1595.06,315.89,1591.54,316.48Z"/><path class="cls-9" d="M2028.81,301.28l124.31,23.31a3.16,3.16,0,0,0,2.72-.78l47.56-43.9a3.16,3.16,0,0,0-1.68-5.44l-130.66-19.41a3.16,3.16,0,0,0-2.66.86l-41.21,40A3.16,3.16,0,0,0,2028.81,301.28Z"/><path class="cls-10" d="M2154.57,332.77c15.22-7.38,46.64-41.89,46.64-41.89,2.1-2,2.92-6.11,2.92-9l.34-4.38L2154,324.36l-7.78,7.61S2152.64,333.71,2154.57,332.77Z"/><path class="cls-12" d="M2171.67,366l.18-.11-64.16-14.85-.79-40.93-9.77.19.78,40.49-68.25,15.34,3.07,17.93,6.5-2.31s-.61-9.17.31-12l57.89-9.2,18.63,26.59,1.72,12,6,.37.89-11.87h-.09l-12.69-27.86,52,10.42s0,0,0,0c.61,3.75,1.28,14,1.28,14l6.31,2.06.35-20.33Z"/><path class="cls-10" d="M2029.74,312.47l115.92,19.42a7.71,7.71,0,0,0,9-7.92l-5.18-125.84a7.71,7.71,0,0,0-6.71-7.33L2021.34,175a7.71,7.71,0,0,0-8.67,8.32l10.67,122.2A7.71,7.71,0,0,0,2029.74,312.47Z"/><ellipse class="cls-13" cx="2167.82" cy="384.47" rx="8.59" ry="8.18" transform="translate(-7.04 42.04) rotate(-1.11)"/><ellipse class="cls-13" cx="2120.37" cy="396.95" rx="7.59" ry="9.14" transform="translate(-7.29 41.12) rotate(-1.11)"/><ellipse class="cls-13" cx="2036.33" cy="380.2" rx="8.59" ry="8.18" transform="translate(-6.98 39.49) rotate(-1.11)"/><path class="cls-10" d="M908.22,312l107,27.52c4.91.82,3.4-2.81,3.2-7.78L1001.25,203c-.16-3.81-7.75-11.3-11.53-11.79L894.12,173a7.78,7.78,0,0,0-9,8.2l11,122.76C896.49,307.57,904.7,311.37,908.22,312Z"/><polygon class="cls-14" points="378.08 191.31 263.31 200.34 250.56 118.52 370.11 116.39 378.08 191.31"/><polygon class="cls-11" points="174.8 253.4 228.23 254.28 287.62 229.11 243.51 227.95 174.8 253.4"/><polygon class="cls-12" points="229.28 253.12 174.45 253.12 174.45 259.47 229.06 259.47 229.09 259.69 287.13 232.57 287.55 229.19 229.28 253.12"/><polygon class="cls-11" points="2188.32 212 2187.81 193.65 2238.28 193.65 2237.22 219.07 2237.75 219.15 2232.44 224.46 2178.78 217.02 2188.32 212"/><polygon class="cls-11" points="2144.52 192.73 2280.8 208.27 2296.34 109.05 2154.09 106.66 2144.52 192.73"/><polygon class="cls-12" points="2232.01 224.49 2232.01 224.46 2236.72 218.27 2236.7 218.27 2237.62 206.26 2243.33 207.33 2240.97 218.27 2240.81 219.02 2232.78 228.42 2232.8 228.75 2179.21 220.28 2178.81 217.09 2232.01 224.49"/><polygon class="cls-12" points="2144.64 192.84 2280.63 207.53 2296.26 109.16 2300.85 114.33 2285.6 212.71 2285.54 212.66 2149.62 198.02 2144.64 192.84"/><polygon class="cls-14" points="2154.6 188.65 2269.36 197.69 2282.12 115.86 2162.57 113.74 2154.6 188.65"/><polygon class="cls-11" points="2357.88 250.74 2304.45 251.62 2245.06 226.46 2289.17 225.29 2357.88 250.74"/><polygon class="cls-12" points="2303.4 250.46 2358.23 250.46 2358.23 256.81 2303.62 256.81 2303.59 257.03 2245.55 229.92 2245.13 226.53 2303.4 250.46"/><polygon class="cls-11" points="1086.35 213.59 1085.84 195.24 1140 195.24 1135.26 220.66 1135.78 220.74 1130.47 226.06 1075.05 220.74 1086.35 213.59"/><polygon class="cls-11" points="1045.16 199.62 1178.83 209.87 1189.81 110.76 1052.12 108.25 1045.16 199.62"/><polygon class="cls-12" points="1130.04 226.09 1130.04 226.06 1134.76 219.87 1134.73 219.87 1137.61 207.99 1141.36 208.92 1139 219.87 1138.84 220.61 1130.81 230.02 1130.84 230.34 1075.44 225.13 1075.05 220.74 1130.04 226.09"/><polygon class="cls-12" points="1045.16 199.62 1178.66 209.12 1189.81 110.76 1194.19 115.54 1181.44 213.97 1178.65 213.57 1048.35 204.01 1045.16 199.62"/><polygon class="cls-14" points="1056.71 191.65 1168.69 198.69 1177.46 118.33 1062.69 115.14 1056.71 191.65"/><polygon class="cls-11" points="1191.01 257.14 1140 256.87 1144.38 230.71 1183.83 230.31 1191.01 257.14"/><polygon class="cls-12" points="1139.77 256.21 1190.87 256.81 1189.94 264.05 1139.73 263.52 1139.77 256.21"/><polygon class="cls-11" points="1429.83 214.66 1430.34 196.3 1376.17 196.3 1380.92 221.72 1380.39 221.81 1385.7 227.12 1441.13 221.81 1429.83 214.66"/><polygon class="cls-11" points="1471.02 200.69 1337.34 210.93 1326.36 111.82 1464.06 109.32 1471.02 200.69"/><polygon class="cls-12" points="1386.13 227.15 1386.14 227.12 1381.42 220.93 1381.44 220.93 1378.57 209.06 1374.81 209.98 1377.17 220.93 1377.34 221.67 1385.36 231.08 1385.34 231.4 1440.73 226.19 1441.13 221.81 1386.13 227.15"/><polygon class="cls-12" points="1471.02 200.69 1337.52 210.19 1326.36 111.82 1321.98 116.6 1334.73 215.03 1337.52 214.63 1467.83 205.07 1471.02 200.69"/><polygon class="cls-14" points="1459.46 192.72 1347.48 199.76 1338.72 119.39 1453.48 116.21 1459.46 192.72"/><polygon class="cls-11" points="1325.17 258.2 1376.17 257.94 1371.79 231.77 1332.34 231.37 1325.17 258.2"/><polygon class="cls-12" points="1376.41 257.27 1325.3 257.87 1326.23 265.11 1376.44 264.58 1376.41 257.27"/><path class="cls-13" d="M996.78,317.15c-1.73-.18-5.26-1-4.58-3.81,2.6-10.71,4-44.76,4-44.76-.07-2.86-2.59-12.42-.29-12.47l2.31,12.48c2.3-.05,2.07,1.56,2,4.41-1,32.69,1,36,1,36C1025.07,317.81,1004.49,317.94,996.78,317.15Z"/><path class="cls-13" d="M1019.26,316.61c-1.73-.15-5.27-.94-4.65-3.73,2.41-10.75,3.22-44.82,3.22-44.82-.11-2.86-2.8-12.37-.5-12.46l2.52,12.44c2.3-.09,2.09,1.52,2.05,4.38-.46,32.7,1.65,36,1.65,36C1047.56,316.78,1027,317.27,1019.26,316.61Z"/><path class="cls-13" d="M1039.5,266.71c1.39,14-.84,20,1.72,23.13,1.52,1.87,3.22-6,1.92-19.15s-7.31-24-8.59-23.83C1030.91,247.21,1038.42,255.89,1039.5,266.71Z"/><path class="cls-15" d="M1034.56,284.73a7.94,7.94,0,0,1,3.17-2.44.54.54,0,0,1-.07-.24c0-.87,2.34-1.58,5.23-1.58s5.23.71,5.23,1.58c0,.45-.62.85-1.61,1.14a8,8,0,0,1,2.32,5.77c0,4.11-2.83,7.45-6.31,7.45-6.12,0-4.86-2.89-4.86-7,0-.45,0-.9.05-1.34-1.33,1.5-2.95,2.18-3.84,1.54S1033.16,286.69,1034.56,284.73Z"/><path class="cls-16" d="M976.76,155.52c13.84,0,26.11,5.42,33.77,13.77,7.66-8.36,19.93-13.77,33.77-13.77,23.22,0,42,15.25,42,34.06s-18.82,34.06-42,34.06c-13.84,0-26.11-5.42-33.77-13.77-7.66,8.36-19.93,13.77-33.77,13.77-23.22,0-42-15.25-42-34.06S953.54,155.52,976.76,155.52Z"/><path class="cls-6" d="M989.43,281.34h43c7.41,0,4-5.72,3.7-13.12-2.14-48.36,16.32-75.83,16.32-75.83,0-7.41-8.21-20.26-15.62-20.26,0,0-7.18,23.53-10.88,24.54-11.79,3.22-5.82-19.06-10.45-18.51a51.31,51.31,0,0,1-9.56,0c-4.56-.33.94,20.13-11.73,18.79-3.72-.39-8-24.81-8-24.81-7.41,0-15.31,12-15.31,19.42,0,0,15.87,22.13,15.87,76.67C986.75,275.63,984.17,280.66,989.43,281.34Z"/><path class="cls-17" d="M883.14,145.14a32,32,0,0,1,12.95-25.74c-2.18-15.09,5.43-32.27,20.75-43.39a55.07,55.07,0,0,1,11.61-6.46,32.07,32.07,0,0,1,46.75-21.47c8.44-7.77,20.67-12.66,34.29-12.66,14.49,0,27.42,5.54,35.87,14.19a32.07,32.07,0,0,1,49.2,19.65A54.73,54.73,0,0,1,1109,75.08c18.59,10.73,28.14,30.26,24.37,47a32.06,32.06,0,0,1-7.69,52.88c0,.11,0,.22,0,.33-2.62,20.88-25.22,35.24-50.48,32.07-19.54-2.45-34.93-14.68-39.69-29.76a52.82,52.82,0,0,1-26,6.66,53.55,53.55,0,0,1-22.36-4.78C981.78,192.75,968.32,203.66,951,207c-25,4.83-48.49-8-52.48-28.67a31.88,31.88,0,0,1-.57-6.15A32,32,0,0,1,883.14,145.14Z"/><circle class="cls-13" cx="1029.95" cy="225.27" r="3.45"/><circle class="cls-13" cx="998.66" cy="225.27" r="3.45"/><path class="cls-13" d="M991.78,213c.25.73,3-1,6.69-2.32s6.94-1.59,6.69-2.32-3.46-.29-7.15,1S991.53,212.28,991.78,213Z"/><path class="cls-13" d="M1040,215.49c-.25.73-3-1-6.69-2.32s-6.94-1.59-6.69-2.32,3.46-.29,7.15,1S1040.21,214.76,1040,215.49Z"/><path class="cls-13" d="M983.72,266.71c-1.39,14,.84,20-1.72,23.13-1.52,1.87-3.22-6-1.92-19.15s7.31-24,8.59-23.83C992.31,247.21,984.8,255.89,983.72,266.71Z"/><path class="cls-15" d="M988.67,284.73a7.94,7.94,0,0,0-3.17-2.44.54.54,0,0,0,.07-.24c0-.87-2.34-1.58-5.23-1.58s-5.23.71-5.23,1.58c0,.45.62.85,1.61,1.14a8,8,0,0,0-2.32,5.77c0,4.11,2.83,7.45,6.31,7.45,6.12,0,4.86-2.89,4.86-7,0-.45,0-.9-.05-1.34,1.33,1.5,2.95,2.18,3.84,1.54S990.07,286.69,988.67,284.73Z"/><path class="cls-11" d="M1001.41,234.89c0,2.62,5.46,8.15,12.2,8.15s12.2-5.53,12.2-8.15-5.46-1.71-12.2-1.71S1001.41,232.27,1001.41,234.89Z"/></g></g></svg>