<svg xmlns="http://www.w3.org/2000/svg" viewBox="0 0 304.41 290.13"><defs><style>.cls-1{fill:#34b2e6;}.cls-2{fill:#009444;}.cls-3{fill:#231f20;}.cls-4{fill:#e8ecee;stroke:#231f20;stroke-miterlimit:10;stroke-width:1.89px;}.cls-5{fill:#f7941d;}.cls-6{fill:#f36e24;}.cls-7{fill:#d35461;}</style></defs><title>orange</title><g id="Layer_2" data-name="Layer 2"><g id="Layer_7" data-name="Layer 7"><ellipse class="cls-1" cx="185.96" cy="279.31" rx="78.96" ry="10.82"/><path class="cls-2" d="M302.45,30.88c11.71-4.44-31.22,20.32-66.35,16.24s-68.53-18.69-67-31.75,9.59-19.09,44.42-13C247.73,8.42,280.09,39.36,302.45,30.88Z"/><polygon class="cls-2" points="190.72 45.33 184.96 45.03 184.2 29.72 191.87 31.1 190.72 45.33"/><path class="cls-3" d="M47.44,112.4C26,97.82,20,78.87,14.82,85.36c-1.78,2.25,14.66,27,37.88,38.55,22.46,11.19,32.24,12.9,34,10.65C93.05,126.6,68.89,127,47.44,112.4Z"/><path class="cls-4" d="M.95,83.73c.17-10,8.13-18.66,18.12-18.12C25.74,66,28,71,32.67,77.81c2.46-5,4.17-6.82,9.19-5.06,2.63.92,2.91,6.16.75,11.39A31.37,31.37,0,0,1,38,91.75a2.48,2.48,0,0,1,.86.85c1.39,2.41-1.85,6.89-7.25,10s-10.9,3.69-12.29,1.27a2.82,2.82,0,0,1-.23-2h0C8.69,101.65.78,93.65.95,83.73Z"/><path class="cls-3" d="M184.23,288.05c5.95-.59,12.57-2.35,14.7-3.83,3.13-2.18,1.35-14,1.12-17.13l-3-39.91c-.23-3.09-3.63-2.27-7.83-2h0c-1.56,8-.22,44.31-3.45,46.55-12.6,8.72-27.23,15.75-15.64,16.6A61.78,61.78,0,0,0,184.23,288.05Z"/><path class="cls-3" d="M123.89,281.6c6,0,12.74-1.14,15-2.41,3.32-1.87,2.68-13.85,2.75-16.94l.84-40c.06-3.09-3.39-2.6-7.61-2.69h0c-2.31,7.8-4.44,44.09-7.87,46-13.37,7.48-28.61,13.08-17.15,15A61.78,61.78,0,0,0,123.89,281.6Z"/><ellipse class="cls-5" cx="171.42" cy="137.22" rx="104.09" ry="95.39"/><path class="cls-6" d="M156.92,219.68c55.53,0,100.55-42,100.55-93.74,0-29.67-14.79-56.11-37.87-73.29,33.23,15.93,55.91,47.82,55.91,84.57,0,52.68-46.6,95.39-104.09,95.39-34.29,0-64.71-15.2-83.67-38.65A104.2,104.2,0,0,0,156.92,219.68Z"/><circle class="cls-3" cx="200.76" cy="115.4" r="6.05" transform="translate(74.56 309.55) rotate(-86.87)"/><circle class="cls-3" cx="115" cy="106.56" r="6.05" transform="translate(2.31 215.56) rotate(-86.87)"/><path class="cls-3" d="M191.71,82.25c-.35,1.08,5.53-1,12,1.12s9.94,6.88,10.29,5.8-3.14-5.62-9.65-7.75S192.06,81.17,191.71,82.25Z"/><path class="cls-3" d="M128.21,79.07c.17,1.12-5.16-1.4-11.93-.35s-11,5.12-11.18,4,4.09-5,10.86-6S128,77.94,128.21,79.07Z"/><path class="cls-7" d="M131.82,136.35c1.53,6.07,8.63,11.37,19.42,11.48s18.07-5.06,19.65-11.09c2-7.46-1-10.56-19.42-11.48C130.8,124.24,130.3,130.31,131.82,136.35Z"/><path class="cls-3" d="M273.08,187.52c2.32,25.83-7.44,48.34.85,48.21,2.87,0,11.58-28.45,5.8-53.73-5.59-24.46-10.46-33.11-13.33-33.07C256.22,149.08,270.75,161.68,273.08,187.52Z"/><path class="cls-4" d="M255,216.14A21.58,21.58,0,0,1,265.45,211a3,3,0,0,1-1.52-2.44c.24-2.52,6.19-4,13.29-3.35s12.68,3.25,12.44,5.77c-.1,1.11-1.32,2-3.25,2.64,4.12,2.7,7.06,7.89,4.77,18.55-2.2,10.23-13.95,12.38-22.82,10.67-8.42-1.62-11-6.27-9.56-15.36-2.62,1.15-5.14,1.12-6.59-.33C249.95,224.84,251.17,219.92,255,216.14Z"/></g></g></svg>