<svg xmlns="http://www.w3.org/2000/svg" viewBox="0 0 478.38 799.57"><defs><style>.cls-1{fill:#231f20;}.cls-2{fill:#e8ecee;stroke:#231f20;stroke-miterlimit:10;stroke-width:2.87px;}.cls-3{fill:#aad486;}.cls-4{fill:#c6df91;}.cls-5{fill:#fff;}.cls-6{fill:#8b5e3c;}</style></defs><title>pear</title><g id="Layer_2" data-name="Layer 2"><g id="Layer_14" data-name="Layer 14"><path class="cls-1" d="M409.61,461.31c6,60.56-3.64,86.4,7.43,100,6.58,8.11,13.92-26.11,8.32-82.85s-31.62-103.62-37.15-103.08C372.48,377,405,414.51,409.61,461.31Z"/><path class="cls-2" d="M388.23,539.27c3.22-4.5,8.65-8.38,13.69-10.56a2.32,2.32,0,0,1-.3-1.05c0-3.77,10.13-6.84,22.63-6.84s22.63,3.06,22.63,6.84c0,1.94-2.68,3.68-7,4.92,6.13,5.91,10,14.89,10,24.95,0,17.79-12.23,32.21-27.31,32.21-26.46,0-21-12.52-21-30.3,0-2,.08-3.9.23-5.81-5.75,6.48-12.74,9.44-16.61,6.68C380.84,557.15,382.18,547.73,388.23,539.27Z"/><path class="cls-1" d="M201.21,799.32c-5.74-.31-17.5-2.56-15.72-11.83,6.86-35.73,6.08-148.27,6.08-148.27-.67-9.41-10.51-40.54-2.93-41.08l9.59,40.8c7.58-.54,7.06,4.81,7.22,14.24,1.79,108,9.12,118.73,9.12,118.73C294.62,797,226.78,800.71,201.21,799.32Z"/><path class="cls-1" d="M309.16,793.33c-5.74-.31-17.5-2.56-15.72-11.83,6.86-35.73,6.08-148.27,6.08-148.27-.67-9.41-10.51-40.54-2.93-41.08l9.59,40.8c7.58-.54,7.06,4.81,7.22,14.24,1.79,108,9.12,118.73,9.12,118.73C402.58,791,334.73,794.72,309.16,793.33Z"/><path class="cls-3" d="M444.58,382.11c110.17,125-81.57,302-210.38,302S-70,522.44,29.12,392c76-100,73-321.33,201.84-321.33S333.75,256.37,444.58,382.11Z"/><path class="cls-4" d="M445.54,382.11C334.71,256.37,360.72,70.65,231.92,70.65q-4.32,0-8.44.33c-105,24-118.22,197.7-154,308.85C21.75,528.44,146.14,681.2,274.61,672a226.66,226.66,0,0,0,43.18-7.58C429,614.81,533.48,481.89,445.54,382.11Z"/><circle class="cls-1" cx="202.17" cy="250.2" r="8.67"/><circle class="cls-1" cx="329.96" cy="250.06" r="8.67"/><path class="cls-5" d="M313.2,291.06c0,11.09-16.46,20.08-36.76,20.08s-36.76-9-36.76-20.08,16.46-6.63,36.76-6.63S313.2,280,313.2,291.06Z"/><path class="cls-6" d="M231.32,77.9s-5.06-4.06-4-12.35c-.95.58,3.06-40.36,9.29-57.21,2.9-7.85,6.4-9.09,14.69-8h0c8.3,1.1,15.8,8.63,14.7,16.93,0,0-22.19,17.74-24.09,52.37C241.49,78,239.62,79,231.32,77.9Z"/><path class="cls-1" d="M342.93,200.56c-.56,1.61-6.57-2.28-14.67-5.09S313,192,313.58,190.38s7.58-.64,15.68,2.18S343.49,198.95,342.93,200.56Z"/><path class="cls-1" d="M188.22,201.63c.68,1.56,6.37-2.79,14.23-6.22s14.91-4.66,14.23-6.22-7.61,0-15.47,3.4S187.54,200.07,188.22,201.63Z"/><path class="cls-1" d="M65.28,459.06c-6,60.56,3.64,86.4-7.43,100-6.58,8.11-13.92-26.11-8.32-82.85S81.15,372.62,86.68,373.17C102.41,374.72,69.93,412.25,65.28,459.06Z"/><path class="cls-2" d="M86.66,537c-3.22-4.5-8.65-8.38-13.69-10.56a2.32,2.32,0,0,0,.3-1.05c0-3.77-10.13-6.84-22.63-6.84S28,521.63,28,525.4c0,1.94,2.68,3.68,7,4.92-6.13,5.91-10,14.89-10,24.95,0,17.79,12.23,32.21,27.31,32.21,26.46,0,21-12.52,21-30.3,0-2-.08-3.9-.23-5.81,5.75,6.48,12.74,9.44,16.61,6.68C94,554.89,92.71,545.48,86.66,537Z"/></g></g></svg>