<svg xmlns="http://www.w3.org/2000/svg" viewBox="0 0 341.83 577.87"><defs><style>.cls-1{fill:#34b2e6;}.cls-2{fill:#231f20;}.cls-3{fill:#e8ecee;stroke:#231f20;stroke-miterlimit:10;stroke-width:2.05px;}.cls-4{fill:#afc671;}.cls-5{fill:#c6df91;}.cls-6{fill:#fff;}.cls-7{fill:#8b5e3c;}</style></defs><title>pear</title><g id="Layer_2" data-name="Layer 2"><g id="drinks_and_fruits" data-name="drinks and fruits"><ellipse class="cls-1" cx="221.19" cy="564.96" rx="88.71" ry="12.91"/><path class="cls-2" d="M292.69,329.64c4.3,43.27-2.6,61.74,5.31,71.48,4.7,5.79,9.95-18.66,5.95-59.2s-22.59-74-26.55-73.65C266.16,269.37,289.37,296.19,292.69,329.64Z"/><path class="cls-3" d="M277.41,385.34a24.53,24.53,0,0,1,9.79-7.55A1.66,1.66,0,0,1,287,377c0-2.7,7.24-4.88,16.17-4.88s16.17,2.19,16.17,4.88c0,1.38-1.91,2.63-5,3.52a24.73,24.73,0,0,1,7.17,17.83c0,12.71-8.74,23-19.52,23-18.9,0-15-8.94-15-21.65,0-1.4.06-2.79.16-4.15-4.11,4.63-9.1,6.75-11.87,4.77C272.13,398.11,273.09,391.39,277.41,385.34Z"/><path class="cls-2" d="M143.78,571.16c-4.1-.22-12.51-1.83-11.23-8.45,4.91-25.53,4.35-105.95,4.35-105.95-.48-6.73-7.51-29-2.1-29.36l6.85,29.15c5.41-.38,5,3.43,5.16,10.17,1.28,77.17,6.52,84.84,6.52,84.84C210.53,569.52,162,572.15,143.78,571.16Z"/><path class="cls-2" d="M220.91,566.89c-4.1-.22-12.51-1.83-11.23-8.45C214.59,532.9,214,452.49,214,452.49c-.48-6.73-7.51-29-2.1-29.36l6.85,29.15c5.41-.38,5,3.43,5.16,10.17,1.28,77.17,6.52,84.84,6.52,84.84C287.67,565.24,239.19,567.87,220.91,566.89Z"/><path class="cls-4" d="M317.68,273c78.73,89.32-58.29,215.8-150.33,215.8S-50,373.31,20.81,280.1C75.13,208.61,73,50.49,165,50.49S238.49,183.19,317.68,273Z"/><path class="cls-5" d="M318.36,273c-79.19-89.84-60.6-222.55-152.64-222.55q-3.08,0-6,.24c-75,17.18-84.47,141.27-110,220.69C15.54,377.61,104.43,486.76,196.23,480.16a162,162,0,0,0,30.86-5.42C306.57,439.32,381.21,344.34,318.36,273Z"/><circle class="cls-2" cx="144.46" cy="178.78" r="6.19"/><circle class="cls-2" cx="235.78" cy="178.68" r="6.19"/><path class="cls-6" d="M223.8,208c0,7.92-11.76,14.35-26.27,14.35S171.26,215.9,171.26,208s11.76-4.74,26.27-4.74S223.8,200.05,223.8,208Z"/><path class="cls-7" d="M165.29,55.67s-3.61-2.9-2.83-8.83c-.68.41,2.19-28.84,6.64-40.88,2.07-5.61,4.57-6.5,10.5-5.71h0c5.93.78,11.29,6.17,10.5,12.1,0,0-15.86,12.67-17.21,37.42C172.56,55.74,171.22,56.45,165.29,55.67Z"/><path class="cls-2" d="M245,143.31c-.4,1.15-4.69-1.63-10.48-3.64s-10.88-2.49-10.48-3.64,5.42-.45,11.21,1.55S245.44,142.16,245,143.31Z"/><path class="cls-2" d="M134.5,144.08c.49,1.12,4.55-2,10.17-4.45s10.66-3.33,10.17-4.45-5.44,0-11.05,2.43S134,143,134.5,144.08Z"/><path class="cls-2" d="M46.65,328c-4.3,43.27,2.6,61.74-5.31,71.48-4.7,5.79-9.95-18.66-5.95-59.2s22.59-74,26.55-73.65C73.18,267.76,50,294.58,46.65,328Z"/><path class="cls-3" d="M61.92,383.73a24.53,24.53,0,0,0-9.79-7.55,1.66,1.66,0,0,0,.21-.75c0-2.7-7.24-4.88-16.17-4.88S20,372.73,20,375.43c0,1.38,1.91,2.63,5,3.52a24.73,24.73,0,0,0-7.17,17.83c0,12.71,8.74,23,19.52,23,18.9,0,15-8.94,15-21.65,0-1.4-.06-2.79-.16-4.15,4.11,4.63,9.1,6.75,11.87,4.77C67.2,396.5,66.25,389.78,61.92,383.73Z"/></g></g></svg>