<svg xmlns="http://www.w3.org/2000/svg" viewBox="0 0 3499.43 1718"><defs><style>.cls-1{fill:#1db9e2;}.cls-2{fill:#7dd2f1;}.cls-3{fill:#34b2e6;}</style></defs><title>scene6-background</title><g id="Layer_2" data-name="Layer 2"><g id="Layer_2-2" data-name="Layer 2"><rect class="cls-1" width="3494" height="1718"/><path class="cls-2" d="M723.77,534.74l-20.84,13,9-22.89-24.28-3.53,21.62-11.63-16.38-18.42,23.73,5V472.21L731.53,491l14.81-18.85v24.11l23.76-5-16.38,18.37,21.72,11.68L751,524.76l9.19,22.94-20.93-13L731.53,558Z"/><path class="cls-2" d="M444,110l118.22,27.65L525,23.37l3.1-2.49,79.1,91.32L641.85,3.51,647.7,3l11.42,113.88L757.3,45.78l2.14,2.38L696.62,152.35,816,152l1.75,4.09-110.42,47.1,93.94,68-1.59,5L686.32,250,721.05,359.7l-4.81,2.64-75.6-86.76L604.53,389l-4.45-.17L589.34,270l-93.75,68.19-4-3.66,59.62-99.09-120.72,0-.46-3.88L540.9,184.51l-98.21-71.2Z"/><path class="cls-2" d="M951.63,402.46l-73.15,17.3L929.72,365,878.22,310l73.47,17.28,21.64-71.94,22.1,71.85,68.26-16.29,1.71,2.33-48.63,51.81,49,51.34-1,2.42-69.39-16.15-22,71.5Zm36-13,46.49,10.71-32.31-35.49,32.47-35.13-46.42,10.62-14.3-44.37L958.9,340.22l-46.85-10.47,33.15,35.17L912.59,400l46.19-10.14,14.59,44.84Z"/><path class="cls-2" d="M2805.68,217.09l-11,36.91-1.14-.25,6.46-38.47-22.8,25.08-1.2-1,17.3-25-.75-1.44-27.61,10.88-.67-1.48,28.05-16-37.21-2.52,0-1.06,37.42-2.36-32.74-18.55.5-1.08,34.59,14-17.33-25.17,1.27-1.23,21.19,22.8-6.48-38.71,1-.28,11.17,37.35L2816,155l1.21.2-5.35,35.66,23.14-25.5,1.16.81-19.66,28.59,32-12.71.58,1.29-27.67,15.61.57,1.66,34.68,2.22,0,1.11L2822,206.06l-.42,1.67L2850.27,224l-.53,1.27L2816.63,212,2833,236l-1.29,1.19-19.83-21,5.53,35.45-1.24.3Z"/><path class="cls-2" d="M3082.1,184.55c21.06-16.1,42.64-33.38,65.08-49.44,12.47-8.93,18.76-18.15,16.88-34.84-3.16-28-3.14-56.41-4.62-88.13,22.42,15.33,44.16,27.85,63,43.76,18.56,15.65,35.17,17.88,57.05,7.07s45.78-17.43,68-25.61c-7.48,29.31-14.31,58.36-22.5,87-3.18,11.13-3.07,19.06,5.27,28.58,19.72,22.51,37.74,46.52,58.33,72.29-33.27.93-63.7,2.49-94.12,2.26-11.69-.09-17.75,4.1-23.63,13.59-15.76,25.47-32.68,50.21-51.1,78.22C3209.08,289,3198.68,261.77,3190,234c-4.17-13.31-11.44-19.38-24.82-23C3137.39,203.5,3110.24,193.66,3082.1,184.55Zm87.8-153.44c1.53,29.9,3.7,55.79,3.63,81.68,0,7.23-4.95,16.49-10.61,21.28-19.53,16.54-40.37,31.52-62.32,48.32,26.9,7.88,50.87,15.78,75.32,21.68,11.29,2.72,16.51,8.06,20,18.76,7.8,24.23,17,48,26.71,74.93,14.72-22.6,28.15-41.28,39.41-61.19,7.87-13.91,17.56-19.46,33.55-18.91,23.32.8,46.73-.76,73.17-1.39-18.4-23.4-35.31-43.8-50.71-65.27-3.91-5.46-5.5-14.94-3.92-21.57,6.07-25.48,13.87-50.55,21.63-77.94-26.17,10-50.19,18.14-73.28,28.4-11,4.89-18.27,2.85-27.18-3.64C3214.91,61.42,3193.86,47.55,3169.91,31.1Z"/><path class="cls-2" d="M2765.57,759.72l316.69-107.3L2809,479.59l4.48-8.24,284.13,140.18-57.07-254.1,11.68-4.2,88.13,252.2,180.5-283.85,5.45,3.14L3179.36,625.12,3497,552.43l2.43,7.52-306.28,104L3459,831.67l-4,8.71L3167.58,699.71,3227,970.2l-11.11,3.05-88.61-255L2950.8,997.12l-5.36-3,146.47-300.43-324.15,73.57Z"/><path class="cls-2" d="M1273.81,930l271.06-326.92-177.76-23.19,176.17-30.18-237.65-289,8.6-10.74L1604.15,486l31.35-184.95,21.92,189.83L2008.87,197l4.39,2.54-291.4,350.09L1906.12,581l-184,17.45,227.21,287.46-9.66,9.69L1658.76,668.64,1634.89,850.3l-29.81-181.15L1280.93,935.41Z"/><path class="cls-2" d="M686,494.42C602,534.75,525,569.76,450.31,609.17c-14.37,7.58-28.62,33-27.61,49.19C428,743.69,438.25,828.71,447.19,918,409.9,840.26,372,766.81,339.57,691c-14.42-33.75-34.57-40.74-66.67-36.91-82.24,9.84-164.62,18.41-251.62,28C100,644.37,174.6,606.68,251,573c32.52-14.33,40.81-32.8,36.35-66.9-10.71-82-17.4-164.44-26.07-250.32C299,335,336.83,410.58,371,487.71c13.69,30.88,32.12,37.48,63.44,33.5C514.8,511,595.53,503.83,686,494.42ZM375.29,550.17,291.58,350.29c1.31,56.06,5.2,111.86,18.72,165.21,11.12,43.9-2.71,60.33-42.83,73.35-50.88,16.52-99.27,40.7-148.73,61.58l2.7,7.22L332.59,625l83.74,195.8,7.23-3.19-31.38-209.5L591.4,525.67l-1.64-7.53Z"/><path class="cls-2" d="M2454.59,245.21c5.15,51.53,10.35,95.8,13.6,140.22,1.14,15.57,6.39,22.15,21.85,25.28,36.42,7.36,72.43,16.74,108.57,25.46,7.12,1.72,14.07,4.12,26.6,7.84-46,20.41-86.36,39.26-127.56,56-13.84,5.64-17.83,12.5-16.39,26.71,4.46,44.27,7.77,88.65,7.13,135.7l-103-113.77-148.36,60.86c24.84-42.77,47.21-82.89,71.34-121.92,7.92-12.82,6.91-20.74-2.71-31.53-29.65-33.26-58.31-67.41-87.35-101.22l2.42-5.76c35,8,70,16.07,105.09,23.91,46.3,10.35,46.11,10.14,70.64-31.54C2414.46,311,2433.06,280.85,2454.59,245.21ZM2442.84,297c-20.86,33.77-39,60.85-54.59,89.32-7.51,13.7-15.47,15.26-29.09,11.77-31.2-8-62.75-14.57-94.16-21.73a489,489,0,0,0,57.62,74.19c12.67,13.56,14.66,24.05,3.52,40.41-17.2,25.22-31,52.74-49.55,85,36.81-15.25,67.7-27.27,97.85-40.91,11.91-5.39,18.78-3.43,27,6.23,21.35,25.12,43.8,49.31,65.81,73.87a522.93,522.93,0,0,0-3.63-96c-2.09-16.61,3.57-24.05,18.6-30,29.6-11.74,58.33-25.66,87.42-38.67-31.34-11.8-61.32-20.21-91.86-25-19.3-3-24-12.45-25-29.89C2450.88,364.86,2446.74,334.3,2442.84,297Z"/><path class="cls-2" d="M2428.29,359.89c2.45,24.45,5,42.36,5.82,60.34.62,12.89,6,18.61,18.71,20.65a188.78,188.78,0,0,1,51.61,15.78c-16,7.09-31.92,14.51-48.12,21.16-11.29,4.64-16.09,11-14.07,24.24,2.69,17.68,2.55,35.79,3.86,57.69l-50.44-55.21-69.76,28.17,36.63-65.62-43-51.94,1.55-4.82c13.17,3,27,4.42,39.37,9.34,22.41,8.89,35,.82,44.16-19.62C2410.13,387.74,2418.29,376.61,2428.29,359.89ZM2361,437.42c25.35,19.24,20.64,38.45,5.29,59.72,22.93-12,42.14-15.14,57.61,12.19-3.85-26.54,2.09-44.42,31.3-50.58-31.42-.31-38.47-19-39.83-44.72C2405.17,441.5,2388.37,448.32,2361,437.42Z"/></g><g id="Layer_3" data-name="Layer 3"><rect class="cls-2" y="876.06" width="3494" height="841.94"/></g><g id="Layer_4" data-name="Layer 4"><rect class="cls-3" y="1560.92" width="3494" height="157.08"/></g></g></svg>