<svg xmlns="http://www.w3.org/2000/svg" viewBox="0 0 507.87 309.88"><defs><style>.cls-1{fill:#34b2e6;}.cls-2{fill:#231f20;}.cls-3{fill:#e8ecee;stroke:#231f20;stroke-miterlimit:10;stroke-width:1.72px;}.cls-4{fill:#62b482;}.cls-5{fill:#77c69a;}.cls-6{fill:#f69592;}.cls-7{fill:#f7a4a5;}</style></defs><title>watermelon</title><g id="Layer_2" data-name="Layer 2"><g id="drinks_and_fruits" data-name="drinks and fruits"><ellipse class="cls-1" cx="320.98" cy="298.49" rx="110.39" ry="11.39"/><path class="cls-2" d="M455.78,171.3c7.33,35.64,3.2,51.6,10.62,59,4.42,4.41,6.66-16.39-.19-49.78s-25.23-59.66-28.49-59C428.47,123.45,450.12,143.76,455.78,171.3Z"/><path class="cls-3" d="M447.91,219a20.52,20.52,0,0,1,7.49-7.13,1.39,1.39,0,0,1-.24-.61c-.23-2.24,5.6-4.69,13-5.47s13.65.42,13.88,2.66c.12,1.15-1.36,2.35-3.83,3.36A20.7,20.7,0,0,1,485.76,226c1.1,10.58-5.27,19.91-14.24,20.85-15.73,1.64-13.29-6.14-14.39-16.71-.12-1.17-.2-2.33-.23-3.47-3,4.21-7,6.41-9.46,5C444.62,230.07,444.83,224.39,447.91,219Z"/><path class="cls-2" d="M222.12,304.1c-3.9-.49-11.83-2.6-10.17-8.84,6.42-24.08,11.35-101,11.35-101,0-6.47-5.21-28.21,0-28.21l4.57,28.34c5.2,0,4.59,3.63,4.24,10.08-4,73.87.47,81.56.47,81.56C286.06,307.06,239.53,306.28,222.12,304.1Z"/><path class="cls-2" d="M312.71,301.54c-3.93-.09-12-1.38-11-7.77,3.95-24.61,1-101.64,1-101.64-.66-6.43-8-27.54-2.87-28.07l7.43,27.73c5.18-.53,4.94,3.14,5.24,9.6,3.5,73.9,8.74,81.09,8.74,81.09C376.62,298,330.25,301.95,312.71,301.54Z"/><path class="cls-4" d="M1,27.31C-7.38,26.92,35,245.1,262,236.89,477.73,229.08,508.8,9,506.75,0,506.75,0,187.25,36,1,27.31Z"/><path class="cls-5" d="M200.23,24.93C172.36,53.21,156,87.77,156,125.07c0,41.48,20.26,79.55,54,109.39a312.92,312.92,0,0,0,53.07,2.43C478.77,229.08,509.84,9,507.78,0,507.78,0,355.71,17.16,200.23,24.93Z"/><path class="cls-6" d="M22.53,28.11c22.89,63.13,78.83,171.3,240.21,165.46C421,187.84,479.84,67.9,499.16.83,450.69,6.08,193.61,29.91,22.53,28.11Z"/><circle class="cls-2" cx="220.41" cy="85.53" r="7.08"/><circle class="cls-2" cx="351.37" cy="73.71" r="7.08"/><path class="cls-2" d="M313.6,101.93c.36,3.37-7.68,12.35-18.63,13.51s-20.69-5.94-21.05-9.3c0,0,9.78,7.56,20.74,6.4S313.6,101.93,313.6,101.93Z"/><path class="cls-7" d="M477.66,3.73c2.71,12.1,1.39,22.61-4.66,30.09-5.85,7.24-15.41,10.73-27.26,10.84,6.88,27.35,3.92,50-10.14,59.32-9.5,6.32-22.63,5.61-37.11-.73-4.76,31.52-17.84,53.85-36,56.43-11.21,1.59-22.66-4.59-32.93-16.37-13.72,26-31.8,41.38-48.92,38.58-11.06-1.81-20.06-11-26.33-25-19,17.84-38.62,25.64-53.08,18.72-9.18-4.39-15-14.13-17.6-27.31-17.33,9.63-33.37,11.88-44.5,4.53s-15.25-22.62-13.37-42c-14.27,4.36-26.74,3.61-35.27-3.28C80,99,77.36,82.64,81.58,62.78c-12.36,2.15-22.9.3-30.11-6.19-6.92-6.22-9.89-16-9.38-27.78q-9.38,0-18.48-.1C46.5,91.84,102.45,200,263.82,194.18,422,188.45,480.92,68.51,500.25,1.44,495,2,487.37,2.79,477.66,3.73Z"/><path class="cls-2" d="M367.5,52.23c-.7,1.34-5.48-2.85-12.23-6.37s-12.93-5-12.23-6.37,6.74.42,13.5,3.94S368.2,50.89,367.5,52.23Z"/><path class="cls-2" d="M201.84,59.35c.7,1.34,5.48-2.85,12.23-6.37S227,48,226.3,46.61s-6.74.42-13.5,3.94S201.14,58,201.84,59.35Z"/><path class="cls-2" d="M74.24,193.12c.23,36.38,7.59,51.14,1.87,59.94C72.7,258.3,66.19,238.41,66,204.33s12.29-63.6,15.61-63.62C91,140.64,74.06,165,74.24,193.12Z"/><path class="cls-3" d="M91.85,238.13A20.52,20.52,0,0,0,83,232.71a1.39,1.39,0,0,0,.11-.64c-.24-2.24-6.45-3.43-13.89-2.64s-13.27,3.24-13,5.49c.12,1.15,1.82,2,4.45,2.49a20.7,20.7,0,0,0-4.4,15.46c1.12,10.58,9.29,18.38,18.26,17.43,15.73-1.66,11.72-8.76,10.6-19.34-.12-1.17-.29-2.32-.5-3.44,3.82,3.49,8.17,4.82,10.29,2.93C97.37,248.29,96,242.78,91.85,238.13Z"/></g></g></svg>