<svg xmlns="http://www.w3.org/2000/svg" viewBox="0 0 5888.14 406.73"><defs><style>.cls-1{fill:#fff;opacity:0.51;}</style></defs><title>backcloud</title><g id="Layer_2" data-name="Layer 2"><g id="Layer_18" data-name="Layer 18"><path class="cls-1" d="M5801.36,318a1.65,1.65,0,0,1-1.61-2c12.23-33-9.19-66.33-42.82-72.63-15-2.81-29.79-3.53-44.38-8.46-12.5-4.23-24.47-9.89-36.41-15.47-25.65-12-59.66-30.79-87.72-15.24-25.19,14-33,46.79-55.22,65-33,27-81.12,34.18-121,19.84-22-7.89-38.67-22-52.93-40.25-20.29-25.9-38.12-49.66-69.24-63-61.37-26.37-134.39-10.65-196.49,4.68a1.71,1.71,0,0,1-2.1-1.14c-12.18-51.4-79.52-53.32-121.62-50.09a595.85,595.85,0,0,0-185.84,45.55,1.67,1.67,0,0,1-2.13-1.57c1-51.8-40.09-86.68-89.37-89.31-22.51-1.2-44.8-.43-67.25-3.3-24.4-3.12-48.45-8.37-72.66-12.62-47.11-8.28-96-13-139.61,10.58-36.28,19.6-66.73,56.09-57.4,99.57a1.7,1.7,0,0,1-1.57,2.14,298.54,298.54,0,0,0-179.56,83.56,1.81,1.81,0,0,1-3-1.69c6-35.34-35-55.18-64.6-56.23-34.19-1.21-67.35,10.58-101.3,1.53a1.83,1.83,0,0,1-1.13-2.64c25.34-34.22,25.14-80.33,6.3-117.58-18.2-36-53.32-60.92-90-75.53C3849.79-6.67,3767.82-.09,3699.87,33.11a276.15,276.15,0,0,0-97,78.56,1.8,1.8,0,0,1-1.76.5A540.84,540.84,0,0,0,3306,129.53a503.08,503.08,0,0,0-70.35,30.59c-20.65,11-42.92,25.71-49,49.8-5.82,22.94,4.9,46.61-2.76,69.53a75,75,0,0,1-18.06,28.64,59.69,59.69,0,0,1-4-5.57c-6.35-9.86-10.83-21.06-15.41-31.82-9.85-23.17-16.64-47.42-26.16-70.69-9-22-22.12-40.23-40.87-54.87-17.93-14-38.49-24.87-59.78-32.76-42.47-15.73-90.27-18.44-132.87-1.7A158.53,158.53,0,0,0,2836,142.33c-16,15-27.24,33.29-35.64,53.44-10.09,24.23-16.74,50.6-32.22,72.19-11.58,16.14-29,30.44-48.87,33.06a73.42,73.42,0,0,1-15-25.37c-7.66-22.93,3.06-46.6-2.76-69.53-6.11-24.09-28.38-38.8-49-49.8a503.08,503.08,0,0,0-70.35-30.59A540.84,540.84,0,0,0,2287,108.37a1.8,1.8,0,0,1-1.76-.5,276.15,276.15,0,0,0-97-78.56c-68-33.2-149.92-39.78-220.73-11.56-36.68,14.62-71.8,39.57-90,75.53-18.85,37.25-19,83.36,6.3,117.58a1.83,1.83,0,0,1-1.13,2.64c-33.95,9-67.11-2.74-101.3-1.53-29.57,1-70.6,20.89-64.6,56.23a1.81,1.81,0,0,1-3,1.69,298.54,298.54,0,0,0-179.56-83.56,1.7,1.7,0,0,1-1.57-2.14c9.33-43.47-21.12-80-57.4-99.57-43.61-23.56-92.5-18.86-139.61-10.58-24.21,4.26-48.26,9.5-72.66,12.62-22.44,2.87-44.74,2.1-67.25,3.3-49.28,2.63-90.33,37.52-89.37,89.31a1.67,1.67,0,0,1-2.13,1.57A595.85,595.85,0,0,0,918.37,135.3c-42.1-3.24-109.44-1.32-121.62,50.09a1.71,1.71,0,0,1-2.1,1.14c-62.1-15.32-135.12-31-196.49-4.68-31.12,13.37-49,37.14-69.24,63-14.26,18.21-31,32.36-52.93,40.25-39.92,14.35-88,7.18-121-19.84-22.21-18.18-30-51-55.22-65-28.06-15.55-62.07,3.24-87.72,15.24-11.93,5.59-23.91,11.25-36.41,15.47-14.58,4.93-29.39,5.65-44.38,8.46-33.63,6.3-55.05,39.58-42.82,72.63a1.65,1.65,0,0,1-1.61,2L0,314.34q27.44,4.87,55,9.14C251.21,353.75,450,360,648.23,364.25q297,6.41,594,12.22c198.37,4.07,396.61,8,594.92-.48,196-8.41,392.09-23.89,588.46-19,95.14,2.39,188.54,12.79,282.91,24l.13,0c15,5.28,30.06,10.58,45.22,15.39,20.34,6.46,40.86,10.59,62.28,10.23,22.13-.37,44.09-3.85,66.13-5.56,22.28-1.73,44.62-2.57,67-3.06,44.7-1,89.46-.57,134.11-3.35,11.62-.72,23.37-1.35,34.9-3.05a66.35,66.35,0,0,0,12.73-3,485.68,485.68,0,0,0,48.71-3.78c94.37-11.23,187.77-21.64,282.91-24,196.37-4.93,392.41,10.55,588.46,19,198.31,8.51,396.56,4.55,594.92.48q297-6.1,594-12.22c198.19-4.28,397-10.5,593.24-40.77q27.55-4.25,55-9.14Z"/></g></g></svg>