<?xml version="1.0" encoding="utf-8"?>
<!-- Generator: Adobe Illustrator 21.0.0, SVG Export Plug-In . SVG Version: 6.00 Build 0)  -->
<svg version="1.1" id="Layer_1" xmlns="http://www.w3.org/2000/svg" xmlns:xlink="http://www.w3.org/1999/xlink" x="0px" y="0px"
	 viewBox="0 0 1920 1080" style="enable-background:new 0 0 1920 1080;" xml:space="preserve">
<style type="text/css">
	.st0{fill:#18498E;}
	.st1{fill:#112548;}
	.st2{fill:#FFFFFF;}
	.st3{fill:#A3A8B2;}
	.st4{fill:#4F545B;}
	.st5{opacity:0.12;fill:#112548;enable-background:new    ;}
</style>
<title>fridge_shadow</title>
<g id="Layer_2_1_">
	<g id="Layer_7">
		<rect y="571.8" class="st0" width="1920" height="511.5"/>
	</g>
</g>
<g>
	<g id="Layer_2">
		<g id="Layer_15">
			<path class="st1" d="M872,887.2c0,0-84.1,132.3-476.5,81c-475.3-62.2-1.2-206.5-1.2-206.5l532.5-175l122.8,1L872,887.2z"/>
		</g>
		<g id="Layer_16">
			<path class="st2" d="M929,335.8h107.7c15.6,0,28.3,12.7,28.3,28.3v198.8c0,15.6-12.7,28.3-28.3,28.3H929
				c-15.6,0-28.3-12.7-28.3-28.3V364C900.7,348.4,913.3,335.8,929,335.8z"/>
			<rect x="900.4" y="406.6" class="st3" width="165" height="4.8"/>
			<path class="st4" d="M913.4,379.7h3.5c1.5,0,2.8,1.3,2.8,2.8v66.8c0,1.5-1.3,2.8-2.8,2.8h-3.5c-1.5,0-2.8-1.3-2.8-2.8v-66.8
				C910.6,381,911.9,379.7,913.4,379.7z"/>
			<path class="st5" d="M932.8,345.5h86.6c15.7,0,28.5,12.7,28.5,28.5v190c0,15.7-12.7,28.5-28.5,28.5h-86.6
				c-15.7,0-28.5-12.7-28.5-28.5v-190C904.3,358.2,917.1,345.5,932.8,345.5z"/>
		</g>
	</g>
</g>
</svg>
