<svg xmlns="http://www.w3.org/2000/svg" viewBox="0 0 82.49 532.62"><defs><style>.cls-1{fill:#3c2415;}.cls-2{fill:#1b89bf;opacity:0.5;}.cls-3{fill:#2d2d2d;}.cls-4{fill:#fcfadb;}.cls-5{fill:#bcbec0;}.cls-6{fill:#d1d3d4;}.cls-7{fill:#fedf40;}</style></defs><title>lamp</title><g id="Layer_2" data-name="Layer 2"><g id="lamp"><rect class="cls-1" x="38.36" width="5.89" height="340.92"/><rect class="cls-2" y="349.88" width="82.49" height="182.74" rx="16.85" ry="16.85"/><rect class="cls-1" x="4.79" y="339.53" width="72.64" height="9.85" rx="2.51" ry="2.51"/><path class="cls-3" d="M46.76,349.17c1.88.84-2.5,1.82-5.53,1.76s-7-1.12-5.46-2c1.95-1.05,2.5-1.82,5.53-1.76S44.51,348.16,46.76,349.17Z"/><path class="cls-4" d="M62.17,392.33c.12-6-5.84-14.83-10.22-20-3.92-4.61-4.25-15.81-4.25-15.81-1.11-5.79.82-6.22-2.82-6.67l-2.48,0-1,0-2.48,0c-4.55-.09-2.3,1.33-4.16,6.54,0,0-.75,11.43-4.85,15.89-4.58,5-9.76,12.44-9.89,19-.22,11.31,7.6,18.17,20.22,18.87v0h.49l.49,0v0C53.87,409.85,62,403.65,62.17,392.33Z"/><rect class="cls-5" x="33.95" y="349.31" width="14.31" height="8.07" rx="4.04" ry="4.04" transform="translate(6.83 -0.73) rotate(1.11)"/><rect class="cls-6" x="33.63" y="350.93" width="15" height="4.92" rx="2.46" ry="2.46" transform="translate(6.83 -0.73) rotate(1.11)"/><path class="cls-7" d="M40.67,358a76.93,76.93,0,0,1,1.72,11.48,20.9,20.9,0,0,1,0,2.29l-.94,1.54q3.85,1.28,1.7,5.23a14.41,14.41,0,0,0,.9,9.69c-.56,2.93-3,5.35-.32,7.9.34.33.87-.19.52-.52-3.33-3.18,3.22-9.26-1.08-13.22-1.88-1.74-5.2-2-6.77.18a.37.37,0,0,0,0,.37c2,3.55,9.09-.69,9.84-3.52,1-3.78-4.94-8.94-8.55-7.15-3.25,1.62-1,5.72,2.19,4.82,6.47-1.84,2.29-15.13,1.45-19.29-.09-.47-.81-.27-.71.2Z"/></g></g></svg>