<svg xmlns="http://www.w3.org/2000/svg" viewBox="0 0 449.63 901.69"><defs><style>.cls-1{isolation:isolate;}.cls-2{fill:#81b4d4;}.cls-10,.cls-3{fill:#1b75bc;}.cls-4,.cls-7{fill:#2b3990;}.cls-5{fill:#085e9c;}.cls-6{fill:#fff;}.cls-7{font-size:73.49px;font-family:CornerStoreJF, CornerStoreJF;}.cls-8{letter-spacing:-0.01em;}.cls-9{fill:#e23843;}.cls-10{opacity:0.18;mix-blend-mode:multiply;}.cls-11{fill:#ed1c24;}</style></defs><title>cream</title><g class="cls-1"><g id="Layer_2" data-name="Layer 2"><g id="Layer_7" data-name="Layer 7"><ellipse class="cls-2" cx="224.82" cy="856.51" rx="224.82" ry="39.83"/><path class="cls-3" d="M203.94,900.26l-90.17,1.43C46.51,894.53.71,915.5.71,850.16V271.94c0-65.34,53.46-118.79,118.79-118.79h78.72C263.56,153.14,317,206.6,317,271.94V850.16C318.44,908.85,275.51,894.53,203.94,900.26Z"/><path class="cls-4" d="M196.79,160.3l-73,1.43c-17.72,0-28.63,7.7-28.63-10l8.59-95.89C113.77,32.92,124.68,0,142.4,0h50.09c11.45,4.29,22.9,34.35,30.06,51.53l8.59,98.76C231.14,168,214.51,160.3,196.79,160.3Z"/><path class="cls-5" d="M317,270.79c-41-50.23-98.19-67.15-90-23.7C243.24,333.92,106.59,344,.71,390.26V850.16c0,9.16.9,16.62,2.63,22.7,19.47,9.77,52.72,3.53,94.12,7.93l90.17-1.43c71.56-5.73,114.5,8.59,113.07-50.09L317,550.18V271.94C317,271.55,317,271.17,317,270.79Z"/><path class="cls-6" d="M250.27,272.38C267.4,363.75,108.21,365.79.71,418.7V850.16c0,65.34,45.8,44.37,113.07,51.53l90.17-1.43c71.56-5.73,114.5,8.59,113.07-50.09V314.41C277,248.27,241.06,223.24,250.27,272.38Z"/><path class="cls-4" d="M110.59,464.17c14,8,25.9,32.87,47.27,20.08,6.1-3.66,7-9.91,7.79-10.37s.89-.53,1.42.36c3,5,.72,20.82-10.6,27.6-34,20.33-42.89-25.46-58.47-29.26,1.83,31,.23,61.55-27.88,78.38-19.59,11.73-42.44,5.89-54.62-14.46-13-21.75-6.59-48.23,14.65-61a28.84,28.84,0,0,1,14.29-4.41c-.38-.64-.81-1.07-1.19-1.71-9.37-15.64,13.92-46.87,42-63.7l1.65-1c3.36-6.51,7.74-11.89,13.46-15.32,7.76-4.65,15.61-4.51,16.38-3.24.3.51,0,.86-.76,1.32-1.14.69-3.21,1.57-5.24,2.79a24.71,24.71,0,0,0-8.29,8.08c14.8-3.85,26.44.58,32.15,10.12C142.46,421.59,137.43,443.77,110.59,464.17Zm-59.28-5.8c1.29,2.16,2.82,2.11,4.73,1,6-3.58,8.56-18.6,8.82-20.48s0-3.79.61-4.17,1-.28,2,1.25c3.66,6.1,4.14,30-7.3,36.86a22.15,22.15,0,0,1-2.82,1.34,32,32,0,0,1,12.34,12c7.92,13.23,7.78,31.46-6.34,39.91-3.31,2-6.51,2.69-7,1.8S58,525.87,60.33,521c1.6-3.38,4.08-17.13-3.84-30.36C51.31,482,41,477.5,31.58,483.14c-11.32,6.78-16.19,25.76-5.45,43.7C35.8,543,50.37,546.53,60.8,540.29c24.8-14.85,17.56-52.33,16.42-77-.55-14.19.46-32.41,5.36-47.61C58.91,431.53,47,451.12,51.31,458.37Zm47-50.78c-4.05,14-2.65,33.38-1,54.66,15.8-10,25-34.15,16.24-48.77C110.61,408.51,105.94,405.61,98.31,407.59Z"/><text class="cls-7" transform="translate(141.35 478.91) rotate(-23.96)">e<tspan class="cls-8" x="28.37" y="0">s</tspan><tspan x="61.73" y="0">ume</tspan></text><path class="cls-6" d="M160.05,217c51,0,98.15-4.2,136.65-11.34a118.92,118.92,0,0,0-98.48-52.57H119.5a118.91,118.91,0,0,0-98.21,52.17C60.17,212.69,108.14,217,160.05,217Z"/><path class="cls-9" d="M203.94,900.26c71.56-5.73,114.5,8.59,113.07-50.09V569q-2.15,5.82-4,12.61C287.47,674.26,118.35,675,.71,677.4V850.16c0,65.34,45.8,44.37,113.07,51.53Z"/><path class="cls-4" d="M184.11,523.48c-4,1.65-6.87-2.71-7-2.64s-2.17,7-6.91,9c-3.14,1.3-7.29,0-9.38-5.08-3.47-8.4,1-25.75,10.37-29.62,4.63-1.91,6.65,1.87,6.83,1.8s1.78-5.08,2.81-5.5a4.33,4.33,0,0,1,1.8-.34c.62-.12,1.52-.36,1.85.44,1.3,3.14-2.91,21.46-1.45,25a.91.91,0,0,0,1.26.62c3.66-1.51,5.48-14.1,6.05-14.33s1.14.66,1.59,1.75S189.08,521.43,184.11,523.48Zm-12.53-24.85c-4.63,1.91-6.38,16.61-4.07,22.21.75,1.83,1.81,2.6,2.95,2.13,1.49-.61,4.35-5,3.9-6.09-.19-.46-1.44-.08-1.89.11l-.19-.46c1.32-1,5.11-10.46,2.94-15.72C174.49,499,173,498.07,171.58,498.63Z"/><path class="cls-4" d="M213.19,504.05a.91.91,0,0,0,1.26.62c3.66-1.51,5.48-14.1,6-14.31s1.2.64,1.65,1.73S219.3,509,214.27,511a6.81,6.81,0,0,1-8.13-2.2c-.28,1.59-2,7-5.66,8.49-3.14,1.3-7.29,0-9.39-5.08-3.47-8.4,1-25.75,10.37-29.62,3.26-1.34,5.36,1.8,5.63,2.29.41-3.38,1.28-21.52,2.42-22,2.29-.94,4.91,1,5.69,2.93C216.13,468.08,211.26,499.37,213.19,504.05Zm-11.45-17.54c-4.86,2-6.05,16.6-3.79,22.09.66,1.6,1.63,2.34,2.83,1.84,3.26-1.34,5.46-19.5,4.87-20.93C204.45,486.6,202.89,486,201.74,486.52Z"/><path class="cls-4" d="M239.34,479.29a3.93,3.93,0,0,1-2.91.07c-.74,3.38-6.09,25.91-8.09,26.74s-5.21-3.06-5.84-4.61c-.73-1.77-2.23-9-3-15.43-.93-9-1.13-10.36,1.15-11.31,1.37-.57,3.89-.94,4.6.78.94,2.29,2.21,16.2,2.87,20.08h.19c.5-1.88,5-17.9,4.89-18.13-.19-.46-.61-.35-1.23-1.83-.87-2.11,1.24-10.61,3.12-11.39.8-.33,2.84-.9,3.31.24.71,1.71-1.74,11-1.67,11.18a2.14,2.14,0,0,0,2.72.75c2.11-.87,3-3.72,3.3-3.83s.41,0,.53.32C243.58,473.53,242.43,478,239.34,479.29Z"/><path class="cls-4" d="M249,497.17c-2.86,1.18-6.05-1.38-7.4-4.64-2.88-7,.09-25,2.51-27.44a8.32,8.32,0,0,1,1.44-.73c1.43-.59,3.55-1.13,3.95-.16a1,1,0,0,1,0,.53c-.26,2.78-2.65,21.28-1,25.22.35.86.84,1.06,1.29.87,3.54-1.46,5.65-15,6.17-15.18s1.23,1,1.56,1.83C257.93,478.5,254.93,494.71,249,497.17Zm.53-38.39a5.22,5.22,0,0,1-7-2.61,5.94,5.94,0,0,1,3.37-7.54,5.22,5.22,0,0,1,7,2.61A5.94,5.94,0,0,1,249.53,458.77Z"/><path class="cls-4" d="M268.35,490c-4.28,1.77-9.23.47-11.78-5.7-3-7.25-.39-23.78,7.5-27,1.83-.75,2.13-1.48,4-2.24,2.63-1.08,5.17-.59,6.94,3.69a7.9,7.9,0,0,1-1.25,7.67,11.51,11.51,0,0,1-3.43,3c-.4.17-.39,0-.46-.14s.21-.29.38-1a19.69,19.69,0,0,0-1.07-8.25c-.33-.8-.71-1.24-1.29-1-2,.83-6.61,15.57-3.69,22.65a4.09,4.09,0,0,0,5.22,2.46c8.46-3.49,9.74-17.86,10.43-18.14s1.23,1,1.51,1.72C281.76,468.67,279.55,485.36,268.35,490Z"/><path class="cls-4" d="M291,480.11c-3.88,1.6-8.54-1.09-10.47-5.77-3-7.25.2-23.82,7.85-27,2.06-.85,2.88-1.93,4.08-2.42,1.83-.75,4.41.65,5.33,2.88,1.77,4.29-1.51,14.33-10.7,18.12a1.69,1.69,0,0,1-.54.16,13.33,13.33,0,0,0,.73,5.18c1,2.51,2.61,3.74,4.72,2.86,7.6-3.14,9.21-17,9.9-17.32s1.11.75,1.46,1.6C304.18,460.48,300.44,476.2,291,480.11ZM292.08,449c-2,.83-4.53,7.49-5.31,13.69,4.11-2.83,8.09-9.89,6.74-13.15A1,1,0,0,0,292.08,449Z"/><path class="cls-10" d="M317,271.94c0-54.45-37.13-100.65-87.33-114.53a14.83,14.83,0,0,0,1.45-7.13l-8.59-98.76C215.39,34.35,203.94,4.29,192.49,0H164.82V900.88l39.12-.62c71.56-5.73,114.5,8.59,113.07-50.09Z"/><ellipse class="cls-11" cx="247.85" cy="453.91" rx="5.94" ry="5.94"/><circle class="cls-9" cx="133.49" cy="598.51" r="59.81"/><path class="cls-6" d="M109.24,609.49c.63,2.29.94,3.3,1.23,4.46,1.88,7.63.1,12-5.48,13.39-5.33,1.31-8.88-1.49-10.56-8.28l-5.79-23.53c-1.67-6.8.17-10.92,5.51-12.24q8.28-2,11,9.12c.25,1,.43,1.73.71,3.43l-5.7,1.4a27,27,0,0,0-.6-3c-1.17-4.75-2-5.89-4.06-5.39-1.84.45-2.09,1.54-1.18,5.25l5.79,23.53c.92,3.72,1.64,4.56,3.48,4.11,2-.5,2.26-1.92,1.14-6.47-.32-1.28-.66-2.42-1.21-4.4Z"/><path class="cls-6" d="M107,580.79l5.33-1.31,10.53,42.77-5.33,1.31Z"/><path class="cls-6" d="M123.6,582.76l-5.33,1.31-1.4-5.71,5.33-1.31Zm9.12,37.06-5.33,1.31-7.84-31.87,5.33-1.31Z"/><path class="cls-6" d="M141.3,595.75l-.32-1.28-.35-1.41c-.69-2.82-1.42-3.66-3-3.29-1.35.33-1.66,1.43-1.1,3.74l3.93,16c.57,2.31,1.36,3.13,2.71,2.8,1.53-.38,1.79-1.46,1.09-4.28l-.35-1.41-.44-1.8,5.27-1.3c.74,2.47.77,2.6,1,3.37,1.39,5.64-.49,9.37-5.33,10.56a6.72,6.72,0,0,1-6.18-1.33c-1.6-1.24-2.46-2.86-3.2-5.88l-3.65-14.81c-.74-3-.74-4.85.11-6.69a6.73,6.73,0,0,1,4.86-4.05c4.78-1.18,8.24,1.24,9.61,6.82.16.64.21.83.6,3Z"/><path class="cls-6" d="M171.28,610.33l-5.27,1.3L159,597l-.63,4.85,2.71,11-5.33,1.31-10.53-42.77,5.33-1.31,5.71,23.21,1-13.31,5-1.24-1.42,11.16Z"/><path class="cls-6" d="M165.17,566.48l6.38-1.57,6.1,31.14-3.62.89Zm9.26,36.28,5.7-1.4,1.58,6.41-5.7,1.4Z"/></g></g></g></svg>