<svg xmlns="http://www.w3.org/2000/svg" viewBox="0 0 905.66 793.98"><defs><style>.cls-1{fill:#231f20;}.cls-2{fill:#e8ecee;stroke:#231f20;stroke-miterlimit:10;stroke-width:2.19px;}.cls-3{fill:#fee465;}.cls-4{fill:#ffd449;}.cls-5{fill:#754c29;}.cls-6{fill:#fef7bc;}.cls-7{fill:#feea98;}.cls-8{fill:#fdf5a4;}.cls-9{fill:#2b3990;}.cls-10{fill:#ed1f25;}.cls-11{fill:#9d1d1f;}.cls-12{fill:#28283d;}.cls-13{fill:#2a3b90;}.cls-14{fill:#181311;}.cls-15{fill:#2b201d;}.cls-16{fill:#fff7d7;}.cls-17{fill:#3f302b;}.cls-18{fill:#e9eff3;}.cls-19{fill:#fff;}</style></defs><title>desk</title><g id="Layer_2" data-name="Layer 2"><g id="Layer_8" data-name="Layer 8"><path class="cls-1" d="M437.12,284.69c33.28-17.12,32.78-38.36,43.52-37.2,6.39.69-8.33,26.09-39.51,42.14s-65.27-14-63.27-16.78C385.78,261.88,411.39,297.92,437.12,284.69Z"/><path class="cls-2" d="M496,224.08c-8.18-5.64-17.59,3.82-24.57,13.54-2.58-4.46-6.19-8-11.65-6.62-8.09,2-3,13-.45,19.7a21.12,21.12,0,0,0,2.27,4.36c-1.4-.08-2.43.2-2.89.92-1.38,2.17,3,7.42,9.76,11.72s13.38,6,14.76,3.86c.48-.76.25-1.91-.54-3.25,7.62-1.18,16-6.84,20.76-13.73C510.52,244.33,504.64,230,496,224.08Z"/><path class="cls-1" d="M329.31,603.9c-4.45-.56-13.5-3-11.59-10.09,7.33-27.46,12.94-115.19,12.94-115.19,0-7.37-5.95-32.17,0-32.17l5.22,32.32c5.93,0,5.24,4.14,4.84,11.49-4.58,84.25.54,93,.54,93C402.23,607.28,349.16,606.39,329.31,603.9Z"/><path class="cls-1" d="M391.38,597c-4.41-.82-12.6-1.58-10.9-8.76,5.15-21.84-1-101.9-1-101.9-.6-7.35-.32-12.38,5.6-12.87l4.06-1.38c5.91-.49-.59,3.14-.38,10.51,2.35,84.34,11.94,98.52,11.94,98.52C459.54,597.71,409.79,600.36,391.38,597Z"/><path class="cls-3" d="M423.23,71h0c-6.52-4.87-6.62-13.42-3-20.71,15.48-31.16,32.89-47.22,32.89-47.22,4.87-6.52,11.74-1.39,18.26,3.48h0c6.52,4.87,12.74,7.67,7.87,14.19,0,0-37.5,15-43,45.31C434.84,74.06,429.75,75.88,423.23,71Z"/><path class="cls-3" d="M447.68,530.23c-6.71-6.2-9.37-13.59-11.35-20.51-6.81-39.77-35.79-113-35.79-209.39,0-149.37,77-260.76,25.89-260.76S265.15,142.08,265.15,291.45c0,126,73.2,218.71,126.76,244.59,12.49,8.3,25,16.3,28.57,19.79C428.3,563.46,456.64,538.52,447.68,530.23Z"/><path class="cls-4" d="M416,536c-50.76-2.56-126.76-118.55-126.76-244.59,0-137,87-245.24,147.48-249.79a20.54,20.54,0,0,0-9.86-2.09c-51.07,0-161.28,102.51-161.28,251.88,0,126,73.2,218.71,126.76,244.59,12.49,8.3,25,16.3,28.57,19.79s11,.35,17.49-4.8C430.11,551.81,417.84,543.33,416,536Z"/><path class="cls-5" d="M471.37,6.56c-6.52-4.87-13.39-10-18.26-3.48,0,0-2.4,2.21-6.2,6.58,4.72,8.7,11.72,14.51,22.66,16a84.91,84.91,0,0,1,9.67-4.87C484.11,14.23,477.89,11.43,471.37,6.56Z"/><path class="cls-5" d="M448.07,530.23q-.61-.57-1.18-1.14c-5.3-1.34-13.12,1.7-19.52,8.11-5.45,5.45-8.46,11.92-8.42,17,.78.62,1.43,1.18,1.91,1.65C428.69,563.46,457,538.52,448.07,530.23Z"/><circle class="cls-1" cx="334.72" cy="197.05" r="6.76"/><circle class="cls-1" cx="395.47" cy="207.75" r="6.76"/><path class="cls-1" d="M377.86,233.91c-.35,2.52-7.83,7.6-16,6.46s-14-8.08-13.65-10.6c0,0,5.76,7.28,14,8.43S377.86,233.91,377.86,233.91Z"/><path class="cls-1" d="M354.9,168.78c0,1.11-4.52,0-10.09,0s-10.09,1.11-10.09,0,4.52-2,10.09-2S354.9,167.67,354.9,168.78Z"/><path class="cls-1" d="M391.61,175.25c-.43,1,4.06,1.72,9.07,3.85s8.64,4.87,9.07,3.85-3.28-3.57-8.29-5.69S392,174.23,391.61,175.25Z"/><path class="cls-1" d="M262.87,331.18c-3.7,37.24,2.24,53.14-4.57,61.52-4,5-8.56-16.06-5.12-51S272.63,278,276,278.35C285.71,279.31,265.73,302.39,262.87,331.18Z"/><path class="cls-2" d="M286.57,381.22a26.19,26.19,0,0,0-10.45-8.05,1.77,1.77,0,0,0,.23-.8c0-2.88-7.73-5.21-17.27-5.21s-17.27,2.33-17.27,5.21c0,1.48,2,2.81,5.31,3.76a26.41,26.41,0,0,0-7.66,19c0,13.57,9.33,24.57,20.83,24.57,20.18,0,16-9.55,16-23.12,0-1.5-.06-3-.17-4.43,4.38,4.94,9.72,7.2,12.67,5.1C292.21,394.86,291.19,387.68,286.57,381.22Z"/><polygon class="cls-6" points="876.27 359.65 656.48 359.62 26.68 431.75 363.8 450.47 876.27 359.65"/><path class="cls-7" d="M884.2,637.65,352.35,791.06c-28.43,10.64-70.47-13.4-70.47-44V481.21a43.87,43.87,0,0,1,36.17-43.37L858,361.74c26.6-4.61,47.7-3.72,47.7,23.56l-4,207.05C901.67,610.76,901.28,631.26,884.2,637.65Z"/><rect class="cls-8" y="431.75" width="362.23" height="362.23" rx="14.18" ry="14.18"/><path class="cls-9" d="M443,539.28l23.38-4.45q6.82-1.3,11-.1a13.73,13.73,0,0,1,6.86,4.38,19.48,19.48,0,0,1,3.91,7.85,40.36,40.36,0,0,1,1.21,10.15q0,8.6-1.8,13.72a29.34,29.34,0,0,1-5,9,21.78,21.78,0,0,1-6.92,5.77,39.17,39.17,0,0,1-9.23,3.47L443,594.16Zm15.79,9.33v29.75l3.83-.81q4.89-1,6.94-2.63a10.35,10.35,0,0,0,3.21-4.73q1.16-3.14,1.16-9.63,0-8.59-2.59-11.25t-8.65-1.48Z"/><path class="cls-9" d="M500,581.81V528.44l24.78-4.72q6.79-1.29,10.35-.68a8.57,8.57,0,0,1,5.73,3.67,13.62,13.62,0,0,1,2.17,8,18,18,0,0,1-1.66,7.83,18.61,18.61,0,0,1-4.57,6,21.08,21.08,0,0,1-5.11,3.12,11.22,11.22,0,0,1,3.79,1.16,11.57,11.57,0,0,1,2.32,2.27,15.69,15.69,0,0,1,2,2.83l7,13.65-16.36,3.55-7.84-14.43a9.17,9.17,0,0,0-2.67-3.52,5.08,5.08,0,0,0-3.62-.48l-1.31.27v21.5ZM515,547l6.23-1.25a23.42,23.42,0,0,0,3.9-1.5,5.09,5.09,0,0,0,2.38-2.13,6.11,6.11,0,0,0,.92-3.24A4.22,4.22,0,0,0,527,535.3q-1.46-1.08-5.48-.29L515,536.28Z"/><path class="cls-9" d="M552.92,555.87,566.54,553v14.36l-13.61,2.95Z"/><path class="cls-9" d="M595.83,510.2l25.23-4.8q6.21-1.18,9.51,1.77a10.42,10.42,0,0,1,3.3,8.2,14.52,14.52,0,0,1-2.35,8.05,14,14,0,0,1-4.6,4.27q4.6.36,6.76,3.07a11.63,11.63,0,0,1,2.16,7.45,17.59,17.59,0,0,1-1.53,7.29,16.94,16.94,0,0,1-4.21,5.8,15.8,15.8,0,0,1-5,2.72,57.25,57.25,0,0,1-6,2l-23.29,5Zm13.68,17.2,5.84-1.17a7.31,7.31,0,0,0,4.35-2.12,5.9,5.9,0,0,0,1.22-3.85,3.87,3.87,0,0,0-1.22-3.18q-1.22-1-4.26-.4l-5.93,1.16Zm0,19.83,6.84-1.44a8.31,8.31,0,0,0,4.86-2.45,6.27,6.27,0,0,0,1.41-4.11,3.87,3.87,0,0,0-1.39-3.29q-1.39-1.07-4.9-.34l-6.81,1.4Z"/><path class="cls-9" d="M670.27,536.84l-14.44,3.07-2,8.57-13.21,2.86,15.72-52.65,13.87-2.64,15.23,45.58-13.1,2.84Zm-2.62-10-4.53-16.7-4.51,18.57Z"/><path class="cls-9" d="M691.47,492l11.45-2.18,14.72,23.55V487l11.23-2.14v47.33l-11.23,2.43L703,511.46v26.36l-11.53,2.5Z"/><path class="cls-9" d="M761.63,517.44l-13,2.77-1.83,8.12-11.93,2.58L749,481.05l12.53-2.38,13.77,43.48-11.84,2.57Zm-2.37-9.56L755.16,492l-4.07,17.6Z"/><path class="cls-9" d="M780.8,475l10.36-2,13.33,22.54V470.5l10.17-1.94v45.06l-10.17,2.2-13.26-22.21V518.7L780.8,521Z"/><path class="cls-9" d="M844.39,499.87l-11.85,2.52-1.66,7.72-10.82,2.34,12.87-47.37,11.38-2.17,12.51,41.57-10.76,2.33Zm-2.15-9.13-3.72-15.2-3.7,16.74Z"/><path class="cls-10" d="M660.75,349.89a4.16,4.16,0,0,1,1.11-2.5c.17-.2.39-.37.22-.72a7,7,0,0,1-.18-5.38,26.45,26.45,0,0,1,5.07-9,61.8,61.8,0,0,1,18.46-14.82,12,12,0,0,1,8.88-1.09,3,3,0,0,1,2.55,2.42c.06.33.28.23.45.22l4.28-.27c1.29-.08,2.58-.18,3.87-.19,2.76,0,5.52-.07,8.28,0a40.57,40.57,0,0,1,9.6,1.18,8.52,8.52,0,0,1,2.54,1.12,2.11,2.11,0,0,1,.9,1.14,54.65,54.65,0,0,0-4,4.41,76.53,76.53,0,0,0-6.91,9.67c-2.22,3.67-4.08,7.54-6.09,11.32a31.31,31.31,0,0,1-7.15,9.34,12.38,12.38,0,0,1-8.23,3.18,44.23,44.23,0,0,1-5.69-.38,9.55,9.55,0,0,1-2.48-.47c1.4.09,2.79.33,4.2.42a23.86,23.86,0,0,0,5.64-.12,13.66,13.66,0,0,0,6.74-3.58,27,27,0,0,0,5.09-6.56c2.07-3.52,3.87-7.2,6-10.71,0,0,0-.09,0-.23-.82,1.08-1.59,2.08-2.35,3.1-3,4-5.69,8.28-8.94,12.11a13.4,13.4,0,0,1-5,4,16.25,16.25,0,0,1-5.88,1,39.66,39.66,0,0,1-8.78-1c-3.47-.69-6.9-1.56-10.32-2.51a1.44,1.44,0,0,0-1-.13c.2.2.5.2.65.43a3.81,3.81,0,0,1-1.58-.47,49.6,49.6,0,0,1-7.85-3.52C662.16,350.84,661.47,350.35,660.75,349.89Zm56.51-22.42h0A2.69,2.69,0,0,0,718,326c.53-1.72,0-2.72-1.77-3.14a32.12,32.12,0,0,0-6.87-.83c-2.08,0-4.16-.07-6.24.08a10.57,10.57,0,0,0-5.14,1.44,8.68,8.68,0,0,0-3.7,4,1.51,1.51,0,0,0,1,2.2,18.26,18.26,0,0,0,3,.76c1.34.27,2.69.38,4,.58h.56a24.85,24.85,0,0,0,3.3.26,15.18,15.18,0,0,1,1.78,0,21.51,21.51,0,0,0,3.48-.08,4,4,0,0,0,1.94-.41,7.34,7.34,0,0,0,3.76-3.12C717.25,327.68,717.27,327.59,717.27,327.46ZM662.35,344a4.65,4.65,0,0,0,.3,1.77,3.79,3.79,0,0,0,3.95,2.8,10.64,10.64,0,0,0,4.39-1.13,30.56,30.56,0,0,0,8.23-6,126,126,0,0,0,10.68-11.36,42.94,42.94,0,0,0,4.93-7.05,4,4,0,0,0,.62-2.2c0-.31-.06-.62-.38-.74s-.47.16-.64.34l-5.2,5.41c-2.34,2.43-4.68,4.86-7,7.28-2.18,2.23-4.38,4.44-6.67,6.55a25.15,25.15,0,0,1-8.81,5.61,3.57,3.57,0,0,1-4.06-1C662.58,344.16,662.52,344,662.35,344Zm30.19-9.51a3.5,3.5,0,0,0-2.4.72,14.64,14.64,0,0,0-2.56,2.64,2.16,2.16,0,0,0-.62,1.57.3.3,0,0,1-.24.35,4.57,4.57,0,0,0-2.29,1.64,10.16,10.16,0,0,0-1.83,2.33,10.55,10.55,0,0,1-1.4,1.73,12.68,12.68,0,0,0-3.2,3.71,1.75,1.75,0,0,0,.91,2.54,5.94,5.94,0,0,0,3.65.47c.61-.12,1.1-.2,1.48.4a.83.83,0,0,0,.34.24,6.72,6.72,0,0,0,4.2.68.73.73,0,0,1,.82.27,2.49,2.49,0,0,0,1.17.79,10.15,10.15,0,0,0,2.54.56,3.37,3.37,0,0,0,3.32-1.31c.54-.76,1.11-1.49,1.61-2.28a3.36,3.36,0,0,0,.41-.85,3.53,3.53,0,0,1,1.21-1.73,14.33,14.33,0,0,0,2.55-3.19,2.24,2.24,0,0,0,.5-1.67c0-.27.09-.38.33-.47a3.41,3.41,0,0,0,1.47-1.09,28.74,28.74,0,0,0,2.21-3c.91-1.5,0-2.54-1.17-2.93a5.64,5.64,0,0,0-3.62,0,.57.57,0,0,1-.65-.11,4.78,4.78,0,0,0-4-.93,1.9,1.9,0,0,1-1.71-.33A4.78,4.78,0,0,0,692.55,334.51Zm-30.38,7.84c.09,0,.13-.06.15-.09l.35-.55a59.55,59.55,0,0,1,7.38-9.62,64.83,64.83,0,0,1,12.4-10.36,43.6,43.6,0,0,1,9.11-4.6,5.21,5.21,0,0,0,1.36-.48l-.32,0a14.85,14.85,0,0,0-7.82,1.85,65.61,65.61,0,0,0-16.63,13.37,29.71,29.71,0,0,0-4.8,7.14A15.42,15.42,0,0,0,662.17,342.34Z"/><path class="cls-11" d="M660.75,349.89c.71.46,1.4,1,2.13,1.38a49.6,49.6,0,0,0,7.85,3.52,3.81,3.81,0,0,0,1.58.47h0a1.06,1.06,0,0,0,1,.36h0c.08.16.23.13.36.13h0c0,.12.16.11.25.14.15.18.37.08.56.14a77.66,77.66,0,0,0,11.09,2.92c.22.22.5.12.75.13h0a9.55,9.55,0,0,0,2.48.47,44.23,44.23,0,0,0,5.69.38,12.38,12.38,0,0,0,8.23-3.18,31.31,31.31,0,0,0,7.15-9.34c2-3.79,3.87-7.65,6.09-11.32a76.53,76.53,0,0,1,6.91-9.67,54.65,54.65,0,0,1,4-4.41,10.74,10.74,0,0,1,.94,3.42,40.25,40.25,0,0,1,.51,6,15.57,15.57,0,0,1-2.13,7.7c-2,3.59-9.78,18.05-12.42,20.44a54.61,54.61,0,0,1-7.18,5.83c-15.71,3.59-34.71-1.42-39.95-4a34.37,34.37,0,0,1-3.59-2.69c-.83-.59-1.76-4.32-2-5.19A10.4,10.4,0,0,1,660.75,349.89Z"/><path class="cls-11" d="M662.35,344c.17,0,.23.15.31.25a3.57,3.57,0,0,0,4.06,1,25.15,25.15,0,0,0,8.81-5.61c2.29-2.11,4.49-4.33,6.67-6.55,2.36-2.41,4.7-4.85,7-7.28l5.2-5.41c.17-.18.32-.46.64-.34s.35.44.38.74a4,4,0,0,1-.62,2.2,42.94,42.94,0,0,1-4.93,7.05,126,126,0,0,1-10.68,11.36,30.56,30.56,0,0,1-8.23,6,10.64,10.64,0,0,1-4.39,1.13,3.79,3.79,0,0,1-3.95-2.8A4.65,4.65,0,0,1,662.35,344Z"/><path class="cls-12" d="M702.84,331h-.56c-.13-.29-.4-.2-.62-.22a23,23,0,0,1-3.68-.64c-1.42-.4-1.72-1.24-.95-2.51a8.64,8.64,0,0,1,2.79-2.71,9.38,9.38,0,0,1,5.08-1.17,51.4,51.4,0,0,1,8.25.49,16.26,16.26,0,0,1,3.3.71,1.41,1.41,0,0,1,1,2l-.15.51h0c-.13,0-.12.16-.16.24a7.34,7.34,0,0,1-3.76,3.12c-.58.08-1.16.17-1.75.23a49.41,49.41,0,0,1-6.54,0A9,9,0,0,0,702.84,331Z"/><path class="cls-11" d="M692.55,334.51a4.78,4.78,0,0,1,3,.7,1.9,1.9,0,0,0,1.71.33,4.78,4.78,0,0,1,4,.93.57.57,0,0,0,.65.11,5.64,5.64,0,0,1,3.62,0c1.18.38,2.08,1.43,1.17,2.93a28.74,28.74,0,0,1-2.21,3,3.41,3.41,0,0,1-1.47,1.09c-.24.09-.36.21-.33.47a2.24,2.24,0,0,1-.5,1.67,14.33,14.33,0,0,1-2.55,3.19,3.53,3.53,0,0,0-1.21,1.73,3.36,3.36,0,0,1-.41.85c-.5.78-1.08,1.52-1.61,2.28a3.37,3.37,0,0,1-3.32,1.31,10.15,10.15,0,0,1-2.54-.56,2.49,2.49,0,0,1-1.17-.79.73.73,0,0,0-.82-.27,6.72,6.72,0,0,1-4.2-.68.83.83,0,0,1-.34-.24c-.38-.6-.86-.52-1.48-.4a5.94,5.94,0,0,1-3.65-.47,1.75,1.75,0,0,1-.91-2.54,12.68,12.68,0,0,1,3.2-3.71,10.55,10.55,0,0,0,1.4-1.73,10.16,10.16,0,0,1,1.83-2.33,4.57,4.57,0,0,1,2.29-1.64.3.3,0,0,0,.24-.35,2.16,2.16,0,0,1,.62-1.57,14.64,14.64,0,0,1,2.56-2.64A3.5,3.5,0,0,1,692.55,334.51ZM687,352.2A2.91,2.91,0,0,0,689.5,351c.55-.68,1.13-1.33,1.69-2s.48-1.26-.34-1.66a5.74,5.74,0,0,0-2.8-.61,2.91,2.91,0,0,0-2.13,1c-.65.75-1.29,1.51-1.92,2.27a.87.87,0,0,0,.27,1.47A6.8,6.8,0,0,0,687,352.2Zm-6-1.34a3.11,3.11,0,0,0,2.49-.91c.74-.8,1.44-1.63,2.14-2.47.53-.64.4-1.14-.35-1.52a6.26,6.26,0,0,0-1.94-.5,3.11,3.11,0,0,0-2.95,1c-.74.83-1.41,1.71-2.09,2.58a.78.78,0,0,0,.34,1.31A6.09,6.09,0,0,0,681.06,350.86Zm13.07-2.63a2.91,2.91,0,0,0-2.38.82,23.87,23.87,0,0,0-2.19,2.59.84.84,0,0,0,.31,1.38,5.47,5.47,0,0,0,2.85.68,2.6,2.6,0,0,0,1.94-.89q1-1.24,2-2.51a.86.86,0,0,0-.31-1.46A6.35,6.35,0,0,0,694.13,348.22Zm-2.6-1.32a2.94,2.94,0,0,0,2.37-1.11c.56-.77,1.17-1.5,1.74-2.27a.87.87,0,0,0-.34-1.47,6.14,6.14,0,0,0-2.05-.54,2.85,2.85,0,0,0-2.61.84c-.72.77-1.37,1.59-2,2.42a.85.85,0,0,0,.33,1.42A7.61,7.61,0,0,0,691.53,346.91Zm5,1.32a2.79,2.79,0,0,0,2.4-.92,23.94,23.94,0,0,0,2-2.82c.38-.65.21-1.11-.49-1.41a7,7,0,0,0-1.67-.37,2.81,2.81,0,0,0-2.69.91,32.13,32.13,0,0,0-2,2.65.86.86,0,0,0,.37,1.38A5.86,5.86,0,0,0,696.55,348.23Zm4.14-5.72a2.83,2.83,0,0,0,2.39-1c.79-1,1.5-2,2.21-3,.4-.58.2-1-.46-1.3a5.87,5.87,0,0,0-1.45-.28,3.17,3.17,0,0,0-3,1,19.44,19.44,0,0,0-2.09,2.81.83.83,0,0,0,.4,1.31A5.1,5.1,0,0,0,700.69,342.51Zm-13.11-2.28a3.11,3.11,0,0,0-2.46.88c-.72.76-1.4,1.57-2.05,2.39a.79.79,0,0,0,.33,1.38,6.9,6.9,0,0,0,2.65.57,2.85,2.85,0,0,0,2.39-1.11c.56-.72,1.17-1.4,1.74-2.11a.82.82,0,0,0-.29-1.4A6.47,6.47,0,0,0,687.58,340.23Zm7.81,1.23a3,3,0,0,0,2.81-1.26c.42-.6.88-1.17,1.34-1.75,1.22-1.53.53-2-.88-2.24a3.59,3.59,0,0,0-3.6.8,20.41,20.41,0,0,0-2.09,2.59.84.84,0,0,0,.4,1.35A5.8,5.8,0,0,0,695.39,341.45Zm-3.08-6.35a3.33,3.33,0,0,0-2.79,1c-.66.71-1.29,1.46-1.9,2.21-.48.58-.35,1.1.36,1.41a6.47,6.47,0,0,0,1.95.49,3,3,0,0,0,2.68-.84c.71-.79,1.36-1.65,2-2.5a.78.78,0,0,0-.34-1.34A5.7,5.7,0,0,0,692.31,335.1Z"/><path class="cls-10" d="M685.52,358.94A77.66,77.66,0,0,1,674.43,356c-.18-.06-.41,0-.56-.14s-.14-.13-.25-.14h0c-.09-.14-.22-.13-.36-.13h0a1.61,1.61,0,0,0-1-.36h0c-.15-.23-.45-.23-.65-.43a1.44,1.44,0,0,1,1,.13c3.41.94,6.84,1.82,10.32,2.51a39.66,39.66,0,0,0,8.78,1,16.25,16.25,0,0,0,5.88-1,13.4,13.4,0,0,0,5-4c3.25-3.84,5.93-8.1,8.94-12.11.76-1,1.53-2,2.35-3.1,0,.14,0,.2,0,.23-2.09,3.51-3.89,7.18-6,10.71a27,27,0,0,1-5.09,6.56,13.66,13.66,0,0,1-6.74,3.58,23.86,23.86,0,0,1-5.64.12c-1.41-.09-2.79-.33-4.2-.42h0C686,358.87,685.77,359,685.52,358.94Z"/><path class="cls-10" d="M662.17,342.34a15.42,15.42,0,0,1,1.18-3.37,29.71,29.71,0,0,1,4.8-7.14,65.61,65.61,0,0,1,16.63-13.37,14.85,14.85,0,0,1,7.82-1.85l.32,0a5.21,5.21,0,0,1-1.36.48,43.6,43.6,0,0,0-9.11,4.6,64.83,64.83,0,0,0-12.4,10.36,59.55,59.55,0,0,0-7.38,9.62l-.35.55S662.25,342.3,662.17,342.34Z"/><path class="cls-11" d="M717.26,327.47l.15-.51a1.41,1.41,0,0,0-1-2,16.26,16.26,0,0,0-3.3-.71,51.4,51.4,0,0,0-8.25-.49,9.38,9.38,0,0,0-5.08,1.17,8.64,8.64,0,0,0-2.79,2.71c-.77,1.27-.47,2.11.95,2.51a23,23,0,0,0,3.68.64c.22,0,.49-.06.62.22-1.35-.2-2.7-.32-4-.58a18.26,18.26,0,0,1-3-.76,1.51,1.51,0,0,1-1-2.2,8.68,8.68,0,0,1,3.7-4,10.57,10.57,0,0,1,5.14-1.44c2.08-.15,4.16-.13,6.24-.08a32.12,32.12,0,0,1,6.87.83c1.74.42,2.3,1.42,1.77,3.14A2.69,2.69,0,0,1,717.26,327.47Z"/><path class="cls-11" d="M702.84,331a9,9,0,0,1,2.21.07,49.41,49.41,0,0,0,6.54,0c.59-.05,1.17-.15,1.75-.23a4,4,0,0,1-1.94.41,21.51,21.51,0,0,1-3.48.08,15.18,15.18,0,0,0-1.78,0A24.85,24.85,0,0,1,702.84,331Z"/><path class="cls-10" d="M672.31,355.25a1.61,1.61,0,0,1,1,.36A1.06,1.06,0,0,1,672.31,355.25Z"/><path class="cls-10" d="M685.52,358.94c.25,0,.53-.06.75.13C686,359.06,685.74,359.15,685.52,358.94Z"/><path class="cls-10" d="M673.26,355.61c.14,0,.27,0,.36.13C673.49,355.74,673.34,355.77,673.26,355.61Z"/><path class="cls-10" d="M673.62,355.74c.11,0,.22,0,.25.14C673.77,355.85,673.66,355.85,673.62,355.74Z"/><path class="cls-10" d="M687,352.2a6.8,6.8,0,0,1-2.74-.66.87.87,0,0,1-.27-1.47c.64-.76,1.27-1.52,1.92-2.27a2.91,2.91,0,0,1,2.13-1,5.74,5.74,0,0,1,2.8.61c.82.39.92,1,.34,1.66s-1.14,1.32-1.69,2A2.91,2.91,0,0,1,687,352.2Z"/><path class="cls-10" d="M681.06,350.86a6.09,6.09,0,0,1-2.36-.49.78.78,0,0,1-.34-1.31c.68-.88,1.36-1.76,2.09-2.58a3.11,3.11,0,0,1,2.95-1,6.26,6.26,0,0,1,1.94.5c.75.38.87.88.35,1.52-.7.84-1.4,1.67-2.14,2.47A3.11,3.11,0,0,1,681.06,350.86Z"/><path class="cls-10" d="M694.13,348.22a6.35,6.35,0,0,1,2.23.61.86.86,0,0,1,.31,1.46q-1,1.27-2,2.51a2.6,2.6,0,0,1-1.94.89,5.47,5.47,0,0,1-2.85-.68.84.84,0,0,1-.31-1.38,23.87,23.87,0,0,1,2.19-2.59A2.91,2.91,0,0,1,694.13,348.22Z"/><path class="cls-10" d="M691.53,346.91a7.61,7.61,0,0,1-2.58-.7.85.85,0,0,1-.33-1.42c.64-.83,1.3-1.65,2-2.42a2.85,2.85,0,0,1,2.61-.84,6.14,6.14,0,0,1,2.05.54.87.87,0,0,1,.34,1.47c-.57.76-1.18,1.5-1.74,2.27A2.94,2.94,0,0,1,691.53,346.91Z"/><path class="cls-10" d="M696.55,348.23a5.86,5.86,0,0,1-2.1-.58.86.86,0,0,1-.37-1.38,32.13,32.13,0,0,1,2-2.65,2.81,2.81,0,0,1,2.69-.91,7,7,0,0,1,1.67.37c.7.3.87.75.49,1.41a23.94,23.94,0,0,1-2,2.82A2.79,2.79,0,0,1,696.55,348.23Z"/><path class="cls-10" d="M700.69,342.51a5.1,5.1,0,0,1-2-.42.83.83,0,0,1-.4-1.31,19.44,19.44,0,0,1,2.09-2.81,3.17,3.17,0,0,1,3-1,5.87,5.87,0,0,1,1.45.28c.66.28.86.73.46,1.3-.71,1-1.42,2.06-2.21,3A2.83,2.83,0,0,1,700.69,342.51Z"/><path class="cls-10" d="M687.58,340.23a6.47,6.47,0,0,1,2.32.59.82.82,0,0,1,.29,1.4c-.57.71-1.18,1.39-1.74,2.11a2.85,2.85,0,0,1-2.39,1.11,6.9,6.9,0,0,1-2.65-.57.79.79,0,0,1-.33-1.38c.66-.82,1.33-1.63,2.05-2.39A3.11,3.11,0,0,1,687.58,340.23Z"/><path class="cls-10" d="M695.39,341.45a5.8,5.8,0,0,1-2-.51.84.84,0,0,1-.4-1.35,20.41,20.41,0,0,1,2.09-2.59,3.59,3.59,0,0,1,3.6-.8c1.41.29,2.1.71.88,2.24-.46.57-.92,1.15-1.34,1.75A3,3,0,0,1,695.39,341.45Z"/><path class="cls-10" d="M692.31,335.1a5.7,5.7,0,0,1,2,.45.78.78,0,0,1,.34,1.34c-.65.85-1.3,1.7-2,2.5a3,3,0,0,1-2.68.84,6.47,6.47,0,0,1-1.95-.49c-.7-.31-.84-.83-.36-1.41.62-.75,1.24-1.5,1.9-2.21A3.33,3.33,0,0,1,692.31,335.1Z"/><path class="cls-13" d="M481.36,603.44l7-1.66a8.55,8.55,0,0,1,2.21-.24,4.2,4.2,0,0,1,2.16,1,4.48,4.48,0,0,1,1.49,2.11,9,9,0,0,1,.6,3.52,11.18,11.18,0,0,1-1.52,5.55,7.07,7.07,0,0,1-4.56,3.61l-4.48,1.06v10l-2.94.69Zm2.94,11.29,4.36-1a3.79,3.79,0,0,0,2.47-1.92,6.27,6.27,0,0,0,.79-3,5.78,5.78,0,0,0-.32-2.1,2.15,2.15,0,0,0-.93-1,2.63,2.63,0,0,0-2.11-.23l-4.26,1Z"/><path class="cls-13" d="M497.8,599.57l2.77-.65v9.32h.05a5.59,5.59,0,0,1,3.59-3,3.34,3.34,0,0,1,3.14.86q1.41,1.28,1.47,4.4v12.13l-2.77.65V612.38a4,4,0,0,0-.77-2.74,1.87,1.87,0,0,0-2-.56,3.18,3.18,0,0,0-2,1.48,5.55,5.55,0,0,0-.79,3.11v10.88l-2.77.65Z"/><path class="cls-13" d="M513,618l2.77-.65V621l-2.77.65Z"/><path class="cls-13" d="M519.88,594.38l6.78-1.59q3.93-.89,5.89,2.93a7.65,7.65,0,0,1,.89,2.81q.15,1.55.15,5.43a50.78,50.78,0,0,1-.23,5.81,9.33,9.33,0,0,1-.32,1.55q-.23.69-.54,1.45a11.24,11.24,0,0,1-2.36,3.54,7.14,7.14,0,0,1-3.68,2.13L519.88,620Zm2.93,21.27,3.51-.83a5.08,5.08,0,0,0,3.59-3.08,6.17,6.17,0,0,0,.62-2.24q.12-1.28.12-4.71t-.12-4.76a4.21,4.21,0,0,0-.76-2.16,2.86,2.86,0,0,0-3.46-1.35l-3.51.83Z"/><path class="cls-13" d="M544.29,588.64,551,587q3.92-.89,5.88,2.93a7.65,7.65,0,0,1,.89,2.81q.15,1.54.14,5.42a50.77,50.77,0,0,1-.22,5.81,9.33,9.33,0,0,1-.32,1.55q-.23.69-.54,1.44a11.22,11.22,0,0,1-2.36,3.54,7.12,7.12,0,0,1-3.67,2.13l-6.56,1.55Zm2.93,21.26,3.5-.83A5.07,5.07,0,0,0,554.3,606a6.17,6.17,0,0,0,.62-2.24q.12-1.28.12-4.71t-.12-4.76a4.21,4.21,0,0,0-.76-2.16,2.85,2.85,0,0,0-3.45-1.35l-3.5.82Z"/><path class="cls-13" d="M561.77,584.52l2.76-.65v3.65l-2.76.65Zm0,7.37,2.76-.65v18.21l-2.76.65Z"/><path class="cls-13" d="M568.4,590.33l2.76-.65v1.93h.06a5.56,5.56,0,0,1,3.57-3,3.16,3.16,0,0,1,2.89.72l-2,3.64a2,2,0,0,0-1.81-.49,3.06,3.06,0,0,0-1.82,1.34,5.09,5.09,0,0,0-.87,3.1v11l-2.76.65Z"/><path class="cls-13" d="M580.85,597.88a4.19,4.19,0,0,0,1,3.11,2.26,2.26,0,0,0,2.33.61,5.1,5.1,0,0,0,3-2.48l2,1.79q-2.1,3.47-4.94,4.11a5.27,5.27,0,0,1-2.11.08,3.59,3.59,0,0,1-1-.38,3.52,3.52,0,0,1-1-.6,5.75,5.75,0,0,1-1.42-2.51,13.15,13.15,0,0,1-.6-4.42,17.89,17.89,0,0,1,.52-4.61,11,11,0,0,1,1.32-3.19,7.09,7.09,0,0,1,1.84-2,5.74,5.74,0,0,1,2-.94,4,4,0,0,1,4,1.11q1.65,1.66,1.68,5.25v3Zm5.8-4.38a4.69,4.69,0,0,0-.86-3,2,2,0,0,0-2-.56,3.3,3.3,0,0,0-2,1.52,7,7,0,0,0-.86,3.43Z"/><path class="cls-13" d="M602.84,597.48a11.56,11.56,0,0,1-2.11,2.71,6.22,6.22,0,0,1-2.81,1.59,4.37,4.37,0,0,1-4.26-1.18q-1.9-1.74-2-6.64t2-7.65a7.16,7.16,0,0,1,4.26-3.16,4.43,4.43,0,0,1,2.81.21,5.57,5.57,0,0,1,2.11,1.79l-2,2.87a2.53,2.53,0,0,0-2.79-1.26q-3.51.76-3.57,6.54t3.57,4.8a4.4,4.4,0,0,0,2.79-2.56Z"/><path class="cls-13" d="M605.31,576.1l2.75-.65V581l2-.47v2.8l-2,.47v10.6q0,1.39,1,1.12l1-.24v3.43l-1.44.34a2.32,2.32,0,0,1-2.37-.63,4.13,4.13,0,0,1-.95-3.07v-10.9l-1.38.33V582l1.38-.33Z"/><path class="cls-13" d="M612.22,589.08a22.11,22.11,0,0,1,.36-4.5,9.07,9.07,0,0,1,1.13-2.81,8,8,0,0,1,1.58-2,5.94,5.94,0,0,1,2.57-1.32,4.27,4.27,0,0,1,2.62.1,3.9,3.9,0,0,1,1.53,1.27,4.8,4.8,0,0,1,1.16,2.27,21.35,21.35,0,0,1,.33,4.33,23.16,23.16,0,0,1-.33,4.45,8.86,8.86,0,0,1-1.16,2.88,7.12,7.12,0,0,1-.65.94,4.39,4.39,0,0,1-.88,1,5.64,5.64,0,0,1-2.62,1.41,3.81,3.81,0,0,1-2.57-.18,4,4,0,0,1-1.58-1.17,6,6,0,0,1-1.13-2.34A19.13,19.13,0,0,1,612.22,589.08Zm8.54-2a21,21,0,0,0-.13-2.82,3.11,3.11,0,0,0-.54-1.38,1.62,1.62,0,0,0-.9-.75,2.13,2.13,0,0,0-1.32-.06,3.06,3.06,0,0,0-1.3.67,3.83,3.83,0,0,0-.93,1.18,6.2,6.2,0,0,0-.52,1.63,18.7,18.7,0,0,0-.16,2.85,16.66,16.66,0,0,0,.16,2.74,4.43,4.43,0,0,0,.52,1.46,2.62,2.62,0,0,0,.93.71,2.07,2.07,0,0,0,1.3.08,2.92,2.92,0,0,0,1.32-.7,4.08,4.08,0,0,0,.9-1.14,5.26,5.26,0,0,0,.54-1.71A21.2,21.2,0,0,0,620.76,587.1Z"/><path class="cls-13" d="M626.84,576.57l2.74-.65v1.93h.06a5.54,5.54,0,0,1,3.56-3,3.14,3.14,0,0,1,2.87.72l-2,3.63a2,2,0,0,0-1.81-.49,3,3,0,0,0-1.81,1.34,5.08,5.08,0,0,0-.87,3.1v11l-2.74.65Z"/><path class="cls-13" d="M643.67,581.66a22.11,22.11,0,0,1,.36-4.5,9.06,9.06,0,0,1,1.13-2.81,8,8,0,0,1,1.58-2,5.93,5.93,0,0,1,2.57-1.32,4.26,4.26,0,0,1,2.62.1,3.89,3.89,0,0,1,1.53,1.27,4.8,4.8,0,0,1,1.15,2.26,21.35,21.35,0,0,1,.33,4.33,23.16,23.16,0,0,1-.33,4.45,8.86,8.86,0,0,1-1.16,2.88,7.11,7.11,0,0,1-.64.94,4.38,4.38,0,0,1-.88,1,5.63,5.63,0,0,1-2.62,1.4,3.8,3.8,0,0,1-2.57-.18,4,4,0,0,1-1.58-1.17A6,6,0,0,1,644,586,19.13,19.13,0,0,1,643.67,581.66Zm8.52-2a21,21,0,0,0-.13-2.81,3.11,3.11,0,0,0-.54-1.38,1.62,1.62,0,0,0-.9-.75,2.12,2.12,0,0,0-1.32-.06,3.05,3.05,0,0,0-1.29.67,3.82,3.82,0,0,0-.92,1.18,6.19,6.19,0,0,0-.52,1.63,18.7,18.7,0,0,0-.16,2.85,16.66,16.66,0,0,0,.16,2.74,4.43,4.43,0,0,0,.52,1.46,2.61,2.61,0,0,0,.92.71,2.07,2.07,0,0,0,1.29.08,2.91,2.91,0,0,0,1.32-.7,4.08,4.08,0,0,0,.9-1.14,5.26,5.26,0,0,0,.54-1.71A21.2,21.2,0,0,0,652.19,579.69Z"/><path class="cls-13" d="M658.7,571.86l-1.38.33v-2.8l1.38-.33v-2.39a6.78,6.78,0,0,1,1.08-4.07,4.57,4.57,0,0,1,2.64-1.76l1.77-.42v3.42l-1.57.37q-1.24.24-1.19,1.79v2.41l2.75-.65v2.8l-2.75.65v15.35l-2.74.65Z"/><path class="cls-13" d="M672.89,558.38l12.23-2.88v3.63l-9.33,2.2v7.53l8-1.88v3.42l-8,1.88v10.89l-2.9.68Z"/><path class="cls-13" d="M687.05,562.39l2.73-.64v1.92h.06a5.51,5.51,0,0,1,3.54-3,3.12,3.12,0,0,1,2.86.72l-2,3.62a2,2,0,0,0-1.8-.49,3,3,0,0,0-1.8,1.33,5.08,5.08,0,0,0-.87,3.09v10.93l-2.73.65Z"/><path class="cls-13" d="M697.5,559.92l2.73-.64v10.8a3.9,3.9,0,0,0,.77,2.68,1.85,1.85,0,0,0,1.94.57,3.08,3.08,0,0,0,1.93-1.49,5.63,5.63,0,0,0,.76-3V558l2.73-.64v18.11l-2.73.64v-1.94h-.05a5.49,5.49,0,0,1-3.52,3,3.24,3.24,0,0,1-3.05-.92Q697.53,575,697.5,572Z"/><path class="cls-13" d="M712.47,549.07l2.73-.64v3.63l-2.73.64Zm0,7.33,2.73-.64v18.11l-2.73.64Z"/><path class="cls-13" d="M719.18,549.31l2.73-.64v5.51l2-.47v2.79l-2,.47v10.56q0,1.38,1,1.11l1-.24v3.42l-1.42.34a2.29,2.29,0,0,1-2.35-.63,4.13,4.13,0,0,1-.94-3.05V557.61l-1.37.32v-2.79l1.37-.32Z"/><path class="cls-13" d="M733.82,563.31a5.87,5.87,0,0,0,5.42,1.25q3.72-.95,3.77-4.43,0-2.85-2.48-2.83l-2.52.12a4.44,4.44,0,0,1-3.74-1.54,6.78,6.78,0,0,1-1.32-4.4,10,10,0,0,1,1.66-5.77,7.41,7.41,0,0,1,4.56-3.13,7.5,7.5,0,0,1,6.17,1.17l-1.61,3.54a6.1,6.1,0,0,0-4.72-.84,4,4,0,0,0-2.22,1.41,4.7,4.7,0,0,0-1,3,2.7,2.7,0,0,0,.64,1.84,2.58,2.58,0,0,0,2.05.77q.78,0,2.14-.1a4.25,4.25,0,0,1,4,1.63,7.36,7.36,0,0,1,1.27,4.45q-.14,7.33-6.69,9a7.62,7.62,0,0,1-7.28-1.75Z"/><path class="cls-13" d="M759.17,560.57a11.46,11.46,0,0,1-2.09,2.69,6.13,6.13,0,0,1-2.78,1.57,4.3,4.3,0,0,1-4.21-1.18q-1.88-1.74-1.93-6.6t1.93-7.6a7.07,7.07,0,0,1,4.21-3.14,4.36,4.36,0,0,1,2.78.21,5.52,5.52,0,0,1,2.09,1.79l-2,2.85a2.5,2.5,0,0,0-2.75-1.26q-3.47.75-3.53,6.49t3.52,4.78a4.35,4.35,0,0,0,2.75-2.54Z"/><path class="cls-13" d="M761.53,537.53l2.72-.64v3.62l-2.72.64Zm0,7.31,2.72-.64v18.08l-2.72.64Z"/><path class="cls-13" d="M770.1,553.24a4.19,4.19,0,0,0,.94,3.09,2.22,2.22,0,0,0,2.3.61,5,5,0,0,0,3-2.46l2,1.78q-2.07,3.45-4.87,4.07a5.16,5.16,0,0,1-2.09.08,3.53,3.53,0,0,1-1-.38,3.47,3.47,0,0,1-1-.59,5.73,5.73,0,0,1-1.4-2.49,13.15,13.15,0,0,1-.59-4.39,17.87,17.87,0,0,1,.51-4.58,11,11,0,0,1,1.3-3.16,7,7,0,0,1,1.81-2,5.64,5.64,0,0,1,2-.93,4,4,0,0,1,3.92,1.11q1.63,1.65,1.65,5.22v3Zm5.72-4.34a4.68,4.68,0,0,0-.85-3,2,2,0,0,0-2-.56,3.25,3.25,0,0,0-2,1.51,7,7,0,0,0-.85,3.4Z"/><path class="cls-13" d="M781.84,540.06l2.71-.64v1.91h.05a5.47,5.47,0,0,1,3.51-3,3.26,3.26,0,0,1,3.07.86q1.38,1.28,1.44,4.36v12l-2.71.64V545.45a3.94,3.94,0,0,0-.75-2.71,1.82,1.82,0,0,0-1.92-.56,3.11,3.11,0,0,0-1.93,1.46,5.53,5.53,0,0,0-.77,3.07v10.77l-2.71.64Z"/><path class="cls-13" d="M806.57,549.38a11.43,11.43,0,0,1-2.08,2.69,6.1,6.1,0,0,1-2.77,1.57,4.28,4.28,0,0,1-4.2-1.18q-1.87-1.73-1.92-6.59t1.92-7.59a7,7,0,0,1,4.2-3.13,4.34,4.34,0,0,1,2.77.21,5.51,5.51,0,0,1,2.08,1.78l-2,2.85a2.49,2.49,0,0,0-2.74-1.25q-3.46.74-3.51,6.48t3.51,4.77a4.33,4.33,0,0,0,2.74-2.53Z"/><path class="cls-13" d="M810.87,543.62a4.19,4.19,0,0,0,.94,3.08,2.21,2.21,0,0,0,2.29.61,5,5,0,0,0,3-2.45l2,1.78q-2.06,3.44-4.86,4.07a5.14,5.14,0,0,1-2.08.08,3.52,3.52,0,0,1-1-.38,3.46,3.46,0,0,1-.95-.59,5.73,5.73,0,0,1-1.39-2.49,13.15,13.15,0,0,1-.59-4.38,17.87,17.87,0,0,1,.51-4.57,11,11,0,0,1,1.3-3.16,7,7,0,0,1,1.81-2,5.61,5.61,0,0,1,1.95-.93,4,4,0,0,1,3.91,1.11q1.62,1.65,1.65,5.21v3Zm5.71-4.33a4.68,4.68,0,0,0-.85-3,1.94,1.94,0,0,0-2-.56,3.24,3.24,0,0,0-2,1.5,7,7,0,0,0-.85,3.4Z"/><path class="cls-13" d="M823,542.9a4,4,0,0,0,4.27,1.3,3.75,3.75,0,0,0,1.91-1.06,2.64,2.64,0,0,0,.74-1.88q0-1-.44-1.25a1.63,1.63,0,0,0-1.21-.15l-2.39.29a3.2,3.2,0,0,1-2.77-.88,4.47,4.47,0,0,1-1.12-3.33,6.92,6.92,0,0,1,1.47-4.52A6.36,6.36,0,0,1,827,529.2a8.35,8.35,0,0,1,1.68-.24,5.84,5.84,0,0,1,1.39.16,5.74,5.74,0,0,1,2.23,1.3l-1.68,3a5.93,5.93,0,0,0-1.65-.86,4,4,0,0,0-2,0,2.88,2.88,0,0,0-1.78,1,2.81,2.81,0,0,0-.53,1.69,1.11,1.11,0,0,0,.4,1,1.64,1.64,0,0,0,1.38.32l2.24-.3a3,3,0,0,1,3,1,6.08,6.08,0,0,1,.87,3.5,6.6,6.6,0,0,1-1.6,4.43,7.48,7.48,0,0,1-4,2.44,6,6,0,0,1-5.94-1.83Z"/><rect class="cls-14" x="755.13" y="254.54" width="11.61" height="23.84"/><rect class="cls-15" x="744.15" y="254.54" width="11.61" height="23.84"/><polygon class="cls-16" points="825.39 264.68 682.36 265.51 694.98 147.89 809.27 147.89 825.39 264.68"/><polygon class="cls-17" points="756.7 369.02 727.46 366.2 727.06 274.93 756.7 274.93 756.7 369.02"/><polygon class="cls-15" points="783.99 364.32 756.7 369.02 756.7 274.93 783.99 274.61 783.99 364.32"/><polygon class="cls-18" points="636.58 385.83 534.46 401.9 413.99 392.72 536.76 380.1 636.58 385.83"/><polygon class="cls-19" points="501.19 407.63 388.75 407.63 430.05 390.42 524.14 391.57 501.19 407.63"/></g></g></svg>