<svg xmlns="http://www.w3.org/2000/svg" viewBox="0 0 407.42 593.35"><defs><style>.cls-1{isolation:isolate;}.cls-2{fill:#81b4d4;}.cls-3{fill:#262262;}.cls-4,.cls-6{fill:#662d91;}.cls-5{fill:#e8e9f4;}.cls-6{opacity:0.1;mix-blend-mode:multiply;}</style></defs><title>jelly</title><g class="cls-1"><g id="Layer_2" data-name="Layer 2"><g id="Layer_7" data-name="Layer 7"><path class="cls-2" d="M407.42,560.78c0-18-79.45-32.56-177.45-32.56S62.11,558.61,62.11,576.59,132,593.34,230,593.34,407.42,578.76,407.42,560.78Z"/><path class="cls-3" d="M259,588.92H92.26c-49,0-89-51.73-89-114.95L1.47,216.85C7.73,206.15,43.29,21.22,92.26,21.22l162.94-.92c32,1.72,76.57,135.82,92,194.79L348.08,474C348.08,537.19,308,588.92,259,588.92Z"/><rect class="cls-4" x="56.36" width="231.32" height="30.71" rx="15.36" ry="15.36"/><path class="cls-5" d="M348.66,215.09H292.76c-11.22-27.72-59-48.55-116.2-48.55s-105,20.83-116.2,48.55H.77A12,12,0,0,1,0,216.85L1.77,474a142.72,142.72,0,0,0,5.58,39.77H344A142.72,142.72,0,0,0,349.55,474Z"/><path class="cls-6" d="M271.59,30.71h.73a15.36,15.36,0,1,0,0-30.71H170.67V588.92H259c49,0,89-51.73,89-114.95l-.88-258.88C334.27,165.68,300.92,63.56,271.59,30.71Z"/></g></g></g></svg>