<svg xmlns="http://www.w3.org/2000/svg" viewBox="0 0 706.88 952.18"><defs><style>.cls-1{isolation:isolate;}.cls-2{fill:#81b4d4;}.cls-3{fill:#fff;}.cls-4{fill:#f5ca51;}.cls-5{fill:#ffda64;}.cls-6{fill:#be1e2d;}.cls-7{fill:#8c191c;}.cls-8{fill:#da7127;opacity:0.27;mix-blend-mode:multiply;}.cls-9{fill:#1b75bc;}</style></defs><title>mustard</title><g class="cls-1"><g id="Layer_2" data-name="Layer 2"><g id="Layer_7" data-name="Layer 7"><ellipse class="cls-2" cx="379.03" cy="912.35" rx="327.85" ry="39.83"/><path class="cls-3" d="M237.71,122.66a357.79,357.79,0,0,0-52.85,70.87C178.43,204.88,172,218.07,178,231c5.23,11.33,17,18,27.43,23.77,52.69,29.25,110.39,48,163.34,76.75,12.72,6.9,25.65,14.12,37.12,23,10,7.73,19.92,17.67,23,30.32,6.59,26.63-21.67,43.16-42.9,50-29.55,9.47-61.26,12.54-92.13,9.87a227.63,227.63,0,0,1-46.34-8.77c-13.62-4.13-26.46-10.72-32.59-24.3-5.8-12.85-6.09-28.31-5.34-42.15A169.72,169.72,0,0,1,218,326.32c9.25-28.47,24.5-54.67,41.24-79.33,4.07-6,8.26-11.91,12.51-17.78,2.42-3.34-3.13-6.53-5.52-3.23-34.45,47.6-68.78,104.28-62.58,165.53,1.3,12.89,4.78,26.16,14.2,35.59,9.64,9.64,23.29,13.92,36.17,17.22a247.21,247.21,0,0,0,94.86,5.26c25.63-3.53,56-9.87,74.92-29.11,7.91-8,13-18.73,12.32-30.18-.72-12.46-7.67-23.33-16.27-32-9.89-10-22-17.42-34-24.5-13.25-7.8-26.93-14.86-40.79-21.5-28.38-13.58-57.57-25.36-86.24-38.28-14.32-6.46-28.52-13.2-42.4-20.58-11.57-6.15-28-13.13-33.16-26.26-3.09-7.9-.29-16.25,3.3-23.45s7.75-14,12-20.71a345,345,0,0,1,28.24-38.73q7.43-8.82,15.43-17.14c2.84-3-1.67-7.5-4.52-4.52Z"/><path class="cls-4" d="M440,628.19a379.33,379.33,0,0,1-3.75-51c0-29.28,4.26-57.86,8.86-84.89,37.41-39.65,53.85-88.06,28-135.11C403.53,231,380.47,174.53,334.82,150.5a21.15,21.15,0,0,0,9.42-17.56V113.88a21.19,21.19,0,0,0-21.13-21.13H296.37L285.22,39.09A39.21,39.21,0,0,0,246.13,0h0A39.21,39.21,0,0,0,207,39.09L196.69,92.75H169.14A21.19,21.19,0,0,0,148,113.88v19.07a21.14,21.14,0,0,0,9.87,17.83C78.94,188.59,54.82,283.47,13.1,358-15.13,408.37,5,460.39,47.51,501.42c4.13,24.34,7.91,49.8,8.67,75.79.63,21.6-1.17,42.4-3.81,62.18C24.88,699,.83,789.47.83,814.82v65.95a70.72,70.72,0,0,0,70.51,70.51H427a70.72,70.72,0,0,0,70.51-70.51V814.82C497.55,789,469.9,690.89,440,628.19Z"/><path class="cls-5" d="M393.28,525.62c28.68-31.89,46-73.31,46-118.59,0-100.76-85.8-182.44-191.63-182.44S56,306.27,56,407c0,46.54,18.31,89,48.44,121.22,3.11,30.3,10,70.74,21.69,124,17,77.75-37.84,141.58,123.59,142.64C415.34,796,350.92,726.65,369.9,649.36,383.21,595.14,390.56,555,393.28,525.62Z"/><path class="cls-6" d="M411.47,459.84S265,500.52,264.59,456c-.34-41-172.75,24.28-172.75,24.28s-6-118-21.49-155.17c-19.2-46.17,201.83-89.11,202.07-48.1.37,64.56,145.85-3,126.5,22.4C377.7,327.16,411.47,459.84,411.47,459.84Z"/><path class="cls-7" d="M92.73,364.44a1.11,1.11,0,0,0-1.55-.53q-1.54.64-1.54,3.86v35.54a9.51,9.51,0,0,1-.72,4.19,3.94,3.94,0,0,1-2.41,2l-6,2c-3.22,1.06-5.57.39-7.09-2S71.2,403,71.2,397V370.46a10.32,10.32,0,0,1,.63-4.07A4,4,0,0,1,74,364.34l67.1-29.08q2-.86,2.83.08t.84,4v30.79q0,10.27-3,16.25a15,15,0,0,1-9,7.9l-7.16,2.35q-2,.65-2.79-.33t-.82-3.94V354.47q0-3.43-1.74-2.71a3.33,3.33,0,0,0-1.72,2v89a9.62,9.62,0,0,1-.76,4.36,3.66,3.66,0,0,1-2.56,1.83l-19.39,4.5a2,2,0,0,1-2.34-.63,7.38,7.38,0,0,1-.69-3.81Z"/><path class="cls-7" d="M180.85,345.3c1.62-.62,2.75-.62,3.39,0s1,1.94,1,3.92v56.93a12.51,12.51,0,0,0,.39,3.92,1,1,0,0,0,1.3.7,2.35,2.35,0,0,0,1.63-1.67,36.62,36.62,0,0,0,1-5.91,19.78,19.78,0,0,1,.52-3.77,1.49,1.49,0,0,1,1.05-.92l2.25-.65c.53-.15.91.16,1.13.92a17.51,17.51,0,0,1,.33,4.18c0,9.5-1.91,17.28-5.69,23.28a24.29,24.29,0,0,1-15.67,11.16c-6.3,1.44-11,.08-14.32-4s-4.85-10.52-4.85-19.47V376q0-5.8-1.16-8.45a8.3,8.3,0,0,0-4.23-4.12,1.94,1.94,0,0,1-1-.7,2.33,2.33,0,0,1-.17-1v-2a2.09,2.09,0,0,1,1.36-2.16ZM153,332.89a24.8,24.8,0,0,1,4.06-13.74,25.84,25.84,0,0,1,11.22-9.64c4.83-2.21,8.76-2.46,11.75-.69s4.54,5.31,4.54,10.55A24.64,24.64,0,0,1,180,333.64,25.45,25.45,0,0,1,168.28,343c-4.75,1.89-8.47,1.9-11.22.05S153,337.85,153,332.89Z"/><path class="cls-7" d="M216.68,331.48c4.82-1.86,8.67-2.25,11.49-1.14s4.83,3.75,5.94,7.9c4.49-12.22,11.55-20.27,21.37-24.09s17.43-2,23.13,5.53,8.74,20.25,8.74,37.69c0,17-3,31.08-8.82,42-5.76,10.71-13.65,17.15-23.53,19.41-8,1.83-14.07.59-18.29-3.64V454.8a8.47,8.47,0,0,1-1.15,4.87,5.85,5.85,0,0,1-4,2.1l-26,4.38c-1.75.29-3,0-3.65-.74s-1-2.2-1-4.23V359.71q0-6.3-1.36-9.13a9,9,0,0,0-5-4.33,2.17,2.17,0,0,1-1.13-.73,2.32,2.32,0,0,1-.2-1.08v-2.13a2.35,2.35,0,0,1,1.6-2.39Zm25.59,15.34q0-4.62-2.95-3.58a4.62,4.62,0,0,0-2.61,2.45v58.94a2.24,2.24,0,0,0,2.61.86c2-.5,2.95-2.29,2.95-5.37Z"/><path class="cls-7" d="M339.51,371.27a17,17,0,0,1-3.71,10.59,19.66,19.66,0,0,1-9.91,6.76,5.73,5.73,0,0,0-.8,2.59c0,1.89,1.2,2.54,3.6,2q6.48-1.56,11.76-8.94a26.44,26.44,0,0,0,5.34-15.54c0-6.12-2-10.37-5.86-12.75s-10.43-3.31-19.59-2.9c-16.76.8-24.85-5.62-24.85-19.25,0-10.84,4.64-21.13,14.11-31.06,9.73-10.2,23.34-18.78,41.28-25.76,15.41-6,27.86-8.32,37-6.73,9.37,1.63,14.14,7.11,14.14,16.42,0,6.42-2.52,12.37-7.5,17.79s-11.64,9.4-20.07,12.15c-8.1,2.64-14.58,3-19.51,1.15s-7.28-5.5-7.28-11a18.79,18.79,0,0,1,3.83-11.16,25.22,25.22,0,0,1,10.64-8.34,6.54,6.54,0,0,0,.88-2.85q0-3-4-1.48-7,2.62-12.36,10.82c-3.57,5.41-5.35,10.76-5.35,16.1,0,6.08,2.12,10.19,6.41,12.34s11.66,2.76,22.15,1.7c12.8-1.41,22.21-.61,28,2.47s8.79,9.24,8.79,18.28c0,12.76-5.76,24-17,33.42-11,9.19-26.18,15.94-45.14,20.27-16.43,3.76-29,4.2-38.15,1.52-8.89-2.62-13.25-7.78-13.25-15.54a21.39,21.39,0,0,1,5.78-14.74c3.91-4.34,9.28-7.53,16.18-9.55s12.88-2.09,17.46,0S339.51,365.8,339.51,371.27Z"/><path class="cls-8" d="M436.21,577.2c0-29.28,4.26-57.86,8.86-84.89,37.41-39.65,53.85-88.06,28-135.11C403.53,231,380.47,174.53,334.82,150.5a21.15,21.15,0,0,0,9.42-17.56V113.88a21.19,21.19,0,0,0-21.13-21.13H296.37L285.22,39.09a39.24,39.24,0,0,0-33-38.61V951.27H427a70.72,70.72,0,0,0,70.51-70.51V814.82c0-25.82-27.66-123.92-57.59-186.63A379.33,379.33,0,0,1,436.21,577.2Z"/><path class="cls-3" d="M85.06,362.91a1.11,1.11,0,0,0-1.55-.53Q82,363,82,366.24v35.54a9.51,9.51,0,0,1-.72,4.19,3.94,3.94,0,0,1-2.41,2l-6,2c-3.22,1.06-5.57.39-7.09-2s-2.26-6.48-2.26-12.39V368.92a10.32,10.32,0,0,1,.63-4.07,4,4,0,0,1,2.14-2.05l67.1-29.08q2-.86,2.83.08t.84,4v30.79q0,10.27-3,16.25a15,15,0,0,1-9,7.9l-7.16,2.35q-2,.65-2.79-.33t-.82-3.94V352.94q0-3.43-1.74-2.71a3.33,3.33,0,0,0-1.72,2v89a9.62,9.62,0,0,1-.76,4.36,3.66,3.66,0,0,1-2.56,1.83l-19.39,4.5a2,2,0,0,1-2.34-.63,7.38,7.38,0,0,1-.69-3.81Z"/><path class="cls-3" d="M173.19,343.77c1.62-.62,2.75-.62,3.39,0s1,1.94,1,3.92v56.93a12.51,12.51,0,0,0,.39,3.92,1,1,0,0,0,1.3.7,2.35,2.35,0,0,0,1.63-1.67,36.62,36.62,0,0,0,1-5.91,19.78,19.78,0,0,1,.52-3.77,1.49,1.49,0,0,1,1.05-.92l2.25-.65c.53-.15.91.16,1.13.92a17.51,17.51,0,0,1,.33,4.18c0,9.5-1.91,17.28-5.69,23.28a24.29,24.29,0,0,1-15.67,11.16c-6.3,1.44-11,.08-14.32-4s-4.85-10.52-4.85-19.47v-38q0-5.8-1.16-8.45a8.3,8.3,0,0,0-4.23-4.12,1.94,1.94,0,0,1-1-.7,2.33,2.33,0,0,1-.17-1v-2a2.09,2.09,0,0,1,1.36-2.16Zm-27.85-12.41a24.8,24.8,0,0,1,4.06-13.74A25.84,25.84,0,0,1,160.62,308c4.83-2.21,8.76-2.46,11.75-.69s4.54,5.31,4.54,10.55a24.64,24.64,0,0,1-4.54,14.27,25.45,25.45,0,0,1-11.75,9.37c-4.75,1.89-8.47,1.9-11.22.05S145.34,336.32,145.34,331.36Z"/><path class="cls-3" d="M209,329.95c4.82-1.86,8.67-2.25,11.49-1.14s4.83,3.75,5.94,7.9c4.49-12.22,11.55-20.27,21.37-24.09s17.43-2,23.13,5.53,8.74,20.25,8.74,37.69c0,17-3,31.08-8.82,42-5.76,10.71-13.65,17.15-23.53,19.41-8,1.83-14.07.59-18.29-3.64v39.68a8.47,8.47,0,0,1-1.15,4.87,5.85,5.85,0,0,1-4,2.1l-26,4.38c-1.75.29-3,0-3.65-.74s-1-2.2-1-4.23V358.18q0-6.3-1.36-9.13a9,9,0,0,0-5-4.33,2.17,2.17,0,0,1-1.13-.73,2.32,2.32,0,0,1-.2-1.08v-2.13a2.35,2.35,0,0,1,1.6-2.39Zm25.59,15.34q0-4.62-2.95-3.58a4.62,4.62,0,0,0-2.61,2.45V403.1a2.24,2.24,0,0,0,2.61.86c2-.5,2.95-2.29,2.95-5.37Z"/><path class="cls-3" d="M331.84,369.74a17,17,0,0,1-3.71,10.59,19.66,19.66,0,0,1-9.91,6.76,5.73,5.73,0,0,0-.8,2.59c0,1.89,1.2,2.54,3.6,2q6.48-1.56,11.76-8.94a26.44,26.44,0,0,0,5.34-15.54c0-6.12-2-10.37-5.86-12.75s-10.43-3.31-19.59-2.9c-16.76.8-24.85-5.62-24.85-19.25,0-10.84,4.64-21.13,14.11-31.06,9.73-10.2,23.34-18.78,41.28-25.76,15.41-6,27.86-8.32,37-6.73,9.37,1.63,14.14,7.11,14.14,16.42,0,6.42-2.52,12.37-7.5,17.79s-11.64,9.4-20.07,12.15c-8.1,2.64-14.58,3-19.51,1.15s-7.28-5.5-7.28-11A18.79,18.79,0,0,1,343.85,294a25.22,25.22,0,0,1,10.64-8.34,6.54,6.54,0,0,0,.88-2.85q0-3-4-1.48-7,2.62-12.36,10.82c-3.57,5.41-5.35,10.76-5.35,16.1,0,6.08,2.12,10.19,6.41,12.34s11.66,2.76,22.15,1.7c12.8-1.41,22.21-.61,28,2.47S399,334,399,343.08c0,12.76-5.76,24-17,33.42-11,9.19-26.18,15.94-45.14,20.27-16.43,3.76-29,4.2-38.15,1.52-8.89-2.62-13.25-7.78-13.25-15.54A21.39,21.39,0,0,1,291.22,368c3.91-4.34,9.28-7.53,16.18-9.55s12.88-2.09,17.46,0S331.84,364.27,331.84,369.74Z"/><path class="cls-9" d="M164,550.16a16,16,0,0,1-5.54-.88,17.3,17.3,0,0,1-6.56-4.25c-2.19-2.31-3.41-4.26-.46-10.16,4.44-8.93,12.63-20.49,21.22-30-3.48-.65-5.62-2.26-6.53-3.75a2.15,2.15,0,0,1-.27-2.21,2.84,2.84,0,0,1,2.47-1.19,80.82,80.82,0,0,0,13.22-2.5c4.74-1.16,9.64-2.36,13.81-2.54q.7,0,1.4,0c7.32,0,12,2.62,13.9,7.78,2.08,5.56.53,11-4.49,15.64a49.65,49.65,0,0,1-16,9.4,14.79,14.79,0,0,1,3.19,2.53,7.29,7.29,0,0,1,1.92,5.64c-.21,2.87-1.92,5.69-4.79,7.95-5.72,4.48-15.13,7.39-21.45,8.2A38.42,38.42,0,0,1,164,550.16Zm3.12-21.51a66.89,66.89,0,0,0-7.29,12.24c-.56,1.28-.36,1.62-.35,1.62s.24.34,1.7.34q.53,0,1.17-.06c7-.62,17.19-3.93,22.23-8.39,1.71-1.53,2.56-2.92,2.27-3.72-.16-.46-1.21-2-7.78-2.23-1.66.25-3.33.42-4.94.59-.92.07-1.77.11-2.55.11A18.05,18.05,0,0,1,167.14,528.65ZM184,504c-.13,2.24-1.38,4.86-3.86,8.13-1.37,1.82-3.11,3.94-4.94,6.18L173,521c16.44-3.37,27.94-10.47,30.63-15.82a3.25,3.25,0,0,0,.3-3c-.47-.88-1.8-1.34-3.94-1.34-3.48,0-8.43,1.24-12.79,2.34Z"/><path class="cls-3" d="M196.77,493.92c5.57,0,10.71,1.57,12.69,6.94,2.14,5.72-.12,10.5-4.16,14.26a50,50,0,0,1-18.56,10.16,14,14,0,0,1,5.71,3.59c2.5,2.65,2.38,7.68-2.74,11.7s-14.16,7.09-20.82,7.94a37.63,37.63,0,0,1-4.88.38,14.69,14.69,0,0,1-5.12-.81,16.05,16.05,0,0,1-6.07-3.93c-1.78-1.88-3-3.24-.24-8.71,4.76-9.56,13.8-22,22.72-31.59-4.76-.17-7.26-2-8.09-3.41-.59-.94-.24-1.37,1.19-1.45,8.33-.51,19-4.7,27-5l1.34,0m-26.92,29C193.4,519,208,507.44,205.06,501.63c-.8-1.49-2.65-2-5.07-2-4.8,0-11.84,2.15-17.29,3.4.24,1.88-.6,4.44-3.57,8.37-2.38,3.16-5.83,7.17-9.28,11.52m1.74,5a14.82,14.82,0,0,1-5-.7,70.17,70.17,0,0,0-8,13.23c-1.15,2.62-.28,3.73,2.53,3.73q.58,0,1.28-.06c7.61-.68,17.84-4.18,23-8.71,4.4-3.93,4.4-7.77-6.42-8.2-1.67.26-3.33.43-5,.6q-1.31.1-2.42.1m25.18-36.49h0q-.72,0-1.45,0c-4.29.18-9.26,1.4-14.06,2.57a79.94,79.94,0,0,1-13,2.47,4,4,0,0,0-3.53,1.88,3.39,3.39,0,0,0,.34,3.49,9.52,9.52,0,0,0,5.25,3.77c-8.14,9.29-15.76,20.19-20,28.72-3,6-2.14,8.64.67,11.61a18.6,18.6,0,0,0,7.06,4.57,17.22,17.22,0,0,0,6,1,39.7,39.7,0,0,0,5.21-.4c6.48-.83,16.15-3.83,22.06-8.46,3.16-2.48,5-5.63,5.28-8.86a8.56,8.56,0,0,0-2.26-6.6,16.05,16.05,0,0,0-1.44-1.34A49.84,49.84,0,0,0,207,517c5.45-5.06,7.11-10.95,4.83-17-1.45-3.92-5.24-8.61-15.09-8.61ZM185.16,505l2.34-.58c4.29-1.08,9.16-2.3,12.48-2.3,1.81,0,2.65.37,2.82.69.25.48-.09,1.32-.32,1.77-2,4-11.27,10.62-26.14,14.32,1.79-2.18,3.47-4.24,4.82-6,2.3-3,3.61-5.59,4-7.86Zm-13.58,25.37c.82,0,1.7,0,2.62-.11h.06c1.58-.16,3.22-.33,4.88-.58,4.77.22,6.17,1.12,6.47,1.37a6,6,0,0,1-1.88,2.35c-4.33,3.83-13.77,7.38-21.49,8.07-.39,0-.74.05-1.05.05h-.25l.06-.15a63,63,0,0,1,6.68-11.33,20.73,20.73,0,0,0,3.9.33Z"/><path class="cls-9" d="M214.42,550a17,17,0,0,1-11.78-4.58c-5.27-5-4.6-12.8,1.77-20.93,5.23-6.71,13-11.26,19.86-11.59l1,0a10.29,10.29,0,0,1,8,3.29,18.22,18.22,0,0,0,1.86,1.51c2.22,1.64,4.74,3.5,4.11,8.95,0,.15,0,.28-.06.41.28,0,.59,0,.93,0a1.69,1.69,0,0,1,1.21,3.08,6.61,6.61,0,0,1-3.13,1.33c-2.81,7.29-10.38,15.88-19.43,18.08A18.88,18.88,0,0,1,214.42,550Zm6.4-27.31a32.72,32.72,0,0,0-7.25,6.7c-3.84,5-5.35,10.25-4.86,12.87a2.07,2.07,0,0,0,.82,1.48,3.44,3.44,0,0,0,1.74.4c3.16,0,8.4-2.77,13-8.95a41.33,41.33,0,0,0,3.42-5.38,12.7,12.7,0,0,1-1.15-.61A12.57,12.57,0,0,1,220.82,522.69Zm8.78-2.74c-.12,0-.5.32-.69,1.11a4.15,4.15,0,0,0,.78,3.41,8,8,0,0,0,.31-3.68A1.45,1.45,0,0,0,229.6,519.94Z"/><path class="cls-3" d="M225.27,514.16a9.08,9.08,0,0,1,7.15,2.93c2.74,2.65,6.31,3.24,5.59,9.39-.12.68-.12,1.28-.24,2,.71,0,1.43-.17,2.38-.17s.83.43.36.85a5.78,5.78,0,0,1-3.21,1.11c-2.5,7.26-10,15.88-18.8,18a17.65,17.65,0,0,1-4.09.48,15.72,15.72,0,0,1-10.9-4.24c-5.23-5-3.45-12.38,1.9-19.21,4.52-5.81,11.78-10.76,18.92-11.1l.94,0m5,12.66c1-2.65,1.31-4.78,1-6.32-.28-1.27-.93-1.84-1.62-1.84s-1.63.76-1.95,2.09a5.89,5.89,0,0,0,2.62,6.06m-19,18.6c3.75,0,9.34-3.17,14-9.46a39.86,39.86,0,0,0,4.16-6.83,10.09,10.09,0,0,1-2.26-1c-2.5-1.37-5.35-4.35-5.47-7.51a34.73,34.73,0,0,0-9.16,8c-5,6.49-6.78,14.34-3.69,16.22a4.7,4.7,0,0,0,2.41.58m14-33.81-1.06,0c-8.74.42-16.48,6.51-20.82,12.08-6.82,8.7-7.43,17.16-1.64,22.64a18.27,18.27,0,0,0,12.66,4.94,20.14,20.14,0,0,0,4.68-.55c9.21-2.23,16.94-10.76,20.06-18.21a7.42,7.42,0,0,0,3-1.43l0,0,0,0a3.06,3.06,0,0,0,1-3.43,3,3,0,0,0-2.56-1.86c.29-5.4-2.47-7.43-4.71-9.09a17,17,0,0,1-1.74-1.4,11.56,11.56,0,0,0-8.93-3.64Zm-14,31.25a2.24,2.24,0,0,1-1.11-.23c-.81-.63-.23-6.42,4.42-12.46a30.37,30.37,0,0,1,5.69-5.51,14.39,14.39,0,0,0,5.65,5.66h0a41.51,41.51,0,0,1-2.7,4.09c-4.3,5.8-9.22,8.44-12,8.44Z"/><path class="cls-9" d="M272.81,550.21h-.58c-7.14-.28-9.64-3.23-10.48-5.7-3.18,2.48-8.17,5.44-13.86,5.44-4.92,0-8.63-2.07-10.18-5.67-2.09-4.89.13-11.62,5.8-17.58,9.89-10.43,19.81-14.14,25.79-14.14A9,9,0,0,1,276,515a6.22,6.22,0,0,1,1.13,1.64C283.48,508,291.34,498,295.27,494a3.63,3.63,0,0,1,2.54-1.25,2.68,2.68,0,0,1,2.36,1.54c2.18,3.69,1,8.1-3.81,14.28-1.18,1.51-2.6,3.32-4.17,5.31-6,7.57-14.16,17.95-18.85,25.08-2.09,3.22-2.4,5.15-2,5.83.21.39.88.48,1.4.48h.22c4.4-.15,10.61-5.77,14.48-11.24a2.61,2.61,0,0,1,2.07-1.13,2.34,2.34,0,0,1,1.93,1.05c.85,1.37.79,4.16-.94,6.74C287.3,545.3,280,550.21,272.81,550.21Zm-1.69-30.74c-3,0-11.19,4.71-17.86,12.37-4.43,5.06-6.2,10.08-5.34,12,.15.33.43.71,1.31.73h0c4.25,0,10.38-4.78,15.71-12.19,7.83-10.75,6.65-12.82,6.63-12.84a.73.73,0,0,0-.39-.08l-.06-1.28Z"/><path class="cls-3" d="M297.81,494a1.41,1.41,0,0,1,1.23.86c1.67,2.82,1.31,6.49-3.69,12.89-5.71,7.34-17.13,21.43-23.08,30.48-3.14,4.84-3.32,8.29.44,8.29H273c4.88-.17,11.3-5.89,15.47-11.78a1.33,1.33,0,0,1,1-.59,1.07,1.07,0,0,1,.88.5c.48.77.59,3-1,5.29-3.12,4.57-10.19,9-16.6,9h-.53c-6.43-.26-9.64-2.82-9.64-6.83-3.81,3.41-9.16,6.57-14.75,6.57-11.06,0-13.21-10.84-3.45-21.09,9.4-9.9,18.92-13.74,24.87-13.74,4.88,0,7.26,2.65,7.14,5.81,6.42-8.79,15.47-20.4,19.75-24.76a2.43,2.43,0,0,1,1.62-.86m-48.5,51.83c4.75,0,11.11-5,16.66-12.72,6.9-9.48,8.68-14.85,5.23-14.94h-.09c-3.74,0-12.34,5.35-18.83,12.81s-7.73,14.77-3.09,14.85h.12m48.5-54.39h0a4.83,4.83,0,0,0-3.44,1.62c-3.76,3.82-11,13-17.22,21.29l-.28-.3c-1.22-1.27-3.53-2.78-7.58-2.78-6.25,0-16.55,3.82-26.72,14.54-6,6.33-8.34,13.6-6,19,1.76,4.1,5.89,6.44,11.35,6.44s10.05-2.41,13.38-4.77c1.4,2.38,4.43,4.76,10.91,5h.64c7.67,0,15.36-5.2,18.71-10.09,2.06-3.07,2.07-6.39,1-8.08l0-.06,0-.06a3.6,3.6,0,0,0-3-1.6,3.88,3.88,0,0,0-3,1.58l0,0,0,0c-4.23,6-10,10.58-13.47,10.7h-.43c0-.54.35-1.87,1.95-4.33,4.65-7.08,12.81-17.42,18.77-25,1.57-2,3-3.8,4.18-5.32,5.17-6.63,6.38-11.48,3.9-15.72a3.91,3.91,0,0,0-3.46-2.16Zm-48.76,51.81c-.41-1,.48-5.24,5.16-10.6,5.72-6.56,12.7-11,16-11.8-.41,1.41-1.78,4.57-6.28,10.74-5.8,8.06-11.51,11.67-14.59,11.67h-.07l-.19,0Z"/><path class="cls-9" d="M282.86,580.16a7.26,7.26,0,0,1-5.45-2.52c-2.06-2.21-5.49-5.91-2.61-12,3.29-7.09,12-12.7,25.78-16.68l.71-1.2a18.91,18.91,0,0,1-8.4,2.13l-.82,0c-3.83-.23-6.47-1.53-7.84-3.88-1.52-2.6-1.28-6.27.7-10.33,2.37-4.95,8.1-13.67,16.43-21.95a3.26,3.26,0,0,1,4.79,0c5,4.81-.42,11-2.21,13.09a72.72,72.72,0,0,0-9,12.25c-1.52,2.68-1.66,4.38-1.31,5,.06.1.2.38.87.42h.24c3.59,0,8.75-4.1,15.35-12.17,2-2.5,4.06-5.23,6-7.88a121.33,121.33,0,0,1,8.43-10.55,3.88,3.88,0,0,1,2.72-1.4,3.43,3.43,0,0,1,1.87.61l.1.06.08.08c2.24,2.06,3.1,6.46-.3,11.24-3.28,4.55-9,12.67-13.68,20a58,58,0,0,0,17-11.34,2.83,2.83,0,0,1,2-.83,2.11,2.11,0,0,1,2.08,1.57c.4,1.28-.19,3.7-2.43,6.15-5,5.72-14,9-22.94,11.66-7.44,12.75-15.55,25.31-25.49,28.06A10.14,10.14,0,0,1,282.86,580.16ZM296,556.61c-9.29,4.91-13.37,11.42-14.26,14.48a4.28,4.28,0,0,0-.22,1.58C283.57,571.86,290,565.8,296,556.61Z"/><path class="cls-3" d="M327.24,513.78a2.2,2.2,0,0,1,1.18.4c1.67,1.54,2.62,5.21-.48,9.56-3.57,5-10.83,15.2-15.82,23.48a61.62,61.62,0,0,0,21.06-13.15,1.54,1.54,0,0,1,1.05-.46.83.83,0,0,1,.85.63c.24.77-.12,2.73-2.14,5-4.64,5.29-13,8.54-22.84,11.44-6.66,11.44-15.11,25.18-25,27.92a8.86,8.86,0,0,1-2.26.33,6,6,0,0,1-4.52-2.12c-2.38-2.56-4.76-5.55-2.38-10.59,3.57-7.68,13.68-12.81,25.46-16.13,1.19-2,2.38-4.1,3.69-6.15-3.49,2.59-7.73,4.72-12.21,4.72l-.75,0c-8.57-.51-8.8-6.74-6.07-12.38,2.62-5.46,8.45-13.91,16.18-21.6a2.13,2.13,0,0,1,1.49-.67,2.07,2.07,0,0,1,1.48.67c2.85,2.73,2.14,6.32-2.26,11.35a73.81,73.81,0,0,0-9.16,12.46c-2.38,4.18-2.14,7.17.59,7.34h.32c4.59,0,10.41-5.38,16.34-12.64,5.12-6.32,10.23-14,14.4-18.35a2.59,2.59,0,0,1,1.79-1M299.4,553.62c-15.47,6.4-20.82,18.1-18.68,20.23a.65.65,0,0,0,.49.18c2.53,0,11.37-8.82,18.19-20.42m27.85-42.4a5.18,5.18,0,0,0-3.64,1.78,122.13,122.13,0,0,0-8.54,10.68c-2,2.64-4,5.36-6,7.84-7.88,9.65-12.15,11.69-14.34,11.7a8.45,8.45,0,0,1,1.3-3.53,71.57,71.57,0,0,1,8.87-12.05c5.31-6.08,6-11.08,2.12-14.85a4.61,4.61,0,0,0-3.28-1.41,4.69,4.69,0,0,0-3.29,1.41c-8.45,8.4-14.27,17.27-16.69,22.31-2.16,4.45-2.39,8.54-.64,11.53,1,1.73,3.15,3.83,7.65,4.4-8.77,3.73-14.52,8.44-17.13,14.07-3.25,6.87.7,11.12,2.83,13.4a8.6,8.6,0,0,0,6.39,2.94,11.35,11.35,0,0,0,2.92-.42c10.32-2.85,18.52-15.4,26-28.22,9-2.69,17.92-6,23.07-11.92,2.22-2.44,3.28-5.33,2.67-7.36a3.4,3.4,0,0,0-3.3-2.46,4.08,4.08,0,0,0-2.87,1.21,54.4,54.4,0,0,1-12.47,9C323,535.15,327.33,529,330,525.24c3.86-5.43,2.77-10.51.14-12.94l-.17-.15-.19-.12a4.73,4.73,0,0,0-2.55-.81Zm-43.43,58.2a27.19,27.19,0,0,1,7.36-8.18,64.72,64.72,0,0,1-7.36,8.18Z"/><path class="cls-9" d="M90.41,616.86l1.17-.51c4.88-2.11,7.28-3.1,12.23-5.05l1.19-.47,20.12,51.05c3.63-1.42,5.78-2.22,9.79-3.65l1.21-.43L140,668.75l-1.2.43c-8.48,3-12.56,4.62-20.81,8.19l-1.17.51Z"/><path class="cls-3" d="M104.28,612.49l20.12,51.05c4.35-1.72,6.54-2.54,10.94-4.1l3,8.53c-8.44,3-12.62,4.64-20.89,8.22L92.09,617.53c4.85-2.1,7.29-3.11,12.19-5m1.44-3.32-2.38.94c-5,2-7.37,3-12.27,5.07l-2.35,1,1,2.35L99.91,642l15.22,35.16,1,2.35,2.35-1c8.22-3.56,12.29-5.16,20.73-8.16l2.41-.86-.86-2.41-3-8.53-.86-2.41-2.41.86c-3.53,1.25-5.69,2-8.64,3.2l-.8-2-18.38-46.64-.94-2.38Z"/><path class="cls-9" d="M145.13,665.3c-4.27-22.59-7.72-43.38-10.54-63.57l-.15-1.09,1-.32c5.42-1.63,8.08-2.38,13.56-3.82l1.06-.28.44,1c9.2,21.12,17.17,40.65,24.36,59.69l.51,1.36-1.42.33c-4.31,1-6.4,1.55-10.66,2.7l-1.12.3-.41-1.09c-1.1-3-1.72-4.6-2.73-7.26-1.53.42-2.65.74-4.18,1.19.54,2.79.88,4.51,1.5,7.61l.23,1.14-1.12.33c-3.53,1-5.24,1.58-8.73,2.73l-1.38.45Zm5.79-33c.57,3.32,1.16,6.66,1.93,10.91l1.91-.54C153.27,638.57,152.1,635.39,150.93,632.25Z"/><path class="cls-3" d="M149.37,597.74c8.58,19.68,16.76,39.55,24.34,59.64-4.29,1-6.43,1.56-10.7,2.71-1.25-3.34-1.88-5-3.14-8.35-2.58.71-3.87,1.07-6.44,1.83.68,3.5,1,5.26,1.72,8.76-3.52,1-5.27,1.59-8.76,2.74-4-21.08-7.56-42.26-10.53-63.51,5.38-1.62,8.09-2.38,13.51-3.8m2.47,47c1.84-.54,2.76-.8,4.6-1.31-3.52-9.57-5.3-14.35-8.93-23.88,1.66,10.09,2.53,15.13,4.34,25.18m-1-50.06-2.12.56c-5.49,1.44-8.16,2.19-13.6,3.83l-2.1.63.3,2.17c2.82,20.21,6.27,41,10.55,63.63l.54,2.86,2.77-.91c3.48-1.14,5.18-1.67,8.7-2.71l2.23-.66-.45-2.29c-.53-2.65-.85-4.29-1.27-6.46l1.92-.54c.78,2.06,1.37,3.63,2.31,6.16l.81,2.18,2.25-.61c4.25-1.15,6.33-1.68,10.62-2.69l2.83-.67-1-2.72c-7.2-19.06-15.17-38.61-24.39-59.75l-.88-2Z"/><path class="cls-9" d="M168.74,591.86l1.25-.26c4.32-.89,6.44-1.3,10.78-2.07l.94-.17.43.86c3.67,7.4,6,12.18,8.69,18.06l-3.11-19.93,1.26-.2c4.23-.66,6.33-1,10.65-1.52l1.27-.16,8.5,65.93-1.27.16c-3.21.41-4.76.63-7.92,1.12l-1,.15-.38-.92c-3.82-9.17-6.29-14.88-9.61-22.09l4.27,24-1.26.22c-3.58.64-5.31,1-8.83,1.7l-1.25.26Z"/><path class="cls-3" d="M199.8,587.92l8.17,63.4c-3.18.41-4.77.63-8,1.12-5.2-12.47-7.95-18.67-13.76-31L192,653.76c-3.55.63-5.33,1-8.87,1.7l-12.89-62.61c4.29-.88,6.44-1.3,10.75-2.06,5.25,10.57,7.76,15.89,12.55,26.6l-4.37-28c4.24-.66,6.37-1,10.62-1.51m2.21-2.86-2.54.33c-4.3.55-6.4.85-10.69,1.52l-2.53.39.39,2.53,1.54,9.83c-1.43-3-3-6.13-4.9-10l-.85-1.72-1.89.33c-4.36.77-6.48,1.18-10.82,2.07l-2.51.52.52,2.51L180.64,656l.52,2.51,2.51-.52c3.53-.73,5.26-1.06,8.8-1.69l2.52-.45-.45-2.52L192.3,640.8c1.62,3.72,3.29,7.66,5.36,12.62l.77,1.85,2-.3c3.17-.48,4.71-.7,7.89-1.11l2.54-.33L210.5,651l-8.17-63.4-.33-2.54Z"/><path class="cls-9" d="M229.51,651.32c-7.71,0-12.6-4.73-13.39-13l-3.74-38.67c-.44-4.59.62-8.53,3.09-11.41,2.72-3.18,7.08-5,12.61-5.34q1-.06,1.88-.06c9.47,0,14,4.77,14.19,15a51.66,51.66,0,0,1-.49,8.36l-.17,1.15-1.16-.06c-3.71-.18-5.54-.25-9.3-.34l-1.38,0,.18-1.71a34.12,34.12,0,0,0,.23-5.8c-.25-5.57-1.56-5.57-2.33-5.57h-.26a2.59,2.59,0,0,0-1.76.55,3.77,3.77,0,0,0-.38,2.53l2.64,41.09c.13,2.1.87,2.27,1.75,2.27h.22c.46,0,1.4-.08,1.29-2.45l-1-20.85,1.28-.06c4.57-.22,6.8-.29,11.37-.36l1.28,0,.54,33.1-1.28,0-2.93.06-.73,0-1.21-1.92c-2.29,2.14-5.2,3.12-9.81,3.4Q230.11,651.32,229.51,651.32Z"/><path class="cls-3" d="M230,584.15c7.82,0,12.7,3.27,12.92,13.77a50.64,50.64,0,0,1-.48,8.15c-3.73-.18-5.59-.25-9.33-.34a36.68,36.68,0,0,0,.27-6.33c-.26-5.73-1.68-6.79-3.61-6.79h-.33c-2.86.16-3.54,1.54-3.35,4.44l2.64,41.09c.15,2.29,1.06,3.47,3,3.47H232c1.75-.1,2.61-1.38,2.5-3.79l-.93-19.57c4.53-.21,6.79-.29,11.33-.36l.5,30.55-2.94.06c-.68-1.08-1-1.62-1.72-2.69-2.23,2.72-5,3.89-10.07,4.2-.39,0-.77,0-1.15,0-6.71,0-11.34-3.76-12.12-11.81l-3.74-38.67c-.91-9.42,4.85-14.8,14.5-15.35q.93-.05,1.81-.05m0-2.56c-.62,0-1.28,0-2,.06-5.88.33-10.55,2.33-13.5,5.78-2.7,3.15-3.87,7.42-3.39,12.37l3.74,38.67c.87,9,6.21,14.13,14.67,14.13.43,0,.86,0,1.3,0,4.14-.25,7.09-1.09,9.42-2.77l.05.08.78,1.23,1.45,0,2.92-.06,2.56,0,0-2.56L247.7,633l-.25-15.18,0-2.56-2.56,0c-4.53.07-6.88.15-11.41.36l-2.55.12.12,2.55.47,9.92.46,9.65a3.42,3.42,0,0,1-.08,1.11h-.15a1.45,1.45,0,0,1-.27,0,3,3,0,0,1-.2-1.05l-2.64-41.09a4.75,4.75,0,0,1,.07-1.58,3,3,0,0,1,.87-.14h.19l.24,0c.13.16.66,1,.82,4.34a32.65,32.65,0,0,1-.22,5.61l0,.34-.29,2.75,2.77.07c3.73.09,5.54.16,9.27.34l2.32.11.34-2.29a53.05,53.05,0,0,0,.5-8.57c-.23-11-5.29-16.27-15.47-16.27Z"/><path class="cls-9" d="M270.22,651.19q-.61,0-1.24,0c-9.36-.51-14.43-5.85-14.3-15l.76-52.74,1.28,0c5.19.07,7.71.15,12.88.39l1.28.06-2.51,53.77c-.1,2.12,1,2.43,1.8,2.47h.13c.39,0,1.12,0,1.27-2.39l3.39-53.64,1.28.08c5,.32,7.4.51,12.37,1l1.27.12-4.95,52.43C284.11,646.27,278.75,651.19,270.22,651.19Z"/><path class="cls-3" d="M256.7,584.68c5.14.07,7.71.15,12.84.39l-2.45,52.49c-.11,2.4,1.08,3.7,3,3.81h.2c1.62,0,2.39-1.19,2.54-3.58l3.31-52.36c4.93.31,7.4.51,12.33,1l-4.83,51.16c-.79,8.4-6.05,12.35-13.43,12.35q-.58,0-1.17,0c-8.23-.45-13.22-4.94-13.09-13.74l.74-51.46m-2.52-2.59,0,2.56V585l-.74,51.1c-.14,9.84,5.51,15.79,15.51,16.33.44,0,.88,0,1.31,0,9.14,0,15.11-5.48,16-14.67L291,586.65l.24-2.55-2.55-.24c-5-.47-7.41-.66-12.41-1l-2.55-.16-.16,2.55-3.31,52.36a5.1,5.1,0,0,1-.18,1.18c-.3,0-.5-.17-.45-1.13l.17-3.63,2.28-48.86.12-2.55-2.55-.12c-5.19-.24-7.73-.32-12.92-.39l-2.56,0Z"/><path class="cls-9" d="M319.18,656.71c-4.3-.9-6.42-1.3-10.77-2.06l-1.15-.2.09-1.16c.25-3.15.39-4.9.61-7.73-1.55-.26-2.69-.45-4.25-.69-.69,2.75-1.11,4.46-1.86,7.52l-.28,1.13-1.15-.17c-3.62-.54-5.38-.78-9-1.22L290,652l.36-1.41c5.67-22.29,11.33-42.59,17.3-62.06l.32-1,1.09.16c5.58.82,8.29,1.26,13.81,2.27l1.08.2,0,1.1c-.62,23-1.67,44.1-3.22,64.39L320.6,657Zm-10.61-22.65c.36-4.26.64-7.61.91-10.93-.88,3.22-1.75,6.48-2.84,10.61Z"/><path class="cls-3" d="M308.88,588.86c5.52.81,8.28,1.26,13.77,2.26-.57,21.46-1.58,42.92-3.21,64.33-4.31-.9-6.48-1.31-10.81-2.07.29-3.56.43-5.34.7-8.89-2.62-.45-3.94-.66-6.57-1.06-.87,3.46-1.3,5.19-2.15,8.66-3.6-.54-5.4-.78-9-1.22,5.29-20.79,11-41.49,17.28-62m2.87,21.27C309,620,307.65,624.91,305,634.79c1.88.29,2.82.44,4.69.76.87-10.16,1.28-15.24,2-25.41M307.08,586l-.64,2.1c-6,19.49-11.64,39.81-17.32,62.12l-.72,2.82,2.89.35c3.61.44,5.36.68,8.95,1.21l2.31.34.56-2.27c.64-2.62,1-4.25,1.58-6.39l1.92.31c-.17,2.2-.3,3.87-.52,6.56l-.19,2.32,2.3.4c4.32.75,6.43,1.16,10.73,2.05l2.85.59.22-2.9c1.55-20.3,2.6-41.38,3.22-64.45l.06-2.19-2.16-.39c-5.55-1-8.27-1.46-13.86-2.28l-2.17-.32Z"/><path class="cls-9" d="M352.84,665.56l-2.83-.89-.69-.21-.55-2.22a11.29,11.29,0,0,1-4.72,1,22,22,0,0,1-5.76-.9c-8.21-2.23-11.79-8.4-9.8-16.95l8.8-37.84c1.76-7.57,6.77-11.73,14.12-11.73a23.55,23.55,0,0,1,6.21.9c5.38,1.48,8.7,3.66,10.44,6.85s1.78,7.28.14,12.51a50.67,50.67,0,0,1-3.15,7.76l-.53,1-1.08-.42c-3.49-1.37-5.22-2-8.79-3.32l-1.3-.47.73-1.6a33.91,33.91,0,0,0,2.06-5.4c1-3.4.8-4.8.48-5.38-.14-.25-.38-.51-1.19-.73a4.62,4.62,0,0,0-1.19-.19c-.54,0-1.21,0-1.85,2.42l-10.63,39.78c-.57,2.12.16,2.5,1.17,2.78a1.82,1.82,0,0,0,.48.07c.66,0,1.18-.66,1.55-2l5.73-20.07,1.23.35c4.44,1.27,6.59,1.92,11,3.33l1.22.39L354.06,666Z"/><path class="cls-3" d="M351.41,597.07a22.22,22.22,0,0,1,5.87.86c8.64,2.38,13.09,7,9.7,17.74a50.26,50.26,0,0,1-3.06,7.56c-3.51-1.38-5.28-2-8.82-3.33a36.52,36.52,0,0,0,2.28-5.91c1.67-5.82.44-7.13-1.6-7.7a5.81,5.81,0,0,0-1.53-.24c-1.69,0-2.5,1.15-3.09,3.37L340.53,649.2c-.62,2.33,0,3.76,2.07,4.35a3.07,3.07,0,0,0,.82.12c1.29,0,2.23-1,2.78-2.9l5.38-18.84c4.4,1.26,6.59,1.92,11,3.31l-9.3,29.1-2.84-.89c-.31-1.24-.46-1.86-.78-3.11a10.07,10.07,0,0,1-5.55,1.59,20.94,20.94,0,0,1-5.42-.86c-7.14-1.94-10.83-7.09-8.89-15.42l8.8-37.84c1.67-7.18,6.41-10.74,12.87-10.74m0-2.56c-7.88,0-13.48,4.64-15.36,12.72l-8.8,37.84c-2.13,9.17,1.87,16.07,10.71,18.47a23.19,23.19,0,0,0,6.09.95,12.84,12.84,0,0,0,3.82-.55l0,.13.35,1.4,1.38.43,2.82.89,2.44.78.78-2.44,3.46-10.84L365,636l.78-2.44-2.44-.78c-4.36-1.39-6.63-2.08-11-3.34l-2.46-.7-.7,2.46-.22.79-5.15,18.05a3.33,3.33,0,0,1-.44,1h0a1.78,1.78,0,0,1-.42-.16,2.94,2.94,0,0,1,.14-1.06l5.42-20.27,5.21-19.51a4.69,4.69,0,0,1,.57-1.47h0a3.32,3.32,0,0,1,.85.15,2,2,0,0,1,.43.16c.07.18.32,1.16-.61,4.37a32.36,32.36,0,0,1-2,5.22l-.15.33-1.15,2.52,2.61.95c3.54,1.29,5.26,1.94,8.76,3.31l2.15.84,1.06-2.06a52.68,52.68,0,0,0,3.23-8c1.75-5.57,1.68-10-.24-13.5S363.7,597,358,595.46a24.82,24.82,0,0,0-6.55-.95Z"/><path class="cls-9" d="M383.9,677.22c-8.28-3.58-12.36-5.19-20.82-8.2l-1.21-.43,22.21-62.48,1.21.43c10.11,3.6,15,5.52,24.86,9.78l1.17.51-4.51,10.42-1.17-.51c-4.44-1.92-6.81-2.91-11-4.54l-5.53,14.08c3.16,1.25,5.05,2,8.52,3.51l1.18.5-4.51,10.6-1.18-.5c-3.35-1.43-5.18-2.18-8.22-3.38l-6.2,15.78c3.65,1.44,5.77,2.32,9.68,4l1.17.51-4.51,10.42Z"/><path class="cls-3" d="M384.87,607.74c10,3.56,15,5.51,24.78,9.75l-3.49,8.08c-4.85-2.1-7.29-3.1-12.19-5L387.49,637c3.89,1.53,5.82,2.32,9.68,4l-3.51,8.25c-3.76-1.6-5.65-2.37-9.45-3.87l-7.14,18.16c4.35,1.71,6.52,2.61,10.83,4.47L384.41,676c-8.28-3.58-12.46-5.23-20.9-8.23l21.36-60.07m-1.55-3.27-.86,2.41-.46,1.29L361.1,667l-.86,2.41,2.41.86c8.44,3,12.51,4.6,20.74,8.17l2.35,1,1-2.35,1.75-4,1.75-4,1-2.35-2.35-1c-3.45-1.49-5.58-2.38-8.53-3.56l2.59-6.59,2.68-6.81c2.37.95,4.13,1.67,7,2.9l2.35,1,1-2.35,1.36-3.2,2.15-5.05,1-2.35-2.35-1c-3-1.29-4.86-2-7.37-3l4.6-11.7c3.43,1.36,5.75,2.33,9.73,4.06l2.35,1,1-2.35,1.84-4.25,1.65-3.82,1-2.35-2.35-1c-9.78-4.23-14.9-6.25-24.94-9.81l-2.41-.86Z"/><rect class="cls-5" x="161.81" y="101.82" width="168.64" height="41.52"/><path class="cls-9" d="M209.72,137.71c-4.26,0-6.93-1.93-6.93-6.28V113.6c0-4.27,2.67-6.43,6.85-6.43,3.79,0,6.55,1.19,6.55,6.51a27.29,27.29,0,0,1-.34,4l-4.35-.31a19.52,19.52,0,0,0,.3-3.16c0-2.77-.73-3.16-1.77-3.16s-1.51.38-1.51,1.89v18.87c0,1.35.39,2,1.68,2,.95,0,1.59-.58,1.59-3.39a21.81,21.81,0,0,0-.3-3.16l4.39-.31a24.42,24.42,0,0,1,.34,4.08C216.22,136.48,213.47,137.71,209.72,137.71Z"/><path class="cls-9" d="M233.14,137.33H221.52V107.67h5.73v25.46h5.9Z"/><path class="cls-9" d="M244.26,137.33h-5.73V107.67h5.73Z"/><path class="cls-9" d="M256.79,137.71c-4.26,0-6.93-1.93-6.93-6.28V113.6c0-4.27,2.67-6.43,6.85-6.43,3.79,0,6.55,1.19,6.55,6.51a27.29,27.29,0,0,1-.34,4l-4.35-.31a19.52,19.52,0,0,0,.3-3.16c0-2.77-.73-3.16-1.77-3.16s-1.51.38-1.51,1.89v18.87c0,1.35.39,2,1.68,2,.95,0,1.59-.58,1.59-3.39a21.81,21.81,0,0,0-.3-3.16l4.39-.31a24.42,24.42,0,0,1,.34,4.08C263.29,136.48,260.53,137.71,256.79,137.71Z"/><path class="cls-9" d="M283.78,137.33h-5.94l-2.71-12.13-.82,1.93v10.21h-5.73V107.67h5.73v8.74l3.49-8.74h5.47l-4.56,10.78Z"/><path class="cls-9" d="M293.86,137.25h-5.38v-4.74h5.38Zm-.09-21.3L292.27,128H290l-1.42-12.13v-8.2h5.21Z"/></g></g></g></svg>