<?xml version="1.0" encoding="UTF-8" standalone="no"?>
<svg
   xmlns:dc="http://purl.org/dc/elements/1.1/"
   xmlns:cc="http://creativecommons.org/ns#"
   xmlns:rdf="http://www.w3.org/1999/02/22-rdf-syntax-ns#"
   xmlns:svg="http://www.w3.org/2000/svg"
   xmlns="http://www.w3.org/2000/svg"
   version="1.1"
   id="svg2"
   viewBox="0 0 3494.0001 1718"
   width="986.08447mm"
   height="484.85779mm">
  <defs
     id="defs8">
    <style
       id="style3144">.cls-1{fill:#8dc63f;}.cls-2{fill:#a4cf53;}.cls-3{fill:#bcd631;}.cls-4{fill:#8fc33f;}</style>
  </defs>
  <metadata
     id="metadata4">
    <rdf:RDF>
      <cc:Work
         rdf:about="">
        <dc:format>image/svg+xml</dc:format>
        <dc:type
           rdf:resource="http://purl.org/dc/dcmitype/StillImage" />
        <dc:title></dc:title>
      </cc:Work>
    </rdf:RDF>
  </metadata>
  <g
     id="Layer_2"
     data-name="Layer 2">
    <g
       id="Layer_4"
       data-name="Layer 4">
      <rect
         style="fill:#8dc63f"
         y="0"
         x="0"
         class="cls-1"
         width="3494"
         height="1718"
         id="rect3150" />
      <path
         style="fill:#a4cf53"
         class="cls-2"
         d="m 3095.26,959.23 c 0,-84.28 -1.81,-167.14 1,-249.89 1,-29.9 -9.4,-44 -41.39,-57.1 C 2815.88,554 2578.09,453.78 2340.25,353.62 c -14.2,-6 -21.57,-4.22 -31.71,5.44 -83,79 -166.73,157.32 -249.62,236.35 -6.33,6 -10.72,15.81 -10.95,23.95 -1.12,39.38 -0.5,78.79 -0.5,118.19 l 5.4,-3.21 c 6.46,5.65 15.29,10.34 19,17.1 22.48,41 29.15,82.8 3.83,125.17 -5.62,9.4 -11.46,17 -26.9,8.27 l 0,74.35 z m -864.38,-43 c 53.8,-49.29 69.81,-102.78 37.55,-161.59 -32.69,-59.6 -92.36,-82.11 -167.42,-77.76 l 0,-38.2 897.64,62.49 c -7.15,36.92 0.3,46.62 43.51,60.19 l 0,55.54 c -38.23,-14.45 -72.54,-11.38 -101.09,13.25 -28.55,24.63 -27.59,54.78 -14.48,86.07 z M 2130.75,595.34 c 3.73,-5 4.84,-7 6.53,-8.6 62.3,-58.79 124.87,-117.37 186.76,-176.47 9.53,-9.1 17.22,-7 27.7,-2.65 q 278.2,116.76 556.58,233.2 c 4.77,2 9.18,4.64 13.75,7 l -1.28,2.54 z m -11.14,307.59 c 37.58,-62 27.58,-120.19 -2.87,-179.41 42.09,-1.3 73.31,11.21 94.9,38.7 24.53,31.23 25.4,64.28 3.11,96.75 -20.19,29.4 -51.69,42.38 -95.14,43.96 z m 923.89,-29.49 c 0,10.82 -0.63,16.56 0.12,22.18 2.2,16.52 -6.05,23 -25.19,21.58 -13.18,-0.95 -26.87,1.36 -39.68,-0.72 -9.15,-1.49 -19.94,-6.14 -25.25,-12.36 -13.76,-16.14 -11.24,-38.34 3.18,-54 14.82,-16.11 40,-21.58 62.68,-15.65 27.95,7.31 25.36,25.7 24.14,38.97 z m -1.22,-139.34 -6.78,2.69 c -4,-5.79 -11,-11.57 -11,-17.36 0,-4.72 8.38,-9.45 13,-14.18 l 4.74,2.65 z"
         id="path3152" />
      <path
         style="fill:#a4cf53"
         class="cls-2"
         d="m 2747.7,849.94 c 30,-0.2 54.95,-21.49 55,-46.87 0,-26.1 -25.91,-47.47 -57,-46.92 -29.91,0.53 -54.44,22.29 -53.88,47.78 0.56,25.49 25.62,46.21 55.88,46.01 z m -26.93,-46 c 0.68,-13.93 13.49,-23.88 28.22,-22.81 15.88,1.15 23.9,9.84 24.57,22.6 0.66,12.51 -12.85,22 -28.1,21 -16.01,-0.99 -23.28,-9.32 -24.7,-20.81 z"
         id="path3154" />
      <path
         style="fill:#a4cf53"
         class="cls-2"
         d="m 2419.23,766.93 c 23.81,-0.13 43.12,-16.66 43,-36.82 -0.11,-19.92 -19.94,-36.44 -43.61,-36.32 -23.67,0.12 -43.23,16.81 -43,36.82 0.23,20.01 19.88,36.45 43.61,36.32 z m -1.39,-19.87 c -6,-8.24 -13,-13.63 -11.92,-17.45 1.14,-4.23 9.36,-9.26 14.9,-9.64 3.8,-0.26 11.93,7.1 11.57,10.55 -0.5,4.64 -7.29,8.79 -14.55,16.54 z"
         id="path3156" />
      <path
         style="fill:#a4cf53"
         class="cls-2"
         d="m 2509.18,858.63 c 7.53,3.87 15.35,11.06 22.52,10.61 6.36,-0.39 17.63,-10.28 16.69,-14.17 -1.54,-6.29 -10.78,-14.75 -17.76,-15.5 -6.56,-0.7 -14.39,7.4 -21.67,11.63 z"
         id="path3158" />
      <path
         style="fill:#a4cf53"
         class="cls-2"
         d="m 2891.29,750.18 c 7.12,4.32 14.83,12.59 21.21,11.89 7,-0.76 16.26,-9.22 17.68,-15.48 0.92,-4.07 -10,-13.9 -16.34,-14.39 -7,-0.54 -14.83,6.63 -22.3,10.45 z"
         id="path3160" />
      <path
         style="fill:#a4cf53"
         class="cls-2"
         d="m 2644.06,560.45 c -0.37,-20.34 -20.23,-36.92 -43.55,-36.38 -23.65,0.55 -42.24,17.39 -41.82,37.87 0.42,20.33 20.22,36.87 43.55,36.39 23.33,-0.48 42.19,-17.45 41.82,-37.88 z m -61.74,0.82 c 8.83,-5.76 14.35,-12.09 19,-11.63 4.92,0.49 12.37,7.35 12.42,11.49 0.05,4.14 -7.47,10.83 -12.43,11.38 -4.62,0.49 -10.19,-5.69 -19,-11.25 z"
         id="path3162" />
      <path
         style="fill:#a4cf53"
         class="cls-2"
         d="m 2380.61,515.73 c 7.54,3.74 16,11.29 22.36,10.18 6.72,-1.17 15.11,-10.31 15.84,-16.56 0.48,-4.16 -11.24,-13.13 -17.43,-13.08 -7.1,0.05 -14.13,7.68 -21.19,12 z"
         id="path3164" />
      <path
         style="fill:#a4cf53"
         class="cls-2"
         d="m 1442.1,1011.09 -1363.78,0 c -0.56,-7.35 -1.39,-13.23 -1.4,-19.11 -0.08,-133.92 0.2,-267.84 -0.42,-401.75 -0.07,-15.46 5.37,-22.86 18.91,-29.46 Q 580.31,324.59 1064.63,87.25 c 15.05,-7.38 23.82,-6.31 35.24,6.35 110.13,122 220.94,243.34 331.13,365.22 5.93,6.55 11.79,16.18 11.92,24.47 1,63.31 0.54,126.64 0.54,186.88 -10.3,4 -22.15,4.87 -25.2,10.47 -34.33,63.05 -51.83,151.58 1.65,223.42 l 22.15,-4.94 z M 293,945.45 l 915.13,0 c -69.56,-70.34 -92.64,-150 -54.64,-238.4 41,-95.32 120.38,-131.73 222.05,-124.7 l 0,-62 -1175.83,95.5 c 11.42,56.46 2.66,70.11 -54.8,91.34 l 0,88.81 c 48.63,-20.54 92.92,-19.29 130.13,17.55 38.14,37.78 38.83,82.9 17.96,131.9 z M 1339.8,458.07 c -5.71,-7.75 -7.92,-11.37 -10.72,-14.45 -82.4,-90.71 -165.11,-181.14 -247,-272.31 -10.51,-11.7 -18.09,-10.88 -30.79,-4.65 Q 679.4,348.91 307.19,530.39 c -4.61,2.25 -8.61,5.74 -19.45,13.12 z m 18.05,192.51 c -54,-9.27 -107.49,16.89 -136.35,64.83 -29.21,48.53 -25.66,111.72 8.79,156.54 31.27,40.67 82.22,62.24 122.2,50.61 -48.88,-91.25 -35.49,-182.04 5.32,-271.97 z M 142.82,888.5 c 0,9.55 0.71,19.16 -0.14,28.63 -2,22.22 6.73,32.17 29.82,30.64 19.88,-1.32 40.09,1.29 59.8,-0.93 9.81,-1.1 21.48,-6.93 27.73,-14.43 20.81,-25 20,-60.27 0.51,-86.86 -19.49,-26.59 -52.86,-37.6 -83.27,-27.67 -30.14,9.84 -34.45,18.68 -34.45,70.62 z m 1.82,-264.21 0,45.18 7.13,4.79 c 7.07,-8.51 18.74,-16.31 20.16,-25.68 2.4,-15.65 -8.7,-24.45 -27.29,-24.29 z"
         id="path3166" />
      <path
         style="fill:#a4cf53"
         class="cls-2"
         d="m 600.65,776.22 c -2.27,39.9 -35.15,68.7 -75.37,66 -38.33,-2.54 -66.25,-35.15 -63.8,-74.5 a 69,69 0 0 1 73.61,-65.1 69.83,69.83 0 0 1 65.56,73.6 z m -69.48,-42 c -20.05,-0.22 -38,17.67 -38.21,38.08 -0.21,20.41 17.41,38.6 37.43,38.87 20.02,0.27 37.78,-17.43 38,-38.08 0.22,-20.65 -17.02,-38.62 -37.22,-38.84 z"
         id="path3168" />
      <path
         style="fill:#a4cf53"
         class="cls-2"
         d="M 905.25,662.71 C 904.89,631.44 927.92,608 959,608 c 30.71,0 55,24.28 54.55,54.59"
         id="path3170" />
      <path
         style="fill:#a4cf53"
         class="cls-2"
         d="m 348.23,686.07 c -16,11.73 -25.35,23.82 -33,22.82 -8.61,-1.13 -19.63,-13.1 -21.87,-22.25 -1.28,-5.22 12.39,-19.47 20.13,-20.12 8.51,-0.72 17.99,9.48 34.74,19.55 z"
         id="path3172" />
      <path
         style="fill:#a4cf53"
         class="cls-2"
         d="m 812.55,884.35 c -10.43,-16.55 -20.74,-25.73 -20.31,-34.37 0.38,-7.67 14.21,-21.69 19.4,-20.56 9.15,2 21.46,12.66 22.68,21.1 1.13,7.8 -10.56,17.48 -21.77,33.83 z"
         id="path3174" />
      <path
         style="fill:#a4cf53"
         class="cls-2"
         d="m 722.16,350.62 c 30.95,0.54 54.1,24.79 53.13,55.68"
         id="path3176" />
      <path
         style="fill:#a4cf53"
         class="cls-2"
         d="m 982.51,295.49 c 10.29,16 21.59,25.82 20.31,33.6 -1.37,8.36 -14.56,14.78 -22.59,22 -7.1,-8 -19.23,-15.55 -19.85,-24 -0.59,-7.84 11.01,-16.64 22.13,-31.6 z"
         id="path3178" />
    </g>
  </g>
</svg>
