<svg xmlns="http://www.w3.org/2000/svg" viewBox="0 0 1257.17 498.96"><defs><style>.cls-1{fill:#81b4d4;}.cls-2{fill:#be1e2d;}.cls-3{fill:#a11d29;}.cls-4{fill:#fce58a;}.cls-5{fill:#f1f2f2;}.cls-6{fill:#e2e8e7;}</style></defs><title>bed</title><g id="Layer_2" data-name="Layer 2"><g id="Layer_8" data-name="Layer 8"><path class="cls-1" d="M1257.17,434.79c0-35.08-176.57-63.52-394.38-63.52s-394.38,28.44-394.38,63.52-23.8,66.08,394.38,63.52C1080.59,497,1257.17,469.87,1257.17,434.79Z"/><path class="cls-2" d="M912.05,319.21C896.78,540,720,495.82,196.2,494.52c-268-.66-180.16-90.6-189.94-201.29C-4,177.37,128.62,130.58,540.64,126.68,841.06,123.84,920.33,199.51,912.05,319.21Z"/><path class="cls-3" d="M892.45,340.54C883.42,487.36,706.1,490.75,714,469.29c3.7-10.05,46.17-166.11,11.29-223.3-42.91-70.35,71.16-46.63,114.07-35.34C895.08,225.32,896.57,273.68,892.45,340.54Z"/><path class="cls-4" d="M721.91,343.54c-4.52,148,.06,138.83-355.76,134.4-362.54-4.52-355,7.27-345.41-130.3,10.16-145.69-45.37-143,345.41-134C698.3,221.34,725.84,214.8,721.91,343.54Z"/><ellipse class="cls-5" cx="443.8" cy="85.2" rx="124.91" ry="82.27"/><path class="cls-6" d="M513.87,16.29c14.91,15.8,23.62,34.88,23.62,55.42,0,45.8-43.3,84.31-102,95.48q5,.27,10.18.27c69,0,124.91-36.83,124.91-82.27C570.54,56.35,548,31,513.87,16.29Z"/><ellipse class="cls-5" cx="675.9" cy="87.82" rx="87.53" ry="130.45" transform="translate(539.1 755.53) rotate(-85.82)"/></g></g></svg>