<svg xmlns="http://www.w3.org/2000/svg" viewBox="0 0 1696.94 498.96"><defs><style>.cls-1{fill:#81b4d4;}.cls-2{fill:#fcdd5a;}.cls-3{fill:#f7cb16;}.cls-4{fill:#eeb01f;}.cls-5{fill:#be1e2d;}.cls-6{fill:#a11d29;}.cls-7{fill:#fce58a;}.cls-8{fill:#f1f2f2;}.cls-9{fill:#e2e8e7;}.cls-10{fill:#499cd6;}.cls-11{fill:#eef3f4;}.cls-12{fill:#ced4d3;}.cls-13{fill:#dbdddd;}.cls-14{fill:#ea3736;}</style></defs><title>cheesebed</title><g id="Layer_2" data-name="Layer 2"><g id="Layer_8" data-name="Layer 8"><path class="cls-1" d="M767.18,457.18c0-20.34-167.48-36.83-374.07-36.83S19,436.85,19,457.18,182.87,472.6,401.3,470C607.87,467.6,767.18,477.52,767.18,457.18Z"/><path class="cls-2" d="M598.07,120.58,0,321.19S197.79,150.91,282.84,130.55C371.3,109.37,598.07,120.58,598.07,120.58Z"/><path class="cls-3" d="M599.85,120.58,0,320.75,6.58,457s44.1,1.12,108.44,1.34a13.35,13.35,0,0,1-1.64-6.32c0-11.7,16.18-21.18,36.13-21.18s36.13,9.48,36.13,21.18a13.31,13.31,0,0,1-1.57,6.19c124.61-1,283.46-6.19,367.52-24.88C624.25,417.17,599.85,120.58,599.85,120.58Z"/><ellipse class="cls-4" cx="312.23" cy="343.43" rx="43.17" ry="31.79" transform="translate(-25.88 25.45) rotate(-4.48)"/><ellipse class="cls-3" cx="370.06" cy="170.42" rx="39.87" ry="14.95" transform="translate(-33.26 112.8) rotate(-16.6)"/><ellipse class="cls-3" cx="259.36" cy="207.39" rx="20.56" ry="8.1" transform="translate(-43.02 70.11) rotate(-14.23)"/><ellipse class="cls-4" cx="468.45" cy="289.17" rx="45.27" ry="30.22" transform="translate(-28.05 51.37) rotate(-6.09)"/><path class="cls-1" d="M1696.94,434.79c0-35.08-176.57-63.52-394.38-63.52s-394.38,28.44-394.38,63.52-23.8,66.08,394.38,63.52C1520.37,497,1696.94,469.87,1696.94,434.79Z"/><path class="cls-5" d="M1351.83,319.21C1336.55,540,1159.78,495.82,636,494.52c-268-.66-180.16-90.6-189.94-201.29C435.81,177.37,568.39,130.58,980.42,126.68,1280.83,123.84,1360.11,199.51,1351.83,319.21Z"/><path class="cls-6" d="M1332.22,340.54c-9,146.82-186.35,150.21-178.45,128.75,3.7-10.05,46.17-166.11,11.29-223.3-42.91-70.35,71.16-46.63,114.07-35.34C1334.85,225.32,1336.34,273.68,1332.22,340.54Z"/><path class="cls-7" d="M1161.68,343.54c-4.52,148,.06,138.83-355.76,134.4-362.54-4.52-355,7.27-345.41-130.3,10.16-145.69-45.37-143,345.41-134C1138.07,221.34,1165.61,214.8,1161.68,343.54Z"/><ellipse class="cls-8" cx="883.57" cy="85.2" rx="124.91" ry="82.27"/><path class="cls-9" d="M953.64,16.29c14.91,15.8,23.62,34.88,23.62,55.42,0,45.8-43.3,84.31-102,95.48q5,.27,10.18.27c69,0,124.91-36.83,124.91-82.27C1010.32,56.35,987.76,31,953.64,16.29Z"/><ellipse class="cls-8" cx="1115.68" cy="87.82" rx="87.53" ry="130.45" transform="translate(946.85 1194.14) rotate(-85.82)"/><path class="cls-10" d="M1570.05,422.25c2.92,54.35-263.85,55.59-260,1.22C1315,355.09,1332.2,136,1332.2,136h214.95S1567.45,373.86,1570.05,422.25Z"/><path class="cls-11" d="M1326.24,213.57c31.34-4.69,76.55-16.68,129.32-10.43,43.63,5.17,78.2,35.95,102,58.5-5.38-65.24-10.42-124.3-10.42-124.3H1332.2S1329.65,169.77,1326.24,213.57Z"/><ellipse class="cls-11" cx="1441.38" cy="440.74" rx="138.64" ry="35.89"/><path class="cls-12" d="M1547.44,136l-216.19,1.37s.48,8.3-.76,24.21c17.46,5.57,50.32,9.17,112.11,10.26,53.88.95,87.24-3.79,106.9-11.58C1548.22,145.16,1547.44,136,1547.44,136Z"/><ellipse class="cls-13" cx="1439.43" cy="136.65" rx="108.53" ry="9.75"/><path class="cls-11" d="M1324.85,330.5c-2.61,0-5.2.08-7.77.22-2.9,37.85-5.5,72.14-7,92.75-2.08,29.06,73.14,42.23,143.2,39.9a110,110,0,0,0,.93-14.22C1454.22,383.62,1396.3,330.5,1324.85,330.5Z"/><path class="cls-11" d="M1444.84,409.6c-50.51-8.16-97.12-7.93-133.69-.56-.39,5.33-.75,10.17-1.05,14.43-3.9,54.37,262.87,53.13,260-1.22-.26-4.92-.71-11.79-1.3-20.17C1536.14,410.84,1494.53,417.63,1444.84,409.6Z"/><ellipse class="cls-14" cx="1417.6" cy="267.64" rx="74.39" ry="39.77"/><ellipse class="cls-11" cx="1416.13" cy="267.64" rx="64.85" ry="34.67"/></g></g></svg>