<svg xmlns="http://www.w3.org/2000/svg" viewBox="0 0 1215.08 3873.45"><defs><style>.cls-1{fill:#8fc33f;}.cls-2{fill:#009444;}.cls-3{fill:#231f20;}.cls-4{fill:#e8ecee;stroke:#231f20;stroke-miterlimit:10;stroke-width:2.26px;}.cls-5{fill:#f7941d;}.cls-6{fill:#f36e24;}.cls-7{fill:#d35461;}.cls-8{opacity:0.95;}.cls-9{fill:#b2daee;}.cls-10{fill:#8cc8e9;}.cls-11{opacity:0.41;}.cls-12{fill:#34b2e6;}.cls-13,.cls-14{fill:#1b75bc;}.cls-13{opacity:0.42;}.cls-15{fill:#fbb040;}</style></defs><title>tanner-glass</title><g id="Layer_2" data-name="Layer 2"><g id="Layer_7" data-name="Layer 7"><path class="cls-1" d="M953.28,3842.66c-12-10-54.7-15.73-106-16-63.12-.33-95.59,7.64-95.59,17s46.47,9,109.59,9S961.85,3849.81,953.28,3842.66Z"/><path class="cls-2" d="M985.38,3547.82c14-5.31-37.31,24.29-79.29,19.4s-81.89-22.34-80.08-37.94,11.46-22.81,53.08-15.49C920,3521,958.66,3558,985.38,3547.82Z"/><polygon class="cls-2" points="851.86 3565.09 844.97 3564.73 844.06 3546.44 853.24 3548.09 851.86 3565.09"/><path class="cls-3" d="M680.63,3645.25c-25.63-17.42-32.82-40.07-39-32.31-2.13,2.69,17.53,32.25,45.27,46.07,26.84,13.37,38.53,15.41,40.66,12.73C735.14,3662.22,706.26,3662.67,680.63,3645.25Z"/><path class="cls-4" d="M625.07,3611c.2-12,9.71-22.3,21.66-21.66,8,.43,10.64,6.43,16.25,14.58,2.94-5.93,5-8.15,11-6,3.14,1.1,3.48,7.37.9,13.62a37.49,37.49,0,0,1-5.49,9.09,3,3,0,0,1,1,1c1.66,2.88-2.21,8.24-8.66,12s-13,4.4-14.69,1.52a3.36,3.36,0,0,1-.28-2.42h0C634.33,3632.4,624.87,3622.84,625.07,3611Z"/><path class="cls-3" d="M844.1,3855.16c7.11-.7,15-2.81,17.57-4.58,3.74-2.61,1.62-16.78,1.34-20.47l-3.56-47.69c-.28-3.69-4.34-2.71-9.36-2.34h0c-1.87,9.54-.26,53-4.13,55.63-15.06,10.42-32.54,18.82-18.69,19.84A73.83,73.83,0,0,0,844.1,3855.16Z"/><path class="cls-3" d="M772,3847.45c7.14,0,15.22-1.36,17.93-2.88,4-2.24,3.21-16.55,3.29-20.25l1-47.82c.08-3.7-4.06-3.11-9.09-3.22h0c-2.77,9.32-5.31,52.69-9.41,55-16,8.94-34.19,15.64-20.5,18A73.83,73.83,0,0,0,772,3847.45Z"/><ellipse class="cls-5" cx="828.79" cy="3674.91" rx="124.39" ry="114"/><path class="cls-6" d="M811.46,3773.45c66.36,0,120.16-50.15,120.16-112,0-35.46-17.67-67.06-45.25-87.58,39.71,19,66.81,57.15,66.81,101.07,0,63-55.69,114-124.39,114-41,0-77.33-18.16-100-46.18C750.34,3761.77,779.44,3773.45,811.46,3773.45Z"/><circle class="cls-3" cx="863.86" cy="3648.83" r="7.24" transform="translate(-2826.73 4311.95) rotate(-86.87)"/><circle class="cls-3" cx="761.37" cy="3638.27" r="7.24" transform="translate(-2913.08 4199.63) rotate(-86.87)"/><path class="cls-3" d="M853,3609.22c-.42,1.29,6.61-1.2,14.39,1.34s11.88,8.22,12.3,6.93-3.75-6.72-11.54-9.26S853.46,3607.93,853,3609.22Z"/><path class="cls-3" d="M777.16,3605.41c.21,1.34-6.16-1.68-14.26-.42s-13.15,6.11-13.36,4.78,4.88-5.94,13-7.2S777,3604.07,777.16,3605.41Z"/><path class="cls-7" d="M781.47,3673.87c1.82,7.25,10.32,13.59,23.21,13.72s21.59-6,23.48-13.25c2.34-8.91-1.15-12.62-23.21-13.72C780.25,3659.39,779.66,3666.65,781.47,3673.87Z"/><path class="cls-3" d="M950.28,3735c2.78,30.87-8.89,57.77,1,57.62,3.43-.05,13.83-34,6.93-64.21-6.68-29.23-12.5-39.57-15.93-39.52C930.14,3689.08,947.5,3704.14,950.28,3735Z"/><path class="cls-4" d="M928.63,3769.22a25.79,25.79,0,0,1,12.54-6.16c-1.23-.92-1.91-1.92-1.81-2.91.28-3,7.39-4.8,15.89-4s15.15,3.88,14.87,6.89c-.12,1.32-1.57,2.41-3.88,3.15,4.93,3.23,8.43,9.43,5.7,22.16-2.63,12.22-16.67,14.79-27.27,12.75-10.06-1.94-13.12-7.49-11.42-18.36-3.13,1.37-6.14,1.34-7.88-.39C922.64,3779.62,924.1,3773.74,928.63,3769.22Z"/><path class="cls-1" d="M658.43,3829.86c0-23.43-115.18-35.57-260.47-35.57s-261.27,3-261.27,26.43,105.56,56.59,263.41,51.51C545.32,3867.56,658.43,3853.29,658.43,3829.86Z"/><g class="cls-8"><path class="cls-9" d="M517,3823c-26.57,76.36-355.94,57-382.51,1.41C67.74,3684.95,0,2873.63,0,2873.63H640.19S577.36,3649.46,517,3823Z"/><ellipse class="cls-10" cx="320.18" cy="2872.95" rx="319.7" ry="32.69"/></g><g class="cls-11"><path class="cls-12" d="M226.05,3843.49c12-10,54.7-15.73,106-16,63.12-.33,95.59,7.64,95.59,17s-46.47,9-109.59,9S217.49,3850.63,226.05,3843.49Z"/><path class="cls-2" d="M194,3548.64c-14-5.31,37.31,24.29,79.29,19.4s81.89-22.34,80.08-37.94-11.46-22.81-53.08-15.49C259.35,3521.8,220.68,3558.78,194,3548.64Z"/><polygon class="cls-2" points="327.47 3565.91 334.36 3565.55 335.27 3547.26 326.1 3548.91 327.47 3565.91"/><path class="cls-3" d="M498.7,3646.07c25.63-17.42,32.82-40.07,39-32.31,2.13,2.69-17.53,32.25-45.27,46.07-26.84,13.37-38.53,15.41-40.66,12.73C444.19,3663,473.07,3663.49,498.7,3646.07Z"/><path class="cls-4" d="M554.26,3611.81c-.2-12-9.71-22.3-21.66-21.66-8,.43-10.64,6.43-16.25,14.58-2.94-5.93-5-8.15-11-6-3.14,1.1-3.48,7.37-.9,13.62a37.49,37.49,0,0,0,5.49,9.09,3,3,0,0,0-1,1c-1.66,2.88,2.21,8.24,8.66,12s13,4.4,14.69,1.52a3.36,3.36,0,0,0,.28-2.42h0C545,3633.23,554.46,3623.66,554.26,3611.81Z"/><path class="cls-3" d="M335.23,3856c-7.11-.7-15-2.81-17.57-4.58-3.74-2.61-1.62-16.78-1.34-20.47l3.56-47.69c.28-3.69,4.34-2.71,9.36-2.34h0c1.87,9.54.26,53,4.13,55.63,15.06,10.42,32.54,18.82,18.69,19.84A73.83,73.83,0,0,1,335.23,3856Z"/><path class="cls-3" d="M407.34,3848.27c-7.14,0-15.22-1.36-17.93-2.88-4-2.24-3.21-16.55-3.29-20.25l-1-47.82c-.08-3.7,4.06-3.11,9.09-3.22h0c2.77,9.32,5.31,52.69,9.41,55,16,8.94,34.19,15.64,20.5,18A73.83,73.83,0,0,1,407.34,3848.27Z"/><ellipse class="cls-5" cx="350.54" cy="3675.73" rx="124.39" ry="114"/><path class="cls-6" d="M367.87,3774.27c-66.36,0-120.16-50.15-120.16-112,0-35.46,17.67-67.06,45.25-87.58-39.71,19-66.81,57.15-66.81,101.07,0,63,55.69,114,124.39,114,41,0,77.33-18.16,100-46.18C429,3762.59,399.89,3774.27,367.87,3774.27Z"/><circle class="cls-3" cx="315.47" cy="3649.65" r="7.24" transform="translate(-199.01 22.7) rotate(-3.13)"/><circle class="cls-3" cx="417.96" cy="3639.09" r="7.24" transform="translate(-198.28 28.29) rotate(-3.13)"/><path class="cls-3" d="M326.29,3610c.42,1.29-6.61-1.2-14.39,1.34s-11.88,8.22-12.3,6.93,3.75-6.72,11.54-9.26S325.87,3608.75,326.29,3610Z"/><path class="cls-3" d="M402.17,3606.23c-.21,1.34,6.16-1.68,14.26-.42s13.15,6.11,13.36,4.78-4.88-5.94-13-7.2S402.38,3604.89,402.17,3606.23Z"/><path class="cls-7" d="M397.86,3674.69c-1.82,7.25-10.32,13.59-23.21,13.72s-21.59-6-23.48-13.25c-2.34-8.91,1.15-12.62,23.21-13.72C399.08,3660.21,399.67,3667.47,397.86,3674.69Z"/><path class="cls-3" d="M229.06,3735.84c-2.78,30.87,8.89,57.77-1,57.62-3.43-.05-13.83-34-6.93-64.21,6.68-29.23,12.5-39.57,15.93-39.52C249.19,3689.9,231.83,3705,229.06,3735.84Z"/><path class="cls-4" d="M250.71,3770a25.79,25.79,0,0,0-12.54-6.16c1.23-.92,1.91-1.92,1.81-2.91-.28-3-7.39-4.8-15.89-4s-15.15,3.88-14.87,6.89c.12,1.32,1.57,2.41,3.88,3.15-4.93,3.23-8.43,9.43-5.7,22.16,2.63,12.22,16.67,14.79,27.27,12.75,10.06-1.94,13.12-7.49,11.42-18.36,3.13,1.37,6.14,1.34,7.88-.39C256.69,3780.44,255.23,3774.56,250.71,3770Z"/></g><path class="cls-13" d="M440.31,3698.95c-11.15-7-38,13-47.18,25.05a11.91,11.91,0,0,0-14,0c-12.82-9.46-41-21-49.8-12.09-6.17,6.23-1.79,40,8.86,46.55s35.64-4,44.55-14.69a12,12,0,0,0,4.59.35,11.83,11.83,0,0,0,6.78-3.16c9.95,9.22,39,14.54,48.28,5.37C451.24,3737.48,447.75,3703.6,440.31,3698.95Z"/><path class="cls-14" d="M852.81,3709.86c-9.09-9.18-38.9,3.43-51,13a11.92,11.92,0,0,0-13.57-1.9c-9.83-12.15-35.55-30.84-46.4-24.05-7.44,4.65-10.93,38.53-2.06,47.34s36.22,4.23,47.11-4.36a11.92,11.92,0,0,0,12,1.1c8.38,11,34.29,22,45.09,15.38S859,3716.09,852.81,3709.86Z"/></g><g id="Layer_21" data-name="Layer 21"><rect class="cls-15" x="1212.09" width="2.99" height="43.98"/></g></g></svg>