<svg xmlns="http://www.w3.org/2000/svg" viewBox="0 0 1330.09 1335.66"><defs><style>.cls-1{fill:#2d6cab;}</style></defs><title>Asset 3</title><g id="Layer_2" data-name="Layer 2"><g id="Layer_18" data-name="Layer 18"><path class="cls-1" d="M1330.09,634.63l-61.72,16.47c-1.23-1.16-2.7-2.48-4.09-3.88q-41.41-41.7-82.74-83.47c-2.78-2.83-5.17-3.65-9.09-2.56-20.39,5.67-40.88,11-61.33,16.47l-5.82,1.55,157.22,158-61.88,16.51L1065.92,618.62l-31.49,117.5L989,690.19l22.91-85.6c-2.25.41-3.8.59-5.29,1-14.77,3.91-29.49,8-44.31,11.71-3.94,1-5.6,2.92-6.62,6.76q-21.85,82.69-44,165.3-8.25,30.92-16.51,61.84c-.61,2.3-1.13,4.62-1.71,7l40,40.08c.79-2.64,1.4-4.51,1.91-6.41,6.54-24.71,13.16-49.4,19.5-74.16,1-3.89,2.76-5.72,6.66-6.72,16.94-4.32,33.8-9,50.69-13.51l6.31-1.68-31,116.9c2.37-.45,3.93-.65,5.45-1,16.92-4.4,33.84-8.79,50.74-13.27q61.11-16.2,122.18-32.57c4.28-1.16,7-.5,10.09,2.72,12,12.47,24.26,24.64,36.42,36.93,1.14,1.15,2.2,2.38,4,4.33-14.57,4.52-28.81,7.68-42.84,11.54-14.2,3.9-28.45,7.62-42.67,11.41l-42.68,11.39-42.68,11.39-43.58,11.63,52.93,53.34,124.08-33.12,44.88,45.32c-41.42,11.65-82.16,21.88-123.58,33.39l55.34,55.77-39.15,39.32c-18.64-18.26-36.53-36.86-55.61-55.62l-33.23,123.89c-1.56-1.34-2.59-2.1-3.48-3-12.87-12.88-25.64-25.86-38.63-38.62-2.59-2.55-3.11-4.73-2.17-8.22,10.27-37.8,20.27-75.68,30.61-113.46,1.28-4.69.6-7.63-2.91-11.07-14.87-14.52-29.39-29.39-44.06-44.11-1.26-1.27-2.64-2.42-4.51-4.12l-57.32,215.31c-15.67-15.06-30.21-30.21-45.4-45.26l48.9-184.43c-7.13.88-13.26,3.18-19.55,4.74s-12.81,3.39-19.21,5.1l-19.74,5.27-19.21,5.12-19.22,5.09L791.89,1023c.52-2.55.79-4.3,1.25-6,4.63-17.23,9.43-34.42,13.86-51.7,1-3.8,2.9-5.27,6.49-6.2,25.47-6.62,50.9-13.43,76.33-20.2,1.05-.28,2.07-.67,3.56-1.16a29.87,29.87,0,0,0-2.35-3.14c-11.78-11.89-23.62-23.72-35.35-35.66-1.9-1.94-3.74-2.8-6.32-1.75a22.69,22.69,0,0,1-2.66.73q-112.3,30-224.64,59.84c-4.47,1.18-6.68,3.06-7.8,7.66-3.51,14.48-7.55,28.82-11.37,43.22-.55,2.08-1,4.19-1.67,7L686.38,993l45.73,45.79L615,1070c15.42,15.92,30.37,30.72,45.15,45.68s29.78,30,44.67,45.06l45,45.4-16.67,62.06L575.87,1109.81l-19.3,72.53,90.79,91.32-16.6,62-90.82-91-20.31,75.87L466,1305.95l20.17-75.8c-11.17,2.27-21.14,5.35-31.21,8-10.33,2.68-20.63,5.49-30.95,8.24l-30.41,8.12-31,8.27c.49-2.56.7-4.15,1.11-5.69,4.57-17.24,9.31-34.45,13.65-51.75.92-3.68,2.81-5,6.16-5.83,37.73-9.94,75.41-20.09,113.17-29.93,4.48-1.17,6.69-3.06,7.84-7.62,5.14-20.32,10.68-40.55,16.05-60.81.45-1.71.78-3.45,1.29-5.76l-213.42,57c-.39-4.16,11.31-50.44,15.69-62.09l183.62-49-85.35-86.05,62.14-16.58,62.57,63.05,15.3-57.24L389.62,770.6l-57,15.2c2,2.09,3.63,3.78,5.27,5.43,17.91,18,35.78,36,53.81,53.87,2.55,2.52,3.27,4.62,2.29,8.17-4.81,17.37-9.29,34.83-13.89,52.26-.42,1.57-.92,3.12-1.62,5.45L293,825.1c-4.66,15.73-8.43,30.94-12.54,46.05q-6.3,23.16-12.49,46.36-6.16,22.91-12.3,45.83c-4.1,15.27-8.22,30.53-12.37,45.93l-61.69,16.46c4.5-18.43,9.6-36.19,14.28-54.06s9.48-35.54,14.24-53.3q7.21-26.91,14.44-53.82c4.73-17.68,9.45-35.37,14.36-53.73l-72,19.22c-.52,1.67-1.17,3.57-1.69,5.5-10,37.68-20.15,75.34-30,113.06-1.06,4.07-2.75,6.05-7,7.1-16.79,4.18-33.46,8.81-50.18,13.27l-6.34,1.69,32.94-124.15-75.1,20L15.13,812.42l75.25-20.08L0,701.14l61.79-16.49c3.14,3.13,6.53,6.47,9.89,9.85q38.3,38.56,76.51,77.2c3,3,5.45,3.82,9.6,2.65,20-5.61,40.16-10.84,60.26-16.2l6.32-1.69c-10.49-11.23-21-21.32-31.27-31.69-10.47-10.6-21-21.12-31.53-31.68l-31.14-31.29Q114.67,646,98.9,630.14c-10.32-10.38-20.63-20.77-31.76-32l13.19-3.52c14.76-3.94,29.54-7.79,44.26-11.89,3.25-.9,5.33-.28,7.72,2.12q63.4,63.79,127,127.4c1.4,1.4,2.87,2.73,4.82,4.58l31.41-117.33,45.42,46L318.05,731c2.49-.49,4.22-.72,5.9-1.17,14.95-4,29.84-8.11,44.84-11.84,4.11-1,6-2.86,7.08-7,8.62-33.1,17.51-66.14,26.33-99.19q17.2-64.51,34.41-129c.33-1.24.58-2.49,1-4.19l-41.15-41.34L373.63,523,311.5,539.62,342.61,422.5l-6.35,1.69-112.1,29.65c-20.28,5.37-40.59,10.65-60.83,16.18-3.61,1-6,.53-8.69-2.28-12.26-12.71-24.79-25.15-37.2-37.7-1.13-1.14-2.15-2.37-3.7-4.1l213.89-57.09a46.59,46.59,0,0,0-3-3.81c-15.28-15.42-30.66-30.72-45.8-46.27-2.72-2.79-5-3.28-8.67-2.3-37.67,10.18-75.41,20.11-113.05,30.38-4.55,1.24-7.29.44-10.51-2.92-11.7-12.22-23.77-24.09-35.68-36.11-1.38-1.39-2.66-2.89-4.62-5l123.28-32.9c-6.26-7.26-12.6-13-18.51-19.09s-11.93-12-17.89-18S181,220.53,174.45,213.88c12.92-13.27,25.89-26.1,39.22-39.36l55.47,55.71,33.32-124.34,45.35,45.41q-4.27,16.08-8.51,32-11.74,44-23.56,87.94c-.85,3.14-.71,5.34,1.78,7.81,15.81,15.66,31.46,31.49,47.17,47.25.75.76,1.65,1.37,2.92,2.41L424.9,113.31l45.39,45.46-49,184.79c20-5,39-10.28,58.11-15.33S517.8,318,537,312.85c.58,4-9.49,43.75-15.72,62.3l-85.2,22.74c1.86,2,3.14,3.46,4.51,4.84,10.49,10.57,21.09,21,31.45,31.76,2.75,2.84,5.21,3.6,9.12,2.54q64-17.3,128-34.26C642.46,393.89,675.7,385,709,376.23c3.84-1,5.81-2.67,6.79-6.61,3.71-14.81,7.78-29.52,11.69-44.28.41-1.55.71-3.13,1.29-5.7l-6.32,1.69c-24.53,6.59-49.1,13.05-73.56,19.88-4.18,1.17-6.69.34-9.6-2.65-12.06-12.38-24.38-24.51-36.6-36.75-1.4-1.4-2.75-2.86-4.77-5,6.83-2.31,13.2-3.7,19.45-5.42s12.8-3.43,19.2-5.14L656.32,281l19.21-5.13,19.21-5.13,20.07-5.36L580.12,129.46l16.66-62,157,158.13c.68-2,1.26-3.47,1.67-5,5.57-20.79,11-41.61,16.74-62.34,1-3.69.36-6-2.34-8.68Q729,108.86,688.4,67.93a32.57,32.57,0,0,0-3.13-3.11c-2.46-1.87-2.5-4.09-1.72-6.84,2.7-9.56,5.22-19.16,7.81-28.75L699.25,0l90.64,90.94c7.26-25.41,13.39-50.42,20.54-75.73L864,29.72,844,104.61c2.6,1.12,4.62-.12,6.62-.65q55-14.53,109.94-29.17l7.1-1.89-16.44,61.86L827.14,167.88l-19.36,72.56c36.44-9.45,71.8-19.2,107.24-28.61s71-18.94,107.17-28.59c-.33,2.15-.42,3.56-.78,4.91-4.61,17.43-9.39,34.81-13.79,52.29-.92,3.65-2.79,5-6.15,5.89Q958.22,257.75,915,269.46q-43.45,11.7-86.89,23.46l-5.87,1.57c28.47,29.08,56.71,57.07,85.07,86-1.73.68-2.79,1.23-3.92,1.53-17.61,4.68-35.26,9.22-52.82,14.06-3.89,1.07-6.32.21-9.11-2.65-17.85-18.3-35.91-36.4-53.9-54.56-1.4-1.41-2.87-2.76-4.67-4.48-.66,2-1.21,3.55-1.62,5.09-3.95,14.75-7.79,29.52-11.85,44.24-.87,3.16-.55,5.34,1.9,7.8Q856.27,476.67,941,562c.77.77,1.62,1.46,2.49,2.23l53.78-14.35C976.35,528.52,955.44,508,934.77,487l16.49-62.45,85.87,86.19,49.5-184.33,61.62-16.45c-4.39,18.38-9.48,36.09-14.18,53.89s-9.52,35.53-14.27,53.3q-7.2,26.92-14.39,53.84c-4.73,17.7-9.47,35.41-14.38,53.77l72.28-19.29,32.95-123.69,61.64-16.45c-1.66,8.58-4.2,16.53-6.24,24.58s-4.36,16.35-6.54,24.53q-3.34,12.53-6.66,25.06c-2.18,8.17-4.4,16.34-6.57,24.52s-4.25,16.22-6.61,25.25l75.15-20.06,14.42,54-75.32,20.1ZM729.5,428.15l-5.78,1.54Q610.38,459.94,497,490.08c-4.34,1.15-6.22,3.18-7.34,7.41q-30.25,114.1-60.85,228.11c-1,3.68-.44,6,2.27,8.7q83.72,84,167.19,168.23c2.75,2.78,5.09,3.2,8.68,2.24q114.1-30.6,228.27-60.91c3.69-1,5.33-2.68,6.3-6.37q30.18-113.83,60.74-227.55c1.26-4.68.64-7.59-2.84-11.07q-70.19-70.22-140.09-140.74C749.5,448.23,739.65,438.35,729.5,428.15Z"/><path class="cls-1" d="M614.82,857.73c-6.45-6.47-12.82-12.82-19.16-19.19Q537.73,780.24,479.73,722c-3-3-3.69-5.51-2.58-9.63q24-89.21,47.59-178.53c1.22-4.62,3.13-6.93,8-8.21q88.87-23.4,177.59-47.37c4.5-1.21,7.28-.49,10.56,2.83Q785.82,546.81,851,612.24c1.29,1.3,2.56,2.63,4.07,4.19-.25,1.27-.45,2.7-.82,4.08q-24.06,90.34-48.08,180.7c-1.09,4.13-2.78,6.33-7.22,7.5q-89.4,23.57-178.69,47.56Zm84.65-318.28-127.23,34c-.37,1-.77,1.8-1,2.68Q555,636.85,538.71,697.59c-.87,3.22.14,5.07,2.26,7.19q43.25,43.34,86.31,86.87c2.85,2.89,5.25,3.47,9.12,2.42,39.07-10.59,78.2-21,117.31-31.41l5-1.33c.54-1.86,1.09-3.59,1.56-5.34,10.49-39.26,20.9-78.53,31.54-117.75,1-3.8.15-6-2.49-8.64q-39.79-39.78-79.35-79.78C706.46,546.3,702.91,542.86,699.47,539.46Z"/></g></g></svg>