<svg xmlns="http://www.w3.org/2000/svg" viewBox="0 0 137.58 129.42"><defs><style>.cls-1{fill:#fff;}</style></defs><title>Star4</title><g id="Layer_2" data-name="Layer 2"><g id="Layer_10" data-name="Layer 10"><path class="cls-1" d="M46.49,127.69l4.21-13.84-9.42,1.89-1.35-5.44c3.27-.67,6.45-1.52,9.68-1.92,2.37-.29,3.62-1.25,3.93-3.6a19.94,19.94,0,0,1,.86-2.92l-17.77,3.61-1.33-5.4c.41-.11.77-.22,1.15-.3C42.73,98.49,49,97.21,55.28,96c.7-.14,1.11-.38,1.27-1.12.19-.89.51-1.75.85-2.84l-9.48,1.91-1.35-5.43,6-1.23c2-.41,4-.78,5.94-1.23a1.41,1.41,0,0,0,.93-.7c1.73-5.56,3.41-11.13,5.1-16.71a1.45,1.45,0,0,0,0-.36l-4.76.79c-4.32.74-8.63,1.5-12.95,2.2a1.39,1.39,0,0,0-1.28,1.09c-1.2,3.59-2.46,7.17-3.72,10.8l-5.38-1.64,2.72-8.94c-1.2.21-2.35.39-3.49.65-.23.05-.45.44-.55.71-1.44,4.14-2.87,8.28-4.26,12.44-.7,2.09-1.29,4.22-2,6.39L23.09,91l5.67-16.63c-1.6.26-3,.61-4.52.71a2.38,2.38,0,0,0-2.38,2.06c-.93,3.1-2,6.15-3.07,9.22a6.26,6.26,0,0,1-.36.75L13.09,85.5l2.71-8.91L1.16,79.06,0,73.6,14.82,71,8.42,63.76l4.35-3.54c.4.44.76.83,1.12,1.23,2.27,2.57,4.54,5.13,6.78,7.71a1.54,1.54,0,0,0,1.69.61c1.65-.35,3.33-.59,5.25-.92l-12-13.6,4.3-3.51c.26.25.5.46.71.7,4.27,4.83,8.55,9.64,12.78,14.49a1.59,1.59,0,0,0,1.79.63c.88-.22,1.8-.33,2.93-.53l-6.41-7.27,4.35-3.53c.48.52.95,1,1.4,1.53,2.22,2.51,4.42,5,6.67,7.52a1.57,1.57,0,0,0,1.17.51c5.66-.93,11.31-1.91,17-2.88a2.19,2.19,0,0,0,.39-.17c-.25-.27-.45-.5-.68-.72C58,58.29,54.07,54.55,50.15,50.77a1.51,1.51,0,0,0-1.66-.4c-3.8,1-7.61,2-11.54,3.05l-1.66-5.37,9.38-2.48c-1-.94-1.81-1.79-2.71-2.51a1.66,1.66,0,0,0-1.21,0Q31.87,45.35,23,47.69l-2,.5-1.65-5.36,17.52-4.59c-1.49-1.43-2.81-2.76-4.21-4a1.65,1.65,0,0,0-1.28-.13c-3.6.91-7.2,1.87-10.79,2.81-.24.06-.49.11-.82.18l-1.65-5.34,9.36-2.47L16.66,18.92l4-3.91L31.44,25.23l2.69-8.84L39.46,18a8.35,8.35,0,0,1-.16.94c-.88,3.23-1.74,6.47-2.66,9.69a1.77,1.77,0,0,0,.55,2.12C38.45,31.84,39.61,33,41,34.29l4.56-17L51,19l-2.15,8.11c-1,3.74-2,7.47-3,11.21a1.07,1.07,0,0,0,.18.87c.76.79,1.58,1.52,2.46,2.34l2.71-8.89,5.36,1.63c-.44,1.7-.89,3.5-1.37,5.3-.52,2-1.08,4-1.57,6a1.28,1.28,0,0,0,.22,1Q60.41,52.84,67,59a1.8,1.8,0,0,0,.36.19c.12-.32.25-.61.34-.91,1.59-5.22,3.17-10.44,4.79-15.65A1.39,1.39,0,0,0,72,41c-2.56-2.54-5.08-5.12-7.6-7.69-.25-.26-.5-.53-.79-.84l4.1-3.76,6.82,6.87c.38-1.26.77-2.32,1-3.41.06-.3-.32-.77-.6-1.05q-6.84-7-13.71-13.92c-.18-.18-.33-.38-.54-.62l4.11-3.75L77.57,25.74c.6-2,1.17-3.72,1.63-5.49.07-.27-.24-.73-.49-1-2.47-2.53-5-5-7.44-7.55-.31-.31-.61-.64-1-1L74.39,6.9l6.77,6.84L85.35,0,91,1.72,86.8,15.5l9.51-1.91L97.66,19c-3.76.77-7.42,1.59-11.11,2.23a2.2,2.2,0,0,0-2.08,1.93c-.3,1.36-.79,2.68-1.27,4.27L101,23.85l1.33,5.4c-.35.09-.65.18-1,.24-6.35,1.3-12.69,2.6-19,3.87A1.34,1.34,0,0,0,81,34.5c-.2.88-.51,1.74-.84,2.82l9.49-1.91L91,40.84l-6.49,1.33c-1.8.37-3.61.71-5.4,1.14a1.51,1.51,0,0,0-1,.8c-1.7,5.45-3.36,10.92-5,16.39a4.44,4.44,0,0,0-.08.55c1.18-.19,2.3-.35,3.41-.54,4.82-.82,9.64-1.67,14.46-2.47a1.22,1.22,0,0,0,1.12-1c1.22-3.63,2.49-7.24,3.76-10.9l5.38,1.64-2.71,8.92c1.17-.2,2.33-.36,3.47-.62.23-.05.46-.43.56-.7,1.43-4.14,2.87-8.28,4.25-12.44.71-2.12,1.31-4.28,2-6.42l5.78,1.76L108.82,55c2.07-.35,4-.63,5.81-1,.33-.07.67-.62.81-1,1.11-3.2,2.17-6.42,3.26-9.63.13-.38.3-.73.43-1l5.35,1.63-2.7,8.86,14.64-2.48,1.16,5.47-14.81,2.57,6.38,7.26-4.35,3.55-5.65-6.39c-.83-.94-1.63-1.9-2.5-2.8a1.37,1.37,0,0,0-1-.39c-1.82.26-3.62.61-5.65,1l12,13.58-4.34,3.54-3.83-4.31c-3.17-3.59-6.35-7.16-9.47-10.79a1.87,1.87,0,0,0-2.17-.72c-.8.22-1.65.3-2.69.48l6.4,7.28-4.35,3.54L97,68c-1.2-1.35-2.37-2.72-3.59-4a1.34,1.34,0,0,0-1-.4c-5.77.94-11.54,1.93-17.46,2.93a7.42,7.42,0,0,0,.57.71c4,3.81,8,7.6,12,11.43A1.42,1.42,0,0,0,89,79c3.45-.93,6.9-1.83,10.36-2.73l1.26-.3,1.67,5.34-9.39,2.48c1,.94,1.83,1.8,2.75,2.55.22.18.76.07,1.12,0q9.19-2.38,18.38-4.79l1.38-.34,1.64,5.36L100.64,91.1c1.52,1.44,2.88,2.77,4.3,4a1.4,1.4,0,0,0,1.08.11c3.35-.85,6.7-1.74,10-2.62l1.7-.43,1.65,5.37L110.06,100l10.87,10.37-4,3.91-10.79-10.22-2.7,8.88-5.37-1.63c.16-.68.34-1.48.56-2.27.78-2.88,1.56-5.76,2.37-8.63a1.49,1.49,0,0,0-.47-1.75C99.25,97.55,98,96.34,96.63,95l-4.56,17-5.68-1.73c.45-1.48,1-3,1.38-4.56q2-7.25,3.83-14.53A1.56,1.56,0,0,0,91.27,90c-.67-.77-1.44-1.44-2.23-2.22l-2.7,8.88L81,95c.44-1.7.89-3.51,1.37-5.31.52-2,1.08-4,1.56-6a1.27,1.27,0,0,0-.24-1Q77.21,76.5,70.72,70.36a4.5,4.5,0,0,0-.43-.31c-.14.37-.26.66-.35,1-1.58,5.18-3.14,10.37-4.76,15.54a1.56,1.56,0,0,0,.44,1.83c2.52,2.48,5,5,7.46,7.52.28.28.55.58.87.94l-4.12,3.76L63,93.72c-.38,1.26-.76,2.32-1,3.41-.06.28.26.72.51,1q6.77,6.89,13.57,13.75c.25.26.49.54.77.85l-4.11,3.77L60,103.57c-.59,1.93-1.15,3.64-1.6,5.37a1.45,1.45,0,0,0,.44,1.09c2.56,2.64,5.16,5.25,7.75,7.87.23.23.44.48.7.76l-4.1,3.75-6.79-6.84L52.2,129.42Z"/></g></g></svg>