
<svg xmlns="http://www.w3.org/2000/svg" version="1.1" xmlns:xlink="http://www.w3.org/1999/xlink" preserveAspectRatio="none" x="0px" y="0px" width="550px" height="400px" viewBox="0 0 550 400">
<defs>
<g id="Layer2_0_MEMBER_0_MEMBER_0_FILL">
<path fill="#603913" stroke="none" d="
M 2.6 1500.8
L 191.15 1553.9 758.1 1542.65 645.35 1500.8 2.6 1500.8 Z"/>
</g>

<g id="Layer2_0_MEMBER_0_MEMBER_1_FILL">
<path fill="#7C5235" stroke="none" d="
M 459.4 111.75
L 8.4 111.75 8.4 1502 459.4 1502 459.4 111.75 Z"/>
</g>

<g id="Layer2_0_MEMBER_0_MEMBER_2_FILL">
<path fill="#875837" stroke="none" d="
M 379.35 111.75
L 393.5 129.35 359.35 171.75 322.35 125.75 333.6 111.75 323.25 111.75 317.2 119.3 311.15 111.75 300.75 111.75 312 125.75 275 171.75 241 129.35 255.1 111.75 244.7 111.75 235.7 122.9 226.7 111.75 216.4 111.75 230.55 129.35 191.75 177.6 155.75 132.85 172.75 111.75 162.35 111.75 150.6 126.4 138.8 111.75 130.75 111.75 129.35 112.85 145.4 132.85 8.4 303.3 8.4 316.2 150.6 139.3 186.6 184.05 149.6 230.05 123.45 197.55 117.15 202.6 144.4 236.5 12.25 400.95 18.55 406 149.6 243 183.7 285.4 145.05 333.5 125.05 308.55 118.75 313.65 139.9 339.95 70.05 426.8 76.35 431.85 145.05 346.4 182.05 392.4 145.25 438.15 114.4 399.75 108.05 404.85 140.1 444.65 132.4 454.15 138.7 459.25 145.25 451.1 184.05 499.35 145.35 547.5 134.15 533.6 127.85 538.65 140.15 554 138.5 556.05 144.8 561.15 145.35 560.45 182.35 606.45 150.7 645.8 157 650.9 187.5 612.9 226.15 661 189.65 706.4 120.45 620.3 114.15 625.35 184.45 712.85 149.1 756.85 155.4 761.9 189.65 719.35 226.45 765.15 189.6 810.95 122 726.7 115.65 731.75 184.45 817.3 159.75 848 166.05 853.05 189.6 823.75 228.35 871.9 186.35 924.2 126.55 849.85 120.25 854.95 181.15 930.65 144.6 976.15 137.15 967 130.85 972.05 181.05 1034.5 153.7 1068.5 160 1073.55 186.25 1040.9 223.05 1086.7 185.05 1134 126.55 1061.2 120.25 1066.3 179.9 1140.45 152.15 1175 158.45 1180.05 185.05 1147 227.05 1199.3 189.35 1246.15 100.65 1135.75 94.35 1140.8 184.2 1252.6 149.9 1295.25 65.7 1190.5 59.4 1195.55 186.4 1353.65 151.8 1396.65 21.6 1234.6 15.3 1239.65 146.65 1403.1 136.95 1415.2 143.25 1420.25 151.85 1409.55 189.85 1456.9 153.6 1502 164 1502 195.05 1463.3 226.15 1502 236.55 1502 200.25 1456.85 234.85 1413.85 272.5 1460.75 239.35 1502 249.75 1502 277.75 1467.15 305.75 1502 316.1 1502 282.9 1460.7 317.2 1418.05 351.5 1460.7 318.35 1502 328.7 1502 356.7 1467.15 384.7 1502 395.1 1502 361.95 1460.7 399.6 1413.85 434.2 1456.85 397.85 1502 408.25 1502 439.35 1463.3 459.4 1490.1 459.4 1475.4 444.5 1456.85 459.4 1438.3 459.45 1425.4 439.35 1450.4 404.75 1407.4 442.75 1360.1 459.4 1380.8 459.4 1367.9 448 1353.65 459.45 1339.35 459.45 1326.45 442.8 1347.15 408.5 1304.5 445 1259 458.45 1275.75 459.35 1275.05 459.35 1264.05 450.15 1252.6 459.35 1241.1 459.35 1228.2 445 1246.1 407.3 1199.25 449.3 1146.95 453.85 1152.65 459.35 1148.25 459.35 1146.55 454.5 1140.5 459.35 1134.45 459.35 1121.5 449.35 1134 411.35 1086.65 448.2 1040.85 459.45 1055.75 459.45 1042.6 453.4 1034.4 459.45 1026.85 459.45 1014 448.2 1028 411.65 982.5 448.15 937.1 459.45 951.2 459.45 938.3 453.35 930.7 459.45 923.05 459.45 910.15 448.15 924.2 406.15 871.95 444.85 823.75 459.5 839.45 459.5 827 450 817.3 459.4 805.6 459.4 792.65 444.8 810.85 408 765.05 444.75 719.25 459.45 741.05 459.45 724.6 450 712.8 459.45 701 459.45 688.1 444.75 706.35 408.25 661 447 612.85 459.45 629.45 459.45 615.45 452.15 606.4 459.45 597.35 459.45 584.4 447 599.95 408.25 551.8 445.25 505.8 459.5 523.5 459.5 510.6 450.5 499.35 459.5 488.1 459.5 475.2 445.25 492.9 408.45 447.1 447.25 398.85 459.5 414.05 459.5 401.15 452.45 392.4 459.5 383.6 459.5 370.7 447.25 385.95 408.6 337.85 445.6 291.85 459.55 309.15 459.55 296.2 450.8 285.35 459.55 274.5 459.55 261.6 445.6 278.9 408.6 232.9 442.7 190.5 459.5 211.35 459.5 198.5 447.9 184.05 459.5 169.65 459.5 156.75 442.7 177.6 403.9 129.35 418 111.75 407.6 111.75 398.6 122.9 389.6 111.75 379.35 111.75
M 364.6 178.2
L 398.65 135.8 437.45 184.05 403.35 226.5 364.6 178.2
M 366.4 285.4
L 403.4 239.4 440.4 285.4 403.4 331.4 366.4 285.4
M 398.2 232.95
L 361.2 278.95 322.4 230.65 359.4 184.65 398.2 232.95
M 398.15 337.85
L 359.35 386.1 322.35 340.1 361.15 291.85 398.15 337.85
M 364.6 392.55
L 403.4 344.3 442.05 392.4 403.25 440.65 364.6 392.55
M 197 184.05
L 235.75 135.8 269.85 178.2 231.05 226.5 197 184.05
M 280.2 178.2
L 317.2 132.2 354.2 178.2 317.2 224.2 280.2 178.2
M 278.35 285.4
L 317.15 237.1 356 285.4 317.15 333.65 278.35 285.4
M 312 230.7
L 273.2 279 236.2 233 275 184.7 312 230.7
M 194.05 285.4
L 231.05 239.4 268.05 285.4 231.05 331.4 194.05 285.4
M 225.9 232.9
L 188.9 278.9 154.8 236.5 191.8 190.5 225.9 232.9
M 192.35 392.4
L 231.05 344.3 269.85 392.55 231.15 440.65 192.35 392.4
M 225.9 337.8
L 187.25 385.9 150.25 339.9 188.9 291.8 225.9 337.8
M 280.2 392.55
L 317.2 346.55 354.2 392.55 317.2 438.55 280.2 392.55
M 312 340.15
L 275 386.15 236.15 337.85 273.2 291.85 312 340.15
M 275.05 399
L 312 445 273.3 493.1 236.3 447.1 275.05 399
M 226 447.1
L 189.2 492.9 150.4 444.65 187.2 398.85 226 447.1
M 231.3 545.35
L 194.3 499.35 231.1 453.55 268.1 499.55 231.3 545.35
M 189.25 505.85
L 226.25 551.85 187.5 600 150.5 554 189.25 505.85
M 317.2 547.65
L 278.55 499.55 317.2 451.45 355.85 499.55 317.2 547.65
M 273.3 506
L 312 554.1 275.2 599.9 236.5 551.8 273.3 506
M 317.2 652.15
L 280.4 606.35 317.2 560.55 354 606.35 317.2 652.15
M 275.2 612.85
L 312 658.6 273.25 706.75 236.5 661 275.2 612.85
M 231.3 654.5
L 192.65 606.4 231.35 558.25 270 606.35 231.3 654.5
M 231.6 758.6
L 194.8 712.85 231.3 667.4 268.1 713.2 231.6 758.6
M 317.2 761.35
L 278.5 713.2 317.2 665 355.9 713.2 317.2 761.35
M 273.25 719.65
L 312 767.8 275.5 813.2 236.8 765.05 273.25 719.65
M 398 447.1
L 361 493.1 322.35 444.95 359.35 398.95 398 447.1
M 361.05 506
L 397.85 551.8 359.2 599.9 322.35 554.05 361.05 506
M 403.05 545.4
L 366.25 499.6 403.25 453.6 440.05 499.4 403.05 545.4
M 359.15 612.75
L 397.9 661 361.1 706.8 322.35 658.55 359.15 612.75
M 403.15 654.5
L 364.45 606.35 403.1 558.25 441.8 606.4 403.15 654.5
M 361.05 719.6
L 397.55 765 358.85 813.15 322.35 767.75 361.05 719.6
M 402.75 758.6
L 366.3 713.2 403.1 667.4 439.65 712.8 402.75 758.6
M 358.85 826.05
L 395.7 871.9 359.2 917.3 322.35 871.45 358.85 826.05
M 400.95 865.5
L 364.1 819.65 402.8 771.5 439.65 817.3 400.95 865.5
M 359.2 930.2
L 401.2 982.5 364.35 1028.3 322.35 976 359.2 930.2
M 443 930.7
L 406.5 976.1 364.5 923.8 401 878.4 443 930.7
M 442.95 1034.45
L 406.1 1080.3 369.55 1034.8 406.45 989 442.95 1034.45
M 364.35 1041.25
L 401 1086.75 359 1139 322.35 1093.5 364.35 1041.25
M 406.15 1093.15
L 444.15 1140.45 402.15 1192.75 364.15 1145.45 406.15 1093.15
M 317.2 865.05
L 280.7 819.65 317.2 774.25 353.65 819.65 317.2 865.05
M 275.5 826.1
L 312 871.5 275.15 917.3 238.65 871.9 275.5 826.1
M 233.55 865.5
L 194.8 817.35 231.65 771.55 270.35 819.7 233.55 865.5
M 228 976.05
L 191.5 930.65 233.55 878.4 270 923.8 228 976.05
M 186.3 937.15
L 222.8 982.55 186.25 1028 149.75 982.6 186.3 937.15
M 317.2 969.6
L 280.35 923.8 317.2 878 354 923.8 317.2 969.6
M 275.15 930.25
L 312 976.05 270 1028.35 233.15 982.5 275.15 930.25
M 317.2 1087.05
L 275.2 1034.8 317.2 982.5 359.2 1034.8 317.2 1087.05
M 228.25 1080.25
L 191.45 1034.45 228 989 264.8 1034.8 228.25 1080.25
M 190.25 1140.45
L 228.25 1093.15 270.25 1145.4 232.25 1192.75 190.25 1140.45
M 280.65 1145.5
L 317.2 1100 353.7 1145.45 317.2 1191 280.65 1145.5
M 312 1093.55
L 275.5 1139 233.5 1086.7 270 1041.25 312 1093.55
M 312 1197.4
L 274 1244.7 237.4 1199.25 275.45 1151.9 312 1197.4
M 279.15 1251.15
L 317.15 1203.85 355.15 1251.15 317.15 1298.45 279.15 1251.15
M 194.55 1252.5
L 232.25 1205.65 268.8 1251.1 231.1 1298 194.55 1252.5
M 226 1304.5
L 191.65 1347.15 155.05 1301.65 189.35 1258.95 226 1304.5
M 196.8 1353.55
L 231.1 1310.9 269.1 1358.2 234.8 1400.85 196.8 1353.55
M 312 1304.9
L 274.3 1351.8 236.3 1304.5 274 1257.6 312 1304.9
M 279.5 1358.2
L 317.2 1311.3 354.85 1358.2 317.2 1405.1 279.5 1358.2
M 312 1411.6
L 277.7 1454.2 240.05 1407.3 274.35 1364.65 312 1411.6
M 229.65 1407.35
L 195.05 1450.35 157.05 1403.05 191.65 1360.05 229.65 1407.35
M 365.6 1251.15
L 402.15 1205.7 439.85 1252.6 403.3 1298.05 365.6 1251.15
M 396.9 1199.2
L 360.35 1244.7 322.35 1197.35 358.9 1151.9 396.9 1199.2
M 398.05 1304.5
L 360.05 1351.8 322.35 1304.9 360.35 1257.6 398.05 1304.5
M 365.25 1358.2
L 403.25 1310.9 437.55 1353.55 399.55 1400.85 365.25 1358.2
M 394.35 1407.3
L 356.7 1454.2 322.4 1411.55 360.05 1364.65 394.35 1407.3 Z"/>
</g>

<g id="Layer2_0_MEMBER_0_MEMBER_3_FILL">
<path fill="#1B120E" stroke="none" d="
M 470.9 988.45
Q 463.85 972.3 446.15 966.6 397.25 950.85 357.3 952.25 327.15 953.3 299 964.6 290.15 968.15 277.95 974.3 264.3 981.1 260.55 982.75 251.75 986.6 245.4 987.45 237.8 988.45 231.15 985.7 205.8 975.25 192.55 970.75 170.5 963.2 155.75 961.9 117.5 958.5 118.45 996.25 118.75 1008 118.5 1108.85 118.2 1207.35 119.9 1264.65 121.8 1329.65 120.25 1389 119.8 1407 117.15 1464.9 115.8 1494.2 117.55 1502.85 118.65 1508.4 121.25 1510.85 123.8 1513.2 128.5 1513.2 135.9 1513.2 144.05 1514.25 148.75 1514.9 157.6 1516.25 174 1518.55 190.5 1515.85 237.2 1508.25 354.7 1506.45 410.55 1505.65 426.7 1504.9 457.9 1503.55 462.3 1500.05 468.75 1494.95 471.7 1386.8 473.9 1305.9 473.4 1216.25 473.15 1169.3 475.65 1108 478 1049.6 477.75 1033.85 477.3 1003.05 470.9 988.45 Z"/>
</g>

<g id="Layer2_0_MEMBER_0_MEMBER_4_FILL">
<path fill="#A97C50" stroke="none" d="
M 192.35 0
L 5.25 111.75 5.25 1506.1 191.15 1553.9 192.35 0 Z"/>
</g>

<g id="Layer2_0_MEMBER_0_MEMBER_5_FILL">
<path fill="#875837" stroke="none" d="
M 754.5 1542.15
L 734.1 2.65 459.45 111.75 458.75 1502.8 754.5 1542.15 Z"/>
</g>

<g id="Layer2_0_MEMBER_0_MEMBER_6_FILL">
<path fill="#8F5D3A" stroke="none" d="
M 472.9 106.4
L 459.45 111.75 459.4 123.15 472.9 106.4 Z"/>
</g>

<g id="Layer2_0_MEMBER_0_MEMBER_7_FILL">
<path fill="#8F5D3A" stroke="none" d="
M 730.5 91.1
L 735.35 97.15 735.05 72.45 730.45 78.15 693.45 32.15 705.25 17.5 702.45 15.25 694 18.6 688.25 25.7 685.35 22 677.5 25.1 683.1 32.1 647.1 76.9 623 46.8 615.1 49.9 642 83.35 607.9 125.8 573.75 83.35 593.85 58.35 578.6 64.4 568.6 76.9 563.45 70.45 555.55 73.6 563.4 83.35 526.4 129.35 499.45 95.85 491.55 99 521.2 135.85 482.4 184.1 459.4 155.5 459.4 168.4 477.2 190.55 459.35 212.75 459.35 225.65 482.35 197 516.45 239.45 479.45 285.45 459.25 260.3 459.25 273.2 474.25 291.9 459.25 310.6 459.25 323.5 479.5 298.35 516.5 344.35 477.85 392.45 459.3 369.35 459.3 382.25 472.65 398.9 459.25 415.55 459.25 428.45 477.85 405.35 516.65 453.6 479.85 499.4 459.25 473.75 459.25 486.65 474.7 505.85 459.25 525.05 459.25 538 479.9 512.3 516.9 558.3 478.15 606.45 459.25 582.95 459.25 595.85 473 612.9 459.2 630 459.2 642.9 478.1 619.35 516.75 667.45 480.25 712.85 459.15 686.55 459.15 699.45 475.1 719.3 459.1 739.15 459.1 752.1 480.25 725.75 517.05 771.55 480.2 817.35 459.05 791.05 459.05 804 475.05 823.85 459.05 843.75 459.05 856.65 480.25 830.3 519 878.4 477 930.7 459.1 908.45 459.1 921.35 471.8 937.15 459 953 459 965.9 476.9 943.65 513.4 989 476.85 1034.45 459 1012.25 459 1025.15 471.7 1041 459 1056.75 459 1069.65 476.85 1047.4 513.7 1093.2 475.7 1140.55 459 1119.7 459 1132.6 470.5 1147 458.95 1161.35 458.95 1174.3 475.7 1153.45 517.7 1205.75 480 1252.6 458.85 1226.3 458.85 1239.2 474.8 1259.05 458.8 1278.9 458.8 1291.85 480 1265.5 516.55 1311 482.25 1353.65 458.85 1324.5 458.85 1337.4 477.1 1360.1 458.85 1382.85 458.85 1395.75 482.3 1366.55 520.3 1413.9 485.7 1456.9 458.8 1423.4 458.8 1436.3 480.5 1463.3 458.75 1490.35 458.75 1502.75 459.15 1502.8 485.75 1469.8 518.65 1510.8 536.65 1513.2 568.4 1473.7 602.7 1516.35 598.6 1521.45 619.35 1524.2 613.05 1516.35 647.35 1473.7 681.95 1516.7 670.45 1531 679.8 1532.25 687.1 1523.15 696.1 1534.4 707.7 1535.95 692.25 1516.7 730 1469.8 749.15 1493.65 753.8 1489.95 753.8 1486.5 735.2 1463.35 753.2 1441 753.05 1428.3 730.05 1456.9 695.45 1413.9 733.45 1366.6 752.5 1390.35 752.35 1377.2 738.65 1360.15 751.9 1343.65 751.75 1330.95 733.45 1353.7 699.1 1311 735.65 1265.5 749.15 1282.3 751 1280.8 750.9 1271.6 740.85 1259.05 750.55 1247 750.4 1234.3 735.65 1252.65 698 1205.75 740 1153.45 744.55 1159.1 749.35 1155.25 749.35 1152.1 745.2 1146.95 749.2 1141.95 749.05 1129.25 740.05 1140.5 702.05 1093.2 738.85 1047.35 743.1 1052.65 748 1048.7 748 1045.8 744 1041 747.75 1036.25 747.6 1023.55 738.8 1034.55 702.25 989 738.75 943.6 746.7 953.45 746.5 940.35 744 937.15 746.5 934.05 746.3 921.35 738.8 930.7 696.8 878.4 735.5 830.25 737 832.2 743.25 827.1 740.6 823.8 744.9 818.45 744.75 805.75 735.4 817.35 698.6 771.55 735.4 725.75 743.8 736.2 743.65 723.1 740.55 719.3 743.55 715.6 743.4 702.9 735.4 712.85 698.9 667.4 737.55 619.35 742.35 625.25 742.05 600.85 737.6 606.4 698.85 558.25 735.85 512.25 741 518.6 740.65 493.4 735.85 499.4 699 453.6 737.75 405.35 739.45 407.4 739.2 390.65 737.8 392.4 699.1 344.3 736.1 298.3 738.05 300.7 737.8 283.3 736.1 285.4 699.1 239.4 733.25 197 736.75 201.3 736.45 180.1 733.25 184.1 694.5 135.85 730.5 91.1
M 688.3 38.65
L 725.3 84.65 689.3 129.45 652.3 83.45 688.3 38.65
M 684.15 135.8
L 650 178.25 613 132.25 647.15 89.8 684.15 135.8
M 689.25 142.3
L 728.1 190.6 694 233 655.2 184.7 689.25 142.3
M 688.8 239.45
L 651.8 285.45 613 237.15 650 191.15 688.8 239.45
M 656.95 291.9
L 693.95 245.9 730.95 291.9 693.95 337.9 656.95 291.9
M 688.8 344.35
L 650 392.6 613 346.6 651.8 298.35 688.8 344.35
M 650 405.45
L 688.7 453.55 651.7 499.55 613 451.45 650 405.45
M 693.85 447.2
L 655.2 399.1 694 350.8 732.65 398.9 693.85 447.2
M 651.7 512.5
L 688.5 558.25 649.8 606.35 613 560.6 651.7 512.5
M 693.65 551.9
L 656.9 506 693.9 460 730.65 505.9 693.65 551.9
M 649.8 619.25
L 688.55 667.4 651.75 713.2 613 665.05 649.8 619.25
M 693.75 661
L 655 612.85 693.65 564.75 732.4 612.9 693.75 661
M 651.75 726.1
L 688.25 771.5 649.5 819.7 613 774.25 651.75 726.1
M 693.45 765.1
L 656.95 719.7 693.75 673.9 730.25 719.35 693.45 765.1
M 565.65 178.25
L 531.55 135.85 568.55 89.8 602.65 132.25 565.65 178.25
M 526.35 142.3
L 560.45 184.7 521.7 233 487.55 190.55 526.35 142.3
M 607.8 138.7
L 644.8 184.7 607.8 230.7 570.8 184.7 607.8 138.7
M 607.85 243.6
L 646.65 291.9 607.85 340.15 569.05 291.9 607.85 243.6
M 563.85 285.45
L 526.85 239.45 565.65 191.15 602.65 237.15 563.85 285.45
M 521.7 245.85
L 558.7 291.85 521.7 337.85 484.7 291.85 521.7 245.85
M 526.85 344.35
L 563.85 298.35 602.65 346.6 565.65 392.6 526.85 344.35
M 644.9 399
L 607.9 445 570.9 399 607.9 353 644.9 399
M 527 453.6
L 565.65 405.5 602.65 451.45 564 499.6 527 453.6
M 560.5 399
L 521.8 447.1 483 398.85 521.7 350.75 560.5 399
M 527.2 558.3
L 564 512.5 602.65 560.6 565.85 606.4 527.2 558.3
M 558.8 506.05
L 522 551.8 485 505.85 521.8 460.05 558.8 506.05
M 607.85 554.1
L 569.2 506 607.85 457.9 646.5 506 607.85 554.1
M 607.85 658.65
L 571.05 612.85 607.85 567.1 644.65 612.85 607.85 658.65
M 527.2 667.45
L 565.9 619.3 602.65 665.05 564 713.25 527.2 667.45
M 560.65 612.85
L 522 661 483.25 612.85 522 564.75 560.65 612.85
M 527.45 771.55
L 564 726.15 602.65 774.3 566.15 819.7 527.45 771.55
M 558.75 719.7
L 522.3 765.1 485.45 719.25 522 673.9 558.75 719.7
M 607.85 767.9
L 569.15 719.7 607.85 671.55 646.55 719.7 607.85 767.9
M 607.85 871.6
L 571.35 826.2 607.85 780.8 644.35 826.2 607.85 871.6
M 529.3 878.4
L 566.15 832.6 602.65 878 565.8 923.8 529.3 878.4
M 561 826.15
L 524.15 872 485.45 823.8 522.25 778 561 826.15
M 523.8 989
L 565.8 936.7 602.65 982.55 560.65 1034.85 523.8 989
M 560.6 930.25
L 518.6 982.55 482.1 937.15 524.1 884.85 560.6 930.25
M 607.85 976.1
L 571 930.3 607.85 884.5 644.65 930.3 607.85 976.1
M 555.45 1041.35
L 518.9 1086.8 482.05 1041 518.6 995.5 555.45 1041.35
M 566.1 1145.5
L 524.1 1093.2 560.65 1047.75 602.65 1100 566.1 1145.5
M 518.85 1099.65
L 560.85 1151.95 522.85 1199.3 480.85 1147 518.85 1099.65
M 607.85 1106.5
L 644.4 1152 607.85 1197.45 571.3 1152 607.85 1106.5
M 607.8 1093.6
L 565.8 1041.3 607.8 989 649.8 1041.3 607.8 1093.6
M 607.85 1210.35
L 645.85 1257.65 607.85 1305 569.85 1257.65 607.85 1210.35
M 564.65 1251.2
L 528.1 1205.7 566.1 1158.4 602.65 1203.85 564.65 1251.2
M 522.9 1212.2
L 559.45 1257.65 521.75 1304.55 485.2 1259.1 522.9 1212.2
M 565 1358.3
L 527 1311 564.65 1264.1 602.65 1311.4 565 1358.3
M 521.75 1317.45
L 559.75 1364.75 525.45 1407.45 487.45 1360.15 521.75 1317.45
M 570.15 1364.7
L 607.85 1317.85 645.5 1364.7 607.85 1411.6 570.15 1364.7
M 602.65 1418.1
L 568.35 1460.8 530.7 1413.9 565 1371.25 602.65 1418.1
M 607.85 1424.55
L 642.15 1467.25 607.85 1509.9 573.55 1467.25 607.85 1424.55
M 647.35 1460.75
L 613.05 1418.1 650.7 1371.2 685 1413.9 647.35 1460.75
M 525.5 1420.4
L 563.15 1467.25 528.6 1510.25 490.9 1463.4 525.5 1420.4
M 649.5 832.55
L 686.35 878.4 649.85 923.8 613 877.95 649.5 832.55
M 691.55 872
L 654.7 826.15 693.4 778 730.25 823.85 691.55 872
M 649.85 936.7
L 691.85 989 655 1034.8 613 982.5 649.85 936.7
M 697.1 982.6
L 655.1 930.3 691.55 884.9 733.55 937.2 697.1 982.6
M 660.25 1041.35
L 697.1 995.5 733.65 1041 696.8 1086.8 660.25 1041.35
M 691.55 1093.2
L 649.55 1145.5 613 1100 655 1047.75 691.55 1093.2
M 654.8 1151.95
L 696.8 1099.65 734.8 1147 692.8 1199.3 654.8 1151.95
M 687.55 1205.7
L 651 1251.2 613 1203.85 649.55 1158.4 687.55 1205.7
M 656.25 1257.65
L 692.8 1212.2 730.5 1259.1 693.95 1304.55 656.25 1257.65
M 688.75 1311
L 650.75 1358.3 613 1311.4 651 1264.1 688.75 1311
M 693.95 1317.45
L 728.25 1360.15 690.25 1407.45 655.95 1364.75 693.95 1317.45
M 690.2 1420.35
L 724.8 1463.35 687.1 1510.25 652.5 1467.25 690.2 1420.35 Z"/>
</g>

<g id="Layer2_0_MEMBER_0_MEMBER_8_FILL">
<path fill="#C49A6C" stroke="none" d="
M 805.75 0.05
L 733.2 0.05 733.2 1543.2 805.75 1543.2 805.75 0.05 Z"/>
</g>

<g id="Layer2_0_MEMBER_0_MEMBER_9_FILL">
<path fill="#F2DBBB" stroke="none" d="
M 780.15 0.1
L 767.35 0.1 767.35 1543.05 780.15 1543.05 780.15 0.1 Z"/>
</g>

<g id="Layer2_0_MEMBER_0_MEMBER_10_FILL">
<path fill="#3C2415" stroke="none" d="
M 591 980.4
Q 588.5 981.15 573.2 986.8 562.5 990.7 554.8 992.2 544 994.3 532.95 993.3 506.05 990.85 468.1 968.95 458.8 963.55 455.3 977.75 452.25 990.15 452.5 1024.5 452.55 1034.3 454.4 1106 456 1169.05 455.75 1218.95 455.5 1261.2 452.35 1389.15 450.75 1496.9 457.05 1501.3 465.05 1506.9 571.2 1521.55 586.9 1523.7 661.9 1533.75 716.35 1541 742.05 1544.85 757.75 1547.25 772.85 1546.35 798.7 1544.85 801.45 1544.85 810.2 1544.85 812.3 1530.15 813.95 1518.35 812.4 1482.5 809.45 1413.7 809 1396.75 807.35 1332.8 809.25 1267.55 810.9 1210.1 810.65 1111.15 810.4 1010.05 810.7 998.05 811.2 978.35 793.4 974.35 779.9 971.35 751.6 977.35 718.65 985.45 703.7 988.5 677.9 993.7 668.1 989.3 635.55 974.6 610.95 976.45 601.45 977.15 591 980.4 Z"/>
</g>

<g id="Layer2_0_MEMBER_0_MEMBER_11_FILL">
<path fill="#26160E" stroke="none" d="
M 591.55 979.2
Q 588.2 980.15 574 985.1 563.25 988.8 555.7 990.25 544.95 992.25 533.8 991.4 506.7 989.3 468.1 968.95 462.8 966.15 459.9 966.95 457.1 967.7 455.7 972.1 454.55 975.85 453.85 984.2 453.4 989.35 452.55 1002.95
L 451.55 1102.95
Q 451.8 1113.25 454 1157.05 455.8 1193.3 455.65 1219 455.6 1241.4 454.4 1293
L 454.4 1493.3
Q 455.5 1500.2 457.05 1501.3 464.9 1506.75 565.35 1520.7 621.25 1528.45 732.8 1543.45
L 732.8 981.7
Q 705.1 988.5 695.3 990.05 676.4 993.1 668.1 989.35 635.45 974.6 611.2 975.8 601.8 976.3 591.55 979.2 Z"/>
</g>

<g id="Layer2_0_MEMBER_0_MEMBER_12_FILL">
<path fill="#C49A6C" stroke="none" d="
M 737.45 121.6
L 737.45 0.05 280.6 0.05 280.6 121.6 737.45 121.6 Z"/>
</g>

<g id="Layer2_0_MEMBER_0_MEMBER_13_FILL">
<path fill="#603913" stroke="none" d="
M 733.35 98.55
L 733.35 17.6 289.8 17.6 289.8 98.55 733.35 98.55 Z"/>
</g>

<g id="Layer2_0_MEMBER_0_MEMBER_14_FILL">
<path fill="#FFFFFF" stroke="none" d="
M 350.2 35.5
Q 348.65 34.25 346.6 34.4
L 316.6 34.4
Q 314.65 34.25 313.1 35.4 311.75 36.5 311.85 38.25 311.75 40 313 41.1 314.55 42.35 316.55 42.2
L 326.85 42.2 326.85 76.05
Q 326.7 78.55 328.2 80.35 329.55 81.9 331.6 81.8 333.55 81.9 335 80.4 336.5 78.45 336.25 76.05
L 336.25 42.2 346.55 42.2
Q 348.5 42.35 350.2 41.15 351.5 39.95 351.4 38.3 351.5 36.6 350.2 35.5 Z"/>
</g>

<g id="Layer2_0_MEMBER_0_MEMBER_15_FILL">
<path fill="#FFFFFF" stroke="none" d="
M 391.1 35.4
Q 389.65 34.25 387.75 34.4
L 362.85 34.4
Q 361.15 34.35 359.55 35 358.2 35.55 357.65 36.9 357 38.5 357.05 40.2
L 357.05 75.2
Q 356.8 77.7 358.4 79.6 359.75 81 362.85 81
L 388.5 81
Q 390.3 81.15 391.85 80 393 78.95 393 77.3 393 75.6 391.85 74.55 390.4 73.35 388.5 73.5
L 366.5 73.5 366.5 60.25 386.05 60.25
Q 387.85 60.4 389.3 59.25 390.4 58.15 390.3 56.65 390.4 55.15 389.25 54.1 387.85 52.95 386 53.1
L 366.5 53.1 366.5 41.7 387.75 41.7
Q 389.65 41.8 391.1 40.7 392.3 39.6 392.2 38.05 392.3 36.45 391.1 35.4 Z"/>
</g>

<g id="Layer2_0_MEMBER_0_MEMBER_16_FILL">
<path fill="#FFFFFF" stroke="none" d="
M 408.4 35
Q 407 33.5 405 33.6 402.95 33.5 401.55 35 400.1 36.85 400.25 39.3
L 400.25 75.2
Q 400.1 77.75 401.6 79.65 403.05 81 406.05 81
L 428.85 81
Q 430.8 81.15 432.4 79.95 433.7 78.85 433.6 77.15 433.6 75.45 432.35 74.35 430.85 73.1 428.85 73.25
L 409.7 73.25 409.7 39.35
Q 409.95 36.95 408.4 35 Z"/>
</g>

<g id="Layer2_0_MEMBER_0_MEMBER_17_FILL">
<path fill="#FFFFFF" stroke="none" d="
M 470.5 34.35
L 445.6 34.35
Q 443.9 34.35 442.3 34.95 440.9 35.6 440.4 36.85 439.75 38.45 439.8 40.15
L 439.8 75.15
Q 439.55 77.6 441.15 79.6 442.55 81 445.6 81
L 471.25 81
Q 473.05 81.15 474.6 80 475.8 78.9 475.7 77.3 475.8 75.65 474.6 74.55 473.1 73.35 471.25 73.5
L 449.25 73.5 449.25 60.25 468.8 60.25
Q 470.6 60.4 472.05 59.25 473.15 58.15 473.05 56.65 473.15 55.15 472 54.1 470.6 52.95 468.75 53.1
L 449.25 53.1 449.25 41.7 470.5 41.7
Q 472.4 41.8 473.85 40.7 475 39.65 475 38 475 36.4 473.85 35.35 472.3 34.2 470.5 34.35 Z"/>
</g>

<g id="Layer2_0_MEMBER_0_MEMBER_18_FILL">
<path fill="#FFFFFF" stroke="none" d="
M 517.65 42.4
Q 516.7 39.8 514.5 37.85 512.4 35.95 509.55 35.2 505.3 34.25 501.3 34.4
L 489.2 34.4
Q 486.65 34.15 484.65 35.7 483.2 37.1 483.2 40.15
L 483.2 76.1
Q 483.05 78.5 484.5 80.35 485.85 81.75 487.8 81.8 489.75 81.85 491.15 80.5
L 491.3 80.35
Q 492.8 78.55 492.65 76.05
L 492.65 62.85 501.3 62.85
Q 509.95 62.85 514.35 59.2 518.75 55.55 518.75 48.4 518.85 45.35 517.65 42.4
M 507.35 43.55
Q 509.25 45.65 509.15 48.55 509.25 50.85 508 52.75 506.65 54.4 504.6 55 501.8 55.8 499 55.7
L 492.65 55.7 492.65 41.5 499 41.5
Q 505.3 41.5 507.35 43.55 Z"/>
</g>

<g id="Layer2_0_MEMBER_0_MEMBER_19_FILL">
<path fill="#FFFFFF" stroke="none" d="
M 564.65 35
Q 563.25 33.5 561.2 33.6 559.15 33.5 557.8 35 556.35 36.85 556.5 39.3
L 556.5 52.7 536.15 52.7 536.15 39.35
Q 536.4 36.9 534.8 35 533.4 33.45 531.35 33.6 529.4 33.45 528 35 526.55 36.85 526.7 39.3
L 526.7 76.05
Q 526.55 78.45 528 80.35 529.35 81.9 531.4 81.8 533.35 81.9 534.8 80.35 536.3 78.55 536.15 76.05
L 536.15 60.35 556.5 60.35 556.5 76.05
Q 556.35 78.45 557.8 80.35 559.15 81.9 561.2 81.8 563.25 81.9 564.6 80.35 566.15 78.5 566 76.05
L 566 39.35
Q 566.15 36.8 564.65 35 Z"/>
</g>

<g id="Layer2_0_MEMBER_0_MEMBER_20_FILL">
<path fill="#FFFFFF" stroke="none" d="
M 616.9 44.8
Q 614.15 39.35 609.05 36.55 603.15 33.4 596.6 33.6 591.65 33.55 587.05 35.25 582.95 36.85 580 40.1 577 43.35 575.5 47.7 573.95 52.5 574 57.55 573.95 62.5 575.45 67.35 576.8 71.55 579.8 75.05 582.85 78.35 587 80 591.75 81.75 596.75 81.75 601.8 81.75 606.5 80 610.8 78.3 613.7 75 616.75 71.6 618.1 67.35 619.65 62.45 619.55 57.5 619.7 50.8 616.9 44.8
M 596.6 41.1
Q 600.35 41.05 603.6 43.05 606.85 45.15 608.3 48.7 610.1 52.85 610 57.55 610.15 62.4 608.25 66.9 606.6 70.5 603.4 72.45 600.7 74.05 597.55 74.25 594.45 74.45 591.55 73.25 589.15 72.15 587.35 70.05 585.3 67.6 584.5 64.75 583.45 61.15 583.5 57.55 583.45 54 584.5 50.45 585.3 47.65 587.25 45.25 589 43.2 591.35 42.15 593.85 41.1 596.6 41.1 Z"/>
</g>

<g id="Layer2_0_MEMBER_0_MEMBER_21_FILL">
<path fill="#FFFFFF" stroke="none" d="
M 665.65 35
Q 664.4 33.5 662.4 33.6 660.45 33.5 659.3 35 657.95 36.85 658.1 39
L 658.1 66.75 638.5 37
Q 638 36.2 637.1 35.2 635.55 33.55 633.3 33.65 631.65 33.65 630.3 34.55 629.05 35.3 628.3 36.9 627.75 38.75 627.8 40.5
L 627.8 76.5
Q 627.65 78.65 629 80.5 630.25 81.95 632.25 81.85 634.15 81.95 635.4 80.5 636.8 78.7 636.65 76.5
L 636.65 49.1 655.9 78.4
Q 656.55 79.4 657.55 80.25 658.35 81 659.45 81.45 660.5 81.8 661.75 81.8 666.85 81.8 666.85 75.65
L 666.85 39
Q 666.95 36.75 665.65 35 Z"/>
</g>

<g id="Layer2_0_MEMBER_0_MEMBER_22_FILL">
<path fill="#FFFFFF" stroke="none" d="
M 711.2 35.4
Q 709.75 34.25 707.85 34.4
L 682.9 34.4
Q 681.15 34.3 679.65 35 678.3 35.55 677.75 36.9 677.1 38.5 677.15 40.2
L 677.15 75.2
Q 676.9 77.8 678.5 79.6 679.85 81 682.9 81
L 708.55 81
Q 710.45 81.15 711.9 80 713.15 78.9 713.05 77.3 713.15 75.65 711.95 74.55 710.4 73.4 708.6 73.55
L 686.6 73.55 686.6 60.25 706.15 60.25
Q 707.9 60.4 709.4 59.25 710.5 58.15 710.4 56.65 710.5 55.15 709.35 54.1 707.9 52.95 706.1 53.1
L 686.55 53.1 686.55 41.7 707.85 41.7
Q 709.75 41.8 711.2 40.7 712.4 39.6 712.3 38.05 712.4 36.45 711.2 35.4 Z"/>
</g>

<g id="Layer2_0_MEMBER_0_MEMBER_23_FILL">
<path fill="#C49A6C" stroke="none" d="
M 192.3 25.1
L 192.3 12.45 149.1 64.45 127.7 38.6 120.8 42.75 144.1 70.6 107.9 114.25 74.75 74.3 81.5 66.2 61.6 78.1 24.45 122.85 11.9 107.75 5.25 111.75 5.25 112.5 19.25 129.2 5.25 146 5.25 157.5 24.05 135 57.5 175 26.6 212.2 5.25 186.65 5.25 198.25 21.75 218 5.3 237.9 5.3 249.1 26.5 223.7 61.85 266 27.7 307.2 5.25 280.2 5.25 292.8 22.5 313.45 5.3 334.2 5.3 345.35 27.2 319.1 62.05 360.8 32.3 396.8 5.25 364 5.25 376.7 27.05 403.05 5.25 429.4 5.25 444.4 33.1 410.4 68 452.55 26.7 502 5.25 476.4 5.25 488.85 21.55 508.15 5.25 527.65 5.25 542.4 27.65 515.4 59.65 553.4 29.65 589.2 5.25 559.65 5.25 572.45 24.35 595.6 5.25 618.45 5.25 631.65 29.8 602.2 60.25 639.05 31 674.1 5.25 643 5.25 655.65 25.75 680.35 5.25 704.95 5.25 718.15 31.25 686.9 65.45 727.9 34.8 764.6 5.25 729.25 5.25 742.1 29.35 771.2 5.25 800.1 5.25 813.3 34.8 777.8 68.35 818.25 34.05 859.35 5.25 824.65 5.25 837.25 28.9 865.55 5.25 893.85 5.25 907.05 34.4 872.05 69.75 914.4 40.5 949.5 5.25 907.05 5.25 919.45 35.45 955.55 11 984.8 8.7 1000.8 40.9 962.2 70.55 997.65 27 1049.85 24.7 1065.85 76.05 1004.2 106.75 1040.95 55.5 1102.35 53.25 1118.35 112.25 1047.55 160.25 1105 159.55 1093 117 1041.7 146.5 1006.3 181.6 1048.3 180.9 1036.3 151.25 1000.5 185.4 959.5 191.6 967 191.6 952.4 191.5 952.25 191.6 952.1 191.65 939.2 186.15 945.8 155.35 909 185.8 872.45 191.7 879.5 191.7 868.15 190.5 866.75 191.7 865.3 191.7 852.45 185.15 860.3 155.55 824.5 184.55 789.7 191.75 798.45 191.75 785.55 189.9 783.3 191.75 781 191.75 768.2 184.55 776.85 149.3 734.1 180.4 696.75 191.8 710.25 191.8 699.25 185 691.15 191.8 683 191.8 670.25 179.65 684.8 145.85 644.45 186.5 595.65 191.85 602.1 191.85 589.9 191.55 589.55 191.85 589.15 191.85 576.4 186.25 583.15 152.1 541.8 182.6 505.15 192 516.3 192 505.15 187.3 499.55 192 493.95 192 481.15 182 493.15 151.35 456.25 186 414.6 192 421.85 192 410.65 190.65 409 192.05 407.35 192.05 394.6 185.35 402.6 153.1 363.95 184.1 326.5 192.1 336.1 192.1 324.9 188.7 320.9 192.1 316.85 192.1 303.9 183.35 314.4 147.35 271 187.55 221.9 192.15 227.4 192.15 203.4 187 209.65 153 168.55 189.45 124.9 192.25 128.25 192.25 108.85 189.1 112.65 154.3 70.65 192.3 25.1
M 62.6 168.85
L 29.3 128.7 69.5 80.6 102.8 120.4 62.6 168.85
M 147.9 162.35
L 112.9 120.25 149.25 76.75 184.25 118.55 147.9 162.35
M 107.75 126.4
L 142.9 168.35 102.55 217 67.4 174.65 107.75 126.4
M 102.5 228.9
L 137 270.15 106.1 307.55 71.5 266.1 102.5 228.9
M 141.85 264.3
L 107.5 223 148 174.5 182.25 215.45 141.85 264.3
M 66.65 260.25
L 31.3 217.9 62.3 180.75 97.55 223 66.65 260.25
M 67.1 354.65
L 32.35 312.9 66.65 271.8 101.3 313.25 67.1 354.65
M 107.1 320.15
L 142.85 362.95 108.3 404.3 73 361.75 107.1 320.15
M 147.55 357.3
L 111.8 314.4 142.6 276.85 178.7 320 147.55 357.3
M 141.25 455.55
L 110.95 491.85 79.05 453.3 109.1 417.05 141.25 455.55
M 146 449.8
L 114 411.15 148.4 369.6 180.7 408.25 146 449.8
M 73.25 446.3
L 38.3 404.05 68 367.9 103.35 410.2 73.25 446.3
M 64.6 547.3
L 32.75 509.2 73.85 459.6 105.7 498.05 64.6 547.3
M 141.65 541.45
L 100.75 590.45 70.05 553.85 111.1 504.55 141.65 541.45
M 146.8 535.3
L 116.3 498.35 146.6 462 177.35 498.75 146.8 535.3
M 135.75 643.7
L 105 680.5 71 639.25 101.3 602.8 135.75 643.7
M 110.4 687
L 141.15 650.1 175.1 690.35 144 727.65 110.4 687
M 140.5 638
L 106.15 597 147 548 181.25 589.2 140.5 638
M 65.55 632.7
L 35.1 595.8 65.1 559.8 95.9 596.35 65.55 632.7
M 36.45 680.7
L 65.65 645.65 99.7 686.9 70.55 721.85 36.45 680.7
M 40.3 771.2
L 70.9 734.5 104.55 774.85 74 811.5 40.3 771.2
M 138.6 734.05
L 109.5 768.9 76 728.4 105.05 693.4 138.6 734.05
M 114.95 775.4
L 143.95 740.55 179.25 783.25 150.25 818.05 114.95 775.4
M 120.25 866.9
L 150.75 830.3 180.45 866 150 902.5 120.25 866.9
M 145.35 823.85
L 114.85 860.45 79.4 818 110 781.35 145.35 823.85
M 39.5 866
L 73.8 824.8 109.05 867.35 74.8 908.45 39.5 866
M 46 956.1
L 75.2 921 104.9 956.5 75.5 991.7 46 956.1
M 144.05 909.6
L 109.8 950.6 80.2 915 114.45 873.9 144.05 909.6
M 115.2 957.15
L 149.4 916.1 180.05 953.1 145.8 994.1 115.2 957.15
M 111.55 1035.15
L 81 998.3 110.35 963 141.1 999.8 111.55 1035.15 Z"/>
</g>

<g id="Layer2_0_MEMBER_0_MEMBER_24_FILL">
<path fill="#C49A6C" stroke="none" d="
M 283.3 0.05
L 192.2 0.05 192.2 1553.05 283.3 1553.05 283.3 0.05 Z"/>
</g>

<g id="Layer2_0_MEMBER_0_MEMBER_25_FILL">
<path fill="#F2DBBB" stroke="none" d="
M 251.15 0.1
L 235.05 0.1 235.05 1536 251.15 1536 251.15 0.1 Z"/>
</g>

<g id="Layer2_0_MEMBER_0_MEMBER_26_FILL">
<path fill="#3C2415" stroke="none" d="
M 21.25 987.1
Q 10.75 944.65 5.75 951.5 1.4 957.45 0.35 1002.65 -0.3 1032.65 0.4 1108.15 1.2 1197.65 1 1235.55 0.6 1303.3 1.8 1397.95 3 1497.35 4.7 1506.15 7.4 1520.05 66.95 1533.6 97.25 1540.5 192.55 1556.15 209.4 1558.85 236.85 1556.55 244.15 1555.9 258.1 1554.5 270 1553.45 277.2 1553.45 285.95 1553.45 287.9 1538.45 289.5 1526.55 287.75 1490.1 284.6 1424.5 284 1403.65 282.15 1339.6 284.05 1274.15 285.75 1216.65 285.45 1117.75 285.2 1016.45 285.5 1004.65 286 985.15 266.75 986.75 253.2 987.85 222.3 1001.45 205.4 1009.1 197.15 1012.7 182.7 1019 173.5 1022.1 148.65 1030.35 141.5 1021.85 111.75 986.5 89.35 989.25 80.55 990.3 72.35 997.3 66.55 1002.25 59.5 1011.8 50.2 1024.45 49.4 1025.35 44.35 1031.25 40.6 1030.7 31.75 1029.35 21.25 987.1 Z"/>
</g>

<g id="Layer2_0_MEMBER_0_MEMBER_27_FILL">
<path fill="#26160E" stroke="none" d="
M 21.25 987.1
Q 10.75 944.65 5.75 951.5 1.4 957.45 0.35 1002.65 -0.3 1032.65 0.4 1108.15 1.2 1197.65 1 1235.55 0.6 1303.3 1.8 1397.9 3 1497.35 4.7 1506.1 7.45 1520.05 67 1533.6 97.55 1540.55 192.6 1556.1
L 192.7 1556.1 192.7 1014.6
Q 172.65 1023.2 161.35 1025.4 146.85 1028.2 141.5 1021.85 111.75 986.5 89.35 989.25 80.55 990.3 72.35 997.3 66.55 1002.25 59.5 1011.8 50.2 1024.45 49.4 1025.35 44.35 1031.25 40.6 1030.7 31.75 1029.35 21.25 987.1 Z"/>
</g>

<g id="Mask_1_MASK_0_FILL">
<path fill="#FFFFFF" stroke="none" d="
M 283.55 105.55
L 109.55 105.55 109.55 412 283.55 412 283.55 105.55 Z"/>
</g>

<g id="Layer1_0_FILL">
<path fill="#000000" stroke="none" d="
M 424.75 566.6
L 415.6 568.85 415.75 568.85 417 590.25 418.75 605.6 420.5 628.35 422.35 629.6 423.25 629.75 442.6 629.6 450.25 628.85 451 628.6 451.75 627.25 449.6 625.35 444.5 623.1 438 621.1 435.5 619.85 434.75 619 429.5 595 424.75 566.6
M 378.75 569.1
L 371.5 568.35 371.25 569 370.75 573.25 368 586.35 366 598.25 362.6 624.75 362.5 625.25
Q 362.85 626 360.5 631.25
L 360.5 632.6
Q 375.6 634.25 377 630.85
L 377.25 626.35 376.85 618.75 380.25 570.35 380.35 569.75 378.75 569.1
M 505.6 440.1
L 505.6 440.5 507.5 450.75 508.5 451.25 519.25 460.5 521.1 458 521.1 457.35 522 456 522 455.35 521.75 454.25 521.6 452.5 521.6 452.25 507.35 440.35 505.5 440 505.6 440.1
M 281.35 478
L 281 480.6 281 480.75 280.6 482.6 280.75 482.85 279 497.5 277.25 508.1 276.6 515.25 277.35 524.85 278.1 529.1 280.35 551 280.1 551.1 280.1 551.25 280.25 551.85 287.1 553 288.1 553 288 552.1 284.25 515 284.85 508.5 286 502.1 286.35 500.5 286.1 500.25 286.5 499.75 286.35 496.6 286 496.35 285.85 494.85 285.5 494.5 285.35 492.6 284.85 491.6 285 490.6 284.5 490.1
Q 285 489.5 283.6 485.25
L 283.25 485.1 282 477.75 281.6 477.1 281.35 478
M 368.6 414.1
L 371.35 412.75 375 411.6 381.5 411.35 381.75 410.25 381.35 409.85
Q 375.5 405.6 366.6 411.35
L 360.6 416.35 358 420.25 357.75 421.75 358.85 422.1 360.1 421.25 361.75 419 363.6 417.25 368.6 414.1
M 392.6 439
Q 387.1 435.5 382.5 439.6 378.5 445.85 383.35 449.85 390.6 453 393.35 448.6 396.25 440.85 392.6 439
M 471 415.85
Q 469.35 416.85 469.75 420.25
L 471.85 424.75 475.25 427.5 477.6 427.75
Q 482 424.85 479.25 418.85 476.1 414.25 471 415.85
M 465.35 393.5
L 461.35 393.25
Q 452 393.6 448.1 397.35
L 448.35 398.35 449 398.5 458.6 397 465.5 396.6 468.25 397 472.85 398.75 474.35 398.85 474.85 397.85 473.85 396.6 470.25 394.85 465.35 393.5
M 480.5 251.5
L 480.35 251.75 480.85 251.25 480.5 251.5 Z"/>

<path fill="#F2429B" stroke="none" d="
M 521.5 536.25
L 521.6 536.25 521.85 536.1 522.25 536 522.25 535.85 521.1 535.1 521 535.1 518.35 535.6 519.35 536.25 521.5 536.25 Z"/>

<path fill="#370F23" stroke="none" d="
M 525 534.25
L 525.85 533 521 535.1 521.1 535.1 522.25 535.85 522.5 535.85 525 534.25
M 541.1 414.1
L 541.35 414.35 542.25 414.5 541.1 414.1 Z"/>

<path fill="#FF9400" stroke="none" d="
M 495 511
L 495.1 510.75 495.6 509.85 494.5 511.75 494.6 511.6 495 511
M 287.5 430.75
L 287.75 428.5 288.35 427.85
Q 287.825 427.10625 289.65 422.85 274.8642578125 454.65703125 280.6 482.6
L 281 480.75 281 480.6 281.35 478 281.6 477.1 282 477.75 283.25 485.1 283.6 485.25
Q 285 489.5 284.5 490.1
L 285 490.6 284.85 491.6 285.35 492.6 285.5 494.5 285.85 494.85 286 496.35 286.35 496.6 286.5 499.75 286.1 500.25 286.35 500.5 286 502.1 286.1 502.1
Q 299.25 530.85 318.75 545 347 565.35 371.25 569
L 371.5 568.35 378.75 569.1 380.35 569.75 380.25 570.35 390 571.1 399.35 571 412.35 569.5 415.6 568.85 424.75 566.6 433.75 563.5 445 558.5 453.25 553.85 453.5 553.75 455.25 552.6 455.5 552.5 464.6 546 464.85 545.85 465.25 545.5 465.5 545.35 465.85 545 466.1 544.85 466.5 544.5 466.75 544.35 473.5 538.35 473.75 538.25 480 531.75 485.5 525.35 493 514.35 494.35 512 494.6 511.75 494.5 511.75
Q 485.85 525.6 470.25 535.85
L 467.75 536.35 466.85 537.6 465.35 538 464.25 539.1
Q 460.75 539.5 460.75 540.85
L 458 541.35 456.85 542.6 452.25 543.35
Q 452.1 545 446.5 545.35
L 445.5 546.5 424.6 549.6 421.35 549 416.5 549.75
Q 414.75 548.5 409 549.6
L 406.6 548.85
Q 398.35 549.1 394.5 547.1
L 392 547.35 364 539 363.25 537.6 362.75 537.5 356.75 535.6 355.75 534.1 349.6 532.25
Q 349.75 530.1 342.5 528.35
L 341.6 527.1 338.6 525.85 337.85 524.5 337.35 524.35
Q 333.75 523.5 334 521.85
L 331 520.75 330.25 519.25 327.1 518 326.5 516.35 323.35 515.1 322.85 513.6 319.75 512 319.35 510.75 316.35 509.35
Q 316.6 507.5 312.75 505.85
L 311.85 503.1 309.1 501.75
Q 309.5 499.6 306.25 498.75
L 305.6 496.85
Q 302.35 495.5 302.85 494.5 302.25 493.25 302.1 491.85
L 300 490.6
Q 300.5 488.6 297.35 487
L 297 484 294.75 482.25
Q 295.5 480.35 292.75 478.75
L 292.5 475.5 290.75 473.85 290.5 470.25 289 468.5 289 466.85 287.75 465.35 287.75 461.6 286.6 460.1
Q 287.25 458.1 285.75 456.5
L 286 454.85 285.1 453.1 285.75 449.6
Q 284.25 446 285.6 436.75
L 286.5 435.1 286.85 431.75 287.25 431.6 287.5 430.75 Z"/>

<path fill="#FD48A7" stroke="none" d="
M 552.25 509.75
L 552.25 509.6 550.85 508.25 550.35 510.35 549.85 510.75 549.5 511.1 549.35 511.35 552.5 511.6 552.5 510.25 552.35 510 552.25 509.75 Z"/>

<path fill="#F84BB0" stroke="none" d="
M 550.5 503.5
L 547.35 505.25 547.35 511.1 549.35 511.35 549.5 511.1 549.85 510.75 550.35 510.35 550.85 508.25 550.5 505.25 550.75 505 550.5 503.5 Z"/>

<path fill="#FE4BB0" stroke="none" d="
M 557.35 487.5
L 557 488.35 558.1 488.25 558.75 488.1 559.75 487.25 557.6 484.35 556.75 483.85 557.5 485.85 557.35 487.35 557.35 487.5 Z"/>

<path fill="#EC449F" stroke="none" d="
M 552 494.1
L 556.5 493.6 558.1 488.25 557 488.35 557 488.5 555 488.75
Q 550.1 489.75 548.75 491.6
L 546.5 496.6 549.1 494.85 552 494.1 Z"/>

<path fill="#501533" stroke="none" d="
M 556.1 494.1
L 556.5 493.6 552 494.1 549.1 494.85 546.5 496.6 546.35 496.85
Q 543.1 502.6 547.35 511.1
L 547.35 505.25 547.85 501.35
Q 549.35 498.35 550.35 497.85
L 552.75 495.75
Q 554.5 494.25 556.1 494.1 Z"/>

<path fill="#F044A0" stroke="none" d="
M 552.5 475.85
L 552.1 481.5 552.6 483.5 553.85 485.5 555 488.75 557 488.5 557 488.35 557.35 487.5 557.35 487.35 557.5 485.85 556.75 483.85 556.1 483.1 556.25 482.75 552.5 475.85 Z"/>

<path fill="#611A3D" stroke="none" d="
M 538.35 465.8
L 538.35 467.1 537.85 467.25 537.75 468.75 538 474 537.35 474.85 537.1 478.1 537.25 481.25 537.1 481.75 536.5 481.85 536.25 487.6 536.1 488 535.5 488 535.25 489.25 534.5 496.75 533.5 501 533.5 502 534.1 502.25 533.75 504.85 533.25 506.25 532.85 506.35 533 507.75 532 508.25 532.1 509.1 531.5 509.6 531.5 510.25
Q 528.35 513.35 529.1 514.35
L 528.35 514.35 528.25 515.1 527.35 515.25 527.1 516.25 526.35 516 525.75 518.35 524.85 518.5 524.5 519.5 523.75 519.5 523.5 520.6 522.5 520.6 521.85 523 520.85 523.1 520.6 524.25 519.25 524.25
Q 517.75 520.6 516.5 521.35
L 514.25 516.6 512.85 516.5 509.85 508.75 509.5 506.35 508.6 505.85
Q 508.5646484375 503.424609375 509.05 501.5 504.1580078125 510.474609375 500.85 527.75 505.5 534.85 513.6 535.35
L 514.1 535.5 518.35 535.6 521 535.1 525.85 533 526.6 532.5 527.75 531.6 530.25 529 530.85 528 532.25 525.35 533.75 521 536.6 508.1 537 500.1 538.85 484.85 539.25 472.25 539.35 470.75
Q 538.46953125 470.309765625 538.35 465.8
M 492.1 388.75
L 495 385.75
Q 487.1 391.6 488.6 394.5
L 490.5 399.35 496 410.6 501 418.75 502.75 420.6 505.5 422.25 509 423.6 515.25 425.25 516.25 426.75 516.35 427.75 516.75 429.1 517.6 431.1 517.85 433.5 518.25 433.85 521.6 452.25 521.6 452.5 521.75 454.25 522 455.35 522 456 522.35 457.1 522.25 458.85 522.6 460 522.35 460.5 523 467 522.75 477.6 522.5 486.75
Q 522 491.6 520.75 491.75 520.75 492.5 524.85 493.6
L 525.1 493.1 526.75 493.5 527.35 493 528.1 493 528.5 492.35 529.5 492.6 530.5 480.75 530.5 464.25 530.25 464.1 528.85 463.75 527.25 463 525.35 461.25 525 460.1 524.6 459.5 524.25 458 524.1 457.75 522.25 449.25 522.1 448.85 522.1 448.75 521.85 446.6 521.6 443.25
Q 521.5 431 524.75 430.25
L 523.25 424.5 521.5 420.75 522.35 419.85 521.25 418.1 521.85 417.25 520.75 415 520.1 414.25 519 414.35 518.35 413.75 516.85 413.6 516.1 412.35 515 413 513.25 410.25 512.1 410.6 511.35 409.5 510.25 410 508.85 407.6 507.6 408
Q 506.25 403.25 504.35 404.5
L 501.6 398.35 501.35 398 500.1 398.35 498.5 394.6 497.25 394.85 496.6 392.85 495.35 393.1 495.1 392.1 494 392.6 493.5 390.85 492.5 391.25 492.1 388.75 Z"/>

<path fill="#EC4096" stroke="none" d="
M 553.1 463.1
L 551.85 463.85 549.35 465.75 548.75 466.75 549.25 472 550.1 471 554.6 468.35 555 468.1 555.25 467.85 554.6 462.1 553.1 463 553.1 463.1
M 488.85 282
L 488.6 283 489.5 285.35 490.75 287.1 494.6 289.5 495.35 289.75 495.25 286 493.5 284.75 492.5 284.25 488.85 282
M 536.5 411.6
L 536.6 412.75 537.1 414.6 537.25 415.5 541 418.85 541.6 419.1 542.25 415.5 541.35 414.35 541.1 414.1 537 410.75 536.85 411.5 536.5 411.6
M 510.75 324
L 509.6 323.5 505 321.1 505 323
Q 505.25 325 507.35 326.25
L 511.85 328.35 512.6 328.6 510.75 324 Z"/>

<path fill="#AD2F6D" stroke="none" d="
M 552.85 460.1
L 552.35 459.5 551.85 462.1 551.25 463.35 551.85 463.85 553.1 463.1 553.1 463 553.25 461.85 552.85 460.1 Z"/>

<path fill="#FC59CD" stroke="none" d="
M 525.1 493.1
L 524.85 493.6
Q 520.75 492.5 520.75 491.75
L 515.6 494.1 512.85 496.1
Q 510.8634765625 498.2587890625 509.05 501.5 508.5646484375 503.424609375 508.6 505.85
L 509.5 506.35 509.85 508.75 512.85 516.5 514.25 516.6 516.5 521.35
Q 517.75 520.6 519.25 524.25
L 520.6 524.25 520.85 523.1 521.85 523 522.5 520.6 523.5 520.6 523.75 519.5 524.5 519.5 524.85 518.5 525.75 518.35 526.35 516 527.1 516.25 527.35 515.25 528.25 515.1 528.35 514.35 529.1 514.35
Q 528.35 513.35 531.5 510.25
L 531.5 509.6 532.1 509.1 532 508.25 533 507.75 532.85 506.35 533.25 506.25 533.75 504.85 534.1 502.25 533.5 502 533.5 501 534.5 496.75 535.25 489.25 535.5 488 536.1 488 536.25 487.6 536.5 481.85 537.1 481.75 537.25 481.25 537.1 478.1 537.35 474.85 538 474 537.75 468.75 537.85 467.25 538.35 467.1 538.35 465.8 538.35 464.5 530.5 464.25 530.5 480.75 529.5 492.6 528.5 492.35 528.1 493 527.35 493 526.75 493.5 525.1 493.1
M 503.85 381.85
L 501.6 382.5 495.35 385.5 495.1 385.75 495 385.75 492.1 388.75 492.5 391.25 493.5 390.85 494 392.6 495.1 392.1 495.35 393.1 496.6 392.85 497.25 394.85 498.5 394.6 500.1 398.35 501.35 398 501.6 398.35 504.35 404.5
Q 506.25 403.25 507.6 408
L 508.85 407.6 510.25 410 511.35 409.5 512.1 410.6 513.25 410.25 515 413 516.1 412.35 516.85 413.6 518.35 413.75 519 414.35 520.1 414.25 520.75 415 521.85 417.25 521.25 418.1 522.35 419.85 521.5 420.75 523.25 424.5 524.75 430.25 525 430 526.1 429.5 527 429.25 533.75 429 533.5 428 533.5 427.75 533.35 427.6 533.35 427.25 533.1 426.6 533.1 426.35 533 426.25 533 425.85 532.85 425.6 532.75 425.25 532.75 425 532.6 424.85 532.5 424.35 532.35 424 532.35 423.75 532.25 423.6 532 422.75 532 422.5 531.85 422.35 531.85 422.1 531.6 421.5 531.5 421.1 531.35 420.75 531.25 420.35 531.25 420.1 531.1 420 531.1 419.75 530.85 419.1 530.85 419 530.75 418.85 530.75 418.6 530.6 418.35 530.1 416.85 529.75 415.6 529.6 415.25 528.1 409 528 408.75 528 408.5 527.85 408.35 527.6 407 527.6 406.6 527.5 406.35 527 404.6 526.85 404.25 526.75 403.85 524 397.1 523.85 396.85 523.5 396 523.35 395.75 523 394.85 522.85 394.6 522.75 394.35 522.6 394.1 520.6 390.1 520.5 389.85 518.35 386.5 518.1 386.25 517.85 385.85 516.1 384.1 515.1 383.35 514.5 383 512.25 382 510.85 381.6 509 381.35 503.85 381.85 Z"/>

<path fill="#FFFFFF" stroke="none" d="
M 522.35 457.1
L 522 456 521.1 457.35 521.1 458 519.25 460.5
Q 517.25 472.6 522.75 477.6
L 523 467 522.35 460.5 522.6 460 522.25 458.85 522.35 457.1
M 535.35 429
L 534.35 429 533.75 429 527 429.25 526.1 429.5 525 430 524.75 430.25
Q 521.5 431 521.6 443.25
L 521.85 446.6 522.1 448.75 522.1 448.85 522.25 449.25 524.1 457.75 524.25 458 524.6 459.5 525 460.1 525.35 461.25 527.25 463 528.85 463.75 530.25 464.1 530.5 464.25 538.35 464.5 538.35 465.8
Q 538.46953125 470.309765625 539.35 470.75
L 539.25 472.25 545 462.75 546.75 460.5 547.5 459.1 548.85 455.5
Q 555.75 428.35 538.5 429.1
L 536.35 429.1 535.35 429
M 280.1 551.1
L 275.6 551.35 275.1 556.5 275.75 579.6 276.75 587.75 277.6 591.35
Q 284.6 613.35 294.6 615.75
L 295.6 615.75 297.6 614.6 298.6 612.5 298.6 608.85 296.6 596.75 296.75 589.6 300.35 594.35 302.35 596.35 304.5 597.6
Q 310 597.85 308.85 593
L 307 587.6 305.35 584.35 299.6 569.85 296.6 564.5 296.35 554.6 291.5 552.6 288 552.1 288.1 553 287.1 553 280.25 551.85 280.1 551.25 280.1 551.1
M 468.5 154.6
L 467 154.6 463.6 153.75 462.1 153.75 459.35 153 457.25 152.85 456.5 153.1 456.25 154 456.5 162 457 162.1 457.25 162.25 457.75 162.25 459.75 162.6 459.85 162.6 461.25 162.75 461.35 162.85 461.85 163 463.85 163.35 464.1 163.35 466.1 163.6 466.25 163.75 468.85 164.25 469.1 164.25 471.6 164.5 472 164.25 471.85 155.5 468.5 154.6
M 457.25 142
L 456.5 142.25 456.25 146.1 456.6 151.1 457.1 151.25 457.25 151.35 458 151.35 458.35 151.5 459.1 151.6 459.35 151.6 461.25 151.85 461.5 152 464.1 152.5 464.25 152.5 466 152.75 467 153 469 153.35 471.85 153.5 472 152.35 472 149.85 471.75 144.35 467 143.75 466.6 143.35 463.5 142.85 462 142.85 461.6 142.5 458.75 142 457.25 142
M 456.25 131.35
L 456.25 132.5 456.25 137 456.35 140.1 457.1 140.35 457.25 140.35 458 140.5 458.1 140.5 459.35 140.75 461.25 140.85 461.6 141.1 463 141.35 463.5 141.5 464.25 141.6 464.5 141.6 466.1 141.75 466.6 142 469.25 142.5 469.35 142.6 471.85 142.5 471.85 133.5 468 132.75 467 132.85 466.6 132.5 464 132 462.1 132 461.75 131.6 458.75 131.1 457.25 131.1 456.25 131.35
M 517.6 431.1
L 516.75 429.1 516.35 427.75
Q 514.6 429.75 517.85 433.5
L 517.6 431.1 Z"/>

<path fill="#9E2B64" stroke="none" d="
M 535 425.6
L 534.25 426.75 534.35 429 535.35 429 535 425.6
M 546 416.6
L 545.25 417.25 545.75 422.25 546.5 421.75 546 416.6 Z"/>

<path fill="#FD5FD9" stroke="none" d="
M 532.25 423.6
L 532.35 423.75 532.35 423.6 532.25 423.6
M 533.5 427.6
L 533.35 427.6 533.5 427.75 533.5 427.6
M 533.1 426.25
L 533 426.25 533.1 426.35 533.1 426.25
M 532.75 424.85
L 532.6 424.85 532.75 425 532.75 424.85
M 531.85 422.35
L 532 422.5 532 422.35 531.85 422.35
M 531.25 420
L 531.1 420 531.25 420.1 531.25 420
M 530.75 418.85
L 530.85 419 530.85 418.85 530.75 418.85 Z"/>

<path fill="#A62D69" stroke="none" d="
M 542.1 418.35
L 542.6 417.25 542.6 415.85 542.25 415.5 541.6 419.1 542.1 418.35
M 536.6 412.75
L 536.6 413.85 537.1 414.6 536.6 412.75
M 533.75 406.1
L 532.85 407.5 532.85 409.75 533.6 413.6 533.6 412.1
Q 535.35 408.85 536.6 408.5
L 533.75 406.1
M 544.35 401.85
L 544.25 400.85 543.25 397.1 542.75 397.75 543.85 402.6 544.35 401.85
M 491.75 267.1
L 493.75 272.1 493.85 271.1 492 266.35 491.75 267.1
M 484.6 277.35
L 484 278.75 484.1 281 485.85 285.25 485.85 283.6 488.1 279.5 484.6 277.35 Z"/>

<path fill="#FB4AAD" stroke="none" d="
M 541.6 419.1
L 541.1 420 545.25 417.25 546 416.6 545.6 415.5 542.25 414.5 541.35 414.35 542.25 415.5 542.6 415.85 542.6 417.25 542.1 418.35 541.6 419.1 Z"/>

<path fill="#E94095" stroke="none" d="
M 541.1 420
L 540.85 420.25 538.35 421.85 535.6 424.35 535 425.6 535.35 429 536.35 429.1 538.35 427.25 540.25 426.1 541.25 425.35 541.5 425.25 545.1 423 545.75 422.25 545.25 417.25 541.1 420 Z"/>

<path fill="#1B0711" stroke="none" d="
M 536.6 413.85
L 536.6 412.75 536.5 411.6 536.85 411.5 537 410.75 537.85 408.6 539.6 406.25 536.6 408.5
Q 535.35 408.85 533.6 412.1
L 533.6 413.6
Q 533.1 416.6 541 418.85
L 537.25 415.5 537.1 414.6 536.6 413.85
M 496.6 302.25
L 496.75 300.75 498.25 297.35 495.75 300
Q 494.35 301.35 493.5 304.25
L 493.75 305.5
Q 494.5 308.85 502.75 309.5
L 498.6 307.25 497 305.6 496.75 303.85 496.35 303.6 496.6 302.25 Z"/>

<path fill="#EB4095" stroke="none" d="
M 539.1 400.75
L 538.75 401.1 534.35 404.85 533.75 406.1 536.6 408.5 539.6 406.25 543.1 403.6 543.85 402.6 542.75 397.75 540 400.1 539.6 400.35 539.25 400.75 539.1 400.75
M 507.25 307.75
L 506.85 308.75 505.5 310.1 504.85 311 504.1 311.85 501.6 315.25 503.6 319.85 504.5 318.35 505.85 317.1 507.1 315.75
Q 509.25 313.75 509.85 311.75
L 508.85 309.35 507.25 307.75 Z"/>

<path fill="#EB4096" stroke="none" d="
M 533.1 392.85
L 533.35 394.75 534.35 396.75 535.6 398 538.6 399.75 539.1 396.1 538.25 395.25 535.75 393.85 533.5 392 533.1 392.85
M 541.25 425.35
L 540.25 426.1 540.35 426.35 541.25 425.35 Z"/>

<path fill="#13050C" stroke="none" d="
M 535.85 387.6
L 533 389.75
Q 531.85 390.1 530.25 393.35
L 530.1 395.25
Q 529.75 398 538.85 400
L 538.6 399.75 535.6 398 534.35 396.75 533.35 394.75 533.1 392.85 533.5 392 533.75 390.75 535.85 387.6 Z"/>

<path fill="#E93F93" stroke="none" d="
M 538.1 379.25
L 537.85 379.85 535.5 381.75 535.1 382 535 382.1 534.35 382.5 534.35 382.6 530.35 386.25 529.75 387.5 533 389.75 535.85 387.6 538.85 385 539.35 384.1 538.1 379.25
M 522.75 357.25
L 521.75 356.35 521.5 356.85 521.75 358.35 522 359.5
Q 522 360.35 524.5 362.1
L 527.35 363.5 528.35 364 529 364.25 529.25 364 527.75 359.85 526.75 359.25 522.75 357.25
M 514.25 339.5
L 513.6 338.85
Q 511.5 343 520.75 346.35
L 521.5 346.6 519.6 342 518.6 341.5 514.25 339.5 Z"/>

<path fill="#11040A" stroke="none" d="
M 519.75 356.1
L 518.75 357.75 518.35 359.25 519.85 361.75
Q 521.6 363.1 527.25 363.85
L 527.35 363.5 524.5 362.1
Q 522 360.35 522 359.5
L 521.5 359 521.75 358.35 521.5 356.85 521.75 356.35 522.75 353.25 524.25 351.5 521.85 353.5 519.75 356.1 Z"/>

<path fill="#E63E91" stroke="none" d="
M 521.85 347.1
L 521.6 347.35 521.35 347.6 519.1 349.85 518 351.6 519.75 356.1 521.85 353.5 524.25 351.5 526.6 348.85 526.6 347.75 524.85 344 521.85 347.1 Z"/>

<path fill="#18060F" stroke="none" d="
M 521.85 347.1
L 521.5 347.35 521.6 347.35 521.85 347.1
M 518.6 341.5
L 519.6 342 519.75 342 520 342.1 520.1 342.1 521 342 518.6 341.5 Z"/>

<path fill="#96285E" stroke="none" d="
M 524.6 342.75
L 524.85 343.85 524.85 344 526.6 347.75 524.6 342.75
M 518.75 357.75
L 519.75 356.1 518 351.6
Q 516.85 352.25 516.75 355.25
L 518.35 359.25 518.75 357.75 Z"/>

<path fill="#FB49AA" stroke="none" d="
M 521 342
L 520.1 342.1
Q 522.75 343.25 521.75 346.75
L 521.5 347.35 521.85 347.1 524.85 344 524.85 343.85 524.6 342.75 522.85 342.1 521 342
M 515.85 326.6
L 516.35 325.75 516 324.6 511.85 323.85 510.75 324
Q 513.6 325.25 513.6 326.75
L 513.25 329 513.25 329.35 513.85 329 515.85 326.6 Z"/>

<path fill="#B0306F" stroke="none" d="
M 515.35 334.5
L 514.1 335.75 514.75 335.75 515.35 334.5 Z"/>

<path fill="#45122C" stroke="none" d="
M 513.25 329.35
L 513.1 329.75 513.85 329 513.25 329.35
M 509.6 323.5
L 510.75 324 511.85 323.85 509.6 323.5 Z"/>

<path fill="#9B2A62" stroke="none" d="
M 516.35 325.75
L 515.85 326.6 517.35 328.1 516.35 325.75
M 508.6 337.6
L 510.5 341.85 511 340 512 338.25 510 333.85
Q 508.6 335.5 508.6 337.6 Z"/>

<path fill="#EA4094" stroke="none" d="
M 516.6 333.1
L 516.85 332.85 518.5 330.35 517.35 328.1 515.85 326.6 513.85 329 513.1 329.75 513 330 510 333.85 512 338.25 514.1 335.75 515.35 334.5 515.75 334.1 516.6 333.1 Z"/>

<path fill="#F245A1" stroke="none" d="
M 495.25 286
L 496 286.35 496.75 288.25 496.6 290.35 496.1 291.85 498.1 289.75 499.35 287.5 499.75 286.75 498.6 285.5 494.35 284.6 493.5 284.75 495.25 286 Z"/>

<path fill="#A22C67" stroke="none" d="
M 496 286.35
L 495.25 286 495.35 289.75 496.6 290.35 496.75 288.25 496 286.35
M 455.25 170.6
L 455.25 171.25 472.5 174.25 472.25 167.1 457.25 164.5 455.25 170.6 Z"/>

<path fill="#FFBE00" stroke="none" d="
M 386.25 357
L 386.35 359.85 386 360.1 383.5 360.85
Q 379.5 361.35 378.85 360.85
L 378.6 357.85
Q 347.25 363 325.25 380.1 300.6 399.85 291.75 418.6
L 291.6 418.85 291.5 419.1 291.35 419.35 291.25 419.6 290.6 420.75 290.5 421 290.35 421.25 290.25 421.5 290.25 421.6 289.65 422.85
Q 287.825 427.10625 288.35 427.85
L 287.75 428.5 287.5 430.75 287.25 431.6 286.85 431.75 286.5 435.1 285.6 436.75
Q 284.25 446 285.75 449.6
L 285.1 453.1 286 454.85 285.75 456.5
Q 287.25 458.1 286.6 460.1
L 287.75 461.6 287.75 465.35 289 466.85 289 468.5 290.5 470.25 290.75 473.85 292.5 475.5 292.75 478.75
Q 295.5 480.35 294.75 482.25
L 297 484 297.35 487
Q 300.5 488.6 300 490.6
L 302.1 491.85
Q 302.25 493.25 302.85 494.5 302.35 495.5 305.6 496.85
L 306.25 498.75
Q 309.5 499.6 309.1 501.75
L 311.85 503.1 312.75 505.85
Q 316.6 507.5 316.35 509.35
L 319.35 510.75 319.75 512 322.85 513.6 323.35 515.1 326.5 516.35 327.1 518 330.25 519.25 331 520.75 334 521.85
Q 333.75 523.5 337.35 524.35
L 337.85 524.5 338.6 525.85 341.6 527.1 342.5 528.35
Q 349.75 530.1 349.6 532.25
L 355.75 534.1 356.75 535.6 362.75 537.5 363.25 537.6 364 539 392 547.35 394.5 547.1
Q 398.35 549.1 406.6 548.85
L 409 549.6
Q 414.75 548.5 416.5 549.75
L 421.35 549 424.6 549.6 445.5 546.5 446.5 545.35
Q 452.1 545 452.25 543.35
L 456.85 542.6 458 541.35 460.75 540.85
Q 460.75 539.5 464.25 539.1
L 465.35 538 466.85 537.6 467.75 536.35 470.25 535.85
Q 485.85 525.6 494.5 511.75
L 495.6 509.85 500.75 499.35 505.75 483.25 505.85 482.6 506 482.1 506.5 479.6 506.6 479.35 506.6 478.85 506.75 478.25 506.75 478.1 506.85 477.35 506.85 477.25 507 476.6 507.1 476.35 507.1 475.75 507.25 475.5 507.25 474.85 507.35 474.5 507.35 473.85 507.5 473.5 507.5 472.75 507.6 472.35 508.1 466.5 508.1 458 507.5 450.75 505.6 440.5 505.6 440.1 505.5 440 504.6 436.6 504.6 436.35 504.35 435.75 504.25 435.35 504.25 435 504.1 434.85 503.85 434.1 503.75 433.6 503.6 433.25 503.5 432.85 503.35 432.5 503.25 432.1 503.1 431.75 503 431.35 502.85 431 502.85 430.85 502.75 430.75 502.75 430.35 502.6 430.35 500.75 425.1 497.85 419 489.5 405.35 487 402 486.75 401.75 486.5 401.35 486.25 401.1 486 400.75 485.75 400.5 485.5 400.1 485.1 399.75 484.85 399.35 484.5 399 484.1 398.5 477.25 391 467.25 382.35 464.6 380.35 454.75 373.75 450 371.1 432.35 363.35 418.25 359.35 414.5 358.6 395.85 356.75 386.25 357
M 461.35 393.25
L 465.35 393.5 470.25 394.85 473.85 396.6 474.85 397.85 474.35 398.85 472.85 398.75 468.25 397 465.5 396.6 458.6 397 449 398.5 448.35 398.35 448.1 397.35
Q 452 393.6 461.35 393.25
M 469.75 420.25
Q 469.35 416.85 471 415.85 476.1 414.25 479.25 418.85 482 424.85 477.6 427.75
L 475.25 427.5 471.85 424.75 469.75 420.25
M 382.5 439.6
Q 387.1 435.5 392.6 439 396.25 440.85 393.35 448.6 390.6 453 383.35 449.85 378.5 445.85 382.5 439.6
M 428.25 467.75
L 427.85 468 423.1 468.5 422.85 468.6 420.6 468.85 420.25 468.85 417.85 469.25 417.25 469.25 419.85 468.75 420.25 468.75 420.6 468.85 421.6 468.6 421.85 468.5 422.5 468.5 423.1 468.35 428.25 467.75 454 464 454.25 463.85 454.85 463.85 455.1 463.75 455.35 463.75 456.1 464 456.5 464 456.75 464.1 457 464.35 456.25 464.35 454 464.6 454 464.75 453 464.75 453 464.85 452.25 464.85 451 465 451 465.1 450.85 465.1 443 466 443 466.1 442.85 466.1 428.25 467.75
M 371.35 412.75
L 368.6 414.1 363.6 417.25 361.75 419 360.1 421.25 358.85 422.1 357.75 421.75 358 420.25 360.6 416.35 366.6 411.35
Q 375.5 405.6 381.35 409.85
L 381.75 410.25 381.5 411.35 375 411.6 371.35 412.75
M 494.5 511.75
L 494.6 511.75 494.6 511.6 494.5 511.75 Z"/>

<path fill="#DD0026" stroke="none" d="
M 419.85 468.75
L 417.25 469.25 417.85 469.25 420.25 468.85 420.6 468.85 420.25 468.75 419.85 468.75
M 442.85 466.1
L 443 466.1 443 466 450.85 465.1 451 465.1 451 465 452.25 464.85 453 464.85 453 464.75 454 464.75 454 464.6 456.25 464.35 457 464.35 456.75 464.1 456.5 464 456.1 464 455.35 463.75 455.1 463.75 454.85 463.85 454.25 463.85 454 464 428.25 467.75 442.85 466.1
M 427.85 468
L 428.25 467.75 423.1 468.35 422.5 468.5 421.85 468.5 421.6 468.6 420.6 468.85 422.85 468.6 423.1 468.5 427.85 468
M 506.85 478.1
L 506.75 478.1 506.75 478.25 506.85 478.1 Z"/>

<path fill="#00792B" stroke="none" d="
M 356.6 333.1
L 362.35 337.75 376.1 347.5 377 348.25 377.25 348.5
Q 379 349.1 378.6 357.85
L 378.85 360.85
Q 379.5 361.35 383.5 360.85
L 386 360.1 386.35 359.85 386.25 357 386 347.85
Q 423.25 331.75 428 310.6 429.35 297.85 396.85 298.1 364.1 296.85 323.75 315.1
L 316.75 319 312.85 321.75 306.35 327.35 301.25 332.85 293 342.75 293.1 343 286.85 349.35 280.35 354.1 280.25 354.1 280 354.25 279.75 354.35 278.25 355.1 273.35 356.35 269.1 356.75 255.75 356.35
Q 255.1 357.75 260.1 361
L 266.25 363.1
Q 279 366 295.75 360.85
L 306.1 357.35 315 353.6 331.75 345.1 355.1 332.5 356.6 333.1 Z"/>

<path fill="#ED4096" stroke="none" d="
M 485 276.25
L 484.6 277.35 488.1 279.5 490.6 276.75 493.35 273.25 493.75 272.1 491.75 267.1 490.85 268.85 488.35 271.85 488.1 272.1 488 272.1 485 276.25
M 476.5 243.6
L 476.1 243.6 476.35 244.6 476.5 244.85 476.6 245.25 476.75 245.35 476.85 245.85 477 246 477.85 248.6 479.1 249.1 479.25 245.25 476.5 243.6 Z"/>

<path fill="#200814" stroke="none" d="
M 485.85 285.25
L 485.85 285.5
Q 486.85 288.6 494.6 289.5
L 490.75 287.1 489.5 285.35 488.6 283 488.85 282 489.35 279.35 490.6 276.75 488.1 279.5 485.85 283.6 485.85 285.25
M 540.35 426.35
L 540.25 426.1 538.35 427.25 536.35 429.1 538.5 429.1 540.35 426.35 Z"/>

<path fill="#EF4197" stroke="none" d="
M 481.25 263.75
L 481.25 264.25 481.5 264.85
Q 482.5 266.85 484 267.75
L 487.25 269.5 487.5 267.35 487.25 265.6 485.35 264.35 484.35 263.85 481 261.75 481.25 263.75
M 480.85 251.25
L 480.35 251.75 480 252.35 479.75 252.6 477 256.75 480.85 258.75 483.1 256.25 485.75 252.75 486 251.85 483.85 246.75 483.5 248.1 480.85 251.25 Z"/>

<path fill="#220915" stroke="none" d="
M 481.75 258.75
L 483.1 256.25 480.85 258.75
Q 479.6 259.35 478.25 263
L 478.1 265.25
Q 478.75 268.25 487.25 269.5
L 484 267.75
Q 482.5 266.85 481.5 264.85
L 481.25 264.25 481.25 263.75 481 261.75 481.75 258.75 Z"/>

<path fill="#F3449F" stroke="none" d="
M 479.25 245.25
L 480.75 246.5 481.25 248.25 481.25 248.6 480.85 250 481 250.1 480.5 251.5 480.85 251.25 483.5 248.1 483.85 246.75 484.1 246.25 484 246 482.1 244.85 476.5 243.6 479.25 245.25 Z"/>

<path fill="#90275B" stroke="none" d="
M 476.1 243.6
L 476.5 243.6 482.1 244.85 484 246 479.35 237.25 475.25 225.25 473.6 219.85 465 218.35 468.85 231.1 474.6 241.85 476.1 243.6
M 484.85 247.75
L 485.6 247.85 484.5 246.75 484.85 247.75 Z"/>

<path fill="#B43172" stroke="none" d="
M 465 218.35
L 460.35 217.75 461.85 222.75
Q 466.5 243.1 480 252.35
L 480.35 251.75 480.5 251.5 481 250.1 480.85 250 479.6 249.35 479.1 249.25 478.25 249.1 477.85 248.6 477 246 476.85 245.85 476.75 245.35 476.6 245.25 476.5 244.85 476.35 244.6 476.1 243.6 474.6 241.85 468.85 231.1 465 218.35
M 504.1 311.85
L 504.85 311 504.25 311.5 504.1 311.85
M 506.25 317.25
L 507.1 315.75 505.85 317.1 506.25 317.25 Z"/>

<path fill="#C93780" stroke="none" d="
M 457.25 162.25
L 457 162.1 456.5 162 456.25 154 454.6 155.25 455.25 170.6 457.25 164.5 457.25 162.25 Z"/>

<path fill="#BF3479" stroke="none" d="
M 452.6 165.75
L 452.25 165.5 455.6 216.5 457.35 222 461.85 222.75 460.35 217.75 465 218.35 473.6 219.85 475.25 225.25 476 219.5 474.6 198.85 472.25 198.85
Q 468.25 197.35 465.6 197.75
L 464.1 176.35 463.35 174.5 454 172.75 452.6 165.75
M 488.75 93
L 487.6 94.25 482.1 100.75 479.75 104.75 475.85 112.75 466.75 111.1 462.5 110.5 466.25 102.75 468.85 98.35 475.5 90.5 482.75 87.75
Q 478.85 85.25 471 89.6
L 464.5 97.25
Q 455.85 108.85 454.25 126.35
L 455.25 128.35 456.6 128.5 457.25 125.85 457.25 125.6 457.6 122.25 457.6 121.75 457.75 121.1 458.25 121.1 473.35 123.85
Q 473.6 121.25 476.75 122.6
L 476.85 129.5 478.1 121.35 480.25 113.75 486.75 101.5 493.6 93.5 500.6 91 496.35 90.1 495.5 90.25 488.75 93 Z"/>

<path fill="#B23071" stroke="none" d="
M 480.6 167.1
L 476.5 168 474.75 168.75 475.25 180.25 478.25 221.1
Q 485 248.85 499.25 256
L 500.25 256.25 500.5 161.25 485.25 165.35 485.5 165.6 482.85 166.1 483 166.35 482.1 166.6 480.5 166.85 480.6 167.1 Z"/>

<path fill="#9F2B65" stroke="none" d="
M 468.85 164.25
L 466.25 163.75 466.1 163.6 464.1 163.35 463.85 163.35 461.85 163 461.35 162.85 461.25 162.75 459.85 162.6 459.75 162.6 457.75 162.25 457.25 162.25 457.25 164.5 472.25 167.1 472 164.25 471.6 164.5 469.1 164.25 468.85 164.25
M 469 153.35
L 467 153 466 152.75 464.25 152.5 464.1 152.5 461.5 152 461.25 151.85 459.35 151.6 459.1 151.6 458.35 151.5 458 151.35 457.25 151.35 457.25 152.85 459.35 153 462.1 153.75 463.6 153.75 467 154.6 468.5 154.6 471.85 155.5 471.85 153.5 469 153.35
M 457.25 131.1
L 458.75 131.1 461.75 131.6 462.1 132 464 132 466.6 132.5 467 132.85 468 132.75 471.85 133.5 471.85 142.5 469.35 142.6 469.25 142.5 466.6 142 466.1 141.75 464.5 141.6 464.25 141.6 463.5 141.5 463 141.35 461.6 141.1 461.25 140.85 459.35 140.75 458.1 140.5 458 140.5 457.25 140.35 457.1 140.35 457.25 142 458.75 142 461.6 142.5 462 142.85 463.5 142.85 466.6 143.35 467 143.75 471.75 144.35 472 149.85 472.35 145 472.5 144.5 472.5 143.1 472.25 143 472.5 140.25 472.25 130.75 457.25 128.25 457.25 131.1 Z"/>

<path fill="#9C2B63" stroke="none" d="
M 455.6 136.35
L 456.25 137 456.25 132.5 455.6 136.35
M 457.25 128.25
L 457.25 125.85 456.6 128.5 456.25 131.35 457.25 131.1 457.25 128.25 Z"/>

<path fill="#CB3780" stroke="none" d="
M 457.1 140.35
L 456.35 140.1 456.25 137 455.6 136.35 454.6 155.25 456.25 154 456.5 153.1 457.25 152.85 457.25 151.35 457.1 151.25 456.6 151.1 456.25 146.1 456.5 142.25 457.25 142 457.1 140.35 Z"/>

<path fill="#8D2659" stroke="none" d="
M 456.25 132.5
L 456.25 131.35 456.6 128.5 455.25 128.35 454.25 126.35 452.6 137 451.75 154.75 452.25 165.5 452.6 165.75 454 172.75 463.35 174.5 464.1 176.35 465.6 197.75
Q 468.25 197.35 472.25 198.85
L 474.6 198.85 476 219.5 475.25 225.25 479.35 237.25 484 246 484.1 246.25 484.5 246.75 485.6 247.85 486.85 249.5 487 249.6 491.25 254 495.25 255.35 499.25 256
Q 485 248.85 478.25 221.1
L 475.25 180.25 474.75 168.75 474.25 157.1 475.25 139 476.85 129.6 476.85 129.5 476.75 122.6
Q 473.6 121.25 473.35 123.85
L 475 124.1 474.75 125.25 475 125.35 472.5 140.25 472.85 141.75 472.5 143.1 472.5 144.5 472.35 145 472 149.85 472 152.35 471.85 153.5 471.85 155.5 472 164.25 472.25 167.1 472.5 174.25 455.25 171.25 455.25 170.6 454.6 155.25 455.6 136.35 456.25 132.5
M 461.85 222.75
L 457.35 222
Q 465.1 250.1 479.75 252.6
L 480 252.35
Q 466.5 243.1 461.85 222.75 Z"/>

<path fill="#AE306F" stroke="none" d="
M 457.6 121.75
L 457.6 122.25 457.25 125.6 457.25 125.85 457.25 128.25 472.25 130.75 474.75 125.25 475 124.1 473.35 123.85 458.25 121.1 457.75 121.1 457.6 121.75 Z"/>

<path fill="#B83274" stroke="none" d="
M 500.6 91
L 493.6 93.5 486.75 101.5 480.25 113.75 478.1 121.35 476.85 129.5 476.85 129.6 475.25 139 474.25 157.1 474.75 168.75 476.5 168 480.6 167.1 480.5 166.85 482.1 166.6 483 166.35 482.85 166.1 485.5 165.6 485.25 165.35 500.5 161.25 500.6 91 Z"/>

<path fill="#DF3D8D" stroke="none" d="
M 513.6 535.35
L 514.6 536.5 514.35 535.85 514.1 535.5 513.6 535.35 Z"/>

<path fill="#020001" stroke="none" d="
M 514.6 536.5
L 514.85 537.1 517.35 537.75 521.5 536.25 519.35 536.25 518.35 535.6 514.1 535.5 514.35 535.85 514.6 536.5 Z"/>

<path fill="#F74DB4" stroke="none" d="
M 537.6 533.25
L 537 533.1 535.1 534.5 537.6 533.25
M 527.75 531.6
L 528.35 532.1 529.85 530.1 530.25 529 527.75 531.6 Z"/>

<path fill="#F2429A" stroke="none" d="
M 530.25 534.25
L 529.75 534.1 530.35 534.5 530.25 534.25 Z"/>

<path fill="#411129" stroke="none" d="
M 529.1 533.1
L 528.5 533.1 529.75 534.1 530.25 534.25 529.1 533.1 Z"/>

<path fill="#E43E91" stroke="none" d="
M 536.35 531.1
L 534.6 531.25 536.5 533.1 537 533.1 537.6 533.25 537.85 532.35 537.25 530.5 536.35 531.1 Z"/>

<path fill="#360E22" stroke="none" d="
M 533.1 529.75
L 533.5 530.1 533.75 529.75 533.1 529.75
M 542.85 518
L 546.25 517.1 546.75 516.5 542 515.6 540 515.75 537.25 517 536.1 518.6 538.1 521.5 538.75 520.6 541.1 519 542.85 518 Z"/>

<path fill="#43122A" stroke="none" d="
M 529.85 530.1
L 528.35 532.1 529.1 533.1 530.25 534.25 530.35 534.5 531.5 535.5 532.75 535.75 535.1 534.5 537 533.1 536.5 533.1 534.6 531.25 533.5 530.1 533.1 529.75 530.85 528 530.25 529 529.85 530.1 Z"/>

<path fill="#731F49" stroke="none" d="
M 528.35 532.1
L 527.75 531.6 526.6 532.5 528.5 533.1 529.1 533.1 528.35 532.1 Z"/>

<path fill="#D23986" stroke="none" d="
M 537.25 522.6
L 537.85 522.25 538.1 521.5 536.1 518.6 535.1 520.25 534 524 533.1 529.75 533.75 529.75 535.5 526.5 537.25 522.6
M 548 516.75
L 546.75 516.5 546.25 517.1 548 516.75 Z"/>

<path fill="#561737" stroke="none" d="
M 538.75 520.6
L 538.1 521.5 537.85 522.25 537.25 522.6 535.5 526.5 539.1 526.35 541.1 519 538.75 520.6
M 558.75 488.1
L 558.1 488.25 556.5 493.6 557.25 493.6 557.5 493.6 558.5 492.85 559.75 487.25 558.75 488.1 Z"/>

<path fill="#FB4FB8" stroke="none" d="
M 537.25 530.5
L 537.85 530 538.75 528 539.1 526.35 535.5 526.5 533.75 529.75 533.5 530.1 534.6 531.25 536.35 531.1 537.25 530.5 Z"/>

<path fill="#6D1D44" stroke="none" d="
M 537.85 530
L 537.25 530.5 537.85 532.35 538.75 528 537.85 530 Z"/>

<path fill="#501532" stroke="none" d="
M 548 516.75
L 549.5 516.6 552.5 511.6 549.35 511.35 546.75 516.5 548 516.75 Z"/>

<path fill="#EE47A7" stroke="none" d="
M 549.35 511.35
L 547.35 511.1
Q 540.85 509.35 537.25 517
L 540 515.75 542 515.6 546.75 516.5 549.35 511.35 Z"/>

<path fill="#97295F" stroke="none" d="
M 550.75 505
L 550.5 505.25 550.85 508.25 552.25 509.6 550.75 505 Z"/>

<path fill="#78204C" stroke="none" d="
M 550.35 497.85
Q 549.35 498.35 547.85 501.35
L 547.35 505.25 550.5 503.5 550.35 497.85 Z"/>

<path fill="#FF4DB4" stroke="none" d="
M 556.5 493.6
L 556.1 494.1 557.25 493.6 556.5 493.6 Z"/>

<path fill="#390F24" stroke="none" d="
M 556.25 482.75
L 556.1 483.1 556.75 483.85 557.6 484.35 556.25 482.75 Z"/>

<path fill="#A12C66" stroke="none" d="
M 552.1 481.5
L 552.5 475.85 551.75 474 551 477.5
Q 551.35 481.1 552.1 481.5 Z"/>

<path fill="#42122A" stroke="none" d="
M 549.25 472
L 548.25 473.1 547.75 475
Q 547.75 480 550.1 482.85
L 555 488.75 553.85 485.5 552.6 483.5 552.1 481.5
Q 551.35 481.1 551 477.5
L 551.75 474 552.35 472 554.6 468.35 550.1 471 549.25 472 Z"/>

<path fill="#9D2A64" stroke="none" d="
M 548.25 473.1
L 549.25 472 548.75 466.75
Q 547.75 466.75 547.5 470.5
L 547.75 475 548.25 473.1
M 555.25 461.5
L 554.6 462.1 555.25 467.85 555.85 467.35 555.25 461.5 Z"/>

<path fill="#2D0C1C" stroke="none" d="
M 546.75 460.5
L 551.25 463.35 547.5 459.1 546.75 460.5 Z"/>

<path fill="#ED4197" stroke="none" d="
M 549.75 456.5
L 548.85 455.5 547.5 459.1 551.25 463.35 551.85 462.1 552.35 459.5 550.75 457.5 549.75 456.5 Z"/>

<path fill="#16060E" stroke="none" d="
M 550.75 457.5
L 551.35 457.75 549.75 456.5 550.75 457.5 Z"/>

<path fill="#F94AAD" stroke="none" d="
M 551.35 457.75
L 550.75 457.5 552.35 459.5 552.85 460.1 553.25 461.85 553.1 463 554.6 462.1 555.25 461.5 554.75 460.1 551.35 457.75 Z"/>

<path fill="#4C1430" stroke="none" d="
M 528 408.35
L 527.85 408.35 528 408.5 528 408.35 Z"/>

<path fill="#A72D6A" stroke="none" d="
M 538.6 399.75
L 538.85 400 539.1 400.1
Q 541 398.35 539.1 396.1
L 538.6 399.75
M 488 266
L 487.25 265.6 487.5 267.35 487.25 269.5 488.75 270.25 489 268.5 488.85 268.25 489 267.85 488 266
M 477 256.75
L 476.25 258.1 476.25 260.6 478.1 265.25 478.25 263
Q 479.6 259.35 480.85 258.75
L 477 256.75
M 484.5 246.75
L 484.1 246.25 483.85 246.75 486 251.85 485.5 249.35 484.85 247.75 484.5 246.75
M 480.75 246.5
L 479.25 245.25 479.1 249.1 479.6 249.35 480.85 250 481.25 248.6 481.25 248.25 480.75 246.5 Z"/>

<path fill="#F2439B" stroke="none" d="
M 538.75 401.1
L 539.1 400.75 538.85 400.85 538.75 401.1 Z"/>

<path fill="#F949AA" stroke="none" d="
M 543.25 397.1
L 542.35 396.1 538.25 395.25 539.1 396.1
Q 541 398.35 539.1 400.1
L 538.85 400.85 539.1 400.75 539.25 400.75 539.6 400.35 540 400.1 542.75 397.75 543.25 397.1 Z"/>

<path fill="#A42C68" stroke="none" d="
M 529.75 387.5
L 528.85 388.6 528.85 391.25 530.1 395.25 530.25 393.35
Q 531.85 390.1 533 389.75
L 529.75 387.5
M 539.75 383.1
L 538.5 378.75 538.1 379.25 539.35 384.1 539.75 383.1 Z"/>

<path fill="#AA2E6C" stroke="none" d="
M 535.5 379.25
L 534.1 377.75 533.6 381.35 534.1 381.85 534.6 382 535.35 380.75 535.5 379.25 Z"/>

<path fill="#EC4095" stroke="none" d="
M 529.75 375.1
L 528.35 373.85 528 374.75 528.1 375.75 528.5 377.25
Q 528.5 378.25 531 380
L 533.6 381.35 534.1 377.75 533.25 377.1 529.75 375.1 Z"/>

<path fill="#F848A8" stroke="none" d="
M 537.85 379.85
L 538.1 379.25 538.5 378.75 537.25 377.85 533.25 377.1 534.1 377.75 535.5 379.25 535.35 380.75 534.6 382 534.35 382.5 535 382.1 535.1 382 535.5 381.75 537.85 379.85 Z"/>

<path fill="#A12B66" stroke="none" d="
M 529.25 364
L 529.75 362.35 529.5 361.1 527.75 359.85 529.25 364
M 521.5 359
L 522 359.5 521.75 358.35 521.5 359 Z"/>

<path fill="#E83F93" stroke="none" d="
M 527.25 363.85
L 528.35 364 527.35 363.5 527.25 363.85 Z"/>

<path fill="#F847A7" stroke="none" d="
M 532.1 362
L 532.35 361.25 532.35 360.6 530.75 359.85 526.75 359.25 527.75 359.85 529.5 361.1 529.75 362.35 529.25 364 529 364.25 528.85 364.75 530 363.85 530.25 363.6 530.35 363.6 532.1 362 Z"/>

<path fill="#992961" stroke="none" d="
M 532.85 361.35
L 532.35 360.6 532.35 361.25 534 365.85
Q 534.35 365.25 532.85 361.35
M 524.6 369.35
L 523.85 370.5 523.6 372.85 524.85 376.75 525.25 375.1 526.1 373.75 524.6 369.35 Z"/>

<path fill="#12050C" stroke="none" d="
M 525.25 375.1
L 524.85 376.75
Q 525.75 380.6 534.1 381.85
L 533.6 381.35 531 380
Q 528.5 378.25 528.5 377.25
L 528.1 375.75 528 374.75 528.35 373.85 528.75 372.35
Q 529.2673828125 370.7546875 530.45 369.8
L 528 371.6 526.1 373.75 525.25 375.1 Z"/>

<path fill="#E63E92" stroke="none" d="
M 525.35 368.1
L 524.6 369.35 526.1 373.75 528 371.6 530.45 369.8 530.85 369.5 531.5 368.75 533.75 366.75 534 365.85 532.35 361.25 532.1 362 530.35 363.6 530.25 363.6 530 363.85 528.85 364.75 528.75 365 525.35 368.1 Z"/>

<path fill="#10040A" stroke="none" d="
M 521.6 347.35
L 521.5 347.35 521.35 347.6 521.6 347.35 Z"/>

<path fill="#9C2A62" stroke="none" d="
M 519.75 342
L 519.6 342 521.5 346.6 521.75 346.75
Q 522.75 343.25 520.1 342.1
L 520 342.1 519.75 342 Z"/>

<path fill="#14050C" stroke="none" d="
M 514.1 335.75
L 512 338.25 511 340 510.5 341.85
Q 511.25 344.6 514 345.25
L 520.75 346.35
Q 511.5 343 513.6 338.85
L 514.75 335.75 514.1 335.75 Z"/>

<path fill="#A52D69" stroke="none" d="
M 512.6 328.6
L 513.25 329 513.6 326.75
Q 513.6 325.25 510.75 324
L 512.6 328.6 Z"/>

<path fill="#A32C67" stroke="none" d="
M 502.6 321.35
L 503.6 319.85 501.6 315.25
Q 500.25 316.75 499.85 319.1
L 501.85 323.6 502.6 321.35
M 507.75 306.85
L 507.25 307.75 508.85 309.35 507.75 306.85 Z"/>

<path fill="#17060E" stroke="none" d="
M 505 321.1
L 505.35 319.1 506.25 317.25 505.85 317.1 504.5 318.35 503.6 319.85 502.6 321.35 501.85 323.6
Q 503.1 328.35 511.85 328.35
L 507.35 326.25
Q 505.25 325 505 323
L 505 321.1 Z"/>

<path fill="#721F48" stroke="none" d="
M 504.6 310.6
L 504.25 311.5 504.85 311 505.5 310.1 504.6 310.6
M 501.75 305
L 502.75 304.85 500.6 304.35 501.75 305 Z"/>

<path fill="#AF2F6F" stroke="none" d="
M 493.5 304.25
Q 494.35 301.35 495.75 300
L 493.75 295.25
Q 489.5 298.25 493.75 305.5
L 493.5 304.25
M 499.75 286.75
L 499.35 287.5 501.35 292.5 501.75 291.6 501.5 290.85 499.75 286.75 Z"/>

<path fill="#A52C68" stroke="none" d="
M 504.85 308.35
L 504.25 306.75 501.75 305 503.6 309.85 504.5 310.1 504.85 309.75 504.85 308.35 Z"/>

<path fill="#EE4196" stroke="none" d="
M 496.35 303.6
L 496.75 303.85 497 305.6 498.6 307.25 502.75 309.5 503.6 309.85 501.75 305 500.6 304.35 496.6 302.25 496.35 303.6 Z"/>

<path fill="#FD49AA" stroke="none" d="
M 507.1 305.75
L 506.5 305.5 502.75 304.85 501.75 305 504.25 306.75 504.85 308.35 504.85 309.75 504.5 310.1 504.6 310.6 505.5 310.1 506.85 308.75 507.25 307.75 507.75 306.85 507.1 305.75 Z"/>

<path fill="#F14199" stroke="none" d="
M 496.1 291.85
L 493.75 295.25 495.75 300 498.25 297.35 499.1 296 501.1 293.5 501.35 292.5 499.35 287.5 498.1 289.75 496.1 291.85 Z"/>

<path fill="#190610" stroke="none" d="
M 494.35 284.6
L 492.5 284.25 493.5 284.75 494.35 284.6 Z"/>

<path fill="#F345A0" stroke="none" d="
M 487.25 265.6
L 488 266 489 267.85 488.85 268.25 489 268.5 488.75 270.25 488 272.1 488.1 272.1 488.35 271.85 490.85 268.85 491.75 267.1 492 266.35 490.75 265.25 486 264.25 485.35 264.35 487.25 265.6 Z"/>

<path fill="#1C0712" stroke="none" d="
M 484.35 263.85
L 485.35 264.35 486 264.25 484.35 263.85 Z"/>

<path fill="#E23E8F" stroke="none" d="
M 479.1 249.25
L 479.1 249.1 477.85 248.6 478.25 249.1 479.1 249.25 Z"/>

<path fill="#F4439B" stroke="none" d="
M 479.6 249.35
L 479.1 249.1 479.1 249.25 479.6 249.35 Z"/>

<path fill="#561736" stroke="none" d="
M 485.6 247.85
L 484.85 247.75 485.5 249.35 486.85 249.5 485.6 247.85 Z"/>

<path fill="#631B3F" stroke="none" d="
M 472.85 141.75
L 472.5 140.25 472.25 143 472.5 143.1 472.85 141.75 Z"/>

<path fill="#9B2A63" stroke="none" d="
M 475 125.35
L 474.75 125.25 472.25 130.75 472.5 140.25 475 125.35 Z"/>

<path fill="#DB3B8B" stroke="none" d="
M 479.75 104.75
L 482.1 100.75 487.6 94.25 480.5 93
Q 477.6 92.25 470.85 103.25
L 479.75 104.75 Z"/>

<path fill="#CF3883" stroke="none" d="
M 475.85 112.75
L 479.75 104.75 470.85 103.25 469.35 105.5 466.75 111.1 475.85 112.75
M 487.6 94.25
L 488.75 93 482.85 92 480.5 93 487.6 94.25 Z"/>

<path fill="#BB3377" stroke="none" d="
M 482.75 87.75
L 475.5 90.5 468.85 98.35 466.25 102.75 462.5 110.5 466.75 111.1 469.35 105.5 470.85 103.25
Q 477.6 92.25 480.5 93
L 482.85 92 482.75 87.75 Z"/>
</g>
</defs>

<g transform="matrix( 0.2433624267578125, 0, 0, 0.2433624267578125, 40.4,14.3) ">
<use xlink:href="#Layer2_0_MEMBER_0_MEMBER_0_FILL"/>
</g>

<g transform="matrix( 0.2433624267578125, 0, 0, 0.2433624267578125, 40.4,14.3) ">
<use xlink:href="#Layer2_0_MEMBER_0_MEMBER_1_FILL"/>
</g>

<g transform="matrix( 0.2433624267578125, 0, 0, 0.2433624267578125, 40.4,14.3) ">
<use xlink:href="#Layer2_0_MEMBER_0_MEMBER_2_FILL"/>
</g>

<g transform="matrix( 0.2433624267578125, 0, 0, 0.2433624267578125, 40.4,14.3) ">
<use xlink:href="#Layer2_0_MEMBER_0_MEMBER_3_FILL"/>
</g>

<g transform="matrix( 0.2433624267578125, 0, 0, 0.2433624267578125, 40.4,14.3) ">
<use xlink:href="#Layer2_0_MEMBER_0_MEMBER_4_FILL"/>
</g>

<g transform="matrix( 0.2433624267578125, 0, 0, 0.2433624267578125, 40.4,14.3) ">
<use xlink:href="#Layer2_0_MEMBER_0_MEMBER_5_FILL"/>
</g>

<g transform="matrix( 0.2433624267578125, 0, 0, 0.2433624267578125, 40.4,14.3) ">
<use xlink:href="#Layer2_0_MEMBER_0_MEMBER_6_FILL"/>
</g>

<g transform="matrix( 0.2433624267578125, 0, 0, 0.2433624267578125, 40.4,14.3) ">
<use xlink:href="#Layer2_0_MEMBER_0_MEMBER_7_FILL"/>
</g>

<g transform="matrix( 0.2433624267578125, 0, 0, 0.2433624267578125, 40.4,14.3) ">
<use xlink:href="#Layer2_0_MEMBER_0_MEMBER_8_FILL"/>
</g>

<g transform="matrix( 0.2433624267578125, 0, 0, 0.2433624267578125, 40.4,14.3) ">
<use xlink:href="#Layer2_0_MEMBER_0_MEMBER_9_FILL"/>
</g>

<g transform="matrix( 0.2433624267578125, 0, 0, 0.2433624267578125, 40.4,14.3) ">
<use xlink:href="#Layer2_0_MEMBER_0_MEMBER_10_FILL"/>
</g>

<g transform="matrix( 0.2433624267578125, 0, 0, 0.2433624267578125, 40.4,14.3) ">
<use xlink:href="#Layer2_0_MEMBER_0_MEMBER_11_FILL"/>
</g>

<g transform="matrix( 0.2433624267578125, 0, 0, 0.2433624267578125, 40.4,14.3) ">
<use xlink:href="#Layer2_0_MEMBER_0_MEMBER_12_FILL"/>
</g>

<g transform="matrix( 0.2433624267578125, 0, 0, 0.2433624267578125, 40.4,14.3) ">
<use xlink:href="#Layer2_0_MEMBER_0_MEMBER_13_FILL"/>
</g>

<g transform="matrix( 0.2433624267578125, 0, 0, 0.2433624267578125, 40.4,14.3) ">
<use xlink:href="#Layer2_0_MEMBER_0_MEMBER_14_FILL"/>
</g>

<g transform="matrix( 0.2433624267578125, 0, 0, 0.2433624267578125, 40.4,14.3) ">
<use xlink:href="#Layer2_0_MEMBER_0_MEMBER_15_FILL"/>
</g>

<g transform="matrix( 0.2433624267578125, 0, 0, 0.2433624267578125, 40.4,14.3) ">
<use xlink:href="#Layer2_0_MEMBER_0_MEMBER_16_FILL"/>
</g>

<g transform="matrix( 0.2433624267578125, 0, 0, 0.2433624267578125, 40.4,14.3) ">
<use xlink:href="#Layer2_0_MEMBER_0_MEMBER_17_FILL"/>
</g>

<g transform="matrix( 0.2433624267578125, 0, 0, 0.2433624267578125, 40.4,14.3) ">
<use xlink:href="#Layer2_0_MEMBER_0_MEMBER_18_FILL"/>
</g>

<g transform="matrix( 0.2433624267578125, 0, 0, 0.2433624267578125, 40.4,14.3) ">
<use xlink:href="#Layer2_0_MEMBER_0_MEMBER_19_FILL"/>
</g>

<g transform="matrix( 0.2433624267578125, 0, 0, 0.2433624267578125, 40.4,14.3) ">
<use xlink:href="#Layer2_0_MEMBER_0_MEMBER_20_FILL"/>
</g>

<g transform="matrix( 0.2433624267578125, 0, 0, 0.2433624267578125, 40.4,14.3) ">
<use xlink:href="#Layer2_0_MEMBER_0_MEMBER_21_FILL"/>
</g>

<g transform="matrix( 0.2433624267578125, 0, 0, 0.2433624267578125, 40.4,14.3) ">
<use xlink:href="#Layer2_0_MEMBER_0_MEMBER_22_FILL"/>
</g>

<g transform="matrix( 0.2433624267578125, 0, 0, 0.2433624267578125, 40.4,14.3) ">
<use xlink:href="#Layer2_0_MEMBER_0_MEMBER_23_FILL"/>
</g>

<g transform="matrix( 0.2433624267578125, 0, 0, 0.2433624267578125, 40.4,14.3) ">
<use xlink:href="#Layer2_0_MEMBER_0_MEMBER_24_FILL"/>
</g>

<g transform="matrix( 0.2433624267578125, 0, 0, 0.2433624267578125, 40.4,14.3) ">
<use xlink:href="#Layer2_0_MEMBER_0_MEMBER_25_FILL"/>
</g>

<g transform="matrix( 0.2433624267578125, 0, 0, 0.2433624267578125, 40.4,14.3) ">
<use xlink:href="#Layer2_0_MEMBER_0_MEMBER_26_FILL"/>
</g>

<g transform="matrix( 0.2433624267578125, 0, 0, 0.2433624267578125, 40.4,14.3) ">
<use xlink:href="#Layer2_0_MEMBER_0_MEMBER_27_FILL"/>
</g>

<mask id="Mask_Mask_1">
<g transform="matrix( 1, 0, 0, 1, 0,0) ">
<use xlink:href="#Mask_1_MASK_0_FILL"/>
</g>
</mask>

<g mask="url(#Mask_Mask_1)">
<g transform="matrix( 0.426727294921875, 0, 0, 0.426727294921875, -5.85,117.9) ">
<use xlink:href="#Layer1_0_FILL"/>
</g>
</g>
</svg>
