<svg xmlns="http://www.w3.org/2000/svg" viewBox="0 0 767.18 354.86"><defs><style>.cls-1{fill:#81b4d4;}.cls-2{fill:#fcdd5a;}.cls-3{fill:#f7cb16;}.cls-4{fill:#eeb01f;}</style></defs><title>cheese</title><g id="Layer_2" data-name="Layer 2"><g id="Layer_8" data-name="Layer 8"><path class="cls-1" d="M767.18,339.57c0-20.34-167.48-36.83-374.07-36.83S19,319.23,19,339.57,182.87,355,401.3,352.42C607.87,350,767.18,359.91,767.18,339.57Z"/><path class="cls-2" d="M598.07,3,0,203.57S197.79,33.3,282.84,12.93C371.3-8.25,598.07,3,598.07,3Z"/><path class="cls-3" d="M599.85,3,0,203.14,6.58,339.38s44.1,1.12,108.44,1.34a13.35,13.35,0,0,1-1.64-6.32c0-11.7,16.18-21.18,36.13-21.18s36.13,9.48,36.13,21.18a13.31,13.31,0,0,1-1.57,6.19c124.61-1,283.46-6.19,367.52-24.88C624.25,299.56,599.85,3,599.85,3Z"/><ellipse class="cls-4" cx="312.23" cy="225.82" rx="43.17" ry="31.79" transform="translate(-16.69 25.09) rotate(-4.48)"/><ellipse class="cls-3" cx="370.06" cy="52.81" rx="39.87" ry="14.95" transform="translate(0.33 107.9) rotate(-16.6)"/><ellipse class="cls-3" cx="259.36" cy="89.77" rx="20.56" ry="8.1" transform="translate(-14.11 66.5) rotate(-14.23)"/><ellipse class="cls-4" cx="468.45" cy="171.55" rx="45.27" ry="30.22" transform="translate(-15.57 50.7) rotate(-6.09)"/></g></g></svg>