<svg xmlns="http://www.w3.org/2000/svg" viewBox="0 0 277.27 349.74"><defs><style>.cls-1{fill:#499cd6;}.cls-2{fill:#eef3f4;}.cls-3{fill:#ced4d3;}.cls-4{fill:#dbdddd;}.cls-5{fill:#ea3736;}</style></defs><title>yogurt</title><g id="Layer_2" data-name="Layer 2"><g id="Layer_8" data-name="Layer 8"><path class="cls-1" d="M267.31,295.35c2.92,54.35-263.85,55.59-260,1.22C12.26,228.19,29.45,9.1,29.45,9.1H244.4S264.71,247,267.31,295.35Z"/><path class="cls-2" d="M23.49,86.67C54.83,82,100,70,152.82,76.24c43.63,5.17,78.2,35.95,102,58.5-5.38-65.24-10.42-124.3-10.42-124.3H29.45S26.9,42.87,23.49,86.67Z"/><ellipse class="cls-2" cx="138.64" cy="313.84" rx="138.64" ry="35.89"/><path class="cls-3" d="M244.69,9.1,28.5,10.47s.48,8.3-.76,24.21c17.46,5.57,50.32,9.17,112.11,10.26,53.88.95,87.24-3.79,106.9-11.58C245.47,18.26,244.69,9.1,244.69,9.1Z"/><ellipse class="cls-4" cx="136.68" cy="9.75" rx="108.53" ry="9.75"/><path class="cls-2" d="M22.1,203.6c-2.61,0-5.2.08-7.77.22-2.9,37.85-5.5,72.14-7,92.75-2.08,29.06,73.14,42.23,143.2,39.9a110,110,0,0,0,.93-14.22C151.48,256.72,93.55,203.6,22.1,203.6Z"/><path class="cls-2" d="M142.09,282.7C91.58,274.54,45,274.77,8.4,282.14c-.39,5.33-.75,10.17-1.05,14.43-3.9,54.37,262.87,53.13,260-1.22-.26-4.92-.71-11.79-1.3-20.17C233.39,283.94,191.78,290.73,142.09,282.7Z"/><ellipse class="cls-5" cx="114.85" cy="140.74" rx="74.39" ry="39.77"/><ellipse class="cls-2" cx="113.38" cy="140.74" rx="64.85" ry="34.67"/></g></g></svg>