<svg xmlns="http://www.w3.org/2000/svg" viewBox="0 0 426.01 403.93"><defs><style>.cls-1{fill:#009444;}.cls-2{fill:#231f20;}.cls-3{fill:#e8ecee;stroke:#231f20;stroke-miterlimit:10;stroke-width:2.65px;}.cls-4{fill:#f7941d;}.cls-5{fill:#f36e24;}.cls-6{fill:#d35461;}</style></defs><title>orangeboy</title><g id="Layer_2" data-name="Layer 2"><g id="Layer_7" data-name="Layer 7"><path class="cls-1" d="M423.26,43.21c16.39-6.22-43.7,28.44-92.85,22.72s-95.9-26.16-93.78-44.43S250.05-5.21,298.79,3.36C346.68,11.78,392,55.08,423.26,43.21Z"/><polygon class="cls-1" points="266.91 63.44 258.84 63.01 257.78 41.59 268.52 43.52 266.91 63.44"/><path class="cls-2" d="M66.39,157.3c-30-20.4-38.44-46.93-45.65-37.84-2.5,3.14,20.52,37.77,53,53.95,31.43,15.65,45.12,18.05,47.62,14.91C130.22,177.17,96.41,177.71,66.39,157.3Z"/><path class="cls-3" d="M1.33,117.18c.24-14,11.38-26.12,25.36-25.36,9.33.5,12.46,7.53,19,17.07,3.45-6.95,5.83-9.54,12.86-7.08,3.68,1.29,4.08,8.63,1.05,15.94a43.9,43.9,0,0,1-6.42,10.64,3.47,3.47,0,0,1,1.2,1.19c1.95,3.38-2.59,9.65-10.14,14s-15.25,5.16-17.2,1.78a3.94,3.94,0,0,1-.33-2.83h0C12.17,142.26,1.09,131.06,1.33,117.18Z"/><path class="cls-2" d="M257.82,403.12c8.32-.82,17.6-3.29,20.58-5.36,4.38-3.05,1.89-19.65,1.57-24l-4.17-55.85c-.32-4.32-5.08-3.17-11-2.74h0c-2.18,11.18-.3,62-4.83,65.15-17.63,12.2-38.11,22-21.89,23.23C247.93,404.29,250.62,403.82,257.82,403.12Z"/><path class="cls-2" d="M173.38,394.09c8.36,0,17.83-1.59,21-3.38,4.65-2.62,3.76-19.38,3.85-23.71l1.18-56c.09-4.33-4.75-3.64-10.65-3.77h0c-3.24,10.92-6.21,61.7-11,64.39-18.72,10.47-40,18.31-24,21C163.43,394.32,166.15,394.11,173.38,394.09Z"/><ellipse class="cls-4" cx="239.9" cy="192.04" rx="145.67" ry="133.5"/><path class="cls-5" d="M219.6,307.43c77.72,0,140.72-58.73,140.72-131.18,0-41.52-20.7-78.53-53-102.57C353.83,96,385.57,140.61,385.57,192c0,73.73-65.22,133.5-145.67,133.5-48,0-90.56-21.27-117.1-54.08C148,293.75,182.1,307.43,219.6,307.43Z"/><circle class="cls-2" cx="280.96" cy="161.49" r="8.47" transform="translate(104.35 433.2) rotate(-86.87)"/><circle class="cls-2" cx="160.94" cy="149.13" r="8.47" transform="translate(3.24 301.67) rotate(-86.87)"/><path class="cls-2" d="M268.29,115.1c-.49,1.51,7.74-1.41,16.86,1.57s13.91,9.62,14.4,8.11-4.39-7.87-13.51-10.85S268.78,113.6,268.29,115.1Z"/><path class="cls-2" d="M179.43,110.65c.24,1.57-7.22-2-16.7-.49s-15.4,7.16-15.64,5.59,5.72-7,15.2-8.43S179.19,109.08,179.43,110.65Z"/><path class="cls-6" d="M184.48,190.82c2.13,8.49,12.08,15.91,27.18,16.06s25.28-7.08,27.5-15.52c2.74-10.44-1.35-14.78-27.18-16.06C183.05,173.86,182.36,182.36,184.48,190.82Z"/><path class="cls-2" d="M382.16,262.42c3.25,36.15-10.41,67.65,1.2,67.47,4-.06,16.2-39.81,8.12-75.2-7.82-34.23-14.64-46.34-18.66-46.28C358.57,208.63,378.91,226.27,382.16,262.42Z"/><path class="cls-3" d="M356.81,302.47c3.44-3.44,9.77-6.4,14.68-7.21-1.44-1.08-2.23-2.25-2.12-3.41.33-3.52,8.66-5.63,18.6-4.69s17.74,4.54,17.41,8.07c-.15,1.55-1.84,2.83-4.54,3.69,5.77,3.78,9.88,11,6.67,26-3.08,14.31-19.52,17.32-31.93,14.93-11.78-2.27-15.37-8.77-13.38-21.5-3.66,1.61-7.19,1.57-9.22-.46C349.79,314.65,351.51,307.77,356.81,302.47Z"/></g></g></svg>