<?xml version="1.0" encoding="utf-8"?>
<!-- Generator: Adobe Illustrator 20.1.0, SVG Export Plug-In . SVG Version: 6.00 Build 0)  -->
<svg version="1.1" id="Layer_1" xmlns="http://www.w3.org/2000/svg" xmlns:xlink="http://www.w3.org/1999/xlink" x="0px" y="0px"
	 viewBox="0 0 393.4 70.8" style="enable-background:new 0 0 393.4 70.8;" xml:space="preserve">
<style type="text/css">
	.st0{fill:#FFFFFF;}
	.st1{fill:#2EA4DC;}
	.st2{fill:#82CFC9;}
	.st3{fill:#5C4D92;}
	.st4{fill:#91A1CC;}
	.st5{fill:#F8BD58;}
	.st6{fill:#E84C37;}
	.st7{opacity:0.5;}
	.st8{fill:#D6D1C1;}
	.st9{fill:#F7BF18;}
	.st10{fill:#EF5656;}
	.st11{fill:#1CC0D9;}
	.st12{fill:url(#SVGID_1_);}
	.st13{fill:url(#SVGID_2_);}
	.st14{fill:#389BD6;}
</style>
<title>Asset 12</title>
<g>
	<g id="Layer_2">
		<g id="Layer_1-2">
			<g>
				<path class="st0" d="M208.8,37.4c0-3.8,2.7-6.5,5.9-6.5c1.3-0.1,2.6,0.5,3.5,1.4l0.4-1.4h1.7v4.8h-1.8c-0.7-2.2-1.8-3.4-3.3-3.4
					c-1.7,0-3,1.3-3,4.8s1.3,4.8,3.4,4.8c1.8,0,2.9-1.4,3.2-3.4h1.8c-0.3,3.1-2.1,5.2-5.4,5.2c-3.3,0.2-6-2.3-6.2-5.6
					C208.8,37.9,208.8,37.7,208.8,37.4z"/>
				<path class="st0" d="M230.9,39.5h-4.2l-0.7,2.3h1.5v1.6h-4.7v-1.6h1.3l3.9-10.6h3l3.9,10.6h1.4v1.6H230v-1.6h1.6L230.9,39.5z
					 M227.2,38.1h3.2l-1.5-4.5h-0.1L227.2,38.1z"/>
				<path class="st0" d="M243.5,41.8h1.7v1.6h-6.4v-1.6h1.7v-9h-1.7v-1.6h6.7c3.7,0,4.9,1.5,4.9,3.1s-0.9,2.7-3.8,3v0.1
					c2.3,0.2,3.1,1.2,3.1,2.7l0.1,0.7c0,0.8,0.2,1,0.6,1s0.5-0.3,0.7-1.1l1.1,0.3c-0.4,1.5-1.1,2.6-2.8,2.6c-1.9,0-2.8-1-2.8-3v-0.6
					c0-1.3-0.3-1.9-1.7-1.9h-1.5L243.5,41.8z M245.1,36.6c1.4,0,2.1-0.5,2.1-2s-0.4-1.9-2-1.9h-1.7v3.8L245.1,36.6z"/>
				<path class="st0" d="M254.1,41.8h1.7v-9h-1.7v-1.6h11.6v4.3H264c-0.5-2.3-0.7-2.8-2.3-2.8h-3v3.7h1c1,0,1.1-0.2,1.4-1.7h1.4v4.9
					h-1.4c-0.2-1.5-0.4-1.7-1.4-1.7h-1v3.8h2.9c1.9,0,2.1-0.7,2.5-3.2h1.6v4.8h-11.7V41.8z"/>
				<path class="st0" d="M269,41.8h1.7v-9H269v-1.6h11.6v4.3H279c-0.5-2.3-0.7-2.8-2.3-2.8h-3v3.7h1c1,0,1.1-0.2,1.4-1.7h1.4v4.9
					h-1.4c-0.2-1.5-0.4-1.7-1.4-1.7h-1v3.8h2.9c1.9,0,2.1-0.7,2.5-3.2h1.6v4.8H269V41.8z"/>
				<path class="st0" d="M288.6,41.8h1.7v1.6h-6.4v-1.6h1.7v-9h-1.7v-1.6h6.7c3.7,0,4.9,1.5,4.9,3.1s-0.9,2.7-3.8,3v0.1
					c2.3,0.2,3.1,1.2,3.1,2.7l0.1,0.7c0,0.8,0.2,1,0.6,1s0.5-0.3,0.7-1.1l1.1,0.3c-0.4,1.5-1.1,2.6-2.8,2.6c-1.9,0-2.8-1-2.8-3v-0.6
					c0-1.3-0.3-1.9-1.7-1.9h-1.5L288.6,41.8z M290.2,36.6c1.4,0,2.1-0.5,2.1-2s-0.4-1.9-2-1.9h-1.7v3.8L290.2,36.6z"/>
				<path class="st0" d="M304.5,37.4c0-3.8,2.7-6.5,5.9-6.5c1.3-0.1,2.6,0.5,3.5,1.4l0.4-1.4h1.7v4.8H314c-0.7-2.2-1.8-3.4-3.3-3.4
					c-1.7,0-3,1.3-3,4.8s1.3,4.8,3.4,4.8c1.8,0,2.9-1.4,3.2-3.4h1.8c-0.3,3.1-2.1,5.2-5.4,5.2c-3.3,0.2-6-2.3-6.2-5.6
					C304.4,37.9,304.5,37.7,304.5,37.4z"/>
				<path class="st0" d="M319,41.8h1.7v-9H319v-1.6h11.6v4.3H329c-0.5-2.3-0.7-2.8-2.3-2.8h-3v3.7h1c1,0,1.1-0.2,1.4-1.7h1.4v4.9
					h-1.4c-0.2-1.5-0.4-1.7-1.4-1.7h-1v3.8h2.9c1.9,0,2.1-0.7,2.5-3.2h1.6v4.8H319V41.8z"/>
				<path class="st0" d="M337.3,34.2h-0.2v7.6h1.7v1.6h-4.9v-1.6h1.6v-9h-1.6v-1.6h5.2l5.2,8.5h0.2v-6.9h-1.7v-1.6h4.9v1.6h-1.6
					v10.7h-3L337.3,34.2z"/>
				<path class="st0" d="M352.8,41.8h1.9v-9.2h-0.5c-1.5,0-1.8,0.5-2.5,3.5h-1.5v-4.9h11.9v4.9h-1.5c-0.7-3-1-3.5-2.5-3.5h-0.5v9.2
					h1.9v1.6h-6.8L352.8,41.8z"/>
				<path class="st0" d="M365,41.8h1.7v-9H365v-1.6h11.6v4.3H375c-0.5-2.3-0.7-2.8-2.3-2.8h-3v3.7h1c1,0,1.1-0.2,1.4-1.7h1.4v4.9
					h-1.4c-0.2-1.5-0.4-1.7-1.4-1.7h-1v3.8h2.9c1.9,0,2.1-0.7,2.5-3.2h1.6v4.8H365V41.8z"/>
				<path class="st0" d="M384.6,41.8h1.7v1.6H380v-1.6h1.7v-9H380v-1.6h6.7c3.7,0,4.9,1.5,4.9,3.1s-0.9,2.7-3.8,3v0.1
					c2.3,0.2,3.1,1.2,3.1,2.7l0.1,0.7c0,0.8,0.2,1,0.6,1s0.5-0.3,0.7-1.1l1.1,0.3c-0.4,1.5-1.1,2.6-2.8,2.6c-1.9,0-2.8-1-2.8-3v-0.6
					c0-1.3-0.3-1.9-1.7-1.9h-1.5L384.6,41.8z M386.2,36.6c1.4,0,2.1-0.5,2.1-2s-0.4-1.9-2-1.9h-1.7v3.8L386.2,36.6z"/>
			</g>
			<g>
				<g>
					<path class="st0" d="M92.6,20.9v1.5c3.7,0.4,4.6,1.8,4.6,5.5v11.5H97L83,20.9H64.6v1.5c3.7,0.4,4.6,1.8,4.6,5.5v9.8
						c0,3-0.6,4.4-1.9,5.8c-1.2,1.2-2.8,1.8-4.5,1.7c-4.2,0-6.8-2-6.8-6.6V24.1c0-1.3,0.7-1.6,3.4-1.7v-1.5H43.5
						c-1.1,0-2.2,0-3.3-0.1c-0.8-0.1-1.8-0.5-2.6-0.6c-0.9-0.2-1.8-0.2-2.7-0.2c-4.5-0.2-8.3,3.3-8.5,7.9c0,0.2,0,0.5,0,0.7
						c0,4.8,3.9,6.4,7.9,7.6c4.5,1.5,6.3,2.5,6.3,5.2c0,2.1-1.4,4.4-4.8,4.4c-3.3,0-5.7-2-7.7-6.4H26v8.1h1.7l1.3-1.2
						c1.9,0.8,4,1.2,6.1,1.2c6.7,0,9.3-4.5,9.3-8.8c0-4.9-3.9-6.4-7.5-7.6c-4.3-1.4-6.3-2.2-6.3-4.9c-0.1-2.2,1.5-4,3.7-4.2
						c0.2,0,0.4,0,0.5,0c2.9,0,5.3,1,6.6,4.6H43V26c0-1.9,1.6-3.5,3.5-3.5c0.1,0,0.2,0,0.2,0c1.9-0.2,3.6,1.3,3.8,3.2
						c0,0.1,0,0.2,0,0.3v12.7c0,5.8,4,8.7,10.6,8.7s10-3.8,10-8.9V26c0.2-2.1,1.9-3.6,4-3.5c1.9,0.1,3.3,1.6,3.5,3.5v13.8
						c0,3.7-0.5,5-4,5.5v1.5h10.2v-1.5c-3.8-0.5-4.3-1.8-4.3-5.5V26.7h0.1l15.8,20.8h2.6V27.8c0-3.7,0.3-5,3.8-5.5v-1.5H92.6z"/>
					<path class="st0" d="M14.5,45C10.3,45,6,41.3,6,33.4c0-7.6,3.6-11.6,7.6-11.6c3.5,0,6.1,2.9,7.6,7.7H23v-9.4h-1.6l-1.1,1.7
						c-2-1.1-4.3-1.7-6.6-1.7C6.3,20,0.1,26,0,33.4c0,0.2,0,0.4,0,0.6c0,7.8,4.8,13.4,13,13.4c5.7,0,9.2-3.1,11.1-7.4l-1.5-0.7
						C20.7,43.1,18.1,45,14.5,45"/>
				</g>
			</g>
			<rect x="112.9" y="15.7" class="st0" width="0.8" height="36.3"/>
			<g>
				<path class="st1" d="M188,26.2c-9.6-9.6-25.1-9.6-34.7,0l17.3,17.3L188,26.2z"/>
				<path class="st2" d="M153.3,63.6c9.6,9.6,25.1,9.6,34.7,0l-17.3-17.4L153.3,63.6z"/>
				<path class="st3" d="M188.5,62.2c9.6-9.6,9.6-25.1,0-34.7l-17.3,17.3L188.5,62.2z"/>
				<g>
					
						<image style="overflow:visible;opacity:0.2;enable-background:new    ;" width="196" height="159" xlink:href="F470E5BC.png"  transform="matrix(0.2388 0 0 0.2309 130.05 23.24)">
					</image>
					<path class="st4" d="M135.1,44.6c9.6,9.6,25.1,9.6,34.7,0l-17.3-17.3L135.1,44.6z"/>
				</g>
				<path class="st5" d="M169.7,7.2c-9.6-9.6-25.1-9.6-34.7,0l17.3,17.4L169.7,7.2z"/>
				<path class="st6" d="M134.4,8.4c-9.6,9.6-9.6,25.1,0,34.7l17.3-17.3L134.4,8.4z"/>
				<g id="book">
					<g id="_961-book-32-toolbar-selected_2x.png">
						<path class="st0" d="M156,37.4L156,37.4l-5.9-1.8l0,0h-0.1c-0.2,0-0.3,0.2-0.3,0.3c0,0,0,0,0,0c0,0.1,0.1,0.3,0.3,0.3l0,0
							l5.6,1.8l0.4,8.8c0,0.2,0.1,0.3,0.3,0.3s0.3-0.1,0.3-0.3l-0.4-9l0,0C156.2,37.5,156.1,37.4,156,37.4z M157.2,36.3L157.2,36.3
							l-7.2-2.2h-0.1c-0.1,0-0.1,0-0.2,0.1l0,0l-2.5,2.1l0,0c-0.1,0.1-0.1,0.2-0.1,0.3l0.4,9c0,0.1,0.1,0.3,0.3,0.3l0,0L155,48h0.1
							c0.2,0,0.3-0.2,0.3-0.3c0,0,0,0,0,0l-0.4-9c0-0.1-0.1-0.3-0.3-0.3l0,0l-6.6-2.1l1.9-1.6l6.8,2.1l0.4,8.8
							c0,0.2,0.1,0.3,0.3,0.3s0.3-0.1,0.3-0.3l-0.4-9C157.5,36.5,157.4,36.3,157.2,36.3C157.2,36.3,157.2,36.3,157.2,36.3
							L157.2,36.3z"/>
					</g>
				</g>
				<path class="st0" d="M174.1,57.8l4.6,0.8l-3.4,3.2l-0.3-1c-1.6,0.3-2.9,1.6-3.1,3.2l0,0c0,0.9,0,1.9,0,2.8c0,0.1,0,0.1,0,0.2
					h-1.9c0-0.8,0-1.7,0-2.5c0-0.7-0.2-1.4-0.6-2c-0.6-0.9-1.6-1.5-2.6-1.7l-0.3,1l-3.4-3.2l4.6-0.8l-0.3,1.2c1,0.2,1.9,0.7,2.6,1.3
					v-2.9h-1.1l2.1-4.2l2.1,4.2h-1.1v3c0.8-0.6,1.7-1.1,2.6-1.4L174.1,57.8z"/>
				<g>
					<path class="st0" d="M185.1,50.3c0.1-0.1,0.1-0.2,0.1-0.3c0-0.1,0-0.3,0-0.5c0-0.1,0-0.2-0.1-0.3c0-0.1-0.1-0.2-0.2-0.3
						c-0.1-0.1-0.2-0.2-0.3-0.2c-0.1,0-0.1-0.1-0.2-0.1c-0.1,0-0.2,0-0.3,0c-0.1,0-0.2,0-0.3,0.1h-0.1c0,0,0-0.1,0-0.1
						c0-0.2-0.2-0.5-0.3-0.6c-0.1-0.1-0.2-0.1-0.2-0.2c-0.1,0-0.2-0.1-0.3-0.1c-0.1,0-0.2,0-0.2,0c-0.1,0-0.2,0-0.4,0.1l0,0
						c0-0.1,0-0.1,0-0.2c0-0.1,0-0.2-0.1-0.3c-0.1-0.1-0.2-0.2-0.3-0.3c-0.1,0-0.2-0.1-0.2-0.1l-0.1-0.1l0,0c0,0,0-0.1,0-0.1
						c0-0.2,0-0.3-0.1-0.5c-0.1-0.1-0.2-0.2-0.3-0.4l-0.6-0.6l-0.3-0.3l0.8-1l1-1l0.8-0.8l0.5-0.5c0,0,0,0,0.1,0l0.5,0.5v0.1
						l-0.5,0.5c-0.2,0.2-0.4,0.4-0.6,0.6c-0.1,0.1-0.2,0.2-0.3,0.4c-0.1,0.1-0.1,0.2-0.2,0.3c0,0.1,0,0.1,0,0.2c0,0.1,0,0.2,0,0.3
						c0,0.1,0,0.2,0,0.3c0,0.1,0.1,0.2,0.1,0.3c0,0.1,0.1,0.2,0.1,0.3l0.1,0.3l0.1,0.2l0.1,0.2l0.1,0.3l0.1,0.3l0.1,0.2l0.1,0.2
						l0.1,0.2l0.1,0.2l0,0l0.2-0.1l0.3-0.1c0.2-0.1,0.4-0.2,0.5-0.4c0.1-0.1,0.1-0.2,0.2-0.2c0-0.1,0.1-0.1,0.1-0.2
						c0-0.1,0-0.1,0-0.2l0.1-0.3c0,0,0,0,0-0.1c0-0.2,0-0.4,0-0.5s0-0.2,0-0.2s0-0.3,0-0.5s0-0.1,0.1-0.2c0,0,0,0,0.1,0l0.5,0.3
						l0.4,0.3l0.4,0.2l0.3,0.2c0.1,0,0.2,0.1,0.3,0.1c0.2,0,0.4,0.1,0.5,0.1c0.1,0,0.2,0,0.3,0c0.1,0,0.2-0.1,0.4-0.1
						c0.1-0.1,0.2-0.1,0.4-0.2l0.1-0.1c0,0,0.1,0,0.1,0c0,0,0,0,0,0l1.1,1.1l0.9,0.9c0.1,0.1,0.1,0.1,0.1,0.2c0,0.1,0,0.1,0,0.2
						c0,0.1-0.1,0.2-0.2,0.3c-0.1,0.1-0.2,0.2-0.3,0.3c-0.1,0.1-0.3,0.1-0.4,0.1c-0.1-0.1-0.2-0.1-0.3-0.2l-0.3-0.3l-0.1-0.1
						l-0.3,0.3l0.6,0.7c0,0,0,0.1,0.1,0.1c0,0.1,0,0.2,0,0.3c0,0.1-0.1,0.1-0.1,0.2c-0.1,0.1-0.2,0.2-0.3,0.3
						c-0.1,0.1-0.2,0.1-0.3,0.1c-0.1,0-0.2,0-0.3-0.1l-0.2-0.2l-0.4-0.4l-0.3,0.3l0,0l0.4,0.4c0,0.1,0.1,0.1,0.1,0.2
						c0,0.1,0,0.2,0,0.3c0,0.1-0.1,0.1-0.1,0.2l-0.3,0.3c-0.1,0.1-0.1,0.1-0.2,0.1c-0.2,0-0.3-0.1-0.4-0.2l-0.3-0.3c0,0,0,0-0.1,0
						l-0.2,0.2c0,0,0,0,0,0.1c0.1,0.1,0.2,0.2,0.3,0.3c0.1,0.1,0.1,0.3,0,0.5c0,0.1-0.1,0.2-0.2,0.3l-0.2,0.2
						c-0.1,0.1-0.3,0.1-0.4,0.1l-0.1-0.1c0,0,0,0,0-0.1c0-0.1,0-0.2,0-0.2c0-0.1-0.1-0.3-0.1-0.4c-0.1-0.1-0.1-0.2-0.3-0.3
						c-0.1,0-0.1-0.1-0.2-0.1L185.1,50.3z"/>
					<path class="st0" d="M191.1,45.2l-0.9,0.9l-0.2-0.3l-0.7-0.7l-0.5-0.5c0,0,0,0-0.1,0c-0.1,0.1-0.2,0.2-0.2,0.2
						c-0.1,0.1-0.2,0.1-0.3,0.2l-0.2,0.1h-0.1c-0.2,0-0.3,0-0.5,0l-0.3-0.1l-0.3-0.1c-0.1,0-0.1-0.1-0.2-0.1l-0.3-0.2l-0.2-0.1
						l-0.3-0.2l-0.4-0.3L185,44l-0.2-0.1l-0.4,0.4c0,0,0,0,0,0.1c0,0.1,0,0.2,0,0.3c0,0.2,0,0.3,0,0.5c0,0.2,0,0.5,0,0.7
						c0,0.1,0,0.2-0.1,0.3c0,0.1,0,0.1-0.1,0.2c0,0.1-0.1,0.2-0.2,0.3c-0.1,0.1-0.2,0.1-0.3,0.2h-0.1c0,0-0.1,0-0.1-0.1l-0.1-0.3
						l-0.1-0.3l-0.1-0.2l-0.1-0.2l-0.1-0.2l-0.1-0.3l-0.1-0.2l-0.1-0.1l-0.1-0.2l0,0c0-0.1,0-0.3,0-0.4c0-0.2,0.1-0.3,0.1-0.5
						c0.1-0.2,0.3-0.4,0.5-0.6l0.6-0.6l0.6-0.6l0,0c0,0,0.1-0.1,0.1-0.1h0.2l0,0h0.3l0.4,0.1l0,0h0.3l0.3,0.1l0,0h0.3l0.3,0.1
						c0,0,0.1,0,0.1,0l0.5-0.5c0,0,0,0,0.1,0l0.7,0.7l1.1,1.1l0.3,0.3l0.4,0.4L191.1,45.2L191.1,45.2z"/>
					<path class="st0" d="M189.6,39.3l0.4,0.4l0.6,0.6l0.7,0.7l0.7,0.7l0.7,0.7l0.9,0.9l0.2,0.2c0,0,0,0,0,0.1l-0.7,0.7l-0.8,0.8
						l-0.4,0.4l-0.9-0.9l-0.9-0.9l-1.1-1.1l-1.1-1.1c-0.1-0.1-0.1-0.1,0-0.1l0.8-0.8l0.7-0.7L189.6,39.3z M191.4,43.7l0.6,0.6
						l0.5-0.5c0,0,0,0,0-0.1l-0.5-0.5c0,0,0,0-0.1,0L191.4,43.7z"/>
					<path class="st0" d="M181.5,39.3l0.2,0.2l1.5,1.5c0.1,0,0.1,0,0,0.1l-1.3,1.3l-1.1,1.1l-1.3,1.2l-0.3,0.3c0,0-0.1,0-0.1,0
						l-0.9-0.9l-0.2-0.2l-0.7-0.7l0,0L181.5,39.3z M179.3,44c0.2,0,0.4-0.1,0.4-0.4c0,0,0,0,0,0c0-0.2-0.2-0.4-0.4-0.4c0,0,0,0,0,0
						c-0.2,0-0.4,0.1-0.4,0.3c0,0,0,0,0,0.1C178.9,43.8,179.1,44,179.3,44C179.3,44,179.3,44,179.3,44z"/>
					<path class="st0" d="M184.8,49.7c0,0.2-0.1,0.4-0.2,0.5l-0.6,0.6c-0.2,0.2-0.3,0.3-0.5,0.5c-0.1,0.1-0.2,0.1-0.3,0.1
						c-0.1,0-0.2-0.1-0.3-0.2l-0.3-0.3c-0.1-0.1-0.1-0.2-0.1-0.3c0.1-0.1,0.1-0.2,0.2-0.3l0.7-0.7c0.1-0.1,0.2-0.2,0.3-0.3
						c0.1-0.1,0.2-0.1,0.3-0.1c0,0,0.1,0,0.1,0c0.2,0,0.4,0.1,0.5,0.3C184.8,49.4,184.8,49.5,184.8,49.7z"/>
					<path class="st0" d="M182.7,48.1c0.2,0,0.4,0.1,0.5,0.2c0.1,0.1,0.1,0.1,0.1,0.2c0,0.1,0,0.1,0,0.2c0,0.2-0.1,0.3-0.2,0.4
						l-0.8,0.8c-0.1,0.1-0.2,0.1-0.4,0.1c-0.1,0-0.2-0.1-0.2-0.2c-0.1-0.1-0.2-0.2-0.4-0.4c0,0,0-0.1-0.1-0.1c0-0.1,0-0.3,0.1-0.3
						l0.1-0.1l0.6-0.6c0.1-0.1,0.1-0.1,0.2-0.2C182.5,48.2,182.6,48.1,182.7,48.1z"/>
					<path class="st0" d="M185,50.6c0.2,0,0.4,0.1,0.5,0.3c0,0.1,0.1,0.1,0.1,0.2c0,0.1,0,0.2,0,0.3c0,0.1,0,0.2-0.1,0.3
						c-0.2,0.2-0.3,0.3-0.5,0.5l-0.2,0.1h-0.1c-0.1,0-0.3,0-0.4-0.1l-0.4-0.4c-0.1-0.1-0.1-0.2-0.1-0.3c0-0.1,0.1-0.1,0.1-0.2
						l0.5-0.5c0.1-0.1,0.1-0.1,0.2-0.1L185,50.6z"/>
					<path class="st0" d="M181.9,47.9c0,0.2-0.1,0.3-0.2,0.5c-0.1,0.1-0.2,0.2-0.4,0.3c-0.1,0.1-0.2,0.1-0.4,0.1
						c-0.1,0-0.1-0.1-0.1-0.1l-0.4-0.4c-0.1-0.1-0.1-0.2-0.1-0.3c0-0.1,0.1-0.1,0.1-0.2l0.4-0.4c0.1-0.1,0.2-0.1,0.3-0.1
						c0,0,0.1,0,0.1,0c0.2,0,0.4,0.1,0.5,0.3c0.1,0.1,0.1,0.1,0.1,0.2C181.9,47.8,181.9,47.8,181.9,47.9z"/>
				</g>
				<g>
					<path class="st0" d="M133.7,24.1c0.3,0,0.6-0.1,0.8-0.2c-0.6-1.2-0.4-2.6,0.4-3.7c-0.4-0.3-0.8-0.4-1.3-0.4
						c-1.2,0-2.1,1-2.1,2.1S132.5,24.1,133.7,24.1L133.7,24.1z M135.8,25.6c-0.5-0.8-1.8-0.8-1.8-0.8h-1c-0.6,0-1.2,0.3-1.5,0.8
						c-0.4,0.9-0.7,1.9-0.9,2.9c0,0.1,0,0.1,0,0.2c-0.1,0.2,0,0.5,0.3,0.5c0,0,0.1,0,0.2,0h2.4c0.2-0.8,0.5-1.6,0.9-2.4
						c0.4-0.6,1-1,1.6-1.1L135.8,25.6z"/>
					<path class="st0" d="M144.6,28.7v-0.1c-0.2-1-0.5-2-1-2.9c-0.5-0.8-1.8-0.8-1.8-0.8h-1c-0.6,0-1.2,0.3-1.5,0.8l-0.1,0.1
						c0.7,0.2,1.3,0.6,1.7,1.2c0.4,0.7,0.8,1.5,1,2.3h2.4C144.6,29.2,144.7,29,144.6,28.7C144.6,28.7,144.6,28.7,144.6,28.7z
						 M140.6,23.9c0.3,0.1,0.6,0.2,0.8,0.2c1.2,0.1,2.2-0.8,2.3-2c0.1-1.2-0.8-2.2-2-2.3c-0.1,0-0.2,0-0.3,0c-0.4,0-0.9,0.1-1.3,0.4
						c0.5,0.6,0.8,1.4,0.8,2.2C141,22.9,140.9,23.4,140.6,23.9z"/>
					<path class="st0" d="M137.6,25.2c1.5,0,2.8-1.3,2.8-2.8c0-1.5-1.3-2.8-2.8-2.8c-1.5,0-2.8,1.3-2.8,2.8
						C134.8,23.9,136,25.2,137.6,25.2L137.6,25.2z M141.7,31.2v-0.1c-0.3-1.3-0.7-2.6-1.4-3.8c-0.6-1.1-2.3-1-2.3-1h-1.4
						c-0.8,0-1.5,0.4-2,1c-0.5,1.2-1,2.5-1.2,3.8c0,0.1,0,0.2-0.1,0.3c-0.1,0.3,0,0.6,0.3,0.7c0.1,0,0.2,0,0.2,0h7.2
						c0.3,0,0.6-0.2,0.6-0.5C141.8,31.4,141.8,31.3,141.7,31.2L141.7,31.2z"/>
				</g>
				<g>
					<path class="st0" d="M145.4,11.7L145.4,11.7L145.4,11.7l0.9-2.6c0.2-0.6,0.4-1.1,0.6-1.7c1-2.5,3.7-4,6.4-3.5
						c1.3,0.2,2.4,0.8,3.3,1.8c0.9,1,1.5,2.3,1.6,3.6c0.1,0.7,0,1.4-0.2,2.1c-0.4,1.3-1.3,2.5-2.4,3.2c-0.1,0.1-0.2,0.2-0.2,0.4
						c0,1,0,1.9,0,2.9v0.1h-5c0-0.1,0-0.1,0-0.2c0-0.7,0-1.4,0-2.2c0-0.3-0.2-0.5-0.4-0.5c0,0-0.1,0-0.1,0c-0.8,0-1.5,0-2.2,0h-0.4
						c-0.2,0-0.2,0-0.2-0.2s0-0.5,0-0.8c0-0.7,0-1.5,0-2.2c0-0.2-0.2-0.4-0.5-0.4c0,0,0,0,0,0L145.4,11.7L145.4,11.7z"/>
					<g class="st7">
						<rect x="148.5" y="9.1" class="st8" width="1.6" height="1.6"/>
					</g>
					<g class="st7">
						<polygon class="st8" points="152.7,4.6 152.8,5.6 153,6.5 152.1,6.2 151.2,5.9 151.9,5.3 						"/>
					</g>
					<g class="st7">
						<polygon class="st8" points="148.8,8 148.2,7.2 148.6,6.4 149.6,6.3 150.1,7.1 149.7,7.9 						"/>
					</g>
					<g class="st7">
						<polygon class="st8" points="153.2,11.3 153.3,12.3 153.4,13.2 152.6,12.8 151.7,12.4 152.4,11.9 						"/>
					</g>
					<g class="st7">
						<polygon class="st8" points="154.7,10.3 154.2,9.4 154.7,8.6 155.7,8.6 156.3,9.4 155.7,10.3 						"/>
					</g>
					<g class="st7">
						
							<rect x="154.3" y="5.8" transform="matrix(0.1785 -0.9839 0.9839 0.1785 120.9109 158.1436)" class="st8" width="1.6" height="1.7"/>
					</g>
					
						<rect x="154.2" y="5.5" transform="matrix(0.1785 -0.9839 0.9839 0.1785 121.0537 157.7251)" class="st9" width="1.6" height="1.7"/>
					<polygon class="st10" points="148.6,7.8 148.1,7 148.5,6.2 149.4,6.1 149.9,6.9 149.5,7.8 					"/>
					<polygon class="st11" points="152.4,4.4 152.6,5.3 152.8,6.3 151.9,6 151,5.7 151.7,5 					"/>
					<rect x="148.3" y="9" class="st9" width="1.6" height="1.6"/>
					<polygon class="st11" points="153.2,11.1 153.3,12.1 153.4,13 152.5,12.6 151.6,12.3 152.4,11.7 					"/>
					<polygon class="st10" points="154.6,10.3 154.1,9.4 154.6,8.5 155.6,8.5 156.1,9.4 155.6,10.3 					"/>
					<g>
						
							<radialGradient id="SVGID_1_" cx="247.2114" cy="8.1864" r="1.26" gradientTransform="matrix(0.8874 0.461 0.461 -0.8874 -71.1303 -98.3222)" gradientUnits="userSpaceOnUse">
							<stop  offset="0" style="stop-color:#898989"/>
							<stop  offset="0.69" style="stop-color:#B0AFB0"/>
						</radialGradient>
						<path class="st12" d="M152,9.7V9.6c0-0.1,0-0.2,0-0.2c0-0.1,0-0.2,0-0.4c0-0.1,0.1-0.2,0.1-0.3c0-0.1,0.1-0.1,0.1-0.2l0.1-0.1
							l0.1-0.1c0-0.1,0.1-0.1,0.1-0.2c0-0.1,0-0.1,0-0.2c0,0,0-0.1-0.1-0.1c-0.1-0.1-0.1-0.1-0.2-0.2h-0.2c-0.1,0-0.2,0-0.2,0
							c-0.1,0-0.2,0.1-0.3,0.2c0,0.1-0.1,0.1-0.1,0.2c0,0.1,0,0.2,0,0.3c0,0.1,0,0.1,0,0.2s0,0,0,0L151,8.5l0,0c0-0.1,0-0.2,0-0.3
							c0-0.1,0-0.2,0-0.2c0-0.1,0-0.2,0.1-0.3c0-0.1,0.1-0.1,0.1-0.2c0.1-0.1,0.1-0.2,0.2-0.2c0.1,0,0.1-0.1,0.2-0.1
							c0.1,0,0.2-0.1,0.3-0.1c0.1,0,0.3,0,0.4,0h0.3h0.1l0.2,0.1l0.1,0.1c0.1,0.1,0.2,0.2,0.3,0.3l0.1,0.2c0,0.1,0,0.1,0,0.2
							c0,0.1,0,0.2-0.1,0.4l-0.1,0.1c-0.1,0.1-0.1,0.2-0.2,0.3l-0.2,0.3c-0.1,0.1-0.1,0.2-0.1,0.3c0,0.1,0,0.2,0,0.2v0.3l0,0h-0.2
							L152,9.7L152,9.7l0.1-0.2L152,9.7z"/>
						
							<radialGradient id="SVGID_2_" cx="94.67" cy="-83.81" r="0.39" gradientTransform="matrix(1 0 0 -1 0 72)" gradientUnits="userSpaceOnUse">
							<stop  offset="0" style="stop-color:#898989"/>
							<stop  offset="0.69" style="stop-color:#B0AFB0"/>
						</radialGradient>
						<path class="st13" d="M152.1,10.5v-0.3l0,0h0.5l0,0l0.1,0.6l0,0h-0.5l0,0L152.1,10.5L152.1,10.5z"/>
					</g>
				</g>
				<g>
					<path class="st0" d="M173.9,26h-6.5v-0.9c0-1.2,1-2.2,2.2-2.2h2.1c1.2,0,2.2,1,2.2,2.2L173.9,26z M168.4,25h4.5
						c-0.1-0.6-0.6-1.1-1.2-1.1h-2.1C169,23.9,168.5,24.3,168.4,25L168.4,25z"/>
					<path class="st0" d="M176.1,29.6h-10.9c-0.3,0-0.6,0-0.9,0c-0.1,0-0.3,0-0.3,0.1c0,0,0,0,0,0.1V33c0,1.1,0.9,1.9,1.9,1.9h9.5
						c1.1,0,1.9-0.8,1.9-1.9c0,0,0,0,0,0v-3.2c0-0.1-0.1-0.2-0.2-0.2c0,0-0.1,0-0.1,0C176.7,29.6,176.4,29.6,176.1,29.6z"/>
					<path class="st0" d="M165.8,25.4h9.6c1,0,1.8,0.8,1.8,1.8v0c0,1-0.8,1.8-1.8,1.8h-9.6c-1,0-1.8-0.8-1.8-1.8v0
						C164,26.3,164.8,25.4,165.8,25.4z"/>
					<g>
						<path class="st0" d="M167.6,28.4L167.6,28.4c0.6,0,1.1,0.5,1.1,1.1v0c0,0.6-0.5,1.1-1.1,1.1h0c-0.6,0-1.1-0.5-1.1-1.1v0
							C166.5,28.9,167,28.4,167.6,28.4z"/>
						<path class="st14" d="M167.9,30.9h-0.5c-0.6,0-1.1-0.5-1.1-1.1v-0.5c0-0.6,0.5-1.1,1.1-1.1h0.5c0.6,0,1.1,0.5,1.1,1.1v0.5
							C169,30.4,168.5,30.9,167.9,30.9z M167.3,28.7c-0.3,0-0.6,0.3-0.6,0.6v0v0.5c0,0.3,0.3,0.6,0.6,0.6l0,0h0.5
							c0.3,0,0.6-0.3,0.6-0.6v0v-0.5c0-0.3-0.3-0.6-0.6-0.6l0,0H167.3z"/>
					</g>
					<g>
						<path class="st0" d="M173.8,28.4L173.8,28.4c0.6,0,1.1,0.5,1.1,1.1v0c0,0.6-0.5,1.1-1.1,1.1h0c-0.6,0-1.1-0.5-1.1-1.1v0
							C172.7,28.9,173.2,28.4,173.8,28.4z"/>
						<path class="st14" d="M174,30.9h-0.5c-0.6,0-1.1-0.5-1.1-1.1v-0.5c0-0.6,0.5-1.1,1.1-1.1h0.5c0.6,0,1.1,0.5,1.1,1.1v0.5
							C175.1,30.4,174.6,30.9,174,30.9z M173.5,28.7c-0.3,0-0.6,0.3-0.6,0.6v0v0.5c0,0.3,0.3,0.6,0.6,0.6l0,0h0.5
							c0.3,0,0.6-0.3,0.6-0.6v0v-0.5c0-0.3-0.3-0.6-0.6-0.6l0,0H173.5z"/>
					</g>
				</g>
			</g>
		</g>
	</g>
</g>
</svg>
