<svg xmlns="http://www.w3.org/2000/svg" viewBox="0 0 3760 2561.97"><defs><style>.cls-1{isolation:isolate;}.cls-2{fill:#2d2d2d;}.cls-3{fill:#fcfadb;}.cls-4{fill:#bcbec0;}.cls-5{fill:#d1d3d4;}.cls-6{fill:#fedf40;}.cls-7{fill:#fcf49c;opacity:0.81;}.cls-7,.cls-8{mix-blend-mode:overlay;}.cls-8{fill:#fff200;opacity:0.99;}.cls-9{fill:#3c2415;}</style></defs><title>lamp</title><g class="cls-1"><g id="Layer_2" data-name="Layer 2"><g id="Layer_13" data-name="Layer 13"><path class="cls-2" d="M1883.13,523.8c8.26,3.69-10.95,8-24.26,7.73s-30.88-4.91-23.94-8.66c8.54-4.61,10.95-8,24.26-7.73S1873.24,519.38,1883.13,523.8Z"/><path class="cls-3" d="M1950.68,713c.51-26.4-25.6-65-44.81-87.56-17.19-20.2-18.62-69.28-18.62-69.28-4.88-25.36,3.59-27.26-12.37-29.25l-10.88-.21-4.31-.08-10.88-.21c-19.93-.38-10.06,5.82-18.25,28.66,0,0-3.29,50.12-21.24,69.65-20.06,21.82-42.78,54.51-43.33,83.21-1,49.58,33.31,79.63,88.61,82.71v.09l2.16,0,2.16.07v-.09C1914.29,789.77,1949.72,762.58,1950.68,713Z"/><rect class="cls-4" x="1826.96" y="524.41" width="62.74" height="35.38" rx="5" ry="5" transform="translate(10.81 -35.75) rotate(1.11)"/><rect class="cls-5" x="1825.58" y="531.52" width="65.76" height="21.58" rx="5" ry="5" transform="translate(10.81 -35.76) rotate(1.11)"/><path class="cls-6" d="M1856.43,562.6c4,20,9.22,41.24,7.64,61.74-.69,8.92-7.1,23.43-18.59,18.93-5.82-2.28-8-9.08-3-13.48,4.71-4.17,11.27-3.16,16.52-.6,7.92,3.87,17.11,11.08,19.1,20.15,2.37,10.83-9.57,19.13-18.35,22.39-4.32,1.6-10.18,3-14.72,1.55-1.26-.4-4.47-.43-3.43-3.24.25-.67,2.42-1.53,3-1.81a16.92,16.92,0,0,1,7.57-1.58c10.05.19,17.77,7.64,19.62,17.31,2.07,10.83-4.79,18.69-7,28.67-1.44,6.48-.15,13.47,5.56,17.37,1.73,1.18,3.35-1.63,1.63-2.8-6.4-4.37-4.79-12.9-2.34-19s5.52-11.63,5.82-18.27c.47-10.25-4.84-20.64-14.54-24.69a22.8,22.8,0,0,0-14.74-1.05c-3.21.9-8.86,3.19-8.43,7.36.38,3.72,5,4.69,8,5.11a31.55,31.55,0,0,0,16.76-2.57c9.48-4.05,20.59-12.64,19-24.21-1.54-11.08-13.07-20.35-22.78-24.38-8-3.34-21.32-1.67-22.34,9.14-.9,9.46,10.15,14.7,18,11.54,13-5.23,13.51-21.3,12.91-33.12-.88-17.32-4.3-34.37-7.71-51.33-.41-2-3.53-1.18-3.12.86Z"/><polygon class="cls-7" points="3760 2561.97 0 2553.36 1852.13 503.62 3760 2561.97"/><rect class="cls-8" x="1670.62" y="515.68" width="361.57" height="800.98" rx="48.12" ry="48.12"/><rect class="cls-9" x="1840.71" width="25.81" height="486.03"/><rect class="cls-9" x="1693.56" y="479.96" width="318.4" height="43.17" rx="5.88" ry="5.88"/></g></g></g></svg>