
<svg xmlns="http://www.w3.org/2000/svg" version="1.1" xmlns:xlink="http://www.w3.org/1999/xlink" preserveAspectRatio="none" x="0px" y="0px" width="550px" height="400px" viewBox="0 0 550 400">
<defs>
<g id="Layer2_0_FILL">
<path fill="#221F20" stroke="none" d="
M 248.6 246.35
Q 248.15 236.7 247.3 231.5 245.7 221.15 243.9 243.6 247.6 272.4 247.9 275.25 249.25 288.65 248.55 297.65 247.75 307.7 243.95 319.15 240.4 329.85 232.15 347.95 231.05 352.2 235.25 354.75 238.2 356.5 242.65 357.05 250.75 358.05 259.7 358.15 270.5 358.25 275.5 356.75 289.35 352.55 253.45 338.4 253.25 338 257.1 330.6 261.7 321.8 263.05 315.05 264.4 308.35 264.35 297.15 264.25 280.85 264.55 275.05 265.2 262.8 260.35 255 255.95 248 248.6 246.35 Z"/>
</g>

<g id="Layer1_0_FILL">
<path fill="#221F20" stroke="none" d="
M 335.25 243.3
Q 334.25 240.7 330.65 241.05
L 323 212.4
Q 319.75 212.75 322.25 224.6 323.55 230.95 325.95 241.4
L 326.95 284.4
Q 327.45 330.55 324.9 346.4 324.2 350.75 328.65 352.85 331.8 354.35 336.25 354.4 344.35 354.6 353.3 353.75 364.05 352.75 368.9 350.75 382.3 345.15 345.1 334.75 343.75 332.9 341.95 321.5 338.35 298.65 336.1 250.95 335.75 244.65 335.25 243.3 Z"/>
</g>

<g id="Tween_1_0_Layer4_0_FILL">
<path fill="#221F20" stroke="none" d="
M 193.35 -3.6
Q 189.7 -8.25 188.35 -8 185.1 -7.3 186.4 -3.15 187.3 -0.4 191.9 7.8 204.1 29.3 207 43.4 210.25 59.1 212.45 84.85 213.2 93.1 214.1 96.8 215.35 101.75 218 104.4 219.7 106.1 220.9 103.15 222.05 100.1 222.25 93.3 222.7 77 217.8 52.95 213.1 30.05 201.65 9.3 197.35 1.4 193.35 -3.6 Z"/>
</g>

<g id="Tween_1_0_Layer3_0_MEMBER_0_FILL">
<path fill="#76B286" stroke="none" d="
M 2777.4 1022.8
Q 2775.6 1022.7 2776.9 1032.35 2778.35 1043.05 2782.9 1057.65 2795.6 1098.2 2821.05 1134.1 2855.25 1182.3 2904.8 1209 2966.4 1242.25 3047.1 1239.35 3123.9 1236.55 3180.9 1199 3226.95 1168.7 3257.9 1117.45 3280.65 1079.7 3292.65 1035.65 3296.8 1020.45 3298.8 1007.45 3300.45 996.9 3299.9 994.6 3217.4 1003.9 3110.8 1012.1 2897.7 1028.45 2777.4 1022.8 Z"/>
</g>

<g id="Tween_1_0_Layer3_0_MEMBER_1_FILL">
<path fill="#89C49E" stroke="none" d="
M 2983.25 1020.35
Q 2961.25 1042.65 2949.6 1068.55 2937.55 1095.35 2937.55 1123.8 2937.55 1155.4 2952.35 1184.8 2966.7 1213.25 2993.35 1236.8 3019.7 1240.35 3048.2 1239.35 3124.95 1236.55 3182 1199 3228 1168.7 3258.95 1117.45 3281.75 1079.7 3293.7 1035.65 3297.85 1020.45 3299.9 1007.45 3301.5 996.95 3301 994.6 3261.7 999.05 3202.35 1004.45 3083.65 1015.3 2983.25 1020.35 Z"/>
</g>

<g id="Tween_1_0_Layer3_0_MEMBER_2_FILL">
<path fill="#E99A95" stroke="none" d="
M 2799.65 1023.65
Q 2825.35 1094.5 2870.1 1135.85 2937.95 1198.55 3047.8 1194.6 3155.85 1190.65 3223.75 1118.8 3270.9 1068.85 3292.1 995.45 3215.55 1003.8 3093.35 1012.3 2913.15 1024.85 2799.65 1023.65 Z"/>
</g>

<g id="Tween_1_0_Layer3_0_MEMBER_3_FILL">
<path fill="#221F20" stroke="none" d="
M 3011.4 1082.95
Q 3011.4 1079.9 3009.25 1077.8 3007.15 1075.65 3004.1 1075.65 3001.05 1075.65 2998.95 1077.8 2996.8 1079.9 2996.8 1082.95 2996.8 1086 2998.95 1088.1 3001.05 1090.25 3004.1 1090.25 3007.15 1090.25 3009.25 1088.1 3011.4 1086 3011.4 1082.95 Z"/>
</g>

<g id="Tween_1_0_Layer3_0_MEMBER_4_FILL">
<path fill="#221F20" stroke="none" d="
M 3146.7 1070.75
Q 3146.7 1067.7 3144.55 1065.6 3142.45 1063.45 3139.4 1063.45 3136.35 1063.45 3134.25 1065.6 3132.1 1067.7 3132.1 1070.75 3132.1 1073.8 3134.25 1075.9 3136.35 1078.05 3139.4 1078.05 3142.45 1078.05 3144.55 1075.9 3146.7 1073.8 3146.7 1070.75 Z"/>
</g>

<g id="Tween_1_0_Layer3_0_MEMBER_5_FILL">
<path fill="#221F20" stroke="none" d="
M 3065.85 1108
L 3059.35 1104.25
Q 3059.7 1107.4 3066.15 1110.8 3073.4 1114.65 3081.1 1113.85 3088.85 1113.05 3095.15 1107.75 3100.7 1103.05 3100.35 1099.9 3098.3 1102.35 3094.85 1104.95 3087.9 1110.1 3080.8 1110.85 3073.75 1111.6 3065.85 1108 Z"/>
</g>

<g id="Tween_1_0_Layer3_0_MEMBER_6_FILL">
<path fill="#EBA8A7" stroke="none" d="
M 2940.7 1156.7
Q 2928.6 1158.05 2920.15 1152.5 2911.75 1147 2908.2 1135.5 2904.8 1124.4 2906.3 1109.05 2895.05 1112.5 2885.85 1111.75 2876.4 1110.95 2869.9 1105.7 2861.9 1099.2 2859.55 1086.95 2857.3 1075.15 2860.65 1059.45 2850.9 1061.15 2843.1 1059.6 2835.05 1058 2829.55 1053.05 2819.05 1043.65 2819.85 1024.35 2807.05 1024.35 2800.8 1024.25 2826.5 1095.1 2871.25 1136.45 2939.1 1199.2 3048.95 1195.2 3157 1191.3 3224.9 1119.45 3272.1 1069.45 3293.2 996.1 3273.7 998.1 3269.85 998.45 3274.25 1018.15 3265.05 1029.55 3260.55 1035.05 3253.3 1037.9 3246.2 1040.7 3236.9 1040.75 3242.35 1062.35 3239.75 1078.35 3237.1 1094.9 3226.4 1102 3219.2 1106.85 3209.15 1106.55 3199.5 1106.25 3188.05 1101.25 3184.3 1126.15 3174.65 1141.65 3164.75 1157.6 3150.9 1159.55 3142.35 1160.75 3133.5 1156.3 3125 1151.95 3116.85 1142.65 3106.05 1163.15 3092.9 1173.7 3079.35 1184.65 3066.35 1182.5 3057.9 1181.15 3050.9 1174.35 3044.1 1167.75 3039.15 1156.65 3024.15 1170.75 3009.95 1175.95 2995.3 1181.25 2984.3 1176 2977.3 1172.7 2972.65 1165.3 2968.15 1158.2 2966.1 1147.8 2952.45 1155.4 2940.7 1156.7 Z"/>
</g>

<g id="Tween_1_0_Layer3_0_MEMBER_7_FILL">
<path fill="#221F20" stroke="none" d="
M 3144.75 1039.45
Q 3139.45 1036.75 3135.4 1035.55 3131.3 1034.35 3130.8 1035.4 3130.35 1036.2 3134.2 1037.85 3141.3 1040.9 3143.4 1042 3145.6 1043.15 3152.1 1047.15 3155.65 1049.35 3156.05 1048.55 3156.6 1047.5 3153.3 1044.85 3150 1042.2 3144.75 1039.45 Z"/>
</g>

<g id="Tween_1_0_Layer3_0_MEMBER_8_FILL">
<path fill="#221F20" stroke="none" d="
M 3010.2 1042.75
Q 3009.65 1041.7 3005.55 1042.9 3001.5 1044.1 2996.25 1046.8 2991.05 1049.5 2987.7 1052.2 2984.35 1054.9 2984.9 1055.9 2985.35 1056.7 2988.9 1054.5 2995.35 1050.5 2997.55 1049.35 2999.7 1048.2 3006.75 1045.2 3010.6 1043.55 3010.2 1042.75 Z"/>
</g>

<g id="Tween_3_0_Layer0_0_FILL">
<path fill="#FFFF99" stroke="none" d="
M -94.8 -12.35
Q -94.7759765625 -12.1455078125 -94.75 -11.95 -108.9 -17.85 -108.95 -17.9
L -116.85 1 -140.6 -9.15
Q -146.45 5.45 -146.55 5.25 -142.3478515625 16.64453125 -134.7 24.4 -127.2 32.05 -119.5 33.1 -118.95 33.2 -116.2 45.55 -112.3 63.4 -110 72.25 -100 110.45 -90.95 107.4 -81.95 104.35 -93.85 67.3 -96.4 59.3 -102.7 41.9 -106.95 30.3 -106.4 29.95 -100.15 25.75 -96.7 16 -92.372265625 3.865234375 -94.55 -10.8 -94.6685546875 -11.568359375 -94.8 -12.35
M -143.1 -45.95
Q -142.316015625 -46.833984375 -141.45 -47.7 -139.356640625 -49.816796875 -137.05 -51.2 -140.432421875 -49.3015625 -143.1 -45.95
M -129.4 -41.3
Q -133.45 -40.45 -138 -39.8 -144.044921875 -38.9576171875 -147 -39.2 -147.5794921875 -37.859375 -148.1 -36.4 -153.083203125 -22.3787109375 -149.5 -5.1
L -144.15 -18.1 -120.45 -8 -112.5 -26.75 -96.45 -19.8
Q -100.5673828125 -35.08828125 -110.1 -44.8 -112.2453125 -46.9755859375 -114.45 -48.6 -113.428515625 -47.829296875 -112.45 -46.95 -114.2 -45.7 -120.45 -43.7 -125.7 -42.1 -129.4 -41.3 Z"/>

<path fill="#993333" stroke="none" d="
M -149.5 -5.1
L -149.5 -5
Q -149.2486328125 -3.8640625 -149 -2.8 -147.9294921875 1.5087890625 -146.55 5.25 -146.45 5.45 -140.6 -9.15
L -116.85 1 -108.95 -17.9
Q -108.9 -17.85 -94.75 -11.95 -94.7759765625 -12.1455078125 -94.8 -12.35 -95.2689453125 -15.603125 -96.4 -19.75
L -96.45 -19.8 -112.5 -26.75 -120.45 -8 -144.15 -18.1 -149.5 -5.1 Z"/>

<path fill="#CCFFCC" stroke="none" d="
M -116.45 -50.05
Q -118.005078125 -51.0291015625 -119.6 -51.8 -120.1138671875 -52.029296875 -120.65 -52.25 -126.2 -54.6 -131.55 -53.4 -134.436328125 -52.764453125 -137.05 -51.2 -139.356640625 -49.816796875 -141.45 -47.7 -142.316015625 -46.833984375 -143.1 -45.95 -145.66015625 -42.82890625 -147.05 -39.2
L -147 -39.2
Q -144.044921875 -38.9576171875 -138 -39.8 -133.45 -40.45 -129.4 -41.3 -125.7 -42.1 -120.45 -43.7 -114.2 -45.7 -112.45 -46.95 -113.428515625 -47.829296875 -114.45 -48.6 -115.4294921875 -49.372265625 -116.45 -50.05 Z"/>
</g>

<g id="Tween_3_0_Layer0_1_FILL">
<path fill="#E9ECEE" stroke="none" d="
M 33.85 87.05
Q 28.05 87.65 24.1 89.3 20.15 90.95 20.35 92.7
L 20.6 93.3
Q 15.3 96.35 12.9 100.7 10.5 104.85 10.35 108.7 10.2 112.55 12.4 113.8 14.3 114.9 17.05 113.4 19.8 111.9 22.15 108.65 22.25 111.05 22.4 112.2 22.7 114.95 22.9 119.75 23.25 123.65 24.15 125.6 26.6 130.6 37.25 129.5 44.2 128.75 48.55 122.45 52.85 116.15 52 107.95 51.5 103.4 49.4 99.5 47.4 95.75 44.2 93.25 48.35 91.55 48.15 89.8 48 88.05 43.8 87.25 39.6 86.45 33.85 87.05 Z"/>
</g>

<g id="Tween_1_0_Layer1_0_FILL">
<path fill="#221F20" stroke="none" d="
M -106.3 81.75
Q -106.5 79.2 -115.75 81.9 -135.5 87.8 -136 87.9 -165.7 94.8 -167.25 72.5 -167.9 63.2 -167.1 51.95 -167.05 51.3 -165.45 35 -164.6 26.75 -165.25 23.6 -165.95 19.45 -169.35 19.7 -172.35 19.95 -174.55 37.8 -177.05 57.85 -175.3 82.05 -174.45 94.2 -163.35 98.05 -154.2 101.25 -139.55 98.35 -127.1 95.85 -116.4 90.45 -106.05 85.15 -106.3 81.75 Z"/>
</g>

<g id="Tween_4_0_Layer1_0_FILL">
<path fill="#FFFF99" stroke="none" d="
M -94.8 -12.35
Q -94.7759765625 -12.1455078125 -94.75 -11.95 -108.9 -17.85 -108.95 -17.9
L -116.85 1 -140.6 -9.15
Q -146.45 5.45 -146.55 5.25 -142.3478515625 16.64453125 -134.7 24.4 -127.2 32.05 -119.5 33.1 -118.95 33.2 -116.2 45.55 -112.3 63.4 -110 72.25 -100 110.45 -90.95 107.4 -81.95 104.35 -93.85 67.3 -96.4 59.3 -102.7 41.9 -106.95 30.3 -106.4 29.95 -100.15 25.75 -96.7 16 -92.372265625 3.865234375 -94.55 -10.8 -94.6685546875 -11.568359375 -94.8 -12.35
M -143.1 -45.95
Q -142.316015625 -46.833984375 -141.45 -47.7 -139.356640625 -49.816796875 -137.05 -51.2 -140.432421875 -49.3015625 -143.1 -45.95
M -129.4 -41.3
Q -133.45 -40.45 -138 -39.8 -144.044921875 -38.9576171875 -147 -39.2 -147.5794921875 -37.859375 -148.1 -36.4 -153.083203125 -22.3787109375 -149.5 -5.1
L -144.15 -18.1 -120.45 -8 -112.5 -26.75 -96.45 -19.8
Q -100.5673828125 -35.08828125 -110.1 -44.8 -112.2453125 -46.9755859375 -114.45 -48.6 -113.428515625 -47.829296875 -112.45 -46.95 -114.2 -45.7 -120.45 -43.7 -125.7 -42.1 -129.4 -41.3 Z"/>

<path fill="#993333" stroke="none" d="
M -149.5 -5.1
L -149.5 -5
Q -149.2486328125 -3.8640625 -149 -2.8 -147.9294921875 1.5087890625 -146.55 5.25 -146.45 5.45 -140.6 -9.15
L -116.85 1 -108.95 -17.9
Q -108.9 -17.85 -94.75 -11.95 -94.7759765625 -12.1455078125 -94.8 -12.35 -95.2689453125 -15.603125 -96.4 -19.75
L -96.45 -19.8 -112.5 -26.75 -120.45 -8 -144.15 -18.1 -149.5 -5.1 Z"/>

<path fill="#CCFFCC" stroke="none" d="
M -116.45 -50.05
Q -118.005078125 -51.0291015625 -119.6 -51.8 -120.1138671875 -52.029296875 -120.65 -52.25 -126.2 -54.6 -131.55 -53.4 -134.436328125 -52.764453125 -137.05 -51.2 -139.356640625 -49.816796875 -141.45 -47.7 -142.316015625 -46.833984375 -143.1 -45.95 -145.66015625 -42.82890625 -147.05 -39.2
L -147 -39.2
Q -144.044921875 -38.9576171875 -138 -39.8 -133.45 -40.45 -129.4 -41.3 -125.7 -42.1 -120.45 -43.7 -114.2 -45.7 -112.45 -46.95 -113.428515625 -47.829296875 -114.45 -48.6 -115.4294921875 -49.372265625 -116.45 -50.05 Z"/>
</g>

<g id="Tween_4_0_Layer0_0_FILL">
<path fill="#E9ECEE" stroke="none" d="
M 2847.95 1231.6
Q 2842.15 1232.25 2838.25 1233.9 2834.3 1235.55 2834.5 1237.3 2834.65 1239.05 2839.1 1239.85 2836.5 1242.95 2835.3 1247.05 2834.05 1251.3 2834.55 1255.85 2835.4 1264.05 2840.95 1269.3 2846.45 1274.6 2853.4 1273.85 2864.05 1272.75 2865.4 1267.3 2865.9 1265.25 2865.4 1261.35 2864.65 1256.6 2864.35 1253.85 2864.25 1252.55 2863.85 1250.3 2866.85 1253.05 2869.85 1253.9 2872.85 1254.8 2874.45 1253.35 2876.35 1251.65 2875.4 1247.95 2874.45 1244.2 2871.25 1240.6 2868 1236.9 2862.2 1235
L 2862.3 1234.35
Q 2862.1 1232.6 2857.9 1231.8 2853.7 1231 2847.95 1231.6 Z"/>
</g>

<path id="Tween_3_0_Layer0_1_1_STROKES" stroke="#221F20" stroke-width="1.75" stroke-linejoin="miter" stroke-linecap="butt" stroke-miterlimit="10" fill="none" d="
M 12.9 100.7
Q 15.3 96.35 20.6 93.3
L 20.35 92.7
Q 20.15 90.95 24.1 89.3 28.05 87.65 33.85 87.05 39.6 86.45 43.8 87.25 48 88.05 48.15 89.8 48.35 91.55 44.2 93.25 47.4 95.75 49.4 99.5 51.5 103.4 52 107.95 52.85 116.15 48.55 122.45 44.2 128.75 37.25 129.5 26.6 130.6 24.15 125.6 23.25 123.65 22.9 119.75 22.7 114.95 22.4 112.2 22.25 111.05 22.15 108.65 19.8 111.9 17.05 113.4 14.3 114.9 12.4 113.8 10.2 112.55 10.35 108.7 10.5 104.85 12.9 100.7 Z"/>

<path id="Tween_4_0_Layer0_0_1_STROKES" stroke="#221F20" stroke-width="1.75" stroke-linejoin="miter" stroke-linecap="butt" stroke-miterlimit="10" fill="none" d="
M 15.871957397460847 -13.251338195800827
Q 12.388052368164153 -16.73187866210924 6.476763916015443 -18.250274658203125
L 6.534239196777435 -18.9053955078125
Q 6.220751953124818 -20.638638305664017 1.9776489257815228 -21.16353454589853 -2.265454101562682 -21.688430786132812 -7.964114379883085 -20.71542205810556 -13.709413146972565 -19.689265441894577 -17.49367675781241 -17.788923645019395 -21.327833557128542 -15.885327148437455 -21.01434631347638 -14.152084350585938 -20.75075225830051 -12.415586853027435 -16.2581832885744 -11.90696411132808 -18.650837707519713 -8.644342041015534 -19.581388854980105 -4.4749877929687045 -20.55206909179651 -0.15269927978511078 -19.756959533691315 4.355033874511719 -18.375004577636446 12.482186889648347 -12.4951171875 17.359700012206986 -6.661868286133085 22.290361022949128 0.22446441650390625 21.0895599365233 10.780110168457213 19.298658752441497 11.772463989258085 13.772424316406159 12.137953186035247 11.69425659179683 11.385154724121094 7.835134887695176 10.327560424804688 3.1441024780272073 9.849192810058412 0.4195053100586392 9.664784240722838 -0.8712081909179688 9.119177246093841 -3.0903640747069403 12.29177703857431 -0.5415206909178778 15.3406982421875 0.11138153076194612 18.392874145507903 0.8141769409180597 19.895069885253633 -0.7368759155274347 21.68035125732422 -2.556922912597429 20.491532897949128 -6.1871795654296875 19.299459838866824 -9.867329406738236 15.871957397460847 -13.251338195800827 Z"/>
</defs>

<g transform="matrix( 1, 0, 0, 1, 0,0) ">
<use xlink:href="#Layer2_0_FILL"/>
</g>

<g transform="matrix( 1, 0, 0, 1, 0,0) ">
<use xlink:href="#Layer1_0_FILL"/>
</g>

<g transform="matrix( 1, 0, 0, 1, 260.9,181.4) ">
<g transform="matrix( 1, 0, 0, 1, 0,0) ">
<use xlink:href="#Tween_1_0_Layer4_0_FILL"/>
</g>

<g transform="matrix( 0.99786376953125, -0.065093994140625, 0.065093994140625, 0.99786376953125, -3098.1,-931.6) ">
<use xlink:href="#Tween_1_0_Layer3_0_MEMBER_0_FILL"/>
</g>

<g transform="matrix( 0.99786376953125, -0.065093994140625, 0.065093994140625, 0.99786376953125, -3098.1,-931.6) ">
<use xlink:href="#Tween_1_0_Layer3_0_MEMBER_1_FILL"/>
</g>

<g transform="matrix( 0.99786376953125, -0.065093994140625, 0.065093994140625, 0.99786376953125, -3098.1,-931.6) ">
<use xlink:href="#Tween_1_0_Layer3_0_MEMBER_2_FILL"/>
</g>

<g transform="matrix( 0.99786376953125, -0.065093994140625, 0.065093994140625, 0.99786376953125, -3098.1,-931.6) ">
<use xlink:href="#Tween_1_0_Layer3_0_MEMBER_3_FILL"/>
</g>

<g transform="matrix( 0.99786376953125, -0.065093994140625, 0.065093994140625, 0.99786376953125, -3098.1,-931.6) ">
<use xlink:href="#Tween_1_0_Layer3_0_MEMBER_4_FILL"/>
</g>

<g transform="matrix( 0.99786376953125, -0.065093994140625, 0.065093994140625, 0.99786376953125, -3098.1,-931.6) ">
<use xlink:href="#Tween_1_0_Layer3_0_MEMBER_5_FILL"/>
</g>

<g transform="matrix( 0.99786376953125, -0.065093994140625, 0.065093994140625, 0.99786376953125, -3098.1,-931.6) ">
<use xlink:href="#Tween_1_0_Layer3_0_MEMBER_6_FILL"/>
</g>

<g transform="matrix( 0.99786376953125, -0.065093994140625, 0.065093994140625, 0.99786376953125, -3098.1,-931.6) ">
<use xlink:href="#Tween_1_0_Layer3_0_MEMBER_7_FILL"/>
</g>

<g transform="matrix( 0.99786376953125, -0.065093994140625, 0.065093994140625, 0.99786376953125, -3098.1,-931.6) ">
<use xlink:href="#Tween_1_0_Layer3_0_MEMBER_8_FILL"/>
</g>

<g transform="matrix( 1, 0, 0, 1, 217.25,100.25) ">
<g transform="matrix( 0.0750885009765625, -0.997161865234375, 0.997161865234375, 0.0750885009765625, -55.8,-102.3) ">
<use xlink:href="#Tween_3_0_Layer0_0_FILL"/>
</g>

<g transform="matrix( 1, 0, 0, 1, -31.25,-108.25) ">
<use xlink:href="#Tween_3_0_Layer0_1_FILL"/>

<use xlink:href="#Tween_3_0_Layer0_1_1_STROKES"/>
</g>
</g>

<g transform="matrix( 1, 0, 0, 1, 0,0) ">
<use xlink:href="#Tween_1_0_Layer1_0_FILL"/>
</g>

<g transform="matrix( -0.1821136474609375, -0.9832763671875, 0.9832763671875, -0.1821136474609375, -96.75,74.15) ">
<g transform="matrix( -0.258819580078125, 0.965911865234375, -0.965911865234375, -0.258819580078125, 34.5,121.85) ">
<use xlink:href="#Tween_4_0_Layer1_0_FILL"/>
</g>

<g transform="matrix( 0.99786376953125, -0.065093994140625, 0.065093994140625, 0.99786376953125, -2930,-1064.3) ">
<use xlink:href="#Tween_4_0_Layer0_0_FILL"/>

<use xlink:href="#Tween_4_0_Layer0_0_1_STROKES" transform="matrix( 0.997894287109375, 0.065093994140625, -0.065093994140625, 0.997894287109375, 2854.5,1252.75) "/>
</g>
</g>
</g>
</svg>
