<svg xmlns="http://www.w3.org/2000/svg" viewBox="0 0 1297.08 789.45"><defs><style>.cls-1{isolation:isolate;}.cls-2{fill:#81b4d4;}.cls-3,.cls-4,.cls-5,.cls-6{fill:#add8e5;}.cls-3{opacity:0.74;}.cls-4,.cls-6{opacity:0.44;}.cls-5{opacity:0.19;}.cls-6{mix-blend-mode:multiply;}.cls-7{fill:#fbf3d9;}.cls-8{fill:#f8ecc7;}.cls-9{fill:#f2db91;}.cls-10{fill:#dea058;}.cls-11{fill:#f9f3e4;}.cls-12{fill:#272963;}.cls-13{fill:#262262;}.cls-14{fill:#2a3378;}.cls-15{fill:#2b3781;}.cls-16{fill:#23265a;}.cls-17{fill:#1a1648;}</style></defs><title>cheesecake</title><g class="cls-1"><g id="Layer_2" data-name="Layer 2"><g id="Layer_8" data-name="Layer 8"><ellipse class="cls-2" cx="849.82" cy="745.14" rx="447.26" ry="39.83"/><path class="cls-3" d="M766.83,611.32c0,84.46,261,152.94-122.54,152.94S480.9,695.78,480.9,611.32,260.79,458.38,644.29,458.38,766.83,526.85,766.83,611.32Z"/><path class="cls-4" d="M1279.34,471.16C1271,551.09,993.73,616.67,641.41,616.67S11.51,551.12,3.49,471.16C-7.93,357.27,289.1,325.65,641.41,325.65S1289.66,372,1279.34,471.16Z"/><ellipse class="cls-4" cx="637.92" cy="450.22" rx="637.92" ry="145.51"/><ellipse class="cls-5" cx="630.83" cy="739.06" rx="228.58" ry="50.39"/><ellipse class="cls-5" cx="630.83" cy="724.66" rx="228.58" ry="50.39"/><path class="cls-6" d="M1279.34,471.16a46.67,46.67,0,0,0-3.6-23.53c-3.27-42.66-87-80.85-218.16-107l-27.44-3.5L229.87,523.05l346.62,92.86q32,.74,64.93.75C993.73,616.67,1271,551.09,1279.34,471.16Z"/><polygon class="cls-7" points="1036.16 489.94 231.82 523.99 190.4 255.99 1061.72 99.6 1036.16 489.94"/><polygon class="cls-8" points="188.8 259.18 617.53 90.03 1061.72 99.6 188.8 259.18"/><polygon class="cls-9" points="212.28 397.51 231.82 523.99 1036.16 489.94 1048.46 302.12 212.28 397.51"/><polygon class="cls-10" points="226.92 492.24 231.82 523.99 1036.16 489.94 1038.61 452.53 226.92 492.24"/><path class="cls-7" d="M912.43,35.71c19.7-.94-108.3,74.67-181.81,74.67s-133.11-16-133.11-35.71S588.93,0,662.44,0,844.25,39,912.43,35.71Z"/><path class="cls-11" d="M1079.71,53.57c17.45,1.4,6.49,64.93-131.9,64.93-65.24,0-92.12-22.48-92.12-42.21S891.1,11.36,956.34,11.36,998.55,47.08,1079.71,53.57Z"/><path class="cls-7" d="M990.35,51.95c16.8,10.34-33.62,55.19-107.14,55.19S750.1,91.15,750.1,71.43,741.52,9.74,815,9.74,905.94,0,990.35,51.95Z"/><path class="cls-12" d="M685.25,56.76c7.55,35.06-22.24,64.36-59.92,72.47s-69-8-76.56-43.09,20.61-64.43,58.3-72.54S677.7,21.71,685.25,56.76Z"/><path class="cls-13" d="M802.94,72.18c-5.24,35.48-43.41,52.46-81.55,46.83s-61.8-31.74-56.56-67.22S706.74-1.3,744.88,4.33,808.18,36.71,802.94,72.18Z"/><path class="cls-13" d="M913.41,74.59c-4.83,35.53-42.81,53-81,47.76s-62.16-31-57.33-66.57,41.3-53.57,79.5-48.37S918.24,39.06,913.41,74.59Z"/><path class="cls-14" d="M838.65,85.17c-5.24,35.48-43.41,52.46-81.55,46.83s-61.8-31.74-56.56-67.22,41.91-53.09,80.05-47.46S843.89,49.69,838.65,85.17Z"/><path class="cls-15" d="M725,104.65c-5.24,35.48-33.25,44.7-85.31,41.45s-58-26.36-52.8-61.84S628.83,31.17,667,36.8,730.26,69.17,725,104.65Z"/><polygon class="cls-13" points="681.16 56.31 668.85 68.69 673.06 85.65 656.33 78.01 640.66 86.46 642.64 69.35 628.74 57.61 646.69 54.68 653.78 38.98 662.89 54.27 681.16 56.31"/><polygon class="cls-16" points="791.78 22.12 791.83 39.13 806.06 48.43 789.68 54.08 784.81 70.49 774.64 56.97 757.4 57.81 767.5 43.82 761.71 27.92 778.12 32.79 791.78 22.12"/><polygon class="cls-17" points="605.05 19 601.6 30.61 613.21 34.03 596.48 41.26 588.48 53.47 581.59 46.33 565.03 50.45 577.51 38.82 575.28 29.15 589.88 29.1 605.05 19"/><polygon class="cls-17" points="849.56 17.38 864.47 21.45 878.72 15.43 876.64 26.29 888.94 33.06 872.75 35.7 866.11 45.9 858.17 36.68 841.76 36.21 853.05 27.86 849.56 17.38"/><polygon class="cls-17" points="708.12 8.01 724.34 8.88 740.31 5.86 737.51 10.18 750.72 12.23 732.77 14.03 724.97 18.31 716.67 15.1 698.64 15.71 711.47 11.92 708.12 8.01"/></g></g></g></svg>