
<svg xmlns="http://www.w3.org/2000/svg" version="1.1" xmlns:xlink="http://www.w3.org/1999/xlink" preserveAspectRatio="none" x="0px" y="0px" width="550px" height="400px" viewBox="0 0 550 400">
<defs>
<g id="Layer0_0_FILL">
<path fill="#9E7252" stroke="none" d="
M 536.1 936.6
L 486.1 936.75 435.5 935.35 388 932.6 342.1 928.5 299.35 923.1 257.85 916.25 221.1 908.25 189.75 899.6 163.5 890.1 141.1 879.5 125.25 868.5 115.5 857.25 111.75 845.85 111.75 880.35 115.35 891.6 124.85 903 141.25 914.35 163.1 925 189.75 934.6 221.35 943.35 259.35 951.5 297.1 957.75 343.5 963.6 388 967.6 435.5 970.35 485.1 971.75 536.25 971.6 587.6 969.85 634.5 966.85 678.6 962.6 722.1 956.85 762 949.85 797 942 829.85 932.35 854.75 922.85 874.75 912.6 889.85 901.35 898.5 890 901.1 878.5 901.1 843.5 898.5 855 889.85 866.25 874.85 877.6 854.5 888 828.75 897.75 797.1 907 759.25 915.35 721.1 922 678.5 927.6 632.85 932 585.5 935 536.1 936.6
M 451.5 594.25
L 451.75 594.6 451.85 594.85 458.85 674 531.25 636.85 531.1 636.6 531.35 634.6 531.1 615.85 531.25 615.6 451.25 589.1 451.5 594.25
M 456.6 603.5
L 460.85 603.85 529.85 622.35 529.85 633 464.6 661.35 463.25 661.75 456.6 603.5
M 223 558.85
L 230.6 652.35 446.1 675.35 446.1 674.25 438.6 581.85 438.1 581.85 223 558.85
M 231 568.25
L 232.25 567 429.5 588.25 436.25 665.85 434.75 667 237.5 645.85 231 568.25
M 251 663.1
L 279.6 768.85 316.85 906.85 428.75 918.75 452.5 684.75 251 663.1 Z"/>

<path fill="#C4957C" stroke="none" d="
M 506 752
L 500.5 781.35 503.25 808.35
Q 515.35 810.35 521.5 829.1
L 524.5 821.75 525.5 819.85 529 815.35 532.35 813.1 538.75 811.1 536.6 764.75 535.85 755.25 533.6 752.1 506 752
M 713 765.5
L 668.85 760 617.75 755.6 576.1 753.25 555.6 752.75 555 757.1 552 767.85 551.6 767.75 551.75 767.25 551.35 767 550 767 552.35 812
Q 567 817.75 566 834.25 567 840.6 538.85 871.25 532.1 878.5 518.35 874.1 510.5 858.35 517.1 839.85 516.25 840.85 513.25 841.85
L 488.1 847.25 479.35 893.25 428.75 918.75 316.85 906.85 279.6 768.85 248.85 774.25 213 782.5 182.85 791.35 157 801.35 137.6 811.35 122.85 822.5 114.25 834 111.75 845.85 115.5 857.25 125.25 868.5 141.1 879.5 163.5 890.1 189.75 899.6 221.1 908.25 257.85 916.25 299.35 923.1 342.1 928.5 388 932.6 435.5 935.35 486.1 936.75 536.1 936.6 585.5 935 632.85 932 678.5 927.6 721.1 922 759.25 915.35 797.1 907 828.75 897.75 854.5 888 874.85 877.6 889.85 866.25 898.5 855 901.1 843.5 897.5 831.75 887.25 820 871.75 809.25 849.6 798.6 823.25 789.1 789.6 779.85 754.75 772.35 713 765.5 Z"/>

<path fill="#DDB193" stroke="none" d="
M 547.75 710.85
L 548.5 702.35 547.75 698 547.75 710.85
M 547.85 648.35
L 548.6 644.75 548 643 547.85 648.35
M 520.35 684.35
L 519.1 682.25 517.6 689.85 521 695.85 520.35 684.35
M 525.25 654.75
L 525.35 655 527.1 658.1 531.35 668.25 531.5 668.5 533.35 672.6 534.25 666.5 534.75 655.1
Q 535.35 654.75 535.85 650.1
L 534 645.1 533.5 644.6 525.85 648.5 525.25 654.75
M 519.35 703.1
L 518 701.1 520.25 708.85 524.1 715.85 523 710.6 522.85 710.35 519.35 703.1
M 533 710.25
L 527 696.85 524.75 693.1 526.5 707.75 528 710.5 532.75 721.85 532.85 722.85 533.85 724.6 533 710.25
M 523.85 669.6
L 524.1 681.6 527.1 687.35 532.6 700.35 532.85 699.1 532.5 697.6 532.75 692.85 532.5 687.75 533 680.85 528.6 670.75 524.6 663.25 523.85 669.6
M 540.6 623.75
L 541.5 620.6 540.6 618.5 540.6 623.75
M 534.35 606.6
L 535.85 607.1 535 605.25 534.35 606.6
M 453.25 566.25
L 454 567.85 454.85 571.85 460.25 580.35 465.75 582.35 465.6 577 452.85 560.35 453.25 566.25
M 474.35 560.1
L 473.75 563.25 472.85 576 475.1 578.5 479 574.85 483.85 571.25 474.35 560.1
M 430.1 410.75
L 426.35 413.35 424.1 414 420.85 415.5 415.6 415.75 413.85 419.85 424.25 428.85 435.1 439 440.85 427.35 441.1 427.1 444 422.1 443.75 421.35 430.1 410.75
M 449.1 401.1
L 445.6 401.85 443.85 402.75 438.75 403.85 436.75 405.35 448.75 413.6 454.5 405.25 458 398.85 451.85 401 449.1 401.1
M 560 572.75
L 559.25 569.85 555.35 586.75 557.35 595.5 559.6 585 559.6 584.75 559.75 584.35 560 572.75
M 520.6 580.5
L 520.35 580.6 516.25 594.85 515.25 599.85 528.75 604.6 530.5 596.25 527.35 590.6 520.6 580.5
M 523 573
L 524.5 575.25 524.6 575.35 526.6 578.5 526.85 578.75 532.35 587.25 539 565.1 532.35 553 531.5 552 528.25 555.5 522.85 572.6 523 573
M 488.25 585.35
L 488.25 585.1 483 588.5 487.35 590 488.1 586.6 488.25 585.35
M 498.25 577.75
L 500 579.6 510.35 593.85 511.1 588.85 511.75 587.5 511.6 586.75
Q 512.6 584.85 513 580.85
L 513.5 580.1 515.25 573.35 511.35 568 498.25 577.75
M 494 559.75
L 494.25 557.6 494.85 556.5 496.35 550 491.1 543.75 480.25 532.25 478.6 537 478.6 537.25 477.85 539.85 477.85 540 475.75 550.1 480.75 556.25 481 557 482.6 558.35 483 559.25 489.75 567 492.5 564.85 493 563.6 493 563.35 493.85 560.25 494 559.85 494 559.75
M 502.25 556.75
L 501.85 556.85 501.5 558.25 502.35 557.75 502.75 557.35 502.25 556.75
M 518.25 562.85
L 516.75 564 517.6 564.75 518.25 562.85
M 513.5 527.75
L 512.5 527 506.75 541.75 504.75 548.25 508.75 553 518.5 546 522.5 542.25 523 539.1 522.85 538.85 513.5 527.75
M 556.35 530.25
L 559.75 539.85 561.25 534.1 562 509.75 556.35 530.25
M 538.5 525.85
L 537.75 534.5 535.6 545.25 542 555.6 548.6 531.6 546.35 526.25 541.6 517.85 538.5 525.85
M 527.75 497.75
L 527.6 497.5 525.6 495.35 518.75 511.1 515.85 518.75 522.25 526.6 522.35 526.85 523.1 527.75 523.1 527.85 524.1 528.85 527.85 497.85 527.75 497.75
M 563.75 463.6
L 563.5 462 563.85 461.35 564.1 453.1 563.85 452.5 557.35 473.1 557.85 473.6 562 483.6 563 480.85 563.75 463.6
M 558.35 416.25
L 559.85 418.35 564.35 427 565 425.6 565.35 410.75 565.1 410.6 565.5 408.25 565.85 396 565.6 395.85 558.35 416.25
M 542.85 379.25
L 545.6 372.25 543.85 372.85
Q 540.75 388 531.6 388.5
L 536.6 392.25 542.85 379.25
M 560.6 348
L 560.85 348.35 562.1 347.75 572.25 337.35 573.5 336.35 578 331.75 578.5 331.1 584 316 584.1 315.5 582.75 313 582.75 312.35 581.25 309.35 577.1 318.1 573.1 324.6
Q 570.5 332.6 560.75 341 560.85 345.5 559.5 346.85
L 560.6 348
M 434.25 534.1
L 435.85 540.75 445.25 555.6 444.1 548 434.25 534.1
M 429.1 513.1
L 429.75 514.6 430.35 518.5 435 526 443.75 536.6 444.75 524.75 444.5 524.35 429.25 506.1 429.1 513.1
M 452 533.5
L 451.6 536 451.85 547.6 466.1 567.25 466.25 566.25 466.25 565.85 467.75 552 452 533.5
M 456.5 507.35
L 455.35 511.25 453.1 523.75 459.35 530.35 469.6 542.25 474.35 525.85 474 525.35 456.5 507.35
M 399 466.6
L 398.75 464.25 394.6 458.5 399 467.35 399 466.6
M 382.6 423.35
L 383.85 432.6 397.5 452.5 397.6 442.75 397.35 442 396.75 441.6 382.6 423.35
M 460.6 492.5
L 460 494.35 459.85 494.6 459.85 494.85 459 498.1 465 505 477.25 516.85 478 515.25 478.6 512.5 479.6 510.75 479.5 510 479.85 509.85 481.25 505.1 482 504 484.35 497.5 473.6 486.85 465.85 480 460.6 492.35 460.6 492.5
M 431.25 480.5
L 430.5 483.6 429.5 495 446 515.75 446.1 515.35 446.25 515 449.25 501 449.35 499.6 431.25 480.5
M 409.75 486.75
L 411.25 488.5 411.35 489.25 421.5 504.35 421.5 503.25 420.75 495 408.1 478.25 409.75 486.75
M 421.5 485
L 423.75 472.25 406.1 452.6
Q 404 461.5 405.85 465.25
L 410.1 471.35 411 473.25 421.5 485
M 409.35 431.5
L 407.25 442.5 425.85 464.25 426 464 429.5 452.85
Q 431.5 448.1 431.1 447.5
L 410.6 428 409.35 431.5
M 504.75 473.5
L 496.85 489.85 494.6 495.35 500.25 501 509.85 511.6 516.35 497 519.6 488.35 508.75 477.1 504.75 473.5
M 521.25 441.1
L 520.75 441.25 512.35 457.5 508.85 465.1 515.25 471.25 522.85 479.5 523.35 479 529.35 464.75 534.1 455.1 530.1 450.25 529.75 449.75 529.35 449.75 529 449 528.25 448.1 527.6 447.6 521.25 441.1
M 549.85 734.75
L 550 733.25 549.6 733.75 549.85 734.75
M 550 669.35
L 550.25 669.85 549 677.6 550.6 684.5
Q 553.75 667.25 551.35 662.5
L 550 669.35
M 556.5 633.5
L 555.6 636.6 554.25 644.85 555.25 649.35 557 638.35 556.5 633.5
M 552.25 601.1
L 551.35 603.6 547.6 620 551.1 630.5 552.85 623.6 554.6 613 553.35 604.75
Q 552.6 604.5 552.25 601.1
M 438.85 454.85
L 435 465.6 433.35 471.6 452.35 490.75 457 478.85
Q 459.35 474.1 459 473.35
L 438.85 454.85
M 456.85 431.85
L 451.6 427.85 444.35 441.1 442.25 446.25 443 446.6 448.85 453 463 464.85 468.25 452.85 470.5 449.1 472.35 445 456.85 431.85
M 472.6 402.35
L 468.85 400 456.6 419.5 462.1 423.75 477 436.5 483.5 423.85 489.1 414.5 472.6 402.35
M 543.5 574.5
L 541.5 580.1 537.25 596.25 538.35 598 543.85 610.1 548.6 588.1 544.75 576.85 543.5 574.5
M 555 564
L 556.75 555 555.6 549.1 552.85 542.25 546.35 564.25 551.6 575.75 555 564
M 490.85 504
L 487.75 511 483.25 523.5 487 527.25 499 541.25 499.75 539.85 500.5 536.5 502.6 531.1 503.25 528.5 506.5 520.1 494.6 507.35 490.85 504
M 557.35 491.75
L 553.5 484.5 545 508.35 547 511.25 552 520.25 556.85 506.25 559 497.25 557.35 491.75
M 488 488.85
L 491.1 481.25 497.75 467.1 484 454.6 479.75 451.35 476.1 458.35 475.75 458.5 475.75 459.1 472.25 465.85 470 471.25 488 488.85
M 510.25 443.35
L 514.1 434.6 502.25 424.35 496.85 420.35 487.85 435.85 484.35 442.6 490.5 447.75 502 458.35 510.25 443.35
M 559 434.25
L 555.5 428.75 554.1 427.25 543.75 452.6 552.5 464.35 558.6 449.35 561.1 439.75 559 434.25
M 541.6 410
L 538 406.5 525.25 432.35 538.35 446.1 548.75 419.25 541.6 410
M 563.25 382.6
L 561 378.25 555.1 371.5 550.85 379.6 542.5 397.35 547.25 402 553 408.5 560.5 392.1 563.25 382.6
M 373.25 410.1
L 371.25 410.25 371 410.1 371.25 410.35 374 416 374.1 415.75 373.75 411.35 373.25 410.1
M 386.1 418.6
L 386.85 420.25 399.1 433.1 400.85 426.35 403.1 420.25 388.25 405.6 384.5 407.5 381.35 408.5 381.6 412.5 384.5 416.85 386.1 418.6
M 494.75 584.85
L 493.6 592.25 503.25 595.6 494.75 584.85
M 542.6 465.5
L 539.85 462 534.5 474.5
Q 542.25 468.35 544.5 469.6
L 545.1 471.35 543.35 484.75 542.75 492.75 544.75 487.75 544.85 486.5 548.75 475.35 542.6 465.5
M 564 367.85
L 565.75 370.5 566.6 371.1 566.6 364.75 565.25 366.85 564 367.85
M 566.1 353.25
L 566.85 354.5 567 352.6 566.1 353.25
M 515.75 392
L 513.25 393.1 502 411.85 514.1 421.6 518.25 425.5 525.5 411.25 531.6 400.6 518.85 389.75 515.75 392
M 482 388.85
L 476.1 392.5 483.85 399 494.35 406.1 502 395.1 487.35 392.6
Q 482.5 390.6 482 388.85 Z"/>

<path fill="#B38366" stroke="none" d="
M 525.85 648.5
L 525.1 648.85 520.1 676.6 520 677.6 519.1 682.25 520.35 684.35 521 695.85 517.6 689.85 513.35 712.85 513.35 713 513.75 713.6 513.85 713.85 515.5 716.85 515.6 717.1 515.75 717.35 515.85 717.6 516 717.75 516 717.85 527.35 741.1 527.35 741.25 530.75 747.85 533.6 752.1 535.85 755.25 535.75 754.35 535.85 753.85 535.75 753.6 535.75 751.6 535.6 751.25 535.6 750.35 535.85 750 535.25 743.1 535.1 742.35 535.35 740.1 535.1 739.6 534.5 727.25 534.35 727 534.6 725 534.1 719.75 534.35 683.35 534.25 683.1 534.25 666.5 533.35 672.6 531.5 668.5 531.35 668.25 527.1 658.1 525.35 655 525.25 654.75 525.85 648.5
M 524.1 681.6
L 523.85 669.6 524.6 663.25 528.6 670.75 533 680.85 532.5 687.75 532.75 692.85 532.5 697.6 532.85 699.1 532.6 700.35 527.1 687.35 524.1 681.6
M 527 696.85
L 533 710.25 533.85 724.6 532.85 722.85 532.75 721.85 528 710.5 526.5 707.75 524.75 693.1 527 696.85
M 518 701.1
L 519.35 703.1 522.85 710.35 523 710.6 524.1 715.85 520.25 708.85 518 701.1
M 562.1 347.75
L 560.85 348.35 561.75 349.75 562.6 350 565.6 352.25 566.1 353.25 567 352.6 567.25 347.1 564.1 348.75 570.25 343.25 570.35 343.1 578.75 336 581.1 337.1 583.1 331.5 587.75 311.1 582.75 305.75 581.35 309.1 583.25 310.75 582.75 312.35 582.75 313 584.1 315.5 584 316 578.5 331.1 578 331.75 573.5 336.35 572.25 337.35 562.1 347.75
M 476.1 392.5
L 482 388.85 483.6 387.85 482.75 387.1 478.1 385.6 475.6 385.85 468 390.85 465.75 393.1 458 398.85 454.5 405.25 448.75 413.6 436.75 405.35 433.85 407.25 430.1 410.75 443.75 421.35 444 422.1 441.1 427.1 440.85 427.35 435.1 439 424.25 428.85 413.85 419.85 415.6 415.75 412.1 415.75 405.75 414.1 403 412.1 401.85 411.75 397.25 408.35 392 403.6 388.25 405.6 403.1 420.25 400.85 426.35 399.1 433.1 386.85 420.25 386.1 418.6 384.5 416.85 381.6 412.5 381.35 408.5 380 408.85 374.5 409.75 373.25 410.1 373.75 411.35 374.1 415.75 374 416 371.25 410.35 371 410.1 367.85 410.25 368.1 411 368.25 411.25 368.35 411.5 368.5 411.75 368.6 412 368.75 412.25 368.85 412.5 369.1 412.85 369.35 413.5 369.5 413.75 369.6 413.85 376.1 427.35 378.25 431 378.1 431.35 385.1 446 385.1 446.1 385.25 446.35 385.35 446.6 394.85 466.6 395 466.85 395.1 467.1 395.25 467.35 395.35 467.6 397 470.75 397.1 471 397.6 472 397.75 472.1 397.75 472.25 402.5 482.25 403.35 483.35 403.5 484.25 404.5 485.6 404.6 486.5 406 489.6 406.1 490 409.35 496.5 409.85 496.85 409.85 497 410 497.35
Q 411.25 501.25 412.5 501.5
L 412.5 503.35 412.6 503.35 421.85 522.75 422 523 422.1 523.25 422.5 524 422.6 524.25 422.75 524.5 422.85 524.75 423 525 423.1 525.25 423.75 526.35 423.85 526.6 424 526.85 424.1 527.1 437 553.85 437 554 437.1 554.25 437.25 554.5 447.35 575.85 447.5 576 450.1 576.85 450.25 577 460.25 580.35 454.85 571.85 454 567.85 453.25 566.25 452.85 560.35 465.6 577 465.75 582.35 465.85 582.5 469.5 583.75 475.1 578.5 472.85 576 473.75 563.25 474.35 560.1 483.85 571.25 484.6 570.75 484.85 570.5 489.75 567 483 559.25 482.6 558.35 481 557 480.75 556.25 475.75 550.1 477.85 540 477.85 539.85 478.6 537.25 478.6 537 480.25 532.25 491.1 543.75 496.35 550 494.85 556.5 494.25 557.6 494 559.75 494 559.85 493.85 560.25 493 563.35 493 563.6 492.5 564.85 492.6 564.85 492.75 564.6 501.5 558.35 501.5 558.25 501.85 556.85 502.25 556.75 502.75 557.35 508.75 553 504.75 548.25 506.75 541.75 512.5 527 513.5 527.75 522.85 538.85 524.25 529.25 524.1 529 524.1 528.85 523.1 527.85 523.1 527.75 522.35 526.85 522.25 526.6 515.85 518.75 518.75 511.1 525.6 495.35 527.6 497.5 527.75 497.75 529.35 487.1 529.35 486.85 530 484.25 531.25 482.35 532.6 478.35 534.5 474.5 539.85 462 542.6 465.5 548.75 475.35 544.85 486.5 544.75 487.75 542.75 492.75 542.6 493.35 541.5 502.25 541.5 502.5 541.25 502.75 538.5 525.85 541.6 517.85 546.35 526.25 548.6 531.6 542 555.6 535.6 545.25 534.5 548.85 531.5 552 532.35 553 539 565.1 532.35 587.25 526.85 578.75 526.6 578.5 524.6 575.35 524.5 575.25 523 573 522.85 572.6 528.25 555.5 518.25 562.85 517.6 564.75 516.75 564 516.35 564.25 511.35 568 515.25 573.35 513.5 580.1 513 580.85
Q 512.6 584.85 511.6 586.75
L 511.75 587.5 511.1 588.85 510.35 593.85 500 579.6 498.25 577.75 488.25 585.1 488.25 585.35 488.1 586.6 487.35 590 487.5 590.1 493.25 592.1 493.6 592.25 494.75 584.85 503.25 595.6 515.25 599.85 516.25 594.85 520.35 580.6 520.6 580.5 527.35 590.6 530.5 596.25 528.75 604.6 534.35 606.6 535 605.25 535.85 607.1 540.5 609 540.6 618.5 541.5 620.6 540.6 623.75 540.5 641 533.75 644.5 533.5 644.6 534 645.1 535.85 650.1 536.5 651.25 536.6 657.6 537.1 657.25 538.1 653.85 540.5 649.1 542.1 646.85 545.25 631.25 546 632.25 547.85 637.5 548 643 548.6 644.75 547.85 648.35 547.75 698 548.5 702.35 547.75 710.85 547.75 720.25 549.85 764.75 550 765.25 550.35 765.1 550.6 764 550.6 763.6 550.75 763.35 554.6 745 554.75 743.85 555.35 730 555.1 728.6 555.1 728.25 555.25 727 555.6 718.6 556.35 714.35 556.1 713.6 557.1 705.6 558 687.35 557.35 670.5 558.85 660.85 558.6 656 559 652.85
Q 558.1 653.25 557.6 659
L 559.6 585 557.35 595.5 555.35 586.75 559.25 569.85 560 572.75 561.25 534.1 559.75 539.85 556.35 530.25 562 509.75 562.35 497.5 562.75 497.1 562.5 495.35 562.85 493.1 562.75 485.5 563.1 485.25 563 480.85 562 483.6 557.85 473.6 557.35 473.1 563.85 452.5 564.85 428.6 564.6 427.1 564.35 427 559.85 418.35 558.35 416.25 565.6 395.85 566.6 371.1 565.75 370.5 564 367.85
Q 562 370.1 559.85 370.35
L 556 370.5 555.5 370.35 551.35 368.6 550.35 370 545.6 372.25 542.85 379.25 536.6 392.25 531.6 388.5 527 388.6 524 387.5 522.75 386.75 518.85 389.75 531.6 400.6 525.5 411.25 518.25 425.5 514.1 421.6 502 411.85 513.25 393.1 509.1 394.85 503.35 395.25 502 395.1 494.35 406.1 483.85 399 476.1 392.5
M 561 378.25
L 563.25 382.6 560.5 392.1 553 408.5 547.25 402 542.5 397.35 550.85 379.6 555.1 371.5 561 378.25
M 538 406.5
L 541.6 410 548.75 419.25 538.35 446.1 525.25 432.35 538 406.5
M 555.5 428.75
L 559 434.25 561.1 439.75 558.6 449.35 552.5 464.35 543.75 452.6 554.1 427.25 555.5 428.75
M 514.1 434.6
L 510.25 443.35 502 458.35 490.5 447.75 484.35 442.6 487.85 435.85 496.85 420.35 502.25 424.35 514.1 434.6
M 491.1 481.25
L 488 488.85 470 471.25 472.25 465.85 475.75 459.1 475.75 458.5 476.1 458.35 479.75 451.35 484 454.6 497.75 467.1 491.1 481.25
M 553.5 484.5
L 557.35 491.75 559 497.25 556.85 506.25 552 520.25 547 511.25 545 508.35 553.5 484.5
M 487.75 511
L 490.85 504 494.6 507.35 506.5 520.1 503.25 528.5 502.6 531.1 500.5 536.5 499.75 539.85 499 541.25 487 527.25 483.25 523.5 487.75 511
M 556.75 555
L 555 564 551.6 575.75 546.35 564.25 552.85 542.25 555.6 549.1 556.75 555
M 541.5 580.1
L 543.5 574.5 544.75 576.85 548.6 588.1 543.85 610.1 538.35 598 537.25 596.25 541.5 580.1
M 468.85 400
L 472.6 402.35 489.1 414.5 483.5 423.85 477 436.5 462.1 423.75 456.6 419.5 468.85 400
M 451.6 427.85
L 456.85 431.85 472.35 445 470.5 449.1 468.25 452.85 463 464.85 448.85 453 443 446.6 442.25 446.25 444.35 441.1 451.6 427.85
M 435 465.6
L 438.85 454.85 459 473.35
Q 459.35 474.1 457 478.85
L 452.35 490.75 433.35 471.6 435 465.6
M 551.35 603.6
L 552.25 601.1
Q 552.6 604.5 553.35 604.75
L 554.6 613 552.85 623.6 551.1 630.5 547.6 620 551.35 603.6
M 555.6 636.6
L 556.5 633.5 557 638.35 555.25 649.35 554.25 644.85 555.6 636.6
M 550.25 669.85
L 550 669.35 551.35 662.5
Q 553.75 667.25 550.6 684.5
L 549 677.6 550.25 669.85
M 556.25 706.1
L 556 703.85 556.25 694 556.75 689.85 557 701.5 556.25 706.1
M 550 733.25
L 549.85 734.75 549.6 733.75 550 733.25
M 520.75 441.25
L 521.25 441.1 527.6 447.6 528.25 448.1 529 449 529.35 449.75 529.75 449.75 530.1 450.25 534.1 455.1 529.35 464.75 523.35 479 522.85 479.5 515.25 471.25 508.85 465.1 512.35 457.5 520.75 441.25
M 496.85 489.85
L 504.75 473.5 508.75 477.1 519.6 488.35 516.35 497 509.85 511.6 500.25 501 494.6 495.35 496.85 489.85
M 407.25 442.5
L 409.35 431.5 410.6 428 431.1 447.5
Q 431.5 448.1 429.5 452.85
L 426 464 425.85 464.25 407.25 442.5
M 423.75 472.25
L 421.5 485 411 473.25 410.1 471.35 405.85 465.25
Q 404 461.5 406.1 452.6
L 423.75 472.25
M 411.25 488.5
L 409.75 486.75 408.1 478.25 420.75 495 421.5 503.25 421.5 504.35 411.35 489.25 411.25 488.5
M 430.5 483.6
L 431.25 480.5 449.35 499.6 449.25 501 446.25 515 446.1 515.35 446 515.75 429.5 495 430.5 483.6
M 460 494.35
L 460.6 492.5 460.6 492.35 465.85 480 473.6 486.85 484.35 497.5 482 504 481.25 505.1 479.85 509.85 479.5 510 479.6 510.75 478.6 512.5 478 515.25 477.25 516.85 465 505 459 498.1 459.85 494.85 459.85 494.6 460 494.35
M 383.85 432.6
L 382.6 423.35 396.75 441.6 397.35 442 397.6 442.75 397.5 452.5 383.85 432.6
M 398.75 464.25
L 399 466.6 399 467.35 394.6 458.5 398.75 464.25
M 455.35 511.25
L 456.5 507.35 474 525.35 474.35 525.85 469.6 542.25 459.35 530.35 453.1 523.75 455.35 511.25
M 451.6 536
L 452 533.5 467.75 552 466.25 565.85 466.25 566.25 466.1 567.25 451.85 547.6 451.6 536
M 429.75 514.6
L 429.1 513.1 429.25 506.1 444.5 524.35 444.75 524.75 443.75 536.6 435 526 430.35 518.5 429.75 514.6
M 435.85 540.75
L 434.25 534.1 444.1 548 445.25 555.6 435.85 540.75 Z"/>

<path fill="#000000" stroke="none" d="
M 546 632.25
L 545.25 631.25 542.1 646.85 540.5 649.1 538.1 653.85 537.1 657.25 536.6 657.6 536.5 651.25 535.85 650.1
Q 535.35 654.75 534.75 655.1
L 534.25 666.5 534.25 683.1 534.35 683.35 534.1 719.75 534.6 725 534.35 727 534.5 727.25 535.1 739.6 535.35 740.1 535.1 742.35 535.25 743.1 535.85 750 535.6 750.35 535.6 751.25 535.75 751.6 535.75 753.6 535.85 753.85 535.75 754.35 535.85 755.25 536.6 764.75 538.75 811.1 532.35 813.1 529 815.35 525.5 819.85 524.5 821.75 521.5 829.1
Q 515.35 810.35 503.25 808.35
L 500.5 781.35 488.1 847.25 513.25 841.85
Q 516.25 840.85 517.1 839.85 510.5 858.35 518.35 874.1 532.1 878.5 538.85 871.25 567 840.6 566 834.25 567 817.75 552.35 812
L 550 767 550 765.25 549.85 764.75 547.75 720.25 547.75 710.85 547.75 698 547.85 648.35 548 643 547.85 637.5 546 632.25
M 406.1 490
L 406 489.6 404.6 486.5 404.5 485.6 403.5 484.25 400.85 492.75 386.75 548.1 385.35 551.5 376.1 567.85 391.1 569.5 398.5 556.25
Q 398.85 553.75 400.25 551.6
L 412.5 503.35 412.5 501.5
Q 411.25 501.25 410 497.35
L 409.85 497 409.85 496.85 409.35 496.5 406.1 490
M 534.5 474.5
L 532.6 478.35 531.25 482.35 530 484.25 529.35 486.85 529.35 487.1 527.75 497.75 527.85 497.85 524.1 528.85 524.1 529 524.25 529.25 522.85 538.85 523 539.1 522.5 542.25 518.5 546 508.75 553 502.75 557.35 502.35 557.75 501.5 558.25 501.5 558.35 492.75 564.6 492.6 564.85 492.5 564.85 489.75 567 484.85 570.5 484.6 570.75 483.85 571.25 479 574.85 475.1 578.5 469.5 583.75 483 588.5 488.25 585.1 498.25 577.75 511.35 568 516.35 564.25 516.75 564 518.25 562.85 528.25 555.5 531.5 552 534.5 548.85 535.6 545.25 537.75 534.5 538.5 525.85 541.25 502.75 541.5 502.5 541.5 502.25 542.6 493.35 542.75 492.75 543.35 484.75 545.1 471.35 544.5 469.6
Q 542.25 468.35 534.5 474.5
M 333 288.6
L 333 289 334.5 291.75 334.6 292 335.25 292.75 337.75 294.6 340.5 295.35
Q 346.6 296.5 347.1 290.5 347.1 280.6 343.1 277.5 333.75 275.85 332.75 287.25
L 333 288.6
M 347.35 254.5
L 348 253.75
Q 344.6 249 339.25 251.1
L 336.6 253.1 333.5 257.1 333.25 259.1 334.5 259.75 336.85 255.75
Q 338.85 253.25 340.85 252.25
L 344.25 252.85 347.35 255.6 347.35 254.5
M 417.6 262.6
Q 430.25 253.75 444.75 264.75
L 444.6 263.25 445 262.25
Q 430.35 250.5 417.1 260.6
L 417.25 262.35 417.6 262.6
M 432 295.1
Q 428.25 285.85 421.85 287 415.75 287.1 413.6 294.85 415 307 424.35 305.5 432.75 303.35 432 295.1 Z"/>

<path fill="#805C42" stroke="none" d="
M 454.5 684.85
L 452.5 684.75 428.75 918.75 479.35 893.25 488.1 847.25 500.5 781.35 506 752 513.35 713 513.35 712.85 517.6 689.85 519.1 682.25 520 677.6 520.1 676.6 525.1 648.85 458 683.35 454.5 684.85 Z"/>

<path fill="#BA8A71" stroke="none" d="
M 222.25 660.1
L 251 663.1 452.5 684.75 454.5 684.85 458 683.35 525.1 648.85 525.85 648.5 533.5 644.6 533.75 644.5 540.5 641 540.6 623.75 540.6 618.5 540.5 609 535.85 607.1 534.35 606.6 528.75 604.6 515.25 599.85 503.25 595.6 493.6 592.25 493.25 592.1 487.5 590.1 487.35 590 483 588.5 469.5 583.75 465.85 582.5 465.75 582.35 460.25 580.35 450.25 577 450.1 576.85 447.5 576 447.35 575.85 445.75 575.35 391.1 569.5 376.1 567.85 213.25 550.5 222.25 660.1
M 230.6 652.35
L 223 558.85 438.1 581.85 438.6 581.85 446.1 674.25 446.1 675.35 230.6 652.35
M 451.75 594.6
L 451.5 594.25 451.25 589.1 531.25 615.6 531.1 615.85 531.35 634.6 531.1 636.6 531.25 636.85 458.85 674 451.85 594.85 451.75 594.6
M 460.85 603.85
L 456.6 603.5 463.25 661.75 464.6 661.35 529.85 633 529.85 622.35 460.85 603.85
M 232.25 567
L 231 568.25 237.5 645.85 434.75 667 436.25 665.85 429.5 588.25 232.25 567 Z"/>

<path fill="#9A755A" stroke="none" d="
M 566.6 364.75
L 566.6 371.1 565.6 395.85 565.85 396 565.5 408.25 565.1 410.6 565.35 410.75 565 425.6 564.35 427 564.6 427.1 564.85 428.6 563.85 452.5 564.1 453.1 563.85 461.35 563.5 462 563.75 463.6 563 480.85 563.1 485.25 562.75 485.5 562.85 493.1 562.5 495.35 562.75 497.1 562.35 497.5 562 509.75 561.25 534.1 560 572.75 559.75 584.35 559.6 584.75 559.6 585 557.6 659
Q 558.1 653.25 559 652.85
L 558.6 656 558.85 660.85 557.35 670.5 558 687.35 557.1 705.6 556.1 713.6 556.35 714.35 555.6 718.6 555.25 727 555.1 728.25 555.1 728.6 555.35 730 554.75 743.85 554.6 745 550.75 763.35 550.6 763.6 550.6 764 550.35 765.1 550 765.25 550 767 551.35 767 551.75 767.25 551.6 767.75 552 767.85 555 757.1 555.6 752.75 589.6 315.1 587.75 311.1 583.1 331.5 581.1 337.1 578.75 336 570.35 343.1 570.25 343.25 564.1 348.75 567.25 347.1 567 352.6 566.85 354.5
Q 569.75 360.35 566.6 364.75
M 556 703.85
L 556.25 706.1 557 701.5 556.75 689.85 556.25 694 556 703.85
M 581.35 309.1
L 581.25 309.35 582.75 312.35 583.25 310.75 581.35 309.1
M 584 302.75
L 582.75 305.75 587.75 311.1 584 302.75 Z"/>

<path fill="#FFD3F1" stroke="none" d="
M 403.35 312.75
L 395.5 314.5 389.25 318.6 386.6 320 381.1 322 380.25 322.85 376.75 320.25 373.25 318.5 369.25 315.85 363.1 310.35 356 306.6 350 304.35
Q 348.1 305.25 345.1 305
L 342.25 306.85 340.6 310.1 337.1 315.1 336.1 314.25 334.1 309.1 331.25 303.6
Q 330 300.75 330.25 299.75
L 329.25 298
Q 327 297 321.1 299.35
L 316.1 304.1
Q 314.5 303.75 310.85 310.25
L 309.85 313.25 308.5 321.1 309.1 324.35 307.5 327.75 306.75 331.85
Q 307.35 338.6 311 343.25
L 316.5 346.6 316.6 352.75 317.85 356.35
Q 315.85 367.35 322.75 377.75
L 326.1 380.5 330.6 383 336 384.25 340.25 384.35 344.25 385.5 346.25 386.6
Q 345.85 404 364.5 409.25
L 367.85 410.25 371 410.1 371.25 410.25 373.25 410.1 374.5 409.75 380 408.85 381.35 408.5 384.5 407.5 388.25 405.6 392 403.6 397.25 408.35 401.85 411.75 403 412.1 405.75 414.1 412.1 415.75 415.6 415.75 420.85 415.5 424.1 414 426.35 413.35 430.1 410.75 433.85 407.25 436.75 405.35 438.75 403.85 443.85 402.75 445.6 401.85 449.1 401.1 451.85 401 458 398.85 465.75 393.1 468 390.85 475.6 385.85 478.1 385.6 482.75 387.1 483.6 387.85 482 388.85
Q 482.5 390.6 487.35 392.6
L 502 395.1 503.35 395.25 509.1 394.85 513.25 393.1 515.75 392 518.85 389.75 522.75 386.75 524 387.5 527 388.6 531.6 388.5
Q 540.75 388 543.85 372.85
L 545.6 372.25 550.35 370 551.35 368.6 555.5 370.35 556 370.5 559.85 370.35
Q 562 370.1 564 367.85
L 565.25 366.85 566.6 364.75
Q 569.75 360.35 566.85 354.5
L 566.1 353.25 565.6 352.25 562.6 350 561.75 349.75 560.85 348.35 560.6 348 559.5 346.85
Q 560.85 345.5 560.75 341 561.25 340.5 560.5 337.1
L 558.5 332.5
Q 553.25 327.35 549.35 327.5
L 544.5 326.6
Q 537.35 327.1 536.6 326.35
L 532.25 327.25 530.1 326.35 524.35 325.75 518.25 326.5
Q 508.85 329.25 506.5 336.35
L 503.75 335.25
Q 503.85 329.35 495.85 320.75
L 492.75 319 489.75 317.85 483.25 317 474.5 318.25 473 319 467 322.85 462 327 460 329.5 455.75 330.25 451.35 330.5 448.1 329.25
Q 445 325.85 444.25 326.1
L 438.85 325.35 438.25 325 435.1 323.75 431.35 320.25
Q 428.1 318.75 425.75 316.1
L 422.85 314.6 419.25 314 413.5 312.25 403.35 312.75
M 352.1 369.35
L 351 368.35 355.25 363.85
Q 361.1 369 372.35 365.35
L 375.6 367.25
Q 381.5 370.6 401.25 369.75
L 397.75 373.5 396.85 374.25 396 374.35 383 377.75 382.75 377.75 382.35 377.85 382 378 381.6 378.1 381.5 378.25 381 378.35 380.85 378.35 380.6 378.5 380 378.75 379.75 378.75 377.75 379.5 377.35 379.6 376.25 380 369.5 376.75 369.25 376.6 369 376.5 368.75 376.35 352.1 369.35 Z"/>

<path fill="#FFBBD5" stroke="none" d="
M 351 368.35
L 352.1 369.35 368.75 376.35 369 376.5 369.25 376.6 369.5 376.75 376.25 380 377.35 379.6 377.75 379.5 379.75 378.75 380 378.75 380.6 378.5 380.85 378.35 381 378.35 381.5 378.25 381.6 378.1 382 378 382.35 377.85 382.75 377.75 383 377.75 396 374.35 396.85 374.25 397.75 373.5 401.25 369.75
Q 381.5 370.6 375.6 367.25
L 372.35 365.35
Q 361.1 369 355.25 363.85
L 351 368.35
M 366.75 174.6
L 366.35 173.85 366.25 173.5 366 173.35
Q 342.5 193.25 330.5 230 320.6 258 329.25 298
L 330.25 299.75
Q 330 300.75 331.25 303.6
L 334.1 309.1 336.1 314.25 337.1 315.1 340.6 310.1 342.25 306.85 345.1 305
Q 348.1 305.25 350 304.35
L 356 306.6 363.1 310.35 369.25 315.85 373.25 318.5 376.75 320.25 380.25 322.85 381.1 322 386.6 320 389.25 318.6 395.5 314.5 403.35 312.75 413.5 312.25 419.25 314 422.85 314.6 425.75 316.1
Q 428.1 318.75 431.35 320.25
L 435.1 323.75 438.25 325 438.85 325.35 444.25 326.1
Q 445 325.85 448.1 329.25
L 451.35 330.5 455.75 330.25 460 329.5 462 327 467 322.85 473 319 474.5 318.25 483.25 317 489.75 317.85 492.75 319 495.85 320.75
Q 503.85 329.35 503.75 335.25
L 506.5 336.35
Q 508.85 329.25 518.25 326.5
L 524.35 325.75 530.1 326.35 532.25 327.25 536.6 326.35
Q 537.35 327.1 544.5 326.6
L 549.35 327.5
Q 557.5 294.25 549.1 254.75
L 547.85 250.85 547.6 247.35 546.5 244.85 545.35 239.75 542.1 231.5 540.6 228.75 539 224.35 537 221 536 218.1 533.75 214.5 531.75 209.85 529.6 206.85 527.85 202.85 524.85 198.35 524.1 196.25
Q 503 166 484.85 155.5 460 139.85 439.1 141 442.75 143.85 434.6 150.6
L 423.5 158 408 166 393.5 171.75 380.85 175.5
Q 369.1 178.5 366.75 174.6
M 421.85 287
Q 428.25 285.85 432 295.1 432.75 303.35 424.35 305.5 415 307 413.6 294.85 415.75 287.1 421.85 287
M 444.75 264.75
Q 430.25 253.75 417.6 262.6
L 417.25 262.35 417.1 260.6
Q 430.35 250.5 445 262.25
L 444.6 263.25 444.75 264.75
M 348 253.75
L 347.35 254.5 347.35 255.6 344.25 252.85 340.85 252.25
Q 338.85 253.25 336.85 255.75
L 334.5 259.75 333.25 259.1 333.5 257.1 336.6 253.1 339.25 251.1
Q 344.6 249 348 253.75
M 333 289
L 333 288.6 332.75 287.25
Q 333.75 275.85 343.1 277.5 347.1 280.6 347.1 290.5 346.6 296.5 340.5 295.35
L 337.75 294.6 335.25 292.75 334.6 292 334.5 291.75 333 289
M 560.5 337.1
Q 561.25 340.5 560.75 341 570.5 332.6 573.1 324.6
L 570.1 327.25 565.75 329.75 558.5 332.5 560.5 337.1 Z"/>

<path fill="#000006" stroke="none" d="
M 366.35 173.85
L 366.75 174.6
Q 369.1 178.5 380.85 175.5
L 393.5 171.75 408 166 423.5 158 434.6 150.6
Q 442.75 143.85 439.1 141
L 438.1 139 430.85 124.85 421.75 131.35 417 134.1 359.75 160.6 366 173.35 366.25 173.5 366.35 173.85 Z"/>

<path fill="#FFDF11" stroke="none" d="
M 328.85 144.6
L 328.25 145 326.85 145.75 326.6 145.85 326.5 145.85 326.1 146.1 326 146.25 322.35 148.25 322.1 148.35 321.85 148.5 321.35 148.6 321.25 148.75 321 148.85 320.85 149 318.1 150.35 313 154.1 306.85 157.25 306 158.6 304 160.5 301.35 166 299.5 173.1 298.35 182 298.1 191.5 298.75 203.5 302.1 229.1 302.5 244.5 300.85 261.1 300.35 270.25 299 277.85 299 278.1 298.75 279 298.6 279.35 298.6 279.5 298.25 280.5 298.25 280.75 298.1 281 298.1 288.1
Q 303.25 290.35 307.25 289.85
L 307.25 282.85 306 276.25 306.1 263.85 307.35 242.85 307.35 233.75 303.6 206.75 302.6 194.35 302.6 184.1 303.5 175.6 304.85 169.5 305.75 167.6 307 164.6 307.25 162.75 309.85 161.1 315.85 158.35 319.85 155.1 338 144.75 358.1 128.35
Q 357.5 128 354.75 129.85
L 353.1 130.75 352.75 131 352.5 131.1 351.5 131.75 351.25 131.85 350.6 132.25 350.35 132.5 350.1 132.5 350.1 132.6 350 132.6 349.75 132.85 349.6 132.85 349 133.25 348.75 133.35 347.75 134 347.5 134.1 347.35 134.25 347 134.5 346.75 134.6 344 136.35 343.6 136.5 342.85 137 342.6 137.1 342.35 137.35 342 137.6 341.1 138.1 340.75 138.35 340.6 138.35 340.25 138.6 340.1 138.75 335.85 141.25 335.6 141.35 335.35 141.5 333 142.6 332.75 142.75 331.35 143.35 331.1 143.5 329.1 144.5 328.85 144.6 Z"/>

<path fill="#121835" stroke="none" d="
M 442.1 84.75
L 439.5 85.25 416.75 95.35 358.5 122.35 354 125 321.35 148.6 321.85 148.5 322.1 148.35 322.35 148.25 326 146.25 326.1 146.1 326.5 145.85 326.6 145.85 326.85 145.75 328.25 145 328.85 144.6 329.1 144.5 331.1 143.5 331.35 143.35 332.75 142.75 333 142.6 335.35 141.5 335.6 141.35 335.85 141.25 340.1 138.75 340.25 138.6 340.6 138.35 340.75 138.35 341.1 138.1 342 137.6 342.35 137.35 342.6 137.1 342.85 137 343.6 136.5 344 136.35 346.75 134.6 347 134.5 347.35 134.25 347.5 134.1 347.75 134 348.75 133.35 349 133.25 349.6 132.85 349.75 132.85 350 132.6 350.1 132.6 350.1 132.5 350.35 132.5 350.6 132.25 351.25 131.85 351.5 131.75 352.5 131.1 352.75 131 353.1 130.75 354.75 129.85
Q 357.5 128 358.1 128.35
L 338 144.75 319.85 155.1 315.85 158.35 309.85 161.1 307.25 162.75 307 164.6 305.75 167.6
Q 307.1 171.85 308.75 171.1
L 334.1 171.6 339.1 170.1 359.75 160.6 417 134.1 421.75 131.35 430.85 124.85 472 95
Q 473.25 93.25 468.1 85.35
L 442.1 84.75 Z"/>

<path fill="#E582A8" stroke="none" d="
M 558.25 175.6
Q 529.85 147.25 500.5 140.25 466.35 131.5 438.1 139
L 439.1 141
Q 460 139.85 484.85 155.5 503 166 524.1 196.25
L 524.85 198.35 527.85 202.85 529.6 206.85 531.75 209.85 533.75 214.5 536 218.1 537 221 539 224.35 540.6 228.75 542.1 231.5 545.35 239.75 546.5 244.85 547.6 247.35 547.85 250.85 549.1 254.75
Q 557.5 294.25 549.35 327.5 553.25 327.35 558.5 332.5
L 565.75 329.75 570.1 327.25 573.1 324.6 577.1 318.1 581.25 309.35 581.35 309.1 582.75 305.75 584 302.75
Q 595.75 267.6 588.85 235.35 578.6 195.35 558.25 175.6 Z"/>
</g>
</defs>

<g transform="matrix( 0.3966217041015625, 0, 0, 0.3966217041015625, 92.5,-14.45) ">
<use xlink:href="#Layer0_0_FILL"/>
</g>
</svg>
