<svg xmlns="http://www.w3.org/2000/svg" viewBox="0 0 341.76 35.27"><defs><style>.cls-1{fill:#fff;}</style></defs><title>logo-white</title><g id="Layer_2" data-name="Layer 2"><g id="Layer_1-2" data-name="Layer 1"><g id="Layer_2-2" data-name="Layer 2"><g id="Layer_1-2-2" data-name="Layer 1-2"><path class="cls-1" d="M162.31,18.22c0-3.68,2.62-6.27,5.72-6.27a4.14,4.14,0,0,1,3.36,1.4l.38-1.37h1.62V16.7h-1.78c-.72-2.18-1.73-3.27-3.22-3.27-1.69,0-2.88,1.24-2.88,4.62s1.24,4.62,3.27,4.62c1.78,0,2.8-1.35,3.11-3.33h1.73c-.31,3.06-2,5-5.25,5a5.75,5.75,0,0,1-6.06-6.12Z"/><path class="cls-1" d="M183.76,20.29h-4L179,22.5h1.49v1.56h-4.55V22.5h1.29L181,12.17H184l3.75,10.33h1.4v1.56h-6.2V22.5h1.6Zm-3.56-1.42h3.09l-1.49-4.42h-.07Z"/><path class="cls-1" d="M196,22.5h1.67v1.56h-6.22V22.5H193V13.8h-1.62V12.24h6.49c3.58,0,4.78,1.51,4.78,3s-.88,2.59-3.67,2.91v.13c2.27.2,3,1.2,3.06,2.61l.05.7c0,.77.2,1,.56,1s.47-.25.72-1.06l1.06.34c-.34,1.42-1.06,2.5-2.68,2.5-1.85,0-2.68-1-2.68-3v-.61c0-1.31-.32-1.85-1.65-1.85H196Zm1.56-5c1.4,0,2-.54,2-1.91s-.41-1.82-2-1.82H196v3.72Z"/><path class="cls-1" d="M206.31,22.5h1.62V13.8h-1.62V12.24h11.25v4.21H216c-.45-2.25-.72-2.68-2.23-2.68h-2.91v3.58h1c1,0,1.1-.2,1.35-1.65h1.4v4.8h-1.4c-.22-1.47-.36-1.69-1.35-1.69h-1v3.74h2.84c1.82,0,2-.65,2.46-3.15h1.56v4.67H206.31Z"/><path class="cls-1" d="M220.82,22.5h1.62V13.8h-1.62V12.24h11.25v4.21h-1.56c-.45-2.25-.72-2.68-2.23-2.68h-2.91v3.58h1c1,0,1.1-.2,1.35-1.65h1.4v4.8h-1.4c-.22-1.47-.36-1.69-1.35-1.69h-1v3.74h2.84c1.82,0,2-.65,2.46-3.15h1.56v4.67H220.82Z"/><path class="cls-1" d="M239.87,22.5h1.67v1.56h-6.22V22.5h1.62V13.8h-1.62V12.24h6.49c3.58,0,4.78,1.51,4.78,3s-.88,2.59-3.67,2.91v.13c2.26.2,3,1.2,3.06,2.61l.05.7c0,.77.2,1,.56,1s.47-.25.72-1.06l1.06.34c-.34,1.42-1.06,2.5-2.68,2.5-1.85,0-2.68-1-2.68-3v-.61c0-1.31-.32-1.85-1.65-1.85h-1.47Zm1.56-5c1.4,0,2-.54,2-1.91s-.41-1.82-2-1.82h-1.62v3.72Z"/><path class="cls-1" d="M255.31,18.22c0-3.68,2.62-6.27,5.72-6.27a4.14,4.14,0,0,1,3.36,1.4l.38-1.37h1.62V16.7h-1.78c-.72-2.18-1.73-3.27-3.22-3.27-1.69,0-2.88,1.24-2.88,4.62s1.24,4.62,3.27,4.62c1.78,0,2.8-1.35,3.11-3.33h1.73c-.31,3.06-2,5-5.25,5a5.75,5.75,0,0,1-6.06-6.12Z"/><path class="cls-1" d="M269.43,22.5H271V13.8h-1.62V12.24h11.25v4.21h-1.56c-.45-2.25-.72-2.68-2.23-2.68H274v3.58h1c1,0,1.1-.2,1.35-1.65h1.4v4.8h-1.4c-.22-1.47-.36-1.69-1.35-1.69h-1v3.74h2.84c1.82,0,2-.65,2.46-3.15h1.56v4.67H269.43Z"/><path class="cls-1" d="M287.26,15.06h-.16V22.5h1.62v1.56H284V22.5h1.55V13.8H284V12.24h5l5,8.27h.16V13.8H292.5V12.24h4.76V13.8h-1.55V24.23h-3Z"/><path class="cls-1" d="M302.32,22.5h1.85V13.59h-.45c-1.46,0-1.76.49-2.43,3.42h-1.42V12.24h11.54V17H310c-.67-2.93-1-3.42-2.43-3.42h-.45V22.5H309v1.56h-6.65Z"/><path class="cls-1" d="M314.2,22.5h1.62V13.8H314.2V12.24h11.25v4.21h-1.56c-.45-2.25-.72-2.68-2.23-2.68h-2.91v3.58h1c1,0,1.1-.2,1.35-1.65h1.4v4.8h-1.4c-.22-1.47-.36-1.69-1.35-1.69h-1v3.74h2.84c1.81,0,2-.65,2.46-3.15h1.56v4.67H314.2Z"/><path class="cls-1" d="M333.25,22.5h1.67v1.56h-6.21V22.5h1.62V13.8h-1.62V12.24h6.49c3.58,0,4.78,1.51,4.78,3s-.88,2.59-3.67,2.91v.13c2.27.2,3,1.2,3.06,2.61l0,.7c0,.77.2,1,.56,1s.47-.25.72-1.06l1.06.34c-.34,1.42-1.06,2.5-2.68,2.5-1.85,0-2.68-1-2.68-3v-.61c0-1.31-.32-1.85-1.65-1.85h-1.47Zm1.56-5c1.4,0,2-.54,2-1.91s-.41-1.82-2-1.82h-1.62v3.72Z"/><path class="cls-1" d="M90.07,5V6.46c3.63.42,4.44,1.76,4.44,5.32V23h-.19L80.7,5H62.86V6.46c3.64.42,4.44,1.76,4.44,5.32V21.3c0,2.87-.57,4.29-1.84,5.59a6,6,0,0,1-4.4,1.64c-4.09,0-6.62-1.91-6.62-6.39v-14c0-1.26.69-1.53,3.33-1.64V5H42.27a28.25,28.25,0,0,1-3.19-.12c-.8-.12-1.73-.47-2.52-.62a14.48,14.48,0,0,0-2.66-.21,8,8,0,0,0-8.26,7.73q0,.31,0,.61c0,4.71,3.83,6.2,7.69,7.42,4.4,1.45,6.08,2.45,6.08,5.09,0,2-1.38,4.29-4.71,4.29s-5.54-1.94-7.49-6.26H25.34v7.91H27l1.28-1.15a14.93,14.93,0,0,0,5.93,1.15c6.47,0,9-4.32,9-8.57,0-4.74-3.75-6.24-7.27-7.38-4.21-1.34-6.08-2.18-6.08-4.78a3.82,3.82,0,0,1,3.63-4h.42c2.79,0,5.13,1,6.39,4.52h1.61v-.7a3.42,3.42,0,0,1,3.42-3.42h.23A3.42,3.42,0,0,1,49.21,9.7q0,.11,0,.23v12.4c0,5.62,3.9,8.49,10.33,8.49s9.76-3.71,9.76-8.65V9.94a3.64,3.64,0,0,1,7.28,0v13.5c0,3.63-.5,4.86-3.9,5.36v1.42H82.6V28.8c-3.67-.46-4.13-1.76-4.13-5.36V10.63h.14L93.88,30.87h2.51V11.77c0-3.56.27-4.82,3.67-5.32V5Z"/><path class="cls-1" d="M14.08,28.48c-4,0-8.25-3.66-8.25-11.29,0-7.44,3.47-11.26,7.4-11.26,3.35,0,5.9,2.82,7.44,7.48H22.4V4.28H20.86L19.74,5.93a13.76,13.76,0,0,0-6.4-1.66A13.12,13.12,0,0,0,0,17.17q0,.31,0,.63c0,7.6,4.66,13.07,12.68,13.07,5.51,0,8.94-3.06,10.75-7.21L22,23c-1.81,3.66-4.32,5.52-7.9,5.52"/><rect class="cls-1" x="109.76" width="0.76" height="35.27"/></g></g></g></g></svg>