<svg xmlns="http://www.w3.org/2000/svg" viewBox="0 0 316.34 901.69"><defs><style>.cls-1{isolation:isolate;}.cls-2,.cls-7{fill:#1b75bc;}.cls-3{fill:#2b3990;}.cls-4{fill:#085e9c;}.cls-5{fill:#fff;}.cls-6{fill:#e23843;}.cls-7{opacity:0.18;mix-blend-mode:multiply;}</style></defs><title>cream</title><g class="cls-1"><g id="Layer_2" data-name="Layer 2"><g id="Layer_7" data-name="Layer 7"><path class="cls-2" d="M203.24,900.26l-90.17,1.43C45.8,894.53,0,915.5,0,850.16V271.94C0,206.6,53.46,153.14,118.79,153.14h78.72c65.34,0,118.79,53.46,118.79,118.79V850.16C317.74,908.85,274.8,894.53,203.24,900.26Z"/><path class="cls-3" d="M196.08,160.3l-73,1.43c-17.72,0-28.63,7.7-28.63-10l8.59-95.89C113.07,32.92,124,0,141.69,0h50.09c11.45,4.29,22.9,34.35,30.06,51.53l8.59,98.76C230.43,168,213.8,160.3,196.08,160.3Z"/><path class="cls-4" d="M316.29,270.79c-41-50.23-98.19-67.15-90-23.7C242.54,333.92,105.88,344,0,390.26V850.16c0,9.16.9,16.62,2.63,22.7,19.47,9.77,52.72,3.53,94.12,7.93l90.17-1.43c71.56-5.73,114.5,8.59,113.07-50.09l16.32-279.09V271.94C316.31,271.55,316.3,271.17,316.29,270.79Z"/><path class="cls-5" d="M249.56,272.38C266.69,363.75,107.5,365.79,0,418.7V850.16c0,65.34,45.8,44.37,113.07,51.53l90.17-1.43c71.56-5.73,114.5,8.59,113.07-50.09V314.41C276.24,248.27,240.35,223.24,249.56,272.38Z"/><path class="cls-5" d="M159.35,217c51,0,98.15-4.2,136.65-11.34a118.92,118.92,0,0,0-98.48-52.57H118.79a118.91,118.91,0,0,0-98.21,52.17C59.47,212.69,107.43,217,159.35,217Z"/><path class="cls-6" d="M203.24,900.26c71.56-5.73,114.5,8.59,113.07-50.09V569q-2.15,5.82-4,12.61C286.77,674.26,117.65,675,0,677.4V850.16c0,65.34,45.8,44.37,113.07,51.53Z"/><path class="cls-7" d="M316.31,271.94c0-54.45-37.13-100.65-87.33-114.53a14.83,14.83,0,0,0,1.45-7.13l-8.59-98.76C214.69,34.35,203.24,4.29,191.79,0H164.11V900.88l39.12-.62c71.56-5.73,114.5,8.59,113.07-50.09Z"/><circle class="cls-6" cx="167.33" cy="512.89" r="92.36"/></g></g></g></svg>