<svg xmlns="http://www.w3.org/2000/svg" viewBox="0 0 728.78 1298.78"><defs><style>.cls-1{isolation:isolate;}.cls-2{fill:#81b4d4;}.cls-3{fill:#bc2b2a;}.cls-4{fill:#f4f4f0;stroke:#bcb7af;stroke-width:4.66px;}.cls-10,.cls-4,.cls-7,.cls-8,.cls-9{stroke-miterlimit:10;}.cls-5{fill:#c4342c;}.cls-6{fill:#fff7ea;}.cls-10,.cls-7,.cls-8,.cls-9{fill:none;}.cls-7,.cls-8{stroke:#8dc63f;}.cls-7{stroke-width:8.79px;}.cls-8{stroke-width:8.01px;}.cls-10,.cls-9{stroke:#006838;}.cls-9{stroke-width:7.82px;}.cls-10{stroke-width:8.58px;}.cls-11,.cls-12{fill:#77111b;mix-blend-mode:multiply;}.cls-11{opacity:0.09;}.cls-12{opacity:0.11;}.cls-13{fill:#231f20;}.cls-14{fill:#98bc57;}.cls-15{fill:#fff;}</style></defs><title>ketchup</title><g class="cls-1"><g id="Layer_2" data-name="Layer 2"><g id="Layer_7" data-name="Layer 7"><ellipse class="cls-2" cx="400.93" cy="1258.95" rx="327.85" ry="39.83"/><path class="cls-3" d="M404.12,1293.45l-246.92-5.59c-85.44,0-155.34-69.9-155.34-155.34L0,587.63c0-85.44,147.12-197.41,173.2-482.34H398.54c22.35,318.46,162,396.9,162,482.34l1.86,553.11C562.42,1226.18,489.56,1293.45,404.12,1293.45Z"/><rect class="cls-4" x="158.6" y="2.33" width="254.45" height="98.03" rx="11.45" ry="11.45"/><rect class="cls-5" x="18.8" y="491.55" width="526.69" height="760.89" rx="100" ry="100"/><path class="cls-6" d="M287.29,539.09c-105.73,0-191.69,47.09-193.83,105.62L119.51,701c33.56,32.15,96.13,53.78,167.77,53.78,72,0,134.8-21.82,168.25-54.23l25.59-55.32C479.5,586.47,393.35,539.09,287.29,539.09Z"/><polygon class="cls-6" points="457.49 1219.4 104.27 1219.4 42.83 703.1 523.31 703.1 457.49 1219.4"/><path class="cls-7" d="M285.18,560.17c-87.14,0-158,41.32-159.74,92.69l21.47,49.41a240.81,240.81,0,0,0,15.86,26.12H406.92c6.64-9.48,12.35-18.55,16.92-26.51l21.09-48.54C443.6,601.75,372.59,560.17,285.18,560.17Z"/><polygon class="cls-8" points="440.95 1200.5 123.36 1200.5 68.12 724.11 500.13 724.11 440.95 1200.5"/><polygon class="cls-9" points="435.21 1198.16 129.24 1198.16 76.03 726.73 492.23 726.73 435.21 1198.16"/><polygon class="cls-6" points="376.48 778.19 194.21 780.26 173.5 729.51 395.12 730.55 376.48 778.19"/><path class="cls-10" d="M285.14,564.5c-84,0-152.2,40.89-153.89,91.72l20.68,48.9A239.69,239.69,0,0,0,167.21,731H402.43c6.4-9.39,11.9-18.35,16.3-26.23l20.32-48C437.76,605.64,369.35,564.5,285.14,564.5Z"/><rect class="cls-6" x="110.19" y="732.13" width="357.56" height="107.07"/><polygon class="cls-6" points="390.98 755.14 176.19 754.01 164.83 715.37 406.89 714.23 390.98 755.14"/><rect class="cls-4" x="158.6" y="2.33" width="254.45" height="98.03" rx="11.45" ry="11.45"/><path class="cls-11" d="M398.54,105.29H281.4V1290.67l122.72,2.78c85.44,0,158.3-67.27,158.3-152.71l-1.86-553.11C560.56,502.19,420.89,423.75,398.54,105.29Z"/><path class="cls-12" d="M395.26,2.33H283.49v98H395.26a17.84,17.84,0,0,0,17.79-17.79V20.12A17.84,17.84,0,0,0,395.26,2.33Z"/><path class="cls-13" d="M101.49,794.8l1.34-5.36V753.28l-1.34-5.36h12.72l-1.34,5.36v36.16l1.34,5.36Z"/><path class="cls-13" d="M159.07,753.28V794.8h-8.7L136,766l-1.34-3.35L135,766v23.43l1.34,5.36H124.92l1.34-5.36V753.28l-1.67-5.36h13.06l11.72,23.43,1.34,3.35-.33-3.35V753.28L149,747.93h11.38Z"/><path class="cls-13" d="M195.9,756.63h-6l-.67.67v31.47l2,6H177.15l2-6V757.3l-.67-.67h-6l-7,2.34,3.68-11h30.13l3.68,11Z"/><path class="cls-13" d="M235.4,794.8H207.95l1.34-5.36V753.28l-1.34-5.36h26.78l3.35,10-6-2H220l-.67.67v8l.67.67h5.69l5-1.67V775l-5-1.67H220l-.67.67v11l1,1h11.72l7-2.34Z"/><path class="cls-13" d="M268.88,794.8l-5.69-17.41-1.34-.67h-5l-.67.67v12.05l1.34,5.36H244.77l1.34-5.36V753.28l-1.34-5.36h27.45l8,8v11.38l-7.37,7.37,5,13.73,3.68,6.36Zm.67-34.48-1.34-2.68L264.86,756h-8l-.67.67V768l.67.67h8l3.35-1.67,1.34-2.68Z"/><path class="cls-13" d="M320.1,753.28,307.38,794.8h-8.7L286,753.28l-2.68-5.36H297l-.67,5.36,6.7,24.1.33,2.68.33-2.68,6.7-24.1-.67-5.36h13.06Z"/><path class="cls-13" d="M327.13,794.8l1.34-5.36V753.28l-1.34-5.36h12.72l-1.34,5.36v36.16l1.34,5.36Z"/><path class="cls-13" d="M378,794.8H350.56l1.34-5.36V753.28l-1.34-5.36h26.78l3.35,10-6-2H362.61l-.67.67v8l.67.67h5.69l5-1.67V775l-5-1.67h-5.69l-.67.67v11l1,1h11.72l7-2.34Z"/><path class="cls-13" d="M437.27,753.28,425.22,794.8h-6.9L410.82,767l-.33-2.34-.33,2.34-7.5,27.79h-6.9L383.7,753.28,381,747.93h13.39l-.67,5.36L399.1,772l.33,2.68.33-2.68,6.7-24.1h8.7l6.7,24.1.33,2.68.33-2.68,5.36-18.75-.67-5.36h12.72Z"/><path class="cls-13" d="M463.72,794.8H445.3l-3.68-11,6.83,2.34h9.24l2.68-1.34,1.34-2.68v-4.35l-2.34-2.34-10-2.34L443,766.68v-10l8.7-8.7h17.41l3.35,10-6-2h-8.71L455,757.3,453.67,760v2.68L456,765l10,2.34,6.36,6.36v12.39Z"/><path class="cls-3" d="M416.71,976.62c0,62.08-58.25,112.41-130.1,112.41S156.5,1038.7,156.5,976.62c0-37.19,7.2-72.61,51.1-92,32.16-14.19,73.8,2.46,73.8,2.46s25-18.74,75.81-5.12C397,892.63,416.71,937.82,416.71,976.62Z"/><polygon class="cls-14" points="338.85 890.21 302.37 891.26 285.34 908.93 270.28 887.53 226.31 887.18 265.92 873.2 249.61 858.45 287.67 873.98 328.06 865.44 317.19 877.86 338.85 890.21"/><path class="cls-13" d="M197.11,642.49c-2.83.36-4.24.54-7.07.93l-.79,1,4.86,35.28c1.69,3.36,2.52,5,4.18,8.42-9,1.19-13.45,1.87-22.38,3.38.59-3.71.89-5.57,1.51-9.28L171.65,647l-1-.69c-2.82.47-4.22.71-7,1.2-3.54,1.83-5.31,2.76-8.81,4.63,1.13-7.12,1.73-10.68,3-17.81q20.43-3.71,41-6.2c3.3,6.44,4.91,9.66,8.09,16.13C203,643.56,201,643.19,197.11,642.49Z"/><path class="cls-13" d="M254.28,630.49c-4.87,10.11-9.59,20.24-14.19,30.47l.9,14c1.44,3.48,2.15,5.22,3.55,8.7-8.85.53-13.27.87-22.09,1.71.85-3.66,1.29-5.49,2.17-9.14l-1.18-13.09c-6.3-9.68-12.7-19.22-19.26-28.72-2.33-2.47-3.5-3.69-5.86-6.14,9.07-1.1,13.61-1.58,22.7-2.39.58,2.33.87,3.5,1.44,5.83,3.2,4.83,4.78,7.25,7.88,12.11l1.1,2.47.71-2.6c2.33-5.28,3.52-7.91,6-13.17.21-2.39.32-3.59.54-6,8.18-.52,12.27-.72,20.45-1C257.16,626.3,256.19,627.69,254.28,630.49Z"/><path class="cls-13" d="M298.21,662.71c-7-.16-10.54-.19-17.56-.17l-.87.85c0,4.58,0,6.87.06,11.45,1,3,1.57,4.57,2.59,7.62-8.35,0-12.52.08-20.86.36.76-2.74,1.15-4.11,1.92-6.85l-1.38-45.77c-1-2.69-1.51-4-2.53-6.71q20.23-.68,40.47-.19c4.73,4.52,7.06,6.81,11.64,11.41L311,651.24C305.79,655.78,303.24,658.07,298.21,662.71Zm-4.51-20.87-1.77-3.42-3.63-1.73c-3.1,0-4.65,0-7.76,0l-.91.85c0,4.24,0,6.36.05,10.6l.9.84c3,0,4.57,0,7.62,0l3.61-1.66,1.85-3.37Z"/><path class="cls-13" d="M353,686.28q-18.43-2-37-3c1-2.67,1.49-4,2.5-6.66l2.5-45.72c-.77-2.76-1.16-4.14-2-6.9q19.53,1,39,3.09c1.65,6.66,2.44,10,4,16.66-3.07-1.38-4.61-2.06-7.7-3.41-6.25-.65-9.38-.94-15.64-1.45l-.8.79-.47,5.92.83.92c2.34.19,3.51.29,5.85.5,2.77-.6,4.17-.9,7-1.47l-1.77,17.72c-2.55-1.11-3.83-1.65-6.4-2.74-2.29-.21-3.44-.3-5.73-.49l-.95.77-.64,8,1.2,1.37c5.84.48,8.75.75,14.58,1.36,3.77-.8,5.66-1.19,9.45-1.93C357.64,676.29,356.08,679.62,353,686.28Z"/><path class="cls-13" d="M404.34,647.43c-5.12-.92-7.69-1.35-12.82-2.17l-2.91.83-1.74,2.31-.26,1.68,1.53,2c5.36,2,8,3.09,13.33,5.23,2.81,3.77,4.2,5.66,6.93,9.46L405.32,683c-5.27,3.49-7.87,5.26-13,8.85-9.94-1.71-14.92-2.47-24.91-3.79-1.39-7.2-2.12-10.8-3.63-18,3.51,1.63,5.25,2.45,8.72,4.13,4.95.68,7.42,1,12.35,1.82l2.79-.84,1.7-2.3.55-3.35L388,667c-5.24-2-7.87-3-13.17-5-2.75-3.46-4.15-5.19-7-8.62l1.75-13.88c5.29-3.78,8-5.64,13.39-9.31,10.34,1.49,15.5,2.33,25.8,4.2,1.16,6.76,1.71,10.14,2.77,16.91C408.72,649.77,407.26,649,404.34,647.43Z"/><path class="cls-3" d="M287.42,720.65a19.21,19.21,0,0,1-1.13,6.7,14.81,14.81,0,0,1-3.28,5.27,14.46,14.46,0,0,1-5.12,3.38,18.13,18.13,0,0,1-6.7,1.18,17.59,17.59,0,0,1-6.64-1.19,14.66,14.66,0,0,1-8.38-8.65,19.16,19.16,0,0,1-1.12-6.69,19.4,19.4,0,0,1,1.13-6.76,14.73,14.73,0,0,1,3.25-5.24,14.31,14.31,0,0,1,5.12-3.35,19.39,19.39,0,0,1,13.35,0A14.41,14.41,0,0,1,286.3,714,19.28,19.28,0,0,1,287.42,720.65Zm-8.16,0q0-5-2.19-7.75a7.11,7.11,0,0,0-5.88-2.77,7.29,7.29,0,0,0-4.2,1.24,7.83,7.83,0,0,0-2.8,3.65,16.57,16.57,0,0,0,0,11.2,8,8,0,0,0,2.77,3.65,7.19,7.19,0,0,0,4.24,1.27,7.1,7.1,0,0,0,5.88-2.79Q279.26,725.57,279.26,720.65Z"/><path class="cls-3" d="M293.17,704.84h1.94v-2.44a15.61,15.61,0,0,1,1-6.06,6.15,6.15,0,0,1,3.28-3.28,15.91,15.91,0,0,1,6.33-1q7.12,0,7.12,3.49a2.75,2.75,0,0,1-.75,1.94,2.32,2.32,0,0,1-1.76.8,12.55,12.55,0,0,1-1.64-.18,13.28,13.28,0,0,0-2-.18q-2.2,0-2.83,1.3a8.76,8.76,0,0,0-.62,3.71v1.94h2q4.65,0,4.65,2.8,0,2-1.24,2.53a8.78,8.78,0,0,1-3.41.54h-2v21.54a5.3,5.3,0,0,1-1.15,3.68,3.82,3.82,0,0,1-3,1.27,3.72,3.72,0,0,1-2.87-1.27,5.3,5.3,0,0,1-1.15-3.68V710.71h-2.23a4.25,4.25,0,0,1-2.8-.82,2.64,2.64,0,0,1-1-2.13Q289.09,704.84,293.17,704.84Z"/><path class="cls-15" d="M233.85,985A15.31,15.31,0,0,1,232.5,991a21.41,21.41,0,0,1-4.25,6.27,21.7,21.7,0,0,1-7.41,5,26.64,26.64,0,0,1-10.51,1.92,36.72,36.72,0,0,1-8.27-.86,23.2,23.2,0,0,1-6.76-2.69,22.83,22.83,0,0,1-5.59-4.8,28.54,28.54,0,0,1-3.88-6.06,31.58,31.58,0,0,1-2.41-7.16,39,39,0,0,1-.8-8.08,35.83,35.83,0,0,1,2-12.43,26.52,26.52,0,0,1,5.78-9.39,25.24,25.24,0,0,1,8.82-5.94,28.57,28.57,0,0,1,10.78-2,26.94,26.94,0,0,1,12.43,2.79,22.51,22.51,0,0,1,8.35,6.88,13.59,13.59,0,0,1,2.9,7.75,5,5,0,0,1-1.41,3.53,4.47,4.47,0,0,1-3.41,1.53,4.71,4.71,0,0,1-3.35-1.06,14.67,14.67,0,0,1-2.49-3.65,17.55,17.55,0,0,0-5.35-6.39,13.07,13.07,0,0,0-7.59-2.12,13.75,13.75,0,0,0-11.43,5.45q-4.26,5.45-4.25,15.49a28.77,28.77,0,0,0,1.88,11.16,14.08,14.08,0,0,0,5.33,6.65,14.71,14.71,0,0,0,8.08,2.2,14.18,14.18,0,0,0,8.49-2.49,15,15,0,0,0,5.24-7.31,12.42,12.42,0,0,1,1.84-3.71,4.17,4.17,0,0,1,3.53-1.43,4.94,4.94,0,0,1,3.57,1.45A4.83,4.83,0,0,1,233.85,985Z"/><path class="cls-15" d="M243.58,997.65V951.22a7.22,7.22,0,0,1,1.43-4.86,4.86,4.86,0,0,1,3.86-1.65,5.07,5.07,0,0,1,3.92,1.63,7,7,0,0,1,1.49,4.88v46.43a7,7,0,0,1-1.51,4.88,5.08,5.08,0,0,1-3.9,1.63,4.84,4.84,0,0,1-3.82-1.69A7.12,7.12,0,0,1,243.58,997.65Z"/><path class="cls-15" d="M270.75,955.65a5.65,5.65,0,0,1-3.82-1.37,5.33,5.33,0,0,1,0-7.63,5.47,5.47,0,0,1,3.78-1.47,5.61,5.61,0,0,1,3.69,1.33A4.75,4.75,0,0,1,276,950.4a4.9,4.9,0,0,1-1.57,3.86A5.43,5.43,0,0,1,270.75,955.65ZM276,966.71v30.94a6.91,6.91,0,0,1-1.53,4.86,5.07,5.07,0,0,1-3.88,1.65,4.84,4.84,0,0,1-3.82-1.69,7.12,7.12,0,0,1-1.47-4.82V967a6.87,6.87,0,0,1,1.47-4.79,4.94,4.94,0,0,1,3.82-1.61,5.13,5.13,0,0,1,3.88,1.61A6.23,6.23,0,0,1,276,966.71Z"/><path class="cls-15" d="M325.5,990.91a9.24,9.24,0,0,1-1.2,4.27,14.69,14.69,0,0,1-3.65,4.33,18.85,18.85,0,0,1-6.18,3.31,26.22,26.22,0,0,1-8.39,1.25q-9.92,0-15.49-5.79T285,982.79a25.53,25.53,0,0,1,2.55-11.65,18.3,18.3,0,0,1,7.37-7.82,25.07,25.07,0,0,1,19.16-1.55,19.94,19.94,0,0,1,5.88,3.14,15,15,0,0,1,3.69,4.1,8.12,8.12,0,0,1,1.27,4.06,4.28,4.28,0,0,1-1.43,3.25,4.91,4.91,0,0,1-3.47,1.33,3.5,3.5,0,0,1-2.22-.69,10.8,10.8,0,0,1-2-2.22,16.23,16.23,0,0,0-4.1-4.47,10.07,10.07,0,0,0-13.08,2.21q-2.9,3.71-2.9,10.14a19.56,19.56,0,0,0,.75,5.55,12.61,12.61,0,0,0,2.16,4.31,9.23,9.23,0,0,0,3.41,2.71,10.37,10.37,0,0,0,4.39.92,9.89,9.89,0,0,0,5.51-1.49,13,13,0,0,0,4.06-4.55,10.47,10.47,0,0,1,2.12-2.82,4,4,0,0,1,2.78-1,4.13,4.13,0,0,1,3.25,1.49A4.77,4.77,0,0,1,325.5,990.91Z"/><path class="cls-15" d="M358.44,999.26,349,983.73l-5.8,5.49v8.51a6.54,6.54,0,0,1-1.63,4.76,5.09,5.09,0,0,1-3.75,1.67,4.84,4.84,0,0,1-3.88-1.65,7.29,7.29,0,0,1-1.41-4.86V952a9.07,9.07,0,0,1,1.37-5.43,4.58,4.58,0,0,1,3.92-1.86,4.91,4.91,0,0,1,3.92,1.69,7.45,7.45,0,0,1,1.45,5v26l12-12.63a29.75,29.75,0,0,1,3.41-3.22,4.72,4.72,0,0,1,2.86-.86,4.63,4.63,0,0,1,3.33,1.27,4.24,4.24,0,0,1,1.33,3.2q0,2.35-4.35,6.27l-5.69,5.22,11,17.25q1.22,1.92,1.75,2.92a4.07,4.07,0,0,1,.53,1.9,5.61,5.61,0,0,1-1.39,4,4.82,4.82,0,0,1-3.67,1.47,4.08,4.08,0,0,1-3-1.06A25.52,25.52,0,0,1,358.44,999.26Z"/><path class="cls-15" d="M381.34,978.28l-1.25-18.79q-.35-5.49-.35-7.88a7.14,7.14,0,0,1,1.71-5.08,5.86,5.86,0,0,1,4.49-1.82q3.37,0,4.51,2.33a15.79,15.79,0,0,1,1.14,6.73,51.41,51.41,0,0,1-.27,5.25l-1.69,19.33a15.16,15.16,0,0,1-1.18,5.29,3.08,3.08,0,0,1-3,1.84,3,3,0,0,1-2.94-1.78A17.76,17.76,0,0,1,381.34,978.28Zm4.35,25.8a6.17,6.17,0,0,1-4.18-1.55,5.43,5.43,0,0,1-1.78-4.33,5.83,5.83,0,0,1,5.88-5.84,5.81,5.81,0,0,1,4.22,1.71,5.57,5.57,0,0,1,1.75,4.14,5.47,5.47,0,0,1-1.76,4.31A6,6,0,0,1,385.7,1004.08Z"/></g></g></g></svg>