<svg xmlns="http://www.w3.org/2000/svg" viewBox="0 0 497.55 951.27"><defs><style>.cls-1{isolation:isolate;}.cls-2{fill:#fff;}.cls-3{fill:#f5ca51;}.cls-4{fill:#ffda64;}.cls-5{fill:#be1e2d;}.cls-6{fill:#da7127;opacity:0.27;mix-blend-mode:multiply;}.cls-7{fill:#1b75bc;}</style></defs><title>mustard</title><g class="cls-1"><g id="Layer_2" data-name="Layer 2"><g id="Layer_7" data-name="Layer 7"><path class="cls-2" d="M237.71,122.66a357.79,357.79,0,0,0-52.85,70.87C178.43,204.88,172,218.07,178,231c5.23,11.33,17,18,27.43,23.77,52.69,29.25,110.39,48,163.34,76.75,12.72,6.9,25.65,14.12,37.12,23,10,7.73,19.92,17.67,23,30.32,6.59,26.63-21.67,43.16-42.9,50-29.55,9.47-61.26,12.54-92.13,9.87a227.63,227.63,0,0,1-46.34-8.77c-13.62-4.13-26.46-10.72-32.59-24.3-5.8-12.85-6.09-28.31-5.34-42.15A169.72,169.72,0,0,1,218,326.32c9.25-28.47,24.5-54.67,41.24-79.33,4.07-6,8.26-11.91,12.51-17.78,2.42-3.34-3.13-6.53-5.52-3.23-34.45,47.6-68.78,104.28-62.58,165.53,1.3,12.89,4.78,26.16,14.2,35.59,9.64,9.64,23.29,13.92,36.17,17.22a247.21,247.21,0,0,0,94.86,5.26c25.63-3.53,56-9.87,74.92-29.11,7.91-8,13-18.73,12.32-30.18-.72-12.46-7.67-23.33-16.27-32-9.89-10-22-17.42-34-24.5-13.25-7.8-26.93-14.86-40.79-21.5-28.38-13.58-57.57-25.36-86.24-38.28-14.32-6.46-28.52-13.2-42.4-20.58-11.57-6.15-28-13.13-33.16-26.26-3.09-7.9-.29-16.25,3.3-23.45s7.75-14,12-20.71a345,345,0,0,1,28.24-38.73q7.43-8.82,15.43-17.14c2.84-3-1.67-7.5-4.52-4.52Z"/><path class="cls-3" d="M440,628.19a379.33,379.33,0,0,1-3.75-51c0-29.28,4.26-57.86,8.86-84.89,37.41-39.65,53.85-88.06,28-135.11C403.53,231,380.47,174.53,334.82,150.5a21.15,21.15,0,0,0,9.42-17.56V113.88a21.19,21.19,0,0,0-21.13-21.13H296.37L285.22,39.09A39.21,39.21,0,0,0,246.13,0h0A39.21,39.21,0,0,0,207,39.09L196.69,92.75H169.14A21.19,21.19,0,0,0,148,113.88v19.07a21.14,21.14,0,0,0,9.87,17.83C78.94,188.59,54.82,283.47,13.1,358-15.13,408.37,5,460.39,47.51,501.42c4.13,24.34,7.91,49.8,8.67,75.79.63,21.6-1.17,42.4-3.81,62.18C24.88,699,.83,789.47.83,814.82v65.95a70.72,70.72,0,0,0,70.51,70.51H427a70.72,70.72,0,0,0,70.51-70.51V814.82C497.55,789,469.9,690.89,440,628.19Z"/><path class="cls-4" d="M393.28,525.62c28.68-31.89,46-73.31,46-118.59,0-100.76-85.8-182.44-191.63-182.44S56,306.27,56,407c0,46.54,18.31,89,48.44,121.22,3.11,30.3,10,70.74,21.69,124,17,77.75-37.84,141.58,123.59,142.64C415.34,796,350.92,726.65,369.9,649.36,383.21,595.14,390.56,555,393.28,525.62Z"/><path class="cls-5" d="M416.49,435.71s-122,33.87-122.31-3.24c-.28-34.15-143.84,20.22-143.84,20.22s-5-98.23-17.9-129.21c-16-38.44,168.07-74.2,168.26-40.05C301,337.19,422.15,281,406,302.08,388.37,325.23,416.49,435.71,416.49,435.71Z"/><path class="cls-6" d="M436.21,577.2c0-29.28,4.26-57.86,8.86-84.89,37.41-39.65,53.85-88.06,28-135.11C403.53,231,380.47,174.53,334.82,150.5a21.15,21.15,0,0,0,9.42-17.56V113.88a21.19,21.19,0,0,0-21.13-21.13H296.37L285.22,39.09a39.24,39.24,0,0,0-33-38.61V951.27H427a70.72,70.72,0,0,0,70.51-70.51V814.82c0-25.82-27.66-123.92-57.59-186.63A379.33,379.33,0,0,1,436.21,577.2Z"/><rect class="cls-4" x="161.81" y="101.82" width="168.64" height="41.52"/><polygon class="cls-2" points="145.78 713.9 218.78 471.9 379.78 540.9 145.78 713.9"/><rect class="cls-7" x="159.11" y="304.27" width="18" height="541.12" rx="9" ry="9" transform="translate(-116.08 47.64) rotate(-12.03)"/></g></g></g></svg>