<svg xmlns="http://www.w3.org/2000/svg" viewBox="0 0 562.42 1293.45"><defs><style>.cls-1{isolation:isolate;}.cls-2{fill:#bc2b2a;}.cls-3{fill:#f4f4f0;stroke:#bcb7af;stroke-width:4.66px;}.cls-3,.cls-6,.cls-7,.cls-8,.cls-9{stroke-miterlimit:10;}.cls-4{fill:#c4342c;}.cls-5{fill:#fff7ea;}.cls-6,.cls-7,.cls-8,.cls-9{fill:none;}.cls-6,.cls-7{stroke:#8dc63f;}.cls-6{stroke-width:8.79px;}.cls-7{stroke-width:8.01px;}.cls-8,.cls-9{stroke:#006838;}.cls-8{stroke-width:7.82px;}.cls-9{stroke-width:8.58px;}.cls-10,.cls-11{fill:#77111b;mix-blend-mode:multiply;}.cls-10{opacity:0.09;}.cls-11{opacity:0.11;}.cls-12{fill:#98bc57;}</style></defs><title>tomato</title><g class="cls-1"><g id="Layer_2" data-name="Layer 2"><g id="Layer_7" data-name="Layer 7"><path class="cls-2" d="M404.12,1293.45l-246.92-5.59c-85.44,0-155.34-69.9-155.34-155.34L0,587.63c0-85.44,147.12-197.41,173.2-482.34H398.54c22.35,318.46,162,396.9,162,482.34l1.86,553.11C562.42,1226.18,489.56,1293.45,404.12,1293.45Z"/><rect class="cls-3" x="158.6" y="2.33" width="254.45" height="98.03" rx="11.45" ry="11.45"/><rect class="cls-4" x="18.8" y="491.55" width="526.69" height="760.89" rx="100" ry="100"/><path class="cls-5" d="M287.29,539.09c-105.73,0-191.69,47.09-193.83,105.62L119.51,701c33.56,32.15,96.13,53.78,167.77,53.78,72,0,134.8-21.82,168.25-54.23l25.59-55.32C479.5,586.47,393.35,539.09,287.29,539.09Z"/><polygon class="cls-5" points="457.49 1219.4 104.27 1219.4 42.83 703.1 523.31 703.1 457.49 1219.4"/><path class="cls-6" d="M285.18,560.17c-87.14,0-158,41.32-159.74,92.69l21.47,49.41a240.81,240.81,0,0,0,15.86,26.12H406.92c6.64-9.48,12.35-18.55,16.92-26.51l21.09-48.54C443.6,601.75,372.59,560.17,285.18,560.17Z"/><polygon class="cls-7" points="440.95 1200.5 123.36 1200.5 68.12 724.11 500.13 724.11 440.95 1200.5"/><polygon class="cls-8" points="435.21 1198.16 129.24 1198.16 76.03 726.73 492.23 726.73 435.21 1198.16"/><polygon class="cls-5" points="376.48 778.19 194.21 780.26 173.5 729.51 395.12 730.55 376.48 778.19"/><path class="cls-9" d="M285.14,564.5c-84,0-152.2,40.89-153.89,91.72l20.68,48.9A239.69,239.69,0,0,0,167.21,731H402.43c6.4-9.39,11.9-18.35,16.3-26.23l20.32-48C437.76,605.64,369.35,564.5,285.14,564.5Z"/><rect class="cls-5" x="110.19" y="732.13" width="357.56" height="107.07"/><polygon class="cls-5" points="390.98 755.14 176.19 754.01 164.83 715.37 406.89 714.23 390.98 755.14"/><rect class="cls-3" x="158.6" y="2.33" width="254.45" height="98.03" rx="11.45" ry="11.45"/><path class="cls-10" d="M398.54,105.29H281.4V1290.67l122.72,2.78c85.44,0,158.3-67.27,158.3-152.71l-1.86-553.11C560.56,502.19,420.89,423.75,398.54,105.29Z"/><path class="cls-11" d="M395.26,2.33H283.49v98H395.26a17.84,17.84,0,0,0,17.79-17.79V20.12A17.84,17.84,0,0,0,395.26,2.33Z"/><path class="cls-2" d="M438.67,868.81c0,69.71-65.4,126.22-146.09,126.22S146.5,938.52,146.5,868.81c0-41.76,8.09-81.53,57.38-103.27,36.11-15.93,82.86,2.77,82.86,2.77s28-21,85.12-5.75C416.52,774.51,438.67,825.24,438.67,868.81Z"/><polygon class="cls-12" points="351.25 771.79 310.29 772.97 291.17 792.81 274.26 768.78 224.89 768.39 269.36 752.7 251.05 736.13 293.78 753.57 339.13 743.97 326.92 757.93 351.25 771.79"/></g></g></g></svg>