
<svg xmlns="http://www.w3.org/2000/svg" version="1.1" xmlns:xlink="http://www.w3.org/1999/xlink" preserveAspectRatio="none" x="0px" y="0px" width="550px" height="400px" viewBox="0 0 550 400">
<defs>
<g id="r_arm_0_Layer0_0_FILL">
<path fill="#221F20" stroke="none" d="
M 60.55 41.75
Q 50.5 37.4 45.65 35.25 37.1 31.45 33.3 29.05 27.7 25.45 14.5 10.45 3.95 -1.55 1.65 0.15 -1.5 2.5 9.45 16.2 20.15 29.55 29.25 35.6 40.75 43.25 55.85 49.8 74.05 57.65 76.2 53.4 78.1 49.65 60.55 41.75 Z"/>
</g>

<g id="r_hand_0_Layer0_0_FILL">
<path fill="#E9ECEE" stroke="none" d="
M 539.35 735.05
Q 541.05 730.9 540.85 727.35 540.6 723.75 538.55 723 534.8 721.7 532.7 723 530.95 724.1 528.8 728.35 523.2 720.2 522.4 719.35 519.1 715.7 514.45 715.45 506.6 715.05 500.95 720.85 495.4 726.55 495.3 734.65 495.15 742.55 500.7 748.1 506.2 753.65 514.45 753.8
L 514.5 753.8
Q 514.2 755.05 514.7 755.95 515.85 757.85 519.65 757.45 523.45 757.1 527.7 754.6 532 752.15 534.25 749 536.5 745.9 535.4 744 535.05 743.5 534.5 743.1 537.45 739.6 539.35 735.05 Z"/>
</g>

<g id="Layer6_0_FILL">
<path fill="#3E914D" stroke="none" d="
M 697.2 679
L 689.05 677.5 689.85 693.7 695.95 694.05 697.2 679 Z"/>
</g>

<g id="Layer6_1_FILL">
<path fill="#221F20" stroke="none" d="
M 700.15 883.95
Q 699.6 883.9 694.4 884.25 693.85 887.05 693.25 911.15 692.7 932.15 690.75 933.5 684.1 938.1 672.9 945.4 666.35 950.5 674.2 951.05 679.2 951.4 682.4 951.3 683.9 951.25 689.1 950.7 693.75 950.25 698.4 949.05 702.95 947.85 704.65 946.65 706.75 945.2 706.55 937.95 705.95 930.2 705.85 928.55
L 702.7 886.35
Q 702.55 884.2 700.15 883.95 Z"/>
</g>

<g id="Layer6_2_FILL">
<path fill="#221F20" stroke="none" d="
M 642.6 878.5
Q 641.95 878.35 636.9 878.25 636.1 881 633.2 904.9 630.65 925.75 628.6 926.9 621.55 930.85 609.65 937.05 602.7 941.5 610.45 942.8 615.35 943.65 618.55 943.8 620 943.9 625.3 943.9 630.05 943.85 634.7 943.1 639.35 942.35 641.15 941.35 643.35 940.1 643.9 932.85 643.9 932.65 644.05 923.4
L 644.95 881.1
Q 645 878.95 642.6 878.5 Z"/>
</g>

<g id="Layer6_3_FILL">
<path fill="#EA983E" stroke="none" d="
M 785.65 791.2
Q 785.65 770.7 777 751.95 768.65 733.85 753.4 719.85 738.15 705.9 718.4 698.25 697.95 690.3 675.55 690.3 653.15 690.3 632.7 698.25 612.95 705.9 597.7 719.85 582.45 733.85 574.1 751.95 565.45 770.7 565.45 791.2 565.45 811.7 574.1 830.45 582.45 848.55 597.7 862.55 612.95 876.5 632.7 884.15 653.15 892.1 675.55 892.1 697.95 892.1 718.4 884.15 738.15 876.5 753.4 862.55 768.65 848.55 777 830.45 785.65 811.7 785.65 791.2 Z"/>
</g>

<g id="Layer6_4_FILL">
<path fill="#E3753A" stroke="none" d="
M 785.65 791.2
Q 785.65 762.5 769.25 738.25 753.3 714.6 726.5 701.75 745.15 715.65 755.7 735.55 766.55 756.15 766.55 779.25 766.55 799.4 758.2 817.85 750.1 835.65 735.4 849.35 720.7 863.1 701.6 870.6 681.85 878.4 660.2 878.4 639.35 878.4 620.2 871.1 601.65 864.1 587.05 851.2 602.4 870.15 625.25 880.95 648.85 892.1 675.55 892.1 697.95 892.1 718.4 884.15 738.15 876.5 753.4 862.55 768.65 848.55 777 830.45 785.65 811.7 785.65 791.2 Z"/>
</g>

<g id="leaf_0_Layer0_0_FILL">
<path fill="#3E914D" stroke="none" d="
M 140.55 33.9
Q 146.8 30.45 141.05 32.6 133 35.65 121.45 32.55 113.1 30.3 98.75 23.3 76.5 12.4 73.65 11.15 58.7 4.55 47 2.5 20.9 -2.1 10.3 1.75 1.35 5 0.05 16.2 -1.15 26.35 20.95 36.55 42.45 46.45 70.9 49.75 94.1 52.45 124.55 41.05 134.35 37.4 140.55 33.9 Z"/>
</g>

<g id="l_brrow_0_Layer0_0_FILL">
<path fill="#221F20" stroke="none" d="
M 701.25 731.35
Q 697.4 731.95 697 733.05 696.9 733.45 700.65 733.25 705.8 732.95 709.75 734.25 713.65 735.55 717.65 738.6 720.5 740.8 720.6 740.4 721 739.3 718.25 736.7 715.05 733.7 710.4 732.2 705.8 730.7 701.25 731.35 Z"/>
</g>

<g id="r_brrow_0_Layer0_0_FILL">
<path fill="#221F20" stroke="none" d="
M 629.85 729.7
Q 629.7 728.55 626 727.55 621.7 726.45 616.9 727.2 612.1 727.95 608.4 730.35 605.25 732.4 605.4 733.55 605.5 734 608.7 732.3 613.25 729.95 617.25 729.35 621.3 728.7 626.3 729.55 629.95 730.15 629.85 729.7 Z"/>
</g>

<g id="eyes_0_Layer0_0_FILL">
<path fill="#221F20" stroke="none" d="
M 702.3 763.35
Q 700.35 765.1 700.2 767.75 700.05 770.4 701.8 772.4 703.6 774.35 706.25 774.5 708.9 774.65 710.85 772.9 712.85 771.1 712.95 768.45 713.1 765.8 711.35 763.85 709.55 761.85 706.95 761.75 704.3 761.6 702.3 763.35 Z"/>
</g>

<g id="eyes_0_Layer0_1_FILL">
<path fill="#221F20" stroke="none" d="
M 611.6 754
Q 609.65 755.8 609.5 758.45 609.35 761.1 611.1 763.05 612.9 765.05 615.55 765.15 618.2 765.3 620.15 763.55 622.15 761.75 622.3 759.15 622.4 756.5 620.65 754.5 618.9 752.55 616.25 752.4 613.6 752.25 611.6 754 Z"/>
</g>

<g id="mouth_0_Layer0_0_FILL">
<path fill="#C55C64" stroke="none" d="
M 0.5 11.85
Q 1.75 16.9 7.1 20.25 12.8 23.9 21 23.95 29.25 24.05 35.05 20.55 40.45 17.25 41.8 12.25 43.4 6.05 39.65 3.6 35.4 0.8 21.25 0.1 6.5 -0.65 2.05 3.15 -1.05 5.85 0.5 11.85 Z"/>
</g>

<g id="l_arm_0_Layer0_0_FILL">
<path fill="#221F20" stroke="none" d="
M 2.4 10.2
Q 9.7 27.85 10.85 40.8 11.95 52.8 8.95 76.55 7.9 84.7 8.25 87.7 8.75 91.8 11.75 91.75 12.95 91.75 14.85 86.65 16.9 81.15 18.25 73.4 21.95 52.6 17.9 34.95 13.8 17 9.75 7.75 6.35 -0.05 3.8 0 0.1 0.05 0 2.6 0 4.45 2.4 10.2 Z"/>
</g>

<g id="l_hand_0_Layer0_0_FILL">
<path fill="#E9ECEE" stroke="none" d="
M 763.9 874.65
Q 760.9 877.65 760.05 881.05 759.2 884.45 761 886.25 762.15 887.4 764.05 887.5 765.85 887.55 767.95 886.6 766.8 893.9 769.15 897.7 771.5 901.6 778.1 902.85 786.15 904.4 792.8 901.95 800.6 899.05 802.2 891.6 805.3 877.25 797.15 871.95 800.45 870.9 800.6 869.2 800.8 867.2 796.95 865.4 793.1 863.65 787.45 863.1 781.8 862.55 777.7 863.6 773.6 864.65 773.4 866.65 773.25 867.95 775 869.2 772.15 869.65 769.05 871.2 765.8 872.75 763.9 874.65 Z"/>
</g>

<path id="r_hand_0_Layer0_0_1_STROKES" stroke="#221F20" stroke-width="2" stroke-linejoin="miter" stroke-linecap="butt" stroke-miterlimit="10" fill="none" d="
M 495.3 734.65
Q 495.4 726.55 500.95 720.85 506.6 715.05 514.45 715.45 519.1 715.7 522.4 719.35 523.2 720.2 528.8 728.35 530.95 724.1 532.7 723 534.8 721.7 538.55 723 540.6 723.75 540.85 727.35 541.05 730.9 539.35 735.05 537.45 739.6 534.5 743.1 535.05 743.5 535.4 744 536.5 745.9 534.25 749 532 752.15 527.7 754.6 523.45 757.1 519.65 757.45 515.85 757.85 514.7 755.95 514.2 755.05 514.5 753.8
L 514.45 753.8
Q 506.2 753.65 500.7 748.1 495.15 742.55 495.3 734.65 Z"/>

<path id="l_hand_0_Layer0_0_1_STROKES" stroke="#221F20" stroke-width="2" stroke-linejoin="miter" stroke-linecap="butt" stroke-miterlimit="10" fill="none" d="
M 763.9 874.65
Q 765.8 872.75 769.05 871.2 772.15 869.65 775 869.2 773.25 867.95 773.4 866.65 773.6 864.65 777.7 863.6 781.8 862.55 787.45 863.1 793.1 863.65 796.95 865.4 800.8 867.2 800.6 869.2 800.45 870.9 797.15 871.95 805.3 877.25 802.2 891.6 800.6 899.05 792.8 901.95 786.15 904.4 778.1 902.85 771.5 901.6 769.15 897.7 766.8 893.9 767.95 886.6 765.85 887.55 764.05 887.5 762.15 887.4 761 886.25 759.2 884.45 760.05 881.05 760.9 877.65 763.9 874.65 Z"/>
</defs>

<g transform="matrix( -0.2588043212890625, -0.965911865234375, 0.965911865234375, -0.2588043212890625, 152.45,296.3) ">
<g id="ikNode_1" transform="matrix( 1, 0, 0, 1, 14.5,19.6) ">
<g transform="matrix( 1, 0, 0, 1, 0,0) ">
<use xlink:href="#r_arm_0_Layer0_0_FILL"/>
</g>
</g>

<g transform="matrix( 1, 0, 0, 1, 0,0) ">
<g transform="matrix( 1, 0, 0, 1, -495.3,-715.4) ">
<use xlink:href="#r_hand_0_Layer0_0_FILL"/>

<use xlink:href="#r_hand_0_Layer0_0_1_STROKES"/>
</g>
</g>
</g>

<g transform="matrix( 1, 0, 0, 1, -392.15,-592.6) ">
<use xlink:href="#Layer6_0_FILL"/>
</g>

<g transform="matrix( 1, 0, 0, 1, -392.15,-592.6) ">
<use xlink:href="#Layer6_1_FILL"/>
</g>

<g transform="matrix( 1, 0, 0, 1, -392.15,-592.6) ">
<use xlink:href="#Layer6_2_FILL"/>
</g>

<g transform="matrix( 1, 0, 0, 1, -392.15,-592.6) ">
<use xlink:href="#Layer6_3_FILL"/>
</g>

<g transform="matrix( 1, 0, 0, 1, -392.15,-592.6) ">
<use xlink:href="#Layer6_4_FILL"/>
</g>

<g transform="matrix( 1, 0, 0, 1, 280.9,53.55) ">
<g transform="matrix( 1, 0, 0, 1, 0,0) ">
<use xlink:href="#leaf_0_Layer0_0_FILL"/>
</g>
</g>

<g transform="matrix( 1, 0, 0, 1, 304.85,138.55) ">
<g transform="matrix( 1, 0, 0, 1, -697,-731.15) ">
<use xlink:href="#l_brrow_0_Layer0_0_FILL"/>
</g>
</g>

<g transform="matrix( 1, 0, 0, 1, 213.25,138.3) ">
<g transform="matrix( 1, 0, 0, 1, -605.4,-726.9) ">
<use xlink:href="#r_brrow_0_Layer0_0_FILL"/>
</g>
</g>

<g transform="matrix( 1, 0, 0, 1, 217.35,159.8) ">
<g transform="matrix( 1, 0, 0, 1, -609.5,-752.4) ">
<use xlink:href="#eyes_0_Layer0_0_FILL"/>
</g>

<g transform="matrix( 1, 0, 0, 1, -609.5,-752.4) ">
<use xlink:href="#eyes_0_Layer0_1_FILL"/>
</g>
</g>

<g transform="matrix( 1, 0, 0, 1, 241.05,185.85) ">
<g transform="matrix( 1, 0, 0, 1, 0,0) ">
<use xlink:href="#mouth_0_Layer0_0_FILL"/>
</g>
</g>

<g transform="matrix( 1, 0, 0, 1, 362.7,211) ">
<g transform="matrix( 1, 0, 0, 1, 12.4,0) ">
<g transform="matrix( 1, 0, 0, 1, 0,0) ">
<use xlink:href="#l_arm_0_Layer0_0_FILL"/>
</g>
</g>

<g transform="matrix( 1, 0, 0, 1, 0,59.3) ">
<g transform="matrix( 1, 0, 0, 1, -759.8,-862.9) ">
<use xlink:href="#l_hand_0_Layer0_0_FILL"/>

<use xlink:href="#l_hand_0_Layer0_0_1_STROKES"/>
</g>
</g>
</g>
</svg>
