<svg xmlns="http://www.w3.org/2000/svg" viewBox="0 0 1242.06 370.72"><defs><style>.cls-1{fill:#2d6caa;}.cls-2{fill:#1b5998;}.cls-3{fill:#fff;}</style></defs><title>snowflakes</title><g id="Layer_2" data-name="Layer 2"><g id="Layer_1-2" data-name="Layer 1"><path class="cls-1" d="M338.51,161.51l-15.71,4.19c-.31-.3-.69-.63-1-1q-10.54-10.61-21.06-21.24a2.05,2.05,0,0,0-2.31-.65c-5.19,1.44-10.4,2.8-15.61,4.19l-1.48.4,40,40.21-15.75,4.2-34.29-34.39-8,29.9L251.7,175.66l5.83-21.79c-.57.1-1,.15-1.35.25-3.76,1-7.51,2-11.28,3a2,2,0,0,0-1.68,1.72q-5.56,21-11.2,42.07l-4.2,15.74c-.16.59-.29,1.18-.43,1.78l10.17,10.2c.2-.67.36-1.15.49-1.63,1.66-6.29,3.35-12.57,5-18.88a2,2,0,0,1,1.7-1.71c4.31-1.1,8.6-2.28,12.9-3.44l1.6-.43-7.9,29.75c.6-.11,1-.17,1.39-.27,4.31-1.12,8.61-2.24,12.91-3.38q15.55-4.12,31.1-8.29a2.26,2.26,0,0,1,2.57.69c3,3.17,6.17,6.27,9.27,9.4.29.29.56.61,1,1.1-3.71,1.15-7.33,2-10.9,2.94s-7.24,1.94-10.86,2.91l-10.86,2.9-10.86,2.9-11.09,3,13.47,13.57L300,251.28l11.42,11.53c-10.54,3-20.91,5.57-31.45,8.5l14.08,14.19-10,10c-4.74-4.65-9.3-9.38-14.15-14.15l-8.46,31.53c-.4-.34-.66-.53-.89-.76-3.27-3.28-6.53-6.58-9.83-9.83a1.85,1.85,0,0,1-.55-2.09c2.61-9.62,5.16-19.26,7.79-28.88a2.47,2.47,0,0,0-.74-2.82c-3.78-3.7-7.48-7.48-11.21-11.23-.32-.32-.67-.62-1.15-1L230.34,311c-4-3.83-7.69-7.69-11.55-11.52l12.44-46.94a40.21,40.21,0,0,0-5,1.21c-1.64.4-3.26.86-4.89,1.3l-5,1.34-4.89,1.3-4.89,1.3-5,1.34c.13-.65.2-1.1.32-1.53,1.18-4.38,2.4-8.76,3.53-13.16A2,2,0,0,1,207,244.1c6.48-1.68,13-3.42,19.43-5.14.27-.07.53-.17.91-.3a7.6,7.6,0,0,0-.6-.8c-3-3-6-6-9-9.07a1.34,1.34,0,0,0-1.61-.45,5.78,5.78,0,0,1-.68.18q-28.58,7.63-57.17,15.23a2.35,2.35,0,0,0-2,2c-.89,3.68-1.92,7.33-2.89,11-.14.53-.25,1.07-.43,1.79l21.68-5.79,11.64,11.65-29.8,8c3.92,4.05,7.73,7.82,11.49,11.63s7.58,7.65,11.37,11.47L190.83,307l-4.24,15.79-40-40.32-4.91,18.46,23.11,23.24-4.22,15.78-23.11-23.17-5.17,19.31-13.65-3.7,5.13-19.29c-2.84.58-5.38,1.36-7.94,2s-5.25,1.4-7.88,2.1l-7.74,2.07-7.88,2.1c.13-.65.18-1.06.28-1.45,1.16-4.39,2.37-8.77,3.47-13.17a1.83,1.83,0,0,1,1.57-1.48c9.6-2.53,19.19-5.11,28.8-7.62a2.36,2.36,0,0,0,2-1.94c1.31-5.17,2.72-10.32,4.09-15.48.12-.44.2-.88.33-1.47l-54.32,14.5c-.1-1.06,2.88-12.84,4-15.8L129.23,265l-21.72-21.9,15.81-4.22,15.92,16,3.89-14.57-44-44.23L84.66,200c.52.53.92,1,1.34,1.38,4.56,4.58,9.11,9.17,13.69,13.71a1.84,1.84,0,0,1,.58,2.08c-1.22,4.42-2.36,8.86-3.54,13.3-.11.4-.23.79-.41,1.39L74.57,210c-1.19,4-2.15,7.87-3.19,11.72s-2.12,7.86-3.18,11.8l-3.13,11.66-3.15,11.69-15.7,4.19c1.15-4.69,2.44-9.21,3.64-13.76s2.41-9,3.62-13.57L57.15,220l3.65-13.67-18.33,4.89c-.13.43-.3.91-.43,1.4-2.56,9.59-5.13,19.17-7.64,28.77a2.13,2.13,0,0,1-1.77,1.81c-4.27,1.06-8.52,2.24-12.77,3.38l-1.61.43,8.38-31.6-19.11,5.1L3.85,206.76,23,201.65,0,178.44l15.72-4.2,2.52,2.51Q28,186.57,37.71,196.4a2.15,2.15,0,0,0,2.44.68c5.1-1.43,10.22-2.76,15.34-4.12l1.61-.43c-2.67-2.86-5.35-5.43-8-8.07s-5.35-5.38-8-8.06l-7.93-8-8-8.06-8.08-8.14,3.36-.9c3.76-1,7.52-2,11.26-3a1.75,1.75,0,0,1,2,.54Q49.81,165.09,66,181.27c.36.36.73.7,1.23,1.17l8-29.86,11.56,11.7-5.82,21.78c.63-.12,1.07-.18,1.5-.3,3.8-1,7.59-2.07,11.41-3a2.14,2.14,0,0,0,1.8-1.79c2.19-8.43,4.46-16.83,6.7-25.24l8.76-32.83c.08-.31.15-.63.25-1.07l-10.47-10.52-5.8,21.82-15.81,4.22,7.92-29.81-1.62.43L57.05,115.5c-5.16,1.37-10.33,2.71-15.48,4.12a1.94,1.94,0,0,1-2.21-.58c-3.12-3.23-6.31-6.4-9.47-9.59-.29-.29-.55-.6-.94-1L83.38,93.88a11.86,11.86,0,0,0-.76-1C78.73,89,74.82,85.09,71,81.13a1.94,1.94,0,0,0-2.21-.59C59.17,83.13,49.57,85.66,40,88.27a2.34,2.34,0,0,1-2.67-.74c-3-3.11-6-6.13-9.08-9.19-.35-.35-.68-.73-1.18-1.28l31.38-8.37c-1.59-1.85-3.21-3.31-4.71-4.86s-3-3.05-4.55-4.58L44.4,54.43c3.29-3.38,6.59-6.64,10-10L68.5,58.6,77,26.95,88.52,38.51q-1.09,4.09-2.16,8.15-3,11.19-6,22.38a1.76,1.76,0,0,0,.45,2c4,4,8,8,12,12,.19.19.42.35.74.61l14.58-54.82,11.55,11.57-12.47,47c5.1-1.27,9.94-2.62,14.79-3.9l14.67-3.91c.15,1-2.42,11.13-4,15.86L111,101.27c.47.51.8.88,1.15,1.23,2.67,2.69,5.37,5.36,8,8.08a2.06,2.06,0,0,0,2.32.65q16.28-4.4,32.58-8.72c8.46-2.26,16.92-4.53,25.4-6.75a2.06,2.06,0,0,0,1.73-1.68c.94-3.77,2-7.51,3-11.27.1-.39.18-.8.33-1.45l-1.61.43c-6.24,1.68-12.5,3.32-18.72,5.06a2.14,2.14,0,0,1-2.44-.67c-3.07-3.15-6.21-6.24-9.31-9.35-.36-.36-.7-.73-1.21-1.26,1.74-.59,3.36-.94,5-1.38s3.26-.87,4.89-1.31l5-1.34,4.89-1.3,4.89-1.3,5.11-1.36-34.28-34.6,4.24-15.78,40,40.24c.17-.51.32-.88.43-1.27,1.42-5.29,2.8-10.59,4.26-15.87a2,2,0,0,0-.6-2.21q-10.4-10.35-20.73-20.77a8.29,8.29,0,0,0-.8-.79,1.42,1.42,0,0,1-.44-1.74c.69-2.43,1.33-4.88,2-7.32L178,0,201,23.14c1.85-6.47,3.41-12.83,5.23-19.27l13.62,3.69-5.07,19.06a2.29,2.29,0,0,0,1.69-.17l28-7.42,1.81-.48L242.1,34.3l-31.59,8.43-4.93,18.47c9.28-2.4,18.27-4.89,27.29-7.28s18.07-4.82,27.27-7.28c-.08.55-.11.91-.2,1.25-1.17,4.43-2.39,8.86-3.51,13.31a1.84,1.84,0,0,1-1.57,1.5q-11,2.91-22,5.89l-22.11,6-1.49.4c7.25,7.4,14.43,14.53,21.65,21.88-.44.17-.71.31-1,.39-4.48,1.19-9,2.35-13.44,3.58a2.06,2.06,0,0,1-2.32-.67c-4.54-4.66-9.14-9.26-13.72-13.89-.36-.36-.73-.7-1.19-1.14-.17.52-.31.9-.41,1.3-1,3.75-2,7.51-3,11.26a1.78,1.78,0,0,0,.48,2q21.61,21.68,43.18,43.41c.2.2.41.37.63.57L253.81,140c-5.33-5.44-10.65-10.67-15.91-16L242.1,108,264,130l12.6-46.91,15.68-4.19c-1.12,4.68-2.41,9.19-3.61,13.72s-2.42,9-3.63,13.56l-3.66,13.7-3.66,13.69,18.39-4.91,8.39-31.48L320.14,93c-.42,2.18-1.07,4.21-1.59,6.26s-1.11,4.16-1.66,6.24l-1.7,6.38c-.56,2.08-1.12,4.16-1.67,6.24s-1.08,4.13-1.68,6.43l19.13-5.1,3.67,13.75-19.17,5.12ZM185.66,109l-1.47.39q-28.84,7.7-57.69,15.37a2.28,2.28,0,0,0-1.87,1.88q-7.7,29-15.49,58.05a2,2,0,0,0,.58,2.21Q131,208.26,152.27,229.7a2,2,0,0,0,2.21.57q29-7.79,58.09-15.5a2,2,0,0,0,1.6-1.62q7.68-29,15.46-57.91a2.5,2.5,0,0,0-.72-2.82Q211,134.54,193.26,116.6Z"/><path class="cls-1" d="M156.47,218.3l-4.88-4.89q-14.74-14.84-29.5-29.66a2.18,2.18,0,0,1-.66-2.45q6.11-22.7,12.11-45.44a2.49,2.49,0,0,1,2-2.09q22.62-6,45.2-12.06a2.38,2.38,0,0,1,2.69.72q16.53,16.72,33.13,33.37l1,1.07c-.06.32-.11.69-.21,1q-6.12,23-12.24,46a2.28,2.28,0,0,1-1.84,1.91q-22.75,6-45.48,12.1Zm21.54-81-32.38,8.64c-.09.25-.2.46-.26.68q-4.13,15.46-8.28,30.92a1.67,1.67,0,0,0,.58,1.83q11,11,22,22.11a2.05,2.05,0,0,0,2.32.62c9.94-2.69,19.9-5.34,29.86-8l1.27-.34c.14-.47.28-.91.4-1.36,2.67-10,5.32-20,8-30a2,2,0,0,0-.63-2.2q-10.13-10.12-20.2-20.3C179.8,139,178.89,138.16,178,137.29Z"/><path class="cls-1" d="M686,205.91,678,208c-.16-.15-.35-.32-.53-.5q-5.37-5.4-10.72-10.82a1,1,0,0,0-1.18-.33c-2.64.73-5.3,1.43-7.95,2.13l-.75.2,20.38,20.48-8,2.14-17.46-17.51-4.08,15.23-5.89-6,3-11.09c-.29.05-.49.08-.69.13-1.91.51-3.82,1-5.74,1.52a1,1,0,0,0-.86.88q-2.83,10.72-5.7,21.42l-2.14,8c-.08.3-.15.6-.22.91l5.18,5.19c.1-.34.18-.58.25-.83.85-3.2,1.71-6.4,2.53-9.61a1,1,0,0,1,.86-.87c2.2-.56,4.38-1.16,6.57-1.75l.82-.22-4,15.15c.31-.06.51-.08.71-.14l6.58-1.72q7.92-2.1,15.84-4.22a1.15,1.15,0,0,1,1.31.35c1.55,1.62,3.14,3.19,4.72,4.79.15.15.29.31.52.56-1.89.59-3.73,1-5.55,1.5s-3.69,1-5.53,1.48L654.66,246l-5.53,1.48L643.48,249l6.86,6.91,16.08-4.29,5.82,5.87c-5.37,1.51-10.65,2.84-16,4.33l7.17,7.23-5.07,5.1c-2.42-2.37-4.73-4.78-7.21-7.21L646.8,283c-.2-.17-.34-.27-.45-.39-1.67-1.67-3.32-3.35-5-5a.94.94,0,0,1-.28-1.07c1.33-4.9,2.63-9.81,4-14.7a1.26,1.26,0,0,0-.38-1.43c-1.93-1.88-3.81-3.81-5.71-5.72-.16-.16-.34-.31-.58-.53l-7.43,27.91c-2-2-3.92-3.92-5.88-5.87l6.34-23.9a20.48,20.48,0,0,0-2.53.61c-.83.21-1.66.44-2.49.66l-2.56.68-2.49.66-2.49.66-2.56.68c.07-.33.1-.56.16-.78.6-2.23,1.22-4.46,1.8-6.7a1,1,0,0,1,.84-.8c3.3-.86,6.6-1.74,9.89-2.62l.46-.15a3.87,3.87,0,0,0-.3-.41c-1.53-1.54-3.06-3.07-4.58-4.62a.68.68,0,0,0-.82-.23,2.94,2.94,0,0,1-.34.09q-14.55,3.88-29.11,7.76a1.19,1.19,0,0,0-1,1c-.45,1.88-1,3.74-1.47,5.6-.07.27-.13.54-.22.91l11-2.95,5.93,5.94-15.18,4.05c2,2.06,3.94,4,5.85,5.92L605,274.1l5.83,5.88-2.16,8L588.27,267.5l-2.5,9.4,11.77,11.84-2.15,8L583.61,285,581,294.8l-7-1.88,2.61-9.82c-1.45.29-2.74.69-4,1l-4,1.07-3.94,1.05-4,1.07c.06-.33.09-.54.14-.74.59-2.23,1.21-4.46,1.77-6.71a.93.93,0,0,1,.8-.76c4.89-1.29,9.77-2.6,14.67-3.88a1.2,1.2,0,0,0,1-1c.67-2.63,1.38-5.26,2.08-7.88.06-.22.1-.45.17-.75L553.61,273a63,63,0,0,1,2-8l23.8-6.35-11.06-11.15,8.05-2.15,8.11,8.17,2-7.42-22.4-22.52-7.38,2,.68.7c2.32,2.33,4.64,4.67,7,7a.94.94,0,0,1,.3,1.06c-.62,2.25-1.2,4.51-1.8,6.77-.05.2-.12.4-.21.71L551.6,230.6c-.6,2-1.09,4-1.63,6s-1.08,4-1.62,6l-1.59,5.94-1.6,6-8,2.13c.58-2.39,1.24-4.69,1.85-7s1.23-4.61,1.85-6.91l1.87-7,1.86-7-9.33,2.49c-.07.22-.15.46-.22.71-1.3,4.88-2.61,9.76-3.89,14.65a1.09,1.09,0,0,1-.9.92c-2.18.54-4.34,1.14-6.5,1.72l-.82.22,4.27-16.09-9.73,2.6-1.87-7,9.75-2.6-11.71-11.82,8-2.14,1.28,1.28q5,5,9.92,10a1.09,1.09,0,0,0,1.24.34c2.6-.73,5.2-1.4,7.81-2.1l.82-.22c-1.36-1.46-2.73-2.76-4.05-4.11l-4.09-4.11-4-4.06-4.09-4.1-4.12-4.14,1.71-.46c1.91-.51,3.83-1,5.74-1.54a.89.89,0,0,1,1,.27Q539,207.73,547.23,216l.62.59,4.07-15.21,5.89,6-3,11.09c.32-.06.55-.09.76-.15,1.94-.51,3.87-1.05,5.81-1.53a1.09,1.09,0,0,0,.92-.91c1.12-4.29,2.27-8.57,3.41-12.86l4.46-16.72c0-.16.08-.32.13-.54L565,180.33l-3,11.11L554,193.6l4-15.18-.82.22-14.53,3.84c-2.63.7-5.26,1.38-7.88,2.1a1,1,0,0,1-1.13-.3c-1.59-1.65-3.21-3.26-4.82-4.89-.15-.15-.28-.31-.48-.53l27.72-7.4a6,6,0,0,0-.39-.49c-2-2-4-4-5.94-6a1,1,0,0,0-1.12-.3c-4.88,1.32-9.77,2.61-14.65,3.94a1.19,1.19,0,0,1-1.36-.38c-1.52-1.58-3.08-3.12-4.62-4.68-.18-.18-.34-.37-.6-.65l16-4.26c-.81-.94-1.63-1.68-2.4-2.47s-1.55-1.56-2.32-2.33l-2.43-2.45c1.67-1.72,3.36-3.38,5.08-5.1l7.19,7.22,4.32-16.12,5.88,5.89-1.1,4.15q-1.52,5.7-3.05,11.4a.9.9,0,0,0,.23,1c2,2,4.08,4.08,6.11,6.12.1.1.21.18.38.31l7.43-27.92,5.88,5.89-6.35,23.95c2.6-.65,5.06-1.33,7.53-2l7.47-2a56.86,56.86,0,0,1-2,8.07l-11,2.95c.24.26.41.45.58.63,1.36,1.37,2.73,2.73,4.08,4.12a1.05,1.05,0,0,0,1.18.33q8.29-2.24,16.59-4.44c4.31-1.15,8.62-2.31,12.93-3.44a1,1,0,0,0,.88-.86c.48-1.92,1-3.83,1.52-5.74.05-.2.09-.41.17-.74l-.82.22c-3.18.85-6.36,1.69-9.53,2.58a1.09,1.09,0,0,1-1.24-.34c-1.56-1.6-3.16-3.18-4.74-4.76l-.62-.64c.89-.3,1.71-.48,2.52-.7l2.49-.67,2.56-.68,2.49-.66,2.49-.66,2.6-.69-17.45-17.62,2.16-8,20.35,20.49c.09-.26.16-.45.22-.65.72-2.69,1.43-5.39,2.17-8.08a1,1,0,0,0-.3-1.13q-5.3-5.27-10.56-10.58a4.22,4.22,0,0,0-.41-.4.72.72,0,0,1-.22-.89c.35-1.24.68-2.48,1-3.73l1-3.79L616,135.45c.94-3.29,1.74-6.53,2.66-9.82l6.94,1.88L623,137.22a1.17,1.17,0,0,0,.86-.08l14.25-3.78.92-.25-2.13,8-16.09,4.29-2.51,9.4c4.72-1.22,9.31-2.49,13.9-3.71l13.89-3.71c0,.28-.05.46-.1.64-.6,2.26-1.22,4.51-1.79,6.78a.94.94,0,0,1-.8.76q-5.6,1.48-11.2,3l-11.26,3-.76.2c3.69,3.77,7.35,7.4,11,11.14-.22.09-.36.16-.51.2-2.28.61-4.57,1.19-6.85,1.82a1.05,1.05,0,0,1-1.18-.34c-2.31-2.37-4.65-4.72-7-7.07l-.6-.58c-.09.27-.16.46-.21.66-.51,1.91-1,3.83-1.54,5.73a.9.9,0,0,0,.25,1q11,11,22,22.1c.1.1.21.19.32.29l7-1.86c-2.71-2.77-5.42-5.43-8.1-8.16l2.14-8.09L648,189.85,654.46,166l8-2.13c-.57,2.38-1.23,4.68-1.84,7s-1.23,4.6-1.85,6.91l-1.86,7-1.86,7,9.37-2.5,4.27-16,8-2.13c-.22,1.11-.54,2.14-.81,3.19s-.56,2.12-.85,3.18l-.86,3.25c-.28,1.06-.57,2.12-.85,3.18s-.55,2.1-.86,3.27l9.74-2.6,1.87,7-9.76,2.61Zm-77.84-26.76-.75.2q-14.69,3.92-29.38,7.83a1.16,1.16,0,0,0-1,1q-3.92,14.79-7.89,29.56a1,1,0,0,0,.29,1.13q10.85,10.88,21.67,21.8a1,1,0,0,0,1.12.29q14.79-4,29.58-7.89a1,1,0,0,0,.82-.83q3.91-14.75,7.87-29.49a1.27,1.27,0,0,0-.37-1.43Q621.1,192.17,612,183Z"/><path class="cls-1" d="M593.31,234.82l-2.48-2.49q-7.51-7.55-15-15.1a1.11,1.11,0,0,1-.33-1.25q3.11-11.56,6.17-23.14a1.27,1.27,0,0,1,1-1.06q11.52-3,23-6.14a1.21,1.21,0,0,1,1.37.37q8.42,8.52,16.87,17l.53.54c0,.16-.06.35-.11.53q-3.12,11.71-6.23,23.42a1.16,1.16,0,0,1-.94,1q-11.59,3.05-23.16,6.16Zm11-41.25L587.79,198c0,.13-.1.23-.13.35q-2.1,7.87-4.22,15.75a.85.85,0,0,0,.29.93q5.6,5.62,11.19,11.26a1,1,0,0,0,1.18.31c5.06-1.37,10.13-2.72,15.2-4.07l.65-.17c.07-.24.14-.47.2-.69,1.36-5.09,2.71-10.18,4.09-15.26a1,1,0,0,0-.32-1.12q-5.16-5.16-10.28-10.34Z"/><path class="cls-2" d="M1080.82,361l-21.73,9.67-15-33.63c-3.61,4.67-6.76,9.3-10.24,13.91l-19.18-13.9c.29-.45.55-.89.85-1.3q8.17-11.24,16.38-22.46a2.44,2.44,0,0,0,.37-2.87c-2.14-4.59-4.15-9.24-6.22-13.87-.21-.47-.47-.91-.84-1.63l-23.69,32.56-19.21-13.93c.33-.49.63-1,1-1.42q14.89-20.48,29.82-40.93a2.68,2.68,0,0,0,.31-3.15c-2.16-4.64-4.21-9.33-6.26-14a5.06,5.06,0,0,0-1.78-2.18c-3.82-2.72-7.6-5.5-11.39-8.25-.43-.31-.87-.6-1.45-1-.09.63-.17,1.14-.22,1.65q-2.12,19.95-4.21,39.9A5.34,5.34,0,0,1,987,287c-2.36,3.16-4.67,6.35-7,9.52-.31.42-.64.83-1.09,1.41-.25-.46-.43-.75-.56-1.06-1.66-3.75-3.31-7.51-5-11.26a5.49,5.49,0,0,1-.44-2.94q2.13-19.7,4.19-39.41c.06-.57.08-1.14.13-1.89-.52.17-.91.27-1.28.43-4.58,2-9.17,4.06-13.73,6.13a4.21,4.21,0,0,0-1.62,1.2c-3.26,4.41-6.47,8.86-9.69,13.3-.18.25-.34.53-.55.88l21.88,49.14-21.64,9.64-16.19-36.37c-1,.66-9.74,12.4-11.18,15l12.48,28-21.67,9.65-6.94-15.58c-2.13,2.61-3.83,5.15-5.64,7.6s-3.58,4.9-5.37,7.36-3.62,5-5.44,7.51-3.57,4.88-5.43,7.42l-19.25-14,21.75-29.94-17.18-1.82,2.5-23.63L904,286.51l11-15.12-40.16-4.2,2.5-23.64,2.32.23q24.95,2.6,49.89,5.24a2.43,2.43,0,0,0,2.63-1.18c2.95-4.18,6-8.27,9-12.42a4.2,4.2,0,0,0,.84-1.84c.59-5.19,1.1-10.38,1.64-15.58,0-.25,0-.5,0-1l-1.87.83q-18,8-35.94,16a5.36,5.36,0,0,1-2.93.46c-4.13-.48-8.26-.89-12.39-1.33-.36,0-.72-.12-1.22-.21.33-.48.57-.87.84-1.24,2.43-3.31,4.87-6.6,7.27-9.92a4.87,4.87,0,0,1,2.07-1.65q18.21-8.07,36.39-16.19l1.89-.84c-.54-.44-.85-.71-1.18-.95-4-2.88-7.92-5.78-11.91-8.63a3.86,3.86,0,0,0-1.71-.75c-5.82-.65-11.65-1.24-17.48-1.84a2.32,2.32,0,0,0-.44.07l-31.76,43.65-19.24-14,23.74-32.67-18.59-2L840.9,211l-19.24-14,10.14-14L795,179.18l2.51-23.65,36.7,3.83a36.47,36.47,0,0,0-1.68-4c-.55-1.27-1.12-2.53-1.69-3.8l-1.76-3.95-1.66-3.74c1-.84,19.51-9.17,21.63-9.76.26.52.55,1.06.8,1.63,3.69,8.28,7.41,16.54,11,24.86a2.77,2.77,0,0,0,2.7,1.89c4.67.4,9.32.94,14,1.43l2.53.25a29.15,29.15,0,0,0-1.9-4.65c-.66-1.57-1.38-3.12-2.07-4.68l-2-4.53-2-4.53-2-4.53L868,136.54,866,132l-2.05-4.62,21.71-9.67.78,1.75q10.21,22.94,20.4,45.9a2.67,2.67,0,0,0,2.55,1.86c5,.44,10.07,1,15.1,1.56a4.79,4.79,0,0,0,2.62-.39c4.41-2,8.86-4,13.29-5.94l1.5-.67c-.61-.48-1-.84-1.49-1.17q-15.85-11.5-31.71-23a7,7,0,0,1-2.46-3c-1.49-3.48-3.11-6.9-4.68-10.35l-.71-1.59c.69,0,1.16,0,1.62.06,4.13.43,8.26.88,12.39,1.29a4.27,4.27,0,0,1,2.19.84q16.09,11.71,32.21,23.38c.46.33.93.64,1.56,1.07.11-.66.21-1.11.26-1.56.52-4.87,1-9.75,1.56-14.62a4.54,4.54,0,0,0-.4-2.47c-2.11-4.67-4.21-9.33-6.23-14a2.34,2.34,0,0,0-2.22-1.62q-25.27-2.58-50.54-5.25c-.53-.06-1-.14-1.75-.23L894,85.92l40,4.18c-.21-.6-.34-1-.52-1.46-2.12-4.78-4.28-9.54-6.35-14.33a2.1,2.1,0,0,0-2-1.41C915.84,72,906.57,71,897.3,70c-.47,0-.94-.12-1.63-.21l2.51-23.61,16.92,1.75a13.78,13.78,0,0,0-1.43-3.76c-.52-1.29-1.12-2.54-1.68-3.8l-1.63-3.65-1.69-3.8-1.63-3.65-1.69-3.8-1.63-3.65L902,18l-1.65-3.7,21.69-9.66,15,33.62c3.6-4.66,6.75-9.29,10.26-13.94,6.44,4.59,12.76,9.26,19.25,13.93L948.33,63.36l7.56,17c2.81-3.63,5.34-7.28,8-10.86s5.21-7.14,7.81-10.72l8-11,19.25,14c-10.58,14.62-21.19,29.12-31.78,43.73.15.39.27.79.44,1.17,2.14,4.82,4.28,9.65,6.46,14.46a4.19,4.19,0,0,0,1.21,1.61c4.28,3.17,8.61,6.28,12.92,9.4.16.11.34.2.63.37.1-.69.19-1.26.25-1.83q2.07-19.63,4.13-39.26a5.69,5.69,0,0,1,1.08-2.93c2.4-3.26,4.74-6.56,7.1-9.85.24-.33.51-.65.86-1.09.29.56.52,1,.71,1.37,1.68,3.75,3.33,7.51,5,11.25a4.81,4.81,0,0,1,.4,2.62q-2.12,19.71-4.18,39.42c-.06.57-.08,1.14-.12,1.85.54-.21.93-.34,1.3-.5,4.53-2,9.06-4,13.6-6a3.94,3.94,0,0,0,1.71-1.36c3.08-4.28,6.17-8.55,9.32-12.78a2.23,2.23,0,0,0,.24-2.59q-10.29-23-20.51-46l-.86-1.93,21.46-9.56.19.05a.36.36,0,0,1,.12.09,1.16,1.16,0,0,1,.19.26l16.1,36.16c.4-.46.72-.77,1-1.13,3.11-4.26,6.18-8.54,9.33-12.77a2.1,2.1,0,0,0,.21-2.45c-3.76-8.36-7.48-16.75-11.21-25.13l-.8-1.8,21.67-9.65,7,15.7c2.66-3.4,5-6.74,7.36-10s4.76-6.54,7.15-9.82l7.35-10.1,19.22,13.92c-3.53,5-7.18,9.92-10.75,14.86s-7.2,9.9-11,15.1l17.18,1.82L1108.1,92c-.65,0-1.21-.06-1.77-.12-9.16-1-18.33-1.89-27.49-2.91a2.43,2.43,0,0,0-2.62,1.19c-2.95,4.18-6,8.29-9,12.42-.27.38-.52.77-.93,1.37l40.1,4.22-2.5,23.65-53.84-5.63-3.75,5.16c-2.2,3-4.41,6-6.58,9a3.88,3.88,0,0,0-.74,1.71c-.59,5.24-1.13,10.49-1.68,15.73a3.94,3.94,0,0,0,.07.66c.57-.22,1.09-.4,1.59-.62q18.2-8.09,36.38-16.21a5.73,5.73,0,0,1,3.08-.5c4.45.47,8.9.88,13.53,1.33-.27.45-.45.81-.68,1.13-2.47,3.41-5,6.8-7.41,10.22a5.12,5.12,0,0,1-2.21,1.74q-18.06,8-36.1,16.06l-1.74.77c.47.41.76.7,1.09.94q6.07,4.43,12.16,8.82a3.52,3.52,0,0,0,1.57.67c5.77.64,11.54,1.22,17.43,1.84l31.85-43.77,19.25,14-23.73,32.66,18.56,2,18.27-25.09,19.25,13.94-10.11,13.93c4.2.61,8.25.91,12.29,1.35s8.05.85,12.08,1.27l12.4,1.31-2.5,23.65L1146.87,216c2.35,5.38,4.65,10.43,6.87,15.5-1,.81-18.77,8.84-21.64,9.78l-6.28-14.07-6.26-14.07L1101,211.15l16.24,36.47c-1,.86-19.49,9.22-21.77,9.84l-.81-1.82q-10.18-22.87-20.34-45.75a2.57,2.57,0,0,0-2.43-1.8c-5.09-.44-10.17-1-15.26-1.53a4.21,4.21,0,0,0-2,.22c-4.84,2.1-9.66,4.27-14.48,6.42a7.34,7.34,0,0,0-.67.4c.36.32.65.61,1,.85q16.16,11.74,32.35,23.45a6.14,6.14,0,0,1,2.15,2.68c1.55,3.63,3.17,7.23,4.76,10.84.17.39.31.79.53,1.34-.51,0-.91,0-1.3,0-4.13-.44-8.26-.91-12.39-1.32a4.55,4.55,0,0,1-2.33-.9q-16.28-11.85-32.59-23.66c-.43-.31-.87-.6-1.44-1-.09.59-.18,1-.23,1.51-.52,4.87-1,9.75-1.56,14.62a4.24,4.24,0,0,0,.42,2.3c2.16,4.82,4.33,9.63,6.42,14.48a2.23,2.23,0,0,0,2.12,1.52q25.51,2.61,51,5.31l1.34.16c-.79,7.87-1.64,15.67-2.49,23.64l-40.07-4.19,7.6,17.06,30.78,3.23-2.5,23.64-17.2-1.77ZM984.35,173.73a7.43,7.43,0,0,0,.21-.82c.78-7.3,1.54-14.61,2.35-21.9a1.77,1.77,0,0,0-.91-1.83q-8.79-6.37-17.55-12.78a6.52,6.52,0,0,0-.93-.47,2.9,2.9,0,0,0-.13.42c-.77,7.46-1.53,14.93-2.33,22.39a1.52,1.52,0,0,0,.77,1.58c2.3,1.63,4.57,3.3,6.85,5Zm-9,12.35c-.43-.36-.74-.63-1.06-.87-5.64-4.1-11.31-8.18-16.92-12.33a2.23,2.23,0,0,0-2.6-.21c-6.17,2.79-12.36,5.52-18.54,8.28-.47.21-.91.46-1.58.81l19.06,14Zm46-20.44,2.38-23.51c-.51.17-.81.24-1.09.37-6.47,2.88-12.93,5.78-19.42,8.62a1.89,1.89,0,0,0-1.2,1.83c-.71,6.93-1.46,13.86-2.18,20.8,0,.46,0,.92-.08,1.51Zm-64,67.69,21.89-9.75,2.47-23.48-21.93,9.76Zm39.63-31.66a4.58,4.58,0,0,0-.17.55c-.79,7.36-1.55,14.73-2.37,22.09a1.62,1.62,0,0,0,.85,1.69q8.7,6.24,17.37,12.52c.23.16.49.28.92.51l2.53-23.47Zm49.79-8.15c-.34-.3-.49-.45-.66-.57-5.81-4.24-11.63-8.45-17.41-12.72a1.87,1.87,0,0,0-2.17-.15c-6.32,2.84-12.65,5.65-19,8.47-.46.21-.91.46-1.61.82L1025,203.21Z"/><path class="cls-3" d="M49.11,210.09l-4.88-1.39,2.15-7.56c-1.23.27-2.38.6-3.58.88l-1.24-4.9.32-.1,5.76-1.44a.52.52,0,0,0,.45-.42c.28-1,.58-2.08.88-3.12,0-.11,0-.21.09-.38l-8.33,2.1-1.24-4.91.35-.1,10.48-2.63a.57.57,0,0,0,.48-.47c.28-1.06.59-2.1.89-3.15a1.08,1.08,0,0,0,0-.6c-.25-1-.49-1.94-.74-2.91,0-.11-.06-.22-.1-.36l-.26.24-6.15,6a1.14,1.14,0,0,1-.55.31l-2.45.6-.37.08c0-.11,0-.18.05-.25.24-.84.48-1.68.72-2.53a1.17,1.17,0,0,1,.33-.54l6.08-5.89.28-.29-.27-.1-3.09-.87a.9.9,0,0,0-.43,0l-3.41.85-.21.07-3.14,11-4.86-1.38,2.32-8.17a30.45,30.45,0,0,0-3.88.92l-1.79,6.3-4.87-1.38,1-3.5c-.71.14-1.33.32-2,.47L22,181l-1.92.49-1.9.47L17,177.05l7.66-1.93-2.57-2.65,3.64-3.53,4.62,4.75,3.87-1-6-6.18L31.83,163l.35.36q3.73,3.84,7.46,7.68a.52.52,0,0,0,.59.17c1.05-.28,2.12-.53,3.17-.81a.9.9,0,0,0,.39-.19c.81-.77,1.6-1.55,2.4-2.33l.14-.17-.42-.12-8.08-2.29a1.14,1.14,0,0,1-.54-.32c-.61-.64-1.23-1.28-1.85-1.91l-.17-.2.31-.09,2.55-.63a1,1,0,0,1,.57,0l8.18,2.33.43.12c0-.15,0-.23-.06-.32-.25-1-.51-2-.77-3a.82.82,0,0,0-.18-.36c-.87-.9-1.74-1.8-2.61-2.69l-.08,0L32.41,161,31.17,156l8.36-2.11-2.78-2.86-6.43,1.62-1.24-4.92,3.57-.9-5.5-5.67,3.65-3.53,5.49,5.65a7.78,7.78,0,0,0,.28-.89c.08-.28.16-.57.24-.85l.25-.89.24-.84c.28,0,4.45,1.16,4.88,1.36,0,.12-.06.25-.09.38-.53,1.86-1,3.73-1.59,5.58a.59.59,0,0,0,.18.68c.71.7,1.4,1.43,2.1,2.15l.38.39a6.22,6.22,0,0,0,.32-1c.11-.35.2-.7.3-1.05l.29-1,.29-1,.29-1,.3-1.05.29-1,.29-1,4.88,1.39-.11.39q-1.46,5.16-2.94,10.31a.57.57,0,0,0,.16.65c.77.76,1.51,1.54,2.26,2.32a1,1,0,0,0,.48.29l3,.84.34.1c0-.16-.05-.28-.08-.4q-1-4.05-2.05-8.1a1.49,1.49,0,0,1,0-.83c.23-.77.43-1.56.65-2.34l.1-.36.26.23,1.86,1.91a.91.91,0,0,1,.24.44q1,4.12,2.08,8.24c0,.12.06.23.11.39l.26-.22,2.26-2.18a1,1,0,0,0,.27-.46c.29-1.05.59-2.11.9-3.15a.5.5,0,0,0-.14-.57q-3.79-3.88-7.56-7.77l-.25-.28,3.64-3.53,6,6.16c0-.13.09-.22.11-.31.31-1.07.6-2.15.92-3.22a.45.45,0,0,0-.14-.51l-4.16-4.28-.24-.26,3.64-3.53,2.53,2.6a2.94,2.94,0,0,0,.28-.81c.09-.28.16-.57.24-.85l.23-.82.24-.85L66,132l.24-.85.23-.82.24-.85.24-.83L71.85,130l-2.15,7.56c1.23-.27,2.38-.6,3.59-.88.43,1.63.82,3.26,1.25,4.91l-6.42,1.62L67,147c1-.21,1.87-.46,2.79-.69l2.75-.69,2.81-.71,1.24,4.92-11.19,2.82c0,.08-.06.17-.09.25-.31,1.08-.62,2.17-.92,3.25a.89.89,0,0,0,0,.43c.27,1.1.55,2.21.83,3.31,0,0,0,.08.05.15l.29-.26,6-5.87a1.21,1.21,0,0,1,.58-.33l2.51-.64.29-.06c0,.13,0,.23-.07.32-.24.84-.48,1.69-.71,2.53a1,1,0,0,1-.29.49l-6.08,5.89-.27.29.28.1,3.05.87a.84.84,0,0,0,.47,0c1.09-.28,2.18-.56,3.28-.82a.48.48,0,0,0,.39-.39Q76.51,157,78,151.81l.12-.43,4.82,1.37,0,0a.08.08,0,0,1,0,0,.25.25,0,0,1,0,.07L80.65,161,81,161c1.09-.27,2.18-.56,3.28-.82a.45.45,0,0,0,.37-.37c.53-1.89,1.07-3.77,1.6-5.65l.11-.4,4.87,1.38-1,3.53c.9-.19,1.74-.43,2.58-.63l2.51-.63,2.59-.65,1.25,4.91c-1.27.34-2.53.64-3.8,1l-3.86,1L94,166.21l-3.63,3.52-.27-.26c-1.37-1.41-2.75-2.82-4.11-4.24a.52.52,0,0,0-.59-.16c-1.05.28-2.12.54-3.17.81l-.34.1,6,6.18-3.64,3.53L76.2,167.4l-1.32.33-2.31.58a.83.83,0,0,0-.36.18c-.81.78-1.62,1.56-2.43,2.35a.84.84,0,0,0-.08.12l.35.12,8.18,2.32a1.22,1.22,0,0,1,.57.34c.66.69,1.34,1.36,2,2.07l-.26.09-2.61.66a1.09,1.09,0,0,1-.6,0l-8.11-2.31-.39-.11c0,.13,0,.22.05.3.26,1,.52,2.07.79,3.11a.75.75,0,0,0,.17.32l2.61,2.69,11.21-2.82,1.25,4.92-8.36,2.11,2.77,2.86L85.76,186,87,190.91l-3.56.9c.6.67,1.23,1.28,1.83,1.9l1.81,1.86,1.85,1.91L85.29,201l-5.51-5.67c-.35,1.2-.67,2.35-1,3.48-.27,0-4.28-1.12-4.88-1.36l.9-3.16.9-3.16-2.77-2.85-2.33,8.2c-.27,0-4.46-1.15-4.91-1.36l.12-.41q1.46-5.14,2.92-10.28a.55.55,0,0,0-.15-.63c-.77-.77-1.53-1.56-2.29-2.34a.9.9,0,0,0-.36-.24l-3.25-.93-.16,0c0,.1,0,.19,0,.27q1,4.13,2.09,8.27a1.31,1.31,0,0,1,0,.73c-.24.81-.47,1.62-.7,2.43,0,.09-.06.17-.1.29l-.21-.18-1.85-1.91a1,1,0,0,1-.26-.47q-1-4.17-2.1-8.34l-.1-.36-.24.22-2.26,2.18a.91.91,0,0,0-.25.43c-.3,1.08-.61,2.17-.93,3.25a.48.48,0,0,0,.14.54l7.63,7.85.2.21c-1.21,1.18-2.41,2.34-3.64,3.53l-6-6.17-1.09,3.84,4.6,4.74-3.64,3.53-2.58-2.64Zm9.81-43.89.15-.11,3.38-3.27a.38.38,0,0,0,.1-.42c-.38-1.5-.75-3-1.13-4.5a1.39,1.39,0,0,0-.09-.2l-.08.05-3.44,3.35a.33.33,0,0,0-.09.36c.15.58.3,1.17.44,1.75Zm-3.17.79c0-.12,0-.2-.06-.29-.36-1.44-.73-2.89-1.09-4.33a.48.48,0,0,0-.4-.39L50,160.8l-.37-.08,1.21,4.89Zm10.33,2.94,3.61-3.53-.23-.09-4.36-1.24a.4.4,0,0,0-.45.14l-3.2,3.11-.22.24Zm-19.74,2.34,4.92,1.4,3.62-3.51-4.93-1.4Zm10.82.23-.1.07-3.41,3.29a.35.35,0,0,0-.09.39c.38,1.48.76,3,1.13,4.43,0,.06,0,.11.08.21l3.62-3.5ZM66.44,178c0-.1,0-.14,0-.18-.37-1.49-.75-3-1.11-4.47A.4.4,0,0,0,65,173l-4.27-1.21-.38-.09,1.23,4.88Z"/><path class="cls-3" d="M1183,205.83l1.72-2.89h.3l6.19.1a.42.42,0,0,0,.44-.24c.56-1,1.14-1.92,1.71-2.88l.16-.27-11.75-.17,1.73-2.9,10.06.13-3.14-5.59,3.41.06,2.29,4.07c.07-.1.12-.16.16-.23.41-.69.82-1.39,1.24-2.07a.42.42,0,0,0,0-.5q-2.22-3.92-4.43-7.85l-1.65-2.94-.19-.33-3,0,.16.31c.66,1.17,1.32,2.35,2,3.51a.42.42,0,0,1,0,.5c-.48.79-.94,1.58-1.41,2.38l-.18.3-3.13-5.55-.17.24-1.43,2.37q-1.71,2.86-3.41,5.73a.47.47,0,0,1-.48.27c-.91,0-1.82,0-2.73-.05l-.31,0c.38-.71.8-1.35,1.19-2s.79-1.33,1.19-2l1.19-2,1.19-2,1.22-2-4-.06L1175.7,187l-3.36-.06c1.13-2,2.29-3.85,3.43-5.81l-4.14-.07,0-2.92c1.38,0,2.73,0,4.14,0l-3.31-5.9.24,0,2.88,0a.38.38,0,0,1,.38.23c1,1.8,2,3.6,3,5.41a.51.51,0,0,0,.52.31c1.1,0,2.19,0,3.29,0h.32L1177.38,168c1.15,0,2.25,0,3.38,0l4.95,8.76a8.33,8.33,0,0,0,.56-.9c.18-.3.36-.6.54-.9l.55-.93.54-.9.54-.9.55-.93c.07.12.13.19.17.27.46.82.91,1.65,1.38,2.46a.4.4,0,0,1,0,.47c-.72,1.19-1.42,2.38-2.13,3.57l-.09.17.2,0,2.65,0a.28.28,0,0,0,.3-.17,1.2,1.2,0,0,1,.07-.13q3.13-5.27,6.27-10.53a.49.49,0,0,0,0-.58c-.4-.67-.78-1.36-1.16-2l-.2-.33-2.37,4-3.41,0,3.26-5.49c-1.17,0-2.28,0-3.38-.06l-3.34-.05-3.37-.06-1.66-3,11.76.18L1192,156.7l-6.79-.1-1.66-2.95,6.78.09-2-3.61,2.56-1.43,2,3.6c.34-.5.6-1,.88-1.45l.86-1.45.85-1.43.86-1.45c.08.11.13.18.17.26.46.82.92,1.64,1.39,2.45a.38.38,0,0,1,0,.45c-1.06,1.76-2.1,3.53-3.17,5.3a.49.49,0,0,0,0,.58c.55,1,1.09,1.92,1.63,2.88l.16.26,6-10a25.63,25.63,0,0,1,1.69,2.92l-5.12,8.61,6.39.1-1.73,2.91-4.68-.07,1.53,2.72,12.92.19,1.59-2.67h-.4l-4-.05a.38.38,0,0,1-.39-.22c-.46-.83-.93-1.66-1.4-2.48l-.14-.27,6.39.09c-.4-.76-.82-1.48-1.22-2.2l-1.24-2.21-1.22-2.18-1.23-2.19,1.72-2.89c.51.86,1,1.72,1.45,2.56l1.43,2.53,1.44,2.56,1.44,2.55,2-3.38-.14-.27q-1.51-2.69-3-5.37a.44.44,0,0,1,0-.52c.48-.78.94-1.56,1.4-2.35l.18-.3,3.33,5.89,2.09-3.52,2.54,1.51-2.1,3.53,6.77.11-1.72,2.9h-.74l-5.73-.09a.44.44,0,0,0-.46.25c-.55.95-1.12,1.89-1.68,2.83l-.18.3c.81,0,1.58,0,2.35,0l2.36,0,2.33,0,2.36,0,2.37,0-.37.62c-.41.69-.83,1.38-1.23,2.08a.36.36,0,0,1-.37.2l-9.48-.13h-.35l3.14,5.58-3.41-.06-2.29-4.07c-.08.11-.13.18-.18.26-.42.7-.83,1.4-1.25,2.1a.44.44,0,0,0,0,.53c.89,1.57,1.77,3.14,2.66,4.71l3.45,6.13.12.19,3.07,0-2.3-4.07,1.73-2.91,3.14,5.56.18-.3,3.14-5.25c.57-.95,1.14-1.9,1.7-2.85a.4.4,0,0,1,.41-.23c.93,0,1.86,0,2.79.05l.29,0-6,10,.25,0,3.43.06a.4.4,0,0,0,.41-.23c1-1.77,2.1-3.53,3.14-5.31a.48.48,0,0,1,.5-.28c.89,0,1.78,0,2.67,0l.36,0-3.44,5.78c.5,0,1,0,1.4,0l1.34,0,1.4,0c0,1,0,1.94,0,2.93l-4.14-.06,3.32,5.92-3.38,0-.86-1.52-2.35-4.18a.36.36,0,0,0-.35-.23l-3.52,0-.2,0,5.77,10.23-3.39,0-5-8.77c-.57.93-1.09,1.83-1.63,2.72l-1.61,2.7a23.12,23.12,0,0,1-1.7-2.93l2.38-4-.35,0-2.36,0a.43.43,0,0,0-.44.24q-1.77,3-3.57,6c-.93,1.56-1.85,3.12-2.79,4.68a.43.43,0,0,0,0,.5c.41.69.79,1.4,1.19,2.1l.16.26.18-.3c.68-1.15,1.37-2.3,2-3.46a.44.44,0,0,1,.46-.25l2.73,0h.36c-.17.34-.36.63-.53.92l-.53.9-.55.93-.54.9-.54.9-.56.94,10.08.17,1.66,3-11.74-.18c0,.1.08.18.12.25.56,1,1.12,2,1.66,3a.41.41,0,0,0,.41.24l6.08.08a1.72,1.72,0,0,0,.23,0,.29.29,0,0,1,.32.19c.25.46.51.91.76,1.37l.78,1.39-6.77-.09c.66,1.23,1.35,2.39,2,3.61l-2.55,1.42-2-3.56c-.14.05-.17.17-.23.27l-3.07,5.15-.2.33-1.66-2.94,3.46-5.82-1.94-3.45c-1,1.7-2,3.37-3,5l-3,5c-.07-.09-.12-.15-.15-.21-.47-.83-.93-1.66-1.41-2.48a.38.38,0,0,1,0-.45l2.41-4.05,2.41-4.08.16-.28c-2.14,0-4.24-.06-6.37-.11,0-.09.06-.15.09-.2.49-.82,1-1.65,1.47-2.48a.43.43,0,0,1,.44-.24l4,.07h.34l-.13-.25c-.39-.7-.79-1.4-1.18-2.1a.37.37,0,0,0-.36-.22l-12.68-.18h-.18l-1.5,2.52c1.58,0,3.12,0,4.68.07l1.68,3-6.41-.09,4.92,8.77-1.72,2.89c-.51-.85-1-1.71-1.45-2.55l-1.42-2.54-1.44-2.56-1.44-2.56-2,3.39,3.31,5.88-1.72,2.89c-.25-.38-.45-.78-.67-1.16s-.44-.78-.66-1.17l-.67-1.19-.65-1.17-.68-1.2-2.1,3.52-2.53-1.51,2.1-3.53Zm30.25-14.33.16-.27q3.16-5.31,6.32-10.62a.47.47,0,0,0,0-.55q-3.06-5.42-6.1-10.84a.41.41,0,0,0-.41-.24l-12.5-.19a.41.41,0,0,0-.41.24q-3.18,5.35-6.36,10.7a.41.41,0,0,0,0,.47Q1197,185.6,1200,191a.52.52,0,0,0,.51.31l10.46.15Z"/><path class="cls-3" d="M1201.74,171.08l1.43,0,8.66.13a.45.45,0,0,1,.45.27q2.38,4.25,4.78,8.48a.52.52,0,0,1,0,.6q-2.49,4.15-5,8.33a.49.49,0,0,1-.5.28l-9.74-.15h-.31l-.12-.18-4.84-8.58a.47.47,0,0,1,0-.55q2.5-4.18,5-8.37Zm8.53,15.12,3.55-6s0-.1-.06-.14l-3.25-5.78a.35.35,0,0,0-.35-.19l-6.45-.1a.42.42,0,0,0-.43.24q-1.63,2.76-3.27,5.5l-.14.23.14.26q1.58,2.8,3.15,5.6a.41.41,0,0,0,.41.23l5.93.09Z"/><path class="cls-3" d="M318.27,130.27l1.72-2.89h.3l6.19.1a.42.42,0,0,0,.44-.24c.56-1,1.14-1.92,1.71-2.88l.16-.27L317,123.91l1.73-2.9,10.06.13-3.14-5.59,3.41.06,2.29,4.07c.07-.1.12-.16.16-.23.41-.69.82-1.39,1.24-2.07a.42.42,0,0,0,0-.5q-2.22-3.92-4.43-7.85l-1.65-2.94-.19-.33-3,0,.16.31c.66,1.17,1.32,2.35,2,3.51a.42.42,0,0,1,0,.5c-.48.79-.94,1.58-1.41,2.38l-.18.3L321,107.17l-.17.24-1.43,2.37q-1.71,2.86-3.41,5.73a.47.47,0,0,1-.48.27c-.91,0-1.82,0-2.73-.05l-.31,0c.38-.71.8-1.35,1.19-2s.79-1.33,1.19-2l1.19-2,1.19-2,1.22-2-4-.06L311,111.4l-3.36-.06c1.13-2,2.29-3.85,3.43-5.81l-4.14-.07,0-2.92c1.38,0,2.73,0,4.14,0l-3.31-5.9.24,0,2.88,0a.38.38,0,0,1,.38.23c1,1.8,2,3.6,3,5.41a.51.51,0,0,0,.52.31c1.1,0,2.19,0,3.29,0h.32l-5.77-10.23c1.15,0,2.25,0,3.38,0l4.95,8.76a8.33,8.33,0,0,0,.56-.9c.18-.3.36-.6.54-.9l.55-.93.54-.9.54-.9.55-.93c.07.12.13.19.17.27.46.82.91,1.65,1.38,2.46a.4.4,0,0,1,0,.47c-.72,1.19-1.42,2.38-2.13,3.57l-.09.17.2,0,2.65,0a.28.28,0,0,0,.3-.17,1.2,1.2,0,0,1,.07-.13q3.13-5.27,6.27-10.53a.49.49,0,0,0,0-.58c-.4-.67-.78-1.36-1.16-2l-.2-.33-2.37,4-3.41,0,3.26-5.49c-1.17,0-2.28,0-3.38-.06l-3.34-.05-3.37-.06-1.66-3,11.76.18-1.94-3.45-6.79-.1-1.66-2.95,6.78.09-2-3.61,2.56-1.43,2,3.6c.34-.5.6-1,.88-1.45l.86-1.45.85-1.43.86-1.45c.08.11.13.18.17.26.46.82.92,1.64,1.39,2.45a.38.38,0,0,1,0,.45c-1.06,1.76-2.1,3.53-3.17,5.3a.49.49,0,0,0,0,.58c.55,1,1.09,1.92,1.63,2.88l.16.26,6-10A25.63,25.63,0,0,1,339.43,76l-5.12,8.61,6.39.1L339,87.67l-4.68-.07,1.53,2.72,12.92.19,1.59-2.67h-.4l-4-.05a.38.38,0,0,1-.39-.22c-.46-.83-.93-1.66-1.4-2.48l-.14-.27,6.39.09c-.4-.76-.82-1.48-1.22-2.2l-1.24-2.21-1.22-2.18-1.23-2.19,1.72-2.89c.51.86,1,1.72,1.45,2.56l1.43,2.53,1.44,2.56,1.44,2.55,2-3.38-.14-.27q-1.51-2.69-3-5.37a.44.44,0,0,1,0-.52c.48-.78.94-1.56,1.4-2.35l.18-.3,3.33,5.89,2.09-3.52,2.54,1.51-2.1,3.53,6.77.11-1.72,2.9h-.74l-5.73-.09a.44.44,0,0,0-.46.25c-.55.95-1.12,1.89-1.68,2.83l-.18.3c.81,0,1.58,0,2.35,0l2.36,0,2.33,0,2.36,0,2.37,0-.37.62c-.41.69-.83,1.38-1.23,2.08a.36.36,0,0,1-.37.2l-9.48-.13h-.35l3.14,5.58-3.41-.06-2.29-4.07c-.08.11-.13.18-.18.26-.42.7-.83,1.4-1.25,2.1a.44.44,0,0,0,0,.53c.89,1.57,1.77,3.14,2.66,4.71l3.45,6.13.12.19,3.07,0-2.3-4.07,1.73-2.91,3.14,5.56.18-.3,3.14-5.25c.57-.95,1.14-1.9,1.7-2.85a.4.4,0,0,1,.41-.23c.93,0,1.86,0,2.79.05l.29,0-6,10,.25,0,3.43.06a.4.4,0,0,0,.41-.23c1-1.77,2.1-3.53,3.14-5.31a.48.48,0,0,1,.5-.28c.89,0,1.78,0,2.67,0l.36,0-3.44,5.78c.5,0,1,0,1.4,0l1.34,0,1.4,0c0,1,0,1.94,0,2.93l-4.14-.06,3.32,5.92-3.38,0-.86-1.52-2.35-4.18a.36.36,0,0,0-.35-.23l-3.52,0-.2,0,5.77,10.23-3.39,0-5-8.77c-.57.93-1.09,1.83-1.63,2.72L360,113.2a23.12,23.12,0,0,1-1.7-2.93l2.38-4-.35,0-2.36,0a.43.43,0,0,0-.44.24q-1.77,3-3.57,6c-.93,1.56-1.85,3.12-2.79,4.68a.43.43,0,0,0,0,.5c.41.69.79,1.4,1.19,2.1l.16.26.18-.3c.68-1.15,1.37-2.3,2-3.46a.44.44,0,0,1,.46-.25l2.73,0h.36c-.17.34-.36.63-.53.92l-.53.9-.55.93-.54.9-.54.9-.56.94,10.08.17,1.66,3-11.74-.18c0,.1.08.18.12.25.56,1,1.12,2,1.66,3a.41.41,0,0,0,.41.24l6.08.08a1.72,1.72,0,0,0,.23,0,.29.29,0,0,1,.32.19c.25.46.51.91.76,1.37l.78,1.39-6.77-.09c.66,1.23,1.35,2.39,2,3.61l-2.55,1.42-2-3.56c-.14.05-.17.17-.23.27l-3.07,5.15-.2.33L351,135.17l3.46-5.82-1.94-3.45c-1,1.7-2,3.37-3,5l-3,5c-.07-.09-.12-.15-.15-.21-.47-.83-.93-1.66-1.41-2.48a.38.38,0,0,1,0-.45l2.41-4.05,2.41-4.08.16-.28c-2.14,0-4.24-.06-6.37-.11,0-.09.06-.15.09-.2.49-.82,1-1.65,1.47-2.48a.43.43,0,0,1,.44-.24l4,.07H350l-.13-.25c-.39-.7-.79-1.4-1.18-2.1a.37.37,0,0,0-.36-.22l-12.68-.18h-.18l-1.5,2.52c1.58,0,3.12,0,4.68.07l1.68,3-6.41-.09,4.92,8.77-1.72,2.89c-.51-.85-1-1.71-1.45-2.55l-1.42-2.54-1.44-2.56-1.44-2.56-2,3.39,3.31,5.88-1.72,2.89c-.25-.38-.45-.78-.67-1.16s-.44-.78-.66-1.17l-.67-1.19-.65-1.17-.68-1.2-2.1,3.52L323,133.91l2.1-3.53Zm30.25-14.33.16-.27q3.16-5.31,6.32-10.62a.47.47,0,0,0,0-.55q-3.06-5.42-6.1-10.84a.41.41,0,0,0-.41-.24L336,93.22a.41.41,0,0,0-.41.24q-3.18,5.35-6.36,10.7a.41.41,0,0,0,0,.47q3.05,5.4,6.09,10.82a.52.52,0,0,0,.51.31l10.46.15Z"/><path class="cls-3" d="M337,95.52l1.43,0,8.66.13a.45.45,0,0,1,.45.27q2.38,4.25,4.78,8.48a.52.52,0,0,1,0,.6q-2.49,4.15-5,8.33a.49.49,0,0,1-.5.28l-9.74-.15h-.31l-.12-.18-4.84-8.58a.47.47,0,0,1,0-.55q2.5-4.18,5-8.37Zm8.53,15.12,3.55-6s0-.1-.06-.14l-3.25-5.78a.35.35,0,0,0-.35-.19l-6.45-.1a.42.42,0,0,0-.43.24q-1.63,2.76-3.27,5.5l-.14.23.14.26q1.58,2.8,3.15,5.6a.41.41,0,0,0,.41.23l5.93.09Z"/><path class="cls-3" d="M754.55,174.47l1.72-2.89h.3l6.19.1a.42.42,0,0,0,.44-.24c.56-1,1.14-1.92,1.71-2.88l.16-.27-11.75-.17,1.73-2.9,10.06.13L762,159.75l3.41.06,2.29,4.07c.07-.1.12-.16.16-.23.41-.69.82-1.39,1.24-2.07a.42.42,0,0,0,0-.5q-2.22-3.92-4.43-7.85L763,150.29l-.19-.33-3,0,.16.31c.66,1.17,1.32,2.35,2,3.51a.42.42,0,0,1,0,.5c-.48.79-.94,1.58-1.41,2.38l-.18.3-3.13-5.55-.17.24L755.64,154q-1.71,2.86-3.41,5.73a.47.47,0,0,1-.48.27c-.91,0-1.82,0-2.73-.05l-.31,0c.38-.71.8-1.35,1.19-2s.79-1.33,1.19-2l1.19-2,1.19-2,1.22-2-4-.06-3.46,5.82-3.36-.06c1.13-2,2.29-3.85,3.43-5.81l-4.14-.07,0-2.92c1.38,0,2.73,0,4.14,0l-3.31-5.9.24,0,2.88,0a.38.38,0,0,1,.38.23c1,1.8,2,3.6,3,5.41a.51.51,0,0,0,.52.31c1.1,0,2.19,0,3.29,0h.32l-5.77-10.23c1.15,0,2.25,0,3.38,0l4.95,8.76a8.33,8.33,0,0,0,.56-.9c.18-.3.36-.6.54-.9l.55-.93.54-.9.54-.9.55-.93c.07.12.13.19.17.27.46.82.91,1.65,1.38,2.46a.4.4,0,0,1,0,.47c-.72,1.19-1.42,2.38-2.13,3.57l-.09.17.2,0,2.65,0a.28.28,0,0,0,.3-.17,1.2,1.2,0,0,1,.07-.13q3.13-5.27,6.27-10.53a.49.49,0,0,0,0-.58c-.4-.67-.78-1.36-1.16-2l-.2-.33-2.37,4-3.41,0,3.26-5.49c-1.17,0-2.28,0-3.38-.06l-3.34-.05-3.37-.06-1.66-3,11.76.18-1.94-3.45-6.79-.1-1.66-2.95,6.78.09-2-3.61,2.56-1.43,2,3.6c.34-.5.6-1,.88-1.45l.86-1.45.85-1.43.86-1.45c.08.11.13.18.17.26.46.82.92,1.64,1.39,2.45a.38.38,0,0,1,0,.45c-1.06,1.76-2.1,3.53-3.17,5.3a.49.49,0,0,0,0,.58c.55,1,1.09,1.92,1.63,2.88l.16.26,6-10a25.63,25.63,0,0,1,1.69,2.92l-5.12,8.61,6.39.1-1.73,2.91-4.68-.07,1.53,2.72,12.92.19L786.6,132h-.4l-4-.05a.38.38,0,0,1-.39-.22c-.46-.83-.93-1.66-1.4-2.48l-.14-.27,6.39.09c-.4-.76-.82-1.48-1.22-2.2l-1.24-2.21L783,122.51l-1.23-2.19,1.72-2.89c.51.86,1,1.72,1.45,2.56l1.43,2.53,1.44,2.56,1.44,2.55,2-3.38-.14-.27q-1.51-2.69-3-5.37a.44.44,0,0,1,0-.52c.48-.78.94-1.56,1.4-2.35l.18-.3,3.33,5.89,2.09-3.52,2.54,1.51-2.1,3.53,6.77.11-1.72,2.9h-.74l-5.73-.09a.44.44,0,0,0-.46.25c-.55.95-1.12,1.89-1.68,2.83l-.18.3c.81,0,1.58,0,2.35,0l2.36,0,2.33,0,2.36,0,2.37,0-.37.62c-.41.69-.83,1.38-1.23,2.08a.36.36,0,0,1-.37.2l-9.48-.13h-.35l3.14,5.58-3.41-.06-2.29-4.07c-.08.11-.13.18-.18.26-.42.7-.83,1.4-1.25,2.1a.44.44,0,0,0,0,.53c.89,1.57,1.77,3.14,2.66,4.71l3.45,6.13.12.19,3.07,0-2.3-4.07,1.73-2.91,3.14,5.56.18-.3,3.14-5.25c.57-.95,1.14-1.9,1.7-2.85a.4.4,0,0,1,.41-.23c.93,0,1.86,0,2.79.05l.29,0-6,10,.25,0,3.43.06a.4.4,0,0,0,.41-.23c1-1.77,2.1-3.53,3.14-5.31a.48.48,0,0,1,.5-.28c.89,0,1.78,0,2.67,0l.36,0-3.44,5.78c.5,0,1,0,1.4,0l1.34,0,1.4,0c0,1,0,1.94,0,2.93l-4.14-.06,3.32,5.92-3.38,0-.86-1.52-2.35-4.18a.36.36,0,0,0-.35-.23l-3.52,0-.2,0,5.77,10.23-3.39,0-5-8.77c-.57.93-1.09,1.83-1.63,2.72l-1.61,2.7a23.12,23.12,0,0,1-1.7-2.93l2.38-4-.35,0-2.36,0a.43.43,0,0,0-.44.24q-1.77,3-3.57,6c-.93,1.56-1.85,3.12-2.79,4.68a.43.43,0,0,0,0,.5c.41.69.79,1.4,1.19,2.1l.16.26.18-.3c.68-1.15,1.37-2.3,2-3.46a.44.44,0,0,1,.46-.25l2.73,0h.36c-.17.34-.36.63-.53.92l-.53.9L793,163l-.54.9-.54.9-.56.94,10.08.17,1.66,3-11.74-.18c0,.1.08.18.12.25.56,1,1.12,2,1.66,3a.41.41,0,0,0,.41.24l6.08.08a1.72,1.72,0,0,0,.23,0,.29.29,0,0,1,.32.19c.25.46.51.91.76,1.37l.78,1.39-6.77-.09c.66,1.23,1.35,2.39,2,3.61l-2.55,1.42-2-3.56c-.14.05-.17.17-.23.27L789.1,182l-.2.33-1.66-2.94,3.46-5.82-1.94-3.45c-1,1.7-2,3.37-3,5l-3,5c-.07-.09-.12-.15-.15-.21-.47-.83-.93-1.66-1.41-2.48a.38.38,0,0,1,0-.45l2.41-4.05,2.41-4.08.16-.28c-2.14,0-4.24-.06-6.37-.11,0-.09.06-.15.09-.2.49-.82,1-1.65,1.47-2.48a.43.43,0,0,1,.44-.24l4,.07h.34l-.13-.25c-.39-.7-.79-1.4-1.18-2.1a.37.37,0,0,0-.36-.22l-12.68-.18h-.18l-1.5,2.52c1.58,0,3.12,0,4.68.07l1.68,3-6.41-.09,4.92,8.77L773.36,180c-.51-.85-1-1.71-1.45-2.55l-1.42-2.54L769,172.36l-1.44-2.56-2,3.39,3.31,5.88L767.19,182c-.25-.38-.45-.78-.67-1.16s-.44-.78-.66-1.17l-.67-1.19-.65-1.17-.68-1.2-2.1,3.52-2.53-1.51,2.1-3.53Zm30.25-14.33.16-.27q3.16-5.31,6.32-10.62a.47.47,0,0,0,0-.55q-3.06-5.42-6.1-10.84a.41.41,0,0,0-.41-.24l-12.5-.19a.41.41,0,0,0-.41.24q-3.18,5.35-6.36,10.7a.41.41,0,0,0,0,.47q3.05,5.4,6.09,10.82a.52.52,0,0,0,.51.31l10.46.15Z"/><path class="cls-3" d="M773.31,139.72l1.43,0,8.66.13a.45.45,0,0,1,.45.27q2.38,4.25,4.78,8.48a.52.52,0,0,1,0,.6q-2.49,4.15-5,8.33a.49.49,0,0,1-.5.28l-9.74-.15h-.31l-.12-.18-4.84-8.58a.47.47,0,0,1,0-.55q2.5-4.18,5-8.37Zm8.53,15.12,3.55-6s0-.1-.06-.14L782.07,143a.35.35,0,0,0-.35-.19l-6.45-.1a.42.42,0,0,0-.43.24q-1.63,2.76-3.27,5.5l-.14.23.14.26q1.58,2.8,3.15,5.6a.41.41,0,0,0,.41.23l5.93.09Z"/><path class="cls-3" d="M975,55.79l-1.67,1-.69-1.12.21-.14c.8-.49,1.6-1,2.4-1.48a.57.57,0,0,0,.22-.31c.16-.61.3-1.23.46-1.87l-3.22,2L972,52.76l2-1.23c.71-.43,1.43-.87,2.13-1.31a.61.61,0,0,0,.24-.32c.13-.48.23-1,.36-1.45a.31.31,0,0,0-.1-.36q-1.08-1-2.15-2a.3.3,0,0,0-.34-.09c-.48.14-1,.26-1.43.42a.64.64,0,0,0-.34.26c-.78,1.38-1.55,2.76-2.32,4.15l-.08.12-1.11-.62,1.87-3.35c-.55.15-1,.32-1.51.42a1.18,1.18,0,0,0-.89.72c-.37.74-.8,1.44-1.19,2.17-.08.15-.15.17-.29.08s-.6-.34-.92-.52L967,48l-3,.86-.35-1.23,3-.87-1.77-1,.62-1.11,1.37.76,1.39.77a.37.37,0,0,0,.24,0l2-.56-3.36-1.87.62-1.11,2,1.1,2.35,1.3a.47.47,0,0,0,.32,0q.76-.2,1.5-.43a.36.36,0,0,0,.21-.21c.24-1,.47-1.93.71-2.9a.28.28,0,0,0-.1-.31c-.37-.33-.73-.67-1.09-1a.5.5,0,0,0-.41-.15l-4.68.17h-.21l0-1.26,3.82-.14-.14-.15c-.43-.4-.85-.8-1.29-1.19a.54.54,0,0,0-.34-.13l-2.85.09h-.26l0-1.27,2-.08L966.85,34l.87-.94L970,35.25l-.07-2,1.27,0c0,.6,0,1.18.07,1.77s0,.91.05,1.37a.37.37,0,0,0,.08.24c.49.46,1,.92,1.52,1.42l-.13-3.84c.4,0,.78,0,1.16,0,0,0,.11.11.11.18,0,1.06.08,2.11.12,3.17,0,.53,0,1.06.06,1.58a.47.47,0,0,0,.12.29q.57.55,1.16,1.08a.37.37,0,0,0,.29.07l2.86-.83a.31.31,0,0,0,.25-.27c.11-.49.24-1,.34-1.45a.57.57,0,0,0-.06-.37c-.8-1.32-1.61-2.63-2.42-3.94a1.81,1.81,0,0,0-.15-.19l1.16-.7,2,3.22c.12-.49.2-1,.35-1.42a1.28,1.28,0,0,0-.19-1.24c-.44-.64-.82-1.32-1.23-2l-.14-.24,1.1-.67,1,1.73.74-3.08,1.26.3-.73,3,1.65-1,.69,1.15-1.71,1a3.35,3.35,0,0,0-1,.67,3.54,3.54,0,0,0-.34,1.19c-.07.27-.13.54-.21.89l3.24-2,.63,1.12L983,36.54c-.74.45-1.48.9-2.22,1.36a.54.54,0,0,0-.21.29c-.13.5-.24,1-.37,1.5a.28.28,0,0,0,.09.32l2.19,2.06a.34.34,0,0,0,.27.07q.78-.2,1.55-.44a.47.47,0,0,0,.23-.21l2.28-4.09.13-.2,1.11.61-1.87,3.36,2-.58c.06,0,.11-.11.15-.17l1.4-2.52.13-.21,1.11.61-1,1.77,3.05-.86.35,1.23-3,.87,1.76,1-.61,1.12-1.64-.91-1.09-.6a.39.39,0,0,0-.24-.06l-2,.56,3.36,1.87-.62,1.11L988,44.66,985,43a.54.54,0,0,0-.36,0c-.49.12-1,.28-1.46.41a.31.31,0,0,0-.26.26q-.33,1.41-.68,2.81a.29.29,0,0,0,.1.33c.39.35.76.71,1.15,1.06a.53.53,0,0,0,.34.12l4.77-.16h.15l.05,1.27-3.81.14a1.74,1.74,0,0,0,.13.15c.42.4.85.78,1.26,1.19a.51.51,0,0,0,.41.14l2.88-.1h.19l.05,1.26-2,.08,2.32,2.16-.87.94L987,52.87a1.22,1.22,0,0,0,0,.18c0,.54,0,1.07.06,1.61,0,.17,0,.22-.21.22-.34,0-.69,0-1.06,0,0-.48,0-.95-.06-1.41s0-1.14-.06-1.7a.38.38,0,0,0-.07-.24c-.49-.46-1-.92-1.53-1.43l.13,3.84-1.27,0c0-.48,0-.94-.05-1.4,0-1.18-.08-2.37-.13-3.55a.46.46,0,0,0-.13-.28q-.57-.55-1.16-1.08a.33.33,0,0,0-.27-.07l-2.91.85a.28.28,0,0,0-.23.24c-.11.5-.25,1-.35,1.5a.57.57,0,0,0,.06.38q1.16,1.93,2.35,3.84c.07.11.15.21.23.31l-1.15.67-2-3.24-.25,1a3.09,3.09,0,0,0-.22,1.07,3,3,0,0,0,.54,1l1.13,1.83-1.08.64-1-1.61-.09,0-.72,3-1.26-.3Zm6.3-11c.12-.48.23-1,.35-1.45a.3.3,0,0,0-.1-.34l-2.16-2.05a.26.26,0,0,0-.29-.07l-2.88.86a.35.35,0,0,0-.21.21q-.37,1.46-.7,2.92a.35.35,0,0,0,.08.28c.72.7,1.45,1.38,2.17,2.07a.26.26,0,0,0,.29.08l2.88-.85a.28.28,0,0,0,.22-.24C981.1,45.7,981.22,45.23,981.33,44.75Z"/><path class="cls-3" d="M979.54,44.31a1.06,1.06,0,1,1-2.07-.49,1.06,1.06,0,0,1,2.07.49Z"/></g></g></svg>