<svg xmlns="http://www.w3.org/2000/svg" viewBox="0 0 368.85 828.75"><defs><style>.cls-1{fill:#231f20;}.cls-2{fill:#e8ecee;stroke:#231f20;stroke-miterlimit:10;stroke-width:3px;}.cls-3{fill:#fee465;}.cls-4{fill:#ffd449;}.cls-5{fill:#754c29;}</style></defs><title>banana</title><g id="Layer_2" data-name="Layer 2"><g id="Layer_14" data-name="Layer 14"><path class="cls-1" d="M272.2,389.9c45.58-23.45,44.9-52.54,59.61-50.94,8.75.95-11.41,35.73-54.11,57.72s-89.39-19.19-86.65-23C201.89,358.67,237,408,272.2,389.9Z"/><path class="cls-2" d="M352.84,306.9c-11.21-7.72-24.1,5.23-33.65,18.55-3.53-6.11-8.48-10.9-16-9.06-11.08,2.72-4.14,17.75-.61,27a28.92,28.92,0,0,0,3.11,6c-1.92-.11-3.33.28-4,1.26-1.89,3,4.1,10.16,13.37,16.05s18.32,8.26,20.21,5.28c.66-1,.34-2.61-.74-4.45,10.44-1.61,21.93-9.37,28.43-18.8C372.72,334.63,364.68,315.06,352.84,306.9Z"/><path class="cls-1" d="M124.55,827.09c-6.1-.77-18.48-4.06-15.88-13.81,10-37.61,17.73-157.77,17.73-157.77,0-10.1-8.14-44.07,0-44.07l7.14,44.27c8.13,0,7.18,5.67,6.63,15.74-6.27,115.39.74,127.4.74,127.4C224.42,831.72,151.73,830.51,124.55,827.09Z"/><path class="cls-1" d="M209.56,817.59c-6-1.12-17.25-2.17-14.93-12,7.06-29.92-1.38-139.56-1.38-139.56-.83-10.06-.43-17,7.67-17.62l5.55-1.89c8.1-.67-.8,4.3-.52,14.39,3.22,115.52,16.35,134.94,16.35,134.94C302.91,818.62,234.77,822.24,209.56,817.59Z"/><path class="cls-3" d="M253.18,97.25h0c-8.93-6.67-9.06-18.38-4.11-28.36,21.2-42.68,45-64.67,45-64.67,6.67-8.93,16.08-1.9,25,4.77h0c8.93,6.67,17.45,10.5,10.78,19.43,0,0-51.37,20.57-58.84,62.05C269.08,101.44,262.1,103.92,253.18,97.25Z"/><path class="cls-3" d="M286.66,726.2c-9.19-8.5-12.83-18.61-15.54-28.09-9.33-54.47-49-154.71-49-286.77,0-204.58,105.4-357.14,35.46-357.14S36.67,194.6,36.67,399.17c0,172.62,100.26,299.55,173.6,335,17.1,11.37,34.23,22.32,39.13,27.1C260.12,771.71,298.94,737.55,286.66,726.2Z"/><path class="cls-4" d="M243.23,734.16c-69.53-3.51-173.6-162.37-173.6-335,0-187.64,119.09-335.88,202-342.11-3.49-1.89-7.94-2.86-13.51-2.86-69.94,0-220.89,140.4-220.89,345,0,172.62,100.26,299.55,173.6,335,17.1,11.37,34.23,22.32,39.13,27.1s15.05.48,24-6.58C262.61,755.76,245.79,744.15,243.23,734.16Z"/><path class="cls-5" d="M319.12,9c-8.93-6.67-18.33-13.69-25-4.77,0,0-3.28,3-8.49,9,6.47,11.91,16.06,19.87,31,21.85a116.29,116.29,0,0,1,13.24-6.67C336.56,19.49,328,15.65,319.12,9Z"/><path class="cls-5" d="M287.2,726.2q-.84-.77-1.61-1.57c-7.26-1.83-18,2.33-26.74,11.1-7.46,7.46-11.59,16.32-11.53,23.28,1.07.85,2,1.61,2.62,2.25C260.66,771.71,299.48,737.55,287.2,726.2Z"/><circle class="cls-1" cx="131.95" cy="269.88" r="9.26"/><circle class="cls-1" cx="215.16" cy="284.53" r="9.26"/><path class="cls-1" d="M191,320.37c-.48,3.45-10.73,10.41-21.95,8.85s-19.17-11.07-18.69-14.51c0,0,7.88,10,19.11,11.54S191,320.37,191,320.37Z"/><path class="cls-1" d="M159.6,231.16c0,1.52-6.19,0-13.82,0s-13.82,1.52-13.82,0,6.19-2.75,13.82-2.75S159.6,229.64,159.6,231.16Z"/><path class="cls-1" d="M209.88,240c-.59,1.4,5.56,2.36,12.42,5.27s11.83,6.66,12.42,5.27-4.49-4.89-11.35-7.8S210.47,238.63,209.88,240Z"/><path class="cls-1" d="M33.55,453.58c-5.06,51,3.06,72.78-6.26,84.26-5.55,6.83-11.73-22-7-69.79s26.63-87.29,31.29-86.83C64.83,382.54,37.47,414.16,33.55,453.58Z"/><path class="cls-2" d="M66,522.12c-3.37-4.71-9-8.75-14.31-11A2.43,2.43,0,0,0,52,510c0-3.94-10.59-7.14-23.65-7.14S4.72,506,4.72,510c0,2,2.8,3.84,7.27,5.14C5.59,521.3,1.5,530.68,1.5,541.19c0,18.58,12.77,33.65,28.53,33.65,27.64,0,22-13.08,22-31.66,0-2.05-.08-4.08-.24-6.07,6,6.77,13.31,9.87,17.35,7C73.73,540.79,72.34,531,66,522.12Z"/></g></g></svg>