<svg xmlns="http://www.w3.org/2000/svg" viewBox="0 0 565.03 610.69"><defs><style>.cls-1{fill:#231f20;}.cls-2{fill:#e8ecee;stroke:#231f20;stroke-miterlimit:10;stroke-width:1.44px;}.cls-3{fill:#044926;}.cls-4{fill:#8dc63f;}.cls-5{fill:#006838;}.cls-6{fill:#fff;}</style></defs><title>broco</title><g id="Layer_2" data-name="Layer 2"><g id="Layer_14" data-name="Layer 14"><path class="cls-1" d="M319,610c3.75-.38,11.38-2.23,9.92-8.24-5.62-23.18-8.65-96.91-8.65-96.91.14-6.19,5.61-26.89.63-27l-5,27c-5-.11-4.48,3.37-4.28,9.55,2.23,70.79-2.24,78-2.24,78C257.71,611.46,302.26,611.73,319,610Z"/><path class="cls-1" d="M270.27,608.86c3.75-.32,11.42-2,10.06-8.07-5.22-23.28-7-97-7-97,.25-6.18,6.07-26.78,1.09-27L269,503.69c-5-.2-4.53,3.29-4.45,9.48,1,70.82-3.58,78-3.58,78C209,609.24,253.54,610.28,270.27,608.86Z"/><path class="cls-1" d="M226.46,500.81c-3,30.31,1.82,43.25-3.72,50.08-3.3,4.06-7-13.07-4.17-41.48s15.83-51.87,18.6-51.6C245,458.59,228.79,477.38,226.46,500.81Z"/><path class="cls-2" d="M237.16,539.83a17.18,17.18,0,0,0-6.86-5.29,1.16,1.16,0,0,0,.15-.53c0-1.89-5.07-3.42-11.33-3.42s-11.33,1.53-11.33,3.42c0,1,1.34,1.84,3.48,2.46a17.33,17.33,0,0,0-5,12.49c0,8.9,6.12,16.12,13.67,16.12,13.24,0,10.53-6.27,10.53-15.17,0-1,0-2-.11-2.91,2.88,3.24,6.38,4.73,8.31,3.34C240.86,548.78,240.19,544.07,237.16,539.83Z"/><path class="cls-3" d="M362.3,260.06c-30,0-56.53,11.73-73.13,29.82C272.58,271.78,246,260.06,216,260.06c-50.28,0-91,33-91,73.75s40.76,73.75,91,73.75c30,0,56.53-11.73,73.13-29.82,16.59,18.09,43.17,29.82,73.13,29.82,50.28,0,91-33,91-73.75S412.58,260.06,362.3,260.06Z"/><path class="cls-4" d="M334.87,532.48H241.7c-16.05,0-8.72-12.38-8-28.41,4.64-104.72-35.34-164.19-35.34-164.19,0-16.05,17.77-43.88,33.82-43.88,0,0,15.55,50.94,23.57,53.13,25.53,7,12.59-41.28,22.64-40.08a111.1,111.1,0,0,0,20.69,0c9.88-.72-2,43.59,25.39,40.69,8.06-.85,17.41-53.71,17.41-53.71,16.05,0,33.16,26,33.16,42,0,0-34.36,47.92-34.36,166C340.68,520.12,346.25,531,334.87,532.48Z"/><path class="cls-5" d="M565,237.57a69.32,69.32,0,0,0-28-55.74c4.73-32.67-11.76-69.88-44.93-94a119.25,119.25,0,0,0-25.13-14A69.45,69.45,0,0,0,365.7,27.4C347.43,10.59,320.93,0,291.44,0c-31.38,0-59.37,12-77.66,30.72A69.43,69.43,0,0,0,107.24,73.27a118.52,118.52,0,0,0-31.35,12.6C35.64,109.11,15,151.38,23.12,187.73a69.42,69.42,0,0,0,16.65,114.5c0,.24,0,.48.07.72,5.68,45.22,54.62,76.3,109.3,69.43,42.31-5.31,75.64-31.8,85.94-64.45a114.37,114.37,0,0,0,56.36,14.42A116,116,0,0,0,339.85,312c11.58,28.68,40.73,52.3,78.15,59.53,54.11,10.46,105-17.34,113.63-62.08a69,69,0,0,0,1.24-13.31A69.36,69.36,0,0,0,565,237.57Z"/><circle class="cls-1" cx="247.14" cy="411.09" r="7.47"/><circle class="cls-1" cx="314.88" cy="411.09" r="7.47"/><path class="cls-1" d="M329.78,384.54c-.55,1.59-6.48-2.25-14.48-5s-15-3.44-14.48-5,7.48-.63,15.48,2.15S330.33,383,329.78,384.54Z"/><path class="cls-1" d="M225.47,389.91c.55,1.59,6.48-2.25,14.48-5s15-3.44,14.48-5S247,379.24,239,382,224.92,388.33,225.47,389.91Z"/><path class="cls-1" d="M347.23,500.81c3,30.31-1.82,43.25,3.72,50.08,3.3,4.06,7-13.07,4.17-41.48s-15.83-51.87-18.6-51.6C328.64,458.59,344.9,477.38,347.23,500.81Z"/><path class="cls-2" d="M336.52,539.83a17.18,17.18,0,0,1,6.86-5.29,1.16,1.16,0,0,1-.15-.53c0-1.89,5.07-3.42,11.33-3.42s11.33,1.53,11.33,3.42c0,1-1.34,1.84-3.48,2.46a17.33,17.33,0,0,1,5,12.49c0,8.9-6.12,16.12-13.67,16.12-13.24,0-10.53-6.27-10.53-15.17,0-1,0-2,.11-2.91-2.88,3.24-6.38,4.73-8.31,3.34C332.83,548.78,333.49,544.07,336.52,539.83Z"/><path class="cls-6" d="M308.92,431.92c0,5.68-11.82,17.65-26.41,17.65s-26.41-12-26.41-17.65,11.82-3.71,26.41-3.71S308.92,426.24,308.92,431.92Z"/></g></g></svg>