<svg xmlns="http://www.w3.org/2000/svg" viewBox="0 0 710.75 427.06"><defs><style>.cls-1{fill:#231f20;}.cls-2{fill:#e8ecee;stroke:#231f20;stroke-miterlimit:10;stroke-width:2.4px;}.cls-3{fill:#62b482;}.cls-4{fill:#77c69a;}.cls-5{fill:#f69592;}.cls-6{fill:#f7a4a5;}</style></defs><title>watermelon</title><g id="Layer_2" data-name="Layer 2"><g id="Layer_14" data-name="Layer 14"><path class="cls-1" d="M637.85,239.73c10.26,49.87,4.47,72.22,14.87,82.6,6.18,6.18,9.32-22.94-.27-69.67s-35.31-83.49-39.87-82.55C599.63,172.76,629.92,201.18,637.85,239.73Z"/><path class="cls-2" d="M626.83,306.46a28.72,28.72,0,0,1,10.48-10,1.94,1.94,0,0,1-.34-.85c-.33-3.14,7.84-6.57,18.24-7.65s19.1.58,19.43,3.72c.17,1.61-1.91,3.29-5.36,4.7a29,29,0,0,1,10.52,19.89c1.54,14.8-7.38,27.87-19.93,29.17-22,2.3-18.59-8.59-20.14-23.39-.17-1.63-.27-3.26-.32-4.86-4.22,5.89-9.78,9-13.24,7C622.23,322,622.53,314,626.83,306.46Z"/><path class="cls-1" d="M310.85,425.57c-5.46-.69-16.56-3.63-14.23-12.38,9-33.7,15.88-141.36,15.88-141.36,0-9-7.3-39.48,0-39.48l6.4,39.66c7.28,0,6.43,5.08,5.94,14.11-5.62,103.39.66,114.14.66,114.14C400.33,429.72,335.21,428.63,310.85,425.57Z"/><path class="cls-1" d="M437.63,422c-5.51-.13-16.84-1.94-15.41-10.87,5.52-34.43,1.46-142.24,1.46-142.24-.92-9-11.26-38.54-4-39.28l10.39,38.81c7.24-.74,6.91,4.4,7.34,13.43,4.9,103.42,12.24,113.49,12.24,113.49C527.07,417,462.17,422.57,437.63,422Z"/><path class="cls-3" d="M1.35,38.21C-10.32,37.67,49,343,366.72,331.51,668.57,320.59,712,12.64,709.17,0,709.17,0,262,50.45,1.35,38.21Z"/><path class="cls-4" d="M280.21,34.89c-39,39.58-61.93,87.94-61.93,140.15,0,58,28.35,111.33,75.62,153.09a437.92,437.92,0,0,0,74.27,3.39C670,320.59,713.5,12.64,710.62,0,710.62,0,497.8,24,280.21,34.89Z"/><path class="cls-5" d="M31.53,39.33c32,88.35,110.32,239.73,336.16,231.56C589.12,262.88,671.51,95,698.56,1.17,630.72,8.51,270.95,41.85,31.53,39.33Z"/><circle class="cls-1" cx="308.46" cy="119.7" r="9.91"/><circle class="cls-1" cx="491.73" cy="103.15" r="9.91"/><path class="cls-1" d="M438.87,142.65c.5,4.71-10.74,17.28-26.08,18.9s-29-8.31-29.46-13c0,0,13.69,10.58,29,9S438.87,142.65,438.87,142.65Z"/><path class="cls-6" d="M668.47,5.22c3.79,16.94,1.95,31.64-6.52,42.11-8.19,10.13-21.57,15-38.16,15.17,9.63,38.27,5.49,69.93-14.19,83-13.3,8.84-31.67,7.85-51.93-1-6.66,44.11-25,75.35-50.36,79-15.69,2.23-31.72-6.43-46.09-22.91-19.2,36.32-44.5,57.91-68.46,54-15.47-2.53-28.08-15.33-36.85-35-26.62,25-54.05,35.88-74.29,26.2C268.77,239.6,260.57,226,257,207.53c-24.25,13.48-46.7,16.62-62.27,6.34-15.39-10.16-21.34-31.66-18.7-58.81-20,6.1-37.42,5.05-49.36-4.6-14.74-11.92-18.4-34.82-12.48-62.62-17.3,3-32,.42-42.13-8.66C62.36,70.49,58.2,56.87,58.91,40.32q-13.13,0-25.86-.13c32,88.35,110.32,239.73,336.16,231.56C590.64,263.73,673,95.88,700.08,2,692.76,2.81,682,3.9,668.47,5.22Z"/><path class="cls-1" d="M514.3,73.09c-1,1.88-7.66-4-17.12-8.91s-18.1-7-17.12-8.91,9.44.59,18.89,5.51S515.28,71.22,514.3,73.09Z"/><path class="cls-1" d="M282.46,83.06c1,1.88,7.66-4,17.12-8.91s18.1-7,17.12-8.91-9.44.59-18.89,5.51S281.49,81.18,282.46,83.06Z"/><path class="cls-1" d="M103.9,270.27c.32,50.92,10.62,71.57,2.61,83.89-4.77,7.33-13.88-20.5-14.21-68.21s17.2-89,21.85-89C127.38,196.82,103.65,230.91,103.9,270.27Z"/><path class="cls-2" d="M128.54,333.25a28.72,28.72,0,0,0-12.32-7.58,1.94,1.94,0,0,0,.15-.9c-.33-3.14-9-4.8-19.43-3.7s-18.56,4.54-18.23,7.68c.17,1.61,2.55,2.83,6.22,3.48a29,29,0,0,0-6.16,21.64c1.56,14.8,13,25.72,25.56,24.4,22-2.33,16.41-12.26,14.84-27.06-.17-1.63-.41-3.24-.7-4.82,5.35,4.88,11.43,6.74,14.41,4.1C136.26,347.48,134.32,339.76,128.54,333.25Z"/></g></g></svg>