<svg xmlns="http://www.w3.org/2000/svg" viewBox="0 0 90.88 106.9"><defs><style>.cls-1{fill:#009444;}.cls-2{fill:#f7941d;}.cls-3{fill:#ffee8a;}.cls-4{fill:#4d2d9b;}.cls-5{fill:#9669cc;}.cls-6{fill:#663fb2;}.cls-7{fill:#fff;stroke:#000;stroke-miterlimit:10;stroke-width:0.73px;}</style></defs><title>book</title><g id="Layer_2" data-name="Layer 2"><g id="Layer_3" data-name="Layer 3"><path d="M55.51,102.14c.88-6.46-.77-23.82-1.76-24S52,82.36,51.08,88.83c-.74,5.45-1.26,10.42-.81,11.93-1.94.68-4,2-4.14,2.92-.19,1.43.93,1.23,2.85,1.49C50.62,105.39,55.28,103.87,55.51,102.14Z"/><path class="cls-1" d="M86.19,13.55S77,22.27,45.48,23.24c-8.56.26-17.2,0-20.11-11.15C23.85,6.27,39.16-4.35,45,1.92,58.08,16,86.19,13.55,86.19,13.55Z"/><path class="cls-2" d="M90.79,49.41c1.21,18.9-10.18,31-31.86,33-21.47,1.92-35.5-13.63-35.5-30.29s14.3-31,35.5-30C76.51,22.83,89.73,32.9,90.79,49.41Z"/><path class="cls-1" d="M45.48,19.6c.94,2.07,2.42,6.78,2.42,6.78h-1.7s-5.15-6.31-4.12-6.78S44.54,17.53,45.48,19.6Z"/><path d="M75.65,101.26c0-6.52-4-23.5-5-23.5s-1.21,4.38-1.21,10.9c0,5.5.15,10.5.8,11.93-1.83.94-3.71,2.5-3.71,3.45,0,1.44,1.09,1.09,3,1.09C71.24,105.14,75.65,103,75.65,101.26Z"/><ellipse cx="64.26" cy="56.92" rx="2.06" ry="1.94"/><ellipse cx="36.05" cy="56.92" rx="2.06" ry="1.94"/><rect x="57.45" y="48.12" width="11.28" height="1.21" rx="0.42" ry="0.42" transform="matrix(0.99, -0.13, 0.13, 0.99, -5.94, 8.85)"/><rect x="31.19" y="48.82" width="7.96" height="1.21" rx="0.42" ry="0.42" transform="translate(7.56 -4.59) rotate(8.36)"/><path d="M80.31,79.41c-1,0-1.17-1.57-1-1.59,14.27-2.09,7.13-13.67,7.27-17.17,0-1,1.14-1,1.7-.59C89.07,60.59,95.89,79.54,80.31,79.41Z"/><path class="cls-3" d="M28.69,67.53C31.9,71.14,32,78.84,30.32,78.84S1.37,65.42,1.37,63.34s.76-10.63,1.71-9.25C14.82,71,23.21,61.37,28.69,67.53Z"/><polygon class="cls-4" points="38.88 104.19 21.16 98.28 0 62.74 25.27 75.5 38.88 104.19"/><path class="cls-3" d="M34.6,71.47c-2.4,2.48-3.73,9.68-2.06,9.68S71.17,70.64,71.17,68.56,68.92,61,67.66,62.14C57.81,70.87,40.16,65.72,34.6,71.47Z"/><polygon class="cls-5" points="77.42 91.51 47.88 105.82 35.54 79.78 72.71 67.45 77.42 91.51"/><path class="cls-6" d="M47.88,105.39c1.47,2.83-8.33,1.27-9.51-1.28C29.89,85.77,24.75,76.61,24.75,76.61s5.9,4,10.62,2.91C36.14,79.35,42.48,95,47.88,105.39Z"/><path class="cls-7" d="M79.95,80a4.17,4.17,0,0,0-2.77-3.91c-.64-.21-1.53.08-1.57.72-1-.09-2.47-.55-3.43-.7a2.58,2.58,0,0,0-.64-.09c-3.12,0-7.5,4.61-7.77,6.27-.68,4.18,3.23,5.22,7.18,4,2.48-.74,3.66-2.09,5-2.89.28.56.17,1.35.43,1.35.74,0,1.41-.89,1.87-1.8.1.59.22,1,.44,1.07C79.72,84.39,80,83.52,79.95,80Z"/><path class="cls-7" d="M17.71,82.91c0,2.46-.83,3.27-3.09,3.27S9.24,84.1,8.74,82c-.57-2.39-.8-4.88,1.46-4.88S17.71,80.45,17.71,82.91Z"/><path class="cls-3" d="M34.86,78.41c2.91,1.74-2.44,3.13-5.05,2.23-2.23-.77-4.71-1.88-4.88-4-.19-2.33,1.71-.69,4.54,1.63C32,80.33,33.57,77.64,34.86,78.41Z"/><path class="cls-3" d="M27.84,67.87c0,2.81,1.29,11.65,2.83,11.65s6.68-5.49,6.68-8.31-4.88,1.54-4.88,1.54S27.84,65.06,27.84,67.87Z"/></g></g></svg>