<svg xmlns="http://www.w3.org/2000/svg" viewBox="0 0 294.96 231.88"><defs><style>.cls-1{fill:#ccf781;}.cls-2{fill:#d6d6d6;}.cls-3{fill:#1fbf5f;}.cls-4{fill:#fffbf0;}.cls-5{fill:#b7b7b7;}.cls-6{fill:#8956db;}.cls-7{fill:#f7941d;}.cls-8{fill:#009444;}.cls-9{fill:#1c3ed1;}.cls-10{fill:none;stroke:#f20c28;stroke-width:1.86px;}.cls-10,.cls-11{stroke-miterlimit:10;}.cls-11{fill:#fff;stroke:#000;stroke-width:0.81px;}.cls-12{fill:#f74141;}.cls-13{font-size:15.42px;}.cls-13,.cls-14{font-family:SignPainter-HouseScript, SignPainter;}.cls-14{font-size:12.66px;fill:#7c7c7c;}.cls-15{letter-spacing:0.01em;}.cls-16{letter-spacing:0em;}</style></defs><title>calendar</title><g id="Layer_2" data-name="Layer 2"><g id="Layer_5" data-name="Layer 5"><rect class="cls-1" width="294.96" height="231.88" rx="115.94" ry="115.94"/><polygon class="cls-2" points="258.53 143.83 246.44 145.07 251.09 54.56 256.05 55.8 258.53 143.83"/><path class="cls-3" d="M27.28,190.41a115.8,115.8,0,0,0,88.66,41.47H179a115.8,115.8,0,0,0,88.66-41.47Z"/><path class="cls-4" d="M247.68,144.76l-94.85,1.55s4.65-18.29,6.2-45.26c.6-10.45-3.1-42.47-3.1-42.47a212,212,0,0,1,46.5-6.2,343,343,0,0,1,48.67,2.17s.26,33,0,43.71C250.47,123.68,247.68,144.76,247.68,144.76Z"/><path d="M109.11,178.09c0,3.67.13,15.64,1.24,15.81,11.93,1.86,14.41,4.18,14.72,5.27.69,2.43-12.44,5-21.54,2.17-5.58-1.7-2.29-17.76-1.86-23.25.87-11,1.82-16.18,3.87-16.27C109.11,161.66,109.11,167,109.11,178.09Z"/><path d="M63.7,172.82c-1.41.11,1.55-11.16,4.49-21.23,3.85-13.19,8.72-23.68,11.21-23.12,5.56,1.26-5,15.06-7.65,28.54S69.87,172.36,63.7,172.82Z"/><path class="cls-5" d="M248.77,95v-.76l-17.09-.07c-.08-8-.16-15.46-.16-15.46h-.76s0,7.45.11,15.45l-18.41-.05c-.08-7.84-.16-15.1-.16-15.1h-.76s0,7.22.11,15.08h-9.53c-1.92,0-4.64.06-7.79.14-.08-7.95-.16-15.39-.16-15.39h-.76s0,7.42.11,15.4c-5.06.13-11.11.32-16.74.51-.22-7.51-.43-14.39-.43-14.39l-.76,0s.18,6.85.38,14.39c-9.31.32-17.25.62-17.25.62l.92,1.1s7.45-.39,16.35-.79c.13,4.84.27,9.86.38,13.46-9.68.33-18.12.65-18.12.65l.92,1.1s7.94-.42,17.23-.83c0,.78,0,1.49.07,2.08.11,3.22-.07,9.67-.3,15.75-9.85.33-18.54.66-18.54.66l.92,1.1s8.14-.43,17.58-.85c-.27,6.93-.59,13.13-.59,13.13l1.11.6s.2-6.58.38-13.78c5.41-.24,11.16-.47,16-.61-.41,7.21-1,14.38-1,14.38h1.26s.34-6.92.65-14.41c3.11-.09,5.8-.14,7.71-.12l9.55,0c-.41,7.32-.87,14.63-.87,14.63h1.1s.35-7.06.66-14.63l18.31,0c-.41,7.17-1,14.28-1,14.28h1.26s.33-6.84.64-14.28l16.39,0v-.76l-16.36-.07c.25-6.09.48-12.44.48-15.64,0-.6,0-1.38,0-2.32l16.5,0v-.76l-16.51-.07c0-3.49-.06-8.6-.11-13.61Zm-46-.12,8.92,0c0,4.9.08,10,.13,13.6-4.39,0-8.05,0-10.12,0-1.8,0-4.31.06-7.21.13,0-3.52-.06-8.63-.11-13.63C197.73,94.94,200.69,94.88,202.73,94.9Zm-25.94.82c5.56-.25,11.6-.5,16.72-.65,0,5,.09,10,.13,13.63-4.93.12-10.87.31-16.48.5C177.08,105.66,176.94,100.61,176.79,95.72Zm.25,32.21c.14-6,.25-12.19.19-15.32,0-.64,0-1.5-.05-2.51,5.54-.24,11.48-.48,16.47-.63,0,.74,0,1.42,0,2,.05,3.28-.25,9.81-.59,16C188.3,127.56,182.53,127.74,177,127.92Zm24-.63c-1.77,0-4.22.05-7.06.12.25-6.07.47-12.36.48-15.54,0-.62,0-1.46,0-2.44,3.16-.09,5.89-.14,7.82-.13l9.52,0c0,.85,0,1.61,0,2.25,0,3.22-.24,9.6-.58,15.69C206.81,127.29,203.11,127.29,201,127.3Zm30-16c.05,3.29-.25,9.86-.6,16.06l-18.32-.05c.25-6,.46-12.13.47-15.27,0-.67,0-1.59,0-2.67l18.43,0C231,110.11,231,110.75,231,111.3Zm0-2.7-18.42-.05c0-3.56-.06-8.65-.11-13.6l18.41,0C230.91,99.95,231,105,231,108.6Z"/><path d="M251.4,78.12s-34.87-.77-47.74-.46c-10.27.25-44.17,2.94-44.17,2.94l.93,1.55S192.93,79,203.19,79c10.81,0,48,.15,48,.15Z"/><polygon class="cls-6" points="186.58 109.9 188.03 108.11 188.43 108.48 189.68 107.1 182.31 100.45 181.06 101.83 187.48 107.62 185.56 109.97 185.58 109.98 185.55 110.02 198.78 121.96 199.29 121.39 186.58 109.9"/><path class="cls-7" d="M172.51,120.74c-.77,26.87-24.33,50.22-56.57,50.22-44.23,0-52.85-24.73-52.85-51.61s21-48.08,52.39-50.84C150.81,65.41,173.75,77.65,172.51,120.74Z"/><ellipse cx="146.52" cy="98.86" rx="3.33" ry="3.58"/><path d="M143.37,84.94c-2.23,1.81-3.2,5.23-4.18,4.8s.71-3.92,2.94-5.73,3.72-2.79,4.8-1.7C147.62,83,145.6,83.13,143.37,84.94Z"/><path d="M168.8,127.8c-6.27,1.89-13.34-3.35-13.15-1.12,0,.43,7,4.14,13.23,2.25a12.47,12.47,0,0,0,2.92-1.33q.11-.63.21-1.27A13.15,13.15,0,0,1,168.8,127.8Z"/><path class="cls-8" d="M28.05,115S59.37,111.31,78,94.23c7.59-7,28.91-20.09,30.22-46.5.58-11.63-18.6-25.92-34.1-16.12-14.6,9.23-16.83,56-37,76.26C35.65,109.27,28.05,115,28.05,115Z"/><path class="cls-9" d="M212,123.84l-1.39,5.27s-17.2-13.33-24.57-20.61c-.85-.84,2-4.38,3-3.75C197.3,109.73,212,123.84,212,123.84Z"/><path class="cls-10" d="M233.57,119.19c-.43,5.85-5.89,9-11.62,9s-11.62-4.06-11.62-9.92,4.49-11.93,14.72-11.47C230.78,107,234,112.83,233.57,119.19Z"/><path d="M199.09,135.54c.37,1.36-10.83,8.14-24.57,8.14s-25.26-5.58-25.19-8.14c.17-5.7,11.45,4,25.19,4S197.46,129.57,199.09,135.54Z"/><path class="cls-11" d="M212,128.33c-.31-3.1.93-9-5.11-11-2.42-.81-6.51-.88-9,1.91,0,0,0,0,0-.06-3.56-4.49-7.75,2.55-7.75,5.89A13.92,13.92,0,0,0,191,130c-1-.41-1.79-.48-2.19-.07-.91.91.45,3.74,3,6.31s5.41,3.93,6.32,3c.5-.5.29-1.6-.41-2.9a12,12,0,0,0,3.4.47C208,136.86,212.69,135,212,128.33Z"/><path class="cls-11" d="M65.72,187.85c2.53-.32,6-4.17,6.2-7.9,0,0,.61,1.54.62,1.55,3.41,4.49,4.49-6.35,1.87-9.07a18.5,18.5,0,0,0-3.79-3.28c1-.3,1.69-.76,1.75-1.33.13-1.28-2.7-2.62-6.33-3s-6.68.36-6.81,1.63c-.07.71.78,1.42,2.15,2a12,12,0,0,0-2.94,1.77C53.13,174.55,54.12,189.33,65.72,187.85Z"/><path class="cls-12" d="M251.15,65.29c0-6.22-.07-10.73-.07-10.73a343,343,0,0,0-48.67-2.17,212,212,0,0,0-46.5,6.2s.64,5.58,1.35,12.83a192.48,192.48,0,0,1,42-6.32,323,323,0,0,1,51.78,2.45Z"/><path d="M130.5,180.72c0,3.67.13,15.64,1.24,15.81,11.93,1.86,14.41,4.18,14.72,5.27.69,2.43-12.44,5-21.54,2.17-5.58-1.7-2.29-17.76-1.86-23.25.87-11,1.82-16.18,3.87-16.27C130.5,164.29,130.5,169.59,130.5,180.72Z"/><text class="cls-13" transform="translate(215.61 123.2) rotate(-9.53) scale(1.47 1)">19</text><text class="cls-14" transform="matrix(1.4, -0.04, 0.03, 1, 187.15, 75.58)"><tspan class="cls-15">A</tspan><tspan x="5.72" y="0">pr</tspan><tspan class="cls-16" x="14.83" y="0">i</tspan><tspan x="17.33" y="0">l</tspan></text></g></g></svg>