<svg xmlns="http://www.w3.org/2000/svg" viewBox="0 0 334.01 150.18"><defs><style>.cls-1{fill:#a67c52;}.cls-2{fill:#b7855f;}.cls-3{fill:#c69c6d;}.cls-4{fill:#c1272d;}.cls-5{fill:#1a1a1a;}.cls-6{fill:#fff;}.cls-7{fill:#2e3192;}.cls-8{fill:#ccc;}.cls-9{fill:#ddb185;}.cls-10{fill:#ead8c7;}.cls-11{fill:#f2f2f2;stroke:#4d4d4d;}.cls-11,.cls-16{stroke-miterlimit:10;}.cls-12{fill:#ddbea4;}.cls-13{fill:#231f20;}.cls-14{fill:#009245;}.cls-15{fill:#f7931e;}.cls-16{fill:#e8ecee;stroke:#231f20;stroke-width:0.47px;}</style></defs><title>campus</title><g id="Layer_2" data-name="Layer 2"><g id="Layer_8" data-name="Layer 8"><rect class="cls-1" x="30.21" y="46" width="290.9" height="71.75"/><rect class="cls-2" x="23.36" y="39.75" width="305.44" height="8"/><rect class="cls-3" x="80.18" y="36.42" width="202" height="56"/><rect class="cls-4" x="95.18" y="37.42" width="24" height="42"/><rect class="cls-5" x="150.18" y="36.42" width="59" height="56"/><rect class="cls-4" x="144.18" y="37.42" width="24" height="42"/><rect class="cls-4" x="193.18" y="37.42" width="24" height="42"/><rect class="cls-4" x="242.18" y="37.42" width="24" height="42"/><rect class="cls-4" x="175.71" y="0.28" width="26.85" height="15.2"/><rect class="cls-6" x="185.01" y="1.42" width="17.55" height="1.17"/><rect class="cls-6" x="185.01" y="6.09" width="17.55" height="1.17"/><rect class="cls-6" x="185.01" y="3.75" width="17.55" height="1.17"/><rect class="cls-6" x="175.71" y="10.92" width="26.85" height="1.17"/><polygon class="cls-6" points="202.56 9.76 202.56 8.42 185.01 8.42 185.01 8.59 175.84 8.59 175.84 0.28 175.71 0.28 175.71 9.76 202.56 9.76"/><rect class="cls-6" x="175.71" y="13.25" width="26.85" height="1.17"/><rect class="cls-7" x="175.69" y="0.23" width="9.3" height="8.38"/><rect class="cls-8" x="174.34" width="1.37" height="30.25"/><rect class="cls-9" x="75.18" y="31.42" width="212" height="6"/><rect class="cls-9" x="75.65" y="29.22" width="211.01" height="2.37"/><path class="cls-6" d="M113.5,62.39A26.55,26.55,0,0,1,112.22,66a22.11,22.11,0,0,1-4.22.59c-6,0-8.56-3.93-8.56-7.54,0-4.65,3.59-7.9,9-7.9a17.74,17.74,0,0,1,4.13.61c.2,1.25.36,2.29.52,3.72l-.84.16c-.75-2.7-2.5-3.5-4.25-3.5-3.29,0-5.11,3.11-5.11,6.45,0,4.18,2.25,6.92,5.34,6.92,1.88,0,3.29-1.2,4.45-3.5Z"/><path class="cls-6" d="M159.52,55.19c-.48-1.43-1.32-3.11-3.18-3.11a2.16,2.16,0,0,0-2.2,2.25c0,1.25.82,2,2.82,3,2.38,1.16,4,2.43,4,4.68,0,2.59-2.2,4.61-5.52,4.61a8.12,8.12,0,0,1-2.29-.32,10.88,10.88,0,0,1-1.38-.5,27.23,27.23,0,0,1-.66-3.86l.79-.25c.45,1.45,1.79,4,4,4a2.19,2.19,0,0,0,2.27-2.38c0-1.34-1-2.18-2.7-3.09-2.34-1.18-4-2.41-4-4.59,0-2.5,2-4.45,5.2-4.45a9.28,9.28,0,0,1,3.16.61c.09.84.25,1.84.43,3.25Z"/><path class="cls-6" d="M213.64,52.28c-1.25.07-1.82.54-1.93,1.34a18.47,18.47,0,0,0-.2,3.16v2.47c0,2.41-.36,4.31-1.63,5.68a5.79,5.79,0,0,1-4.2,1.66,6.38,6.38,0,0,1-4-1.18c-1.29-1-1.88-2.68-1.88-5.34V54.74c0-2.13-.23-2.29-1.91-2.45v-.79h6.83v.79c-1.66.16-1.88.32-1.88,2.45v4.93c0,3.41,1.23,5.38,3.68,5.38,2.7,0,3.88-2,3.88-5.84V56.78a17.6,17.6,0,0,0-.23-3.16c-.11-.79-.66-1.25-2.2-1.34v-.79h5.7Z"/><path class="cls-6" d="M262.75,52.28c-1.23.07-1.7.36-1.82,1.41a32.12,32.12,0,0,0-.2,3.77v9h-1.09l-9.45-11.31h-.07v5.11A31.56,31.56,0,0,0,250.3,64c.11,1,.5,1.43,2.18,1.5v.79h-5.56v-.79c1.27-.09,1.79-.45,1.88-1.43a26.39,26.39,0,0,0,.23-3.75V55.53c0-1.48,0-1.91-.48-2.43a2.31,2.31,0,0,0-1.88-.82v-.79h4.2l8.67,10h.09v-4c0-2-.14-3.06-.18-3.72-.11-1-.59-1.36-2.25-1.45v-.79h5.54Z"/><rect class="cls-2" x="60.18" y="45.42" width="3.33" height="57"/><rect class="cls-2" x="292.51" y="46.09" width="3.33" height="57"/><rect class="cls-9" x="78.18" y="92.42" width="207" height="9"/><polygon class="cls-10" points="334.01 118.66 16.51 118.92 28.4 100.92 322.39 100.92 334.01 118.66"/><rect class="cls-10" x="93.18" y="94.42" width="9" height="24.45"/><rect class="cls-10" x="129.18" y="94.42" width="9" height="24.46"/><rect class="cls-10" x="225.18" y="94.42" width="9" height="24.3"/><rect class="cls-10" x="260.18" y="94.42" width="9" height="24.27"/><rect class="cls-11" x="95.18" y="85.42" width="5" height="8"/><rect class="cls-11" x="130.96" y="85.44" width="5" height="8"/><rect class="cls-11" x="227.2" y="85.48" width="5" height="8"/><rect class="cls-11" x="262.23" y="85.41" width="5" height="8"/><polygon class="cls-10" points="223.68 130.92 143.68 131.17 150.18 104.92 217.18 104.92 223.68 130.92"/><rect class="cls-12" x="149.55" y="122.42" width="67.63" height="4.75"/><rect class="cls-12" x="151.49" y="114.54" width="63.46" height="4.75"/><rect class="cls-12" x="153.64" y="106.29" width="59.26" height="4.75"/><rect class="cls-9" x="89.18" y="36.75" width="3.33" height="57"/><rect class="cls-9" x="121.84" y="35.75" width="3.33" height="57"/><rect class="cls-9" x="137.84" y="35.75" width="3.33" height="57"/><rect class="cls-9" x="177.18" y="36.09" width="3.33" height="57"/><rect class="cls-9" x="220.84" y="36.75" width="3.33" height="57"/><rect class="cls-9" x="235.51" y="36.75" width="3.33" height="57"/><rect class="cls-9" x="269.84" y="36.42" width="3.33" height="57"/></g><g id="Layer_9" data-name="Layer 9"><path class="cls-13" d="M27.8,150a10.18,10.18,0,0,1-3.64-.95c-.77-.54-.33-3.48-.28-4.24l.74-9.89c.06-.76.9-.56,1.94-.48h0c.39,2,.05,11,.86,11.53,3.12,2.16,6.75,3.9,3.87,4.11A15.3,15.3,0,0,1,27.8,150Z"/><path class="cls-13" d="M8.31,125.21c-.58,6.4,1.84,12-.21,11.94-.71,0-2.87-7-1.44-13.31,1.38-6.06,2.59-8.2,3.3-8.19C12.48,115.69,8.88,118.81,8.31,125.21Z"/><path class="cls-14" d="M.49,87.23c-2.9-1.1,7.73,5,16.43,4s17-4.63,16.6-7.86-2.37-4.73-11-3.21C14,81.66,6,89.33.49,87.23Z"/><ellipse class="cls-15" cx="32.94" cy="113.57" rx="25.78" ry="23.63"/><path class="cls-16" d="M12.79,132.3a5.34,5.34,0,0,0-2.6-1.28.73.73,0,0,0,.38-.6c-.06-.62-1.53-1-3.29-.83s-3.14.8-3.08,1.43c0,.27.33.5.8.65-1,.67-1.75,2-1.18,4.59s3.45,3.07,5.65,2.64,2.72-1.55,2.37-3.8a1.46,1.46,0,0,0,1.63-.08C14,134.46,13.73,133.24,12.79,132.3Z"/><path class="cls-13" d="M56.67,125.34c.58,6.4-1.84,12,.21,11.94.71,0,2.87-7,1.44-13.31-1.38-6.06-2.59-8.2-3.3-8.19C52.5,115.82,56.1,118.94,56.67,125.34Z"/><path class="cls-16" d="M52.19,132.43a5.34,5.34,0,0,1,2.6-1.28.73.73,0,0,1-.38-.6c.06-.62,1.53-1,3.29-.83s3.14.8,3.08,1.43c0,.27-.33.5-.8.65,1,.67,1.75,2,1.18,4.59s-3.45,3.07-5.65,2.64-2.72-1.55-2.37-3.8a1.46,1.46,0,0,1-1.63-.08C50.94,134.58,51.25,133.37,52.19,132.43Z"/><path class="cls-13" d="M43.36,149.88a10.18,10.18,0,0,1-3.72-.6c-.82-.46-.66-3.43-.68-4.2l-.21-9.91c0-.77.84-.64,1.88-.67h0c.57,1.93,1.1,10.92,2,11.4,3.31,1.85,7.09,3.24,4.25,3.72A15.3,15.3,0,0,1,43.36,149.88Z"/><polygon class="cls-14" points="28.16 90.81 29.59 90.73 29.78 86.94 27.88 87.28 28.16 90.81"/></g></g></svg>