<svg xmlns="http://www.w3.org/2000/svg" viewBox="0 0 836.12 1333.96"><defs><style>.cls-1{fill:#8fc33f;}.cls-2{fill:#c6252d;}.cls-3{fill:#ea3736;}.cls-4{fill:#d12627;}.cls-5{fill:#f2f2f3;}.cls-6{fill:#eee8e7;}.cls-7{fill:#d6d6d6;}.cls-8{fill:#d32127;}.cls-9{fill:#231f20;}.cls-10{fill:#ffdc83;}.cls-11{fill:#fff;}.cls-12{fill:#f8aeb0;}.cls-13{fill:none;stroke:#a81e36;stroke-miterlimit:10;stroke-width:9.31px;}.cls-14{fill:#a51d2f;}.cls-15{fill:#fbb040;}</style></defs><title>closet-milk</title><g id="Layer_2" data-name="Layer 2"><g id="Layer_26" data-name="Layer 26"><path class="cls-1" d="M836.12,1303.12c0-20.34-167.48-36.83-374.07-36.83S88,1282.79,88,1303.12,258.51,1334,465.1,1334,836.12,1323.46,836.12,1303.12Z"/><polygon class="cls-2" points="714.86 1271.46 619.85 1331.57 610.63 354.63 718.17 387.8 714.86 1271.46"/><rect class="cls-3" x="1.34" y="365.75" width="620.87" height="965.82"/><polygon class="cls-4" points="0 366.52 319.75 138.1 631.46 366.91 0 366.52"/><polygon class="cls-3" points="44.61 353.41 323.01 146 648.27 356.32 44.61 353.41"/><polygon class="cls-5" points="74.31 345.52 344.56 141.41 613.52 350.16 74.31 345.52"/><polygon class="cls-2" points="718.35 388.11 630.33 367.39 319.75 138.1 445.05 171.34 718.35 388.11"/><rect class="cls-6" x="312.19" width="20.67" height="144.03"/><polygon class="cls-7" points="445.89 172.06 332.65 144.36 331.71 0.06 445.89 47.66 445.89 172.06"/><path class="cls-8" d="M622.21,368.08h-25c-61.39,82-119.78,310.29-296.68,417.16C200.35,845.74,94.19,868.17,1.34,886.7v440.23H622.21Z"/><path class="cls-9" d="M170.44,429c-1.72,8.61,13.28,18.86,33.5,22.89s35.72-.47,39.72-8.28c15.48-30.2,14.56-31.39-33.5-22.89C189.85,424.35,172.15,420.43,170.44,429Z"/><path class="cls-10" d="M275.86,404.75c0,7.55-4,9.59-8.92,9.56s-8.84-6.17-8.8-13.72,6.75-18.08,8.94-13.63S275.9,397.19,275.86,404.75Z"/><path class="cls-11" d="M227.58,465.46c-.2,37.71,5.44,68.93,85.61,68.73,79.53-.2,86.13-30.11,86.33-67.82s-38.13-68.48-85.61-68.73S227.78,427.76,227.58,465.46Z"/><ellipse class="cls-12" cx="300.99" cy="491.16" rx="32.1" ry="55.45" transform="translate(-191.76 789.54) rotate(-89.7)"/><ellipse class="cls-9" cx="322.37" cy="496.14" rx="5.84" ry="4.86" transform="matrix(0.01, -1, 1, 0.01, -175.47, 815.87)"/><ellipse class="cls-9" cx="276.22" cy="495.38" rx="5.84" ry="4.86" transform="translate(-220.61 768.97) rotate(-89.7)"/><path class="cls-9" d="M460.43,433.62c1.63,8.63-13.48,18.72-33.74,22.53s-35.71-.85-39.63-8.7c-15.16-30.37-14.22-31.55,33.74-22.53C441.06,428.72,458.8,425,460.43,433.62Z"/><path class="cls-10" d="M355,406.8c0,7.55,3.92,9.63,8.82,9.66s8.9-6.08,8.94-13.63-6.56-18.15-8.8-13.72S355,399.25,355,406.8Z"/><ellipse class="cls-9" cx="335.9" cy="445.35" rx="7.76" ry="5.54" transform="translate(-111.23 778.89) rotate(-89.7)"/><ellipse class="cls-9" cx="265.31" cy="447.16" rx="7.76" ry="5.54" transform="translate(-183.25 710.1) rotate(-89.7)"/><rect class="cls-13" x="47.14" y="556.91" width="540.05" height="747.75"/><rect class="cls-14" x="310.14" y="555.29" width="8.37" height="750.22"/><rect class="cls-15" x="334.89" y="832.55" width="10.67" height="72" rx="5.33" ry="5.33"/><rect class="cls-15" x="282.22" y="832.55" width="10.67" height="72" rx="5.33" ry="5.33"/><rect class="cls-14" x="44.56" y="1221.21" width="543.33" height="7.33"/><rect class="cls-14" x="45.89" y="1142.55" width="543.33" height="7.33"/><rect class="cls-15" x="151.06" y="1256.21" width="51.66" height="9.5" rx="4.75" ry="4.75"/><rect class="cls-15" x="425.72" y="1257.55" width="51.66" height="9.5" rx="4.75" ry="4.75"/><rect class="cls-15" x="152.39" y="1178.21" width="51.66" height="9.5" rx="4.75" ry="4.75"/><rect class="cls-15" x="427.06" y="1179.55" width="51.66" height="9.5" rx="4.75" ry="4.75"/></g></g></svg>