<svg xmlns="http://www.w3.org/2000/svg" viewBox="0 0 94.34 103.48"><defs><style>.cls-1{fill:#8956db;}.cls-2{fill:#f7931e;}.cls-3{fill:#c1272d;}.cls-4{fill:#8cc63f;}.cls-5{fill:#afe25d;}.cls-6{fill:#e3f6ff;}.cls-7{fill:#c7fffd;}.cls-8{fill:#009245;}.cls-9{fill:#a87aea;}.cls-10{fill:#c7a4ff;}.cls-11{fill:#fffac7;}.cls-12{fill:#fceb70;}.cls-13{fill:#1477a8;}.cls-14{fill:#41abc4;}.cls-15{fill:#5bdaef;}.cls-16{fill:#eaffcc;}.cls-17{fill:#b4ffa9;}</style></defs><title>company</title><g id="Layer_2" data-name="Layer 2"><g id="Layer_5" data-name="Layer 5"><path class="cls-1" d="M68.5,80.15l-19.14,10s-1.18-22.72-1.12-31.59c0-6.86.52-28.07.52-28.07l34-11.24a162.92,162.92,0,0,0-9.61,29.44C71.33,57.32,68.5,80.15,68.5,80.15Z"/><ellipse class="cls-2" cx="83.93" cy="89.87" rx="7.53" ry="7.27"/><path class="cls-3" d="M57.77,70.28l14,12.62s1.21-19.72.34-25.32a62,62,0,0,1-.43-14.64L48.33,30.62s5,12.88,6.87,20.34C56.38,55.62,57.77,70.28,57.77,70.28Z"/><polygon class="cls-4" points="85.07 75.69 71.85 82.98 71.59 42.81 94.25 35.6 85.07 75.69"/><polygon class="cls-5" points="94.34 35.69 71.25 43.93 47.3 34.31 71.76 25.39 94.34 35.69"/><polygon class="cls-6" points="82.75 74.62 74.38 78.44 75.37 44.79 90.99 38.95 82.75 74.62"/><polygon class="cls-7" points="89.33 46.14 74.78 64.68 74.38 78.44 82.75 74.62 89.33 46.14"/><polygon class="cls-4" points="73.56 80.37 74.29 80.02 77.26 42.21 75.45 42.85 73.56 80.37"/><polygon class="cls-4" points="70.39 49.51 70.65 50.88 90.25 43.65 90.65 41.78 70.39 49.51"/><polygon class="cls-4" points="70.39 54.44 70.6 56.29 89.19 49.06 89.95 47.38 70.39 54.44"/><polygon class="cls-4" points="69.83 59.85 70.05 61.78 87.82 54.08 88.88 52.33 69.83 59.85"/><path class="cls-4" d="M70,65,70,66.68c-.73,0,16.78-7.42,16.78-7.42l.38-1.52Z"/><polygon class="cls-4" points="70.15 70.84 70.2 71.72 85.76 64.81 85.99 63.14 70.15 70.84"/><polygon class="cls-4" points="70.28 75.66 70.33 76.78 84.32 70.83 84.47 68.92 70.28 75.66"/><polygon class="cls-4" points="77.03 78.55 77.81 78.25 83.02 40.45 81.42 41.6 77.03 78.55"/><polygon class="cls-4" points="80 77.36 80.9 76.72 87.98 38.73 86.35 39.47 80 77.36"/><path class="cls-8" d="M93,87.49c1.52-.9-1.55,2.45-4.67,1.9s-4.79-2.11-4.39-3.63,1.5-1.83,3.21-1.39S90.17,89.17,93,87.49Z"/><path class="cls-1" d="M31.59,82,45,98.18s5.74-31.48,5.67-41.46c-.06-7.73-3.09-27.55-3.09-27.55l-32-18.8Z"/><path class="cls-9" d="M72.53,82.73,45,98.08S44.91,69.53,45,59.55c.06-7.73.52-31.42.52-31.42L88.76,14.49Z"/><polygon class="cls-10" points="88.69 14.48 45.43 28.2 15.62 10.37 56.63 0 88.69 14.48"/><polygon class="cls-11" points="69.2 79.87 49.68 89.93 49.45 30.25 83.45 19.01 69.2 79.87"/><polygon class="cls-12" points="49.68 89.93 69.2 79.87 80.52 31.52 49.58 63.63 49.68 89.93"/><path class="cls-9" d="M81.92,28.43l.23-2.35-6.94,2.36,1.7-9.14-3.35,1.07-1.35,9.09-6.28,2.14L67,22.77l-2.83.77-.81,8.93-6,2,.5-9.13-2.75,1.2-.23,8.77-9,3.08.52,2.32,8.46-2.93-.17,6.3-7.78,2.73L47,49.08l7.64-2.81-.17,6.65-7.81,3,.09,2.23,7.66-3-.18,6.7-7.06,3L47,67.1l7.17-3L53.94,71,47.56,73.8l.09,1.55,6.26-2.65-.17,6.48-6.77,3,.09,2,6.63-2.91-.26,9.95.91-1.37.5-9.08,4.35-1.91-.8,8.93.94-1.12,1-8.31,5-2.17L64,84.49l.86-.73,1.5-8.06,4.34-1.9.52-2.49-4.4,2,1.23-6.6,6-2.56L74.57,62l-6.12,2.67,1.31-7,6.79-2.81-.3-2.28-6,2.54,1.22-6.57L77.92,46l.91-2.59-6.92,2.69,1.25-6.68,7.35-2.71L81,34.9l-7.45,2.61,1.23-6.6ZM57.22,37l5.92-2.05-.58,6.41-5.69,2Zm-.46,8.48,5.62-2.07-.6,6.65-5.38,2.09Zm-.49,9,5.3-2.06L61,59,55.9,61.16Zm-.49,9,5-2.06-.62,6.92-4.74,2.07Zm-.83,15.18.36-6.53,4.67-2-.59,6.51Zm10.68-4.79-5,2.26.79-6.57,5.21-2.21Zm1.26-8.48L61.6,67.66l.84-7,5.47-2.27Zm1.4-9.43-5.55,2.35.8-6.66,5.72-2.23ZM69.61,47l-5.79,2.25.8-6.69,6-2.2Zm1.27-8.58-6,2.11.78-6.47,6.21-2.15Z"/><path class="cls-13" d="M9.61,90.8l14,12.62S22.85,83.78,22,78.18c-1.2-7.73-3-15.71-3-15.71L.17,51.14Z"/><polygon class="cls-14" points="39.91 94.06 23.5 103.48 18.97 62.3 43.95 52.86 39.91 94.06"/><polygon class="cls-15" points="44.04 52.86 18.89 62.55 0 51.14 24.46 42.21 44.04 52.86"/><polygon class="cls-16" points="36.91 92.81 25.55 99.37 21.89 63.93 41.2 56.33 36.91 92.81"/><polygon class="cls-17" points="24.1 85.35 25.55 99.37 36.91 92.81 40.42 62.95 24.1 85.35"/><polygon class="cls-14" points="28.14 98.61 28.97 98.27 28.07 60.62 26.05 61.01 28.14 98.61"/><polygon class="cls-14" points="21.55 67.71 21.8 69.08 40.52 62.21 41.8 59.98 21.55 67.71"/><polygon class="cls-14" points="22.53 72.38 22.75 74.23 40.13 67.49 41.03 65.73 22.53 72.38"/><polygon class="cls-14" points="23.09 78.31 23.3 80.24 39.48 73.03 39.66 71.83 23.09 78.31"/><polygon class="cls-14" points="23.85 83.62 23.75 84.89 38.88 78.65 39.4 76.93 23.85 83.62"/><polygon class="cls-14" points="24.01 89.42 24.06 90.3 38.5 84.36 38.76 82.69 24.01 89.42"/><polygon class="cls-14" points="24.14 94.46 24.19 95.58 37.65 89.68 37.94 88.27 24.14 94.46"/><polygon class="cls-14" points="31.55 97.02 32.28 96.5 33.01 58.95 31.07 59.72 31.55 97.02"/><polygon class="cls-14" points="34.38 95.19 34.85 94.87 38.07 56.59 36.01 57.53 34.38 95.19"/></g></g></svg>