<svg xmlns="http://www.w3.org/2000/svg" viewBox="0 0 187.04 84.09"><defs><style>.cls-1{fill:#a67c52;}.cls-2{fill:#b7855f;}.cls-3{fill:#c69c6d;}.cls-4{fill:#c1272d;}.cls-5{fill:#1a1a1a;}.cls-6{fill:#fff;}.cls-7{fill:#2e3192;}.cls-8{fill:#ccc;}.cls-9{fill:#ddb185;}.cls-10{fill:#ead8c7;}.cls-11{fill:#f2f2f2;stroke:#4d4d4d;stroke-width:0.56px;}.cls-11,.cls-16{stroke-miterlimit:10;}.cls-12{fill:#ddbea4;}.cls-13{fill:#231f20;}.cls-14{fill:#009245;}.cls-15{fill:#f7931e;}.cls-16{fill:#e8ecee;stroke:#231f20;stroke-width:0.26px;}</style></defs><title>csun</title><g id="Layer_2" data-name="Layer 2"><g id="Layer_5" data-name="Layer 5"><g id="Layer_2-2" data-name="Layer 2"><g id="Layer_8" data-name="Layer 8"><rect class="cls-1" x="16.91" y="25.76" width="162.91" height="40.18"/><rect class="cls-2" x="13.07" y="22.26" width="171.06" height="4.48"/><rect class="cls-3" x="44.89" y="20.4" width="113.13" height="31.36"/><rect class="cls-4" x="53.29" y="20.96" width="13.44" height="23.52"/><rect class="cls-5" x="84.09" y="20.4" width="33.04" height="31.36"/><rect class="cls-4" x="80.73" y="20.96" width="13.44" height="23.52"/><rect class="cls-4" x="108.17" y="20.96" width="13.44" height="23.52"/><rect class="cls-4" x="135.62" y="20.96" width="13.44" height="23.52"/><rect class="cls-4" x="98.39" y="0.16" width="15.04" height="8.51"/><rect class="cls-6" x="103.6" y="0.8" width="9.83" height="0.66"/><rect class="cls-6" x="103.6" y="3.41" width="9.83" height="0.66"/><rect class="cls-6" x="103.6" y="2.1" width="9.83" height="0.66"/><rect class="cls-6" x="98.39" y="6.12" width="15.04" height="0.66"/><polygon class="cls-6" points="113.43 5.47 113.43 4.71 103.6 4.71 103.6 4.81 98.46 4.81 98.46 0.16 98.39 0.16 98.39 5.47 113.43 5.47"/><rect class="cls-6" x="98.39" y="7.42" width="15.04" height="0.66"/><rect class="cls-7" x="98.38" y="0.13" width="5.21" height="4.69"/><rect class="cls-8" x="97.62" width="0.77" height="16.94"/><rect class="cls-9" x="42.09" y="17.6" width="118.73" height="3.36"/><rect class="cls-9" x="42.35" y="16.36" width="118.17" height="1.33"/><path class="cls-6" d="M63.56,34.94a14.87,14.87,0,0,1-.72,2,12.38,12.38,0,0,1-2.36.33c-3.36,0-4.79-2.2-4.79-4.22,0-2.6,2-4.42,5-4.42A9.94,9.94,0,0,1,63,29c.11.7.2,1.28.29,2.08l-.47.09a2.34,2.34,0,0,0-2.38-2c-1.84,0-2.86,1.74-2.86,3.61,0,2.34,1.26,3.88,3,3.88,1.05,0,1.84-.67,2.49-2Z"/><path class="cls-6" d="M89.32,30.91c-.27-.8-.74-1.74-1.78-1.74a1.21,1.21,0,0,0-1.23,1.19s0,0,0,.07c0,.7.46,1.12,1.58,1.68,1.33.65,2.24,1.36,2.24,2.62,0,1.45-1.23,2.58-3.09,2.58a4.55,4.55,0,0,1-1.28-.18,6.09,6.09,0,0,1-.77-.28,15.25,15.25,0,0,1-.37-2.16l.44-.14c.25.81,1,2.24,2.24,2.24a1.23,1.23,0,0,0,1.27-1.33c0-.75-.56-1.22-1.51-1.73-1.31-.66-2.24-1.35-2.24-2.57,0-1.4,1.12-2.49,2.91-2.49a5.2,5.2,0,0,1,1.77.34c.05.47.14,1,.24,1.82Z"/><path class="cls-6" d="M119.63,29.28c-.7,0-1,.3-1.08.75a10.34,10.34,0,0,0-.11,1.77v1.38a4.45,4.45,0,0,1-.91,3.18,3.24,3.24,0,0,1-2.35.93,3.57,3.57,0,0,1-2.24-.66c-.72-.56-1.05-1.5-1.05-3v-3c0-1.19-.13-1.28-1.07-1.37v-.44h3.83v.44c-.93.09-1.05.18-1.05,1.37v2.76c0,1.91.69,3,2.06,3s2.17-1.12,2.17-3.27V31.8a9.86,9.86,0,0,0-.13-1.77c-.06-.44-.37-.7-1.23-.75v-.44h3.19Z"/><path class="cls-6" d="M147.14,29.28c-.69,0-1,.2-1,.79a18,18,0,0,0-.11,2.11v5h-.61l-5.29-6.33h0v2.86a17.67,17.67,0,0,0,.1,2.06c.06.56.28.8,1.22.84v.44h-3.11v-.44c.71-.05,1-.25,1.05-.8a14.78,14.78,0,0,0,.13-2.1V31.1c0-.83,0-1.07-.27-1.36a1.29,1.29,0,0,0-1.05-.46v-.44h2.35l4.86,5.6h.05V32.2c0-1.12-.08-1.71-.1-2.08-.06-.56-.33-.76-1.26-.81v-.44h3.1Z"/><rect class="cls-2" x="33.69" y="25.44" width="1.86" height="31.92"/><rect class="cls-2" x="163.8" y="25.81" width="1.86" height="31.92"/><rect class="cls-9" x="43.77" y="51.76" width="115.93" height="5.04"/><polygon class="cls-10" points="187.04 66.45 9.23 66.6 15.89 56.52 180.54 56.52 187.04 66.45"/><rect class="cls-10" x="52.17" y="52.88" width="5.04" height="13.69"/><rect class="cls-10" x="72.33" y="52.88" width="5.04" height="13.7"/><rect class="cls-10" x="126.1" y="52.88" width="5.04" height="13.61"/><rect class="cls-10" x="145.7" y="52.88" width="5.04" height="13.59"/><rect class="cls-11" x="53.29" y="47.84" width="2.8" height="4.48"/><rect class="cls-11" x="73.33" y="47.85" width="2.8" height="4.48"/><rect class="cls-11" x="127.23" y="47.87" width="2.8" height="4.48"/><rect class="cls-11" x="146.84" y="47.83" width="2.8" height="4.48"/><polygon class="cls-10" points="125.26 73.32 80.45 73.46 84.09 58.76 121.61 58.76 125.26 73.32"/><rect class="cls-12" x="83.74" y="68.56" width="37.88" height="2.66"/><rect class="cls-12" x="84.83" y="64.15" width="35.54" height="2.66"/><rect class="cls-12" x="86.03" y="59.53" width="33.19" height="2.66"/><rect class="cls-9" x="49.93" y="20.58" width="1.86" height="31.92"/><rect class="cls-9" x="68.22" y="20.02" width="1.86" height="31.92"/><rect class="cls-9" x="77.18" y="20.02" width="1.86" height="31.92"/><rect class="cls-9" x="99.21" y="20.21" width="1.86" height="31.92"/><rect class="cls-9" x="123.67" y="20.58" width="1.86" height="31.92"/><rect class="cls-9" x="131.88" y="20.58" width="1.86" height="31.92"/><rect class="cls-9" x="151.11" y="20.4" width="1.86" height="31.92"/></g><g id="Layer_9" data-name="Layer 9"><path class="cls-13" d="M15.56,84a5.7,5.7,0,0,1-2-.53c-.43-.3-.18-1.95-.16-2.37l.41-5.54c0-.43.5-.31,1.09-.27h0c.22,1.12,0,6.16.48,6.46,1.75,1.21,3.78,2.18,2.17,2.3A8.57,8.57,0,0,1,15.56,84Z"/><path class="cls-13" d="M4.64,70.12c-.32,3.58,1,6.72-.12,6.69-.4,0-1.61-3.92-.81-7.45s1.45-4.59,1.85-4.59C7,64.79,5,66.54,4.64,70.12Z"/><path class="cls-14" d="M.27,48.85c-1.62-.62,4.33,2.8,9.2,2.24s9.52-2.59,9.3-4.4-1.33-2.65-6.16-1.8S3.36,50,.27,48.85Z"/><ellipse class="cls-15" cx="18.43" cy="63.6" rx="14.44" ry="13.23"/><path class="cls-16" d="M7.15,74.09a3,3,0,0,0-1.46-.72A.41.41,0,0,0,5.91,73c0-.35-.86-.56-1.84-.46s-1.76.45-1.72.8c0,.15.18.28.45.36-.56.38-1,1.12-.66,2.57S4.06,78,5.29,77.79s1.52-.87,1.33-2.13a.82.82,0,0,0,.94-.06C7.84,75.3,7.68,74.62,7.15,74.09Z"/><path class="cls-13" d="M31.72,70.19c.32,3.58-1,6.72.12,6.69.4,0,1.61-3.92.81-7.45s-1.45-4.59-1.85-4.59C29.39,64.86,31.41,66.61,31.72,70.19Z"/><path class="cls-16" d="M29.22,74.17a3,3,0,0,1,1.46-.72.41.41,0,0,1-.21-.34c0-.35.86-.56,1.84-.46s1.76.45,1.72.8c0,.15-.18.28-.45.36.56.38,1,1.12.66,2.57s-1.93,1.72-3.16,1.46-1.52-.87-1.33-2.13a.82.82,0,0,1-.91,0C28.52,75.37,28.69,74.69,29.22,74.17Z"/><path class="cls-13" d="M24.27,83.94a5.7,5.7,0,0,1-2.08-.34c-.46-.26-.37-1.92-.38-2.35l-.12-5.55c0-.43.47-.36,1.05-.38h0c.32,1.08.62,6.12,1.12,6.38,1.85,1,4,1.81,2.38,2.08A8.57,8.57,0,0,1,24.27,83.94Z"/><polygon class="cls-14" points="15.76 50.86 16.56 50.81 16.66 48.69 15.6 48.88 15.76 50.86"/></g></g></g></g></svg>