<svg xmlns="http://www.w3.org/2000/svg" viewBox="0 0 437.33 342.67"><defs><style>.cls-1{fill:#6cd2ff;}.cls-2{fill:#119eed;}.cls-3{fill:#0c7bc6;}.cls-4{fill:#915534;}.cls-5{fill:#af7e4e;}.cls-6{fill:#b6f0ff;}.cls-7{fill:#006837;}.cls-8{fill:#f7941d;}.cls-9{fill:#009444;}.cls-10{fill:#d1ff5f;}.cls-11{fill:#2d4dd3;}.cls-12,.cls-14{fill:#fff;}.cls-12{stroke:#000;stroke-miterlimit:10;stroke-width:1.54px;}.cls-13{fill:#0f59a3;}</style></defs><title>fish</title><g id="Layer_2" data-name="Layer 2"><g id="Layer_5" data-name="Layer 5"><path class="cls-1" d="M265.43,0H171.9C77.36,0,0,76.95,0,171H0c0,94,77.36,171,171.9,171h93.53c94.55,0,171.9-76.95,171.9-171h0C437.33,76.95,360,0,265.43,0Z"/><path class="cls-2" d="M349.2,239.17c-5.47,1.85-10.41,4.83-16.62,5-12.51.44-21.3-4.82-27.75-14.1-10.45,16.39-36.12,21-52,.29-5.83,8.67-14.15,13.86-25.55,13.87s-20-5.25-26-14.42c-6.05,9.53-14.61,14.38-26,14.42s-19.62-5.38-25.68-14.22c-6.32,9.25-14.73,14.32-26.19,14.21-11.31-.12-19.59-5.29-25.36-14-13.47,19-39.48,18.37-52,0-6,8.57-13.77,14.18-25.66,14a35.86,35.86,0,0,1-3.82-.26,173.56,173.56,0,0,0,51.07,63.14H348c2.45-1,1.11-2.87,1.11-4.25C349.23,281.64,349.2,260.41,349.2,239.17Z"/><path class="cls-3" d="M380.35,253.75c-10.45,16.39-36.12,21-52,.29-5.83,8.67-14.15,13.86-25.55,13.87s-20-5.25-26-14.42c-6.05,9.53-14.61,14.38-26,14.42s-19.62-5.38-25.68-14.22c-6.32,9.25-14.73,14.32-26.19,14.21-11.31-.12-19.59-5.29-25.36-14-13.47,19-39.48,18.37-52,0-6,8.57-13.77,14.19-25.66,14-11.69-.14-19.82-5.48-26-14.15-6.33,9.19-14.64,13.77-26.18,14.22a25.49,25.49,0,0,1-16.26-4.47,173.41,173.41,0,0,0,81.92,67.28H328.06a173.39,173.39,0,0,0,79-62.93C395.14,268,386.62,262.77,380.35,253.75Z"/><path class="cls-4" d="M174.31,237V319H352.11A173.54,173.54,0,0,0,424,237Z"/><path class="cls-5" d="M429,223.55H155.31v15.74H423Q426.35,231.6,429,223.55Z"/><path class="cls-6" d="M295.55,59a38.31,38.31,0,0,0-6.41.55c-5-14.36-17.94-26.07-37.62-26.07a27.19,27.19,0,0,0-6,.74c-5.53-11.33-19.66-19.4-36.26-19.4-17.13,0-31.64,8.59-36.77,20.48a28.51,28.51,0,0,0-9.68-1.83c-19.67,0-32.62,11.71-37.62,26.07a38.31,38.31,0,0,0-6.41-.55C102.38,59,89,69.25,89,82c0,9.22,236.31,9.22,236.31,0C325.34,69.25,312,59,295.55,59Z"/><path class="cls-7" d="M367,124.34c20.55-5.14-19.69,62.78-129.45,37.5C146.06,140.78,123.28,64.42,145,70.41c20.55,5.65,81.72-6.68,108.39-6.68S331.54,133.2,367,124.34Z"/><path class="cls-8" d="M338.7,138.73c0,48.23-39.56,87.33-88.36,87.33s-91.69-24.85-96.58-88.36c-4.11-53.43,47.78-86.3,96.58-86.3S338.7,90.5,338.7,138.73Z"/><path class="cls-9" d="M327.34,100.1,203,57.46,226.27,22.6a11.48,11.48,0,0,1,12.37-4.76l83.55,21.1A10.35,10.35,0,0,1,330,49.52Z"/><path class="cls-9" d="M324.79,90.93a13.8,13.8,0,0,0-3.3-5.58c-.2-.36-.41-.7-.61-1.07a3.72,3.72,0,0,0-2.43-2c-10.38-9.5-32-21.19-56.65-25.23-18.54-3-42.39-5.59-52.57-2.74a6.33,6.33,0,0,0-5,1.71c-8.22,8.73-62.67,11.63-62.67,14.9s45.72-2.05,57.54,6.16a10.39,10.39,0,0,0,1.7.92c8,7.2,21.47,36.71,48.13,38.12,21.09,1.11,41.82-16.93,56.61-15.18,5.32,2.39,11.13,9.27,21,17.75,20.09,17.32,43.17,9.27,44.18,6.16C371.66,121.93,346.6,125.42,324.79,90.93Z"/><ellipse cx="183.3" cy="145.92" rx="5.91" ry="6.16"/><ellipse cx="258.54" cy="147.95" rx="5.91" ry="6.16"/><path d="M240.07,177.64c0,.92-7.63,4.75-15.92,4.75S210,178.56,210,177.64s6.09,3.21,14.38,3.21S240.07,176.72,240.07,177.64Z"/><path d="M259.59,212.45c-19.35,14-41.49,10.83-41.46,19.17,0,3.4,27.25-.31,46.6-14.29s32.45-35.61,23.47-36.36C284.64,180.67,278.94,198.46,259.59,212.45Z"/><rect class="cls-10" x="76.55" y="138.34" width="3.39" height="156.51" transform="translate(156.49 433.2) rotate(180)"/><path class="cls-11" d="M145.67,162.62c40.61,24.16,75.8,59.64,67.36,63.26-11.49,4.93-4.83-17.68-70.83-58.25C85.19,132.56,74,142.2,74,138.34,74,136.42,99.06,134.88,145.67,162.62Z"/><path d="M191.09,237.28c-1.3,2.48-3.87,11-7.75,14.52s-41.85-1.25,8.06,12.31c.69.19,2.29-2.35,3.48-5.51,1.65-4.37,1.79-10.32,3.44-18.23,2.84-13.64,20.15-26.23,14.71-25.27C211,215.46,197.57,224.95,191.09,237.28Z"/><path class="cls-12" d="M236,216.17c-.76,0-2.24,1.3-3.43,3.28-1-4.49-2.35-7.89-14.49-7.52-12.71.39-17,8.48-16.18,17.34.66,7.56,5.54,10.4,16.18,10.4a16.41,16.41,0,0,0,14.54-8.36c1.18,1.82,2.63,3,3.37,3,1.38,0,2.5-4.05,2.5-9.05S237.41,216.17,236,216.17Z"/><path class="cls-12" d="M206.93,225.42c0,9.15-5.49,11.94-14.64,11.94s-15-7.42-15-16.57,3.18-11.94,12.33-11.94S206.93,216.27,206.93,225.42Z"/><path d="M248.49,240.36c-1.3,2.48-3.87,11-7.75,14.52s-41.85-1.25,8.06,12.31c.69.19,2.29-2.35,3.48-5.51,1.65-4.37,1.79-10.32,3.44-18.23,2.84-13.64,26.34-28.43,14.71-25.27C268.44,218.72,255,228,248.49,240.36Z"/><path class="cls-13" d="M172,342.67h93.5a171.5,171.5,0,0,0,127.35-56.79c-12.27,6.4-28.86,4.73-40.34-10.28-5.83,8.67-14.15,13.86-25.55,13.87s-20-5.25-26-14.42c-6.05,9.53-14.61,14.38-26,14.42s-19.62-5.38-25.68-14.22c-6.32,9.25-14.73,14.32-26.19,14.21-11.31-.12-19.59-5.29-25.36-14-13.47,19-39.48,18.37-52,0-6,8.57-13.77,14.19-25.66,14-11.69-.14-19.82-5.48-26-14.15-6.33,9.19-14.64,13.77-26.18,14.22-12.21.47-19.56-5.37-25.16-14.17a46.14,46.14,0,0,1-3.58,4.18A171.69,171.69,0,0,0,172,342.67Z"/><path class="cls-14" d="M19,93c48.89.23,101-1.57,101-5.4,0-9.95-10.44-18-23.33-18a30,30,0,0,0-5,.43C87.7,58.74,77.56,49.57,62.16,49.57a21.29,21.29,0,0,0-4.67.58,22.07,22.07,0,0,0-3-4.39A173.43,173.43,0,0,0,19,93Z"/><path class="cls-14" d="M419.49,147.57a22.32,22.32,0,0,0-7.58-1.43c-15.4,0-25.54,9.17-29.46,20.42a30,30,0,0,0-5-.43c-12.88,0-23.33,8.06-23.33,18,0,3.34,39.61,5.14,82.18,5.39a171.63,171.63,0,0,0,1-18.69h0a170.76,170.76,0,0,0-3.91-36.24C426.93,137.43,421.89,142,419.49,147.57Z"/></g></g></svg>