<svg xmlns="http://www.w3.org/2000/svg" viewBox="0 0 166.78 179.39"><defs><style>.cls-1{fill:#fdfdfd;}.cls-2{fill:#0b0b0b;}.cls-3{fill:#f32828;}</style></defs><title>hired</title><g id="Layer_2" data-name="Layer 2"><g id="Layer_7" data-name="Layer 7"><g id="_4WNYsi.tif" data-name="4WNYsi.tif"><path class="cls-1" d="M0,89.77Q0,45.43,0,1.08C0,.34.19.18.93.18q82.48,0,165,0c.74,0,.91.17.91.91q0,88.79,0,177.58c0,.74-.17.91-.91.91q-82.48,0-165,0c-.74,0-.91-.17-.91-.91Q.06,134.22,0,89.77Zm26.12,26.36V116l0,.09c-.07-.39-.24-.7-.67-.74s-.66.25-.83.58c-.33.64-.67,1.28-1,1.93C18.45,129,13.62,140.37,9.09,151.81a66.61,66.61,0,0,0-2.72,7.8c-.19.75-.36,1.55.64,1.89.69.24,1.12-.22,1.44-1.34s.72-2.37,1.08-3.56c1.23.41,1.47.33,2.17-.73.29-.44.58-.88.85-1.33a140.42,140.42,0,0,0,14.15-33.13,16.1,16.1,0,0,0,.76-4.84c0-.37,0-.75-.45-.89S26.34,115.78,26.16,116.13Zm69.66-57a14.48,14.48,0,0,0,2.5-8.51c0-2.77-.3-5.38-2.32-7.49a.34.34,0,0,1-.09-.47,39.59,39.59,0,0,0,8.74-2.05c.48-.15,1-.27,1-.91s-.68-.7-1.23-.7c-1.12,0-2.23,0-3.35,0a7.22,7.22,0,0,1-4.42-1.39,26.22,26.22,0,0,1-4.19-3.86,45.27,45.27,0,0,0-4.06-4.42,4.38,4.38,0,0,0-2.55-1.17,11.48,11.48,0,0,0-6.73,1.43c-1.09.63-1.81,1.39-1.6,2.74.05.36,0,.59-.46.8C70.66,35.88,65.85,40,65,47.38c-.34,2.88-.55,5.84.74,8.63a1.62,1.62,0,0,1,.09.77c-.14,1.93-.32,3.86-.45,5.79-.07,1.15-.08,2.3-.1,3.44,0,.48.09,1,.69,1s.73-.53.73-1.05c0-.23,0-.45,0-.72a4.81,4.81,0,0,0,3.92-.39c1.45-.69,2.87-1.44,4.3-2.17.24-.12.48-.27.74-.11s.06.48,0,.71a39.79,39.79,0,0,0-.53,6.66,19.78,19.78,0,0,1-3,1.26c-5.21-.05-10.42.1-15.62-.24-.72,0-1.44,0-2.16,0-.28,0-.68-.05-.74.31s.28.49.54.63a6.3,6.3,0,0,0,2.39.48c4,.45,8,.39,12.07.44C64.83,74.67,61,76.5,57.09,78.11c-2.64,1.09-5.17,2.42-7.77,3.57-.44.19-.7.4-1.2.09-.73-.45-1,.49-1.59.67a.45.45,0,0,0-.16.68c.81,1.24,1,2.7,1.46,4q1.71,4.64,3.55,9.24c1.73,4.35,3.35,8.76,6.1,12.63,1.24,1.75,2.53,2.14,4.4,1,1.25-.78,2.56-1.47,3.83-2.22,3.89-2.31,7.74-4.69,11.7-6.88,7.6-4.19,15.77-7.15,23.65-10.73,2.63-1.2,5.3-2.3,8-3.45a14,14,0,0,0,2.6-1.58,2.26,2.26,0,0,0,.85-2.79,22.11,22.11,0,0,0-1.93-4.18c-1.33-2.22-2.62-4.47-3.74-6.81.15-.54.34-1.07.45-1.61a154.06,154.06,0,0,0,2.39-18c.33-3.92.62-7.85.93-11.77a88,88,0,0,0,.68-10.7c0-.38.07-.9-.5-.89s-.49.52-.5.9a29.24,29.24,0,0,1-.15,3.44c-1.15,7-1.55,14.15-2.27,21.23-.52,5.16-1.14,10.3-2.17,15.39-1.46-1.93-2.57-4.09-3.93-6.09-.32-.48.06-.55.38-.62a5,5,0,0,0,2.39-1c.38-.34.62-.68.43-1.18a1,1,0,0,0-1.19-.64,7.86,7.86,0,0,0-1.81.43,2.25,2.25,0,0,1-3.23-1c-.74-1.19-1-1.13-2.2-.35C96.31,59,96.12,59.21,95.82,59.13Zm34.75,69.38c.13-3.06.19-6.07.1-9.09,0-.69.21-.76.8-.47,2.72,1.31,5.57,2.32,8.38,3.42a5.47,5.47,0,0,1,2.29,1.52c.37.32,1.13.86,1.78.26a1.16,1.16,0,0,0,0-1.68,2.89,2.89,0,0,0-1.15-.91c-.89-.42-1.79-.83-2.7-1.19a96.22,96.22,0,0,1-12.07-5.3c-.94-.52-1.75-1-1.52-2.26a.92.92,0,0,0-.7-1.06.91.91,0,0,0-1.11.58c-.11.2-.19.61-.54.37-1.24-.85-2.66-1.51-3.54-2.78-.72-1-.19-2,1.05-2.05a5.82,5.82,0,0,1,2.79.84c.23.1.52.33.72.07s-.13-.51-.31-.7a5.8,5.8,0,0,0-4.26-1.74,1.73,1.73,0,0,0-1.83,1.21,4,4,0,0,0,1.05,4.33,25.49,25.49,0,0,0,3.25,2.39c.42.28.57.5.36,1-1.09,2.81-2.12,5.65-3,8.54a.76.76,0,0,1-.84.64c-.49,0-1,0-1.48,0l-26.31.05c-9.1,0-18.19-.05-27.27-.77a173.79,173.79,0,0,1-24.31-3.66,16,16,0,0,0-3.2-.5c-.38,0-.75.08-.77.56s.35.52.67.58c.74.16,1.49.25,2.21.45A138.58,138.58,0,0,0,58.76,125a207.59,207.59,0,0,0,24,1.45c12,.1,24,.16,36.06,0,.75,0,.81.2.61.82q-.62,2-1.15,4c-1.11,4.19-2.1,8.43-4,12.34-2.89,5.93-5.88,11.82-10.07,17a6,6,0,0,0-1.55,2.37c-.32,1.66-1.59,2.64-2.35,3.93-.27-.06-.25-.21-.26-.33s0-.52-.36-.47-.31.32-.29.55a4.89,4.89,0,0,1-.35,1.72c-.15.52-.22,1.07.33,1.41s1,0,1.42-.33a10,10,0,0,0,1.12-1.24c1.16-1.55,2.3-3.12,3.44-4.68.19-.26.31-.62.79-.47a12.35,12.35,0,0,1-1.34,2.92c-.77,1.45-1.62,2.85-2.37,4.31-.31.6-.44,1.32.32,1.73s1.22-.16,1.58-.74.79-1.33,1.23-2.07a1.55,1.55,0,0,1,0,1,11,11,0,0,0-.25,1.85c0,1,.74,1.46,1.67,1a4.76,4.76,0,0,0,1.43-1.33c.33-.38.53-.89,1.19-.32a1.07,1.07,0,0,0,1.43-.24,13.39,13.39,0,0,0,1.34-1.43A69.73,69.73,0,0,0,121,155.52c3.73-8.29,6.77-16.75,6.1-26.08a2.26,2.26,0,0,1,.19-1.06c.52-1.23,1-2.47,1.55-3.71.08-.18.06-.48.43-.42,0,.22,0,.45,0,.67-.18,1.68-.46,3.36-.49,5.06a.94.94,0,0,0,.58,1,1.07,1.07,0,0,0,1.17-.32,7.7,7.7,0,0,0,1.2-1.55,12.18,12.18,0,0,1,3.72-4.14c.24-.16.44-.41.78-.33a.69.69,0,0,0,.88-.42.64.64,0,0,0-.25-.78.85.85,0,0,0-1.09-.12c-.47.3-.92.62-1.37,1A16.91,16.91,0,0,0,130.57,128.52Zm-97-59c0-.41.07-.67.11-.92a127.08,127.08,0,0,0,1.41-15.68c.17-9.16.11-18.33,0-27.49,0-4.17-.06-8.34-.16-12.51,0-.91.25-1.1,1.11-1,1.4.12,2.82.11,4.23.14,14.05.21,28.11.35,42.16.65,14.38.3,28.73,1.29,43.11,1.79a118.53,118.53,0,0,0,12.41-.06,4.29,4.29,0,0,0,2.14-.65.72.72,0,0,0,.37-.84c-.12-.44-.46-.38-.8-.33a14.88,14.88,0,0,1-1.94.25c-6.21.06-12.41,0-18.61-.3-9.15-.41-18.3-.95-27.45-1.29-12.87-.48-25.74-.59-38.61-.65-5.68,0-11.36,0-17,.17-.31,0-.76.23-.94-.25-.1-.27-.07-.65-.51-.54s-.36.43-.44.71a14.19,14.19,0,0,0-.48,4.09q-.1,14.38-.17,28.77c0,5.38,0,10.77-.49,16.14,0,.29.15.73-.37.76a4.94,4.94,0,0,0-3.13,1.88A44.09,44.09,0,0,0,20.29,75.9a37.75,37.75,0,0,0-2.75,16.57,17.55,17.55,0,0,0,.94,5.21,34.22,34.22,0,0,0,2.07,4.58,7.31,7.31,0,0,0-6,3.2,5.35,5.35,0,0,0,1.77,7.93,11.64,11.64,0,0,0,3.78,1.35c3.19.58,6.42.3,9.63.34a6.43,6.43,0,0,1,1.47.09A94.12,94.12,0,0,0,45,117.23C56,118.29,67,118.72,77.94,119.61q10.16.82,20.25,2.3a76.57,76.57,0,0,0,8.09,1.1c.66,0,1.24-.15,1.3-.89s-.52-1-1.16-1.06c-.94-.12-1.89-.2-2.83-.35-7.16-1.18-14.35-2.16-21.57-2.81-11.58-1-23.2-1.5-34.78-2.41A126.22,126.22,0,0,1,34,113.94c-.26,0-.62.06-.71-.36-.21-1-1-1-1.7-.79a5.18,5.18,0,0,1-3.63-.45c-1.12-.55-1.25-.83-.72-2,.11-.24.31-.49,0-.7s-.49,0-.68.19a2.3,2.3,0,0,0-.58,3.07c-1.41,0-2.76,0-4.1,0a12.49,12.49,0,0,1-2.23-.36,9.48,9.48,0,0,1-3.05-1.33,2.27,2.27,0,0,1-1.11-2,5.57,5.57,0,0,1,4.82-5.56,1.36,1.36,0,0,1,1.54.67,12.16,12.16,0,0,0,4.26,4c.6.31,1.31.41,1.9.74,1,.53,1.39.39,1.53-.66.71-5.5,1.84-10.94,2.41-16.45a1.06,1.06,0,0,1,.77-1,14.91,14.91,0,0,0,7.08-5.25,13.45,13.45,0,0,0,3-6.72,15.46,15.46,0,0,0-.78-7.47,4.31,4.31,0,0,0-4.85-3A10.9,10.9,0,0,0,33.54,69.52Zm110,3c-.2,1.42-.4,2.75-.58,4.08a1.67,1.67,0,0,1-.52.91c-1.38,1.5-3.53,2-4.75,3.71-.06.08-.31,0-.48,0h-1.18c-2,0-2.19-.2-2.62-2.16a36.15,36.15,0,0,0-1.53-5.69c-.92-2.32-3.17-2.62-5-1.83-3.62,1.6-5.85,4.33-5.88,8.53a95.69,95.69,0,0,0,.41,10.23,32.15,32.15,0,0,0,3.42,11.74c.31.6.69,1.1,1.45.87a1.34,1.34,0,0,0,1.11-1.51c-.93.89-1.23.34-1.59-.44-3.24-7-3.48-14.39-3.26-21.89.08-2.89,3-5.61,5.21-6.34a1.78,1.78,0,0,1,2.49,1.2,14.42,14.42,0,0,1,.62,2.07c.33,1.5.6,3,.92,4.53a2.64,2.64,0,0,0,1.8,2.18c2.6.67,5.24.92,7.51-.91a16,16,0,0,0,3.66-4c1.44-2.31,3.15-4.44,4.74-6.66A7.69,7.69,0,0,0,150.76,69c.15-.47.28-1.1-.34-1.26s-.51-.5-.38-.91c2.43-7.57,4.27-15.29,6-23A67.19,67.19,0,0,0,157.88,26c-.07-1.75-.58-2.14-2.22-1.62a16.93,16.93,0,0,1-3,.43c-.6.08-.87-.05-.84-.75.06-1.31,0-2.63,0-3.94s-.42-1.58-1.63-1.42-2.54.29-3.81.46c-.91.12-1.82.24-2.73.4a.67.67,0,0,0-.59.79c.06.46.45.39.78.36,1.86-.16,3.73-.31,5.59-.5.51-.05.77,0,.76.63a81.35,81.35,0,0,1-.63,10.61c-1.25,8.77-2.74,17.5-4.61,26.17C144,62,143,66.53,142.1,71,141.83,72.35,142.17,72.66,143.56,72.49Zm14.12,20.45a50.17,50.17,0,0,1-.34,6.09,29.39,29.39,0,0,1-7.92,16.58,4.86,4.86,0,0,1-3.23,1.71c-.72.05-.73.43-.49.94a1.43,1.43,0,0,0,1.68.7,6.87,6.87,0,0,0,4.23-2.67,31.69,31.69,0,0,0,7.27-14.65,51.33,51.33,0,0,0,.58-11.19,47.18,47.18,0,0,0-3-16.27,15.11,15.11,0,0,0-2.21-4.26,1.3,1.3,0,0,0-1.64-.51.56.56,0,0,0-.35.44c0,.27.19.31.39.32.47,0,.66.39.84.74.31.62.62,1.23.87,1.87A50.1,50.1,0,0,1,157.69,92.94Zm-21-26.53c.15,2.48,0,5.44,0,8.39,0,.56.06,1.11.11,1.67a.67.67,0,0,0,.61.67.68.68,0,0,0,.73-.65,7.19,7.19,0,0,0,.08-1.37c-.14-5.32.27-10.63.37-15.95.08-4.4.61-8.77,1-13.15.52-5.92,1.19-11.82,1.89-17.71a97.39,97.39,0,0,0,.88-12.86,5.52,5.52,0,0,0-.07-.88c0-.25-.06-.56-.41-.58s-.41.28-.46.53a6.71,6.71,0,0,0-.08.88c-.09,1.74-.06,3.49-.27,5.21-1.07,8.53-2.36,17-3.14,25.59C137.32,52.76,136.74,59.33,136.67,66.41ZM53.28,63.63a21.06,21.06,0,0,0,.09,3.85c.07.37.2.73.66.71s.58-.38.62-.76.12-.78.13-1.17C55,61,55.44,55.84,56,50.65c.77-7.08,1.48-14.16,2.25-21.24.05-.48,0-1,.4-1.45.28-.27,0-.61-.25-.82a.54.54,0,0,0-.84.19,3.16,3.16,0,0,0-.39,1.31c-.95,5.56-1.64,11.16-2.23,16.78C54.33,51.29,53.55,57.15,53.28,63.63ZM83.8,28h2.36a78,78,0,0,1,12.57.59c2.46.37,4.92.8,7.38,1.2.46.07,1,.12,1.13-.46s-.46-.71-.93-.78c-5.24-.88-10.45-1.88-15.8-1.85-8.79.05-17.59-.31-26.28,1.44L60,29c-.31.07-.56.23-.48.61,0,.21.18.36.43.26a10,10,0,0,1,2.31-.36A100.83,100.83,0,0,1,83.8,28Z" transform="translate(-0.02 -0.18)"/><path class="cls-2" d="M130.57,128.52a16.91,16.91,0,0,1,3.83-4.21c.45-.33.9-.65,1.37-1a.85.85,0,0,1,1.09.12.64.64,0,0,1,.25.78.69.69,0,0,1-.88.42c-.34-.08-.54.17-.78.33a12.18,12.18,0,0,0-3.72,4.14,7.7,7.7,0,0,1-1.2,1.55,1.07,1.07,0,0,1-1.17.32.94.94,0,0,1-.58-1c0-1.7.31-3.37.49-5.06,0-.22,0-.44,0-.67-.38-.06-.36.24-.43.42-.52,1.24-1,2.48-1.55,3.71a2.26,2.26,0,0,0-.19,1.06c.67,9.33-2.37,17.78-6.1,26.08a69.73,69.73,0,0,1-8.66,14.16,13.39,13.39,0,0,1-1.34,1.43,1.07,1.07,0,0,1-1.43.24c-.67-.58-.86-.07-1.19.32A4.76,4.76,0,0,1,107,173c-.93.46-1.67,0-1.67-1a11,11,0,0,1,.25-1.85,1.55,1.55,0,0,0,0-1c-.44.74-.82,1.41-1.23,2.07s-.8,1.15-1.58.74-.63-1.13-.32-1.73c.75-1.46,1.59-2.87,2.37-4.31a12.35,12.35,0,0,0,1.34-2.92c-.48-.16-.6.2-.79.47-1.14,1.56-2.28,3.13-3.44,4.68a10,10,0,0,1-1.12,1.24c-.39.37-.86.66-1.42.33s-.49-.88-.33-1.41a4.89,4.89,0,0,0,.35-1.72c0-.24,0-.51.29-.55s.34.23.36.47,0,.27.26.33c.76-1.29,2-2.27,2.35-3.93a6,6,0,0,1,1.55-2.37c4.19-5.17,7.17-11.06,10.07-17,1.91-3.91,2.9-8.15,4-12.34q.53-2,1.15-4c.2-.62.13-.84-.61-.82-12,.2-24,.15-36.06,0a207.59,207.59,0,0,1-24-1.45,138.58,138.58,0,0,1-19.61-3.75c-.72-.2-1.48-.29-2.21-.45-.32-.07-.69-.15-.67-.58s.39-.57.77-.56a16,16,0,0,1,3.2.5,173.79,173.79,0,0,0,24.31,3.66c9.08.72,18.17.79,27.27.77l26.31-.05c.49,0,1-.05,1.48,0a.76.76,0,0,0,.84-.64c.88-2.89,1.92-5.72,3-8.54.2-.52.05-.75-.36-1a25.49,25.49,0,0,1-3.25-2.39,4,4,0,0,1-1.05-4.33,1.73,1.73,0,0,1,1.83-1.21,5.8,5.8,0,0,1,4.26,1.74c.19.19.58.37.31.7s-.48,0-.72-.07a5.82,5.82,0,0,0-2.79-.84c-1.24.1-1.77,1-1.05,2.05.88,1.27,2.29,1.93,3.54,2.78.35.24.44-.16.54-.37a.91.91,0,0,1,1.11-.58.92.92,0,0,1,.7,1.06c-.22,1.29.58,1.74,1.52,2.26a96.22,96.22,0,0,0,12.07,5.3c.92.35,1.81.77,2.7,1.19a2.89,2.89,0,0,1,1.15.91,1.16,1.16,0,0,1,0,1.68c-.65.6-1.42.06-1.78-.26a5.47,5.47,0,0,0-2.29-1.52c-2.81-1.1-5.66-2.11-8.38-3.42-.59-.28-.82-.22-.8.47C130.76,122.44,130.7,125.45,130.57,128.52ZM111.81,167a48.07,48.07,0,0,0,5.53-8.54,72.89,72.89,0,0,0,7.18-18.77,22.73,22.73,0,0,0,.65-6.9,13.08,13.08,0,0,0-1.95,4.13,88.61,88.61,0,0,1-9,25.95C113.43,164.24,112.61,165.6,111.81,167Zm14.65-50.56c-.15,1.25-.3,2.35-.41,3.46,0,.29-.23.65.25.82.72.26.75.81.57,1.45a7.27,7.27,0,0,0-.24,1.25c0,.31-.1.69.36.79s.45-.3.56-.54a39.67,39.67,0,0,0,1.8-5.08c.09-.32.14-.54-.22-.72C128.26,117.4,127.41,116.93,126.46,116.42Zm-17,47.83c-.32.88-.7,1.78-1,2.71-.11.38-.66.94-.34,1.08.56.25.71-.52.94-.88C109.7,166.25,110.91,165.4,109.49,164.24Zm15.15-34.69c.65-.89.65-.9.42-1.66A5.08,5.08,0,0,0,124.64,129.55Z" transform="translate(-0.02 -0.18)"/><path class="cls-2" d="M33.54,69.52a10.9,10.9,0,0,1,3.72-1,4.31,4.31,0,0,1,4.85,3,15.46,15.46,0,0,1,.78,7.47,13.45,13.45,0,0,1-3,6.72,14.91,14.91,0,0,1-7.08,5.25,1.06,1.06,0,0,0-.77,1c-.57,5.52-1.7,11-2.41,16.45-.13,1.05-.57,1.19-1.53.66-.59-.33-1.3-.42-1.9-.74a12.16,12.16,0,0,1-4.26-4,1.36,1.36,0,0,0-1.54-.67,5.57,5.57,0,0,0-4.82,5.56,2.27,2.27,0,0,0,1.11,2,9.48,9.48,0,0,0,3.05,1.33,12.49,12.49,0,0,0,2.23.36c1.34.06,2.68,0,4.1,0a2.3,2.3,0,0,1,.58-3.07c.2-.18.42-.4.68-.19s.07.46,0,.7c-.53,1.15-.41,1.42.72,2a5.18,5.18,0,0,0,3.63.45c.72-.17,1.49-.23,1.7.79.09.43.45.31.71.36a126.22,126.22,0,0,0,13.2,1.53c11.59.92,23.2,1.38,34.78,2.41,7.23.64,14.41,1.63,21.57,2.81.94.15,1.89.24,2.83.35.64.08,1.22.31,1.16,1.06s-.64.92-1.3.89a76.57,76.57,0,0,1-8.09-1.1q-10.09-1.49-20.25-2.3c-11-.89-22-1.31-32.91-2.38a94.12,94.12,0,0,1-13.81-2.07,6.43,6.43,0,0,0-1.47-.09c-3.21,0-6.44.25-9.63-.34a11.64,11.64,0,0,1-3.78-1.35,5.35,5.35,0,0,1-1.77-7.93,7.31,7.31,0,0,1,6-3.2,34.22,34.22,0,0,1-2.07-4.58,17.55,17.55,0,0,1-.94-5.21A37.75,37.75,0,0,1,20.29,75.9a44.09,44.09,0,0,1,9.14-13.55,4.94,4.94,0,0,1,3.13-1.88c.52,0,.34-.47.37-.76.5-5.37.45-10.76.49-16.14q.09-14.38.17-28.77a14.19,14.19,0,0,1,.48-4.09c.09-.28.11-.63.44-.71s.41.27.51.54c.18.49.63.26.94.25,5.68-.2,11.36-.19,17-.17,12.87.06,25.75.17,38.61.65,9.15.34,18.3.88,27.45,1.29,6.2.28,12.41.36,18.61.3a14.88,14.88,0,0,0,1.94-.25c.34,0,.67-.11.8.33a.72.72,0,0,1-.37.84,4.29,4.29,0,0,1-2.14.65,118.53,118.53,0,0,1-12.41.06C111.14,14,96.78,13,82.4,12.67c-14.05-.3-28.11-.43-42.16-.65-1.41,0-2.83,0-4.23-.14-.86-.07-1.13.11-1.11,1,.1,4.17.11,8.34.16,12.51.11,9.16.17,18.33,0,27.49A127.08,127.08,0,0,1,33.65,68.6C33.62,68.85,33.59,69.11,33.54,69.52ZM31.2,73.38,31,73.28c-1.08,1.36-2.6,2.33-3.23,4.09-.2.56-.59,1.49-1.45,1.08s-.31-1.13-.06-1.72a3,3,0,0,1,.29-.52,14,14,0,0,1,3-3.5,6.45,6.45,0,0,0,2.59-5.19c.12-1.95.43-3.89.66-5.91a4.24,4.24,0,0,0-2.25,1.68c-5.85,7-10,14.64-10.73,23.93-.43,5.65.29,10.94,3.76,15.61a13.21,13.21,0,0,0,3.88,3.73c.51.3.73.25.8-.4.11-1,.32-2.07.49-3.11q.84-5.3,1.68-10.59c.06-.37.16-.7-.43-.72a.88.88,0,0,1-.91-.87c0-.54.37-.79.84-.95s.88-.29.94-.94c.25-2.48.52-5,.57-7.51-1,.33-1.22-.2-1.21-1a7.47,7.47,0,0,1,.08-1Q30.74,76.45,31.2,73.38Zm1.16,15.45a1.51,1.51,0,0,0,.35,0c4.76-1.9,9.87-7.49,8.42-15a7.8,7.8,0,0,0-.86-2.5A2.51,2.51,0,0,0,37.93,70a8,8,0,0,0-4.11,1.16c-.32.19-.6.37-.66.79a26.1,26.1,0,0,0-.53,4.88,71.55,71.55,0,0,1-.06,9.06C32.51,86.85,32.43,87.82,32.35,88.83Z" transform="translate(-0.02 -0.18)"/><path class="cls-3" d="M106.79,71.39c1.12,2.34,2.41,4.59,3.74,6.81a22.11,22.11,0,0,1,1.93,4.18,2.26,2.26,0,0,1-.85,2.79,14,14,0,0,1-2.6,1.58c-2.65,1.15-5.32,2.25-8,3.45-7.88,3.59-16,6.55-23.65,10.73-4,2.18-7.81,4.57-11.7,6.88-1.27.75-2.57,1.44-3.83,2.22-1.88,1.17-3.16.78-4.4-1-2.75-3.87-4.37-8.27-6.1-12.63q-1.83-4.6-3.55-9.24c-.5-1.35-.65-2.81-1.46-4a.45.45,0,0,1,.16-.68c.56-.18.86-1.12,1.59-.67.5.31.76.1,1.2-.09,2.61-1.16,5.13-2.48,7.77-3.57,3.91-1.62,7.73-3.44,11.52-5.33a21.7,21.7,0,0,0,3.53-1.59,19.79,19.79,0,0,0,3-1.26,5.54,5.54,0,0,0,1.78-.76,31.25,31.25,0,0,0,3.9-1.61A2.56,2.56,0,0,0,82,67a29,29,0,0,0,4.65-1.84l1-.58c.11.05.26.18.34.15,1.75-.68,3.57-1.2,5.27-2a1.85,1.85,0,0,0,1.24-.42,7.76,7.76,0,0,0,1.6-.43c.67-.16.83-.44.29-.95a2,2,0,0,1-.65-1.84v0c.3.07.49-.16.69-.29,1.16-.77,1.46-.84,2.2.35a2.25,2.25,0,0,0,3.23,1,7.86,7.86,0,0,1,1.81-.43,1,1,0,0,1,1.19.64c.19.51-.05.84-.43,1.18a5,5,0,0,1-2.39,1c-.32.07-.71.14-.38.62,1.35,2,2.47,4.16,3.93,6.09A5.15,5.15,0,0,0,106.79,71.39Zm-4.87-.23a.93.93,0,0,0-.08-.18c-1.54-2-5.63-3.29-8.05-2.48-.39.13-.34.31-.21.57l1,2.11a4.77,4.77,0,0,0,.66,1.62c.63,1.76,1.18,3.55,1.9,5.27a10.56,10.56,0,0,1,.5,4.26c0,.91-.89,1.29-1.59,1.54s-1-.45-1.26-1c-.13-.25-.16-.57-.5-.73a15.86,15.86,0,0,1-3.42,2.77,7.15,7.15,0,0,1-5.4.78c-.15,0-.3-.18-.45,0-1,.85-2.06.45-3.1.31a41.83,41.83,0,0,0-4.67-.71c-.92,0-1.07.26-.78,1.06a4.15,4.15,0,0,1,.31,2.88,1.86,1.86,0,0,1-1.67,1.29c-.74,0-.79-.73-.91-1.31a73.62,73.62,0,0,0-1.89-7.91c-.44-1.34.11-2.63.12-3.94,0-.29.32-.46.54-.67,1.06-1,2.39-.93,3.71-.93a2.65,2.65,0,0,1,2.53,1.7,6.31,6.31,0,0,1,0,5.06c-.18.51-.2.65.38.73,1,.14,2.06.38,3.1.57.23,0,.43.17.68-.14a2.56,2.56,0,0,0,.53-2.86c-.36-.83-.62-1.71-1-2.68a1.82,1.82,0,0,1-1,1.13c-.33.17-.52.67-1,.25a1,1,0,0,1-.15-1.35A6.11,6.11,0,0,1,82,76.79a1.27,1.27,0,0,0,.53-1,1.43,1.43,0,0,1,1.74-1.32.56.56,0,0,0,.52-.14l1.78-1.53L89,71.19a8.79,8.79,0,0,1,2.35-.67c-1.25-2.58-.41-3.7,2.53-4.19a16.25,16.25,0,0,1,6.51.23L98.74,64a.51.51,0,0,0-.68-.21,30.51,30.51,0,0,0-3.15,1.1,2.15,2.15,0,0,0-1.3.5,109.63,109.63,0,0,0-11.36,4.23,2.88,2.88,0,0,0-1.35.56,12.79,12.79,0,0,0-2.52,1,21,21,0,0,0-3.88,1.63c-.43.16-.86.3-1.28.49-3.87,1.71-7.76,3.37-11.58,5.22C58,80.21,54.26,81.55,50.5,82.94c-1.3.48-1.32.48-.8,1.81.38,1,.93,1.9,1.21,2.9.64,2.25,1.7,4.32,2.54,6.48,1,2.47,2,4.91,3.14,7.32a39.69,39.69,0,0,0,2.47,4.77c1.39,2.16,1.39,2.11,3.65.9,4-2.16,7.73-4.83,11.71-7.06,8.57-4.83,17.74-8.35,26.64-12.44,2.62-1.2,5.39-2,8-3.3.77-.38.93-.78.52-1.53-1.12-2-2.19-4.1-3.3-6.14-.14-.27-.2-.61-.58-.78-.22,3.81-2.68,6.07-5.5,8.08a2.33,2.33,0,0,1-.8.36,1.08,1.08,0,0,1-1.36-.5c-.25-.53,0-.91.52-1.22A11.41,11.41,0,0,0,102,79c1.29-2,1.07-4.1.71-6.25A2.4,2.4,0,0,0,101.92,71.16ZM88.2,83.64a3.72,3.72,0,0,0,1.42-.15,17.62,17.62,0,0,0,3.91-2.62.41.41,0,0,0,.12-.59c-1.05-2.14-1.7-4.46-2.9-6.54-.6-1-.92-1.15-1.92-.41S86.68,75,85.58,75.87a.81.81,0,0,0-.3,1.09,18.48,18.48,0,0,1,1,2.86c.14.73.45.65.93.26A17.86,17.86,0,0,1,88.86,79c.42-.27.89-.39,1.22.1s.09.87-.31,1.2c-.69.56-1.37,1.12-2,1.7-.38.32-.94.51-.7,1.23S87.83,83.53,88.2,83.64Zm-12.38-.09c1.88-.93,1.74-2.73,1.17-4.68a1.56,1.56,0,0,0-2-1c-.19.06-.28.13-.24.34A33.54,33.54,0,0,0,75.82,83.54Z" transform="translate(-0.02 -0.18)"/><path class="cls-2" d="M143.56,72.49c-1.4.17-1.74-.14-1.47-1.46.93-4.5,1.89-9,2.86-13.48,1.87-8.66,3.35-17.4,4.61-26.17a81.35,81.35,0,0,0,.63-10.61c0-.64-.25-.68-.76-.63-1.86.19-3.73.34-5.59.5-.33,0-.72.1-.78-.36a.67.67,0,0,1,.59-.79c.9-.16,1.81-.29,2.73-.4,1.27-.16,2.54-.29,3.81-.46s1.62.18,1.63,1.42,0,2.63,0,3.94c0,.7.24.84.84.75a16.93,16.93,0,0,0,3-.43c1.64-.53,2.15-.13,2.22,1.62a67.19,67.19,0,0,1-1.79,17.87c-1.78,7.74-3.62,15.46-6,23-.13.41-.3.74.38.91s.49.79.34,1.26a7.69,7.69,0,0,1-1.22,2.13c-1.59,2.21-3.3,4.35-4.74,6.66a16,16,0,0,1-3.66,4c-2.27,1.83-4.91,1.58-7.51.91a2.64,2.64,0,0,1-1.8-2.18c-.32-1.51-.59-3-.92-4.53a14.42,14.42,0,0,0-.62-2.07,1.78,1.78,0,0,0-2.49-1.2c-2.23.73-5.13,3.45-5.21,6.34-.22,7.49,0,14.91,3.26,21.89.36.78.66,1.33,1.59.44a1.34,1.34,0,0,1-1.11,1.51c-.75.23-1.14-.27-1.45-.87a32.15,32.15,0,0,1-3.42-11.74,95.69,95.69,0,0,1-.41-10.23c0-4.2,2.26-6.93,5.88-8.53,1.8-.8,4-.49,5,1.83a36.15,36.15,0,0,1,1.53,5.69c.43,2,.62,2.12,2.62,2.16h1.18c.16,0,.41,0,.48,0,1.22-1.71,3.37-2.21,4.75-3.71a1.67,1.67,0,0,0,.52-.91C143.17,75.24,143.36,73.91,143.56,72.49Zm1.26,2.36c1.53-1,1.43-2.57,1.86-3.84a286,286,0,0,0,8-29.29,69.56,69.56,0,0,0,1.53-15.33c0-.27.1-.7-.4-.55a10,10,0,0,1-3.42.12c-.57,0-.62.21-.65.68-.12,1.64-.23,3.27-.45,4.9q-1.95,14.78-5.16,29.34a2.92,2.92,0,0,0-.11,1.36A12.13,12.13,0,0,1,146,67Z" transform="translate(-0.02 -0.18)"/><path class="cls-2" d="M94.58,62.33a1.85,1.85,0,0,1-1.24.42c-.13-.29-.07-.66-.37-.93a13.27,13.27,0,0,1-2.89,1.33,5.6,5.6,0,0,0-2.36,1.47l-1,.58c-1.71.57-3.2.45-4.23-1.28a.74.74,0,0,0-.94-.39L82,67a2.56,2.56,0,0,1-1.23.52,7.56,7.56,0,0,0-.28-2.71c-.46-.9-1.64-.27-2.47-.5a1.15,1.15,0,0,0-.29,0c-.18,0-.33.06-.31.27.19,1.56-.44,3-.55,4.56a5.54,5.54,0,0,1-1.78.76,39.79,39.79,0,0,1,.53-6.66c0-.23.31-.5,0-.71s-.5,0-.74.11c-1.43.73-2.85,1.48-4.3,2.17a4.81,4.81,0,0,1-3.92.39c0,.27,0,.5,0,.72,0,.52-.06,1.07-.73,1.05s-.69-.53-.69-1c0-1.15,0-2.3.1-3.44.13-1.93.31-3.86.45-5.79a1.62,1.62,0,0,0-.09-.77c-1.29-2.79-1.08-5.74-.74-8.63.86-7.35,5.67-11.51,12-14.26.47-.2.51-.44.46-.8-.2-1.35.51-2.11,1.6-2.74a11.48,11.48,0,0,1,6.73-1.43,4.38,4.38,0,0,1,2.55,1.17,45.27,45.27,0,0,1,4.06,4.42,26.22,26.22,0,0,0,4.19,3.86A7.22,7.22,0,0,0,101,39c1.12,0,2.23,0,3.35,0,.55,0,1.14,0,1.23.7s-.48.76-1,.91a39.59,39.59,0,0,1-8.74,2.05.34.34,0,0,0,.09.47c2,2.11,2.33,4.72,2.32,7.49a14.48,14.48,0,0,1-2.5,8.51v0C95,60,93.69,60.75,94.58,62.33ZM85.41,60.5l0,0c-.09.32-.37.37-.63.51a22.8,22.8,0,0,0-2.37,1c1.7.11,3.38.05,5.06.13a4.39,4.39,0,0,0,3.28-1.49c.35-.33.3-.51-.14-.68a7.62,7.62,0,0,0-3.13-.65c.1-.06.13-.15,0-.2a.92.92,0,0,0-.34,0A16.6,16.6,0,0,0,83,59a12.11,12.11,0,0,0-3.6,1.28.62.62,0,0,0-.37.63c0,.28.2.32.4.29,1.47-.24,3,0,4.45-.5A2.27,2.27,0,0,1,85.41,60.5Zm7.16-.15c.08-.93,1-.74,1.42-1.22a11.61,11.61,0,0,0,2.61-4.68A23.75,23.75,0,0,0,97,49,7.16,7.16,0,0,0,95.2,44c-.47-.55-.93-1.11-1.43-1.63-2.62-2.7-5.56-4.77-9.45-5.19-1-.1-1.2.3-1.4,1-.06.23.18.7-.34.63a.52.52,0,0,1-.39-.69c.34-1.22-.42-1.17-1.2-1.06a8.77,8.77,0,0,0-2,.39,38.84,38.84,0,0,0-10.43,6,3.53,3.53,0,0,0-1.36,2.52c0,.16,0,.39-.17.38-.73,0-.67.53-.68.92-.06,2.63-.46,5.28.86,7.8.44.84.83,1.27,1.81,1.21a10.06,10.06,0,0,1,6.6,1.85,4.12,4.12,0,0,0,4,.47,15.59,15.59,0,0,1,11.05-.16C91.57,58.81,92.4,59.2,92.57,60.35Zm6.94-19.7A12.88,12.88,0,0,1,95,38.46a39,39,0,0,1-6-6.36c-.8-1-1.53-2.13-2.76-2.45a8.72,8.72,0,0,0-7.39,1.4c-.56.39-.43,1-.32,1.54s.6.25.93.28c.85.08,1.7.1,2.55.18a5,5,0,0,1,3,1.42c.24.22.63.45.46.93-.3-.26-.49-.76-.86-.57a1.05,1.05,0,0,0-.63,1c.1.44.64.28,1,.36s.45.07.68.11a16.8,16.8,0,0,1,8.44,4.77c.21.2.53.57.66.52C96.24,41.08,97.85,41.38,99.51,40.65ZM68.29,59.07l-.26.12c0,1.5,0,3,0,4.5,0,.61.31.52.69.41a25.15,25.15,0,0,0,4.75-2.18A16.9,16.9,0,0,1,68.29,59.07Zm.54-1.59a15.09,15.09,0,0,0,6.25,3.31.45.45,0,0,0,.62-.32c.11-.34.24-.64-.16-.95A8.88,8.88,0,0,0,68.83,57.48ZM70.1,40.33c.8.23,1.22-.27,1.72-.54.86-.46,1.71-1,2.57-1.43s1.68-.88,2.54-1.28a18.28,18.28,0,0,1,2.78-.93,23.73,23.73,0,0,1,2.79-.21c-1,0-2,0-3-.05a4.9,4.9,0,0,0-1.83-.09A19.68,19.68,0,0,0,70.1,40.33Zm1.9-3.1a1.88,1.88,0,0,0,1.27-.5,11.15,11.15,0,0,1,4.32-1.61c.2,0,.65.13.51-.33S78,33.9,77.42,34a6,6,0,0,0-1.29.46A18.92,18.92,0,0,0,72,37.23Zm11.61-3.09a9.15,9.15,0,0,0-3.74-.34c-.28,0-.82-.24-.8.33a.79.79,0,0,0,.87.75A6.89,6.89,0,0,0,83.61,34.14Zm-4,29.26L77.82,63a1.3,1.3,0,0,0-.29,0c-1.05,0-1.32.44-1,1.82C77.1,63.28,78.56,64.1,79.59,63.4Zm4.35.25c1,.85,1.65.37,2.33,0Z" transform="translate(-0.02 -0.18)"/><path class="cls-2" d="M26.16,116.13c.18-.35.44-.6.86-.46s.43.52.45.89a16.1,16.1,0,0,1-.76,4.84,140.42,140.42,0,0,1-14.15,33.13c-.26.45-.55.89-.85,1.33-.71,1.06-.95,1.14-2.17.73-.36,1.19-.75,2.37-1.08,3.56S7.7,161.73,7,161.5c-1-.34-.83-1.14-.64-1.89a66.61,66.61,0,0,1,2.72-7.8c4.54-11.44,9.36-22.76,14.59-33.9.31-.65.64-1.29,1-1.93.17-.33.41-.62.83-.58s.6.35.67.74l-.25,2.11A3.68,3.68,0,0,0,26.16,116.13ZM13.44,146.44l-.13.24.13-.25.1-.16s0,0,0-.07Zm.55-1.08c1.05-1.79,1.76-3.74,2.72-5.57a85,85,0,0,0,6.41-15.51,8.06,8.06,0,0,0,.63-2.93c-3.41,7.92-6.81,15.83-9.89,23.88a.5.5,0,0,0-.1.59Z" transform="translate(-0.02 -0.18)"/><path class="cls-2" d="M157.69,92.94a50.1,50.1,0,0,0-3.31-20.15c-.26-.64-.57-1.25-.87-1.87-.18-.35-.37-.71-.84-.74-.2,0-.42-.05-.39-.32a.56.56,0,0,1,.35-.44,1.3,1.3,0,0,1,1.64.51,15.11,15.11,0,0,1,2.21,4.26,47.18,47.18,0,0,1,3,16.27,51.33,51.33,0,0,1-.58,11.19,31.69,31.69,0,0,1-7.27,14.65,6.87,6.87,0,0,1-4.23,2.67,1.43,1.43,0,0,1-1.68-.7c-.25-.5-.23-.88.49-.94a4.86,4.86,0,0,0,3.23-1.71A29.39,29.39,0,0,0,157.35,99,50.17,50.17,0,0,0,157.69,92.94Z" transform="translate(-0.02 -0.18)"/><path class="cls-2" d="M136.67,66.41c.07-7.08.65-13.65,1.25-20.22.78-8.56,2.07-17.06,3.14-25.59.22-1.72.19-3.47.27-5.21a6.71,6.71,0,0,1,.08-.88c0-.25.1-.56.46-.53s.37.34.41.58a5.52,5.52,0,0,1,.07.88,97.39,97.39,0,0,1-.88,12.86c-.7,5.9-1.37,11.8-1.89,17.71-.38,4.38-.91,8.76-1,13.15-.1,5.32-.51,10.62-.37,15.95a7.19,7.19,0,0,1-.08,1.37.68.68,0,0,1-.73.65.67.67,0,0,1-.61-.67c-.06-.55-.1-1.11-.11-1.67C136.64,71.85,136.82,68.89,136.67,66.41Z" transform="translate(-0.02 -0.18)"/><path class="cls-2" d="M106.79,71.39a5.15,5.15,0,0,1-1.13-2.06c1-5.08,1.64-10.23,2.17-15.39.72-7.08,1.12-14.19,2.27-21.23a29.24,29.24,0,0,0,.15-3.44c0-.38,0-.89.5-.9s.48.52.5.89a88,88,0,0,1-.68,10.7c-.31,3.92-.61,7.85-.93,11.77a154.06,154.06,0,0,1-2.39,18C107.13,70.33,106.94,70.86,106.79,71.39Z" transform="translate(-0.02 -0.18)"/><path class="cls-2" d="M53.28,63.63c.27-6.48,1.05-12.34,1.67-18.21.59-5.61,1.28-11.21,2.23-16.78a3.16,3.16,0,0,1,.39-1.31.54.54,0,0,1,.84-.19c.27.2.53.54.25.82-.44.43-.35,1-.4,1.45-.77,7.08-1.48,14.16-2.25,21.24-.57,5.19-1,10.39-1.22,15.61,0,.39-.08.78-.13,1.17s-.18.73-.62.76-.59-.34-.66-.71A21.06,21.06,0,0,1,53.28,63.63Z" transform="translate(-0.02 -0.18)"/><path class="cls-2" d="M83.8,28a100.83,100.83,0,0,0-21.55,1.51,10,10,0,0,0-2.31.36c-.25.11-.38,0-.43-.26-.09-.38.16-.54.48-.61l4.24-.87c8.69-1.75,17.5-1.38,26.28-1.44,5.36,0,10.57,1,15.8,1.85.46.08,1,.2.93.78s-.67.54-1.13.46c-2.46-.39-4.91-.83-7.38-1.2A78,78,0,0,0,86.16,28Z" transform="translate(-0.02 -0.18)"/><path class="cls-2" d="M72.15,71.2a21.7,21.7,0,0,1-3.53,1.59c-4-.05-8.06,0-12.07-.44a6.3,6.3,0,0,1-2.39-.48c-.26-.14-.59-.31-.54-.63s.46-.31.74-.31c.72,0,1.44,0,2.16,0C61.73,71.29,66.94,71.14,72.15,71.2Z" transform="translate(-0.02 -0.18)"/><path class="cls-3" d="M26.16,116.13a3.68,3.68,0,0,1-.26,2.11l.25-2.11,0-.09Z" transform="translate(-0.02 -0.18)"/><path class="cls-1" d="M111.81,167c.8-1.38,1.63-2.74,2.39-4.13a88.61,88.61,0,0,0,9-25.95,13.08,13.08,0,0,1,1.95-4.13,22.73,22.73,0,0,1-.65,6.9,72.89,72.89,0,0,1-7.18,18.77A48.07,48.07,0,0,1,111.81,167Z" transform="translate(-0.02 -0.18)"/><path class="cls-1" d="M126.46,116.42c.95.51,1.8,1,2.67,1.42.36.18.31.41.22.72a39.67,39.67,0,0,1-1.8,5.08c-.11.24-.12.63-.56.54s-.39-.48-.36-.79a7.27,7.27,0,0,1,.24-1.25c.18-.64.16-1.19-.57-1.45-.48-.17-.28-.54-.25-.82C126.16,118.77,126.31,117.67,126.46,116.42Z" transform="translate(-0.02 -0.18)"/><path class="cls-1" d="M109.49,164.24c1.42,1.16.2,2-.38,2.9-.24.37-.38,1.13-.94.88-.31-.14.23-.7.34-1.08C108.79,166,109.17,165.12,109.49,164.24Z" transform="translate(-0.02 -0.18)"/><path class="cls-1" d="M124.64,129.55a5.08,5.08,0,0,1,.42-1.66C125.29,128.66,125.29,128.67,124.64,129.55Z" transform="translate(-0.02 -0.18)"/><path class="cls-1" d="M31.2,73.38q-.45,3.06-.9,6.13a7.47,7.47,0,0,0-.08,1c0,.79.23,1.31,1.21,1-.05,2.56-.32,5-.57,7.51-.07.66-.48.79-.94.94s-.87.4-.84.95a.88.88,0,0,0,.91.87c.59,0,.49.35.43.72q-.85,5.3-1.68,10.59c-.16,1-.37,2.07-.49,3.11-.07.65-.29.69-.8.4a13.21,13.21,0,0,1-3.88-3.73c-3.47-4.68-4.19-10-3.76-15.61.71-9.29,4.88-17,10.73-23.93a4.24,4.24,0,0,1,2.25-1.68c-.24,2-.54,4-.66,5.91a6.45,6.45,0,0,1-2.59,5.19,14,14,0,0,0-3,3.5,3,3,0,0,0-.29.52c-.24.59-.76,1.33.06,1.72s1.25-.52,1.45-1.08c.63-1.76,2.15-2.74,3.23-4.09Z" transform="translate(-0.02 -0.18)"/><path class="cls-1" d="M32.35,88.83c.07-1,.16-2,.22-3a71.55,71.55,0,0,0,.06-9.06,26.1,26.1,0,0,1,.53-4.88c.05-.42.34-.61.66-.79A8,8,0,0,1,37.93,70a2.51,2.51,0,0,1,2.33,1.36,7.8,7.8,0,0,1,.86,2.5c1.45,7.48-3.66,13.06-8.42,15A1.51,1.51,0,0,1,32.35,88.83Z" transform="translate(-0.02 -0.18)"/><path class="cls-1" d="M102.69,72.77c.36,2.15.59,4.25-.7,6.25a11.41,11.41,0,0,1-3.44,3.57c-.48.3-.77.68-.52,1.22a1.08,1.08,0,0,0,1.36.5,2.33,2.33,0,0,0,.8-.36c2.82-2,5.28-4.27,5.5-8.08.38.17.43.52.58.78,1.11,2,2.18,4.11,3.3,6.14.41.75.25,1.15-.52,1.53-2.6,1.27-5.37,2.1-8,3.3C92.15,91.71,83,95.24,74.41,100.07c-4,2.24-7.68,4.91-11.71,7.06-2.26,1.21-2.26,1.26-3.65-.9a39.69,39.69,0,0,1-2.47-4.77c-1.12-2.41-2.18-4.85-3.14-7.32-.83-2.16-1.9-4.23-2.54-6.48-.28-1-.83-1.92-1.21-2.9-.52-1.33-.5-1.33.8-1.81,3.76-1.39,7.54-2.73,11.15-4.47,3.82-1.84,7.71-3.51,11.58-5.22.42-.18.85-.33,1.28-.49l12.12,0-1.78,1.53a.56.56,0,0,1-.52.14,1.43,1.43,0,0,0-1.74,1.32,1.27,1.27,0,0,1-.53,1,6.11,6.11,0,0,0-1.13,1.36,1,1,0,0,0,.15,1.35c.44.42.63-.08,1-.25a1.82,1.82,0,0,0,1-1.13c.35,1,.61,1.85,1,2.68a2.56,2.56,0,0,1-.53,2.86c-.25.3-.45.18-.68.14-1-.19-2.06-.43-3.1-.57-.58-.08-.56-.22-.38-.73a6.31,6.31,0,0,0,0-5.06,2.65,2.65,0,0,0-2.53-1.7c-1.31,0-2.64-.1-3.71.93-.21.21-.54.38-.54.67,0,1.32-.56,2.61-.12,3.94a73.62,73.62,0,0,1,1.89,7.91c.12.58.17,1.34.91,1.31a1.86,1.86,0,0,0,1.67-1.29,4.15,4.15,0,0,0-.31-2.88c-.29-.79-.14-1.08.78-1.06a41.83,41.83,0,0,1,4.67.71c1,.14,2.14.55,3.1-.31.15-.14.3,0,.45,0a7.15,7.15,0,0,0,5.4-.78,15.86,15.86,0,0,0,3.42-2.77c.34.16.37.48.5.73.28.53.55,1.23,1.26,1s1.59-.63,1.59-1.54a10.56,10.56,0,0,0-.5-4.26c-.72-1.72-1.27-3.51-1.9-5.27ZM58,92c.92,1.53,1.35,3.24,2.15,4.78a3.15,3.15,0,0,0,.78,1.12c.71.56,1.17.06,1.72-.32s.72-.66.47-1.14c-.9-1.71-1.49-3.54-2.28-5.3-.36-.8-.35-1.16.42-1.63,2.69-1.63,2.08-2.05,3.4,1.34.62,1.6,1.47,3.07,2.16,4.62a.82.82,0,0,0,1.12.53c1.2-.5,1.34-1.08.9-2.34-.55-1.55-1.41-3-2-4.48a11.92,11.92,0,0,1-1-2.51c-.1-.89,1.23-1.16,1.83-1.82.45-.49.69-.3.83.26C69,87.29,70,89.3,70.56,91.47a16,16,0,0,0,1.06,2.75A1.1,1.1,0,0,0,73,95c1.31-.38,1.79-2.91.7-3.81a1.54,1.54,0,0,1-.56-.87c-.67-2.65-1.92-5.09-2.79-7.66-.31-.92-.74-1-1.55-.48-1,.66-2,1.3-2.91,2-.7.55-1.09.61-1.43-.35s-.93-2.1-1.38-3.16a5.14,5.14,0,0,0-.64-1.52c-.34-.39-.8-.64-1.18-.23s-1.5.57-.94,1.53A31.11,31.11,0,0,1,61.76,84c.34.77,1.06,1.6.84,2.34s-1.35.91-2,1.46l-.16.11c-.38.33-.57.24-.74-.24-.46-1.26-1-2.5-1.47-3.75-.15-.38-.35-1.06-.77-.75s-1.35.41-1.15,1.24c.36,1.5.24,3.08.87,4.52a1.15,1.15,0,0,1-.34,1.62,1,1,0,0,0-.25,1.55C57.06,92.68,57.54,92.34,58,92Z" transform="translate(-0.02 -0.18)"/><path class="cls-1" d="M88.2,83.64c-.37-.1-.94.26-1.18-.46s.33-.91.7-1.23c.68-.57,1.36-1.14,2-1.7.4-.33.62-.73.31-1.2s-.8-.37-1.22-.1a17.86,17.86,0,0,0-1.61,1.12c-.48.39-.79.47-.93-.26a18.48,18.48,0,0,0-1-2.86.81.81,0,0,1,.3-1.09c1.1-.83,2.15-1.72,3.26-2.55s1.31-.64,1.92.41c1.2,2.08,1.85,4.4,2.9,6.54a.41.41,0,0,1-.12.59,17.62,17.62,0,0,1-3.91,2.62A3.72,3.72,0,0,1,88.2,83.64Z" transform="translate(-0.02 -0.18)"/><path class="cls-1" d="M82.25,69.59a109.51,109.51,0,0,1,11.36-4.23c0,.47.26.79.75.69.68-.13.54-.71.56-1.19a30.51,30.51,0,0,1,3.15-1.1.51.51,0,0,1,.68.21l1.67,2.59a16.25,16.25,0,0,0-6.51-.23c-2.94.49-3.78,1.61-2.53,4.19a8.78,8.78,0,0,0-2.35.67l-5.17,0C82.28,71.17,82.28,71.17,82.25,69.59Z" transform="translate(-0.02 -0.18)"/><path class="cls-2" d="M82.25,69.59c0,1.58,0,1.58,1.6,1.58l5.17,0-2.4,1.61-12.12,0a21,21,0,0,1,3.88-1.63,14.08,14.08,0,0,1,1.56,0c.85.11,1.12-.24,1-1A2.88,2.88,0,0,1,82.25,69.59Z" transform="translate(-0.02 -0.18)"/><path class="cls-1" d="M94.6,71.19l-1-2.11c-.13-.27-.18-.45.21-.57,2.42-.8,6.51.44,8.05,2.48a.93.93,0,0,1,.08.18Z" transform="translate(-0.02 -0.18)"/><path class="cls-1" d="M76.92,69.18c.11-1.53.74-3,.55-4.56,0-.21.12-.28.31-.27a1.15,1.15,0,0,1,.29,0c.83.23,2-.4,2.47.5a7.56,7.56,0,0,1,.28,2.71A31.27,31.27,0,0,1,76.92,69.18Z" transform="translate(-0.02 -0.18)"/><path class="cls-2" d="M94.6,71.19l7.32,0a2.4,2.4,0,0,1,.76,1.61l-7.43,0A4.77,4.77,0,0,1,94.6,71.19Z" transform="translate(-0.02 -0.18)"/><path class="cls-1" d="M75.82,83.54A33.54,33.54,0,0,1,74.7,78.2c0-.2.05-.28.24-.34a1.56,1.56,0,0,1,2,1C77.56,80.81,77.7,82.62,75.82,83.54Z" transform="translate(-0.02 -0.18)"/><path class="cls-1" d="M82,67l-.52-3.51a.74.74,0,0,1,.94.39c1,1.73,2.52,1.85,4.23,1.28A29,29,0,0,1,82,67Z" transform="translate(-0.02 -0.18)"/><path class="cls-1" d="M87.73,64.63a5.6,5.6,0,0,1,2.36-1.47A13.27,13.27,0,0,0,93,61.83c.3.27.24.63.37.93-1.7.82-3.52,1.34-5.27,2C88,64.81,87.85,64.68,87.73,64.63Z" transform="translate(-0.02 -0.18)"/><path class="cls-1" d="M94.58,62.33c-.89-1.58.42-2.31,1.25-3.22A2,2,0,0,0,96.48,61c.53.51.37.79-.29.95A7.76,7.76,0,0,1,94.58,62.33Z" transform="translate(-0.02 -0.18)"/><path class="cls-1" d="M80.9,70.16c.16.79-.11,1.14-1,1a14.08,14.08,0,0,0-1.56,0A12.81,12.81,0,0,1,80.9,70.16Z" transform="translate(-0.02 -0.18)"/><path class="cls-2" d="M94.91,64.86c0,.48.12,1.06-.56,1.19-.48.09-.71-.23-.75-.69A2.14,2.14,0,0,1,94.91,64.86Z" transform="translate(-0.02 -0.18)"/><path class="cls-1" d="M144.82,74.85,146,67a12.13,12.13,0,0,0,.08-4.79,2.92,2.92,0,0,1,.11-1.36q3.2-14.56,5.16-29.34c.21-1.62.33-3.26.45-4.9,0-.47.08-.71.65-.68a10,10,0,0,0,3.42-.12c.5-.15.4.28.4.55a69.56,69.56,0,0,1-1.53,15.33,286,286,0,0,1-8,29.29C146.25,72.28,146.35,73.86,144.82,74.85Z" transform="translate(-0.02 -0.18)"/><path class="cls-1" d="M92.57,60.35c-.17-1.15-1-1.54-1.9-1.82a15.59,15.59,0,0,0-11.05.16,4.12,4.12,0,0,1-4-.47A10.06,10.06,0,0,0,69,56.37c-1,.06-1.37-.36-1.81-1.21-1.32-2.52-.92-5.17-.86-7.8,0-.39-.06-1,.68-.92.2,0,.16-.22.17-.38a3.53,3.53,0,0,1,1.36-2.52A38.84,38.84,0,0,1,79,37.5a8.77,8.77,0,0,1,2-.39c.78-.11,1.54-.16,1.2,1.06a.52.52,0,0,0,.39.69c.53.07.28-.4.34-.63.2-.73.45-1.13,1.4-1,3.89.42,6.84,2.5,9.45,5.19.5.52,1,1.08,1.43,1.63A7.16,7.16,0,0,1,97,49a23.75,23.75,0,0,1-.44,5.48A11.61,11.61,0,0,1,94,59.13C93.59,59.61,92.65,59.42,92.57,60.35Zm-12-10.55h0c-.49,0-1,0-1.48,0a9.55,9.55,0,0,0-4.14.65,2,2,0,0,0-1.37,1.73A3.46,3.46,0,0,0,76.81,56a11.88,11.88,0,0,0,7.57-1c1.18-.64,2.38-1.25,3.61-1.79,1.68-.74,1.34-1.93.79-3-.17-.33-.43-.82-.87-.57s.12.54.15.84c0,.53.62,1.13-.17,1.56-3.22,1.71-6.4,3.51-10.29,2.94A4.34,4.34,0,0,1,75,53.89a2.11,2.11,0,0,1-.39-2.12c.12-.57.68-.8,1.29-.88a42.28,42.28,0,0,1,7.73-.05,12.67,12.67,0,0,1,1.44.31c.37.06.88.59,1.1,0s-.44-.77-.88-.94a5.55,5.55,0,0,0-2-.4ZM88.05,47c-.07.72.21,1.19,1.09,1.17.67,0,2.29-1.33,2.09-1.92-.27-.82-1.23-.67-1.92-.73C88.38,45.4,88.07,45.81,88.05,47ZM74,45.07c0-.31,0-.65-.42-.77a.77.77,0,0,0-1,.37c-.09.17-.1.37-.32.46-.42.17-.81.42-.61.95s.73.48,1.19.44C73.71,46.45,74,45.86,74,45.07Z" transform="translate(-0.02 -0.18)"/><path class="cls-1" d="M99.51,40.65c-1.66.73-3.28.43-4.73,1-.14.05-.46-.32-.66-.52a16.8,16.8,0,0,0-8.44-4.77c-.22,0-.45-.06-.68-.11s-.89.08-1-.36a1.05,1.05,0,0,1,.63-1c.37-.18.56.32.86.57.17-.48-.22-.71-.46-.93a5,5,0,0,0-3-1.42c-.85-.08-1.7-.1-2.55-.18-.32,0-.82.23-.93-.28s-.24-1.15.32-1.54a8.72,8.72,0,0,1,7.39-1.4c1.23.32,2,1.5,2.76,2.45a39,39,0,0,0,6,6.36A12.88,12.88,0,0,0,99.51,40.65Z" transform="translate(-0.02 -0.18)"/><path class="cls-1" d="M85.41,60.5a2.27,2.27,0,0,0-1.5.22c-1.45.53-3,.26-4.45.5-.2,0-.41,0-.4-.29a.62.62,0,0,1,.37-.63A12.11,12.11,0,0,1,83,59a16.63,16.63,0,0,1,4.12,0c-.09.21-.09.21.32.2a7.62,7.62,0,0,1,3.13.65c.44.17.49.35.14.68a4.39,4.39,0,0,1-3.28,1.49c-1.68-.08-3.36,0-5.06-.13a22.8,22.8,0,0,1,2.37-1c.26-.14.54-.19.63-.51a1.07,1.07,0,0,0,1.14-.71C86.22,60.1,85.53,59.85,85.41,60.5Z" transform="translate(-0.02 -0.18)"/><path class="cls-1" d="M68.29,59.07a16.9,16.9,0,0,0,5.17,2.85,25.15,25.15,0,0,1-4.75,2.18c-.38.11-.7.19-.69-.41,0-1.5,0-3,0-4.5Z" transform="translate(-0.02 -0.18)"/><path class="cls-1" d="M68.83,57.48a8.88,8.88,0,0,1,6.71,2c.4.31.26.61.16.95a.45.45,0,0,1-.62.32A15.09,15.09,0,0,1,68.83,57.48Z" transform="translate(-0.02 -0.18)"/><path class="cls-1" d="M70.1,40.33a19.68,19.68,0,0,1,7.54-4.54,4.9,4.9,0,0,1,1.83.09c1,.1,2,0,3,.05a23.73,23.73,0,0,0-2.79.21,18.28,18.28,0,0,0-2.78.93c-.86.4-1.7.83-2.54,1.28s-1.71,1-2.57,1.43C71.32,40.06,70.9,40.56,70.1,40.33Z" transform="translate(-0.02 -0.18)"/><path class="cls-1" d="M72,37.23a18.92,18.92,0,0,1,4.13-2.74A6,6,0,0,1,77.42,34c.58-.12.59.44.69.76s-.31.3-.51.33a11.15,11.15,0,0,0-4.32,1.61A1.88,1.88,0,0,1,72,37.23Z" transform="translate(-0.02 -0.18)"/><path class="cls-1" d="M83.61,34.14a6.89,6.89,0,0,1-3.67.73.79.79,0,0,1-.87-.75c0-.57.52-.32.8-.33A9.15,9.15,0,0,1,83.61,34.14Z" transform="translate(-0.02 -0.18)"/><path class="cls-1" d="M79.59,63.4c-1,.7-2.49-.11-3.06,1.43-.32-1.38-.05-1.79,1-1.82a1.3,1.3,0,0,1,.29,0Z" transform="translate(-0.02 -0.18)"/><path class="cls-1" d="M83.93,63.64h2.33C85.59,64,84.91,64.49,83.93,63.64Z" transform="translate(-0.02 -0.18)"/><path class="cls-3" d="M87.47,59.26c-.41,0-.41,0-.32-.2a.94.94,0,0,1,.34,0C87.6,59.11,87.56,59.2,87.47,59.26Z" transform="translate(-0.02 -0.18)"/><path class="cls-1" d="M13.87,145.24c3.08-8.05,6.48-16,9.89-23.89a8.06,8.06,0,0,1-.63,2.93,85,85,0,0,1-6.41,15.51c-1,1.84-1.67,3.79-2.72,5.57Q14.07,145.16,13.87,145.24Z" transform="translate(-0.02 -0.18)"/><path class="cls-3" d="M14,145.36l-.23.46a.5.5,0,0,1,.1-.59C14,145.19,14,145.23,14,145.36Z" transform="translate(-0.02 -0.18)"/><path class="cls-3" d="M13.44,146.44l-.13.25.13-.24Z" transform="translate(-0.02 -0.18)"/><path class="cls-3" d="M13.44,146.44l.08-.22s0,.05,0,.07l-.1.16Z" transform="translate(-0.02 -0.18)"/><path class="cls-3" d="M58,92c-.46.35-.94.7-1.43.09a1,1,0,0,1,.25-1.55,1.15,1.15,0,0,0,.34-1.62c-.63-1.44-.51-3-.87-4.52-.2-.83.73-.93,1.15-1.24s.62.37.77.75c.5,1.25,1,2.49,1.47,3.75.17.48.36.57.74.24l.16-.11c.65-.54,1.78-.71,2-1.46s-.51-1.57-.84-2.34a31.11,31.11,0,0,0-1.47-3.54c-.56-1,.54-1.1.94-1.53s.84-.16,1.18.23a5.14,5.14,0,0,1,.64,1.52c.45,1.06,1,2.08,1.38,3.16s.73.9,1.43.35c.93-.73,1.93-1.36,2.91-2,.81-.55,1.23-.44,1.55.48.88,2.57,2.13,5,2.79,7.66a1.54,1.54,0,0,0,.56.87c1.08.9.6,3.43-.7,3.81a1.1,1.1,0,0,1-1.35-.73,16,16,0,0,1-1.06-2.75C70,89.3,69,87.29,68.49,85.13c-.14-.56-.38-.76-.83-.26-.6.66-1.93.93-1.83,1.82a11.92,11.92,0,0,0,1,2.51c.59,1.53,1.45,2.93,2,4.48.45,1.26.3,1.84-.9,2.34a.82.82,0,0,1-1.12-.53c-.69-1.56-1.54-3-2.16-4.62-1.32-3.4-.71-3-3.4-1.34-.77.47-.78.82-.42,1.63.78,1.75,1.37,3.59,2.28,5.3.25.47,0,.83-.47,1.14s-1,.88-1.72.32a3.15,3.15,0,0,1-.78-1.12C59.35,95.22,58.92,93.51,58,92Z" transform="translate(-0.02 -0.18)"/><path class="cls-2" d="M80.55,49.8H83.3a5.55,5.55,0,0,1,2,.4c.44.17,1.11.31.88.94s-.73.06-1.1,0a12.67,12.67,0,0,0-1.44-.31,42.28,42.28,0,0,0-7.73.05c-.61.09-1.17.31-1.29.88A2.11,2.11,0,0,0,75,53.89,4.34,4.34,0,0,0,77.58,55c3.88.56,7.07-1.23,10.29-2.94.79-.42.22-1,.17-1.56,0-.3-.54-.62-.15-.84s.7.24.87.57c.55,1,.89,2.24-.79,3-1.23.54-2.42,1.16-3.61,1.79a11.88,11.88,0,0,1-7.57,1,3.46,3.46,0,0,1-3.25-3.82,2,2,0,0,1,1.37-1.73,9.55,9.55,0,0,1,4.14-.65c.49,0,1,0,1.48,0Z" transform="translate(-0.02 -0.18)"/><path class="cls-2" d="M88.05,47c0-1.17.32-1.59,1.26-1.49.69.07,1.65-.08,1.92.73.2.59-1.42,1.91-2.09,1.92C88.26,48.17,88,47.7,88.05,47Z" transform="translate(-0.02 -0.18)"/><path class="cls-2" d="M74,45.07c0,.79-.31,1.38-1.18,1.45-.45,0-1,.1-1.19-.44s.2-.78.61-.95c.22-.09.24-.29.32-.46a.77.77,0,0,1,1-.37C74,44.42,74,44.76,74,45.07Z" transform="translate(-0.02 -0.18)"/><path class="cls-3" d="M85.41,60.5c.12-.65.81-.4,1.13-.73a1.07,1.07,0,0,1-1.14.71Z" transform="translate(-0.02 -0.18)"/></g></g></g></svg>