<svg xmlns="http://www.w3.org/2000/svg" viewBox="0 0 92.1 94.73"><defs><style>.cls-1,.cls-11,.cls-5{fill:#fff;}.cls-1,.cls-11{stroke:#000;}.cls-1,.cls-11,.cls-12{stroke-miterlimit:10;}.cls-1{stroke-width:1.03px;}.cls-2{fill:#d3b981;}.cls-3{fill:#ead7a7;}.cls-4{fill:#fff5d7;}.cls-6{fill:#40adff;}.cls-7{fill:#8956db;}.cls-8{fill:#f7931e;}.cls-9{fill:#1b52ed;}.cls-10{fill:#009245;}.cls-11{stroke-width:0.14px;}.cls-12{fill:#fff8bb;stroke:#c1272d;stroke-width:1.59px;}.cls-13{fill:#c1272d;}</style></defs><title>hired</title><g id="Layer_2" data-name="Layer 2"><g id="Layer_5" data-name="Layer 5"><path d="M.21,88.18c-.93,1,1.46,1.64,2.33,1.64,2,0,12-13.09,15.07-27.47.42-2-.7-2.39-2.41-1.46C13.13,62,14.59,73.29.21,88.18Z"/><path class="cls-1" d="M91.58,50.29c0,9.13-7.47,14-12.75,14s.78-8.18.78-17.31.52-8.06,3.88-8.18C88.31,38.58,91.58,41.16,91.58,50.29Z"/><path class="cls-2" d="M73.84,66.83,22.52,60.11s4.44-16.74,5-25.49c.4-6.28-1-27.21-1-27.21L90.21,8.78s-.69,17.57-4.31,31C83.74,47.82,73.84,66.83,73.84,66.83Z"/><path class="cls-1" d="M21.64,56.72c1.18-3.51.14-11.07,1.24-17.48,1.55-9,.85-8-2.43-8.72-4.72-1-9.12,4-10.67,13-.85,4.92.39,8.71,2.52,11.29-2.39-.13-4.13.34-4.45,2.2-.57,3.31,3.54,3.34,8,4.17s7.3,1.18,7.92-1.64C24,58.24,23.17,57.38,21.64,56.72Z"/><path class="cls-3" d="M74,67.34l-54.25-8.1s3.41-18.81,4-27.56c.4-6.28-1-27.21-1-27.21L86.42,5.86s-1.38,24.29-5,37.72C79.26,51.61,74,67.34,74,67.34Z"/><path class="cls-4" d="M74,67.34,14.94,60.11S19.21,36,19.76,27.21c.4-6.28-1-27.21-1-27.21L80.22,2.24s-.11,29.28-1,37.2C78.22,47.71,74,67.34,74,67.34Z"/><path d="M58.86,92.58c-.93,1,.69,2.15,1.55,2.15,2,0,14.3-13.61,17.4-28,.42-2-.7-2.39-2.41-1.46C73.33,66.4,73.24,77.68,58.86,92.58Z"/><path class="cls-1" d="M78.92,61.4c.47-2.41-.44-6.65-.94-9.3-.71-3.71-2.07-6.37-4.74-5.86s-3.47,6.36-2.76,10.08a9.66,9.66,0,0,0,1.87,4c-1.77.09-3.09.59-3.24,1.47-.53,3.08,2.56,3.57,6.58,4.58s7.13,1.84,8-.93C84.26,63.38,81.95,62.49,78.92,61.4Z"/><path class="cls-5" d="M77.37,57.78c0,2.38.31,6.11,2.07,6.11s5.17-1.32,5.17-3.7-2.12-11.45-2.5-9.73C81.42,53.57,77.37,55.41,77.37,57.78Z"/><path class="cls-1" d="M13.56,50.46c0,1.81,1.1,2.41,2.93,2.41s5.22-6,6.29-7.49c.95-1.29,1.38-4.65-1.38-4.31C19.58,41.31,13.56,48.66,13.56,50.46Z"/><path class="cls-5" d="M16,50.38c3.1-.52,2.93.95-.78,3.44-1.06.72-3.1-1-3.1-3.62s3.68-5.05,3.44-3.79c-.11.57,4.7-4.3,4.13-2.93C18.88,45.43,14.61,50.61,16,50.38Z"/><path class="cls-6" d="M60.67,40.62l-28.85-1.7a1,1,0,0,1-.9-1.1c.43-2.95,1.62-11.36,1.81-14.65.17-2.95-.22-10-.41-13.22a1.49,1.49,0,0,1,1.54-1.58l30,1.06A1.21,1.21,0,0,1,65,10.68c-.09,2.93-.32,10.42-.48,13.26-.19,3.28-1.21,11.26-1.69,14.91A2,2,0,0,1,60.67,40.62Z"/><path class="cls-7" d="M56.46,32.05c.05-.46.1-1,.13-1.57a22.74,22.74,0,0,0,0-2.57,8.29,8.29,0,0,0,.68-2.85,9.15,9.15,0,0,0-8.15-9.31,1.92,1.92,0,0,0,.12-.55,10.42,10.42,0,0,0,4.23,1.24c3,0,4.8-2.63,3.53-1.83-2.83,1.8-2.89-3-7.66-3.8-1.75-.31-2.39.56-2.32,2.11a2.74,2.74,0,0,0,1.45,1.83,2.26,2.26,0,0,0,0,.33,2,2,0,0,0,.05.6l-.24,0c-5.26-.3-9.76,3.42-10,8.31a8.29,8.29,0,0,0,.35,2.89c-.1.52-.21,1.15-.3,1.84s-.13,1.13-.17,1.61H38c-.75,0-1.07.67-1.11,1.36s.7,1.17,1.45,1.21a1.1,1.1,0,0,0,1.26-1.06s0-.06,0-.09a.36.36,0,0,0,.23-.13.54.54,0,0,0-.19-.71.72.72,0,0,0-.39-.16,1.56,1.56,0,0,0-.61-.32c.09-.48.18-1,.26-1.62q.05-.41.09-.8a9.41,9.41,0,0,0,5.4,4.82,17.84,17.84,0,0,1-.72,3.94c-.66.09-1.54.52-1.55.78s.48.32,1.14.36,1.29-.08,1.46-.32A1.18,1.18,0,0,0,45,37a13.47,13.47,0,0,0,.29-3.94,10.27,10.27,0,0,0,4,.22,13.65,13.65,0,0,0-.49,3.89,1.47,1.47,0,0,0,.09.47s0,0,0,.07c0,.31.79.55,1.44.59s1.15.08,1.17-.23-.73-.73-1.35-.93c0-1.11-.23-3.12.1-4.05A9.4,9.4,0,0,0,56.07,29c0,.45-.09,1-.12,1.5s0,1.14-.05,1.62a1.63,1.63,0,0,0-.74.26.72.72,0,0,0-.41.11.54.54,0,0,0-.27.69.36.36,0,0,0,.22.15s0,.06,0,.09a1.1,1.1,0,0,0,1.13,1.19c.75,0,1.53-.35,1.57-1S57.18,32.11,56.46,32.05Z"/><path d="M44.6,36.68c-.27,1-.82.63-1.29.5s1-3.62.67-4.91c-.12-.52.26-.05.72.07S44.88,35.64,44.6,36.68Z"/><path d="M48.42,36.85c.07,1.05.68.78,1.16.75s-.23-3.74.33-4.95c.22-.48-.24-.1-.72-.07S48.35,35.77,48.42,36.85Z"/><ellipse cx="38.2" cy="28.4" rx="3.26" ry="0.32" transform="translate(5.1 62.62) rotate(-82.58)"/><ellipse class="cls-8" cx="47.37" cy="24.19" rx="8.87" ry="9.55" transform="translate(20.52 70.1) rotate(-86.73)"/><ellipse cx="42.51" cy="21.64" rx="0.57" ry="0.58" transform="translate(18.49 62.85) rotate(-86.73)"/><ellipse cx="51.17" cy="22.37" rx="0.56" ry="0.57" transform="translate(25.91 72.18) rotate(-86.73)"/><path class="cls-5" d="M49.79,24.27c0,.72-.77,1.86-2.95,1.63-1.93-.2-2.64-1.25-2.54-2.12s1.29-.62,2.74-.52S49.76,23.54,49.79,24.27Z"/><path class="cls-9" d="M51.25,26.91c-.85-.81-3.53.41-4.61,1.31a1.08,1.08,0,0,0-1.24-.14C44.48,27,42.1,25.37,41.13,26c-.66.44-.9,3.53-.07,4.31s3.3.29,4.27-.51a1.08,1.08,0,0,0,1.09.07c.79,1,3.17,1.91,4.14,1.28S51.83,27.46,51.25,26.91Z"/><path class="cls-10" d="M56.64,14.28c1.26-.8-.53,1.79-3.53,1.83-1.92,0-6.36-1.71-6.44-3.52-.07-1.54.57-2.42,2.32-2.11C53.74,11.33,53.8,16.08,56.64,14.28Z"/><ellipse class="cls-10" cx="48.47" cy="14.77" rx="0.99" ry="0.41" transform="translate(30.96 62.33) rotate(-86.73)"/><ellipse cx="55.87" cy="30.13" rx="3.26" ry="0.32" transform="translate(22.61 84.2) rotate(-86.73)"/><path class="cls-11" d="M39.22,31.48A1.1,1.1,0,0,1,38,32.54c-.75,0-1.48-.52-1.45-1.21s.37-1.4,1.11-1.36S39.37,30.3,39.22,31.48Z"/><ellipse class="cls-11" cx="38.99" cy="30.89" rx="0.44" ry="0.6" transform="translate(-9.45 42.19) rotate(-51.52)"/><path class="cls-11" d="M54.29,33a1.1,1.1,0,0,0,1.13,1.19c.75,0,1.53-.35,1.57-1s-.21-1.43-1-1.48S54.28,31.85,54.29,33Z"/><ellipse class="cls-11" cx="54.59" cy="32.48" rx="0.6" ry="0.44" transform="translate(-8.92 33.79) rotate(-31.94)"/><path d="M41.74,37.19c0,.31.48.32,1.14.36s1.48-.11,1.5-.42-.13-.7-.78-.74S41.76,36.88,41.74,37.19Z"/><path d="M51.11,37.75c0,.31-.52.26-1.17.23s-1.46-.28-1.44-.59.21-.68.86-.64S51.13,37.44,51.11,37.75Z"/><rect class="cls-3" x="25.75" y="43.65" width="42.66" height="0.89" transform="translate(3.24 -3.22) rotate(4.06)"/><rect class="cls-3" x="25.1" y="46.75" width="42.66" height="0.89" transform="translate(3.46 -3.17) rotate(4.06)"/><rect class="cls-3" x="24.71" y="49.72" width="42.66" height="0.89" transform="translate(4.39 -3.7) rotate(4.84)"/><rect class="cls-3" x="24.49" y="51.8" width="22.79" height="0.82" transform="translate(4.53 -2.84) rotate(4.84)"/><rect class="cls-3" x="37.28" y="56.06" width="22.79" height="0.82" transform="translate(4.93 -3.9) rotate(4.84)"/><rect class="cls-12" x="27.68" y="29.84" width="39.85" height="22.5" rx="3.07" ry="3.07" transform="translate(-8.44 12.57) rotate(-13.83)"/><path class="cls-13" d="M35.41,39.1a.76.76,0,0,0-.52.39,1.1,1.1,0,0,0,0,.79l.56,2.28-3.48.86-.56-2.28a1.08,1.08,0,0,0-.41-.68.79.79,0,0,0-.65-.1.76.76,0,0,0-.52.39,1.12,1.12,0,0,0,0,.79L31.3,47.8a1.12,1.12,0,0,0,.4.68.76.76,0,0,0,.64.1.79.79,0,0,0,.53-.39,1.08,1.08,0,0,0,0-.79l-.66-2.68,3.48-.86.66,2.68a1.12,1.12,0,0,0,.4.68.75.75,0,0,0,.64.1.79.79,0,0,0,.53-.39,1.08,1.08,0,0,0,0-.79l-1.54-6.27a1.08,1.08,0,0,0-.41-.68A.79.79,0,0,0,35.41,39.1Z"/><path class="cls-13" d="M38.81,38.26a.76.76,0,0,0-.52.39,1.09,1.09,0,0,0,0,.79l1.54,6.27a1.09,1.09,0,0,0,.41.68.76.76,0,0,0,.63.11.78.78,0,0,0,.53-.39,1.09,1.09,0,0,0,0-.79L39.87,39a1.08,1.08,0,0,0-.41-.68A.79.79,0,0,0,38.81,38.26Z"/><path class="cls-13" d="M48.9,42.27A7,7,0,0,0,48,41.5,3,3,0,0,0,47,41a3,3,0,0,0,1.34-1.13,2,2,0,0,0,.15-1.55,2.34,2.34,0,0,0-.35-.78,2,2,0,0,0-.6-.57,2.07,2.07,0,0,0-.77-.29,2.42,2.42,0,0,0-.74,0,8.18,8.18,0,0,0-.94.18l-2.62.65a.87.87,0,0,0-.74,1.23l1.51,6.12a1.14,1.14,0,0,0,.39.68.76.76,0,0,0,.66.1.78.78,0,0,0,.52-.38,1.1,1.1,0,0,0,0-.8l-.63-2.56.56-.14a2,2,0,0,1,.74-.06,1.58,1.58,0,0,1,.66.29,6.14,6.14,0,0,1,.84.75l.91.92.5.49a1.26,1.26,0,0,0,.4.24.8.8,0,0,0,.49,0,.89.89,0,0,0,.38-.19.73.73,0,0,0,.21-.31.58.58,0,0,0,0-.34,1.85,1.85,0,0,0-.31-.51A7.25,7.25,0,0,0,48.9,42.27Zm-2.6-2.21a4.17,4.17,0,0,1-1,.34l-1.44.36-.54-2.19,1.49-.37A3.46,3.46,0,0,1,46,38.05a1,1,0,0,1,.87.8,1,1,0,0,1,0,.72A1.18,1.18,0,0,1,46.3,40.06Z"/><path class="cls-13" d="M56.47,41.14l-3.76.92-.56-2.26L55.5,39a.8.8,0,0,0,.51-.31.6.6,0,0,0,.07-.49.58.58,0,0,0-.29-.39.82.82,0,0,0-.59,0l-3.34.82-.48-2L55,35.74a.85.85,0,0,0,.53-.31.6.6,0,0,0,.08-.5.59.59,0,0,0-.3-.4.85.85,0,0,0-.62,0l-4.25,1a1.41,1.41,0,0,0-.54.24.66.66,0,0,0-.24.4,1.37,1.37,0,0,0,0,.59l1.47,6a.87.87,0,0,0,1.23.74l4.38-1.08a.85.85,0,0,0,.53-.32.61.61,0,0,0,.08-.51.62.62,0,0,0-.31-.42A.85.85,0,0,0,56.47,41.14Z"/><path class="cls-13" d="M62.62,33.31a2.66,2.66,0,0,0-1.2-.31A5.82,5.82,0,0,0,60,33.2l-2.1.52a.87.87,0,0,0-.74,1.23l1.44,5.83a2.45,2.45,0,0,0,.22.61.63.63,0,0,0,.38.3,1.35,1.35,0,0,0,.69,0l2.1-.52a6.36,6.36,0,0,0,1-.31,3.27,3.27,0,0,0,.76-.45,2.84,2.84,0,0,0,.59-.63,3.41,3.41,0,0,0,.46-1,4,4,0,0,0,.12-1.16,6.52,6.52,0,0,0-.2-1.34A4.15,4.15,0,0,0,62.62,33.31Zm.17,5.87a1.33,1.33,0,0,1-.36.35,2,2,0,0,1-.45.22l-.62.18-1.22.3-1.33-5.4,1.06-.26a4.47,4.47,0,0,1,1.3-.15,1.63,1.63,0,0,1,1.06.53A3.57,3.57,0,0,1,63,36.63,3,3,0,0,1,62.79,39.19Z"/></g></g></svg>