<svg xmlns="http://www.w3.org/2000/svg" viewBox="0 0 155.1 178.38"><defs><style>.cls-1{fill:#fff;}</style></defs><title>know</title><g id="Layer_2" data-name="Layer 2"><g id="Layer_9" data-name="Layer 9"><g id="s7LRRE.tif"><path class="cls-1" d="M155.21,178.51H.11Q.11,89.32.11.13h155.1Q155.21,89.32,155.21,178.51ZM130.3,129.09c.57-.34,1.14-.69,1.73-1a.74.74,0,0,1,.52-.1c.7.24,1.72,2.43,1.62,3.17a2.91,2.91,0,0,0,.24,1.22c.12.37.44.71.46,1.08.1,1.82.33,3.65-.45,5.4a1,1,0,0,0,.49,1.46,1.12,1.12,0,0,0,1.52-.62,2.91,2.91,0,0,0,.38-1.08c.12-1.34.19-2.68.26-4,0-.8-.27-1.9.14-2.31s1.61-.47,2.45-.67a37.53,37.53,0,0,0,5.39-1.35c4.91-2,8-5.57,8.54-11,.11-1.08,0-2.18.12-3.26a21.48,21.48,0,0,0-.75-8.18,40.6,40.6,0,0,1-.79-4.81,1.12,1.12,0,0,1,.1-.46,47.92,47.92,0,0,0,2.31-12.24c.28-5.64,0-11.19-1.9-16.6a62.26,62.26,0,0,0-15.23-23.87,51.48,51.48,0,0,0-19.61-12.53c-1.6-.54-3.25-1-5-1.46l1.11-.29c7.11-1.93,14.25-3.78,21.33-5.81a24.22,24.22,0,0,0,8.55-4.3,4.17,4.17,0,0,1,2.84-1.09A4.78,4.78,0,0,0,150.17,23a2.61,2.61,0,0,0,.71-2.82c-.11-.33-.62-.52-1-.77a3.28,3.28,0,0,0-.4.82,2.25,2.25,0,0,1-2.91,1.82c.32-1.57.59-3.15-.88-4.33a1.46,1.46,0,0,0-1.87-.25c.24.2.44.36.62.53.83.79.93,1.93.44,3.3-.38,1.07-1.18,1-2,1-6.57-.29-13.13-.53-19.7-.87a70.76,70.76,0,0,1-9.76-.87,67.15,67.15,0,0,1-16.88-5.78c-4-2-7.67-4.4-11.49-6.62S77.78,3.71,73.63,2.52A13.23,13.23,0,0,1,72.3,2a4.63,4.63,0,0,1,4.18,1.1,2,2,0,0,0-.4-1.29,4.85,4.85,0,0,0-2-1.18,11.74,11.74,0,0,0-3.9-.11C68.21.81,66.34,1.55,64.41,2c-6.92,1.5-12,5.6-15.95,11.25A13.55,13.55,0,0,0,46.6,25.78,27.72,27.72,0,0,0,58.4,40.72,11.51,11.51,0,0,0,65,42.49a23.12,23.12,0,0,0,8-1.63,7.84,7.84,0,0,1,1.43-.27l.07.32c-.52.23-1,.48-1.57.69-9.09,3.52-16.71,8.93-22.06,17.22a51.65,51.65,0,0,0-8.25,24.32C42,90.74,42.31,98.2,45,105.43l1,2.65a30,30,0,0,0-3.8-.74c-2.84-.19-5.7-.21-8.55-.35a3.46,3.46,0,0,1-1.53-.42q-2.61-1.53-5.15-3.19a9.57,9.57,0,0,1-2.55-2C23,99.5,21.79,97.47,20.53,95.5c-.27-.43-.59-.82-.89-1.24l-.8,1.6L16.3,93.29c-.52-.52-.8-1.37-1.78-1.25-.1,0-.26-.18-.33-.31-.86-1.6-1.69-3.22-2.57-4.81a3.47,3.47,0,0,0-.75-.72c-.18.33-.55.68-.51,1a7,7,0,0,0,.6,2,34.55,34.55,0,0,0,12.13,14c1,.69,1.88,1.58,3,2.53a3,3,0,0,1-.58,0,4.23,4.23,0,0,1-.79-.36c-2.34-1.56-4.72-3.07-7-4.74a6.56,6.56,0,0,1-3-4.31c0-.1-.14-.18-.26-.32l-.61.71c-1.25-2.23-2.48-4.36-3.66-6.52-.62-1.12-.59-1.14-1.58-.43l-.09,0a2,2,0,0,0-1.4,1.69,46.18,46.18,0,0,0-1.06,4.88c-.31,2.25-.45,4.53-.68,7A22.38,22.38,0,0,1,4,101.52c-.77-1.26-1.44-2.57-2.24-3.82a1.26,1.26,0,0,0-1-.52c-.6.19-.44.74-.23,1.21l.13.26c2.75,5,5.36,10.15,8.29,15.08,3.22,5.43,6.74,10.68,10.1,16a1.73,1.73,0,0,1,.29,1.19,9.07,9.07,0,0,0,.77,7.07,11.1,11.1,0,0,0,6.81,5.43,2,2,0,0,1,1.07.82c2,3.57,4,7.16,6,10.75.44.8.81,1.63,1.21,2.45l-.15.19-4.15-1.52c1.69,2.12,3.47,4.38,5.28,6.61a3,3,0,0,0,1.13.85A3.05,3.05,0,0,1,39,165.41c.62,1.47,1.38,1.86,3.08,1.71l-.63-1.53a2.26,2.26,0,0,1,.41,0l16.52,5.13c.85.26,1.78.41,2,1.53,0,.18.28.33.46.46.74.55,1.52,1.07,2.24,1.65a22.82,22.82,0,0,0,6.22,3.35V177a54.47,54.47,0,0,0,6,0,57.81,57.81,0,0,0,5.8-1.26c.18,0,.53,0,.55.13a.79.79,0,0,1-.11.65,15.91,15.91,0,0,1-1.25,1.06A28.4,28.4,0,0,0,88.52,174c.54-.3,1-.74,1.69-.1.19.19.74.09,1.1,0,1.31-.3,2.6-.68,3.92-1,1.16-.24,1.43-.52,1.37-1.75a2,2,0,0,1,1.21-2.18c7.17-3.57,14.31-7.22,21.46-10.84.32-.16.66-.3,1.1-.49-.26,2.88-.56,5.59-.7,8.3a3,3,0,0,1-1.19,2.23c-1.56,1.37-3.07,2.81-4.53,4.3a1.48,1.48,0,0,0-.28,1.35,1.61,1.61,0,0,0,1.28.52,18,18,0,0,0,2.46-.4c.75.82,1.07.84,2,.13a9.73,9.73,0,0,1,1.93-1.39c2.41-1,4.87-2,7.31-2.93a11.76,11.76,0,0,0,1.95-.8c.33-.21.73-.84.63-1.08a1.82,1.82,0,0,0-1.12-.76,3.41,3.41,0,0,0-1.24.17c-.33-2.15-.53-4.26-1-6.3s-1.25-4-1.91-6a43.59,43.59,0,0,1,4.35-2,2.69,2.69,0,0,0,2-2.75c-.07-.37-.26-.72-.33-1.09-.53-2.67-1-5.35-1.58-8a1.43,1.43,0,0,1,.54-1.55,13.89,13.89,0,0,0,2.09-2.57c.17-.26-.1-.8-.17-1.21a4.69,4.69,0,0,0-1,.47c-.65.51-1.25,1.1-2,1.79l-.43-2c-.37-1.76-.75-3.51-1.09-5.27a1,1,0,0,1,.18-.67.67.67,0,0,1,.54.13,6,6,0,0,1,1.6,4c1.42-.5,1.65-.92,1.09-2.33C131.33,131,130.81,130.12,130.3,129.09Z" transform="translate(-0.11 -0.13)"/><path d="M130.3,129.09c.51,1,1,1.92,1.4,2.87.56,1.42.32,1.83-1.09,2.33a6,6,0,0,0-1.6-4,.67.67,0,0,0-.54-.13,1,1,0,0,0-.18.67c.34,1.76.72,3.52,1.09,5.27l.43,2c.77-.69,1.37-1.27,2-1.79a4.69,4.69,0,0,1,1-.47c.07.41.34,1,.17,1.21a13.89,13.89,0,0,1-2.09,2.57,1.43,1.43,0,0,0-.54,1.55c.55,2.67,1,5.35,1.58,8,.07.37.27.72.33,1.09a2.69,2.69,0,0,1-2,2.75,43.59,43.59,0,0,0-4.35,2c.66,2.05,1.43,4,1.91,6s.68,4.15,1,6.3a3.41,3.41,0,0,1,1.24-.17,1.82,1.82,0,0,1,1.12.76c.1.25-.3.87-.63,1.08a11.76,11.76,0,0,1-1.95.8c-2.44,1-4.9,1.89-7.31,2.93a9.73,9.73,0,0,0-1.93,1.39c-.91.7-1.24.69-2-.13a18,18,0,0,1-2.46.4,1.61,1.61,0,0,1-1.28-.52,1.48,1.48,0,0,1,.28-1.35c1.46-1.48,3-2.92,4.53-4.3a3,3,0,0,0,1.19-2.23c.15-2.71.45-5.42.7-8.3-.44.2-.78.33-1.1.49-7.15,3.62-14.29,7.27-21.46,10.84a2,2,0,0,0-1.21,2.18c.06,1.23-.21,1.51-1.37,1.75-1.32.28-2.61.66-3.92,1-.36.08-.91.18-1.1,0-.66-.64-1.14-.2-1.69.1a28.4,28.4,0,0,1-8.23,3.48,15.91,15.91,0,0,0,1.25-1.06.79.79,0,0,0,.11-.65c0-.09-.37-.17-.55-.13a57.81,57.81,0,0,1-5.8,1.26,54.47,54.47,0,0,1-6,0v.74a22.82,22.82,0,0,1-6.22-3.35c-.72-.58-1.5-1.09-2.24-1.65-.18-.13-.43-.28-.46-.46-.22-1.12-1.14-1.26-2-1.53l-16.52-5.13a2.26,2.26,0,0,0-.41,0l.63,1.53c-1.7.15-2.46-.23-3.08-1.71a3.05,3.05,0,0,0-1.74-1.79,3,3,0,0,1-1.13-.85c-1.82-2.23-3.6-4.49-5.28-6.61L35,157.68l.15-.19c-.4-.82-.77-1.65-1.21-2.45-2-3.59-4-7.19-6-10.75a2,2,0,0,0-1.07-.82A11.1,11.1,0,0,1,20.08,138a9.07,9.07,0,0,1-.77-7.07,1.73,1.73,0,0,0-.29-1.19c-3.36-5.35-6.88-10.6-10.1-16C6,108.82,3.38,103.7.63,98.66L.5,98.4c-.22-.47-.37-1,.23-1.21a1.26,1.26,0,0,1,1,.52C2.57,99,3.24,100.27,4,101.52a22.38,22.38,0,0,0,1.4,1.83c.23-2.47.37-4.75.68-7a46.18,46.18,0,0,1,1.06-4.88,2,2,0,0,1,1.4-1.69l.09,0c1-.7,1-.69,1.58.43,1.19,2.16,2.41,4.29,3.66,6.52l.61-.71c.12.14.24.22.26.32a6.56,6.56,0,0,0,3,4.31c2.26,1.67,4.64,3.17,7,4.74a4.23,4.23,0,0,0,.79.36,3,3,0,0,0,.58,0c-1.13-1-2-1.84-3-2.53a34.55,34.55,0,0,1-12.13-14,7,7,0,0,1-.6-2c0-.3.33-.65.51-1a3.47,3.47,0,0,1,.75.72c.88,1.59,1.71,3.21,2.57,4.81.07.13.23.32.33.31,1-.12,1.27.73,1.78,1.25l2.54,2.58.8-1.6c.3.41.61.81.89,1.24,1.26,2,2.43,4,3.81,5.88a9.57,9.57,0,0,0,2.55,2Q29.42,105,32,106.57a3.46,3.46,0,0,0,1.53.42c2.85.13,5.7.16,8.55.35a30,30,0,0,1,3.8.74l-1-2.65c-2.64-7.23-3-14.69-2.38-22.29a51.65,51.65,0,0,1,8.25-24.32c5.35-8.28,13-13.69,22.06-17.22.53-.21,1-.46,1.57-.69l-.07-.32a7.84,7.84,0,0,0-1.43.27,23.12,23.12,0,0,1-8,1.63,11.51,11.51,0,0,1-6.58-1.77A27.72,27.72,0,0,1,46.6,25.78a13.55,13.55,0,0,1,1.86-12.56c4-5.65,9-9.75,15.95-11.25,1.93-.42,3.8-1.16,5.74-1.5a11.74,11.74,0,0,1,3.9.11,4.85,4.85,0,0,1,2,1.18,2,2,0,0,1,.4,1.29A4.63,4.63,0,0,0,72.3,2a13.23,13.23,0,0,0,1.33.56c4.15,1.2,7.75,3.5,11.44,5.65s7.53,4.67,11.49,6.62a67.15,67.15,0,0,0,16.88,5.78,70.76,70.76,0,0,0,9.76.87c6.56.34,13.13.59,19.7.87.85,0,1.64.1,2-1,.49-1.38.4-2.51-.44-3.3-.18-.17-.38-.33-.62-.53a1.46,1.46,0,0,1,1.87.25c1.47,1.19,1.2,2.76.88,4.33a2.25,2.25,0,0,0,2.91-1.82,3.28,3.28,0,0,1,.4-.82c.33.25.85.45,1,.77a2.61,2.61,0,0,1-.71,2.82,4.78,4.78,0,0,1-3.53,1.28,4.17,4.17,0,0,0-2.84,1.09,24.22,24.22,0,0,1-8.55,4.3c-7.08,2-14.21,3.89-21.33,5.81l-1.11.29c1.78.51,3.42.92,5,1.46a51.48,51.48,0,0,1,19.61,12.53,62.26,62.26,0,0,1,15.23,23.87c1.93,5.41,2.18,11,1.9,16.6a47.92,47.92,0,0,1-2.31,12.24,1.12,1.12,0,0,0-.1.46,40.6,40.6,0,0,0,.79,4.81,21.48,21.48,0,0,1,.75,8.18c-.12,1.08,0,2.18-.12,3.26-.57,5.42-3.63,9-8.54,11a37.53,37.53,0,0,1-5.39,1.35c-.84.2-1.93.15-2.45.67s-.1,1.52-.14,2.31c-.07,1.34-.14,2.68-.26,4a2.91,2.91,0,0,1-.38,1.08,1.12,1.12,0,0,1-1.52.62,1,1,0,0,1-.49-1.46c.78-1.75.55-3.58.45-5.4,0-.37-.34-.71-.46-1.08a2.91,2.91,0,0,1-.24-1.22c.11-.74-.92-2.93-1.62-3.17a.74.74,0,0,0-.52.1C131.44,128.39,130.87,128.75,130.3,129.09Zm-72.38-7.77c1-1,1.87-1.85,2.8-2.63,1.52-1.28,3.06-2.65,5.06-3s4.31-.57,6.46-.81c1.49-.17,3-.24,4.48-.47,2-.3,3.9-.76,5.86-1.09a73.66,73.66,0,0,0,8.16-1.3,124.64,124.64,0,0,0,18.15-6.58,6.73,6.73,0,0,0,1.48-.87c1.06-.88,1.28-.85,1.74.49.21-.06.42-.12.63-.19l5-1.84c.64-.24,1.28-.3,1.5.49.63,2.31,1.2,4.64,1.79,7,.12.48.21,1,.32,1.51.86-.24,1.61-.43,2.34-.66,1.35-.43,2.58-1.25,4.1-1.15.67,0,1.36,0,1.51.83s-.51,1.13-1.2,1.3l-3.17.8c.18.76.36,1.42.48,2.09.65,3.59,1.27,7.19,1.94,10.78a3.68,3.68,0,0,0,.66,1.08,2,2,0,0,1,1.91-1.39,3.8,3.8,0,0,1,1.62,0c1.42.53,2.37-.24,3.35-1l.54-.4c6.09-4.57,10.3-10.39,12-17.9a4,4,0,0,0-.13-1.85c-.38-1.32-.93-2.59-1.26-3.92a1.61,1.61,0,0,1,.45-1.39c.55-.4,1.08,0,1.41.57a2.35,2.35,0,0,1,.13.38l.54-1.13,3,2.5c.09-.28.19-.58.28-.87A44.63,44.63,0,0,0,153.59,88a37.82,37.82,0,0,0-1.2-11.43,60.89,60.89,0,0,0-17.47-27.62,48.81,48.81,0,0,0-16.62-10.37c-4.09-1.46-8.15-2.49-12.65-1.37a84.74,84.74,0,0,1-11.89,1.6c-3.25.33-6.51.42-9.77.61-.35,0-.7,0-1,0,0,.12-.07.19,0,.24.36.85.78,1.69,1.09,2.56A6.56,6.56,0,0,1,84.38,44c0,.26-.34.53-.52.8-.26-.23-.63-.4-.76-.69-.33-.69-.53-1.44-.83-2.14-.08-.19-.32-.3-.49-.45.74,2.37.74,2.37-.52,3.1.44.63.83,1.29,1.32,1.88s.85.86.3,1.38-1.12.17-1.5-.3A16.07,16.07,0,0,1,80,45.55c-1.15-2-1.13-2-3.42-1.69a19,19,0,0,0-10.44,4.29A60.19,60.19,0,0,0,50.66,68.75c-4,8.69-4.81,17.82-3.8,27.18A45.1,45.1,0,0,0,51,109.48a17.08,17.08,0,0,0,2,3.6,29.22,29.22,0,0,1,3.91,6.37C57.19,120.06,57.55,120.63,57.92,121.31Zm12-117c-.28-.32-.54-.9-.85-.92a4.91,4.91,0,0,0-3.25.54A34.16,34.16,0,0,0,55.41,14a9.59,9.59,0,0,0-1.64,4.37,15.6,15.6,0,0,0,3.65,11.81c4,4.9,9.52,7.35,15.61,8.57a4.33,4.33,0,0,0,3.54-2c.35-.78,1.06-.84,1.69-.17.25.27.52.72.81.74a11.08,11.08,0,0,0,3.83,0,62,62,0,0,1,18.32-2.45,9.84,9.84,0,0,0,2.66-.29q12-3.38,24-6.84c1.3-.37,2.58-.85,3.87-1.28a9.49,9.49,0,0,0-3.84-.26,17.88,17.88,0,0,1-6.48.34,38.73,38.73,0,0,1-9.72-2.62c-4-1.44-8-2.86-12-4.49A68.17,68.17,0,0,1,93.14,16c-1-.56-2-1.32-3-1.91-3.45-2-6.93-3.89-10.37-5.87C77.63,7,75.53,5.62,73.35,4.39A3,3,0,0,0,69.93,4.3ZM83.58,174.69l.17.27c.27-.14.54-.27.8-.42,11.63-6.7,25.77-14.07,38-19.82,2.26-1.06,4.49-2.2,6.77-3.24a1,1,0,0,0,.66-1.34c-.32-1.47-.58-3-.86-4.44s-.55-2.74-.83-4.16c-1.87.85-3.68,1.52-5.34,2.46a12.12,12.12,0,0,1-6.52,1.65,8.12,8.12,0,0,1-8.27-8.14s-.08-.09-.13-.15a1.9,1.9,0,0,0-.37,0,74.6,74.6,0,0,1-21.92.94,45.36,45.36,0,0,1-17.52-5.07c-1.92-1-3.54,0-5.52-.24,7.5,13.08,13.88,26.39,20,39.9.8-.37,1.45-.71,2.14-1a2.72,2.72,0,0,1,1,0,3.27,3.27,0,0,1-.12,1.06,2.28,2.28,0,0,1-.75.73C84.52,174.09,84,174.38,83.58,174.69Zm-21-4.24.18-.16c-.11-.29-.22-.58-.35-.86q-7.71-16.51-15.42-33c-1.14-2.44-2.22-4.9-3.31-7.37-.35-.8-.6-1.63.6-2.32-6.18-2.77-12.2-5.39-18.15-8.17A86.92,86.92,0,0,1,9.28,108.47l-.81.66c.1.2.18.37.28.53,4.1,6.43,8.19,12.87,12.34,19.27a2,2,0,0,0,1.45.66c4.54.18,8,2.34,10.64,5.87a7.12,7.12,0,0,1,1.37,5,3.41,3.41,0,0,1-3.09,3.26l-1.22.15.52,1c2.32,4.32,4.65,8.63,6.94,13a2.44,2.44,0,0,0,1.43,1.28,111.81,111.81,0,0,1,20.1,9.35ZM78,129.34a2.18,2.18,0,0,0,.34.05c4.84,0,9.69.16,14.51-.12,5.87-.35,11.43-2.2,16.91-4.26a12.43,12.43,0,0,0,4.93-2.7c.1-.1.31-.1.47-.15a1.47,1.47,0,0,1-.49.81c-1.75,1.66-4,2.39-6.16,3.28a50.08,50.08,0,0,1-14.62,3.94,80.39,80.39,0,0,1-17.09.06c-2.34-.29-4.29.88-6.46,1.5A44.2,44.2,0,0,0,76,134a59.88,59.88,0,0,0,20.55,2.24c3.71-.15,7.4-.56,11.1-.89a2.38,2.38,0,0,0,1.4-.48,37.09,37.09,0,0,0,3-3.37,18.44,18.44,0,0,1,6.45-5.06,8.79,8.79,0,0,1,4.44-1c.69,0,1.38,0,2.06,0l-1.59-11.9C108.15,117.88,93.11,123.54,78,129.34Zm-30,5.07c.14.3.29.63.45,1Q55.21,149.3,62,163.22c1.71,3.51,3.48,7,5.17,10.51a2.12,2.12,0,0,0,2.12,1.3c2.08,0,4.17.08,6.24,0a14.43,14.43,0,0,0,5.32-1.4L62.07,134.13c-.45.36-.85.53-.95.8a1.39,1.39,0,0,1-1.51,1,44.74,44.74,0,0,1-5.27-.22C52.24,135.39,50.17,134.85,48,134.42ZM7.84,104.7l-.22.24a15.45,15.45,0,0,0,1.11,1.17,65.16,65.16,0,0,0,14.37,9C29,118,35,120.54,41,123.25c1.6.73,3.17,1.54,4.71,2.4.32.18.42.76.63,1.15-.41.14-.82.29-1.23.42a1.47,1.47,0,0,1-.42,0l.85,2.23c1-.86,1.91-1.7,2.89-2.45a2.29,2.29,0,0,1,1.34-.38c.25,0,.5.4.76.62a6.43,6.43,0,0,1-.59.65A15.89,15.89,0,0,0,48,129.45c-1.42,1.64-1.24,2.15.76,2.91A30.21,30.21,0,0,0,58,134a7.25,7.25,0,0,0,2.64-.66,1.17,1.17,0,0,0,.56-.83c.15-1.08.21-2.17.28-3.25a.57.57,0,0,0-.19-.41c-.89-.75-1.8-1.49-2.9-2.38a13.1,13.1,0,0,1,0,2c-.25,1.41-.54,2.82-.92,4.2-.07.27-.6.41-.92.61a3.46,3.46,0,0,1-.22-1c.06-.69.23-1.37.38-2.17-1.3.22-1.18-.79-1.53-1.71-.33.86-.59,1.5-.83,2.15-.16.44,0,1.21-.78,1.09s-.59-.82-.54-1.34a3.72,3.72,0,0,1,.28-1.11c.4-.94.91-1.84,1.25-2.81a4.15,4.15,0,0,0,.21-1.81c-.29-2.48-2-4.25-3.26-6.23A10.67,10.67,0,0,0,48,114.89q-3.27-1.93-6.62-3.7a10.27,10.27,0,0,0-2.05-.6c-.39,1-.64,1.29-1.45,1.12a23.21,23.21,0,0,1-3.3-1.16,10.63,10.63,0,0,0-1.58-.67,31.72,31.72,0,0,1-15.21-7.4c-.18-.16-.46-.4-.63-.35-1,.28-1.48-.43-2-1A40.77,40.77,0,0,1,9.93,92.7c-.27-.53-.52-1.08-.78-1.62H8.8c-.26,1.33-.52,2.65-.79,4a3.23,3.23,0,0,0,.62,2.63,23.7,23.7,0,0,0,5.62,5.88,5.47,5.47,0,0,1,.74.6c.09.1.18.34.12.42a.59.59,0,0,1-.46.23,2.25,2.25,0,0,1-1-.36c-1.35-1.12-2.71-2.24-4-3.45a21.83,21.83,0,0,1-1.89-2.37l-.25,0c0,1.2,0,2.4,0,3.6a1.31,1.31,0,0,0,.72,1.32c1.11.65,2.17,1.38,3.28,2,2.26,1.27,4.56,2.48,6.82,3.74.29.16.47.52.69.79-.32.1-.68.34-1,.27a11,11,0,0,1-2.8-.94c-2.27-1.32-4.46-2.77-6.68-4.17C8.37,105.1,8.11,104.89,7.84,104.7Zm74.51,11.6c.14.92-.38,1.22-1.09,1.3a7.72,7.72,0,0,1-1.34,0c-1.31-.08-2.61-.19-3.92-.29-.51,0-1-.12-1.53-.13-.87,0-1.74,0-2.61,0a8.16,8.16,0,0,0-1.5.33c-2.69.71-5.45,1.24-7.73,3-.09.07-.28.16-.34.12-.79-.49-1.14.19-1.57.59-1.72,1.63-1.66,2.08.44,3.28a34,34,0,0,0,10.41,3.87,4.58,4.58,0,0,0,2.15,0c2-.63,4-1.4,6-2.11l32.52-11.56c1.46-.52,3.18-.59,3.86-2.38-.28.09-.61.18-.93.31-1.28.51-2.54,1.08-3.84,1.52a3.78,3.78,0,0,1-1.38-.08,4.28,4.28,0,0,1,.78-1.06c.83-.6,1.72-1.12,2.6-1.64,1.59-.93,3.2-1.84,4.8-2.76a1.41,1.41,0,0,0-1,0c-1.53.56-3.05,1.14-4.58,1.72-.9.34-1.77.75-2.69,1-.26.08-.63-.23-.95-.36.17-.27.33-.55.53-.8.07-.09.23-.1.35-.15,2.43-1,4.87-2,7.3-3,1.4-.58,1.45-.79.63-2.15l-16.13,5.71a.86.86,0,0,0-.48.4,4,4,0,0,1-3.71,2.48c-1.88.2-3.8.14-5.64.51C88.66,114.62,85.58,115.5,82.35,116.3ZM61,4.86c-.38.16-.82.32-1.25.53a26.31,26.31,0,0,0-9.49,8.38,12.14,12.14,0,0,0-1.56,12.39A26.29,26.29,0,0,0,59.75,39.31c3.2,1.92,6.62,1.42,10.05.69a3.72,3.72,0,0,0-1-.43c-5-1.58-9.43-4-12.79-8.15a17.23,17.23,0,0,1-3.94-14c.45-2.93,2.17-5.25,4.05-7.41C57.65,8.22,59.35,6.56,61,4.86ZM126.2,131.28l-.84.34c-3.62,1.35-7.23,2.76-10.88,4-2.7.93-2.74.84-2.75,3.72,0,1.81.09,2.09,1.88,2.41,3.93.7,7.83.94,11.38-1.5a2.75,2.75,0,0,1,1.39-.27c.57,0,1.45-.68,1.35-1.16C127.24,136.35,126.73,133.88,126.2,131.28Zm8-4.6c.6,1,.81,1.18,1.74,1.18a24,24,0,0,0,4.79-.2,7.69,7.69,0,0,0,5.35-3.72c.36-.63.79-1.22,1.08-1.88a11.48,11.48,0,0,0,1.31-3.44,48.91,48.91,0,0,0-.17-5.94c0-.3,0-.59-.06-1.06A53.65,53.65,0,0,1,134.17,126.68Zm-85-17.52c-.07-.22-.11-.41-.19-.58a45.91,45.91,0,0,1-4-18A54,54,0,0,1,47.18,74,58.39,58.39,0,0,1,59.49,53c.15-.17.31-.33.44-.51a5.35,5.35,0,0,0,.29-.47,40.84,40.84,0,0,0-9.54,9.85c-3,4.46-4.57,9.51-5.73,14.69a59.91,59.91,0,0,0-.9,18.37,45,45,0,0,0,3.64,13.4C47.95,108.92,48.23,109.45,49.14,109.16ZM22.79,131.11a10.71,10.71,0,0,0,.58,1.45c1.23,2,2.47,4,3.75,6a1.77,1.77,0,0,0,1,.75,10.14,10.14,0,0,0,2.57.16c1.6-.13,2.14-1.16,1.32-2.52a12,12,0,0,0-7.59-5.6C24,131.26,23.51,131.22,22.79,131.11Zm90,3.07a7.2,7.2,0,0,0,.78-.08,72.41,72.41,0,0,0,11.63-3.93c.48-.22.79-.45.58-1s.17-1.71-1-1.81c-1.6-.14-3.27-.29-4.69.6a62.46,62.46,0,0,0-5.4,3.81A14,14,0,0,0,112.78,134.18ZM38.9,159.84c.52,2,.95,2.64,2.65,3.31,2.7,1.07,5.42,2.12,8.17,3.06,2.17.74,4.4,1.3,6.6,1.94C51,164.36,45,162,38.9,159.84ZM55.24,54.74l12.58-9.52L67.66,45A40.09,40.09,0,0,0,55.24,54.74ZM71,44.32l7.4-1.44c-.16-.88-.68-1-1.52-1C74.45,41.83,72.72,43.26,71,44.32Zm-7.43,82.76-.1.12c.9.7,1.79,1.42,2.71,2.1a3.19,3.19,0,0,0,4.12,0ZM141.7,24.61l-.11-.3a6.16,6.16,0,0,0-1,.33c-.41.22-.75.64-1.18.75a22.23,22.23,0,0,0-5.26,2.2,39.72,39.72,0,0,1-4,1.67C134.18,28.15,138.17,26.93,141.7,24.61Zm-22.8,84.31-4.76,3c-.13.08-.24.18-.48.35,1.45-.41,2.75-.82,4.08-1.14,1.65-.4,1.66-.37,1.25-2A1.18,1.18,0,0,0,118.9,108.92Zm-71,3.58c-.63-1.64-1.89-2.07-4-1.39a15.16,15.16,0,0,0,1.81.91A18.43,18.43,0,0,0,47.93,112.5Zm98.34,0c1.72-2,2.28-4,1.62-5.51ZM32.71,158.18l4,2.51C35.91,158.69,35.79,158.62,32.71,158.18Zm89.82,3.32-.24,0-.19,3.86c.75-.09,1.1-.37,1-1C122.91,163.41,122.71,162.45,122.53,161.5Zm-93.58-20-.07.23a6,6,0,0,0,1.18.26c.93,0,1.93.14,2.46-.88Zm-3.15-.18.33-.4-3.36-2.35-.21.27Zm-4.89-8.62-.38.26,2.1,3.12.28-.18ZM91.79,36.48l0,.3,4.28-.4,0-.26ZM52.25,116l.27-.26-1.92-2.26-.28.24ZM18.61,97.17l1.55,1.38C20,97.78,19.91,96.85,18.61,97.17ZM80.48,39.53c.77,0-.09,1.55,1.14,1.18C81.27,40.23,81.5,39.33,80.48,39.53ZM62.82,130l.07,1.17,1.39-.14Z" transform="translate(-0.11 -0.13)"/><path class="cls-1" d="M57.92,121.31c-.37-.68-.72-1.25-1-1.86A29.22,29.22,0,0,0,53,113.08a17.08,17.08,0,0,1-2-3.6,45.1,45.1,0,0,1-4.17-13.55c-1-9.35-.21-18.49,3.8-27.18A60.19,60.19,0,0,1,66.13,48.15a19,19,0,0,1,10.44-4.29c2.29-.27,2.27-.3,3.42,1.69a16.07,16.07,0,0,0,1.4,2.07c.37.46,1,.81,1.5.3s.06-.94-.3-1.38-.88-1.25-1.32-1.88c1.26-.73,1.26-.73.52-3.1.17.15.41.27.49.45.3.7.5,1.45.83,2.14.14.29.5.46.76.69.19-.27.54-.54.52-.8A6.56,6.56,0,0,0,84,42.19c-.31-.87-.73-1.71-1.09-2.56,0,0,0-.12,0-.24.34,0,.69,0,1,0,3.26-.19,6.53-.28,9.77-.61a84.74,84.74,0,0,0,11.89-1.6c4.5-1.11,8.56-.08,12.65,1.37a48.81,48.81,0,0,1,16.62,10.37A60.89,60.89,0,0,1,152.4,76.54,37.82,37.82,0,0,1,153.59,88a44.63,44.63,0,0,1-1.86,12.61c-.09.3-.19.59-.28.87l-3-2.5-.54,1.13a2.35,2.35,0,0,0-.13-.38c-.34-.54-.87-1-1.41-.57a1.61,1.61,0,0,0-.45,1.39c.33,1.33.89,2.6,1.26,3.92a4,4,0,0,1,.13,1.85c-1.67,7.51-5.89,13.34-12,17.9l-.54.4c-1,.77-1.93,1.53-3.35,1a3.8,3.8,0,0,0-1.62,0,2,2,0,0,0-1.91,1.39,3.68,3.68,0,0,1-.66-1.08c-.67-3.59-1.29-7.19-1.94-10.78-.12-.67-.3-1.33-.48-2.09l3.17-.8c.69-.17,1.37-.4,1.2-1.3s-.84-.78-1.51-.83c-1.52-.11-2.75.71-4.1,1.15-.73.23-1.47.42-2.34.66-.11-.54-.2-1-.32-1.51-.59-2.32-1.15-4.65-1.79-7-.22-.79-.86-.73-1.5-.49l-5,1.84c-.21.08-.42.13-.63.19-.46-1.34-.67-1.37-1.74-.49a6.73,6.73,0,0,1-1.48.87A124.64,124.64,0,0,1,90.73,112a73.66,73.66,0,0,1-8.16,1.3c-2,.32-3.9.78-5.86,1.09-1.48.23-3,.3-4.48.47-2.16.25-4.34.39-6.46.81s-3.54,1.76-5.06,3C59.79,119.47,58.94,120.34,57.92,121.31ZM110.35,97a13.6,13.6,0,0,0,2.43-.74,1.89,1.89,0,0,0,.56-2.86,3.31,3.31,0,0,0-3.39-1.3c-.68.15-1.47,0-1.91.85C106.92,95.11,107.89,96.83,110.35,97Zm-7.79-14.32v.1a24.42,24.42,0,0,0,2.86-.25c3.73-.76,7.46-1.58,11.18-2.39a1.32,1.32,0,0,0,.63-.22c.2-.2.47-.54.41-.73s-.44-.4-.71-.47a1.84,1.84,0,0,0-.75.13c-3.41.76-6.8,1.6-10.23,2.25-1.81.34-3.69.34-5.53.54-.28,0-.53.32-.8.49.27.18.53.49.82.52A19.45,19.45,0,0,0,102.56,82.68ZM63.29,96.93c1.84,0,2.66-.6,2.68-2s-1.65-2.82-3.43-2.79c-.92,0-2,1.57-2,2.9S61.42,96.92,63.29,96.93ZM57.43,80.7a5,5,0,0,0,1,.69,6,6,0,0,0,1.58.36c3.15.2,6.31.37,9.47.55a.87.87,0,0,0,.47,0c.17-.11.39-.3.39-.45s-.22-.37-.4-.44a2.64,2.64,0,0,0-.76-.08L58,80.51A2.59,2.59,0,0,0,57.43,80.7Z" transform="translate(-0.11 -0.13)"/><path class="cls-1" d="M69.93,4.3a3,3,0,0,1,3.42.09C75.53,5.62,77.63,7,79.79,8.23c3.44,2,6.92,3.9,10.37,5.87,1,.59,1.94,1.35,3,1.91a68.17,68.17,0,0,0,6.64,3.43c3.94,1.62,8,3,12,4.49a38.73,38.73,0,0,0,9.72,2.62,17.88,17.88,0,0,0,6.48-.34,9.49,9.49,0,0,1,3.84.26c-1.29.43-2.56.91-3.87,1.28q-12,3.45-24,6.84a9.84,9.84,0,0,1-2.66.29,62,62,0,0,0-18.32,2.45,11.08,11.08,0,0,1-3.83,0c-.29,0-.56-.47-.81-.74-.62-.67-1.33-.61-1.69.17a4.33,4.33,0,0,1-3.54,2c-6.09-1.23-11.56-3.67-15.61-8.57a15.6,15.6,0,0,1-3.65-11.81A9.59,9.59,0,0,1,55.41,14,34.16,34.16,0,0,1,65.83,3.92a4.91,4.91,0,0,1,3.25-.54C69.39,3.4,69.65,4,69.93,4.3Z" transform="translate(-0.11 -0.13)"/><path class="cls-1" d="M83.58,174.69c.46-.31.94-.59,1.38-.92a2.28,2.28,0,0,0,.75-.73,3.27,3.27,0,0,0,.12-1.06,2.72,2.72,0,0,0-1,0c-.69.24-1.34.59-2.14,1-6.13-13.51-12.51-26.82-20-39.9,2,.2,3.6-.81,5.52.24a45.36,45.36,0,0,0,17.52,5.07,74.6,74.6,0,0,0,21.92-.94,1.9,1.9,0,0,1,.37,0c.05.06.13.1.13.15a8.12,8.12,0,0,0,8.27,8.14,12.12,12.12,0,0,0,6.52-1.65c1.67-.94,3.48-1.61,5.34-2.46.28,1.42.56,2.79.83,4.16s.55,3,.86,4.44a1,1,0,0,1-.66,1.34c-2.27,1-4.5,2.17-6.77,3.24-12.23,5.75-26.38,13.12-38,19.82-.26.15-.53.28-.8.42Z" transform="translate(-0.11 -0.13)"/><path class="cls-1" d="M62.59,170.44l-3.36-2a111.81,111.81,0,0,0-20.1-9.35,2.44,2.44,0,0,1-1.43-1.28c-2.29-4.34-4.62-8.65-6.94-13l-.52-1,1.22-.15a3.41,3.41,0,0,0,3.09-3.26,7.12,7.12,0,0,0-1.37-5c-2.68-3.53-6.1-5.69-10.64-5.87a2,2,0,0,1-1.45-.66c-4.15-6.4-8.24-12.84-12.34-19.27-.1-.16-.18-.34-.28-.53l.81-.66a86.92,86.92,0,0,0,16.86,10.08c5.95,2.78,12,5.39,18.15,8.17-1.2.69-1,1.52-.6,2.32,1.09,2.46,2.17,4.93,3.31,7.37q7.69,16.51,15.42,33c.13.28.23.57.35.86Z" transform="translate(-0.11 -0.13)"/><path class="cls-1" d="M78,129.34c15.06-5.8,30.1-11.46,45.34-15.83l1.59,11.9c-.68,0-1.37,0-2.06,0a8.79,8.79,0,0,0-4.44,1A18.44,18.44,0,0,0,112,131.5a37.09,37.09,0,0,1-3,3.37,2.38,2.38,0,0,1-1.4.48c-3.7.33-7.39.75-11.1.89A59.88,59.88,0,0,1,76,134a44.2,44.2,0,0,1-5.61-2.27c2.17-.62,4.12-1.79,6.46-1.5a80.39,80.39,0,0,0,17.09-.06,50.08,50.08,0,0,0,14.62-3.94c2.15-.89,4.41-1.62,6.16-3.28a1.47,1.47,0,0,0,.49-.81c-.16,0-.37,0-.47.15a12.43,12.43,0,0,1-4.93,2.7c-5.47,2.06-11,3.91-16.91,4.26-4.82.29-9.67.1-14.51.12A2.18,2.18,0,0,1,78,129.34Z" transform="translate(-0.11 -0.13)"/><path class="cls-1" d="M48,134.42c2.16.44,4.23,1,6.33,1.25a44.74,44.74,0,0,0,5.27.22,1.39,1.39,0,0,0,1.51-1c.1-.28.5-.44.95-.8L80.82,173.6A14.43,14.43,0,0,1,75.5,175c-2.08.1-4.16,0-6.24,0a2.12,2.12,0,0,1-2.12-1.3c-1.69-3.52-3.46-7-5.17-10.51q-6.77-13.92-13.5-27.85C48.3,135,48.15,134.72,48,134.42Z" transform="translate(-0.11 -0.13)"/><path class="cls-1" d="M7.84,104.7c.27.19.53.4.82.58,2.22,1.4,4.41,2.85,6.68,4.17a11,11,0,0,0,2.8.94c.28.07.63-.17,1-.27-.23-.27-.4-.63-.69-.79-2.26-1.27-4.56-2.48-6.82-3.74-1.12-.63-2.18-1.35-3.28-2a1.31,1.31,0,0,1-.72-1.32c.05-1.2,0-2.4,0-3.6l.25,0A21.83,21.83,0,0,0,9.71,101c1.26,1.21,2.62,2.33,4,3.45a2.25,2.25,0,0,0,1,.36.59.59,0,0,0,.46-.23c.05-.07,0-.32-.12-.42a5.47,5.47,0,0,0-.74-.6,23.7,23.7,0,0,1-5.62-5.88A3.23,3.23,0,0,1,8,95c.27-1.32.53-2.65.79-4h.35c.26.54.51,1.08.78,1.62a40.77,40.77,0,0,0,5.21,8.39c.51.6,1,1.3,2,1,.17,0,.45.19.63.35A31.72,31.72,0,0,0,33,109.87a10.63,10.63,0,0,1,1.58.67,23.21,23.21,0,0,0,3.3,1.16c.81.17,1.07-.15,1.45-1.12a10.27,10.27,0,0,1,2.05.6q3.35,1.78,6.62,3.7a10.67,10.67,0,0,1,3.53,3.47c1.29,2,3,3.74,3.26,6.23a4.15,4.15,0,0,1-.21,1.81c-.34,1-.85,1.86-1.25,2.81a3.72,3.72,0,0,0-.28,1.11c0,.53-.19,1.23.54,1.34s.61-.65.78-1.09c.24-.65.5-1.29.83-2.15.34.92.23,1.93,1.53,1.71-.15.8-.31,1.48-.38,2.17a3.46,3.46,0,0,0,.22,1c.32-.2.85-.34.92-.61.38-1.38.67-2.79.92-4.2a13.1,13.1,0,0,0,0-2c1.09.9,2,1.63,2.9,2.38a.57.57,0,0,1,.19.41c-.07,1.09-.14,2.17-.28,3.25a1.17,1.17,0,0,1-.56.83A7.25,7.25,0,0,1,58,134a30.21,30.21,0,0,1-9.24-1.65c-2-.77-2.18-1.27-.76-2.91a15.89,15.89,0,0,1,1.89-1.57,6.43,6.43,0,0,0,.59-.65c-.25-.22-.5-.61-.76-.62a2.29,2.29,0,0,0-1.34.38c-1,.74-1.89,1.59-2.89,2.45l-.85-2.23a1.47,1.47,0,0,0,.42,0c.41-.13.82-.28,1.23-.42-.2-.39-.3-1-.63-1.15-1.54-.86-3.11-1.67-4.71-2.4C35,120.54,29,118,23.1,115.15a65.16,65.16,0,0,1-14.37-9,15.45,15.45,0,0,1-1.11-1.17Z" transform="translate(-0.11 -0.13)"/><path class="cls-1" d="M82.35,116.3c3.23-.81,6.32-1.68,9.45-2.32,1.84-.37,3.76-.31,5.64-.51a4,4,0,0,0,3.71-2.48.86.86,0,0,1,.48-.4l16.13-5.71c.82,1.37.77,1.57-.63,2.15-2.43,1-4.86,2-7.3,3-.12,0-.28.06-.35.15-.2.25-.35.53-.53.8.32.13.69.43.95.36.92-.27,1.79-.68,2.69-1,1.52-.58,3-1.16,4.58-1.72a1.41,1.41,0,0,1,1,0c-1.6.92-3.21,1.83-4.8,2.76-.88.52-1.77,1-2.6,1.64a4.28,4.28,0,0,0-.78,1.06,3.78,3.78,0,0,0,1.38.08c1.3-.45,2.56-1,3.84-1.52.32-.13.65-.22.93-.31-.67,1.79-2.4,1.86-3.86,2.38L79.7,126.26c-2,.71-4,1.48-6,2.11a4.58,4.58,0,0,1-2.15,0,34,34,0,0,1-10.41-3.87c-2.1-1.19-2.16-1.64-.44-3.28.43-.4.78-1.09,1.57-.59.07,0,.25,0,.34-.12,2.28-1.78,5-2.31,7.73-3a8.16,8.16,0,0,1,1.5-.33c.87-.06,1.74,0,2.61,0,.51,0,1,.09,1.53.13,1.3.1,2.61.21,3.92.29a7.72,7.72,0,0,0,1.34,0C82,117.52,82.48,117.23,82.35,116.3Zm-8.54,7.78.1.28A117.82,117.82,0,0,1,102,114.87a1.8,1.8,0,0,0-.95-.27,22.24,22.24,0,0,0-2.94.41,98.84,98.84,0,0,0-22.62,8.18Z" transform="translate(-0.11 -0.13)"/><path class="cls-1" d="M61,4.86C59.35,6.56,57.65,8.22,56.1,10c-1.88,2.16-3.6,4.48-4.05,7.41a17.23,17.23,0,0,0,3.94,14c3.35,4.11,7.8,6.57,12.79,8.15a3.72,3.72,0,0,1,1,.43c-3.43.73-6.85,1.23-10.05-.69A26.29,26.29,0,0,1,48.68,26.16a12.14,12.14,0,0,1,1.56-12.39,26.31,26.31,0,0,1,9.49-8.38C60.15,5.19,60.59,5,61,4.86Z" transform="translate(-0.11 -0.13)"/><path class="cls-1" d="M126.2,131.28c.53,2.61,1,5.08,1.53,7.55.09.48-.78,1.14-1.35,1.16a2.75,2.75,0,0,0-1.39.27c-3.55,2.44-7.45,2.2-11.38,1.5-1.8-.32-1.9-.59-1.88-2.41,0-2.89.05-2.8,2.75-3.72,3.66-1.25,7.26-2.67,10.88-4Z" transform="translate(-0.11 -0.13)"/><path class="cls-1" d="M134.17,126.68a53.65,53.65,0,0,0,14-15c0,.47.05.77.06,1.06a48.91,48.91,0,0,1,.17,5.94,11.48,11.48,0,0,1-1.31,3.44c-.29.66-.72,1.25-1.08,1.88a7.69,7.69,0,0,1-5.35,3.72,24,24,0,0,1-4.79.2C135,127.86,134.77,127.65,134.17,126.68Z" transform="translate(-0.11 -0.13)"/><path class="cls-1" d="M49.14,109.16c-.91.29-1.19-.24-1.44-.83a45,45,0,0,1-3.64-13.4A59.91,59.91,0,0,1,45,76.56c1.16-5.18,2.73-10.23,5.73-14.69A40.84,40.84,0,0,1,60.23,52a5.35,5.35,0,0,1-.29.47c-.14.18-.3.34-.44.51A58.39,58.39,0,0,0,47.18,74,54,54,0,0,0,45,90.59a45.91,45.91,0,0,0,4,18C49,108.75,49.07,108.94,49.14,109.16Z" transform="translate(-0.11 -0.13)"/><path class="cls-1" d="M22.79,131.11c.73.11,1.2.15,1.66.26A12,12,0,0,1,32,137c.82,1.36.28,2.4-1.32,2.52a10.14,10.14,0,0,1-2.57-.16,1.77,1.77,0,0,1-1-.75c-1.28-2-2.52-4-3.75-6A10.71,10.71,0,0,1,22.79,131.11Z" transform="translate(-0.11 -0.13)"/><path class="cls-1" d="M112.78,134.18a14,14,0,0,1,1.91-2.41,62.46,62.46,0,0,1,5.4-3.81c1.42-.89,3.09-.74,4.69-.6,1.15.1.73,1.17,1,1.81s-.1.77-.58,1a72.41,72.41,0,0,1-11.63,3.93A7.2,7.2,0,0,1,112.78,134.18Z" transform="translate(-0.11 -0.13)"/><path class="cls-1" d="M38.9,159.84C45,162,51,164.36,56.32,168.16c-2.2-.64-4.43-1.2-6.6-1.94-2.75-.94-5.46-2-8.17-3.06C39.85,162.48,39.42,161.88,38.9,159.84Z" transform="translate(-0.11 -0.13)"/><path class="cls-1" d="M55.24,54.74A40.09,40.09,0,0,1,67.66,45l.16.22Z" transform="translate(-0.11 -0.13)"/><path class="cls-1" d="M71,44.32c1.72-1.06,3.44-2.49,5.88-2.45.84,0,1.36.14,1.52,1Z" transform="translate(-0.11 -0.13)"/><path class="cls-1" d="M63.57,127.09l6.73,2.25a3.19,3.19,0,0,1-4.12,0c-.92-.67-1.81-1.4-2.71-2.1Z" transform="translate(-0.11 -0.13)"/><path class="cls-1" d="M141.7,24.61c-3.53,2.32-7.53,3.54-11.57,4.65a39.72,39.72,0,0,0,4-1.67,22.23,22.23,0,0,1,5.26-2.2c.43-.11.77-.53,1.18-.75a6.16,6.16,0,0,1,1-.33Z" transform="translate(-0.11 -0.13)"/><path class="cls-1" d="M118.9,108.92a1.18,1.18,0,0,1,.09.17c.41,1.66.4,1.63-1.25,2-1.32.32-2.62.73-4.08,1.14.23-.18.35-.27.48-.35Z" transform="translate(-0.11 -0.13)"/><path class="cls-1" d="M47.93,112.5a18.43,18.43,0,0,1-2.15-.48,15.16,15.16,0,0,1-1.81-.91C46,110.44,47.29,110.86,47.93,112.5Z" transform="translate(-0.11 -0.13)"/><path class="cls-1" d="M146.27,112.54l1.62-5.51C148.55,108.56,148,110.52,146.27,112.54Z" transform="translate(-0.11 -0.13)"/><path class="cls-1" d="M32.71,158.18c3.08.44,3.2.51,4,2.51Z" transform="translate(-0.11 -0.13)"/><path class="cls-1" d="M122.53,161.5c.18,1,.38,1.91.55,2.87.11.64-.24.92-1,1l.19-3.86Z" transform="translate(-0.11 -0.13)"/><path class="cls-1" d="M28.95,141.46l3.57-.4c-.53,1-1.53.91-2.46.88a6,6,0,0,1-1.18-.26Z" transform="translate(-0.11 -0.13)"/><path class="cls-1" d="M25.79,141.28l-3.24-2.47.21-.27,3.36,2.35Z" transform="translate(-0.11 -0.13)"/><path class="cls-1" d="M20.91,132.66l2,3.2-.28.18-2.1-3.12Z" transform="translate(-0.11 -0.13)"/><path class="cls-1" d="M91.79,36.48l4.28-.35,0,.26-4.28.4Z" transform="translate(-0.11 -0.13)"/><path class="cls-1" d="M52.25,116l-1.93-2.28.28-.24,1.92,2.26Z" transform="translate(-0.11 -0.13)"/><path class="cls-1" d="M18.61,97.17c1.3-.32,1.35.61,1.55,1.38Z" transform="translate(-0.11 -0.13)"/><path class="cls-1" d="M80.48,39.53c1-.21.79.69,1.14,1.18C80.39,41.08,81.25,39.54,80.48,39.53Z" transform="translate(-0.11 -0.13)"/><path class="cls-1" d="M62.82,130l1.46,1-1.39.14Z" transform="translate(-0.11 -0.13)"/><path d="M110.35,97c-2.46-.17-3.43-1.88-2.3-4.05.43-.83,1.22-.71,1.91-.85a3.31,3.31,0,0,1,3.39,1.3,1.89,1.89,0,0,1-.56,2.86A13.6,13.6,0,0,1,110.35,97Z" transform="translate(-0.11 -0.13)"/><path d="M102.56,82.68a19.45,19.45,0,0,1-2.11,0c-.29,0-.55-.34-.82-.52.27-.17.52-.46.8-.49,1.84-.2,3.72-.2,5.53-.54,3.43-.65,6.82-1.49,10.23-2.25a1.84,1.84,0,0,1,.75-.13c.27.07.65.26.71.47s-.21.53-.41.73a1.32,1.32,0,0,1-.63.22c-3.73.8-7.45,1.63-11.18,2.39a24.42,24.42,0,0,1-2.86.25Z" transform="translate(-0.11 -0.13)"/><path d="M63.29,96.93q-2.81,0-2.78-1.9c0-1.33,1.11-2.88,2-2.9,1.79,0,3.45,1.32,3.43,2.79S65.13,96.94,63.29,96.93Z" transform="translate(-0.11 -0.13)"/><path d="M57.43,80.7a2.59,2.59,0,0,1,.59-.18l11.16.77a2.64,2.64,0,0,1,.76.08c.17.07.39.29.4.44s-.22.34-.39.45a.87.87,0,0,1-.47,0c-3.16-.18-6.31-.35-9.47-.55a6,6,0,0,1-1.58-.36A5,5,0,0,1,57.43,80.7Z" transform="translate(-0.11 -0.13)"/><path d="M73.81,124.08l1.67-.89A98.84,98.84,0,0,1,98.1,115a22.24,22.24,0,0,1,2.94-.41,1.8,1.8,0,0,1,.95.27,117.82,117.82,0,0,0-28.08,9.49Z" transform="translate(-0.11 -0.13)"/></g></g></g></svg>