<svg xmlns="http://www.w3.org/2000/svg" viewBox="0 0 105.65 131.87"><defs><style>.cls-1{fill:#009444;}.cls-2{fill:#f7941d;}.cls-3,.cls-4{fill:#fff;}.cls-4{stroke:#000;stroke-miterlimit:10;stroke-width:0.77px;}.cls-5{fill:#f0f;}.cls-6{fill:#93278f;}</style></defs><title>landing</title><g id="Layer_2" data-name="Layer 2"><g id="Layer_3" data-name="Layer 3"><path d="M78.14,67.13c-1.29,1.83.49,3.65,1,3.33,3.73-2.3,12.35-23.64,9.11-29.19-.68-1.16-2.13-1.32-2.3-.38C85.82,41.58,85.91,56.12,78.14,67.13Z"/><path d="M21.17,61.63c1.29,1.83-.59,3.82-.94,3.33-7.17-10-10.07-22.19-6.83-27.74.68-1.16,1.37-1.45,1.54-.51C15.07,37.4,13.41,50.62,21.17,61.63Z"/><path class="cls-1" d="M98.07,61s-19.63,7.17-36-4.61C55.76,51.9,46.52,44.64,47,38.16c.43-5.43,13.7-8,20.31-3.93,6.28,3.83,14.51,23.21,30,26.13A.86.86,0,0,1,98.07,61Z"/><path d="M49.25,128.79c.92,2.39-12.46,3.76-13.66,2.73-2.39-2,7.93-3.34,7.51-6-.68-4.27-.51-2.39-3.24-21-.11-.74,1.17-.85,1.37-.85C42.5,103.7,46.18,120.77,49.25,128.79Z"/><path d="M53.18,129.65c-.09,2.56,13.41,2.14,14,.68,1.17-2.92-8.71-2.76-9.56-5.29-1.37-4.1-4.27-14.85-7.56-20.43-.38-.64-2.88,0-3,.12S53.52,119.58,53.18,129.65Z"/><path class="cls-2" d="M80.32,78.27c0,16.4-17,27.65-35.85,27.65S16.05,93.65,16.05,77.24,28.74,48.57,47.55,48.57,80.32,61.87,80.32,78.27Z"/><path class="cls-3" d="M53.69,77.5c-3.33,2.22-10.5,4.52-16.13,2.39-5.4-2-4.69-4.35-4.1-5.72,1-2.38,14-8,19.8-5.55C58.76,70.93,56.86,75.39,53.69,77.5Z"/><ellipse cx="31.2" cy="63.8" rx="1.66" ry="1.58"/><ellipse cx="60.09" cy="64.66" rx="1.66" ry="1.58"/><path class="cls-4" d="M17.48,33.61c.58-1-.08-2.34-1.17-1.69a7.49,7.49,0,0,0,1-2.9c.34-1.9-.57-2.94-1.28-2.94s-1.15-.17-3.06,4c-3.47-1.77-4.64-5.44-7.19-5.44-2.9,0-6.66,6.57-5,11.69.88,2.77,4.52,3.35,7.31,2.9a.68.68,0,0,0,.31.88c1.63,1,3.11,0,5.49-1.95C15.88,36.53,16.14,35.91,17.48,33.61Z"/><path class="cls-4" d="M83.77,38.33c-.58-1-1-2.94.9-3.58.53.13,1.31.54,1.3.2a14.84,14.84,0,0,1,.11-4.17c.36-1.9,1.84-3.21,2.43-2.82,1.15.77,1.54,1.79,1.41,5.38,3.47-1.77,10-5.76,12.55-5.76,2.9,0,4.1,5.89.9,9.86-1.82,2.26-7.49,5.1-10.29,4.65a.68.68,0,0,1-.31.88c-1.63,1-2.77,1.44-5.15-.53C85.62,40.76,85.11,40.63,83.77,38.33Z"/><path class="cls-1" d="M50.75,49.46l-2.18-.13a13.73,13.73,0,0,0,1.54-5.5c0-2.65,2.08.9,3.07.9S50.75,49.46,50.75,49.46Z"/></g><g id="Layer_4" data-name="Layer 4"><path class="cls-5" d="M32,9.31s-3.89,1.36-4.86,2.43c-1.44,1.58-1.68,8.39-1.68,8.39s-.62-6.8-2.1-8.39c-.92-1-5.12-2.35-5.12-2.35s4.5-.83,5.45-2C24.93,5.9,25.51,0,25.51,0s.15,6,1.34,7.55C27.84,8.8,32,9.31,32,9.31Z"/><path class="cls-6" d="M38.17,20.64a8.92,8.92,0,0,0-2.37,1.19c-.7.77-.82,4.09-.82,4.09s-.3-3.32-1-4.09a9.81,9.81,0,0,0-2.49-1.14s2.2-.4,2.66-1,.86-3.6.86-3.6.07,2.95.65,3.68S38.17,20.64,38.17,20.64Z"/></g></g></svg>