<svg xmlns="http://www.w3.org/2000/svg" viewBox="0 0 278.07 189.03"><defs><style>.cls-1{fill:#fff;}</style></defs><title>patience</title><g id="Layer_2" data-name="Layer 2"><g id="Layer_7" data-name="Layer 7"><g id="Ofgxt4.tif"><path class="cls-1" d="M.08,0H278.15q0,94.51,0,189H.08Q.08,94.54.08,0ZM118.49,123.63l-2.92,1.6c-.29.16-.51.33-.87,0a51.93,51.93,0,0,0-9-6.47,14.94,14.94,0,0,1-1.86-1.28,133.71,133.71,0,0,0-15.48-11A295.65,295.65,0,0,0,53.81,88.54a42.32,42.32,0,0,0-9.46-3.2A9.91,9.91,0,0,1,42,84.55c-3.15-1.43-6.25-3-9.44-4.35a24,24,0,0,0-8.83-1.82c-.25,0-.52.23-.77.35.13.25.19.61.4.75,1.6,1.08,3.22,2.11,4.84,3.17a5.33,5.33,0,0,1,.44.36c-.56,0-1-.1-1.48-.08-.16,0-.3.21-.46.33.11.13.19.3.33.38a2.82,2.82,0,0,0,.67.22l2,.49c.51.13.66.45.66,1,0,1.56,0,3.13.14,4.69.32,4.58.73,9.15,1,13.72.38,6.38.71,12.76,1,19.14.39,8.31.67,16.62,1.09,24.93.24,4.66.68,9.3,1.06,14,0,.52-.08.73-.58.87a32.77,32.77,0,0,1-8,1.12,59,59,0,0,1-19.32-2.27,1.1,1.1,0,0,1-.94-1.1c-.36-4.49-.8-9-1.14-13.48-.33-4.31-.59-8.63-.84-13-.32-5.36-.6-10.72-.89-16.09-.23-4.3-.44-8.59-.68-12.89-.28-5-.67-10-.84-15s-.16-10-.19-15c-.06-9.34,0-18.67,1.26-27.95A64.69,64.69,0,0,1,5.27,34.3,25.12,25.12,0,0,1,15.35,21,85,85,0,0,1,34,11.9c.27-.09.53-.21.93-.37-.22-.08-.28-.11-.32-.11-.23.05-.46.1-.68.17a76.35,76.35,0,0,0-13.58,5.78,39.34,39.34,0,0,0-9.59,6.95,29.77,29.77,0,0,0-6.63,12.1C1.8,44.06.95,51.94.56,59.87.32,64.66.3,69.46.24,74.26Q0,88.07.88,101.86c.35,6,.63,12,.94,18,.17,3.23.33,6.46.52,9.68.27,4.61.55,9.21.87,13.81.31,4.45.68,8.89,1,13.33.11,1.34.24,2.68.38,4.21-1.49-.86-3.32-.68-4.15-2.47a.87.87,0,0,0,.32,1.38c1.09.6,2.22,1.15,3.36,1.66a.92.92,0,0,1,.65.83c.49,3.66,1,7.33,1.57,11a12.61,12.61,0,0,0,1,2.78c.11.26.45.43.69.64l.22-.17C6.87,171.83,6.54,167,6,162.13a56.75,56.75,0,0,0,29,1.46c.25.52.47,1.22,1.24,1s.29-1,.3-1.6c.86-.33,1.76-.61,2.59-1,3.53-1.74,7-3.53,10.56-5.27,1.54-.76,3.12-1.43,4.7-2.11a1.33,1.33,0,0,1,1.79.58c1.19,1.68,2.44,3.32,3.71,4.94a22.43,22.43,0,0,0,14.5,8.47,69.5,69.5,0,0,0,12.41.4,9.46,9.46,0,0,0,1.47-.18,51,51,0,0,0,14.79-5.1c.64-.34,1.18-.44,1.73.2a13.64,13.64,0,0,0,7.92,4.55c.55.11.81.32.76.92a4.19,4.19,0,0,0,.09,1.47c.09.3.46.52.7.78.18-.28.47-.55.5-.84a13.78,13.78,0,0,0-.06-1.87h.54c3.1.13,6.19.35,9.29.38a24.75,24.75,0,0,0,9.49-2.06A47.11,47.11,0,0,0,146.1,160c.94-.76,2-1.43,2.94-2.14.46.72.81,1.36,1.24,1.95,2.08,2.85,4.54,5.27,8.15,5.92a24,24,0,0,0,9.71-.22,47.29,47.29,0,0,0,9.89-3.85,79.93,79.93,0,0,0,11.58-6.34,1.12,1.12,0,0,1,1.52,0,16.81,16.81,0,0,0,8.94,3.41,57.85,57.85,0,0,0,8.59,0c5.18-.55,10.34-1.31,15.47-2.2,3.66-.63,7.47-1.05,10.32-4A6.18,6.18,0,0,0,239,155c.93.1,1.87.07,2.81.12a11.22,11.22,0,0,0,8.44-3.27,7,7,0,0,1,3.83-1.53c0,.22.06.39.08.57.4,3.6.71,7.21,1.21,10.8a32.36,32.36,0,0,1,.43,9.54,64.73,64.73,0,0,0-.34,7.73c0,.46-.05,1,.6,1.09s.65-.48.73-.9c.32-1.63.58-3.27.93-4.9a19.12,19.12,0,0,0,.22-5.08,37,37,0,0,1,.22-5.53c.18-1.79.57-3.55.86-5.32l.83-4.94c.12.09.15.16.15.23-.15,3.67-.34,7.34-.43,11-.12,4.87-.2,9.75-.2,14.62a4.87,4.87,0,0,0,1.85,4.21.78.78,0,0,1,.18.6c-.1,1.06-.27,2.12-.33,3.19,0,.76-.37,1-1.11,1.06-1.74,0-3.48.13-5.31.2l6.26.4a.89.89,0,0,0,1-.76c.46-2.07,1-4.13,1.32-6.23.27-1.8.26-3.64.35-5.46.09-1.61.12-3.23.24-4.84.26-3.51.69-7,.8-10.52.14-4.48,0-9,0-13.45,0-.52.12-.81.65-1a12.53,12.53,0,0,0,1.82-.71c.22-.1.36-.37.54-.57a2.18,2.18,0,0,0-.7-.32c-.77,0-1.55,0-2.16,0l-2.12-21c.57,0,1.24.1,1.91.13,2.27.08,4.53.16,6.8.21.22,0,.45-.23.67-.36a3.43,3.43,0,0,0-.6-.38,2.49,2.49,0,0,0-.62-.08c-2.69-.31-5.39-.63-8.08-.92-.47-.05-.7-.21-.75-.7a22.71,22.71,0,0,0-.32-2.32,3.07,3.07,0,0,0-.48-.84,4.36,4.36,0,0,0-.37.91c-.12.72-.17,1.46-.25,2.18l-.25,0c0-.81,0-1.61,0-2.42a2.81,2.81,0,0,0-.34-.84,3.57,3.57,0,0,0-.39.84c-.16.86-.26,1.74-.39,2.7l-3.34-.57c.23-2.29.47-4.46.66-6.64.05-.59.22-.79.85-.76,2.24.1,4.48.17,6.72.17a5.68,5.68,0,0,0,1.87-.45c.18-.07.25-.44.37-.68-.26-.1-.54-.32-.78-.28a38.51,38.51,0,0,1-7.82,0l.67-.62-1.43-.8c.08-.56.15-1.28.32-2a.77.77,0,0,1,.58-.42c1.41-.08,2.82-.2,4.22-.15,4.5.18,9-.61,13.52.39.24.05.55-.2.83-.3-.2-.24-.35-.59-.61-.7a3.35,3.35,0,0,0-1.29-.24q-8.06,0-16.11,0h-1c.34-1.89.65-3.66,1-5.43s.31-1.84,2.18-1.82c4,.06,8,.14,12,.17.28,0,.55-.3.83-.46-.24-.18-.47-.48-.73-.53-1.05-.18-2.11-.31-3.18-.42-2.11-.2-4.22-.37-6.34-.56v-.22h14.72v-.85H259.27c.28-1.77.56-3.49.81-5.22a142.91,142.91,0,0,0,1.8-20.31c0-4.51,0-9,0-13.53a59.21,59.21,0,0,0-.39-6.63c-.45-3.57-1.07-7.11-1.63-10.66a43.75,43.75,0,0,0-3.68-12.8c-.9-1.81-2-3.52-3.1-5.24a1.91,1.91,0,0,0-1.67-.91c.19.28.28.42.38.55a18.44,18.44,0,0,1,1.54,1.95A37,37,0,0,1,257.77,37c.64,3.22,1.12,6.47,1.58,9.72.43,3,.93,6,1.06,9,.2,4.53.12,9.07.13,13.61,0,2.45.06,4.91-.15,7.35-.47,5.27-1.07,10.52-1.67,15.78-.22,1.91-.59,3.8-.9,5.69a2.65,2.65,0,0,1-.39.08c-3.39.08-6.77.21-10.16.21-8.06,0-16.12-.07-24.17-.14a31.73,31.73,0,0,1-4.44-.29c-4.79-.72-9.57-1.54-14.36-2.3a2.25,2.25,0,0,0-.76.16c.19.17.36.42.58.49,1.68.47,3.37.91,5.06,1.36l1.68.45,0,.21H200.36s0,0,0-.05a46.64,46.64,0,0,0,2.59-13.22.94.94,0,0,1,.47-.61c.94-.51,1.92-.94,2.86-1.44a22.8,22.8,0,0,0,9.54-8.66c.37-.65.73-1.3,1-1.86,1.52.49,2.95,1,4.39,1.38a2.86,2.86,0,0,0,1.08-.14v-.31a7.07,7.07,0,0,0-.79-.4c-.66-.24-1.33-.45-2-.68-.16-.06-.42-.22-.41-.29.17-.88-.55-.82-1-1s-.59-.29-.53-.76a5.06,5.06,0,0,0-.14-1.2l-.31,0-.6,1.46-2.26-1,.79-2.29-.23-.09c-.23.37-.46.73-.68,1.1-.39.66-.8.8-1.48.3a7.57,7.57,0,0,0-1.82-.86,12.94,12.94,0,0,1-1.37-.35A48.56,48.56,0,0,1,199,60a5.24,5.24,0,0,1-1-1.3c-1.11-2-2.09-4-3.3-5.94a6.85,6.85,0,0,1-1.09-3.88c0-5.84-.09-11.68.82-17.48.15-1,.34-2,.46-2.93,0-.21-.18-.44-.28-.66-.22.11-.55.17-.64.34a5.17,5.17,0,0,0-.49,1.38,76.36,76.36,0,0,0-1.24,12.67,2.52,2.52,0,0,1-.17.79c-.1.26-.34.5-.37.76-.08.75-.08,1.51-.1,2.26s0,1.36,0,2.17l-1-1.21A46.85,46.85,0,0,0,177.47,35.7,51.77,51.77,0,0,0,154.24,29a64,64,0,0,0-11.95.25,30.4,30.4,0,0,1-3.48.41c-1.53,0-3.07-.07-4.61-.12h-1.13c.11-.27.16-.42.23-.55q4.34-8.1,8.7-16.19a.7.7,0,0,1,.53-.32,45.23,45.23,0,0,1,6.83.65c12.17,2.89,24.27,6.1,36.18,9.95,2.9.94,5.79,1.93,8.71,2.79a17.51,17.51,0,0,0,3.31.44c.2,0,.41-.21.62-.32-.18-.16-.35-.33-.54-.49s-.15,0-.22-.06c-3.36-1-6.75-2-10.09-3.08-11.5-3.77-23.2-6.84-35-9.71a27.79,27.79,0,0,0-9.13-1,3,3,0,0,1-.54,0l-.56-.9a3.45,3.45,0,0,0-.74.67c-.35.58-.59,1.21-.91,1.81q-3.74,7-7.49,14c-.34.64-.6,1.33-1,2-.1.17-.48.18-.73.27,0-.49-.56-.85-.14-1.47.82-1.21,1.52-2.49,2.23-3.77a57.56,57.56,0,0,0,4.9-10.89,14.33,14.33,0,0,0,.46-2.29c0-.22-.19-.48-.29-.72-.18.21-.43.4-.52.64-.2.56-.28,1.16-.47,1.73A57.1,57.1,0,0,1,132.69,23c-1.44,2.51-3,5-4.51,7.41-.55.89-1.16,1-2,.53-.6,1.18-1.65,1.25-2.8,1.1-.64-.08-1.3-.1-1.95-.12A1.57,1.57,0,0,0,121,32v.18l1.78.32a1.24,1.24,0,0,1-.59.32c-6.9,1.84-13.79,3.72-20.7,5.5a57.54,57.54,0,0,1-11.38,2c-.78,0-1.6.2-1.79-.91,0-.07-.15-.13-.38-.31-.05.13-.1.26-.16.37-.57,1.12,0,2.24,1.22,2.21a31.8,31.8,0,0,0,6-.51c5.65-1.24,11.26-2.66,16.88-4,1.49-.36,3-.79,4.43-1.19a.77.77,0,0,1-.41.35c-1.88.71-3.74,1.46-5.64,2.1a73.11,73.11,0,0,1-18.55,3.84c-1.79.12-3.59.17-5.39.29a3.89,3.89,0,0,0-1,.35l0,.39,2.63.4c.27.86-.13,1.21-.86,1.36a2.82,2.82,0,0,0-.68.19,2.13,2.13,0,0,0-.43.37c.19.1.38.28.55.27.5,0,1-.16,1.5-.25.12.62.21,1.18.34,1.73a34.38,34.38,0,0,0,4,9.38,27.84,27.84,0,0,0,5.44,7.12,1.06,1.06,0,0,1,.12.93,55.84,55.84,0,0,0-3.35,17.28c-.15,4.7-.11,9.4,1.23,14,2.7,9.2,8.17,16.52,15.52,22.5C113.6,120.32,116,121.84,118.49,123.63Zm127-106.92c.76-.33.91-1.12.29-1.58a2.94,2.94,0,0,0-1.35-.55c-1.32-.16-2.65-.25-4-.33-3.82-.24-7.65-.4-11.47-.69-5.12-.39-10.24-.8-15.34-1.36-5.57-.6-11.14-1.22-16.67-2.1-11.58-1.84-23.12-3.9-34.7-5.77-5-.8-10-1.41-15-2-4.69-.53-9.39-.94-14.09-1.29-4.42-.33-8.85-.72-13.27-.72C103.8.36,87.74.5,71.68.63,64.85.68,58,.82,51.18.94a8.35,8.35,0,0,0-1.86.22,4.77,4.77,0,0,0-1.1.6l.13.28a9.11,9.11,0,0,1,4.56-.64c4.17,0,8.34.14,12.52.12,11.47-.05,22.95-.2,34.42-.22,11.18,0,22.38-.17,33.53.91,7.26.71,14.54,1.28,21.76,2.29,9.83,1.38,19.61,3.13,29.41,4.7,6.66,1.07,13.31,2.27,20,3.13,6.95.89,13.94,1.53,20.92,2.11,5.35.45,10.72.63,16.08.94,1,.05,1.93.09,2.89.17C245.12,15.6,245.67,15.83,245.48,16.71ZM196.42,182.56l-.07-.16-2.64.62a117.14,117.14,0,0,1-26.4,3.21c-20.89.17-41.75-.72-62.63-1.48-12.82-.47-25.65-.51-38.48-.67-13.11-.16-26.23.4-39.32-.69a77.19,77.19,0,0,1-11.81-1.79,12.69,12.69,0,0,1-5.16-2.34,1.06,1.06,0,0,0-.32-.12,1.2,1.2,0,0,0,.45.73,15.19,15.19,0,0,0,2.28,1.33A44.87,44.87,0,0,0,25,184a212.74,212.74,0,0,0,21.39,1c24.74,0,49.48.17,74.21,1.34,9.61.46,19.23.67,28.85.74,10,.07,20.08.44,30.08-.68a82,82,0,0,0,16-3.36A5.51,5.51,0,0,0,196.42,182.56Z" transform="translate(-0.08 -0.02)"/><path d="M118.49,123.63c-2.51-1.79-4.89-3.31-7.07-5.08-7.36-6-12.83-13.3-15.52-22.5-1.34-4.56-1.38-9.26-1.23-14A55.84,55.84,0,0,1,98,64.82a1.06,1.06,0,0,0-.12-.93,27.84,27.84,0,0,1-5.44-7.12,34.38,34.38,0,0,1-4-9.38c-.13-.55-.22-1.12-.34-1.73-.5.09-1,.21-1.5.25-.18,0-.37-.17-.55-.27a2.13,2.13,0,0,1,.43-.37,2.82,2.82,0,0,1,.68-.19c.72-.15,1.13-.5.86-1.36l-2.63-.4,0-.39a3.89,3.89,0,0,1,1-.35c1.79-.12,3.59-.17,5.39-.29a73.11,73.11,0,0,0,18.55-3.84c1.9-.65,3.76-1.4,5.64-2.1a.77.77,0,0,0,.41-.35c-1.48.4-2.95.83-4.43,1.19-5.62,1.37-11.23,2.79-16.88,4a31.8,31.8,0,0,1-6,.51c-1.25,0-1.79-1.09-1.22-2.21.06-.12.1-.24.16-.37.23.19.37.24.38.31.19,1.11,1,1,1.79.91a57.54,57.54,0,0,0,11.38-2c6.91-1.79,13.8-3.66,20.7-5.5a1.24,1.24,0,0,0,.59-.32L121,32.21V32a1.57,1.57,0,0,1,.45-.12c.65,0,1.31,0,1.95.12,1.15.15,2.2.08,2.8-1.1.81.5,1.42.36,2-.53,1.53-2.46,3.08-4.9,4.51-7.41a57.1,57.1,0,0,0,4.8-10.25c.19-.57.27-1.17.47-1.73.09-.24.34-.43.52-.64.1.24.32.49.29.72a14.33,14.33,0,0,1-.46,2.29,57.56,57.56,0,0,1-4.9,10.89c-.71,1.28-1.41,2.56-2.23,3.77-.42.62.12,1,.14,1.47.25-.08.63-.09.73-.27.37-.62.63-1.31,1-2q3.74-7,7.49-14c.32-.59.56-1.23.91-1.81a3.45,3.45,0,0,1,.74-.67l.56.9a3,3,0,0,0,.54,0,27.79,27.79,0,0,1,9.13,1c11.75,2.87,23.45,5.94,35,9.71,3.34,1.1,6.72,2.06,10.09,3.08.07,0,.17,0,.22.06s.36.32.54.49c-.21.11-.43.34-.62.32a17.51,17.51,0,0,1-3.31-.44c-2.92-.86-5.81-1.85-8.71-2.79-11.91-3.85-24-7.06-36.18-9.95a45.23,45.23,0,0,0-6.83-.65.7.7,0,0,0-.53.32q-4.37,8.09-8.7,16.19c-.07.13-.12.28-.23.55h1.13c1.54,0,3.08.16,4.61.12a30.4,30.4,0,0,0,3.48-.41A64,64,0,0,1,154.24,29a51.77,51.77,0,0,1,23.23,6.67A46.85,46.85,0,0,1,190.62,47l1,1.21c0-.81,0-1.49,0-2.17s0-1.51.1-2.26c0-.26.27-.5.37-.76a2.52,2.52,0,0,0,.17-.79,76.36,76.36,0,0,1,1.24-12.67,5.17,5.17,0,0,1,.49-1.38c.09-.18.42-.23.64-.34.1.22.3.45.28.66-.12,1-.31,2-.46,2.93-.91,5.8-.79,11.64-.82,17.48a6.85,6.85,0,0,0,1.09,3.88c1.21,1.91,2.19,4,3.3,5.94a5.24,5.24,0,0,0,1,1.3,48.56,48.56,0,0,0,10.51,7.41,12.94,12.94,0,0,0,1.37.35,7.57,7.57,0,0,1,1.82.86c.68.5,1.1.37,1.48-.3.22-.37.45-.73.68-1.1l.23.09-.79,2.29,2.26,1,.6-1.46.31,0a5.06,5.06,0,0,1,.14,1.2c-.06.48.12.64.53.76s1.19.08,1,1c0,.07.25.23.41.29.66.24,1.34.44,2,.68a7.07,7.07,0,0,1,.79.4v.31a2.86,2.86,0,0,1-1.08.14c-1.45-.41-2.87-.9-4.39-1.38-.31.56-.68,1.21-1,1.86a22.8,22.8,0,0,1-9.54,8.66c-.94.5-1.92.94-2.86,1.44a.94.94,0,0,0-.47.61,46.64,46.64,0,0,1-2.59,13.22s0,0,0,.05h10.48l0-.21-1.68-.45c-1.69-.45-3.38-.88-5.06-1.36-.22-.06-.39-.32-.58-.49a2.25,2.25,0,0,1,.76-.16c4.79.76,9.57,1.57,14.36,2.3a31.73,31.73,0,0,0,4.44.29c8.06.07,16.12.13,24.17.14,3.39,0,6.77-.13,10.16-.21a2.65,2.65,0,0,0,.39-.08c.3-1.89.68-3.78.9-5.69.6-5.25,1.2-10.51,1.67-15.78.22-2.44.15-4.9.15-7.35,0-4.54.07-9.08-.13-13.61-.13-3-.64-6-1.06-9-.47-3.25-.95-6.5-1.58-9.72a37,37,0,0,0-4.48-11.79,18.44,18.44,0,0,0-1.54-1.95c-.1-.13-.19-.27-.38-.55a1.91,1.91,0,0,1,1.67.91c1.07,1.72,2.2,3.42,3.1,5.24a43.75,43.75,0,0,1,3.68,12.8c.56,3.55,1.18,7.1,1.63,10.66a59.21,59.21,0,0,1,.39,6.63c.06,4.51,0,9,0,13.53a142.91,142.91,0,0,1-1.8,20.31c-.25,1.73-.53,3.45-.81,5.22h18.67v.85H263.22v.22c2.11.18,4.23.36,6.34.56,1.06.1,2.13.23,3.18.42.27,0,.49.35.73.53-.28.16-.56.46-.83.46-4,0-8-.12-12-.17-1.87,0-1.86,0-2.18,1.82s-.63,3.54-1,5.43h1q8.06,0,16.11,0a3.35,3.35,0,0,1,1.29.24c.26.11.41.46.61.7-.28.11-.59.36-.83.3-4.48-1-9-.21-13.52-.39-1.4-.06-2.81.06-4.22.15a.77.77,0,0,0-.58.42c-.16.7-.24,1.42-.32,2l1.43.8-.67.62a38.51,38.51,0,0,0,7.82,0c.24,0,.52.18.78.28-.12.23-.19.61-.37.68a5.68,5.68,0,0,1-1.87.45c-2.24,0-4.48-.07-6.72-.17-.63,0-.8.16-.85.76-.19,2.18-.43,4.35-.66,6.64l3.34.57c.13-1,.23-1.83.39-2.7a3.58,3.58,0,0,1,.39-.84,2.81,2.81,0,0,1,.34.84c0,.8,0,1.61,0,2.42l.25,0c.08-.73.13-1.46.25-2.18a4.36,4.36,0,0,1,.37-.91,3.07,3.07,0,0,1,.48.84A22.71,22.71,0,0,1,262,122c0,.48.28.65.75.7,2.7.29,5.39.61,8.08.92a2.49,2.49,0,0,1,.62.08,3.43,3.43,0,0,1,.6.38c-.22.12-.45.36-.67.36-2.27,0-4.53-.13-6.8-.21-.67,0-1.34-.09-1.91-.13l2.12,21c.61,0,1.39,0,2.16,0a2.18,2.18,0,0,1,.7.32c-.18.19-.32.46-.54.57a12.53,12.53,0,0,1-1.82.71c-.53.15-.65.44-.65,1,0,4.49.12,9,0,13.45-.11,3.51-.54,7-.8,10.52-.12,1.61-.15,3.23-.24,4.84-.1,1.82-.09,3.66-.35,5.46-.31,2.09-.86,4.16-1.32,6.23a.89.89,0,0,1-1,.76l-6.26-.4c1.83-.07,3.57-.16,5.31-.2.74,0,1.07-.3,1.11-1.06.06-1.06.24-2.12.33-3.19a.78.78,0,0,0-.18-.6,4.87,4.87,0,0,1-1.85-4.21c0-4.87.08-9.75.2-14.62.09-3.67.29-7.34.43-11,0-.07,0-.15-.15-.23l-.83,4.94c-.3,1.77-.68,3.54-.86,5.32a37,37,0,0,0-.22,5.53,19.12,19.12,0,0,1-.22,5.08c-.36,1.62-.62,3.27-.93,4.9-.08.42-.1,1-.73.9s-.61-.64-.6-1.09a64.73,64.73,0,0,1,.34-7.73,32.36,32.36,0,0,0-.43-9.54c-.5-3.59-.81-7.2-1.21-10.8,0-.18,0-.35-.08-.57a7,7,0,0,0-3.83,1.53,11.22,11.22,0,0,1-8.44,3.27c-.94,0-1.88,0-2.81-.12a6.18,6.18,0,0,1-4.59-2.43c-2.85,2.91-6.66,3.33-10.32,4-5.13.89-10.29,1.65-15.47,2.2a57.85,57.85,0,0,1-8.59,0,16.81,16.81,0,0,1-8.94-3.41,1.12,1.12,0,0,0-1.52,0A79.93,79.93,0,0,1,178,161.64a47.29,47.29,0,0,1-9.89,3.85,24,24,0,0,1-9.71.22c-3.6-.66-6.07-3.07-8.15-5.92-.43-.59-.78-1.22-1.24-1.95-1,.71-2,1.38-2.94,2.14a47.11,47.11,0,0,1-12.1,7.24,24.75,24.75,0,0,1-9.49,2.06c-3.1,0-6.19-.25-9.29-.38h-.54a13.78,13.78,0,0,1,.06,1.87c0,.29-.33.56-.5.84-.24-.26-.61-.48-.7-.78a4.19,4.19,0,0,1-.09-1.47c0-.6-.21-.81-.76-.92a13.64,13.64,0,0,1-7.92-4.55c-.55-.64-1.09-.54-1.73-.2a51,51,0,0,1-14.79,5.1,9.46,9.46,0,0,1-1.47.18,69.5,69.5,0,0,1-12.41-.4,22.43,22.43,0,0,1-14.5-8.47c-1.27-1.62-2.52-3.26-3.71-4.94a1.33,1.33,0,0,0-1.79-.58c-1.58.68-3.16,1.35-4.7,2.11-3.53,1.73-7,3.53-10.56,5.27-.83.41-1.73.69-2.59,1,0,.6.59,1.32-.3,1.6s-1-.47-1.24-1a56.75,56.75,0,0,1-29-1.46c.56,4.87.89,9.69,2.29,14.36l-.22.17c-.24-.21-.58-.38-.69-.64a12.61,12.61,0,0,1-1-2.78c-.59-3.65-1.08-7.32-1.57-11a.92.92,0,0,0-.65-.83C3,160.91,1.89,160.36.8,159.76a.87.87,0,0,1-.32-1.38c.83,1.79,2.67,1.62,4.15,2.47-.14-1.53-.27-2.87-.38-4.21-.35-4.44-.73-8.88-1-13.33-.32-4.6-.6-9.21-.87-13.81-.19-3.23-.35-6.46-.52-9.68-.31-6-.59-12-.94-18Q.06,88.07.24,74.26c.07-4.8.09-9.6.32-14.39.39-7.93,1.24-15.8,3.59-23.43a29.77,29.77,0,0,1,6.63-12.1,39.34,39.34,0,0,1,9.59-6.95A76.35,76.35,0,0,1,34,11.6c.22-.07.45-.12.68-.17,0,0,.09,0,.32.11-.39.16-.66.28-.93.37A85,85,0,0,0,15.35,21,25.12,25.12,0,0,0,5.27,34.3,64.69,64.69,0,0,0,2.45,47C1.19,56.31,1.13,65.64,1.19,75c0,5,0,10,.19,15s.56,10,.84,15c.24,4.29.45,8.59.68,12.89.29,5.36.58,10.72.89,16.09.26,4.32.52,8.64.84,13,.34,4.5.78,9,1.14,13.48a1.1,1.1,0,0,0,.94,1.1A59,59,0,0,0,26,163.75a32.77,32.77,0,0,0,8-1.12c.51-.14.62-.36.58-.87-.38-4.65-.82-9.3-1.06-14-.43-8.31-.71-16.62-1.09-24.93-.3-6.38-.62-12.76-1-19.14-.28-4.58-.69-9.15-1-13.72-.11-1.56-.13-3.13-.14-4.69,0-.53-.15-.85-.66-1l-2-.49a2.82,2.82,0,0,1-.67-.22c-.14-.07-.22-.25-.33-.38.15-.11.3-.32.46-.33.46,0,.93,0,1.48.08a5.33,5.33,0,0,0-.44-.36c-1.61-1.05-3.24-2.09-4.84-3.17-.21-.14-.27-.49-.4-.75.26-.12.52-.36.77-.35a24,24,0,0,1,8.83,1.82c3.18,1.36,6.28,2.91,9.44,4.35a9.91,9.91,0,0,0,2.35.79,42.32,42.32,0,0,1,9.46,3.2,295.65,295.65,0,0,1,34.53,17.95,133.71,133.71,0,0,1,15.48,11,14.94,14.94,0,0,0,1.86,1.28,51.93,51.93,0,0,1,9,6.47c.36.33.58.16.87,0Zm-8.43-62.27h-.22c0-.24,0-.48,0-.72a6.65,6.65,0,0,1,1.24-3.89c2-2.54,3.91-5.08,5.94-7.55.89-1.07,2-2,3-3a20.75,20.75,0,0,0-5.44-2.59.86.86,0,0,0-.67.23,49.66,49.66,0,0,0-4.37,4.24c-3.85,4.66-6,10.14-7.38,16a.65.65,0,0,0,.18.56c.47.32.33.68,0,.83-.56.23-.61.66-.65,1.12-.26,3-.59,6.07-.74,9.11a40.68,40.68,0,0,0,1.6,13.69,55.28,55.28,0,0,0,16.39,25.8A41.53,41.53,0,0,0,136,124.5c5.38,1.46,10.88,1.45,16.39,1.25a1.9,1.9,0,0,0,1-.37c5.11-3.8,10.5-7.17,15.9-10.54,2.06-1.28,4.16-2.63,5.25-5a.66.66,0,0,1,.57-.28.79.79,0,0,1,.52.48,2.45,2.45,0,0,1,0,1.15c-.22.73-.54,1.43-.81,2.15a11.27,11.27,0,0,0,2.39-4.23,9.3,9.3,0,0,1,.6-1.52.82.82,0,0,1,.69-.34.84.84,0,0,1,.52.56,3.73,3.73,0,0,1,0,1.24,12.14,12.14,0,0,1-2.66,5.42c-1.8,2.45-4.24,4.22-6.59,6.08-.88.7-1.66,1.51-2.49,2.27l.15.18c.26-.16.52-.3.77-.48a61.56,61.56,0,0,0,8.49-7.38,9.19,9.19,0,0,0,2.82-4.85c0-.17.27-.3.42-.45.1.18.33.4.29.55a12,12,0,0,1-.82,2.65,21.48,21.48,0,0,1-4.57,5.62c-1,.9-2,1.79-3,2.69,7.44-2.69,14.17-6.47,19.79-12.38h-1c-2.27.07-4.53.15-6.8.18-.28,0-.56-.29-.84-.45.27-.15.53-.41.8-.42,2.68-.13,5.37-.19,8-.33a1.76,1.76,0,0,0,1.12-.53,36.76,36.76,0,0,0,8.56-18.66c.19-1.22.27-2.46.4-3.64-.53-.12-.92-.18-1.29-.3-.12,0-.29-.23-.27-.32a.62.62,0,0,1,.31-.37,2.28,2.28,0,0,1,.68-.16.64.64,0,0,0,.65-.78q-.21-4.57-.39-9.14a.8.8,0,0,0-.71-.84,11.28,11.28,0,0,1-5.06-3c-2.37-2.35-4.66-4.77-6.94-7.21s-4.84-3.93-8.28-3.5a10.88,10.88,0,0,1-1.09,0,18.59,18.59,0,0,0-7.89,1.72c-3,1.5-6,3.13-9,4.67-2.19,1.11-4.39,2.19-6.95,2.14-2.29,0-4.59,0-6.88-.12a19.18,19.18,0,0,1-12.38-5c-2-1.86-3.69-4-5.51-6.07-2-2.3-4-4.68-6.11-6.9a51,51,0,0,0-4.23-3.59c-.36.32-.6.52-.82.74a60.37,60.37,0,0,0-8,9.4A7.55,7.55,0,0,0,110.06,61.36Zm.59,67.58c-11.2-8.44-23.59-14.52-35.73-21,0,.12.12.18.14.26s.1.46.14.68c-.24,0-.53.12-.72,0a7.35,7.35,0,0,1-1.08-.77,52.85,52.85,0,0,0-4.59-3.51c-3.29-2-6.65-3.92-10.07-5.7s-7.24-3.46-10.82-5.27c-5.11-2.59-10.18-5.27-15.28-7.9-.43-.22-.88-.41-1.41-.66,0,.49,0,.85.06,1.21.23,2.73.48,5.45.69,8.18.39,5.07.81,10.13,1.13,15.2.45,7.21.82,14.42,1.21,21.63.49,9.08,1,18.17,1.45,27.26.06,1.1.26,2.19.41,3.36a14.32,14.32,0,0,0,1.4-.5c3.82-1.86,7.61-3.76,11.45-5.58,1.83-.87,3.71-1.63,5.6-2.35a1.72,1.72,0,0,1,2.1.79c1,1.41,2.13,2.77,3.17,4.18a22.42,22.42,0,0,0,10.74,8,27.82,27.82,0,0,0,9.63,1.38,59.39,59.39,0,0,0,8.57-.41,51.18,51.18,0,0,0,14-4.7,2,2,0,0,1,2.68.43c.32.31.62.63.95.93a13.65,13.65,0,0,0,6.89,3.3,1.78,1.78,0,0,0,.08-.36c-.07-3.65-.15-7.3-.21-10.95,0-.53-.29-.6-.71-.54a5.3,5.3,0,0,1-1.3.16,22,22,0,0,1-2.65-.5,5,5,0,0,1-1-.53c.21-.35.35-.84.66-1,1.26-.73,2.56-1.4,3.87-2,1.16-.56,1.42-1.14.91-2.64-2.18.2-4.43.25-6.62.63-2.85.49-5.66,1.23-8.59,1A4.38,4.38,0,0,1,95.1,150a1.19,1.19,0,0,0-.67-.1H87.94c-1,0-1.25-.17-1.31-1.2a24,24,0,0,0-1.39-6.56,8.1,8.1,0,0,1-.46-1.57c-.07-.55-.46-1.37.23-1.59.35-.11,1.07.5,1.42.94a16.92,16.92,0,0,1,1.2,2.1c.53.91.88,1.06,1.93.9.22,0,.45-.05.68-.08a1.9,1.9,0,0,1-2.53-.23c-.42-.63-.72-1.33-1.13-2a8,8,0,0,0-.84-1l-.17.14a6,6,0,0,0,.19.74,25.55,25.55,0,0,1,2,7.85c0,.15.22.4.34.41,1.11,0,2.22,0,3.29,0l-.3-8.73c-.72-.34-1.33-.69-2-.93a20.85,20.85,0,0,0-2.22-.62c-.42-.1-1.21-.09-1.23-.21-.09-.7.61-.72,1.05-.91,6-2.49,12-4.74,18.2-6.66C106.8,130.23,108.67,129.59,110.65,128.94Zm123.18-13.18c.35,0,.71.08,1.07.11,1.79.1,3.59.24,5.38.28,1.06,0,1.36-.34,1.41-1.42,0-.29,0-.57,0-.86s-.15-.54-.55-.55c-4-.13-8-.35-12-.42-5.11-.09-10.22,0-15.33-.12-3.83-.07-7.65-.51-11.48-.13a8.18,8.18,0,0,0-1.75.33,110.77,110.77,0,0,1-13.2,3.84,2.34,2.34,0,0,0-1,.5A60.5,60.5,0,0,1,162.22,129a20,20,0,0,0-4.24,1.53c-1.6.8-3.32,1.36-5,2.07a1.56,1.56,0,0,0-.82.8c-.66,2.08-1.25,4.19-1.85,6.29a2.12,2.12,0,0,0,0,.43h3q18.93-.18,37.86-.36a122.63,122.63,0,0,1,14.6.55c6.84.76,13.51,2.66,20.42,2.88.25,0,.48.29.72.45-.25.18-.49.49-.76.5a12.47,12.47,0,0,1-2.5-.05c-3.71-.54-7.41-1.19-11.12-1.71a115.18,115.18,0,0,0-11.87-1.43c-6.93-.24-13.87-.1-20.8-.07-8.71,0-17.42.12-26.13.18h-3.51l-.63,5.9h5.25c8.45,0,16.9,0,25.34,0,5,0,10,.61,15.08.52,9.15-.17,18.31-.06,27.46-.07a3.18,3.18,0,0,0,.86,0c1.34-.39,2.67-.83,4-1.2a.68.68,0,0,0,.59-.75,23.35,23.35,0,0,1,.31-2.71c.06-.31.32-.76.57-.82a1.14,1.14,0,0,1,.91.42,14.62,14.62,0,0,1,1.41,2.15c.29.56.54.8,1.24.63,3.35-.8,6.72-1.49,10.06-2.3,3.62-.87,7.22-1.83,10.83-2.78a.77.77,0,0,0,.42-.58c.14-5.29.25-10.58.39-15.87,0-.42-.1-.61-.54-.66-.78-.08-1.55-.21-2.32-.32-7.07-1-14.15-2-21.22-3a71.25,71.25,0,0,1-13.77-3.51,4.2,4.2,0,0,1-1.27-.73.75.75,0,0,1,0-1.21c.81,1.49.8,1.55,2.8,2.05,2.9.74,5.8,1.58,8.75,2,9,1.41,18,2.65,27.08,4a3.16,3.16,0,0,0,.59,0l0-.27a140.6,140.6,0,0,1-22.36-6,203.93,203.93,0,0,0,22.39,5.5l.72-7.34-13-.71c0,.73,0,1.33-.12,1.91a1.3,1.3,0,0,1-1.41,1.28A19.83,19.83,0,0,1,233.83,115.76ZM201.31,72.25a5.37,5.37,0,0,0-.09-.61c-.94-2.87-1.83-5.76-2.85-8.6a13.43,13.43,0,0,0-3.2-5.4c-.45-.42-.94-.81-1.34-1.27a12.91,12.91,0,0,1-1.13-1.59c-.23-.36-.93-.75-.07-1.2,0,0,0-.15,0-.22a9.32,9.32,0,0,0-.87-2.54A75.48,75.48,0,0,0,187,44.63a36.18,36.18,0,0,0-18.41-11.52c-5.28-1.37-10.69-1.36-16.09-1.23-.62,0-1.24.12-1.86.18a1.2,1.2,0,0,0,.59.34,140.94,140.94,0,0,1,21.19,8,69.94,69.94,0,0,1,14.21,8.76c.27.21.53.45.79.68l-.16.2a10.76,10.76,0,0,1-1.1-.51c-.74-.44-1.47-.89-2.18-1.39a85.09,85.09,0,0,0-13.39-7.58,2.67,2.67,0,0,0-.44-.12,31.34,31.34,0,0,0,2.53,1.87,16.75,16.75,0,0,0,2.41,1.58,59.43,59.43,0,0,1,11.73,6.68,25.23,25.23,0,0,1,5.86,6.13,3.33,3.33,0,0,1,.47,1.21c0,.17-.22.49-.4.56s-.46-.14-.59-.31c-.36-.47-.65-1-1-1.48-3.24-4.33-7.64-7.18-12.36-9.61-.05,0-.13,0-.36,0,.23.18.36.27.48.38L186,53.88a3.87,3.87,0,0,1,.84.91,1,1,0,0,1,0,.91c-.13.17-.58.13-.89.13-.14,0-.27-.14-.41-.21-5.05-2.66-10-5.45-15.17-7.94a166.75,166.75,0,0,0-32.17-11.81,2.67,2.67,0,0,0-1.57.05A52.57,52.57,0,0,0,124,43.47c-.91.73-1.8,1.48-2.75,2.27,4.55,3,7.92,7.08,11.16,11.24a46.85,46.85,0,0,0,3.9,4.38A18.16,18.16,0,0,0,146,66.41a51.72,51.72,0,0,0,9.51.51,9.77,9.77,0,0,0,4.46-1c2.31-1.15,4.66-2.22,6.89-3.53a27,27,0,0,1,15-4A9,9,0,0,1,188,60.66c1.92,1.83,3.77,3.75,5.61,5.66a25.55,25.55,0,0,0,5.27,4.75C199.61,71.49,200.4,71.8,201.31,72.25Zm-86.92,83.18a4,4,0,0,0-.09.48c.11,3.75.23,7.5.33,11.26,0,.48.27.56.64.59,1.71.12,3.43.31,5.14.35a31.48,31.48,0,0,0,10-.9,45.27,45.27,0,0,0,14.78-8c1.17-.91,2.44-1.7,3.68-2.51.56-.37.93-.18,1.21.45a10.13,10.13,0,0,0,1.1,2c1.93,2.62,4.21,4.91,7.55,5.42A21.83,21.83,0,0,0,169,164a91.56,91.56,0,0,0,19.71-9.39c1.65-1,1.67-1.06,3.26,0A18.39,18.39,0,0,0,202,157.77a80.55,80.55,0,0,0,15-1.18c4-.68,8-1.49,12-2.32a8.27,8.27,0,0,0,3.92-1.86,3.39,3.39,0,0,0,.46-.67,3.23,3.23,0,0,0-.77-.21c-2.53,0-5.06,0-7.58-.12-4.34-.26-8.68-.61-13-1s-8.65-.93-13-1.3c-3.32-.28-6.65-.5-10-.57s-6.93.16-10.4.14c-9.12-.06-18.25-.18-27.37-.28h-1.46c-.49,1.33.08,2.55,0,3.8a2,2,0,0,1-1.2,2,37.87,37.87,0,0,1-9,3.18c-2.94.7-5.95,1.08-8.65,2.57-1,.54-1.07-.55-1.5-1a1.7,1.7,0,0,1-.28-.74c0-.05.05-.15.11-.2a17.06,17.06,0,0,1,2.31-2.29q4.23-2.89,8.6-5.56a1.38,1.38,0,0,0,.79-1.76H128.65v4.67l.2.07c.53.12,1.09.29,1,1s-.65.69-1.19.72c-3.25.18-6.5.39-9.75.54C117.42,155.48,115.91,155.43,114.39,155.43Zm16.35-31.32c-11.49-5-19.42-13.5-25.27-24.18-6-10.89-6.78-22.47-4.75-34.46l-1.48-.63c-.11.28-.2.51-.29.75A54.73,54.73,0,0,0,95.81,84.3,40.05,40.05,0,0,0,97,95.53a42.14,42.14,0,0,0,8.73,15.74,49.54,49.54,0,0,0,13.14,10.84,1,1,0,0,0,.81.05c.39-.18.66-.83,1.18-.43s-.09.88-.13,1.32c.53.69.91.15,1.36-.14a3.68,3.68,0,0,1,.89-.29l.24.94c.72-.15.83,0,.58,1.12,1.25.48,2.5,1,3.78,1.41a.85.85,0,0,0,.71-.32A2.93,2.93,0,0,1,130.74,124.1ZM127,143.76l1.12-.52.7,1.74c.21,0,.59.05,1,.12,1.34.24,2.68.59,4,.7.59,0,1.39-.18,1.24-1.19,0-.1.4-.4.59-.38,1.23.13,2.47.3,3.69.49s2.46.43,3.7.6a.61.61,0,0,0,.47-.34c.49-1.42.94-2.85,1.42-4.33l-.5-.08c-.43-.1-1,.27-1.25-.44a4.87,4.87,0,0,1,1.25-.34.79.79,0,0,0,.91-.7c.25-1,.59-1.94.91-2.91s.71-2.05,1.07-3.09c-1.08-.18-1.06-.17-1.58.63a.73.73,0,0,1-.72.06c-.18-.14-.2-.49-.3-.77a5.66,5.66,0,0,1-.83-.1.78.78,0,0,1-.61-1.13c.19-.55.5-.6.93-.23.08.07.28,0,.52,0-.39-.68-.65-1.3-1.53-1.33a60.18,60.18,0,0,1-11.82-1.66l-2.63-.66a8.85,8.85,0,0,1-.17,1.54c-.07.26-.4.44-.61.66-.21-.22-.55-.42-.6-.67a3.22,3.22,0,0,1,.05-1.31c.11-.48,0-.7-.48-.86A18.33,18.33,0,0,1,124,126.1a2.38,2.38,0,0,0-2.67.13c-.53.33-1.12.57-1.68.87a4,4,0,0,0-.51.41c3.89,1.14,7.7,2.26,10.69,5.16.21-.33.37-.62.57-.9a24.83,24.83,0,0,1,1.47-2c.45-.52.78-.43,1,0-.73,1.32-1.43,2.54-2.06,3.78a2.18,2.18,0,0,0-.2,1.18,6.17,6.17,0,0,1-2.33,6c-.41.32-.82.64-1.26.93C125.86,142.46,125.86,143.07,127,143.76ZM112.14,43.09a1.37,1.37,0,0,0-.31-.12L110,42.88c-6.56-.2-13.08,0-19.43,1.92-1.78.54-1.73.2-1.2,2.07a39.34,39.34,0,0,0,8.49,15.31,10.43,10.43,0,0,0,.89.79C101.83,55.35,106.83,49.16,112.14,43.09Zm129.66,57.63v-.16l-.77-.06c-7.81-.68-15.67-.32-23.49-1-5.64-.5-11.35-.23-17-.27a1,1,0,0,0-.71.51c-.6,1.16-1.09,2.37-1.7,3.51-.79,1.48-1.67,2.93-2.55,4.47.31,0,.56,0,.81,0,1.63-.16,3.27-.29,4.9-.5,2.17-.27,4.35-.49,6.49-.94,3.31-.71,6.55-1.71,9.87-2.37a103.13,103.13,0,0,1,16.08-2.21C236.39,101.52,239.09,101,241.79,100.72ZM113.34,129.33c1.69,1.13,3.3,2.2,4.88,3.29a18.25,18.25,0,0,1,2,1.59c.18.16.11.59.15.9a3.46,3.46,0,0,1-.91.1,1.76,1.76,0,0,1-.67-.38q-1.49-1.07-3-2.15l-3.88-2.87a3.61,3.61,0,0,0-.3.25c-2.43,2.63-2.55,5.74-1.88,9a1.3,1.3,0,0,0,1,1q4.37,1.19,8.73,2.46a3.69,3.69,0,0,0,2.59-.17,1.91,1.91,0,0,0,.63-.6,8.75,8.75,0,0,0,.51-.8l.8.74a4.3,4.3,0,0,0,1.17-1c1.24-2.05,2.38-4.16,3.59-6.23a.89.89,0,0,0-.12-1.26,9.33,9.33,0,0,0-2.08-1.62c-2.32-1-4.71-1.94-7.08-2.87a6.22,6.22,0,0,0-1.23-.21c.52,1,.45,1.26-.42,1.59a1.59,1.59,0,0,0,.19.24c2.34,2,4.57,4.12,7.55,5.19.19.07.3.37.44.56-.2.14-.38.36-.6.41a1.3,1.3,0,0,1-.76-.11,11.68,11.68,0,0,1-2.29-1.17q-3.73-2.9-7.34-5.94A1.21,1.21,0,0,0,113.34,129.33Zm106.48-22.65v.3h2.95a43.75,43.75,0,0,0,5.85,0c7.41-1,14.8-2.11,22.2-3.18,1.06-.15,2.12-.27,3.18-.36a2.31,2.31,0,0,1,.82.27c-.22.17-.43.42-.68.48-.6.14-1.23.18-1.85.27l-14.54,2.13-5.42.8c1.62.4,3.23.65,4.84.9a23.07,23.07,0,0,0,3.94.56c4.35-.1,8.7-.35,13-.54,1.83-.08,1.83-.08,2.15-1.85l1-5.58c-1.94,0-3.8-.14-5.62,0s-3.62.69-5.43,1.06l0-.11,1.24-.72c-3,.16-5.86.46-8.76.77a1.34,1.34,0,0,0-.49.18,5.15,5.15,0,0,1-1.21.7c-3.67.82-7.36,1.57-11,2.38C223.9,105.63,221.86,106.18,219.82,106.69Zm-121.69,8.1c-7.2-6.38-44.26-26.33-49.89-26.92l1.35.74c9.92,5.28,19.76,10.68,29.21,16.77a50,50,0,0,0,9.11,4.95c2,.76,3.93,1.68,5.88,2.54Zm38.3-79.4c-2.16-.49-4.13-1-6.12-1.38a1.64,1.64,0,0,0-.9.17A53.28,53.28,0,0,0,120.25,39c-1.69,1.14-3.33,2.37-5,3.56,1.72.86,3.34,1.62,4.9,2.47a.93.93,0,0,0,1.27-.12,55.94,55.94,0,0,1,10.27-7.2C133.2,37,134.73,36.24,136.43,35.39ZM97.29,148.67l2.79-.16a97.57,97.57,0,0,0,12.68-1.12,2.25,2.25,0,0,0,.66-.39c-3.55-.5-7-.79-10.44-1.15-1.32-.14-2.63-.39-3.93-.65-.22,0-.37-.39-.56-.59.26-.1.53-.32.77-.28.63.08,1.23.35,1.86.41,3.58.33,7.16.6,10.74.92,2.7.24,5.39.53,8.09.78.26,0,.66,0,.77-.16.45-.65.82-1.37,1.31-2.21l-1.22.15a16.52,16.52,0,0,1-8.32-.59,6.22,6.22,0,0,0-1.3-.25l-12.11-1.87c-.37-.06-.74-.14-1.25-.24l.82,5.15,1-.6c-.26.57-.4,1-.6,1.31a3.65,3.65,0,0,1-.54.59c-.16-.21-.41-.39-.46-.62-.24-1-.43-2-.61-3.06s-.28-1.8-.42-2.7l-.28,0Zm-6.19-10.23.11-.24.54-1c.21.27.43.53.63.81a1.6,1.6,0,0,1,.21.42c.21.63.65.74,1.24.56a13.13,13.13,0,0,1,1.51-.4c.45-.08.7-.23.7-.74a.7.7,0,0,1,.42-.54.69.69,0,0,1,.55.4c.14.57.5.59,1,.61,2.44.13,4.88.26,7.32.48a28.12,28.12,0,0,1,3,.59c-.4-3.09-.43-6.07,1.39-9-7.22,2.24-14.21,4.53-21.26,7.28ZM211.51,72.08c.73.52,1.4,1,2,1.48a2.65,2.65,0,0,1,.46.74,2.15,2.15,0,0,1-.83,0c-.77-.37-1.5-.83-2.26-1.22a1.06,1.06,0,0,0-.77-.13c-2.08.95-4.26.83-6.45.73l-.95,0,.39,9.63c4.45-1.23,11.56-7.59,12.71-11.4-.23-.14-.48-.27-.72-.43-1.09-.72-2.14-1-3.06.27A2.89,2.89,0,0,1,211.51,72.08ZM139.22,34.8v.28a180.87,180.87,0,0,1,43.4,17.35c-1.82-1.83-3.67-3.59-5.56-5.3a14,14,0,0,0-2.61-2.1,32.84,32.84,0,0,0-4.32-1.81,276.41,276.41,0,0,0-29.27-8.5A5.77,5.77,0,0,0,139.22,34.8ZM262.68,147.7C261,148,261,148,261,149.48c0,2.58,0,5.16-.1,7.74-.18,7-.39,14.07-.56,21.1a7.37,7.37,0,0,0,.17,1.94,19.87,19.87,0,0,0,.8,2.19C263.23,170.87,262.94,159.31,262.68,147.7ZM254,146c-.27,0-.43,0-.57.07a59.75,59.75,0,0,1-16.08,1.84c-2-.06-2.09,0-2.71,2-.1.31-.27.78-.13,1a19.87,19.87,0,0,0,2,2.2,1,1,0,0,0,.91.09,142.57,142.57,0,0,1,16-5.45c.41-.11.64-.28.59-.74A9,9,0,0,1,254,146Zm-53.78,2.21c10.88,1.21,21.72,2.79,32.8,2.44-.31-.86-.58-1.64-.87-2.41,0-.11-.16-.29-.23-.28-1,.09-2.1-.47-3,.42-.11.11-.42.08-.62,0a7.16,7.16,0,0,0-1.17-.34c-.73,0-1.46.08-2.18.09l-10.79,0ZM170.37,41.81l-1-.66c-6.09-4.12-12.93-6.43-20-8.16a11.16,11.16,0,0,0-6.9,1C151.88,36.29,161.22,38.66,170.37,41.81ZM43.52,86.75c9.83,8.33,21.19,13.92,33.08,18.57C65.93,98.48,54.74,92.59,43.52,86.75Zm212.23,36.44c-.1,3.53-.23,7-.28,10.39s0,6.82,0,10.24h1.7c.22-3.41.37-6.77.66-10.11s.74-6.67,1.13-10.1Zm-142.89,4.1c-2.09-1.91-4.16-3.84-6.27-5.73a19.57,19.57,0,0,0-4.83-3.53c-3.7-1.68-7.37-3.42-11-5.13a4.42,4.42,0,0,0-.53-.17,2.2,2.2,0,0,0,.58.56L111,127.59C111.92,128.26,111.92,128.26,112.86,127.28ZM26.12,79.53l-.11.34,4.23,2.74.69-1.12c.13.38.27.58.25.75-.14,1,.52,1.31,1.2,1.68L46.23,91.3c.81.43,1.65.81,2.48,1.22a2.25,2.25,0,0,0-.63-.61c-2.11-1.66-4.23-3.29-6.3-5a7.42,7.42,0,0,1-1.06-1.56,1.17,1.17,0,0,0-.44-.39c-2.91-1.33-5.79-2.75-8.76-3.93A47.25,47.25,0,0,0,26.12,79.53Zm207.7,67.36.07.2c4.41,0,8.84.2,13.05-.6.23-.35.33-.66.54-.79,2-1.31,4-2.59,6-3.9a3.08,3.08,0,0,0,.5-.53l-.14-.22c-1,.23-2,.42-2.93.69q-8.18,2.34-16.35,4.73A4.24,4.24,0,0,0,233.82,146.89Zm-131.08-105v.07h.75c3.07.06,6.15.13,9.22.16a1.28,1.28,0,0,0,.8-.34A42.2,42.2,0,0,1,125.7,34c.23-.1.38-.38.57-.58-.27-.07-.59-.26-.81-.19a22.07,22.07,0,0,0-3,1.16,89.33,89.33,0,0,1-14.34,6C106.34,40.88,104.54,41.36,102.74,41.88Zm156.9,81.84c-.75,1.74-2,20-1.59,22.81.57-.31,1.51.07,1.6-1,.17-2,.45-4.05.44-6.08,0-4.56-.22-9.12-.35-13.68C259.72,125.15,259.68,124.52,259.64,123.72Zm-87.06-9.44c-2.89,1.84-5.76,3.62-8.58,5.47s-5.6,3.78-8.4,5.68l.13.2a10.63,10.63,0,0,0,1.24-.15,11.51,11.51,0,0,0,3.5-.93c2.95-1.86,5.78-3.92,8.6-6A15.71,15.71,0,0,0,172.58,114.28Zm-8.42,12.83a58.17,58.17,0,0,0,20.1-9.68,6.34,6.34,0,0,0-2.42.59,52.35,52.35,0,0,1-10.12,4.68C168.82,123.61,166.57,125.46,164.16,127.11Zm45.22-55-8.79-7.38c.5,1.89,1.11,4,1.63,6.2.35,1.47.3,1.52,1.82,1.6A13.09,13.09,0,0,0,209.38,72.13Zm-99.12,70.21c-.57-.78-1-1.37-1.39-1.91a1.74,1.74,0,0,0-.76-.58,28.12,28.12,0,0,0-10.18-1.14,3.07,3.07,0,0,0-.49.11c.1,1.34.1,1.35,1.33,1.61s2.7.58,4.06.8C105.23,141.63,107.64,142,110.25,142.35Zm145.61-33.17-10.63.46c.08.17.17.17.22.21.24.18.47.37.71.56a4.11,4.11,0,0,1-.75.53,1.9,1.9,0,0,1-.7,0h-4a61.16,61.16,0,0,0,6.22.73c2.11.12,4.22.09,6.33.1C255.63,111.8,255.63,111.79,255.86,109.18Zm-5.77,40.08L250,149l-12.05,4.51c3.16,1.44,9.86-.1,11.8-2.58a2.5,2.5,0,0,1-.55,0,7.16,7.16,0,0,1-.73-.3,2.4,2.4,0,0,1,.44-.66A11.32,11.32,0,0,1,250.09,149.25Zm-107.21-119,5.85,1.34a1.21,1.21,0,0,0,.47,0,49.7,49.7,0,0,1,9.83-.45c1.62,0,3.24.16,4.89.25C160.4,30,145.79,29.24,142.88,30.28Zm56.48,81.06c-1.73-.42-3.44-.85-5.16-1.23a1.08,1.08,0,0,0-.82.34c-1.35,1.41-2.65,2.86-4,4.29a8,8,0,0,1-.86.7l.21.29,8-2.39,0-.17-4.73.93a2.17,2.17,0,0,1,2-1.8,19.47,19.47,0,0,0,2.44-.74c.23-.07.45-.19.67-.28l.07.13-.6.47C198.48,111.95,198.8,111.88,199.36,111.34ZM91,115.06c-5-4.43-11.11-7-17.32-9.27ZM141.73,129l.06-.32a12,12,0,0,0-8.75-2.23,7.52,7.52,0,0,0-1.57.62l0,.35Zm-.14-2.08c3.06,3.08,6.51,2.69,9,.25Zm52.62-17.65.14.19c1.68.33,3.37.64,5,1a9.48,9.48,0,0,0,5,0l-1.41-.77c-.7.13-1.46.29-2.24.4-.16,0-.48-.14-.5-.25a.76.76,0,0,1,.22-.59,6.86,6.86,0,0,1,1-.61,2.49,2.49,0,0,0-.43-.1c-2,.05-4,.09-5.93.2C194.81,108.72,194.51,109.06,194.21,109.24ZM256.79,162l.2,0V149.58c-1.43.17-1.47.17-1.35,1.5.2,2.36.44,4.71.68,7.07C256.45,159.42,256.63,160.7,256.79,162ZM202.71,64.9l0-.1a.91.91,0,0,0,.13.18q3.76,3.12,7.53,6.22a.62.62,0,0,0,.55.1c.49-.3.94-.65,1.32-.92Zm59,69-.6,11.79c1.37,0,1.45,0,1.37-1.24C262.22,140.9,262,137.4,261.69,133.86ZM144.81,32.56l0-.24H134.37a.63.63,0,0,0,.4.21l5.39.92a2.88,2.88,0,0,0,1.07.15C142.43,33.3,143.61,32.92,144.81,32.56Zm112.7,67.63-.11-.28c-5.12-.55-10.23-.1-15.14.15,3.08.8,6.4-.49,9.73.3a19.88,19.88,0,0,0,4.75.06A2.81,2.81,0,0,0,257.5,100.19Zm-21.81,8.72a24,24,0,0,0-12.42,0ZM96,144.94c0-1.39,0-2.63,0-3.86a.52.52,0,0,0-.3-.37c-.73-.22-1.48-.41-2.25-.62A8.17,8.17,0,0,0,96,144.94Zm7.22-88.28-.13-.07-3.5,7,1.28.62Zm156,92.3-.18-.16c-.34.37-1.16,0-1.17.86,0,2.26,0,4.53,0,6.79H258Zm-35.9-41.21c-2.93.16-5.94-.61-8.93.79C217.55,109.09,220.41,108.13,223.32,107.75Zm-38.89,8.85,0,.12a7.08,7.08,0,0,0,2.07-.91c2-1.81,3.84-3.72,5.74-5.61a4.66,4.66,0,0,0,.46-.65l0,.09Zm29.25-6.25h9.93v-.26C220.29,109.89,217,109.58,213.68,110.36Zm48.59,18.16-.25,0,1.3,16.41.26,0ZM94.35,148.78l-1.65-5.34v5.34Zm47.16-2.18c-.61-.17-1.17-.34-1.73-.48-1-.25-2-.5-2.94-.73a.84.84,0,0,0-1.11.75C137.23,146.64,141,147,141.51,146.6Zm-9.71.79c.35.38,6.14.46,7.19.12A15.54,15.54,0,0,0,131.8,147.39Zm-35.45,1.26a5.69,5.69,0,0,0-1.88-4,29.48,29.48,0,0,0,.74,3.41C95.38,148.69,95.74,148.88,96.35,148.65Zm14.4-8c1.65,2,3.71,2.1,5.83,2ZM248,146.14l.08.26c1.85-.4,3.69-.79,5.53-1.21.14,0,.23-.32.34-.49-.18-.05-.37-.18-.53-.14-1.07.24-2.13.49-3.18.79C249.52,145.56,248.78,145.87,248,146.14Zm-18.44-3.51-.3.08-.27,3.1,2.1-.43ZM131.93,33.14l0,.27c1.85.41,3.69.84,5.55,1.2a6.3,6.3,0,0,0,1.51-.07v-.38ZM254,142.16l-3.67,2.48a23,23,0,0,0,3.32-.62.6.6,0,0,0,.33-.43A13.66,13.66,0,0,0,254,142.16Zm-97.88-15.1c-2.24-.65-3.68.58-5.17,1.7l.09.23Zm2.23,20.57v.09h19.22v-.09Zm55.15-42.33.06.32,9.83-2,0-.21Zm43.63,39.56c-1.85.77-1.94.9-1.52,2.21C257.23,146.87,257.28,146.8,257.12,144.86ZM130.44,127c.16-1.49,1.37-1.61,2.33-2-.48-.73-.83,0-1.23.11a3.58,3.58,0,0,0-1.39.31,5.08,5.08,0,0,0-1,1.26Zm5.71-96.23-.05-.26h-3.41l-.3,1.09Zm75.59,76.38,0,.25c2.15-.37,4.41-.14,6.41-1.35ZM255.58,149c1.46,0,1.73-.35,1.45-1.68C255.49,147.34,255.25,147.62,255.58,149Zm9-48.53v-.22c-1.76-.09-3.53-.19-5.29-.27-.14,0-.29.13-.43.21.12.09.24.27.37.27C261.05,100.44,262.83,100.44,264.62,100.44Zm-46.73-2.26L210,97.07A23.2,23.2,0,0,0,217.89,98.18Zm-56.36,28-.11-.2-4.24,2.39.11.19C159.1,128.48,160.15,127.05,161.53,126.19Zm90.82,23.61c1.76-.12,1.86-.23,1.63-1.71C252.91,148.16,252.63,148.45,252.35,149.8Zm5.64-1.5c1.41-.26,1.46-.31,1.4-1.59C257.94,146.76,257.81,146.91,258,148.3ZM143.27,31.54l0-.27c-1.47-.08-2.89-.85-4.42-.13ZM116,153.74v.13h5.39v-.13Zm22,2.42.05.19a18.15,18.15,0,0,0,4.79-1.49.62.62,0,0,0-.47,0ZM262.51,146c-1.5.07-1.64.21-1.35,1.23C262.59,147,262.68,146.89,262.51,146Zm-27.86,2H233l.65,1.68ZM128.8,31.89c.91-.12,1.6-.2,2.28-.31.14,0,.27-.17.4-.26-.14-.1-.27-.26-.43-.3C130.21,30.82,129.6,31.28,128.8,31.89ZM109.9,154.07c1.44.57,2.09.33,2.19-.79ZM89.16,44.35l2.21-.67C89.61,43.51,89.13,43.66,89.16,44.35ZM256,122.16l0,.34,3,.41,0-.21ZM128,138.9l.28.14,1.16-2.24-.27-.14Zm-1.77,10.69-.64,1.88C126.24,151.47,126.38,151.05,126.22,149.58Zm19.1-19.28.76,1.23.21-.12-.15-1.11ZM208,109.57l0-.32-1.85.11v.21ZM94.62,139.3l0,.16,1.35.3-.08-.8Zm19.56,11,.22.11c.14-.23.4-.46.4-.7s-.27-.42-.42-.63l-.2.11Zm-.11-23.57.19-.24L112.59,125l-.14.16Z" transform="translate(-0.08 -0.02)"/><path d="M245.48,16.71c.19-.88-.36-1.11-1-1.17-1-.08-1.93-.12-2.89-.17-5.36-.3-10.73-.49-16.08-.94-7-.58-14-1.22-20.92-2.11-6.69-.86-13.34-2.06-20-3.13-9.8-1.57-19.58-3.32-29.41-4.7-7.22-1-14.5-1.58-21.76-2.29C122.23,1.13,111,1.29,99.85,1.31c-11.47,0-22.95.17-34.42.22-4.17,0-8.34-.1-12.52-.12A9.11,9.11,0,0,0,48.36,2l-.13-.28a4.77,4.77,0,0,1,1.1-.6A8.35,8.35,0,0,1,51.18.94C58,.82,64.85.68,71.68.63,87.74.5,103.8.36,119.87.35c4.42,0,8.85.39,13.27.72,4.7.35,9.4.76,14.09,1.29,5,.56,10,1.17,15,2,11.58,1.86,23.12,3.93,34.7,5.77,5.53.88,11.1,1.5,16.67,2.1,5.1.55,10.22,1,15.34,1.36,3.82.29,7.65.46,11.47.69,1.33.08,2.65.17,4,.33a2.94,2.94,0,0,1,1.35.55C246.39,15.6,246.24,16.38,245.48,16.71Z" transform="translate(-0.08 -0.02)"/><path d="M196.42,182.56a5.51,5.51,0,0,1-.91.49,82,82,0,0,1-16,3.36c-10,1.12-20.05.76-30.08.68-9.62-.07-19.24-.29-28.85-.74C95.9,185.18,71.16,185,46.42,185A212.74,212.74,0,0,1,25,184a44.87,44.87,0,0,1-12.7-2.83A15.19,15.19,0,0,1,10,179.88a1.2,1.2,0,0,1-.45-.73,1.06,1.06,0,0,1,.32.12,12.69,12.69,0,0,0,5.16,2.34,77.19,77.19,0,0,0,11.81,1.79c13.09,1.09,26.21.53,39.32.69,12.83.16,25.66.21,38.48.67,20.87.76,41.73,1.65,62.63,1.48a117.14,117.14,0,0,0,26.4-3.21l2.64-.62Z" transform="translate(-0.08 -0.02)"/><path class="cls-1" d="M110.06,61.36a7.55,7.55,0,0,1,1.74-4.83,60.37,60.37,0,0,1,8-9.4c.22-.21.46-.41.82-.74A51,51,0,0,1,124.84,50c2.13,2.21,4.07,4.6,6.11,6.9,1.81,2,3.52,4.21,5.51,6.07a19.18,19.18,0,0,0,12.38,5c2.29.13,4.59.07,6.88.12,2.56.05,4.76-1,6.95-2.14,3-1.54,6-3.17,9-4.67a18.59,18.59,0,0,1,7.89-1.72,10.88,10.88,0,0,0,1.09,0c3.44-.43,6,1.08,8.28,3.5s4.57,4.87,6.94,7.21a11.28,11.28,0,0,0,5.06,3,.8.8,0,0,1,.71.84q.17,4.57.39,9.14a.64.64,0,0,1-.65.78,2.28,2.28,0,0,0-.68.16.62.62,0,0,0-.31.37c0,.09.15.28.27.32.37.12.75.18,1.29.3-.13,1.18-.21,2.42-.4,3.64A36.76,36.76,0,0,1,193,107.4a1.76,1.76,0,0,1-1.12.53c-2.68.14-5.37.2-8,.33-.27,0-.53.27-.8.42.28.16.56.45.84.45,2.27,0,4.53-.12,6.8-.18h1c-5.61,5.91-12.35,9.69-19.79,12.38,1-.9,2-1.78,3-2.69a21.48,21.48,0,0,0,4.57-5.62,12,12,0,0,0,.82-2.65c0-.15-.19-.36-.29-.55-.14.15-.39.29-.42.45a9.19,9.19,0,0,1-2.82,4.85,61.56,61.56,0,0,1-8.49,7.38c-.24.18-.51.32-.77.48l-.15-.18c.83-.76,1.61-1.57,2.49-2.27,2.35-1.87,4.78-3.63,6.59-6.08a12.14,12.14,0,0,0,2.66-5.42,3.73,3.73,0,0,0,0-1.24.84.84,0,0,0-.52-.56.82.82,0,0,0-.69.34,9.3,9.3,0,0,0-.6,1.52,11.27,11.27,0,0,1-2.39,4.23c.28-.71.59-1.42.81-2.15a2.45,2.45,0,0,0,0-1.15.79.79,0,0,0-.52-.48.66.66,0,0,0-.57.28c-1.08,2.37-3.19,3.71-5.25,5-5.4,3.36-10.79,6.74-15.9,10.54a1.9,1.9,0,0,1-1,.37c-5.51.2-11,.22-16.39-1.25a41.53,41.53,0,0,1-17.12-9.37,55.28,55.28,0,0,1-16.39-25.8,40.68,40.68,0,0,1-1.6-13.69c.15-3,.48-6.07.74-9.11,0-.46.09-.89.65-1.12.35-.14.49-.51,0-.83a.65.65,0,0,1-.18-.56c1.38-5.82,3.53-11.31,7.38-16a49.66,49.66,0,0,1,4.37-4.24.86.86,0,0,1,.67-.23A20.75,20.75,0,0,1,120,46.18c-1.06,1-2.15,2-3,3-2,2.47-4,5-5.94,7.55a6.65,6.65,0,0,0-1.24,3.89c0,.24,0,.48,0,.72Zm41.78,26.24-.17,0a4.63,4.63,0,0,0,.53,1.71A4.51,4.51,0,0,0,155,90.82c1.27.2,1.88-.92,2.9-1.14.08,0,.18-.2.19-.32.09-.9.17-1.81.22-2.71a1.51,1.51,0,0,0-.87-1.54,9.61,9.61,0,0,0-2.67-.93,2.61,2.61,0,0,0-3,2.58C151.82,87,151.84,87.32,151.84,87.61Zm-40.11.08.09.16a10.41,10.41,0,0,0,2.23-.93,3.08,3.08,0,0,0,.16-4.81c-1.08-.84-2.33-1.39-3.39-1a3.5,3.5,0,0,0-1.87,3c0,.52.1,1,.13,1.55.08,1.26.22,1.47,1.42,1.79A10.82,10.82,0,0,0,111.73,87.69ZM136.52,105v-.11c.36,0,.73,0,1.09,0a17.2,17.2,0,0,0,6.89-1.18c.28-.11.46-.46.68-.7a2.74,2.74,0,0,0-.95-.18,23.3,23.3,0,0,1-2.58.6c-2.62.17-5.25.27-7.87.32a9.6,9.6,0,0,1-4.87-1.22c-.59-.33-1.14-.73-1.75-1a2.08,2.08,0,0,0-.84,0c.12.24.17.55.36.7a10,10,0,0,0,4.79,2.35C133.14,104.79,134.84,104.84,136.52,105Z" transform="translate(-0.08 -0.02)"/><path class="cls-1" d="M110.65,128.94c-2,.65-3.86,1.29-5.75,1.88-6.18,1.91-12.24,4.16-18.2,6.66-.44.18-1.14.21-1.05.91,0,.12.81.11,1.23.21a20.85,20.85,0,0,1,2.22.62c.65.24,1.26.58,2,.93l.3,8.73c-1.07,0-2.18,0-3.29,0-.12,0-.33-.26-.34-.41a25.55,25.55,0,0,0-2-7.85,6,6,0,0,1-.19-.74l.17-.14a8,8,0,0,1,.84,1c.4.64.71,1.34,1.13,2a1.9,1.9,0,0,0,2.53.23c-.23,0-.45,0-.68.08-1.05.17-1.4,0-1.93-.9a16.92,16.92,0,0,0-1.2-2.1c-.35-.44-1.07-1.05-1.42-.94-.69.22-.31,1-.23,1.59a8.1,8.1,0,0,0,.46,1.57,24,24,0,0,1,1.39,6.56c.06,1,.28,1.2,1.31,1.2h6.49a1.19,1.19,0,0,1,.67.1,4.38,4.38,0,0,0,2.61.65c2.93.2,5.74-.53,8.59-1,2.19-.38,4.45-.44,6.62-.63.51,1.5.25,2.08-.91,2.64-1.31.63-2.61,1.3-3.87,2-.31.18-.44.67-.66,1a5,5,0,0,0,1,.53,22,22,0,0,0,2.65.5,5.3,5.3,0,0,0,1.3-.16c.42-.06.7,0,.71.54.06,3.65.14,7.3.21,10.95a1.78,1.78,0,0,1-.08.36,13.65,13.65,0,0,1-6.89-3.3c-.32-.3-.63-.63-.95-.93a2,2,0,0,0-2.68-.43,51.18,51.18,0,0,1-14,4.7,59.39,59.39,0,0,1-8.57.41,27.82,27.82,0,0,1-9.63-1.38,22.42,22.42,0,0,1-10.74-8c-1-1.41-2.14-2.76-3.17-4.18a1.72,1.72,0,0,0-2.1-.79c-1.89.72-3.77,1.48-5.6,2.35-3.83,1.82-7.63,3.73-11.45,5.58a14.32,14.32,0,0,1-1.4.5c-.15-1.17-.35-2.26-.41-3.36-.5-9.08-1-18.17-1.45-27.26-.39-7.21-.76-14.42-1.21-21.63-.32-5.07-.74-10.14-1.13-15.2-.21-2.73-.46-5.45-.69-8.18,0-.36,0-.72-.06-1.21.53.25,1,.43,1.41.66,5.09,2.63,10.16,5.31,15.28,7.9,3.58,1.81,7.27,3.42,10.82,5.27s6.77,3.69,10.07,5.7a52.85,52.85,0,0,1,4.59,3.51,7.35,7.35,0,0,0,1.08.77c.19.1.47,0,.72,0,0-.23-.08-.46-.14-.68s-.12-.14-.14-.26C87.07,114.42,99.45,120.5,110.65,128.94Z" transform="translate(-0.08 -0.02)"/><path class="cls-1" d="M233.83,115.76a19.83,19.83,0,0,0,6.83.77,1.3,1.3,0,0,0,1.41-1.28c.09-.58.08-1.19.12-1.91l13,.71-.72,7.34a203.93,203.93,0,0,1-22.39-5.5,140.6,140.6,0,0,0,22.36,6l0,.27a3.16,3.16,0,0,1-.59,0c-9-1.3-18.07-2.55-27.08-4-3-.46-5.85-1.3-8.75-2-2-.51-2-.56-2.8-2.05a.75.75,0,0,0,0,1.21,4.2,4.2,0,0,0,1.27.73,71.25,71.25,0,0,0,13.77,3.51c7.07,1,14.14,2,21.22,3,.77.11,1.55.24,2.32.32.44,0,.55.23.54.66-.13,5.29-.24,10.58-.39,15.87a.77.77,0,0,1-.42.58c-3.6.95-7.2,1.9-10.83,2.78-3.34.81-6.72,1.5-10.06,2.3-.7.17-.95-.08-1.24-.63A14.62,14.62,0,0,0,230,142.3a1.14,1.14,0,0,0-.91-.42c-.25.06-.51.51-.57.82a23.35,23.35,0,0,0-.31,2.71.68.68,0,0,1-.59.75c-1.35.37-2.67.81-4,1.2a3.18,3.18,0,0,1-.86,0c-9.15,0-18.31-.1-27.46.07-5,.09-10-.5-15.08-.52-8.45,0-16.9,0-25.34,0h-5.25l.63-5.9h3.51c8.71-.06,17.42-.15,26.13-.18,6.93,0,13.87-.16,20.8.07a115.18,115.18,0,0,1,11.87,1.43c3.71.52,7.41,1.16,11.12,1.71a12.47,12.47,0,0,0,2.5.05c.26,0,.5-.33.76-.5-.24-.16-.48-.44-.72-.45-6.91-.21-13.59-2.11-20.42-2.88a122.63,122.63,0,0,0-14.6-.55q-18.93.15-37.86.36h-3a2.12,2.12,0,0,1,0-.43c.61-2.1,1.19-4.21,1.85-6.29a1.56,1.56,0,0,1,.82-.8c1.65-.72,3.36-1.28,5-2.07a20,20,0,0,1,4.24-1.53,60.5,60.5,0,0,0,24.26-11.64,2.34,2.34,0,0,1,1-.5,110.77,110.77,0,0,0,13.2-3.84,8.18,8.18,0,0,1,1.75-.33c3.83-.38,7.66.06,11.48.13,5.11.09,10.22,0,15.33.12,4,.07,8,.28,12,.42.4,0,.58.14.55.55s0,.57,0,.86c-.05,1.08-.35,1.45-1.41,1.42-1.79,0-3.59-.18-5.38-.28C234.54,115.85,234.19,115.8,233.83,115.76ZM182.08,141.1l-.1.18.87.33c2.28.81,4.58,1.6,6.85,2.43a3.64,3.64,0,0,1,.86.69c.38-.52-.12-.76-.58-.92C187.36,142.89,184.72,142,182.08,141.1Z" transform="translate(-0.08 -0.02)"/><path class="cls-1" d="M201.31,72.25c-.92-.44-1.7-.76-2.42-1.18a25.55,25.55,0,0,1-5.27-4.75c-1.84-1.91-3.69-3.83-5.61-5.66a9,9,0,0,0-6.15-2.28,27,27,0,0,0-15,4c-2.22,1.3-4.58,2.38-6.89,3.53a9.77,9.77,0,0,1-4.46,1,51.72,51.72,0,0,1-9.51-.51,18.16,18.16,0,0,1-9.61-5.06,46.85,46.85,0,0,1-3.9-4.38c-3.25-4.17-6.62-8.2-11.16-11.24,1-.79,1.85-1.54,2.75-2.27a52.57,52.57,0,0,1,12.65-7.54,2.67,2.67,0,0,1,1.57-.05,166.75,166.75,0,0,1,32.17,11.81c5.13,2.49,10.12,5.28,15.17,7.94.14.07.27.21.41.21.31,0,.76,0,.89-.13a1,1,0,0,0,0-.91,3.87,3.87,0,0,0-.84-.91l-7.14-6.45c-.12-.1-.24-.19-.48-.38.23,0,.31,0,.36,0,4.73,2.42,9.12,5.28,12.36,9.61.36.48.64,1,1,1.48.13.17.44.36.59.31s.43-.39.4-.56a3.33,3.33,0,0,0-.47-1.21,25.23,25.23,0,0,0-5.86-6.13,59.43,59.43,0,0,0-11.73-6.68,16.75,16.75,0,0,1-2.41-1.58,31.34,31.34,0,0,1-2.53-1.87,2.67,2.67,0,0,1,.44.12A85.09,85.09,0,0,1,184,48.12c.7.49,1.44.95,2.18,1.39a10.76,10.76,0,0,0,1.1.51l.16-.2c-.26-.23-.52-.46-.79-.68a69.94,69.94,0,0,0-14.21-8.76,140.94,140.94,0,0,0-21.19-8,1.2,1.2,0,0,1-.59-.34c.62-.06,1.24-.17,1.86-.18,5.4-.13,10.81-.14,16.09,1.23A36.18,36.18,0,0,1,187,44.63a75.48,75.48,0,0,1,4.77,6.19,9.32,9.32,0,0,1,.87,2.54c0,.07,0,.2,0,.22-.86.45-.16.83.07,1.2a12.91,12.91,0,0,0,1.13,1.59c.4.46.89.85,1.34,1.27a13.43,13.43,0,0,1,3.2,5.4c1,2.84,1.91,5.73,2.85,8.6A5.37,5.37,0,0,1,201.31,72.25Z" transform="translate(-0.08 -0.02)"/><path class="cls-1" d="M114.39,155.43c1.52,0,3,.06,4.53,0,3.25-.15,6.5-.36,9.75-.54.54,0,1.13,0,1.19-.72s-.49-.84-1-1l-.2-.07v-4.67H141a1.38,1.38,0,0,1-.79,1.76q-4.36,2.68-8.6,5.56a17.06,17.06,0,0,0-2.31,2.29c-.05.05-.12.15-.11.2a1.7,1.7,0,0,0,.28.74c.43.42.53,1.51,1.5,1,2.7-1.5,5.71-1.87,8.65-2.57a37.87,37.87,0,0,0,9-3.18,2,2,0,0,0,1.2-2c.07-1.25-.51-2.47,0-3.8h1.46c9.12.1,18.25.22,27.37.28,3.47,0,6.94-.2,10.4-.14s6.66.28,10,.57c4.33.37,8.65.91,13,1.3s8.67.74,13,1c2.52.15,5.06.08,7.58.12a3.23,3.23,0,0,1,.77.21,3.39,3.39,0,0,1-.46.67,8.27,8.27,0,0,1-3.92,1.86c-4,.83-8,1.64-12,2.32a80.55,80.55,0,0,1-15,1.18,18.39,18.39,0,0,1-10.08-3.12c-1.59-1.05-1.61-1-3.26,0A91.56,91.56,0,0,1,169,164a21.83,21.83,0,0,1-10.22.52c-3.35-.51-5.62-2.81-7.55-5.42a10.13,10.13,0,0,1-1.1-2c-.27-.63-.64-.82-1.21-.45-1.24.81-2.51,1.6-3.68,2.51a45.27,45.27,0,0,1-14.78,8,31.48,31.48,0,0,1-10,.9c-1.72,0-3.43-.23-5.14-.35-.37,0-.62-.11-.64-.59-.1-3.75-.22-7.5-.33-11.26A4,4,0,0,1,114.39,155.43Z" transform="translate(-0.08 -0.02)"/><path class="cls-1" d="M130.74,124.1a2.93,2.93,0,0,0-2.44,1.66.85.85,0,0,1-.71.32c-1.28-.43-2.53-.94-3.78-1.41.25-1.11.15-1.26-.58-1.12l-.24-.94a3.68,3.68,0,0,0-.89.29c-.45.29-.82.83-1.36.14,0-.45.7-.89.13-1.32s-.79.25-1.18.43a1,1,0,0,1-.81-.05,49.54,49.54,0,0,1-13.14-10.84A42.14,42.14,0,0,1,97,95.53a40.05,40.05,0,0,1-1.2-11.23A54.73,54.73,0,0,1,99,65.59c.08-.24.18-.47.29-.75l1.48.63c-2,12-1.21,23.57,4.75,34.46C111.32,110.61,119.25,119.07,130.74,124.1Z" transform="translate(-0.08 -0.02)"/><path class="cls-1" d="M127,143.76c-1.09-.69-1.1-1.3.06-2.08.43-.29.85-.61,1.26-.93a6.17,6.17,0,0,0,2.33-6,2.18,2.18,0,0,1,.2-1.18c.63-1.24,1.33-2.46,2.06-3.78-.21-.42-.53-.51-1,0a24.83,24.83,0,0,0-1.47,2c-.19.27-.36.57-.57.9-3-2.9-6.81-4-10.69-5.16a4,4,0,0,1,.51-.41c.56-.3,1.15-.54,1.68-.87a2.38,2.38,0,0,1,2.67-.13,18.33,18.33,0,0,0,2.91,1.14c.46.16.59.38.48.86a3.22,3.22,0,0,0-.05,1.31c.05.25.39.45.6.67.21-.22.53-.4.61-.66a8.85,8.85,0,0,0,.17-1.54l2.63.66a60.18,60.18,0,0,0,11.82,1.66c.88,0,1.14.65,1.53,1.33-.24,0-.44.08-.52,0-.44-.37-.74-.32-.93.23a.78.78,0,0,0,.61,1.13,5.66,5.66,0,0,0,.83.1c.1.28.12.63.3.77a.73.73,0,0,0,.72-.06c.52-.8.49-.81,1.58-.63-.36,1-.73,2.06-1.07,3.09s-.65,1.93-.91,2.91a.79.79,0,0,1-.91.7,4.88,4.88,0,0,0-1.25.34c.22.7.82.33,1.25.44l.5.08c-.48,1.48-.93,2.91-1.42,4.33a.61.61,0,0,1-.47.34c-1.24-.18-2.46-.41-3.7-.6s-2.46-.36-3.69-.49c-.19,0-.61.28-.59.38.15,1-.65,1.24-1.24,1.19-1.35-.11-2.69-.46-4-.7-.38-.07-.76-.09-1-.12l-.7-1.74Z" transform="translate(-0.08 -0.02)"/><path class="cls-1" d="M112.14,43.09c-5.3,6.08-10.3,12.27-13.36,19.88a10.43,10.43,0,0,1-.89-.79,39.34,39.34,0,0,1-8.49-15.31c-.53-1.87-.58-1.53,1.2-2.07C97,42.88,103.48,42.68,110,42.88l1.79.08A1.37,1.37,0,0,1,112.14,43.09Z" transform="translate(-0.08 -0.02)"/><path class="cls-1" d="M241.79,100.72c-2.71.32-5.41.81-8.12.92a103.13,103.13,0,0,0-16.08,2.21c-3.32.67-6.56,1.67-9.87,2.37-2.13.45-4.32.67-6.49.94-1.63.21-3.26.34-4.9.5-.25,0-.49,0-.81,0,.89-1.55,1.76-3,2.55-4.47.61-1.15,1.11-2.36,1.7-3.51a1,1,0,0,1,.71-.51c5.68,0,11.39-.23,17,.27,7.83.7,15.68.34,23.49,1l.77.06Z" transform="translate(-0.08 -0.02)"/><path class="cls-1" d="M113.34,129.33a1.21,1.21,0,0,1,1.74,0q3.61,3,7.34,5.94a11.68,11.68,0,0,0,2.29,1.17,1.3,1.3,0,0,0,.76.11c.22,0,.4-.27.6-.41-.14-.19-.25-.49-.44-.56-3-1.07-5.2-3.21-7.55-5.19a1.59,1.59,0,0,1-.19-.24c.86-.33.94-.56.42-1.59a6.22,6.22,0,0,1,1.23.21c2.37.93,4.76,1.83,7.08,2.87a9.33,9.33,0,0,1,2.08,1.62.89.89,0,0,1,.12,1.26c-1.21,2.07-2.35,4.18-3.59,6.23a4.3,4.3,0,0,1-1.17,1l-.8-.74a8.75,8.75,0,0,1-.51.8,1.91,1.91,0,0,1-.63.6,3.69,3.69,0,0,1-2.59.17q-4.35-1.26-8.73-2.46a1.3,1.3,0,0,1-1-1c-.67-3.27-.55-6.39,1.88-9a3.61,3.61,0,0,1,.3-.25l3.88,2.87q1.48,1.09,3,2.15a1.76,1.76,0,0,0,.67.38,3.46,3.46,0,0,0,.91-.1c0-.31,0-.74-.15-.9a18.25,18.25,0,0,0-2-1.59C116.63,131.53,115,130.47,113.34,129.33Z" transform="translate(-0.08 -0.02)"/><path class="cls-1" d="M219.82,106.69c2-.51,4.08-1.05,6.13-1.51,3.67-.82,7.36-1.56,11-2.38a5.15,5.15,0,0,0,1.21-.7,1.34,1.34,0,0,1,.49-.18c2.9-.31,5.8-.61,8.76-.77l-1.24.72,0,.11c1.81-.37,3.6-.88,5.43-1.06s3.69,0,5.62,0l-1,5.58c-.31,1.77-.32,1.77-2.15,1.85-4.35.19-8.7.44-13,.54a23.07,23.07,0,0,1-3.94-.56c-1.61-.25-3.23-.5-4.84-.9l5.42-.8,14.54-2.13c.62-.09,1.24-.13,1.85-.27.25-.06.45-.31.68-.48a2.31,2.31,0,0,0-.82-.27c-1.06.08-2.13.2-3.18.36-7.4,1.07-14.79,2.2-22.2,3.18a43.75,43.75,0,0,1-5.85,0h-2.95Z" transform="translate(-0.08 -0.02)"/><path class="cls-1" d="M98.13,114.79l-4.34-1.93c-2-.86-3.89-1.78-5.88-2.54a50,50,0,0,1-9.11-4.95C69.34,99.28,59.5,93.88,49.58,88.6l-1.35-.74C53.87,88.45,90.93,108.41,98.13,114.79Z" transform="translate(-0.08 -0.02)"/><path class="cls-1" d="M136.43,35.39c-1.7.85-3.23,1.56-4.72,2.35a55.94,55.94,0,0,0-10.27,7.2.93.93,0,0,1-1.27.12c-1.57-.85-3.19-1.62-4.9-2.47,1.66-1.19,3.3-2.42,5-3.56a53.28,53.28,0,0,1,9.16-4.85,1.64,1.64,0,0,1,.9-.17C132.29,34.43,134.26,34.9,136.43,35.39Z" transform="translate(-0.08 -0.02)"/><path class="cls-1" d="M97.29,148.67l-.61-7.29.28,0c.14.9.26,1.8.42,2.7s.38,2,.61,3.06c.05.23.3.41.46.62a3.65,3.65,0,0,0,.54-.59c.2-.35.35-.74.6-1.31l-1,.6-.82-5.15c.51.1.88.18,1.25.24l12.11,1.87a6.22,6.22,0,0,1,1.3.25,16.52,16.52,0,0,0,8.32.59l1.22-.15c-.49.84-.85,1.55-1.31,2.21-.11.16-.51.18-.77.16-2.7-.25-5.39-.54-8.09-.78-3.58-.32-7.16-.59-10.74-.92-.63-.06-1.23-.32-1.86-.41-.24,0-.51.18-.77.28.18.21.34.55.56.59,1.3.26,2.61.51,3.93.65,3.44.36,6.89.65,10.44,1.15a2.25,2.25,0,0,1-.66.39,97.57,97.57,0,0,1-12.68,1.12Z" transform="translate(-0.08 -0.02)"/><path class="cls-1" d="M91.11,138.45l-2.64-.74c7-2.75,14-5,21.26-7.28-1.82,2.88-1.79,5.86-1.39,9a28.12,28.12,0,0,0-3-.59c-2.43-.21-4.88-.35-7.32-.48-.48,0-.85,0-1-.61a.69.69,0,0,0-.55-.4.7.7,0,0,0-.42.54c0,.52-.25.66-.7.74a13.13,13.13,0,0,0-1.51.4c-.59.18-1,.07-1.24-.56a1.6,1.6,0,0,0-.21-.42c-.2-.28-.42-.54-.63-.81l-.54,1Z" transform="translate(-0.08 -0.02)"/><path class="cls-1" d="M211.51,72.08a2.89,2.89,0,0,0,.53-.41c.92-1.27,2-1,3.06-.27.24.16.49.29.72.43-1.15,3.81-8.25,10.17-12.71,11.4l-.39-9.63.95,0c2.19.1,4.37.22,6.45-.73a1.06,1.06,0,0,1,.77.13c.76.39,1.49.85,2.26,1.22a2.15,2.15,0,0,0,.83,0,2.65,2.65,0,0,0-.46-.74C212.91,73.05,212.24,72.61,211.51,72.08Z" transform="translate(-0.08 -0.02)"/><path class="cls-1" d="M139.22,34.8a5.77,5.77,0,0,1,1.64-.08,276.41,276.41,0,0,1,29.27,8.5A32.84,32.84,0,0,1,174.44,45a14,14,0,0,1,2.61,2.1c1.89,1.72,3.74,3.47,5.56,5.3a180.87,180.87,0,0,0-43.4-17.35Z" transform="translate(-0.08 -0.02)"/><path class="cls-1" d="M262.68,147.7c.27,11.62.55,23.18-1.37,34.76a19.87,19.87,0,0,1-.8-2.19,7.37,7.37,0,0,1-.17-1.94c.18-7,.39-14.07.56-21.1.07-2.58.08-5.16.1-7.74C261,148,261,148,262.68,147.7Z" transform="translate(-0.08 -0.02)"/><path class="cls-1" d="M254,146a9,9,0,0,0,0,.95c.05.46-.18.63-.59.74a142.57,142.57,0,0,0-16,5.45,1,1,0,0,1-.91-.09,19.87,19.87,0,0,1-2-2.2c-.14-.18,0-.65.13-1,.63-2,.67-2,2.71-2a59.75,59.75,0,0,0,16.08-1.84C253.62,146.06,253.77,146.06,254,146Z" transform="translate(-0.08 -0.02)"/><path class="cls-1" d="M200.26,148.24h13.92l10.79,0c.73,0,1.46-.12,2.18-.09a7.16,7.16,0,0,1,1.17.34c.2,0,.5.07.62,0,.91-.89,2-.33,3-.42.07,0,.19.17.23.28.29.78.56,1.56.87,2.41C222,151,211.15,149.45,200.26,148.24Z" transform="translate(-0.08 -0.02)"/><path class="cls-1" d="M170.37,41.81c-9.16-3.15-18.49-5.52-27.85-7.85a11.16,11.16,0,0,1,6.9-1c7.07,1.73,13.9,4,20,8.16Z" transform="translate(-0.08 -0.02)"/><path class="cls-1" d="M43.52,86.75c11.22,5.84,22.42,11.73,33.08,18.57C64.71,100.67,53.34,95.07,43.52,86.75Z" transform="translate(-0.08 -0.02)"/><path class="cls-1" d="M255.75,123.19l3.2.42c-.39,3.42-.83,6.75-1.13,10.1s-.44,6.7-.66,10.11h-1.7c0-3.41,0-6.83,0-10.24S255.65,126.71,255.75,123.19Z" transform="translate(-0.08 -0.02)"/><path class="cls-1" d="M112.86,127.28c-.94,1-.94,1-1.89.3L90.76,113.27a2.2,2.2,0,0,1-.58-.56,4.42,4.42,0,0,1,.53.17c3.68,1.71,7.35,3.45,11,5.13a19.57,19.57,0,0,1,4.83,3.53C108.69,123.44,110.77,125.37,112.86,127.28Z" transform="translate(-0.08 -0.02)"/><path class="cls-1" d="M26.12,79.53A47.25,47.25,0,0,1,31.51,81c3,1.19,5.85,2.6,8.76,3.93a1.17,1.17,0,0,1,.44.39,7.42,7.42,0,0,0,1.06,1.56c2.06,1.71,4.19,3.35,6.3,5a2.25,2.25,0,0,1,.63.61c-.83-.4-1.66-.79-2.48-1.22L32.37,83.92c-.68-.36-1.34-.72-1.2-1.68,0-.17-.12-.37-.25-.75l-.69,1.12L26,79.87Z" transform="translate(-0.08 -0.02)"/><path class="cls-1" d="M233.82,146.89a4.24,4.24,0,0,1,.79-.42q8.17-2.38,16.35-4.73c1-.28,2-.46,2.93-.69l.14.22a3.08,3.08,0,0,1-.5.53c-2,1.3-4,2.58-6,3.9-.21.14-.31.44-.54.79-4.22.8-8.64.57-13.05.6Z" transform="translate(-0.08 -0.02)"/><path class="cls-1" d="M102.74,41.88c1.8-.51,3.6-1,5.39-1.55a89.33,89.33,0,0,0,14.34-6,22.07,22.07,0,0,1,3-1.16c.22-.08.54.12.81.19-.19.2-.34.48-.57.58a42.2,42.2,0,0,0-12.19,7.81,1.28,1.28,0,0,1-.8.34c-3.07,0-6.15-.1-9.22-.16h-.75Z" transform="translate(-0.08 -0.02)"/><path class="cls-1" d="M259.64,123.72c0,.8.08,1.43.1,2.06.13,4.56.32,9.12.35,13.68,0,2-.26,4.05-.44,6.08-.09,1.06-1,.67-1.6,1C257.65,143.7,258.89,125.46,259.64,123.72Z" transform="translate(-0.08 -0.02)"/><path class="cls-1" d="M172.58,114.28a15.71,15.71,0,0,1-3.51,4.3c-2.82,2.06-5.65,4.11-8.6,6a11.51,11.51,0,0,1-3.5.93,10.63,10.63,0,0,1-1.24.15l-.13-.2c2.8-1.9,5.58-3.82,8.4-5.68S169.7,116.12,172.58,114.28Z" transform="translate(-0.08 -0.02)"/><path class="cls-1" d="M164.16,127.11c2.41-1.65,4.66-3.5,7.56-4.4A52.35,52.35,0,0,0,181.83,118a6.34,6.34,0,0,1,2.42-.59A58.17,58.17,0,0,1,164.16,127.11Z" transform="translate(-0.08 -0.02)"/><path class="cls-1" d="M209.38,72.13a13.09,13.09,0,0,1-5.35.43c-1.52-.08-1.46-.14-1.82-1.6-.52-2.17-1.13-4.31-1.63-6.2Z" transform="translate(-0.08 -0.02)"/><path class="cls-1" d="M110.25,142.35c-2.61-.39-5-.72-7.44-1.11-1.36-.22-2.71-.52-4.06-.8s-1.24-.26-1.33-1.61a3.07,3.07,0,0,1,.49-.11,28.12,28.12,0,0,1,10.18,1.14,1.74,1.74,0,0,1,.76.58C109.3,141,109.69,141.56,110.25,142.35Z" transform="translate(-0.08 -0.02)"/><path class="cls-1" d="M255.86,109.18c-.23,2.62-.23,2.63-2.65,2.62-2.11,0-4.23,0-6.33-.1a61.16,61.16,0,0,1-6.22-.73h4a1.9,1.9,0,0,0,.7,0,4.11,4.11,0,0,0,.75-.53c-.24-.19-.47-.38-.71-.56-.06,0-.15,0-.22-.21Z" transform="translate(-0.08 -0.02)"/><path class="cls-1" d="M250.09,149.25a11.32,11.32,0,0,0-1.21.7,2.4,2.4,0,0,0-.44.66,7.17,7.17,0,0,0,.73.3,2.5,2.5,0,0,0,.55,0c-1.94,2.48-8.64,4-11.8,2.58L250,149Z" transform="translate(-0.08 -0.02)"/><path class="cls-1" d="M142.88,30.28c2.91-1,17.52-.23,21,1.12-1.65-.09-3.27-.22-4.89-.25a49.7,49.7,0,0,0-9.83.45,1.21,1.21,0,0,1-.47,0Z" transform="translate(-0.08 -0.02)"/><path class="cls-1" d="M199.36,111.34c-.56.54-.89.6-2.84.55l.6-.47-.07-.13c-.22.09-.44.21-.67.28a19.47,19.47,0,0,1-2.44.74,2.17,2.17,0,0,0-2,1.8l4.73-.93,0,.17-8,2.39-.21-.29a8,8,0,0,0,.86-.7c1.33-1.42,2.64-2.88,4-4.29a1.08,1.08,0,0,1,.82-.34C195.93,110.49,197.64,110.92,199.36,111.34Z" transform="translate(-0.08 -0.02)"/><path class="cls-1" d="M91,115.06,73.7,105.79C79.91,108.09,86,110.63,91,115.06Z" transform="translate(-0.08 -0.02)"/><path class="cls-1" d="M141.73,129,131.5,127.4l0-.35a7.52,7.52,0,0,1,1.57-.62,12,12,0,0,1,8.75,2.23Zm-9.22-2.19c.14.69.87.73,1.56.14Z" transform="translate(-0.08 -0.02)"/><path class="cls-1" d="M141.59,126.89l9,.25C148.11,129.58,144.65,130,141.59,126.89Z" transform="translate(-0.08 -0.02)"/><path class="cls-1" d="M194.21,109.24c.3-.19.59-.52.9-.54,2-.11,4-.14,5.93-.2a2.49,2.49,0,0,1,.43.1,6.86,6.86,0,0,0-1,.61.76.76,0,0,0-.22.59c0,.11.34.27.5.25.77-.11,1.54-.27,2.24-.4l1.41.77a9.48,9.48,0,0,1-5,0c-1.68-.36-3.37-.67-5-1Z" transform="translate(-0.08 -0.02)"/><path class="cls-1" d="M256.79,162c-.16-1.28-.34-2.56-.47-3.84-.24-2.35-.48-4.71-.68-7.07-.11-1.32-.08-1.33,1.35-1.5V162Z" transform="translate(-0.08 -0.02)"/><path class="cls-1" d="M202.71,64.9l9.56,5.47c-.37.27-.83.63-1.32.92a.62.62,0,0,1-.55-.1q-3.78-3.09-7.53-6.22a.91.91,0,0,1-.13-.18Z" transform="translate(-0.08 -0.02)"/><path class="cls-1" d="M261.69,133.86c.26,3.53.53,7,.77,10.55.08,1.19,0,1.23-1.37,1.24Z" transform="translate(-0.08 -0.02)"/><path class="cls-1" d="M144.81,32.56c-1.19.35-2.37.74-3.58,1a2.88,2.88,0,0,1-1.07-.15l-5.39-.92a.63.63,0,0,1-.4-.21h10.41Z" transform="translate(-0.08 -0.02)"/><path class="cls-1" d="M257.5,100.19a2.81,2.81,0,0,1-.76.24,19.88,19.88,0,0,1-4.75-.06c-3.32-.8-6.65.5-9.73-.3,4.9-.25,10-.7,15.14-.15Z" transform="translate(-0.08 -0.02)"/><path class="cls-1" d="M235.69,108.91H223.27A24,24,0,0,1,235.69,108.91Z" transform="translate(-0.08 -0.02)"/><path class="cls-1" d="M96,144.94a8.17,8.17,0,0,1-2.57-4.85c.78.21,1.52.39,2.25.62a.52.52,0,0,1,.3.37C96,142.32,96,143.55,96,144.94Z" transform="translate(-0.08 -0.02)"/><path class="cls-1" d="M103.21,56.67l-2.35,7.57-1.28-.62,3.5-7Z" transform="translate(-0.08 -0.02)"/><path class="cls-1" d="M259.22,149,258,156.47h-.14c0-2.26,0-4.53,0-6.79,0-.85.83-.5,1.17-.86Z" transform="translate(-0.08 -0.02)"/><path class="cls-1" d="M223.32,107.75c-2.91.37-5.76,1.33-8.93.79C217.37,107.15,220.39,107.91,223.32,107.75Z" transform="translate(-0.08 -0.02)"/><path class="cls-1" d="M184.43,116.6l8.27-7,0-.09a4.66,4.66,0,0,1-.46.65c-1.9,1.88-3.77,3.8-5.74,5.61a7.08,7.08,0,0,1-2.07.91Z" transform="translate(-0.08 -0.02)"/><path class="cls-1" d="M213.68,110.36c3.3-.77,6.61-.47,9.92-.26v.26Z" transform="translate(-0.08 -0.02)"/><path class="cls-1" d="M262.27,128.51l1.31,16.41-.26,0L262,128.53Z" transform="translate(-0.08 -0.02)"/><path class="cls-1" d="M94.35,148.78H92.7v-5.34Z" transform="translate(-0.08 -0.02)"/><path class="cls-1" d="M141.51,146.6c-.47.38-4.28,0-5.78-.45a.84.84,0,0,1,1.11-.75c1,.22,2,.48,2.94.73C140.34,146.26,140.9,146.43,141.51,146.6Z" transform="translate(-0.08 -0.02)"/><path class="cls-1" d="M131.8,147.39a15.54,15.54,0,0,1,7.19.12C137.94,147.85,132.15,147.77,131.8,147.39Z" transform="translate(-0.08 -0.02)"/><path class="cls-1" d="M96.35,148.65c-.61.23-1,0-1.14-.61a29.48,29.48,0,0,1-.74-3.41A5.69,5.69,0,0,1,96.35,148.65Z" transform="translate(-0.08 -0.02)"/><path class="cls-1" d="M110.75,140.6l5.83,2C114.46,142.7,112.4,142.62,110.75,140.6Z" transform="translate(-0.08 -0.02)"/><path class="cls-1" d="M248,146.14c.75-.27,1.48-.58,2.24-.8,1-.3,2.12-.55,3.18-.79.16,0,.35.09.53.14-.11.17-.2.46-.34.49-1.84.43-3.69.81-5.53,1.21Z" transform="translate(-0.08 -0.02)"/><path class="cls-1" d="M229.6,142.62l1.53,2.76-2.1.43.27-3.1Z" transform="translate(-0.08 -0.02)"/><path class="cls-1" d="M131.93,33.14l7,1v.38a6.3,6.3,0,0,1-1.51.07c-1.86-.36-3.7-.79-5.55-1.2Z" transform="translate(-0.08 -0.02)"/><path class="cls-1" d="M254,142.16a13.66,13.66,0,0,1,0,1.43.6.6,0,0,1-.33.43,23,23,0,0,1-3.32.62Z" transform="translate(-0.08 -0.02)"/><path class="cls-1" d="M156.11,127.06,151,129l-.09-.23C152.42,127.64,153.87,126.41,156.11,127.06Z" transform="translate(-0.08 -0.02)"/><path class="cls-1" d="M158.34,147.63h19.24v.09H158.35Z" transform="translate(-0.08 -0.02)"/><path class="cls-1" d="M213.49,105.3l9.86-1.89,0,.21-9.83,2Z" transform="translate(-0.08 -0.02)"/><path class="cls-1" d="M257.12,144.86c.16,1.94.11,2-1.52,2.21C255.18,145.76,255.27,145.63,257.12,144.86Z" transform="translate(-0.08 -0.02)"/><path class="cls-1" d="M130.44,127l-1.27-.37a5.08,5.08,0,0,1,1-1.26,3.58,3.58,0,0,1,1.39-.31c.4-.06.75-.84,1.23-.11C131.81,125.37,130.6,125.49,130.44,127Z" transform="translate(-0.08 -0.02)"/><path class="cls-1" d="M136.14,30.75l-3.76.83.3-1.09h3.41Z" transform="translate(-0.08 -0.02)"/><path class="cls-1" d="M211.73,107.13l6.45-1.1c-2,1.21-4.26,1-6.41,1.35Z" transform="translate(-0.08 -0.02)"/><path class="cls-1" d="M255.58,149c-.33-1.36-.09-1.63,1.45-1.68C257.31,148.62,257,148.92,255.58,149Z" transform="translate(-0.08 -0.02)"/><path class="cls-1" d="M264.62,100.44c-1.78,0-3.57,0-5.35,0-.12,0-.24-.17-.37-.27.14-.07.29-.21.43-.21,1.76.08,3.53.18,5.29.27Z" transform="translate(-0.08 -0.02)"/><path class="cls-1" d="M217.89,98.18A23.2,23.2,0,0,1,210,97.07Z" transform="translate(-0.08 -0.02)"/><path class="cls-1" d="M161.53,126.19c-1.38.86-2.42,2.29-4.24,2.38l-.11-.19,4.24-2.39Z" transform="translate(-0.08 -0.02)"/><path class="cls-1" d="M252.35,149.8c.29-1.35.56-1.64,1.63-1.71C254.21,149.57,254.11,149.68,252.35,149.8Z" transform="translate(-0.08 -0.02)"/><path class="cls-1" d="M258,148.3c-.18-1.39,0-1.54,1.4-1.59C259.45,148,259.4,148,258,148.3Z" transform="translate(-0.08 -0.02)"/><path class="cls-1" d="M143.27,31.54l-4.4-.4c1.54-.71,3,.06,4.42.13Z" transform="translate(-0.08 -0.02)"/><path class="cls-1" d="M116,153.74h5.37v.13H116Z" transform="translate(-0.08 -0.02)"/><path class="cls-1" d="M138,156.17l4.38-1.32a.62.62,0,0,1,.47,0,18.15,18.15,0,0,1-4.79,1.49Z" transform="translate(-0.08 -0.02)"/><path class="cls-1" d="M262.51,146c.18.88.08,1-1.35,1.23C260.86,146.22,261,146.08,262.51,146Z" transform="translate(-0.08 -0.02)"/><path class="cls-1" d="M234.64,148l-1,1.68L233,148Z" transform="translate(-0.08 -0.02)"/><path class="cls-1" d="M128.8,31.89c.79-.61,1.41-1.07,2.25-.87.16,0,.29.2.43.3-.13.09-.26.24-.4.26C130.4,31.69,129.72,31.77,128.8,31.89Z" transform="translate(-0.08 -0.02)"/><path class="cls-1" d="M109.9,154.07l2.19-.79C112,154.4,111.34,154.64,109.9,154.07Z" transform="translate(-0.08 -0.02)"/><path class="cls-1" d="M89.16,44.35c0-.69.45-.84,2.21-.67Z" transform="translate(-0.08 -0.02)"/><path class="cls-1" d="M256,122.16l3,.54,0,.21-3-.41Z" transform="translate(-0.08 -0.02)"/><path class="cls-1" d="M128,138.9l1.18-2.24.27.14L128.27,139Z" transform="translate(-0.08 -0.02)"/><path class="cls-1" d="M126.22,149.58c.16,1.47,0,1.89-.64,1.88Z" transform="translate(-0.08 -0.02)"/><path class="cls-1" d="M145.32,130.3h.82l.15,1.11-.21.12Z" transform="translate(-0.08 -0.02)"/><path class="cls-1" d="M208,109.57h-1.87v-.21l1.85-.11Z" transform="translate(-0.08 -0.02)"/><path class="cls-1" d="M94.62,139.3l1.31-.34.08.8-1.35-.3Z" transform="translate(-0.08 -0.02)"/><path class="cls-1" d="M114.18,150.32v-1.11l.2-.11c.15.21.43.42.42.63s-.26.47-.4.7Z" transform="translate(-0.08 -0.02)"/><path class="cls-1" d="M114.07,126.74l-1.63-1.54.14-.16,1.68,1.47Z" transform="translate(-0.08 -0.02)"/><path d="M151.84,87.61c0-.29,0-.57,0-.86a2.61,2.61,0,0,1,3-2.58,9.61,9.61,0,0,1,2.67.93,1.51,1.51,0,0,1,.87,1.54c-.05.91-.14,1.81-.22,2.71,0,.12-.1.3-.19.32-1,.23-1.62,1.35-2.9,1.14a4.51,4.51,0,0,1-2.84-1.46,4.63,4.63,0,0,1-.53-1.71Z" transform="translate(-0.08 -0.02)"/><path d="M111.73,87.69a10.82,10.82,0,0,1-1.22-.19c-1.2-.32-1.34-.53-1.42-1.79,0-.52-.13-1-.13-1.55a3.5,3.5,0,0,1,1.87-3c1.06-.41,2.3.13,3.39,1a3.08,3.08,0,0,1-.16,4.81,10.41,10.41,0,0,1-2.23.93Z" transform="translate(-0.08 -0.02)"/><path d="M136.52,105c-1.68-.14-3.38-.2-5-.46a10,10,0,0,1-4.79-2.35c-.19-.15-.24-.46-.36-.7a2.08,2.08,0,0,1,.84,0c.61.3,1.16.7,1.75,1a9.6,9.6,0,0,0,4.87,1.22c2.62-.05,5.25-.15,7.87-.32a23.3,23.3,0,0,0,2.58-.6,2.74,2.74,0,0,1,.95.18c-.22.24-.4.6-.68.7a17.2,17.2,0,0,1-6.89,1.18c-.36,0-.73,0-1.09,0Z" transform="translate(-0.08 -0.02)"/><path d="M182.08,141.1c2.64.9,5.27,1.79,7.9,2.71.46.16,1,.4.58.92a3.64,3.64,0,0,0-.86-.69c-2.28-.83-4.57-1.62-6.85-2.43l-.87-.33Z" transform="translate(-0.08 -0.02)"/><path d="M132.51,126.79l1.57.13C133.38,127.53,132.65,127.48,132.51,126.79Z" transform="translate(-0.08 -0.02)"/></g></g></g></svg>