<svg xmlns="http://www.w3.org/2000/svg" viewBox="0 0 183.51 187.9"><defs><style>.cls-1{fill:#fff;}</style></defs><title>present</title><g id="Layer_2" data-name="Layer 2"><g id="Layer_9" data-name="Layer 9"><g id="rMFLOO.tif"><path class="cls-1" d="M183.69,187.9H.18V0H183.69ZM85.75,139l5.18-1.17a.83.83,0,0,1,.55,0c1.47.88,3.13.76,4.73.85a26.38,26.38,0,0,0,13.73-3.33,4.63,4.63,0,0,1,1.33-.41,17.51,17.51,0,0,0,2-.23,24.44,24.44,0,0,0,10.17-6.35c2.63-2.58,5.14-5.27,7.71-7.91,1.26-1.3,2.57-2.55,3.79-3.89,4.32-4.76,7.24-10.24,7.85-16.7.31-3.34.09-6.73.16-10.09a4.1,4.1,0,0,1,.43-1.81,167.54,167.54,0,0,0,8.93-19,1.39,1.39,0,0,1,.86-.69c3.69-.93,7.42-1.74,11.09-2.74a11.83,11.83,0,0,1,4.57-.6,13.19,13.19,0,0,0,2.76-.1c.55-.05,1.12-.21,1.21-.93l-3-.21,1.32-1-.12-.21a13.93,13.93,0,0,0-1.5.47,5.07,5.07,0,0,1-3.62.11,36,36,0,0,1-9.1-4.32.85.85,0,0,1-.39-1.18c.39-1.11.75-2.23,1.08-3.36.14-.51.58-1.23-.2-1.48s-.79.6-1,1.09c-.13.32-.22.66-.33,1l-1,2.84c-1.72-1.47-3.23-2.83-4.81-4.1a1.68,1.68,0,0,1-.62-2c.9-3.63,1.85-7.27,2.44-11,.41-2.51.12-5.13.7-7.65a2.86,2.86,0,0,0,0-1.14,4.55,4.55,0,0,0-.36-.88h-.3c-1.14,6.41-4,12.24-5.84,18.58-.37-.38-.57-.58-.75-.79l-6.11-7.33c-5.05-6-10.07-12.13-15.18-18.13a20.64,20.64,0,0,0-5.93-5,8.56,8.56,0,0,0-6.76-.37c-1.2.37-1.43,1.35-.84,2,.44-.38.83-1,1.31-1.08,2.6-.43,5.07-.14,7.12,1.77a24.13,24.13,0,0,1,1.88,1.76c3.52,4.06,7.06,8.09,10.49,12.22,4.59,5.53,9.08,11.13,13.59,16.72a1.24,1.24,0,0,1,.16,1q-2.47,7.16-5,14.3a1.12,1.12,0,0,1-.86.6c-2.24-.2-4.48-.47-6.71-.77a1.89,1.89,0,0,1-1.1-.49c-2.67-3-6.21-5.19-8.2-8.82a3.48,3.48,0,0,0-.63-.66l-.22.16.48,1.22c-3.09-2-6.32-3.93-9.25-6.19a45.83,45.83,0,0,0-19.86-8.54c-2.42-.46-4.89-.71-7.44-1.07.23-.5.47-1,.68-1.45a9.93,9.93,0,0,0,1.27-4.73c-.07-1-.34-1.14-1.25-.81l.16.88c-2.64-3.88-4.26-8-4-12.77a5,5,0,0,1,1.59-3.64,13.62,13.62,0,0,1,2.45-1.78,20.26,20.26,0,0,1,9.09-2.2c2-.08,4,0,6.16,0a1.9,1.9,0,0,0-1.83-1.14c-1.74-.09-3.49-.22-5.24-.17a19.17,19.17,0,0,0-9.41,2.41c-2.28,1.35-4.24,3.06-4.37,6a28.2,28.2,0,0,0,.25,5.31,21.19,21.19,0,0,0,3.64,8.42,3.53,3.53,0,0,1,.28,3.49c-.67,1.74-1.59,2.32-3.54,2.32-5,0-10,.17-15,.59-7.25.6-14.15,2.5-20.19,6.77a44.74,44.74,0,0,0-12,13.25c-.14.23-.3.45-.54.79-3-5.15-4.57-10.66-6.27-16.15s-1.94-11.25-1.9-17a2.36,2.36,0,0,0-.76,1.16,14.16,14.16,0,0,0-.27,2.46c0,2,0,4,0,6h-.34c-.09-2.17-.33-4.35-.23-6.52s.57-4.28.88-6.42l-.11-.14-1.5,2.46a5.33,5.33,0,0,0,0-.77c-.36-1.93.36-3,2.21-3.93A25.85,25.85,0,0,0,31,20.95c.68-.56.53-.9-.27-1.15.08-.44.18-.87.22-1.31s0-.89,0-1.33c0-1.54-.36-1.88-1.93-1.9H26.76c.3-.57.5-1,.72-1.33a17.16,17.16,0,0,0,2.67-11c0-.39-.26-1-.53-1.06a2.38,2.38,0,0,0-1.41.21c-.26.1-.46.43-.64.69q-2.12,3-4.21,6a2.46,2.46,0,0,0-.42.85,4.85,4.85,0,0,0,0,1,6.21,6.21,0,0,0,1.15-.43c.22-.14.35-.45.5-.68C25.82,7.69,27,5.84,28.29,4c.19-.29.44-.55.66-.82a17,17,0,0,1-.12,4c-.38,2.43-1.62,4.52-2.69,6.69-.44.9-.91,1.6-2,1.69a1.57,1.57,0,0,0-.93.43A4.35,4.35,0,0,0,22.63,17c.39.07.86.32,1.17.19,1.82-.79,3.69-.34,5.56-.5.26,1.31.24,2.48-.74,3.36-1.39,1.25-2.86,2.41-4.3,3.6a2.2,2.2,0,0,1-.57.22,12.54,12.54,0,0,0-.19-1.78,3.57,3.57,0,0,0-.59-.94,3.7,3.7,0,0,0-.62,1,5.09,5.09,0,0,0-.2,1.7c.06.85-.36,1.18-1.07,1.41-1.57.51-3.13,1.06-4.68,1.62a2.09,2.09,0,0,0-.87.52.9.9,0,0,0-.07.78.7.7,0,0,0,.61.29q2.36-.51,4.69-1.11a10.21,10.21,0,0,0,1.32-.55c0,.49,0,.83,0,1.17.15,3.33.16,6.68.5,10a71.76,71.76,0,0,0,9.26,28.53,1.87,1.87,0,0,1,.1,1.85,24.44,24.44,0,0,0-1.83,5.49,5.53,5.53,0,0,1-1.48,3C20.81,86,18.76,96.59,21,108.17a34.53,34.53,0,0,0,7.64,15.38,4.32,4.32,0,0,1,.77,1.5,24.93,24.93,0,0,0,2.95,6.69c3.29,5.1,8.13,7.81,13.92,9,6.76,1.43,13.59,1.12,20.42.87,1.06,0,2.13-.12,3.19-.18,0,2.27-.11,4.42,0,6.55.2,3.18.76,6.35.83,9.54A43,43,0,0,0,72.28,169c.7,2.31,1.43,4.61,2.11,6.93.09.31,0,.91-.18,1-2.38,1.33-4.77,2.64-7.2,3.87-1.64.83-3.35,1.52-5,2.32-.32.15-.8.52-.77.75.09.9-.64,1-1.1,1.47a1.68,1.68,0,0,0-.56,1.14c0,.23.65.57,1,.58,2.29.06,4.57.05,6.86.05a2.2,2.2,0,0,0,.81-.16,10.61,10.61,0,0,1,1.59-.72c1.92-.43,3.88-.69,5.79-1.17,2.92-.74,5.81-1.63,8.71-2.44.57-.16,1.14-.29,1.79-.46-2-6.93-4-13.76-6-20.57s-4.2-13.64-6.34-20.53l.8-.14c2.16-.35,4.35-.59,6.48-1.11,1-.25,1.16.08,1.35.89.3,1.29.7,2.56,1.1,3.82.2.63.52,1.22.85,2L83,146.36c.39,2,.68,4.07,1.24,6.12,2,7.54,4.17,15.05,6.29,22.57.67,2.38,1.45,4.72,2.16,7.09.2.68.78,1.29.34,2.11-.06.11.43.76.67.76,3.47,0,6.8.87,10.16,1.53a22.43,22.43,0,0,0,6.41.39c.37,0,.72-.2,1.09-.26s.8-.06,1.19-.09,1.27.06,1.36-.15c.38-.86,1.21-.82,1.82-1.2.44-.28,1-.74,1.06-1.15a2.09,2.09,0,0,0-.79-1.46,12.51,12.51,0,0,0-5.62-2.17,32.14,32.14,0,0,1-4.49-1.19c-1.58-.56-3.11-1.3-4.63-2a1.51,1.51,0,0,1-.75-.84,162.86,162.86,0,0,0-7.2-21.09C91,149.78,89,144.14,85.75,139ZM151.6,19.71l-.3.07c-.15-.12-.3-.22-.44-.35-1.51-1.33-3-1.22-4.46.12-2.29,2.06-2.61,6.82,1,8.4,2.94,1.27,5.93,2.4,8.92,3.55a4.07,4.07,0,0,0,1.78.21c.39,0,1-.33,1.07-.63.19-.66-.45-.75-.95-.9a23.06,23.06,0,0,1-3.32-1.11,16.86,16.86,0,0,1-5.55-4.85,9,9,0,0,0-1.1-1.18,2.37,2.37,0,0,0-.83-.27,2.35,2.35,0,0,0,0,.89,7,7,0,0,0,.84,1.38c.73,1,1.49,1.89,2.24,2.83a21.58,21.58,0,0,1-2.46-1.09c-2.69-1.22-2.48-4.74-.71-6.32a1.56,1.56,0,0,1,2.48,0,17.58,17.58,0,0,0,1.7,1.52,1,1,0,0,0,.93,0c.14-.09.1-.55.06-.84s-.18-.3-.27-.43a4.08,4.08,0,0,0,.28-3.87,19.73,19.73,0,0,1-.64-6.6,2.26,2.26,0,0,1,1.41-2.09c1-.46,1.3-.31,1.35.74.1,2,.11,4.06.17,6.09a4.69,4.69,0,0,0,.2,1.4c.1.27.44.45.68.67.16-.26.46-.52.46-.79,0-2.22,0-4.45,0-6.67a5,5,0,0,0-.43-2,2,2,0,0,0-1.24-1,3.69,3.69,0,0,0-4,3.35,19.46,19.46,0,0,0,.75,7.54A11.56,11.56,0,0,1,151.6,19.71ZM10.77,23l.22-.4a10.69,10.69,0,0,0-1-.77c-2-1.29-4.11-2.53-6.11-3.87a3.72,3.72,0,0,1-1.69-4.3C2.8,11.42,3.37,9.21,4.1,7A3.78,3.78,0,0,1,6.44,4.4C6.33,2.93,7.9,3,8.53,2a2.77,2.77,0,0,0-2.38.68A12.86,12.86,0,0,0,1,10.82,54.54,54.54,0,0,0,.45,20.2a4.94,4.94,0,0,0,3.11,4.47,12.85,12.85,0,0,0,9.1.51,2.89,2.89,0,0,0,.77.52,2.35,2.35,0,0,0,.89-.08c-.05-.25-.1-.5-.16-.76a6.8,6.8,0,0,0-.23-.9c-.17-.43-.38-.84-.57-1.25-.38.33-.56.58-.57.84,0,.82-.45,1-1.18.92-1.58-.17-3.18-.2-4.73-.47a9.62,9.62,0,0,1-2.93-1,4,4,0,0,1-1.86-4.48c1.37.85,2.73,1.78,4.17,2.56A12.48,12.48,0,0,0,10.77,23Zm152.79,7.19a6.38,6.38,0,0,1-.92.23c-1.69.2-2,1.31-2.3,2.81,0,.23.23.52.35.79a3.49,3.49,0,0,0,.83-.46,1.39,1.39,0,0,0,.27-.7c.12-.58.48-.78,1.05-.9a30.72,30.72,0,0,0,10-4c3-1.83,5.09-4.56,7.46-7,3.12-3.24,3.41-7.06,2.26-11.17a8.35,8.35,0,0,0-.6-1.28l-.23.1c.1,1,.19,2.07.29,3.1A10,10,0,0,1,179,20.29a28.22,28.22,0,0,1-8,5.82c-2.22,1-4.56,1.7-6.85,2.54-.32.12-.81.2-.9.43S163.41,29.72,163.57,30.15Zm18-23.36.1-.42a8,8,0,0,0-1.5-.43,12.45,12.45,0,0,0-6.48,1.26C169.75,9.06,165.89,11.06,162,13a8.92,8.92,0,0,1-3.61,1.38c-.37,0-.71.38-1.07.58,2.12.64,2.61.61,4.33-.29,2.65-1.37,5.26-2.82,7.92-4.17,3.49-1.77,7-3.42,11.07-3.48A3.5,3.5,0,0,0,181.55,6.79ZM22.34,10.06l.09-.29c-.16-.18-.28-.43-.48-.52C19.29,8,17.47,5.72,15.28,3.91,13.89,2.76,12.41,1.72,10.92.7c-.24-.16-.71,0-1.07,0a3.34,3.34,0,0,0,.59,1c1.24,1,2.57,1.86,3.79,2.87s2.29,2.21,3.51,3.22A24.4,24.4,0,0,0,21,9.92,3.53,3.53,0,0,0,22.34,10.06Z" transform="translate(-0.18 0)"/><path d="M85.75,139c3.29,5.18,5.29,10.83,7.58,16.34a162.86,162.86,0,0,1,7.2,21.09,1.51,1.51,0,0,0,.75.84c1.52.72,3,1.46,4.63,2a32.14,32.14,0,0,0,4.49,1.19,12.51,12.51,0,0,1,5.62,2.17,2.09,2.09,0,0,1,.79,1.46c0,.41-.61.88-1.06,1.15-.61.38-1.44.34-1.82,1.2-.09.21-.88.11-1.36.15s-.8,0-1.19.09-.72.23-1.09.26a22.43,22.43,0,0,1-6.41-.39c-3.36-.66-6.69-1.56-10.16-1.53-.23,0-.73-.65-.67-.76.44-.82-.13-1.44-.34-2.11-.71-2.36-1.49-4.71-2.16-7.09-2.12-7.51-4.24-15-6.29-22.57-.55-2-.85-4.16-1.24-6.12l1.31.19c-.33-.74-.64-1.33-.85-2-.41-1.26-.8-2.53-1.1-3.82-.19-.81-.32-1.14-1.35-.89-2.12.52-4.31.76-6.48,1.11l-.8.14c2.13,6.9,4.28,13.7,6.34,20.53s4,13.63,6,20.57c-.65.16-1.22.3-1.79.46-2.9.82-5.79,1.7-8.71,2.44-1.91.49-3.87.74-5.79,1.17a10.61,10.61,0,0,0-1.59.72,2.2,2.2,0,0,1-.81.16c-2.29,0-4.58,0-6.86-.05-.36,0-1-.35-1-.58a1.68,1.68,0,0,1,.56-1.14c.46-.43,1.19-.57,1.1-1.47,0-.23.45-.59.77-.75,1.66-.79,3.37-1.48,5-2.32,2.43-1.23,4.82-2.54,7.2-3.87.2-.11.27-.71.18-1-.67-2.32-1.41-4.62-2.11-6.93a43,43,0,0,1-1.57-11.48c-.08-3.18-.63-6.35-.83-9.54-.14-2.13,0-4.28,0-6.55-1.06.06-2.12.14-3.19.18-6.83.25-13.67.56-20.42-.87-5.79-1.22-10.63-3.94-13.92-9A24.93,24.93,0,0,1,29.36,125a4.32,4.32,0,0,0-.77-1.5A34.53,34.53,0,0,1,21,108.17C18.76,96.59,20.81,86,28.63,76.83a5.53,5.53,0,0,0,1.48-3,24.44,24.44,0,0,1,1.83-5.49,1.87,1.87,0,0,0-.1-1.85,71.76,71.76,0,0,1-9.26-28.53c-.34-3.31-.34-6.66-.5-10,0-.34,0-.68,0-1.17a10.21,10.21,0,0,1-1.32.55q-2.34.6-4.69,1.11a.7.7,0,0,1-.61-.29.9.9,0,0,1,.07-.78,2.09,2.09,0,0,1,.87-.52c1.55-.56,3.11-1.11,4.68-1.62.72-.23,1.14-.56,1.07-1.41a5.09,5.09,0,0,1,.2-1.7,3.7,3.7,0,0,1,.62-1,3.57,3.57,0,0,1,.59.94,12.54,12.54,0,0,1,.19,1.78,2.2,2.2,0,0,0,.57-.22c1.44-1.19,2.91-2.36,4.3-3.6,1-.88,1-2.05.74-3.36-1.87.16-3.75-.29-5.56.5-.3.13-.77-.12-1.17-.19A4.35,4.35,0,0,1,23.2,16a1.57,1.57,0,0,1,.93-.43c1.1-.09,1.56-.8,2-1.69,1.07-2.17,2.31-4.26,2.69-6.69a17,17,0,0,0,.12-4c-.22.27-.47.53-.66.82C27,5.84,25.82,7.69,24.59,9.55c-.16.24-.28.55-.5.68a6.21,6.21,0,0,1-1.15.43,4.85,4.85,0,0,1,0-1,2.46,2.46,0,0,1,.42-.85q2.09-3,4.21-6c.18-.26.38-.59.64-.69a2.38,2.38,0,0,1,1.41-.21c.26.08.48.68.53,1.06a17.16,17.16,0,0,1-2.67,11c-.22.37-.42.76-.72,1.33H29c1.57,0,1.92.36,1.93,1.9,0,.45,0,.89,0,1.33s-.14.87-.22,1.31c.8.25,1,.59.27,1.15a25.85,25.85,0,0,1-4.89,3.58c-1.85.89-2.57,2-2.21,3.93a5.33,5.33,0,0,1,0,.77l1.5-2.46.11.14c-.31,2.14-.77,4.27-.88,6.42s.14,4.34.23,6.52h.34c0-2,0-4,0-6a14.16,14.16,0,0,1,.27-2.46,2.36,2.36,0,0,1,.76-1.16c0,5.79.18,11.49,1.9,17s3.3,11,6.27,16.15c.24-.35.39-.57.54-.79A44.74,44.74,0,0,1,47,49.41c6-4.27,12.93-6.17,20.19-6.77,5-.41,10-.6,15-.59,2,0,2.87-.58,3.54-2.32a3.53,3.53,0,0,0-.28-3.49,21.19,21.19,0,0,1-3.64-8.42,28.2,28.2,0,0,1-.25-5.31c.12-2.9,2.09-4.61,4.37-6a19.17,19.17,0,0,1,9.41-2.41c1.74,0,3.49.08,5.24.17a1.9,1.9,0,0,1,1.83,1.14c-2.14,0-4.15-.06-6.16,0a20.26,20.26,0,0,0-9.09,2.2,13.62,13.62,0,0,0-2.45,1.78A5,5,0,0,0,83.1,23.1c-.3,4.75,1.33,8.9,4,12.77L86.91,35c.92-.32,1.18-.15,1.25.81a9.93,9.93,0,0,1-1.27,4.73c-.21.48-.45,1-.68,1.45,2.56.36,5,.61,7.44,1.07a45.83,45.83,0,0,1,19.86,8.54c2.94,2.26,6.16,4.14,9.25,6.19l-.48-1.22.22-.16a3.48,3.48,0,0,1,.63.66c2,3.63,5.54,5.82,8.2,8.82a1.89,1.89,0,0,0,1.1.49c2.23.29,4.47.56,6.71.77a1.12,1.12,0,0,0,.86-.6q2.56-7.13,5-14.3a1.24,1.24,0,0,0-.16-1c-4.51-5.59-9-11.19-13.59-16.72-3.43-4.13-7-8.17-10.49-12.22a24.13,24.13,0,0,0-1.88-1.76c-2-1.9-4.52-2.2-7.12-1.77-.48.08-.87.7-1.31,1.08-.6-.67-.36-1.65.84-2a8.56,8.56,0,0,1,6.76.37,20.64,20.64,0,0,1,5.93,5c5.11,6,10.13,12.08,15.18,18.13l6.11,7.33c.18.22.39.41.75.79,1.83-6.34,4.7-12.17,5.84-18.58h.3a4.55,4.55,0,0,1,.36.88,2.86,2.86,0,0,1,0,1.14c-.59,2.52-.3,5.14-.7,7.65-.6,3.69-1.55,7.33-2.44,11a1.68,1.68,0,0,0,.62,2c1.58,1.27,3.09,2.63,4.81,4.1l1-2.84c.11-.33.2-.67.33-1,.19-.49.15-1.36,1-1.09s.34,1,.2,1.48c-.32,1.13-.69,2.25-1.08,3.36a.85.85,0,0,0,.39,1.18,36,36,0,0,0,9.1,4.32,5.07,5.07,0,0,0,3.62-.11,13.93,13.93,0,0,1,1.5-.47l.12.21-1.32,1,3,.21c-.09.71-.66.87-1.21.93a13.19,13.19,0,0,1-2.76.1,11.83,11.83,0,0,0-4.57.6c-3.67,1-7.4,1.81-11.09,2.74a1.39,1.39,0,0,0-.86.69,167.54,167.54,0,0,1-8.93,19,4.1,4.1,0,0,0-.43,1.81c-.07,3.37.15,6.75-.16,10.09-.61,6.46-3.54,11.94-7.85,16.7-1.22,1.34-2.53,2.59-3.79,3.89-2.57,2.64-5.08,5.34-7.71,7.91a24.44,24.44,0,0,1-10.17,6.35,17.51,17.51,0,0,1-2,.23,4.63,4.63,0,0,0-1.33.41,26.38,26.38,0,0,1-13.73,3.33c-1.6-.09-3.26,0-4.73-.85a.83.83,0,0,0-.55,0Zm-54.09-12c0,.14.08.29.13.43a18.44,18.44,0,0,0,10.85,10.74,34.09,34.09,0,0,0,10.81,2.08A124.84,124.84,0,0,0,75,139.42c2.75-.36,5.49-.88,8.22-1.38a173.7,173.7,0,0,0,26.13-6.56l3.46-1.22.09.24c-5.92,3.14-12.4,4.77-18.8,6.6a25.81,25.81,0,0,0,11.67-1.83,81.31,81.31,0,0,0,16.38-9.67,30.61,30.61,0,0,0,8.65-8.85c3.65-6,5.71-12.37,5.23-19.45,0-.15,0-.29-.07-.46l-.94.47.57-1.74c.12-.36.37-.74.32-1.07-.47-2.91-1-5.82-1.51-8.72a.79.79,0,0,0-.43-.52c-1.15-.37-1.22-.57-1-1.73a3.69,3.69,0,0,0,0-2q-2.77-7.05-5.7-14a2.53,2.53,0,0,0-1.22-1.16c-4-1.79-8-3.51-11.94-5.29-.53-.24-1.34-.43-1.13-1.25a2.62,2.62,0,0,1,1.59,0c3.38,1.29,6.74,2.65,10.11,4l.92.34.24-.23a12.26,12.26,0,0,0-1.77-2.82c-1.87-1.71-3.93-3.22-5.92-4.8a3.45,3.45,0,0,0-.6-.31l-.09.12,1.85,2.61A6.25,6.25,0,0,1,118,57.31a13.07,13.07,0,0,0-4.29-4c-2.85-1.45-5.5-3.33-8.69-4-.19,0-.34-.3-.51-.46.21-.14.42-.4.64-.4a3.82,3.82,0,0,1,1.31.17c1,.32,2,.71,3.21,1.14-5.31-3.74-20-7.75-23.86-6.58l1.32.55V44c-.46.1-.93.18-1.39.29-.29.07-.72.09-.83.28-.55.91-1,1.87-1.62,3,4.57-.23,8.51,1.24,12.38,3-3.48-.58-6.92-1.46-10.41-1.79a29.7,29.7,0,0,0-10.56.93,44.44,44.44,0,0,0-9.88,3.85,2.91,2.91,0,0,0,.71-.18c2.83-.82,5.62-2,8.5-2.36a107.37,107.37,0,0,1,12.46-.33c6.36,0,12.38,1.29,17.48,5.45.25.2.51.39.77.58a20.39,20.39,0,0,1-3.29-1.7,20.4,20.4,0,0,0-7.29-2.92A79.18,79.18,0,0,0,77,51.49a30.17,30.17,0,0,0-11.46,3,55.4,55.4,0,0,0-20.69,16.6C40.11,77.25,36.2,83.82,34,91.32a55.69,55.69,0,0,0-1.82,20.49c.74,8.53,5.07,14.84,12.73,18.74,5,2.55,10.47,3.26,16,3.53,4.12.2,8.26.24,12.39.2a83.14,83.14,0,0,0,10.56-.49c6.29-.87,12.54-2,18.77-3.22a18.54,18.54,0,0,0,4-1.75c.23-.1.45-.23.67-.34l.19.24c-.18.22-.32.52-.55.64a19.36,19.36,0,0,1-3.89,1.92c-7.72,2-15.53,3.73-23.53,4-6.28.24-12.58.3-18.87.13a96.84,96.84,0,0,1-11.36-1.25,52,52,0,0,1-7.24-1.6A30.55,30.55,0,0,1,31.66,126.91Zm-2.85-24.26c.12-.18.18-.23.19-.28.25-1.44.48-2.88.75-4.32,1.46-8,4.18-15.58,9.13-22.18a112.92,112.92,0,0,1,13-14.58c8.24-7.75,17.83-12.75,29.29-13.65.23,0,.58-.09.67-.25.55-1,1-2.07,1.58-3.17a4.32,4.32,0,0,0-.59-.1c-4,0-7.95,0-11.92,0a3.36,3.36,0,0,0-1.21.24c-1.94.78-3.94,1.47-5.8,2.41a73.85,73.85,0,0,0-16,11.71c-1.89,1.72-3.75,3.48-5.62,5.23l.16.2a33.65,33.65,0,0,1,10.76-7c0,.17,0,.26-.05.28a6.66,6.66,0,0,1-.72.46c-7.76,3.94-13.75,9.85-18.65,16.94a22.47,22.47,0,0,0-3.83,7.7c-1.34,5.8-1.39,11.66-1.28,17.54C28.62,100.71,28.73,101.62,28.81,102.65Zm-.41,18.41c0-3.72-.1-7.37,0-11a23.53,23.53,0,0,0-.75-7.3c-1-3.73-.77-7.62-.65-11.46,0-1.33.15-2.67.23-4a2.36,2.36,0,0,0-.54.92,51,51,0,0,0-3,15.17,32.44,32.44,0,0,0,.92,10.39A20.93,20.93,0,0,0,28.4,121.06ZM150.84,68.65c-2.16.14-4.15.3-6.15.37a1.16,1.16,0,0,0-1.23.88c-1,2.69-2.17,5.35-3.24,8a1.44,1.44,0,0,0-.15.9c.67,1.79,1.4,3.56,2.19,5.55C145.58,79.22,148.81,74.34,150.84,68.65ZM148.54,55l-4,12.29c2.3-.15,4.42-.26,6.53-.44a1.08,1.08,0,0,0,.71-.62Q152.95,63.11,154,60a.9.9,0,0,0-.2-.79C152.1,57.77,150.34,56.42,148.54,55ZM66.25,44.15c-1.07.43-2,.84-3,1.23A63.35,63.35,0,0,0,56.59,48,59.25,59.25,0,0,0,38.27,63.74c-.48.6-.9,1.26-1.37,1.92,1.24.54,1.34.51,2.14-.29s1.65-1.67,2.5-2.49a112.83,112.83,0,0,1,15-12.8C59.63,48,62.91,46.17,66.25,44.15ZM29.33,78.26A30.38,30.38,0,0,0,21.8,94.52a36.78,36.78,0,0,0,1.51,17.15,8.7,8.7,0,0,0-.09-1.41c-.06-.5-.14-1-.17-1.51A53.46,53.46,0,0,1,27.44,84.4,58.7,58.7,0,0,0,29.33,78.26Zm4.07,48.11a27.53,27.53,0,0,0,12,6.21c-.13-.14-.16-.2-.21-.22L44.4,132a22.42,22.42,0,0,1-7.45-5.52,23.61,23.61,0,0,1-6.28-15.37c-.07-2.94,0-5.89,0-8.83H30.4c-.18,3.32-.5,6.64-.51,10s.28,6.59.45,9.89a3.06,3.06,0,0,0,1.34,2.49c1.16.82,2.28,1.71,3.41,2.57l0,.08Zm95.07-59.08,5.81,13.3c.67-1.52,1.24-2.92,1.91-4.28a1.54,1.54,0,0,0-.16-1.75c-1.13-1.57-2.28-3.13-3.34-4.74A5.49,5.49,0,0,0,128.48,67.28Zm12.3,22.21-.2-.12c-.91,1.45-1.84,2.88-2.7,4.36a3.08,3.08,0,0,0-.36,1.42c-.08,3,0,6-.21,8.94a39.6,39.6,0,0,1-.95,5c2.65-3.31,5.16-12.27,4.46-16.24a7.39,7.39,0,0,1-.85,1.3,3.8,3.8,0,0,1-1.07.54,3.9,3.9,0,0,1-.08-1.11,5.62,5.62,0,0,1,.53-1.22C139.84,91.4,140.31,90.44,140.78,89.49Zm-3.86-8.65c-1.34,1.79-1.55,2.85-1.07,4.76.35,1.38.66,2.78,1,4.17.18.86.31,1.74.51,2.85.55-.94,1-1.66,1.38-2.35,2.21-3.61,2.21-3.61,1-7.68-.18-.61-.41-1.2-.71-2.07a11.14,11.14,0,0,1-.72,1.77c-.19.29-.6.45-.91.66a4.34,4.34,0,0,1-.61-1A3,3,0,0,1,136.92,80.84ZM155.4,60.42l-2.25,6.33,10.8-2.26ZM58.28,46.07C47.89,48.7,41,55.7,35.59,64.42,41.85,56.7,49.1,50.21,58.28,46.07ZM95.08,182.45l.25,0a5.72,5.72,0,0,0-.13-1.34Q92,172,88.85,162.93c-.64-1.81-1.38-3.59-2.07-5.38l-.26.09C89.54,165.85,91.64,174.38,95.08,182.45Zm.52-15.81c-.83-3.77-8.11-22.06-9.14-23.09l-.23.09Zm38.26-98,3.48,4.84,1.75-4.48ZM78.58,179.87l-.31-.19-6.42,4.18a11.45,11.45,0,0,0,2.83-.22,2.57,2.57,0,0,0,1.2-.49c.85-.76,1.65-1.59,2.42-2.43A2.37,2.37,0,0,0,78.58,179.87Zm.77-4.25c1.16-1.43-.49-9.7-2.44-12.81C77.7,167.19,79.42,171.19,79.35,175.63Zm53.87-60.24.32.25a28.39,28.39,0,0,0,5.92-8.93c-1.09,1.56-2.35,3.41-3.65,5.23C135,113.1,134.09,114.23,133.22,115.38Zm-49.84,24a13.25,13.25,0,0,0,2,6.41l-1.07-6.58ZM63.45,185.19l.12.28c2.06.22,3.45-1.11,5-2.13l-.11-.25Zm-31.65-109,3.39-4.72-.2-.14C33.66,72.67,32.2,73.92,31.79,76.18Zm51,100.66-1.16-2.46-.13.06v2ZM99.51,185l.09-.36c-.5-.11-1-.25-1.49-.31-.13,0-.3.21-.45.32.15.12.3.32.46.34C98.58,185,99,185,99.51,185ZM73.2,156.32l-.37.12,1,3.12.19-.06Zm-.18,7.3-.22,0,.83,3.73.21,0Z" transform="translate(-0.18 0)"/><path d="M151.6,19.71a11.56,11.56,0,0,0-.34-2.28,19.46,19.46,0,0,1-.75-7.54,3.69,3.69,0,0,1,4-3.35,2,2,0,0,1,1.24,1,5,5,0,0,1,.43,2c.06,2.22,0,4.45,0,6.67,0,.26-.3.52-.46.79-.24-.22-.58-.4-.68-.67a4.69,4.69,0,0,1-.2-1.4c-.07-2-.07-4.06-.17-6.09-.05-1.05-.4-1.21-1.35-.74a2.26,2.26,0,0,0-1.41,2.09,19.73,19.73,0,0,0,.64,6.6,4.08,4.08,0,0,1-.28,3.87c.09.13.25.27.27.43s.08.75-.06.84a1,1,0,0,1-.93,0,17.58,17.58,0,0,1-1.7-1.52,1.56,1.56,0,0,0-2.48,0c-1.77,1.59-2,5.11.71,6.32a21.58,21.58,0,0,0,2.46,1.09C149.8,26.93,149,26,148.31,25a7,7,0,0,1-.84-1.38,2.35,2.35,0,0,1,0-.89,2.37,2.37,0,0,1,.83.27,9,9,0,0,1,1.1,1.18,16.86,16.86,0,0,0,5.55,4.85,23.06,23.06,0,0,0,3.32,1.11c.5.15,1.14.24.95.9-.08.3-.68.59-1.07.63a4.07,4.07,0,0,1-1.78-.21c-3-1.14-6-2.28-8.92-3.55-3.65-1.58-3.33-6.33-1-8.4,1.49-1.34,2.94-1.45,4.46-.12.14.12.29.23.44.35Z" transform="translate(-0.18 0)"/><path d="M10.77,23A12.48,12.48,0,0,1,6.25,21c-1.44-.78-2.8-1.71-4.17-2.56A4,4,0,0,0,3.94,23a9.62,9.62,0,0,0,2.93,1c1.56.27,3.16.3,4.73.47.73.08,1.15-.11,1.18-.92,0-.26.19-.51.57-.84.19.42.4.83.57,1.25a6.8,6.8,0,0,1,.23.9c.06.25.11.5.16.76a2.35,2.35,0,0,1-.89.08,2.89,2.89,0,0,1-.77-.52,12.85,12.85,0,0,1-9.1-.51A4.94,4.94,0,0,1,.45,20.2,54.54,54.54,0,0,1,1,10.82,12.86,12.86,0,0,1,6.15,2.71,2.77,2.77,0,0,1,8.53,2C7.9,3,6.33,2.93,6.44,4.4A3.78,3.78,0,0,0,4.1,7c-.73,2.16-1.3,4.37-1.88,6.57a3.72,3.72,0,0,0,1.69,4.3C5.92,19.26,8,20.5,10,21.79a10.69,10.69,0,0,1,1,.77Z" transform="translate(-0.18 0)"/><path d="M163.57,30.15c-.15-.43-.44-.82-.34-1.06s.58-.31.9-.43c2.29-.84,4.63-1.55,6.85-2.54a28.22,28.22,0,0,0,8-5.82,10,10,0,0,0,3.05-8.63c-.1-1-.19-2.07-.29-3.1l.23-.1a8.35,8.35,0,0,1,.6,1.28c1.15,4.1.86,7.92-2.26,11.17-2.37,2.46-4.47,5.2-7.46,7a30.72,30.72,0,0,1-10,4c-.57.11-.93.32-1.05.9a1.39,1.39,0,0,1-.27.7,3.49,3.49,0,0,1-.83.46c-.12-.26-.39-.55-.35-.79.27-1.5.61-2.62,2.3-2.81A6.38,6.38,0,0,0,163.57,30.15Z" transform="translate(-0.18 0)"/><path d="M181.55,6.79a3.5,3.5,0,0,1-.89.25c-4,.06-7.58,1.71-11.07,3.48-2.66,1.35-5.27,2.79-7.92,4.17-1.72.89-2.22.93-4.33.29.36-.2.71-.56,1.07-.58A8.92,8.92,0,0,0,162,13c3.87-2,7.73-4,11.66-5.83a12.45,12.45,0,0,1,6.48-1.26,8,8,0,0,1,1.5.43Z" transform="translate(-0.18 0)"/><path d="M22.34,10.06A3.53,3.53,0,0,1,21,9.92a24.4,24.4,0,0,1-3.22-2.16c-1.23-1-2.29-2.2-3.51-3.22s-2.54-1.89-3.79-2.87a3.34,3.34,0,0,1-.59-1c.36,0,.83-.18,1.07,0,1.48,1,3,2.06,4.36,3.21,2.2,1.81,4,4.1,6.66,5.34.2.09.32.34.48.52Z" transform="translate(-0.18 0)"/><path class="cls-1" d="M31.66,126.91A30.55,30.55,0,0,0,42,132.59a52,52,0,0,0,7.24,1.6,96.84,96.84,0,0,0,11.36,1.25c6.28.17,12.58.12,18.87-.13,8-.31,15.81-2,23.53-4a19.36,19.36,0,0,0,3.89-1.92c.23-.12.37-.42.55-.64l-.19-.24c-.22.11-.44.23-.67.34a18.54,18.54,0,0,1-4,1.75c-6.24,1.19-12.49,2.35-18.77,3.22a83.14,83.14,0,0,1-10.56.49c-4.13,0-8.27,0-12.39-.2-5.51-.26-11-1-16-3.53-7.66-3.9-12-10.21-12.73-18.74A55.69,55.69,0,0,1,34,91.32c2.18-7.5,6.08-14.07,10.78-20.24A55.4,55.4,0,0,1,65.5,54.48a30.17,30.17,0,0,1,11.46-3,79.18,79.18,0,0,1,17.21.58A20.4,20.4,0,0,1,101.46,55a20.39,20.39,0,0,0,3.29,1.7c-.26-.19-.52-.38-.77-.58-5.1-4.16-11.12-5.42-17.48-5.45A107.37,107.37,0,0,0,74,51c-2.89.32-5.67,1.54-8.5,2.36a2.91,2.91,0,0,1-.71.18,44.44,44.44,0,0,1,9.88-3.85,29.7,29.7,0,0,1,10.56-.93c3.49.33,6.93,1.21,10.41,1.79-3.87-1.72-7.82-3.19-12.38-3,.59-1.12,1.06-2.08,1.62-3,.12-.19.54-.21.83-.28.46-.11.93-.19,1.39-.29v-.3l-1.32-.55C89.68,42,104.37,46,109.68,49.74c-1.19-.43-2.19-.82-3.21-1.14a3.82,3.82,0,0,0-1.31-.17c-.22,0-.43.26-.64.4.17.16.31.41.51.46,3.19.72,5.84,2.6,8.69,4a13.07,13.07,0,0,1,4.29,4,6.25,6.25,0,0,0,1.34,1.37l-1.85-2.61.09-.12a3.45,3.45,0,0,1,.6.31c2,1.58,4,3.09,5.92,4.8a12.26,12.26,0,0,1,1.77,2.82l-.24.23-.92-.34c-3.37-1.34-6.72-2.7-10.11-4a2.62,2.62,0,0,0-1.59,0c-.21.82.6,1,1.13,1.25,4,1.78,8,3.5,11.94,5.29a2.53,2.53,0,0,1,1.22,1.16q2.92,7,5.7,14a3.69,3.69,0,0,1,0,2c-.25,1.17-.18,1.36,1,1.73a.79.79,0,0,1,.43.52c.53,2.9,1,5.81,1.51,8.72.05.33-.2.71-.32,1.07L135,97.31l.94-.47c0,.16.06.31.07.46.48,7.08-1.58,13.43-5.23,19.45a30.61,30.61,0,0,1-8.65,8.85,81.31,81.31,0,0,1-16.38,9.67,25.81,25.81,0,0,1-11.67,1.83c6.4-1.83,12.88-3.46,18.8-6.6l-.09-.24-3.46,1.22A173.7,173.7,0,0,1,83.26,138c-2.73.5-5.47,1-8.22,1.38a124.84,124.84,0,0,1-21.59.73,34.09,34.09,0,0,1-10.81-2.08,18.44,18.44,0,0,1-10.85-10.74C31.74,127.2,31.7,127.06,31.66,126.91ZM97.72,90.18A14.39,14.39,0,0,1,92,95.06a27.67,27.67,0,0,1-8.55,2.18,3.56,3.56,0,0,0-1.08.59c.39.21.77.42,1.17.62a.68.68,0,0,0,.28,0A18.52,18.52,0,0,0,97,93.57a8.56,8.56,0,0,0,2.95-7.4c-.16-1.93-.43-3.8-1.78-5.32A2.59,2.59,0,0,0,95,80l-.28-.7a2.5,2.5,0,0,0,.75.09c.25-.06.66-.21.67-.35s-.13-.7-.33-.77c-1.83-.7-3.64-1.71-5.53-1.92A43.7,43.7,0,0,0,75.1,77.44a47.58,47.58,0,0,0-14.18,6.39c-2.73,1.73-3.61,4.5-3.55,7.68a3.85,3.85,0,0,0,2,3.61,12.27,12.27,0,0,0,8.16,1.62,4.38,4.38,0,0,0,.94-.4l0-.28a7.59,7.59,0,0,0-1.14-.31A20.73,20.73,0,0,1,60.72,94c-.82-.39-1.66-.86-1.75-1.86a9.55,9.55,0,0,1,.6-5.33,5.67,5.67,0,0,1,3.46-3,13.64,13.64,0,0,0,2.29-1.24,3.51,3.51,0,0,0,.11.88c.1.24.4.4.48.64,1.28,3.85,2.54,7.72,3.81,11.57a1.39,1.39,0,0,0,.23.52,5.83,5.83,0,0,0,.69.55,2.54,2.54,0,0,0,.18-.84,8.32,8.32,0,0,0-.37-1.38c-1.23-3.94-2.45-7.88-3.73-11.8-.25-.78.06-1,.65-1.24a46,46,0,0,1,20.79-4,11.72,11.72,0,0,1,5.09,1.06,1.25,1.25,0,0,1,.61.6c1.09,3.34,2.13,6.7,3.22,10A4.77,4.77,0,0,0,97.72,90.18ZM53.93,72c1.52,0,1.74-.13,2.34-1.56A12.93,12.93,0,0,0,57,68.26c.36-1.61-.11-2.15-1.77-2.2l-.85,0a2.19,2.19,0,0,0-2.59,1.82,8.25,8.25,0,0,0-.29,1C51.07,70.93,51.76,72.17,53.93,72Zm50.23,1.14.11-.26a3.35,3.35,0,0,0,3.22-1.43c.82-1.22.33-3.34-.89-3.56a8.19,8.19,0,0,0-2.82-.08,2.75,2.75,0,0,0-1.63,1.1,3,3,0,0,0-.23,3.16C102.28,72.71,103.38,72.84,104.15,73.18ZM80.39,78.25h-.32a5.8,5.8,0,0,0-.17,1.07A35.8,35.8,0,0,0,83.56,93.7a1.52,1.52,0,0,0,.39.53c.13.1.42.2.49.14a.73.73,0,0,0,.22-.54,2.57,2.57,0,0,0-.28-.7A47.41,47.41,0,0,1,80.58,79,5.44,5.44,0,0,0,80.39,78.25Z" transform="translate(-0.18 0)"/><path class="cls-1" d="M28.81,102.65c-.08-1-.19-1.94-.21-2.84-.11-5.88-.05-11.74,1.28-17.54a22.47,22.47,0,0,1,3.83-7.7c4.89-7.09,10.88-13,18.65-16.94a6.66,6.66,0,0,0,.72-.46s0-.11.05-.28a33.65,33.65,0,0,0-10.76,7l-.16-.2c1.87-1.74,3.73-3.5,5.62-5.23a73.85,73.85,0,0,1,16-11.71c1.86-.95,3.85-1.63,5.8-2.41a3.36,3.36,0,0,1,1.21-.24c4,0,7.95,0,11.92,0a4.32,4.32,0,0,1,.59.1c-.54,1.11-1,2.16-1.58,3.17-.09.16-.43.23-.67.25-11.47.89-21.05,5.9-29.29,13.65a112.92,112.92,0,0,0-13,14.58c-4.95,6.6-7.67,14.14-9.13,22.18-.26,1.44-.49,2.88-.75,4.32C29,102.42,28.93,102.47,28.81,102.65Z" transform="translate(-0.18 0)"/><path class="cls-1" d="M28.4,121.06a20.93,20.93,0,0,1-3.76-7.29,32.44,32.44,0,0,1-.92-10.39,51,51,0,0,1,3-15.17,2.36,2.36,0,0,1,.54-.92c-.08,1.33-.19,2.66-.23,4-.12,3.84-.38,7.73.65,11.46a23.53,23.53,0,0,1,.75,7.3C28.3,113.69,28.4,117.34,28.4,121.06Z" transform="translate(-0.18 0)"/><path class="cls-1" d="M150.84,68.65c-2,5.69-5.26,10.57-8.58,15.73-.79-2-1.52-3.76-2.19-5.55a1.44,1.44,0,0,1,.15-.9c1.08-2.68,2.19-5.34,3.24-8a1.16,1.16,0,0,1,1.23-.88C146.69,68.95,148.68,68.79,150.84,68.65Z" transform="translate(-0.18 0)"/><path class="cls-1" d="M148.54,55c1.81,1.41,3.56,2.76,5.29,4.16a.9.9,0,0,1,.2.79q-1.08,3.15-2.26,6.27a1.08,1.08,0,0,1-.71.62c-2.11.18-4.23.3-6.53.44Z" transform="translate(-0.18 0)"/><path class="cls-1" d="M66.25,44.15c-3.34,2-6.63,3.83-9.72,5.92a112.83,112.83,0,0,0-15,12.8c-.85.82-1.67,1.66-2.5,2.49s-.91.83-2.14.29c.47-.66.88-1.31,1.37-1.92A59.25,59.25,0,0,1,56.59,48a63.35,63.35,0,0,1,6.63-2.64C64.2,45,65.19,44.59,66.25,44.15Z" transform="translate(-0.18 0)"/><path class="cls-1" d="M29.33,78.26a58.7,58.7,0,0,1-1.89,6.15A53.46,53.46,0,0,0,23,108.75c0,.51.11,1,.17,1.51a8.7,8.7,0,0,1,.09,1.41A36.78,36.78,0,0,1,21.8,94.52,30.38,30.38,0,0,1,29.33,78.26Z" transform="translate(-0.18 0)"/><path class="cls-1" d="M33.41,126.37l1.64.87,0-.08c-1.14-.86-2.25-1.74-3.41-2.57a3.06,3.06,0,0,1-1.34-2.49c-.16-3.3-.46-6.59-.45-9.89s.33-6.64.51-10h.26c0,2.94-.05,5.89,0,8.83a23.61,23.61,0,0,0,6.28,15.37A22.42,22.42,0,0,0,44.4,132l.76.39s.08.08.21.22A27.53,27.53,0,0,1,33.41,126.37Z" transform="translate(-0.18 0)"/><path class="cls-1" d="M128.48,67.28a5.49,5.49,0,0,1,4.22,2.52c1.06,1.61,2.21,3.17,3.34,4.74a1.54,1.54,0,0,1,.16,1.75c-.66,1.36-1.24,2.76-1.91,4.28Z" transform="translate(-0.18 0)"/><path class="cls-1" d="M140.78,89.49c-.47,1-.95,1.91-1.41,2.87a5.62,5.62,0,0,0-.53,1.22,3.9,3.9,0,0,0,.08,1.11,3.8,3.8,0,0,0,1.07-.54,7.39,7.39,0,0,0,.85-1.3c.69,4-1.82,12.93-4.46,16.24a39.6,39.6,0,0,0,.95-5c.19-3,.13-6,.21-8.94a3.08,3.08,0,0,1,.36-1.42c.86-1.48,1.79-2.91,2.7-4.36Z" transform="translate(-0.18 0)"/><path class="cls-1" d="M136.92,80.84a3,3,0,0,0-.15,1.08,4.34,4.34,0,0,0,.61,1c.31-.22.72-.37.91-.66a11.14,11.14,0,0,0,.72-1.77c.3.87.53,1.46.71,2.07,1.19,4.07,1.18,4.07-1,7.68-.43.7-.83,1.41-1.38,2.35-.19-1.11-.32-2-.51-2.85-.3-1.4-.6-2.79-1-4.17C135.38,83.69,135.58,82.63,136.92,80.84Z" transform="translate(-0.18 0)"/><path class="cls-1" d="M155.4,60.42l8.55,4.07-10.8,2.26Z" transform="translate(-0.18 0)"/><path class="cls-1" d="M58.28,46.07C49.1,50.21,41.85,56.7,35.59,64.42,41,55.7,47.89,48.7,58.28,46.07Z" transform="translate(-0.18 0)"/><path class="cls-1" d="M95.08,182.45c-3.44-8.07-5.54-16.6-8.56-24.81l.26-.09c.69,1.79,1.43,3.57,2.07,5.38q3.21,9.07,6.35,18.16a5.72,5.72,0,0,1,.13,1.34Z" transform="translate(-0.18 0)"/><path class="cls-1" d="M95.6,166.64l-9.37-23,.23-.09C87.5,144.58,94.77,162.87,95.6,166.64Z" transform="translate(-0.18 0)"/><path class="cls-1" d="M133.87,68.69l5.22.36-1.75,4.48Z" transform="translate(-0.18 0)"/><path class="cls-1" d="M78.58,179.87a2.37,2.37,0,0,1-.29.86c-.77.84-1.57,1.67-2.42,2.43a2.57,2.57,0,0,1-1.2.49,11.45,11.45,0,0,1-2.83.22l6.42-4.18Z" transform="translate(-0.18 0)"/><path class="cls-1" d="M79.35,175.63c.07-4.44-1.65-8.43-2.44-12.81C78.86,165.93,80.52,174.2,79.35,175.63Z" transform="translate(-0.18 0)"/><path class="cls-1" d="M133.22,115.38c.86-1.15,1.75-2.28,2.59-3.45,1.3-1.82,2.56-3.67,3.65-5.23a28.39,28.39,0,0,1-5.92,8.93Z" transform="translate(-0.18 0)"/><path class="cls-1" d="M83.38,139.4l.91-.16,1.07,6.58A13.25,13.25,0,0,1,83.38,139.4Z" transform="translate(-0.18 0)"/><path class="cls-1" d="M63.45,185.19l5-2.1.11.25c-1.52,1-2.91,2.35-5,2.13Z" transform="translate(-0.18 0)"/><path class="cls-1" d="M31.79,76.18c.41-2.26,1.87-3.51,3.19-4.86l.2.14Z" transform="translate(-0.18 0)"/><path class="cls-1" d="M82.75,176.84l-1.29-.41v-2l.13-.06Z" transform="translate(-0.18 0)"/><path class="cls-1" d="M99.51,185c-.47,0-.94,0-1.4,0-.16,0-.31-.22-.46-.34.15-.11.31-.34.45-.32.5.06,1,.2,1.49.31Z" transform="translate(-0.18 0)"/><path class="cls-1" d="M73.2,156.32l.83,3.19-.19.06-1-3.12Z" transform="translate(-0.18 0)"/><path class="cls-1" d="M73,163.63l.82,3.74-.21,0-.83-3.73Z" transform="translate(-0.18 0)"/><path d="M97.72,90.18a4.77,4.77,0,0,1-.65-1c-1.08-3.35-2.13-6.7-3.22-10a1.25,1.25,0,0,0-.61-.6,11.72,11.72,0,0,0-5.09-1.06,46,46,0,0,0-20.79,4c-.6.27-.91.47-.65,1.24,1.28,3.92,2.5,7.86,3.73,11.8a8.32,8.32,0,0,1,.37,1.38,2.54,2.54,0,0,1-.18.84,5.83,5.83,0,0,1-.69-.55,1.39,1.39,0,0,1-.23-.52c-1.27-3.86-2.53-7.72-3.81-11.57-.08-.24-.38-.4-.48-.64a3.51,3.51,0,0,1-.11-.88A13.64,13.64,0,0,1,63,83.79a5.67,5.67,0,0,0-3.46,3,9.55,9.55,0,0,0-.6,5.33c.09,1,.93,1.47,1.75,1.86a20.73,20.73,0,0,0,6.61,1.74,7.59,7.59,0,0,1,1.14.31l0,.28a4.38,4.38,0,0,1-.94.4,12.27,12.27,0,0,1-8.16-1.62,3.85,3.85,0,0,1-2-3.61c-.06-3.18.82-5.95,3.55-7.68A47.58,47.58,0,0,1,75.1,77.44a43.7,43.7,0,0,1,15.14-1.07c1.89.21,3.71,1.22,5.53,1.92.19.07.35.52.33.77s-.42.3-.67.35a2.5,2.5,0,0,1-.75-.09L95,80a2.59,2.59,0,0,1,3.19.83c1.35,1.52,1.62,3.39,1.78,5.32A8.56,8.56,0,0,1,97,93.57a18.52,18.52,0,0,1-13.14,4.91.68.68,0,0,1-.28,0c-.39-.2-.78-.41-1.17-.62a3.56,3.56,0,0,1,1.08-.59A27.67,27.67,0,0,0,92,95.06,14.39,14.39,0,0,0,97.72,90.18ZM98,88.85l.36,0a20.79,20.79,0,0,0,0-3.47,16.39,16.39,0,0,0-1.15-3.57,1.94,1.94,0,0,0-2.05-1Z" transform="translate(-0.18 0)"/><path d="M53.93,72c-2.17.13-2.85-1.12-2.44-3.18a8.25,8.25,0,0,1,.29-1A2.19,2.19,0,0,1,54.36,66l.85,0c1.66.05,2.12.6,1.77,2.2a12.93,12.93,0,0,1-.71,2.22C55.66,71.91,55.44,72,53.93,72Z" transform="translate(-0.18 0)"/><path d="M104.15,73.18c-.77-.34-1.87-.47-2.25-1.06a3,3,0,0,1,.23-3.16,2.75,2.75,0,0,1,1.63-1.1,8.19,8.19,0,0,1,2.82.08c1.22.22,1.71,2.34.89,3.56a3.35,3.35,0,0,1-3.22,1.43Z" transform="translate(-0.18 0)"/><path d="M80.39,78.25a5.44,5.44,0,0,1,.19.77,47.41,47.41,0,0,0,3.8,14.1,2.57,2.57,0,0,1,.28.7.73.73,0,0,1-.22.54c-.07.06-.36,0-.49-.14a1.52,1.52,0,0,1-.39-.53,35.8,35.8,0,0,1-3.66-14.37,5.8,5.8,0,0,1,.17-1.07Z" transform="translate(-0.18 0)"/><path class="cls-1" d="M98,88.85l-2.89-8.08a1.94,1.94,0,0,1,2.05,1,16.39,16.39,0,0,1,1.15,3.57,20.79,20.79,0,0,1,0,3.47Z" transform="translate(-0.18 0)"/></g></g></g></svg>