<svg xmlns="http://www.w3.org/2000/svg" viewBox="0 0 234.48 170.16"><defs><style>.cls-1{fill:#fff;}</style></defs><title>schedule</title><g id="Layer_2" data-name="Layer 2"><g id="Layer_8" data-name="Layer 8"><g id="KRQ7dw.tif"><path class="cls-1" d="M.08,170.4Q.08,85.32.08.24H234.56q0,85.08,0,170.16ZM75.22,35.9a.73.73,0,0,1,.12-.21c.25-.2.5-.39.75-.59,2.85-2.28,5.38-4.88,6.67-8.33C84.7,21.6,84.94,16.53,81,12c-1.85-2.15-3.64-4.36-5.53-6.47C70.41-.15,63.92-.59,57.19,1.2c-5.22,1.39-9,5.08-12,9.48A58.34,58.34,0,0,0,39,23.49c-3.7,9.92-7.21,19.92-11,29.79A88.35,88.35,0,0,1,17.7,72.78c-2.74,3.84-6,7.06-10.56,8.72-1.84.67-3.69,1.33-5.49,2.07-.4.17-.65.68-1,1,.43.28.84.78,1.28.8a22.06,22.06,0,0,0,11.73-2.34Q27.4,75.93,41.08,68.7c.33-.17.47-.72.7-1.09-.43-.2-.9-.62-1.27-.54a9.84,9.84,0,0,0-2.44,1Q26.36,74.25,14.67,80.5c-.73.39-1.49.72-2.24,1.07A37.42,37.42,0,0,0,20.28,73,109.36,109.36,0,0,0,31.46,50.34c3.13-8.35,6-16.8,9-25.2a59.93,59.93,0,0,1,6-13.06C50.91,5.2,56.91,1.16,65.55,2.13a11.93,11.93,0,0,1,7.79,3.55c2.54,2.76,4.91,5.68,7.22,8.63a7.84,7.84,0,0,1,1.55,3.33,14.14,14.14,0,0,1-2.43,11.29,49.09,49.09,0,0,1-5.26,5.53C73.17,35.68,73,36,74,37.51c.79,1.22,1.54,2.46,2.41,3.84-.58,0-.89.08-1.2.06A20.74,20.74,0,0,0,62.91,44.8C52.48,51.19,46,60.66,42.36,72.07c-2.24,6.94-2.75,14.19-2.6,21.46.11,5.05.55,10.08,2.56,14.8,1.06,2.49,2.27,4.92,3.35,7.23a18.51,18.51,0,0,0-.94,2.44q-1.55,6.72-3,13.46a11.36,11.36,0,0,0,0,2.24,1.56,1.56,0,0,1-.41.11c-1.79.15-3.58.27-5.37.43a2.45,2.45,0,0,0-1.94,4c.54.77,1,1.81,2.4,1.22a13.16,13.16,0,0,1-1-1.65c-.19-.43-.42-1.11-.22-1.39a2.07,2.07,0,0,1,1.4-.63c1.47-.14,3-.14,4.42-.23a13.94,13.94,0,0,0,3.36-.36,15.45,15.45,0,0,1,5.51-.53,6.72,6.72,0,0,1-.88,1.57c-1.11,1-1.27,1.64-.47,2.9,1,1.55,2.06,3,3,4.62a10.48,10.48,0,0,1,.68,2.19,11.58,11.58,0,0,1-2.91-.29c-1.87-.75-2.25-.66-3,1.28A19.71,19.71,0,0,1,42,153.6a4.29,4.29,0,0,1-2.77,1.22c-1.58.19-2.26-1-3.18-1.8a7.17,7.17,0,0,1-.74-9.57c.24-.3.2-.82.3-1.23-.47,0-1.18-.11-1.37.15a7.46,7.46,0,0,0-1.77,3,16.77,16.77,0,0,0,.06,5.37c.49,2.8,2.91,4.13,5,5.69a.48.48,0,0,0,.23.05c2.25.24,4.25-.08,5.87-1.92a24.18,24.18,0,0,0,4.33-7c1.62.05,3.07.13,4.52.13a1.33,1.33,0,0,0,1.37-1.38,5,5,0,0,0-.79-3.54C52,141.19,51,139.61,49.92,138c.32-.27.57-.46.79-.68,1-1,.75-2.21.43-3.37S49.9,132.9,49,132.91c-1.22,0-2.45,0-3.49,0l5.87-10.34c9.72,9.15,21.79,12.65,35,13.69-2.24,1-1.27,3-1.49,4.53-.36,2.49-.49,5-.95,7.48-.79,4.2-1.95,8.35-1.54,12.68a21.39,21.39,0,0,0,.6,3.35,1,1,0,0,0,1.73.33c.33-.33.72-.59,1.16-.94l-.77-.41a4.8,4.8,0,0,1,3.87-.91c1.65.3,3.29.68,4.94,1,1,.18,2,.25,3,.37v3.7a3.12,3.12,0,0,0-1.15.14,6.16,6.16,0,0,0-1,1,4.8,4.8,0,0,0,1.12,1,2.91,2.91,0,0,0,1.3,0c6-.44,12-.84,18.06-1.36,3.26-.28,6.51-.75,9.76-1.16.7-.09,1.43-.3,1.34-1.21s-.84-.93-1.55-1a8.11,8.11,0,0,1-1.53-.12,20.05,20.05,0,0,0-3.15-.82c-3.91-.24-7.83-.3-11.74-.51-2.27-.12-2.29-.2-2.34-2.44q-.28-11.51-.53-23a3.12,3.12,0,0,0-.08-1.07c-.42-1,.09-1.31,1-1.53a47.56,47.56,0,0,0,13.39-5.45,51.37,51.37,0,0,0,17.77-17.66,1.64,1.64,0,0,1,1.12-.8c1.59.08,3.17.31,4.76.49a2.15,2.15,0,0,1-1,.39c-1.23.18-2.47.29-3.67.57-.39.09-.67.64-1,1a2.5,2.5,0,0,0,2.65.52,82.66,82.66,0,0,1,13.14-.86c4.68.1,9.36,0,14,0,10.58.17,21.09-.82,31.61-1.63,5-.38,10-.74,15-1,.93-.05,1.89.4,2.82.36.71,0,1.39-.61,2.12-.69,1.91-.21,3.83-.29,5.74-.42,2.47-.16,4.94-.3,7.41-.48a2,2,0,0,0,1.59-2.16c-.08-1-.82-1.18-1.64-1.21-.47,0-.94,0-1.5,0-.06-.8-.12-1.47-.16-2.14-.43-8.07-.88-16.13-1.27-24.2q-.78-16.05-1.44-32.11c0-.44.42-.9.62-1.31-.62,0-.76-.52-.75-1.32,0-1.72,0-3.44-.08-5.16,0-.42-.13-1.14-.34-1.2-1.14-.32-.82-1.18-.84-1.91-.08-2.75-.13-5.51-.23-8.26a10.14,10.14,0,0,0-.29-2.61c-.15-.5-.75-1.18-1.17-1.2a10.47,10.47,0,0,0-3.18.41,2.63,2.63,0,0,0-2.07,2.49c-.11,1.35-.41,2.69-.45,4q-.18,6.84-.22,13.68c0,.91-.23,1.24-1.18,1.31-10.17.66-20.33,1.56-30.51,2-9.26.41-18.55.41-27.83.51-6.68.08-13.36,0-20,.07-.71,0-1.42.11-2.13.18l0,.52a16.91,16.91,0,0,0,2.6.46c2.84.07,5.68.05,8.52.06h1V62.3c-1.53,0-2.93-.59-4,.73a12.4,12.4,0,0,0,2.92.53c.8,0,1,.39,1,1.13,0,3.24,0,6.48,0,9.72,0,.59,0,1.17,0,1.72l-2.38.37v.33a4.72,4.72,0,0,0,1.22.37c.94,0,1.18.44,1.16,1.35-.06,3,0,6,0,9,0,1,0,2,0,2.95l-3.48.41,0,.63,3.24.48c0,.08.1.15.1.21-.1,3.8-.19,7.59-.34,11.39a.94.94,0,0,1-.63.65c-2.22.18-4.45.29-6.85.43.2-.67.37-1.11.47-1.57.79-3.62,2-7.22,2.27-10.89.49-6,.47-12,.54-18.08a34.41,34.41,0,0,0-2.64-13.45c-4.71-11.61-13.06-19-25.58-20.82A72.86,72.86,0,0,0,87.41,41.4a16.51,16.51,0,0,1-8.22.13,1.5,1.5,0,0,1-.87-.51C77.26,39.33,76.25,37.61,75.22,35.9ZM190.4,21.37v0h-3.12c-14.91-.1-29.74.65-44.32,4.11-4,.94-7.89,2.06-11.84,3.07a1.67,1.67,0,0,0-1.47,2.07c.07.47.09,1,.12,1.43.19,2.34.36,4.69.56,7,.16,1.91.3,3.82.56,5.72.05.39.6.7.92,1.05.34-.33.8-.61,1-1a3.73,3.73,0,0,0,.17-1.53c-.09-3.67-.26-7.33-.31-11,0-2.62-.41-2,2.12-2.65A167.13,167.13,0,0,1,162,24.76c16.44-1.36,32.92-1.09,49.4-.73a32.45,32.45,0,0,1,3.32.44c.67.08,1.14-.25.81-.88-.5-.93-1.07-1.91-2.35-2-1.44-.08-2.87-.23-4.31-.23C202.72,21.36,196.56,21.37,190.4,21.37ZM137.88,38.21v.42a6.61,6.61,0,0,0,1.34.27c2.83,0,5.67,0,8.5-.13,8.7-.48,17.38-1.28,26.08-1.5,11.79-.29,23.58-.13,35.37-.19.8,0,2.07.34,2.11-.91s-1.26-.95-2-.95c-10.75,0-21.51-.1-32.26.1-7,.13-14,.64-21.06,1.13-5.46.37-10.9,1-16.35,1.46C139,38,138.45,38.11,137.88,38.21Z" transform="translate(-0.08 -0.24)"/><path d="M75.22,35.9c1,1.71,2,3.43,3.1,5.11a1.5,1.5,0,0,0,.87.51,16.51,16.51,0,0,0,8.22-.13,72.86,72.86,0,0,1,28.69-1.48c12.52,1.83,20.87,9.21,25.58,20.82a34.41,34.41,0,0,1,2.64,13.45c-.08,6-.05,12.08-.54,18.08-.3,3.67-1.47,7.26-2.27,10.89-.1.46-.27.9-.47,1.57,2.4-.14,4.63-.25,6.85-.43a.94.94,0,0,0,.63-.65c.14-3.79.24-7.59.34-11.39,0-.07-.06-.14-.1-.21l-3.24-.48,0-.63,3.48-.41c0-1,0-2,0-2.95,0-3,0-6,0-9,0-.91-.22-1.32-1.16-1.35a4.72,4.72,0,0,1-1.22-.37V76.5l2.38-.37c0-.55,0-1.14,0-1.72,0-3.24,0-6.48,0-9.72,0-.74-.18-1.09-1-1.13A12.4,12.4,0,0,1,145.2,63c1-1.32,2.42-.7,4-.73V50.66h-1c-2.84,0-5.68,0-8.52-.06a16.91,16.91,0,0,1-2.6-.46l0-.52c.71-.06,1.42-.17,2.13-.18,6.68,0,13.36,0,20-.07,9.28-.11,18.56-.1,27.83-.51,10.18-.46,20.34-1.35,30.51-2,.94-.06,1.17-.4,1.18-1.31q0-6.84.22-13.68c0-1.35.34-2.69.45-4a2.63,2.63,0,0,1,2.07-2.49,10.47,10.47,0,0,1,3.18-.41c.42,0,1,.71,1.17,1.2a10.14,10.14,0,0,1,.29,2.61c.09,2.75.14,5.51.23,8.26,0,.73-.3,1.59.84,1.91.21.06.33.78.34,1.2.06,1.72.11,3.44.08,5.16,0,.8.13,1.35.75,1.32-.2.4-.64.87-.62,1.31q.67,16.06,1.44,32.11c.39,8.07.84,16.13,1.27,24.2,0,.67.1,1.34.16,2.14.56,0,1,0,1.5,0,.82,0,1.56.24,1.64,1.21a2,2,0,0,1-1.59,2.16c-2.47.18-4.94.32-7.41.48-1.91.12-3.84.2-5.74.42-.72.08-1.4.66-2.12.69-.93,0-1.89-.42-2.82-.36-5,.29-10,.65-15,1-10.52.8-21,1.8-31.61,1.63-4.68-.08-9.36.06-14,0a82.66,82.66,0,0,0-13.14.86,2.5,2.5,0,0,1-2.65-.52c.33-.34.61-.89,1-1,1.2-.28,2.44-.39,3.67-.57a2.15,2.15,0,0,0,1-.39c-1.59-.18-3.17-.41-4.76-.49a1.64,1.64,0,0,0-1.12.8,51.37,51.37,0,0,1-17.77,17.66,47.56,47.56,0,0,1-13.39,5.45c-.89.22-1.4.51-1,1.53a3.12,3.12,0,0,1,.08,1.07q.27,11.51.53,23c.05,2.24.07,2.32,2.34,2.44,3.91.21,7.83.27,11.74.51a20.05,20.05,0,0,1,3.15.82,8.11,8.11,0,0,0,1.53.12c.71,0,1.45.06,1.55,1s-.64,1.12-1.34,1.21c-3.25.41-6.5.88-9.76,1.16-6,.52-12,.92-18.06,1.36a2.91,2.91,0,0,1-1.3,0,4.8,4.8,0,0,1-1.12-1,6.16,6.16,0,0,1,1-1,3.12,3.12,0,0,1,1.15-.14v-3.7c-1-.12-2-.19-3-.37-1.65-.29-3.29-.67-4.94-1a4.8,4.8,0,0,0-3.87.91l.77.41c-.44.35-.83.62-1.16.94a1,1,0,0,1-1.73-.33,21.39,21.39,0,0,1-.6-3.35c-.4-4.33.76-8.48,1.54-12.68.46-2.47.59-5,.95-7.48.22-1.56-.75-3.5,1.49-4.53-13.19-1-25.26-4.54-35-13.69L45.5,132.91c1,0,2.27,0,3.49,0,.9,0,1.84-.06,2.14,1.05s.59,2.37-.43,3.37c-.22.22-.47.41-.79.68,1,1.59,2,3.18,3.11,4.71a5,5,0,0,1,.79,3.54,1.33,1.33,0,0,1-1.37,1.38c-1.45,0-2.9-.08-4.52-.13a24.18,24.18,0,0,1-4.33,7c-1.62,1.85-3.63,2.17-5.87,1.92a.48.48,0,0,1-.23-.05c-2-1.56-4.47-2.89-5-5.69a16.77,16.77,0,0,1-.06-5.37,7.46,7.46,0,0,1,1.77-3c.19-.25.9-.11,1.37-.15-.09.42-.06.94-.3,1.23a7.17,7.17,0,0,0,.74,9.57c.92.82,1.6,2,3.18,1.8A4.29,4.29,0,0,0,42,153.6,19.71,19.71,0,0,0,46.24,147c.76-1.94,1.14-2,3-1.28a11.58,11.58,0,0,0,2.91.29,10.48,10.48,0,0,0-.68-2.19c-.95-1.57-2-3.07-3-4.62-.8-1.26-.64-1.89.47-2.9a6.72,6.72,0,0,0,.88-1.57,15.45,15.45,0,0,0-5.51.53,13.94,13.94,0,0,1-3.36.36c-1.47.1-3,.1-4.42.23a2.07,2.07,0,0,0-1.4.63c-.2.29,0,1,.22,1.39a13.16,13.16,0,0,0,1,1.65c-1.41.59-1.86-.44-2.4-1.22a2.45,2.45,0,0,1,1.94-4c1.79-.16,3.58-.28,5.37-.43a1.56,1.56,0,0,0,.41-.11,11.36,11.36,0,0,1,0-2.24q1.44-6.74,3-13.46a18.51,18.51,0,0,1,.94-2.44c-1.08-2.31-2.29-4.73-3.35-7.23-2-4.72-2.45-9.75-2.56-14.8-.15-7.27.36-14.52,2.6-21.46C46,60.66,52.48,51.19,62.91,44.8A20.74,20.74,0,0,1,75.2,41.42c.31,0,.62,0,1.2-.06C75.54,40,74.79,38.73,74,37.51c-1-1.47-.83-1.83.42-3a49.09,49.09,0,0,0,5.26-5.53,14.14,14.14,0,0,0,2.43-11.29,7.84,7.84,0,0,0-1.55-3.33c-2.32-3-4.68-5.88-7.22-8.63a11.93,11.93,0,0,0-7.79-3.55c-8.65-1-14.65,3.07-19.18,9.94a59.93,59.93,0,0,0-6,13.06c-3,8.39-5.83,16.85-9,25.2A109.36,109.36,0,0,1,20.28,73a37.42,37.42,0,0,1-7.85,8.59c.75-.36,1.51-.68,2.24-1.07Q26.37,74.27,38.06,68a9.84,9.84,0,0,1,2.44-1c.37-.08.84.35,1.27.54-.23.37-.36.92-.7,1.09Q27.4,75.93,13.68,83.07A22.06,22.06,0,0,1,1.95,85.42c-.44,0-.85-.52-1.28-.8.32-.36.58-.88,1-1,1.81-.75,3.65-1.4,5.49-2.07,4.55-1.66,7.82-4.88,10.56-8.72a88.35,88.35,0,0,0,10.24-19.5c3.83-9.87,7.34-19.87,11-29.79A58.34,58.34,0,0,1,45.2,10.68c3-4.4,6.77-8.09,12-9.48C63.92-.59,70.41-.15,75.5,5.52,77.39,7.63,79.17,9.84,81,12c3.91,4.54,3.67,9.61,1.74,14.78C81.48,30.22,79,32.83,76.1,35.1c-.25.2-.51.39-.75.59A.73.73,0,0,0,75.22,35.9ZM51.85,117.22c-.16-.1-.38-.15-.47-.29-2.08-3.12-4.2-6.21-6.18-9.39a24.15,24.15,0,0,1-1.8-4c-.53-1.35-.95-2.75-1.42-4.12a37.16,37.16,0,0,0,7.64,18.41l2.22-.57c0,.42.07.93-.13,1.25-.71,1.15-.05,1.79.7,2.54a42.81,42.81,0,0,0,13.78,9c1.17.5,2.38.88,3.58,1.31a4.5,4.5,0,0,0-1.5-1,52.84,52.84,0,0,1-15.17-11.39A19.86,19.86,0,0,1,51.85,117.22Zm75.33-10,.17-.34c-1-.85-2-1.65-2.83-2.58a6.53,6.53,0,0,1-1.27-2,1.43,1.43,0,0,1,.26-1.29,1.57,1.57,0,0,1,1.3-.17,8.6,8.6,0,0,1,1.7.87,19.3,19.3,0,0,0,9.76,2.92c3.39,0,3.41,0,4.36-3.27.43-1.51.78-3,1.17-4.56a3.59,3.59,0,0,0-1.39.52,7.33,7.33,0,0,1-6.58.42,37.59,37.59,0,0,1-4.68-2.89c-.2-.13-.43-.51-.37-.65s.45-.56.67-.54a4.59,4.59,0,0,1,1.72.41c1,.51,1.93,1.12,2.87,1.73,1.81,1.17,5.52.78,6.83-.69a5.09,5.09,0,0,1,1.31-.72c0-.27.13-.79.2-1.3a101.71,101.71,0,0,0,.69-17,54,54,0,0,0-.74-8.94C139.58,53.23,130.07,42.29,114,40.69a81.21,81.21,0,0,0-33.26,3.74,3.4,3.4,0,0,0-.53.29,6,6,0,0,1,.23.6c.18.7,1.1,1.58,0,2.06-.92.4-1.2-.7-1.5-1.34a1,1,0,0,0-1.5-.58c-4,1.66-8.07,3.09-11.93,5A40.4,40.4,0,0,0,48.07,66.73c-3.76,6.45-5,13.47-5.18,20.82s1,14.15,4.68,20.54c6.74,11.7,16.62,19.45,29.37,23.67A57,57,0,0,0,100,134.21c.94-.08,1.89.08,2.25-1.21.17-.62,1-1,1.42-.39.78,1.13,1.82.94,2.76.7a48.93,48.93,0,0,0,26.92-17.55c1.06-1.33,1.94-2.8,2.93-4.24a2.23,2.23,0,0,0-.47-.25c-.39-.06-.79-.1-1.19-.15a23.15,23.15,0,0,1-11.39-4.06,8.21,8.21,0,0,1-1.84-1.85c-.21-.3.05-.93.1-1.41a6.14,6.14,0,0,1,1.24.47C124.26,105.24,125.71,106.24,127.18,107.22ZM218.81,48,187,50.45V63l14.44-.82c0-.67,0-1.11,0-1.54,0-2.44,0-4.88,0-7.32a2.14,2.14,0,0,1,1-2.22c.9,3.66.13,7.26.54,10.91,2.37-.18,4.7-.4,7-.53a15,15,0,0,1,2.21.19v.56c-3,1-6.23.81-9.47,1.43V76.5c4.25.25,8.56-.06,12.82.51v.63l-13.14.27-.71,17h14.93a2.15,2.15,0,0,0,.12-.39q1.5-19.85,3-39.7a2.26,2.26,0,0,0-.2-.76,8.6,8.6,0,0,1-.5-1.64C218.94,50.95,218.89,49.44,218.81,48ZM187.66,95.77c.88,3.3-1.25,4.42-3.51,5.53-2.73,1.34-5.39,2.79-8.1,4.18a13.56,13.56,0,0,1-2,.84c-.67.22-1.43.12-1.51-.67a1.73,1.73,0,0,1,.85-1.3c3.61-1.9,7.26-3.7,10.88-5.57,1.45-.75,1.73-1.57,1.21-3.14a8,8,0,0,1-.48-1.22c-.09-.61-.31-1.46,0-1.83a3.25,3.25,0,0,0,.42-3,22.17,22.17,0,0,1,0-3.65c-.45,0-.72,0-1,0-2.94.32-5.88.63-8.81,1-1.62.19-2.23-.48-1.68-2a6.77,6.77,0,0,1,.78-1.24,5.06,5.06,0,0,0-1.09-.56c-.39-.12-1-.21-1.24,0a4.91,4.91,0,0,0-1.06,1.73,7.37,7.37,0,0,0-.14,1.84c1.16.92.14,2.51.35,3.9l1.82.45,0,.3c-3.5.75-7.09.47-10.67.54-.17,2.85,1.05,5,2.27,7.22l2-1.16.33.34-1.21,2A5.74,5.74,0,0,0,170,98.4c.45-.49,1.24-.73,1.64,0a1.71,1.71,0,0,1-.24,1.55,39.52,39.52,0,0,1-9.53,8.32,9.16,9.16,0,0,0-.75.55,4.75,4.75,0,0,0,1.65,0c7.19-.77,14.37-1.64,21.57-2.26,4.73-.41,9.5-.46,14.25-.62.88,0,1.19-.31,1.2-1.18,0-1.28.15-2.55.17-3.83,0-1.46,0-2.93,0-4.45ZM185.77,63V50.59H150.14c.07,3.79.17,7.35.19,10.9,0,.83.27,1.1,1.09,1.14,2.47.1,4.94.32,7.42.4,2.11.07,4.22,0,6.45,0,0-.52.1-1,.11-1.46,0-2.28,0-4.56.09-6.84a9.47,9.47,0,0,1,.47-1.93l.5,0a9.1,9.1,0,0,1,.43,1.77c.06,1.44,0,2.88,0,4.32s0,2.68,0,4.05Zm-19,1.73c-.17,2.29-.35,4.44-.45,6.59a1.44,1.44,0,0,0,.65,1c1.86,1.25,3.73,2.48,5.64,3.64a3.93,3.93,0,0,0,1.87.59c3.28.06,6.56,0,9.84,0,.34,0,.68-.06,1.16-.1V64.72ZM189.61,88.8c-.88,1.59-1.66,2.91-2.34,4.28a1.89,1.89,0,0,0,0,1.31,1,1,0,0,0,.8.44c2.63.07,5.26.1,7.9.13,1.38,0,2.75,0,4.12,0L200.9,78H186.84V83c2,.3,2.11.45,2.25,2.45.05.74.07,1.48.11,2.31,1.79-.74,2.79.59,4,1.23.56.29,1.1.81.59,1.4-.23.26-1.09.21-1.52,0A27.92,27.92,0,0,1,189.61,88.8ZM201,76.48l.44-12.65L187,64.74V76.48Zm18.22,18.59,4.92.23V47.38c-1.39-.3-2,0-1.85,1.26a7.64,7.64,0,0,1-.08,1.31c-.46,5.82-1,11.63-1.37,17.45-.43,6.3-.76,12.61-1.13,18.92C219.58,89.19,219.43,92.05,219.26,95.07Zm-68.81-4.52c3.41,0,6.72,0,10,0a1.08,1.08,0,0,0,.64-.38c.83-.89,1.66-1.79,2.44-2.72a2.22,2.22,0,0,0,.57-1.15c.06-.91-.11-1.84,0-2.74a2.31,2.31,0,0,0-.91-2.18c-1-.84-1.79-1.84-1-3.55H150.44Zm-49.34,45.86H90.54c0,.85,0,1.6,0,2.35,0,4.08,0,8.16,0,12.23,0,2.07-.09,2.08,1.86,2.71,1.69.55,3.39,1.07,5.14,1.61Zm114.78-30.58.79-9.26h-15l-.49,9.26ZM161.12,92H150.46l-.95,12.15c4.94-1,10-1.1,14.3-4.15C162.32,97.54,160.73,95.15,161.12,92Zm4.1-27.26-14.78-.69V76.4H159c-.69-.48-1.49-.63-2.16-1-.4-.23-.6-.81-.89-1.23.44-.25.87-.69,1.32-.71a7.56,7.56,0,0,1,1.93.44c.38-1.22-.3-1.63-1.24-2.13a57.13,57.13,0,0,1-5.38-3.35c-.34-.23-.38-.92-.56-1.39.49-.14,1-.48,1.47-.38a8,8,0,0,1,2.2.91c2.2,1.22,4.37,2.49,6.55,3.75.85.49,2.62,0,2.68-.74C165,68.65,165.1,66.74,165.21,64.77ZM227,86.55c0,2.18,0,4.21,0,6.24,0,.84.11,1.68,0,2.51-.11,1.29-.94,1.71-2.08,1.15a2,2,0,0,0-.88-.25c-1.32,0-2.63.16-3.95.17-.84,0-1.09.38-1.13,1.15-.05,1.2-.18,2.39-.27,3.58-.12,1.57-.23,3.14-.35,4.94h9.53ZM77.7,44l.15-.43c-.48-.37-.95-1-1.45-1.07a19.33,19.33,0,0,0-9,1.54,37.42,37.42,0,0,0-11.85,8.42,45.33,45.33,0,0,0-9,13.46C53.55,53.85,65,48,77.7,44Zm98,34-.14.25c1.35,1.1,2.72,2.18,4,3.31a22.25,22.25,0,0,1,1.58,1.67l4-.21V78Zm23.14,31.79c-11.67-.29-23.27.75-34.88,1.68C175.67,111.9,187.27,110.82,198.87,109.79ZM222,30.23l.56,16.23,1.5-.1c0-3.18-.19-6.27.06-9.32A9.84,9.84,0,0,0,222,30.23ZM139.23,109c4.21.16,8.22.14,12-1-2.64,0-5.38,0-8.12,0a2.66,2.66,0,0,1-1.84-.62c-.75-1-1.07-.6-1.44.2C139.66,108,139.49,108.41,139.23,109Zm-.84-2L129.9,106c2,.85,4.15,1.68,6.3,2.37C137.9,108.89,138,108.74,138.39,107.06Zm32.46-25.13-5-2.16-.23.3c.53,1.94,2.45,2.5,3.83,3.75Zm53-55.37-.32-.29c-.56.34-1.65.75-1.61,1a13.91,13.91,0,0,0,1.93,5.07Zm-58.7,60c1.13-.49,2.27.1,3.17-.9l-2.87-2.11Zm4.9,4.36a16.27,16.27,0,0,0-.19-2.31c0-.18-.53-.27-.81-.39a7.9,7.9,0,0,0-.47,2C168.62,90.41,169.43,90.61,170.1,90.92ZM164.38,89l-1.47,1.56h2.29Zm22.49-3.45-.11-.06v3.83h.11Z" transform="translate(-0.08 -0.24)"/><path d="M190.4,21.37c6.16,0,12.32,0,18.48,0,1.44,0,2.87.15,4.31.23,1.28.07,1.86,1,2.35,2,.34.63-.14,1-.81.88a32.45,32.45,0,0,0-3.32-.44c-16.48-.36-33-.63-49.4.73a167.13,167.13,0,0,0-27.24,4.86c-2.53.64-2.15,0-2.12,2.65,0,3.67.21,7.33.31,11a3.73,3.73,0,0,1-.17,1.53c-.17.4-.64.68-1,1-.32-.35-.86-.67-.92-1.05-.26-1.9-.4-3.81-.56-5.72-.2-2.34-.37-4.69-.56-7,0-.48-.05-1-.12-1.43a1.67,1.67,0,0,1,1.47-2.07c3.95-1,7.87-2.13,11.84-3.07,14.58-3.46,29.41-4.21,44.32-4.11h3.12Z" transform="translate(-0.08 -0.24)"/><path d="M137.88,38.21c.56-.1,1.12-.24,1.69-.3,5.45-.5,10.89-1.09,16.35-1.46,7-.48,14-1,21.06-1.13,10.75-.2,21.5-.1,32.26-.1.78,0,2.08-.38,2,.95s-1.31.91-2.11.91c-11.79.06-23.59-.09-35.37.19-8.7.21-17.39,1-26.08,1.5-2.83.15-5.67.11-8.5.13a6.61,6.61,0,0,1-1.34-.27Z" transform="translate(-0.08 -0.24)"/><path class="cls-1" d="M127.18,107.22c-1.47-1-2.92-2-4.41-2.93a6.14,6.14,0,0,0-1.24-.47c0,.48-.31,1.11-.1,1.41a8.21,8.21,0,0,0,1.84,1.85,23.15,23.15,0,0,0,11.39,4.06c.4,0,.79.09,1.19.15a2.23,2.23,0,0,1,.47.25c-1,1.44-1.87,2.91-2.93,4.24a48.93,48.93,0,0,1-26.92,17.55c-.95.24-2,.43-2.76-.7-.44-.63-1.25-.23-1.42.39-.36,1.29-1.32,1.13-2.25,1.21a57,57,0,0,1-23.09-2.45c-12.75-4.22-22.63-12-29.37-23.67-3.68-6.39-4.82-13.29-4.68-20.54s1.43-14.37,5.18-20.82A40.4,40.4,0,0,1,65.53,50.45c3.86-1.89,8-3.32,11.93-5A1,1,0,0,1,79,46c.3.64.58,1.74,1.5,1.34,1.11-.48.19-1.36,0-2.06a6,6,0,0,0-.23-.6,3.4,3.4,0,0,1,.53-.29A81.21,81.21,0,0,1,114,40.69c16,1.6,25.54,12.54,28.28,26.47a54,54,0,0,1,.74,8.94,101.71,101.71,0,0,1-.69,17c-.07.51-.16,1-.2,1.3a5.09,5.09,0,0,0-1.31.72c-1.31,1.47-5,1.86-6.83.69-.94-.61-1.88-1.22-2.87-1.73a4.59,4.59,0,0,0-1.72-.41c-.22,0-.56.3-.67.54s.17.53.37.65a37.59,37.59,0,0,0,4.68,2.89,7.33,7.33,0,0,0,6.58-.42,3.59,3.59,0,0,1,1.39-.52c-.39,1.52-.74,3.05-1.17,4.56-.94,3.29-1,3.24-4.36,3.27a19.3,19.3,0,0,1-9.76-2.92,8.6,8.6,0,0,0-1.7-.87,1.57,1.57,0,0,0-1.3.17,1.43,1.43,0,0,0-.26,1.29,6.53,6.53,0,0,0,1.27,2c.88.92,1.88,1.72,2.83,2.58Zm-4.48-40h0c0-.2,0-.4,0-.6,0-1.71-.56-2.33-2.09-2.48s-2.2.28-2.57,1.95a17.81,17.81,0,0,0-.27,1.89c-.16,1.44.36,2.26,1.49,2.4,2.11.26,3.19-.31,3.41-1.85A9.36,9.36,0,0,0,122.69,67.18Zm-9.86-7.61.39.23a19.05,19.05,0,0,0,1.47-1.7c1.8-2.62,3.32-5.49,6.4-6.94.2-.09.29-.42.43-.63-.26-.14-.55-.43-.76-.38a4.91,4.91,0,0,0-1.64.65c-2.86,2-4.56,4.85-6.17,7.8A2.79,2.79,0,0,0,112.84,59.57Z" transform="translate(-0.08 -0.24)"/><path class="cls-1" d="M218.81,48c.09,1.48.14,3,.28,4.49a8.6,8.6,0,0,0,.5,1.64,2.26,2.26,0,0,1,.2.76q-1.48,19.85-3,39.7a2.15,2.15,0,0,1-.12.39H201.76l.71-17,13.14-.27V77c-4.26-.57-8.57-.26-12.82-.51V63.71c3.24-.62,6.47-.41,9.47-1.43v-.56a15,15,0,0,0-2.21-.19c-2.34.14-4.68.35-7,.53-.4-3.65.37-7.25-.54-10.91a2.14,2.14,0,0,0-1,2.22c0,2.44,0,4.88,0,7.32,0,.43,0,.87,0,1.54L187,63V50.45Z" transform="translate(-0.08 -0.24)"/><path class="cls-1" d="M187.66,95.77l12.25.73c0,1.53,0,3,0,4.45,0,1.28-.17,2.55-.17,3.83,0,.87-.31,1.15-1.2,1.18-4.75.15-9.52.21-14.25.62-7.2.62-14.38,1.49-21.57,2.26a4.75,4.75,0,0,1-1.65,0,9.16,9.16,0,0,1,.75-.55,39.52,39.52,0,0,0,9.53-8.32,1.71,1.71,0,0,0,.24-1.55c-.4-.72-1.19-.47-1.64,0a5.74,5.74,0,0,1-3.9,1.92l1.21-2-.33-.34-2,1.16c-1.22-2.2-2.45-4.37-2.27-7.22,3.58-.06,7.16.22,10.67-.54l0-.3-1.82-.45c-.22-1.39.81-3-.35-3.9a7.37,7.37,0,0,1,.14-1.84,4.91,4.91,0,0,1,1.06-1.73c.21-.21.85-.13,1.24,0a5.06,5.06,0,0,1,1.09.56,6.77,6.77,0,0,0-.78,1.24c-.55,1.49.06,2.16,1.68,2,2.94-.35,5.87-.66,8.81-1,.27,0,.54,0,1,0a22.17,22.17,0,0,0,0,3.65,3.25,3.25,0,0,1-.42,3c-.3.37-.08,1.22,0,1.83a8,8,0,0,0,.48,1.22c.52,1.57.24,2.39-1.21,3.14-3.62,1.87-7.28,3.67-10.88,5.57a1.73,1.73,0,0,0-.85,1.3c.09.79.85.88,1.51.67a13.56,13.56,0,0,0,2-.84c2.7-1.39,5.37-2.84,8.1-4.18C186.41,100.19,188.54,99.07,187.66,95.77Z" transform="translate(-0.08 -0.24)"/><path class="cls-1" d="M185.77,63H166.89c0-1.37,0-2.71,0-4.05s0-2.88,0-4.32a9.1,9.1,0,0,0-.43-1.77l-.5,0a9.47,9.47,0,0,0-.47,1.93c-.08,2.28-.06,4.56-.09,6.84,0,.47-.07.93-.11,1.46-2.23,0-4.34.06-6.45,0-2.47-.08-4.95-.3-7.42-.4-.82,0-1.08-.31-1.09-1.14,0-3.55-.12-7.1-.19-10.9h35.63Z" transform="translate(-0.08 -0.24)"/><path class="cls-1" d="M166.72,64.72h18.71V76.43c-.48,0-.82.1-1.16.1-3.28,0-6.56,0-9.84,0a3.93,3.93,0,0,1-1.87-.59c-1.91-1.16-3.78-2.39-5.64-3.64a1.44,1.44,0,0,1-.65-1C166.37,69.16,166.55,67,166.72,64.72Z" transform="translate(-0.08 -0.24)"/><path class="cls-1" d="M189.61,88.8a27.92,27.92,0,0,0,2.68,1.58c.44.2,1.29.26,1.52,0,.52-.59,0-1.11-.59-1.4-1.23-.64-2.23-2-4-1.23,0-.83-.06-1.57-.11-2.31-.14-2-.28-2.15-2.25-2.45V78H200.9L200.13,95c-1.37,0-2.74,0-4.12,0-2.63,0-5.27-.06-7.9-.13a1,1,0,0,1-.8-.44,1.89,1.89,0,0,1,0-1.31C187.94,91.71,188.72,90.39,189.61,88.8Z" transform="translate(-0.08 -0.24)"/><path class="cls-1" d="M201,76.48H187V64.74l14.51-.92Z" transform="translate(-0.08 -0.24)"/><path class="cls-1" d="M219.26,95.07c.17-3,.33-5.88.49-8.75.37-6.31.7-12.61,1.13-18.92.4-5.82.91-11.63,1.37-17.45a7.64,7.64,0,0,0,.08-1.31c-.12-1.23.46-1.56,1.85-1.26V95.3Z" transform="translate(-0.08 -0.24)"/><path class="cls-1" d="M150.44,90.55V77.81h11.71c-.78,1.71,0,2.71,1,3.55a2.31,2.31,0,0,1,.91,2.18c-.07.91.1,1.83,0,2.74a2.22,2.22,0,0,1-.57,1.15c-.78.94-1.61,1.83-2.44,2.72a1.08,1.08,0,0,1-.64.38C157.16,90.56,153.85,90.55,150.44,90.55Z" transform="translate(-0.08 -0.24)"/><path class="cls-1" d="M101.11,136.41l-3.59,18.91c-1.75-.55-3.45-1.07-5.14-1.61-1.95-.63-1.88-.64-1.86-2.71,0-4.08,0-8.15,0-12.23,0-.75,0-1.5,0-2.35Z" transform="translate(-0.08 -0.24)"/><path class="cls-1" d="M215.89,105.83H201.24l.49-9.26h15Z" transform="translate(-0.08 -0.24)"/><path class="cls-1" d="M161.12,92c-.39,3.12,1.2,5.51,2.69,8-4.33,3-9.37,3.15-14.3,4.15L150.46,92Z" transform="translate(-0.08 -0.24)"/><path class="cls-1" d="M165.21,64.77c-.11,2-.19,3.87-.34,5.78-.06.76-1.84,1.23-2.68.74-2.18-1.25-4.35-2.52-6.55-3.75a8,8,0,0,0-2.2-.91c-.44-.09-1,.24-1.47.38.18.48.21,1.16.56,1.39a57.13,57.13,0,0,0,5.38,3.35c.94.5,1.62.91,1.24,2.13a7.56,7.56,0,0,0-1.93-.44c-.44,0-.88.45-1.32.71.29.42.49,1,.89,1.23.67.38,1.47.54,2.16,1h-8.53V64.08Z" transform="translate(-0.08 -0.24)"/><path class="cls-1" d="M227,86.55l.92,19.49h-9.53c.13-1.8.24-3.37.35-4.94.09-1.19.22-2.39.27-3.58,0-.77.29-1.15,1.13-1.15,1.32,0,2.63-.13,3.95-.17a2,2,0,0,1,.88.25c1.15.56,2,.14,2.08-1.15.07-.83,0-1.67,0-2.51C227,90.76,227,88.73,227,86.55Z" transform="translate(-0.08 -0.24)"/><path class="cls-1" d="M77.7,44C65,48,53.55,53.85,46.52,65.93a45.33,45.33,0,0,1,9-13.46,37.42,37.42,0,0,1,11.85-8.42,19.33,19.33,0,0,1,9-1.54c.5,0,1,.69,1.45,1.07Z" transform="translate(-0.08 -0.24)"/><path class="cls-1" d="M175.73,78h9.52v5l-4,.21a22.25,22.25,0,0,0-1.58-1.67c-1.33-1.13-2.69-2.21-4-3.31Z" transform="translate(-0.08 -0.24)"/><path class="cls-1" d="M51.85,117.22a19.81,19.81,0,0,0,1.26,1.65,52.84,52.84,0,0,0,15.17,11.39,4.5,4.5,0,0,1,1.5,1c-1.19-.43-2.41-.82-3.58-1.31a42.81,42.81,0,0,1-13.78-9c-.75-.75-1.41-1.39-.7-2.54.2-.32.09-.83.13-1.25Z" transform="translate(-0.08 -0.24)"/><path class="cls-1" d="M198.87,109.79c-11.6,1-23.2,2.1-34.88,1.68C175.6,110.54,187.2,109.5,198.87,109.79Z" transform="translate(-0.08 -0.24)"/><path class="cls-1" d="M51.85,117.22l-2.22.57A37.16,37.16,0,0,1,42,99.38c.47,1.38.89,2.77,1.42,4.12a24.15,24.15,0,0,0,1.8,4c2,3.18,4.1,6.27,6.18,9.39.09.14.31.2.47.29Z" transform="translate(-0.08 -0.24)"/><path class="cls-1" d="M222,30.23A9.84,9.84,0,0,1,224.1,37c-.25,3.05-.06,6.14-.06,9.32l-1.5.1Z" transform="translate(-0.08 -0.24)"/><path class="cls-1" d="M139.23,109c.26-.61.42-1,.62-1.47.37-.8.69-1.16,1.44-.2a2.66,2.66,0,0,0,1.84.62c2.74.06,5.48,0,8.12,0C147.46,109.16,143.45,109.18,139.23,109Z" transform="translate(-0.08 -0.24)"/><path class="cls-1" d="M138.39,107.06c-.35,1.68-.5,1.84-2.2,1.29-2.15-.7-4.26-1.52-6.3-2.37Z" transform="translate(-0.08 -0.24)"/><path class="cls-1" d="M170.85,81.93l-1.43,1.89c-1.38-1.24-3.3-1.81-3.83-3.75l.23-.3Z" transform="translate(-0.08 -0.24)"/><path class="cls-1" d="M223.9,26.56v5.77A13.91,13.91,0,0,1,222,27.26c0-.24,1-.66,1.61-1Z" transform="translate(-0.08 -0.24)"/><path class="cls-1" d="M165.2,86.55l.3-3,2.87,2.11C167.47,86.65,166.33,86.06,165.2,86.55Z" transform="translate(-0.08 -0.24)"/><path class="cls-1" d="M170.1,90.92c-.66-.31-1.48-.51-1.48-.71a7.9,7.9,0,0,1,.47-2c.28.13.77.21.81.39A16.27,16.27,0,0,1,170.1,90.92Z" transform="translate(-0.08 -0.24)"/><path class="cls-1" d="M164.38,89l.82,1.56h-2.29Z" transform="translate(-0.08 -0.24)"/><path class="cls-1" d="M186.87,85.54v3.78h-.11V85.49Z" transform="translate(-0.08 -0.24)"/><path d="M122.69,67.18a9.36,9.36,0,0,1,0,1.31c-.22,1.54-1.3,2.12-3.41,1.85-1.13-.14-1.65-1-1.49-2.4a17.81,17.81,0,0,1,.27-1.89c.37-1.67,1-2.1,2.57-1.95s2.05.77,2.09,2.48c0,.2,0,.4,0,.6Z" transform="translate(-0.08 -0.24)"/><path d="M112.84,59.57a2.79,2.79,0,0,1,.12-1c1.61-3,3.3-5.85,6.17-7.8a4.91,4.91,0,0,1,1.64-.65c.21,0,.5.25.76.38-.14.22-.23.54-.43.63-3.09,1.44-4.6,4.32-6.4,6.94a19.05,19.05,0,0,1-1.47,1.7Z" transform="translate(-0.08 -0.24)"/></g></g></g></svg>