<svg xmlns="http://www.w3.org/2000/svg" viewBox="0 0 216.96 176.4"><defs><style>.cls-1{fill:#fff;}</style></defs><title>skills</title><g id="Layer_2" data-name="Layer 2"><g id="Layer_8" data-name="Layer 8"><g id="k6Fktx.tif"><path class="cls-1" d="M.08,176.48q0-88.2,0-176.4H217q0,88.2,0,176.4ZM33,35.33a4.25,4.25,0,0,0-.51.79c-.1.26-.2.68-.07.84a.88.88,0,0,0,.83.14,3.19,3.19,0,0,0,1.14-.83c1.06-1.29,2.09-2.61,3.06-4,.35-.49,1.08-1.08.32-1.7-.13-.11-1,.5-1.4.92-1.16,1.24-2.24,2.55-3.35,3.84l.28-1c-1,.18-1,.18-2.67-1.32,1.32-1.87,2.64-3.76,4-5.63,1-1.39,2.06-2.73,3.06-4.12a14.31,14.31,0,0,0,.87-1.6c-.93-.44-1.35.36-1.72.85q-3.9,5.21-7.65,10.53c-.12.17.19.81.46,1.06a4.49,4.49,0,0,0,1.52.91A10,10,0,0,0,33,35.33ZM215.35,62.71l0,0c.21-.44.71-1.07.57-1.27a2.61,2.61,0,0,0-1.35-.71,3.34,3.34,0,0,0-1.07,0l-15.58.51-15.11.49c-.8,0-1.66,0-2.23,1l1.95.63V76.17a38.27,38.27,0,0,1-.74-5.24l-.48-5.09a48.17,48.17,0,0,0,.07,14.37c.19,1.48-.35,3.25,1.27,4.34,0,0,0,.15,0,.23q0,1.73,0,3.46l-.35-.18c-.49.49-1.31.95-1.36,1.47s.79,1,1.23,1.51c.24.15.24.47.24.79,0,.66,0,1.46.84,1.4.34,0,.67-.78.9-1.26a4,4,0,0,0,.18-1.14l3.72.75-4.68,3.94c-.09-.06-.26-.17-.41-.3-2.16-1.84-4.2-1.54-5.68.88a11.25,11.25,0,0,0-1.88,6,1.15,1.15,0,0,1-.55.87c-2.74,1.21-5.49,2.4-8.27,3.52s-5.49,2.2-8.29,3.11a23.08,23.08,0,0,1-4.32.51l.87-1.33c4.52-6.82,7.89-14.08,8.57-22.37A43.65,43.65,0,0,0,163,73c-1.14-5-3.82-9.19-7-13.11l-1-1.28c.54,0,.82-.05,1.09-.05A169.93,169.93,0,0,0,176.21,57c5.57-.7,10.8-2.94,16.43-3.26.33,0,.62-.65.93-1-.4-.23-.79-.64-1.2-.66-1.67-.07-3.37.12-5,0a30.59,30.59,0,0,1-10.47-2.91c-3.14-1.53-6.61-2.45-9-5.37-1.66-2-4-3.43-5.67-5.47-2.8-3.49-5.29-7.22-7.86-10.89-4.62-6.58-9.29-13.14-15.24-18.62C133.46,3.61,127.15.22,119.17.46,111.54.68,105.52,4,100.39,9.28A5.08,5.08,0,0,0,99,12.09c-.14,1.53-.17,3-1.35,4.13a2.37,2.37,0,0,0-.53,1.56,17.75,17.75,0,0,0,.29,5.11C99.06,28.2,101.54,33.1,105.7,37c.21.19.38.43.71.81-1.61,0-3-.06-4.32,0a57.35,57.35,0,0,0-6.69.5c-16.59,2.83-29.27,11.5-37.94,25.9-1.91,3.17-3.2,6.7-5,10a49.44,49.44,0,0,0-5,13.57c-.22,1.07-.43,2.15-.68,3.41A23.33,23.33,0,0,1,36.16,77a1.12,1.12,0,0,1,.47-.93,15.53,15.53,0,0,0,5.7-6.19,21.16,21.16,0,0,0,1-2.85c1.09-1.2,2.53-2.71,3.86-4.29a5.35,5.35,0,0,0,1-2c.61-2.28.06-3.26-2.23-3.73a45.06,45.06,0,0,0-5-.61c-.84-.08-1.69,0-2.74,0,.31-.42.44-.63.6-.8q5.72-6.47,11.43-12.94a2.88,2.88,0,0,0,.34-1c-.39,0-.9-.19-1.15,0a13.59,13.59,0,0,0-2.22,2q-4.55,5.26-9,10.6c-1.07,1.27-2.09,2.58-3.12,3.86-.64-1.32-1.26-2.52-1.79-3.76a1.22,1.22,0,0,1,.19-1c2.55-3.18,5.14-6.33,7.7-9.51a6,6,0,0,1,3-2.22,1.62,1.62,0,0,0,1.23-1.82,1.73,1.73,0,0,1,.3-1.1c1.57-1.86,2-4.14,2.3-6.42a2.56,2.56,0,0,0-2.4-2.9,32.91,32.91,0,0,0-3.72,0c-.31,0-.6.39-.89.59.3.2.59.56.9.58,1,.08,2,0,3,.05,1.4,0,2,.67,1.84,2-.27,1.72-.69,3.42-1.07,5.24-.87-.77-1.08-.36-1.41.37a8.88,8.88,0,0,1-1.55,2.12c-.42.46-1.06.73-1.46,1.21-2.42,2.87-4.81,5.77-7.2,8.67-.7.86-1.36,1.76-2,2.65a6.63,6.63,0,0,0-6-.28,16.85,16.85,0,0,0-8.29,7.67,4.82,4.82,0,0,0-.47,2.07c0,.5.14,1.36.43,1.45.48.16,1.13-.15,1.7-.26l.15-.33c-1.25-.19-1.1-1-.81-1.63a12.34,12.34,0,0,1,1.8-2.94c1.92-2.16,4-4.23,6.94-4.89a4,4,0,0,1,3.46.42L29.77,56.3l.28.28,2.1-1.34c.68,2,2.34,3.76.87,6.12-.39.63-.41,1.31.63,1.36.29,2-.72,3.21-2.34,4.07-2.69,1.42-5.66,1.61-8.61,1.88-.79.07-1.22-.44-1.23-1.28,0-.56-.09-1.12-.13-1.68l-.54-.16a8,8,0,0,1-1.74,3.66,4.56,4.56,0,0,0-1.25.37c-.55.38-1,1-1.53,1.31a10.58,10.58,0,0,0-2.79,2.82C10.75,77.34,7.86,80.86,5,84.38c-1.19,1.45-2.51,2.8-3.72,4.23-.58.68-.93,1.51,0,2.2a1.4,1.4,0,0,1,.47,2.12,1.33,1.33,0,0,0,0,1.13,37.3,37.3,0,0,0,2.46,3.81c.29.39,1,.46,1.53.67A6.69,6.69,0,0,0,6.3,97c.16-1.3-.26-2.93.39-3.84.89-1.25.71-2.55,1.07-3.8a18,18,0,0,0,.33-1.85,11.49,11.49,0,0,1,.1,1.94c0,.7,0,1.51.93,1.48s.82-.81.84-1.46c.07-2,.09-3.92.27-5.87A16.54,16.54,0,0,1,11,80.77l.41.08c0,.43.12.85.13,1.28,0,1.2,0,2.4.07,3.6,0,.38.44.72.68,1.08a4.32,4.32,0,0,0,1-.84,4.61,4.61,0,0,0,.36-1.26c.2-.71.4-1.42.61-2.13.12.73-.09,1.42,0,2.07a3.11,3.11,0,0,1-1.12,2.6q-2.91,3.19-5.72,6.47c-.48.56-1.37,1.3-.52,2s1.41-.24,1.92-.81q6.52-7.29,13-14.58c.26-.28.76-.65,1-.57,1.16.37,1.62-.25,2-1.15.44-1.06.9-2.11,1.35-3.16l.23.24,1.17-.42-1.23-1.91-.28.17a3.87,3.87,0,0,1,2.74-3.91A17.1,17.1,0,0,0,31,68.94c3-1.22,4.78-3.27,4.39-6.73,0-.4,0-.81,0-1.2a2.51,2.51,0,0,1,1.19-2.44c.45,2.62.47,2.64,1.64,2.31A11.49,11.49,0,0,1,38,59.59c0-1.58.28-1.93,1.88-1.86a38.7,38.7,0,0,1,5,.45c2.26.4,2.66,1.5,1.4,3.49a7.75,7.75,0,0,1-.87,1.14C44.3,64,43.06,65.2,42,66.5a3.08,3.08,0,0,1-1.86,1,24.56,24.56,0,0,0-3.94,1.63c-.24.11-.27.65-.4,1a3.4,3.4,0,0,0,1.08.08c.37-.09.68-.43,1-.56.91-.34,1.84-.62,3-1-.87,2.36-3.52,5.1-5.13,5.53l-.56-2.89h-.49a17.34,17.34,0,0,0-.32,2c-.1,2.18-.07,2.21-2.19,2.85a10.52,10.52,0,0,1-2.23.42c-.87.07-1.76,0-2.63,0-.27,0-.68.22-.74.41a.87.87,0,0,0,.38.75,3.65,3.65,0,0,0,1.68.51c2-.14,3.91-.41,6-.64-.06-.15,0,0,.06.14A23.35,23.35,0,0,0,46.06,92.63a1.51,1.51,0,0,1,.55,1,10.08,10.08,0,0,1-.08,1.67c-.21,4.59-.49,9.2.36,13.75,1.26,6.8,4,12.9,9,17.83,4.25,4.2,9.51,6.54,15.21,8a71.7,71.7,0,0,0,14.1,2c.56,0,1.4.1,1.61.45a20.9,20.9,0,0,1,2.12,4.4c1.53,5,2.95,10,4.32,15.09.72,2.65,1.26,5.34,1.9,8.06-3.09,1.11-6.07,2.16-9,3.26a7.67,7.67,0,0,0-1.49.93,5.32,5.32,0,0,1-1.2.84c-1.3.39-2.64.66-3.95,1s-1.41,1.13-.57,2c.15.15.37.37.35.52C79,175,80,175,81,175c5-.22,10.06-.43,15.09-.67.68,0,1.19,0,1.56.72a1.24,1.24,0,0,0,2.29-.28c.18-.82.68-.87,1.31-.88,1.48,0,3,0,4.43-.14a5.34,5.34,0,0,0,1.66-.82l-.93-1.61-.27.16a6.09,6.09,0,0,0-.2-1.27c-1.76-4.63-3.56-9.25-5.31-13.89-1.83-4.86-3.62-9.74-5.43-14.61-.33-.87-.66-1.76-1.87-1.69-.15,0-.4-.25-.46-.44-.23-.71-.41-1.44-.68-2.45l1.41,1-.39-.85a27,27,0,0,1,3.77,0,88,88,0,0,0,21,.75c1.14-.11,1.51.19,1.8,1.21.94,3.26,2,6.48,3,9.75,2,7.18,4,14.39,6,21.58a10.31,10.31,0,0,0,.49,1.06,4.22,4.22,0,0,1,.51,1.44c0,1.65.17,1.87,1.8,1.9H133a2.21,2.21,0,0,1,2.06.64c.17.21.9.05,1.34-.06s.94-.55,1.42-.57c4.19-.25,8.38-.4,12.57-.68a2,2,0,0,0,1.53-1c.25-.87-.64-1.14-1.33-1.36-.3-.1-.62-.14-.93-.22-2.29-.55-4.63-1-6.87-1.68a8.9,8.9,0,0,1-5.82-5.61,22,22,0,0,0-2.4-5.15,34.56,34.56,0,0,1-5.06-10.81c-.5-1.81-1.19-3.56-1.85-5.32-.82-2.2-1.7-4.38-2.56-6.6.3-.14.5-.26.72-.34a45.28,45.28,0,0,0,19.47-14.34c2.32-2.89,4.36-6,6.6-9a2.39,2.39,0,0,1,1.68-.79,23.08,23.08,0,0,0,9.8-2l10-4.63c.7-.32,1.41-.61,1.94-.83.26,3,.47,5.9.8,8.78.12,1.07.44,2.17,1.88,2.26s1.85-.32,2.39-2c.19-.58.36-1.17.59-1.93.53.7.91,1.25,1.34,1.76a3.31,3.31,0,0,0,.95.9,39.78,39.78,0,0,0,3.89,1.74,1.12,1.12,0,0,1,.87,1.43c-.33,1.59-.65,3.19-1.07,4.76a2.3,2.3,0,0,0,.37,2.55,2.34,2.34,0,0,1,.57,1.37,28.05,28.05,0,0,0,.22,4.4,8.56,8.56,0,0,0,1.83,3.12,1,1,0,0,0,1.81-.22c1.14-1.88,2.22-3.79,3.35-5.67a6.26,6.26,0,0,0,.69-4.85c-.36-1.58-.65-3.19-1-4.76a6.6,6.6,0,0,0,1.55-.7c1.45-1.24,2.88-2.51,4.22-3.87a2.65,2.65,0,0,0,.61-1.64c.14-3.42.23-6.84.28-10.26a3.59,3.59,0,0,0-1.3-3.2.7.7,0,0,1-.25-.48c0-2,0-4.06,0-6.19.65,0,1,0,1.43,0,1.59.15,3.19.22,4.76.5,2.1.38,2.09.45,3.13-1.35,0,0,.07-.05.08-.09.13-.4.49-1,.34-1.17a1.71,1.71,0,0,0-1.24-.49c-1.32,0-2.63.19-4,.2a23.11,23.11,0,0,1-2.57-.25,58.43,58.43,0,0,1,6.74-.26c2.11,0,3.31-.81,3.8-2.9,1.26-5.45,2.48-10.91,3.6-16.39a35.35,35.35,0,0,0,.51-5.48C216.58,63.62,216.58,62.65,215.35,62.71ZM41.62,20.58l.18.3c-.27.43-.57.85-.81,1.3-.63,1.21-.2,2.07,1.13,2.34a4.6,4.6,0,0,1,.91.27l9.11,3.94c1.45.63,2.45.21,2.84-1.3a16.1,16.1,0,0,0,.33-2.6c0-.5,0-1,0-1.52,3.43.39,4.14.62,5.64,2.46A34.3,34.3,0,0,1,67.85,39.6c.79,3.26-.6,5.66-3.71,6.88.06-.55.1-1.06.18-1.56a9.56,9.56,0,0,0-2.85-8.42,7.22,7.22,0,0,0-3.36-1.87c-4.66-1.13-8.32,2-10.89,5.45-.21.28,0,.91.06,1.38a5.22,5.22,0,0,0,1.16-.58,58.24,58.24,0,0,1,4.58-4,6,6,0,0,1,8.19,1.5,8.4,8.4,0,0,1,2,5.76c-.1,1.63.39,3.39-1.37,4.51-.05,0,0,.22,0,.49a5,5,0,0,0,1.38-.18c1.2-.54,2.38-1.12,3.53-1.76C69.58,45.6,70.51,43,69.84,40a32.54,32.54,0,0,0-8.43-15.88,5.72,5.72,0,0,0-4.76-1.83c-.42,0-.88-.42-1.32-.67s-.68-.41-1-.62a4.69,4.69,0,0,0-.33,1.1c-.08,1.67,0,3.34-.18,5,0,.38-.54.72-.66.87a16.12,16.12,0,0,0-1.61-1.39,7.29,7.29,0,0,0-1.24-.42l-8.06-3.28A4,4,0,0,0,43,21.59c.11-.69.24-1.74-.13-2a2.59,2.59,0,0,0-2.1,0c-.74.26-1.65.65-1.61,1.91Z" transform="translate(-0.08 -0.08)"/><path d="M215.35,62.71c1.23-.06,1.23.91,1.2,1.65a35.35,35.35,0,0,1-.51,5.48c-1.12,5.48-2.34,10.94-3.6,16.39-.48,2.09-1.68,2.9-3.8,2.9a58.43,58.43,0,0,0-6.74.26,23.11,23.11,0,0,0,2.57.25c1.32,0,2.63-.19,4-.2a1.71,1.71,0,0,1,1.24.49c.15.19-.21.77-.34,1.17,0,0-.06.05-.08.09-1,1.81-1,1.73-3.13,1.35-1.57-.28-3.17-.35-4.76-.5-.38,0-.77,0-1.43,0,0,2.14,0,4.17,0,6.19a.7.7,0,0,0,.25.48,3.59,3.59,0,0,1,1.3,3.2c-.06,3.42-.14,6.84-.28,10.26a2.65,2.65,0,0,1-.61,1.64c-1.34,1.35-2.78,2.62-4.22,3.87a6.6,6.6,0,0,1-1.55.7c.32,1.57.6,3.17,1,4.76a6.26,6.26,0,0,1-.69,4.85c-1.14,1.88-2.22,3.79-3.35,5.67a1,1,0,0,1-1.81.22,8.56,8.56,0,0,1-1.83-3.12,28.05,28.05,0,0,1-.22-4.4,2.34,2.34,0,0,0-.57-1.37,2.3,2.3,0,0,1-.37-2.55c.42-1.57.75-3.17,1.07-4.76a1.12,1.12,0,0,0-.87-1.43,39.78,39.78,0,0,1-3.89-1.74,3.31,3.31,0,0,1-.95-.9c-.43-.51-.81-1.06-1.34-1.76-.23.76-.41,1.35-.59,1.93-.54,1.67-1,2.07-2.39,2s-1.75-1.19-1.88-2.26c-.33-2.89-.53-5.79-.8-8.78-.52.22-1.24.51-1.94.83l-10,4.63a23.08,23.08,0,0,1-9.8,2,2.39,2.39,0,0,0-1.68.79c-2.24,3-4.28,6.08-6.6,9a45.28,45.28,0,0,1-19.47,14.34c-.22.08-.43.2-.72.34.87,2.23,1.74,4.4,2.56,6.6.66,1.76,1.35,3.52,1.85,5.32a34.56,34.56,0,0,0,5.06,10.81,22,22,0,0,1,2.4,5.15,8.9,8.9,0,0,0,5.82,5.61c2.24.72,4.57,1.13,6.87,1.68.31.07.63.12.93.22.69.22,1.58.49,1.33,1.36a2,2,0,0,1-1.53,1c-4.19.28-8.38.43-12.57.68-.48,0-.93.45-1.42.57s-1.17.27-1.34.06A2.21,2.21,0,0,0,133,175h-1.32c-1.63,0-1.8-.25-1.8-1.9a4.22,4.22,0,0,0-.51-1.44,10.31,10.31,0,0,1-.49-1.06c-2-7.19-4-14.39-6-21.58-.93-3.27-2-6.49-3-9.75-.29-1-.67-1.32-1.8-1.21a88,88,0,0,1-21-.75,27,27,0,0,0-3.77,0l.39.85-1.41-1c.28,1,.45,1.74.68,2.45.06.18.31.44.46.44,1.22-.07,1.55.82,1.87,1.69,1.82,4.87,3.6,9.75,5.43,14.61,1.75,4.64,3.55,9.25,5.31,13.89a6.09,6.09,0,0,1,.2,1.27l.27-.16.93,1.61a5.34,5.34,0,0,1-1.66.82c-1.47.15-3,.11-4.43.14-.63,0-1.13.06-1.31.88a1.24,1.24,0,0,1-2.29.28c-.37-.75-.88-.76-1.56-.72-5,.24-10.06.45-15.09.67-1,0-2,0-1.8-1.49,0-.16-.2-.37-.35-.52-.84-.86-.62-1.68.57-2s2.65-.61,3.95-1a5.32,5.32,0,0,0,1.2-.84,7.67,7.67,0,0,1,1.49-.93c3-1.1,5.93-2.15,9-3.26-.63-2.71-1.18-5.41-1.9-8.06-1.37-5-2.79-10.09-4.32-15.09a20.9,20.9,0,0,0-2.12-4.4c-.21-.35-1-.42-1.61-.45a71.7,71.7,0,0,1-14.1-2c-5.71-1.45-11-3.79-15.21-8-5-4.93-7.69-11-9-17.83-.85-4.56-.56-9.16-.36-13.75a10.08,10.08,0,0,0,.08-1.67,1.51,1.51,0,0,0-.55-1A23.35,23.35,0,0,1,34.72,77.81c0-.15-.12-.29-.06-.14-2.09.23-4,.5-6,.64A3.65,3.65,0,0,1,27,77.81a.87.87,0,0,1-.38-.75c.06-.2.47-.4.74-.41.88,0,1.76.05,2.63,0a10.52,10.52,0,0,0,2.23-.42c2.12-.64,2.09-.66,2.19-2.85a17.34,17.34,0,0,1,.32-2h.49l.56,2.89C37.37,73.79,40,71,40.9,68.68c-1.12.37-2,.65-3,1-.37.14-.68.47-1,.56a3.4,3.4,0,0,1-1.08-.08c.13-.34.17-.87.4-1a24.56,24.56,0,0,1,3.94-1.63,3.08,3.08,0,0,0,1.86-1c1-1.3,2.29-2.45,3.43-3.68a7.75,7.75,0,0,0,.87-1.14c1.25-2,.85-3.1-1.4-3.49a38.7,38.7,0,0,0-5-.45c-1.6-.07-1.9.28-1.88,1.86a11.49,11.49,0,0,0,.16,1.29c-1.17.33-1.19.3-1.64-2.31A2.51,2.51,0,0,0,35.36,61c.06.39,0,.8,0,1.2.39,3.46-1.38,5.51-4.39,6.73a17.1,17.1,0,0,1-2.16.71,3.87,3.87,0,0,0-2.74,3.91l.28-.17L27.6,75.3l-1.17.42-.23-.24c-.45,1.05-.91,2.1-1.35,3.16-.37.9-.83,1.53-2,1.15-.26-.08-.77.28-1,.57q-6.53,7.27-13,14.58c-.51.57-1.07,1.55-1.92.81s0-1.47.52-2q2.81-3.28,5.72-6.47a3.11,3.11,0,0,0,1.12-2.6c-.08-.65.13-1.34,0-2.07-.2.71-.41,1.42-.61,2.13A4.61,4.61,0,0,1,13.29,86a4.32,4.32,0,0,1-1,.84c-.24-.36-.65-.7-.68-1.08-.1-1.19,0-2.4-.07-3.6,0-.43-.08-.85-.13-1.28L11,80.77a16.54,16.54,0,0,0-.78,2.85C10,85.56,10,87.52,10,89.48c0,.66,0,1.44-.84,1.46s-.94-.78-.93-1.48a11.49,11.49,0,0,0-.1-1.94,18,18,0,0,1-.33,1.85c-.36,1.25-.18,2.55-1.07,3.8C6,94.08,6.45,95.71,6.3,97a6.69,6.69,0,0,1-.58,1.53c-.52-.21-1.23-.28-1.53-.67a37.3,37.3,0,0,1-2.46-3.81,1.33,1.33,0,0,1,0-1.13,1.4,1.4,0,0,0-.47-2.12c-.91-.69-.55-1.51,0-2.2C2.47,87.18,3.79,85.84,5,84.38c2.88-3.52,5.77-7,8.52-10.67a10.58,10.58,0,0,1,2.79-2.82c.56-.35,1-.92,1.53-1.31a4.56,4.56,0,0,1,1.25-.37,8,8,0,0,0,1.74-3.66l.54.16c0,.56.13,1.12.13,1.68,0,.84.44,1.35,1.23,1.28,2.94-.27,5.92-.46,8.61-1.88,1.62-.85,2.63-2.07,2.34-4.07-1,0-1-.73-.63-1.36,1.47-2.36-.19-4.12-.87-6.12L30,56.58l-.28-.28L31,54.18a4,4,0,0,0-3.46-.42c-3,.66-5,2.73-6.94,4.89a12.34,12.34,0,0,0-1.8,2.94c-.29.62-.44,1.43.81,1.63l-.15.33c-.58.11-1.22.42-1.7.26-.28-.1-.45-1-.43-1.45a4.82,4.82,0,0,1,.47-2.07,16.85,16.85,0,0,1,8.29-7.67,6.63,6.63,0,0,1,6,.28c.68-.89,1.33-1.79,2-2.65,2.38-2.9,4.77-5.8,7.2-8.67.4-.47,1-.74,1.46-1.21a8.88,8.88,0,0,0,1.55-2.12c.33-.73.54-1.14,1.41-.37.38-1.82.8-3.52,1.07-5.24.21-1.36-.44-2-1.84-2-1,0-2,0-3-.05-.31,0-.6-.38-.9-.58.3-.21.59-.57.89-.59a32.91,32.91,0,0,1,3.72,0,2.56,2.56,0,0,1,2.4,2.9c-.3,2.28-.74,4.56-2.3,6.42a1.73,1.73,0,0,0-.3,1.1,1.62,1.62,0,0,1-1.23,1.82,6,6,0,0,0-3,2.22c-2.56,3.18-5.15,6.32-7.7,9.51a1.22,1.22,0,0,0-.19,1c.53,1.24,1.15,2.44,1.79,3.76,1-1.28,2-2.59,3.12-3.86q4.48-5.32,9-10.6a13.59,13.59,0,0,1,2.22-2c.25-.18.76,0,1.15,0a2.88,2.88,0,0,1-.34,1q-5.69,6.49-11.43,12.94c-.16.18-.28.38-.6.8,1,0,1.9-.06,2.74,0A45.06,45.06,0,0,1,46,57c2.29.47,2.84,1.45,2.23,3.73a5.35,5.35,0,0,1-1,2c-1.34,1.59-2.77,3.09-3.86,4.29a21.16,21.16,0,0,1-1,2.85,15.53,15.53,0,0,1-5.7,6.19,1.12,1.12,0,0,0-.47.93,23.33,23.33,0,0,0,10.7,14.12c.25-1.26.46-2.33.68-3.41a49.44,49.44,0,0,1,5-13.57c1.75-3.27,3-6.8,5-10,8.67-14.4,21.35-23.07,37.94-25.9a57.35,57.35,0,0,1,6.69-.5c1.35-.07,2.71,0,4.32,0-.34-.39-.51-.62-.71-.81-4.16-3.88-6.64-8.78-8.32-14.09a17.75,17.75,0,0,1-.29-5.11,2.37,2.37,0,0,1,.53-1.56C98.8,15,98.83,13.61,99,12.09a5.08,5.08,0,0,1,1.42-2.81C105.52,4,111.54.68,119.17.46c8-.23,14.29,3.16,19.9,8.32,6,5.48,10.62,12,15.24,18.62,2.57,3.66,5.06,7.4,7.86,10.89,1.63,2,4,3.45,5.67,5.47,2.41,2.92,5.89,3.84,9,5.37A30.59,30.59,0,0,0,187.33,52c1.66.16,3.35,0,5,0,.41,0,.8.43,1.2.66-.31.35-.6,1-.93,1-5.63.32-10.87,2.56-16.43,3.26A169.93,169.93,0,0,1,156,58.58c-.28,0-.55,0-1.09.05l1,1.28c3.18,3.92,5.85,8.11,7,13.11a43.65,43.65,0,0,1,.51,13.37c-.68,8.29-4.05,15.55-8.57,22.37L154,110.1a23.08,23.08,0,0,0,4.32-.51c2.81-.9,5.55-2,8.29-3.11s5.53-2.31,8.27-3.52a1.15,1.15,0,0,0,.55-.87,11.25,11.25,0,0,1,1.88-6c1.48-2.42,3.52-2.72,5.68-.88.15.13.32.23.41.3l4.68-3.94-3.72-.75a4,4,0,0,1-.18,1.14c-.23.48-.57,1.24-.9,1.26-.87.06-.85-.74-.84-1.4,0-.32,0-.64-.24-.79-.44-.51-1.27-1-1.23-1.51s.87-1,1.36-1.47l.35.18q0-1.73,0-3.46c0-.08,0-.2,0-.23-1.62-1.09-1.08-2.87-1.27-4.34a48.17,48.17,0,0,1-.07-14.37l.48,5.09a38.27,38.27,0,0,0,.74,5.24V63.37l-1.95-.63c.57-1.06,1.43-1,2.23-1l15.11-.49,15.58-.51a3.34,3.34,0,0,1,1.07,0,2.61,2.61,0,0,1,1.35.71c.14.2-.36.83-.57,1.27a3.05,3.05,0,0,0-.47-.06l-29.72.69c-.12,0-.33,0-.34,0-.11.29-.19.59-.27.88,1,.09.66.85.69,1.37.08,1.32,0,2.66.17,3.95a33.6,33.6,0,0,0,1.37,6,2.17,2.17,0,0,0,3.74.53c1.07-1.13,2-2.38,3-3.55s2-2.27,3.09-3.34a1.58,1.58,0,0,1,1.23-.49c.31.09.59.69.67,1.11a15.15,15.15,0,0,1,.26,2.49c.07,2,.08,4,.16,6a1.27,1.27,0,0,0,.43.87c.12.09.62-.13.8-.34.91-1,1.82-2.1,2.62-3.23.57-.81.9-1.78,1.45-2.61.26-.4.8-.93,1.17-.89,1.77.19,1.65-1.07,2-2.17a3.76,3.76,0,0,1,1.21-2,3.85,3.85,0,0,1,5.24,1.07,4.27,4.27,0,0,0,.42.4ZM101.57,44c-3.43-.46-6.86-1.07-10.28.19a24.19,24.19,0,0,1-2.77.77,4.52,4.52,0,0,1-1,0l-.05-.35,2.59-.9c-.17-.07-.24-.12-.3-.11l-.83.09a27.38,27.38,0,0,0-13.07,5.9A88.55,88.55,0,0,0,59.3,66.87a31.28,31.28,0,0,0-4.33,7,49.82,49.82,0,0,0-3.08,18.22c0,.8.31,1.08,1,1.08h3.43c.11-1.51.17-3.07.33-4.61C58,75.76,64.08,65.67,74.32,58c5.36-4,11.56-6.22,17.89-8.21a60.7,60.7,0,0,1,27.14-2c.3,0,.59.12.88.18a1.35,1.35,0,0,1-.88.21c-5,.1-10-.14-15,.38A67.91,67.91,0,0,0,84,54.33c-7,3.12-13.19,7.42-17.78,13.83-7.2,10-9.42,21.19-7.43,33.14,1.5,9,6.22,16.43,12.93,22.6a24.15,24.15,0,0,0,12.65,6.36,94.89,94.89,0,0,0,16,1.5,129.78,129.78,0,0,0,14.6-.6,58,58,0,0,0,18.54-5.84,50.54,50.54,0,0,0,14.54-10.43,28.09,28.09,0,0,0,2.06-2.77,30.11,30.11,0,0,1-3.37-.48c-.32-.08-.51-.67-.76-1,.34-.21.67-.57,1-.6a13.88,13.88,0,0,1,2.64,0,1.49,1.49,0,0,0,1.77-1.12A46.64,46.64,0,0,0,155,93.4c.19-5-.16-10.05-.28-15.08A51.83,51.83,0,0,0,132.81,46c-2.73-1.87-5.65-3.73-9-4-5.29-.37-10.62-.36-15.93-.46a2,2,0,0,0-1.19.66c-.85.84-1.58,1.81-2.46,2.62A1.47,1.47,0,0,1,101.57,44Zm10-6.1c.25,0,.52.09.79.12A48.39,48.39,0,0,1,124,40.37c2.18.78,4.27,1.84,6.47,2.51A53,53,0,0,1,152.63,56.2a2.82,2.82,0,0,0,1.75.74,124.45,124.45,0,0,0,27.17-2.38c1.13-.22,2.25-.51,3.37-.76a14.75,14.75,0,0,0-2.91-1c-7-1.88-13-5.69-18.7-10-.13-.1-.33-.2-.35-.32-.26-1.92-2.08-2.66-3-4.05-2.35-3.38-4.83-6.67-7.19-10C148.37,22.2,144,16,138.58,10.61A29.51,29.51,0,0,0,127.11,3a22.74,22.74,0,0,0-19.82,2.17,51.15,51.15,0,0,0-6.62,5.28A3.76,3.76,0,0,0,99.54,14c3.17-1.4,3.17-1.4,4.19-.9a39,39,0,0,0-3.54,2.59,3.92,3.92,0,0,0-1.38,2.25,13.1,13.1,0,0,0,.39,4.84,32.57,32.57,0,0,0,6.42,11.55,44.51,44.51,0,0,0,3.48,3.2c.63-.89,1.14-1.54,1.57-2.23.72-1.15,1.36-2.35,2.09-3.5.16-.24.56-.33.85-.49.07.36.27.76.17,1.06a13.32,13.32,0,0,1-1,1.79C112.19,35.31,111.3,36.36,111.59,37.87Zm20.87,6.29a2.23,2.23,0,0,0,.26.23C143.22,51,149.93,60.67,154.36,72c1.63,4.18,2,8.59,2.09,13.06a62.43,62.43,0,0,1-1.05,14.66c-.68,3.14-1.64,6.23-2.49,9.4.24-.32.49-.6.69-.92,1.24-2,2.53-3.89,3.67-5.9a43.22,43.22,0,0,0,5.19-25.91c-.57-6.14-3.58-11.16-7.22-15.93a4.56,4.56,0,0,0-4.09-2.09,6.14,6.14,0,0,1-4.95-2.3,5.07,5.07,0,0,1-.6-1.48l.36-.35c1.75,1.29,3.4,2.83,6,2.56C146.33,51,140.07,46.54,132.46,44.16Zm53.95,42.39a1.9,1.9,0,0,0,.39.14c7.64,0,15.27,0,22.91,0a1.08,1.08,0,0,0,.74-.68c1-4.15,2.14-8.29,2.91-12.49a8,8,0,0,0-.86-4.06c-.47-1.17-1.7-.8-2.66-.67s-1.12.71-1.23,1.53a23.28,23.28,0,0,1-.74,3.39,1.46,1.46,0,0,1-.86.83c-.17.06-.54-.43-.8-.68a7,7,0,0,1-.5-.68c-.49.87-.95,1.55-1.27,2.28A11.33,11.33,0,0,1,201.34,80c-.88.71-1.8,1.32-2.93.79s-1.22-1.62-1.22-2.68c0-1.68.07-3.36.08-5,0-.53-.07-1.06-.13-1.9-.56.61-.91,1-1.23,1.36-1.28,1.54-2.55,3.07-3.81,4.63s-3.08,1.82-5,1.32c-.23-.06-.44-.14-.69-.22Zm-99.79,49,.21-.41c-.25-.25-.46-.61-.77-.74-3.93-1.67-7.85-3.4-11.83-4.92-15.16-5.8-24.82-21-24.26-34.15.06-1.33-.73-1.47-1.65-1.58-.08.07-.13.09-.13.12-.08.87-.19,1.75-.23,2.62-.26,5.37-.24,10.71,1.33,15.93,2.39,7.92,6.79,14.26,14.34,18.06a49.07,49.07,0,0,0,16.7,4.5C82.43,135.18,84.53,135.32,86.62,135.51Zm103.56-20c.54-.33,1-.69,1.56-1s1-.51,1.34-.4a4.18,4.18,0,0,0,3.9-.93c.75-.61,1.28-1.08,2.36-.34-.16-4.1,1.12-8.06.37-12.15-.4.79-.83,1.93-1.76,1.11a3.3,3.3,0,0,0-2.18-.7,30.29,30.29,0,0,0-3-.26,10.94,10.94,0,0,0-2.24.26,5,5,0,0,0-2,.6,15.31,15.31,0,0,0-5.29,7.25,3.3,3.3,0,0,0,.3,2.67,10.38,10.38,0,0,0,4.41,3.08C189,113.44,189.37,113.55,190.19,115.48Zm-8.78-6.93c1.61-3.47,3.66-6.59,7.28-8.61-.74-.69-1.39-1.22-1.94-1.84-.21-.24-.19-.68-.27-1,.39,0,.87-.09,1.14.1.8.59,1.51,1.31,2.27,2s3.41,0,3.81-.86a1.17,1.17,0,0,0,.15-.45c0-1.9,0-3.81,0-5.77H191.4c1.93,2.61,2.23,4.59.76,6-.14-.78-.29-1.41-.37-2-.15-1.13-.35-2.34-1.47-2.84a3.14,3.14,0,0,0-3.24.71,8.35,8.35,0,0,0-1,.88c-.66.69-1.27,1.43-2,2.11-.44.44-1,.8-1.62,1.32A2.47,2.47,0,0,0,181,95.63a1.89,1.89,0,0,0-2.25.94,10,10,0,0,0-1.83,6.08c.09,1.41.16,2.82.28,4.23.15,1.79.31,3.58.52,5.36a10.7,10.7,0,0,0,.43,1.6h.44a36.81,36.81,0,0,0,1-4C179.77,108.27,179.88,108.1,181.4,108.54ZM52,94.73c-.88,12.75,9,25.73,17.64,30a46.46,46.46,0,0,1-9.86-14,36,36,0,0,1-3.33-16.26Zm59.65,41.57,0,.26c2.07-.1,4.14-.17,6.2-.33.34,0,.64-.45,1-.63s.78-.34.85-.26c.6.78,1.32.39,2,.23a43.17,43.17,0,0,0,21.39-13.23c.5-.55,1-1.14,1.31-1.55-3.12,1.92-6.31,4-9.58,5.88-1.89,1.11-4,1.89-5.83,3a44.07,44.07,0,0,1-11.11,5C115.84,135.32,113.75,135.78,111.66,136.3Zm-20.93-3c4.27,4.11,28.72,2,35.77-3.07C114.92,134.68,102.9,134,90.73,133.35ZM26,70.23a15.59,15.59,0,0,1-2.93.19c-2.79-.39-4.54,1.14-6.1,3.09-.22.27-.53.6-.53.9,0,1.19.1,2.38.16,3.58.57-.85,1.07-1.71,1.68-2.47a1.16,1.16,0,0,1,1-.3c.26.09.46.59.51.93.11.77.11,1.55.15,2.33.66-.94,1-1.94,1.59-2.86a5.72,5.72,0,0,1,1.25-1.14c.25.45.49.89.74,1.34,0,.05.13.07.32.16.27-.39.87-.89.78-1.19C24.11,73,24.72,71.67,26,70.23ZM83.39,43.44c1.84-.39,3.42-.85,5-1s3.27-.1,4.91-.17c1.31-.06,2.63-.13,3.94-.28,2.3-.26,4.58-.69,6.89-.82A3.16,3.16,0,0,0,107,39.29,50.5,50.5,0,0,0,83.39,43.44ZM122,41.21s-.06-.11-.13-.13c-3.18-.87-6.34-1.83-9.72-1.42a4.86,4.86,0,0,1-2,0c-1.16-.38-1.51.32-2,1.11ZM76,47.42A48.84,48.84,0,0,0,61.42,61.57C66,56.55,70.6,51.56,76,47.42ZM49.78,92.24l.79-9.64c-.84,2.66-1.4,5.39-2,8.1C48.28,91.77,48.66,92.2,49.78,92.24Zm142.85,32.51c-.22.52-.32,1.39-.77,1.65-.94.54-.81,1.3-.93,2.11s-.43,1.52-.6,2.29a2.83,2.83,0,0,0,.13.88A6.75,6.75,0,0,0,192.63,124.76ZM12.95,81.86l2.52-6.56C12.47,77.41,12,78.73,12.95,81.86ZM16,83.71c2.9-1.42,2.63-3.81,2.15-6.26Zm86.56-39.33,2.25-2.33-.18-.3-4.87.42C100.73,42.84,102.08,42.58,102.61,44.38Zm24.08,110.36.58-.15a30.24,30.24,0,0,0-2.91-7.69ZM197.57,100c0-.76,0-1.51,0-2.25a3.1,3.1,0,0,0-.43-.94c-.2.28-.55.54-.58.84-.1,1.1-.31,2-1.74,1.87Zm-54.92,72.88-3-2C140,173.32,140.12,173.38,142.65,172.87Zm-4.53.27c-.32-.79-.52-1.33-.78-1.85a.89.89,0,0,0-.54-.32c-.08,0-.33.17-.32.25a4.42,4.42,0,0,0,.26,1.61C136.85,173,137.47,173,138.12,173.14Zm-4.26-.23-.29-1-1.76.16C131.73,173.14,131.86,173.21,133.85,172.91ZM95.6,168c-.54.2-1,.36-1.43.54s-.86.37-1.3.56C95.83,169,95.83,169,95.6,168ZM4.52,95.7c.45-1.12.35-2-1.14-2.11Z" transform="translate(-0.08 -0.08)"/><path d="M41.62,20.58l-2.47.85c0-1.26.86-1.65,1.61-1.91a2.59,2.59,0,0,1,2.1,0c.37.31.24,1.35.13,2a4,4,0,0,1-.75,1.27l8.06,3.28a7.29,7.29,0,0,1,1.24.42A16.12,16.12,0,0,1,53.15,28c.12-.15.63-.49.66-.87.13-1.66.11-3.34.18-5a4.69,4.69,0,0,1,.33-1.1c.34.21.67.42,1,.62s.9.7,1.32.67a5.72,5.72,0,0,1,4.76,1.83A32.54,32.54,0,0,1,69.84,40c.67,3.07-.26,5.62-3.14,7.22-1.15.64-2.33,1.22-3.53,1.76a5,5,0,0,1-1.38.18c0-.28,0-.46,0-.49,1.75-1.12,1.26-2.87,1.37-4.51a8.4,8.4,0,0,0-2-5.76A6,6,0,0,0,53,36.87a58.24,58.24,0,0,0-4.58,4,5.22,5.22,0,0,1-1.16.58c0-.47-.27-1.09-.06-1.38,2.57-3.4,6.23-6.58,10.89-5.45a7.22,7.22,0,0,1,3.36,1.87,9.56,9.56,0,0,1,2.85,8.42c-.08.5-.12,1-.18,1.56,3.11-1.23,4.5-3.63,3.71-6.88A34.3,34.3,0,0,0,61,25.77c-1.51-1.83-2.22-2.06-5.64-2.46,0,.52,0,1,0,1.52a16.1,16.1,0,0,1-.33,2.6c-.39,1.51-1.39,1.92-2.84,1.3L43,24.79a4.6,4.6,0,0,0-.91-.27c-1.33-.27-1.77-1.13-1.13-2.34.24-.45.54-.87.81-1.3Z" transform="translate(-0.08 -0.08)"/><path d="M33,35.33a10,10,0,0,1-1.84-.28,4.49,4.49,0,0,1-1.52-.91c-.27-.24-.58-.89-.46-1.06q3.76-5.31,7.65-10.53c.37-.5.79-1.3,1.72-.85a14.31,14.31,0,0,1-.87,1.6c-1,1.39-2.06,2.73-3.06,4.12-1.35,1.87-2.67,3.76-4,5.63,1.66,1.51,1.66,1.51,2.67,1.32l-.28,1Z" transform="translate(-0.08 -0.08)"/><path d="M33,35.33l0,0c1.11-1.28,2.19-2.6,3.35-3.84.39-.42,1.26-1,1.4-.92.75.62,0,1.21-.32,1.7-1,1.36-2,2.67-3.06,4a3.19,3.19,0,0,1-1.14.83.88.88,0,0,1-.83-.14c-.13-.16,0-.58.07-.84A4.25,4.25,0,0,1,33,35.33Z" transform="translate(-0.08 -0.08)"/><path class="cls-1" d="M101.57,44a1.47,1.47,0,0,0,2.63.85c.88-.81,1.61-1.78,2.46-2.62a2,2,0,0,1,1.19-.66c5.31.1,10.63.09,15.93.46,3.38.24,6.3,2.1,9,4a51.83,51.83,0,0,1,21.9,32.35c.11,5,.47,10.06.28,15.08a46.64,46.64,0,0,1-3.56,15.47,1.49,1.49,0,0,1-1.77,1.12,13.88,13.88,0,0,0-2.64,0c-.36,0-.69.39-1,.6.25.36.44,1,.76,1a30.11,30.11,0,0,0,3.37.48,28.09,28.09,0,0,1-2.06,2.77,50.54,50.54,0,0,1-14.54,10.43A58,58,0,0,1,115,131.16a129.78,129.78,0,0,1-14.6.6,94.89,94.89,0,0,1-16-1.5,24.15,24.15,0,0,1-12.65-6.36c-6.7-6.16-11.43-13.59-12.93-22.6-2-11.95.23-23.1,7.43-33.14C70.85,61.75,77,57.44,84,54.33a67.91,67.91,0,0,1,20.35-5.76c4.95-.52,10-.28,15-.38a1.35,1.35,0,0,0,.88-.21c-.29-.06-.59-.14-.88-.18a60.7,60.7,0,0,0-27.14,2C85.88,51.82,79.68,54,74.32,58,64.08,65.67,58,75.76,56.69,88.55c-.16,1.54-.23,3.1-.33,4.61H52.93c-.73,0-1-.27-1-1.08A49.82,49.82,0,0,1,55,73.86a31.28,31.28,0,0,1,4.33-7,88.55,88.55,0,0,1,16.52-17.3,27.38,27.38,0,0,1,13.07-5.9l.83-.09c.06,0,.13,0,.3.11l-2.59.9.05.35a4.52,4.52,0,0,0,1,0,24.19,24.19,0,0,0,2.77-.77C94.71,42.9,98.15,43.51,101.57,44ZM70,73.85l-.12.61c2.31,1.37,4.92.53,7.78.68l-1.59,1c-.31.2-.75.33-.9.61a2,2,0,0,0,1.59,3.16,8.51,8.51,0,0,0,1.31.1c1.56,0,2.14-.56,2.56-2.42s.11-2.42-1.32-3.08c1.41-.63,2.81-1.19,4.15-1.89.4-.21.61-.77.91-1.17-.52-.05-1-.11-1.57-.14a.7.7,0,0,0-.33.13,18.66,18.66,0,0,1-10.73,2.26A11.94,11.94,0,0,0,70,73.85Zm48.25-10.32.11.45a13.27,13.27,0,0,0,1.33.08c5.22-.17,8.56,3.15,11.93,6.41.13.13.11.41.24.53a12.12,12.12,0,0,0,1,.76c.19-.44.65-1,.53-1.29A5.4,5.4,0,0,0,132,68.34c-1.91-1.5-3.9-2.9-5.92-4.25A8.94,8.94,0,0,0,119.6,63,5.65,5.65,0,0,0,118.24,63.52Zm11.57,21.06c-.36-.49-.69-1-1.08-1.45-.25-.29-.64-.46-.91-.74a2.29,2.29,0,0,0-3.84.52,5.79,5.79,0,0,1-.51.65,1.52,1.52,0,0,0,.79,2.54c.47.17.9.45,1.38.58.68.18,1.58.6,2,.33C128.53,86.53,129.7,86.07,129.81,84.58ZM117.3,97.38V97a2.92,2.92,0,0,0-1-.42,26.47,26.47,0,0,0-4.89.13c-4.43.81-7.81,3.47-10.79,6.68a1.62,1.62,0,0,0-.45.82,2.74,2.74,0,0,0,.23.94,3.06,3.06,0,0,0,.75-.41c.39-.39.69-.88,1.09-1.26,3.76-3.48,7.85-6.18,13.32-5.69A5.91,5.91,0,0,0,117.3,97.38Zm29.57-18.06-.1,0v5.92h.1Z" transform="translate(-0.08 -0.08)"/><path class="cls-1" d="M111.59,37.87c-.3-1.51.6-2.56,1.23-3.69a13.32,13.32,0,0,0,1-1.79c.11-.29-.1-.7-.17-1.06-.29.16-.69.25-.85.49-.73,1.14-1.38,2.34-2.09,3.5-.43.69-.93,1.33-1.57,2.23a44.51,44.51,0,0,1-3.48-3.2A32.57,32.57,0,0,1,99.2,22.79a13.1,13.1,0,0,1-.39-4.84,3.92,3.92,0,0,1,1.38-2.25,39,39,0,0,1,3.54-2.59c-1-.5-1-.5-4.19.9a3.76,3.76,0,0,1,1.13-3.59,51.15,51.15,0,0,1,6.62-5.28A22.74,22.74,0,0,1,127.11,3a29.51,29.51,0,0,1,11.48,7.65C144,16,148.37,22.2,152.73,28.43c2.36,3.37,4.85,6.66,7.19,10,1,1.39,2.78,2.14,3,4.05,0,.12.22.22.35.32C169,47.15,175,51,182,52.84a14.75,14.75,0,0,1,2.91,1c-1.12.26-2.24.54-3.37.76a124.45,124.45,0,0,1-27.17,2.38,2.82,2.82,0,0,1-1.75-.74,53,53,0,0,0-22.19-13.32c-2.21-.67-4.3-1.73-6.47-2.51A48.39,48.39,0,0,0,112.38,38C112.11,38,111.84,37.91,111.59,37.87Z" transform="translate(-0.08 -0.08)"/><path class="cls-1" d="M132.46,44.16c7.6,2.37,13.87,6.86,19.55,12.68-2.64.27-4.29-1.27-6-2.56l-.36.35a5.07,5.07,0,0,0,.6,1.48,6.14,6.14,0,0,0,4.95,2.3,4.56,4.56,0,0,1,4.09,2.09c3.64,4.77,6.66,9.8,7.22,15.93a43.22,43.22,0,0,1-5.19,25.91c-1.14,2-2.44,3.94-3.67,5.9-.2.32-.45.6-.69.92.85-3.17,1.81-6.26,2.49-9.4a62.43,62.43,0,0,0,1.05-14.66c-.1-4.47-.46-8.88-2.09-13.06-4.44-11.37-11.14-21-21.64-27.64A2.23,2.23,0,0,1,132.46,44.16Z" transform="translate(-0.08 -0.08)"/><path class="cls-1" d="M186.41,86.55V78.23c.24.08.46.16.69.22,1.91.49,3.64.35,5-1.32s2.53-3.09,3.81-4.63c.32-.39.68-.75,1.23-1.36.06.84.14,1.37.13,1.9,0,1.68-.08,3.36-.08,5,0,1.06.13,2.17,1.22,2.68s2.05-.08,2.93-.79a11.33,11.33,0,0,0,3.12-4.48c.32-.74.78-1.41,1.27-2.28a7,7,0,0,0,.5.68c.26.26.62.74.8.68a1.46,1.46,0,0,0,.86-.83,23.28,23.28,0,0,0,.74-3.39c.11-.82.39-1.42,1.23-1.53s2.2-.5,2.66.67a8,8,0,0,1,.86,4.06c-.77,4.2-1.88,8.34-2.91,12.49a1.08,1.08,0,0,1-.74.68c-7.64,0-15.27,0-22.91,0A1.9,1.9,0,0,1,186.41,86.55Z" transform="translate(-0.08 -0.08)"/><path class="cls-1" d="M215.35,62.71l-1.06,6.74a4.27,4.27,0,0,1-.42-.4A3.85,3.85,0,0,0,208.63,68a3.76,3.76,0,0,0-1.21,2c-.31,1.1-.2,2.35-2,2.17-.36,0-.9.49-1.17.89-.55.83-.88,1.8-1.45,2.61-.8,1.13-1.71,2.18-2.62,3.23-.18.21-.68.43-.8.34a1.27,1.27,0,0,1-.43-.87c-.08-2-.09-4-.16-6a15.15,15.15,0,0,0-.26-2.49c-.09-.42-.36-1-.67-1.11a1.58,1.58,0,0,0-1.23.49c-1.07,1.07-2.09,2.2-3.09,3.34s-2,2.42-3,3.55a2.17,2.17,0,0,1-3.74-.53,33.6,33.6,0,0,1-1.37-6c-.21-1.29-.09-2.63-.17-3.95,0-.52.27-1.28-.69-1.37.09-.3.16-.6.27-.88,0,0,.23,0,.34,0l29.72-.69a3.05,3.05,0,0,1,.47.06Z" transform="translate(-0.08 -0.08)"/><path class="cls-1" d="M86.62,135.51c-2.09-.19-4.19-.33-6.28-.57a49.07,49.07,0,0,1-16.7-4.5c-7.55-3.8-11.94-10.14-14.34-18.06-1.58-5.22-1.59-10.56-1.33-15.93,0-.88.15-1.75.23-2.62,0,0,.05,0,.13-.12.91.11,1.7.25,1.65,1.58-.56,13.17,9.09,28.35,24.26,34.15,4,1.52,7.9,3.26,11.83,4.92.31.13.51.49.77.74Z" transform="translate(-0.08 -0.08)"/><path class="cls-1" d="M190.19,115.48c-.82-1.93-1.19-2-2.28-.77a10.38,10.38,0,0,1-4.41-3.08,3.3,3.3,0,0,1-.3-2.67,15.31,15.31,0,0,1,5.29-7.25,5,5,0,0,1,2-.6,10.94,10.94,0,0,1,2.24-.26,30.29,30.29,0,0,1,3,.26,3.3,3.3,0,0,1,2.18.7c.93.83,1.36-.32,1.76-1.11.75,4.09-.53,8-.37,12.15-1.07-.74-1.6-.26-2.36.34a4.18,4.18,0,0,1-3.9.93c-.38-.11-.92.2-1.34.4S190.72,115.14,190.19,115.48Z" transform="translate(-0.08 -0.08)"/><path class="cls-1" d="M181.4,108.54c-1.52-.44-1.63-.27-1.83,1.31a36.81,36.81,0,0,1-1,4h-.44a10.7,10.7,0,0,1-.43-1.6c-.2-1.78-.37-3.57-.52-5.36-.12-1.41-.19-2.82-.28-4.23a10,10,0,0,1,1.83-6.08,1.89,1.89,0,0,1,2.25-.94,2.47,2.47,0,0,1,1.51,2.56c.65-.52,1.18-.88,1.62-1.32.68-.67,1.29-1.41,2-2.11a8.35,8.35,0,0,1,1-.88,3.14,3.14,0,0,1,3.24-.71c1.12.5,1.32,1.71,1.47,2.84.08.64.23,1.27.37,2,1.47-1.43,1.16-3.42-.76-6h2.45c0,2,0,3.86,0,5.77a1.17,1.17,0,0,1-.15.45c-.4.86-3.09,1.48-3.81.86s-1.47-1.36-2.27-2c-.26-.19-.75-.08-1.14-.1.08.35.06.79.27,1,.55.62,1.2,1.15,1.94,1.84C185.07,102,183,105.08,181.4,108.54Z" transform="translate(-0.08 -0.08)"/><path class="cls-1" d="M52,94.73l4.44-.26a36,36,0,0,0,3.33,16.26,46.46,46.46,0,0,0,9.86,14C61,120.47,51.14,107.48,52,94.73Z" transform="translate(-0.08 -0.08)"/><path class="cls-1" d="M111.66,136.3c2.08-.52,4.18-1,6.24-1.58a44.07,44.07,0,0,0,11.11-5c1.85-1.16,3.94-1.94,5.83-3,3.27-1.92,6.46-4,9.58-5.88-.35.41-.8,1-1.31,1.55a43.17,43.17,0,0,1-21.39,13.23c-.65.17-1.37.55-2-.23-.07-.09-.58.12-.85.26s-.64.6-1,.63c-2.06.15-4.13.23-6.2.33Z" transform="translate(-0.08 -0.08)"/><path class="cls-1" d="M90.73,133.35c12.17.62,24.18,1.33,35.77-3.07C119.45,135.32,95,137.46,90.73,133.35Z" transform="translate(-0.08 -0.08)"/><path class="cls-1" d="M26,70.23c-1.24,1.44-1.86,2.82-1.33,4.56.09.29-.51.8-.78,1.19-.19-.09-.29-.11-.32-.16-.25-.44-.5-.89-.74-1.34a5.72,5.72,0,0,0-1.25,1.14c-.54.91-.93,1.92-1.59,2.86,0-.78,0-1.56-.15-2.33,0-.34-.26-.84-.51-.93a1.16,1.16,0,0,0-1,.3c-.62.76-1.11,1.62-1.68,2.47-.06-1.2-.17-2.39-.16-3.58,0-.3.31-.63.53-.9,1.56-1.95,3.32-3.48,6.1-3.09A15.59,15.59,0,0,0,26,70.23Z" transform="translate(-0.08 -0.08)"/><path class="cls-1" d="M83.39,43.44A50.5,50.5,0,0,1,107,39.29a3.16,3.16,0,0,1-2.84,1.84c-2.3.13-4.59.56-6.89.82-1.31.15-2.62.22-3.94.28-1.64.07-3.29,0-4.91.17S85.24,43.05,83.39,43.44Z" transform="translate(-0.08 -0.08)"/><path class="cls-1" d="M122,41.21l-13.88-.48c.51-.79.86-1.49,2-1.11a4.86,4.86,0,0,0,2,0c3.37-.41,6.54.55,9.72,1.42C121.93,41.1,122,41.19,122,41.21Z" transform="translate(-0.08 -0.08)"/><path class="cls-1" d="M76,47.42c-5.43,4.13-10,9.13-14.61,14.15A48.84,48.84,0,0,1,76,47.42Z" transform="translate(-0.08 -0.08)"/><path class="cls-1" d="M49.78,92.24c-1.12,0-1.5-.47-1.25-1.54.64-2.71,1.19-5.44,2-8.1Z" transform="translate(-0.08 -0.08)"/><path class="cls-1" d="M192.63,124.76a6.75,6.75,0,0,1-2.17,6.94,2.83,2.83,0,0,1-.13-.88c.17-.77.49-1.52.6-2.29s0-1.57.93-2.11C192.31,126.15,192.41,125.27,192.63,124.76Z" transform="translate(-0.08 -0.08)"/><path class="cls-1" d="M12.95,81.86c-1-3.12-.48-4.44,2.52-6.56Z" transform="translate(-0.08 -0.08)"/><path class="cls-1" d="M16,83.71l2.15-6.26C18.67,79.91,18.95,82.29,16,83.71Z" transform="translate(-0.08 -0.08)"/><path class="cls-1" d="M102.61,44.38c-.54-1.81-1.88-1.54-2.8-2.21l4.87-.42.18.3Z" transform="translate(-0.08 -0.08)"/><path class="cls-1" d="M126.69,154.75l-2.33-7.84a30.24,30.24,0,0,1,2.91,7.69Z" transform="translate(-0.08 -0.08)"/><path class="cls-1" d="M197.57,100l-2.77-.48c1.43.13,1.64-.77,1.74-1.87,0-.29.38-.56.58-.84a3.1,3.1,0,0,1,.43.94C197.61,98.48,197.57,99.23,197.57,100Z" transform="translate(-0.08 -0.08)"/><path class="cls-1" d="M142.65,172.87c-2.53.51-2.6.45-3-2Z" transform="translate(-0.08 -0.08)"/><path class="cls-1" d="M138.12,173.14c-.65-.13-1.27-.09-1.38-.31a4.42,4.42,0,0,1-.26-1.61c0-.08.24-.27.32-.25a.89.89,0,0,1,.54.32C137.6,171.81,137.79,172.36,138.12,173.14Z" transform="translate(-0.08 -0.08)"/><path class="cls-1" d="M133.85,172.91c-2,.29-2.12.23-2.05-.83l1.76-.16Z" transform="translate(-0.08 -0.08)"/><path class="cls-1" d="M95.6,168c.23,1,.23,1-2.72,1.1.43-.19.86-.38,1.3-.56S95.06,168.16,95.6,168Z" transform="translate(-0.08 -0.08)"/><path class="cls-1" d="M4.52,95.7,3.38,93.59C4.88,93.71,5,94.58,4.52,95.7Z" transform="translate(-0.08 -0.08)"/><path d="M70,73.85a11.94,11.94,0,0,1,1.74-.11,18.66,18.66,0,0,0,10.73-2.26.7.7,0,0,1,.33-.13c.53,0,1,.09,1.57.14-.3.4-.51,1-.91,1.17-1.34.69-2.74,1.26-4.15,1.89,1.43.66,1.71,1.34,1.32,3.08S79.62,80,78.06,80a8.51,8.51,0,0,1-1.31-.1,2,2,0,0,1-1.59-3.16c.15-.28.59-.41.9-.61l1.59-1c-2.86-.15-5.47.69-7.78-.68Z" transform="translate(-0.08 -0.08)"/><path d="M118.24,63.52A5.65,5.65,0,0,1,119.6,63,8.94,8.94,0,0,1,126,64.1c2,1.35,4,2.75,5.92,4.25a5.4,5.4,0,0,1,1.44,2.13c.13.3-.33.85-.53,1.29a12.12,12.12,0,0,1-1-.76c-.13-.12-.11-.41-.24-.53-3.37-3.26-6.71-6.58-11.93-6.41a13.27,13.27,0,0,1-1.33-.08Z" transform="translate(-0.08 -0.08)"/><path d="M129.81,84.58c-.11,1.49-1.28,1.95-2.12,2.44-.47.27-1.36-.15-2-.33-.48-.13-.91-.41-1.38-.58a1.52,1.52,0,0,1-.79-2.54,5.79,5.79,0,0,0,.51-.65,2.29,2.29,0,0,1,3.84-.52c.27.28.66.45.91.74C129.13,83.59,129.46,84.1,129.81,84.58Z" transform="translate(-0.08 -0.08)"/><path d="M117.3,97.38a5.91,5.91,0,0,1-1.71.37c-5.47-.49-9.56,2.21-13.32,5.69-.41.38-.7.87-1.09,1.26a3.06,3.06,0,0,1-.75.41,2.74,2.74,0,0,1-.23-.94,1.62,1.62,0,0,1,.45-.82c3-3.21,6.36-5.87,10.79-6.68a26.47,26.47,0,0,1,4.89-.13,2.92,2.92,0,0,1,1,.42Z" transform="translate(-0.08 -0.08)"/><path d="M146.87,79.32v6h-.1V79.35Z" transform="translate(-0.08 -0.08)"/></g></g></g></svg>