<svg xmlns="http://www.w3.org/2000/svg" viewBox="0 0 120.49 102.15"><defs><style>.cls-1{fill:#009444;}.cls-2{fill:#f7941d;}.cls-3{fill:#fff;stroke:#000;stroke-miterlimit:10;stroke-width:0.77px;}.cls-4{fill:#2f66f2;}.cls-5{fill:#ffda40;}.cls-6{fill:#2e3192;}.cls-7{fill:#c69c6d;}.cls-8{fill:#603813;}.cls-9{fill:#c1272d;}</style></defs><title>skills</title><g id="Layer_2" data-name="Layer 2"><g id="Layer_4" data-name="Layer 4"><path d="M61.25,99.32c1.08,2.83-14.82,2.87-16.24,1.66-2.82-2.42,9.37-3.95,8.87-7.06-.81-5-1.94-3.33-5.16-25.31-.13-.87,1.14-.86,1.37-.86C51.6,67.75,57.62,89.84,61.25,99.32Z"/><path d="M72.82,100c-.1,3,15.85,2.53,16.54.81,1.38-3.45-10-2.75-11-5.74-1.62-4.84-6.74-17.94-10.64-24.54-.45-.76-2-.14-2.21,0S73.23,88.06,72.82,100Z"/><path d="M20.67,43.66c.9,5.08,9.59,11.07,10.75,10.62.5-.19-.28,1.75-1,1.54-6.56-1.8-12-11.15-11.71-11.9C19,43,20.48,42.57,20.67,43.66Z"/><path d="M101.08,59.13c-3.43,3.86-14,4.4-14.72,3.41-.32-.43-.68,1.64.07,1.85,6.53,1.9,16.06-3.21,16.21-4C102.84,59.41,101.82,58.3,101.08,59.13Z"/><path class="cls-1" d="M111.66,30.34a49.94,49.94,0,0,1-33.59.9C71.63,29.19,57.22,23.4,56.19,10,55.74,4.12,66.74-4.27,76.52,2.55c6.54,4.56,14.32,24.76,31.14,27.93A35.6,35.6,0,0,0,111.66,30.34Z"/><path class="cls-2" d="M91.62,50.25A29.68,29.68,0,0,1,58,79.42c-19.48-2.27-28.48-14.1-28.48-29.17s15.4-27.45,31.23-27.45S91.62,35.18,91.62,50.25Z"/><path class="cls-1" d="M64,24.56l-2.36-.14a14.89,14.89,0,0,0,1.67-6c0-2.88,2.26,1,3.33,1S64,24.56,64,24.56Z"/><path class="cls-3" d="M17.78,36.2c-4.21,0-8.24-.63-8.24.9s3.65,5.57,7.59,6.28c-.69.71-1,1.37-.8,1.77.4.7,2.36.32,4.37-.84s3.31-2.67,2.91-3.37c-.15-.26-.52-.37-1-.35,1.09-1.59,2-3.59,2.92-5.3C26.24,34,22,36.2,17.78,36.2Z"/><path class="cls-4" d="M3.5,56.35a.64.64,0,0,1-.92.08,9.13,9.13,0,0,1-1.85-2A7.29,7.29,0,0,1,0,52a.64.64,0,0,1,.14-.54L13.2,36a.65.65,0,0,1,.91-.08l3.34,2.78a.65.65,0,0,1,.08.91Z"/><path class="cls-5" d="M39.8,22c-1.57-6.27-7.35-9.52-8.58-9.52-.63,0-.14,1.55-.32,3.14a7.3,7.3,0,0,1-3.19-.52,17.1,17.1,0,0,1-2.88-2.28l.91-1.58a.79.79,0,0,0-.29-1.08l-1.23-.71a.79.79,0,0,0-1.08.29l-4.6,8a.79.79,0,0,0,.29,1.08l1.23.71a.79.79,0,0,0,1.08-.29l1-1.74c1.63-.44,4-.3,4.82,1.2a2,2,0,0,0,.14.19,4.08,4.08,0,0,1-1.06,4,.72.72,0,0,0-.89.18l-10.9,13.1a.73.73,0,0,0,.09,1L16,38.55a.73.73,0,0,0,1-.09L28,25.36a.73.73,0,0,0-.09-1h0c1-.89,2.48-3.48,5.22-3.41,6.22,2.45,1.51,7.59,2.64,7.59S40.53,24.94,39.8,22Z"/><path class="cls-6" d="M1.66,49.64.15,51.43A.64.64,0,0,0,0,52a7.29,7.29,0,0,0,.72,2.5,9.14,9.14,0,0,0,1.85,2,.64.64,0,0,0,.92-.08l2-2.43A42.86,42.86,0,0,1,1.66,49.64Z"/><path class="cls-3" d="M20.35,36.23c0,2.11-2.3,3.83-5.15,3.83s-5.66-1.49-5.66-3.6,4-6.24,6.89-6.24S20.35,34.12,20.35,36.23Z"/><ellipse class="cls-3" cx="22.92" cy="34.78" rx="3.09" ry="1.99" transform="translate(-11.14 10.8) rotate(-21.46)"/><path class="cls-3" d="M109.73,59.24c2.57,3.34,4.6,6.6,3.38,7.53s-6.64.5-9.6-2.18c-.14,1-.46,1.66-.91,1.72-.8.11-1.7-1.67-2-4s.09-4.25.89-4.36c.3,0,.61.18.9.6.6-1.83,3.38-3.68,4.76-5.06C108.18,52.48,107.16,55.9,109.73,59.24Z"/><path class="cls-7" d="M118.15,35h-.43l-.66,2.53.09-2.53h-1l-.62,2.39.09-2.38-13.07.16a2.29,2.29,0,0,0-2.26,2.36l.37,12.25a2.84,2.84,0,0,0,2.6,2.74l12.25,1a2.42,2.42,0,0,0,2.59-2l2.37-13.87A2.31,2.31,0,0,0,118.15,35Z"/><path class="cls-8" d="M100.56,47l.09,2.84a2.84,2.84,0,0,0,2.6,2.74l4.38.36c-.42,2.47-.61,7.56-2.66,11.65-2.53,5.05-.84,12.1.9,12.1s4.5-6.95,3.47-12c-.77-3.74,1.82-8.72,2-11.47l4.15.35a2.42,2.42,0,0,0,2.59-2l.64-3.73Zm6.92,23.67c-.09,1.17-.66,2.08-1.26,2s-1-1-.92-2.2.66-2.08,1.26-2S107.57,69.48,107.47,70.65Z"/><path class="cls-3" d="M107.2,57.67c-1.68,1.29-1.63,4.16.11,6.41s4.63,3.58,6.31,2.29,2.48-7,.75-9.26S108.88,56.38,107.2,57.67Z"/><ellipse class="cls-3" cx="108.84" cy="55.84" rx="1.99" ry="3.09" transform="matrix(0.96, -0.28, 0.28, 0.96, -11.23, 32.42)"/><path class="cls-9" d="M118.15,35h-.43l-.66,2.53.09-2.53h-1l-.62,2.39.09-2.38-13.07.16a2.29,2.29,0,0,0-2.26,2.36l.21,6.86c.89,1.34,2.3,1.71,4.49-.57,6.31-6.56,6-2.19,9.65-2.19h0c2.36,0,2.77-2.58,5.28-.79l.54-3.17A2.31,2.31,0,0,0,118.15,35Z"/><ellipse cx="44.87" cy="44.95" rx="1.61" ry="1.48"/><ellipse cx="72.6" cy="48.88" rx="1.61" ry="1.48"/><path d="M76.17,41.44a21.31,21.31,0,0,0-3.67-3.27A12.33,12.33,0,0,0,68.16,37a.43.43,0,0,1-.16-.57h0c.11-.2,2-.64,4.84.94,2,1.09,4,3.67,3.89,3.87h0A.42.42,0,0,1,76.17,41.44Z"/><path d="M66.87,56.22a21.28,21.28,0,0,0-4.92,1.07A12.19,12.19,0,0,0,58,60.36c-.22.1-.51,0-.56-.15h0c-.09-.18,1.13-2.5,4.39-3.8a12.84,12.84,0,0,1,5.26-.72h0C67.49,56.1,67.09,56.12,66.87,56.22Z"/><path d="M40.33,42.82a19.9,19.9,0,0,0,4.59.15,11.52,11.52,0,0,0,3.79-1.78.4.4,0,0,1,.46.31h0c0,.21-1,1.64-4,2.22A10.4,10.4,0,0,1,40,43.27h0A.39.39,0,0,1,40.33,42.82Z"/></g></g></svg>