<?xml version="1.0" encoding="UTF-8" standalone="no"?>
<svg
   xmlns:dc="http://purl.org/dc/elements/1.1/"
   xmlns:cc="http://creativecommons.org/ns#"
   xmlns:rdf="http://www.w3.org/1999/02/22-rdf-syntax-ns#"
   xmlns:svg="http://www.w3.org/2000/svg"
   xmlns="http://www.w3.org/2000/svg"
   version="1.1"
   id="svg2"
   viewBox="0 0 720.63149 352.88464"
   width="203.37822mm"
   height="99.591881mm">
  <defs
     id="defs8" />
  <metadata
     id="metadata4">
    <rdf:RDF>
      <cc:Work
         rdf:about="">
        <dc:format>image/svg+xml</dc:format>
        <dc:type
           rdf:resource="http://purl.org/dc/dcmitype/StillImage" />
        <dc:title></dc:title>
      </cc:Work>
    </rdf:RDF>
  </metadata>
  <style
     type="text/css"
     id="style3141">
	.st0{fill:#184A8E;}
	.st1{fill:#2D6CAB;}
	.st2{fill:#1C5999;}
	.st3{fill:#16568A;}
</style>
  <g
     transform="matrix(0.20396002,0,0,0.20396002,-3.5765825,1.2907407)"
     id="Layer_2">
    <g
       transform="translate(17.535554,-6.2284003)"
       id="Layer_4">
      <rect
         style="fill:#184a8e"
         x="0"
         y="-0.1"
         class="st0"
         width="3533.2"
         height="1730.1659"
         id="rect3147" />
      <path
         style="fill:#2d6cab"
         class="st1"
         d="m 1386.2,824.4 -61.7,16.5 c -1.2,-1.2 -2.7,-2.5 -4.1,-3.9 -27.6,-27.8 -55.2,-55.6 -82.7,-83.5 -2.8,-2.8 -5.2,-3.7 -9.1,-2.6 -20.4,5.7 -40.9,11 -61.3,16.5 l -5.8,1.5 157.2,158 -61.9,16.5 -134.8,-135 -31.5,117.5 -45.5,-45.9 22.9,-85.6 c -2.3,0.4 -3.8,0.6 -5.3,1 -14.8,3.9 -29.5,8 -44.3,11.7 -3.9,1 -5.6,2.9 -6.6,6.8 -14.6,55.1 -29.2,110.2 -44,165.3 -5.5,20.6 -11,41.2 -16.5,61.8 -0.6,2.3 -1.1,4.6 -1.7,7 l 40,40.1 c 0.8,-2.6 1.4,-4.5 1.9,-6.4 6.5,-24.7 13.2,-49.4 19.5,-74.2 1,-3.9 2.8,-5.7 6.7,-6.7 16.9,-4.3 33.8,-9 50.7,-13.5 l 6.3,-1.7 -31,116.9 c 2.4,-0.4 3.9,-0.7 5.4,-1 16.9,-4.4 33.8,-8.8 50.7,-13.3 40.7,-10.8 81.5,-21.7 122.2,-32.6 4.3,-1.2 7,-0.5 10.1,2.7 12,12.5 24.3,24.6 36.4,36.9 1.1,1.2 2.2,2.4 4,4.3 -14.6,4.5 -28.8,7.7 -42.8,11.5 -14.2,3.9 -28.4,7.6 -42.7,11.4 l -42.7,11.3 -42.7,11.4 -43.6,11.6 52.9,53.3 124.1,-33.1 44.9,45.3 c -41.4,11.7 -82.2,21.9 -123.6,33.4 l 55.3,55.8 -39.2,39.3 c -18.6,-18.3 -36.5,-36.9 -55.6,-55.6 l -33.2,123.9 c -1.6,-1.3 -2.6,-2.1 -3.5,-3 -12.9,-12.9 -25.6,-25.9 -38.6,-38.6 -2.6,-2.6 -3.1,-4.7 -2.2,-8.2 10.3,-37.8 20.3,-75.7 30.6,-113.5 1.3,-4.7 0.6,-7.6 -2.9,-11.1 -14.9,-14.5 -29.4,-29.4 -44.1,-44.1 -1.3,-1.3 -2.6,-2.4 -4.5,-4.1 l -57.2,215.5 c -15.7,-15.1 -30.2,-30.2 -45.4,-45.3 l 48.9,-184.4 c -7.1,0.9 -13.3,3.2 -19.5,4.7 -6.2,1.5 -12.8,3.4 -19.2,5.1 l -19.7,5.3 -19.2,5.1 -19.2,5.1 -19.7,5.3 c 0.5,-2.6 0.8,-4.3 1.3,-6 4.6,-17.2 9.4,-34.4 13.9,-51.7 1,-3.8 2.9,-5.3 6.5,-6.2 25.5,-6.6 50.9,-13.4 76.3,-20.2 1,-0.3 2.1,-0.7 3.6,-1.2 -0.7,-1.1 -1.5,-2.1 -2.3,-3.1 -11.8,-11.9 -23.6,-23.7 -35.3,-35.7 -1.9,-1.9 -3.7,-2.8 -6.3,-1.8 -0.9,0.3 -1.8,0.5 -2.7,0.7 -74.9,20 -149.7,39.9 -224.6,59.8 -4.5,1.2 -6.7,3.1 -7.8,7.7 -3.5,14.5 -7.5,28.8 -11.4,43.2 -0.5,2.1 -1,4.2 -1.7,7 l 85.2,-22.7 45.7,45.8 -117.1,31.3 c 15.4,15.9 30.4,30.7 45.2,45.7 14.8,15 29.8,30 44.7,45.1 l 45,45.4 -16.7,62.1 -157.3,-158.4 -19.3,72.5 90.8,91.3 -16.6,62 -90.8,-91 -20.3,75.9 -53.6,-14.5 20.2,-75.8 c -11.2,2.3 -21.1,5.3 -31.2,8 -10.3,2.7 -20.6,5.5 -31,8.2 l -30.4,8.1 -31,8.3 c 0.5,-2.6 0.7,-4.2 1.1,-5.7 4.6,-17.2 9.3,-34.4 13.6,-51.8 0.9,-3.7 2.8,-5 6.2,-5.8 37.7,-9.9 75.4,-20.1 113.2,-29.9 4.5,-1.2 6.7,-3.1 7.8,-7.6 5.1,-20.3 10.7,-40.6 16,-60.8 0.5,-1.7 0.8,-3.4 1.3,-5.8 l -213.4,57 c -0.4,-4.2 11.3,-50.4 15.7,-62.1 l 183.6,-49 -85.4,-86.1 62.1,-16.6 62.6,63.1 15.3,-57.2 -173.1,-173.9 -57,15.2 c 2,2.1 3.6,3.8 5.3,5.4 17.9,18 35.8,36 53.8,53.9 2.5,2.5 3.3,4.6 2.3,8.2 -4.8,17.4 -9.3,34.8 -13.9,52.3 -0.4,1.6 -0.9,3.1 -1.6,5.4 l -85.5,-85.9 c -4.7,15.7 -8.4,30.9 -12.5,46.1 -4.2,15.4 -8.4,30.9 -12.5,46.4 -4.1,15.3 -8.2,30.6 -12.3,45.8 -4.1,15.3 -8.2,30.5 -12.4,45.9 l -61.7,16.5 c 4.5,-18.4 9.6,-36.2 14.3,-54.1 4.7,-17.9 9.5,-35.5 14.2,-53.3 4.8,-17.9 9.6,-35.9 14.4,-53.8 4.7,-17.7 9.5,-35.4 14.4,-53.7 l -72,19.3 c -0.5,1.7 -1.2,3.6 -1.7,5.5 -10,37.7 -20.1,75.3 -30,113.1 -1.1,4.1 -2.8,6.1 -7,7.1 -16.8,4.2 -33.5,8.8 -50.2,13.3 l -6.3,1.7 32.9,-124.2 -75.1,20 -14.4,-54.2 75.3,-20.1 -90.4,-91.3 61.8,-16.5 c 3.1,3.1 6.5,6.5 9.9,9.8 25.5,25.8 51,51.5 76.5,77.3 3,3 5.4,3.8 9.6,2.7 20,-5.6 40.2,-10.8 60.3,-16.2 l 6.3,-1.7 C 270,935.1 259.5,925 249.2,914.6 238.7,904 228.2,893.5 217.7,882.9 l -31.1,-31.3 c -10.5,-10.6 -21,-21.1 -31.5,-31.7 -10.3,-10.4 -20.6,-20.8 -31.8,-32 l 13.2,-3.5 c 14.8,-3.9 29.5,-7.8 44.3,-11.9 3.3,-0.9 5.3,-0.3 7.7,2.1 42.3,42.5 84.6,85 127,127.4 1.4,1.4 2.9,2.7 4.8,4.6 l 31.4,-117.3 45.4,46 -23,85.6 c 2.5,-0.5 4.2,-0.7 5.9,-1.2 15,-4 29.8,-8.1 44.8,-11.8 4.1,-1 6,-2.9 7.1,-7 8.6,-33.1 17.5,-66.1 26.3,-99.2 11.5,-43 22.9,-86 34.4,-129 0.3,-1.2 0.6,-2.5 1,-4.2 l -41.2,-41.4 -22.8,85.8 -62.1,16.6 31.1,-117.1 -6.4,1.7 -112.1,29.7 c -20.3,5.4 -40.6,10.7 -60.8,16.2 -3.6,1 -6,0.5 -8.7,-2.3 -12.3,-12.7 -24.8,-25.2 -37.2,-37.7 -1.1,-1.1 -2.1,-2.4 -3.7,-4.1 l 213.9,-57.1 c -0.9,-1.3 -1.9,-2.6 -3,-3.8 -15.3,-15.4 -30.7,-30.7 -45.8,-46.3 -2.7,-2.8 -5,-3.3 -8.7,-2.3 -37.7,10.2 -75.4,20.1 -113.1,30.4 -4.6,1.2 -7.3,0.4 -10.5,-2.9 -11.7,-12.2 -23.8,-24.1 -35.7,-36.1 -1.4,-1.4 -2.7,-2.9 -4.6,-5 l 123.3,-32.9 c -6.3,-7.3 -12.6,-13 -18.5,-19.1 -5.9,-6.1 -11.9,-12 -17.9,-18 -6,-6 -12.1,-12.3 -18.7,-18.9 12.9,-13.3 25.9,-26.1 39.2,-39.4 l 55.5,55.7 33.3,-124.3 45.4,45.4 c -2.8,10.7 -5.7,21.4 -8.5,32 -7.8,29.3 -15.7,58.6 -23.6,87.9 -0.9,3.1 -0.7,5.3 1.8,7.8 15.8,15.7 31.5,31.5 47.2,47.2 0.8,0.8 1.6,1.4 2.9,2.4 l 57.4,-215.5 45.4,45.5 -49,184.8 c 20,-5 39,-10.3 58.1,-15.3 19.1,-5 38.4,-10.2 57.6,-15.4 0.6,4 -9.5,43.8 -15.7,62.3 l -85.2,22.7 c 1.9,2 3.1,3.5 4.5,4.8 10.5,10.6 21.1,21 31.5,31.8 2.8,2.8 5.2,3.6 9.1,2.5 42.7,-11.5 85.3,-23 128,-34.3 33.3,-8.9 66.5,-17.8 99.8,-26.5 3.8,-1 5.8,-2.7 6.8,-6.6 3.7,-14.8 7.8,-29.5 11.7,-44.3 0.4,-1.5 0.7,-3.1 1.3,-5.7 l -6.3,1.7 c -24.5,6.6 -49.1,13 -73.6,19.9 -4.2,1.2 -6.7,0.3 -9.6,-2.7 -12.1,-12.4 -24.4,-24.5 -36.6,-36.8 -1.4,-1.4 -2.8,-2.9 -4.8,-5 6.8,-2.3 13.2,-3.7 19.5,-5.4 6.3,-1.7 12.8,-3.4 19.2,-5.1 l 19.7,-5.3 19.2,-5.1 19.2,-5.1 20.1,-5.4 -134.7,-135.8 16.7,-62 157,158.1 c 0.7,-2 1.3,-3.5 1.7,-5 5.6,-20.8 11,-41.6 16.7,-62.3 1,-3.7 0.4,-6 -2.3,-8.7 -27.2,-27.1 -54.4,-54.3 -81.5,-81.6 -1,-1.1 -2,-2.1 -3.1,-3.1 -2.5,-1.9 -2.5,-4.1 -1.7,-6.8 2.7,-9.6 5.2,-19.2 7.8,-28.8 l 7.9,-29.2 90.7,90.9 c 7.3,-25.4 13.4,-50.4 20.5,-75.7 l 53.5,14.5 -19.9,74.9 c 2.6,1.1 4.6,-0.1 6.6,-0.6 36.7,-9.7 73.3,-19.4 109.9,-29.2 l 7.1,-1.9 -16.4,61.9 -124.1,33.1 -19.4,72.6 c 36.4,-9.5 71.8,-19.2 107.2,-28.6 35.4,-9.4 71,-18.9 107.2,-28.6 -0.3,2.1 -0.4,3.6 -0.8,4.9 -4.6,17.4 -9.4,34.8 -13.8,52.3 -0.9,3.6 -2.8,5 -6.2,5.9 -28.8,7.6 -57.6,15.3 -86.4,23.1 -29,7.8 -57.9,15.6 -86.9,23.5 l -5.9,1.6 c 28.5,29.1 56.7,57.1 85.1,86 -1.7,0.7 -2.8,1.2 -3.9,1.5 -17.6,4.7 -35.3,9.2 -52.8,14.1 -3.9,1.1 -6.3,0.2 -9.1,-2.7 -17.8,-18.3 -35.9,-36.4 -53.9,-54.6 -1.4,-1.4 -2.9,-2.8 -4.7,-4.5 -0.7,2 -1.2,3.5 -1.6,5.1 -4,14.8 -7.8,29.5 -11.8,44.2 -0.9,3.2 -0.5,5.3 1.9,7.8 56.5,56.7 113.1,113.6 169.6,170.5 0.8,0.8 1.6,1.5 2.5,2.2 l 53.8,-14.3 c -20.9,-21.4 -41.8,-41.9 -62.5,-62.9 l 16.5,-62.5 85.9,86.2 49.5,-184.3 61.6,-16.5 c -4.4,18.4 -9.5,36.1 -14.2,53.9 -4.7,17.8 -9.5,35.5 -14.3,53.3 -4.8,17.9 -9.6,35.9 -14.4,53.8 -4.7,17.7 -9.5,35.4 -14.4,53.8 l 72.3,-19.3 32.9,-123.7 61.7,-16.5 c -1.7,8.6 -4.2,16.5 -6.2,24.6 -2,8.1 -4.4,16.3 -6.5,24.5 -2.2,8.4 -4.4,16.7 -6.7,25.1 -2.2,8.2 -4.4,16.3 -6.6,24.5 -2.2,8.2 -4.3,16.2 -6.6,25.3 l 75.2,-20.1 14.4,54 -75.3,20.1 90.5,91.3 z M 785.6,618 l -5.8,1.5 c -75.6,20.2 -151.1,40.3 -226.7,60.4 -4.3,1.2 -6.2,3.2 -7.3,7.4 -20.2,76.1 -40.4,152.1 -60.9,228.1 -1,3.7 -0.4,6 2.3,8.7 55.8,56 111.5,112.1 167.2,168.2 2.8,2.8 5.1,3.2 8.7,2.2 76.1,-20.4 152.2,-40.7 228.3,-60.9 3.7,-1 5.3,-2.7 6.3,-6.4 20.1,-75.9 40.4,-151.7 60.7,-227.5 1.3,-4.7 0.6,-7.6 -2.8,-11.1 C 908.7,741.9 862,694.9 815.4,647.9 805.6,638 795.7,628.2 785.6,618 Z"
         id="path3149" />
      <path
         style="fill:#2d6cab"
         class="st1"
         d="m 670.9,1047.5 c -6.5,-6.5 -12.8,-12.8 -19.2,-19.2 -38.6,-38.9 -77.3,-77.7 -115.9,-116.5 -3,-3 -3.7,-5.5 -2.6,-9.6 16,-59.5 31.9,-119 47.6,-178.5 1.2,-4.6 3.1,-6.9 8,-8.2 59.2,-15.6 118.4,-31.4 177.6,-47.4 4.5,-1.2 7.3,-0.5 10.6,2.8 43.3,43.8 86.7,87.5 130.2,131.1 1.3,1.3 2.6,2.6 4.1,4.2 -0.3,1.3 -0.5,2.7 -0.8,4.1 -16,60.2 -32.1,120.5 -48.1,180.7 -1.1,4.1 -2.8,6.3 -7.2,7.5 -59.6,15.7 -119.2,31.6 -178.7,47.6 l -5.6,1.4 z m 84.6,-318.2 -127.2,34 c -0.4,1 -0.8,1.8 -1,2.7 -10.8,40.5 -21.7,81 -32.5,121.5 -0.9,3.2 0.1,5.1 2.3,7.2 28.8,28.9 57.6,57.9 86.3,86.9 2.8,2.9 5.3,3.5 9.1,2.4 39.1,-10.6 78.2,-21 117.3,-31.4 l 5,-1.3 c 0.5,-1.9 1.1,-3.6 1.6,-5.3 10.5,-39.3 20.9,-78.5 31.5,-117.8 1,-3.8 0.2,-6 -2.5,-8.6 -26.5,-26.6 -53,-53.2 -79.4,-79.8 -3.5,-3.7 -7,-7.1 -10.5,-10.5 l 0,0 z"
         id="path3151" />
      <path
         style="fill:#1c5999"
         class="st2"
         d="m 2996.5,1456.2 -85.4,38 -58.8,-132.2 c -14.2,18.4 -26.6,36.6 -40.3,54.7 l -75.4,-54.6 c 1.2,-1.8 2.2,-3.5 3.3,-5.1 21.4,-29.4 42.9,-58.9 64.4,-88.3 2.8,-3.8 3.6,-6.7 1.4,-11.3 -8.4,-18 -16.3,-36.3 -24.4,-54.5 -0.8,-1.8 -1.8,-3.6 -3.3,-6.4 l -93,127.9 -75.5,-54.7 c 1.3,-1.9 2.5,-3.8 3.8,-5.6 39,-53.6 78.1,-107.3 117.2,-160.8 3.2,-4.3 3.4,-7.6 1.2,-12.4 -8.5,-18.2 -16.5,-36.7 -24.6,-55.1 -1.5,-3.5 -3.9,-6.4 -7,-8.6 -15,-10.7 -29.9,-21.6 -44.8,-32.4 -1.7,-1.2 -3.4,-2.3 -5.7,-3.9 -0.3,2.5 -0.7,4.5 -0.9,6.5 -5.5,52.3 -11.1,104.5 -16.6,156.8 -0.4,3.9 -1.8,7.7 -4.2,10.9 -9.3,12.4 -18.4,24.9 -27.5,37.4 -1.2,1.7 -2.5,3.3 -4.3,5.5 -1,-1.8 -1.7,-2.9 -2.2,-4.2 -6.5,-14.8 -13,-29.5 -19.6,-44.3 -1.6,-3.6 -2.2,-7.6 -1.7,-11.6 5.6,-51.6 11.1,-103.2 16.5,-154.9 0.2,-2.2 0.3,-4.5 0.5,-7.4 -2.1,0.7 -3.6,1.1 -5,1.7 -18,8 -36,16 -54,24.1 -2.5,1 -4.7,2.7 -6.4,4.7 -12.8,17.3 -25.4,34.8 -38.1,52.3 -0.7,1 -1.3,2.1 -2.2,3.5 l 86,193.1 -85,37.9 -63.6,-142.9 c -4,2.6 -38.3,48.7 -43.9,58.8 l 49,110.1 -85.2,37.9 -27.3,-61.2 c -8.4,10.3 -15,20.2 -22.2,29.9 -7.2,9.7 -14.1,19.3 -21.1,28.9 -7.1,9.8 -14.2,19.7 -21.4,29.5 -7,9.6 -14,19.2 -21.3,29.2 l -75.6,-54.8 85.5,-117.6 -67.5,-7.2 9.8,-92.8 121.3,12.6 43.2,-59.4 -157.7,-16.5 9.8,-92.9 c 3.4,0.3 6.3,0.6 9.1,0.9 65.3,6.8 130.7,13.7 196,20.6 4.9,0.5 7.5,-0.7 10.3,-4.6 11.6,-16.4 23.6,-32.5 35.3,-48.8 1.5,-2.1 3,-4.7 3.3,-7.2 2.3,-20.4 4.3,-40.8 6.4,-61.2 0.1,-1 0,-2 0.1,-4 l -7.4,3.3 c -47.1,21 -94.2,41.9 -141.2,62.9 -3.6,1.7 -7.6,2.3 -11.5,1.8 -16.2,-1.9 -32.5,-3.5 -48.7,-5.2 -1.4,-0.2 -2.8,-0.5 -4.8,-0.8 1.3,-1.9 2.2,-3.4 3.3,-4.9 9.5,-13 19.1,-25.9 28.6,-39 2.1,-2.9 4.9,-5.1 8.1,-6.5 47.7,-21.1 95.4,-42.3 143,-63.6 l 7.4,-3.3 c -2.1,-1.7 -3.4,-2.8 -4.6,-3.7 -15.6,-11.3 -31.1,-22.7 -46.8,-33.9 -2,-1.5 -4.3,-2.5 -6.7,-2.9 -22.9,-2.5 -45.8,-4.9 -68.7,-7.3 -0.6,0 -1.2,0.1 -1.7,0.3 l -124.8,171.5 -75.6,-54.9 93.3,-128.4 -73,-7.7 -71.8,98.6 -75.6,-54.9 39.8,-54.9 -144.6,-15.2 9.8,-92.9 144.2,15 c -1.8,-6 -4.4,-10.8 -6.6,-15.9 -2.2,-5.1 -4.4,-10 -6.6,-14.9 l -6.9,-15.5 -6.5,-14.7 c 4,-3.3 76.6,-36 85,-38.4 1,2 2.1,4.2 3.1,6.4 14.5,32.5 29.1,65 43.3,97.7 2.3,5.3 5.2,7 10.6,7.4 18.3,1.6 36.6,3.7 55,5.6 3.1,0.3 6.2,0.6 9.9,1 -1.6,-6.9 -5,-12.4 -7.4,-18.3 -2.6,-6.2 -5.4,-12.3 -8.1,-18.4 l -7.9,-17.8 -7.9,-17.8 -7.9,-17.8 -8.2,-18.4 -7.9,-17.8 -8.1,-18.1 85.3,-38 3.1,6.9 c 26.8,60.1 53.5,120.2 80.1,180.3 2.1,4.8 4.7,6.8 10,7.3 19.8,1.7 39.6,4 59.3,6.1 3.5,0.5 7.1,-0.1 10.3,-1.5 17.3,-7.9 34.8,-15.6 52.2,-23.3 l 5.9,-2.6 c -2.4,-1.9 -4.1,-3.3 -5.9,-4.6 -41.5,-30.1 -83,-60.2 -124.6,-90.3 -4.3,-3 -7.6,-7.1 -9.7,-11.9 -5.9,-13.7 -12.2,-27.1 -18.4,-40.7 -0.8,-1.8 -1.6,-3.7 -2.8,-6.2 2.7,0.1 4.6,0 6.4,0.2 16.2,1.7 32.5,3.5 48.7,5.1 3.1,0.3 6.1,1.4 8.6,3.3 42.1,30.7 84.3,61.3 126.5,91.9 1.8,1.3 3.7,2.5 6.1,4.2 0.4,-2.6 0.8,-4.3 1,-6.1 2,-19.2 4,-38.3 6.1,-57.5 0.4,-3.3 -0.1,-6.7 -1.6,-9.7 -8.3,-18.3 -16.5,-36.7 -24.5,-55.1 -1.8,-4.2 -4.1,-5.9 -8.7,-6.4 -66.2,-6.8 -132.4,-13.6 -198.6,-20.6 -2.1,-0.2 -4.1,-0.5 -6.9,-0.9 l 9.8,-92.8 157.3,16.4 c -0.8,-2.4 -1.3,-4.1 -2,-5.7 -8.3,-18.8 -16.8,-37.5 -24.9,-56.3 -1.7,-3.9 -4,-5.1 -7.9,-5.5 -36.4,-3.7 -72.9,-7.5 -109.3,-11.4 -1.9,-0.2 -3.7,-0.5 -6.4,-0.8 l 9.9,-92.8 66.5,6.9 c -0.6,-5.8 -3.7,-10.1 -5.6,-14.8 -2,-5 -4.4,-10 -6.6,-14.9 l -6.4,-14.4 -6.7,-14.8 -6.4,-14.4 -6.7,-14.9 -6.4,-14.4 -6.6,-14.9 -6.5,-14.5 85.2,-37.9 58.8,132.1 c 14.1,-18.3 26.5,-36.5 40.3,-54.8 25.3,18 50.1,36.4 75.6,54.7 l -71.6,98.6 29.7,66.7 c 11,-14.3 21,-28.6 31.3,-42.7 10.3,-14.1 20.5,-28.1 30.7,-42.1 10.2,-14 20.6,-28.4 31.4,-43.2 l 75.6,54.9 c -41.6,57.5 -83.3,114.5 -124.9,171.8 0.6,1.5 1.1,3.1 1.7,4.6 8.4,19 16.8,37.9 25.4,56.8 1,2.5 2.7,4.6 4.8,6.3 16.8,12.4 33.8,24.7 50.8,36.9 0.6,0.5 1.3,0.8 2.5,1.5 0.4,-2.7 0.8,-4.9 1,-7.2 5.5,-51.4 10.8,-102.8 16.2,-154.2 0.3,-4.2 1.8,-8.1 4.3,-11.5 9.4,-12.8 18.6,-25.8 27.9,-38.7 0.9,-1.3 2,-2.5 3.4,-4.3 1.1,2.2 2.1,3.8 2.8,5.4 6.6,14.7 13.1,29.5 19.8,44.2 1.5,3.2 2,6.8 1.6,10.3 -5.5,51.6 -11,103.2 -16.4,154.9 -0.2,2.2 -0.3,4.5 -0.5,7.3 2.1,-0.8 3.7,-1.3 5.1,-2 17.8,-7.9 35.6,-15.9 53.4,-23.7 2.7,-1.1 5,-3 6.7,-5.3 12.1,-16.8 24.2,-33.6 36.6,-50.2 2.6,-3.5 2.7,-6.3 0.9,-10.2 -26.9,-60.2 -53.8,-120.5 -80.6,-180.8 l -3.4,-7.6 84.4,-37.5 c 0.3,0.1 0.5,0.1 0.7,0.2 0.2,0.1 0.4,0.2 0.5,0.3 0.3,0.3 0.5,0.6 0.7,1 21,47.1 41.9,94.2 63.3,142.1 1.6,-1.8 2.8,-3 3.9,-4.4 12.2,-16.7 24.3,-33.6 36.6,-50.2 2.5,-3.4 2.5,-6 0.8,-9.6 -14.8,-32.9 -29.4,-65.8 -44,-98.7 l -3.1,-7.1 85.1,-37.9 27.5,61.7 c 10.4,-13.4 19.5,-26.5 28.9,-39.3 9.4,-12.8 18.7,-25.7 28.1,-38.6 l 28.9,-39.7 75.5,54.7 c -13.9,19.8 -28.2,39 -42.3,58.4 -14.1,19.4 -28.3,38.9 -43.1,59.3 l 67.5,7.2 -9.9,92.7 c -2.6,-0.2 -4.8,-0.2 -7,-0.5 -36,-3.8 -72,-7.4 -108,-11.4 -4.9,-0.5 -7.5,0.8 -10.3,4.7 -11.6,16.4 -23.5,32.6 -35.4,48.8 -1.1,1.5 -2.1,3 -3.6,5.4 l 157.6,16.5 -9.8,92.9 -211.6,-22.1 c -4.9,6.8 -9.8,13.6 -14.7,20.3 -8.6,11.8 -17.3,23.6 -25.8,35.5 -1.5,2 -2.5,4.3 -2.9,6.7 -2.3,20.6 -4.4,41.2 -6.6,61.8 0,0.9 0.1,1.7 0.3,2.6 2.2,-0.9 4.3,-1.6 6.3,-2.4 47.7,-21.2 95.3,-42.4 143,-63.7 3.8,-1.8 8,-2.5 12.1,-2 17.5,1.8 35,3.5 53.1,5.2 -1.1,1.8 -1.8,3.2 -2.7,4.4 -9.7,13.4 -19.5,26.7 -29.1,40.2 -2.2,3 -5.2,5.4 -8.7,6.8 -47.3,21 -94.6,42 -141.9,63.1 l -6.8,3 c 1.9,1.6 3,2.7 4.3,3.7 15.9,11.6 31.8,23.1 47.8,34.7 1.8,1.4 3.9,2.3 6.2,2.6 22.7,2.5 45.4,4.8 68.5,7.2 l 125.5,-172.1 75.6,54.8 -93.3,128.3 72.9,7.7 71.8,-98.6 75.6,54.8 -39.8,54.8 c 16.5,2.4 32.4,3.6 48.3,5.3 15.9,1.7 31.6,3.3 47.4,5 l 48.7,5.1 -9.8,92.9 -144.4,-15 c 9.2,21.1 18.3,41 27,60.9 -3.9,3.2 -73.7,34.7 -85,38.4 -8.2,-18.4 -16.4,-36.8 -24.7,-55.3 -8.2,-18.3 -16.4,-36.7 -24.6,-55.3 l -72.8,-7.6 63.8,143.3 c -3.8,3.4 -76.6,36.2 -85.5,38.7 l -3.2,-7.1 c -26.7,-59.9 -53.3,-119.8 -79.9,-179.8 -2,-4.5 -4.4,-6.6 -9.6,-7.1 -20,-1.8 -40,-4.1 -60,-6 -2.7,-0.3 -5.4,0 -7.9,0.9 -19,8.3 -37.9,16.8 -56.9,25.2 -0.9,0.5 -1.8,1 -2.6,1.6 1.4,1.3 2.5,2.4 3.8,3.3 42.3,30.8 84.7,61.5 127.1,92.2 3.8,2.6 6.7,6.3 8.4,10.5 6.1,14.3 12.5,28.4 18.7,42.6 0.7,1.5 1.2,3.1 2.1,5.3 -2,0 -3.6,0.1 -5.1,-0.1 -16.2,-1.7 -32.4,-3.6 -48.7,-5.2 -3.3,-0.3 -6.5,-1.5 -9.1,-3.6 -42.7,-31 -85.4,-62 -128.1,-93 -1.7,-1.2 -3.4,-2.4 -5.6,-3.9 -0.4,2.3 -0.7,4.1 -0.9,5.9 -2,19.2 -4,38.3 -6.1,57.5 -0.3,3.1 0.2,6.3 1.6,9.1 8.5,18.9 17,37.8 25.2,56.9 1.7,4 4,5.5 8.3,6 66.8,6.8 133.6,13.8 200.4,20.9 1.4,0.2 2.9,0.3 5.3,0.6 -3.1,30.9 -6.5,61.6 -9.8,92.9 l -157.5,-16.5 29.9,67 120.9,12.7 -9.8,92.9 -67.6,-7 59,132.4 z m -379.1,-736 c 0.3,-1.1 0.6,-2.1 0.8,-3.2 3.1,-28.7 6.1,-57.4 9.2,-86.1 0.4,-3.5 -1,-5.3 -3.6,-7.2 -23,-16.7 -46,-33.4 -69,-50.2 -1.2,-0.7 -2.4,-1.3 -3.6,-1.8 -0.2,0.5 -0.4,1.1 -0.5,1.7 -3,29.3 -6,58.7 -9.2,88 -0.3,3 0.8,4.6 3,6.2 9,6.4 18,13 26.9,19.5 l 46,33.1 z m -35.5,48.5 c -1.7,-1.4 -2.9,-2.5 -4.2,-3.4 -22.2,-16.1 -44.4,-32.1 -66.5,-48.4 -3.6,-2.7 -6.4,-2.6 -10.2,-0.8 -24.2,11 -48.6,21.7 -72.9,32.5 -1.8,0.8 -3.6,1.8 -6.2,3.2 l 74.9,54.8 85.1,-37.9 z m 180.6,-80.3 9.4,-92.4 c -2,0.7 -3.2,1 -4.3,1.4 -25.4,11.3 -50.8,22.7 -76.3,33.8 -3.5,1.5 -4.4,3.8 -4.7,7.2 -2.8,27.3 -5.7,54.5 -8.6,81.7 -0.2,1.8 -0.2,3.6 -0.3,5.9 l 84.8,-37.6 z m -251.3,266 86,-38.3 9.7,-92.3 -86.2,38.4 -9.5,92.2 z m 155.7,-124.5 c -0.3,0.7 -0.5,1.4 -0.6,2.1 -3.1,28.9 -6.1,57.9 -9.3,86.8 -0.4,3.3 0.9,4.9 3.3,6.6 22.8,16.4 45.5,32.8 68.3,49.2 0.9,0.7 1.9,1.1 3.6,2 l 9.9,-92.2 -75.2,-54.5 z m 195.6,-32 c -1.4,-1.2 -1.9,-1.8 -2.6,-2.3 -22.8,-16.6 -45.7,-33.2 -68.4,-50 -3.1,-2.3 -5.4,-2 -8.5,-0.6 -24.8,11.2 -49.7,22.2 -74.6,33.3 -1.8,0.8 -3.6,1.8 -6.3,3.2 l 75,54.4 85.4,-38 z"
         id="path3153" />
    </g>
  </g>
</svg>
