<?xml version="1.0" encoding="utf-8"?>
<!-- Generator: Adobe Illustrator 21.0.0, SVG Export Plug-In . SVG Version: 6.00 Build 0)  -->
<svg version="1.1" id="Layer_1" xmlns="http://www.w3.org/2000/svg" xmlns:xlink="http://www.w3.org/1999/xlink" x="0px" y="0px"
	 viewBox="0 0 3533.2 1734.5" style="enable-background:new 0 0 3533.2 1734.5;" xml:space="preserve">
<style type="text/css">
	.st0{fill:#184A8E;}
	.st1{fill:#2D6CAB;}
	.st2{fill:#1C5999;}
	.st3{fill:#16568A;}
</style>
<title>background2</title>
<g id="Layer_2">
	<g id="Layer_4">
		<rect y="-0.1" class="st0" width="3533.2" height="867.6"/>
		<path class="st1" d="M1386.2,824.4l-61.7,16.5c-1.2-1.2-2.7-2.5-4.1-3.9c-27.6-27.8-55.2-55.6-82.7-83.5c-2.8-2.8-5.2-3.7-9.1-2.6
			c-20.4,5.7-40.9,11-61.3,16.5l-5.8,1.5l157.2,158l-61.9,16.5l-134.8-135l-31.5,117.5L1045,880l22.9-85.6c-2.3,0.4-3.8,0.6-5.3,1
			c-14.8,3.9-29.5,8-44.3,11.7c-3.9,1-5.6,2.9-6.6,6.8c-14.6,55.1-29.2,110.2-44,165.3c-5.5,20.6-11,41.2-16.5,61.8
			c-0.6,2.3-1.1,4.6-1.7,7l40,40.1c0.8-2.6,1.4-4.5,1.9-6.4c6.5-24.7,13.2-49.4,19.5-74.2c1-3.9,2.8-5.7,6.7-6.7
			c16.9-4.3,33.8-9,50.7-13.5l6.3-1.7l-31,116.9c2.4-0.4,3.9-0.7,5.4-1c16.9-4.4,33.8-8.8,50.7-13.3c40.7-10.8,81.5-21.7,122.2-32.6
			c4.3-1.2,7-0.5,10.1,2.7c12,12.5,24.3,24.6,36.4,36.9c1.1,1.2,2.2,2.4,4,4.3c-14.6,4.5-28.8,7.7-42.8,11.5
			c-14.2,3.9-28.4,7.6-42.7,11.4l-42.7,11.3l-42.7,11.4l-43.6,11.6l52.9,53.3l124.1-33.1l44.9,45.3c-41.4,11.7-82.2,21.9-123.6,33.4
			l55.3,55.8l-39.2,39.3c-18.6-18.3-36.5-36.9-55.6-55.6l-33.2,123.9c-1.6-1.3-2.6-2.1-3.5-3c-12.9-12.9-25.6-25.9-38.6-38.6
			c-2.6-2.6-3.1-4.7-2.2-8.2c10.3-37.8,20.3-75.7,30.6-113.5c1.3-4.7,0.6-7.6-2.9-11.1c-14.9-14.5-29.4-29.4-44.1-44.1
			c-1.3-1.3-2.6-2.4-4.5-4.1l-57.2,215.5c-15.7-15.1-30.2-30.2-45.4-45.3l48.9-184.4c-7.1,0.9-13.3,3.2-19.5,4.7s-12.8,3.4-19.2,5.1
			l-19.7,5.3l-19.2,5.1l-19.2,5.1l-19.7,5.3c0.5-2.6,0.8-4.3,1.3-6c4.6-17.2,9.4-34.4,13.9-51.7c1-3.8,2.9-5.3,6.5-6.2
			c25.5-6.6,50.9-13.4,76.3-20.2c1-0.3,2.1-0.7,3.6-1.2c-0.7-1.1-1.5-2.1-2.3-3.1c-11.8-11.9-23.6-23.7-35.3-35.7
			c-1.9-1.9-3.7-2.8-6.3-1.8c-0.9,0.3-1.8,0.5-2.7,0.7c-74.9,20-149.7,39.9-224.6,59.8c-4.5,1.2-6.7,3.1-7.8,7.7
			c-3.5,14.5-7.5,28.8-11.4,43.2c-0.5,2.1-1,4.2-1.7,7l85.2-22.7l45.7,45.8l-117.1,31.3c15.4,15.9,30.4,30.7,45.2,45.7
			s29.8,30,44.7,45.1l45,45.4l-16.7,62.1l-157.3-158.4l-19.3,72.5l90.8,91.3l-16.6,62l-90.8-91l-20.3,75.9l-53.6-14.5l20.2-75.8
			c-11.2,2.3-21.1,5.3-31.2,8c-10.3,2.7-20.6,5.5-31,8.2l-30.4,8.1l-31,8.3c0.5-2.6,0.7-4.2,1.1-5.7c4.6-17.2,9.3-34.4,13.6-51.8
			c0.9-3.7,2.8-5,6.2-5.8c37.7-9.9,75.4-20.1,113.2-29.9c4.5-1.2,6.7-3.1,7.8-7.6c5.1-20.3,10.7-40.6,16-60.8
			c0.5-1.7,0.8-3.4,1.3-5.8l-213.4,57c-0.4-4.2,11.3-50.4,15.7-62.1l183.6-49l-85.4-86.1l62.1-16.6l62.6,63.1l15.3-57.2L445.7,960.4
			l-57,15.2c2,2.1,3.6,3.8,5.3,5.4c17.9,18,35.8,36,53.8,53.9c2.5,2.5,3.3,4.6,2.3,8.2c-4.8,17.4-9.3,34.8-13.9,52.3
			c-0.4,1.6-0.9,3.1-1.6,5.4l-85.5-85.9c-4.7,15.7-8.4,30.9-12.5,46.1c-4.2,15.4-8.4,30.9-12.5,46.4c-4.1,15.3-8.2,30.6-12.3,45.8
			c-4.1,15.3-8.2,30.5-12.4,45.9l-61.7,16.5c4.5-18.4,9.6-36.2,14.3-54.1c4.7-17.9,9.5-35.5,14.2-53.3c4.8-17.9,9.6-35.9,14.4-53.8
			c4.7-17.7,9.5-35.4,14.4-53.7l-72,19.3c-0.5,1.7-1.2,3.6-1.7,5.5c-10,37.7-20.1,75.3-30,113.1c-1.1,4.1-2.8,6.1-7,7.1
			c-16.8,4.2-33.5,8.8-50.2,13.3l-6.3,1.7l32.9-124.2l-75.1,20l-14.4-54.2l75.3-20.1l-90.4-91.3l61.8-16.5c3.1,3.1,6.5,6.5,9.9,9.8
			c25.5,25.8,51,51.5,76.5,77.3c3,3,5.4,3.8,9.6,2.7c20-5.6,40.2-10.8,60.3-16.2l6.3-1.7c-10.5-11.2-21-21.3-31.3-31.7
			c-10.5-10.6-21-21.1-31.5-31.7l-31.1-31.3c-10.5-10.6-21-21.1-31.5-31.7c-10.3-10.4-20.6-20.8-31.8-32l13.2-3.5
			c14.8-3.9,29.5-7.8,44.3-11.9c3.3-0.9,5.3-0.3,7.7,2.1c42.3,42.5,84.6,85,127,127.4c1.4,1.4,2.9,2.7,4.8,4.6l31.4-117.3l45.4,46
			l-23,85.6c2.5-0.5,4.2-0.7,5.9-1.2c15-4,29.8-8.1,44.8-11.8c4.1-1,6-2.9,7.1-7c8.6-33.1,17.5-66.1,26.3-99.2
			c11.5-43,22.9-86,34.4-129c0.3-1.2,0.6-2.5,1-4.2l-41.2-41.4l-22.8,85.8l-62.1,16.6l31.1-117.1l-6.4,1.7l-112.1,29.7
			c-20.3,5.4-40.6,10.7-60.8,16.2c-3.6,1-6,0.5-8.7-2.3c-12.3-12.7-24.8-25.2-37.2-37.7c-1.1-1.1-2.1-2.4-3.7-4.1l213.9-57.1
			c-0.9-1.3-1.9-2.6-3-3.8c-15.3-15.4-30.7-30.7-45.8-46.3c-2.7-2.8-5-3.3-8.7-2.3c-37.7,10.2-75.4,20.1-113.1,30.4
			c-4.6,1.2-7.3,0.4-10.5-2.9c-11.7-12.2-23.8-24.1-35.7-36.1c-1.4-1.4-2.7-2.9-4.6-5l123.3-32.9c-6.3-7.3-12.6-13-18.5-19.1
			s-11.9-12-17.9-18s-12.1-12.3-18.7-18.9c12.9-13.3,25.9-26.1,39.2-39.4l55.5,55.7l33.3-124.3l45.4,45.4c-2.8,10.7-5.7,21.4-8.5,32
			c-7.8,29.3-15.7,58.6-23.6,87.9c-0.9,3.1-0.7,5.3,1.8,7.8c15.8,15.7,31.5,31.5,47.2,47.2c0.8,0.8,1.6,1.4,2.9,2.4L481,303.1
			l45.4,45.5l-49,184.8c20-5,39-10.3,58.1-15.3s38.4-10.2,57.6-15.4c0.6,4-9.5,43.8-15.7,62.3l-85.2,22.7c1.9,2,3.1,3.5,4.5,4.8
			c10.5,10.6,21.1,21,31.5,31.8c2.8,2.8,5.2,3.6,9.1,2.5c42.7-11.5,85.3-23,128-34.3c33.3-8.9,66.5-17.8,99.8-26.5
			c3.8-1,5.8-2.7,6.8-6.6c3.7-14.8,7.8-29.5,11.7-44.3c0.4-1.5,0.7-3.1,1.3-5.7l-6.3,1.7c-24.5,6.6-49.1,13-73.6,19.9
			c-4.2,1.2-6.7,0.3-9.6-2.7c-12.1-12.4-24.4-24.5-36.6-36.8c-1.4-1.4-2.8-2.9-4.8-5c6.8-2.3,13.2-3.7,19.5-5.4s12.8-3.4,19.2-5.1
			l19.7-5.3l19.2-5.1l19.2-5.1l20.1-5.4L636.2,319.3l16.7-62l157,158.1c0.7-2,1.3-3.5,1.7-5c5.6-20.8,11-41.6,16.7-62.3
			c1-3.7,0.4-6-2.3-8.7c-27.2-27.1-54.4-54.3-81.5-81.6c-1-1.1-2-2.1-3.1-3.1c-2.5-1.9-2.5-4.1-1.7-6.8c2.7-9.6,5.2-19.2,7.8-28.8
			l7.9-29.2l90.7,90.9c7.3-25.4,13.4-50.4,20.5-75.7l53.5,14.5l-19.9,74.9c2.6,1.1,4.6-0.1,6.6-0.6c36.7-9.7,73.3-19.4,109.9-29.2
			l7.1-1.9l-16.4,61.9l-124.1,33.1l-19.4,72.6c36.4-9.5,71.8-19.2,107.2-28.6s71-18.9,107.2-28.6c-0.3,2.1-0.4,3.6-0.8,4.9
			c-4.6,17.4-9.4,34.8-13.8,52.3c-0.9,3.6-2.8,5-6.2,5.9c-28.8,7.6-57.6,15.3-86.4,23.1c-29,7.8-57.9,15.6-86.9,23.5l-5.9,1.6
			c28.5,29.1,56.7,57.1,85.1,86c-1.7,0.7-2.8,1.2-3.9,1.5c-17.6,4.7-35.3,9.2-52.8,14.1c-3.9,1.1-6.3,0.2-9.1-2.7
			c-17.8-18.3-35.9-36.4-53.9-54.6c-1.4-1.4-2.9-2.8-4.7-4.5c-0.7,2-1.2,3.5-1.6,5.1c-4,14.8-7.8,29.5-11.8,44.2
			c-0.9,3.2-0.5,5.3,1.9,7.8C884,638.1,940.6,695,997.1,751.9c0.8,0.8,1.6,1.5,2.5,2.2l53.8-14.3c-20.9-21.4-41.8-41.9-62.5-62.9
			l16.5-62.5l85.9,86.2l49.5-184.3l61.6-16.5c-4.4,18.4-9.5,36.1-14.2,53.9s-9.5,35.5-14.3,53.3c-4.8,17.9-9.6,35.9-14.4,53.8
			c-4.7,17.7-9.5,35.4-14.4,53.8l72.3-19.3l32.9-123.7l61.7-16.5c-1.7,8.6-4.2,16.5-6.2,24.6s-4.4,16.3-6.5,24.5
			c-2.2,8.4-4.4,16.7-6.7,25.1c-2.2,8.2-4.4,16.3-6.6,24.5s-4.3,16.2-6.6,25.3l75.2-20.1l14.4,54l-75.3,20.1L1386.2,824.4z
			 M785.6,618l-5.8,1.5c-75.6,20.2-151.1,40.3-226.7,60.4c-4.3,1.2-6.2,3.2-7.3,7.4c-20.2,76.1-40.4,152.1-60.9,228.1
			c-1,3.7-0.4,6,2.3,8.7c55.8,56,111.5,112.1,167.2,168.2c2.8,2.8,5.1,3.2,8.7,2.2c76.1-20.4,152.2-40.7,228.3-60.9
			c3.7-1,5.3-2.7,6.3-6.4c20.1-75.9,40.4-151.7,60.7-227.5c1.3-4.7,0.6-7.6-2.8-11.1c-46.9-46.7-93.6-93.7-140.2-140.7
			C805.6,638,795.7,628.2,785.6,618z"/>
		<path class="st1" d="M670.9,1047.5c-6.5-6.5-12.8-12.8-19.2-19.2c-38.6-38.9-77.3-77.7-115.9-116.5c-3-3-3.7-5.5-2.6-9.6
			c16-59.5,31.9-119,47.6-178.5c1.2-4.6,3.1-6.9,8-8.2c59.2-15.6,118.4-31.4,177.6-47.4c4.5-1.2,7.3-0.5,10.6,2.8
			c43.3,43.8,86.7,87.5,130.2,131.1c1.3,1.3,2.6,2.6,4.1,4.2c-0.3,1.3-0.5,2.7-0.8,4.1c-16,60.2-32.1,120.5-48.1,180.7
			c-1.1,4.1-2.8,6.3-7.2,7.5c-59.6,15.7-119.2,31.6-178.7,47.6L670.9,1047.5z M755.5,729.3l-127.2,34c-0.4,1-0.8,1.8-1,2.7
			c-10.8,40.5-21.7,81-32.5,121.5c-0.9,3.2,0.1,5.1,2.3,7.2c28.8,28.9,57.6,57.9,86.3,86.9c2.8,2.9,5.3,3.5,9.1,2.4
			c39.1-10.6,78.2-21,117.3-31.4l5-1.3c0.5-1.9,1.1-3.6,1.6-5.3c10.5-39.3,20.9-78.5,31.5-117.8c1-3.8,0.2-6-2.5-8.6
			c-26.5-26.6-53-53.2-79.4-79.8C762.5,736.1,759,732.7,755.5,729.3L755.5,729.3z"/>
		<path class="st2" d="M2996.5,1456.2l-85.4,38l-58.8-132.2c-14.2,18.4-26.6,36.6-40.3,54.7l-75.4-54.6c1.2-1.8,2.2-3.5,3.3-5.1
			c21.4-29.4,42.9-58.9,64.4-88.3c2.8-3.8,3.6-6.7,1.4-11.3c-8.4-18-16.3-36.3-24.4-54.5c-0.8-1.8-1.8-3.6-3.3-6.4l-93,127.9
			l-75.5-54.7c1.3-1.9,2.5-3.8,3.8-5.6c39-53.6,78.1-107.3,117.2-160.8c3.2-4.3,3.4-7.6,1.2-12.4c-8.5-18.2-16.5-36.7-24.6-55.1
			c-1.5-3.5-3.9-6.4-7-8.6c-15-10.7-29.9-21.6-44.8-32.4c-1.7-1.2-3.4-2.3-5.7-3.9c-0.3,2.5-0.7,4.5-0.9,6.5
			c-5.5,52.3-11.1,104.5-16.6,156.8c-0.4,3.9-1.8,7.7-4.2,10.9c-9.3,12.4-18.4,24.9-27.5,37.4c-1.2,1.7-2.5,3.3-4.3,5.5
			c-1-1.8-1.7-2.9-2.2-4.2c-6.5-14.8-13-29.5-19.6-44.3c-1.6-3.6-2.2-7.6-1.7-11.6c5.6-51.6,11.1-103.2,16.5-154.9
			c0.2-2.2,0.3-4.5,0.5-7.4c-2.1,0.7-3.6,1.1-5,1.7c-18,8-36,16-54,24.1c-2.5,1-4.7,2.7-6.4,4.7c-12.8,17.3-25.4,34.8-38.1,52.3
			c-0.7,1-1.3,2.1-2.2,3.5l86,193.1l-85,37.9l-63.6-142.9c-4,2.6-38.3,48.7-43.9,58.8l49,110.1l-85.2,37.9l-27.3-61.2
			c-8.4,10.3-15,20.2-22.2,29.9s-14.1,19.3-21.1,28.9c-7.1,9.8-14.2,19.7-21.4,29.5c-7,9.6-14,19.2-21.3,29.2l-75.6-54.8l85.5-117.6
			l-67.5-7.2l9.8-92.8l121.3,12.6l43.2-59.4l-157.7-16.5l9.8-92.9c3.4,0.3,6.3,0.6,9.1,0.9c65.3,6.8,130.7,13.7,196,20.6
			c4.9,0.5,7.5-0.7,10.3-4.6c11.6-16.4,23.6-32.5,35.3-48.8c1.5-2.1,3-4.7,3.3-7.2c2.3-20.4,4.3-40.8,6.4-61.2c0.1-1,0-2,0.1-4
			l-7.4,3.3c-47.1,21-94.2,41.9-141.2,62.9c-3.6,1.7-7.6,2.3-11.5,1.8c-16.2-1.9-32.5-3.5-48.7-5.2c-1.4-0.2-2.8-0.5-4.8-0.8
			c1.3-1.9,2.2-3.4,3.3-4.9c9.5-13,19.1-25.9,28.6-39c2.1-2.9,4.9-5.1,8.1-6.5c47.7-21.1,95.4-42.3,143-63.6l7.4-3.3
			c-2.1-1.7-3.4-2.8-4.6-3.7c-15.6-11.3-31.1-22.7-46.8-33.9c-2-1.5-4.3-2.5-6.7-2.9c-22.9-2.5-45.8-4.9-68.7-7.3
			c-0.6,0-1.2,0.1-1.7,0.3l-124.8,171.5l-75.6-54.9l93.3-128.4l-73-7.7l-71.8,98.6l-75.6-54.9l39.8-54.9l-144.6-15.2l9.8-92.9
			l144.2,15c-1.8-6-4.4-10.8-6.6-15.9s-4.4-10-6.6-14.9l-6.9-15.5l-6.5-14.7c4-3.3,76.6-36,85-38.4c1,2,2.1,4.2,3.1,6.4
			c14.5,32.5,29.1,65,43.3,97.7c2.3,5.3,5.2,7,10.6,7.4c18.3,1.6,36.6,3.7,55,5.6c3.1,0.3,6.2,0.6,9.9,1c-1.6-6.9-5-12.4-7.4-18.3
			c-2.6-6.2-5.4-12.3-8.1-18.4l-7.9-17.8l-7.9-17.8l-7.9-17.8l-8.2-18.4l-7.9-17.8l-8.1-18.1l85.3-38l3.1,6.9
			c26.8,60.1,53.5,120.2,80.1,180.3c2.1,4.8,4.7,6.8,10,7.3c19.8,1.7,39.6,4,59.3,6.1c3.5,0.5,7.1-0.1,10.3-1.5
			c17.3-7.9,34.8-15.6,52.2-23.3l5.9-2.6c-2.4-1.9-4.1-3.3-5.9-4.6c-41.5-30.1-83-60.2-124.6-90.3c-4.3-3-7.6-7.1-9.7-11.9
			c-5.9-13.7-12.2-27.1-18.4-40.7c-0.8-1.8-1.6-3.7-2.8-6.2c2.7,0.1,4.6,0,6.4,0.2c16.2,1.7,32.5,3.5,48.7,5.1
			c3.1,0.3,6.1,1.4,8.6,3.3c42.1,30.7,84.3,61.3,126.5,91.9c1.8,1.3,3.7,2.5,6.1,4.2c0.4-2.6,0.8-4.3,1-6.1c2-19.2,4-38.3,6.1-57.5
			c0.4-3.3-0.1-6.7-1.6-9.7c-8.3-18.3-16.5-36.7-24.5-55.1c-1.8-4.2-4.1-5.9-8.7-6.4c-66.2-6.8-132.4-13.6-198.6-20.6
			c-2.1-0.2-4.1-0.5-6.9-0.9l9.8-92.8l157.3,16.4c-0.8-2.4-1.3-4.1-2-5.7c-8.3-18.8-16.8-37.5-24.9-56.3c-1.7-3.9-4-5.1-7.9-5.5
			c-36.4-3.7-72.9-7.5-109.3-11.4c-1.9-0.2-3.7-0.5-6.4-0.8l9.9-92.8l66.5,6.9c-0.6-5.8-3.7-10.1-5.6-14.8c-2-5-4.4-10-6.6-14.9
			l-6.4-14.4l-6.7-14.8l-6.4-14.4l-6.7-14.9l-6.4-14.4l-6.6-14.9l-6.5-14.5l85.2-37.9l58.8,132.1c14.1-18.3,26.5-36.5,40.3-54.8
			c25.3,18,50.1,36.4,75.6,54.7l-71.6,98.6l29.7,66.7c11-14.3,21-28.6,31.3-42.7s20.5-28.1,30.7-42.1s20.6-28.4,31.4-43.2l75.6,54.9
			c-41.6,57.5-83.3,114.5-124.9,171.8c0.6,1.5,1.1,3.1,1.7,4.6c8.4,19,16.8,37.9,25.4,56.8c1,2.5,2.7,4.6,4.8,6.3
			c16.8,12.4,33.8,24.7,50.8,36.9c0.6,0.5,1.3,0.8,2.5,1.5c0.4-2.7,0.8-4.9,1-7.2c5.5-51.4,10.8-102.8,16.2-154.2
			c0.3-4.2,1.8-8.1,4.3-11.5c9.4-12.8,18.6-25.8,27.9-38.7c0.9-1.3,2-2.5,3.4-4.3c1.1,2.2,2.1,3.8,2.8,5.4
			c6.6,14.7,13.1,29.5,19.8,44.2c1.5,3.2,2,6.8,1.6,10.3c-5.5,51.6-11,103.2-16.4,154.9c-0.2,2.2-0.3,4.5-0.5,7.3
			c2.1-0.8,3.7-1.3,5.1-2c17.8-7.9,35.6-15.9,53.4-23.7c2.7-1.1,5-3,6.7-5.3c12.1-16.8,24.2-33.6,36.6-50.2
			c2.6-3.5,2.7-6.3,0.9-10.2c-26.9-60.2-53.8-120.5-80.6-180.8l-3.4-7.6l84.4-37.5c0.3,0.1,0.5,0.1,0.7,0.2c0.2,0.1,0.4,0.2,0.5,0.3
			c0.3,0.3,0.5,0.6,0.7,1c21,47.1,41.9,94.2,63.3,142.1c1.6-1.8,2.8-3,3.9-4.4c12.2-16.7,24.3-33.6,36.6-50.2c2.5-3.4,2.5-6,0.8-9.6
			c-14.8-32.9-29.4-65.8-44-98.7l-3.1-7.1l85.1-37.9l27.5,61.7c10.4-13.4,19.5-26.5,28.9-39.3s18.7-25.7,28.1-38.6l28.9-39.7
			l75.5,54.7c-13.9,19.8-28.2,39-42.3,58.4s-28.3,38.9-43.1,59.3l67.5,7.2l-9.9,92.7c-2.6-0.2-4.8-0.2-7-0.5
			c-36-3.8-72-7.4-108-11.4c-4.9-0.5-7.5,0.8-10.3,4.7c-11.6,16.4-23.5,32.6-35.4,48.8c-1.1,1.5-2.1,3-3.6,5.4l157.6,16.5l-9.8,92.9
			l-211.6-22.1c-4.9,6.8-9.8,13.6-14.7,20.3c-8.6,11.8-17.3,23.6-25.8,35.5c-1.5,2-2.5,4.3-2.9,6.7c-2.3,20.6-4.4,41.2-6.6,61.8
			c0,0.9,0.1,1.7,0.3,2.6c2.2-0.9,4.3-1.6,6.3-2.4c47.7-21.2,95.3-42.4,143-63.7c3.8-1.8,8-2.5,12.1-2c17.5,1.8,35,3.5,53.1,5.2
			c-1.1,1.8-1.8,3.2-2.7,4.4c-9.7,13.4-19.5,26.7-29.1,40.2c-2.2,3-5.2,5.4-8.7,6.8c-47.3,21-94.6,42-141.9,63.1l-6.8,3
			c1.9,1.6,3,2.7,4.3,3.7c15.9,11.6,31.8,23.1,47.8,34.7c1.8,1.4,3.9,2.3,6.2,2.6c22.7,2.5,45.4,4.8,68.5,7.2L3103,590.9l75.6,54.8
			L3085.3,774l72.9,7.7l71.8-98.6l75.6,54.8l-39.8,54.8c16.5,2.4,32.4,3.6,48.3,5.3s31.6,3.3,47.4,5l48.7,5.1l-9.8,92.9L3256,886
			c9.2,21.1,18.3,41,27,60.9c-3.9,3.2-73.7,34.7-85,38.4c-8.2-18.4-16.4-36.8-24.7-55.3c-8.2-18.3-16.4-36.7-24.6-55.3l-72.8-7.6
			l63.8,143.3c-3.8,3.4-76.6,36.2-85.5,38.7l-3.2-7.1c-26.7-59.9-53.3-119.8-79.9-179.8c-2-4.5-4.4-6.6-9.6-7.1c-20-1.8-40-4.1-60-6
			c-2.7-0.3-5.4,0-7.9,0.9c-19,8.3-37.9,16.8-56.9,25.2c-0.9,0.5-1.8,1-2.6,1.6c1.4,1.3,2.5,2.4,3.8,3.3
			c42.3,30.8,84.7,61.5,127.1,92.2c3.8,2.6,6.7,6.3,8.4,10.5c6.1,14.3,12.5,28.4,18.7,42.6c0.7,1.5,1.2,3.1,2.1,5.3
			c-2,0-3.6,0.1-5.1-0.1c-16.2-1.7-32.4-3.6-48.7-5.2c-3.3-0.3-6.5-1.5-9.1-3.6c-42.7-31-85.4-62-128.1-93c-1.7-1.2-3.4-2.4-5.6-3.9
			c-0.4,2.3-0.7,4.1-0.9,5.9c-2,19.2-4,38.3-6.1,57.5c-0.3,3.1,0.2,6.3,1.6,9.1c8.5,18.9,17,37.8,25.2,56.9c1.7,4,4,5.5,8.3,6
			c66.8,6.8,133.6,13.8,200.4,20.9c1.4,0.2,2.9,0.3,5.3,0.6c-3.1,30.9-6.5,61.6-9.8,92.9l-157.5-16.5l29.9,67l120.9,12.7l-9.8,92.9
			l-67.6-7L2996.5,1456.2z M2617.4,720.2c0.3-1.1,0.6-2.1,0.8-3.2c3.1-28.7,6.1-57.4,9.2-86.1c0.4-3.5-1-5.3-3.6-7.2
			c-23-16.7-46-33.4-69-50.2c-1.2-0.7-2.4-1.3-3.6-1.8c-0.2,0.5-0.4,1.1-0.5,1.7c-3,29.3-6,58.7-9.2,88c-0.3,3,0.8,4.6,3,6.2
			c9,6.4,18,13,26.9,19.5L2617.4,720.2z M2581.9,768.7c-1.7-1.4-2.9-2.5-4.2-3.4c-22.2-16.1-44.4-32.1-66.5-48.4
			c-3.6-2.7-6.4-2.6-10.2-0.8c-24.2,11-48.6,21.7-72.9,32.5c-1.8,0.8-3.6,1.8-6.2,3.2l74.9,54.8L2581.9,768.7z M2762.5,688.4
			l9.4-92.4c-2,0.7-3.2,1-4.3,1.4c-25.4,11.3-50.8,22.7-76.3,33.8c-3.5,1.5-4.4,3.8-4.7,7.2c-2.8,27.3-5.7,54.5-8.6,81.7
			c-0.2,1.8-0.2,3.6-0.3,5.9L2762.5,688.4z M2511.2,954.4l86-38.3l9.7-92.3l-86.2,38.4L2511.2,954.4z M2666.9,829.9
			c-0.3,0.7-0.5,1.4-0.6,2.1c-3.1,28.9-6.1,57.9-9.3,86.8c-0.4,3.3,0.9,4.9,3.3,6.6c22.8,16.4,45.5,32.8,68.3,49.2
			c0.9,0.7,1.9,1.1,3.6,2l9.9-92.2L2666.9,829.9z M2862.5,797.9c-1.4-1.2-1.9-1.8-2.6-2.3c-22.8-16.6-45.7-33.2-68.4-50
			c-3.1-2.3-5.4-2-8.5-0.6c-24.8,11.2-49.7,22.2-74.6,33.3c-1.8,0.8-3.6,1.8-6.3,3.2l75,54.4L2862.5,797.9z"/>
		<rect y="867.5" class="st1" width="3533.2" height="658"/>
		<rect y="1525.5" class="st3" width="3533.2" height="209"/>
	</g>
</g>
</svg>
