<svg xmlns="http://www.w3.org/2000/svg" viewBox="0 0 328.23 232.68"><defs><style>.cls-1{fill:#231f20;}.cls-2{fill:#bce5ee;}.cls-3{fill:#97d7e2;}.cls-4{fill:#e8ecee;stroke:#231f20;stroke-miterlimit:10;stroke-width:1.93px;}.cls-5{fill:#f69799;}</style></defs><title>icecube</title><g id="Layer_2" data-name="Layer 2"><g id="Layer_11" data-name="Layer 11"><path class="cls-1" d="M185.29,230.93c-6.06-.6-12.81-2.39-15-3.91-3.19-2.22-1.38-14.31-1.14-17.45l3-40.67c.23-3.14,3.7-2.31,8-2h0c1.59,8.14.22,45.15,3.52,47.43,12.84,8.88,27.75,16.05,15.94,16.92A63,63,0,0,1,185.29,230.93Z"/><path class="cls-1" d="M132.41,232.09c-6.06-.6-12.81-2.39-15-3.91-3.19-2.22-1.38-14.31-1.14-17.45l3-40.67c.23-3.14,3.7-2.31,8-2h0c1.59,8.14.22,45.15,3.52,47.43,12.84,8.88,27.75,16.05,15.94,16.92A63,63,0,0,1,132.41,232.09Z"/><path class="cls-1" d="M195.76,91.74c33.14,24.48,84.71,35.65,107.31,0,1-1.54,3.32-1.49,3.32-3.32h0c0-1.82-2.11-4.68-3.32-3.32-40.15,45.63-82.36,10.43-107.31,0-1.68-.7-3.32,1.49-3.32,3.32h0C192.44,90.25,194.29,90.66,195.76,91.74Z"/><rect class="cls-2" x="85.97" width="159.27" height="159.27" transform="translate(331.22 159.27) rotate(-180)"/><polygon class="cls-3" points="51.32 174.12 85.97 159.27 85.97 0 51.32 21.55 51.32 174.12"/><polygon class="cls-3" points="51.32 174.12 217.29 174.12 245.25 159.27 85.97 159.27 51.32 174.12"/><circle class="cls-1" cx="212.33" cy="53.33" r="6.73"/><circle class="cls-1" cx="129.97" cy="53.33" r="6.73"/><path class="cls-1" d="M44.85,127c11.52-14.72,21.89-19.8,26.65-26.16,1.48-1.7,2.07-2.55.38-4h0a4.1,4.1,0,0,0-5.77.39S27.56,130,18.16,155.51c-.78,2.11-3.93,14.66.85,10.09,1.11-1.06,9.72-17,10.28-18C32.55,142.22,42.29,130.23,44.85,127Z"/><path class="cls-4" d="M2.47,158.48c4.32-6.25,8.17-8.95,11.84-9.7-1.68-1.73-2.43-3.39-1.9-4.62,1.14-2.64,7.79-2.32,14.85.73s11.86,7.66,10.71,10.3c-.4.92-1.46,1.48-3,1.69,1.68,2,3,5.51,3.5,9.56.78,6.71-1.12,12.45-4.26,12.81-2.74.32-5.52-3.57-6.69-9-4.48,6.47-5.51,15.32-12.86,12.15C6.08,178.65-2.6,165.82,2.47,158.48Z"/><path class="cls-5" d="M148.28,87.06c.36,4.67,10.43,8.48,23.3,8.48s22.82-3.82,23.3-8.48c1.12-10.86-10.43-8.48-23.3-8.48S147.45,76.2,148.28,87.06Z"/><path class="cls-4" d="M294.7,81.52a17.78,17.78,0,0,1-2.82-3.28c-3-4.47-3.61-9.35-1.32-10.89,1.86-1.26,5.06.09,7.82,3A22.37,22.37,0,0,1,299.7,68c5.66-8.94,9.19-14.78,17.36-9.61S330.58,74,324.92,82.93c-3.49,5.51-8.55,8.54-13.5,9A3.8,3.8,0,0,1,311,94.1c-1.22,2.3-3.95,2.93-10.87-.76S289.82,85,291,82.75C291.57,81.77,292.86,81.37,294.7,81.52Z"/><path class="cls-1" d="M119.46,28.39c.34,1,5.31-3.54,11.16-5.36s11.57-1.18,11.23-2.22-5.48-2-11.92.09S119.13,27.35,119.46,28.39Z"/><path class="cls-1" d="M223.52,28.4c-.34,1-5.31-3.54-11.16-5.37s-11.57-1.19-11.23-2.23,5.48-2,11.92.1S223.86,27.36,223.52,28.4Z"/></g></g></svg>