<svg xmlns="http://www.w3.org/2000/svg" viewBox="0 0 336.12 269.72"><defs><style>.cls-1{fill:#009444;}.cls-2{fill:#231f20;}.cls-3{fill:#e8ecee;stroke:#231f20;stroke-miterlimit:10;stroke-width:2.09px;}.cls-4{fill:#f7941d;}.cls-5{fill:#f36e24;}.cls-6{fill:#d35461;}</style></defs><title>Asset 8</title><g id="Layer_2" data-name="Layer 2"><g id="Layer_11" data-name="Layer 11"><polygon class="cls-1" points="125.53 50.05 131.9 49.72 132.74 32.81 124.26 34.34 125.53 50.05"/><path class="cls-1" d="M2.17,34.09C-10.76,29.19,36.65,56.53,75.43,52s75.66-20.64,74-35.05-10.59-21.07-49-14.32C62.59,9.29,26.86,43.46,2.17,34.09Z"/><path class="cls-2" d="M283.74,124.11c23.68-16.1,30.33-37,36-29.85,2,2.48-16.19,29.8-41.83,42.56-24.8,12.35-35.6,14.24-37.57,11.76C233.37,139.79,260.06,140.21,283.74,124.11Z"/><path class="cls-3" d="M335.07,92.46c-.19-11.05-9-20.61-20-20-7.36.4-9.83,5.94-15,13.47-2.72-5.48-4.6-7.53-10.15-5.59-2.9,1-3.22,6.81-.83,12.58a34.64,34.64,0,0,0,5.07,8.4,2.74,2.74,0,0,0-.95.94c-1.54,2.66,2,7.61,8,11.05s12,4.07,13.57,1.41a3.11,3.11,0,0,0,.26-2.24h0C326.52,112.24,335.26,103.4,335.07,92.46Z"/><ellipse class="cls-4" cx="146.85" cy="151.51" rx="114.93" ry="105.33"/><path class="cls-5" d="M162.86,242.56c-61.32,0-111-46.34-111-103.5,0-32.76,16.33-62,41.81-80.92C57,75.72,31.91,110.94,31.91,151.51c0,58.17,51.46,105.33,114.93,105.33,37.86,0,71.45-16.78,92.39-42.67A115.05,115.05,0,0,1,162.86,242.56Z"/><circle class="cls-2" cx="114.45" cy="127.42" r="6.69" transform="translate(-6.79 6.45) rotate(-3.13)"/><circle class="cls-2" cx="209.14" cy="117.66" r="6.69" transform="translate(-6.12 11.61) rotate(-3.13)"/><path class="cls-2" d="M124.45,90.82c.39,1.19-6.1-1.11-13.3,1.24s-11,7.59-11.36,6.4,3.46-6.21,10.66-8.56S124.06,89.63,124.45,90.82Z"/><path class="cls-2" d="M194.55,87.3c-.19,1.24,5.69-1.55,13.17-.39s12.15,5.65,12.34,4.41-4.51-5.49-12-6.65S194.74,86.06,194.55,87.3Z"/><path class="cls-6" d="M190.57,150.56c-1.68,6.7-9.53,12.55-21.45,12.67s-19.95-5.59-21.7-12.24c-2.16-8.24,1.06-11.66,21.45-12.67C191.69,137.18,192.24,143.88,190.57,150.56Z"/><path class="cls-2" d="M34.6,207c-2.57,28.52,8.21,53.38-.94,53.23-3.17,0-12.78-31.41-6.4-59.33,6.17-27,11.55-36.56,14.72-36.51C53.21,164.61,37.17,178.53,34.6,207Z"/><path class="cls-3" d="M54.61,238.65A23.83,23.83,0,0,0,43,233c1.14-.85,1.76-1.78,1.67-2.69-.26-2.78-6.83-4.44-14.68-3.7s-14,3.59-13.74,6.37c.11,1.22,1.45,2.23,3.58,2.91-4.55,3-7.79,8.71-5.26,20.48C17,267.61,30,270,39.79,268.09c9.29-1.79,12.12-6.92,10.55-17,2.89,1.27,5.68,1.24,7.28-.36C60.14,248.26,58.79,242.83,54.61,238.65Z"/></g></g></svg>