<svg xmlns="http://www.w3.org/2000/svg" viewBox="0 0 451.65 906.02"><defs><style>.cls-1{fill:#231f20;}.cls-2{fill:#e8ecee;stroke:#231f20;stroke-miterlimit:10;stroke-width:2.39px;}.cls-3{fill:#ffd469;}.cls-4{fill:#fee96b;}.cls-5{fill:#b5c962;}.cls-6{fill:#cad86e;}</style></defs><title>corn</title><g id="Layer_2" data-name="Layer 2"><g id="Layer_14" data-name="Layer 14"><path class="cls-1" d="M292.28,904.9c4.86-.56,14.75-3.09,12.75-10.88-7.71-30-12.92-125.76-12.92-125.76.08-8,6.82-35,.35-35.09l-6,35.2c-6.47-.06-5.76,4.46-5.4,12.49,4.12,91.93-1.55,101.44-1.55,101.44C212.72,907.83,270.61,907.42,292.28,904.9Z"/><path class="cls-1" d="M229.21,903.59c4.89-.23,14.92-2.09,13.46-10-5.66-30.48-4.38-126.35-4.38-126.35.62-8,9.17-34.49,2.72-35L232.61,767c-6.45-.5-6,4.06-6.23,12.09-2.11,92-8.41,101.1-8.41,101.1C149.63,901.13,207.41,904.64,229.21,903.59Z"/><path class="cls-1" d="M123.79,470c-10.26,49.58-4.54,71.8-14.89,82.11-6.16,6.13-9.24-22.82.35-69.27s35.21-83,39.74-82C161.88,403.42,131.73,431.64,123.79,470Z"/><path class="cls-2" d="M135,541.34a28.56,28.56,0,0,0-10.41-9.93,1.93,1.93,0,0,0,.34-.84c.33-3.12-7.79-6.54-18.13-7.63s-19,.55-19.32,3.68c-.17,1.6,1.89,3.28,5.33,4.68A28.8,28.8,0,0,0,82.32,551c-1.55,14.72,7.3,27.71,19.78,29,21.89,2.31,18.5-8.52,20.05-23.23.17-1.62.28-3.24.32-4.83,4.19,5.86,9.72,8.93,13.16,7C139.56,556.77,139.27,548.87,135,541.34Z"/><path class="cls-3" d="M415.18,295.82a24,24,0,0,0-11.26-20.33,24,24,0,0,0-4.84-34.86,24,24,0,0,0-10.74-30.82c-.18-.83-.36-1.65-.54-2.48a23.93,23.93,0,0,0-6.37-31.48A24,24,0,0,0,377.64,142a23.92,23.92,0,0,0-9-30.52,23.95,23.95,0,0,0-12.5-30.63,24,24,0,0,0-19.84-36.26,24,24,0,0,0-23.6-28.47c-.68,0-1.35,0-2,.1a24,24,0,0,0-45.49.26,24,24,0,0,0-27.58,28.13,24,24,0,0,0-19.91,35.6,23.93,23.93,0,0,0-14.41,30.45,24,24,0,0,0-9.14,33.57A24,24,0,0,0,180.66,173a23.91,23.91,0,0,0-5.07,27.52,24,24,0,0,0-4.25,32.8,24,24,0,0,0,5.13,45.82c-6.94,36.75-14.07,75.57-22,115.11,53.63-25.41,116-40,182.56-40a445.48,445.48,0,0,1,75.92,6.48q-3-23.62-6.3-46.57A24,24,0,0,0,415.18,295.82Z"/><path class="cls-4" d="M387.29,314.17a24,24,0,0,0-2.72-38.68,24,24,0,0,0-4.84-34.86A24,24,0,0,0,369,209.82c-.18-.83-.36-1.65-.54-2.48a23.93,23.93,0,0,0-6.37-31.48A24,24,0,0,0,358.29,142a23.92,23.92,0,0,0-9-30.52,23.95,23.95,0,0,0-12.5-30.63A24,24,0,0,0,317,44.57a24,24,0,0,0-23.6-28.47c-.68,0-1.35,0-2,.1A24.1,24.1,0,0,0,279,2.36a24.09,24.09,0,0,0-12.45,14.1A24,24,0,0,0,239,44.59a24,24,0,0,0-19.91,35.6,23.93,23.93,0,0,0-14.41,30.45,24,24,0,0,0-9.14,33.57A24,24,0,0,0,182,173a23.91,23.91,0,0,0-5.07,27.52,24,24,0,0,0-4.25,32.8,24,24,0,0,0,5.13,45.82c-6.36,33.69-12.89,69.12-20,105.25,48.25-19.28,102.52-30.12,159.92-30.12q5.21,0,10.39.13c3.42-.08,6.85-.13,10.29-.13a447.31,447.31,0,0,1,54.85,3.38Q390.4,335.62,387.29,314.17Z"/><path class="cls-5" d="M223.11,344.22c-118.1,20.67-42.7,432.63,8.71,447.36,85.64,24.53,150.91-118.38,178.56-265.24,28.81-153,72.69-279.42,2.48-366.79C397.38,140.28,521.48,292,223.11,344.22Z"/><path class="cls-6" d="M284.8,400c51.12,112.85,15,369.32-38.27,387.62-77.08,26.46-100.6-253.25-129.93-400.12C86,234.47,35,235.27,3.07,235.27-26.7,235.27,167.1,140.19,284.8,400Z"/><circle class="cls-1" cx="221.95" cy="180.58" r="8.27"/><circle class="cls-1" cx="311.29" cy="184.82" r="8.27"/><path class="cls-1" d="M298.37,205.25c.9,3.67-6.64,14.79-18.58,17.71s-23.75-3.47-24.65-7.14c0,0,11.94,6.89,23.88,4S298.37,205.25,298.37,205.25Z"/><path class="cls-1" d="M236.35,122.87c.51,1.1-4.48,2.06-10,4.6s-9.49,5.7-10,4.6,3.56-4,9.08-6.59S235.85,121.77,236.35,122.87Z"/><path class="cls-1" d="M332.5,137c-.56,1.07-4.37-2.28-9.76-5.08s-10.32-4-9.76-5.08,5.38.34,10.77,3.14S333.06,135.94,332.5,137Z"/><path class="cls-1" d="M416.87,484.2c5,50.38-3,71.88,6.18,83.22,5.48,6.75,11.58-21.72,6.92-68.93s-26.3-86.21-30.91-85.75C386,414,413,445.26,416.87,484.2Z"/><path class="cls-2" d="M399.09,549.05a28.56,28.56,0,0,1,11.39-8.78,1.93,1.93,0,0,1-.25-.88c0-3.14,8.43-5.69,18.83-5.69s18.83,2.55,18.83,5.69c0,1.61-2.23,3.06-5.79,4.1a28.8,28.8,0,0,1,8.35,20.75c0,14.8-10.17,26.79-22.72,26.79-22,0-17.5-10.41-17.5-25.21,0-1.63.06-3.25.19-4.83-4.78,5.39-10.6,7.86-13.82,5.56C392.94,563.92,394.05,556.09,399.09,549.05Z"/></g></g></svg>