<svg xmlns="http://www.w3.org/2000/svg" viewBox="0 0 262.49 291.15"><defs><style>.cls-1{fill:#fff;}</style></defs><title>avoid</title><g id="Layer_2" data-name="Layer 2"><g id="Layer_7" data-name="Layer 7"><g id="bRhnGH.tif"><path class="cls-1" d="M.15.22H262.64V291.37H.15ZM204.67,80.13c-2.55-1.77-5.1-3.55-7.66-5.31a6.87,6.87,0,0,0-1.13-.59A118.23,118.23,0,0,0,158,64.44l-5.9-.5V59.38c-1.88,1.09-1.25,2.93-1.44,4.39h-7.83a10.17,10.17,0,0,1,2.23-1.32A55.09,55.09,0,0,0,158,54.22c4.34-3.84,6.84-8.52,6.58-14.5a19.63,19.63,0,0,0-4.39-11.14A124.64,124.64,0,0,0,136.67,5.35,23.75,23.75,0,0,0,121.35.46,4.67,4.67,0,0,0,120,.6a3.7,3.7,0,0,0-.94.71c.3.25.57.62.91.72a6.2,6.2,0,0,0,1.77.2A24,24,0,0,1,138.24,8.7q6.29,5.54,12.3,11.39A62.16,62.16,0,0,1,160.36,32,15.75,15.75,0,0,1,157.6,52.3a48,48,0,0,1-11.72,7.94c-2.17,1.06-4.45,1.91-6.7,2.79a1.68,1.68,0,0,1-2.53-1.22,17.13,17.13,0,0,0-1.77-3.53,1.1,1.1,0,0,0-1.75-.35c-.63.57-.22,1,.16,1.64a30.26,30.26,0,0,1,1.58,3.06l-1.31,1.71c-1.57.23-3.43.47-5.27.8A94.47,94.47,0,0,0,97.23,76.95,117.27,117.27,0,0,0,67.4,102.25c-1.62,1.88-3.21,3.79-4.82,5.69C73.1,84.57,89.4,67.35,114.47,59.34a2.79,2.79,0,0,0-1.93-.4c-2.62.9-5.24,1.81-7.78,2.92A79.51,79.51,0,0,0,85.44,73.54c-11.1,9.23-18.58,21.15-25,33.85C58,112.3,56,117.45,52.87,122a46.66,46.66,0,0,0-3.29,5.78,3.47,3.47,0,0,1-2.45,2,6.43,6.43,0,0,0-2.07.9A8.53,8.53,0,0,0,43.71,132c-2.22-1.36-4.25-2.59-6.25-3.84a2.54,2.54,0,0,1-.42-3c1.66-1.78,3.33-3.54,5.06-5.25A4.7,4.7,0,0,1,46,118.32c.15,0,.32-.17.52-.28a3,3,0,0,0-4,0c-1.62,1.16-3.1,2.53-4.62,3.83-.47.4-.91.85-1.12,1.05l-1.42-1.2a13.36,13.36,0,0,0-.82,1.55,2.23,2.23,0,0,0,0,1c.13,1-.36,1.68-1.41,2.34a14.64,14.64,0,0,1-.33-2.05c0-2.09,0-4.18,0-6.27a3.91,3.91,0,0,0-.42-2c-.47-.73-.22-1.1.25-1.63,2.7-3.13,5.52-6.18,8-9.47A256,256,0,0,0,60.44,73.72C68.26,59.57,76,45.39,83.92,31.27a59,59,0,0,1,17-19.36C106.17,8.13,111.79,5.44,118.3,5c2.59-.19,5.2-.22,7.79-.41.43,0,.82-.51,1.23-.78a3.75,3.75,0,0,0-1.27-.5c-2,0-4,.23-6,.2a30.73,30.73,0,0,0-15.77,4.17,57.82,57.82,0,0,0-22,22.16c-6.8,11.89-13.33,23.93-20.1,35.84-5,8.72-9.94,17.42-15.18,26a124.22,124.22,0,0,1-16.75,21.93,5.11,5.11,0,0,1-1.79,1c-1.56.62-3.37.86-4.7,1.79-2.25,1.59-4.16,3.63-6.29,5.41a6.2,6.2,0,0,1-2.66,1.54c-3.8.61-7.63,1-11.6,1.51,3.57,1.62,7.34.86,11.14.89-.18.37-.26.56-.37.73A87.89,87.89,0,0,0,2.83,155.05c-.67,3.3-1.14,6.64-.15,10l-.59.09c-.79.14-1.83.11-1.68,1.27s1.15.71,1.87.78a15.44,15.44,0,0,1,3.62.52,56.34,56.34,0,0,1,13.73,7.34c11.5,8.27,22.88,16.71,34.38,25,2.87,2.07,5.62,4.12,7.21,7.4.37.77-.11,3.9-.82,4.35a1.16,1.16,0,0,1-.73.15c-1.1-.17-1.5.45-1.54,1.38-.12,2.93-1,5.89.45,9-1-.7-2-.91-1.54-2.25a3.15,3.15,0,0,0-.07-1.21c-.4.16-.92.22-1.19.5a2.6,2.6,0,0,0,.48,3.94A18,18,0,0,0,61.43,226a77.47,77.47,0,0,0,9.15,1.74c2.57.39,5.16.71,7.75.84,3.35.17,3.45.08,3.52,3.45.14,7,.2,14,.22,21a38.75,38.75,0,0,1-.41,4.84c-.22,1.78-.62,3.54-.75,5.32,0,.49.6,1,.93,1.56a6.48,6.48,0,0,0,1.47-1.11,3.75,3.75,0,0,0,.35-1.48c1.49-7.61,1-15.3.88-23-.07-3.17-.41-6.34-.63-9.61,2.9,1.61,5.77,3.06,7.43,6.19a114.91,114.91,0,0,1,10.61,27c.17.71.08,1.15-.56,1.48-1.67.84-3.29,1.82-5,2.5-3.51,1.38-7.21,1.08-10.88,1a25.67,25.67,0,0,0-3.57.14c-.36,0-.67.54-1,.83.32.34.58.86,1,1a10.36,10.36,0,0,0,2.27.34c4.43.42,8.88.89,13.17-.73,2-.74,3.85-1.76,5.85-2.69.1.15.24.35.37.56,1,1.62,1.83,2,3.59,1.34.68-.24,1.31-.62,2-.92.3-.13.67-.37.94-.29,2.66.7,4.56-.6,6.24-2.35a48.32,48.32,0,0,0,11.38-19.06c.5-1.57.46-1.59,2.26-1.08-.18,3.57-.25,7.19-.57,10.79-.63,7.09-1.56,14.16-2,21.27-.16,2.39-1.13,3.16-3.14,3.88-5.66,2-11.23,4.31-16.84,6.48-.81.31-1.7.53-1.49,1.7.24,1.36.83,1.81,2.22,1.7.68-.05,1.36-.15,2-.25q13.48-2,27-4a2.73,2.73,0,0,1,1.32.15c.91.35,1.54,0,1.58-.84.1-2.05.66-4.07.16-6.18a44,44,0,0,1-.63-5.46c-.73-6.83-1.42-13.66-2.22-20.48-.32-2.74-.87-5.46-1.34-8.37,10.84.38,21.56.6,32.39-.48-.32,1.19.28,2.45-1,3.22-.2.12-.24.63-.23,1a30.39,30.39,0,0,0,.21,4.08,76.14,76.14,0,0,1,1.12,13.75c-.11,5.76,0,11.52,0,17.29,0,1.86.18,3.72.28,5.71l2.72-.5.11-2.2c1.43-.1.72,1.37,1.52,1.87,2.47-.51,5-1.09,7.64-1.58,5-.93,10-1.87,15-2.69,2.35-.39,4.75-.5,7.11-.79.33,0,.62-.4.92-.61-.28-.28-.51-.66-.85-.82a3.16,3.16,0,0,0-1.14-.08c-1.06,0-2.14,0-3.19-.14-4.32-.44-8.64-.93-13-1.35-1.27-.12-2.56,0-3.84,0-.72,0-1-.29-1.06-1.07q-.78-10.2-1.65-20.39c-.34-4.08-.75-8.15-1.1-12.23-.09-1.08.21-2.28-1.25-2.75-.17-.06-.22-.5-.35-.82.4-.11.73-.2,1.05-.28,3.49-.79,7-1.5,10.48-2.38,20.33-5.13,38-14.79,51.93-30.73,7.52-8.59,13.71-18,17.55-28.77a77.11,77.11,0,0,0,4.23-25.25,62.1,62.1,0,0,0-.4-9.32c-1.32-9.27-5-17.69-10-25.54a121.85,121.85,0,0,0-25-28,79.52,79.52,0,0,0-8.81-6.57c-3.21-2-6.7-3.54-10.08-5.26a7.31,7.31,0,0,0-1.19-.37Z" transform="translate(-0.15 -0.22)"/><path class="cls-1" d="M204.67,80.13l1.5,1c.38.26.75.55,1.15.79a130.6,130.6,0,0,1,34.33,28.84c6.53,7.81,12,16.24,15.54,25.87,4,11,3.54,22.14,1.69,33.34-2.09,12.61-7.69,23.7-15.54,33.7s-16.88,18.44-27.93,24.67c-12.58,7.09-26.27,10.87-40.38,13.34-.89.16-1.85-.07-2.75.06s-1.82.59-2.75.73c-7.67,1.17-15.41.86-23.13.92a12.87,12.87,0,0,1-1.38-.17l1.1-.55c3.4-1.78,7-3.33,10.15-5.42a67.23,67.23,0,0,0,7.49-6.33,1.25,1.25,0,0,0,0-2.1c-.81-.58-1.54-.15-2.12.51-.36.41-.67.87-1.06,1.26-5.07,5.06-11.4,8-17.94,10.6a9.54,9.54,0,0,1-3.39.51c-2.62,0-2.42.68-3.13-2.46a9.75,9.75,0,0,1,0-3.34,12.14,12.14,0,0,1,.79-2.63,1.79,1.79,0,0,1,.71-1c2.91-1.32,5.87-2.52,8.76-3.88,2.65-1.25,3.11-3.65,1.08-5.8-1.31-1.39-2.85-2.57-4.29-3.84-.36-.32-.73-.63-1.26-1.08a45.63,45.63,0,0,1,11.52-1.45,5.28,5.28,0,0,1,5.47,4.27c.2.7.3,1.42.55,2.1.1.27.52.66.68.61s.71-.44.74-.71a6.35,6.35,0,0,0,0-2.65,5.54,5.54,0,0,1,.11-4.24c.84-2,1.58-4,2.43-6a6.1,6.1,0,0,1,1.06-1.27,7.73,7.73,0,0,1,.41.75,42.13,42.13,0,0,1,2.56,13.65c0,.32-.41.78-.75,1-1.16.63-2.44,1.06-3.54,1.77a2.13,2.13,0,0,0-.83,1.64c0,.32.91.77,1.45.84,1.05.12,2.13,0,3.19,0,.39,0,1.07.27,1.08.46a2.31,2.31,0,0,1-.39,1.46c-.34.46-1,.69-1.34,1.16a1.49,1.49,0,0,0-.15,1.34,1.45,1.45,0,0,0,1.29.4,4.88,4.88,0,0,0,3.26-4.43,1.4,1.4,0,0,1,.76-1c1.49-.52,3-.95,4.54-1.34.3-.08.66.12,1,.2a6,6,0,0,0,2,.41,12.35,12.35,0,0,0,2.67-.86,127,127,0,0,0,19.78-10.16c4.16-2.5,8.2-5.11,12.9-6.69a54.78,54.78,0,0,0,23.61-15.26c3.42-3.78,6.59-7.75,8.46-12.56a19.63,19.63,0,0,0,1.09-4.06,2,2,0,0,0-.69-1.68c-.43-.21-1.22.19-1.79.45-.25.11-.35.54-.54.87-1.27-1.68-2.06-1.7-3.11-.33a94.42,94.42,0,0,1-12.63,13.56c-.33.29-.67.55-1.25,1a12.38,12.38,0,0,0,.31-2.34,5.36,5.36,0,0,0-.6-1.52,4.85,4.85,0,0,0-1.13,1c-.37.66-.47,1.48-.84,2.14-.95,1.69-1.63,3.78-3.05,4.92a64.09,64.09,0,0,1-15.72,9.74c-4.69,1.93-9.39,3.87-14,5.9a16,16,0,0,1-6,1.62c-2.6.08-5.2.26-7.79.37-.84,0-1.63.19-1.6,1.21s.79,1.2,1.64,1.19h3.56v.45c-1.81.11-3.63.25-5.44.33s-3.58.07-5.36.18a1.42,1.42,0,0,0-1.08.64c-.11.29.22.82.49,1.14.68.79,1.43,1.52,2.1,2.22-.29.21-.84.43-.84.64,0,1.49-1.21,1.13-2,1.56l-.36-3.35a35.24,35.24,0,0,0-2.86-11c-1-2.13-2.82-2.38-4.32-.57a11.86,11.86,0,0,0-1.76,3c-.73,1.76-1.3,3.58-2,5.52-2.06-2.05-4.7-2.1-7.3-1.8-3.59.42-7.15,1.11-10.74,1.59a3.89,3.89,0,0,1-2.09-.41c-1.18-.57-2.24-1.39-3.41-2-.32-.15-.88.22-1.34.35a4,4,0,0,0,.59,1.25,26.87,26.87,0,0,0,2.17,1.74c-1.19,1.37-1.12,1.91.28,2.77.94-1.24,1.58-1.32,2.8-.34,1.06.86,2.14,1.7,3.16,2.6s2,1.82,3,2.81c.63.67.64,1.42-.34,1.85-3,1.3-5.91,2.65-8.92,3.84-1.13.44-1.67,1-1.6,2.21.11,2.16-.34,2.77-2.42,3.47-.76.26-1.58.34-2.36.54-1,.26-1.83.12-2.07-1.12-.05-.25-.32-.46-.59-.83-.18,1,.52,2.11-1,2.1a15.39,15.39,0,0,1-7.1-1.35c-1.74-.89-3.51-1.75-5.31-2.53-.4-.17-1,0-1.44.08.13.53.1,1.28.44,1.53a17.8,17.8,0,0,0,3,1.66c1.72.81,3.47,1.55,5.24,2.34a14.36,14.36,0,0,0-1,1.7c-.34.81-.86.87-1.63.71a116.51,116.51,0,0,1-24.52-8,4.15,4.15,0,0,1-2.38-2.53c1.43-.37,1.73-1.26,1.13-2.58l13.47-3.11a3.69,3.69,0,0,0,.23,1.16c.22.37.58.84.93.88s.83-.34,1.09-.66a1.59,1.59,0,0,0,.26-1.09c-.11-.93.38-1.23,1.16-1.49,2-.68,3.93-1.42,5.87-2.2.82-.33,1.39-.93,1-1.91s-1.24-.9-2.06-.61-1.89.72-2.85,1.07-1.91.65-3.06,1c0-2.87,0-5.51,0-8.14,0-.55.31-1.46.64-1.55a2.31,2.31,0,0,1,1.76.52c1.75,1.42,3.4,3,5.13,4.43a11.18,11.18,0,0,0,2.14,1.38c.24.12.67-.13,1-.21a3.06,3.06,0,0,0-.26-.9c-.32-.48-.73-.91-1.17-1.45,1.09-.66,2.08-1.21,3-1.84a26.62,26.62,0,0,1,2.89-2.1,17.6,17.6,0,0,1,5-1.89c3.58-.54,4.3-.42,5.82,3,.07.16.11.38.23.45.42.22,1,.63,1.27.49a1.6,1.6,0,0,0,.72-1.26,6,6,0,0,0-5.34-5c-4.46-.22-8.13,1.53-11.38,4.41-.4.35-.85.64-1.27,1-2.71-3.41-3.34-3.84-6.76-3.71a3.78,3.78,0,0,1-3.26-1.53,157.18,157.18,0,0,1-18.81-27.07,26.21,26.21,0,0,1-3.19-9.37c-.18-1.31-.41-2.61-.65-3.91a139.78,139.78,0,0,1-1.69-37.09,21.07,21.07,0,0,0-.19-3c.14-.11.55-.28.71-.59a5,5,0,0,0,.89-2.34c-.1-1-1.2-1-2.07-1-2.18,0-4.36,0-6.53.13a38,38,0,0,0-4.65.76c-.91.18-1.79.57-2.7.71-4.46.68-9,1-13.27,2.63-.8.31-1.63.54-2.75.9,1-2.86,1.74-5.42,2.8-7.82a43.44,43.44,0,0,1,3.95-7.39c2.54-3.62,5.71-6.74,8.68-10C79.15,91.86,89.61,83,101.95,76.35a88.93,88.93,0,0,1,47.79-10.84c.82,0,1.15.27,1.13,1.1a15.36,15.36,0,0,0,.18,1.92l.58,0,.63-2.87a.74.74,0,0,1,.24-.07c2.26.15,4.52.23,6.77.47a118.62,118.62,0,0,1,44.23,13.61A7.32,7.32,0,0,0,204.67,80.13Zm-7.34,82.62c1.51-1,2.19-2.67,2.67-4.58a14.35,14.35,0,0,0-7.79-16.32c-7.14-3.14-14.61-4.53-22.36-3.21-4.86.83-9.66,2-14.65,1.55l1.63.14-24.15,4.16c5-2.05,10.76-2.93,16.51-3.87-2,.12-4.06.34-6.07.6a49.15,49.15,0,0,0-18.94,7,20.68,20.68,0,0,0-3.5,3.29c-.15.15-.13.46-.25.92l3-2.81c-.8,2-1.5,3.68-2.14,5.38a7.75,7.75,0,0,0,.68,7,20.36,20.36,0,0,0,9,7.91,83.79,83.79,0,0,0,18.62,6.35,101.48,101.48,0,0,0,11.15,1.37,2.6,2.6,0,0,0,2.57-.9c-1.09-.12-2-.24-3-.32a65.53,65.53,0,0,1-28.42-9.78c-3-1.8-5.8-3.86-7.62-6.89-.75-1.26-1.55-2.93-1.34-4.25a10.45,10.45,0,0,1,7.24-8.81,112.73,112.73,0,0,1,24-4.85c3.79-.4,7.59-1.27,11.07-.24.53-.32.81-.63,1.11-.64,1.53-.05,3.07,0,4.61,0,.42,0,.85-.1,1.57-.2l-.93-.87c.24,0,.44-.08.65-.1A35.6,35.6,0,0,1,192,143.61a12.52,12.52,0,0,1,6.4,14.54l-.7-1.94Zm-96.09-27.81h0a6.05,6.05,0,0,0,1.4,0c1.89-.46,4.09-.26,5.36-2.21a25.79,25.79,0,0,0,1.48-2.53c1.72-3.44-.65-5.63-3.56-6.57-1.63-.53-3.17.12-4.71.68-2.46.9-4.46,2.33-5.08,5-.83,3.55-.07,5.37,3.82,5.67C100.38,135,100.81,134.94,101.24,134.94Zm92.17-21-.25.06c.35,1.52.62,3.06,1.11,4.53a2,2,0,0,0,1.41,1.11c2.14.29,4.31.47,6.47.56a2.72,2.72,0,0,0,2.74-2.1,20,20,0,0,0,.85-3.47c.19-1.32.05-2.69-1.35-3.29-2.37-1-4.7-2.21-7.43-2-2.16.14-3.21,1-3.44,3.11C193.45,112.87,193.44,113.38,193.41,113.89ZM195,165.27c-.72.54-1.18.9-1.65,1.24-3,2.15-6,4.25-9.57,5.26-4.88,1.36-9.74,2.8-14.62,4.18a11.6,11.6,0,0,1-1.48.13,3.51,3.51,0,0,0-.73.28c.16.27.26.71.48.77a2.85,2.85,0,0,0,1.37,0c2.24-.51,4.48-1.05,6.71-1.61,1-.26,2.05-.56,3.08-.85l.1.34-6.42,2,0,.45a5.5,5.5,0,0,0,2,.05c5.12-2,10.21-4.07,15.29-6.15a3.21,3.21,0,0,0,1.23-.86C192.17,168.87,193.46,167.19,195,165.27ZM95.78,112.63c.23.36.35.75.62.9s.58-.22.78-.44a28,28,0,0,1,2.33-2.67c4.82-4.11,9.31-8.65,15-11.69.33-.18.47-.71.7-1.08-.46-.08-1-.36-1.38-.2a15.26,15.26,0,0,0-4,2c-4.35,3.68-8.58,7.5-12.82,11.3A9.25,9.25,0,0,0,95.78,112.63ZM186,86l0,.16a9.6,9.6,0,0,0-1.91.12,4.92,4.92,0,0,0-1.27.79c.44.22.89.65,1.32.63a16.32,16.32,0,0,1,6.6,1.22c2.94,1.14,5.9,2.22,8.85,3.31a3.21,3.21,0,0,0,1.09.32c.34,0,.84-.16,1-.4a1.09,1.09,0,0,0-.24-1,5.32,5.32,0,0,0-1.62-1c-3.15-1.16-6.31-2.33-9.5-3.36A32.87,32.87,0,0,0,186,86Z" transform="translate(-0.15 -0.22)"/><path d="M204.67,80.13a7.32,7.32,0,0,1-1.18-.4,118.62,118.62,0,0,0-44.23-13.61c-2.25-.24-4.51-.32-6.77-.47a.74.74,0,0,0-.24.07l-.63,2.87-.58,0a15.36,15.36,0,0,1-.18-1.92c0-.83-.31-1.06-1.13-1.1a88.93,88.93,0,0,0-47.79,10.84C89.61,83,79.15,91.86,69.77,102.18c-3,3.28-6.14,6.4-8.68,10a43.44,43.44,0,0,0-3.95,7.39c-1.07,2.41-1.8,5-2.8,7.82,1.12-.36,2-.59,2.75-.9,4.27-1.65,8.81-1.94,13.27-2.63.92-.14,1.79-.53,2.7-.71a38,38,0,0,1,4.65-.76c2.17-.15,4.35-.11,6.53-.13.87,0,2,0,2.07,1a5,5,0,0,1-.89,2.34c-.16.31-.58.49-.71.59a21.07,21.07,0,0,1,.19,3,139.78,139.78,0,0,0,1.69,37.09c.25,1.3.47,2.6.65,3.91a26.21,26.21,0,0,0,3.19,9.37,157.18,157.18,0,0,0,18.81,27.07,3.78,3.78,0,0,0,3.26,1.53c3.42-.13,4.05.3,6.76,3.71.42-.31.87-.6,1.27-1,3.25-2.88,6.92-4.63,11.38-4.41a6,6,0,0,1,5.34,5,1.6,1.6,0,0,1-.72,1.26c-.27.14-.85-.27-1.27-.49-.12-.06-.16-.29-.23-.45-1.52-3.38-2.24-3.5-5.82-3a17.6,17.6,0,0,0-5,1.89,26.62,26.62,0,0,0-2.89,2.1c-.93.63-1.92,1.18-3,1.84.44.54.85,1,1.17,1.45a3.06,3.06,0,0,1,.26.9c-.34.08-.77.33-1,.21a11.18,11.18,0,0,1-2.14-1.38c-1.73-1.45-3.38-3-5.13-4.43a2.31,2.31,0,0,0-1.76-.52c-.34.09-.63,1-.64,1.55-.07,2.63,0,5.27,0,8.14,1.15-.39,2.11-.71,3.06-1s1.89-.73,2.85-1.07,1.65-.37,2.06.61-.16,1.58-1,1.91c-1.94.77-3.89,1.52-5.87,2.2-.78.27-1.27.56-1.16,1.49a1.59,1.59,0,0,1-.26,1.09c-.26.32-.74.7-1.09.66s-.71-.51-.93-.88a3.69,3.69,0,0,1-.23-1.16L93,227.54c.6,1.31.3,2.2-1.13,2.58a4.15,4.15,0,0,0,2.38,2.53,116.51,116.51,0,0,0,24.52,8c.77.16,1.29.1,1.63-.71a14.36,14.36,0,0,1,1-1.7c-1.77-.78-3.52-1.53-5.24-2.34a17.8,17.8,0,0,1-3-1.66c-.34-.25-.3-1-.44-1.53.49,0,1-.25,1.44-.08,1.8.78,3.57,1.63,5.31,2.53a15.39,15.39,0,0,0,7.1,1.35c1.52,0,.82-1.13,1-2.1.27.37.53.58.59.83.25,1.24,1,1.38,2.07,1.12.78-.2,1.6-.29,2.36-.54,2.08-.7,2.54-1.3,2.42-3.47-.06-1.26.48-1.76,1.6-2.21,3-1.19,6-2.54,8.92-3.84,1-.43,1-1.18.34-1.85-.93-1-1.94-1.91-3-2.81s-2.1-1.75-3.16-2.6c-1.22-1-1.86-.89-2.8.34-1.4-.86-1.47-1.4-.28-2.77a26.87,26.87,0,0,1-2.17-1.74,4,4,0,0,1-.59-1.25c.45-.13,1-.5,1.34-.35,1.18.57,2.24,1.38,3.41,2a3.89,3.89,0,0,0,2.09.41c3.59-.48,7.15-1.18,10.74-1.59,2.6-.3,5.23-.25,7.3,1.8.68-1.93,1.25-3.76,2-5.52a11.86,11.86,0,0,1,1.76-3c1.5-1.82,3.34-1.56,4.32.57a35.24,35.24,0,0,1,2.86,11l.36,3.35c.82-.43,2-.07,2-1.56,0-.22.55-.43.84-.64-.67-.7-1.43-1.43-2.1-2.22-.27-.31-.59-.85-.49-1.14a1.42,1.42,0,0,1,1.08-.64c1.78-.11,3.58-.1,5.36-.18s3.63-.22,5.44-.33v-.45h-3.56c-.85,0-1.62-.2-1.64-1.19s.76-1.17,1.6-1.21c2.6-.11,5.2-.3,7.79-.37a16,16,0,0,0,6-1.62c4.65-2,9.34-4,14-5.9a64.09,64.09,0,0,0,15.72-9.74c1.42-1.15,2.1-3.23,3.05-4.92.37-.66.47-1.48.84-2.14a4.85,4.85,0,0,1,1.13-1,5.36,5.36,0,0,1,.6,1.52,12.38,12.38,0,0,1-.31,2.34c.57-.46.92-.73,1.25-1a94.42,94.42,0,0,0,12.63-13.56c1.05-1.37,1.84-1.35,3.11.33.19-.33.29-.76.54-.87.57-.26,1.36-.66,1.79-.45a2,2,0,0,1,.69,1.68A19.63,19.63,0,0,1,246.4,181c-1.88,4.81-5,8.78-8.46,12.56a54.78,54.78,0,0,1-23.61,15.26c-4.7,1.58-8.74,4.19-12.9,6.69a127,127,0,0,1-19.78,10.16,12.35,12.35,0,0,1-2.67.86,6,6,0,0,1-2-.41c-.33-.08-.7-.27-1-.2-1.53.4-3,.82-4.54,1.34a1.4,1.4,0,0,0-.76,1,4.88,4.88,0,0,1-3.26,4.43,1.45,1.45,0,0,1-1.29-.4,1.49,1.49,0,0,1,.15-1.34c.33-.47,1-.69,1.34-1.16a2.31,2.31,0,0,0,.39-1.46c0-.19-.7-.44-1.08-.46-1.06,0-2.14.11-3.19,0-.54-.06-1.43-.52-1.45-.84a2.13,2.13,0,0,1,.83-1.64c1.11-.7,2.38-1.14,3.54-1.77.34-.18.76-.65.75-1a42.13,42.13,0,0,0-2.56-13.65,7.73,7.73,0,0,0-.41-.75,6.1,6.1,0,0,0-1.06,1.27c-.85,2-1.6,4-2.43,6a5.54,5.54,0,0,0-.11,4.24,6.35,6.35,0,0,1,0,2.65c0,.27-.44.62-.74.71s-.58-.35-.68-.61c-.24-.68-.34-1.41-.55-2.1a5.28,5.28,0,0,0-5.47-4.27A45.63,45.63,0,0,0,142,217.71c.53.45.9.76,1.26,1.08,1.44,1.27,3,2.44,4.29,3.84,2,2.16,1.56,4.56-1.08,5.8-2.89,1.36-5.86,2.56-8.76,3.88a1.79,1.79,0,0,0-.71,1,12.14,12.14,0,0,0-.79,2.63,9.75,9.75,0,0,0,0,3.34c.71,3.14.51,2.47,3.13,2.46a9.54,9.54,0,0,0,3.39-.51c6.53-2.58,12.86-5.54,17.94-10.6.39-.38.7-.84,1.06-1.26.59-.67,1.31-1.1,2.12-.51a1.25,1.25,0,0,1,0,2.1,67.23,67.23,0,0,1-7.49,6.33c-3.2,2.09-6.75,3.64-10.15,5.42l-1.1.55a12.87,12.87,0,0,0,1.38.17c7.72-.06,15.45.24,23.13-.92.93-.14,1.82-.6,2.75-.73s1.85.09,2.75-.06c14.11-2.48,27.81-6.25,40.38-13.34,11.05-6.23,20.13-14.74,27.93-24.67s13.45-21.08,15.54-33.7c1.85-11.2,2.35-22.37-1.69-33.34-3.55-9.63-9-18.05-15.54-25.87a130.6,130.6,0,0,0-34.33-28.84c-.4-.24-.77-.53-1.15-.79a7.31,7.31,0,0,1,1.19.37c3.38,1.72,6.87,3.26,10.08,5.26a79.52,79.52,0,0,1,8.81,6.57,121.85,121.85,0,0,1,25,28c5,7.86,8.67,16.27,10,25.54a62.1,62.1,0,0,1,.4,9.32,77.11,77.11,0,0,1-4.23,25.25c-3.84,10.82-10,20.18-17.55,28.77-14,15.95-31.6,25.6-51.93,30.73-3.47.88-7,1.59-10.48,2.38-.33.07-.65.17-1.05.28.13.32.17.76.35.82,1.45.48,1.15,1.67,1.25,2.75.35,4.08.75,8.15,1.1,12.23q.86,10.19,1.65,20.39c.06.78.34,1.07,1.06,1.07,1.28,0,2.57-.07,3.84,0,4.32.41,8.64.91,13,1.35,1.06.11,2.13.09,3.19.14a3.16,3.16,0,0,1,1.14.08c.34.16.57.54.85.82-.31.21-.6.57-.92.61-2.37.29-4.76.4-7.11.79-5,.82-10,1.76-15,2.69-2.59.48-5.16,1.06-7.64,1.58-.79-.5-.09-2-1.52-1.87l-.11,2.2-2.72.5c-.1-2-.26-3.86-.28-5.71,0-5.76-.14-11.53,0-17.29A76.14,76.14,0,0,0,167.32,253a30.39,30.39,0,0,1-.21-4.08c0-.32,0-.83.23-1,1.27-.78.67-2,1-3.22-10.83,1.08-21.55.87-32.39.48.47,2.91,1,5.63,1.34,8.37.79,6.82,1.48,13.65,2.22,20.48a44,44,0,0,0,.63,5.46c.5,2.11-.06,4.13-.16,6.18,0,.87-.67,1.2-1.58.84a2.73,2.73,0,0,0-1.32-.15q-13.48,2-27,4c-.68.1-1.35.2-2,.25-1.39.11-2-.34-2.22-1.7-.21-1.18.68-1.39,1.49-1.7,5.61-2.17,11.18-4.45,16.84-6.48,2-.72,3-1.49,3.14-3.88.46-7.1,1.39-14.17,2-21.27.32-3.6.39-7.22.57-10.79-1.8-.51-1.76-.49-2.26,1.08A48.32,48.32,0,0,1,116.28,265c-1.69,1.75-3.59,3.06-6.24,2.35-.27-.07-.64.16-.94.29-.66.29-1.29.67-2,.92-1.76.63-2.63.28-3.59-1.34-.13-.21-.27-.41-.37-.56-2,.93-3.87,1.95-5.85,2.69-4.29,1.61-8.74,1.15-13.17.73a10.36,10.36,0,0,1-2.27-.34c-.39-.13-.65-.65-1-1,.33-.29.64-.78,1-.83a25.67,25.67,0,0,1,3.57-.14c3.67.09,7.37.39,10.88-1,1.73-.68,3.36-1.66,5-2.5.64-.32.73-.77.56-1.48a114.91,114.91,0,0,0-10.61-27c-1.67-3.13-4.53-4.58-7.43-6.19.22,3.27.56,6.43.63,9.61.16,7.67.62,15.36-.88,23a3.75,3.75,0,0,1-.35,1.48,6.48,6.48,0,0,1-1.47,1.11c-.33-.52-1-1.07-.93-1.56.13-1.78.53-3.54.75-5.32a38.75,38.75,0,0,0,.41-4.84c0-7-.08-14-.22-21-.07-3.37-.17-3.27-3.52-3.45-2.59-.14-5.18-.45-7.75-.84A77.47,77.47,0,0,1,61.43,226a18,18,0,0,1-5.17-2.68,2.6,2.6,0,0,1-.48-3.94c.28-.28.79-.34,1.19-.5a3.15,3.15,0,0,1,.07,1.21c-.5,1.34.58,1.55,1.54,2.25-1.42-3.13-.56-6.09-.45-9,0-.93.44-1.55,1.54-1.38a1.16,1.16,0,0,0,.73-.15c.71-.45,1.19-3.58.82-4.35-1.59-3.28-4.33-5.34-7.21-7.4-11.5-8.27-22.88-16.71-34.38-25a56.34,56.34,0,0,0-13.73-7.34,15.44,15.44,0,0,0-3.62-.52c-.73-.08-1.73.3-1.87-.78s.89-1.14,1.68-1.27l.59-.09c-1-3.4-.53-6.74.15-10A87.89,87.89,0,0,1,14,126.46c.11-.17.18-.37.37-.73-3.8,0-7.57.73-11.14-.89,4-.5,7.8-.9,11.6-1.51a6.2,6.2,0,0,0,2.66-1.54c2.12-1.77,4-3.82,6.29-5.41,1.32-.94,3.13-1.17,4.7-1.79a5.11,5.11,0,0,0,1.79-1A124.22,124.22,0,0,0,47,91.61c5.24-8.54,10.23-17.24,15.18-26,6.76-11.91,13.3-23.95,20.1-35.84a57.82,57.82,0,0,1,22-22.16A30.73,30.73,0,0,1,120,3.48c2,0,4-.18,6-.2a3.75,3.75,0,0,1,1.27.5c-.41.27-.8.75-1.23.78-2.59.19-5.2.22-7.79.41-6.51.47-12.14,3.16-17.35,6.93a59,59,0,0,0-17,19.36C76,45.39,68.26,59.57,60.44,73.72a256,256,0,0,1-19.89,31.46c-2.5,3.29-5.32,6.34-8,9.47-.46.54-.71.9-.25,1.63a3.91,3.91,0,0,1,.42,2c0,2.09,0,4.18,0,6.27a14.64,14.64,0,0,0,.33,2.05c1-.66,1.54-1.32,1.41-2.34a2.23,2.23,0,0,1,0-1,13.36,13.36,0,0,1,.82-1.55l1.42,1.2c.22-.2.65-.65,1.12-1.05,1.53-1.29,3-2.67,4.62-3.83a3,3,0,0,1,4,0c-.19.11-.37.3-.52.28A4.7,4.7,0,0,0,42.09,120c-1.73,1.71-3.4,3.48-5.06,5.25a2.54,2.54,0,0,0,.42,3c2,1.25,4,2.47,6.25,3.84a8.53,8.53,0,0,1,1.35-1.35,6.43,6.43,0,0,1,2.07-.9,3.47,3.47,0,0,0,2.45-2A46.66,46.66,0,0,1,52.87,122c3.18-4.55,5.15-9.7,7.61-14.61,6.38-12.7,13.86-24.62,25-33.85a79.51,79.51,0,0,1,19.32-11.68c2.54-1.1,5.16-2,7.78-2.92a2.79,2.79,0,0,1,1.93.4c-25.07,8-41.36,25.23-51.89,48.61,1.61-1.9,3.2-3.8,4.82-5.69A117.27,117.27,0,0,1,97.23,76.95a94.47,94.47,0,0,1,31.06-11.79c1.84-.33,3.71-.56,5.27-.8l1.31-1.71a30.26,30.26,0,0,0-1.58-3.06c-.38-.6-.8-1.08-.16-1.64a1.1,1.1,0,0,1,1.75.35,17.13,17.13,0,0,1,1.77,3.53A1.68,1.68,0,0,0,139.18,63c2.26-.88,4.53-1.73,6.7-2.79A48,48,0,0,0,157.6,52.3,15.75,15.75,0,0,0,160.36,32a62.16,62.16,0,0,0-9.82-11.93q-6-5.85-12.3-11.39A24,24,0,0,0,121.7,2.23a6.2,6.2,0,0,1-1.77-.2c-.34-.1-.61-.47-.91-.72A3.7,3.7,0,0,1,120,.6a4.67,4.67,0,0,1,1.39-.14,23.75,23.75,0,0,1,15.32,4.89,124.64,124.64,0,0,1,23.51,23.24,19.63,19.63,0,0,1,4.39,11.14c.27,6-2.24,10.66-6.58,14.5a55.09,55.09,0,0,1-12.91,8.23,10.17,10.17,0,0,0-2.23,1.32h7.83c.19-1.46-.44-3.31,1.44-4.39v4.57l5.9.5a118.23,118.23,0,0,1,37.86,9.79,6.87,6.87,0,0,1,1.13.59C199.57,76.58,202.12,78.36,204.67,80.13ZM97,212.79c-.88-1.93-1.79-3.84-2.64-5.78-3.67-8.37-5.81-17.19-7.73-26.08-.67-3.11-1-6.27-2.49-9.22a361.16,361.16,0,0,1-14.43-33.47c-.35-.95-.73-1.88-1.14-2.92a39.15,39.15,0,0,1-16,2c-.25,0-.72.23-.76.42-.35,1.62-.75,3.06.44,4.79C56.07,148,59.79,153.48,63,159.25a127,127,0,0,1,12,30.8,13.46,13.46,0,0,0,3.18,6.15c2,2.15,3.91,4.4,6,6.52A58.47,58.47,0,0,0,97,212.79ZM51.18,187l.46-.24a85.19,85.19,0,0,0-3.34-8.34,55.5,55.5,0,0,1-5.51-14c-1-4.69-.71-9.41-.39-14.15a4.63,4.63,0,0,0-.51-2.29c-2.86-5.63-5.77-11.22-8.68-16.83-.14-.28-.33-.53-.5-.8l-.38-.09c-3.82,12.73-9.5,24.41-18.8,34.17C27.93,169,39.59,177.94,51.18,187Zm26.31,12-.23.11c.05.29.1.58.15.87.56,2.84,1.15,5.68,1.64,8.54.08.45-.37,1-.57,1.49a4.84,4.84,0,0,1-1.3-1,6,6,0,0,1-.7-1.91c-1-4.07-1.65-8.22-2.92-12.18a20.17,20.17,0,0,0-3.63-5.92c-1.27-1.62-3.09-2.8-4.41-4.39A172.64,172.64,0,0,1,51,163.76c-.26-.44-.55-.86-.83-1.28l-.48.16c.44,4.66.84,9.32,1.35,14A9.62,9.62,0,0,0,53,182.08c2.58,3,5.11,6.06,7.78,9a14.22,14.22,0,0,0,8,4.05c.75.15,1.52.23,2.26.43.25.07.42.42.63.63-.28.13-.58.4-.83.36-4.75-.66-9.32-1.74-12.68-5.61-1.38-1.58-2.88-3.06-4.32-4.58.46,1.7.66,3.42,2.17,4.64A184,184,0,0,1,83,217.77c.23.29.58.73.84.71,1-.08,1.22.6,1.57,1.23s.75,1.15,1,1.76a2.12,2.12,0,0,0,3,1.17c2.94-1.13,5.86-2.3,8.77-3.5A14.94,14.94,0,0,0,100,218a9.77,9.77,0,0,0-1.7-1.66,73.91,73.91,0,0,1-18.53-14.77Zm33.77,51.37c1.53.89,1.36,2.09,1.25,3.19a11.45,11.45,0,0,1-2.57,5.91c-1.32,1.67-2.83,3.18-4.18,4.82a2,2,0,0,0-.19,1.42c0,.24.62.64.76.57,1.42-.7,3-1.09,3.67-2.89,1-2.72,2.15-5.38,3.31-8,1.78-4.1,3.6-8.18,5.49-12.46a129.47,129.47,0,0,1-23.35-7.1,14.4,14.4,0,0,0,1.15,2.22c4,6.65,8.53,13,10.61,20.62C109.43,256.51,110.39,253.56,111.27,250.43ZM83.45,166.19,84,166c-2.47-12.91-2.44-25.86-1-39.08a47.85,47.85,0,0,1-12.67,7.8Zm6.37,16.65c.06.35.09.59.14.83a124.44,124.44,0,0,0,10.2,29.92,6.68,6.68,0,0,0,4,3.44c.13-.21.22-.39.34-.56l.72-1a10,10,0,0,1,.69,1.36,6.62,6.62,0,0,1,.18,1.3l.42,0c0-1.77,0-3.55,0-5.32s0-3.37,1.75-4.1c-3.31-4.22-6.69-8.23-9.73-12.48S92.76,187.35,89.81,182.84ZM12.15,156.9l.6-1.28c1-2.19,2-4.45,3.15-6.57,3.32-6,7.66-11.17,12-16.4a6.56,6.56,0,0,0,1.34-2.92c.29-1.67.24-3.4.38-5.09.08-1-.35-1.37-1.27-1a9.54,9.54,0,0,0-2.5,1.23,26.07,26.07,0,0,0-3.44,3.24,53.73,53.73,0,0,0-9.64,17.2,2.89,2.89,0,0,0,0,.65c3.12-4.12,6-8,7.64-12.76a4.67,4.67,0,0,1-.38,4.17c-1.65,3.12-3.34,6.23-5.27,9.19A32.58,32.58,0,0,1,11,150.61a1,1,0,0,0-.29.64,21.86,21.86,0,0,0,.22,3.56A8,8,0,0,0,12.15,156.9Zm41.42,36.57.33-.23c-.64-1.09-1-2.51-2-3.23-6.19-4.81-12.39-9.62-18.79-14.14a67.78,67.78,0,0,0-17.56-9c-.66-.22-1.34-.37-2-.55l-.22.28a3.61,3.61,0,0,0,.65,1.09c2.08,1.62,4.1,3.35,6.33,4.76,8.13,5.16,16.35,10.18,24.51,15.3C47.78,189.59,50.66,191.56,53.57,193.47ZM71,186.41l.32-.17a135.09,135.09,0,0,0-20.51-42c-.28,2.39-.79,4.36.26,6.35,1.64,3.13,3.09,6.37,4.78,9.47,2.94,5.39,6,10.72,9,16.05C66.88,179.56,69,183,71,186.41Zm-8,23.75-.51.13c0,2.41-.11,4.82-.1,7.23a5.42,5.42,0,0,0,3.94,5.5,12.42,12.42,0,0,0,2.86.64c2.16.21,4.34.3,6.72.46A99.25,99.25,0,0,1,63,210.16Zm50.24,50.95.33.16c4.89-4.9,9.24-10.14,11.08-17.2-1-.19-1.74-.32-2.51-.51s-1.37.06-1.74.94c-1.79,4.23-3.66,8.43-5.49,12.65C114.35,258.46,113.81,259.79,113.26,261.11ZM44.36,152.36A36.38,36.38,0,0,0,48.31,174q-.25-7.42-.51-14.82a2.34,2.34,0,0,0-.14-1C46.64,156.31,45.57,154.48,44.36,152.36ZM12.26,139.87l.38.18c.18-.33.35-.66.55-1,1.66-2.82,3.12-5.8,5-8.43,2.79-3.84,5.71-7.71,10.77-8.88-.07-.23-.12-.43-.19-.63-.59-1.59-1.11-1.72-2.49-.74a14.3,14.3,0,0,1-3.42,2.21c-3.06,1-4.49,3.46-5.84,6-.43.83-.9,1.65-1.25,2.52C14.6,134,13.44,137,12.26,139.87ZM7,148a42.88,42.88,0,0,0-2.53,14.51,1.66,1.66,0,0,0,1.84,1.83c.13-1.4.89-1.47,2-1a4.12,4.12,0,0,0,1.74.33,1.29,1.29,0,0,0,.94-.76,27.94,27.94,0,0,0,.42-3l-1.48-.25a3.42,3.42,0,0,1-3.25-3.48,18.24,18.24,0,0,1,0-2.68C6.74,151.6,6.89,149.79,7,148Zm57.26,60a4.15,4.15,0,0,0,.25.44,73.21,73.21,0,0,0,12.37,13.24c1.11.92,2.4.77,3.75.68A95.3,95.3,0,0,0,64.27,207.94Zm-48.6-52.46c5.69-5,9.26-11.35,11.66-18.43C22.73,142.74,18.32,148.56,15.67,155.49Zm51.56-24.27a40,40,0,0,1-4.46,1.36c-2.47.46-5,.72-7.46,1a3.28,3.28,0,0,1-1.36-.16c-.84-.27-1.18.07-1.36,1.11,5.19.09,10.29.49,15.37-1.25Zm66.2,106.64c-1.33.2-2.7.38-4.07.63a.93.93,0,0,0-.63.59c-.14,1-.17,2-.26,3.19l6,.59ZM60.61,175l.36-.19L50.34,155.36l-.52.15a7.59,7.59,0,0,0,.43,2.74C53.64,163.86,57.14,169.41,60.61,175ZM39,130.69l-.51.41,5.47,9.72A9.93,9.93,0,0,0,45,137.9a1.33,1.33,0,0,0-.19-1C42.91,134.78,40.93,132.74,39,130.69Zm-4-2.81c-1,.5-.68,1.09-.37,1.68q4,7.61,7.92,15.21a7.16,7.16,0,0,0,.49.71l.32-.09a5.83,5.83,0,0,0-.35-1.72C40.08,138.53,36.94,133.54,34.93,127.88Zm205.86,57.49c-3.44,3.46-6.9,6.91-10.32,10.4a10.34,10.34,0,0,0-1.14,1.93C232.54,195.88,239.35,188.59,240.79,185.37ZM56.66,194l-.31.26a15.6,15.6,0,0,0,2,2.48c2,1.67,4.09,3.2,6.15,4.78l2.1,1.59.22-.28-9.65-8.53A3.28,3.28,0,0,0,56.66,194Zm117.43,79.21.42-.06-2.44-17.38-.64.09ZM45.12,147c-.6,1.56,1.11,5.46,2.8,6.82C48.52,150.92,46.17,149.36,45.12,147Zm24.72-14.29,3.78-1.86-.1-.34-4.35.22ZM31.26,121.56c-.09-1.65.51-3.35-.38-5C29.74,117.65,29.9,119.68,31.26,121.56ZM122.2,241.29l2.84.48c-.52-1,.55-2.25-.84-2.52C123,239,122.68,240.25,122.2,241.29ZM78.64,126.4l4.9-1.57-.14-.45C81.58,124.29,79.72,124.06,78.64,126.4Zm39.3,88.73.32-.37c-1.83-1-2-3.95-5.07-4Zm52.67,9.53.06.34,5.81-1.82C175.1,222.74,173.16,223.3,170.61,224.66Zm-67.76,32,1.44,5.28,1.47-1.54C103.88,259.9,103.82,258.15,102.85,256.64Zm1.37-34.55c.83-.6,2.15,0,2.25-1.36,0-.26-.84-.89-1.15-.81C104.45,220.15,104.06,220.89,104.22,222.09Zm-57.54-90-2.06,1.07,1.69,2ZM48.56,144c.8-1.77.33-2.89-1.2-4Zm-.5-7.9-.43.31,1.75,2.3C50.64,136.7,48.55,136.93,48.06,136.13Zm130.21,82.33-3.81-.42C176.37,219.51,177.09,219.59,178.27,218.47Zm-3.16,25.62h-.49l.16,3.13h.32Z" transform="translate(-0.15 -0.22)"/><path d="M197.33,162.75l.39-6.55.7,1.94a12.52,12.52,0,0,0-6.4-14.54,35.6,35.6,0,0,0-19.71-3.87c-.21,0-.42.06-.65.1l.93.87c-.72.1-1.14.19-1.57.2-1.54,0-3.07,0-4.61,0-.3,0-.58.32-1.11.64-3.47-1-7.28-.16-11.07.24a112.73,112.73,0,0,0-24,4.85,10.45,10.45,0,0,0-7.24,8.81c-.21,1.32.58,3,1.34,4.25,1.82,3,4.66,5.09,7.62,6.89a65.53,65.53,0,0,0,28.42,9.78c1,.09,1.92.21,3,.32a2.6,2.6,0,0,1-2.57.9,101.48,101.48,0,0,1-11.15-1.37A83.79,83.79,0,0,1,131,169.92a20.36,20.36,0,0,1-9-7.91,7.75,7.75,0,0,1-.68-7c.64-1.7,1.34-3.37,2.14-5.38l-3,2.81c.12-.46.1-.77.25-.92a20.68,20.68,0,0,1,3.5-3.29,49.15,49.15,0,0,1,18.94-7c2-.27,4-.48,6.07-.6-5.76.94-11.52,1.82-16.51,3.87l24.15-4.16-1.63-.14c5,.43,9.79-.72,14.65-1.55,7.75-1.32,15.22.07,22.36,3.21A14.35,14.35,0,0,1,200,158.17C199.52,160.09,198.84,161.77,197.33,162.75Zm-74.77-4.69c.16,4.6,8.74,11.68,14.63,12.24C131.48,167.29,125.78,164.36,122.56,158.06Z" transform="translate(-0.15 -0.22)"/><path d="M101.24,134.94c-.43,0-.85,0-1.28,0-3.89-.3-4.65-2.12-3.82-5.67.62-2.64,2.61-4.06,5.08-5,1.54-.57,3.08-1.21,4.71-.68,2.91.94,5.28,3.13,3.56,6.57a25.79,25.79,0,0,1-1.48,2.53c-1.27,1.95-3.46,1.74-5.36,2.21a6.05,6.05,0,0,1-1.4,0Z" transform="translate(-0.15 -0.22)"/><path d="M193.41,113.89c0-.51,0-1,.1-1.53.23-2.14,1.29-3,3.44-3.11,2.74-.17,5.06,1,7.43,2,1.4.6,1.54,2,1.35,3.29a20,20,0,0,1-.85,3.47,2.72,2.72,0,0,1-2.74,2.1c-2.16-.09-4.33-.27-6.47-.56a2,2,0,0,1-1.41-1.11c-.49-1.47-.76-3-1.11-4.53Zm6.75,1.82.15-1.92-.39-.23c-.24.32-.64.62-.69,1C199.15,115.07,198.93,115.92,200.17,115.71Z" transform="translate(-0.15 -0.22)"/><path d="M195,165.27c-1.52,1.92-2.81,3.6-4.16,5.23a3.21,3.21,0,0,1-1.23.86c-5.09,2.08-10.17,4.15-15.29,6.15a5.5,5.5,0,0,1-2-.05l0-.45,6.42-2-.1-.34c-1,.28-2,.59-3.08.85-2.23.55-4.46,1.1-6.71,1.61a2.85,2.85,0,0,1-1.37,0c-.22-.06-.32-.5-.48-.77a3.51,3.51,0,0,1,.73-.28,11.6,11.6,0,0,0,1.48-.13c4.88-1.38,9.74-2.82,14.62-4.18,3.61-1,6.6-3.11,9.57-5.26C193.8,166.17,194.26,165.81,195,165.27Z" transform="translate(-0.15 -0.22)"/><path d="M95.78,112.63A9.25,9.25,0,0,1,97,110.76c4.24-3.81,8.47-7.63,12.82-11.3a15.26,15.26,0,0,1,4-2c.36-.16.91.12,1.38.2-.23.37-.37.9-.7,1.08-5.66,3-10.15,7.58-15,11.69a28,28,0,0,0-2.33,2.67c-.2.22-.64.52-.78.44S96,113,95.78,112.63Z" transform="translate(-0.15 -0.22)"/><path d="M186,86a32.87,32.87,0,0,1,4.24.8c3.2,1,6.35,2.21,9.5,3.36a5.32,5.32,0,0,1,1.62,1,1.09,1.09,0,0,1,.24,1c-.12.24-.62.39-1,.4a3.21,3.21,0,0,1-1.09-.32c-3-1.1-5.91-2.18-8.85-3.31a16.32,16.32,0,0,0-6.6-1.22c-.43,0-.88-.41-1.32-.63a4.92,4.92,0,0,1,1.27-.79,9.6,9.6,0,0,1,1.91-.12Z" transform="translate(-0.15 -0.22)"/><path class="cls-1" d="M97,212.79A58.47,58.47,0,0,1,84.1,202.72c-2-2.12-3.94-4.37-6-6.52A13.46,13.46,0,0,1,75,190.05a127,127,0,0,0-12-30.8c-3.19-5.77-6.92-11.26-10.67-16.69-1.19-1.72-.79-3.16-.44-4.79,0-.19.51-.43.76-.42a39.15,39.15,0,0,0,16-2c.41,1,.79,2,1.14,2.92A361.16,361.16,0,0,0,84.2,171.71c1.45,3,1.82,6.11,2.49,9.22,1.91,8.89,4.06,17.71,7.73,26.08C95.26,209,96.17,210.86,97,212.79Z" transform="translate(-0.15 -0.22)"/><path class="cls-1" d="M51.18,187C39.59,177.94,27.93,169,13.53,164.47c9.31-9.76,15-21.45,18.8-34.17l.38.09c.17.27.35.52.5.8,2.9,5.6,5.82,11.2,8.68,16.83a4.63,4.63,0,0,1,.51,2.29c-.32,4.73-.61,9.46.39,14.15a55.5,55.5,0,0,0,5.51,14,85.19,85.19,0,0,1,3.34,8.34Z" transform="translate(-0.15 -0.22)"/><path class="cls-1" d="M77.5,199.06l2.31,2.53a73.91,73.91,0,0,0,18.53,14.77A9.77,9.77,0,0,1,100,218a14.94,14.94,0,0,1-1.85,1.12c-2.91,1.19-5.83,2.37-8.77,3.5a2.12,2.12,0,0,1-3-1.17c-.3-.61-.71-1.16-1-1.76s-.6-1.31-1.57-1.23c-.26,0-.6-.42-.84-.71A184,184,0,0,0,55.94,191c-1.5-1.22-1.71-2.94-2.17-4.64,1.44,1.52,2.95,3,4.32,4.58,3.36,3.86,7.92,4.95,12.68,5.61.26,0,.55-.24.83-.36-.21-.22-.38-.57-.63-.63-.74-.2-1.51-.28-2.26-.43a14.22,14.22,0,0,1-8-4.05c-2.67-2.92-5.2-6-7.78-9a9.62,9.62,0,0,1-1.89-5.48c-.51-4.65-.91-9.31-1.35-14l.48-.16c.28.43.57.85.83,1.28a172.64,172.64,0,0,0,14.47,20.92c1.32,1.59,3.14,2.77,4.41,4.39A20.17,20.17,0,0,1,73.56,195c1.27,4,2,8.11,2.92,12.18a6,6,0,0,0,.7,1.91,4.84,4.84,0,0,0,1.3,1c.2-.5.65-1,.57-1.49-.48-2.86-1.08-5.7-1.64-8.54-.06-.29-.1-.58-.15-.87Z" transform="translate(-0.15 -0.22)"/><path class="cls-1" d="M111.27,250.43c-.88,3.13-1.84,6.08-4.06,8.28-2.08-7.62-6.63-14-10.61-20.62a14.4,14.4,0,0,1-1.15-2.22A129.47,129.47,0,0,0,118.8,243c-1.89,4.28-3.72,8.36-5.49,12.46-1.15,2.66-2.31,5.32-3.31,8-.66,1.8-2.26,2.19-3.67,2.89-.14.07-.72-.33-.76-.57a2,2,0,0,1,.19-1.42c1.35-1.64,2.87-3.15,4.18-4.82a11.45,11.45,0,0,0,2.57-5.91C112.63,252.52,112.8,251.32,111.27,250.43Z" transform="translate(-0.15 -0.22)"/><path class="cls-1" d="M83.45,166.19,70.24,134.77A47.85,47.85,0,0,0,82.91,127c-1.4,13.22-1.43,26.17,1,39.08Z" transform="translate(-0.15 -0.22)"/><path class="cls-1" d="M89.81,182.84c2.94,4.51,5.68,9,8.74,13.3s6.42,8.26,9.73,12.48c-1.75.73-1.78,2.39-1.75,4.1s0,3.55,0,5.32l-.42,0a6.62,6.62,0,0,0-.18-1.3,10,10,0,0,0-.69-1.36l-.72,1c-.11.17-.21.35-.34.56a6.68,6.68,0,0,1-4-3.44A124.44,124.44,0,0,1,90,183.68C89.9,183.43,89.87,183.19,89.81,182.84Z" transform="translate(-0.15 -0.22)"/><path class="cls-1" d="M12.15,156.9a8,8,0,0,1-1.25-2.09,21.86,21.86,0,0,1-.22-3.56,1,1,0,0,1,.29-.64,32.58,32.58,0,0,0,3.78-4.08c1.92-3,3.61-6.07,5.27-9.19a4.67,4.67,0,0,0,.38-4.17c-1.64,4.71-4.53,8.64-7.64,12.76a2.89,2.89,0,0,1,0-.65,53.73,53.73,0,0,1,9.64-17.2,26.07,26.07,0,0,1,3.44-3.24,9.54,9.54,0,0,1,2.5-1.23c.91-.36,1.35,0,1.27,1-.14,1.7-.08,3.43-.38,5.09a6.56,6.56,0,0,1-1.34,2.92c-4.33,5.23-8.67,10.45-12,16.4-1.18,2.12-2.11,4.37-3.15,6.57Z" transform="translate(-0.15 -0.22)"/><path class="cls-1" d="M53.57,193.47c-2.91-1.92-5.79-3.88-8.74-5.74-8.16-5.12-16.38-10.14-24.51-15.3-2.22-1.41-4.24-3.14-6.33-4.76a3.61,3.61,0,0,1-.65-1.09l.22-.28c.67.18,1.36.33,2,.55a67.78,67.78,0,0,1,17.56,9c6.4,4.52,12.6,9.33,18.79,14.14.93.72,1.33,2.14,2,3.23Z" transform="translate(-0.15 -0.22)"/><path class="cls-1" d="M71,186.41c-2-3.44-4.13-6.86-6.12-10.33-3.05-5.33-6.09-10.66-9-16.05-1.69-3.1-3.14-6.34-4.78-9.47-1-2-.54-4-.26-6.35a135.09,135.09,0,0,1,20.51,42Z" transform="translate(-0.15 -0.22)"/><path class="cls-1" d="M63,210.16a99.25,99.25,0,0,0,12.92,14c-2.38-.15-4.55-.25-6.72-.46a12.42,12.42,0,0,1-2.86-.64,5.42,5.42,0,0,1-3.94-5.5c0-2.41.06-4.82.1-7.23Z" transform="translate(-0.15 -0.22)"/><path class="cls-1" d="M113.26,261.11c.55-1.32,1.1-2.65,1.67-4,1.83-4.22,3.7-8.42,5.49-12.65.37-.88.85-1.16,1.74-.94s1.56.32,2.51.51c-1.84,7.06-6.19,12.3-11.08,17.2Z" transform="translate(-0.15 -0.22)"/><path class="cls-1" d="M44.36,152.36c1.22,2.12,2.28,4,3.3,5.81a2.34,2.34,0,0,1,.14,1q.26,7.4.51,14.82A36.38,36.38,0,0,1,44.36,152.36Z" transform="translate(-0.15 -0.22)"/><path class="cls-1" d="M12.26,139.87c1.18-2.91,2.34-5.82,3.54-8.72.36-.86.82-1.68,1.25-2.52,1.35-2.59,2.77-5,5.84-6a14.3,14.3,0,0,0,3.42-2.21c1.38-1,1.9-.85,2.49.74.07.2.12.41.19.63-5.07,1.17-8,5-10.77,8.88-1.92,2.64-3.37,5.61-5,8.43-.19.32-.36.66-.55,1Z" transform="translate(-0.15 -0.22)"/><path class="cls-1" d="M7,148c-.13,1.81-.28,3.62-.38,5.43a18.24,18.24,0,0,0,0,2.68,3.42,3.42,0,0,0,3.25,3.48l1.48.25a27.94,27.94,0,0,1-.42,3,1.29,1.29,0,0,1-.94.76,4.12,4.12,0,0,1-1.74-.33c-1.08-.43-1.84-.35-2,1a1.66,1.66,0,0,1-1.84-1.83A42.88,42.88,0,0,1,7,148Z" transform="translate(-0.15 -0.22)"/><path class="cls-1" d="M64.27,207.94a95.3,95.3,0,0,1,16.37,14.36c-1.36.09-2.64.24-3.75-.68a73.21,73.21,0,0,1-12.37-13.24A4.15,4.15,0,0,1,64.27,207.94Z" transform="translate(-0.15 -0.22)"/><path class="cls-1" d="M15.67,155.49c2.64-6.93,7.06-12.74,11.66-18.43C24.93,144.13,21.36,150.48,15.67,155.49Z" transform="translate(-0.15 -0.22)"/><path class="cls-1" d="M67.23,131.22,68,133.3c-5.08,1.75-10.18,1.34-15.37,1.25.18-1,.52-1.38,1.36-1.11a3.28,3.28,0,0,0,1.36.16c2.49-.31,5-.57,7.46-1A40,40,0,0,0,67.23,131.22Z" transform="translate(-0.15 -0.22)"/><path class="cls-1" d="M133.44,237.86l1,5-6-.59c.08-1.19.12-2.2.26-3.19a.93.93,0,0,1,.63-.59C130.73,238.24,132.11,238.06,133.44,237.86Z" transform="translate(-0.15 -0.22)"/><path class="cls-1" d="M60.61,175c-3.47-5.57-7-11.12-10.36-16.74a7.59,7.59,0,0,1-.43-2.74l.52-.15L61,174.79Z" transform="translate(-0.15 -0.22)"/><path class="cls-1" d="M39,130.69c2,2.05,3.95,4.09,5.88,6.17a1.33,1.33,0,0,1,.19,1,9.93,9.93,0,0,1-1.12,2.92l-5.47-9.72Z" transform="translate(-0.15 -0.22)"/><path class="cls-1" d="M34.93,127.88c2,5.66,5.16,10.65,8,15.79a5.83,5.83,0,0,1,.35,1.72l-.32.09a7.16,7.16,0,0,1-.49-.71q-4-7.6-7.92-15.21C34.25,129,33.94,128.38,34.93,127.88Z" transform="translate(-0.15 -0.22)"/><path class="cls-1" d="M240.79,185.37c-1.44,3.22-8.25,10.52-11.46,12.33a10.34,10.34,0,0,1,1.14-1.93C233.88,192.27,237.34,188.83,240.79,185.37Z" transform="translate(-0.15 -0.22)"/><path class="cls-1" d="M56.66,194a3.28,3.28,0,0,1,.48.3l9.65,8.53-.22.28-2.1-1.59c-2.06-1.58-4.16-3.11-6.15-4.78a15.6,15.6,0,0,1-2-2.48Z" transform="translate(-0.15 -0.22)"/><path class="cls-1" d="M174.09,273.23l-2.65-17.35.64-.09,2.44,17.38Z" transform="translate(-0.15 -0.22)"/><path class="cls-1" d="M45.12,147c1.05,2.36,3.4,3.91,2.8,6.82C46.23,152.46,44.52,148.57,45.12,147Z" transform="translate(-0.15 -0.22)"/><path class="cls-1" d="M69.84,132.72l-.67-2,4.35-.22.1.34Z" transform="translate(-0.15 -0.22)"/><path class="cls-1" d="M31.26,121.56c-1.37-1.87-1.53-3.9-.38-5C31.77,118.2,31.17,119.91,31.26,121.56Z" transform="translate(-0.15 -0.22)"/><path class="cls-1" d="M122.2,241.29c.48-1,.77-2.29,2-2,1.39.28.32,1.53.84,2.52Z" transform="translate(-0.15 -0.22)"/><path class="cls-1" d="M78.64,126.4c1.09-2.34,2.94-2.11,4.75-2l.14.45Z" transform="translate(-0.15 -0.22)"/><path class="cls-1" d="M117.93,215.13l-4.75-4.32c3.1,0,3.24,3,5.07,4Z" transform="translate(-0.15 -0.22)"/><path class="cls-1" d="M170.61,224.66c2.55-1.35,4.49-1.92,5.87-1.48L170.67,225Z" transform="translate(-0.15 -0.22)"/><path class="cls-1" d="M102.85,256.64c1,1.51,1,3.25,2.91,3.74l-1.47,1.54Z" transform="translate(-0.15 -0.22)"/><path class="cls-1" d="M104.22,222.09c-.15-1.2.23-1.94,1.1-2.17.31-.08,1.17.55,1.15.81C106.37,222.07,105,221.48,104.22,222.09Z" transform="translate(-0.15 -0.22)"/><path class="cls-1" d="M46.68,132.09l-.37,3.11-1.69-2Z" transform="translate(-0.15 -0.22)"/><path class="cls-1" d="M48.56,144l-1.2-4C48.89,141.14,49.36,142.26,48.56,144Z" transform="translate(-0.15 -0.22)"/><path class="cls-1" d="M48.06,136.13c.49.8,2.58.57,1.32,2.61l-1.75-2.3Z" transform="translate(-0.15 -0.22)"/><path class="cls-1" d="M178.27,218.47c-1.18,1.13-1.9,1-3.81-.42Z" transform="translate(-0.15 -0.22)"/><path class="cls-1" d="M175.11,244.09v3.13h-.32l-.16-3.13Z" transform="translate(-0.15 -0.22)"/><path class="cls-1" d="M122.56,158.06c3.21,6.3,8.92,9.23,14.63,12.24C131.3,169.74,122.73,162.66,122.56,158.06Z" transform="translate(-0.15 -0.22)"/><path class="cls-1" d="M200.17,115.71c-1.24.21-1-.64-.93-1.19.05-.35.45-.65.69-1l.39.23Z" transform="translate(-0.15 -0.22)"/></g></g></g></svg>