<svg xmlns="http://www.w3.org/2000/svg" viewBox="0 0 370.54 445.48"><defs><style>.cls-1{fill:#231f20;}.cls-2{fill:#009444;}.cls-3{fill:#f7941d;}.cls-4,.cls-5{fill:#fff;}.cls-5{stroke:#000;stroke-miterlimit:10;stroke-width:3.74px;}.cls-6{fill:#ffeebd;}.cls-7{fill:#f7d66d;}.cls-8{fill:#ffe292;}</style></defs><title>avoid</title><g id="Layer_2" data-name="Layer 2"><g id="Layer_2-2" data-name="Layer 2"><path class="cls-1" d="M89.48,330.83"/><path class="cls-1" d="M69.81,274.15c16.19,5.78-13.08,10.51,25.45,40.48,52,40.48,70.17,5.4,67.87,25.11"/><path class="cls-2" d="M35.88,158.49c-31.73,3.7,56.45,6.22,106.14-14s101.82-65.37,97.43-97c-5.59-40.28-38.21-59.58-87.91-39.33S78.81,153.48,35.88,158.49Z"/><path class="cls-1" d="M266.34,389.56c1.08,8.87,2.41,20.25,2.58,27.65.15,6.47,35.62,16,35.12,20.6-.78,7.14-51.06,2.31-53.28,2.58-5.28.64.54-27.6-3-56.35s-10.16-45.37,2.65-45.37C255.78,338.67,262.16,355.11,266.34,389.56Z"/><path class="cls-1" d="M181.82,390.56c.05,8.94.17,20.4.93,27.75.67,6.44-33.32,20.39-32.24,24.87,1.68,7,50.94-4.16,53.18-4.17,5.32,0-4-27.31-4.19-56.27s4.35-46.29-8.36-44.68C185.87,338.74,181.62,355.86,181.82,390.56Z"/><ellipse class="cls-3" cx="216.81" cy="236.07" rx="153.74" ry="139.87"/><path class="cls-4" d="M292.51,222c1.38,15-14.85,43.56-56.78,46.51-33,2.32-61-18.78-62.36-33.78s24.43-17.51,57.37-20.53S291.13,207,292.51,222Z"/><ellipse class="cls-1" cx="145.38" cy="195.42" rx="8.48" ry="7.63"/><ellipse class="cls-1" cx="294.28" cy="176.48" rx="8.48" ry="7.63"/><path class="cls-1" d="M138.56,158.76C130.82,165.41,125.79,172,127.5,174c1.38,1.61,5.64-6.13,13.38-12.78s15.75-9,14.65-11.31C154.54,147.88,146.3,152.11,138.56,158.76Z"/><path class="cls-1" d="M282.69,132.09c8.15,2.12,14.2,5.48,13.54,8-.53,2.06-6.36-2.66-14.51-4.78s-15.1-.39-15-2.9C266.8,130.19,274.54,130,282.69,132.09Z"/><path class="cls-1" d="M315.8,320.42C276.47,342,241,325,241.86,339.15c.49,8,47.69,12.43,81.65-7.94,37.35-22.4,49.18-56.18,44.36-63.92C362.39,258.51,363.59,294.18,315.8,320.42Z"/><path class="cls-1" d="M95.26,314.63c52,40.48,70.17,5.4,67.87,25.11-.94,8-44,13.45-71-10.45C62,302.56,61.23,271.09,69.81,274.15,86,279.93,56.73,284.67,95.26,314.63Z"/><path class="cls-5" d="M215.55,325.91s-3.47-1.56-3.9-4.77c-.58-4.24,10.58-7.31,18.51-4.19,4,1.59,9.42,5.15,12.14,9.5.86-3,2.12-4.49,3.73-4.49,3.19,0,6.54,5.75,6.54,17.89S248.45,359,245.25,359c-1.77,0-2.87-2.22-3.51-6.2-3.19,3.47-7.89,4.48-14.23,5.43-15.42,2.31-31.62-4.06-31.62-16.19S215.55,325.91,215.55,325.91Z"/><path class="cls-6" d="M198.2,357.43c12.7,1.41-36.2,53.53-35.86,44C163.5,369,27,251,3.88,237.14c-11-6.57,33.09-80,34.7-70.56C41.67,184.7,187.79,356.27,198.2,357.43Z"/><ellipse class="cls-7" cx="20.08" cy="200.7" rx="39.9" ry="12.72" transform="translate(-171.17 136.61) rotate(-65.76)"/><ellipse class="cls-7" cx="20.08" cy="200.7" rx="39.9" ry="12.72" transform="translate(-171.17 136.61) rotate(-65.76)"/><path class="cls-8" d="M35.88,165c-9.64-1.54-27.33,32.55-23.52,28.53C26.21,179,34.69,198.11,34,200.49c4.71-11.95,6.84-22.87,6-29.61C38.67,167.6,37.26,165.26,35.88,165Z"/><path class="cls-1" d="M95.26,314.63c-1.46-1.14-2.79-2.22-4.07-3.29,11.69,11.16,23.1,22.56,33.24,33.47,21,4,38.08.15,38.69-5.07C165.43,320,147.31,355.12,95.26,314.63Z"/><path class="cls-5" d="M187,326.59c-.92,0-1.84,0-2.76-.05,5.15-3.49,8-7.85,6.66-10.79-1.72-3.66-9.37-3.69-17.07-.06-4.07,1.92-8.14,6.41-10.85,10.76-.86-3-2.12-4.49-3.73-4.49-3.19,0-6.54,5.75-6.54,17.89S156.84,359,160,359c1.77,0,2.87-2.22,3.51-6.2,3.19,3.47,7.89,4.48,14.23,5.43,15.42,2.31,31.62-4.06,31.62-16.19S200.86,326.59,187,326.59Z"/></g></g></svg>