<svg xmlns="http://www.w3.org/2000/svg" viewBox="0 0 411.17 321.54"><defs><style>.cls-1{fill:#9ee244;}.cls-2{fill:#baed58;}.cls-3{fill:#46b73d;}.cls-4{fill:#f7941d;}.cls-5{fill:#009444;}.cls-6{fill:#d35461;}.cls-10,.cls-7,.cls-8{fill:#fff;stroke:#000;stroke-miterlimit:10;}.cls-7{stroke-width:1.61px;}.cls-8{stroke-width:1.52px;}.cls-9{fill:#fee465;}.cls-10{stroke-width:1.6px;}.cls-11{fill:#754c29;}</style></defs><title>begin_interview</title><g id="Layer_2" data-name="Layer 2"><g id="Layer_2-2" data-name="Layer 2"><path class="cls-1" d="M249.55,0H161.62C72.73,0,0,72.35,0,160.77H0c0,88.42,72.73,160.77,161.62,160.77h87.93c88.89,0,161.62-72.35,161.62-160.77h0C411.16,72.35,338.44,0,249.55,0Z"/><path class="cls-2" d="M249.55,0H228.91L154.41,321.35c2.39.11,4.79.18,7.2.18h87.94c88.89,0,161.62-72.35,161.62-160.77S338.44,0,249.55,0Z"/><path class="cls-3" d="M23.54,244.06a162.1,162.1,0,0,0,138.07,77.48h87.94a162.1,162.1,0,0,0,138.07-77.48Z"/><path d="M249.79,266.71c-.06,2.56.71,11.21-.7,12.24-3.68,2.67-9.54,2.58-8.86,4.22,1.26,3,15.31.91,16.28.91,2,0-.19-6.39-.19-17.61s1.11-19.26-.84-19.26S250,256.28,249.79,266.71Z"/><path d="M207.09,223.49c-11.71,1.69-22.14-1-21.6-2.2,2.23-4.91,10-.17,21.75-1.86s17.91-8.09,20.67-4.27C228.67,216.22,218.81,221.8,207.09,223.49Z"/><path class="cls-4" d="M315.89,203c.84,27-21.85,50.36-49.39,50.36S212.94,235.9,214.68,204c1.94-35.35,23.78-49.88,51.33-49.88S314.92,172,315.89,203Z"/><path class="cls-5" d="M353.85,176.32c16,2.59-35.54,2.94-57.91-10.82-13.8-8.49-25.46-21.54-23.27-32.68s9.25-15.82,25.57-12.62S322.39,171.23,353.85,176.32Z"/><path d="M265.4,267.43c-.06,2.56.71,11.21-.7,12.24-3.68,2.67-9.54,2.58-8.86,4.22,1.26,3,15.31.91,16.28.91,2,0-.19-6.39-.19-17.61s1.11-19.26-.84-19.26S265.65,257,265.4,267.43Z"/><polygon class="cls-5" points="275.46 157.5 272.19 157.86 277.51 141.09 281.77 142.37 275.46 157.5"/><ellipse cx="249.14" cy="187.86" rx="3.18" ry="2.76" transform="translate(17.82 397.26) rotate(-79.17)"/><path d="M257.24,174.63c2,2,2.69,5,2.29,5.2-.62.35-1.17-2.14-3.12-4.09s-4.45-1.81-4-3C252.63,172.34,255.29,172.68,257.24,174.63Z"/><path class="cls-6" d="M235.26,208c-1.85-4.84-11.24-1.45-17.8-1.45-1,0-1.92,0-2.79,0a48,48,0,0,0,1.66,13.41c.85.08,1.69.17,2.7.19C227.4,220.27,238,215.25,235.26,208Z"/><path d="M301,233.3c5.15,10.65,5.72,21.41,4.43,21.26-5.35-.64-3.19-9.52-8.34-20.17S284,219.75,286.82,216C287.6,214.93,295.9,222.64,301,233.3Z"/><path class="cls-7" d="M308.36,249.42c1.37-.43,2.21-1,2.21-1.67,0-1.3-3.39-2.36-7.57-2.36s-7.57,1.06-7.57,2.36c0,.49.5.95,1.33,1.32a7.6,7.6,0,0,0-2.53.9c-2.35,1.35-3.64,3.51-2.88,4.81.48.84,1.72,1.06,3.15.79a10.28,10.28,0,0,0-.15,1.44c0,5.32,3.9,7.45,8.72,7.45s8.72-2.13,8.72-7.45A9.94,9.94,0,0,0,308.36,249.42Z"/><path class="cls-8" d="M192.88,215.66c.53-1.19,1.18-1.89,1.83-1.84,1.3.11,2.09,3.23,1.77,7s-1.63,6.69-2.92,6.58c-.49,0-.9-.52-1.22-1.3-5.9,3.83-16.49,2.85-14.85-6.94.71-4.27,2.78-7.63,8.08-7.18A10.45,10.45,0,0,1,192.88,215.66Z"/><path d="M129.46,259.92c0,3.87-.71,16.94.7,18.49,3.68,4,13.06,4.35,12.38,6.82-1.26,4.55-18.82.93-19.8.93-2,0,.19-9.66.19-26.6s-2.14-23.61-.19-23.61S129.46,243,129.46,259.92Z"/><path class="cls-9" d="M73.16,151.69c-15.28,95,62.79,113.86,68.64,108.23,9.44-9.08-11.14-.23-8-67.55,4.72-101,74.45-160.53,44.67-171.06C163.93,16.16,88.06,59.08,73.16,151.69Z"/><path class="cls-9" d="M177.83,22.59c-1.93,4.09,2.62,10.48,6.37,3.94,3.4-5.92,16.74-9.06,19.71-11,3.91-2.6.25-5.14-7.39-6.71S180.8,16.28,177.83,22.59Z"/><path d="M125.1,189.46c14.75,14.75,46.49,18.16,43.94,24-.8,1.84-27.6-4-47.21-20.34-16-13.32-30.24-40.73-22.15-36.68C100.4,156.77,110.35,174.71,125.1,189.46Z"/><path d="M109.85,261c0,3.87-.71,16.94.7,18.49,3.68,4,13.06,4.35,12.38,6.82-1.26,4.55-18.82.93-19.8.93-2,0,.19-9.66.19-26.6S101.17,237,103.12,237,109.85,244.06,109.85,261Z"/><ellipse cx="142.56" cy="96.12" rx="2.85" ry="2.26" transform="translate(-28.98 107.76) rotate(-37.87)"/><path d="M142,124.54c-4-1.56-6.07-5.13-6.86-4.21-.41.47,2,3.63,6,5.19a16.2,16.2,0,0,0,5.17,1c.14-.41.26-.84.4-1.25A13,13,0,0,1,142,124.54Z"/><path d="M147,78.69c-5.3,1.54-6.91,4.73-7.51,3.64-.25-.45,3.1-3.32,7.23-4.64s7.78-.66,7.73-.14C154.33,78.55,152.61,77.06,147,78.69Z"/><path class="cls-10" d="M173.16,204.11c-4.81-1.55-9.25-2-12.34-.66-.32-1.7-1-2.88-2-3.12-2.17-.54-5,3.41-6.36,8.82s-.66,10.23,1.51,10.77c1.23.3,2.67-.86,3.93-2.89a17.05,17.05,0,0,0,11.84,9.36c7.75,1.45,15.25-2,15.25-10S180.67,206.53,173.16,204.11Z"/><path class="cls-11" d="M196.52,8.78c-3.15-.65-6.3.49-9.16,2.45a4.33,4.33,0,0,0-.16.88c0,3.13,3.4,5.81,8.23,6.93,3.69-1.51,7.14-2.66,8.48-3.54C207.82,12.9,204.16,10.36,196.52,8.78Z"/></g></g></svg>