<svg xmlns="http://www.w3.org/2000/svg" viewBox="0 0 185.5 173.87"><defs><style>.cls-1{fill:#fff;}</style></defs><title>begin</title><g id="Layer_2" data-name="Layer 2"><g id="Layer_7" data-name="Layer 7"><g id="_4vKc7v.tif" data-name="4vKc7v.tif"><path class="cls-1" d="M.06,173.93Q.06,87,.06.06h185.5q0,86.93,0,173.87ZM128.5,134.48a8.1,8.1,0,0,0,.1,1.57c.92,3.45,1.88,6.89,2.83,10.33.66,2.4,1.3,4.8,2,7.2.12.45,0,.66-.45.85-1.05.48-2.08,1-3.1,1.56a35.08,35.08,0,0,1-5.33,2.8c-.41.14-.82.31-1.23.45s-.6.32-.45.66a.82.82,0,0,0,.62.43,19.06,19.06,0,0,0,3.62-.3c2.88-.7,5.72-1.55,8.58-2.33l.9-.22.12.18L133,161.34a4.67,4.67,0,0,0-.53.52.54.54,0,0,0,.33.88,4.65,4.65,0,0,0,2.55-.26c.69-.37,1.39-.7,2.07-1.09,1.27-.73,2.51-1.5,3.78-2.24a1.8,1.8,0,0,1,.79-.25c.71,0,.92-.24.77-1s-.33-1.37-.5-2c-.61-2.39-1.1-4.82-1.86-7.17-1.13-3.53-2.45-7-3.65-10.5-.4-1.18-.68-2.41-1-3.61-.09-.34,0-.54.43-.63a22.24,22.24,0,0,0,8.07-3.59c.9-.62,1.76-1.29,2.63-1.93l4.32,7.64c-.2.16-.5.38-.79.63a7.25,7.25,0,0,0-.82.78c-.08.09,0,.31,0,.46a.42.42,0,0,0,.32,0c1-.61,1.94-1.24,2.91-1.85a20.4,20.4,0,0,1,2-1.22,9.12,9.12,0,0,1,4.48-1.13.77.77,0,0,1,.58.37,3,3,0,0,1-.87,3.23c.66.58,1.11.52,1.53-.23a4.42,4.42,0,0,0,.33-2.67c-.12-1.27-.53-1.61-1.81-1.59a10.07,10.07,0,0,0-3.8.92c-.62.27-1.23.57-1.81.85-.28-.89-.54-1.76-.83-2.61-.22-.63-.46-1.25-.74-1.85-.63-1.38-1.25-2.77-1.93-4.12a.81.81,0,0,1,0-1,27,27,0,0,0,5-9.64,34.66,34.66,0,0,0,1.16-8,25.29,25.29,0,0,0-1.65-11.07A21.15,21.15,0,0,0,146,86.11a30.84,30.84,0,0,0-9.55-3.45l-1.18-.25-.12-.22,1.9-1.72c.41-.37.38-.56-.11-.84a1.62,1.62,0,0,1-.49-.37,34.68,34.68,0,0,1-2.37-3.13A6.21,6.21,0,0,1,135.46,68a14.72,14.72,0,0,1,9.61-2.95,7.15,7.15,0,0,1,6,3.3,27,27,0,0,1,2.2,4c1.08,2.37,2,4.82,3.08,7.18a26.26,26.26,0,0,0,8.67,10.11,20.51,20.51,0,0,0,8.3,3.88l.81.16a47.18,47.18,0,0,1-8.89-.07,34.8,34.8,0,0,1-8.72-2.59c-1.84-.77-3.61-1.69-5.43-2.52a4.36,4.36,0,0,0-.91-.2l-.12.24a3.43,3.43,0,0,0,.64.63c1.26.71,2.51,1.44,3.81,2,3.92,1.81,7.93,3.34,12.3,3.52,4.21.17,8.42.14,12.46-1.25a15.24,15.24,0,0,0,2.6-1.37c.15-.09.17-.41.25-.62a2,2,0,0,0-.65,0,14,14,0,0,1-3,1.09,14.63,14.63,0,0,1-6.43-.5A26.45,26.45,0,0,1,159,82a40.38,40.38,0,0,1-3.89-7.79,31.57,31.57,0,0,0-3-6,8.62,8.62,0,0,0-7.35-4.06A16.32,16.32,0,0,0,135.41,67a7.08,7.08,0,0,0-1.89,9.83c.79,1.2,1.74,2.29,2.64,3.45-.35.46-.78,1-1.17,1.55a1,1,0,0,1-1,.42c-2.8-.19-5.61-.37-8.42-.44a16.58,16.58,0,0,0-5,.66,21.35,21.35,0,0,0-12,9,37.07,37.07,0,0,0-6.26,19.9c0,1.09.09,2.19.13,3.28,0,.28.14.58-.35.68-.95.19-1.88.46-2.81.72-3.92,1.06-7.71,2.6-11.74,3.28-.43.07-.83.21-1.23-.13-.15-.12-.42-.09-.54-.11-.16.29-.23.64-.39.68-1.28.33-2.58.61-3.86.89a.71.71,0,0,1-.07-.16c0-.11,0-.23,0-.34-.1-1.07.32-2.22-.53-3.16,0,0,0-.15,0-.22-.08-.71-.35-.84-.86-.53-.24-.19-.48-.5-.63-.46a1.08,1.08,0,0,0-.61.55,6.37,6.37,0,0,0-.33,1.14,11.12,11.12,0,0,0-4.47,0,2.09,2.09,0,0,0-.15-.25c-1.18-1.72-2.8-2.95-5-2.56a4.2,4.2,0,0,0-2.39,1.24c-.42.44-.42,1.14,0,1.28a6.74,6.74,0,0,0,1.38.14l0-.21-1-.43a5.49,5.49,0,0,1,.56-.5c2.22-1.46,4.71-.26,5.65,2,.17.4.35.72.82.52.19-.08.29-.35.43-.52,1.29.34,2.7-.21,3.89.43-.13,1.58-.28,3.11-.37,4.64a.85.85,0,0,1-.57.86,11.33,11.33,0,0,1-6.39.44c-.66-.09-.82-.61-.5-1.21.06-.12.12-.24.2-.43-.77.3-1,.61-1,1.3a1.08,1.08,0,0,0,.81,1.1,3.12,3.12,0,0,0,.87.24c2.19.17,4.4.43,6.52-.59.19.67.64.72,1.21.67,1.88-.18,1.89-.17,2.28-2,.07-.33.18-.51.55-.47a5.92,5.92,0,0,0,.63,0,.81.81,0,0,0,.83-.52,1.62,1.62,0,0,1,1.67-.85c1.2,0,2.39.06,3.59.06a9.29,9.29,0,0,0,4.14-.94l-1.26.23a2.43,2.43,0,0,1,.79-.33,24.41,24.41,0,0,0,5.39-2c1.63-.85,3.24-1.88,5.27-1.68.33.73.67,1.52,1,2.31.51,1.08,1.06,2.14,1.54,3.24a12.19,12.19,0,0,0,3.81,5A35.27,35.27,0,0,0,124.59,134C125.89,134.22,127.22,134.32,128.5,134.48ZM60,24.6c-.51-.18-.67,0-.72.43a2.12,2.12,0,0,1-.19.54c-1.39,3.27-2.7,6.58-4.19,9.81-2.77,6-5.39,12.12-7.66,18.36a234.74,234.74,0,0,0-10,35.13c0,.19-.1.38-.17.62L36.42,89a76,76,0,0,1-.82,10.66c-1.1-.73-2.17-1.4-3.21-2.14a64.33,64.33,0,0,1-5.43-4,59.71,59.71,0,0,1-7.9-9.22A29,29,0,0,1,17,81a7.76,7.76,0,0,1-1.39-2.78c0-.08-.16-.23-.21-.21s-.27.14-.27.22a3.11,3.11,0,0,0,.1,1.21c.41.92.94,1.78,1.39,2.68a4.44,4.44,0,0,1,.34,1.07c.13.61.16,1.25.33,1.85a31.78,31.78,0,0,0,12,17.24c1.67,1.24,3.47,2.33,5.22,3.47a.78.78,0,0,1,.39.84c-.19,2.18-.44,4.35-.48,6.53a51.34,51.34,0,0,0,2.15,15.36,1.82,1.82,0,0,1-.8,2.43c-.68.43-.63.52-.09,1.24l1.57-1.26c.1.29.15.47.22.64.75,1.89,1.42,3.81,2.28,5.65a18.65,18.65,0,0,0,1.94,2.86c.09.12.36.11.54.15,0-.19,0-.41-.07-.55a42.49,42.49,0,0,1-3.46-8.11c-.36-1-.52-1.79.65-2.32.14-.06.13-.44.2-.67a1.89,1.89,0,0,0-.72,0,4.36,4.36,0,0,0-.84.53A53.18,53.18,0,0,1,36,107c.34.26.61.47.89.67l5.41,3.8a7.07,7.07,0,0,1,.84.67,12.37,12.37,0,0,0,3.74,2.47c.79.34,1,.23,1.22-.58a.48.48,0,0,1,0,.42,18.65,18.65,0,0,0-.93,1.63c-.08.19.14.52.22.79.24-.15.48-.3.71-.46,0,0,0-.13,0-.16.57-.69.66-1.91,2-1.79a.52.52,0,0,0,.4-.32c0-.16-.11-.36-.21-.52s-.16-.13-.27-.22a16.67,16.67,0,0,1,3-3.47,2.76,2.76,0,0,1,0,2.51c-.8,1.4-1.47,2.87-2.19,4.32a7.71,7.71,0,0,0-.86,3.79c0,1,.41,1.34,1.6.9a2.44,2.44,0,0,0,.6-.43c.24-.19.47-.4.75-.64a5.82,5.82,0,0,0,3.77,4.09c.16.06.27.28.39.43a10.69,10.69,0,0,0,1.26,1.65,3.42,3.42,0,0,0,3,.71c.19,0,.35-.28.52-.43a3.14,3.14,0,0,0-.52-.4c-.14-.07-.34,0-.5-.07A9.42,9.42,0,0,1,59.4,126a2.07,2.07,0,0,1-1.06-1c.35-.26.79-.43.83-.66.08-.5-.4-.49-.76-.5s-.45-.19-.45-.52c0-.72-.06-1.45,0-2.17.07-1,.21-2,.34-3a.66.66,0,0,1,.83-.64c1.29.16,2.61.2,3.88.47a14.24,14.24,0,0,1,6.19,2.76c.22.18.49.48.48.71s0,.53.33.48a.73.73,0,0,0,.44-.51,1.35,1.35,0,0,0-.68-1.29A12.53,12.53,0,0,0,66,117.92l-2.2-.76c.35-.24.6-.45.88-.61a2,2,0,0,0,0-3.31,3.37,3.37,0,0,0-1.41-.57c-1.47-.05-3,0-4.43,0a1.87,1.87,0,0,1-.72,0,7,7,0,0,0-3.68-.93,2.69,2.69,0,0,1,.07-.52.92.92,0,0,0-.27-1.1c-.29-.29-.37-.81-.67-1.07a1.06,1.06,0,0,0-.93,0,4.56,4.56,0,0,0-1.11.88c-.47.48-.9,1-1.38,1.56-.36-.62-1.23-.78-1.27-1.62,0-.07-.11-.16-.18-.21-.69-.5-1.38-1-2.09-1.47-1.31-.88-2.69-1.66-3.92-2.64-2-1.62-4-3.37-5.93-5.08a.74.74,0,0,1-.19-.58c.12-.85.3-1.68.44-2.52.56-3.16,1-6.34,1.7-9.48,1-4.74,2.07-9.47,3.31-14.15,1.87-7.08,4.16-14,6.6-20.93.19-.54.4-1.07.6-1.61a8.08,8.08,0,0,1-.15,1.43c-.06.45-.08.9-.12,1.35l.3.06,2.42-8.46.16,0a7.46,7.46,0,0,0-.09.9c0,.14.12.28.19.42.13-.08.33-.14.39-.26a5.73,5.73,0,0,0,.32-.91c.57-1.93,1-3.92,1.73-5.78,1.61-4,3.35-8,5.11-12a19.87,19.87,0,0,0,1.9-7.69,4,4,0,0,0-.08-.6l-.18,0-1,1.36.06.07.73-.57ZM14.68,121.67c-.17-.21-.3-.34-.41-.49A52.23,52.23,0,0,1,7.43,109,99.44,99.44,0,0,1,2.19,92.3,7,7,0,0,1,2,90.1a150.43,150.43,0,0,1,2.15-15A97.9,97.9,0,0,1,14.31,47.41,67.13,67.13,0,0,1,31.79,26.58c3.53-2.76,7.25-5.28,11-7.78a46.45,46.45,0,0,1,11.38-5.6,6.84,6.84,0,0,0,.71-.32l-.06-.15a5,5,0,0,0-.59.12c-1.19.39-2.4.75-3.56,1.21a56.29,56.29,0,0,0-9.83,5.15A112.18,112.18,0,0,0,29.9,27a65.11,65.11,0,0,0-11.7,12.33A88.3,88.3,0,0,0,8.46,57,95.91,95.91,0,0,0,2.23,79.2C1.54,83.7,1,88.24.55,92.78A54.41,54.41,0,0,0,.47,104a73.12,73.12,0,0,0,3.32,15.12A26.44,26.44,0,0,0,6.28,125a3.22,3.22,0,0,0,.57.56l.17-.14-.22-.67c-.73-2.16-1.54-4.3-2.18-6.48a70.18,70.18,0,0,1-3-15.13c-.19-2.87,0-5.77,0-8.66a5.85,5.85,0,0,1,.08-.69,2.06,2.06,0,0,1,.3.75A104.79,104.79,0,0,0,5.2,105.86a61,61,0,0,0,5.95,12.67,49.29,49.29,0,0,0,3.68,4.92A28.71,28.71,0,0,0,17.56,126a1,1,0,0,1,.37,1,20.12,20.12,0,0,0-.15,3.22c.12,2.56.4,5.12.48,7.68.14,4.16.18,8.32.26,12.49,0,.23,0,.46,0,.68q.17,2,.36,4.07c0,.3-.1.4-.39.42s-.74.08-1.13.13c.36.88.56,1,1.38,1a25.85,25.85,0,0,1,3,.17c2.91.44,5.81,1,8.72,1.42a4.15,4.15,0,0,0,1.24,0,2.71,2.71,0,0,0,.74-.36l-.53-.66s0-.07,0-.14a.89.89,0,0,0,.23-.12c.18-.17.48-.35.48-.52s-.24-.44-.44-.58a1.94,1.94,0,0,0-.64-.24,33.23,33.23,0,0,0-6.91-1.11c-.61,0-.75-.25-.74-.81a49.49,49.49,0,0,0-.81-9.93c-.6-3.42-1.21-6.85-1.79-10.27-.08-.46-.17-.78-.77-.62l-.7-4.43,9.87,6.92v.21a1.94,1.94,0,0,1-.54.12.41.41,0,0,0-.5.47,5.54,5.54,0,0,0,.11.79c.59,3.71,1.74,7.32,2,11.1.13,1.86.33,3.71.49,5.56a1.22,1.22,0,0,1-.11.45c-.08.24-.17.47-.26.71a2.42,2.42,0,0,0,.76.22c1.87-.12,3.75-.27,5.62-.4.78-.05,1.56,0,2.33-.13a1.11,1.11,0,0,0,.75-.48c.09-.16-.15-.49-.25-.77.22-.06.53-.14.84-.23.78-.25,1.56-.48,2.32-.78a.72.72,0,0,0,.37-.59c0-.18-.36-.34-.58-.41a3.07,3.07,0,0,0-.74,0c-.13,0-.3,0-.38-.07a3.25,3.25,0,0,0-2.47-.8q-1.51,0-3,0c-.94,0-1.88.11-2.88.17a46,46,0,0,0-2.71-14.25,10,10,0,0,0,4.34,1,4.85,4.85,0,0,0,1,.05A.85.85,0,0,0,36.9,136c-.34.87-1,.66-1.67.58-2.06-.23-3.81-1.33-5.69-2.06s-3.21-2.38-5-3.37a24.56,24.56,0,0,1-3.73-3,12,12,0,0,1-1.17-1.34c0-.06-.11-.14-.17-.14-.55,0-.55-.44-.59-.81-.06-.6-.06-1.21-.14-1.82,0-.22-.19-.57-.33-.6-.38-.07-.35.28-.37.55,0,.11,0,.21,0,.32l-.15.09-3.11-3.32ZM147.8,150a3,3,0,0,0,1.2,2.29,8.54,8.54,0,0,1,.91,1.12c.27.34.19.57-.2.8q-1.8,1.1-3.54,2.29c-.18.12-.21.45-.31.68.25,0,.55.17.75.08a9.62,9.62,0,0,0,1.22-.73l2.76-1.69.06.09-5.71,4c-.33-.46-.6-.88-.92-1.24a.61.61,0,0,0-.54-.13c-.11,0-.2.31-.18.47a1.63,1.63,0,0,0,.24.62c.16.29.36.56.56.87l-1.06.77c-.33.23-.58.52-.32.9s.66.24,1,0l.69-.49c.23.34.42.67.65,1,1.21,1.59,2.46,3.14,3.63,4.76,1.33,1.85,2.6,3.74,3.86,5.64.29.44.41,1,1.1,1a.39.39,0,0,1,.28.17c.3.5.74.41,1.16.24a9.13,9.13,0,0,0,1.22-.6c1.42-.84,2.8-1.78,4.26-2.53,4.42-2.26,8.87-4.44,13.31-6.66q2.68-1.34,5.33-2.73c.52-.27,1-.6,1-1.32,0-.11.15-.26.26-.32l3.94-2.29c.15-.09.35-.13.44-.26s.26-.45.19-.59a.77.77,0,0,0-.56-.35,1.58,1.58,0,0,0-.69.21c-.59.26-1.16.56-1.76.81a94.58,94.58,0,0,0-14.65,7.75,65.59,65.59,0,0,1-8.71,4.83c-.76.34-1.49.76-2.23,1.16s-.78.59-.3,1.33c-.53.27-1,.54-1.57.79-.28.13-.41,0-.51-.3a5.46,5.46,0,0,0-.66-1.67c-1.92-2.74-3.89-5.44-5.85-8.15-.64-.89-1.3-1.77-2-2.71.26-.18.47-.34.69-.48q6.58-4.16,13.16-8.32c2.52-1.59,5.06-3.15,7.6-4.73a5.38,5.38,0,0,1,.53-.26l0,.09-1,.67c.13.09.2.07.26,0l5-2.62c.57-.3,1.15-.58,1.72-.89a15.36,15.36,0,0,0,1.49-.9.57.57,0,0,0,.11-.54c-.07-.13-.33-.19-.51-.23a.45.45,0,0,0-.32.1c-.41.32-.7.17-1-.17q-1.43-1.55-2.9-3.06a1.87,1.87,0,0,0-2.26-.23c-.93.57-1.89,1.09-2.85,1.64-.13-.23-.18-.35-.26-.46a5.21,5.21,0,0,0-2.67-2.21c-.19-.06-.45.11-.68.17a2.85,2.85,0,0,0,.34.63c.12.13.37.13.5.25a9.24,9.24,0,0,1,1.82,1.75,2,2,0,0,1-1.19,3c-.64.24-.78.46-.73,1.17,0,.45.07.91.06,1.37a1.87,1.87,0,0,1-2.31,1.62c-1.41-.56-2.78-1.22-4.17-1.83-.27-.12-.54-.2-.94-.35l.13,1.27-1.05-.26c.12-.09.31-.17.4-.32a.75.75,0,0,0,.09-.56c0-.12-.35-.26-.45-.21a1.07,1.07,0,0,1-1.08-.12,1.17,1.17,0,0,0-.66,0,7,7,0,0,0-.8.25,7.29,7.29,0,0,1,.24-1.23c.34-.88.76-1.74,1.1-2.62.07-.2-.06-.47-.1-.71-.22.08-.56.09-.66.25a8.22,8.22,0,0,0-1.59,4.38,1,1,0,0,1-.5.93q-1.56,1.24-3,2.58a1.11,1.11,0,0,0-.33.87c.08.42.51.44.9.37ZM81.94,8.54c-1.6.52-3.06,1-4.56,1.46-3.93,1.11-7.88,2.16-11.8,3.29a27.46,27.46,0,0,0-3.17,1.27c-.29.12-.54.42-.28.73a.84.84,0,0,0,.73.13c.47-.14.89-.44,1.36-.59,3.06-1,6.12-1.94,9.21-2.8A69.17,69.17,0,0,0,82,9.43c1-.42,1.08-.75.47-1.63a30.94,30.94,0,0,0-6-6.8A2.69,2.69,0,0,0,73.4.5a17.74,17.74,0,0,0-3.13,1.84,63.54,63.54,0,0,0-10.19,9.17c-.07.09-.16.28-.12.33s.27.22.37.19a1.61,1.61,0,0,0,.61-.37c.36-.36.66-.79,1-1.14a84.46,84.46,0,0,1,9.51-8,14.05,14.05,0,0,1,2.67-1.37,1.34,1.34,0,0,1,1.57.33A15,15,0,0,0,77,2.6,28.31,28.31,0,0,1,81.94,8.54Zm98.53,143.37-.17.24,3.34,2.77a.16.16,0,0,0,.1,0c.25,0,.58,0,.72-.15a.85.85,0,0,0,.06-.71,3.49,3.49,0,0,0-.48-.77l-4.28-6.39c-.84-1.26-1.67-2.54-2.52-3.8-.18-.28-.4-.69-.79-.43s-.06.64.1.93.25.38.37.58l5.42,8.77s0,.05-.06.1ZM40.77,68.64l.6-.53c-.19-.17-.36-.43-.58-.48a10.09,10.09,0,0,1-5.07-2.77,4,4,0,0,1-.52-1.1,4.67,4.67,0,0,0-.3-.47c-.13.16-.39.34-.38.48a2.74,2.74,0,0,0,.32,1.29C36.27,67.05,38.41,67.9,40.77,68.64Zm-4.59-25a.9.9,0,0,0,1.06.31q3.78-.67,7.56-1.37c.29-.05.78.09.76-.43a1.52,1.52,0,0,0-.88-.16c-2.67.47-5.34,1-8,1.48A3.56,3.56,0,0,0,36.17,43.62Zm111.9,97.78-.09-.22c.35-.8.66-1.65,1.64-2-.24-.45-.52-.59-.84-.34a4,4,0,0,0-1.64,2.24c-.1.45,0,.93.52,1a26.21,26.21,0,0,0,2.77,0,.51.51,0,0,0,.38-.21,2.44,2.44,0,0,0,.15-.62,2.52,2.52,0,0,0-.55-.09C149.64,141.27,148.86,141.34,148.08,141.41Zm-109.27-89a2.39,2.39,0,0,0,1.64-.67c.51-.57.34-1.47-.31-1.57s-1.57-.24-2,.67a2.47,2.47,0,0,0-.28,1.2C37.92,52.22,38.49,52.31,38.81,52.43Zm62.86,68.76.1.15c.59-.3,1.19-.59,1.76-.92.1-.06.08-.3.12-.46-.16,0-.35,0-.47.06-.33.21-.63.47-.94.71Z" transform="translate(-0.06 -0.06)"/><path d="M128.5,134.48c-1.28-.15-2.61-.26-3.92-.48a35.27,35.27,0,0,1-15.39-6.38,12.19,12.19,0,0,1-3.81-5c-.48-1.09-1-2.15-1.54-3.24-.37-.79-.71-1.58-1-2.31-2-.2-3.64.83-5.27,1.68a24.41,24.41,0,0,1-5.39,2,2.43,2.43,0,0,0-.79.33l1.26-.23a9.29,9.29,0,0,1-4.14.94c-1.2,0-2.39,0-3.59-.06a1.62,1.62,0,0,0-1.67.85.81.81,0,0,1-.83.52,5.92,5.92,0,0,1-.63,0c-.37,0-.48.14-.55.47-.39,1.86-.4,1.84-2.28,2-.57.06-1,0-1.21-.67-2.12,1-4.33.76-6.52.59a3.12,3.12,0,0,1-.87-.24,1.08,1.08,0,0,1-.81-1.1c0-.69.23-1,1-1.3-.09.18-.14.31-.2.43-.32.6-.16,1.11.5,1.21a11.33,11.33,0,0,0,6.39-.44.85.85,0,0,0,.57-.86c.09-1.53.24-3.06.37-4.64-1.19-.64-2.59-.08-3.89-.43-.13.17-.24.44-.43.52-.47.2-.65-.12-.82-.52-.94-2.22-3.43-3.43-5.65-2a5.49,5.49,0,0,0-.56.5l1,.43,0,.21a6.74,6.74,0,0,1-1.38-.14c-.42-.13-.42-.83,0-1.28a4.2,4.2,0,0,1,2.39-1.24c2.21-.39,3.83.83,5,2.56a2.09,2.09,0,0,1,.15.25,11.12,11.12,0,0,1,4.47,0,6.37,6.37,0,0,1,.33-1.14,1.08,1.08,0,0,1,.61-.55c.15,0,.39.28.63.46.52-.3.78-.17.86.53,0,.08,0,.18,0,.22.85.94.43,2.1.53,3.16,0,.11,0,.23,0,.34a.71.71,0,0,0,.07.16c1.28-.29,2.58-.56,3.86-.89.16,0,.23-.39.39-.68.13,0,.4,0,.54.11.4.33.8.2,1.23.13,4-.68,7.82-2.21,11.74-3.28.93-.25,1.87-.52,2.81-.72.49-.1.36-.4.35-.68,0-1.09-.16-2.19-.13-3.28a37.07,37.07,0,0,1,6.26-19.9,21.35,21.35,0,0,1,12-9,16.58,16.58,0,0,1,5-.66c2.81.07,5.62.25,8.42.44a1,1,0,0,0,1-.42c.4-.55.82-1.09,1.17-1.55-.9-1.16-1.85-2.25-2.64-3.45A7.08,7.08,0,0,1,135.41,67a16.32,16.32,0,0,1,9.41-2.76,8.62,8.62,0,0,1,7.35,4.06,31.57,31.57,0,0,1,3,6A40.38,40.38,0,0,0,159,82a26.45,26.45,0,0,0,13.11,10.08,14.63,14.63,0,0,0,6.43.5,14,14,0,0,0,3-1.09,2,2,0,0,1,.65,0c-.08.21-.1.53-.25.62a15.24,15.24,0,0,1-2.6,1.37c-4,1.39-8.26,1.42-12.46,1.25-4.37-.18-8.39-1.71-12.3-3.52-1.31-.6-2.55-1.34-3.81-2a3.43,3.43,0,0,1-.64-.63l.12-.24a4.36,4.36,0,0,1,.91.2c1.81.83,3.59,1.75,5.43,2.52a34.8,34.8,0,0,0,8.72,2.59,47.18,47.18,0,0,0,8.89.07l-.81-.16a20.51,20.51,0,0,1-8.3-3.88,26.26,26.26,0,0,1-8.67-10.11c-1.1-2.36-2-4.81-3.08-7.18a27,27,0,0,0-2.2-4,7.15,7.15,0,0,0-6-3.3A14.72,14.72,0,0,0,135.46,68a6.21,6.21,0,0,0-1.38,8.12,34.68,34.68,0,0,0,2.37,3.13,1.62,1.62,0,0,0,.49.37c.49.28.52.47.11.84l-1.9,1.72.12.22,1.18.25A30.84,30.84,0,0,1,146,86.11a21.15,21.15,0,0,1,8.56,10.23,25.29,25.29,0,0,1,1.65,11.07,34.66,34.66,0,0,1-1.16,8,27,27,0,0,1-5,9.64.81.81,0,0,0,0,1c.68,1.36,1.31,2.74,1.93,4.12.27.6.52,1.22.74,1.85.3.85.55,1.72.83,2.61.58-.27,1.18-.58,1.81-.85a10.07,10.07,0,0,1,3.8-.92c1.27,0,1.69.32,1.81,1.59a4.42,4.42,0,0,1-.33,2.67c-.42.75-.87.82-1.53.23a3,3,0,0,0,.87-3.23.77.77,0,0,0-.58-.37,9.12,9.12,0,0,0-4.48,1.13,20.4,20.4,0,0,0-2,1.22c-1,.61-1.94,1.24-2.91,1.85a.42.42,0,0,1-.32,0c0-.15-.09-.37,0-.46a7.25,7.25,0,0,1,.82-.78c.28-.24.59-.47.79-.63l-4.32-7.64c-.86.64-1.73,1.31-2.63,1.93a22.24,22.24,0,0,1-8.07,3.59c-.41.08-.52.29-.43.63.32,1.21.6,2.43,1,3.61,1.2,3.51,2.52,7,3.65,10.5.75,2.35,1.25,4.78,1.86,7.17.17.68.35,1.36.5,2s-.05.93-.77,1a1.8,1.8,0,0,0-.79.25c-1.27.73-2.51,1.5-3.78,2.24-.67.39-1.38.72-2.07,1.09a4.65,4.65,0,0,1-2.55.26.54.54,0,0,1-.33-.88,4.67,4.67,0,0,1,.53-.52l3.71-3.68-.12-.18-.9.22c-2.86.79-5.7,1.64-8.58,2.33a19.06,19.06,0,0,1-3.62.3.82.82,0,0,1-.62-.43c-.14-.34.13-.55.45-.66s.82-.31,1.23-.45a35.08,35.08,0,0,0,5.33-2.8c1-.55,2-1.09,3.1-1.56.43-.2.57-.4.45-.85-.66-2.4-1.3-4.8-2-7.2-.94-3.44-1.91-6.88-2.83-10.33A8.1,8.1,0,0,1,128.5,134.48Zm-23.82-22.15a2.7,2.7,0,0,0,.3-.09c1.33-.61,2.65-1.24,4-1.81a12.64,12.64,0,0,1,5.55-1.07,2,2,0,0,1,2.16,1.79,4.27,4.27,0,0,1-1.51,4.35c-.79.68-1.65,1.28-2.47,1.93a13.16,13.16,0,0,1-4.19,2.38,7,7,0,0,1-2.61.17c-.16,0-.3-.26-.44-.39a2.21,2.21,0,0,1,.47-.2,3.16,3.16,0,0,1,.58,0l-1.94-3.13-.34.13c-.85.33-.94.37-.57,1.22a20.26,20.26,0,0,0,1.64,3c.87,1.33,1.86,2.59,2.78,3.89a5.37,5.37,0,0,1,.37.71l-.16.1-2.77-3.27a1.28,1.28,0,0,0,.19.49c.59,1.09,1.72,1.82,2.07,3.09a.6.6,0,0,0,.22.26,13.48,13.48,0,0,0,1.53,1.18c.85.5,1.78.86,2.64,1.35a36.83,36.83,0,0,0,15.28,4.94,28.43,28.43,0,0,0,8.69-.34,24.56,24.56,0,0,0,10.1-5.07c.28-.23.19-.41,0-.63-.85-1.3-1.67-2.63-2.58-3.9-.46-.64-1.12-1.12-1.64-1.71a16.86,16.86,0,0,1-1.31-1.69.63.63,0,0,1,.06-.61.65.65,0,0,1,.61,0,5,5,0,0,1,1.1.8c1.45,1.45,2.88,2.92,4.32,4.39.47.48.92,1,1.37,1.49.46-.39.5-.44.13-.79-1.18-1.1-2.39-2.16-3.59-3.24l-.59-.55.14-.18c1.76,1,3.64,1.85,4.93,3.61a14.75,14.75,0,0,0,1.62-2.18,14.56,14.56,0,0,0,.73-2.64v1.57l.14,0c.3-.52.63-1,.9-1.55a28.06,28.06,0,0,0,3.12-12.38,26.37,26.37,0,0,0-.77-8.87,20.33,20.33,0,0,0-14.55-14.64,44,44,0,0,0-15.15-1.79,18.4,18.4,0,0,0-5.53,1,21.55,21.55,0,0,0-11.51,10,38.31,38.31,0,0,0-5,20.73c0,.32.06.63.09,1h.92a3.93,3.93,0,0,0-.05-.42,20.12,20.12,0,0,1,0-8.88c1.38-6.73,4.5-12.47,10-16.72a2.56,2.56,0,0,1,.71-.26,3,3,0,0,1-.39.62A41.16,41.16,0,0,0,111,92.85a27,27,0,0,0-6.39,18.55C104.62,111.7,104.66,112,104.69,112.33Zm.06.65a10.64,10.64,0,0,0,2.78,6c.1.11.3.24.42.22a8.25,8.25,0,0,0,3.12-1.41c-.34,0-.54,0-.74,0s-.82.13-.84-.39c0-.13.51-.36.8-.41a7.86,7.86,0,0,0,5-2.78,3.33,3.33,0,0,0,.67-2.95,1.18,1.18,0,0,0-1.3-1.11,10.68,10.68,0,0,0-2.83.21c-1.72.5-3.39,1.21-5.08,1.83Zm28.53,44.14a3.33,3.33,0,0,0,.69,0,14.46,14.46,0,0,1,2.69-.69,2.38,2.38,0,0,0,1.76-1,1,1,0,0,0,.26-1.11c-1.37-5.12-2.73-10.24-4.05-15.37-.39-1.5-.62-3-.93-4.58l-2.58.13c.17.54.34,1,.48,1.55A48.37,48.37,0,0,0,133,141.5a61.71,61.71,0,0,1,3.1,11.59,15.13,15.13,0,0,1,.2,2.44.8.8,0,0,1-.43.63c-.18.05-.46-.2-.68-.34-.07,0-.09-.15-.14-.23C135,156.65,133.92,156.49,133.28,157.12Zm3.32,3.34.06.11c.18-.09.36-.18.53-.28l3.31-2c1-.62,1-.25.64-1.57,0,0,0-.06-.07-.08l-.06.1-.79-.49L138.83,158c.32.41.08.7-.3,1C137.88,159.45,137.24,160,136.6,160.46Zm-5.79-22.78.2-.09-.81-3.09h-.86ZM80.29,123.13c-.5-.19-.73-.07-.87.31s-.31.66-.4,1c0,.17.08.38.12.57.19-.09.5-.12.56-.27C79.95,124.23,80.1,123.68,80.29,123.13Zm71.2,9.2a9,9,0,0,0-2.34-3.61Zm-1.65-4.6-.78-1.43C148.65,126.68,148.76,126.88,149.85,127.73Z" transform="translate(-0.06 -0.06)"/><path d="M60,24.6l.94-4-.73.57-.06-.07,1-1.36.18,0a4,4,0,0,1,.08.6,19.87,19.87,0,0,1-1.9,7.69C57.74,32,56,36,54.39,40c-.74,1.86-1.16,3.85-1.73,5.78a5.73,5.73,0,0,1-.32.91c-.06.12-.26.17-.39.26-.07-.14-.19-.28-.19-.42a7.46,7.46,0,0,1,.09-.9l-.16,0-2.42,8.46L49,54c0-.45.06-.9.12-1.35a8.08,8.08,0,0,0,.15-1.43c-.2.54-.41,1.07-.6,1.61C46.2,59.75,43.91,66.7,42,73.78c-1.24,4.68-2.29,9.42-3.31,14.15-.67,3.14-1.14,6.32-1.7,9.48-.15.84-.32,1.68-.44,2.52a.74.74,0,0,0,.19.58c2,1.71,3.9,3.45,5.93,5.08,1.23,1,2.61,1.76,3.92,2.64.71.48,1.4,1,2.09,1.47.08.05.18.14.18.21,0,.84.91,1,1.27,1.62.48-.55.91-1.08,1.38-1.56a4.56,4.56,0,0,1,1.11-.88,1.06,1.06,0,0,1,.93,0c.31.26.38.79.67,1.07a.92.92,0,0,1,.27,1.1,2.69,2.69,0,0,0-.07.52,7,7,0,0,1,3.68.93,1.87,1.87,0,0,0,.72,0c1.48,0,3-.09,4.43,0a3.37,3.37,0,0,1,1.41.57,2,2,0,0,1,0,3.31c-.28.15-.53.36-.88.61l2.2.76a12.53,12.53,0,0,1,3.73,2.16,1.35,1.35,0,0,1,.68,1.29.73.73,0,0,1-.44.51c-.29.05-.34-.16-.33-.48s-.26-.53-.48-.71A14.24,14.24,0,0,0,63,117.94c-1.27-.27-2.59-.31-3.88-.47a.66.66,0,0,0-.83.64c-.14,1-.27,2-.34,3,0,.72,0,1.44,0,2.17,0,.32.1.5.45.52s.84,0,.76.5c0,.23-.48.39-.83.66a2.07,2.07,0,0,0,1.06,1,9.42,9.42,0,0,0,1.48.39c.16,0,.36,0,.5.07a3.14,3.14,0,0,1,.52.4c-.17.15-.33.4-.52.43a3.42,3.42,0,0,1-3-.71,10.69,10.69,0,0,1-1.26-1.65c-.12-.16-.23-.38-.39-.43A5.82,5.82,0,0,1,53,120.37c-.28.24-.51.45-.75.64a2.44,2.44,0,0,1-.6.43c-1.18.45-1.56.14-1.6-.9a7.71,7.71,0,0,1,.86-3.79c.71-1.45,1.39-2.92,2.19-4.32a2.76,2.76,0,0,0,0-2.51,16.67,16.67,0,0,0-3,3.47c.11.09.22.13.27.22s.24.36.21.52a.52.52,0,0,1-.4.32c-1.32-.12-1.4,1.1-2,1.79,0,0,0,.14,0,.16-.23.16-.47.31-.71.46-.08-.27-.3-.59-.22-.79a18.65,18.65,0,0,1,.93-1.63.48.48,0,0,0,0-.42c-.24.81-.43.92-1.22.58a12.37,12.37,0,0,1-3.74-2.47,7.07,7.07,0,0,0-.84-.67l-5.41-3.8c-.28-.19-.54-.41-.89-.67a53.18,53.18,0,0,0,1.87,22.07,4.36,4.36,0,0,1,.84-.53,1.89,1.89,0,0,1,.72,0c-.06.23-.06.61-.2.67-1.17.53-1,1.35-.65,2.32a42.49,42.49,0,0,0,3.46,8.11c.09.14.05.37.07.55-.18,0-.45,0-.54-.15a18.65,18.65,0,0,1-1.94-2.86c-.86-1.84-1.53-3.76-2.28-5.65-.07-.17-.12-.36-.22-.64L35.6,132.2c-.54-.72-.59-.81.09-1.24a1.82,1.82,0,0,0,.8-2.43,51.34,51.34,0,0,1-2.15-15.36c0-2.18.29-4.36.48-6.53a.78.78,0,0,0-.39-.84c-1.75-1.14-3.55-2.22-5.22-3.47a31.78,31.78,0,0,1-12-17.24c-.17-.6-.2-1.24-.33-1.85a4.44,4.44,0,0,0-.34-1.07c-.45-.9-1-1.76-1.39-2.68a3.11,3.11,0,0,1-.1-1.21c0-.08.16-.19.27-.22s.2.13.21.21A7.76,7.76,0,0,0,17,81a29,29,0,0,0,2.11,3.25A59.71,59.71,0,0,0,27,93.52a64.33,64.33,0,0,0,5.43,4c1,.73,2.11,1.41,3.21,2.14A76,76,0,0,0,36.42,89l.64.52c.07-.24.13-.43.17-.62a234.74,234.74,0,0,1,10-35.13c2.27-6.24,4.89-12.33,7.66-18.36,1.48-3.23,2.8-6.53,4.19-9.81a2.12,2.12,0,0,0,.19-.54C59.28,24.63,59.44,24.42,60,24.6Zm-3,98.85c0-1.19-.07-2.25,0-3.31a17.13,17.13,0,0,1,.57-2.77,1.1,1.1,0,0,1,1.11-.82,33.47,33.47,0,0,1,3.35-.13,3,3,0,0,0,2.11-.81.86.86,0,0,0,0-1.45,2.86,2.86,0,0,0-1.3-.52A11.26,11.26,0,0,0,58,114c-1.08.4-2.12.93-3.19,1.36a3.64,3.64,0,0,1-1.35.25c-.36,0-1.11.2-1.26.54a19.88,19.88,0,0,0-.94,2.32,15.84,15.84,0,0,0-.33,2.18l.2.06a4.93,4.93,0,0,0,.5-.36c.43-.4.84-.83,1.28-1.21a.71.71,0,0,1,.55-.14c.12,0,.3.33.26.42-.19.41,0,.74.17,1.07A4.94,4.94,0,0,0,57,123.45Zm-2.35-11.08-.72,2.39,3.47-1.71A4.62,4.62,0,0,0,54.64,112.37Zm-20.48-8.78.12-.13-5.38-4A16.55,16.55,0,0,0,34.16,103.59ZM42,107.81l.12-.24-3.72-2-.12.22Zm5,4.12c.24.74,1.82,1.29,2.26.85ZM19.81,87a6,6,0,0,0,1.48,2.77l.19-.11ZM40.37,109l1.7,1.11.13-.21A4.06,4.06,0,0,0,40.37,109Zm-5-8.1.15-.17-2-1.45-.08.11Z" transform="translate(-0.06 -0.06)"/><path d="M14.68,121.67l.1-.51,3.11,3.32.15-.09c0-.11,0-.21,0-.32,0-.26,0-.62.37-.55.15,0,.3.38.33.6.08.6.08,1.21.14,1.82,0,.37,0,.79.59.81.06,0,.12.09.17.14a12,12,0,0,0,1.17,1.34,24.56,24.56,0,0,0,3.73,3c1.77,1,3.07,2.63,5,3.37s3.63,1.82,5.69,2.06c.65.07,1.32.29,1.67-.58a.85.85,0,0,1-.63,1.34,4.85,4.85,0,0,1-1-.05,10,10,0,0,1-4.34-1,46,46,0,0,1,2.71,14.25c1-.06,1.94-.13,2.88-.17s2-.05,3,0a3.25,3.25,0,0,1,2.47.8c.08.08.25.07.38.07a3.07,3.07,0,0,1,.74,0c.23.07.54.23.58.41a.72.72,0,0,1-.37.59c-.76.3-1.54.53-2.32.78-.31.1-.62.17-.84.23.1.28.34.61.25.77a1.11,1.11,0,0,1-.75.48c-.77.09-1.55.07-2.33.13-1.87.13-3.75.29-5.62.4a2.42,2.42,0,0,1-.76-.22c.09-.24.18-.47.26-.71a1.22,1.22,0,0,0,.11-.45c-.16-1.85-.36-3.71-.49-5.56-.27-3.77-1.41-7.38-2-11.1a5.54,5.54,0,0,1-.11-.79.41.41,0,0,1,.5-.47,1.94,1.94,0,0,0,.54-.12v-.21l-9.87-6.92.7,4.43c.6-.16.7.16.77.62.58,3.43,1.18,6.85,1.79,10.27a49.49,49.49,0,0,1,.81,9.93c0,.56.13.77.74.81a33.23,33.23,0,0,1,6.91,1.11,1.94,1.94,0,0,1,.64.24c.19.15.44.38.44.58s-.3.35-.48.52a.89.89,0,0,1-.23.12c0,.07,0,.11,0,.14l.53.66a2.71,2.71,0,0,1-.74.36,4.15,4.15,0,0,1-1.24,0c-2.91-.46-5.81-1-8.72-1.42a25.85,25.85,0,0,0-3-.17c-.82,0-1-.15-1.38-1,.38,0,.75-.11,1.13-.13s.41-.12.39-.42q-.18-2-.36-4.07c0-.23,0-.46,0-.68-.08-4.16-.12-8.33-.26-12.49-.09-2.56-.36-5.12-.48-7.68a20.12,20.12,0,0,1,.15-3.22,1,1,0,0,0-.37-1,28.71,28.71,0,0,1-2.74-2.57,49.29,49.29,0,0,1-3.68-4.92A61,61,0,0,1,5.2,105.86,104.79,104.79,0,0,1,2,94.51a2.06,2.06,0,0,0-.3-.75,5.85,5.85,0,0,0-.08.69c0,2.89-.16,5.78,0,8.66a70.18,70.18,0,0,0,3,15.13c.64,2.18,1.45,4.32,2.18,6.48l.22.67-.17.14a3.22,3.22,0,0,1-.57-.56,26.44,26.44,0,0,1-2.49-5.8A73.12,73.12,0,0,1,.47,104,54.41,54.41,0,0,1,.55,92.78c.48-4.54,1-9.07,1.68-13.58A95.91,95.91,0,0,1,8.46,57a88.3,88.3,0,0,1,9.75-17.69A65.11,65.11,0,0,1,29.9,27a112.18,112.18,0,0,1,10.9-7.78,56.29,56.29,0,0,1,9.83-5.15c1.17-.46,2.37-.81,3.56-1.21a5,5,0,0,1,.59-.12l.06.15a6.84,6.84,0,0,1-.71.32,46.45,46.45,0,0,0-11.38,5.6c-3.72,2.5-7.44,5-11,7.78A67.13,67.13,0,0,0,14.31,47.41,97.9,97.9,0,0,0,4.19,75.1,150.43,150.43,0,0,0,2,90.1a7,7,0,0,0,.15,2.19A99.44,99.44,0,0,0,7.43,109a52.23,52.23,0,0,0,6.84,12.2C14.38,121.32,14.51,121.46,14.68,121.67ZM22.05,148h-.11l.28,3.56c.07.83.12,1.67.21,2.5,0,.12.17.22.26.34.07-.11.18-.22.2-.33a1.9,1.9,0,0,0,0-.57Q22.47,150.75,22.05,148Zm16.48,3.66H34.35A4.32,4.32,0,0,0,38.53,151.66Zm-6,1.44c1.39.26,1.42.26,1.75-.48l-1.75-.21a2.26,2.26,0,0,0,0,.26C32.47,152.8,32.48,152.94,32.49,153.09Zm-.19-4.88.25,0-.73-5.08-.14,0ZM20.1,151.54c-.18,1.68-.1,3.62.3,3.88Zm-.43-16.27h.13l-.37-3-.14,0Z" transform="translate(-0.06 -0.06)"/><path d="M147.8,150l-.13,0c-.38.07-.81,0-.9-.37a1.11,1.11,0,0,1,.33-.87q1.47-1.34,3-2.58a1,1,0,0,0,.5-.93,8.22,8.22,0,0,1,1.59-4.38c.1-.16.43-.17.66-.25,0,.24.17.51.1.71-.34.89-.76,1.74-1.1,2.62a7.29,7.29,0,0,0-.24,1.23,7,7,0,0,1,.8-.25,1.17,1.17,0,0,1,.66,0,1.07,1.07,0,0,0,1.08.12c.1-.05.41.1.45.21a.75.75,0,0,1-.09.56c-.09.15-.29.24-.4.32l1.05.26-.13-1.27c.4.15.68.23.94.35,1.39.61,2.76,1.26,4.17,1.83a1.87,1.87,0,0,0,2.31-1.62c0-.45,0-.91-.06-1.37,0-.71.09-.93.73-1.17a2,2,0,0,0,1.19-3,9.24,9.24,0,0,0-1.82-1.75c-.13-.12-.39-.12-.5-.25a2.85,2.85,0,0,1-.34-.63c.23-.06.49-.23.68-.17a5.21,5.21,0,0,1,2.67,2.21c.07.11.13.23.26.46,1-.55,1.92-1.07,2.85-1.64a1.87,1.87,0,0,1,2.26.23q1.47,1.51,2.9,3.06c.31.34.6.49,1,.17a.45.45,0,0,1,.32-.1c.19,0,.45.1.51.23a.57.57,0,0,1-.11.54,15.36,15.36,0,0,1-1.49.9c-.57.31-1.15.59-1.72.89l-5,2.62c-.06,0-.13.05-.26,0l1-.67,0-.09a5.38,5.38,0,0,0-.53.26c-2.53,1.57-5.07,3.14-7.6,4.73q-6.59,4.15-13.16,8.32c-.22.14-.43.3-.69.48.68.93,1.34,1.82,2,2.71,2,2.71,3.93,5.41,5.85,8.15a5.46,5.46,0,0,1,.66,1.67c.09.33.23.43.51.3.53-.25,1-.52,1.57-.79-.48-.74-.44-.93.3-1.33s1.46-.81,2.23-1.16a65.59,65.59,0,0,0,8.71-4.83A94.58,94.58,0,0,1,182,156.84c.59-.25,1.17-.55,1.76-.81a1.58,1.58,0,0,1,.69-.21.77.77,0,0,1,.56.35c.07.14-.07.42-.19.59s-.29.17-.44.26l-3.94,2.29c-.12.07-.27.22-.26.32,0,.72-.5,1-1,1.32q-2.65,1.39-5.33,2.73c-4.44,2.22-8.89,4.4-13.31,6.66-1.47.75-2.84,1.69-4.26,2.53a9.13,9.13,0,0,1-1.22.6c-.42.17-.85.26-1.16-.24a.39.39,0,0,0-.28-.17c-.69,0-.81-.52-1.1-1-1.26-1.9-2.53-3.79-3.86-5.64-1.17-1.62-2.42-3.17-3.63-4.76-.23-.3-.42-.62-.65-1l-.69.49c-.34.23-.71.41-1,0s0-.67.32-.9l1.06-.77c-.2-.31-.4-.58-.56-.87a1.63,1.63,0,0,1-.24-.62c0-.16.08-.44.18-.47a.61.61,0,0,1,.54.13c.32.37.59.79.92,1.24l5.71-4-.06-.09-2.76,1.69a9.62,9.62,0,0,1-1.22.73c-.2.09-.5,0-.75-.08.1-.23.13-.56.31-.68q1.74-1.19,3.54-2.29c.39-.24.46-.46.2-.8a8.54,8.54,0,0,0-.91-1.12A3,3,0,0,1,147.8,150Zm24.4-7.83-2.71-3-.47.59a2.11,2.11,0,0,1-1.89,1c-.32,0-.65,0-1,0-.81,0-.81,0-.82.82a2,2,0,0,1-1.6,2.23,1.21,1.21,0,0,0-.32.12c-.09.07-.21.19-.21.29,0,.62,0,1.24,0,1.88Zm-21.15,11.11,8.19-5-3.91-2.49a2.46,2.46,0,0,0,0,.72,1,1,0,0,1-.43,1.28,11.65,11.65,0,0,0-2.91,2.35.57.57,0,0,1-.78.22c-.29-.13-.5.2-.45.58.09.62.13,1.24.2,1.86C151,152.94,151,153.08,151.05,153.32Zm1-5.53a4.25,4.25,0,0,0-2.13,1.12l.32.34Z" transform="translate(-0.06 -0.06)"/><path d="M81.94,8.54A28.31,28.31,0,0,0,77,2.6,15,15,0,0,1,75.7,1.48a1.34,1.34,0,0,0-1.57-.33,14.05,14.05,0,0,0-2.67,1.37,84.46,84.46,0,0,0-9.51,8c-.37.36-.67.78-1,1.14a1.61,1.61,0,0,1-.61.37c-.1,0-.28-.09-.37-.19s0-.24.12-.33A63.54,63.54,0,0,1,70.26,2.34,17.74,17.74,0,0,1,73.4.5a2.69,2.69,0,0,1,3.09.5,30.94,30.94,0,0,1,6,6.8C83.11,8.68,83,9,82,9.43A69.17,69.17,0,0,1,73.42,12c-3.09.86-6.15,1.85-9.21,2.8-.47.15-.89.45-1.36.59a.84.84,0,0,1-.73-.13c-.26-.3,0-.6.28-.73a27.46,27.46,0,0,1,3.17-1.27c3.92-1.13,7.87-2.17,11.8-3.29C78.87,9.58,80.34,9.06,81.94,8.54Z" transform="translate(-0.06 -0.06)"/><path d="M180.47,151.91l1.81,1.18s.07-.08.06-.1l-5.42-8.77c-.12-.19-.26-.38-.37-.58s-.54-.65-.1-.93.61.16.79.43c.85,1.26,1.67,2.54,2.52,3.8l4.28,6.39a3.49,3.49,0,0,1,.48.77.85.85,0,0,1-.06.71c-.14.15-.47.11-.72.15a.16.16,0,0,1-.1,0l-3.34-2.77Z" transform="translate(-0.06 -0.06)"/><path d="M40.77,68.64c-2.36-.73-4.49-1.58-5.92-3.58a2.74,2.74,0,0,1-.32-1.29c0-.15.24-.32.38-.48a4.67,4.67,0,0,1,.3.47,4,4,0,0,0,.52,1.1,10.09,10.09,0,0,0,5.07,2.77c.22,0,.39.32.58.48Z" transform="translate(-0.06 -0.06)"/><path d="M36.17,43.62a3.56,3.56,0,0,1,.49-.18c2.67-.5,5.33-1,8-1.48a1.52,1.52,0,0,1,.88.16c0,.52-.47.38-.76.43q-3.78.71-7.56,1.37A.9.9,0,0,1,36.17,43.62Z" transform="translate(-0.06 -0.06)"/><path d="M148.08,141.41c.78-.06,1.56-.14,2.34-.18a2.52,2.52,0,0,1,.55.09,2.44,2.44,0,0,1-.15.62.51.51,0,0,1-.38.21,26.21,26.21,0,0,1-2.77,0c-.5,0-.62-.53-.52-1a4,4,0,0,1,1.64-2.24c.33-.25.6-.1.84.34-1,.32-1.28,1.16-1.64,2Z" transform="translate(-0.06 -0.06)"/><path d="M38.81,52.43c-.32-.12-.89-.21-.91-.37a2.47,2.47,0,0,1,.28-1.2c.4-.91,1.22-.78,2-.67s.81,1,.31,1.57A2.39,2.39,0,0,1,38.81,52.43Z" transform="translate(-0.06 -0.06)"/><path d="M101.67,121.19l.57-.46c.31-.24.61-.5.94-.71.12-.08.31,0,.47-.06,0,.16,0,.41-.12.46-.57.33-1.17.62-1.76.92Z" transform="translate(-0.06 -0.06)"/><path class="cls-1" d="M104.69,112.33c0-.34-.07-.64-.08-.94A27,27,0,0,1,111,92.85a41.16,41.16,0,0,1,3.55-3.37,3,3,0,0,0,.39-.62,2.56,2.56,0,0,0-.71.26c-5.54,4.25-8.66,10-10,16.72a20.12,20.12,0,0,0,0,8.88,3.93,3.93,0,0,1,.05.42h-.92c0-.32-.08-.64-.09-1a38.31,38.31,0,0,1,5-20.73,21.55,21.55,0,0,1,11.51-10,18.4,18.4,0,0,1,5.53-1,44,44,0,0,1,15.15,1.79A20.33,20.33,0,0,1,155,98.91a26.37,26.37,0,0,1,.77,8.87,28.06,28.06,0,0,1-3.12,12.38c-.28.53-.6,1-.9,1.55l-.14,0V120.1a14.56,14.56,0,0,1-.73,2.64,14.75,14.75,0,0,1-1.62,2.18c-1.3-1.76-3.18-2.6-4.93-3.61l-.14.18.59.55c1.2,1.08,2.41,2.14,3.59,3.24.37.35.33.39-.13.79-.45-.49-.9-1-1.37-1.49-1.43-1.47-2.86-2.94-4.32-4.39a5,5,0,0,0-1.1-.8.65.65,0,0,0-.61,0,.63.63,0,0,0-.06.61,16.86,16.86,0,0,0,1.31,1.69c.52.59,1.18,1.08,1.64,1.71.91,1.26,1.72,2.59,2.58,3.9.14.22.24.4,0,.63a24.56,24.56,0,0,1-10.1,5.07,28.43,28.43,0,0,1-8.69.34,36.83,36.83,0,0,1-15.28-4.94c-.85-.49-1.78-.85-2.64-1.35A13.48,13.48,0,0,1,108,125.9a.6.6,0,0,1-.22-.26c-.35-1.26-1.48-2-2.07-3.09a1.28,1.28,0,0,1-.19-.49l2.77,3.27.16-.1a5.37,5.37,0,0,0-.37-.71c-.93-1.3-1.91-2.56-2.78-3.89a20.26,20.26,0,0,1-1.64-3c-.37-.85-.28-.89.57-1.22l.34-.13,1.94,3.13a3.16,3.16,0,0,0-.58,0,2.21,2.21,0,0,0-.47.2c.15.14.29.38.44.39a7,7,0,0,0,2.61-.17,13.16,13.16,0,0,0,4.19-2.38c.82-.65,1.68-1.25,2.47-1.93a4.27,4.27,0,0,0,1.51-4.35,2,2,0,0,0-2.16-1.79,12.64,12.64,0,0,0-5.55,1.07c-1.35.57-2.66,1.21-4,1.81A2.7,2.7,0,0,1,104.69,112.33ZM123,90.51c-.18.13-.37.2-.38.3a.43.43,0,0,0,.2.35,4.2,4.2,0,0,1,1.79,1.93c.52,1,.91,2,1.4,3,.09.18.38.26.57.39.07-.19.24-.42.2-.58a10.53,10.53,0,0,0-2.8-4.81A4.87,4.87,0,0,0,123,90.51Zm-1.74,10.43a1.59,1.59,0,0,0,1.56-2.19.69.69,0,0,0-.44-.36,1.65,1.65,0,0,0-2.06,1.47C120.17,100.68,120.41,100.93,121.24,100.93Z" transform="translate(-0.06 -0.06)"/><path class="cls-1" d="M104.75,113l2-.75c1.69-.63,3.35-1.33,5.08-1.83a10.68,10.68,0,0,1,2.83-.21,1.18,1.18,0,0,1,1.3,1.11,3.33,3.33,0,0,1-.67,2.95,7.86,7.86,0,0,1-5,2.78c-.29,0-.8.28-.8.41,0,.52.5.36.84.39s.41,0,.74,0a8.25,8.25,0,0,1-3.12,1.41c-.12,0-.32-.11-.42-.22A10.64,10.64,0,0,1,104.75,113Z" transform="translate(-0.06 -0.06)"/><path class="cls-1" d="M133.28,157.12c.65-.63,1.73-.47,1.81-1.53,0,.08.07.19.14.23.22.14.5.39.68.34a.8.8,0,0,0,.43-.63,15.13,15.13,0,0,0-.2-2.44A61.71,61.71,0,0,0,133,141.5a48.37,48.37,0,0,1-1.44-5.45c-.13-.51-.31-1-.48-1.55l2.58-.13c.31,1.54.55,3.08.93,4.58,1.32,5.13,2.68,10.25,4.05,15.37a1,1,0,0,1-.26,1.11,2.38,2.38,0,0,1-1.76,1,14.46,14.46,0,0,0-2.69.69A3.33,3.33,0,0,1,133.28,157.12Z" transform="translate(-0.06 -0.06)"/><path class="cls-1" d="M136.6,160.46c.64-.5,1.28-1,1.93-1.49.38-.28.63-.57.3-1l1.38-1.74.79.49.06-.1s.07.05.07.08c.37,1.33.41,1-.64,1.57l-3.31,2c-.17.1-.35.19-.53.28Z" transform="translate(-0.06 -0.06)"/><path class="cls-1" d="M130.8,137.68l-1.47-3.18h.86l.81,3.09Z" transform="translate(-0.06 -0.06)"/><path class="cls-1" d="M80.29,123.13c-.19.55-.35,1.1-.58,1.61-.07.14-.37.18-.56.27,0-.19-.16-.4-.12-.57.09-.35.28-.66.4-1S79.79,122.94,80.29,123.13Z" transform="translate(-0.06 -0.06)"/><path class="cls-1" d="M151.5,132.33l-2.34-3.61A9,9,0,0,1,151.5,132.33Z" transform="translate(-0.06 -0.06)"/><path class="cls-1" d="M149.85,127.73c-1.09-.85-1.2-1.05-.78-1.43Z" transform="translate(-0.06 -0.06)"/><path class="cls-1" d="M57,123.45a4.94,4.94,0,0,1-3.1-3c-.14-.33-.36-.66-.17-1.07,0-.09-.14-.39-.26-.42a.71.71,0,0,0-.55.14c-.45.38-.85.81-1.28,1.21a4.93,4.93,0,0,1-.5.36l-.2-.06a15.84,15.84,0,0,1,.33-2.18,19.88,19.88,0,0,1,.94-2.32c.15-.34.9-.54,1.26-.54a3.64,3.64,0,0,0,1.35-.25c1.08-.42,2.11-1,3.19-1.36a11.26,11.26,0,0,1,4.85-.36,2.86,2.86,0,0,1,1.3.52.86.86,0,0,1,0,1.45,3,3,0,0,1-2.11.81,33.47,33.47,0,0,0-3.35.13,1.1,1.1,0,0,0-1.11.82,17.13,17.13,0,0,0-.57,2.77C56.91,121.2,57,122.26,57,123.45Z" transform="translate(-0.06 -0.06)"/><path class="cls-1" d="M54.64,112.37a4.62,4.62,0,0,1,2.75.68l-3.47,1.71Z" transform="translate(-0.06 -0.06)"/><path class="cls-1" d="M34.16,103.59a16.55,16.55,0,0,1-5.27-4.12l5.38,4Z" transform="translate(-0.06 -0.06)"/><path class="cls-1" d="M42,107.81l-3.72-2,.12-.22,3.72,2Z" transform="translate(-0.06 -0.06)"/><path class="cls-1" d="M47,111.93l2.26.85C48.83,113.22,47.25,112.67,47,111.93Z" transform="translate(-0.06 -0.06)"/><path class="cls-1" d="M19.81,87l1.67,2.66-.19.11A6,6,0,0,1,19.81,87Z" transform="translate(-0.06 -0.06)"/><path class="cls-1" d="M40.37,109a4.06,4.06,0,0,1,1.83.9l-.13.21Z" transform="translate(-0.06 -0.06)"/><path class="cls-1" d="M35.42,100.87l-1.94-1.52.08-.11,2,1.45Z" transform="translate(-0.06 -0.06)"/><path class="cls-1" d="M22.05,148q.41,2.75.83,5.51a1.9,1.9,0,0,1,0,.57c0,.12-.13.22-.2.33-.09-.11-.25-.22-.26-.34-.09-.83-.14-1.67-.21-2.5L21.94,148Z" transform="translate(-0.06 -0.06)"/><path class="cls-1" d="M38.53,151.66a4.32,4.32,0,0,1-4.18,0Z" transform="translate(-0.06 -0.06)"/><path class="cls-1" d="M32.49,153.09c0-.16,0-.29,0-.42a2.26,2.26,0,0,1,0-.26l1.75.21C33.91,153.35,33.88,153.36,32.49,153.09Z" transform="translate(-0.06 -0.06)"/><path class="cls-1" d="M32.3,148.21l-.63-5.1.14,0,.73,5.08Z" transform="translate(-0.06 -0.06)"/><path class="cls-1" d="M20.1,151.54l.3,3.88C20,155.16,19.92,153.22,20.1,151.54Z" transform="translate(-0.06 -0.06)"/><path class="cls-1" d="M19.66,135.27l-.37-3,.14,0,.37,3Z" transform="translate(-0.06 -0.06)"/><path class="cls-1" d="M172.2,142.2l-9,3.88c0-.64,0-1.26,0-1.88,0-.1.12-.22.21-.29a1.21,1.21,0,0,1,.32-.12,2,2,0,0,0,1.6-2.23c0-.82,0-.82.82-.82.32,0,.65,0,1,0a2.11,2.11,0,0,0,1.89-1l.47-.59Z" transform="translate(-0.06 -0.06)"/><path class="cls-1" d="M151.05,153.32c0-.24-.06-.38-.08-.52-.07-.62-.11-1.24-.2-1.86-.05-.38.15-.71.45-.58a.57.57,0,0,0,.78-.22,11.65,11.65,0,0,1,2.91-2.35,1,1,0,0,0,.43-1.28,2.46,2.46,0,0,1,0-.72l3.91,2.49Z" transform="translate(-0.06 -0.06)"/><path class="cls-1" d="M152.09,147.79l-1.8,1.46-.32-.34A4.25,4.25,0,0,1,152.09,147.79Z" transform="translate(-0.06 -0.06)"/><path d="M123,90.51a4.87,4.87,0,0,1,1,.56,10.53,10.53,0,0,1,2.8,4.81c0,.16-.13.38-.2.58-.2-.13-.48-.21-.57-.39-.49-1-.88-2-1.4-3a4.2,4.2,0,0,0-1.79-1.93.43.43,0,0,1-.2-.35C122.62,90.71,122.8,90.64,123,90.51Z" transform="translate(-0.06 -0.06)"/><path d="M121.24,100.93c-.83,0-1.07-.26-.95-1.07a1.65,1.65,0,0,1,2.06-1.47.69.69,0,0,1,.44.36A1.59,1.59,0,0,1,121.24,100.93Z" transform="translate(-0.06 -0.06)"/></g></g></g></svg>