<?xml version="1.0" encoding="iso-8859-1"?>
<!-- Generator: Adobe Illustrator 19.1.0, SVG Export Plug-In . SVG Version: 6.00 Build 0)  -->
<svg xmlns="http://www.w3.org/2000/svg" xmlns:xlink="http://www.w3.org/1999/xlink" version="1.1" x="0px" y="0px" viewBox="0 0 511.181 511.181" style="enable-background:new 0 0 511.181 511.181;" xml:space="preserve" width="20px" height="20px">
<g>
	<g>
		<g>
			<path d="M426.697,106.942v256.66h42.777V85.553h-21.388C435.252,85.553,426.697,94.109,426.697,106.942L426.697,106.942z" fill="#FFFFFF"/>
			<path d="M148.649,0C88.762,0,41.707,47.055,41.707,106.942v404.239l171.107-121.914L383.92,511.181V106.942     c0-36.36,27.805-64.165,64.165-64.165h21.388V0L148.649,0L148.649,0z M341.144,106.942v322.964l-128.33-91.97l-128.33,91.97     V106.942c0-36.36,27.805-64.165,64.165-64.165h213.883C349.699,59.887,341.144,83.414,341.144,106.942L341.144,106.942z" fill="#FFFFFF"/>
		</g>
	</g>
</g>
<g>
</g>
<g>
</g>
<g>
</g>
<g>
</g>
<g>
</g>
<g>
</g>
<g>
</g>
<g>
</g>
<g>
</g>
<g>
</g>
<g>
</g>
<g>
</g>
<g>
</g>
<g>
</g>
<g>
</g>
</svg>
