<svg xmlns="http://www.w3.org/2000/svg" viewBox="0 0 405.29 452.08"><defs><style>.cls-1{fill:#009444;}.cls-2{fill:#f7941d;}.cls-3{fill:#fff5bb;}.cls-4{fill:#fff;stroke:#000;stroke-miterlimit:10;stroke-width:4.35px;}.cls-5{fill:#56cc62;}</style></defs><title>do</title><g id="Layer_2" data-name="Layer 2"><g id="Layer_2-2" data-name="Layer 2"><path d="M235.66,398.58c4.61,27.32,10,40.14,3.15,45.37-4.6,3.52-42.66,11.2-43.91,6.81-2.41-8.51,24.72-17,25.06-27.08.25-7.42-.83-15.4-1.13-24.55-.89-27.69,2.15-50.26,6.79-50.41S231.08,371.45,235.66,398.58Z"/><path d="M286.82,384.33c2.21,27.62.12,41.36,8,44.76,5.32,2.28,44.11.42,44.24-4.14.25-8.84-28.11-10.41-30.92-20.13-2.06-7.13-3-15.13-4.91-24.08-5.9-27.07-14.37-48.21-18.91-47.22S284.63,356.9,286.82,384.33Z"/><path class="cls-1" d="M7.86,139.25c-36.94,4.31,65.2,25.78,123.05,2.2S256.8,72.13,242.77,37.7s-34.35-50-92.2-26.41S57.83,133.43,7.86,139.25Z"/><path d="M394.42,266.93c-1.12,30.23-32.62,45.44-38.57,45.22s22.64-17.69,23.75-47.91-35.63-40.5-20.87-46.46C365.43,215.08,395.54,236.71,394.42,266.93Z"/><path class="cls-2" d="M370,229c0,70.73-72.79,135.24-152.62,135.24S72,303.93,72,233.21,153.79,92.1,233.57,94.95C334.12,98.54,370,158.32,370,229Z"/><path d="M73.76,349.69c15.12,26.19,73-1.07,78.11-4s-48.84,20.13-64-6.06,28.28-46.46,5.83-53C86.8,284.53,58.64,323.5,73.76,349.69Z"/><rect class="cls-3" x="124.86" y="242.03" width="247.34" height="167.07" transform="translate(-66.96 64.36) rotate(-13.02)"/><path class="cls-4" d="M403.08,282.06c-.72,21.84-10,32.62-30.44,32.62s-34.25-13.26-34.25-28.27,13.83-31,34.25-31S403.82,259.47,403.08,282.06Z"/><path class="cls-4" d="M82.06,358.65c-7.15-20.65,4.56-33.82,24.7-37.16s36,7.47,38.41,22.28-3.46,31.53-23.6,34.87S89.92,381.34,82.06,358.65Z"/><ellipse cx="140.99" cy="210.31" rx="7.97" ry="8.08"/><ellipse cx="303.6" cy="177.32" rx="7.97" ry="8.08"/><path d="M252.61,203.29c.33,1.16-7.47,8.48-18.51,10.62S213,212.21,212.62,211c-1-3.41,9.92,2.36,21,.22S251.55,199.55,252.61,203.29Z"/><path d="M125.29,186.17c-.67-1,5.06-9.14,14.39-14.33s18.72-5.45,19.4-4.45c2,2.93-8.48,1.37-17.81,6.55S127.45,189.4,125.29,186.17Z"/><path d="M312.71,150c.27-1.18-7.26-6.71-17-8.21s-18,1.62-18.3,2.79c-.83,3.45,7.82-1.76,17.57-.26S311.83,153.77,312.71,150Z"/><polygon class="cls-5" points="312.95 266.08 284.88 250.04 234.86 337.61 202.57 319.34 186.65 347.49 220.7 366.75 246.91 381.71 312.95 266.08"/></g></g></svg>