<svg xmlns="http://www.w3.org/2000/svg" viewBox="0 0 247.07 262.27"><defs><style>.cls-1{fill:#fff;}</style></defs><title>do</title><g id="Layer_2" data-name="Layer 2"><g id="Layer_7" data-name="Layer 7"><g id="LhAIhN.tif"><path class="cls-1" d="M247.25,262.35H.18V.07H247.25Zm-147.06-13.5c-4.46,0-8.7,0-12.93,0a10.19,10.19,0,0,1-2-.59,10.33,10.33,0,0,0-1.43-.14c0,.54-.12,1.4.15,1.58a8.84,8.84,0,0,0,3.52,1.69,90.84,90.84,0,0,0,10.4.42c2.2,0,4.08,0,4.73,2.6a.64.64,0,0,0,.3.42c.78.26,1.67.79,2.33.59.47-.14.76-1.25.93-2a2.79,2.79,0,0,0-.19-1.23l36.22-6a25.7,25.7,0,0,0,0,3.22,3,3,0,0,1-2.07,3.51c-4.37,1.89-8.69,3.9-13,5.93-.57.27-1.3.89-1.33,1.39a1.87,1.87,0,0,0,1.26,1.36,19.46,19.46,0,0,0,5.71,0c6.78-1.47,13.51-3.19,20.26-4.79,2-.47,2.24-1.05,1.84-3-.7-3.43-1.24-6.89-1.85-10.34l23.19-6.3c0,1-.33,2.16.09,2.75s1.63.8,2.69,1.25c-.11.69-.23,1.54-.4,2.39-.24,1.2-.45,2.42-.8,3.59a8.29,8.29,0,0,1-1,1.6c-.27.47-.78,1-.7,1.43s.7.86,1.18,1.08a2.89,2.89,0,0,0,1.39.07c4.87-.44,9.75-.58,14.58-1.5,4.44-.85,9-1.1,13.47-1.73.72-.1,1.35-.81,2-1.23a25.37,25.37,0,0,0-1.43-2.12c-.19-.23-.64-.27-1-.34-3.15-.69-6.32-1.35-9.46-2.08-.62-.14-1.55-.44-1.69-.88-1-3.23-1.85-6.52-2.75-9.8l7.55-2.92c9.23-3.55,18.46-7.07,27.66-10.69a2.26,2.26,0,0,0,1.18-1.8,2.36,2.36,0,0,0-1.65-1.4,5.29,5.29,0,0,0-2.58.38q-4.59,1.59-9.12,3.33c-10.28,3.94-20.45,8.19-30.84,11.81a380,380,0,0,1-53.78,14.05c-8.32,1.59-16.73,2.68-25.1,4-1.13.18-2,.12-2.37-1.31-2.15-7.71-4.42-15.39-6.6-23.09a1.86,1.86,0,0,1,.28-1.57c3.9-3.56,4.19-8.39,4.71-13.13a1.49,1.49,0,0,0-.28-1c-1.14-1.47-2.32-2.91-3.48-4.36,1.72,5.12.76,9.46-3.13,13.32l-5.14-16.86,5.86,2,.27-.48c-2.95-2.12-5.86-4.3-8.87-6.34a2.4,2.4,0,0,1-1.36-2.41c.08-.76.15-1.52.2-2.28.19-2.89,1-5.89-1.51-8.29a2.3,2.3,0,0,1-.49-1.12c-1.32-5.66-2.61-11.33-3.94-17-.27-1.14-.65-2.25-1-3.37l-.81.14c-2.05,4,0,8.07.31,12.2-.19-.18-.36-.27-.44-.41C73,164,68.69,154.53,67.83,143.91c-.32-4-.67-8.12.18-11.92a68.6,68.6,0,0,1,5.28-14.93c10.37-21.35,26.37-36.9,48.51-45.85a13,13,0,0,1,4.27-.88,56.68,56.68,0,0,1,18.33,2.26,15.13,15.13,0,0,0,1.84.31l.07-.44c-.65-.21-1.29-.47-2-.63q-7.24-1.71-14.5-3.38a7.18,7.18,0,0,1,2.53-1.26c13.05-4.11,26.27-3.82,39.46-1.06,12.11,2.53,23,7.74,31.88,16.51,10.92,10.79,16,24.52,17.88,39.31,1.11,8.71.65,17.62.83,26.44a37,37,0,0,1-.45,4.38c-.32-.47-.46-.59-.5-.74-1.41-5.77-2.86-11.54-4.2-17.33a36,36,0,0,1-.32-4,8.84,8.84,0,0,0-.52-1.66c-.5.43-1.36.8-1.44,1.31a11.6,11.6,0,0,0-.09,4c1.21,6.36,2.52,12.69,3.87,19a2.48,2.48,0,0,1-.83,2.75c-5.39,4.93-7.64,11.06-6.45,18.31.33,2,1.51,3.9-.78,5.69l.44.44h3.09c1.55,1.68,3,3.85,5,5.22,1.81,1.25,4.23,1.61,6.36,2.41.54.2,1.36.53,1.44.92.79,3.85,1.52,7.72,2.12,11.6.72,4.65,1.24,9.33,2,14,.1.6,1.15,1,1.76,1.56.42-.68,1.12-1.33,1.18-2a10.5,10.5,0,0,0-.48-3.12c-1.73-7.52-1.69-15.17-2-22.78,1-.42,1.86-.73,2.68-1.19a12,12,0,0,0,2.48-1.68,29,29,0,0,0,9.49-23.23,9,9,0,0,0-3.18-6.47,14.57,14.57,0,0,0-8.84-4c-3.14-.22-6.3,0-9.27,0,0-6.24,0-12.47,0-18.69a81.77,81.77,0,0,0-6-30.66c-3.94-10-9.57-18.77-18.23-25.36-17.3-13.16-37-16.74-58.15-14.42-3.57.39-5.56-1.19-7.33-3.69l1.8-.72c4-1.61,8-3.07,11.93-4.87,6.09-2.81,9.37-7.63,9.07-14.45-.6-13.22-6.87-23.53-17.34-31.1C133.18,2.2,124.18.63,114.9.71A7.87,7.87,0,0,0,109,3.05a54.83,54.83,0,0,0-5.47,6.45A376.62,376.62,0,0,1,66.45,56c-7,7.35-13.77,14.93-21.37,21.59A131.47,131.47,0,0,1,17.62,96.14,28,28,0,0,1,6,99.54c-1.11,0-2.25-.09-3.34.06a5.45,5.45,0,0,0-1.67.9,8.56,8.56,0,0,0,1.45,1c.64.27,1.39.28,2,.56,7.94,3.49,16.29,3.23,24.5,2a59.3,59.3,0,0,0,14.24-4.55c14-6,27.89-12.31,41.81-18.52a10.8,10.8,0,0,0,1.53-1l-.14-.58a9.87,9.87,0,0,0-2.22.2c-3.41,1.11-6.9,2.08-10.18,3.5C63.6,87.58,53.2,92.16,42.9,96.95a57.83,57.83,0,0,1-29.39,5.21c-1.45-.11-2.89-.41-4.34-.62A49.6,49.6,0,0,0,23,95.34c4.27-2.7,8.42-5.6,12.64-8.42.62,1.48,1.65,1,2.5.31,2.08-1.64,4.14-3.31,6.1-5.09a360.53,360.53,0,0,0,57.84-66.48c2.26-3.37,4.74-6.59,7.22-9.81A7.23,7.23,0,0,1,116,2.92c1.93.16,3.9.1,5.81.39,9.13,1.36,17.54,4.3,23.73,11.61,5.86,6.93,10.09,14.56,10.27,24,.11,5.9-2.46,10-7.66,12.36-3.84,1.78-7.83,3.23-11.7,5-1.68.75-3,1.07-4.05-.89-.44-.81-1.34-1.55-2.34-.72s-.31,1.71.28,2.46c1.68,2.18,3.38,4.34,5.11,6.55a2.71,2.71,0,0,1-.43.22q-7.06,2.52-14.14,5a6.26,6.26,0,0,1-1.89.41,41.94,41.94,0,0,0-20.57,6.2C74.49,89.54,60.36,110.07,57.3,137.82A50.89,50.89,0,0,0,62,166.55c1.78,3.58,3.45,7.22,5.26,10.78q2.12,4.16,4.47,8.2c.81,1.39,1.86,2.65,2.68,3.79-2.36.59-4.84.79-6.91,1.82-4.12,2-6.29,5.76-7.24,10.14-.48,2.21-.62,4.5-1,7.19a11.63,11.63,0,0,1-.69-2.3c-.21-3.69-.35-7.39-.49-11.09-.06-1.54.54-2.47,2.24-2.48a6.7,6.7,0,0,0,1.61-.51c-4.18-1.61-5.63-.8-6,3a53.2,53.2,0,0,0-.29,6.52c.35,10.05,4.65,18.2,13,23.61,6.81,4.39,14.27,5.28,21.72.9a17.11,17.11,0,0,1,3-1.07Zm53.44-44.41-1.58-.79c-5.72-2.91-11.43-5.83-17.16-8.7a4.93,4.93,0,0,0-2.65-.77,5.3,5.3,0,0,1-3.32-.17c-.35-.16-1.73.82-1.68,1.09a33.81,33.81,0,0,0,1.33,4.32l.49-.16.15-1.31,21.56,10.58-1.2,2c3.6,1.29,4.51,1.26,6.5-.9,3.62-3.94,7.38-7.79,10.63-12,9.52-12.43,18.84-25,28.17-37.59a6.15,6.15,0,0,0,1-3.09,2.6,2.6,0,0,0-.95-2.15,2.75,2.75,0,0,0-2.31.58c-2.65,2.15-5.15,4.48-7.76,6.68a92.59,92.59,0,0,0-19.82,23.08C161.24,191.47,157.51,197.88,153.63,204.43Zm-70-40.61a9.79,9.79,0,0,1,1.86-1c4.54-1.23,9.16-2.21,13.65-3.62,32.83-10.31,66.48-16.88,100.38-22.38,2.55-.41,5.13-.72,7.69-1.1,1.09-.16,2-.66,1.85-1.92s-1.12-1.53-2.24-1.45c-.29,0-.58.09-.87.14-11.49,1.93-23,3.7-34.47,5.81-17.54,3.24-35,6.8-52.18,11.71C109,153,98.76,156.19,88.5,159.27c-2.08.63-4.22,1.09-6.29,1.74-.47.15-.8.74-1.19,1.13a7.49,7.49,0,0,0,1.17,1.12A7.27,7.27,0,0,0,83.61,163.82Zm108.63-55.43c-.09-3.31-1.1-4.21-4.66-4.13-2.45.05-3.42,1.5-3.3,4.92.07,2.09,1.34,2.77,5,2.66C191.79,111.76,192.31,111.16,192.23,108.39ZM88.82,112.91l1.28,1.4c.32-.39.66-.77,1-1.17a11.44,11.44,0,0,1,1.57-2,50.15,50.15,0,0,1,13.73-8.17,11.07,11.07,0,0,0,1.91-.9,1,1,0,0,0,.4-.84c-.06-.22-.51-.41-.81-.45a3.23,3.23,0,0,0-1.22.12,39.23,39.23,0,0,0-16.28,9.5A11.84,11.84,0,0,0,88.82,112.91Zm7.12,17.67a6,6,0,0,0,4.94-3.53c.69-2.13-.08-3.22-2.36-3.34-.82,0-1.63-.23-2.45-.22a3.49,3.49,0,0,0-3.38,3.91C92.76,129.73,93.61,130.56,95.94,130.59Zm62.79-7.11-.47-.24c-.49.4-1,.76-1.45,1.2a9,9,0,0,1-7.12,2.86c-2.75-.16-5.5-.37-8.25-.39a6.44,6.44,0,0,0-2.22.91c.57.42,1.11,1.16,1.7,1.19,3.91.24,7.83.52,11.74.38,2.24-.08,4-1.61,5.28-3.48A9.37,9.37,0,0,0,158.74,123.48ZM190,92.78c-.06-1.63-.91-2.86-3.1-3.24-3.16-.56-6.37-.84-9.57-1.14a7.18,7.18,0,0,0-2.19.51v.73c.91.2,1.81.47,2.73.59,2.26.29,4.57.36,6.8.81A44.75,44.75,0,0,1,190,92.78Z" transform="translate(-0.18 -0.07)"/><path d="M100.19,248.85l-6.73-23.76a17.11,17.11,0,0,0-3,1.07c-7.45,4.39-14.91,3.5-21.72-.9-8.38-5.41-12.67-13.56-13-23.61a53.2,53.2,0,0,1,.29-6.52c.34-3.84,1.79-4.65,6-3a6.7,6.7,0,0,1-1.61.51c-1.7,0-2.3.94-2.24,2.48.15,3.7.29,7.4.49,11.09a11.63,11.63,0,0,0,.69,2.3c.35-2.69.48-5,1-7.19.95-4.39,3.12-8.12,7.24-10.14,2.08-1,4.56-1.23,6.91-1.82-.82-1.14-1.87-2.4-2.68-3.79q-2.35-4-4.47-8.2c-1.81-3.56-3.49-7.2-5.26-10.78a50.89,50.89,0,0,1-4.71-28.73c3.06-27.75,17.19-48.28,41.11-62.33A41.94,41.94,0,0,1,119,69.29a6.26,6.26,0,0,0,1.89-.41q7.08-2.49,14.14-5a2.71,2.71,0,0,0,.43-.22c-1.72-2.21-3.43-4.37-5.11-6.55-.58-.75-1.28-1.62-.28-2.46s1.9-.1,2.34.72c1.07,2,2.37,1.64,4.05.89,3.87-1.73,7.86-3.18,11.7-5,5.2-2.41,7.77-6.46,7.66-12.36-.18-9.44-4.41-17.07-10.27-24C139.35,7.6,130.93,4.66,121.81,3.3c-1.91-.28-3.87-.23-5.81-.39a7.23,7.23,0,0,0-6.65,2.94c-2.48,3.21-5,6.44-7.22,9.81A360.53,360.53,0,0,1,44.29,82.15c-2,1.78-4,3.45-6.1,5.09-.85.67-1.88,1.17-2.5-.31-4.23,2.83-8.37,5.73-12.64,8.42a49.6,49.6,0,0,1-13.88,6.19c1.45.21,2.88.51,4.34.62A57.83,57.83,0,0,0,42.9,96.95C53.2,92.16,63.6,87.58,74,83.07c3.28-1.42,6.77-2.39,10.18-3.5a9.87,9.87,0,0,1,2.22-.2l.14.58A10.8,10.8,0,0,1,85,81C71.11,87.16,57.22,93.47,43.22,99.48A59.3,59.3,0,0,1,29,104c-8.21,1.24-16.56,1.5-24.5-2-.64-.28-1.39-.29-2-.56a8.56,8.56,0,0,1-1.45-1,5.45,5.45,0,0,1,1.67-.9c1.1-.15,2.23,0,3.34-.06a28,28,0,0,0,11.61-3.39A131.47,131.47,0,0,0,45.08,77.61C52.68,71,59.48,63.37,66.45,56A376.62,376.62,0,0,0,103.52,9.5,54.83,54.83,0,0,1,109,3.05,7.87,7.87,0,0,1,114.9.71c9.27-.08,18.27,1.49,25.85,7,10.47,7.57,16.74,17.88,17.34,31.1.31,6.81-3,11.63-9.07,14.45-3.89,1.8-7.95,3.26-11.93,4.87l-1.8.72c1.77,2.5,3.76,4.08,7.33,3.69,21.1-2.32,40.85,1.26,58.15,14.42,8.66,6.59,14.29,15.38,18.23,25.36a81.77,81.77,0,0,1,6,30.66c0,6.22,0,12.44,0,18.69,3,0,6.14-.17,9.27,0a14.57,14.57,0,0,1,8.84,4,9,9,0,0,1,3.18,6.47,29,29,0,0,1-9.49,23.23,12,12,0,0,1-2.48,1.68c-.82.45-1.71.77-2.68,1.19.27,7.61.23,15.27,2,22.78a10.5,10.5,0,0,1,.48,3.12c-.06.71-.77,1.36-1.18,2-.61-.51-1.66-1-1.76-1.56-.76-4.64-1.28-9.32-2-14-.6-3.88-1.33-7.75-2.12-11.6-.08-.39-.9-.72-1.44-.92-2.13-.8-4.55-1.17-6.36-2.41-2-1.37-3.43-3.54-5-5.22h-3.09l-.44-.44c2.29-1.79,1.1-3.72.78-5.69-1.19-7.25,1.05-13.38,6.45-18.31a2.48,2.48,0,0,0,.83-2.75c-1.35-6.33-2.66-12.66-3.87-19a11.6,11.6,0,0,1,.09-4c.09-.5.94-.87,1.44-1.31a8.84,8.84,0,0,1,.52,1.66,36,36,0,0,0,.32,4c1.34,5.79,2.78,11.56,4.2,17.33,0,.15.18.27.5.74a37,37,0,0,0,.45-4.38c-.18-8.82.28-17.74-.83-26.44-1.89-14.8-7-28.52-17.88-39.31-8.88-8.77-19.78-14-31.88-16.51-13.19-2.75-26.41-3-39.46,1.06a7.18,7.18,0,0,0-2.53,1.26q7.25,1.69,14.5,3.38c.66.16,1.3.42,2,.63l-.07.44a15.13,15.13,0,0,1-1.84-.31,56.68,56.68,0,0,0-18.33-2.26,13,13,0,0,0-4.27.88c-22.14,9-38.14,24.5-48.51,45.85A68.6,68.6,0,0,0,68,132c-.85,3.8-.5,8-.18,11.92C68.69,154.53,73,164,78.07,173.19c.08.14.25.23.44.41-.35-4.13-2.36-8.19-.31-12.2l.81-.14c.33,1.12.71,2.23,1,3.37,1.33,5.66,2.62,11.33,3.94,17a2.3,2.3,0,0,0,.49,1.12c2.54,2.41,1.7,5.4,1.51,8.29-.05.76-.12,1.52-.2,2.28a2.4,2.4,0,0,0,1.36,2.41c3,2,5.92,4.21,8.87,6.34l-.27.48-5.86-2L95,217.37c3.89-3.85,4.85-8.2,3.13-13.32,1.17,1.45,2.35,2.89,3.48,4.36a1.49,1.49,0,0,1,.28,1c-.53,4.74-.81,9.57-4.71,13.13a1.86,1.86,0,0,0-.28,1.57c2.18,7.7,4.44,15.38,6.6,23.09.4,1.43,1.24,1.49,2.37,1.31,8.37-1.32,16.78-2.41,25.1-4a380,380,0,0,0,53.78-14.05c10.39-3.62,20.56-7.87,30.84-11.81q4.53-1.74,9.12-3.33a5.29,5.29,0,0,1,2.58-.38,2.36,2.36,0,0,1,1.65,1.4,2.26,2.26,0,0,1-1.18,1.8c-9.2,3.62-18.43,7.14-27.66,10.69l-7.55,2.92c.9,3.29,1.74,6.57,2.75,9.8.14.43,1.07.73,1.69.88,3.14.73,6.31,1.39,9.46,2.08.34.08.8.11,1,.34a25.37,25.37,0,0,1,1.43,2.12c-.67.43-1.3,1.13-2,1.23-4.48.63-9,.88-13.47,1.73-4.84.92-9.72,1.07-14.58,1.5a2.89,2.89,0,0,1-1.39-.07c-.48-.22-1.1-.65-1.18-1.08s.43-1,.7-1.43a8.29,8.29,0,0,0,1-1.6c.35-1.17.56-2.39.8-3.59.17-.85.28-1.7.4-2.39-1.07-.46-2.23-.61-2.69-1.25s-.09-1.72-.09-2.75l-23.19,6.3c.61,3.44,1.15,6.91,1.85,10.34.4,1.94.12,2.52-1.84,3-6.75,1.61-13.48,3.32-20.26,4.79a19.46,19.46,0,0,1-5.71,0,1.87,1.87,0,0,1-1.26-1.36c0-.5.76-1.13,1.33-1.39,4.31-2,8.63-4,13-5.93a3,3,0,0,0,2.07-3.51,25.7,25.7,0,0,1,0-3.22l-36.22,6a2.79,2.79,0,0,1,.19,1.23c-.17.72-.46,1.83-.93,2-.67.2-1.55-.33-2.33-.59a.64.64,0,0,1-.3-.42c-.64-2.59-2.52-2.63-4.73-2.6a90.84,90.84,0,0,1-10.4-.42A8.84,8.84,0,0,1,84,249.66c-.28-.18-.11-1-.15-1.58a10.33,10.33,0,0,1,1.43.14,10.19,10.19,0,0,0,2,.59C91.49,248.87,95.73,248.85,100.19,248.85ZM65.06,208.71c-.53,5.75,2.57,9.12,7.29,11.44a32.81,32.81,0,0,0,12,2.85,10.13,10.13,0,0,0,6.52-1.68,1.8,1.8,0,0,0,.93-2.43q-3-9.53-5.73-19.12a3,3,0,0,0-3.14-2.52c-3.41,0-6.82-.12-10.23.05a6.74,6.74,0,0,0-6.7,5.5A56.2,56.2,0,0,0,65.06,208.71Zm175-50.25c-3.51-.11-7-.39-10.52-.26a11.54,11.54,0,0,0-4.59,1.52,2.47,2.47,0,0,0-.78,2.17c1.6,6.87,3.31,13.72,5,20.56.1.41.56,1,.89,1,2.15.18,4.22,0,5.88-1.67a15.08,15.08,0,0,0,4.21-7.22c.11-.48.41-1.32.62-1.32,1.38,0,1.48-1.12,1.65-1.92a72.67,72.67,0,0,0,1.48-8.11c.28-2.66-1-4.71-3.13-6.35-4.42-3.48-9.46-3.5-14.63-2.68-2.07.33-2.43,1.09-2.09,3.3C229.61,155.09,234.86,156.59,240.09,158.46ZM115.62,71.18l-.05-.22c-.63.11-1.25.22-1.88.32-5.3.79-9.94,3.18-14.42,5.94C75.54,91.79,61.94,112.64,60,140.68a48,48,0,0,0,2.39,18.79c.19.56.45,1.09.68,1.63.21-1.53.14-2.94.22-4.35.53-9.92.89-19.86,1.7-29.75A50.28,50.28,0,0,1,79.9,94.85c6.36-6.4,13.82-11.34,21.54-15.89C106.08,76.23,110.89,73.76,115.62,71.18ZM65.52,149.9c0,4.16,0,8.31,0,12.47a18.46,18.46,0,0,0,4.11,11.41C72,176.9,74.46,180,77,183c1.56,1.87,3.33,3.57,5,5.34l.73-.5c-1-2.15-1.83-4.37-3-6.43-2.17-3.91-4.65-7.64-6.73-11.59A85.4,85.4,0,0,1,65.52,149.9Zm156.28,15.16a97.12,97.12,0,0,0-3.88,9c-.48,1.49-.67,3.81.15,4.85,1.84,2.32,4.67,3.54,8.07,4.35ZM91.08,89c-11.81,8.31-20.21,18.93-22.52,33.63A100.88,100.88,0,0,1,91.08,89ZM63,203.13c.17-.49.34-1,.52-1.47,1.55-4.17,4.51-6.5,9-6.74,2.05-.11,4.11,0,6.17-.05.41,0,.81-.09,1.33-.14-3.1-3.88-7-3.29-10.58-1.9C65,194.55,63.41,198.61,63,203.13Zm157.32-44.75c-4.75,3.09-7.33,10.87-5.46,15.23a30.54,30.54,0,0,1,5-12C220.39,160.81,220.17,159.48,220.31,158.38ZM73.76,184.89c1.38,2.69,3.65,5,5.49,4.88Zm113.49,61.17.67.65c.69-.34,1.6-.53,2-1.08s-.1-1.32-.18-2l-.79-.22Zm-4.49,1.54-.84-3.55-.64,3.69Z" transform="translate(-0.18 -0.07)"/><path d="M153.63,204.43c3.88-6.56,7.61-13,11.44-19.3a92.59,92.59,0,0,1,19.82-23.08c2.61-2.2,5.12-4.53,7.76-6.68a2.75,2.75,0,0,1,2.31-.58,2.6,2.6,0,0,1,.95,2.15,6.15,6.15,0,0,1-1,3.09c-9.34,12.57-18.65,25.16-28.17,37.59-3.25,4.24-7,8.1-10.63,12-2,2.16-2.9,2.2-6.5.9l1.2-2L129.21,198l-.15,1.31-.49.16a33.81,33.81,0,0,1-1.33-4.32c-.05-.28,1.33-1.25,1.68-1.09a5.3,5.3,0,0,0,3.32.17,4.93,4.93,0,0,1,2.65.77c5.73,2.87,11.44,5.79,17.16,8.7Z" transform="translate(-0.18 -0.07)"/><path d="M83.61,163.82a7.27,7.27,0,0,1-1.42-.57A7.49,7.49,0,0,1,81,162.13c.39-.39.72-1,1.19-1.13,2.08-.65,4.21-1.12,6.29-1.74C98.76,156.19,109,153,119.28,150c17.16-4.91,34.64-8.47,52.18-11.71,11.46-2.12,23-3.89,34.47-5.81.29,0,.58-.12.87-.14,1.11-.08,2.09.21,2.24,1.45s-.76,1.76-1.85,1.92c-2.56.38-5.13.69-7.69,1.1-33.9,5.5-67.55,12.07-100.38,22.38-4.48,1.41-9.1,2.39-13.65,3.62A9.79,9.79,0,0,0,83.61,163.82Z" transform="translate(-0.18 -0.07)"/><path d="M192.23,108.39c.08,2.77-.45,3.37-3,3.44-3.66.1-4.93-.57-5-2.66-.12-3.42.85-4.86,3.3-4.92C191.13,104.18,192.14,105.08,192.23,108.39Z" transform="translate(-0.18 -0.07)"/><path d="M88.82,112.91a11.84,11.84,0,0,1,1.55-2.55,39.23,39.23,0,0,1,16.28-9.5,3.23,3.23,0,0,1,1.22-.12c.3,0,.75.23.81.45a1,1,0,0,1-.4.84,11.07,11.07,0,0,1-1.91.9,50.15,50.15,0,0,0-13.73,8.17,11.44,11.44,0,0,0-1.57,2c-.31.4-.64.78-1,1.17Z" transform="translate(-0.18 -0.07)"/><path d="M95.94,130.59c-2.34,0-3.18-.86-3.26-3.18a3.49,3.49,0,0,1,3.38-3.91c.81,0,1.63.17,2.45.22,2.28.13,3.06,1.22,2.36,3.34A6,6,0,0,1,95.94,130.59Z" transform="translate(-0.18 -0.07)"/><path d="M158.74,123.48a9.37,9.37,0,0,1-.8,2.43c-1.26,1.87-3,3.4-5.28,3.48-3.9.13-7.83-.15-11.74-.38-.59,0-1.13-.78-1.7-1.19a6.44,6.44,0,0,1,2.22-.91c2.75,0,5.5.23,8.25.39a9,9,0,0,0,7.12-2.86c.44-.44,1-.8,1.45-1.2Z" transform="translate(-0.18 -0.07)"/><path d="M190,92.78A44.75,44.75,0,0,0,184.7,91c-2.23-.45-4.53-.52-6.8-.81-.92-.12-1.82-.39-2.73-.59v-.73a7.18,7.18,0,0,1,2.19-.51c3.2.29,6.41.58,9.57,1.14C189.11,89.92,190,91.15,190,92.78Z" transform="translate(-0.18 -0.07)"/><path class="cls-1" d="M65.06,208.71a56.2,56.2,0,0,1,.9-5.91,6.74,6.74,0,0,1,6.7-5.5c3.4-.17,6.82-.09,10.23-.05A3,3,0,0,1,86,199.77q2.76,9.59,5.73,19.12a1.8,1.8,0,0,1-.93,2.43A10.13,10.13,0,0,1,84.3,223a32.81,32.81,0,0,1-12-2.85C67.62,217.83,64.53,214.47,65.06,208.71Z" transform="translate(-0.18 -0.07)"/><path class="cls-1" d="M240.09,158.46c-5.23-1.87-10.48-3.37-16-.93-.34-2.21,0-3,2.09-3.3,5.16-.81,10.21-.8,14.63,2.68,2.09,1.65,3.41,3.7,3.13,6.35a72.67,72.67,0,0,1-1.48,8.11c-.18.8-.28,1.92-1.65,1.92-.21,0-.51.84-.62,1.32a15.08,15.08,0,0,1-4.21,7.22c-1.67,1.71-3.74,1.85-5.88,1.67-.33,0-.79-.63-.89-1-1.73-6.84-3.44-13.69-5-20.56a2.47,2.47,0,0,1,.78-2.17,11.54,11.54,0,0,1,4.59-1.52C233.07,158.07,236.58,158.35,240.09,158.46Z" transform="translate(-0.18 -0.07)"/><path class="cls-1" d="M115.62,71.18c-4.74,2.59-9.55,5.05-14.19,7.79-7.72,4.55-15.18,9.48-21.54,15.89A50.28,50.28,0,0,0,65,127c-.81,9.9-1.17,19.83-1.7,29.75-.08,1.41,0,2.82-.22,4.35-.23-.54-.49-1.07-.68-1.63A48,48,0,0,1,60,140.68c1.92-28,15.52-48.9,39.25-63.47,4.49-2.76,9.13-5.15,14.42-5.94.63-.09,1.26-.21,1.88-.32Z" transform="translate(-0.18 -0.07)"/><path class="cls-1" d="M65.52,149.9a85.4,85.4,0,0,0,7.49,20c2.09,3.95,4.57,7.68,6.73,11.59,1.14,2.06,2,4.28,3,6.43l-.73.5c-1.68-1.77-3.45-3.47-5-5.34-2.52-3-4.94-6.14-7.34-9.26a18.46,18.46,0,0,1-4.11-11.41C65.51,158.21,65.52,154.06,65.52,149.9Z" transform="translate(-0.18 -0.07)"/><path class="cls-1" d="M221.81,165.06l4.34,18.18c-3.39-.82-6.22-2-8.07-4.35-.82-1-.63-3.35-.15-4.85A97.12,97.12,0,0,1,221.81,165.06Z" transform="translate(-0.18 -0.07)"/><path class="cls-1" d="M91.08,89a100.88,100.88,0,0,0-22.52,33.63C70.87,107.95,79.27,97.32,91.08,89Z" transform="translate(-0.18 -0.07)"/><path class="cls-1" d="M63,203.13c.42-4.52,2-8.58,6.42-10.31,3.57-1.39,7.48-2,10.58,1.9-.51.06-.92.14-1.33.14-2.06,0-4.12-.05-6.17.05-4.48.23-7.44,2.56-9,6.74C63.33,202.15,63.16,202.64,63,203.13Z" transform="translate(-0.18 -0.07)"/><path class="cls-1" d="M220.31,158.38c-.13,1.1.08,2.43-.46,3.26a30.54,30.54,0,0,0-5,12C213,169.26,215.56,161.47,220.31,158.38Z" transform="translate(-0.18 -0.07)"/><path class="cls-1" d="M73.76,184.89l5.49,4.88C77.41,189.9,75.14,187.58,73.76,184.89Z" transform="translate(-0.18 -0.07)"/><path class="cls-1" d="M187.25,246.06l1.68-2.65.79.22c.09.68.47,1.57.18,2s-1.3.74-2,1.08Z" transform="translate(-0.18 -0.07)"/><path class="cls-1" d="M182.76,247.59l-1.48.14.64-3.69Z" transform="translate(-0.18 -0.07)"/></g></g></g></svg>