<svg xmlns="http://www.w3.org/2000/svg" viewBox="0 0 273.44 272.72"><defs><style>.cls-1{fill:#fff;}</style></defs><title>dont</title><g id="Layer_2" data-name="Layer 2"><g id="Layer_7" data-name="Layer 7"><g id="sb5A28.tif"><path class="cls-1" d="M.12,272.78V.06H273.56V272.78Zm192.18-42.13,4.32,1.78a2.91,2.91,0,0,0,1.14.36,59,59,0,0,0,7.49-.6c17-3.28,20.39-21.21,12.32-31-4-4.81-8.46-8.94-14.33-11.35-.53-.22-1.27-1-1.2-1.38a13.18,13.18,0,0,1,1.36-4.69c8.22-13,13.38-26.9,14.41-42.46,1.35-20.45-4.54-38.37-17.31-54.12C188.87,72.86,173.44,64.3,156,59c-4-1.23-8.21-2-12.49-3,.44-1.68,1-3.38,1.29-5.12.1-.63-.48-1.38-.74-2.07-.56.44-1.38.76-1.61,1.33-.6,1.49-.92,3.09-1.41,4.63a3.33,3.33,0,0,1-.56.89c-.51-.83-.75-1.67-1.3-2-1.57-1.06-3.38-1.79-4.9-2.92-5.55-4.11-10.33-9-13.09-15.41-2.08-4.83-2.42-9.69,1.76-14,10.85-11.08,23.77-17.45,39.45-17.86A8.47,8.47,0,0,1,170.05,7c.75,1,1.59,2,2.25,3,2.55,4.12,5.09,8.24,7.53,12.42,5.58,9.58,11.62,18.84,19.09,27.07,8.31,9.14,18.16,16.43,28.32,23.32,3.62,2.45,7.47,4.58,12,4.87a14.74,14.74,0,0,0,2.67-.31l.07-.57c-.71-.37-1.42-.74-2.14-1.1-3.09-1.54-6.33-2.84-9.25-4.68-3.69-2.32-7.12-5-10.63-7.63-9.22-6.82-17.88-14.29-24.61-23.65-4.91-6.84-9.32-14-14-21-3.23-4.81-6.47-9.61-9.9-14.27-2-2.69-5-3.64-8.24-3.59C146,1.13,131.87,8,120.22,20.4a10.37,10.37,0,0,0-3,6.36,18.53,18.53,0,0,0,1.58,10,41.69,41.69,0,0,0,16.59,17.64c.41.24.8.51,1.31.83-3.63,0-7,.14-10.43,0a57.62,57.62,0,0,0-28.75,6.35A74.84,74.84,0,0,0,67.14,89.22c-3.48,5.5-6.48,11.3-9.8,16.9a79,79,0,0,0-10.76,29.26c-.32,2.23-.55,4.48-.84,6.89L31.08,141v-5.32a7.71,7.71,0,0,0,1.8-.89,1.29,1.29,0,0,0-.14-1.21,2.73,2.73,0,0,0-4.07,2.29c-.08,1.65,0,3.3,0,5.2-1.79-.42-3.49.92-4.39-1.45-.36-.94-1.33-.46-1.95.39a3.29,3.29,0,0,1-1.57,1c-.48.17-1.12-.07-1.59.11a7,7,0,0,0-1.47,1c.38.47.66,1.16,1.15,1.38a20.91,20.91,0,0,0,3.1.88l-1.19,17.84h-3.2c-5.33,0-9.46,2.17-12.12,6.89-.35.62-.71,1.25-1,1.89C1.33,177.19,1,183.79,1.17,190.48A12.14,12.14,0,0,0,4.76,199c4,4.06,9.09,6.35,14.33,8.61l.4,3.25.32,0,.54-3.82h5c-.21,4.91-.43,9.62-.62,14.33-.17,4.06-.34,8.12-.43,12.18,0,1,.33,2.3,1.63,2.07a2.66,2.66,0,0,0,1.42-2.06q.38-12.28.49-24.57c0-1.67.15-2.84,1.86-3.71a10.31,10.31,0,0,0,3-3,24.63,24.63,0,0,0,4.3-10c1.47-6.44,1.16-13,.58-19.45a15.33,15.33,0,0,0-1-4.16c-.42-1.08-1.17-2.12-2.28-2.13a51.17,51.17,0,0,1,.85,6.41c0,4.24,0,8.5-.35,12.72-.41,5.3-1.63,10.39-4.88,14.79l-1.63,2.23-.71-.55a6.62,6.62,0,0,1,.59-2.13c4.95-7,6-14.87,5.51-23.08a47.31,47.31,0,0,0-1.49-7.13,17.28,17.28,0,0,1-.7-3.09c-.17-6-.26-12.08-.36-18.12,0-1.54,0-3.07,0-4.78,1.41.09,2.65.13,3.89.26,6.05.67,12.1,1.42,18.16,2,7.55.78,15.11,1.37,22.65,2.2,16.45,1.81,32.93,3.52,49.34,5.67,16.65,2.18,33.23,4.83,49.85,7.26,1,.15,1.54.49,1.52,1.68-.15,7.71-.21,15.43-.33,23.14,0,2.21-.47,4.46-.14,6.61a3.4,3.4,0,0,1-1.6,3.72,19,19,0,0,0-7.77,12.67c-.36,2.59-1.06,4.24-3.83,4.45-.08,0-.15.16-.27.31l.24,2.13,3.32-.69c0,6.87,4,10.87,9.27,13.6a140.9,140.9,0,0,0,1.25,30.29c-6,3.54-11.86,7.74-18.91,9.66-.65.18-1.08,1.17-1.62,1.79.67.46,1.32,1.29,2,1.32a86.34,86.34,0,0,0,26.5-2.44c2.7-.73,3.23-2.24,2.27-4.81-.64-1.72-1.4-4.06-.72-5.45a6.91,6.91,0,0,0,.7-4.74c-1.55-6.87-3.28-13.69-4.95-20.54-.22-.89-.44-1.77-.67-2.66l10.25,1.39ZM103,266.84c-1.75,2.34-1.52,3.68.28,3.69,3.45,0,7,.31,10.33-.48,4-1,7.77-2.49,12-2.13,1.69.15,2.14-1.2,1.3-2.71a4.24,4.24,0,0,1-.5-2.26c.11-1.46.56-2.9.64-4.36.12-2.13,0-4.27,0-6.29.8-.18,1.84-.12,2.09-.54.89-1.49,2.12-1,3.3-.84,2.26.26,4.51.56,6.76.86a179.8,179.8,0,0,0,32.19,1.62c2.75-.13,3.32-.68,3.34-3.5,0-5.56.06-11.12.07-16.68a3.25,3.25,0,0,0-.16-1.58,10,10,0,0,0-1.57-1.64,8.76,8.76,0,0,0-1.48,1.69,4.17,4.17,0,0,0-.12,1.77q0,7.27,0,14.53c0,.63,0,1.27,0,2-1.13,0-2,0-2.9,0-7.28-.31-14.56-.57-21.83-1-3.93-.21-7.85-.63-11.78-1-2-.18-4-.32-6-.66-2.8-.48-5.55-1.3-8.36-1.7q-18.11-2.54-36.24-4.9c-4.68-.62-9.38-1.06-14.07-1.64-1.23-.15-2.43-.63-3.66-.74s-2.6.15-3.89.06c-11.56-.83-23.12-1.72-34.68-2.55a14,14,0,0,0-2.64.33,3.74,3.74,0,0,0,3.44,2.7c1.66.19,3.33.29,5,.43,10.6.9,21.22,1.61,31.79,2.76,13,1.41,26,3.15,39,4.79,4.43.56,8.85,1.24,13.14,1.84v10.6a25.21,25.21,0,0,0-3.41.23c-4.8,1-9.56,2.14-14.37,3.09-2.16.42-4.12,1.06-5.48,2.87-.35.47-.77,1.29-.58,1.67a2.11,2.11,0,0,0,1.61,1.05,27,27,0,0,0,3.85-.76C100.45,267.34,101.49,267.14,103,266.84Zm16-87.56a5.06,5.06,0,0,0,1.18-1.09c.26-.47.51-1.25.29-1.59a2.43,2.43,0,0,0-1.6-.78,2.59,2.59,0,0,0-1.31.49,82.25,82.25,0,0,0-18.27,13.15c-1.85,1.75-3.79,3.4-5.76,5.16-.35-.44-.57-.71-.77-1-4.28-5.81-8.52-11.65-12.86-17.42-1.09-1.46-2.53-2.65-3.72-4-.91-1.07-3.07-1.79-3.89-1-1.22,1.12-.35,2.21.28,3.19q5.36,8.38,10.79,16.72c1.69,2.59,3.47,5.11,5.26,7.74-.57.5-1,.9-1.46,1.27L67.66,215.63A6.44,6.44,0,0,0,66.06,217a2.65,2.65,0,0,0-.45,2c.2.42,1.26.44,1.94.6.35.08.9-.06,1.06.14,1.09,1.36,2.28,1,3.53.32l2.59-1.35c-.65.9-1.18,1.33-1.28,1.84-.15.79-.32,1.94.1,2.38s1.66.33,2.33,0a10.76,10.76,0,0,0,2.49-2q7-6.66,14-13.35c.45-.43.92-.84,1.45-1.33.93,1.32,1.69,2.47,2.51,3.57,3.56,4.79,7.13,9.59,10.73,14.35.71.94,1.87,1.84,2.85.8.55-.59.25-2,.28-3.05,0-.2-.23-.41-.35-.61-3.64-6-7.25-12-11-17.88a1.75,1.75,0,0,1,.36-2.69c6.74-5.91,13.42-11.88,20.16-17.78C121.39,181.3,121.35,180.33,119,179.28ZM259.68,81.86c-.25.24-.32.35-.42.38-.51.17-1,.34-1.54.48a133,133,0,0,1-38,5.27c-4.32-.08-8.47-.42-12-3.19-.29-.22-.84-.11-1.26-.16,0,.45-.13,1,.09,1.31a6.71,6.71,0,0,0,2.23,2.25c2.28.94,4.66,2,7.07,2.2a92.53,92.53,0,0,0,24.8-1.36c9.39-1.82,18.71-3.9,27.47-7.91a30.53,30.53,0,0,0,4.06-2.26c.34-.22.32-1,.47-1.49a8.53,8.53,0,0,0-1.45-.24,1.69,1.69,0,0,0-.8.38A16,16,0,0,1,260.45,80c-2.74-.13-5.49,0-8.24,0a10.35,10.35,0,0,0-1.39.27C253.8,82,256.74,81.4,259.68,81.86Z" transform="translate(-0.12 -0.06)"/><path d="M192.31,230.65l-.69,2.1-10.25-1.39c.22.88.45,1.77.67,2.66,1.67,6.84,3.39,13.67,4.95,20.54a6.91,6.91,0,0,1-.7,4.74c-.68,1.39.07,3.73.72,5.45,1,2.57.42,4.08-2.27,4.81a86.34,86.34,0,0,1-26.5,2.44c-.69,0-1.34-.86-2-1.32.53-.62,1-1.61,1.62-1.79,7-1.92,12.88-6.12,18.91-9.66a140.9,140.9,0,0,1-1.25-30.29c-5.3-2.73-9.27-6.73-9.27-13.6l-3.32.69-.24-2.13c.13-.15.19-.31.27-.31,2.77-.21,3.47-1.85,3.83-4.45a19,19,0,0,1,7.77-12.67,3.4,3.4,0,0,0,1.6-3.72c-.33-2.14.1-4.4.14-6.61.12-7.71.18-15.43.33-23.14,0-1.2-.49-1.53-1.52-1.68-16.61-2.43-33.2-5.09-49.85-7.26-16.41-2.15-32.88-3.85-49.34-5.67-7.54-.83-15.1-1.42-22.65-2.2-6.06-.62-12.1-1.37-18.16-2-1.24-.14-2.48-.17-3.89-.26,0,1.71,0,3.24,0,4.78.1,6,.19,12.08.36,18.12a17.28,17.28,0,0,0,.7,3.09A47.31,47.31,0,0,1,33.74,177c.5,8.22-.56,16.12-5.51,23.08a6.62,6.62,0,0,0-.59,2.13l.71.55L30,200.51c3.24-4.4,4.47-9.5,4.88-14.79.33-4.23.39-8.48.35-12.72a51.17,51.17,0,0,0-.85-6.41c1.11,0,1.86,1.05,2.28,2.13a15.33,15.33,0,0,1,1,4.16c.58,6.5.9,13-.58,19.45a24.63,24.63,0,0,1-4.3,10,10.31,10.31,0,0,1-3,3c-1.72.87-1.85,2-1.86,3.71q-.1,12.29-.49,24.57a2.66,2.66,0,0,1-1.42,2.06c-1.3.23-1.65-1-1.63-2.07.08-4.06.26-8.12.43-12.18.19-4.71.41-9.42.62-14.33h-5l-.54,3.82-.32,0-.4-3.25c-5.23-2.25-10.31-4.55-14.33-8.61a12.14,12.14,0,0,1-3.59-8.55C1,183.79,1.33,177.19,4.4,171c.32-.64.67-1.27,1-1.89,2.66-4.72,6.8-6.86,12.12-6.89h3.2l1.19-17.84a20.91,20.91,0,0,1-3.1-.88c-.49-.22-.77-.9-1.15-1.38a7,7,0,0,1,1.47-1c.47-.18,1.1.06,1.59-.11a3.29,3.29,0,0,0,1.57-1c.61-.85,1.59-1.33,1.95-.39.9,2.37,2.6,1,4.39,1.45,0-1.9-.06-3.55,0-5.2a2.73,2.73,0,0,1,4.07-2.29,1.29,1.29,0,0,1,.14,1.21,7.71,7.71,0,0,1-1.8.89V141l14.66,1.25c.29-2.41.52-4.66.84-6.89a79,79,0,0,1,10.76-29.26c3.32-5.6,6.32-11.4,9.8-16.9A74.84,74.84,0,0,1,97.49,61.53a57.62,57.62,0,0,1,28.75-6.35c3.39.16,6.8,0,10.43,0-.5-.32-.9-.59-1.31-.83a41.69,41.69,0,0,1-16.59-17.64,18.53,18.53,0,0,1-1.58-10,10.37,10.37,0,0,1,3-6.36C131.87,8,146,1.13,163.2.86c3.28-.05,6.27.91,8.24,3.59,3.43,4.66,6.67,9.47,9.9,14.27,4.7,7,9.1,14.19,14,21,6.73,9.36,15.39,16.83,24.61,23.65,3.51,2.6,6.94,5.31,10.63,7.63,2.91,1.83,6.15,3.13,9.25,4.68.72.36,1.43.73,2.14,1.1l-.07.57a14.74,14.74,0,0,1-2.67.31c-4.53-.29-8.37-2.42-12-4.87-10.16-6.89-20-14.18-28.32-23.32-7.48-8.23-13.51-17.49-19.09-27.07-2.44-4.18-5-8.3-7.53-12.42-.66-1.06-1.5-2-2.25-3a8.47,8.47,0,0,0-7.61-3.51c-15.68.41-28.6,6.77-39.45,17.86-4.18,4.27-3.85,9.13-1.76,14,2.76,6.4,7.54,11.3,13.09,15.41,1.52,1.13,3.33,1.86,4.9,2.92.55.37.79,1.21,1.3,2a3.33,3.33,0,0,0,.56-.89c.49-1.54.8-3.14,1.41-4.63.23-.57,1.06-.89,1.61-1.33.27.69.85,1.44.74,2.07-.28,1.75-.85,3.45-1.29,5.12,4.28,1,8.46,1.77,12.49,3,17.4,5.3,32.83,13.85,44.46,28.19,12.77,15.75,18.66,33.67,17.31,54.12-1,15.56-6.19,29.45-14.41,42.46a13.18,13.18,0,0,0-1.36,4.69c-.07.39.68,1.16,1.2,1.38,5.88,2.41,10.37,6.54,14.33,11.35,8.07,9.79,4.7,27.72-12.32,31a59,59,0,0,1-7.49.6,2.91,2.91,0,0,1-1.14-.36Zm-50-169.83c.7.2,1.32.39,2,.55a40,40,0,0,1,13,6.37c1.13.8,2.24,1.72,1.92,3.36a1.36,1.36,0,0,1-.74.83c-.17.07-.7-.26-.79-.51-.89-2.31-3.06-3.14-5-4.17a44.68,44.68,0,0,0-19.47-4.94c-9.1-.42-18,.26-26.53,4A95.8,95.8,0,0,0,74.56,88.49C69.9,93.47,65,98.39,62,104.55a85,85,0,0,0-8.32,37.13c0,1,.3,1.51,1.4,1.55,1.79.07,3.58.26,5.36.44,15.39,1.62,30.81,3,46.17,4.94,19.09,2.37,38.13,5.14,57.19,7.76,4.18.58,8.35,1.26,12.07,1.82.83-.89,1.3-1.87,1.94-2,1.18-.23,1.25.9,1.43,1.81.06.32.59.7,1,.79.87.21,1.77.25,2.66.39,2.7.42,2.75.49,2.05,3.45l-5.63-.65v15.59c1.14-4.51-.27-9.32,1.93-13.74,1.85,8.41.83,17,1.51,25.57l3.18-1.08c.22.66.41,1.15.54,1.66.41,1.7,1.44,2.55,3.1,1.83,1.82-.79,3.53-1.84,5.28-2.8.55-.3,1.12-1,1.6-.94,1.72.24,2.11-1,2.68-2.09a41.64,41.64,0,0,1,2.11-4c.89-1.35,2.17-2.46,3-3.85a81.56,81.56,0,0,0,10.46-55.93c-2.45-15.28-9.78-28.35-20.74-39.13-13.58-13.36-30.26-20.86-48.9-24.18C142.52,58.46,142.5,58.54,142.28,60.83Zm56.27,131.75-.58-.44a13.62,13.62,0,0,0-1.54,1.38c-5.38,6.48-11.34,12.31-18.67,16.57a1.86,1.86,0,0,0-1,2.35,17.89,17.89,0,0,0,7.27,11.33,18.41,18.41,0,0,0,10.59,3.4ZM17.3,201.16c.43-4.23.91-8.5,1.29-12.77.58-6.37,1.21-12.73,1.58-19.11.21-3.63-2.08-5.08-5.53-3.79a7.58,7.58,0,0,0-2.16,1.25,16.45,16.45,0,0,0-5.55,8.19A41.55,41.55,0,0,0,6,191.48C6.72,197.13,12,201.5,17.3,201.16Zm181,25.9c5.4,0,11.1-6.79,12.62-14.83,1.45-7.7-2.76-16.5-9.24-19.08ZM21,201.37c2.91-.59,4.25-2.67,5.54-4.74,4-6.42,4.55-13.58,4.21-20.89,0-.4-.32-1.07-.59-1.13-1.62-.34-1.4-1.56-1.41-2.67,0-3.14-1.65-5.16-4.82-6ZM73.25,85.78c.34-.32.7-.62,1-1,9.08-9.3,19.88-16,31.7-21.2,9.24-4,19-4.44,28.87-3.83,1.59.1,3.18.32,4.81.49.07-.49.14-.84.17-1.19s0-.46,0-.93c-12.59-1-25-1.52-37,3.71A68.71,68.71,0,0,0,73.25,85.78Zm103,122.17c4.82-1.5,16.45-12,17.83-15.37-2.56-.42-5.69.15-9.22,1.39-1.89.66-3,1.66-3.15,3.77a3.24,3.24,0,0,1-1.34,2.42c-.65.28-1.74-.48-3.06-.93ZM205.3,228.5c5.53-.52,11.4-5.79,12.73-11.3,1.52-6.33-.53-13.31-4.67-15.95C216.41,212,213.33,220.94,205.3,228.5ZM24.66,143.64c-.23,6.27-.47,12.39-.66,18.53a1.27,1.27,0,0,0,.55,1c1.13.6,2.32,1.09,3.68,1.71v-21.2Zm157.6,83.87c-1.91-2.15-4.15-4.17-5.73-6.62s-2.49-5.32-3.71-8c-3.46,1.11-3.31.69-2.74,4.74a8.16,8.16,0,0,0,1.54,3.57C174.32,224.78,178.21,226.46,182.26,227.51ZM50.65,142.74,52.16,125c-1.22,2.74-3.31,13.59-3.22,16.6C49,142.93,49.82,142.72,50.65,142.74Zm118.93,68,.95.63c.84-.75,2.25-1.4,2.41-2.27a36.68,36.68,0,0,0,.11-6.29l-.5-.18Zm6.58,52.82.13.29,5.3-1c-.21-1.8-.89-2.41-2-1.74S177.3,262.78,176.16,263.59Z" transform="translate(-0.12 -0.06)"/><path d="M103,266.84c-1.51.3-2.55.49-3.58.71a27,27,0,0,1-3.85.76A2.11,2.11,0,0,1,94,267.26c-.18-.38.23-1.2.58-1.67,1.36-1.81,3.32-2.45,5.48-2.87,4.81-.94,9.57-2.09,14.37-3.09a25.21,25.21,0,0,1,3.41-.23V248.8c-4.29-.61-8.71-1.28-13.14-1.84-13-1.64-26-3.39-39-4.79-10.57-1.14-21.19-1.85-31.79-2.76-1.67-.14-3.34-.24-5-.43a3.74,3.74,0,0,1-3.44-2.7,14,14,0,0,1,2.64-.33c11.56.83,23.12,1.72,34.68,2.55,1.29.09,2.61-.17,3.89-.06s2.43.59,3.66.74c4.69.58,9.39,1,14.07,1.64q18.13,2.38,36.24,4.9c2.81.39,5.56,1.21,8.36,1.7,2,.34,4,.48,6,.66,3.92.35,7.85.77,11.78,1,7.27.39,14.55.66,21.83,1,.88,0,1.77,0,2.9,0,0-.75,0-1.39,0-2q0-7.27,0-14.53a4.17,4.17,0,0,1,.12-1.77,8.76,8.76,0,0,1,1.48-1.69,10,10,0,0,1,1.57,1.64,3.25,3.25,0,0,1,.16,1.58c0,5.56,0,11.12-.07,16.68,0,2.81-.59,3.37-3.34,3.5a179.8,179.8,0,0,1-32.19-1.62c-2.25-.3-4.5-.6-6.76-.86-1.18-.14-2.41-.65-3.3.84-.25.41-1.29.35-2.09.54,0,2,.09,4.16,0,6.29-.08,1.46-.54,2.9-.64,4.36a4.24,4.24,0,0,0,.5,2.26c.85,1.51.39,2.86-1.3,2.71-4.24-.37-8,1.17-12,2.13-3.3.79-6.88.5-10.33.48C101.48,270.53,101.25,269.18,103,266.84Zm14.92-2.21,0-.7-6.88.44,0,.26Z" transform="translate(-0.12 -0.06)"/><path d="M119,179.28c2.39,1.05,2.43,2,.47,3.74-6.74,5.9-13.42,11.87-20.16,17.78a1.75,1.75,0,0,0-.36,2.69c3.71,5.93,7.32,11.92,11,17.88.12.2.36.41.35.61,0,1,.28,2.47-.28,3.05-1,1-2.14.14-2.85-.8-3.61-4.76-7.17-9.56-10.73-14.35-.82-1.1-1.58-2.24-2.51-3.57-.54.49-1,.9-1.45,1.33q-7,6.67-14,13.35a10.76,10.76,0,0,1-2.49,2c-.66.32-1.94.4-2.33,0s-.26-1.58-.1-2.38c.1-.51.63-.94,1.28-1.84l-2.59,1.35c-1.24.65-2.43,1-3.53-.32-.16-.2-.71-.06-1.06-.14-.69-.16-1.74-.18-1.94-.6a2.65,2.65,0,0,1,.45-2,6.44,6.44,0,0,1,1.59-1.42l19.46-15.57c.46-.37.89-.77,1.46-1.27-1.79-2.63-3.57-5.15-5.26-7.74q-5.44-8.33-10.79-16.72c-.63-1-1.5-2.07-.28-3.19.82-.75,3,0,3.89,1,1.19,1.39,2.62,2.58,3.72,4,4.34,5.77,8.58,11.61,12.86,17.42.21.28.43.55.77,1,2-1.76,3.92-3.41,5.76-5.16a82.25,82.25,0,0,1,18.27-13.15,2.59,2.59,0,0,1,1.31-.49,2.43,2.43,0,0,1,1.6.78c.22.34,0,1.12-.29,1.59A5.06,5.06,0,0,1,119,179.28Z" transform="translate(-0.12 -0.06)"/><path d="M259.68,81.86c-2.94-.46-5.88.18-8.86-1.55a10.35,10.35,0,0,1,1.39-.27c2.75,0,5.5-.17,8.24,0a16,16,0,0,0,9.89-2.47,1.69,1.69,0,0,1,.8-.38,8.53,8.53,0,0,1,1.45.24c-.15.51-.13,1.27-.47,1.49a30.53,30.53,0,0,1-4.06,2.26c-8.76,4-18.08,6.09-27.47,7.91a92.53,92.53,0,0,1-24.8,1.36c-2.41-.18-4.79-1.27-7.07-2.2A6.71,6.71,0,0,1,206.49,86c-.22-.29-.07-.87-.09-1.31.43,0,1-.07,1.26.16,3.58,2.77,7.73,3.11,12,3.19a133,133,0,0,0,38-5.27c.52-.14,1-.31,1.54-.48C259.36,82.21,259.43,82.1,259.68,81.86Z" transform="translate(-0.12 -0.06)"/><path class="cls-1" d="M142.28,60.83c.23-2.28.24-2.37,2.77-1.91,18.64,3.32,35.32,10.82,48.9,24.18,11,10.78,18.29,23.85,20.74,39.13a81.56,81.56,0,0,1-10.46,55.93c-.82,1.39-2.1,2.5-3,3.85a41.64,41.64,0,0,0-2.11,4c-.57,1.11-1,2.32-2.68,2.09-.48-.07-1,.64-1.6.94-1.75,1-3.46,2-5.28,2.8-1.67.72-2.7-.13-3.1-1.83-.12-.51-.32-1-.54-1.66l-3.18,1.08c-.67-8.59.35-17.17-1.51-25.57-2.2,4.42-.79,9.23-1.93,13.74V162l5.63.65c.69-3,.65-3-2.05-3.45-.89-.14-1.79-.18-2.66-.39-.38-.09-.9-.47-1-.79-.18-.91-.25-2-1.43-1.81-.64.12-1.11,1.1-1.94,2-3.71-.56-7.88-1.24-12.07-1.82-19.06-2.62-38.1-5.39-57.19-7.76-15.36-1.91-30.77-3.32-46.17-4.94-1.78-.19-3.57-.37-5.36-.44-1.11,0-1.41-.51-1.4-1.55A85,85,0,0,1,62,104.55c3-6.16,7.87-11.08,12.53-16.07A95.8,95.8,0,0,1,106.63,66.3c8.5-3.72,17.43-4.4,26.53-4a44.68,44.68,0,0,1,19.47,4.94c1.9,1,4.07,1.85,5,4.17.1.25.62.58.79.51a1.36,1.36,0,0,0,.74-.83c.32-1.64-.79-2.56-1.92-3.36a40,40,0,0,0-13-6.37C143.6,61.22,143,61,142.28,60.83ZM119.1,128.6a3.39,3.39,0,0,0-4.34-1.36,13,13,0,0,0-8.87,12.52c0,2.48,1,4.24,3.14,5.14a19.63,19.63,0,0,0,17-.39,9.43,9.43,0,0,0,2.78-2.23c2.27-2.61,2.17-5.68.95-8.6a7,7,0,0,0-6.38-4.24,6,6,0,0,0-1.37.21,3.65,3.65,0,0,0,1.71.81c2.44.75,4.36,2.17,4.8,4.79s.17,5.37-2.65,7c-5.19,3-10.49,2.62-15.82.58a3,3,0,0,1-1.71-1.9c-.38-2.68-.49-5.41,1.63-7.58C112.34,130.89,114.69,128.26,119.1,128.6Zm49.11-14.81a4.25,4.25,0,0,0-4.06,5.9,2.27,2.27,0,0,0,1.43,1.17,23.71,23.71,0,0,0,4.55.47c2,0,3.22-1.56,3.34-3.87s-.42-2.87-2.79-3.31C169.87,114,169,113.9,168.21,113.79ZM78,107.35l-.06-.27c-1.37.3-2.74.69-4.13.85-1.23.14-1.87.64-1.85,1.89s.31,2.66,1.75,3a37,37,0,0,0,5.82.87A2.22,2.22,0,0,0,82,111.79c.77-3.61.17-4.38-3.45-4.44Zm103-2.17.45-.73a6.52,6.52,0,0,0-1.22-1.62c-3.72-2.57-7.43-5.19-11.3-7.53-1.16-.7-2.84-.63-4.29-.72-.29,0-.76.76-.89,1.24,0,.17.65.64,1.07.81A26.75,26.75,0,0,1,169,98.19c2.9,1.76,5.61,3.82,8.49,5.62A19.51,19.51,0,0,0,180.92,105.18ZM85.61,89.63,85.3,89a5.7,5.7,0,0,0-1.8.43q-5,3.19-9.84,6.53a3.32,3.32,0,0,0-1.07,1.59c-.13.36.15.86.25,1.3A4.51,4.51,0,0,0,74,98.36c.63-.54,1.11-1.27,1.78-1.74,2.64-1.85,5.34-3.62,8-5.45A23.39,23.39,0,0,0,85.61,89.63Z" transform="translate(-0.12 -0.06)"/><path class="cls-1" d="M198.54,192.58l-3.88,34.59a18.41,18.41,0,0,1-10.59-3.4,17.89,17.89,0,0,1-7.27-11.33,1.86,1.86,0,0,1,1-2.35c7.33-4.26,13.29-10.09,18.67-16.57a13.62,13.62,0,0,1,1.54-1.38Z" transform="translate(-0.12 -0.06)"/><path class="cls-1" d="M17.3,201.16c-5.33.34-10.59-4-11.28-9.69a41.55,41.55,0,0,1,.92-16.55,16.45,16.45,0,0,1,5.55-8.19,7.58,7.58,0,0,1,2.16-1.25c3.44-1.29,5.73.16,5.53,3.79-.37,6.38-1,12.75-1.58,19.11C18.21,192.67,17.74,196.93,17.3,201.16Z" transform="translate(-0.12 -0.06)"/><path class="cls-1" d="M198.35,227.06l3.38-33.91c6.48,2.58,10.69,11.38,9.24,19.08C209.45,220.27,203.75,227,198.35,227.06Z" transform="translate(-0.12 -0.06)"/><path class="cls-1" d="M21,201.37,24,165.95c3.17.85,4.78,2.87,4.82,6,0,1.12-.21,2.33,1.41,2.67.27.06.57.73.59,1.13.35,7.31-.17,14.47-4.21,20.89C25.29,198.7,24,200.78,21,201.37Z" transform="translate(-0.12 -0.06)"/><path class="cls-1" d="M73.25,85.78a68.71,68.71,0,0,1,29.55-23.9c12-5.23,24.44-4.68,37-3.71,0,.47,0,.7,0,.93s-.1.7-.17,1.19c-1.63-.17-3.22-.39-4.81-.49-9.87-.61-19.62-.21-28.87,3.83-11.82,5.17-22.63,11.9-31.7,21.2C74,85.16,73.6,85.46,73.25,85.78Z" transform="translate(-0.12 -0.06)"/><path class="cls-1" d="M176.24,207.95l1.06-8.72c1.32.45,2.41,1.2,3.06.93a3.24,3.24,0,0,0,1.34-2.42c.17-2.11,1.26-3.11,3.15-3.77,3.53-1.24,6.67-1.81,9.22-1.39C192.68,195.91,181.05,206.44,176.24,207.95Z" transform="translate(-0.12 -0.06)"/><path class="cls-1" d="M205.3,228.5c8-7.56,11.11-16.52,8.05-27.25,4.14,2.64,6.19,9.62,4.67,15.95C216.7,222.71,210.82,228,205.3,228.5Z" transform="translate(-0.12 -0.06)"/><path class="cls-1" d="M24.66,143.64h3.57v21.2c-1.36-.62-2.55-1.11-3.68-1.71a1.27,1.27,0,0,1-.55-1C24.2,156,24.43,149.91,24.66,143.64Z" transform="translate(-0.12 -0.06)"/><path class="cls-1" d="M182.26,227.51c-4-1.05-7.94-2.73-10.64-6.35a8.16,8.16,0,0,1-1.54-3.57c-.57-4.05-.72-3.62,2.74-4.74,1.22,2.71,2.13,5.59,3.71,8S180.35,225.36,182.26,227.51Z" transform="translate(-0.12 -0.06)"/><path class="cls-1" d="M50.65,142.74c-.84,0-1.67.19-1.72-1.15-.09-3,2-13.86,3.22-16.6Z" transform="translate(-0.12 -0.06)"/><path class="cls-1" d="M169.58,210.76l3-8.11.5.18a36.68,36.68,0,0,1-.11,6.29c-.15.87-1.57,1.52-2.41,2.27Z" transform="translate(-0.12 -0.06)"/><path class="cls-1" d="M176.16,263.59c1.14-.81,2.23-1.7,3.42-2.41s1.8-.06,2,1.74l-5.3,1Z" transform="translate(-0.12 -0.06)"/><path class="cls-1" d="M117.92,264.64H111l0-.26,6.88-.44Z" transform="translate(-0.12 -0.06)"/><path d="M119.1,128.6c-4.41-.33-6.75,2.29-9.17,4.77-2.13,2.18-2,4.91-1.63,7.58a3,3,0,0,0,1.71,1.9c5.33,2,10.64,2.46,15.82-.58,2.82-1.65,3.11-4.26,2.65-7s-2.36-4-4.8-4.79a3.65,3.65,0,0,1-1.71-.81,6,6,0,0,1,1.37-.21,7,7,0,0,1,6.38,4.24c1.23,2.91,1.32,6-.95,8.6A9.43,9.43,0,0,1,126,144.5a19.63,19.63,0,0,1-17,.39c-2.17-.89-3.16-2.65-3.14-5.14a13,13,0,0,1,8.87-12.52A3.39,3.39,0,0,1,119.1,128.6Z" transform="translate(-0.12 -0.06)"/><path d="M168.21,113.79c.82.11,1.66.19,2.47.34,2.38.44,2.91,1.09,2.79,3.31s-1.36,3.86-3.34,3.87a23.71,23.71,0,0,1-4.55-.47,2.27,2.27,0,0,1-1.43-1.17A4.25,4.25,0,0,1,168.21,113.79Z" transform="translate(-0.12 -0.06)"/><path d="M78,107.35h.54c3.62.06,4.22.83,3.45,4.44a2.22,2.22,0,0,1-2.46,1.91,37,37,0,0,1-5.82-.87c-1.44-.35-1.72-1.68-1.75-3s.62-1.75,1.85-1.89c1.39-.16,2.75-.56,4.13-.85Z" transform="translate(-0.12 -0.06)"/><path d="M180.92,105.18a19.51,19.51,0,0,1-3.46-1.37c-2.87-1.81-5.59-3.86-8.49-5.62a26.75,26.75,0,0,0-4.24-1.56c-.42-.16-1.11-.64-1.07-.81.13-.48.6-1.26.89-1.24,1.45.1,3.12,0,4.29.72,3.87,2.34,7.57,5,11.3,7.53a6.52,6.52,0,0,1,1.22,1.62Z" transform="translate(-0.12 -0.06)"/><path d="M85.61,89.63a23.39,23.39,0,0,1-1.81,1.53c-2.66,1.83-5.36,3.6-8,5.45-.67.47-1.15,1.21-1.78,1.74a4.51,4.51,0,0,1-1.17.52c-.1-.44-.38-.95-.25-1.3A3.32,3.32,0,0,1,73.66,96q4.87-3.34,9.84-6.53A5.7,5.7,0,0,1,85.3,89Z" transform="translate(-0.12 -0.06)"/></g></g></g></svg>