<svg xmlns="http://www.w3.org/2000/svg" viewBox="0 0 403.54 432.96"><defs><style>.cls-1{fill:#009444;}.cls-2{fill:#f7941d;}.cls-3{fill:#d35461;}.cls-4{fill:#fff5bb;}.cls-5{fill:#fff;stroke:#000;stroke-miterlimit:10;stroke-width:4.86px;}.cls-6{fill:#ea1f1f;}</style></defs><title>dont</title><g id="Layer_2" data-name="Layer 2"><g id="Layer_2-2" data-name="Layer 2"><path d="M234.37,388.57c-1.2,24.95-4.65,37,2,41,4.5,2.65,39.39,5.45,40,1.38,1.24-7.88-23.94-12.54-25.34-21.56-1-6.62-.9-13.87-1.62-22.1-2.17-24.88-7.31-44.76-11.49-44.39S235.56,363.79,234.37,388.57Z"/><path d="M154.31,380.16c1.2,24.95,4.65,37-2,41-4.5,2.65-39.39,5.45-40,1.38-1.24-7.88,23.94-12.54,25.34-21.56,1-6.62.9-13.87,1.62-22.1,2.17-24.88,7.31-44.76,11.49-44.39S153.12,355.38,154.31,380.16Z"/><path class="cls-1" d="M396.46,125.54c33.3,3.88-58.78,23.24-110.94,2S172,65,184.67,34s31-45.07,83.12-23.81S351.4,120.29,396.46,125.54Z"/><path class="cls-2" d="M349.66,226.63c-5.3,70.88-62.8,113.11-132.54,113.11S66,278.79,69.81,207.82C74.67,118,140.91,85.6,210.64,85.6S356.33,137.4,349.66,226.63Z"/><ellipse class="cls-3" cx="194.13" cy="217.38" rx="18.21" ry="17.76"/><path d="M333.27,310.61C319.63,334.22,291,340.67,286.32,338s24.81-11.86,38.45-35.47-3.35-51.52,10.93-50C342.17,253.14,346.9,287,333.27,310.61Z"/><rect class="cls-4" x="33.63" y="226.65" width="243.55" height="164.5" transform="translate(31.12 -13.78) rotate(5.64)"/><path class="cls-5" d="M331.44,320.73c.93,16.74-11.2,36.42-34,36.42s-38.24-14.8-38.24-31.57S274.65,291,297.45,291,330.23,298.87,331.44,320.73Z"/><path class="cls-5" d="M57.67,292.8c0,20.12-15.54,29.74-31,29.74S2.43,311,2.43,288.55c0-27.34,11.29-30.35,26.71-30.35S57.67,272.69,57.67,292.8Z"/><ellipse cx="131.24" cy="173.67" rx="6.98" ry="6.68"/><ellipse cx="267.38" cy="185.36" rx="6.98" ry="6.68"/><path d="M270.13,150.63c6.54,5.62,11.86,11.05,12.73,9.14.59-1.3-4.41-5.59-10.95-11.21s-11.44-10.64-12.73-9.14S263.59,145,270.13,150.63Z"/><path d="M129.89,138.24c-7.11,4.17-13.68,7.28-12.18,8.73,1,1,6.45-2.2,13.56-6.37s13.17-7,12.18-8.73S137,134.07,129.89,138.24Z"/><polygon class="cls-6" points="216.24 282.38 198.39 258.18 160.12 286.42 130.16 249.47 106.8 268.41 135.89 304.29 98.72 331.71 116.58 355.91 154.85 327.67 184.81 364.62 208.17 345.68 179.08 309.8 216.24 282.38"/></g></g></svg>