<svg xmlns="http://www.w3.org/2000/svg" viewBox="0 0 411.16 321.54"><defs><style>.cls-1{fill:#34c8ea;}.cls-2{fill:#71e2f4;}.cls-3{fill:#ffe948;}.cls-4{fill:#ff7de0;}.cls-5{fill:#009444;}.cls-6{fill:#c061a5;}.cls-7{fill:#f7941d;}.cls-8{fill:#f25a5a;}.cls-9{fill:#cc3737;}.cls-10,.cls-12,.cls-14{fill:#fff;}.cls-10,.cls-14{stroke:#000;stroke-miterlimit:10;}.cls-10{stroke-width:1.06px;}.cls-11{fill:#9148a3;}.cls-13{fill:#f6b1cf;}.cls-14{stroke-width:1.13px;}</style></defs><title>first_impression</title><g id="Layer_2" data-name="Layer 2"><g id="Layer_2-2" data-name="Layer 2"><path class="cls-1" d="M249.55,0H161.62C72.73,0,0,72.35,0,160.77H0c0,88.42,72.73,160.77,161.62,160.77h87.93c88.89,0,161.62-72.35,161.62-160.77h0C411.16,72.35,338.44,0,249.55,0Z"/><path class="cls-2" d="M249.55,0H212.73L150.89,321.14c3.55.23,7.12.4,10.73.4h87.93c88.89,0,161.61-72.35,161.61-160.77S338.44,0,249.55,0Z"/><path class="cls-3" d="M32.11,256.65a161.92,161.92,0,0,0,129.51,64.89h87.93a161.92,161.92,0,0,0,129.51-64.89Z"/><path d="M202.44,255.6c.85,13.83,2.83,22.14-.59,22.14-1.64,0-22.8,6-23.91,1.77-.53-2,14.14-9,15.06-11.51,1.18-3.25.89-13.08.89-17.12,0-13.86-1.06-20.37,2.36-20.37S201.56,241.13,202.44,255.6Z"/><path d="M219,257.61c1.57,13.77,1.06,22.3,4.43,21.7,1.61-.28,23.49,1.92,23.86-2.41.17-2.08-15.49-6.4-16.83-8.72-1.73-3-3.14-12.73-3.85-16.71-2.41-13.65-2.49-20.24-5.86-19.65S217.34,243.21,219,257.61Z"/><polygon class="cls-4" points="200.67 74.04 195.85 35.96 148.81 67.25 149.11 68.14 200.67 74.04"/><path class="cls-5" d="M325.06,104.55c-24.77,7.87-72.63,17.86-113.36-3.15-16.81-8.67-39.36-20.13-39.36-36.21S188.12,33,207,34.48c25,2,68.54,66.85,100.92,70.31C320.33,106.12,332,102.33,325.06,104.55Z"/><path d="M96.46,134c-3.54,33.36,26.07,37.78,28.64,35.28,5.9-5.76-20.37-7.82-21-30.85-.57-22.17,29.52-33.36,19.78-38.67C120.77,98,98.33,116.38,96.46,134Z"/><rect class="cls-6" x="141.24" y="71.88" width="25.59" height="39.76" rx="1.39" ry="1.39" transform="translate(-19.25 45.73) rotate(-15.91)"/><path d="M302.21,124.52c3.54,33.36-26.07,37.78-28.64,35.28-5.9-5.76,20.37-7.82,21-30.85.57-22.17-29.52-33.36-19.78-38.67C277.9,88.56,300.34,106.93,302.21,124.52Z"/><ellipse class="cls-7" cx="201.79" cy="166.63" rx="83.18" ry="73.8"/><polygon class="cls-5" points="198.31 99.04 192.8 99.82 190.44 77.78 198.31 77.78 198.31 99.04"/><ellipse cx="161.31" cy="151.39" rx="4.72" ry="4.33"/><ellipse cx="238.22" cy="145.54" rx="4.72" ry="4.33"/><path class="cls-8" d="M206.87,169.69c-3.25,5.61-3.74,6.2,1.48,6.2s15.37-3.46,15.94-7.09c.89-5.61-1.31-8.29-6.49-7.68C212.78,161.72,209.74,164.73,206.87,169.69Z"/><path class="cls-9" d="M223.41,171.68c.19.62-6.75,3.41-15.7,4.76s-16.52,1.3-16.7.13c-.36-2.35,5.05-.17,17-2C217,173.25,222.81,169.68,223.41,171.68Z"/><path d="M149.4,136.94c1.33.63,2.85-4.31,8.46-6.51,6.79-2.66,10.92-.89,10.36-3.37-.11-.48-6.5-.59-11.84,2.21C152.46,131.33,147.52,136,149.4,136.94Z"/><path d="M245.22,134.34c-.74-1.28-4.79,1.93-10.66.54-7.1-1.68-8.2-3.87-9.38-1.8-.24.42,4,2.86,9.94,3.59C239.52,137.21,246.26,136.15,245.22,134.34Z"/><path class="cls-10" d="M139.08,75.83c3.84-1.7,9-5.92,8.45-8.68-1.18-5.51-11.63,1.89-15.74,4.33-3.07,1.83-7.87,20.93-8.07,23.81-2.16-3-3.43-4.41-5.71-2.36-1.21,1.09,0,5.9,4,12s6.82,7.57,8.43,7.33,2.56-1.77.59-4.13c8.66,4.72,19.68-10.8,19.68-16.53C150.68,84.67,144.62,80.06,139.08,75.83Z"/><polygon class="cls-11" points="151.18 72.27 144.68 74.04 142.79 67.04 149.02 65.22 151.18 72.27"/><ellipse class="cls-12" cx="148.71" cy="67.74" rx="0.59" ry="1.08" transform="translate(-13.05 44.54) rotate(-16.33)"/><path class="cls-10" d="M290.34,90.95c-2-2.3-3.45-1-5.94,1.68.14-2.89.91-11.5-7.37-15.24-2.6-1.18-10.32,1.46-15.52,5.11a5,5,0,0,0-1.15-.93c-4.64-2.39-9.57-2.06-11,.74s1.4,6.86,6,9.25a13.6,13.6,0,0,1,3.2,2.42c3.67,6.76,9.35,13.63,17.1,10.51-2.23,2.12-1.48,3.74.11,4.17s4.57-.74,9.23-6.3S291.42,92.17,290.34,90.95Z"/><path class="cls-13" d="M294.75,95.91,242.63,52.86c-11.4-8.64-24.39,13.5-18.47,17.24l10.22-13,1.45,1.14L225.28,71.67a12.16,12.16,0,0,0,1.79,1.67l.11.08,10.74-13.65,1.45,1.14L228.65,74.54l1.85,1.41L241,62.57l1.45,1.14L232,77.06l1.8,1.37,10.5-13.35,1.45,1.14L235.24,79.55l1.61,1.23,10.37-13.18,1.45,1.14L238.32,81.89l1.71,1.3L250.32,70.1l1.45,1.14L241.5,84.3l1.76,1.34,10-12.73L254.72,74l-10,12.7.57.43c.33.25.69.42,1,.63l9.75-12.4,1.45,1.14L248,88.69a12.39,12.39,0,0,0,1.84.6l9.05-11.51,1.45,1.14-8.41,10.69a12.23,12.23,0,0,0,10.59-4.78l.69-.91a12,12,0,0,0,1-1.65l24.88,20.51a3.36,3.36,0,0,0,4.71-.45l1.4-1.7A3.36,3.36,0,0,0,294.75,95.91Z"/><path class="cls-14" d="M287.66,89.59c-1.82,4.54-8.93,6.2-14.56,3.94s-6.54-9.21-4.72-13.74,5.78-3.48,11.41-1.21S289.49,85.05,287.66,89.59Z"/><path class="cls-10" d="M270.74,80.14c3.54-4.33,5.9-7.48.73-11-2.61-1.77-7.63-.33-9.78,4.31s-1.68,9.7,1.18,11S267.5,84.1,270.74,80.14Z"/></g></g></svg>