<svg xmlns="http://www.w3.org/2000/svg" viewBox="0 0 152.78 167.56"><defs><style>.cls-1{fill:#fff;}</style></defs><title>impression</title><g id="Layer_2" data-name="Layer 2"><g id="Layer_9" data-name="Layer 9"><g id="NQi715.tif"><path class="cls-1" d="M0,.09H152.8V167.65H0ZM72.54,2,74.17.61a2.17,2.17,0,0,0-.53,0,5.13,5.13,0,0,0-.9.35C69.47,2.78,66.16,4.56,63,6.54A134.94,134.94,0,0,0,39.22,24.71c-.41.41-1.06.81-.61,1.49A2.92,2.92,0,0,0,40,25.63c4.48-3.64,8.89-7.36,13.41-10.95,2.24-1.78,4.66-3.35,7-5l.23.15c-4.84,5.63-7.63,11.89-6,19.47-1.72,0-1.72,0-1.74-1.52,0-.16,0-.36,0-.48a4.26,4.26,0,0,0-.53-.59c-.18.19-.48.36-.53.59a11.18,11.18,0,0,0-.13,1.59A69.69,69.69,0,0,0,41.49,28a3.08,3.08,0,0,0,1.52.92c2.54.51,5.09,1,7.65,1.4.83.13,1.15.42,1.13,1.29a10,10,0,0,0,2.8,7.06c2.73,3,6.37,4.35,10.22,5.21l1,.21c-1,.22-2,.28-3,.46-3.37.62-6.73,1.33-10.1,1.93a44.86,44.86,0,0,0-25.23,14c-7.33,7.81-11.08,17.26-12.09,27.85-.12,1.25-.21,2.49-.31,3.66-.73-.21-1.37-.42-2-.57A12.55,12.55,0,0,1,2.83,80.12a40.14,40.14,0,0,1,.34-11.25,15,15,0,0,1,2.09-5.59,3.62,3.62,0,0,1-.09.44c-1.5,4.27-1.59,8.7-1.5,13.16a15.68,15.68,0,0,0,2.57,8.35,24.43,24.43,0,0,0,3.48,4,2.75,2.75,0,0,0,3,.49c.32-.12.5-.59.74-.9-.28-.16-.55-.32-.83-.47a11.23,11.23,0,0,1-2.34-1.26,14.44,14.44,0,0,1-3.88-6.31,22.32,22.32,0,0,1-.75-8.84C6,67.44,6.78,63.11,9.55,59.4,10.61,58,11.84,56.67,13,55.28a2.46,2.46,0,0,1,1.91-1,3.84,3.84,0,0,1,.71.11,2.24,2.24,0,0,1-.28.74c-.56.64-1.18,1.23-1.77,1.84a3.76,3.76,0,0,1,3.25.07,18.63,18.63,0,0,0,2.66,1.32,8.82,8.82,0,0,0,2.47.43,1.19,1.19,0,0,0,1.35-1.31c.06-2-.06-4-1.85-5.33a3.25,3.25,0,0,0-.81-3.67c.92-.3.62-1,.59-1.56-.1-2.36-.29-4.72-.3-7.07a3.49,3.49,0,0,1,.74-2.13c2-2.33,4.79-2.8,7.74-2.88a2.78,2.78,0,0,1-.57,1.1,23.88,23.88,0,0,1-1.74,1.83c-.69.64-.58,1.23-.18,2a24.91,24.91,0,0,1,1.56,3.54,5.67,5.67,0,0,1-1,5.93,15,15,0,0,0-1.37,1.47A3.37,3.37,0,0,0,25.87,52a5.56,5.56,0,0,0,1.22.12c.21,0,.41-.31.57-.5,1.47-1.75,2.9-3.52,2.76-6a.8.8,0,0,1,.15.37c.2,1.28.37,2.57.61,3.84.12.61.49,1.13,1.19,1s.82-.68.75-1.26a36.81,36.81,0,0,0-.54-4.23A37.09,37.09,0,0,1,31.17,36a1.51,1.51,0,0,1,.5-1.07,14.46,14.46,0,0,1,2.65-1.54c2-.82,4-1.53,6-2.31a13.22,13.22,0,0,1,.56,1.71q.92,5.21,1.77,10.44c.11.64.22,1.33,1,1.31s1-.74.9-1.44a28.43,28.43,0,0,0-.41-3.38c-.67-3-1.37-6.06-2.18-9.06-.32-1.2-.87-1.38-2.09-1.06-.77.21-1.53.47-2.22.68-.68-1-1.27-2-1.95-2.88A1.32,1.32,0,0,0,33.88,27a38.84,38.84,0,0,0-3.33,2.81c-.21.19-.2.66-.22,1,0,.83,0,1.67,0,2.26a53.91,53.91,0,0,0-5.78,1.1c-3.83,1.16-5.28,3.2-5.2,7.16,0,2.17.31,4.33.47,6.45a13.83,13.83,0,0,0-1.62-1.62c-1-.73-1.95-.21-2,1A7.75,7.75,0,0,1,16,48.28c-.19.84-.36,1.7-.62,2.52a2.08,2.08,0,0,1-.63,1.06C13.16,53,11.55,54,10,55A21.08,21.08,0,0,0,1.41,67.62a33.93,33.93,0,0,0-.7,12.86C1.38,85.85,4.06,90,9.14,92.39a7.18,7.18,0,0,0,5.89.32c0,.31,0,.59,0,.88a28.37,28.37,0,0,0,.72,8.3c.32,1.15.48,2.35.81,3.5.68,2.39,1.35,4.78,2.14,7.14,1,3,2.13,6,3.16,9,.24.69.13,1.54.49,2.14A28.87,28.87,0,0,0,31.9,134,33.4,33.4,0,0,0,48,138.64c4.11.23,8.23.17,12.35.19.74,0,1,.22,1.12.94.26,2.32.6,4.63.82,7,.36,3.91.64,7.82.93,11.73a.93.93,0,0,1-.35.74c-2.66,1.41-5.13,3.13-8,4.1a22.92,22.92,0,0,0-4.54,2.47c-.27.16-.48,1-.33,1.13s1,.66,1.26.52a10.71,10.71,0,0,1,4-.58c.71,0,1.41-.22,2.12-.31,1.28-.16,2.57-.28,3.85-.47q3.31-.51,6.6-1.11a1.66,1.66,0,0,0,1.06-.61,1.45,1.45,0,0,1,1.47-.71c.45,0,.91,0,1.36,0,.67-.06,1.12-.43,1.09-1.12a1,1,0,0,0-1.09-1c-1,.08-1.36-.62-1.58-1.37a18.76,18.76,0,0,1-.52-2.37c-1-6.14-1.87-12.31-3.69-18.29a5.35,5.35,0,0,1-.12-.71l12.48-2.1c0,.77,0,1.48,0,2.19,0,2.56,0,5.13.12,7.68.33,5.76.78,11.51,1.16,17.27.13,2,.8,2.75,2.83,2.76,3.73,0,7.46,0,11.19,0,1.44,0,2.88,0,4.32,0a8.19,8.19,0,0,0,2.16-.26c.36-.11.91-.68.85-.91a1.58,1.58,0,0,0-1-1c-1.15-.31-2.34-.47-3.51-.68,0-1.32-.13-1.51-1.41-1.5-.52,0-1,.11-1.55.11-1,0-2,0-3-.11-1.45-.14-2.18-.8-2.53-2.41-1.42-6.62-3.08-13.19-4.62-19.79-.34-1.46-.55-2.94-.83-4.51l.51-.17c5.16-1.53,10.34-3,15.47-4.6A68.5,68.5,0,0,0,111.92,125a26,26,0,0,0,9.95-9.49c2.65-4.6,3.47-9.65,3.69-14.86A45.83,45.83,0,0,0,123.77,87a8.35,8.35,0,0,1,0-1.94c1.36.79,1.69.68,2.45-.31a13,13,0,0,1,1.7-1.81c2.2-1.94,4-4.2,4.19-7.21a42.67,42.67,0,0,0-.43-7.64,28.09,28.09,0,0,0-1.36-4.52c.48-.12,1-.27,1.47-.37a77.51,77.51,0,0,0,13.92-3.94,41.08,41.08,0,0,0,3.94-1.9c.63-.34,1.09-.88.7-1.66a7.58,7.58,0,0,1-1.79,1.18c-3.14.92-6.31,1.74-9.47,2.61a3.94,3.94,0,0,0-.84.44,11.48,11.48,0,0,1-2.58,1.43c-1.75.44-3.57.6-5.36.92-.56.1-.8-.12-1-.59-.56-1.1-1.16-2.17-1.77-3.24-.45-.79-.94-1.57-1.45-2.4,1.95.12,3.76.16,5.56.36a7.75,7.75,0,0,1,3,.78,8.15,8.15,0,0,0,4.19,1,20.44,20.44,0,0,0,8.55-2c1.44-.66,2.85-1.41,4.22-2.2a1.54,1.54,0,0,0,.82-1.93,7.59,7.59,0,0,1-1.05.75,39.34,39.34,0,0,1-9.67,3.49c-1.38.24-2.83.8-4.22-.1-.14-.09-.43,0-.64.08a8.28,8.28,0,0,1-1.25.31c-1.57.1-2.88-1.07-4.53-.89a7.27,7.27,0,0,1-3.14-.48,15.35,15.35,0,0,1-3.67-1.87,12.58,12.58,0,0,1-2-2.41,10.75,10.75,0,0,0,1.13-6.09,4.32,4.32,0,0,0-1-2.33,9.84,9.84,0,0,0-6.64-3.27c-1.45-.12-2.9-.21-4.19-.3a29.22,29.22,0,0,0-1.13-4.25c-1.61-3.71-3.28-7.41-5.14-11a16.38,16.38,0,0,0-3.09-3.71,3.26,3.26,0,0,0-1.84-.7c-1.92-.24-3.24.89-4.43,2.19-.6.66-1.15,1.36-1.81,2.14l-7.2-10.76-.25.15a3.44,3.44,0,0,0,.19.4c2.12,3.3,4.22,6.61,6.37,9.89a1.32,1.32,0,0,1,.06,1.72c-1,1.52-1.92,3.09-2.75,4.7a6.79,6.79,0,0,0-.66,2.4c0,.34.45.72.7,1.09.31-.27.65-.52.93-.81.1-.1.07-.32.14-.46,1-2,2-4.08,3.08-6.19,1.6,1.54,1.62,1.56.54,3S93,31.39,92,32.79a1.69,1.69,0,0,0-.23,1.15c0,.19.52.47.74.43a1.81,1.81,0,0,0,.94-.59c.68-.76,1.29-1.58,2-2.4l1.37,1.11-.46.86c-.58,1.08-1.18,2.16-1.75,3.26-.27.52-.26,1.14.34,1.3a1.91,1.91,0,0,0,1.3-.45c.26-.18.36-.6.53-.91l1.57-2.89,2.56,2.18-2.39,3.1c-.42.54-.86,1.15-.19,1.7s1.2.05,1.64-.49c.29-.35.56-.71.84-1.07l1.43-1.88c.9.5,1,1,.31,1.65a10.9,10.9,0,0,0-.91,1.14c-.71.93-1.43,1.84-2.11,2.79-.36.5-.45,1.15.18,1.41.33.14.93-.13,1.31-.37a3.91,3.91,0,0,0,.77-1l2.68-3.54c.69.85,1.22,1.63,1.87,2.3s.48,1.31.15,2.08-.9.58-1.45.59c-1.36,0-2.06.44-2.3,1.74a15.35,15.35,0,0,0-.23,3.66A2.42,2.42,0,0,0,105,51.89a1.44,1.44,0,0,1,1.46.92,3.27,3.27,0,0,0,2.44,1.88,9.58,9.58,0,0,1,2.43.42,6.73,6.73,0,0,0,6-.4c.71-.38,1.47-.69,2.36-1.1a39.94,39.94,0,0,0,1.6,3.77c.9,1.64-1.1,2.4-1,3.79,0,.32-.71.79-1.18,1a7.69,7.69,0,0,1-2.51.72c-2.37.11-4.74.09-7.11.06-.28,0-.6-.33-.84-.57-2.48-2.42-4.83-5-7.46-7.24A43.34,43.34,0,0,0,76.31,44.39l-3.23-.28,2.5-3.53a1.33,1.33,0,0,0-1.84.53c-.44.68-1,1.3-1.46,1.95-.83,1.09-1.67,1.32-3.24.76.51-.3.93-.5,1.3-.77s.52-.76-.09-1l.64-1.8c-.84-.48-1.17-.19-1.46.54-.71,1.81-1.14,2-2.77,1.08a21,21,0,0,1-9.22-9.45,8.28,8.28,0,0,1-.27-.81c1.4.33,2.67.59,3.91.92,3.88,1,7.76,2.1,11.64,3.14.55.15,1.18.24,1.35-.5s-.43-.86-.95-1c-5.32-1.42-10.64-2.86-16-4.23a1.1,1.1,0,0,1-1-1.12A36.44,36.44,0,0,1,56,22.33a16.93,16.93,0,0,1,4.89-9.95c1-1,2.25-1.85,2.54-3.4A52.84,52.84,0,0,1,69.1,4.4a6.71,6.71,0,0,1,8,.48l1,.76L79.35,5A9.08,9.08,0,0,0,72.54,2Z" transform="translate(-0.02 -0.09)"/><path d="M72.54,2a9.08,9.08,0,0,1,6.81,3l-1.22.65-1-.76a6.71,6.71,0,0,0-8-.48A52.84,52.84,0,0,0,63.46,9c-.29,1.55-1.55,2.42-2.54,3.4A16.93,16.93,0,0,0,56,22.33a36.44,36.44,0,0,0,.14,6.48,1.1,1.1,0,0,0,1,1.12c5.34,1.37,10.66,2.81,16,4.23.52.14,1.09.32.95,1s-.8.65-1.35.5c-3.88-1-7.76-2.1-11.64-3.14-1.25-.33-2.51-.59-3.91-.92a8.28,8.28,0,0,0,.27.81,21,21,0,0,0,9.22,9.45c1.63.91,2.06.72,2.77-1.08.29-.73.62-1,1.46-.54L70.25,42c.61.25.61.63.09,1s-.79.47-1.3.77c1.57.56,2.4.34,3.24-.76.49-.65,1-1.26,1.46-1.95a1.33,1.33,0,0,1,1.84-.53l-2.5,3.53,3.23.28a43.34,43.34,0,0,1,24.85,10.74c2.63,2.25,5,4.83,7.46,7.24.24.24.56.56.84.57,2.37,0,4.74.05,7.11-.06a7.69,7.69,0,0,0,2.51-.72c.47-.2,1.19-.67,1.18-1-.07-1.4,1.93-2.15,1-3.79a39.94,39.94,0,0,1-1.6-3.77c-.89.41-1.65.71-2.36,1.1a6.73,6.73,0,0,1-6,.4,9.58,9.58,0,0,0-2.43-.42,3.27,3.27,0,0,1-2.44-1.88,1.44,1.44,0,0,0-1.46-.92,2.42,2.42,0,0,1-2.51-2.25,15.35,15.35,0,0,1,.23-3.66c.24-1.3.94-1.72,2.3-1.74.55,0,1.12.19,1.45-.59s.53-1.38-.15-2.08-1.19-1.45-1.87-2.3l-2.68,3.54a3.91,3.91,0,0,1-.77,1c-.37.24-1,.51-1.31.37-.63-.27-.53-.91-.18-1.41.68-.95,1.4-1.87,2.11-2.79a10.9,10.9,0,0,1,.91-1.14c.65-.64.59-1.15-.31-1.65l-1.43,1.88c-.28.36-.55.72-.84,1.07-.44.54-1,1-1.64.49s-.23-1.16.19-1.7l2.39-3.1-2.56-2.18-1.57,2.89c-.17.31-.27.73-.53.91a1.91,1.91,0,0,1-1.3.45c-.6-.17-.61-.78-.34-1.3.57-1.09,1.17-2.17,1.75-3.26l.46-.86-1.37-1.11c-.67.83-1.28,1.64-2,2.4a1.81,1.81,0,0,1-.94.59c-.23,0-.72-.24-.74-.43A1.69,1.69,0,0,1,92,32.79c1-1.39,2.1-2.72,3.12-4.1s1.06-1.47-.54-3c-1.05,2.11-2.07,4.15-3.08,6.19-.07.14,0,.36-.14.46-.29.29-.62.54-.93.81-.25-.36-.73-.75-.7-1.09a6.79,6.79,0,0,1,.66-2.4c.84-1.61,1.76-3.18,2.75-4.7a1.32,1.32,0,0,0-.06-1.72C91,20,88.85,16.64,86.73,13.34a3.44,3.44,0,0,1-.19-.4l.25-.15L94,23.55c.66-.78,1.21-1.48,1.81-2.14,1.19-1.3,2.51-2.42,4.43-2.19a3.26,3.26,0,0,1,1.84.7,16.38,16.38,0,0,1,3.09,3.71c1.86,3.59,3.52,7.29,5.14,11a29.22,29.22,0,0,1,1.13,4.25c1.3.09,2.75.18,4.19.3a9.84,9.84,0,0,1,6.64,3.27,4.32,4.32,0,0,1,1,2.33,10.75,10.75,0,0,1-1.13,6.09,12.58,12.58,0,0,0,2,2.41,15.35,15.35,0,0,0,3.67,1.87,7.27,7.27,0,0,0,3.14.48c1.65-.18,3,1,4.53.89a8.28,8.28,0,0,0,1.25-.31c.21,0,.5-.17.64-.08,1.39.9,2.84.34,4.22.1a39.34,39.34,0,0,0,9.67-3.49,7.59,7.59,0,0,0,1.05-.75,1.54,1.54,0,0,1-.82,1.93c-1.37.79-2.78,1.55-4.22,2.2a20.44,20.44,0,0,1-8.55,2,8.15,8.15,0,0,1-4.19-1,7.75,7.75,0,0,0-3-.78c-1.8-.2-3.61-.24-5.56-.36.5.83,1,1.61,1.45,2.4.61,1.07,1.22,2.14,1.77,3.24.24.47.48.69,1,.59,1.79-.32,3.61-.47,5.36-.92a11.48,11.48,0,0,0,2.58-1.43,3.94,3.94,0,0,1,.84-.44c3.15-.87,6.33-1.69,9.47-2.61a7.58,7.58,0,0,0,1.79-1.18c.39.79-.07,1.33-.7,1.66a41.08,41.08,0,0,1-3.94,1.9,77.51,77.51,0,0,1-13.92,3.94c-.5.1-1,.25-1.47.37A28.09,28.09,0,0,1,131.65,68a42.67,42.67,0,0,1,.43,7.64c-.16,3-2,5.26-4.19,7.21a13,13,0,0,0-1.7,1.81c-.76,1-1.09,1.1-2.45.31a8.35,8.35,0,0,0,0,1.94,45.83,45.83,0,0,1,1.79,13.74c-.22,5.21-1,10.26-3.69,14.86a26,26,0,0,1-9.95,9.49,68.5,68.5,0,0,1-13.51,5.71c-5.13,1.62-10.31,3.07-15.47,4.6l-.51.17c.28,1.56.49,3.05.83,4.51,1.54,6.6,3.2,13.17,4.62,19.79.35,1.61,1.08,2.28,2.53,2.41,1,.09,2,.1,3,.11.52,0,1-.1,1.55-.11,1.28,0,1.46.18,1.41,1.5,1.17.21,2.36.37,3.51.68a1.58,1.58,0,0,1,1,1c.06.23-.48.8-.85.91a8.19,8.19,0,0,1-2.16.26c-1.44,0-2.88,0-4.32,0-3.73,0-7.46,0-11.19,0-2,0-2.69-.73-2.83-2.76-.38-5.76-.83-11.51-1.16-17.27-.15-2.55-.09-5.12-.12-7.68,0-.71,0-1.42,0-2.19l-12.48,2.1a5.35,5.35,0,0,0,.12.71c1.82,6,2.68,12.15,3.69,18.29a18.76,18.76,0,0,0,.52,2.37c.23.75.55,1.45,1.58,1.37a1,1,0,0,1,1.09,1c0,.7-.42,1.06-1.09,1.12-.45,0-.91,0-1.36,0a1.45,1.45,0,0,0-1.47.71,1.66,1.66,0,0,1-1.06.61q-3.29.61-6.6,1.11c-1.28.2-2.57.31-3.85.47-.71.09-1.41.26-2.12.31a10.71,10.71,0,0,0-4,.58c-.3.14-1-.2-1.26-.52s.07-1,.33-1.13a22.92,22.92,0,0,1,4.54-2.47c2.91-1,5.39-2.69,8-4.1a.93.93,0,0,0,.35-.74c-.29-3.91-.57-7.82-.93-11.73-.21-2.32-.56-4.63-.82-7-.08-.72-.37-.94-1.12-.94-4.12,0-8.24,0-12.35-.19A33.4,33.4,0,0,1,31.9,134a28.87,28.87,0,0,1-9.55-10.32c-.35-.6-.25-1.45-.49-2.14-1-3-2.16-6-3.16-9-.79-2.36-1.46-4.75-2.14-7.14-.33-1.15-.49-2.35-.81-3.5a28.37,28.37,0,0,1-.72-8.3c0-.29,0-.58,0-.88a7.18,7.18,0,0,1-5.89-.32C4.06,90,1.38,85.85.71,80.48a33.93,33.93,0,0,1,.7-12.86A21.08,21.08,0,0,1,10,55C11.55,54,13.16,53,14.72,51.86a2.08,2.08,0,0,0,.63-1.06c.25-.83.43-1.68.62-2.52a7.75,7.75,0,0,0,.19-1.13c.09-1.21,1.05-1.73,2-1a13.83,13.83,0,0,1,1.62,1.62c-.16-2.12-.43-4.28-.47-6.45-.08-4,1.37-6,5.2-7.16a53.91,53.91,0,0,1,5.78-1.1c0-.59,0-1.43,0-2.26,0-.34,0-.81.22-1A38.84,38.84,0,0,1,33.88,27a1.32,1.32,0,0,1,1.88.46c.68.9,1.27,1.86,1.95,2.88.69-.21,1.45-.47,2.22-.68,1.22-.33,1.76-.15,2.09,1.06.8,3,1.5,6,2.18,9.06a28.43,28.43,0,0,1,.41,3.38c.07.69,0,1.41-.9,1.44s-.9-.66-1-1.31Q41.83,38,40.92,32.83a13.22,13.22,0,0,0-.56-1.71c-2.06.78-4.07,1.49-6,2.31A14.46,14.46,0,0,0,31.67,35a1.51,1.51,0,0,0-.5,1.07,37.09,37.09,0,0,0,1.41,9.29,36.81,36.81,0,0,1,.54,4.23c.06.58-.05,1.18-.75,1.26s-1.08-.43-1.19-1c-.24-1.27-.41-2.56-.61-3.84a.8.8,0,0,0-.15-.37c.14,2.51-1.29,4.29-2.76,6-.16.2-.36.48-.57.5A5.56,5.56,0,0,1,25.87,52a3.37,3.37,0,0,1,.23-1.27,15,15,0,0,1,1.37-1.47,5.67,5.67,0,0,0,1-5.93,24.91,24.91,0,0,0-1.56-3.54c-.39-.76-.51-1.35.18-2A23.88,23.88,0,0,0,28.81,36a2.78,2.78,0,0,0,.57-1.1c-3,.07-5.73.54-7.74,2.88a3.49,3.49,0,0,0-.74,2.13c0,2.36.21,4.72.3,7.07,0,.56.33,1.26-.59,1.56a3.25,3.25,0,0,1,.81,3.67c1.78,1.34,1.9,3.31,1.85,5.33a1.19,1.19,0,0,1-1.35,1.31,8.82,8.82,0,0,1-2.47-.43,18.63,18.63,0,0,1-2.66-1.32A3.76,3.76,0,0,0,13.54,57c.59-.61,1.21-1.21,1.77-1.84a2.24,2.24,0,0,0,.28-.74,3.84,3.84,0,0,0-.71-.11,2.46,2.46,0,0,0-1.91,1C11.84,56.67,10.61,58,9.55,59.4c-2.77,3.71-3.56,8-3.87,12.55a22.32,22.32,0,0,0,.75,8.84,14.44,14.44,0,0,0,3.88,6.31,11.23,11.23,0,0,0,2.34,1.26c.28.15.55.31.83.47-.24.31-.42.78-.74.9a2.75,2.75,0,0,1-3-.49,24.43,24.43,0,0,1-3.48-4,15.68,15.68,0,0,1-2.57-8.35c-.09-4.46,0-8.89,1.5-13.16a3.62,3.62,0,0,0,.09-.44,15,15,0,0,0-2.09,5.59,40.14,40.14,0,0,0-.34,11.25A12.55,12.55,0,0,0,13,91.45c.65.15,1.29.36,2,.57.1-1.16.19-2.41.31-3.66,1-10.59,4.76-20,12.09-27.85a44.86,44.86,0,0,1,25.23-14c3.38-.61,6.73-1.31,10.1-1.93,1-.18,2-.24,3-.46l-1-.21C61,43,57.31,41.73,54.58,38.68a10,10,0,0,1-2.8-7.06c0-.87-.3-1.15-1.13-1.29-2.56-.41-5.11-.89-7.65-1.4A3.08,3.08,0,0,1,41.49,28a69.69,69.69,0,0,1,10.21.86,11.18,11.18,0,0,1,.13-1.59c0-.22.34-.39.53-.59a4.26,4.26,0,0,1,.53.59c.08.12,0,.32,0,.48,0,1.51,0,1.51,1.74,1.52-1.63-7.57,1.17-13.83,6-19.47l-.23-.15c-2.34,1.66-4.76,3.23-7,5C48.93,18.27,44.52,22,40,25.63a2.92,2.92,0,0,1-1.42.57c-.45-.68.19-1.09.61-1.49A134.94,134.94,0,0,1,63,6.54c3.19-2,6.5-3.76,9.76-5.62a5.13,5.13,0,0,1,.9-.35,2.17,2.17,0,0,1,.53,0ZM95.61,128.07c.7-.26,1.16-.4,1.6-.58,1.73-.72,3.46-1.47,5.2-2.18a38.54,38.54,0,0,0,12.23-7.62,24.53,24.53,0,0,0,5.69-8l-1-.52a13.69,13.69,0,0,0,1.22-1.76,12.45,12.45,0,0,0,1.54-5.87,2.68,2.68,0,0,1,.45-1.1c.14-.28.45-.54.46-.82a70.52,70.52,0,0,0,.22-7.58,47.48,47.48,0,0,0-1.17-7.54,8.28,8.28,0,0,0-1.71-3.44,18.29,18.29,0,0,1-2.89-4.57A23.08,23.08,0,0,0,114,70.66c-2.1-2.46-4.28-4.86-6.33-7.36a55.22,55.22,0,0,0-8-7.76A42.3,42.3,0,0,0,74.3,45.61c-.9,0-1.82.19-2.73.18-.64,0-1.29-.33-1.92-.32-.92,0-1.83.28-2.76.33-1.13.06-2.27,0-3.69,0l.76.27a20.54,20.54,0,0,1-5,1.06,11.49,11.49,0,0,0-4.52,1c-3.1,1.54-6.16,3.16-9.26,4.71a20.56,20.56,0,0,1-2.22.78,4.55,4.55,0,0,0-1.32.56A64.31,64.31,0,0,0,24.26,75.39a55.51,55.51,0,0,0-5.94,25.53c0,.57.14,1.15.17,1.72.16,3.12.31,6.25.46,9.37a.54.54,0,0,0,.06.18c.78,1.73,1.6,3.44,2.32,5.19a30.23,30.23,0,0,0,10.28,12.81,21.17,21.17,0,0,0,9.44,4.14,33.93,33.93,0,0,0,10.07.26,9,9,0,0,1,2.6,0,39.3,39.3,0,0,0,11.92.29,148,148,0,0,0,28.93-7.91c1.08-.4,2.23-.69,2.73-1.94C98,125.84,97.75,126.36,95.61,128.07Zm15.94-62.29c.76,1.1,1.53,2.36,2.44,3.51A24.25,24.25,0,0,1,117.34,74a39,39,0,0,0,2.19,3.66l.26-.12V76.43l1,2.44A1.6,1.6,0,0,0,122.43,80c.86,0,1.22-.56,1.48-1.3.13-.35.41-.82.71-.91,2-.58,2.86-2.12,3.23-4,.3-1.52.53-3.06.7-4.6a7.82,7.82,0,0,0-.1-2.22,2.7,2.7,0,0,0-.68-1.11c-.34-.4-.75-.74-1.32-1.3-.47-.06-1.27-.19-2.06-.25a3.21,3.21,0,0,0-1.58.11,7.14,7.14,0,0,1-3.55.65c-1.3,0-2.59,0-3.89,0a7,7,0,0,0-1.25.13C113.3,65.36,112.48,65.56,111.55,65.77ZM50.39,48.26A44.8,44.8,0,0,0,16.87,94.07C19.72,73,31.36,57.94,50.39,48.26ZM101.7,26.59c.6.63.37,1.22,0,1.8s-1.14,1.37-1.06,2,1,1.12,1.53,1.67c.11.11.25.3.37.29a1.5,1.5,0,0,0,.88-.2,1.64,1.64,0,0,0,.36-2c-.53-1.36-.88-2.78-1.3-4.17-.18-.58-.2-1.14.5-1.35s.89.3,1.1.82c.59,1.47,1.16,3,1.81,4.41,1.19,2.68,2.43,5.34,3.65,8a6.13,6.13,0,0,0-.33-1.9,67.2,67.2,0,0,0-5.59-12,11.1,11.1,0,0,0-1.81-2.27c-1.28-1.28-2.53-1.34-3.82-.09a28.87,28.87,0,0,0-2.48,3,.72.72,0,0,0-.05.67,16.3,16.3,0,0,0,1.13,1.34c.33-.43.57-.77.84-1.09a10.57,10.57,0,0,1,1.31-1.42c.21-.17.65-.06,1-.08a2.53,2.53,0,0,1-.06,1,13.84,13.84,0,0,1-1,1.46c-1,1.44-1,1.44.3,2.63a1.38,1.38,0,0,0,.26.13ZM110.48,52l1.13-.92a6.39,6.39,0,0,1,.71,1c.29.65.74.56,1.28.43a2.27,2.27,0,0,1,1.24-.07c1,.39,1.72.31,2.14-.38a2.09,2.09,0,0,0-.24-2.7c-2.33-2.1-4.65-4.22-7-6.33-.2-.18-.4-.35-.76-.65v3.23c.81,1.5.54,3.28-.67,5.12ZM53,30.94a7.56,7.56,0,0,0,1,4.56c2.23,4.17,6.26,5.65,10.52,7-.12-.21-.14-.28-.18-.31l-.89-.6a21.15,21.15,0,0,1-7.74-9.16C55.09,31,54.75,30.84,53,30.94Zm51.11,95.57c5.37-1.86,10.3-4.42,14.15-8.73a24.49,24.49,0,0,0,5.6-15.52C122,114.17,114.67,121.64,104.13,126.51Zm17.28-77a31.12,31.12,0,0,0,.59-3.16,5.19,5.19,0,0,0-.22-2.37c-.69-1.66-4-3.4-6-3.25,2.46,1.9,3,4.45,2.9,7.25a1.46,1.46,0,0,0,1.84,1.36A2.85,2.85,0,0,1,121.41,49.54Zm-4.11-1.89a5.81,5.81,0,0,0-.67-4c-1-1.58-2.16-3-4.29-3-.36,0-1,.2-1,.44a1.41,1.41,0,0,0,.28,1.2C113.41,44,115.29,45.74,117.31,47.65ZM31.7,32.86,35.94,31l-1.51-2.66C32.91,29.59,31,30.35,31.7,32.86ZM17.24,47c0,.71.19,1.31,0,1.58-1.21,1.48-.42,3-.41,4.36l3-3Zm3.87,5.26-2.59,4c1,.38,1.82.73,2.65,1,.45.15.71-.06.76-.58A6.78,6.78,0,0,0,21.12,52.3Zm105.22,10-2.28-5.09-.37.09a12.14,12.14,0,0,0,.19,1.73c.21.84.57,1.65.78,2.49S125.26,62.71,126.34,62.33ZM105.53,49.5l.19-4c-.83-.07-1.43,0-1.56,1C103.86,48.56,104.05,49.09,105.53,49.5Zm-76-11.74-.26-.08c-.36.41-.74.8-1.06,1.23a.68.68,0,0,0-.06.59c.66,1.34,1.35,2.66,2.07,4.08Zm93.22,25,.18-.34-.53-1.71c-1.28,1-1.46,1.24-1,1.66S122.27,62.66,122.74,62.78Zm-25-31.71c.74-1,.68-1.18-.56-2.2L96.39,30ZM83.79,164.74h1.26l.17-1.24C83.88,163.16,83.76,163.26,83.79,164.74ZM108.24,46.28l-.48,0-.18,2.49.39,0Z" transform="translate(-0.02 -0.09)"/><path class="cls-1" d="M95.61,128.07c2.13-1.7,2.42-2.22,1.7-3.08-.5,1.25-1.66,1.54-2.73,1.94a148,148,0,0,1-28.93,7.91,39.3,39.3,0,0,1-11.92-.29,9,9,0,0,0-2.6,0,33.93,33.93,0,0,1-10.07-.26,21.17,21.17,0,0,1-9.44-4.14,30.23,30.23,0,0,1-10.28-12.81c-.72-1.75-1.55-3.46-2.32-5.19A.54.54,0,0,1,19,112c-.15-3.12-.3-6.25-.46-9.37,0-.57-.17-1.15-.17-1.72a55.51,55.51,0,0,1,5.94-25.53A64.31,64.31,0,0,1,41.66,54.17,4.55,4.55,0,0,1,43,53.62a20.56,20.56,0,0,0,2.22-.78c3.1-1.55,6.16-3.17,9.26-4.71a11.49,11.49,0,0,1,4.52-1,20.54,20.54,0,0,0,5-1.06l-.76-.27c1.42,0,2.55,0,3.69,0,.92-.05,1.84-.31,2.76-.33.64,0,1.28.31,1.92.32.91,0,1.82-.22,2.73-.18a42.3,42.3,0,0,1,25.36,9.92,55.22,55.22,0,0,1,8,7.76c2,2.5,4.22,4.9,6.33,7.36a23.08,23.08,0,0,1,3.45,5.82,18.29,18.29,0,0,0,2.89,4.57,8.28,8.28,0,0,1,1.71,3.44A47.48,47.48,0,0,1,123.23,92a70.52,70.52,0,0,1-.22,7.58c0,.28-.32.54-.46.82a2.68,2.68,0,0,0-.45,1.1,12.45,12.45,0,0,1-1.54,5.87,13.69,13.69,0,0,1-1.22,1.76l1,.52a24.53,24.53,0,0,1-5.69,8,38.54,38.54,0,0,1-12.23,7.62c-1.74.7-3.46,1.46-5.2,2.18C96.77,127.67,96.32,127.81,95.61,128.07ZM71.38,98.2c-.87.06-1.68.16-2.48.17-2.56,0-5.12,0-7.68,0-.29,0-.58.26-.87.4a3.79,3.79,0,0,0,.67.82,1.64,1.64,0,0,0,.84.16c2.2.07,4.4.14,6.6.18a20.32,20.32,0,0,0,7-1.13A13.9,13.9,0,0,0,83.11,93c.89-1.43.61-2.74-.91-3.37a7.65,7.65,0,0,0-6.4,0,9.08,9.08,0,0,0-4.08,4A5.55,5.55,0,0,0,71.38,98.2ZM91.21,76.4c-1.54,0-3.3,2.36-2.8,3.85a1.12,1.12,0,0,0,.55.63,8.29,8.29,0,0,0,2,.61A2.6,2.6,0,0,0,94,78.8c.12-1.61-.57-2.26-2.53-2.39Zm6-4.45c-.51,0-.7-.07-.88-.05-2.09.13-4.18.36-6.28.39-2.89,0-5.78-.08-8.29-1.86a.77.77,0,0,0-.75.08.82.82,0,0,0,0,.77,2,2,0,0,0,.83.79A10.69,10.69,0,0,0,85,73.24c3.12.26,6.26.33,9.39.37a4.91,4.91,0,0,0,2-.66C96.66,72.81,96.84,72.41,97.21,72ZM42,80.59a2.79,2.79,0,0,0-2.71,3.86,1.79,1.79,0,0,0,1.22.89,7.94,7.94,0,0,0,2.22-.12,2.1,2.1,0,0,0,2-2.43c0-1.38-.53-1.95-2-2.14C42.4,80.61,42.1,80.6,42,80.59Zm3.38-13.07a13.48,13.48,0,0,0-9.52,3.87,12.18,12.18,0,0,0-1.89,3.22c-.07.14.33.53.51.81a3.13,3.13,0,0,0,.61-.51,5.25,5.25,0,0,0,.28-.72c1.75-3.44,7.66-6.09,11.39-5.15a2.65,2.65,0,0,0,.89-.09c-.16-.36-.23-.9-.5-1A7.53,7.53,0,0,0,45.35,67.53Z" transform="translate(-0.02 -0.09)"/><path class="cls-1" d="M111.55,65.77c.93-.21,1.75-.41,2.58-.58a7,7,0,0,1,1.25-.13c1.3,0,2.59,0,3.89,0a7.14,7.14,0,0,0,3.55-.65,3.21,3.21,0,0,1,1.58-.11c.8.05,1.59.19,2.06.25.57.55,1,.89,1.32,1.3a2.7,2.7,0,0,1,.68,1.11,7.82,7.82,0,0,1,.1,2.22c-.17,1.54-.4,3.08-.7,4.6-.37,1.87-1.2,3.4-3.23,4-.31.09-.58.56-.71.91-.27.73-.63,1.27-1.48,1.3a1.6,1.6,0,0,1-1.65-1.11l-1-2.44v1.15l-.26.12A39,39,0,0,1,117.34,74,24.25,24.25,0,0,0,114,69.28C113.08,68.14,112.31,66.88,111.55,65.77Z" transform="translate(-0.02 -0.09)"/><path class="cls-1" d="M50.39,48.26C31.36,57.94,19.72,73,16.87,94.07A44.8,44.8,0,0,1,50.39,48.26Z" transform="translate(-0.02 -0.09)"/><path class="cls-1" d="M101.7,26.59l-2.42,2.56A1.38,1.38,0,0,1,99,29c-1.27-1.18-1.27-1.19-.3-2.63a13.84,13.84,0,0,0,1-1.46,2.53,2.53,0,0,0,.06-1c-.34,0-.77-.09-1,.08a10.57,10.57,0,0,0-1.31,1.42c-.27.32-.51.66-.84,1.09a16.3,16.3,0,0,1-1.13-1.34.72.72,0,0,1,.05-.67,28.87,28.87,0,0,1,2.48-3c1.29-1.25,2.54-1.2,3.82.09a11.1,11.1,0,0,1,1.81,2.27,67.2,67.2,0,0,1,5.59,12,6.13,6.13,0,0,1,.33,1.9c-1.22-2.67-2.45-5.32-3.65-8-.64-1.45-1.22-2.93-1.81-4.41-.21-.51-.43-1-1.1-.82s-.68.78-.5,1.35c.42,1.39.78,2.82,1.3,4.17a1.64,1.64,0,0,1-.36,2,1.5,1.5,0,0,1-.88.2c-.12,0-.26-.18-.37-.29-.55-.55-1.44-1-1.53-1.67s.68-1.3,1.06-2S102.3,27.22,101.7,26.59Z" transform="translate(-0.02 -0.09)"/><path class="cls-1" d="M110.48,52l-2.14-1.25c1.21-1.84,1.48-3.62.67-5.12V42.39c.36.3.56.47.76.65,2.32,2.11,4.63,4.24,7,6.33a2.09,2.09,0,0,1,.24,2.7c-.43.69-1.18.76-2.14.38a2.27,2.27,0,0,0-1.24.07c-.54.13-1,.22-1.28-.43a6.39,6.39,0,0,0-.71-1Z" transform="translate(-0.02 -0.09)"/><path class="cls-1" d="M53,30.94c1.72-.1,2.07.09,2.7,1.54a21.15,21.15,0,0,0,7.74,9.16l.89.6s.07.11.18.31c-4.26-1.39-8.29-2.87-10.52-7A7.56,7.56,0,0,1,53,30.94Z" transform="translate(-0.02 -0.09)"/><path class="cls-1" d="M104.13,126.51c10.54-4.87,17.86-12.34,19.75-24.25a24.49,24.49,0,0,1-5.6,15.52C114.43,122.09,109.5,124.64,104.13,126.51Z" transform="translate(-0.02 -0.09)"/><path class="cls-1" d="M121.41,49.54a2.85,2.85,0,0,0-.93-.17A1.46,1.46,0,0,1,118.64,48c.07-2.8-.44-5.35-2.9-7.25,2.07-.14,5.36,1.6,6,3.25a5.19,5.19,0,0,1,.22,2.37A31.12,31.12,0,0,1,121.41,49.54Z" transform="translate(-0.02 -0.09)"/><path class="cls-1" d="M117.31,47.65c-2-1.91-3.89-3.64-5.7-5.42a1.41,1.41,0,0,1-.28-1.2c.07-.24.67-.43,1-.44,2.13,0,3.3,1.45,4.29,3A5.81,5.81,0,0,1,117.31,47.65Z" transform="translate(-0.02 -0.09)"/><path class="cls-1" d="M31.7,32.86c-.73-2.52,1.21-3.27,2.73-4.55L35.94,31Z" transform="translate(-0.02 -0.09)"/><path class="cls-1" d="M17.24,47,19.77,50l-3,3c0-1.35-.81-2.88.41-4.36C17.43,48.35,17.24,47.74,17.24,47Z" transform="translate(-0.02 -0.09)"/><path class="cls-1" d="M21.12,52.3a6.78,6.78,0,0,1,.83,4.39c-.05.51-.31.72-.76.58-.83-.28-1.65-.62-2.65-1Z" transform="translate(-0.02 -0.09)"/><path class="cls-1" d="M126.34,62.33c-1.07.37-1.48,0-1.68-.79s-.57-1.65-.78-2.49a12.14,12.14,0,0,1-.19-1.73l.37-.09Z" transform="translate(-0.02 -0.09)"/><path class="cls-1" d="M105.53,49.5c-1.47-.41-1.67-.94-1.38-3,.14-1,.74-1.07,1.56-1Z" transform="translate(-0.02 -0.09)"/><path class="cls-1" d="M29.53,37.76l.69,5.82c-.72-1.41-1.41-2.74-2.07-4.08a.68.68,0,0,1,.06-.59c.32-.43.7-.83,1.06-1.23Z" transform="translate(-0.02 -0.09)"/><path class="cls-1" d="M122.74,62.78c-.47-.12-1.08-.1-1.37-.39s-.25-.67,1-1.66l.53,1.71Z" transform="translate(-0.02 -0.09)"/><path class="cls-1" d="M97.7,31.07l-1.31-1,.74-1.16C98.38,29.89,98.44,30.08,97.7,31.07Z" transform="translate(-0.02 -0.09)"/><path class="cls-1" d="M83.79,164.74c0-1.48.09-1.59,1.43-1.24l-.17,1.24Z" transform="translate(-0.02 -0.09)"/><path class="cls-1" d="M108.24,46.28,108,48.75l-.39,0,.18-2.49Z" transform="translate(-0.02 -0.09)"/><path d="M71.38,98.2a5.55,5.55,0,0,1,.35-4.48,9.08,9.08,0,0,1,4.08-4,7.65,7.65,0,0,1,6.4,0c1.52.64,1.79,1.95.91,3.37a13.9,13.9,0,0,1-7.68,5.78,20.32,20.32,0,0,1-7,1.13c-2.2,0-4.4-.11-6.6-.18a1.64,1.64,0,0,1-.84-.16,3.79,3.79,0,0,1-.67-.82c.29-.14.58-.39.87-.4,2.56,0,5.12,0,7.68,0C69.7,98.36,70.5,98.26,71.38,98.2Zm1.43-.28c3.74-.88,7-2.47,9.16-5.89.4-.64,0-1-.5-1.19a6,6,0,0,0-5.33.29A6.53,6.53,0,0,0,72.8,97.91Z" transform="translate(-0.02 -0.09)"/><path d="M91.21,76.4h.29c2,.13,2.65.77,2.53,2.39A2.6,2.6,0,0,1,91,81.5a8.29,8.29,0,0,1-2-.61,1.12,1.12,0,0,1-.55-.63C87.91,78.77,89.67,76.37,91.21,76.4Z" transform="translate(-0.02 -0.09)"/><path d="M97.21,72c-.37.46-.54.85-.84,1a4.91,4.91,0,0,1-2,.66c-3.13,0-6.27-.11-9.39-.37a10.69,10.69,0,0,1-3.16-1.17,2,2,0,0,1-.83-.79.82.82,0,0,1,0-.77.77.77,0,0,1,.75-.08c2.51,1.78,5.4,1.9,8.29,1.86,2.09,0,4.18-.25,6.28-.39C96.51,71.89,96.7,71.92,97.21,72Z" transform="translate(-0.02 -0.09)"/><path d="M42,80.59c.13,0,.42,0,.71.05,1.45.19,2,.76,2,2.14a2.1,2.1,0,0,1-2,2.43,7.94,7.94,0,0,1-2.22.12,1.79,1.79,0,0,1-1.22-.89A2.79,2.79,0,0,1,42,80.59Z" transform="translate(-0.02 -0.09)"/><path d="M45.35,67.53a7.53,7.53,0,0,1,1.76.41c.27.13.34.67.5,1a2.65,2.65,0,0,1-.89.09c-3.73-.95-9.64,1.71-11.39,5.15a5.25,5.25,0,0,1-.28.72,3.13,3.13,0,0,1-.61.51c-.18-.27-.58-.66-.51-.81a12.18,12.18,0,0,1,1.89-3.22A13.48,13.48,0,0,1,45.35,67.53Z" transform="translate(-0.02 -0.09)"/><path class="cls-1" d="M72.8,97.91a6.53,6.53,0,0,1,3.33-6.79,6,6,0,0,1,5.33-.29c.54.18.9.55.5,1.19C79.82,95.44,76.54,97,72.8,97.91Z" transform="translate(-0.02 -0.09)"/></g></g></g></svg>