<svg xmlns="http://www.w3.org/2000/svg" viewBox="0 0 216.3 171.91"><defs><style>.cls-1{fill:#fff;}</style></defs><title>night</title><g id="Layer_2" data-name="Layer 2"><g id="Layer_7" data-name="Layer 7"><g id="_8izAXC.tif" data-name="8izAXC.tif"><path class="cls-1" d="M.07.13h216.3V172H.07ZM117.93,103.57l.28.26c.83.84,1.67,1.67,2.48,2.53,1,1.11,2.12,2.2,3.09,3.38a1.32,1.32,0,0,0,1.33.63,13.32,13.32,0,0,1,1.71,0c-.06.2-.12.26-.18.27-1.88.08-3.76.16-5.63.21a42.81,42.81,0,0,0-6.21.19,75.42,75.42,0,0,1-14.32,1.14c-4.18-.06-8.36,0-12.54.11-5.44.14-10.88.38-16.32.58a3.14,3.14,0,0,1-.53-.07v-.22l5.86-.28v-.12H66.24c.72.88,1.42,1.72,2.11,2.58,1.35,1.69,2.63,3.41,2.86,5.66a.75.75,0,0,0,.82.75c2.3,0,4.61.25,6.89,0a51.44,51.44,0,0,1,8.81-.1c1.45.12,2.9.3,4.35.43,4.33.41,8.67.71,13,1.24a20.4,20.4,0,0,1,9.67,3.25,1.65,1.65,0,0,0,1,.23,4.2,4.2,0,0,1,2.5.9,1.42,1.42,0,0,1-1.51.85c-1.78,0-3.56,0-5.34,0-.68,0-1.21.16-1.36.9-1.1,0-2.14.06-3.17,0-3.65-.27-7.29-.65-10.94-.87a96.38,96.38,0,0,0-18.44.35c-.2,0-.4.09-.59.13l0,.07,12.66.27v.24c-1.93,0-3.86,0-5.78,0-3,.09-5.93.23-8.9.39-4.1.23-8.19.65-12.29.71-6.23.1-12.47,0-18.7-.1-2.79,0-5.57-.32-8.35-.49v-.18l1.53-.26c-2.92.06-5.83.21-8.74.38a3,3,0,0,0-.8.34,4.83,4.83,0,0,0,2.84,1.41q6.38.74,12.8.86c6.61.11,13.2-.2,19.8-.46,7.78-.31,15.58-.3,23.37-.36,8.19-.06,16.38,0,24.57,0,1.14,0,1.32-.16,1.33-1.16l.65-.08c1.13-.12,2.26-.28,3.39-.36,2-.15,2.24.1,2.27,2.05.08,5.34.17,10.68.29,16,.07,3.11.21,6.23.33,9.34,0,.56-.14.85-.81.7l-.11-1.31a40,40,0,0,0-.47,8.11c0,.86.43,1.72,0,2.59-.07.13.15.41.21.63a1.26,1.26,0,0,1,.07.62,10.12,10.12,0,0,1-.5,1.12l.22.15c1.28-.35,2.56-.68,3.83-1.06.17,0,.32-.29.39-.48q.66-1.65,1.28-3.31c.23-.62.44-1.26.6-1.72-.24-.28-.5-.45-.5-.62,0-1.53,0-3.06,0-4.55,1.38-.5,1.38-.5,1.27-1.52l-1.3.27c.14-9,0-17.9-2-26.66,2.37-.13,4.66-.24,6.95-.4,4.59-.31,9.18-.62,13.76-1,4.09-.33,8.18-.74,12.27-1.1q2.55-.22,5.1-.38c.81,0,1.62,0,2.42,0a.56.56,0,0,1,.06.16c0,3.76-.06,7.52-.11,11.28a.78.78,0,0,1-.26.56c-.65.43-.55,1-.44,1.64l.71-.31c0,.88,0,1.67,0,2.46a1.15,1.15,0,0,1-.32.77c-.6.48-.55,1.08-.51,1.8l.89-.64.1,1.89-1-.11-.16.18a3,3,0,0,0,.41.57,8.41,8.41,0,0,0,1,.72c.33.21.77.61,1,.52a1.45,1.45,0,0,0,.72-1c.33-1.72.56-3.46.85-5.19a2,2,0,0,1,.42-1c1-1.07,1.94-2.11,3-3.12a2.17,2.17,0,0,0,.59-1.75l-3.93,3.54a11.53,11.53,0,0,0,0-1.41,1.9,1.9,0,0,1,.74-1.74c1-.92,1.9-1.95,2.89-2.88.61-.57.59-1.21.46-2.14l-4.17,4.17c0-2.15,0-4.13,0-6.1,0-1,.17-2.08.26-3.19l4.19-.32.39-1.33h-4.61v-1.93c1.55,0,3.05,0,4.56,0a5.35,5.35,0,0,0,3.51-.84,7.84,7.84,0,0,1,1.7-.72l.7-.29-7.56.31,0-.32,11.06-2.16.09.24-.67,1.1.12.21c.5-.25,1.21-.37,1.44-.77.69-1.18,1.74-.9,2.86-1l-.66,1.08c.61-.21,1.2-.23,1.38-.52.5-.81,1.24-.8,2-.82a10.24,10.24,0,0,0,4-.79c.88-.39,1.81-.66,2.72-1,.76-.25,1-.54.71-1.3a4,4,0,0,0-.67-1,5.35,5.35,0,0,0-.5-.54c1.4-1.83,2.73-3.57,4.05-5.33a1.28,1.28,0,0,0,.31-.73c-.11-2,.81-3.59,1.7-5.21a117,117,0,0,0,9.14-20.15,6.42,6.42,0,0,0,.35-2c0-3.63-.18-7.27-.22-10.9a2.66,2.66,0,0,1,.47-1.42c1.09-1.62,2.23-3.21,3.39-4.78.82-1.12.3-2.32.45-3.66l-3.9,5.8c-.14-4.28,1.4-7.86,3.31-11.28.75.1.81.52.76,1.08s0,1.22,0,2c.68-1.69,1.31-3.22,1.92-4.76q1.17-3,2.32-5.93a2.35,2.35,0,0,0,.18-.86,31.93,31.93,0,0,0-.15-3.26,3.33,3.33,0,0,0-.64-1.45,8.35,8.35,0,0,0-1.21-1.2,12.59,12.59,0,0,0-8.11-3.39.93.93,0,0,1-.92-.57c-.16-.35-.38-.68-.6-1l-.64.3.68,1.41c-3.75-.65-6.66,1-9.58,2.6a2.27,2.27,0,0,1-.33.17,10,10,0,0,1-2.38.77A5.2,5.2,0,0,0,188.76,42a12.53,12.53,0,0,1-1.05.93.87.87,0,0,1-.64.17,58,58,0,0,0-10.91-1.65,36.06,36.06,0,0,1-7.35-1.25A46.43,46.43,0,0,0,162,38.75a71.47,71.47,0,0,0-13.63-.06,1.09,1.09,0,0,1-1.21-.55,9,9,0,0,0-6.47-4.42c-2.48-.42-5-.66-7.3-1.76l-.37-.18c1.67-.81,3.38-1.5,5-2.41,5.91-3.42,10-8.21,10.79-15.26l.36.94.29,0c0-.53,0-1.07,0-1.6a8.09,8.09,0,0,0-4.09-6.54c-6.61-3.8-13.37-3.88-20.22-.61-5.11,2.44-9.25,6.22-13.64,9.66a43.24,43.24,0,0,1-7,5,5.24,5.24,0,0,1-1.18.41c-.48.11-1,.13-1.48.23a.46.46,0,0,0-.27.36c0,.12.2.28.33.31.39.08.8.11,1.32.17-.24.2-.38.33-.54.44-1.87,1.29-3.71,2.63-5.63,3.85a55.24,55.24,0,0,1-12,6,4.35,4.35,0,0,1-1.42,0l-.23,0v.57c-1.21.19-2.4.37-3.59.59a5.51,5.51,0,0,0-1.2.39.85.85,0,0,1-1.22-.72l-.86.86c.32.26.63.54,1,.78.09.06.24,0,.36.05a16.39,16.39,0,0,0,7.67-.87,6.73,6.73,0,0,1,2-.28c3.43-.15,6.89,0,10.29-.44a55.69,55.69,0,0,0,16.62-4.78c4.22-1.95,8.35-4.09,12.52-6.14.37-.18.76-.34,1.19-.53,0,.65,0,1.14,0,1.64,0,.22,0,.52.1.64.69.66.35,1.38,0,2-.79,1.37-1.67,2.69-2.57,4a1.35,1.35,0,0,1-.95.51,25.76,25.76,0,0,0-8.15,1.44,14.37,14.37,0,0,1-5.16.77,42.69,42.69,0,0,0-8.8.53,33.67,33.67,0,0,0-13.15,5.58,1.17,1.17,0,0,1-.73.25c-1.15-.17-2.28-.4-3.42-.62a.45.45,0,0,1-.31-.24c-.2-.73-.64-.5-1-.24-1.85,1.24-3.71,2.47-5.52,3.76a3.5,3.5,0,0,0-1.57,3,2.36,2.36,0,0,1-.43,1.21,22.57,22.57,0,0,0-3.43,8A8.33,8.33,0,0,0,73,56.28h.22l-.22.3a49.47,49.47,0,0,0-6.56,10.82,22,22,0,0,0-1,3.76c-.07.3.13.66.2.95a7.49,7.49,0,0,0,.79-.24c.33-.15.76-.24.93-.51.81-1.21,1.54-2.47,2.31-3.71a5.19,5.19,0,0,1,.43-.49c-.1.36-.15.5-.18.64-.07.41-.26.9.31,1.07s.69-.33.85-.72c1.28-2.95,2.55-5.9,3.87-8.83a22.27,22.27,0,0,1,1.31-2.21l.19.08A51.27,51.27,0,0,0,74,71.88a17.6,17.6,0,0,0-2.27.19c-2.49.54-5,1.14-7.45,1.71a9.15,9.15,0,0,1-1.24.15l-4.57.38a2.28,2.28,0,0,1-1.08,0,4.2,4.2,0,0,0-2.76,0l1,.6-6.06,1.44a11.35,11.35,0,0,1-2,.4c-1.85.1-3.7.19-5.54.14-2.57-.07-5.13-.34-7.69-.41a205.2,205.2,0,0,0-24.24.81c-1.89.18-3.78.31-5.75.47l.1-1.26h-1a3.93,3.93,0,0,0-.12.8c0,.58-.34.6-.76.64s-.52-.25-.56-.59-.11-.6-.16-.9l-.24,0a8.29,8.29,0,0,0-1.1,3.32c.4.27.81.39.89.63.26.74.4,1.51.59,2.34L.4,83l0,.31a4.45,4.45,0,0,0,1,.31,82.36,82.36,0,0,0,13-.52c1.26-.11,2.53-.14,3.8-.21v.23l-3.37.35,0,.21L18.91,85a.64.64,0,0,0,.29,0l7.64-1.3L19.76,83v-.34c4.66-.31,9.31-.65,14-.91,1.82-.1,3.66,0,5.48,0,3,0,5.94,0,8.91-.07a2.91,2.91,0,0,0,1.4-.36c1.52-.91,2.73-2.31,4.59-2.68l-.07-.18H52.19l0-.22a12.82,12.82,0,0,0,6.53-1l-2.13-.12c2.19-.85,3.31-1.13,3.45-.09.87-.22,1.73-.41,2.59-.65a13.29,13.29,0,0,1,7.6.09,1.5,1.5,0,0,1,.89.61c.28.63.84.79,1.36,1a9.59,9.59,0,0,0,4.26,1.32c.2,0,.57.17.59.3.13.8.79.63,1.29.85l.13-.75a5.16,5.16,0,0,1,.6.13c2.22.75,4.49,1.41,6.65,2.3,2.67,1.1,5.27,2.37,7.89,3.61a27.69,27.69,0,0,1,3.27,1.72c3.82,2.47,7.6,5,11.39,7.51a2.52,2.52,0,0,0,.29.14l.1-.14-4.52-3.85c.11-.05.18,0,.23,0L111.9,97a1.21,1.21,0,0,1,.26.34,3.57,3.57,0,0,0,.45.79c.84.8,1.75,1.52,2.55,2.35C116.13,101.48,117,102.54,117.93,103.57ZM29,33.65a26.2,26.2,0,0,0,.83,2.83,12.16,12.16,0,0,0,6.55,6.26c3.78,1.74,7.8,1.76,11.79,1.1,4.17-.69,7.8-2.77,11.33-5a1.71,1.71,0,0,0,.57-1.12c.11-.76-.45-1.09-1.13-.73A17,17,0,0,1,48.8,38.45c-2.53-.29-4.4-1.91-6-3.84a13.56,13.56,0,0,1-2.83-9c0-.82-.06-1.61,1-2l-.79-.94a7.62,7.62,0,0,0,.2-1.44,6.06,6.06,0,0,1,.9-3.31,30.79,30.79,0,0,1,4.88-6.23l1.36-1.37c-.13,0-.18,0-.22,0a1.65,1.65,0,0,0-.31.2,4,4,0,0,1-3,.86,13.26,13.26,0,0,0-3,.44,3.34,3.34,0,0,0-.83.43c2.27-1.92,4.62-3.7,7.61-4.4a.74.74,0,0,0-.57-.17,11.7,11.7,0,0,0-2.74.82A47,47,0,0,0,29.8,21.63a9.85,9.85,0,0,0-1.9,4.7,4.63,4.63,0,0,0,0,.77l.2,0a17.36,17.36,0,0,1,4.2-7.55c.05.08.08.11.08.12a.77.77,0,0,1-.08.2,19.83,19.83,0,0,0-3.31,12,1.37,1.37,0,0,1-.4.88c-.93.93-1.87,1.83-2.86,2.7a1.55,1.55,0,0,0-.5,1.77ZM40.54,92.57a12.88,12.88,0,0,1,1.2,1.75,5.44,5.44,0,0,0,2.54,2.43,68.37,68.37,0,0,1,14.41,10A7,7,0,0,0,62,108.13c-5.46-5.74-11.94-10.07-18.83-13.86.68-.05,1.33-.14,2-.15a2.68,2.68,0,0,1,1.21.19A98.72,98.72,0,0,1,60.95,103c1.73,1.3,3.39,2.62,4.24,4.76a28.74,28.74,0,0,0,2.09,3.65l-1.56.19c.72.35,3.11.1,4.72-.44-.78-1.16-1.47-2.33-2.31-3.38a39.46,39.46,0,0,0-9.74-8.28,119.51,119.51,0,0,0-18.93-9.85c-.22-.09-.44-.21-.82-.4l1.93-.39,0-.18-2.47-.56.2.44c-.51-.15-1-.47-1.44-.38-1.25.29-2.21-.43-3.48-.71l.9-.48c-.59-.28-1-.81-1.69-.42-1.08.63-2.06,0-3.08-.29l2-.61c-1.2-.8-2.3-1.24-3.62-.56a10.49,10.49,0,0,1-2.06.61l-1.68.43,0,.25c6.49.84,12.43,3.28,18.24,6.15ZM74.84,5c.07,1,.11,1.82.21,2.68a1.41,1.41,0,0,1-.51,1.31l-5.46,4.8a4.5,4.5,0,0,0-.5.43c-.38.45-.21,1,.38,1,2.17,0,4.37.27,6.4-.8l2.41-1.24c0,.39,0,.67,0,1-.08,1.83-.19,3.65-.23,5.48,0,.3.27.61.42.91.23-.14.54-.23.68-.44,1.63-2.39,3.22-4.8,4.84-7.2a1,1,0,0,1,.57-.38c.65-.14,1.32-.2,2-.33,1.86-.38,3.72-.75,5.57-1.18.32-.08.57-.44.86-.68-.27-.25-.49-.6-.81-.72-1.61-.63-3.25-1.2-4.87-1.8-.89-.33-1-1-.32-1.62a7.42,7.42,0,0,1,1.12-1c1.07-.67.85-1.63.67-2.69-.28.21-.48.39-.71.53-1.71,1.12-3.44,2.23-5.14,3.38a5.11,5.11,0,0,0-.83.91,3.76,3.76,0,0,0,1.22-.09c.82-.36,1.6-.83,2.42-1.27-.37,1.93-.15,2.31,1.69,2.95l3,1.07a4.07,4.07,0,0,1,.54.31,3.08,3.08,0,0,1-.39.14c-2.09.35-4.19.68-6.28,1.07a1.72,1.72,0,0,0-1,.6c-.76,1-1.43,2.14-2.16,3.19-.51.73-1.06,1.43-1.65,2.21a1.62,1.62,0,0,1-.09-.28c0-1.48,0-3,0-4.45,0-1.17-.35-1.33-1.4-.78a31.55,31.55,0,0,1-4,1.92,11.69,11.69,0,0,1-2.83.3V14L75,9.89c0,.15,0,.22.06.29.14.44-.18,1.26.58,1.21s.43-.83.49-1.3c.1-.83-.26-1.74.78-2.63-.9.22-.85-.19-.87-.57s-.11-1-.1-1.55c0-.29.07-.78.22-.83.55-.17,1.09-.72,1.73-.24.79.6,1.57,1.19,2.33,1.83.35.3.69.69,1.12.25s0-.83-.27-1.14-.77-.69-1.17-1c-.23-.19-.48-.36-.82-.61l2-.63a.85.85,0,0,0-1.2-.5c-.63.19-1.38.52-1.9.33a10.69,10.69,0,0,1-2.18-1.5A9.29,9.29,0,0,0,75,.79a3.8,3.8,0,0,0-.33,1c0,.7.08,1.4.13,2.13L73,3.76l-.34,1.85ZM42.12,59c-.3.19-.49.32-.7.43-1.36.75-2.71,1.53-4.1,2.24-2.46,1.25-2.19,3.13-1,4.78.51.72,1.08,1.39,1.71,2.19a5.5,5.5,0,0,1-.94-.12c-1.57-.51-3.16-1-4.69-1.58-1.3-.52-1.53-.52-2.55.44S27.9,69,26.94,69.86A10.19,10.19,0,0,0,28.23,68c.89-1.49.5-2.3-1.2-2.42-1-.08-2.09-.13-3.27-.2l4.69-2.18c-1-.49-1.69.27-2.47.28l4.05-6a27.44,27.44,0,0,0,2.12,5.74,2,2,0,0,0,.1-1.92c-.5-1.53-1-3.06-1.48-4.58a3.43,3.43,0,0,0-.5-.75,3,3,0,0,0-.7.56c-1.65,2.46-3.27,4.94-4.92,7.41a1.16,1.16,0,0,1-.53.35,17.24,17.24,0,0,0-1.66.63,1,1,0,0,0-.46.74c0,.2.4.45.67.52a6.25,6.25,0,0,0,1.18.05l4,.23c-.24.54-.38.89-.55,1.22-.73,1.45-1.49,2.9-2.18,4.37-.1.21.09.56.14.85.27-.09.63-.1.81-.28,1.46-1.47,2.92-3,4.33-4.48a1.21,1.21,0,0,1,1.71-.29,15.45,15.45,0,0,0,6.53,1.77c.26,0,.68-.11.75-.29a1.2,1.2,0,0,0-.15-.87,5.36,5.36,0,0,0-.66-.79c-.56-.69-1.17-1.35-1.67-2.08-.69-1-.9-2.18.63-3,.35-.18.68-.4,1-.59,1.82-1,3.66-2,5.47-3,.24-.13.37-.46.56-.69-.27-.16-.55-.48-.81-.47A40.29,40.29,0,0,1,36,57.33c-.21,0-.48.2-.72.31.18.17.34.44.55.5a22.26,22.26,0,0,0,2.54.49C39.55,58.78,40.77,58.85,42.12,59Zm171.07,43-.2-.07a20.84,20.84,0,0,1-1.67,1.65,2.35,2.35,0,0,0-.89,1.77,9.76,9.76,0,0,1-1.2,4c-.57,1-1.06,2.09-1.59,3.14l.11.14,1.66-1.12s0,.11.08.11a1.28,1.28,0,0,0,1.23-1,20.69,20.69,0,0,1,1.2-5.1C212.42,104.32,212.77,103.12,213.19,101.94ZM117.5,147.86h.35l-.9-12.39-.34,0Zm.08,23.94c1.22-.36,2.77.09,3.31-1.7l-2.47.4C117.46,170.66,117.46,170.67,117.58,171.8ZM84.39,2.06c1.23-.29,2.37-.57,3.52-.82.55-.12.45-.46.38-.95C86.94.8,85.32.48,84.39,2.06Zm-1,80.46.16-.11-.36-.82-.89.51Z" transform="translate(-0.07 -0.13)"/><path d="M117.93,103.57c-.92-1-1.81-2.09-2.77-3.08-.81-.83-1.72-1.55-2.55-2.35a3.57,3.57,0,0,1-.45-.79,1.21,1.21,0,0,0-.26-.34l-7.29-5.74s-.12,0-.23,0l4.52,3.85-.1.14a2.52,2.52,0,0,1-.29-.14c-3.8-2.51-7.58-5-11.39-7.51a27.69,27.69,0,0,0-3.27-1.72c-2.61-1.23-5.21-2.51-7.89-3.61-2.17-.89-4.43-1.55-6.65-2.3a5.16,5.16,0,0,0-.6-.13l-.13.75c-.49-.22-1.15-.05-1.29-.85,0-.13-.39-.31-.59-.3a9.59,9.59,0,0,1-4.26-1.32c-.51-.23-1.07-.39-1.36-1a1.5,1.5,0,0,0-.89-.61,13.29,13.29,0,0,0-7.6-.09c-.85.24-1.72.43-2.59.65-.13-1-1.25-.76-3.45.09l2.13.12a12.82,12.82,0,0,1-6.53,1l0,.22h1.86l.07.18c-1.86.37-3.07,1.77-4.59,2.68a2.91,2.91,0,0,1-1.4.36c-3,0-5.94.05-8.91.07-1.83,0-3.66-.08-5.48,0-4.66.26-9.32.6-14,.91V83l7.08.69L19.2,85a.64.64,0,0,1-.29,0l-4.19-1.39,0-.21,3.37-.35v-.23c-1.27.07-2.54.1-3.8.21a82.36,82.36,0,0,1-13,.52,4.45,4.45,0,0,1-1-.31L.4,83,2,82.68c-.2-.83-.34-1.6-.59-2.34-.08-.24-.49-.36-.89-.63a8.29,8.29,0,0,1,1.1-3.32l.24,0c.05.3.12.6.16.9s.09.64.56.59.79-.06.76-.64a3.93,3.93,0,0,1,.12-.8h1l-.1,1.26c2-.16,3.86-.29,5.75-.47a205.2,205.2,0,0,1,24.24-.81c2.57.06,5.13.34,7.69.41,1.85.05,3.7,0,5.54-.14a11.35,11.35,0,0,0,2-.4l6.06-1.44-1-.6a4.2,4.2,0,0,1,2.76,0,2.28,2.28,0,0,0,1.08,0L63,73.93a9.15,9.15,0,0,0,1.24-.15c2.48-.56,5-1.17,7.45-1.71A17.6,17.6,0,0,1,74,71.88,51.27,51.27,0,0,1,76.4,57.19l-.19-.08a22.27,22.27,0,0,0-1.31,2.21c-1.32,2.93-2.58,5.89-3.87,8.83-.17.38-.29.88-.85.72s-.38-.66-.31-1.07c0-.14.08-.28.18-.64a5.19,5.19,0,0,0-.43.49c-.77,1.24-1.5,2.5-2.31,3.71-.17.26-.61.36-.93.51a7.49,7.49,0,0,1-.79.24c-.07-.29-.27-.65-.2-.95a22,22,0,0,1,1-3.76A49.47,49.47,0,0,1,73,56.59l.22-.3H73a8.33,8.33,0,0,1-.07-1.95,22.57,22.57,0,0,1,3.43-8,2.36,2.36,0,0,0,.43-1.21,3.5,3.5,0,0,1,1.57-3c1.81-1.29,3.67-2.52,5.52-3.76.38-.25.82-.48,1,.24a.45.45,0,0,0,.31.24c1.14.22,2.28.45,3.42.62a1.17,1.17,0,0,0,.73-.25,33.67,33.67,0,0,1,13.15-5.58,42.69,42.69,0,0,1,8.8-.53,14.37,14.37,0,0,0,5.16-.77,25.76,25.76,0,0,1,8.15-1.44,1.35,1.35,0,0,0,.95-.51c.9-1.3,1.79-2.62,2.57-4,.33-.58.67-1.3,0-2-.12-.12-.09-.42-.1-.64,0-.49,0-1,0-1.64-.43.19-.82.34-1.19.53-4.17,2.05-8.3,4.2-12.52,6.14A55.69,55.69,0,0,1,97.66,33.6c-3.4.41-6.86.29-10.29.44a6.73,6.73,0,0,0-2,.28,16.39,16.39,0,0,1-7.67.87c-.12,0-.28,0-.36-.05-.33-.25-.64-.52-1-.78l.86-.86a.85.85,0,0,0,1.22.72,5.51,5.51,0,0,1,1.2-.39c1.19-.22,2.39-.39,3.59-.59v-.57l.23,0a4.35,4.35,0,0,0,1.42,0,55.24,55.24,0,0,0,12-6c1.92-1.22,3.76-2.56,5.63-3.85.16-.11.29-.24.54-.44-.52-.06-.92-.08-1.32-.17-.13,0-.32-.19-.33-.31a.46.46,0,0,1,.27-.36c.49-.11,1-.12,1.48-.23a5.24,5.24,0,0,0,1.18-.41,43.24,43.24,0,0,0,7-5c4.39-3.44,8.54-7.22,13.64-9.66,6.86-3.28,13.62-3.19,20.22.61a8.09,8.09,0,0,1,4.09,6.54c.05.53,0,1.07,0,1.6l-.29,0-.36-.94c-.84,7-4.88,11.83-10.79,15.26-1.58.91-3.28,1.61-5,2.41l.37.18c2.31,1.1,4.82,1.33,7.3,1.76a9,9,0,0,1,6.47,4.42,1.09,1.09,0,0,0,1.21.55,71.47,71.47,0,0,1,13.63.06,46.43,46.43,0,0,1,6.82,1.43,36.06,36.06,0,0,0,7.35,1.25,58,58,0,0,1,10.91,1.65.87.87,0,0,0,.64-.17,12.53,12.53,0,0,0,1.05-.93A5.2,5.2,0,0,1,192,40.45a10,10,0,0,0,2.38-.77,2.27,2.27,0,0,0,.33-.17c2.92-1.59,5.83-3.25,9.58-2.6l-.68-1.41.64-.3c.21.37.43.69.6,1a.93.93,0,0,0,.92.57,12.59,12.59,0,0,1,8.11,3.39,8.35,8.35,0,0,1,1.21,1.2,3.33,3.33,0,0,1,.64,1.45,31.93,31.93,0,0,1,.15,3.26,2.35,2.35,0,0,1-.18.86q-1.15,3-2.32,5.93c-.61,1.54-1.24,3.07-1.92,4.76,0-.78,0-1.39,0-2s0-1-.76-1.08c-1.91,3.42-3.46,7-3.31,11.28l3.9-5.8c-.14,1.34.37,2.55-.45,3.66-1.15,1.58-2.29,3.17-3.39,4.78a2.66,2.66,0,0,0-.47,1.42c0,3.63.17,7.27.22,10.9a6.42,6.42,0,0,1-.35,2A117,117,0,0,1,197.77,103c-.89,1.62-1.81,3.25-1.7,5.21a1.28,1.28,0,0,1-.31.73c-1.32,1.75-2.65,3.49-4.05,5.33a5.35,5.35,0,0,1,.5.54,4,4,0,0,1,.67,1c.26.76.05,1-.71,1.3-.91.3-1.84.57-2.72,1a10.24,10.24,0,0,1-4,.79c-.76,0-1.5,0-2,.82-.18.28-.77.3-1.38.52l.66-1.08c-1.12.14-2.17-.14-2.86,1-.23.4-.95.52-1.44.77l-.12-.21.67-1.1-.09-.24-11.06,2.16,0,.32,7.56-.31-.7.29a7.84,7.84,0,0,0-1.7.72,5.35,5.35,0,0,1-3.51.84c-1.5,0-3,0-4.56,0v1.93h4.61l-.39,1.33-4.19.32c-.1,1.11-.24,2.15-.26,3.19,0,2,0,4,0,6.1l4.17-4.17c.13.93.15,1.57-.46,2.14-1,.93-1.9,2-2.89,2.88a1.9,1.9,0,0,0-.74,1.74,11.53,11.53,0,0,1,0,1.41l3.93-3.54a2.17,2.17,0,0,1-.59,1.75c-1,1-2,2.05-3,3.12a2,2,0,0,0-.42,1c-.3,1.73-.53,3.47-.85,5.19a1.45,1.45,0,0,1-.72,1c-.24.09-.68-.31-1-.52a8.41,8.41,0,0,1-1-.72,3,3,0,0,1-.41-.57l.16-.18,1,.11-.1-1.89-.89.64c0-.72-.09-1.32.51-1.8a1.15,1.15,0,0,0,.32-.77c0-.79,0-1.58,0-2.46l-.71.31c-.1-.64-.21-1.21.44-1.64a.78.78,0,0,0,.26-.56c0-3.76.08-7.52.11-11.28a.56.56,0,0,0-.06-.16c-.8,0-1.62,0-2.42,0q-2.55.15-5.1.38c-4.09.36-8.17.77-12.27,1.1-4.58.37-9.17.68-13.76,1-2.29.16-4.58.26-6.95.4,2,8.76,2.15,17.65,2,26.66l1.3-.27c.12,1,.12,1-1.27,1.52,0,1.5,0,3,0,4.55,0,.17.27.34.5.62-.16.46-.36,1.1-.6,1.72q-.62,1.66-1.28,3.31c-.08.19-.23.43-.39.48-1.27.38-2.55.71-3.83,1.06l-.22-.15a10.12,10.12,0,0,0,.5-1.12,1.26,1.26,0,0,0-.07-.62c-.05-.22-.28-.49-.21-.63.46-.87.05-1.74,0-2.59a40,40,0,0,1,.47-8.11l.11,1.31c.67.15.83-.14.81-.7-.12-3.11-.26-6.23-.33-9.34-.12-5.34-.21-10.68-.29-16,0-2-.26-2.2-2.27-2.05-1.13.08-2.26.23-3.39.36l-.65.08c0,1-.19,1.16-1.33,1.16-8.19,0-16.38,0-24.57,0-7.79.05-15.59,0-23.37.36-6.6.26-13.19.57-19.8.46q-6.42-.11-12.8-.86a4.83,4.83,0,0,1-2.84-1.41,3,3,0,0,1,.8-.34c2.91-.17,5.82-.32,8.74-.38l-1.53.26v.18c2.78.17,5.56.44,8.35.49,6.23.11,12.47.2,18.7.1,4.1-.06,8.19-.48,12.29-.71,3-.16,5.93-.3,8.9-.39,1.93-.06,3.85,0,5.78,0v-.24l-12.66-.27,0-.07c.2,0,.39-.11.59-.13a96.38,96.38,0,0,1,18.44-.35c3.65.21,7.29.6,10.94.87,1,.08,2.07,0,3.17,0,.14-.75.68-.91,1.36-.9,1.78,0,3.56-.06,5.34,0a1.42,1.42,0,0,0,1.51-.85,4.2,4.2,0,0,0-2.5-.9,1.65,1.65,0,0,1-1-.23,20.4,20.4,0,0,0-9.67-3.25c-4.31-.52-8.66-.83-13-1.24-1.45-.14-2.9-.31-4.35-.43a51.44,51.44,0,0,0-8.81.1c-2.28.2-4.59,0-6.89,0a.75.75,0,0,1-.82-.75c-.22-2.26-1.51-4-2.86-5.66-.69-.86-1.39-1.71-2.11-2.58H76.95v.12l-5.86.28v.22a3.14,3.14,0,0,0,.53.07c5.44-.19,10.88-.44,16.32-.58,4.18-.11,8.36-.17,12.54-.11A75.42,75.42,0,0,0,114.79,111a42.81,42.81,0,0,1,6.21-.19c1.88-.06,3.76-.14,5.63-.21.06,0,.12-.07.18-.27a13.32,13.32,0,0,0-1.71,0,1.32,1.32,0,0,1-1.33-.63c-1-1.18-2-2.27-3.09-3.38-.81-.86-1.65-1.69-2.48-2.53l2.42,1.76a11.74,11.74,0,0,0-1.39-1.8A1,1,0,0,0,117.93,103.57ZM146.1,45.46c.65.87,1.31,1.74,1.93,2.62,1.39,2,2.77,4,4.15,6,.11.16.25.29.37.43a38,38,0,0,0-2.27-4.76A32.67,32.67,0,0,0,148,46.35a1.88,1.88,0,0,0-1.91-.87l.61-.85c-.46-.46.1-.79.48-1.11-1.54-2.37-2.41-2.81-4.42-2.27Zm16.52,45.21-.11-.2A23.42,23.42,0,0,1,160,91,2.38,2.38,0,0,0,158,93a12.46,12.46,0,0,1-2.9,5.19,35.21,35.21,0,0,1-3,3.06,1.06,1.06,0,0,1-1,.09c-.38-.31-.11-.71.21-1l.67-.57c-1.47.59-2.81,1.36-4.24,1.87-1.73.62-3.4,1.64-5.38,1.19-.08,0-.2.12-.3.19-.58.36-1.15.77-1.75,1.08-1,.54-2.12,1-3.18,1.51l0,.11,1.46-.22.11.21c-.36.25-.69.65-1.09.73-1,.19-2,.2-3,.35-.82.12-1.63.33-2.45.5l0,.25c1.89.5,3.73,1.23,5.76,1.11,5.83-.36,11.66-.63,17.48-1.06a19.21,19.21,0,0,0,5.52-.89c1.51-.56,3.32-.34,5-.4.2,0,.59.34.58.5s-.29.5-.5.69-.33.09-.5.12a144.63,144.63,0,0,1-17.92,1.82l-5.47.31c2,.61,20.14.34,22.64-.35h-2a.74.74,0,0,1,.47-.25l9-.78c.47,0,.87.11.91.64s-.33.74-.78.81l-2.5.37c.23.84-.24,1-.89,1.12-3.19.41-6.37.85-9.56,1.26-1,.13-2,.23-2.94.34a2.67,2.67,0,0,0,.83.39,41.49,41.49,0,0,1,5.65,2.2,6.24,6.24,0,0,0,4.15.76l.44,0q7.23-1,14.47-2a.9.9,0,0,0,.61-.33c1.09-2,2.15-4.11,3.2-6.13-1.06-.84-1.07-1.37-.08-2.06a3.75,3.75,0,0,0,1.6-2c1.42-4.76,3-9.48,4.29-14.27a88.49,88.49,0,0,0,3.42-19.84c.25-5.6.13-11.22,0-16.83a52.24,52.24,0,0,0-.83-6.15c-2.28.2-4.23.77-5.66,2.54l.34.38c.3.34.45.77,0,1a1.37,1.37,0,0,1-1,0c-.3-.12-.52-.45-.78-.67a10.46,10.46,0,0,0-3.92-2.47c-4.7-1.26-9.41-2.52-14.13-3.72a24.07,24.07,0,0,0-7.84-.93,88.43,88.43,0,0,0-11.43,1.7l-.86.18c.9,1.66,1.8,3.22,2.6,4.84s1.51,3.33,2.24,5c.93,2.13,1.78,4.29,2.76,6.4,1.12,2.39,2.43,4.7,3.52,7.11a22.93,22.93,0,0,1,2.35,9.21c0,.86,0,1.72,0,2.58a7,7,0,0,1,4.92,3.77c1.05,2,.58,4.75-1.23,5.83A15.41,15.41,0,0,0,162.93,92a6.31,6.31,0,0,1-1.18,1,5.59,5.59,0,0,1-1.48.63c-.19.05-.45-.19-.68-.3.16-.16.28-.39.47-.48A8,8,0,0,0,162.62,90.67ZM84.51,72.85a1.3,1.3,0,0,0-1.14,1.37,15.5,15.5,0,0,1-.07,1.92c0,.27-.4.48-.62.72-.14-.26-.39-.51-.4-.77a18.58,18.58,0,0,1,0-2.15,2.46,2.46,0,0,1,2-2.23c.85-.16,1.58.23,2,1.42.61,1.87,1.09,3.79,1.53,5.71a1.3,1.3,0,0,0,.73,1c2.2,1.12,4.42,2.22,6.57,3.44a118.65,118.65,0,0,1,18.35,13.07c1,.85,1.9.53,2.89.32a16.54,16.54,0,0,0-1.7-.17c-.3,0-.56-.35-.84-.53.22-.19.42-.52.66-.54a7.19,7.19,0,0,1,1.92,0,22.79,22.79,0,0,0,10.14-.32c1.71-.46,3.49-.68,5.23-1.05a8.93,8.93,0,0,0,1.36-.6,6.07,6.07,0,0,1,1.76-.63,31.54,31.54,0,0,1,3.86,0,1.63,1.63,0,0,0,1.37-.53A19.59,19.59,0,0,1,145,88.6,6.23,6.23,0,0,0,147,86.86c.79-1,1.67-1.89,2.46-2.87a30.82,30.82,0,0,0,2.34-3.11,6.42,6.42,0,0,0,1.08-2.65c.22-2.56.23-5.14.31-7.71H153c-.06.28-.12.57-.2.85-.54,2-1.07,4-1.64,6a4.65,4.65,0,0,1-.51.93l-.26-.1a7.8,7.8,0,0,1,.05-1c.15-.85.33-1.7.5-2.55.32-1.58.64-3.15.94-4.73.06-.33.19-.77-.12-.79a43.63,43.63,0,0,1-3.09,3.2A53.13,53.13,0,0,1,144,75.89a6.4,6.4,0,0,1-3.68,1,4.49,4.49,0,0,0-2.65.45,1.35,1.35,0,0,1-.79.16q-2.12-.16-4.24-.39c-.2,0-.38-.21-.56-.34a5,5,0,0,0-.58-.46,37.24,37.24,0,0,1-7.78-5.54,2.84,2.84,0,0,0-2.36-.93,7,7,0,0,0-.92.25c-.11,0-.25.11-.33.07-.6-.3-1,0-1.45.37a3.45,3.45,0,0,1-.89.66,2.51,2.51,0,0,1-.92,0,2.23,2.23,0,0,1,.22-.84,9,9,0,0,1,1.06-1l-.08-.16-2.19.77c-3.55,1.22-6.5,3.73-10.21,4.64a9.93,9.93,0,0,1-4.5.5,29.23,29.23,0,0,0-2.94-.3c-2-.2-3.95-.27-5.88-.64a16.11,16.11,0,0,1-3.27-1.4l0,0,2.14,1.54a3.51,3.51,0,0,1-2.67-1,7,7,0,0,1-2.34-4.82c-.13-1.32-.25-2.64-.38-4.05-1.91,1.1-3.79,2.18-5.65,3.28a.94.94,0,0,0-.33.55,29.09,29.09,0,0,0-.91,7.27.65.65,0,0,0,.28.51c1.46.53,2.93,1,4.44,1.53C83.9,76,83.34,74.27,84.51,72.85Zm-3.6-8.31.21.2c1-.48,2-1,3-1.44A2.6,2.6,0,0,0,86,60.47a4.19,4.19,0,0,1,1.67-3.71c.71-.52,1.39-1.08,2.07-1.65,1-.85,1.91-1.82,3-2.56,2.32-1.61,4.46-3.61,7.51-3.82,1.75-.12,3.48-.37,5.23-.48,1.08-.07,2.17.06,3.26,0,2.08,0,4.15-.2,6.22-.16s3.89.26,5.84.45a56.69,56.69,0,0,1,7.21.83c3,.69,5.92,1.75,8.85,2.71,2.19.72,4.19,1.89,6.5,2.42,1.7.39,3.24,1.53,4.84,2.35.22.11.42.35.64.36.73,0,1.06.55,1.46,1s1,1.14,1.5,1.71a.7.7,0,0,0,.08-.46,16.85,16.85,0,0,0-2.22-6,29.66,29.66,0,0,0-4.73-7.24,43.52,43.52,0,0,0-9.69-7.41c-1.52-.85-3.12-1.56-4.68-2.34l-.76,1-.25,0-.22-1.47c-1.5-.38-3.07-.83-4.65-1.18a9.89,9.89,0,0,0-2.93-.39,62.71,62.71,0,0,0-11.74,2A16.34,16.34,0,0,0,104.73,39l.44.66-1.67.16.16-1-.4.17A69.91,69.91,0,0,0,91.91,45.8a12.28,12.28,0,0,0-3.62,4c-1.49,2.82-3.08,5.59-4.52,8.43C82.72,60.26,81.85,62.42,80.91,64.54Zm8-31.5,0,.13c1.87,0,3.75.12,5.6,0a58.08,58.08,0,0,0,18.88-4.81c4.39-1.93,8.66-4.11,13-6.18a8,8,0,0,1,1.15-.51c.79-.24,1.08,0,1.12.83,0,.65-.06,1.34.59,1.81a.71.71,0,0,1,.19.61,8.34,8.34,0,0,1-.67,2.16c-.74,1.3-1.63,2.51-2.46,3.76l.09.19a3.85,3.85,0,0,0,.88-.41c1.05-.86,2-1.8,3.12-2.63a48.47,48.47,0,0,1,11.21-6,2.81,2.81,0,0,0,1.18-1,7.94,7.94,0,0,0,1-4.63,8.79,8.79,0,0,0-4.26-7.76,4.82,4.82,0,0,0-2.85-.89,5.34,5.34,0,0,1-.81-.11,1.72,1.72,0,0,1,2-.68c3.23.51,6.41,3.91,7,7.48a11.34,11.34,0,0,1-.55,6.63c.89,0,1,0,1.16-.7A9.87,9.87,0,0,0,145.7,15c.65-.09.87.31.93.84.08.76.12,1.53.19,2.41.69-1.27.8-2.25.85-4.81a4,4,0,0,0-1.28-3.12,17.75,17.75,0,0,0-2.11-1.74c-4-2.72-8.47-2.8-12.94-2.24a22.77,22.77,0,0,0-11.1,4.85c-2,1.54-3.81,3.3-5.71,5-.29.26-.61.48-.92.73l-.23-.17.34-1.06c-6.13,4.82-12,9.88-18.76,13.88a2.67,2.67,0,0,0,.71-.16,196.52,196.52,0,0,1,20.07-5.84,16.84,16.84,0,0,0,1.86-.71,4,4,0,0,1,.71-.12c0,.25,0,.58-.15.73a3.79,3.79,0,0,1-1.12.83,14.68,14.68,0,0,1-2,.67c-5.43,1.58-10.89,3.1-16.3,4.75C95.46,30.71,92.19,31.92,88.89,33Zm99.68,70.3.21.18c1.71-1.6,3.45-3.17,5.1-4.82a6.59,6.59,0,0,0,1.24-2c.56-1.26,1-2.57,1.5-3.87a76.22,76.22,0,0,0,5-25.85,50.76,50.76,0,0,0-4.38-20.13c-.09-.22-.32-.5-.52-.52a14.2,14.2,0,0,0-1.76,0l.38,2a58.55,58.55,0,0,1,.8,10.48,114.14,114.14,0,0,1-1.33,20.4,171.7,171.7,0,0,1-4.48,18.66C189.75,99.69,189.15,101.51,188.57,103.34Zm-87.36,16v.13c.36.06.73.12,1.09.2l10.51,2.23a9.37,9.37,0,0,0,2,.43c8.38-.12,16.76-.29,25.15-.45.18,0,.36,0,.55,0,0-.09,0-.12,0-.14a53.5,53.5,0,0,0-8-6.86.47.47,0,0,0-.27-.12L129,115a20.35,20.35,0,0,1,1.44,1.55.81.81,0,0,1,0,.78c-.14.16-.52.15-.78.12s-.34-.19-.5-.3c-.82-.55-1.63-1.11-2.47-1.63a1.33,1.33,0,0,0-.77-.21c-2.11.19-4.22.42-6.33.63-1.79.18-3.6.28-5.37.57-2.27.38-4.51.91-6.75,1.4C105.39,118.33,103.3,118.83,101.21,119.31Zm-29.66-5.44c.37,1.4.64,2.52,1,3.62a.86.86,0,0,0,.67.45c2.2-.06,4.4-.15,6.6-.28,7.9-.47,15.79-.93,23.69-1.46,2.91-.2,5.8-.57,8.7-.87v-.11l-3.71-.54,0-.29c4.9,0,9.84.73,14.68-.73-1.09-.37-1.87-1.53-3.24-1.14a.35.35,0,0,1-.29,0c-.69-.65-1.54-.4-2.32-.37-7,.32-14,.68-21,1-6.77.29-13.54.54-20.31.78C74.59,113.92,73.14,113.88,71.54,113.88ZM202.13,72.31l.27,0c.56-.71,1.15-1.4,1.66-2.15a2.39,2.39,0,0,0,.42-1.2c0-1.75,0-3.51,0-5.27a15,15,0,0,1,.23-2.28c.38-2.14,1.72-3.74,3.07-5.33A4.33,4.33,0,0,0,209,53.31c0-1.28.07-2.58,0-3.85-.27-3.21-2.69-4.71-6.07-4.17,1.17.42,1.22,1.34,1.13,2.29a.9.9,0,0,1-1.54.7,8.22,8.22,0,0,1-1.15-1c-1-1.05-2.21-1-3.68-.85A47.3,47.3,0,0,1,202.13,72.31ZM90.69,40.23c.07.42.23.72.14.9-.42.88-.87,1-1.74.49a1,1,0,0,0-1.35.14,34.76,34.76,0,0,0-5.27,5.92c-4.32,6.14-6.34,13.07-7,20.46-.07.83-.11,1.67-.16,2.5h.14L76.83,67l-.61-.9a9.43,9.43,0,0,0,.88-.51,1.69,1.69,0,0,0,.59-.58c.81-1.83,1.55-3.7,2.4-5.51a42.23,42.23,0,0,1,2.6-5,74.52,74.52,0,0,1,9-11.27,36.34,36.34,0,0,1,12.39-8.74l.19-.08A28.17,28.17,0,0,0,92.43,38.5c.67,0,1.32-.1,2-.17.4,0,.89-.09.91.45,0,.17-.48.44-.78.52C93.25,39.64,92,39.93,90.69,40.23Zm29,84.8a10.59,10.59,0,0,0,.55,1.21,7,7,0,0,0,1.19,1.65c.26.23.85.1,1.29.11,5.27,0,10.53-.21,15.78-.66,4.14-.36,8.28-.66,12.42-1,3.25-.26,6.5-.54,9.76-.78,1.37-.1,1.18.19,1.24-1.25,0-.65-.19-.85-.85-.83-4.25.15-8.51.23-12.76.39-6.77.25-13.54.54-20.31.82Zm16.56-10.77-.18.36c.92.62,1.82,1.29,2.77,1.87a25,25,0,0,1,5.31,3.75c.3.31.72.72.3,1.15s-.77-.1-1.08-.36c-.73-.63-1.44-1.28-2.16-1.92l-.21.23c.72.67,1.41,1.38,2.17,2a2,2,0,0,0,1.15.47c5.39,0,10.78,0,16.17,0h1c-.38-.82-.5-1.76-1-2.09a40.83,40.83,0,0,0-11.3-5.46,14.94,14.94,0,0,0-6.23-.31l.41.5,4.37,4.94c.3.33.55.71.12,1.09s-.71.06-1-.23a7.79,7.79,0,0,0-1.3-1.1q-4-2.37-8.09-4.66A4.13,4.13,0,0,0,136.19,114.26Zm59.86-15.09L195.7,99c-.79,1.3-1.63,2.57-2.36,3.9-1.16,2.15-2.23,4.35-3.38,6.51a3.41,3.41,0,0,0-.49,2,2.47,2.47,0,0,1-1.52,2.64c-1.61.7-2,2.34-3,3.56a29.86,29.86,0,0,0,3.63-.32,20.55,20.55,0,0,0,2.57-.65c.45-.13.48-.45.17-.79s-.59-.6-.87-.91c-.73-.84-.74-1.42.07-2.18a26.83,26.83,0,0,0,5.23-7.14,1.63,1.63,0,0,0,.25-.68C196.06,103,196.05,101.1,196.05,99.18Zm11.51-55.86c-.14-.33-.23-.58-.34-.81-.57-1.15-1.19-2.28-1.7-3.46a1.15,1.15,0,0,0-1.3-.79c-3.22.15-5.85,1.82-8.58,3.25,0,0,0,.09-.08.16.31.67.66,1.36.94,2.07.18.45.42.49.85.4a35.25,35.25,0,0,1,8-.82C206.08,43.33,206.76,43.32,207.56,43.32ZM156.89,62a2.43,2.43,0,0,0,0,.43,35.42,35.42,0,0,1,1.63,8.94,1.34,1.34,0,0,0,.66,1.15,7.34,7.34,0,0,1,1.32,1.07c.17.18.12.56.16.85a2.3,2.3,0,0,1-.92.06,6.25,6.25,0,0,1-1.16-.81v5.25l3.53.46C162.61,73,159.79,67.62,156.89,62Zm8.9,55.92.31,2.84,10.9-2.3-.63-.37a4.34,4.34,0,0,1,.87-.29c.84-.06,1.68-.07,2.52-.12.23,0,.56,0,.67-.19.38-.52.69-1.09,1-1.64l-.13-.17ZM34.84,79.86l0-.19H33.76L7,80.13c-.77,0-1.53,0-2.3,0-.19,0-.52.19-.54.32-.09.65-.09,1.3-.12,2,1-.11,1.9-.22,2.79-.31,4.4-.43,8.8-.93,13.21-1.24,3.75-.27,7.51-.3,11.26-.5A34.88,34.88,0,0,0,34.84,79.86Zm-29.5-.91H7.12l17.21-.26c5.32-.07,10.63-.11,15.95-.23a27.39,27.39,0,0,0,3.4-.49l0-.2C40.22,77.06,13.07,77.84,5.34,78.95ZM119.9,130.08l-.3,0c1,9.07.95,18.17,1,27.28,1.16-.08,1.26-.13,1.26-.77,0-7.27.06-14.54-1.07-21.76C120.5,133.26,120.18,131.67,119.9,130.08Zm31.6-76.26a24.58,24.58,0,0,1,1.16,3.76c.49,3.56.83,7.15,1.24,10.72,0,.28,0,.69.2.82.63.49,1.33.89,2,1.35a2.58,2.58,0,0,0,.07-.34c0-.3,0-.59,0-.89A44.26,44.26,0,0,0,154.45,59,14.31,14.31,0,0,0,151.5,53.81ZM160,89a17.6,17.6,0,0,0,2-6.93,9.67,9.67,0,0,0-4.33.73.49.49,0,0,0-.25.25c-.48,1.23-.95,2.47-1.41,3.69.72.33,1.42.59,2.06,1S159.29,88.57,160,89Zm-14.17,7.87c1.6-.77,5.16-4.28,5.68-5.63A6.71,6.71,0,0,1,150,91a2.59,2.59,0,0,0-2.92.59c-.23.18-.48.35-.71.53a17.11,17.11,0,0,0-4.29,4.79,24.83,24.83,0,0,0,2.34-.86C145.36,95.63,145.8,95.9,145.81,96.91ZM107.51,65.63l-.15-.14c-1,.75-2,1.47-2.93,2.26-1.29,1.08-2.51,2.23-3.8,3.31a2.71,2.71,0,0,1-1.06.35,4.15,4.15,0,0,0-.78.12c-.62.3-1.19.71-1.82,1-.23.1-.58-.07-.88-.11.06-.29,0-.65.2-.85a6.39,6.39,0,0,1,1.06-.85c-1.22-.45-1.29-.72-.73-1.65-.95.6-1.86,1.25-2.8,1.87-.7.46-1.06.31-1.26-.49a3.57,3.57,0,0,0-.25-.55L90,71.49c1.59,1.62,5.56,2.18,8.88,1.88l-1.06-.54.06-.23.61-.18a10.51,10.51,0,0,0,2.21-.76,16.28,16.28,0,0,0,2.48-2C104.68,68.37,106.09,67,107.51,65.63Zm49,26.26-.2-.21a14,14,0,0,0-1.37.62c-.6.35-1.14.78-1.74,1.13-.17.1-.43,0-.65,0a2.14,2.14,0,0,1,.29-.61,4.94,4.94,0,0,1,.73-.55L152.44,92l-4.89,5.14c1,.16,2,.35,3,.5a1,1,0,0,0,.61-.11,43.27,43.27,0,0,0,3.78-2.59A4.29,4.29,0,0,0,156.52,91.88Zm32.25-44.41c0-.06.2-.22.17-.28-.34-.71.2-.89.66-1.05.7-.25,1.41-.44,2.13-.62s1.38-.31,2.15-.48l-.51-2.37c-1,.53-1.95,1-2.86,1.48a4.61,4.61,0,0,1-3.5.51c-1.31-.35-2.62-.71-3.95-1-1.58-.29-3.18-.47-4.78-.7l0,.18C181.75,44.53,185.4,45.53,188.78,47.48ZM143.57,39c-1.55-1.2-3.08-2.39-4.62-3.57a6,6,0,0,0-4.55-1.36,3.8,3.8,0,0,1-1.18,0c-.86-.16-1.23.3-1.48,1,.81.44,1.58.88,2.37,1.28a.82.82,0,0,0,.55,0,3.46,3.46,0,0,1,2.86.34,11.36,11.36,0,0,1,2.55,1.87A2.27,2.27,0,0,0,143.57,39Zm19,43.06-2,7.06c.62-.33,1.29-.64,1.91-1,.85-.54,1.67-1.13,2.49-1.72a.82.82,0,0,0,.29-.4A3,3,0,0,0,162.55,82.1ZM94.73,62.64l.07.09c.27-.19.55-.38.82-.57,2-1.45,3.9-3,5.91-4.36a38.15,38.15,0,0,0,7.63-6.65c.11-.13.2-.28.3-.43a37.26,37.26,0,0,0-7.6,5.18c-2,1.77-3.87,3.67-5.8,5.51C95.63,61.83,95.18,62.23,94.73,62.64Zm102.7,30.92a25.78,25.78,0,0,0,4.5-17.77A97,97,0,0,1,197.43,93.56ZM142.3,70.61l-.14-.15c-.2.13-.4.25-.59.38a37.2,37.2,0,0,1-6.4,4.12c-.46.21-1,.75-1.45.14s.25-.9.57-1.26c.75-.83,1.53-1.63,2.3-2.44l-.14-.15-4.44,3c.77,1.73,2.38,1.64,3.74,2l.49-1.26c.47,1.2,1.27.87,1.72.88ZM131.11,98.09a30.47,30.47,0,0,1-13.17,1.71l0,.38a8,8,0,0,0,1.7.44c1.66.06,3.31,0,5,0a28.68,28.68,0,0,0,7.84-1,3.54,3.54,0,0,0,.42-.18l-.19.11Zm70.16-7-.17-.08-.62,1.06a40.68,40.68,0,0,1-2.7,4.5,4.79,4.79,0,0,0-1.14,3.85c.13.87.13,1.75.19,2.63l.19,0A65.31,65.31,0,0,0,201.27,91.1ZM154.07,70.6c0,3.07.42,6-.45,8.85l2.6-1.76c0-1.55,0-3.4,0-5.25a1,1,0,0,0-.36-.65C155.33,71.39,154.75,71.05,154.07,70.6ZM126.51,52.19a5.92,5.92,0,0,1-.7-.27c-.77-.44-1.28-.22-1.88.44-1.64,1.81-3.37,3.54-5.1,5.27-1.14,1.14-2.35,2.22-3.53,3.33A51.62,51.62,0,0,0,126.51,52.19ZM146.56,41l-.1.23c.41.54.87,1.06,1.23,1.63a.9.9,0,0,0,1.12.42q3-.65,6.1-1.26c.7-.14,1.4-.24,2.1-.35l0-.21ZM75.31,55.15c-2.73,2.62-8,11.51-8.65,14.24.15-.2.27-.32.35-.46,2.4-3.8,4.81-7.59,7.17-11.41A22.33,22.33,0,0,0,75.31,55.15Zm39.25,1.58a.4.4,0,0,0-.13,0c-4,3.22-8,6.42-11.9,9.69a38.12,38.12,0,0,0-2.94,3l.17.17C105,65.75,109.74,61.17,114.56,56.73Zm24.26-22.31c.19.13.4.25.58.4a38.78,38.78,0,0,1,3.8,3.05,2.82,2.82,0,0,0,3.22,1s.07-.05.14-.11C144.8,35.87,142.08,34.69,138.82,34.42Zm70.73,4.79a11.57,11.57,0,0,1,2.23,4.41,2.58,2.58,0,0,0,1.35,1.73l1.21-1.05c.06-1.45.06-1.45-1-2.53A9.35,9.35,0,0,0,209.55,39.21Zm-60,47.47c1.55,0,2.88,0,4.2,0a.58.58,0,0,0,.42-.31c.3-.8.57-1.62.87-2.5-.74,0-1.48.28-2,0s-.94,0-1.33.28a11,11,0,0,0-1.35,1.15A8.79,8.79,0,0,0,149.59,86.68ZM91.44,68c-.56-.51-.27-.94.19-1.34l1.23-1.08c-.85.34-1.57.84-2.35,1.24-.27.14-.66,0-1,0a2.69,2.69,0,0,1,.28-1c.47-.59,1-1.11,1.55-1.66a11.81,11.81,0,0,0-1.94,1.36c-.37.3-.72.51-1.19.15-.15-.11-.42-.06-.61-.08a3.83,3.83,0,0,0,1.76,3.91c.31.24.57.27.83,0C90.59,69,91,68.56,91.44,68Zm15.73,49.39,0-.07-16.26,1.21,6.54.53a8.07,8.07,0,0,0,2.21.13C102.16,118.64,104.66,118,107.17,117.37Zm57.24,3.19c0-.59,0-.91,0-1.23-.09-1.19-.41-1.56-1.6-1.47a4.07,4.07,0,0,1-3.87-1.86l.54-.48L153,113.64c1,.66,2.1,1.13,3.15,1.68a32.25,32.25,0,0,1,6.48,4.25A10.62,10.62,0,0,0,164.41,120.55Zm22.31-12.44-2.82,5.79c.64-.14,1.14-.27,1.64-.35,1.56-.25,1.92-1.6,2.52-2.73a.62.62,0,0,0,0-.5C187.63,109.63,187.22,109,186.72,108.12ZM139,122.81c-8.34-.07-16.67.26-25,.57C114.77,124,120.73,123.85,139,122.81ZM106.79,72.63c3.16-1.15,12.81-8.52,14.94-11.49Zm21.63-2.69.13.12,11.32-9-.12-.17c-.16.09-.33.17-.48.27-2.28,1.57-4.56,3.13-6.82,4.73-1.26.89-2.47,1.85-3.78,2.84ZM144,92.52v-.19a3.09,3.09,0,0,0-1,.37c-1.81,1.57-3.58,3.17-5.36,4.78-.28.25-.52.54-.78.81a15.34,15.34,0,0,0,2.87-.63,1.19,1.19,0,0,0,.5-.41Q142.14,94.89,144,92.52ZM132.27,27.94c3.7.21,6.17-1.82,8.39-4.32A41.18,41.18,0,0,0,132.27,27.94Zm78.11,15.81c-.42-2.42-2.62-5.11-4.29-5.25.77,1.58,1.52,3.13,2.29,4.67a.57.57,0,0,0,.35.24C209.25,43.53,209.78,43.62,210.38,43.74ZM111,34.19c-4.3-.74-7.68,1.34-11.07,3.4a2.43,2.43,0,0,0,.75-.23,27.34,27.34,0,0,1,6.84-2.16A28.82,28.82,0,0,0,111,34.19ZM77.63,69.48l-.32-.32c-.09.23-.19.45-.26.68-.47,1.55-1,3.1-1.37,4.67a.86.86,0,0,0,.34.75,5.6,5.6,0,0,0,1.3.33Zm42.21,29.08c4,.37,7.56-.77,11.12-1.88C127.35,97.51,123.53,97,119.84,98.56ZM129.48,31a19.13,19.13,0,0,1,1.28-1.52c.17-.16.51-.14.77-.21a3.15,3.15,0,0,1,0,.8,2.31,2.31,0,0,1-.34.63l.12.22,5.26-2.17-.07-.21c-1.58.4-3.16.68-4.79-.29C131.11,29.1,129.48,29.17,129.48,31ZM113.82,55.75l6.59-5.4,0-.14-2.4.11C117,52.5,115.15,53.93,113.82,55.75Zm27.88,6.67-.19-.24c-2.86,2.54-6.58,4-8.8,7.34l.15.18ZM105.56,36.48c-4.52,1.25-8.31,3.73-12,6.46ZM78.87,77.21c-.16,1.37-.16,1.37,1,1.67L81,79.2l2.66.81.17-.13c-.16-.31-.24-.81-.49-.91C81.89,78.34,80.41,77.81,78.87,77.21Zm58.71-5.4a54.49,54.49,0,0,0,9.25-7.61A99.17,99.17,0,0,0,137.58,71.81Zm68,9.39c-1.07,2.95-2.12,5.71-2.28,8.71C204.39,87.17,205.8,84.51,205.54,81.2ZM145,62.82l-.2-.14a26.78,26.78,0,0,0-7.92,7.11ZM133.7,55.43c-.71-.36-1.31-.65-1.89-1-.37-.21-.58-.15-.87.18-.81.9-1.67,1.74-2.52,2.61l-.5.51c1-.48,1.94-1.05,2.89-1.58.29-.16.76-.35,1-.22C132.6,56.47,133,55.85,133.7,55.43Zm51.74,59.76c-2.37.1-3,.54-3.74,2.54.54,0,1,0,1.56,0,.21,0,.5,0,.59-.18C184.38,116.8,184.87,116,185.44,115.19Zm-57.29-83.4a9.75,9.75,0,0,0-.93.36c-.31.16-.59.36-.89.55l-.45-1c-.3.21-.57.54-.88.58s-.59-.42-.87-.4c-1.43.09-2.86.27-4.29.42l0,.08,7.95.75Zm-.57,37.53a2.42,2.42,0,0,0,0-.87.94.94,0,0,1,.31-1.23c.91-.86,1.8-1.75,2.69-2.63.21-.2.39-.43.59-.65a1.56,1.56,0,0,0-.77.37c-1.12.93-2.22,1.88-3.35,2.79a3.68,3.68,0,0,1-1,.45c-.34.13-.69.24-1.22.42Zm16.91,31.37a4.54,4.54,0,0,0-3.82.43,6.78,6.78,0,0,1-1.64.69.84.84,0,0,0-.63,1.06Zm-14.41,3,0-.12h-6.7c.59-.24,1.14.43,1.74,1,.13.12.36.26.5.23C127.07,104.4,128.57,104,130.07,103.65ZM97,86.12l-.08,0a.05.05,0,0,0,0-.05c-3-1.69-6-3.43-9-5-.5-.26-1.21-.16-1.53-1l-.31.67Zm24.8,72.22c-.5.28-1.32-.11-1.25.76.1,1.22.33,2.44.54,3.65,0,.15.27.26.41.39.1-.14.28-.27.29-.41C121.83,161.3,121.82,159.87,121.82,158.33ZM203.28,74c.9,1.58.45,3.6.78,5.49h.25l.25-7Zm-79.82,37.88-.06.24c.74.34,1.51,1,2.23.94a11.86,11.86,0,0,0,3-1l-.07-.19Zm3.25-56.76c.31-.22.64-.48,1-.68s.68-.43.92-.34c.61.22.82-.15,1.22-.54l-2.38-1-1.06,1.33ZM84.22,42.05c-1.6,1.45-3.16,2.67-3.38,4.86A12.23,12.23,0,0,0,84.22,42.05Zm28.12,20,5.87-5.45-.1-.11-6.55,5.13Zm-19.77-5.6-3.39,1a.31.31,0,0,0-.18.13c-.39.75-.77,1.5-1.16,2.25l.16.05Zm48.57-15.42c-1.29-1.75-4.62-4.69-5.89-4.07Zm3.66,58c1.5-.16,3.13.7,4.62-.74C147.74,98.22,146.14,97.59,144.81,99Zm43.44,8.84,2-3.37a15.17,15.17,0,0,0-2,1.34c-1.29,1-1.29,1-.07,2C188.11,107.87,188.15,107.86,188.25,107.88ZM129.5,51.76l-.07.11c1.66.83,3.33,1.62,5,2.49.67.36,1.12.16,1.7-.3Zm65.38-10.07c-.31.39-.73.68-.71.93a15.63,15.63,0,0,0,.48,2.2l1.46-.44Zm-65.4-8.51H134l0-.19c-1-.25-2.07-.51-3.11-.74A1.14,1.14,0,0,0,129.47,33.17Zm18.76,32.93-.12-.16c-1,.71-2,1.41-3,2.14s-1,.76-1.17,2.14Zm60.85-21.26,1.66,3.76a13.47,13.47,0,0,0,.1-2.17C210.8,45.23,210.46,44.92,209.08,44.84ZM75.33,76.38a12.49,12.49,0,0,0,0,1.38.59.59,0,0,0,.38.4c.49.09,1,.1,1.5.15C77.47,76.77,77.27,76.56,75.33,76.38Zm68.9-54-.17-.21a6,6,0,0,0-1,.69c-.66.7-1.23,1.49-1.9,2.17s-1.64,1.52-2.46,2.27A17.4,17.4,0,0,0,144.23,22.39ZM140,75.74c1.61.53,3-1.19,3.91-3.08Zm10.77-10.09-3.14,2.76a15.92,15.92,0,0,0,2-.87c1.11-.49,1.11-.48,1.11-1.73C150.75,65.68,150.74,65.56,150.75,65.65Zm-18.3,38.79-.18-.23-5.54,1.54v.18a5.48,5.48,0,0,0,1.22,0c1.32-.31,2.62-.66,3.92-1C132.1,104.81,132.26,104.58,132.45,104.43Zm56.4-60.73.14.23c.24-.1.48-.19.71-.31,1-.53,1.91-1.11,2.9-1.61.55-.28.57-.57.17-1.14Zm-50,13.47L141,56c-1.54-.91-3.13-1-4-.25a10.33,10.33,0,0,0,1.2-.16,1.1,1.1,0,0,1,.8.15c.14.15.07.52.06.79A3.58,3.58,0,0,1,138.9,57.18Zm-68.67,16,0,.15,3.65.44V72.6ZM80,63.87l3.29-7.37A21.27,21.27,0,0,0,80,63.87Zm77.31,8.88H157v5.4h.22A27.64,27.64,0,0,0,157.33,72.75ZM137,102.57c-1,.37-2,.68-2.95,1-.18.07-.29.33-.43.51l.18.16,3.49-1.09ZM97.81,50.81a9.7,9.7,0,0,0-3.76,2.73A11.11,11.11,0,0,0,97.81,50.81ZM109,68.42l-4.59,3.19A8.19,8.19,0,0,0,109,68.42Zm10.32-14.5L123,51l-.05-.19c-.34,0-.86-.19-1,0C121,51.77,120.26,52.8,119.36,53.91Zm-47,65.93c-.16,1,.2,1.42.91,1.24l2.19-.57Zm64.73-26h-2.22l1,.46,0,.19c-.23,0-.51,0-.68.09a3.15,3.15,0,0,0-.69.75c0,.06.07.24.11.37a5,5,0,0,0,.72-.39C135.92,94.85,136.52,94.35,137.11,93.87ZM149.8,60.46l.2-.23a9.77,9.77,0,0,0-3.27-2.71l-.19.23ZM111.5,52.62s0,0,.06,0l1.76-1.22c.91-.61,1.23-.5,1.47.61l.83-.79a12.47,12.47,0,0,0-1.25-.42c-.34-.08-.83-.22-1-.06A23.19,23.19,0,0,0,111.5,52.62Zm5.71-18.51a7.53,7.53,0,0,0-5.37,1.05Zm25.12,22.4c-.36.51-.63.95-1,1.33s-.73.73-1.09,1.09l.1.11,3.08-2ZM134,70.82l-.05-.09-3.31,2,.66.62ZM74.37,54.63a2.91,2.91,0,0,0,1.27-3.33Zm79,26,.14.14c.61-.32,1.21-.68,1.84-1s.7-.57.47-1.34ZM147.15,60l-.76-.61.18.29-2.5,2.17Zm-25,7.59c1.22.16,1.93-.23,3.14-1.64-.37.19-.71.54-1,.49C123.3,66.27,122.9,67.06,122.15,67.58Zm14.45,42.77v-.23h-4.75v.23Zm61.55-71.3,0-.17L194.8,40c.07.53.23.68.68.42C196.36,40,197.26,39.52,198.15,39.06ZM129.33,70.72l.34.68,2-2.28-.18-.17ZM119.08,159.1c-.51-.05-.7.08-.64.56.12.92.19,1.84.29,2.76h.11ZM70.16,117c.1-1-.85-2.62-1.62-2.78Zm67.55-22.14a3.89,3.89,0,0,0-2.43,2.63ZM101.51,54.5l-.18-.22L97.46,57.6l.15.17Zm45.14,8.28.07.06,2.22-1.41-.75-.54Zm-2.56,53.93c-.57-.87-1.09-1.85-2.49-1.44ZM110.86,54.79l-.12-.12c-.8.61-1.61,1.21-2.4,1.84-.1.08-.11.27-.16.41.14,0,.33,0,.42,0C109.36,56.19,110.11,55.49,110.86,54.79Zm-21,7.36L89.72,62c-.65.73-2,.67-2.22,1.89l.18.19Zm13.62-12.59V49.4l-2.36.28.32.79ZM85.47,77l-.65,1,1.17.74.12-.18Zm44-41.51a7.39,7.39,0,0,0-3.83-1.14Zm20.84,53.69c-.5-.25-.92-.48-1.37-.66-.14-.06-.34,0-.52.06,0,.16,0,.41.09.46a2,2,0,0,0,.84.32A3.93,3.93,0,0,0,150.35,89.14Zm-4.77.7.12.22,1.69-.35-.33-.88Zm-25.77,78.24,1.33-.41-.34-.88C120.35,167.17,119.59,167.11,119.81,168.07ZM213.27,48.94h-.18l-.42,2.92C213.5,51,213.24,49.94,213.27,48.94ZM104.4,73.84c-.32-.65-1.09-.48-2,.36ZM132,58.35l-.14-.2L129.69,60l.22.26ZM43.54,79.87l0-.32-2.92.36,0,.24Zm82.82-8.79-.12.18,2.08,1.48.18-.28Zm3.1,37c.62.86,1,1,1.85.56Zm8.58-7.67-.12-.35-2.45.95.06.17Zm-18,64-.2,1.75C120.67,165.89,120.7,165.63,120.08,164.41ZM162.87,89c1,0,1.57-.29,1.81-1.25Zm-16.47,1.76a3.72,3.72,0,0,0-2,1.12l.17.24Zm-10.23,20.78h-1.92C134.88,112.16,134.91,112,136.17,111.57ZM84,118.8v.13l3.52-.17v-.14Zm33.34-51,.06.16,1.17-.24-.26-.68Zm32.06-4.09c1.34-.31,1.44-.4,1.11-1Zm7.74,5.32v2l.2,0ZM143.9,59.23l1.21-.83-.16-.22C144.23,58,144.23,58.84,143.9,59.23Z" transform="translate(-0.07 -0.13)"/><path d="M29,33.65,25.26,37.2a1.55,1.55,0,0,1,.5-1.77c1-.87,1.93-1.77,2.86-2.7a1.37,1.37,0,0,0,.4-.88,19.83,19.83,0,0,1,3.31-12,.77.77,0,0,0,.08-.2s0,0-.08-.12a17.36,17.36,0,0,0-4.2,7.55l-.2,0a4.63,4.63,0,0,1,0-.77,9.85,9.85,0,0,1,1.9-4.7A47,47,0,0,1,44.5,8.46a11.7,11.7,0,0,1,2.74-.82.74.74,0,0,1,.57.17c-3,.71-5.34,2.48-7.61,4.4a3.34,3.34,0,0,1,.83-.43,13.26,13.26,0,0,1,3-.44,4,4,0,0,0,3-.86,1.65,1.65,0,0,1,.31-.2s.09,0,.22,0L46.2,11.66a30.79,30.79,0,0,0-4.88,6.23,6.06,6.06,0,0,0-.9,3.31,7.62,7.62,0,0,1-.2,1.44l.79.94c-1.07.41-1,1.2-1,2a13.56,13.56,0,0,0,2.83,9c1.57,1.93,3.44,3.55,6,3.84A17,17,0,0,0,58.93,37c.69-.36,1.24,0,1.13.73a1.71,1.71,0,0,1-.57,1.12c-3.52,2.23-7.16,4.31-11.33,5-4,.67-8,.64-11.79-1.1a12.16,12.16,0,0,1-6.55-6.26A26.2,26.2,0,0,1,29,33.65Zm9.5-8.08s-.08,0-.12,0c-2.52,2.11-5,4.21-7.55,6.34a1.12,1.12,0,0,0-.29.78A7.77,7.77,0,0,0,32,37.43a12,12,0,0,0,7,4.67,21.2,21.2,0,0,0,15.11-1.91,1.29,1.29,0,0,0,.22-.18H49.84a8,8,0,0,1-3.78-.92,13.25,13.25,0,0,1-6.93-8.81A39,39,0,0,1,38.49,25.56Zm5.68-13,0-.16c-.92.45-1.86.86-2.74,1.38-.49.29-.83.6-1-.39-3.34,2.66-6.26,5.48-8.11,9.26a16.64,16.64,0,0,0-1.76,8.18,1.9,1.9,0,0,0,.28-.14q3.74-3.1,7.47-6.2a1,1,0,0,0,.37-.59c0-2.72,1.32-5,2.65-7.22C42.14,15.28,43.2,14,44.17,12.61Z" transform="translate(-0.07 -0.13)"/><path d="M40.54,92.57h1.9c-5.81-2.87-11.75-5.31-18.24-6.15l0-.25,1.68-.43A10.49,10.49,0,0,0,28,85.13c1.32-.68,2.42-.24,3.62.56l-2,.61c1,.31,2,.92,3.08.29.67-.39,1.1.14,1.69.42l-.9.48c1.27.28,2.22,1,3.48.71.41-.1.93.23,1.44.38l-.2-.44,2.47.56,0,.18-1.93.39c.38.19.6.31.82.4a119.51,119.51,0,0,1,18.93,9.85,39.46,39.46,0,0,1,9.74,8.28c.84,1.05,1.52,2.22,2.31,3.38-1.61.54-4,.79-4.72.44l1.56-.19a28.74,28.74,0,0,1-2.09-3.65c-.85-2.14-2.52-3.45-4.24-4.76a98.72,98.72,0,0,0-14.56-8.71,2.68,2.68,0,0,0-1.21-.19c-.65,0-1.31.09-2,.15,6.89,3.79,13.37,8.12,18.83,13.86a7,7,0,0,1-3.32-1.39,68.37,68.37,0,0,0-14.41-10,5.44,5.44,0,0,1-2.54-2.43A12.88,12.88,0,0,0,40.54,92.57Zm28.2,18.78-2.25-2.86C67.53,110.71,68.06,111.37,68.74,111.35Z" transform="translate(-0.07 -0.13)"/><path d="M74.84,5l-2.16.66L73,3.76,74.77,4c-.05-.73-.14-1.43-.13-2.13a3.8,3.8,0,0,1,.33-1,9.29,9.29,0,0,1,.88.49A10.69,10.69,0,0,0,78,2.78c.53.19,1.28-.15,1.9-.33a.85.85,0,0,1,1.2.5l-2,.63c.34.25.59.42.82.61.4.33.8.66,1.17,1s.7.69.27,1.14-.77,0-1.12-.25c-.76-.63-1.55-1.23-2.33-1.83-.63-.48-1.18.06-1.73.24-.15,0-.22.54-.22.83,0,.52.08,1,.1,1.55s0,.79.87.57c-1,.89-.67,1.8-.78,2.63-.06.47.21,1.25-.49,1.3s-.44-.77-.58-1.21c0-.07,0-.14-.06-.29L70.65,14v.22a11.69,11.69,0,0,0,2.83-.3,31.55,31.55,0,0,0,4-1.92c1-.55,1.4-.39,1.4.78,0,1.48,0,3,0,4.45a1.62,1.62,0,0,0,.09.28c.58-.78,1.14-1.48,1.65-2.21.73-1.06,1.4-2.16,2.16-3.19a1.72,1.72,0,0,1,1-.6c2.09-.39,4.19-.72,6.28-1.07a3.08,3.08,0,0,0,.39-.14,4.07,4.07,0,0,0-.54-.31l-3-1.07c-1.84-.64-2.06-1-1.69-2.95-.83.44-1.6.92-2.42,1.27a3.76,3.76,0,0,1-1.22.09,5.11,5.11,0,0,1,.83-.91c1.7-1.15,3.42-2.25,5.14-3.38.22-.15.43-.32.71-.53.17,1.06.4,2-.67,2.69a7.42,7.42,0,0,0-1.12,1c-.69.66-.57,1.29.32,1.62,1.62.6,3.26,1.17,4.87,1.8.31.12.54.47.81.72-.28.23-.54.6-.86.68-1.85.43-3.71.81-5.57,1.18-.65.13-1.32.19-2,.33a1,1,0,0,0-.57.38c-1.62,2.39-3.22,4.81-4.84,7.2-.14.21-.45.29-.68.44-.15-.3-.43-.61-.42-.91,0-1.83.15-3.65.23-5.48,0-.28,0-.57,0-1l-2.41,1.24c-2,1.07-4.23.85-6.4.8-.58,0-.76-.56-.38-1a4.5,4.5,0,0,1,.5-.43l5.46-4.8A1.41,1.41,0,0,0,75,7.63C74.95,6.78,74.91,5.91,74.84,5Z" transform="translate(-0.07 -0.13)"/><path d="M42.12,59c-1.35-.12-2.57-.2-3.78-.35a22.26,22.26,0,0,1-2.54-.49c-.21-.05-.37-.32-.55-.5.24-.11.51-.35.72-.31a40.29,40.29,0,0,0,7.83.58c.27,0,.54.31.81.47-.18.24-.32.56-.56.69-1.81,1-3.64,2-5.47,3-.35.19-.68.41-1,.59-1.53.77-1.32,1.93-.63,3,.5.73,1.1,1.39,1.67,2.08a5.36,5.36,0,0,1,.66.79,1.2,1.2,0,0,1,.15.87c-.07.17-.49.29-.75.29a15.45,15.45,0,0,1-6.53-1.77,1.21,1.21,0,0,0-1.71.29c-1.4,1.53-2.86,3-4.33,4.48-.18.18-.54.19-.81.28-.05-.29-.24-.64-.14-.85.7-1.47,1.45-2.91,2.18-4.37.17-.34.31-.69.55-1.22l-4-.23a6.25,6.25,0,0,1-1.18-.05c-.26-.07-.65-.32-.67-.52a1,1,0,0,1,.46-.74,17.24,17.24,0,0,1,1.66-.63,1.16,1.16,0,0,0,.53-.35c1.65-2.47,3.27-4.95,4.92-7.41a3,3,0,0,1,.7-.56,3.43,3.43,0,0,1,.5.75c.51,1.52,1,3.06,1.48,4.58a2,2,0,0,1-.1,1.92A27.44,27.44,0,0,1,30,57.47l-4.05,6c.78,0,1.45-.77,2.47-.28l-4.69,2.18c1.17.07,2.22.13,3.27.2,1.7.12,2.1.93,1.2,2.42a10.19,10.19,0,0,1-1.29,1.86c1-.84,2-1.64,2.89-2.52s1.24-1,2.55-.44c1.53.61,3.12,1.07,4.69,1.58a5.5,5.5,0,0,0,.94.12c-.62-.79-1.2-1.47-1.71-2.19-1.16-1.65-1.43-3.53,1-4.78,1.39-.71,2.74-1.49,4.1-2.24C41.63,59.29,41.82,59.16,42.12,59Z" transform="translate(-0.07 -0.13)"/><path d="M213.19,101.94c-.42,1.18-.77,2.39-1.26,3.53a20.69,20.69,0,0,0-1.2,5.1,1.28,1.28,0,0,1-1.23,1c-.06,0-.1-.15-.08-.11l-1.66,1.12-.11-.14c.53-1,1-2.12,1.59-3.14a9.76,9.76,0,0,0,1.2-4,2.35,2.35,0,0,1,.89-1.77,20.84,20.84,0,0,0,1.67-1.65Z" transform="translate(-0.07 -0.13)"/><path d="M117.5,147.86l-.89-12.36.34,0,.9,12.39Z" transform="translate(-0.07 -0.13)"/><path d="M117.58,171.8c-.11-1.13-.12-1.14.84-1.3l2.47-.4C120.35,171.89,118.8,171.44,117.58,171.8Z" transform="translate(-0.07 -0.13)"/><path d="M84.39,2.06C85.32.48,86.94.8,88.28.29c.08.49.17.83-.38.95C86.76,1.49,85.62,1.77,84.39,2.06Z" transform="translate(-0.07 -0.13)"/><path class="cls-1" d="M117.93,103.57a1,1,0,0,1,1.31.22,11.74,11.74,0,0,1,1.39,1.8l-2.42-1.76Z" transform="translate(-0.07 -0.13)"/><path d="M83.44,82.52l-1.09-.42.89-.51.36.82Z" transform="translate(-0.07 -0.13)"/><path class="cls-1" d="M162.62,90.67a8,8,0,0,1-2.56,2.16c-.19.09-.32.32-.47.48.23.11.49.35.68.3a5.59,5.59,0,0,0,1.48-.63,6.31,6.31,0,0,0,1.18-1,15.41,15.41,0,0,1,3.16-2.73c1.82-1.09,2.28-3.79,1.23-5.83a7,7,0,0,0-4.92-3.77c0-.85,0-1.71,0-2.58a22.93,22.93,0,0,0-2.35-9.21c-1.09-2.41-2.4-4.71-3.52-7.11-1-2.1-1.84-4.27-2.76-6.4-.73-1.68-1.44-3.37-2.24-5s-1.7-3.18-2.6-4.84l.86-.18a88.43,88.43,0,0,1,11.43-1.7,24.07,24.07,0,0,1,7.84.93c4.72,1.21,9.42,2.46,14.13,3.72a10.46,10.46,0,0,1,3.92,2.47c.26.22.48.56.78.67a1.37,1.37,0,0,0,1,0c.42-.25.27-.68,0-1l-.34-.38c1.43-1.78,3.38-2.35,5.66-2.54a52.24,52.24,0,0,1,.83,6.15c.11,5.61.23,11.23,0,16.83a88.49,88.49,0,0,1-3.42,19.84c-1.33,4.78-2.87,9.51-4.29,14.27a3.75,3.75,0,0,1-1.6,2c-1,.69-1,1.22.08,2.06-1.05,2-2.11,4.09-3.2,6.13a.9.9,0,0,1-.61.33q-7.23,1-14.47,2l-.44,0a6.24,6.24,0,0,1-4.15-.76,41.49,41.49,0,0,0-5.65-2.2,2.67,2.67,0,0,1-.83-.39c1-.11,2-.21,2.94-.34,3.19-.42,6.37-.85,9.56-1.26.66-.08,1.12-.29.89-1.12l2.5-.37c.46-.07.83-.28.78-.81s-.45-.68-.91-.64l-9,.78a.74.74,0,0,0-.47.25h2c-2.5.69-20.66,1-22.64.35l5.47-.31a144.63,144.63,0,0,0,17.92-1.82c.17,0,.39,0,.5-.12s.48-.45.5-.69-.38-.51-.58-.5c-1.68.07-3.49-.16-5,.4a19.21,19.21,0,0,1-5.52.89c-5.82.43-11.65.7-17.48,1.06-2,.12-3.87-.6-5.76-1.11l0-.25c.82-.17,1.62-.38,2.45-.5,1-.15,2-.16,3-.35.4-.08.73-.48,1.09-.73l-.11-.21-1.46.22,0-.11c1.06-.5,2.14-1,3.18-1.51.61-.31,1.17-.72,1.75-1.08.1-.06.22-.2.3-.19,2,.44,3.65-.57,5.38-1.19,1.43-.51,2.77-1.28,4.24-1.87l-.67.57c-.32.28-.6.68-.21,1a1.06,1.06,0,0,0,1-.09,35.21,35.21,0,0,0,3-3.06A12.46,12.46,0,0,0,158,93,2.38,2.38,0,0,1,160,91a23.42,23.42,0,0,0,2.51-.57Z" transform="translate(-0.07 -0.13)"/><path class="cls-1" d="M84.51,72.85c-1.18,1.42-.61,3.14-.91,4.75-1.51-.51-3-1-4.44-1.53a.65.65,0,0,1-.28-.51,29.09,29.09,0,0,1,.91-7.27.94.94,0,0,1,.33-.55c1.86-1.1,3.74-2.18,5.65-3.28.13,1.41.26,2.73.38,4.05a7,7,0,0,0,2.34,4.82,3.51,3.51,0,0,0,2.67,1L89,72.78l0,0a16.11,16.11,0,0,0,3.27,1.4c1.93.37,3.91.44,5.88.64a29.23,29.23,0,0,1,2.94.3,9.93,9.93,0,0,0,4.5-.5c3.71-.92,6.66-3.43,10.21-4.64l2.19-.77.08.16a9,9,0,0,0-1.06,1,2.23,2.23,0,0,0-.22.84,2.51,2.51,0,0,0,.92,0,3.45,3.45,0,0,0,.89-.66c.43-.36.85-.67,1.45-.37.08,0,.22,0,.33-.07a7,7,0,0,1,.92-.25,2.84,2.84,0,0,1,2.36.93,37.24,37.24,0,0,0,7.78,5.54,5,5,0,0,1,.58.46c.18.13.36.32.56.34q2.11.23,4.24.39a1.35,1.35,0,0,0,.79-.16,4.49,4.49,0,0,1,2.65-.45,6.4,6.4,0,0,0,3.68-1,53.13,53.13,0,0,0,4.73-3.55,43.63,43.63,0,0,0,3.09-3.2c.31,0,.18.46.12.79-.3,1.58-.63,3.15-.94,4.73-.17.85-.35,1.69-.5,2.55a7.8,7.8,0,0,0-.05,1l.26.1a4.65,4.65,0,0,0,.51-.93c.57-2,1.1-4,1.64-6,.08-.28.13-.57.2-.85h.19c-.09,2.57-.09,5.15-.31,7.71a6.42,6.42,0,0,1-1.08,2.65A30.82,30.82,0,0,1,149.49,84c-.79,1-1.67,1.89-2.46,2.87A6.23,6.23,0,0,1,145,88.6a19.59,19.59,0,0,0-4.89,3.83,1.63,1.63,0,0,1-1.37.53,31.54,31.54,0,0,0-3.86,0,6.07,6.07,0,0,0-1.76.63,8.93,8.93,0,0,1-1.36.6c-1.74.38-3.52.59-5.23,1.05a22.79,22.79,0,0,1-10.14.32,7.19,7.19,0,0,0-1.92,0c-.23,0-.44.35-.66.54.28.19.54.48.84.53a16.54,16.54,0,0,1,1.7.17c-1,.21-1.89.53-2.89-.32A118.65,118.65,0,0,0,95.08,83.32c-2.15-1.22-4.37-2.32-6.57-3.44a1.3,1.3,0,0,1-.73-1c-.44-1.92-.92-3.84-1.53-5.71-.39-1.19-1.12-1.58-2-1.42a2.46,2.46,0,0,0-2,2.23,18.58,18.58,0,0,0,0,2.15c0,.27.26.52.4.77.22-.24.58-.45.62-.72a15.5,15.5,0,0,0,.07-1.92A1.3,1.3,0,0,1,84.51,72.85Zm33.94,16.87,0,.09c.63-.11,1.42,0,1.84-.38a30,30,0,0,0,3.6-3.57,1.87,1.87,0,0,0-.23-2.45,4,4,0,0,0-5.32.08,7.58,7.58,0,0,0-2,3.74c-.47,2.1-.16,2.46,2,2.49Z" transform="translate(-0.07 -0.13)"/><path class="cls-1" d="M80.91,64.54c.94-2.12,1.81-4.28,2.85-6.35,1.44-2.84,3-5.61,4.52-8.43a12.28,12.28,0,0,1,3.62-4A69.91,69.91,0,0,1,103.27,39l.4-.17-.16,1,1.67-.16-.44-.66A16.34,16.34,0,0,1,110,36.54a62.71,62.71,0,0,1,11.74-2,9.89,9.89,0,0,1,2.93.39c1.59.35,3.16.79,4.65,1.18l.22,1.47.25,0,.76-1c1.56.77,3.16,1.48,4.68,2.34a43.52,43.52,0,0,1,9.69,7.41,29.66,29.66,0,0,1,4.73,7.24,16.85,16.85,0,0,1,2.22,6,.7.7,0,0,1-.08.46c-.5-.57-1-1.13-1.5-1.71s-.73-1-1.46-1c-.22,0-.42-.25-.64-.36-1.61-.81-3.14-2-4.84-2.35-2.31-.52-4.31-1.7-6.5-2.42-2.93-1-5.85-2-8.85-2.71a56.69,56.69,0,0,0-7.21-.83c-1.94-.19-3.89-.41-5.84-.45s-4.15.12-6.22.16c-1.09,0-2.18-.1-3.26,0-1.75.11-3.49.36-5.23.48-3.05.21-5.19,2.21-7.51,3.82-1.07.74-2,1.72-3,2.56-.67.57-1.35,1.14-2.07,1.65A4.19,4.19,0,0,0,86,60.47a2.6,2.6,0,0,1-1.94,2.84c-1,.41-2,1-3,1.44Z" transform="translate(-0.07 -0.13)"/><path class="cls-1" d="M88.89,33c3.3-1.12,6.57-2.33,9.9-3.34,5.41-1.65,10.87-3.17,16.3-4.75a14.68,14.68,0,0,0,2-.67,3.79,3.79,0,0,0,1.12-.83c.15-.15.11-.48.15-.73a4,4,0,0,0-.71.12,16.84,16.84,0,0,1-1.86.71,196.52,196.52,0,0,0-20.07,5.84,2.67,2.67,0,0,1-.71.16c6.71-4,12.63-9.07,18.76-13.88l-.34,1.06.23.17c.31-.24.63-.47.92-.73,1.9-1.65,3.73-3.41,5.71-5a22.77,22.77,0,0,1,11.1-4.85c4.47-.56,9-.48,12.94,2.24a17.75,17.75,0,0,1,2.11,1.74,4,4,0,0,1,1.28,3.12c0,2.57-.16,3.54-.85,4.81-.07-.88-.11-1.65-.19-2.41-.06-.54-.28-.93-.93-.84a9.87,9.87,0,0,1-.27,5.26c-.2.68-.27.68-1.16.7a11.34,11.34,0,0,0,.55-6.63c-.54-3.57-3.73-7-7-7.48a1.72,1.72,0,0,0-2,.68,5.34,5.34,0,0,0,.81.11,4.82,4.82,0,0,1,2.85.89,8.79,8.79,0,0,1,4.26,7.76,7.94,7.94,0,0,1-1,4.63,2.81,2.81,0,0,1-1.18,1,48.47,48.47,0,0,0-11.21,6c-1.08.82-2.06,1.77-3.12,2.63a3.85,3.85,0,0,1-.88.41l-.09-.19c.83-1.25,1.72-2.47,2.46-3.76a8.34,8.34,0,0,0,.67-2.16.71.71,0,0,0-.19-.61c-.65-.48-.55-1.16-.59-1.81,0-.83-.33-1.06-1.12-.83a8,8,0,0,0-1.15.51c-4.33,2.07-8.6,4.26-13,6.18a58.08,58.08,0,0,1-18.88,4.81c-1.86.15-3.74,0-5.6,0Z" transform="translate(-0.07 -0.13)"/><path class="cls-1" d="M188.57,103.34c.58-1.83,1.18-3.66,1.72-5.5a171.7,171.7,0,0,0,4.48-18.66,114.14,114.14,0,0,0,1.33-20.4,58.55,58.55,0,0,0-.8-10.48l-.38-2a14.2,14.2,0,0,1,1.76,0c.2,0,.43.31.52.52A50.76,50.76,0,0,1,201.59,67a76.22,76.22,0,0,1-5,25.85c-.47,1.3-.94,2.6-1.5,3.87a6.59,6.59,0,0,1-1.24,2c-1.65,1.66-3.39,3.22-5.1,4.82Z" transform="translate(-0.07 -0.13)"/><path class="cls-1" d="M101.21,119.31c2.09-.48,4.18-1,6.27-1.44,2.25-.49,4.49-1,6.75-1.4,1.77-.3,3.58-.39,5.37-.57,2.11-.22,4.22-.44,6.33-.63a1.33,1.33,0,0,1,.77.21c.84.52,1.65,1.08,2.47,1.63.16.11.32.28.5.3s.65,0,.78-.12a.81.81,0,0,0,0-.78A20.35,20.35,0,0,0,129,115l3.23-.27a.47.47,0,0,1,.27.12,53.5,53.5,0,0,1,8,6.86s0,0,0,.14c-.19,0-.37,0-.55,0-8.38.16-16.76.32-25.15.45a9.37,9.37,0,0,1-2-.43l-10.51-2.23c-.36-.08-.73-.13-1.09-.2Z" transform="translate(-0.07 -0.13)"/><path class="cls-1" d="M71.54,113.88c1.59,0,3.05,0,4.5,0,6.77-.24,13.54-.49,20.31-.78,7-.3,14-.66,21-1,.79,0,1.63-.28,2.32.37a.35.35,0,0,0,.29,0c1.37-.4,2.15.77,3.24,1.14-4.84,1.46-9.78.71-14.68.73l0,.29,3.71.54v.11c-2.9.3-5.79.67-8.7.87-7.89.53-15.79,1-23.69,1.46-2.2.13-4.4.22-6.6.28a.86.86,0,0,1-.67-.45C72.18,116.4,71.91,115.27,71.54,113.88Z" transform="translate(-0.07 -0.13)"/><path class="cls-1" d="M202.13,72.31a47.3,47.3,0,0,0-4.48-25.94c1.47-.13,2.7-.2,3.68.85a8.22,8.22,0,0,0,1.15,1,.9.9,0,0,0,1.54-.7c.09-.95,0-1.87-1.13-2.29,3.38-.54,5.8,1,6.07,4.17.11,1.28,0,2.57,0,3.85a4.33,4.33,0,0,1-1.16,2.82c-1.35,1.59-2.69,3.19-3.07,5.33a15,15,0,0,0-.23,2.28c0,1.75,0,3.51,0,5.27a2.39,2.39,0,0,1-.42,1.2c-.51.75-1.1,1.43-1.66,2.15Z" transform="translate(-0.07 -0.13)"/><path class="cls-1" d="M90.69,40.23c1.27-.3,2.57-.59,3.85-.93.3-.08.79-.35.78-.52,0-.54-.51-.49-.91-.45-.65.07-1.31.15-2,.17a28.17,28.17,0,0,1,11.89-4.11l-.19.08a36.34,36.34,0,0,0-12.39,8.74,74.52,74.52,0,0,0-9,11.27,42.23,42.23,0,0,0-2.6,5c-.85,1.81-1.58,3.68-2.4,5.51a1.69,1.69,0,0,1-.59.58,9.43,9.43,0,0,1-.88.51l.61.9-1.35,3.7h-.14c.05-.83.09-1.67.16-2.5.64-7.4,2.66-14.32,7-20.46a34.76,34.76,0,0,1,5.27-5.92,1,1,0,0,1,1.35-.14c.87.53,1.32.39,1.74-.49C90.91,40.95,90.76,40.65,90.69,40.23Z" transform="translate(-0.07 -0.13)"/><path class="cls-1" d="M119.64,125l8.31-.34c6.77-.27,13.54-.56,20.31-.82,4.25-.16,8.5-.24,12.76-.39.66,0,.88.18.85.83-.06,1.43.12,1.15-1.24,1.25-3.25.24-6.51.52-9.76.78-4.14.33-8.28.64-12.42,1-5.25.45-10.51.7-15.78.66-.44,0-1,.12-1.29-.11a7,7,0,0,1-1.19-1.65A10.59,10.59,0,0,1,119.64,125Z" transform="translate(-0.07 -0.13)"/><path class="cls-1" d="M136.19,114.26a4.13,4.13,0,0,1,1.19.26q4.06,2.29,8.09,4.66a7.79,7.79,0,0,1,1.3,1.1c.31.29.62.57,1,.23s.18-.76-.12-1.09l-4.37-4.94-.41-.5a14.94,14.94,0,0,1,6.23.31,40.83,40.83,0,0,1,11.3,5.46c.52.34.64,1.28,1,2.09h-1c-5.39,0-10.78,0-16.17,0a2,2,0,0,1-1.15-.47c-.76-.63-1.45-1.33-2.17-2l.21-.23c.72.64,1.43,1.29,2.16,1.92.31.27.6.85,1.08.36s0-.84-.3-1.15a25,25,0,0,0-5.31-3.75c-.95-.58-1.85-1.24-2.77-1.87Z" transform="translate(-0.07 -0.13)"/><path class="cls-1" d="M196.05,99.18c0,1.92,0,3.84,0,5.76a1.63,1.63,0,0,1-.25.68,26.83,26.83,0,0,1-5.23,7.14c-.81.76-.8,1.34-.07,2.18.27.32.58.61.87.91s.28.65-.17.79a20.55,20.55,0,0,1-2.57.65,29.86,29.86,0,0,1-3.63.32c1-1.22,1.36-2.86,3-3.56a2.47,2.47,0,0,0,1.52-2.64,3.41,3.41,0,0,1,.49-2c1.15-2.15,2.22-4.36,3.38-6.51.72-1.33,1.57-2.6,2.36-3.9Z" transform="translate(-0.07 -0.13)"/><path class="cls-1" d="M207.56,43.32c-.8,0-1.49,0-2.17,0a35.25,35.25,0,0,0-8,.82c-.44.09-.68,0-.85-.4-.28-.71-.63-1.39-.94-2.07,0-.08,0-.14.08-.16,2.73-1.43,5.36-3.1,8.58-3.25a1.15,1.15,0,0,1,1.3.79c.52,1.17,1.13,2.31,1.7,3.46C207.34,42.74,207.43,43,207.56,43.32Z" transform="translate(-0.07 -0.13)"/><path class="cls-1" d="M156.89,62c2.9,5.61,5.73,11,5.22,17.39l-3.53-.46V73.69a6.25,6.25,0,0,0,1.16.81,2.3,2.3,0,0,0,.92-.06c0-.29,0-.67-.16-.85a7.34,7.34,0,0,0-1.32-1.07,1.34,1.34,0,0,1-.66-1.15,35.42,35.42,0,0,0-1.63-8.94A2.43,2.43,0,0,1,156.89,62Z" transform="translate(-0.07 -0.13)"/><path class="cls-1" d="M165.78,117.93l15.52-2.22.13.17c-.34.55-.64,1.12-1,1.64-.11.15-.44.18-.67.19-.84.05-1.68.06-2.52.12a4.34,4.34,0,0,0-.87.29l.63.37-10.9,2.3Z" transform="translate(-0.07 -0.13)"/><path class="cls-1" d="M34.84,79.86a34.88,34.88,0,0,1-3.56.55c-3.75.21-7.51.23-11.26.5-4.41.32-8.81.82-13.21,1.24-.88.09-1.77.19-2.79.31,0-.71,0-1.36.12-2,0-.13.34-.31.54-.32.76,0,1.53,0,2.3,0l26.77-.46h1.07Z" transform="translate(-0.07 -0.13)"/><path class="cls-1" d="M5.34,78.95c7.73-1.1,34.88-1.89,38.3-1.17l0,.2a27.39,27.39,0,0,1-3.4.49c-5.31.12-10.63.15-15.95.23l-17.21.26Z" transform="translate(-0.07 -0.13)"/><path class="cls-1" d="M119.9,130.08c.29,1.6.6,3.19.85,4.79,1.12,7.21,1.11,14.49,1.07,21.76,0,.63-.1.69-1.26.77,0-9.1.08-18.21-1-27.28Z" transform="translate(-0.07 -0.13)"/><path class="cls-1" d="M151.5,53.81A14.31,14.31,0,0,1,154.45,59a44.26,44.26,0,0,1,1.76,10.26c0,.3,0,.59,0,.89a2.58,2.58,0,0,1-.07.34c-.72-.46-1.42-.86-2-1.35-.17-.14-.17-.54-.2-.82-.41-3.57-.75-7.16-1.24-10.72A24.58,24.58,0,0,0,151.5,53.81Z" transform="translate(-0.07 -0.13)"/><path class="cls-1" d="M160,89c-.69-.48-1.27-.94-1.91-1.31s-1.34-.62-2.06-1c.47-1.22.93-2.46,1.41-3.69a.49.49,0,0,1,.25-.25,9.67,9.67,0,0,1,4.33-.73A17.6,17.6,0,0,1,160,89Z" transform="translate(-0.07 -0.13)"/><path class="cls-1" d="M145.81,96.91c0-1-.45-1.28-1.42-.89a24.83,24.83,0,0,1-2.34.86,17.11,17.11,0,0,1,4.29-4.79c.23-.18.48-.35.71-.53A2.59,2.59,0,0,1,150,91a6.71,6.71,0,0,0,1.52.32C151,92.63,147.41,96.14,145.81,96.91Z" transform="translate(-0.07 -0.13)"/><path class="cls-1" d="M107.51,65.63c-1.43,1.36-2.83,2.74-4.29,4.07a16.28,16.28,0,0,1-2.48,2,10.51,10.51,0,0,1-2.21.76l-.61.18-.06.23,1.06.54c-3.32.3-7.29-.26-8.88-1.88l2.27-1.63a3.57,3.57,0,0,1,.25.55c.2.8.55,1,1.26.49.94-.62,1.85-1.27,2.8-1.87-.56.93-.48,1.19.73,1.65a6.39,6.39,0,0,0-1.06.85c-.17.21-.14.56-.2.85.3,0,.64.21.88.11.63-.27,1.2-.67,1.82-1a4.15,4.15,0,0,1,.78-.12,2.71,2.71,0,0,0,1.06-.35c1.29-1.07,2.52-2.23,3.8-3.31.94-.79,1.95-1.51,2.93-2.26Z" transform="translate(-0.07 -0.13)"/><path class="cls-1" d="M156.52,91.88a4.29,4.29,0,0,1-1.58,3,43.27,43.27,0,0,1-3.78,2.59,1,1,0,0,1-.61.11c-1-.15-2-.34-3-.5L152.44,92l1.14.36a4.94,4.94,0,0,0-.73.55,2.14,2.14,0,0,0-.29.61c.22,0,.48.05.65,0,.59-.35,1.14-.78,1.74-1.13a14,14,0,0,1,1.37-.62Z" transform="translate(-0.07 -0.13)"/><path class="cls-1" d="M188.78,47.48c-3.38-1.94-7-2.94-10.53-4.29l0-.18c1.59.23,3.2.41,4.78.7,1.33.25,2.64.6,3.95,1a4.61,4.61,0,0,0,3.5-.51c.91-.49,1.83-1,2.86-1.48l.51,2.37c-.77.17-1.47.31-2.15.48s-1.43.38-2.13.62c-.45.16-1,.35-.66,1.05C189,47.26,188.81,47.42,188.78,47.48Z" transform="translate(-0.07 -0.13)"/><path class="cls-1" d="M143.57,39a2.27,2.27,0,0,1-3.49-.39,11.36,11.36,0,0,0-2.55-1.87,3.46,3.46,0,0,0-2.86-.34.82.82,0,0,1-.55,0c-.79-.4-1.56-.84-2.37-1.28.25-.73.61-1.19,1.48-1a3.8,3.8,0,0,0,1.18,0A6,6,0,0,1,139,35.48C140.5,36.65,142,37.84,143.57,39Z" transform="translate(-0.07 -0.13)"/><path class="cls-1" d="M162.55,82.1a3,3,0,0,1,2.74,3.9.82.82,0,0,1-.29.4c-.82.59-1.64,1.18-2.49,1.72-.62.39-1.3.71-1.91,1Z" transform="translate(-0.07 -0.13)"/><path class="cls-1" d="M94.73,62.64c.44-.41.9-.8,1.33-1.22,1.93-1.84,3.8-3.74,5.8-5.51a37.26,37.26,0,0,1,7.6-5.18c-.1.14-.19.29-.3.43a38.15,38.15,0,0,1-7.63,6.65c-2,1.4-3.94,2.9-5.91,4.36-.27.2-.55.38-.82.57Z" transform="translate(-0.07 -0.13)"/><path class="cls-1" d="M197.43,93.56a97,97,0,0,0,4.5-17.77A25.78,25.78,0,0,1,197.43,93.56Z" transform="translate(-0.07 -0.13)"/><path class="cls-1" d="M142.3,70.61,138,75.84c-.44,0-1.25.32-1.72-.88l-.49,1.26c-1.36-.32-3-.22-3.74-2l4.44-3,.14.15c-.77.81-1.55,1.61-2.3,2.44-.32.35-1,.66-.57,1.26s1,.07,1.45-.14a37.2,37.2,0,0,0,6.4-4.12c.19-.14.39-.26.59-.38Z" transform="translate(-0.07 -0.13)"/><path class="cls-1" d="M131.11,98.09l1.55,1.43.19-.11a3.54,3.54,0,0,1-.42.18,28.68,28.68,0,0,1-7.84,1c-1.66,0-3.32,0-5,0a8,8,0,0,1-1.7-.44l0-.38A30.47,30.47,0,0,0,131.11,98.09Z" transform="translate(-0.07 -0.13)"/><path class="cls-1" d="M201.27,91.1a65.31,65.31,0,0,1-4.24,12l-.19,0c-.06-.88-.07-1.76-.19-2.63a4.79,4.79,0,0,1,1.14-3.85,40.68,40.68,0,0,0,2.7-4.5l.62-1.06Z" transform="translate(-0.07 -0.13)"/><path class="cls-1" d="M154.07,70.6c.69.45,1.26.79,1.79,1.19a1,1,0,0,1,.36.65c0,1.85,0,3.69,0,5.25l-2.6,1.76C154.48,76.62,154.11,73.67,154.07,70.6Z" transform="translate(-0.07 -0.13)"/><path class="cls-1" d="M126.51,52.19A51.62,51.62,0,0,1,115.3,61c1.18-1.11,2.39-2.19,3.53-3.33,1.73-1.73,3.46-3.46,5.1-5.27.6-.66,1.11-.89,1.88-.44A5.92,5.92,0,0,0,126.51,52.19Z" transform="translate(-0.07 -0.13)"/><path class="cls-1" d="M146.56,41l10.43.45,0,.21c-.7.12-1.41.21-2.1.35q-3.05.61-6.1,1.26a.9.9,0,0,1-1.12-.42c-.36-.58-.82-1.09-1.23-1.63Z" transform="translate(-0.07 -0.13)"/><path class="cls-1" d="M75.31,55.15a22.33,22.33,0,0,1-1.13,2.38C71.81,61.34,69.4,65.13,67,68.93c-.09.14-.2.26-.35.46C67.27,66.66,72.57,57.77,75.31,55.15Z" transform="translate(-0.07 -0.13)"/><path class="cls-1" d="M114.56,56.73c-4.82,4.44-9.52,9-14.8,12.94l-.17-.17a38.12,38.12,0,0,1,2.94-3c3.93-3.27,7.92-6.47,11.9-9.69A.4.4,0,0,1,114.56,56.73Z" transform="translate(-0.07 -0.13)"/><path class="cls-1" d="M138.82,34.42c3.26.26,6,1.45,7.74,4.32-.07.06-.1.1-.14.11a2.82,2.82,0,0,1-3.22-1,38.78,38.78,0,0,0-3.8-3.05C139.22,34.68,139,34.56,138.82,34.42Z" transform="translate(-0.07 -0.13)"/><path class="cls-1" d="M209.55,39.21a9.35,9.35,0,0,1,3.83,2.56c1,1.07,1,1.07,1,2.53l-1.21,1.05a2.58,2.58,0,0,1-1.35-1.73A11.57,11.57,0,0,0,209.55,39.21Z" transform="translate(-0.07 -0.13)"/><path class="cls-1" d="M149.59,86.68a8.79,8.79,0,0,1,.84-1.36,11,11,0,0,1,1.35-1.15c.39-.31.68-.59,1.33-.28s1.24,0,2,0c-.3.88-.56,1.7-.87,2.5a.58.58,0,0,1-.42.31C152.46,86.69,151.14,86.68,149.59,86.68Z" transform="translate(-0.07 -0.13)"/><path class="cls-1" d="M91.44,68c-.47.58-.85,1.07-1.25,1.55-.25.3-.52.27-.83,0a3.83,3.83,0,0,1-1.76-3.91c.19,0,.46,0,.61.08.47.36.83.15,1.19-.15a11.81,11.81,0,0,1,1.94-1.36c-.52.55-1.08,1.07-1.55,1.66a2.69,2.69,0,0,0-.28,1c.34,0,.73.12,1,0,.78-.4,1.5-.9,2.35-1.24l-1.23,1.08C91.16,67,90.88,67.47,91.44,68Z" transform="translate(-0.07 -0.13)"/><path class="cls-1" d="M107.17,117.37c-2.51.61-5,1.27-7.54,1.8a8.07,8.07,0,0,1-2.21-.13l-6.54-.53,16.26-1.21Z" transform="translate(-0.07 -0.13)"/><path class="cls-1" d="M164.41,120.55a10.62,10.62,0,0,1-1.74-1,32.25,32.25,0,0,0-6.48-4.25c-1-.54-2.13-1-3.15-1.68l6.43,1.88-.54.48a4.07,4.07,0,0,0,3.87,1.86c1.19-.09,1.51.28,1.6,1.47C164.43,119.64,164.41,120,164.41,120.55Z" transform="translate(-0.07 -0.13)"/><path class="cls-1" d="M186.72,108.12c.5.84.91,1.52,1.29,2.2a.62.62,0,0,1,0,.5c-.59,1.13-1,2.49-2.52,2.73-.51.08-1,.21-1.64.35Z" transform="translate(-0.07 -0.13)"/><path class="cls-1" d="M139,122.81c-18.27,1-24.23,1.2-25,.57C122.33,123.07,130.66,122.74,139,122.81Z" transform="translate(-0.07 -0.13)"/><path class="cls-1" d="M106.79,72.63l14.94-11.49C119.6,64.11,110,71.48,106.79,72.63Z" transform="translate(-0.07 -0.13)"/><path class="cls-1" d="M128.42,69.94l.25-1.19c1.31-1,2.52-1.95,3.78-2.84,2.26-1.6,4.54-3.16,6.82-4.73.15-.1.32-.18.48-.27l.12.17-11.32,9Z" transform="translate(-0.07 -0.13)"/><path class="cls-1" d="M144,92.52q-1.9,2.36-3.79,4.72a1.19,1.19,0,0,1-.5.41,15.34,15.34,0,0,1-2.87.63c.26-.27.5-.56.78-.81,1.78-1.6,3.56-3.21,5.36-4.78a3.09,3.09,0,0,1,1-.37Z" transform="translate(-0.07 -0.13)"/><path class="cls-1" d="M132.27,27.94a41.18,41.18,0,0,1,8.39-4.32C138.44,26.12,136,28.15,132.27,27.94Z" transform="translate(-0.07 -0.13)"/><path class="cls-1" d="M146.09,45.46l-3.34-4.22c2-.54,2.88-.1,4.42,2.27-.38.33-.94.65-.48,1.11l-.61.85Z" transform="translate(-0.07 -0.13)"/><path class="cls-1" d="M146.08,45.48a1.88,1.88,0,0,1,1.91.87,32.67,32.67,0,0,1,2.29,3.36,38,38,0,0,1,2.27,4.76c-.12-.14-.26-.28-.37-.43-1.39-2-2.76-4-4.15-6-.63-.89-1.29-1.75-1.94-2.62Z" transform="translate(-0.07 -0.13)"/><path class="cls-1" d="M210.38,43.74c-.6-.12-1.13-.22-1.65-.34a.57.57,0,0,1-.35-.24c-.77-1.54-1.52-3.08-2.29-4.67C207.77,38.63,210,41.33,210.38,43.74Z" transform="translate(-0.07 -0.13)"/><path class="cls-1" d="M111,34.19a28.82,28.82,0,0,1-3.48,1,27.34,27.34,0,0,0-6.84,2.16,2.43,2.43,0,0,1-.75.23C103.33,35.54,106.71,33.45,111,34.19Z" transform="translate(-0.07 -0.13)"/><path class="cls-1" d="M77.63,69.48l-.31,6.11a5.6,5.6,0,0,1-1.3-.33.86.86,0,0,1-.34-.75c.42-1.57.9-3.12,1.37-4.67.07-.23.17-.45.26-.68Z" transform="translate(-0.07 -0.13)"/><path class="cls-1" d="M119.84,98.56c3.69-1.54,7.51-1.06,11.12-1.88C127.4,97.79,123.85,98.93,119.84,98.56Z" transform="translate(-0.07 -0.13)"/><path class="cls-1" d="M129.48,31c0-1.79,1.64-1.87,2.28-2.74,1.63,1,3.21.69,4.79.29l.07.21-5.26,2.17-.12-.22a2.31,2.31,0,0,0,.34-.63,3.15,3.15,0,0,0,0-.8c-.26.06-.61,0-.77.21A19.13,19.13,0,0,0,129.48,31Z" transform="translate(-0.07 -0.13)"/><path class="cls-1" d="M113.82,55.75c1.33-1.82,3.14-3.25,4.15-5.43l2.4-.11,0,.14Z" transform="translate(-0.07 -0.13)"/><path class="cls-1" d="M141.7,62.42l-8.84,7.28-.15-.18c2.22-3.3,5.94-4.81,8.8-7.34Z" transform="translate(-0.07 -0.13)"/><path class="cls-1" d="M105.56,36.48l-12,6.47C97.25,40.21,101,37.73,105.56,36.48Z" transform="translate(-0.07 -0.13)"/><path class="cls-1" d="M78.87,77.21c1.54.6,3,1.13,4.45,1.76.25.11.33.6.49.91l-.17.13L81,79.2l-1.14-.32C78.71,78.58,78.7,78.59,78.87,77.21Z" transform="translate(-0.07 -0.13)"/><path class="cls-1" d="M137.58,71.81a99.17,99.17,0,0,1,9.25-7.61A54.49,54.49,0,0,1,137.58,71.81Z" transform="translate(-0.07 -0.13)"/><path class="cls-1" d="M205.54,81.2c.26,3.3-1.15,6-2.28,8.71C203.42,86.91,204.47,84.15,205.54,81.2Z" transform="translate(-0.07 -0.13)"/><path class="cls-1" d="M145,62.82l-8.12,7a26.78,26.78,0,0,1,7.92-7.11Z" transform="translate(-0.07 -0.13)"/><path class="cls-1" d="M133.7,55.43c-.68.42-1.1,1-1.92.53-.2-.12-.67.07-1,.22-.95.52-1.87,1.1-2.89,1.58l.5-.51c.84-.87,1.71-1.71,2.52-2.61.29-.32.5-.39.87-.18C132.39,54.78,133,55.06,133.7,55.43Z" transform="translate(-0.07 -0.13)"/><path class="cls-1" d="M185.44,115.19c-.57.85-1.06,1.62-1.59,2.35-.1.14-.39.17-.59.18-.51,0-1,0-1.56,0C182.43,115.73,183.07,115.28,185.44,115.19Z" transform="translate(-0.07 -0.13)"/><path class="cls-1" d="M128.15,31.78l-.34,1.36-7.95-.75,0-.08c1.43-.15,2.86-.32,4.29-.42.28,0,.6.43.87.4s.59-.37.88-.58l.45,1c.29-.18.58-.39.89-.55A9.75,9.75,0,0,1,128.15,31.78Z" transform="translate(-0.07 -0.13)"/><path class="cls-1" d="M127.58,69.31,124.82,68c.53-.18.88-.28,1.22-.42a3.68,3.68,0,0,0,1-.45c1.13-.91,2.23-1.86,3.35-2.79a1.56,1.56,0,0,1,.77-.37c-.2.22-.38.44-.59.65-.89.88-1.78,1.77-2.69,2.63a.94.94,0,0,0-.31,1.23A2.42,2.42,0,0,1,127.58,69.31Z" transform="translate(-0.07 -0.13)"/><path class="cls-1" d="M144.48,100.68l-6.09,2.18a.84.84,0,0,1,.63-1.06,6.78,6.78,0,0,0,1.64-.69A4.54,4.54,0,0,1,144.48,100.68Z" transform="translate(-0.07 -0.13)"/><path class="cls-1" d="M130.07,103.65c-1.5.37-3,.75-4.5,1.1-.14,0-.37-.11-.5-.23-.6-.56-1.14-1.24-1.74-1H130Z" transform="translate(-0.07 -0.13)"/><path class="cls-1" d="M97,86.12,86,80.77l.31-.67c.32.83,1,.72,1.53,1,3.06,1.6,6,3.34,9,5a.05.05,0,0,1,0,.05Z" transform="translate(-0.07 -0.13)"/><path class="cls-1" d="M121.82,158.33c0,1.54,0,3,0,4.39,0,.14-.19.27-.29.41-.14-.13-.39-.24-.41-.39-.21-1.21-.44-2.43-.54-3.65C120.5,158.22,121.32,158.61,121.82,158.33Z" transform="translate(-0.07 -0.13)"/><path class="cls-1" d="M203.28,74l1.28-1.48-.25,7h-.25C203.73,77.59,204.18,75.57,203.28,74Z" transform="translate(-0.07 -0.13)"/><path class="cls-1" d="M123.46,111.87h5.11l.07.19a11.86,11.86,0,0,1-3,1c-.72,0-1.48-.6-2.23-.94Z" transform="translate(-0.07 -0.13)"/><path class="cls-1" d="M126.71,55.11l-.31-1.24,1.06-1.33,2.38,1c-.4.4-.61.77-1.22.54-.24-.09-.63.18-.92.34S127,54.89,126.71,55.11Z" transform="translate(-0.07 -0.13)"/><path class="cls-1" d="M84.22,42.05a12.23,12.23,0,0,1-3.38,4.86C81.06,44.72,82.63,43.5,84.22,42.05Z" transform="translate(-0.07 -0.13)"/><path class="cls-1" d="M112.34,62.07l-.77-.43,6.55-5.13.1.11Z" transform="translate(-0.07 -0.13)"/><path class="cls-1" d="M92.57,56.47,88,59.93l-.16-.05c.39-.75.77-1.51,1.16-2.25a.31.31,0,0,1,.18-.13Z" transform="translate(-0.07 -0.13)"/><path class="cls-1" d="M141.15,41.06,135.25,37C136.53,36.37,139.86,39.3,141.15,41.06Z" transform="translate(-0.07 -0.13)"/><path class="cls-1" d="M144.81,99c1.34-1.45,2.93-.82,4.62-.74C147.94,99.74,146.31,98.87,144.81,99Z" transform="translate(-0.07 -0.13)"/><path class="cls-1" d="M188.25,107.88c-.1,0-.14,0-.15,0-1.22-1-1.22-1,.07-2a15.17,15.17,0,0,1,2-1.34Z" transform="translate(-0.07 -0.13)"/><path class="cls-1" d="M129.5,51.76l6.58,2.3c-.58.47-1,.66-1.7.3-1.63-.88-3.3-1.67-5-2.49Z" transform="translate(-0.07 -0.13)"/><path class="cls-1" d="M194.87,41.69l1.22,2.69-1.46.44a15.63,15.63,0,0,1-.48-2.2C194.14,42.37,194.56,42.08,194.87,41.69Z" transform="translate(-0.07 -0.13)"/><path class="cls-1" d="M129.47,33.17a1.14,1.14,0,0,1,1.47-.93c1,.23,2.07.49,3.11.74l0,.19Z" transform="translate(-0.07 -0.13)"/><path class="cls-1" d="M148.23,66.11l-4.29,4.11c.16-1.38.15-1.39,1.17-2.14s2-1.42,3-2.14Z" transform="translate(-0.07 -0.13)"/><path class="cls-1" d="M209.08,44.84c1.39.07,1.72.38,1.76,1.58a13.47,13.47,0,0,1-.1,2.17Z" transform="translate(-0.07 -0.13)"/><path class="cls-1" d="M75.33,76.38c1.95.18,2.14.39,1.89,1.93-.49,0-1-.06-1.5-.15a.59.59,0,0,1-.38-.4A12.49,12.49,0,0,1,75.33,76.38Z" transform="translate(-0.07 -0.13)"/><path class="cls-1" d="M144.23,22.39a17.4,17.4,0,0,1-5.49,4.93c.82-.75,1.68-1.48,2.46-2.27s1.24-1.47,1.9-2.17a6,6,0,0,1,1-.69Z" transform="translate(-0.07 -0.13)"/><path class="cls-1" d="M140,75.74l3.91-3.08C142.95,74.55,141.59,76.26,140,75.74Z" transform="translate(-0.07 -0.13)"/><path class="cls-1" d="M150.75,65.65c0-.09,0,0,0,.16,0,1.26,0,1.24-1.11,1.73a15.92,15.92,0,0,1-2,.87Z" transform="translate(-0.07 -0.13)"/><path class="cls-1" d="M132.45,104.43c-.19.15-.35.38-.56.44-1.3.37-2.61.73-3.92,1a5.48,5.48,0,0,1-1.22,0v-.18l5.54-1.54Z" transform="translate(-0.07 -0.13)"/><path class="cls-1" d="M188.85,43.71l3.92-2.83c.41.57.38.86-.17,1.14-1,.5-1.93,1.07-2.9,1.61-.22.12-.47.21-.71.31Z" transform="translate(-0.07 -0.13)"/><path class="cls-1" d="M138.9,57.18a3.58,3.58,0,0,0,.17-.63c0-.27.08-.64-.06-.79a1.1,1.1,0,0,0-.8-.15,10.33,10.33,0,0,1-1.2.16c.83-.79,2.41-.66,4,.25Z" transform="translate(-0.07 -0.13)"/><path class="cls-1" d="M70.23,73.21l3.67-.62V73.8l-3.65-.44Z" transform="translate(-0.07 -0.13)"/><path class="cls-1" d="M80,63.87a21.27,21.27,0,0,1,3.29-7.37Z" transform="translate(-0.07 -0.13)"/><path class="cls-1" d="M157.33,72.75a27.64,27.64,0,0,1-.09,5.41H157v-5.4Z" transform="translate(-0.07 -0.13)"/><path class="cls-1" d="M137,102.57l.29.63-3.49,1.09-.18-.16c.14-.17.25-.44.43-.51C135,103.26,136,102.94,137,102.57Z" transform="translate(-0.07 -0.13)"/><path class="cls-1" d="M97.81,50.81a11.11,11.11,0,0,1-3.76,2.73A9.7,9.7,0,0,1,97.81,50.81Z" transform="translate(-0.07 -0.13)"/><path class="cls-1" d="M109,68.42a8.19,8.19,0,0,1-4.59,3.19Z" transform="translate(-0.07 -0.13)"/><path class="cls-1" d="M119.36,53.91c.9-1.12,1.68-2.15,2.54-3.1.15-.16.66,0,1,0L123,51Z" transform="translate(-0.07 -0.13)"/><path class="cls-1" d="M72.38,119.85l3.1.67-2.19.57C72.58,121.26,72.22,120.81,72.38,119.85Z" transform="translate(-0.07 -0.13)"/><path class="cls-1" d="M137.11,93.87c-.59.48-1.19,1-1.81,1.47a5,5,0,0,1-.72.39c0-.13-.16-.31-.11-.37a3.15,3.15,0,0,1,.69-.75c.17-.12.45-.07.68-.09l0-.19-1-.46Z" transform="translate(-0.07 -0.13)"/><path class="cls-1" d="M149.8,60.46l-3.27-2.71.19-.23A9.77,9.77,0,0,1,150,60.23Z" transform="translate(-0.07 -0.13)"/><path class="cls-1" d="M111.5,52.62a23.19,23.19,0,0,1,1.84-1.85c.2-.16.69,0,1,.06a12.47,12.47,0,0,1,1.25.42l-.83.79c-.24-1.1-.56-1.22-1.47-.61l-1.76,1.22S111.51,52.63,111.5,52.62Z" transform="translate(-0.07 -0.13)"/><path class="cls-1" d="M117.21,34.11l-5.37,1.05A7.53,7.53,0,0,1,117.21,34.11Z" transform="translate(-0.07 -0.13)"/><path class="cls-1" d="M142.32,56.51l1.13.56-3.08,2-.1-.11c.37-.36.76-.7,1.09-1.09S142,57,142.32,56.51Z" transform="translate(-0.07 -0.13)"/><path class="cls-1" d="M134,70.82l-2.7,2.55-.66-.62,3.31-2Z" transform="translate(-0.07 -0.13)"/><path class="cls-1" d="M74.37,54.63l1.27-3.33A2.91,2.91,0,0,1,74.37,54.63Z" transform="translate(-0.07 -0.13)"/><path class="cls-1" d="M153.38,80.66l2.45-2.15c.23.78.06,1.11-.47,1.34s-1.23.63-1.84,1Z" transform="translate(-0.07 -0.13)"/><path class="cls-1" d="M147.15,60l-3.08,1.85,2.5-2.17-.18-.29Z" transform="translate(-0.07 -0.13)"/><path class="cls-1" d="M122.15,67.58c.75-.52,1.15-1.32,2.15-1.15.28,0,.62-.3,1-.49C124.09,67.35,123.37,67.75,122.15,67.58Z" transform="translate(-0.07 -0.13)"/><path class="cls-1" d="M136.6,110.35h-4.74v-.23h4.75Z" transform="translate(-0.07 -0.13)"/><path class="cls-1" d="M198.15,39.06c-.89.47-1.79.92-2.67,1.41-.45.25-.61.1-.68-.42l3.31-1.15Z" transform="translate(-0.07 -0.13)"/><path class="cls-1" d="M129.33,70.72,131.51,69l.18.17-2,2.28Z" transform="translate(-0.07 -0.13)"/><path class="cls-1" d="M119.08,159.1l-.24,3.33h-.11c-.09-.92-.17-1.84-.29-2.76C118.38,159.18,118.57,159,119.08,159.1Z" transform="translate(-0.07 -0.13)"/><path class="cls-1" d="M70.16,117l-1.62-2.78C69.31,114.34,70.26,115.93,70.16,117Z" transform="translate(-0.07 -0.13)"/><path class="cls-1" d="M137.71,94.82l-2.43,2.63A3.89,3.89,0,0,1,137.71,94.82Z" transform="translate(-0.07 -0.13)"/><path class="cls-1" d="M101.51,54.5l-3.9,3.27-.15-.17,3.87-3.31Z" transform="translate(-0.07 -0.13)"/><path class="cls-1" d="M146.65,62.78l1.54-1.89.75.54-2.22,1.41Z" transform="translate(-0.07 -0.13)"/><path class="cls-1" d="M144.09,116.71l-2.49-1.44C143,114.86,143.51,115.84,144.09,116.71Z" transform="translate(-0.07 -0.13)"/><path class="cls-1" d="M110.86,54.79c-.75.69-1.49,1.4-2.26,2.08-.09.08-.28,0-.42,0,.05-.14.06-.33.16-.41.79-.62,1.6-1.23,2.4-1.84Z" transform="translate(-0.07 -0.13)"/><path class="cls-1" d="M89.87,62.16l-2.19,1.94-.18-.19c.19-1.22,1.57-1.16,2.22-1.89Z" transform="translate(-0.07 -0.13)"/><path class="cls-1" d="M103.49,49.57l-2,.9-.32-.79,2.36-.28Z" transform="translate(-0.07 -0.13)"/><path class="cls-1" d="M85.47,77l.64,1.59-.12.18L84.83,78Z" transform="translate(-0.07 -0.13)"/><path class="cls-1" d="M129.52,35.45l-3.83-1.14A7.39,7.39,0,0,1,129.52,35.45Z" transform="translate(-0.07 -0.13)"/><path class="cls-1" d="M150.35,89.14a3.93,3.93,0,0,1-1,.17,2,2,0,0,1-.84-.32c-.09-.06-.06-.3-.09-.46.17,0,.38-.11.52-.06C149.43,88.65,149.86,88.89,150.35,89.14Z" transform="translate(-0.07 -0.13)"/><path class="cls-1" d="M145.59,89.83l1.48-1,.33.88-1.69.35Z" transform="translate(-0.07 -0.13)"/><path class="cls-1" d="M119.81,168.07c-.23-1,.54-.9,1-1.28l.34.88Z" transform="translate(-0.07 -0.13)"/><path class="cls-1" d="M213.27,48.94c0,1,.23,2-.6,2.92l.42-2.92Z" transform="translate(-0.07 -0.13)"/><path class="cls-1" d="M104.4,73.84l-2,.36C103.31,73.37,104.07,73.2,104.4,73.84Z" transform="translate(-0.07 -0.13)"/><path class="cls-1" d="M132,58.35l-2.07,1.87-.22-.26,2.15-1.81Z" transform="translate(-0.07 -0.13)"/><path class="cls-1" d="M43.54,79.87l-2.93.28,0-.24,2.92-.36Z" transform="translate(-0.07 -0.13)"/><path class="cls-1" d="M126.36,71.09l2.14,1.38-.18.28-2.08-1.48Z" transform="translate(-0.07 -0.13)"/><path class="cls-1" d="M129.46,108.12l1.85.56C130.45,109.09,130.08,109,129.46,108.12Z" transform="translate(-0.07 -0.13)"/><path class="cls-1" d="M138,100.45l-2.51.77-.06-.17,2.45-.95Z" transform="translate(-0.07 -0.13)"/><path class="cls-1" d="M120.08,164.41c.62,1.22.59,1.47-.2,1.75Z" transform="translate(-0.07 -0.13)"/><path class="cls-1" d="M162.87,89l1.81-1.25C164.44,88.74,163.87,89,162.87,89Z" transform="translate(-0.07 -0.13)"/><path class="cls-1" d="M146.39,90.79l-1.8,1.36-.17-.24A3.72,3.72,0,0,1,146.39,90.79Z" transform="translate(-0.07 -0.13)"/><path class="cls-1" d="M136.17,111.57c-1.26.46-1.29.59-1.92,0Z" transform="translate(-0.07 -0.13)"/><path class="cls-1" d="M84,118.8l3.52-.17v.14l-3.52.17Z" transform="translate(-0.07 -0.13)"/><path class="cls-1" d="M117.31,67.82l1-.75.26.68-1.17.24Z" transform="translate(-0.07 -0.13)"/><path class="cls-1" d="M149.37,63.73l1.11-1C150.81,63.34,150.71,63.43,149.37,63.73Z" transform="translate(-0.07 -0.13)"/><path class="cls-1" d="M157.11,69.05l.2,1.95-.2,0Z" transform="translate(-0.07 -0.13)"/><path class="cls-1" d="M143.9,59.23c.32-.39.33-1.21,1-1.05l.16.22Z" transform="translate(-0.07 -0.13)"/><path class="cls-1" d="M38.49,25.56a39,39,0,0,0,.64,4.73,13.25,13.25,0,0,0,6.93,8.81,8,8,0,0,0,3.78.92h4.52a1.29,1.29,0,0,1-.22.18A21.2,21.2,0,0,1,39,42.1a12,12,0,0,1-7-4.67,7.77,7.77,0,0,1-1.48-4.73,1.12,1.12,0,0,1,.29-.78c2.5-2.13,5-4.23,7.55-6.34C38.41,25.56,38.47,25.57,38.49,25.56Z" transform="translate(-0.07 -0.13)"/><path class="cls-1" d="M44.17,12.61c-1,1.36-2,2.67-2.88,4.1-1.32,2.23-2.6,4.5-2.65,7.22a1,1,0,0,1-.37.59q-3.72,3.11-7.47,6.2a1.9,1.9,0,0,1-.28.14,16.64,16.64,0,0,1,1.76-8.18c1.85-3.77,4.78-6.59,8.11-9.26.16,1,.5.68,1,.39.88-.52,1.82-.92,2.74-1.38Z" transform="translate(-0.07 -0.13)"/><path class="cls-1" d="M68.74,111.35c-.68,0-1.21-.64-2.25-2.86Z" transform="translate(-0.07 -0.13)"/><path d="M118.45,89.72h-.15c-2.13,0-2.45-.4-2-2.49a7.58,7.58,0,0,1,2-3.74,4,4,0,0,1,5.32-.08,1.87,1.87,0,0,1,.23,2.45,30,30,0,0,1-3.6,3.57c-.42.36-1.22.27-1.84.38Zm-.1-3c0,1.25.1,1.38,1.2,1.4A2.79,2.79,0,0,0,122.24,86c.33-1.59-.22-2.27-1.87-2.23-.35,0-.84.07-1,.3A4.3,4.3,0,0,0,118.35,86.76Zm2.25-3.66c.64.34,1.46.52,1.85,1a5.1,5.1,0,0,1,.47,2,1.84,1.84,0,0,0,.5-2.13A2.6,2.6,0,0,0,120.61,83.1Zm-2.12,5.74c-1.23-.57-.75-1.58-1-2.39a4.94,4.94,0,0,0-.35,1.19C117,88.78,117.08,88.87,118.49,88.84Z" transform="translate(-0.07 -0.13)"/><path class="cls-1" d="M118.35,86.76a4.3,4.3,0,0,1,1-2.72c.17-.23.66-.3,1-.3,1.65,0,2.2.65,1.87,2.23a2.79,2.79,0,0,1-2.69,2.19C118.45,88.14,118.32,88,118.35,86.76Z" transform="translate(-0.07 -0.13)"/><path class="cls-1" d="M120.61,83.1a2.6,2.6,0,0,1,2.82.9,1.84,1.84,0,0,1-.5,2.13,5.1,5.1,0,0,0-.47-2C122.07,83.62,121.25,83.44,120.61,83.1Z" transform="translate(-0.07 -0.13)"/><path class="cls-1" d="M118.49,88.84c-1.41,0-1.5-.06-1.33-1.2a4.94,4.94,0,0,1,.35-1.19C117.74,87.26,117.26,88.28,118.49,88.84Z" transform="translate(-0.07 -0.13)"/></g></g></g></svg>