<svg xmlns="http://www.w3.org/2000/svg" viewBox="0 0 411.16 321.54"><defs><style>.cls-1{fill:#536db7;}.cls-2{fill:#3a539b;}.cls-3{fill:#009444;}.cls-4{fill:#fff3c0;}.cls-5{fill:#fffdee;}.cls-6{fill:#f7941d;}.cls-7,.cls-8{fill:#fff;stroke:#000;stroke-miterlimit:10;}.cls-7{stroke-width:1.34px;}.cls-8{stroke-width:1.36px;}.cls-9{fill:#d35461;}.cls-10{fill:#af1515;}.cls-11{fill:#dd2c2c;}.cls-12{fill:#144926;}.cls-13{fill:#ffe98a;}.cls-14{fill:#ffdf57;}.cls-15{fill:#fff099;}.cls-16{fill:#dae7ef;}</style></defs><title>night_before</title><g id="Layer_2" data-name="Layer 2"><g id="Layer_2-2" data-name="Layer 2"><path class="cls-1" d="M249.55,0H161.62C72.73,0,0,72.35,0,160.77H0c0,88.42,72.73,160.77,161.62,160.77h87.93c88.89,0,161.62-72.35,161.62-160.77h0C411.16,72.35,338.44,0,249.55,0Z"/><path class="cls-2" d="M411.16,160.77c0-52.91-26.06-100-66-129.39L18.44,192.47l48.48,98.32a161.05,161.05,0,0,0,94.7,30.74h87.93C338.44,321.54,411.16,249.19,411.16,160.77Z"/><path class="cls-3" d="M143.86,71.43c-33.45,1.39,36.32,13.8,63.44,9.2,34-5.77,52.78-20.1,57.14-32.44,8-22.77-25-35.59-39.22-24C201.25,43.82,161.3,70.7,143.86,71.43Z"/><path class="cls-4" d="M389.62,192H126.19a61,61,0,0,0-60.77,60.77v23.91A60.2,60.2,0,0,0,67.19,291a161,161,0,0,0,94.42,30.55h87.93c77.18,0,142.15-54.56,157.93-126.81A60.24,60.24,0,0,0,389.62,192Z"/><path class="cls-5" d="M385,161.74c.41-20.62-1-31.48-5.27-47.63,3.77-1.89,6.73-5.81,6.73-9,0-4.41-5.52-7.26-11.14-7.26a10.44,10.44,0,0,0-7.92,3.92c-21.45-16.21-53.92-20.55-83-18.25-51.58,4.09-87.86,26.07-96.68,66-5.37,24.34,2.32,61.4,63.16,78,29.66,8.08,71,9.82,101.19-6a11.27,11.27,0,0,0,4.72,7.1c4.59,3.24,12.42,1.73,15-1.87s-.31-9.12-4.9-12.36a9.44,9.44,0,0,0-2.15-1.1C382.11,192.73,384.53,185.95,385,161.74Z"/><path class="cls-6" d="M297.36,153.19c-7.74,45.35-43.06,68.62-86.11,63.78s-74.31-41.24-69.8-81.3S184.5,67,227.56,71.88,304.09,113.76,297.36,153.19Z"/><polygon class="cls-3" points="237.56 78.69 232.48 76.51 234.66 62.71 243.38 63.44 237.56 78.69"/><path d="M228.61,201.69c24.94,1.21,36.32-11.86,36.56-2.66,0,1.8-18.89,10.65-39.95,8-19.1-2.42-40.41-20.5-31.72-23.24C198.1,182.32,209.37,200.75,228.61,201.69Z"/><path class="cls-7" d="M276.95,178.36c-8,.74-14.1,5.81-14.06,11.49-1.49-1.28-2.84-1.83-3.69-1.33-1.74,1-.79,5.9,2.12,10.94s6.67,8.31,8.41,7.3c1-.59,1.09-2.56.4-5.09,3.33.27,7.1-1.6,9.83-2.63,7.91-3,13.65-5.24,13.1-11.23S285.28,177.59,276.95,178.36Z"/><path class="cls-8" d="M276.06,178.93c.4,6,8.21,3.84,16.44,6.54,13.28,4.36,13.17-2.76,13.91-8.72,1.26-10.17-4.72-13.07-13.28-13.07S275.42,169.48,276.06,178.93Z"/><ellipse class="cls-9" cx="247.11" cy="165.15" rx="9.88" ry="5.99" transform="translate(46.73 384.67) rotate(-81.37)"/><path class="cls-10" d="M161.61,321.54h87.93l1,0,2.77-71.64L36.43,262.12A161.8,161.8,0,0,0,161.61,321.54Z"/><path class="cls-11" d="M47.1,273.92l187.32-16.3L47,168.52s-14.53-4.36-43.1-2.91c-1.23.06-2.5.15-3.79.26A159.89,159.89,0,0,0,47.1,273.92Z"/><path class="cls-12" d="M269.89,107c-9.06-2.06-37.59-7.72-50.69-9.23-9.63-1.11-33,1.19-36.47,18.67a120.89,120.89,0,0,0-18-1.23,102.41,102.41,0,0,0-18.37,1.88c-.6,1.44-1.22,2.87-1.72,4.36,5.34-.32,12.75-1.4,20.08-1.4,6,0,12.4.84,17.59,1.3,0,.15,0,.27,0,.42.66,20.14,18.11,27.38,33.28,27.68,10.78.21,17.11-10,33-9.7,11.6,1.38,9.83,10.54,21.37,15.37,17,7.11,26.13-5.67,28.36-17.84C301.63,118.75,280.25,109.4,269.89,107Z"/><path class="cls-13" d="M293.64,315.37a162.69,162.69,0,0,0,96.6-75.81l-90,11.28Z"/><path class="cls-13" d="M227.09,224.06l-93.38,13.88a6.47,6.47,0,0,1-6.95-3.85c-3.59-8.68-14.33-28-42.94-44.26a452.48,452.48,0,0,0-43.39-21.95c-6.29-2.73-20.53-1.3-7.94-8.08,18.78-10.11,89.61-8.76,90.07-8.72,15.5,1.45,28.65,3.82,55.69,16.46,38.41,18,46.82,36.15,53.38,46.51A6.54,6.54,0,0,1,227.09,224.06Z"/><path class="cls-14" d="M219.41,255.68c3.3,10.89,3.23,45.12,2.85,65.86h27.3A160.9,160.9,0,0,0,304.17,312c6.24-27.2,5.6-67.43,2.4-71.34C292.46,223.42,213.06,234.75,219.41,255.68Z"/><path class="cls-13" d="M219.89,258.1s-3.14-8.53-7.26-10.65c-17.73-9.12-82.81-9.68-82.81-9.68l99.75-18.89s49.57,3.06,58.59,6.78c24.7,10.17,20.34,23.73,20.34,23.73Z"/><path class="cls-15" d="M109.08,105.36c.89-.31,1.75-.67,2.6-1C96.2,103.93,82.11,94.6,77,79.74c-6.34-18.51,3.6-38.8,22.28-46.64a40.61,40.61,0,0,0-14.22,2.17c-20.37,7-31.51,28.32-24.88,47.67S88.71,112.33,109.08,105.36Z"/><polygon class="cls-15" points="51.34 120.57 42.63 119.03 36.44 125.34 35.21 116.58 27.3 112.64 35.24 108.76 36.55 100.02 42.69 106.38 51.41 104.92 47.26 112.73 51.34 120.57"/><polygon class="cls-15" points="79.14 133.76 74.66 130.97 69.81 133.07 71.09 127.95 67.59 123.99 72.86 123.62 75.54 119.07 77.52 123.97 82.68 125.11 78.63 128.51 79.14 133.76"/><ellipse class="cls-16" cx="368.07" cy="164.16" rx="45.52" ry="11.62" transform="translate(145.39 500.07) rotate(-80.5)"/></g></g></svg>