<svg xmlns="http://www.w3.org/2000/svg" viewBox="0 0 870.88 1027.46"><defs><style>.cls-1{fill:#8ec1db;}.cls-2{fill:#603913;}.cls-3{fill:#7c5235;}.cls-4{fill:#875837;}.cls-5{fill:#1b120e;}.cls-6{fill:#a97c50;}.cls-7{fill:#8f5d3a;}.cls-8{fill:#c49a6c;}.cls-9{fill:#f2dbbb;}.cls-10{fill:#3c2415;}.cls-11{fill:#26160e;}.cls-12{fill:#fff;}.cls-13{fill:#009444;}.cls-14{fill:#231f20;}.cls-15{fill:#e8ecee;stroke:#231f20;stroke-miterlimit:10;stroke-width:2.07px;}.cls-16{fill:#c7377f;}.cls-17{fill:#f7941d;}.cls-18{fill:#f36e24;}.cls-19{fill:#d35461;}.cls-20{fill:#d64387;}.cls-21{fill:#ec5291;}.cls-22{fill:#dd2f7e;}.cls-23{fill:#f4edf1;}.cls-24{fill:#cbc9e5;}</style></defs><title>Asset 5</title><g id="Layer_2" data-name="Layer 2"><g id="Layer_12" data-name="Layer 12"><ellipse class="cls-1" cx="495.15" cy="979.09" rx="375.73" ry="33.46"/><polygon class="cls-2" points="500.06 1017.57 126.11 1024.99 1.73 989.95 425.69 989.95 500.06 1017.57"/><rect class="cls-3" x="5.56" y="73.71" width="297.49" height="917.02"/><path class="cls-4" d="M303.05,940.22,289.8,956.71,267,928.33l25.08-31.2,11,13.66v-8.52l-7.56-9.4,7.56-9.4v-8.52l-11,13.66-22.62-28.15,24.11-30,8.9,11.07.6-.48v-7.28L297,826.21l6.08-7.56v-8.52L293.56,822,268.7,791l27.72-34.49,3,3.76,3.61-2.9v-1.12l-3.21-4,3.21-4v-8.52L296.42,748l-25.08-31.2,24.29-30.22,7.42,9.82v-8.69l-4-5.39,4-5v-8.52l-7.42,9.23-24.11-30,24.07-29.94,7.45,9.27V618.9l-4-5,4-5v-8.52l-7.45,9.28-27.72-34.49,25.53-31.76,9.65,10.35v-8.23l-6.23-6.38,6.23-7.75v-8.52l-9.65,12-24.29-30.22,24.27-30.2,9.67,14.39V477.94l-6.24-7.77,6.24-7.77v-8.52l-9.67,12L269.32,436l25.5-31.73,8.23,11V406l-4.81-6,4.81-6v-8.52l-8.23,10.24L269.29,364l24.37-30.32,9.39,11.68v-8.52l-6-7.43,6-7.43v-8.52l-9.39,11.68-24.27-30.2L295,263.09l8.07,10v-8.52l-4.65-5.79,4.65-5.79v-8.52l-8.07,10-25.5-31.73,24.4-30.35,9.18,11.42V195.4l-5.76-7.16,5.76-7.16v-8.52L293.87,184,269.5,153.65l22.49-28,11.07,13.77v-8.52l-7.64-9.51,7.64-9.51v-8.52L292,117.16,266.4,85.32l9.33-11.61h-6.84L263,81.06l-5.91-7.35h-6.84l9.33,11.61-22.49,28-24.4-30.35,7.42-9.24h-6.84l-4,5-4-5H198.4l7.42,9.24-24.4,30.35-22.49-28,9.33-11.61h-6.84l-5.91,7.35-5.91-7.35h-6.84l9.33,11.61-25.59,31.84L102.77,87.63,114,73.71h-6.84l-7.77,9.66-7.77-9.66H86.26l-.92.74L95.93,87.63,5.56,200.05v8.52L99.35,91.89l23.74,29.53L98.71,151.74,81.47,130.29l-4.16,3.34,18,22.37L8.1,264.47l4.16,3.34L98.71,160.25l22.49,28L95.7,220,82.47,203.51l-4.16,3.34,14,17.37-46.06,57.3,4.16,3.34L95.7,228.48l24.4,30.35L95.82,289,75.45,263.69,71.29,267l21.1,26.25-5.05,6.29,4.16,3.34,4.32-5.37,25.59,31.84L95.88,361.15,88.49,352l-4.16,3.34,8.12,10.11-1.1,1.37,4.16,3.34.37-.45L120.25,400,99.38,426l4.16,3.34,20.14-25.05L149.18,436l-24.07,29.94L79.46,409.13l-4.16,3.34,46.38,57.7-23.31,29,4.16,3.34,22.57-28.09,24.27,30.2-24.29,30.22L80.47,479.34l-4.16,3.34,45.36,56.43L105.4,559.36l4.16,3.34,15.53-19.33,25.53,31.76-27.72,34.49-39.42-49-4.16,3.34,40.15,50-24.11,30-4.87-6.06-4.16,3.34,33.1,41.18-18.05,22.46,4.16,3.34,17.31-21.54,24.29,30.22L122.07,748,83.48,700l-4.16,3.34,39.33,48.93L100.38,775l4.16,3.34,17.53-21.81L149.79,791,124.94,822l-58.51-72.8-4.16,3.34,59.25,73.72L98.89,854.36l-55.54-69.1-4.16,3.34L123,892.87l-22.81,28.38L14.27,814.35l-4.16,3.34L96.76,925.5l-6.41,8,4.16,3.34,5.68-7.06L125.27,961l-23.92,29.76h6.84l20.5-25.51,20.5,25.51H156L132.11,961l22.81-28.38,24.86,30.92L157.9,990.73h6.84l18.46-23,18.46,23h6.84l-21.88-27.22,22.62-28.15,22.62,28.15L210,990.73h6.84l18.46-23,18.46,23h6.84l-21.88-27.22,24.86-30.92L286.38,961l-23.92,29.76h6.84l20.5-25.51,13.25,17.66v-9.69L293.23,961l9.83-12.23Zm-12.92-114L266,856.2l-24.86-30.92,24.11-30ZM205.82,293.52l-25.5,31.73-24.37-30.32,25.5-31.73Zm-21-34.58,24.37-30.32,24.37,30.32-24.37,30.32Zm24.37,38.84,25.5,31.73-25.5,31.73-25.5-31.73ZM233.52,400l-24.27,30.2L185,400l24.27-30.2Zm1.26,70.48-25.53,31.76-25.53-31.76,25.53-31.76Zm-1.46,70.22L209.25,570.6l-24.07-29.94,24.07-29.94Zm.22,68.68-24.29,30.22L185,609.34l24.29-30.22ZM237,682.57l-27.72,34.49-27.72-34.49,27.72-34.49Zm-3.62,73-24.11,30-24.11-30,24.11-30Zm3.42,4.26L261.86,791l-24.11,30-25.08-31.2Zm-24.11-38.51,27.72-34.49,24.11,30-27.72,34.49Zm0-77.5L237,613.6l27.72,34.49-24.29,30.22Zm0-69,24.07-29.94L261,575.14,237,605.08Zm0-68.4,25.53-31.76,24.07,29.94L236.74,536.4Zm0-72,24.27-30.2L262.47,436l-24.27,30.2Zm0-68.92,25.5-31.73L262.45,364l-25.5,31.73Zm0-72L237,263.2l25.5,31.73-24.37,30.32Zm0-69.16,25.59-31.84,24.37,30.32L237,254.68Zm-3.42-4.26-25.59-31.84,25.59-31.84,25.59,31.84Zm-3.42,4.26-24.37,30.32-25.59-31.84,24.37-30.32Zm-53.39-5.77L128,188.23l24.37-30.32,24.4,30.35ZM178,258.94l-25.5,31.73-25.59-31.84,25.5-31.73Zm-1.13,70.57-24.27,30.2-24.37-30.32,24.27-30.2Zm3.42,4.26,25.5,31.73-24.27,30.2L156,364Zm25.5,100.65-25.53,31.76L156,436l25.53-31.76Zm0,72L181.76,536.4l-25.53-31.76,24.07-29.94Zm0,68.4-24.29,30.22-24.07-29.94,24.29-30.22Zm0,69L178.1,678.31l-24.29-30.22,27.72-34.49Zm-27.72,43,27.72,34.49-24.11,30L154,716.82Zm27.72,103L180.74,821l-24.11-30,25.08-31.2Zm0,70.92L181,891.66l-25.08-31.2,24.86-30.92Zm-21.66-35.46,25.08-31.2,25.08,31.2-25.08,31.2Zm53.58,4.26,24.86,30.92-25.08,31.2-24.86-30.92ZM293,752.28l-27.72,34.49-25.08-31.2,27.72-34.49Zm-.79-69.94-24.29,30.22-24.11-30,24.29-30.22Zm0-68.45-24.07,29.94-27.72-34.49,24.07-29.94ZM290,539.11l-25.53,31.76-24.29-30.22,25.53-31.76Zm0-68.94-24.27,30.2-24.07-29.94,24.27-30.2ZM291.4,400l-25.5,31.73L240.37,400l25.5-31.73Zm-1.16-70.6-24.37,30.32-24.27-30.2L266,299.18Zm1.32-70.56L266,290.67l-25.5-31.73,25.59-31.84Zm-1.11-70.6-24.4,30.35-24.37-30.32,24.4-30.35ZM263,89.58l25.59,31.84-22.49,28-25.59-31.84Zm-.32,64.08L238.26,184l-25.59-31.84,24.4-30.35ZM209.25,87.2l24.4,30.35-24.4,30.35-24.4-30.35Zm-3.42,65L180.23,184l-24.4-30.35,25.59-31.84ZM155.52,89.58l22.49,28-25.59,31.84-22.49-28ZM102.13,156l24.37-30.32,22.49,28L124.62,184Zm-3,68.22,25.5-31.73L149,222.84l-25.5,31.73Zm.12,69.07,24.27-30.2,25.59,31.84-24.27,30.2Zm.06,72.12,25.53-31.76L149.2,364l-25.53,31.76ZM127.09,400l25.53-31.76L178.13,400,152.6,431.71Zm1.43,70.19,24.07-29.94,24.27,30.2L152.8,500.37Zm0,68.94,24.29-30.22,25.53,31.76L154,570.88ZM154,579.39l24.07,29.94-27.72,34.49-24.07-29.94ZM98.79,648.14l24.11-30L147,648.09l-24.11,30Zm27.49,34.2,24.11-30,24.29,30.22-24.11,30Zm-.79,69.94,25.08-31.2,27.72,34.49-25.08,31.2Zm27.72,43,24.11,30L152.47,856.2l-24.11-30Zm-50.9,63.33,22.62-28.15,24.11,30-22.62,28.15Zm26.38,98.09-25.08-31.2,22.81-28.38,25.08,31.2Zm1.15-63.84,22.62-28.15,25.08,31.2-22.62,28.15Zm53.36,66.39-24.86-30.92L181,900.18l24.86,30.92Zm1.19-63.33L209.25,865l24.86,30.92-24.86,30.92Zm50.9,63.33L212.67,931.1l24.86-30.92,22.62,28.15Zm5.65-63.33L266,864.72l22.62,28.15-25.08,31.2Z"/><path class="cls-5" d="M152.48,650.17c-32.53-13.38-75.29-30.82-74.33,7,.7,27.26-1,111.8,1,177C83,967.86,68.43,998.12,84.78,998.12c15.46,0,22.06,4.81,40.9,1.73,58.43-9.53,170.58-3.47,179.28-10.4,6.44-5.13,7.61-131.69,7.31-187.2-.62-111.72,14.21-154.29-18-164.67C199.53,607,177.48,660.45,152.48,650.17Z"/><polygon class="cls-6" points="126.11 1024.99 3.48 993.45 3.48 73.71 126.9 0 126.11 1024.99"/><polygon class="cls-4" points="497.68 1017.22 302.62 991.26 303.05 73.71 484.24 1.75 497.68 1017.22"/><polygon class="cls-7" points="303.05 73.71 303.05 81.24 311.94 70.18 303.05 73.71"/><path class="cls-7" d="M485.07,64.09l-.22-16.29-3,3.75L457.44,21.2l7.77-9.67L463.36,10l-5.58,2.22L454,16.95l-1.94-2.42-5.19,2.06,3.71,4.61L426.86,50.73l-16-19.85-5.19,2.06L423.44,55,400.95,83,378.46,55,391.72,38.5l-10.05,4L375,50.73l-3.42-4.25-5.19,2.06L371.62,55l-24.4,30.35L329.45,63.23l-5.19,2.06L343.8,89.6l-25.59,31.84L303,102.57v8.51l11.75,14.62L303,140.33v8.52L318.21,130l22.49,28-24.37,30.32L303,171.69v8.51l9.9,12.31L303,204.84v8.52l13.33-16.59,24.4,30.35-25.5,31.73L303,243.62v8.51l8.82,11-8.83,11v8.52l12.26-15.25,25.59,31.84-24.27,30.2L302.94,312.5V321l10.17,12.66-10.19,12.67v8.52l13.61-16.94,24.37,30.32L315.37,400,302.91,384.5V393l9,11.26-9.06,11.27v8.52l12.49-15.54,25.5,31.73L316.81,470.2l-13.94-17.34v8.51l10.52,13.08-10.53,13.1v8.52l14-17.36,24.27,30.2-24.29,30.22-13.95-17.35v8.51l10.53,13.1-10.54,13.12V565l14-17.38,25.53,31.76L314.6,613.91,302.8,599.24v8.51l8.37,10.42-8.38,10.43v8.52l11.81-14.69,24.07,29.94-24.11,30-11.79-14.67v8.51l8.37,10.41L302.76,697v8.52l11.81-14.69,24.29,30.22-25.08,31.2-11-13.73v8.51l7.62,9.48L302.72,766v8.52l11.05-13.75,27.72,34.49-24.86,30.92L302.7,808.9v8.51l10.52,13.09-10.53,13.1v8.52l14-17.36,24.11,30-22.62,28.15-15.45-19.22v8.51l12,15-12,15v8.52l15.47-19.25,25.08,31.2L320.39,961l-17.75-22.08v8.51L317,965.25,302.62,983.1v8.16l.26,0,17.52-21.79,21.71,27L354,998.1l20.94-26,22.62,28.15-2.69,3.34,13.68,1.82-4.15-5.16L427,972l22.81,28.38-7.57,9.42,6.18.82,4.81-6,6,7.41,7.66,1-10.2-12.69,24.86-30.92,12.65,15.74,3.07-2.47,0-2.27-12.26-15.26,11.87-14.76-.11-8.38L481.51,961l-22.81-28.38,25.08-31.2,12.58,15.65-.11-8.66-9-11.25,8.75-10.88-.11-8.38-12.06,15-22.62-28.15,24.11-30,8.9,11.07,1.24-1-.08-6.07-6.64-8.26,6.42-8-.11-8.38-9.73,12.11L460.4,795.31l27.72-34.49,3,3.76L494.3,762l0-2.09-2.72-3.39,2.64-3.28-.11-8.38-5.95,7.4L463,721.1l24.29-30.22,2.8,3.49,3.23-2.6,0-1.93-2.58-3.22,2.5-3.11-.11-8.38-5.81,7.23-24.11-30,24.07-29.94,5.24,6.52-.11-8.66-1.7-2.12,1.65-2-.11-8.38-5,6.17-27.72-34.49,25.53-31.76,1,1.27,4.16-3.34-1.76-2.19,2.83-3.52-.11-8.38-6.14,7.64-24.29-30.22,24.27-30.2,5.55,6.91-.11-8.66-2-2.51,2-2.43-.11-8.38-5.26,6.55L461,440.25l25.5-31.73,3.15,3.92-.21-16.09L486.52,400,461,368.24l24.37-30.32,3.38,4.2-.22-16.65-3.16,3.93-24.27-30.2,25.59-31.84,1.09,1.36-.15-11-.94,1.18-25.5-31.73,24.4-30.35,1.27,1.58-.15-11.48-1.11,1.39L461.2,157.93l22.49-28L486,132.8l-.18-14-2.1,2.61L458.1,89.6l23.74-29.53Zm-58.21-4.84,24.4,30.35-22.49,28-24.4-30.35Zm-50,700.6,24.11-30,24.11,30-24.11,30ZM426,829.56l-25.08,31.2-25.08-31.2,25.08-31.2Zm-52.8-142.71,27.72-34.49,27.72,34.49-27.72,34.49Zm3.43-73.23,24.29-30.22,24.29,30.22-24.29,30.22Zm.22-68.68L400.95,515,425,544.93l-24.07,29.94Zm-1.46-70.22,25.53-31.76,25.53,31.76-25.53,31.76Zm1.26-70.48L400.95,374l24.27,30.2-24.27,30.2Zm-1.23-70.44,25.5-31.73,25.5,31.73-25.5,31.73Zm1.13-70.57,24.37-30.32,24.37,30.32-24.37,30.32Zm-1.22-70.68,25.59-31.84,25.59,31.84-25.59,31.84Zm-3.42-4.26-24.4-30.35,25.59-31.84,24.4,30.35Zm25.59,40.35L373.15,259l-25.59-31.84,24.37-30.32Zm0,69.16L372,329.53l-24.37-30.32,25.5-31.73Zm0,72L373.25,400l-25.5-31.73L372,338Zm0,68.92L372,470.45l-24.27-30.2,25.53-31.76Zm0,72-24.07,29.94-25.53-31.76L372,479Zm0,68.4-24.29,30.22-24.07-29.94,24.29-30.22Zm0,69L369.8,682.59l-24.29-30.22,27.72-34.49Zm-27.72,43,27.72,34.49-24.11,30L345.7,721.1Zm27.72,103-25.08,31.2-24.11-30,25.08-31.2Zm0,70.92-24.86,30.92-25.08-31.2,24.86-30.92Zm3.42,4.26L425.8,900.2l-24.86,30.92L376.09,900.2Zm3.42-4.26,25.08-31.2,24.86,30.92-25.08,31.2Zm0-70.92,24.11-30,25.08,31.2-24.11,30Zm0-68.5,27.72-34.49,24.11,30-27.72,34.49Zm0-77.5,24.29-30.22,27.72,34.49L432.1,682.59Zm0-69,24.07-29.94,24.29,30.22-24.07,29.94Zm0-68.4L429.9,479,454,508.91l-25.53,31.76Zm0-72,24.27-30.2,25.53,31.76-24.27,30.2Zm0-68.92L429.87,338l24.27,30.2L428.65,400Zm0-72,24.37-30.32,25.5,31.73-24.37,30.32Zm0-69.16L430,196.8l24.37,30.32L428.74,259Zm0-72.19,24.4-30.35,25.59,31.84L430,188.28Zm21-34.61-24.4,30.35-24.4-30.35,24.4-30.35ZM375,59.25l22.49,28-24.4,30.35-22.49-28ZM321.63,125.7l25.59-31.84,22.49,28-25.59,31.84Zm-1.88,66.82,24.37-30.32,24.4,30.35-24.37,30.32Zm-1.11,70.6,25.5-31.73,25.59,31.84-25.5,31.73ZM320,333.66l24.27-30.2,24.37,30.32L344.33,364Zm-1.16,70.6,25.53-31.76,25.5,31.73L344.3,436Zm1.43,70.19,24.07-29.94,24.27,30.2-24.07,29.94Zm0,68.94,24.29-30.22L370,544.93l-24.29,30.22ZM318,618.17l27.72-34.49,24.07,29.94-27.72,34.49Zm0,68.45,24.11-30,24.29,30.22-24.11,30Zm-.79,69.94,25.08-31.2L370,759.85l-25.08,31.2Zm2.87,73.93,24.86-30.92,24.11,30-24.86,30.92Zm1.48,66.65L344.17,869l25.08,31.2-22.62,28.15Zm27.12,99-24.86-30.92,22.81-28.38,24.86,30.92ZM350,932.61l22.62-28.15,24.86,30.92L374.9,963.53Zm50.9,63.33-22.62-28.15,22.62-28.15,22.62,28.15Zm3.42-60.55,24.86-30.92,22.62,28.15L427,963.53Zm73.71,29.86-24.86,30.92-22.81-28.38,24.86-30.92Zm2.27-68.1-25.08,31.2L432.65,900.2,457.73,869Zm1.48-66.65-24.11,30-24.86-30.92,24.11-30Zm2.87-73.93L457,791.05l-25.08-31.2,27.72-34.49Zm-.79-69.94-24.29,30.22-24.11-30,24.29-30.22Zm0-68.45-24.07,29.94-27.72-34.49,24.07-29.94Zm-2.19-74.77-25.53,31.76-24.29-30.22,25.53-31.76Zm0-68.94-24.27,30.2-24.07-29.94,24.27-30.2Zm1.43-70.19L457.6,436l-25.53-31.76,25.5-31.73Zm-1.16-70.6L457.57,364l-24.27-30.2,24.37-30.32Zm1.32-70.56-25.59,31.84-25.5-31.73,25.59-31.84Zm-1.11-70.6-24.4,30.35-24.37-30.32,24.4-30.35Zm-1.88-66.82-22.49,28-25.59-31.84,22.49-28ZM454.68,85.34,430.28,55,454,25.46l24.4,30.35Z"/><rect class="cls-8" x="483.65" y="0.02" width="47.86" height="1017.89"/><rect class="cls-9" x="506.17" y="0.06" width="8.45" height="1017.77"/><path class="cls-10" d="M440.7,652.57c20.52,9.25,95-32.21,94,5.75-.7,27.37,1,112.27-1,177.77C529.87,970.33,545,1019,528.64,1019c-15.46,0-21.76,2.61-39.16,0-58.55-8.78-179.28-22.63-188-28.72-6.75-4.73-1.18-130.5-.87-186.25.62-112.18-9-174.84,8.17-164.91C383.07,682,375.38,623.11,440.7,652.57Z"/><path class="cls-11" d="M299.75,852.87V985c.46,3,1,4.8,1.74,5.3,8.41,5.89,121.47,19,181.9,27.82V647.55c-17.35,4.23-34.41,8.75-42.69,5-65.31-29.45-56.24,26.49-131.9-13.45-9.49-5-8.86,3.13-10.24,22.41l-.64,66c.48,22.49,2.87,47.17,2.71,76.55C300.55,817.23,300.18,834.36,299.75,852.87Z"/><rect class="cls-8" x="185.12" y="0.03" width="301.33" height="80.18"/><rect class="cls-2" x="191.17" y="11.62" width="292.58" height="53.38"/><path class="cls-12" d="M228.65,27.83h-6.79V50.16A4.11,4.11,0,0,1,221,53a2.89,2.89,0,0,1-2.22.93,2.93,2.93,0,0,1-2.25-.94,4.09,4.09,0,0,1-.87-2.85V27.83h-6.79a3.44,3.44,0,0,1-2.37-.7,2.38,2.38,0,0,1-.78-1.86,2.36,2.36,0,0,1,.81-1.89,3.5,3.5,0,0,1,2.34-.69h19.79a3.48,3.48,0,0,1,2.4.71,2.4,2.4,0,0,1,.79,1.87,2.35,2.35,0,0,1-.8,1.86A3.52,3.52,0,0,1,228.65,27.83Z"/><path class="cls-12" d="M255.78,27.5h-14V35h12.92a3.08,3.08,0,0,1,2.13.64,2.17,2.17,0,0,1,.7,1.69,2.26,2.26,0,0,1-.69,1.71,3,3,0,0,1-2.14.66H241.75v8.74h14.51a3.18,3.18,0,0,1,2.21.68,2.34,2.34,0,0,1,.74,1.81,2.29,2.29,0,0,1-.74,1.77,3.17,3.17,0,0,1-2.21.68H239.34a4,4,0,0,1-2.93-.9,4,4,0,0,1-.89-2.92V26.51a5.18,5.18,0,0,1,.4-2.19,2.47,2.47,0,0,1,1.25-1.24,5.24,5.24,0,0,1,2.17-.39h16.44a3.19,3.19,0,0,1,2.21.66,2.23,2.23,0,0,1,.72,1.73,2.26,2.26,0,0,1-.72,1.75A3.19,3.19,0,0,1,255.78,27.5Z"/><path class="cls-12" d="M270.27,25.95V48.32h12.62a3.33,3.33,0,0,1,2.32.73A2.39,2.39,0,0,1,286,50.9a2.33,2.33,0,0,1-.8,1.83,3.42,3.42,0,0,1-2.33.7h-15a4,4,0,0,1-2.93-.9,4,4,0,0,1-.89-2.92V25.95a4.12,4.12,0,0,1,.85-2.83,2.86,2.86,0,0,1,2.23-.94,3,3,0,0,1,2.27.93A4,4,0,0,1,270.27,25.95Z"/><path class="cls-12" d="M310.36,27.5h-14V35h12.92a3.08,3.08,0,0,1,2.13.64,2.17,2.17,0,0,1,.7,1.69,2.26,2.26,0,0,1-.69,1.71,3,3,0,0,1-2.14.66H296.33v8.74h14.51a3.18,3.18,0,0,1,2.21.68A2.34,2.34,0,0,1,313.8,51a2.29,2.29,0,0,1-.74,1.77,3.17,3.17,0,0,1-2.21.68H293.92a4,4,0,0,1-2.93-.9,4,4,0,0,1-.89-2.92V26.51a5.18,5.18,0,0,1,.4-2.19,2.47,2.47,0,0,1,1.25-1.24,5.24,5.24,0,0,1,2.17-.39h16.44a3.19,3.19,0,0,1,2.21.66,2.23,2.23,0,0,1,.72,1.73,2.26,2.26,0,0,1-.72,1.75A3.19,3.19,0,0,1,310.36,27.5Z"/><path class="cls-12" d="M330.68,41.46H325v8.7a4.06,4.06,0,0,1-.88,2.83,3.1,3.1,0,0,1-4.49,0,4.05,4.05,0,0,1-.86-2.8V26.51a3.88,3.88,0,0,1,.94-2.94,4.3,4.3,0,0,1,3-.88h8a21,21,0,0,1,5.45.54A8.13,8.13,0,0,1,339.39,25a7.85,7.85,0,0,1,2.09,3,10.48,10.48,0,0,1,.71,4q0,4.7-2.89,7.12T330.68,41.46Zm-1.51-14.09H325v9.39h4.19a12.52,12.52,0,0,0,3.68-.46,4.29,4.29,0,0,0,2.25-1.51,4.51,4.51,0,0,0,.78-2.75,4.66,4.66,0,0,0-1.2-3.31Q333.34,27.37,329.17,27.37Z"/><path class="cls-12" d="M353.66,25.95v8.81H367.1V25.95a4.11,4.11,0,0,1,.85-2.83,2.86,2.86,0,0,1,2.23-.94,3,3,0,0,1,2.28.93,4,4,0,0,1,.87,2.84V50.16a4.05,4.05,0,0,1-.88,2.85,3,3,0,0,1-2.26.94,2.84,2.84,0,0,1-2.24-1,4.19,4.19,0,0,1-.84-2.84V39.83H353.66V50.16a4.05,4.05,0,0,1-.88,2.85,3,3,0,0,1-2.26.94,2.84,2.84,0,0,1-2.24-1,4.19,4.19,0,0,1-.84-2.84V25.95a4.19,4.19,0,0,1,.83-2.83,2.85,2.85,0,0,1,2.25-.94,3,3,0,0,1,2.28.93A4,4,0,0,1,353.66,25.95Z"/><path class="cls-12" d="M393.54,22.17a16.42,16.42,0,0,1,8.21,1.94,12.58,12.58,0,0,1,5.19,5.51A18.79,18.79,0,0,1,408.7,38a20.55,20.55,0,0,1-1,6.48,14,14,0,0,1-2.89,5.05,12.65,12.65,0,0,1-4.74,3.27,18.68,18.68,0,0,1-12.9,0,12.8,12.8,0,0,1-4.76-3.28,14,14,0,0,1-2.88-5.1,20.56,20.56,0,0,1-1-6.44,19.87,19.87,0,0,1,1-6.5,13.94,13.94,0,0,1,2.95-5,12.75,12.75,0,0,1,4.7-3.18A16.92,16.92,0,0,1,393.54,22.17ZM402.39,38a14.42,14.42,0,0,0-1.09-5.85,8.14,8.14,0,0,0-3.11-3.74,8.56,8.56,0,0,0-4.64-1.27,8.42,8.42,0,0,0-3.45.7,7.58,7.58,0,0,0-2.73,2,9.76,9.76,0,0,0-1.8,3.43A15.5,15.5,0,0,0,384.9,38a15.89,15.89,0,0,0,.66,4.74,9.71,9.71,0,0,0,1.87,3.51,7.82,7.82,0,0,0,2.77,2.09,8.75,8.75,0,0,0,7.82-.5,8.27,8.27,0,0,0,3.19-3.69A14.28,14.28,0,0,0,402.39,38Z"/><path class="cls-12" d="M422.14,25.9l12,18.12V25.74a4,4,0,0,1,.77-2.67,2.58,2.58,0,0,1,2.07-.89,2.66,2.66,0,0,1,2.12.89,4,4,0,0,1,.78,2.67V49.91q0,4-3.35,4a4.46,4.46,0,0,1-1.51-.24,3.83,3.83,0,0,1-1.26-.77,7.39,7.39,0,0,1-1.09-1.23q-.5-.7-1-1.44L419.94,32.38v18a3.84,3.84,0,0,1-.82,2.66,2.7,2.7,0,0,1-2.1.9,2.67,2.67,0,0,1-2.12-.91,3.92,3.92,0,0,1-.8-2.65V26.68a6.7,6.7,0,0,1,.34-2.37,3.38,3.38,0,0,1,1.32-1.54,3.6,3.6,0,0,1,2-.6,3.44,3.44,0,0,1,1.44.27,3.48,3.48,0,0,1,1,.73,7.59,7.59,0,0,1,.92,1.2Z"/><path class="cls-12" d="M466.91,27.5h-14V35H465.8a3.08,3.08,0,0,1,2.13.64,2.17,2.17,0,0,1,.7,1.69,2.26,2.26,0,0,1-.69,1.71,3,3,0,0,1-2.14.66H452.88v8.74h14.51a3.18,3.18,0,0,1,2.21.68,2.34,2.34,0,0,1,.74,1.81,2.29,2.29,0,0,1-.74,1.77,3.17,3.17,0,0,1-2.21.68H450.47a4,4,0,0,1-2.93-.9,4,4,0,0,1-.89-2.92V26.51a5.18,5.18,0,0,1,.4-2.19,2.47,2.47,0,0,1,1.25-1.24,5.24,5.24,0,0,1,2.17-.39h16.44a3.19,3.19,0,0,1,2.21.66,2.23,2.23,0,0,1,.72,1.73,2.26,2.26,0,0,1-.72,1.75A3.19,3.19,0,0,1,466.91,27.5Z"/><path class="cls-13" d="M166.08,731.55c-12.81-4.86,34.15,22.23,72.57,17.76s75-20.45,73.3-34.73-10.49-20.88-48.58-14.18C225.93,707,190.53,740.83,166.08,731.55Z"/><polygon class="cls-13" points="288.28 747.36 294.59 747.03 295.42 730.29 287.02 731.79 288.28 747.36"/><path class="cls-14" d="M445,820.73c23.46-15.95,30-36.68,35.68-29.58,2,2.46-16,29.52-41.44,42.17C414.69,845.56,404,847.43,402,845,395.12,836.26,421.55,836.67,445,820.73Z"/><path class="cls-15" d="M495.87,789.37C495.68,778.42,487,769,476,769.54c-7.29.39-9.74,5.89-14.87,13.35-2.7-5.43-4.56-7.46-10.05-5.54-2.88,1-3.19,6.74-.82,12.46a34.32,34.32,0,0,0,5,8.32,2.71,2.71,0,0,0-.94.93c-1.52,2.64,2,7.54,7.93,10.95s11.92,4,13.44,1.39a3.08,3.08,0,0,0,.26-2.21h0C487.39,809,496,800.22,495.87,789.37Z"/><path class="cls-14" d="M295.39,1012.86c-6.5-.64-13.75-2.57-16.08-4.19-3.42-2.39-1.48-15.36-1.23-18.74l3.26-43.66c.25-3.38,4-2.48,8.57-2.14h0c1.71,8.74.24,48.47,3.78,50.92,13.78,9.54,29.79,17.23,17.11,18.16A67.57,67.57,0,0,1,295.39,1012.86Z"/><path class="cls-16" d="M459.26,920.59a11.93,11.93,0,0,0-3.54-4.83,18.5,18.5,0,0,0,2.41-13.1c-.37-2-3.5-1.18-3.13.86a14.66,14.66,0,0,1-2.28,10.94,5.86,5.86,0,0,0-1.44,0,5.57,5.57,0,0,0-5.05,6.93,1.63,1.63,0,0,0,2.36,1,18.18,18.18,0,0,0,4.83-3.59,6.14,6.14,0,0,1,2.46,2.12,15.06,15.06,0,0,1,1.52,5.34,20.42,20.42,0,0,1-.78,8.46,19.69,19.69,0,0,1-12.28,13.09c-6.87,2.3-17.17-.12-22.26-5.81a8.32,8.32,0,0,0,2.1-2.73c2.18-4.55-.21-10.5-5.21-11.65a1.54,1.54,0,0,0-1.84,1,14.37,14.37,0,0,0,.92,12,5.57,5.57,0,0,1-1,.38c-4.86,1.28-9.28-1.72-12.22-5.34a29.52,29.52,0,0,1-5.67-11.26,25.77,25.77,0,0,1-.57-3.29,10.76,10.76,0,0,0,2.17-.31c6.11-1.5,7.11-10.61.9-12.63a1.48,1.48,0,0,0-1.42.38,14.27,14.27,0,0,0-4.42,8.45,9.49,9.49,0,0,1-3.52-3.39c-2.55-4.28-2.84-10.23-2.94-15.05a58.89,58.89,0,0,1,1.47-14.69c.09-.39.19-.86.29-1.35q.69.83,1.44,1.62a1.71,1.71,0,0,0,2.38,0c2.18-2.08,5.24-6.88,3.84-10.13-1.14-2.63-4.23-2.2-6.14-.78a8.8,8.8,0,0,0-2.17,2.4,28,28,0,0,1-3.37-14.48c0-.59.08-1.19.14-1.78a6.85,6.85,0,0,0,5.42-1.4c2.73-2.23,2.67-6.68.23-9.15a4.55,4.55,0,0,0-4.22-1.42c-2,.56-2.48,2.87-3.12,4.68-.32.9-.58,1.82-.8,2.73-2.24-1.73-3-4.84-3.23-7.53-1.41-16.62,5.49-34.48,14.87-47.86,1-1.44-.89-2.83-2.2-2.2-5.18,2.48-10.09-1.84-11.93-6.44a36.71,36.71,0,0,1-2.09-12.41,29.94,29.94,0,0,1,1.57-11.72,22.81,22.81,0,0,0,2.32,1.33,1.66,1.66,0,0,0,2-.25,11.2,11.2,0,0,0,2.88-10,1.67,1.67,0,0,0-2.43-1,14,14,0,0,0-5.48,5.34c-7-6.13-9.55-16.67-6.56-25.4a6.88,6.88,0,0,0,2.43-.37c4.16-1.43,6.51-7.09,2.94-10.29a1.63,1.63,0,0,0-2.26,0,23.41,23.41,0,0,0-4.92,7l-.37-.14c-2.21-1-4-3.35-5.22-5.31a27.4,27.4,0,0,1-3.72-9.36,22.88,22.88,0,0,1-.07-9l.38-.07c4.91-1.19,8.64-6.08,6.93-11.08a1.56,1.56,0,0,0-2.26-.92,16.46,16.46,0,0,0-7.09,8.8,9.23,9.23,0,0,1-4.66-1.15c-3.6-2.14-6.31-6-8.14-9.64a25.4,25.4,0,0,1-2.74-10.41,11.46,11.46,0,0,0,5.18-12.71,1.58,1.58,0,0,0-2.61-.69,15.69,15.69,0,0,0-5.44,11,10.24,10.24,0,0,1-9.54-1.36c-4.67-3.53-5.9-9.14-5-14.51a13.47,13.47,0,0,0,1.75-.53c5.19-2,8.65-6.62,7.66-12.25a1.7,1.7,0,0,0-1.23-1.23c-6.14-1-9.3,5.69-10.72,10.66l-.07.26-.24,0c-6.53.2-10.71-6.31-12.39-11.83a31.06,31.06,0,0,1-1.37-8.48,11.85,11.85,0,0,0,6.07,1.59c5,0,10.24-5,8.56-10.18-1.41-4.38-6.64-5.66-10.64-4.38a9.92,9.92,0,0,0-6.2,5.53,20.59,20.59,0,0,1-2.25-16c1.58-6.13,5.63-9.66,10.24-13.6,10.54-9,5.73-20.8-.8-30.79-.5-.76-1.69-.08-1.22.71,4.74,8,10.1,18.72,2.11,26.48-4.89,4.75-10,7.29-12.58,14-2.52,6.57-1.77,17.49,3.3,23.63-.88,7.12,2,16,5.38,20.34A15.07,15.07,0,0,0,325,666.72c-.67,5.33.46,10.84,4.24,14.9,3.43,3.69,8.71,5.78,13.58,4.33a31.76,31.76,0,0,0,6.7,16.32c2.63,3.29,6.48,6.52,10.8,7a29.78,29.78,0,0,0,3.29,18.39c1.61,3,4.42,6.76,7.86,8.31-3.2,10.11-.17,22.18,8,29-5.79,13.76-1.12,37.45,11.75,36.3a84.79,84.79,0,0,0-12.72,36.4c-.6,5.7-1.44,13.08,2.36,18a10,10,0,0,0,3.17,2.63,32,32,0,0,0,4.76,21,59.64,59.64,0,0,0-1.33,6.09,64,64,0,0,0-.93,17.92c.54,5.91,2.81,15.25,9,17.34.26,9.19,6.4,19.36,13.89,22.62a13.29,13.29,0,0,0,10.39.08,21.63,21.63,0,0,0,8.52,6.55c8.4,3.56,18.65,2.11,25.24-4.36C459.95,939.33,462.77,928.93,459.26,920.59ZM315.67,633.85c4.11-2.41,9.81,1.29,5.72,5.58-2.74,2.87-6.52,1.53-9.19-.71A7.77,7.77,0,0,1,315.67,633.85Zm15.08,25.66c.38-.68,2.32-4,3.34-3.46s-.44,2.65-1,3.4a9.61,9.61,0,0,1-3.66,2.88A22.11,22.11,0,0,1,330.74,659.5ZM348.08,676a7.06,7.06,0,0,1-1.9,4.08A12.78,12.78,0,0,1,348.08,676Zm19.82,25.09a4.74,4.74,0,0,1-3.31,4.16A13.11,13.11,0,0,1,367.91,701.08Zm8.1,32a20.24,20.24,0,0,1,2.17-3.13,3.64,3.64,0,0,1-.9,2.33A3.19,3.19,0,0,1,376,733.12ZM385.79,761a7.23,7.23,0,0,1-1.36,3.5q-.62-.35-1.21-.74A12,12,0,0,1,385.79,761Zm5,90.5c1.18,1-.43,3.85-1.3,4.41a2.55,2.55,0,0,1-1.69.14c.06-.24.11-.49.17-.73C388.32,854,389,849.92,390.79,851.49Zm2.89,24.81c2.45-1.94,2.18.28,1.34,2.11a9.43,9.43,0,0,1-1.25,2c-.54-.64-1.05-1.29-1.53-2A5.28,5.28,0,0,1,393.67,876.3ZM400.84,912q.63-1.43,1.23.06a1.47,1.47,0,0,1,.7,1.46c.28,1.62-.48,2.42-1.66,3.29a4.35,4.35,0,0,1-2.63.86C398.58,915.31,399.19,913.06,400.84,912Zm19.27,27a11.09,11.09,0,0,1-.6-8C422.57,932.61,422.24,936.53,420.11,939Z"/><path class="cls-14" d="M361.38,1005.81c-6.54,0-13.94-1.25-16.41-2.64-3.63-2-2.94-15.15-3-18.53L341,940.87c-.07-3.38,3.71-2.85,8.32-2.94h0c2.53,8.53,4.86,48.23,8.61,50.33,14.63,8.18,31.29,14.31,18.76,16.45A67.57,67.57,0,0,1,361.38,1005.81Z"/><ellipse class="cls-17" cx="309.4" cy="847.88" rx="113.86" ry="104.34"/><path class="cls-18" d="M325.26,938.07c-60.74,0-110-45.91-110-102.53,0-32.45,16.18-61.38,41.42-80.17-36.35,17.43-61.15,52.31-61.15,92.51,0,57.63,51,104.34,113.86,104.34,37.51,0,70.78-16.63,91.52-42.27A114,114,0,0,1,325.26,938.07Z"/><circle class="cls-14" cx="277.3" cy="824" r="6.62" transform="translate(-44.62 16.39) rotate(-3.13)"/><circle class="cls-14" cx="371.11" cy="814.34" r="6.62" transform="translate(-43.96 21.5) rotate(-3.13)"/><path class="cls-14" d="M287.21,787.75c.38,1.18-6-1.1-13.17,1.23s-10.87,7.52-11.26,6.34,3.43-6.15,10.56-8.48S286.82,786.57,287.21,787.75Z"/><path class="cls-14" d="M356.66,784.26c-.19,1.23,5.64-1.53,13.05-.39s12,5.6,12.22,4.37-4.47-5.44-11.88-6.59S356.85,783,356.66,784.26Z"/><path class="cls-19" d="M350.62,850.45c-2.91,5.08-9.36,7.36-16.74,7.95-10.44.82-17.78-2.72-19.66-7.43-2.33-5.82,5.67-9.7,18.13-10.62C350.52,839,353.39,845.6,350.62,850.45Z"/><path class="cls-14" d="M198.2,902.89c-2.54,28.26,8.14,52.88-.93,52.74-3.14,0-12.66-31.12-6.34-58.78,6.11-26.76,11.44-36.22,14.58-36.17C216.64,860.85,200.74,874.63,198.2,902.89Z"/><path class="cls-15" d="M218,934.2a23.6,23.6,0,0,0-11.48-5.64c1.13-.85,1.74-1.76,1.66-2.67-.26-2.75-6.77-4.4-14.54-3.67s-13.87,3.55-13.61,6.31c.11,1.21,1.44,2.21,3.55,2.88-4.51,3-7.72,8.63-5.21,20.29,2.4,11.19,15.26,13.54,25,11.67,9.2-1.78,12-6.86,10.45-16.8,2.86,1.26,5.62,1.23,7.21-.36C223.5,943.72,222.16,938.34,218,934.2Z"/><path class="cls-8" d="M126.42,619.52l-3.63,4.35-20.31-24.31,20.08-24.12,3.88,4.66v-7.46l-.77-.93.77-.93V562.3l-4.3,5.15-19.55-23.6,19.11-22.95,4.76,5.77v-8.52l-1.24-1.5,1.24-1.49v-8.44l-4.75,5.69L98.49,484.24,119,459.58l7.51,8.92v-7.23l-4.47-5.34,4.48-5.38v-8.42l-8,9.6-22.3-26.64,26.81-32.19,3.54,4.27v-8l-.2-.25.2-.24V380.2l-3.7,4.44-22.54-27.27,20.12-24.16,6.15,7.36v-7.36l-3.07-3.7,3.08-3.7v-8.43l-6.59,7.9L99.86,300.93l22.85-27.44,4,4.76v-7.36l-.91-1.09.91-1.09V260.3l-4.42,5.3L101,240.06l20.45-24.68,5.3,6.34v-7.39l-2.22-2.67,2.22-2.68v-8.5L121,207.38,97.22,178.76l26.53-32.37,3,3.63V134.16l-3.4,4.12-22.48-27.09L125,82.38l1.86,2.22V71.8l-2.07,2.5-23-27.68,25.09-30V8.23L98.42,42.55,84.25,25.47,79.7,28.19,95.07,46.58,71.18,75.36,49.32,49l4.47-5.36L40.65,51.51,16.14,81.05l-8.27-10L3.48,73.71v.48l9.2,11L3.48,96.3v7.58L15.88,89l22,26.39L17.55,140,3.48,123.11v7.66l10.89,13L3.5,156.92v7.38l14-16.76,23.33,27.92L18.27,202.62,3.49,184.81h0v8.34l11.36,13.6L3.5,220.43v7.38L18,210.48l23,27.5L21.31,261.7,3.48,240.13v8.4l14.37,17.35L3.48,283.25v9.87l18.38-22.42,23,27.79L17.62,331.13,3.48,314.24v8.21l10.74,12.75L3.48,348.05v9.72L18.23,340l21.09,25L19.58,388.66l-16.1-19.5v8.43l12.6,15.27L3.48,407.95v8.71l16.19-19.44,20.07,24.32L20.45,444.64l-17-20.49v8.36L17,448.76,3.48,465v8.72l17.16-20.6,22.55,27.06L23,504.37,3.48,481v8.48l15.9,19.19L3.48,527.74v8.72L23,513,45.1,539.73,22.47,566.84,3.48,544v8.29l15.6,18.67L3.48,589.6v16.88L23.39,630.3,7.29,649.6,5.78,660.13,27,634.64,46.57,658,17.82,692.49,16.32,703l33.86-40.66,20.25,24.24-33.79,40.5-1.5,10.54L74,690.93l31.67,37.91-.44-7.88L77.2,687.13l19.46-23.36,23.16,27.72-.44-7.88L99.79,660l22.54-27.06,4.08,4.93V628.2l-.07-.09.07-.09ZM119,571.2,98.93,595.3,79.33,571.82l20.11-24.15Zm-48.39-360L94.23,239.4,71.44,266.69,48.15,238.63ZM70,202.86l-22.8-27.35L67.65,151l22.72,27.2Zm2,72.25,21.21,25.38-20,24L52.15,299Zm1.35,57.71,20.16,24.34-27,32.34L46.24,365.32Zm-6.47,64.82,22.72,27L69.3,448.88,46.83,421.66Zm2.5,59.76,22.11,26.8-19.19,23L50.12,480.46Zm3.21,58,23.35,28L75.76,567.55l-23.36-28ZM95,600,72.44,627,52.92,603.53,75.5,576.42Zm23.21-83.33L99.09,539.59,75.81,511.47l19.16-23Zm-2.74-61.27L95,480l-22.13-26.8,20.27-24.34Zm4.06-66.73L92.7,420.83,70.05,393.77,97,361.42ZM117,329,96.84,353.1,76.7,328.73l20-24Zm2.23-59.71-22.87,27.4L75.19,271.2,97.9,243.79Zm-1.33-58.18L97.34,235.68,73.75,207.39l20.31-24.78Zm2.33-69L93.56,174.34,70.93,147.08l26.7-32ZM98.45,50.63l23.06,27.6-24,28.89L74.47,79.33Zm-4.2,60.45-26.6,32.05L44.49,115.22,71.1,83.37ZM19.33,84.91,45.86,53.16,67.81,79.43,41.3,111.37Zm1.34,58.82,20.45-24.48,23.25,27.83L44,171.67Zm.72,62.65L44,179.29l22.84,27.34L44.26,233.94Zm3.9,60.14,19.55-23.86,23.33,27.93L48.31,294.38ZM21.6,335.89l27.12-32.74,21,25.39L42.64,361ZM23.17,393l19.77-23.73,20.3,24.09-20,24Zm.89,56,19.26-23.12,22.46,27.22L46.54,476.14ZM26.6,508.7l20.18-24.23L69,511.12,48.81,535.29Zm22.08,35.35,23.26,28.07-22.6,27.09-23.26-28Zm-22,82.26-23.23-28L22.7,575.25,46,603.17Zm23.1,27.84L30.33,630.66l19.3-23.17,19.58,23.43ZM73.61,682.8,53.42,658.48l19.38-23.27,20.28,24.27Zm22.61-27.1L76,631.35l22.56-27.09,20.22,24.4Z"/><rect class="cls-8" x="126.78" y="0.02" width="60.1" height="1024.39"/><rect class="cls-9" x="155.07" y="0.06" width="10.61" height="1013.11"/><path class="cls-10" d="M93.36,674c14.5,17.22,96-49.32,95-11.35-.7,27.37,1,112.27-1,177.77-3.91,134.24,11.84,184.23-4.52,184.23-15.46,0-37,4.85-55.84,1.76-58.43-9.57-121.21-19.06-123.92-33C1.56,985.36.35,870.72.66,815,1.28,702.79-5.52,572.13,14,651.11,34.6,734.15,34.27,603.84,93.36,674Z"/><path class="cls-11" d="M127.13,669.25c-15.21,6.5-28.65,10.85-33.77,4.77C34.27,603.84,34.6,734.15,14,651.11-5.52,572.13,1.28,702.79.66,815c-.31,55.74.9,170.38,2.47,178.48,2.71,13.93,65.49,23.41,123.92,33h.08Z"/><path class="cls-16" d="M354.81,576.21S285.75,589,272,565.41c-18.91-32.41-18.91-133.26-6.3-175.58,7.81-26.21,89.14-13.51,89.14-13.51Z"/><path class="cls-20" d="M354.81,376.43C342.9,378.62,333.44,383,331,391.11c-12.61,42.32-12.61,143.16,6.3,175.58,2.74,4.69,7.66,7.94,13.78,10.14,2.36-.37,3.71-.62,3.71-.62Z"/><path class="cls-21" d="M401.76,764.6c-.53,2.41.63,4.43,1.55,6.48,2.86,6.4,5.81,12.76,8.67,19.16.73,1.63,1.26,3.34,1.93,5a4.83,4.83,0,0,0,5.07,3.44c3.55,0,6.91-1.07,10.32-1.87,2.93-.69,5.91-1.2,8.88-1.7a3.88,3.88,0,0,1,4.2,2.35,60.55,60.55,0,0,1,2.85,6.06c1.7,4.24,3.45,8.47,4.88,12.81a78.5,78.5,0,0,1,3.67,18.79,94.84,94.84,0,0,1-.37,18.43c-.33,2.76-.5,5.56-1.06,8.27-.65,3.21-1.88,3.72-4.46,4.06-4,.52-8,.61-12,1A44.35,44.35,0,0,0,429.5,868c-2.34.59-3.5,2.2-3.7,4.65-.23,2.95-.33,5.9-.67,8.84-.67,5.84-1.5,11.66-2.21,17.49a28.6,28.6,0,0,0-.21,4.42,8.71,8.71,0,0,0,.68,2.22l2.17,1.59.65.26c2.32,1,4.6,2.17,7,3.13s4.92,1.72,7.54,1.09a72.55,72.55,0,0,0,7.5-2.21,36.18,36.18,0,0,0,11.51-6.71c1.22-1.05,2.37-2.18,3.56-3.27l3.3-4.5c.12-.28.22-.56.35-.83a46.53,46.53,0,0,0,2.57-5.62c2.1-6.79,4.18-13.6,6-20.47,2.31-8.74,2.46-17.7,1.91-26.65-.37-6.07-1.16-12.12-2.08-18.13-.75-4.89-1.88-9.73-3-14.54a81,81,0,0,0-3-9.75,98.06,98.06,0,0,0-5-11.41c-2.27-4.23-4.93-8.26-7.57-12.28-2.08-3.15-4.32-6.2-6.62-9.2-1.18-1.54-2.62-2.89-3.94-4.32l-4.5-3.3-.83-.35c-1.91-.85-3.79-1.8-5.75-2.55a37.94,37.94,0,0,0-12.22-2.23,39.41,39.41,0,0,0-7.59.52c-2.85.46-5,2.43-7.12,4.19-1.62,1.32-3.11,2.8-4.66,4.21Z"/><ellipse class="cls-22" cx="416.39" cy="777.69" rx="7.61" ry="18.67" transform="translate(-263.28 215.35) rotate(-22.23)"/><ellipse class="cls-22" cx="433.77" cy="888.8" rx="18.67" ry="7.61" transform="translate(-471.27 1287.56) rotate(-87.76)"/><polygon class="cls-23" points="284.09 435.77 272.77 436.19 267.98 432.77 280.61 417.81 285.4 421.23 284.09 435.77"/><path class="cls-24" d="M278.87,432.35s-10.93,1.8-11.32.43c-2.72-9.59,2.31-15.09,2.31-15.09l10.79.14Z"/><polygon class="cls-23" points="298.9 435.77 287.58 436.19 282.79 432.77 295.41 417.81 300.2 421.23 298.9 435.77"/><path class="cls-24" d="M294,432.36s-8.36,1.76-10.31-.29c-2.59-2.72.3-14.24.3-14.24H295.3Z"/><polygon class="cls-23" points="313.7 435.77 302.38 436.19 297.59 432.77 310.22 417.81 315.01 421.23 313.7 435.77"/><path class="cls-24" d="M308.48,432.35s-8.18,1.64-10.14-.42c-2.59-2.72.12-14.12.12-14.12h11.63Z"/><polygon class="cls-23" points="283.15 451.9 271.82 452.33 267.04 448.91 279.66 433.95 284.45 437.37 283.15 451.9"/><path class="cls-24" d="M277.92,448.48s-11,2.25-11.3-.56c-1.47-12.12,2-13.92,2-13.92l10.62-.05Z"/><polygon class="cls-23" points="297.95 451.9 286.63 452.33 281.84 448.91 294.47 433.95 299.26 437.37 297.95 451.9"/><path class="cls-24" d="M292.73,448.48s-8.89,1.54-10.84-.51c-2.59-2.72.83-14,.83-14H294Z"/><polygon class="cls-23" points="312.75 451.9 301.43 452.33 296.64 448.91 309.27 433.95 314.06 437.37 312.75 451.9"/><path class="cls-24" d="M307.53,448.48s-8.62,1.68-10.57-.37c-2.59-2.72.56-14.16.56-14.16h11.32Z"/><polygon class="cls-23" points="281.38 467.89 270.05 468.32 265.26 464.9 277.89 449.94 282.68 453.36 281.38 467.89"/><path class="cls-24" d="M275.85,464.47s-11.24,2.08-11.32-.75c-.3-11,2.09-13.71,2.09-13.71l10.54-.07Z"/><polygon class="cls-23" points="296.18 467.89 284.86 468.32 280.07 464.9 292.7 449.94 297.49 453.36 296.18 467.89"/><path class="cls-24" d="M291,464.47s-8.22,1.87-10.18-.18c-2.59-2.72.16-14.35.16-14.35h11.32Z"/><polygon class="cls-23" points="310.98 467.89 299.66 468.32 294.87 464.9 307.5 449.94 312.29 453.36 310.98 467.89"/><path class="cls-24" d="M305.76,464.47s-8.37,1.31-10.32-.74c-2.59-2.72.31-13.8.31-13.8h11.32Z"/></g></g></svg>