
<svg xmlns="http://www.w3.org/2000/svg" version="1.1" xmlns:xlink="http://www.w3.org/1999/xlink" preserveAspectRatio="none" x="0px" y="0px" width="550px" height="400px" viewBox="0 0 550 400">
<defs>
<filter id="Filter_1" x="-20%" y="-20%" width="140%" height="140%" color-interpolation-filters="sRGB">
<feColorMatrix in="SourceGraphic" type="matrix" values="1 0 0 0 0 0 1 0 0 0 0 0 1 0 0 0 0 0 0.95 0" result="result1"/>
</filter>

<g id="Layer11_0_FILL">
<path fill="#3E914D" stroke="none" d="
M 794.5 678.7
Q 786.15 676.45 771.8 669.45 749.55 658.55 746.7 657.3 731.75 650.7 720.05 648.65 693.95 644.05 683.35 647.9 674.4 651.15 673.1 662.35 671.9 672.5 694 682.7 715.5 692.6 743.95 695.9 767.15 698.6 797.6 687.2 807.4 683.55 813.6 680.05 819.85 676.6 814.1 678.75 806.05 681.8 794.5 678.7 Z"/>
</g>

<g id="Layer11_1_FILL">
<path fill="#3E914D" stroke="none" d="
M 697.2 679
L 689.05 677.5 689.85 693.7 695.95 694.05 697.2 679 Z"/>
</g>

<g id="Layer11_2_FILL">
<path fill="#221F20" stroke="none" d="
M 702.7 886.35
Q 702.55 884.2 700.15 883.95 699.6 883.9 694.4 884.25 693.85 887.05 693.25 911.15 692.7 932.15 690.75 933.5 684.1 938.1 672.9 945.4 666.35 950.5 674.2 951.05 679.2 951.4 682.4 951.3 683.9 951.25 689.1 950.7 693.75 950.25 698.4 949.05 702.95 947.85 704.65 946.65 706.75 945.2 706.55 937.95 705.95 930.2 705.85 928.55
L 702.7 886.35 Z"/>
</g>

<g id="Layer11_3_FILL">
<path fill="#221F20" stroke="none" d="
M 644.95 881.1
Q 645 878.95 642.6 878.5 641.95 878.35 636.9 878.25 636.1 881 633.2 904.9 630.65 925.75 628.6 926.9 621.55 930.85 609.65 937.05 602.7 941.5 610.45 942.8 615.35 943.65 618.55 943.8 620 943.9 625.3 943.9 630.05 943.85 634.7 943.1 639.35 942.35 641.15 941.35 643.35 940.1 643.9 932.85 643.9 932.65 644.05 923.4
L 644.95 881.1 Z"/>
</g>

<g id="Layer11_4_FILL">
<path fill="#EA983E" stroke="none" d="
M 426.95 290.8
Q 426.95 281.7 423.1 273.35 419.4 265.35 412.65 259.1 405.85 252.9 397.1 249.5 388 246 378.05 246 368.1 246 359.05 249.5 350.25 252.9 343.5 259.1 336.7 265.35 333 273.35 329.15 281.7 329.15 290.8 329.15 299.9 333 308.25 336.7 316.25 343.5 322.5 350.25 328.7 359.05 332.1 368.1 335.6 378.05 335.6 388 335.6 397.1 332.1 405.85 328.7 412.65 322.5 419.4 316.25 423.1 308.25 426.95 299.9 426.95 290.8 Z"/>
</g>

<g id="Layer11_5_FILL">
<path fill="#E3753A" stroke="none" d="
M 755.7 735.55
Q 766.55 756.15 766.55 779.25 766.55 799.4 758.2 817.85 750.1 835.65 735.4 849.35 720.7 863.1 701.6 870.6 681.85 878.4 660.2 878.4 639.35 878.4 620.2 871.1 601.65 864.1 587.05 851.2 602.4 870.15 625.25 880.95 648.85 892.1 675.55 892.1 697.95 892.1 718.4 884.15 738.15 876.5 753.4 862.55 768.65 848.55 777 830.45 785.65 811.7 785.65 791.2 785.65 762.5 769.25 738.25 753.3 714.6 726.5 701.75 745.15 715.65 755.7 735.55 Z"/>
</g>

<g id="Layer10_0_FILL">
<path fill="#221F20" stroke="none" d="
M 697 733.05
Q 696.9 733.45 700.65 733.25 705.8 732.95 709.75 734.25 713.65 735.55 717.65 738.6 720.5 740.8 720.6 740.4 721 739.3 718.25 736.7 715.05 733.7 710.4 732.2 705.8 730.7 701.25 731.35 697.4 731.95 697 733.05 Z"/>
</g>

<g id="Layer9_0_FILL">
<path fill="#221F20" stroke="none" d="
M 617.25 729.35
Q 621.3 728.7 626.3 729.55 629.95 730.15 629.85 729.7 629.7 728.55 626 727.55 621.7 726.45 616.9 727.2 612.1 727.95 608.4 730.35 605.25 732.4 605.4 733.55 605.5 734 608.7 732.3 613.25 729.95 617.25 729.35 Z"/>
</g>

<g id="eyes_0_Layer0_0_FILL">
<path fill="#221F20" stroke="none" d="
M 2.1 1.6
Q 0.15 3.4 0 6.05 -0.15 8.7 1.6 10.65 3.4 12.65 6.05 12.75 8.7 12.9 10.65 11.15 12.65 9.35 12.8 6.75 12.9 4.1 11.15 2.1 9.4 0.15 6.75 0 4.1 -0.15 2.1 1.6
M 92.8 10.95
Q 90.85 12.7 90.7 15.35 90.55 18 92.3 20 94.1 21.95 96.75 22.1 99.4 22.25 101.35 20.5 103.35 18.7 103.45 16.05 103.6 13.4 101.85 11.45 100.05 9.45 97.45 9.35 94.8 9.2 92.8 10.95 Z"/>
</g>

<g id="eyes_0_Layer0_1_FILL">
<path fill="#221F20" stroke="none" d="
M 2.1 1.6
Q 0.15 3.4 0 6.05 -0.15 8.7 1.6 10.65 3.4 12.65 6.05 12.75 8.7 12.9 10.65 11.15 12.65 9.35 12.8 6.75 12.9 4.1 11.15 2.1 9.4 0.15 6.75 0 4.1 -0.15 2.1 1.6
M 92.8 10.95
Q 90.85 12.7 90.7 15.35 90.55 18 92.3 20 94.1 21.95 96.75 22.1 99.4 22.25 101.35 20.5 103.35 18.7 103.45 16.05 103.6 13.4 101.85 11.45 100.05 9.45 97.45 9.35 94.8 9.2 92.8 10.95 Z"/>
</g>

<g id="mouth_0_Layer0_0_FILL">
<path fill="#C55C64" stroke="none" d="
M 672.85 782.05
Q 668.6 779.25 654.45 778.55 639.7 777.8 635.25 781.6 632.15 784.3 633.7 790.3 634.95 795.35 640.3 798.7 646 802.35 654.2 802.4 662.45 802.5 668.25 799 673.65 795.7 675 790.7 676.6 784.5 672.85 782.05 Z"/>
</g>

<g id="tie_0_Layer0_0_FILL">
<path fill="#AF3033" stroke="none" d="
M 1436.65 367.65
Q 1432.15 370.8 1431.9 385.35 1431.6 400.25 1436.9 405 1442.15 409.75 1455.05 407.55 1467.3 405.45 1473.8 399.75 1475.9 401.05 1478.3 401.2 1480.9 401.35 1483.3 400.15 1488.9 406.75 1500.9 410.55 1513.5 414.5 1519.4 410.5 1525.25 406.5 1526.95 391.65 1528.6 377.2 1524.55 373.5 1519.4 368.8 1505.35 374 1493.05 378.6 1484.9 385.75 1482.6 383.8 1479.45 383.55 1476.65 383.35 1474.15 384.8 1466.85 376.65 1455.4 370.6 1442.35 363.7 1436.65 367.65 Z"/>
</g>

<g id="Mask_5_MASK_0_FILL">
<path fill="#FFFFFF" stroke="none" d="
M 329.55 296.1
Q 328.7 288.75 330.15 281.85 332.05 272.75 315.25 267.5 310 265.85 303.55 264.8
L 298.1 264.1 293.3 319.1 308.2 345.1 350.1 345.4 378.6 330.8 384 292.5
Q 375.9 291.7 367.15 291.25 349.6 290.35 346.15 292.15
L 333.3 308.5
Q 330.45 303.5 329.55 296.1 Z"/>
</g>

<g id="r_arm_0_Layer1_0_FILL">
<path fill="#221F20" stroke="none" d="
M 50.85 12.25
Q 43.7 15.5 43 15.8 40.7 16.8 37.4 17.8
L 36.5 21.2
Q 35.1 24.8 32.9 26.05 30.25 27.6 28.3 27.1 26.8 26.7 25.2 24.8 16.05 12.65 11.8 7.4 4.35 -1.85 1.65 0.15 -1.25 2.3 7.85 15.55 15.85 27.2 20.95 31.7 25.35 35.55 27.45 36.25 30.85 37.3 36.75 35.1 45.4 31.85 50.85 12.25
M 40 15.05
L 39.9 15.05 40 15.05 40 15.05 Z"/>
</g>

<g id="r_hand_0_Layer0_0_FILL">
<path fill="#E9ECEE" stroke="none" d="
M 539.35 735.05
Q 541.05 730.9 540.85 727.35 540.6 723.75 538.55 723 534.8 721.7 532.7 723 530.95 724.1 528.8 728.35 523.2 720.2 522.4 719.35 519.1 715.7 514.45 715.45 506.6 715.05 500.95 720.85 495.4 726.55 495.3 734.65 495.15 742.55 500.7 748.1 506.2 753.65 514.45 753.8
L 514.5 753.8
Q 514.2 755.05 514.7 755.95 515.85 757.85 519.65 757.45 523.45 757.1 527.7 754.6 532 752.15 534.25 749 536.5 745.9 535.4 744 535.05 743.5 534.5 743.1 537.45 739.6 539.35 735.05 Z"/>
</g>

<g id="l_arm_0_Layer0_0_FILL">
<path fill="#221F20" stroke="none" d="
M 2.4 10.2
Q 9.7 27.85 10.85 40.8 11.95 52.8 8.95 76.55 7.9 84.7 8.25 87.7 8.75 91.8 11.75 91.75 12.95 91.75 14.85 86.65 16.9 81.15 18.25 73.4 21.95 52.6 17.9 34.95 13.8 17 9.75 7.75 6.35 -0.05 3.8 0 0.1 0.05 0 2.6 0 4.45 2.4 10.2 Z"/>
</g>

<g id="l_hand_0_Layer0_0_FILL">
<path fill="#E9ECEE" stroke="none" d="
M 763.9 874.65
Q 760.9 877.65 760.05 881.05 759.2 884.45 761 886.25 762.15 887.4 764.05 887.5 765.85 887.55 767.95 886.6 766.8 893.9 769.15 897.7 771.5 901.6 778.1 902.85 786.15 904.4 792.8 901.95 800.6 899.05 802.2 891.6 805.3 877.25 797.15 871.95 800.45 870.9 800.6 869.2 800.8 867.2 796.95 865.4 793.1 863.65 787.45 863.1 781.8 862.55 777.7 863.6 773.6 864.65 773.4 866.65 773.25 867.95 775 869.2 772.15 869.65 769.05 871.2 765.8 872.75 763.9 874.65 Z"/>
</g>

<g id="FlashAICB_Assets_Isolation_Mode__Group__0_Layer0_0_MEMBER_0_FILL">
<path fill="#BAD9EC" stroke="none" d="
M 601.25 442.95
Q 624.5 227.3 640.2 33.35
L 0 33.35
Q 16.95 236.2 42.2 456.45 92.75 897 134.45 984.2 144.05 1004.25 201.7 1018.15 255.85 1031.2 325.7 1032.95 398.5 1034.8 449.7 1023 507.6 1009.7 516.95 982.75 554.7 874.3 601.25 442.95 Z"/>
</g>

<g id="FlashAICB_Assets_Isolation_Mode__Group__0_Layer0_0_MEMBER_1_FILL">
<path fill="#98C7E5" stroke="none" d="
M 639.9 32.7
Q 639.9 26.05 614.75 20 590.5 14.1 546.25 9.6 452.6 0 320.2 0 187.8 0 94.15 9.6 49.9 14.1 25.65 20 0.5 26.05 0.5 32.7 0.5 39.35 25.65 45.4 49.9 51.3 94.15 55.8 187.75 65.35 320.2 65.35 452.65 65.35 546.25 55.8 590.5 51.3 614.75 45.4 639.9 39.35 639.9 32.7 Z"/>
</g>

<g id="Symbol_47_0_Layer0_0_FILL">
<path fill="#3E914D" stroke="none" d="
M 439.6 240.9
Q 436.05 242.25 430.9 240.9 427.2 239.9 420.8 236.75
L 409.7 231.35
Q 403.05 228.45 397.85 227.55 386.25 225.5 381.55 227.2 377.55 228.65 377 233.6 376.45 238.1 386.25 242.65 395.8 247.05 408.45 248.5 418.75 249.7 432.3 244.65 436.65 243.05 439.4 241.5 442.15 239.95 439.6 240.9 Z"/>
</g>

<g id="Symbol_47_0_Layer0_1_FILL">
<path fill="#3E914D" stroke="none" d="
M 387.7 241
L 384.05 240.35 384.45 247.55 387.15 247.7 387.7 241 Z"/>
</g>

<g id="Symbol_47_0_Layer0_2_FILL">
<path fill="#221F20" stroke="none" d="
M 386.45 332.15
Q 386.2 333.4 385.95 344.1 385.7 353.45 384.85 354.05
L 376.9 359.3
Q 374 361.6 377.5 361.85
L 381.1 361.95 384.1 361.7 388.25 360.95
Q 390.25 360.4 391 359.9 391.95 359.25 391.85 356
L 391.55 351.85 390.15 333.1
Q 390.05 332.15 389 332.05
L 386.45 332.15 Z"/>
</g>

<g id="Symbol_47_0_Layer0_3_FILL">
<path fill="#221F20" stroke="none" d="
M 360.9 329.5
Q 360.55 330.7 359.25 341.35 358.15 350.6 357.25 351.1
L 348.8 355.6
Q 345.7 357.6 349.15 358.15
L 352.75 358.6 355.75 358.65 359.95 358.3 362.8 357.5
Q 363.8 356.95 364 353.75
L 364.1 349.55 364.5 330.75
Q 364.5 329.8 363.45 329.6
L 360.9 329.5 Z"/>
</g>

<g id="Symbol_47_0_Layer0_4_FILL">
<path fill="#EA983E" stroke="none" d="
M 423.1 273.35
Q 419.4 265.35 412.65 259.1 405.85 252.9 397.1 249.5 388 246 378.05 246 368.1 246 359.05 249.5 350.25 252.9 343.5 259.1 336.7 265.35 333 273.35 329.15 281.7 329.15 290.8 329.15 299.9 333 308.25 336.7 316.25 343.5 322.5 350.25 328.7 359.05 332.1 368.1 335.6 378.05 335.6 388 335.6 397.1 332.1 405.85 328.7 412.65 322.5 419.4 316.25 423.1 308.25 426.95 299.9 426.95 290.8 426.95 281.7 423.1 273.35 Z"/>
</g>

<g id="Symbol_47_0_Layer0_5_FILL">
<path fill="#E3753A" stroke="none" d="
M 426.95 290.85
Q 426.95 278.1 419.7 267.3 412.6 256.8 400.7 251.1 409 257.3 413.65 266.1 418.5 275.25 418.5 285.55 418.5 294.5 414.8 302.7 411.2 310.6 404.65 316.65 398.15 322.75 389.65 326.1 380.85 329.55 371.25 329.55 362 329.55 353.5 326.3 345.25 323.2 338.75 317.5 345.6 325.9 355.75 330.7 366.2 335.65 378.1 335.65 388.05 335.65 397.1 332.1 405.9 328.7 412.65 322.55 419.4 316.3 423.15 308.25 426.95 299.95 426.95 290.85 Z"/>
</g>

<g id="Symbol_47_0_Layer0_6_FILL">
<path fill="#221F20" stroke="none" d="
M 389.5 264.25
Q 387.8 264.55 387.6 265
L 389.2 265.1
Q 391.5 264.95 393.25 265.55 395 266.1 396.75 267.5 398.05 268.45 398.1 268.3 398.25 267.8 397.05 266.65 395.6 265.3 393.55 264.65 391.5 263.95 389.5 264.25 Z"/>
</g>

<g id="Symbol_47_0_Layer0_7_FILL">
<path fill="#221F20" stroke="none" d="
M 352.2 263.35
L 357.8 263.55
Q 357.7 263 356.05 262.55
L 352.05 262.4
Q 349.9 262.75 348.25 263.8 346.85 264.75 346.9 265.25 346.95 265.45 348.4 264.7 350.4 263.65 352.2 263.35 Z"/>
</g>

<g id="Layer1_1_FILL">
<path fill="#221F20" stroke="none" d="
M 1.6 10.65
Q 3.4 12.65 6.05 12.75 8.7 12.9 10.65 11.15 12.65 9.35 12.8 6.75 12.9 4.1 11.15 2.1 9.4 0.15 6.75 0 4.1 -0.15 2.1 1.6 0.15 3.4 0 6.05 -0.15 8.7 1.6 10.65
M 90.7 15.35
Q 90.55 18 92.3 20 94.1 21.95 96.75 22.1 99.4 22.25 101.35 20.5 103.35 18.7 103.45 16.05 103.6 13.4 101.85 11.45 100.05 9.45 97.45 9.35 94.8 9.2 92.8 10.95 90.85 12.7 90.7 15.35 Z"/>
</g>

<g id="Symbol_48_0_Layer0_0_FILL">
<path fill="#C55C64" stroke="none" d="
M 39.65 3.6
Q 35.4 0.8 21.25 0.1 6.5 -0.65 2.05 3.15 -1.05 5.85 0.5 11.85 1.75 16.9 7.1 20.25 12.8 23.9 21 23.95 29.25 24.05 35.05 20.55 40.45 17.25 41.8 12.25 43.4 6.05 39.65 3.6 Z"/>
</g>

<g id="Symbol_49_0_Layer0_0_FILL">
<path fill="#AF3033" stroke="none" d="
M 42.2 11.3
Q 42.95 4.85 41.15 3.25 38.85 1.15 32.6 3.45 27.15 5.5 23.55 8.65 22.5 7.8 21.1 7.7 19.85 7.6 18.75 8.25 15.5 4.65 10.45 1.95 4.65 -1.1 2.1 0.65 0.1 2.05 0 8.5 -0.15 15.1 2.2 17.2 4.55 19.35 10.25 18.35 15.7 17.4 18.6 14.9 19.55 15.45 20.6 15.55
L 22.8 15.05
Q 25.3 18 30.65 19.7 36.25 21.45 38.85 19.65 41.45 17.9 42.2 11.3 Z"/>
</g>

<g id="Mask_Mask_Symbol_51_0_Layer0_0_FILL">
<path fill="#FFFFFF" stroke="none" d="
M 329.55 296.1
Q 328.7 288.75 330.15 281.85 332.05 272.75 315.25 267.5 310 265.85 303.55 264.8
L 298.1 264.1 293.3 319.1 308.2 345.1 350.1 345.4 378.6 330.8 384 292.5 367.15 291.25
Q 349.6 290.35 346.15 292.15
L 333.3 308.5
Q 330.45 303.5 329.55 296.1 Z"/>
</g>

<g id="Symbol_52_0_Layer0_0_FILL">
<path fill="#221F20" stroke="none" d="
M 39.95 15.1
L 40.05 15.05 40 15.05 39.95 15.1
M 50.85 12.25
L 43 15.8
Q 40.7 16.8 37.4 17.8
L 36.5 21.2
Q 35.1 24.8 32.9 26.05 30.25 27.6 28.3 27.1 26.8 26.7 25.2 24.8
L 11.8 7.4
Q 4.35 -1.85 1.65 0.15 -1.25 2.3 7.85 15.55 15.85 27.2 20.95 31.7 25.35 35.55 27.45 36.25 30.85 37.3 36.75 35.1 45.4 31.85 50.85 12.25 Z"/>
</g>

<g id="Symbol_53_0_Layer0_0_FILL">
<path fill="#E9ECEE" stroke="none" d="
M 44.05 19.65
Q 45.75 15.5 45.55 11.95 45.3 8.35 43.25 7.6 39.5 6.3 37.4 7.6 35.65 8.7 33.5 12.95 27.9 4.8 27.1 3.95 23.8 0.3 19.15 0.05 11.3 -0.35 5.65 5.45 0.1 11.15 0 19.25 -0.15 27.15 5.4 32.7 10.9 38.25 19.15 38.4
L 19.2 38.4
Q 18.9 39.65 19.4 40.55 20.55 42.45 24.35 42.05 28.15 41.7 32.4 39.2 36.7 36.75 38.95 33.6 41.2 30.5 40.1 28.6
L 39.2 27.7
Q 42.15 24.2 44.05 19.65 Z"/>
</g>

<g id="Symbol_54_0_Layer0_0_FILL">
<path fill="#221F20" stroke="none" d="
M 2.4 10.2
Q 9.7 27.85 10.85 40.8 11.95 52.8 8.95 76.55 7.9 84.7 8.25 87.7 8.75 91.8 11.75 91.75 12.95 91.75 14.85 86.65 16.9 81.15 18.25 73.4 21.95 52.6 17.9 34.95 13.8 17 9.75 7.75 6.35 -0.05 3.8 0 0.1 0.05 0 2.6 0 4.45 2.4 10.2 Z"/>
</g>

<g id="Symbol_55_0_Layer0_0_FILL">
<path fill="#E9ECEE" stroke="none" d="
M 37.15 2.5
Q 33.3 0.75 27.65 0.2
L 17.9 0.7
Q 13.8 1.75 13.6 3.75 13.45 5.05 15.2 6.3 12.35 6.75 9.25 8.3 6 9.85 4.1 11.75 1.1 14.75 0.25 18.15 -0.6 21.55 1.2 23.35 2.35 24.5 4.25 24.6 6.05 24.65 8.15 23.7 7 31 9.35 34.8 11.7 38.7 18.3 39.95 26.35 41.5 33 39.05 40.8 36.15 42.4 28.7 45.5 14.35 37.35 9.05 40.65 8 40.8 6.3 41 4.3 37.15 2.5 Z"/>
</g>

<path id="r_hand_0_Layer0_0_1_STROKES" stroke="#221F20" stroke-width="2" stroke-linejoin="miter" stroke-linecap="butt" stroke-miterlimit="10" fill="none" d="
M 495.3 734.65
Q 495.4 726.55 500.95 720.85 506.6 715.05 514.45 715.45 519.1 715.7 522.4 719.35 523.2 720.2 528.8 728.35 530.95 724.1 532.7 723 534.8 721.7 538.55 723 540.6 723.75 540.85 727.35 541.05 730.9 539.35 735.05 537.45 739.6 534.5 743.1 535.05 743.5 535.4 744 536.5 745.9 534.25 749 532 752.15 527.7 754.6 523.45 757.1 519.65 757.45 515.85 757.85 514.7 755.95 514.2 755.05 514.5 753.8
L 514.45 753.8
Q 506.2 753.65 500.7 748.1 495.15 742.55 495.3 734.65 Z"/>

<path id="l_hand_0_Layer0_0_1_STROKES" stroke="#221F20" stroke-width="2" stroke-linejoin="miter" stroke-linecap="butt" stroke-miterlimit="10" fill="none" d="
M 763.9 874.65
Q 765.8 872.75 769.05 871.2 772.15 869.65 775 869.2 773.25 867.95 773.4 866.65 773.6 864.65 777.7 863.6 781.8 862.55 787.45 863.1 793.1 863.65 796.95 865.4 800.8 867.2 800.6 869.2 800.45 870.9 797.15 871.95 805.3 877.25 802.2 891.6 800.6 899.05 792.8 901.95 786.15 904.4 778.1 902.85 771.5 901.6 769.15 897.7 766.8 893.9 767.95 886.6 765.85 887.55 764.05 887.5 762.15 887.4 761 886.25 759.2 884.45 760.05 881.05 760.9 877.65 763.9 874.65 Z"/>

<path id="Symbol_53_0_Layer0_0_1_STROKES" stroke="#221F20" stroke-width="2" stroke-linejoin="miter" stroke-linecap="butt" stroke-miterlimit="10" fill="none" d="
M 0 19.25
Q 0.1 11.15 5.65 5.45 11.3 -0.35 19.15 0.05 23.8 0.3 27.1 3.95 27.9 4.8 33.5 12.95 35.65 8.7 37.4 7.6 39.5 6.3 43.25 7.6 45.3 8.35 45.55 11.95 45.75 15.5 44.05 19.65 42.15 24.2 39.2 27.7
L 40.1 28.6
Q 41.2 30.5 38.95 33.6 36.7 36.75 32.4 39.2 28.15 41.7 24.35 42.05 20.55 42.45 19.4 40.55 18.9 39.65 19.2 38.4
L 19.15 38.4
Q 10.9 38.25 5.4 32.7 -0.15 27.15 0 19.25 Z"/>

<path id="Symbol_55_0_Layer0_0_1_STROKES" stroke="#221F20" stroke-width="2" stroke-linejoin="miter" stroke-linecap="butt" stroke-miterlimit="10" fill="none" d="
M 4.1 11.75
Q 6 9.85 9.25 8.3 12.35 6.75 15.2 6.3 13.45 5.05 13.6 3.75 13.8 1.75 17.9 0.7
L 27.65 0.2
Q 33.3 0.75 37.15 2.5 41 4.3 40.8 6.3 40.65 8 37.35 9.05 45.5 14.35 42.4 28.7 40.8 36.15 33 39.05 26.35 41.5 18.3 39.95 11.7 38.7 9.35 34.8 7 31 8.15 23.7 6.05 24.65 4.25 24.6 2.35 24.5 1.2 23.35 -0.6 21.55 0.25 18.15 1.1 14.75 4.1 11.75 Z"/>
</defs>

<g transform="matrix( 0.444122314453125, 0, 0, 0.444122314453125, 78.05,-60.55) ">
<use xlink:href="#Layer11_0_FILL"/>
</g>

<g transform="matrix( 0.444122314453125, 0, 0, 0.444122314453125, 78.05,-60.55) ">
<use xlink:href="#Layer11_1_FILL"/>
</g>

<g transform="matrix( 0.444122314453125, 0, 0, 0.444122314453125, 78.05,-60.55) ">
<use xlink:href="#Layer11_2_FILL"/>
</g>

<g transform="matrix( 0.444122314453125, 0, 0, 0.444122314453125, 78.05,-60.55) ">
<use xlink:href="#Layer11_3_FILL"/>
</g>

<g transform="matrix( 1, 0, 0, 1, 0,0) ">
<use xlink:href="#Layer11_4_FILL"/>
</g>

<g transform="matrix( 0.444122314453125, 0, 0, 0.444122314453125, 78.05,-60.55) ">
<use xlink:href="#Layer11_5_FILL"/>
</g>

<g transform="matrix( 0.444122314453125, 0, 0, 0.444122314453125, 78.05,-60.55) ">
<use xlink:href="#Layer10_0_FILL"/>
</g>

<g transform="matrix( 0.444122314453125, 0, 0, 0.444122314453125, 78.05,-60.55) ">
<use xlink:href="#Layer9_0_FILL"/>
</g>

<g transform="matrix( 0.444122314453125, 0, 0, 0.444122314453125, 348.7,273.55) ">
<g transform="matrix( 1, 0, 0, 1, 0,0) ">
<use xlink:href="#eyes_0_Layer0_0_FILL"/>
</g>

<g transform="matrix( 1, 0, 0, 1, 0,0) ">
<use xlink:href="#eyes_0_Layer0_1_FILL"/>
</g>
</g>

<g transform="matrix( 0.444122314453125, 0, 0, 0.1289825439453125, 359.25,288.9) ">
<g transform="matrix( 1, 0, 0, 1, -633.2,-778.45) ">
<use xlink:href="#mouth_0_Layer0_0_FILL"/>
</g>
</g>

<g transform="matrix( 1, 0, 0, 1, 345.2,298.65) ">
<g transform="matrix( 0.444122314453125, 0, 0, 0.444122314453125, -635.95,-162.65) ">
<use xlink:href="#tie_0_Layer0_0_FILL"/>
</g>
</g>

<mask id="Mask_Mask_1">
<g transform="matrix( 1, 0, 0, 1, 0,0) ">
<use xlink:href="#Mask_5_MASK_0_FILL"/>
</g>
</mask>

<g mask="url(#Mask_Mask_1)">
<g transform="matrix( 0.11492919921875, -0.4289398193359375, 0.4289398193359375, 0.11492919921875, 297.65,318.4) ">
<g id="ikNode_1" transform="matrix( 0.5848846435546875, -0.81109619140625, -0.81109619140625, -0.5848846435546875, 46.15,110.25) ">
<g transform="matrix( 1, 0, 0, 1, 0,0) ">
<use xlink:href="#r_arm_0_Layer1_0_FILL"/>
</g>
</g>

<g transform="matrix( 0.5836029052734375, -0.80816650390625, -0.80816650390625, -0.5836029052734375, 50.85,135.5) ">
<g transform="matrix( 1, 0, 0, 1, -495.3,-715.4) ">
<use xlink:href="#r_hand_0_Layer0_0_FILL"/>

<use xlink:href="#r_hand_0_Layer0_0_1_STROKES"/>
</g>
</g>
</g>
</g>

<g transform="matrix( 0.1149444580078125, 0.428558349609375, -0.428558349609375, 0.1149444580078125, 421.45,292.9) ">
<g transform="matrix( 1, 0, 0, 1, 12.4,0) ">
<g transform="matrix( 1, 0, 0, 1, 0,0) ">
<use xlink:href="#l_arm_0_Layer0_0_FILL"/>
</g>
</g>

<g transform="matrix( 1, 0, 0, 1, 0,59.3) ">
<g transform="matrix( 1, 0, 0, 1, -759.8,-862.9) ">
<use xlink:href="#l_hand_0_Layer0_0_FILL"/>

<use xlink:href="#l_hand_0_Layer0_0_1_STROKES"/>
</g>
</g>
</g>

<g transform="matrix( 0.3416748046875, 0, 0, 0.3416748046875, 92.6,26.5) ">
<g transform="matrix( 1, 0, 0, 1, 0,0) ">
<use filter="url(#Filter_1)" xlink:href="#FlashAICB_Assets_Isolation_Mode__Group__0_Layer0_0_MEMBER_0_FILL"/>
</g>

<g transform="matrix( 1, 0, 0, 1, 0,0) ">
<use filter="url(#Filter_1)" xlink:href="#FlashAICB_Assets_Isolation_Mode__Group__0_Layer0_0_MEMBER_1_FILL"/>
</g>
</g>

<g transform="matrix( -1, 0, 0, 1, 580.6,0) ">
<g transform="matrix( 1, 0, 0, 1, 0,0) ">
<use xlink:href="#Symbol_47_0_Layer0_0_FILL"/>
</g>

<g transform="matrix( 1, 0, 0, 1, 0,0) ">
<use xlink:href="#Symbol_47_0_Layer0_1_FILL"/>
</g>

<g transform="matrix( 1, 0, 0, 1, 0,0) ">
<use xlink:href="#Symbol_47_0_Layer0_2_FILL"/>
</g>

<g transform="matrix( 1, 0, 0, 1, 0,0) ">
<use xlink:href="#Symbol_47_0_Layer0_3_FILL"/>
</g>

<g transform="matrix( 1, 0, 0, 1, 0,0) ">
<use xlink:href="#Symbol_47_0_Layer0_4_FILL"/>
</g>

<g transform="matrix( 1, 0, 0, 1, 0,0) ">
<use xlink:href="#Symbol_47_0_Layer0_5_FILL"/>
</g>

<g transform="matrix( 1, 0, 0, 1, 0,0) ">
<use xlink:href="#Symbol_47_0_Layer0_6_FILL"/>
</g>

<g transform="matrix( 1, 0, 0, 1, 0,0) ">
<use xlink:href="#Symbol_47_0_Layer0_7_FILL"/>
</g>
</g>

<g transform="matrix( -0.444122314453125, 0, 0, 0.444122314453125, 231.9,273.55) ">
<use xlink:href="#Layer1_1_FILL"/>
</g>

<g transform="matrix( -0.444122314453125, 0, 0, 0.1289825439453125, 221.35,288.9) ">
<g transform="matrix( 1, 0, 0, 1, 0,0) ">
<use xlink:href="#Symbol_48_0_Layer0_0_FILL"/>
</g>
</g>

<g transform="matrix( -1, 0, 0, 1, 235.4,298.65) ">
<g transform="matrix( 1, 0, 0, 1, 0,0) ">
<use xlink:href="#Symbol_49_0_Layer0_0_FILL"/>
</g>
</g>

<g transform="matrix( -1, 0, 0, 1, 580.6,0) ">
<mask id="Mask_Mask_2">
<g transform="matrix( 1, 0, 0, 1, 0,0) ">
<g transform="matrix( 1, 0, 0, 1, 0,0) ">
<use xlink:href="#Mask_Mask_Symbol_51_0_Layer0_0_FILL"/>
</g>
</g>
</mask>

<g mask="url(#Mask_Mask_2)">
<g transform="matrix( -0.2806854248046875, -0.344085693359375, -0.344085693359375, 0.2806854248046875, 350.2,311.25) ">
<g transform="matrix( 1, 0, 0, 1, 0,0) ">
<use xlink:href="#Symbol_52_0_Layer0_0_FILL"/>
</g>
</g>

<g transform="matrix( -0.279571533203125, -0.34320068359375, -0.34320068359375, 0.279571533203125, 361.6,312.15) ">
<g transform="matrix( 1, 0, 0, 1, 0,0) ">
<use xlink:href="#Symbol_53_0_Layer0_0_FILL"/>

<use xlink:href="#Symbol_53_0_Layer0_0_1_STROKES"/>
</g>
</g>
</g>
</g>

<g transform="matrix( -0.1149444580078125, 0.428558349609375, 0.428558349609375, 0.1149444580078125, 157.75,298.2) ">
<g transform="matrix( 1, 0, 0, 1, 0,0) ">
<use xlink:href="#Symbol_54_0_Layer0_0_FILL"/>
</g>
</g>

<g transform="matrix( -0.1149444580078125, 0.428558349609375, 0.428558349609375, 0.1149444580078125, 184.6,299.7) ">
<g transform="matrix( 1, 0, 0, 1, 0,0) ">
<use xlink:href="#Symbol_55_0_Layer0_0_FILL"/>

<use xlink:href="#Symbol_55_0_Layer0_0_1_STROKES"/>
</g>
</g>

<g transform="matrix( 0.3416748046875, 0, 0, 0.3416748046875, 92.6,26.5) ">
<g transform="matrix( 1, 0, 0, 1, 0,0) ">
<use filter="url(#Filter_1)" xlink:href="#FlashAICB_Assets_Isolation_Mode__Group__0_Layer0_0_MEMBER_0_FILL"/>
</g>

<g transform="matrix( 1, 0, 0, 1, 0,0) ">
<use filter="url(#Filter_1)" xlink:href="#FlashAICB_Assets_Isolation_Mode__Group__0_Layer0_0_MEMBER_1_FILL"/>
</g>
</g>
</svg>
