<?xml version="1.0" encoding="utf-8"?>
<!-- Generator: Adobe Illustrator 21.0.0, SVG Export Plug-In . SVG Version: 6.00 Build 0)  -->
<svg version="1.1" id="Layer_1" xmlns="http://www.w3.org/2000/svg" xmlns:xlink="http://www.w3.org/1999/xlink" x="0px" y="0px"
	 viewBox="0 0 3540.4 1738.8" style="enable-background:new 0 0 3540.4 1738.8;" xml:space="preserve">
<style type="text/css">
	.st0{fill:#FFFCED;}
	.st1{fill:#FEEA87;}
	.st2{fill:#AACDE1;}
	.st3{fill:#7CACD0;}
	.st4{fill:#2D2D2D;}
	.st5{fill:#FFFCEF;}
	.st6{fill:#BCBEC0;}
	.st7{fill:#D1D3D4;}
	.st8{fill:#FCE27F;}
</style>
<title>background</title>
<g id="Layer_2">
	<g id="Layer_5">
		<rect x="0" class="st0" width="3540.4" height="894.6"/>
		<polygon class="st1" points="3540.4,893 0,893 1766.8,67.6 		"/>
		<rect x="0" y="890" class="st2" width="3540.4" height="848.8"/>
		<rect y="1546.1" class="st3" width="3540.4" height="192.7"/>
		<path class="st4" d="M1792.1,34.5c12.1,5.4-16,11.7-35.5,11.4s-45.1-7.2-35-12.7c12.5-6.8,16-11.7,35.5-11.4
			S1777.6,28,1792.1,34.5z"/>
		<path class="st5" d="M1890.8,312.5c0.7-38.8-37.4-95.5-65.5-128.6c-25.1-29.7-27.2-101.8-27.2-101.8c-7.1-37.3,5.2-40.1-18.1-43
			l-15.9-0.3l-6.3-0.1l-15.9-0.3c-29.1-0.6-14.7,8.5-26.7,42.1c0,0-4.8,73.6-31,102.3c-29.3,32.1-62.5,80.1-63.3,122.2
			c-1.4,72.9,48.7,117,129.5,121.5v0.1c1.1,0,2.1,0,3.2,0s2.1,0.1,3.2,0.1v-0.1C1837.6,425.3,1889.4,385.4,1890.8,312.5z"/>
		<path class="st6" d="M1715.5,34.6l81.7,1.6c2.8,0.1,5,2.3,4.9,5.1l-0.8,42c-0.1,2.8-2.3,5-5.1,4.9l-81.7-1.6
			c-2.8-0.1-5-2.3-4.9-5.1l0.8-42C1710.5,36.7,1712.7,34.5,1715.5,34.6z"/>
		<path class="st7" d="M1713.3,45l86.1,1.7c2.8,0.1,5,2.3,4.9,5.1l-0.4,21.7c-0.1,2.8-2.3,5-5.1,4.9l-86.1-1.7
			c-2.8-0.1-5-2.3-4.9-5.1l0.4-21.7C1708.2,47.1,1710.5,44.9,1713.3,45z"/>
		<path class="st8" d="M1753,91.5c3.2,15.8,6.3,31.7,8.5,47.7c2.2,15.8,4.9,33.4,1.9,49.3c-2.3,12.3-14.6,29.4-28.9,20.5
			c-6.2-3.8-8.3-11.5-3.4-17.3s13.1-6.6,20-4.5c12.8,3.8,27.4,15.4,32.4,28c6,15.2-6.9,27.2-19.2,33.8c-6.1,3.4-13,5.4-20,5.8
			c-3.4,0.2-6.9-0.2-10.2-1.1c-3.4-1.1-2.7-3.8-0.5-5.8c1.4-1.3,4-2,5.8-2.5c13.2-3.6,27.1,3.4,33.1,15.5c3.4,7,4.5,14.9,3.1,22.6
			c-1.5,8-5.7,15.1-8.5,22.6c-4,10.7-4.3,24.5,6.3,31.5c2.6,1.7,5-2.4,2.4-4.1c-8.1-5.3-7.4-16.4-4.7-24.5c3-8.9,8.1-16.9,9.4-26.4
			c2-15-4.2-31.5-17.9-38.8c-6.2-3.3-13.3-4.6-20.3-3.8c-5.5,0.7-15.8,3.6-16.6,10.4c-0.8,7.1,8.9,8.6,13.9,9
			c8.3,0.7,16.7-1.4,24.2-4.9c13.3-6.2,28.3-18.7,25.8-35s-19.1-29.6-33.5-35.6c-11.8-4.9-31-2.2-32.5,13.5
			c-1.4,14.6,16,22,27.7,16.4c19.2-9.2,18.5-34.2,17.3-52.1c-1.6-24.1-6.3-47.8-11-71.4C1757,87.2,1752.4,88.5,1753,91.5L1753,91.5z
			"/>
	</g>
</g>
</svg>
