<?xml version="1.0" encoding="UTF-8" standalone="no"?>
<svg
   xmlns:dc="http://purl.org/dc/elements/1.1/"
   xmlns:cc="http://creativecommons.org/ns#"
   xmlns:rdf="http://www.w3.org/1999/02/22-rdf-syntax-ns#"
   xmlns:svg="http://www.w3.org/2000/svg"
   xmlns="http://www.w3.org/2000/svg"
   version="1.1"
   id="svg2"
   viewBox="0 0 3494.0001 1718"
   width="986.08447mm"
   height="484.85779mm">
  <defs
     id="defs8">
    <style
       id="style3144">.cls-1{fill:#76ccd6;}.cls-2{fill:#99d8e2;}.cls-3{fill:#33b9b5;}.cls-4{fill:#287e82;}.cls-5{fill:#166868;}.cls-6{fill:#c7e9f3;}</style>
  </defs>
  <metadata
     id="metadata4">
    <rdf:RDF>
      <cc:Work
         rdf:about="">
        <dc:format>image/svg+xml</dc:format>
        <dc:type
           rdf:resource="http://purl.org/dc/dcmitype/StillImage" />
        <dc:title></dc:title>
      </cc:Work>
    </rdf:RDF>
  </metadata>
  <g
     id="Layer_2"
     data-name="Layer 2">
    <g
       id="Layer_5"
       data-name="Layer 5">
      <rect
         style="fill:#76ccd6"
         y="0"
         x="0"
         class="cls-1"
         width="3494"
         height="1718"
         id="rect3150" />
      <polygon
         style="fill:#99d8e2"
         class="cls-2"
         points="0,869.25 1743.63,46.79 3494,869.25 3494,869.25 "
         id="polygon3152" />
      <path
         style="fill:#166868"
         class="cls-5"
         d="m 1780.39,13.73 c 12.14,5.42 -16.09,11.73 -35.64,11.35 -19.55,-0.38 -45.37,-7.22 -35.18,-12.72 12.55,-6.77 16.08,-11.72 35.64,-11.36 19.56,0.36 20.64,6.24 35.18,12.73 z"
         id="path3158" />
      <path
         style="fill:#c7e9f3"
         class="cls-6"
         d="m 1879.63,291.72 c 0.75,-38.79 -37.62,-95.48 -65.83,-128.65 -25.25,-29.68 -27.36,-101.79 -27.36,-101.79 -7.16,-37.27 5.28,-40.06 -18.17,-43 l -16,-0.31 -6.34,-0.12 -16,-0.31 c -29.28,-0.56 -14.78,8.55 -26.82,42.11 0,0 -4.83,73.64 -31.21,102.33 -29.47,32.05 -62.85,80.08 -63.67,122.25 -1.41,72.85 48.94,117 130.2,121.52 l 0,0.13 c 1.06,0 2.11,0 3.17,0 1.06,0 2.11,0.08 3.17,0.1 l 0,-0.13 c 81.4,-1.33 133.46,-41.28 134.86,-114.13 z"
         id="path3160" />
      <rect
         style="fill:#287e82"
         class="cls-4"
         x="1697.85"
         y="14.62"
         width="92.18"
         height="51.990002"
         rx="5"
         ry="5"
         transform="matrix(0.99981235,0.01937194,-0.01937194,0.99981235,1.11,-33.64)"
         id="rect3162" />
      <rect
         style="fill:#33b9b5"
         class="cls-3"
         x="1695.83"
         y="25.08"
         width="96.610001"
         height="31.709999"
         rx="5"
         ry="5"
         transform="matrix(0.99981235,0.01937194,-0.01937194,0.99981235,1.11,-33.64)"
         id="rect3164" />
      <path
         style="fill:#76ccd6"
         class="cls-1"
         d="m 1741.15,70.74 c 3.18,15.82 6.37,31.66 8.58,47.66 2.18,15.75 4.9,33.46 1.87,49.25 -2.38,12.37 -14.71,29.32 -29,20.46 -6.18,-3.82 -8.4,-11.5 -3.41,-17.29 4.99,-5.79 13.16,-6.56 20.11,-4.49 12.89,3.83 27.51,15.33 32.54,28 6,15.24 -7,27.21 -19.34,33.8"
         id="path3166" />
    </g>
  </g>
</svg>
