<svg xmlns="http://www.w3.org/2000/svg" viewBox="0 0 542.18 1236.05"><defs><style>.cls-1{fill:#81b4d4;}.cls-2{fill:#1e120d;}.cls-3{fill:#301c11;}.cls-4{fill:#e6e7e8;}.cls-5{fill:#472516;}.cls-6{fill:#d1d3d4;}.cls-7{fill:#d62027;}.cls-8{fill:#fff;}.cls-9{fill:#bb2026;}.cls-10{fill:#7c1316;}</style></defs><title>cola</title><g id="Layer_2" data-name="Layer 2"><g id="drinks_and_fruits" data-name="drinks and fruits"><path class="cls-1" d="M0,1193.66c0-23.15,112.66-35.15,254.77-35.15s255.55,3,255.55,26.12-103.25,55.92-257.65,50.91C110.64,1230.91,0,1216.81,0,1193.66Z"/><path class="cls-2" d="M427,1060.31c-24,85.12-30.25,165.75-92.89,165.75-92.88,0-87.55-116.36-103.75-165.75-27.57-84,43.27-154.5,101.43-154.5S448.63,983.6,427,1060.31Z"/><path class="cls-3" d="M510.37,936.68c-21.1,0-68,48-100.92,99.72-22.11-24-50.13-39-80.74-39-31.2,0-59.85,13.16-82.31,35.11-32.08-47.58-75.46-89.95-95.66-89.95-38.43,0-31.11,80.39-31.11,155.58s31.15,136.14,69.58,136.14c37.36,0,50.83-22.26,87.84-82.31,13.84-7.75,29-14,44.93-15.6,22.78-2.21,44.49,8.16,63.64,21,34.52,56,48.28,76.89,84.5,76.89,38.43,0,63.8-63.35,63.8-138.53S548.8,936.68,510.37,936.68Z"/><path class="cls-4" d="M494,253.75c-45.74-50-126.79-81.15-120.31-160.16l-44.6,2.5V96l-.78,0-.78-6.92v7l-45-2.09C289,173,208.4,203.73,162.65,253.75c-46.21,50.53-46.21,185.85-46.21,185.85,2.94,7,44.73,17.07,84.68,29.17,65.22,19.76,74.16,14.85,127.22,8.58,53.06,6.27,62,11.19,127.22-8.58,40-12.11,81.74-22.17,84.68-29.17C540.24,439.6,540.24,304.28,494,253.75Z"/><path class="cls-3" d="M161,255.63c-44.55,51.91-44.56,184-44.56,184,2.94,7,44.73,17.07,84.68,29.17,65.22,19.76,74.16,14.85,127.22,8.58,53.06,6.27,62,11.19,127.22-8.58,40-12.11,81.74-22.17,84.68-29.17,0,0,0-135-46-185.64-48-12.91-103.88-20.32-163.58-20.32C268.41,233.64,210.3,241.69,161,255.63Z"/><path class="cls-5" d="M161,255.63c-6.49,7.56,10.05-2.73,0,0-28.76,36.9,77.49,58,166.82,58,90.49,0,197.69-25.75,166.21-59.89-4-.49,7.82,9,1.36,1.56-3.08-1.27-6.48-2.49-10.15-3.67-39.56-9.88-84.15-16.09-131.57-17.61l-3-.08-4.39-.1q-4.25-.09-8.55-.14c-1.87,0-3.75,0-5.63,0h-2.19C268,233.71,210.11,241.75,161,255.63Z"/><rect class="cls-6" x="268.38" y="10.74" width="116.69" height="80.42"/><ellipse class="cls-4" cx="326.72" cy="10.74" rx="58.34" ry="10.74"/><ellipse class="cls-6" cx="326.72" cy="91.16" rx="58.34" ry="9.32"/><path class="cls-7" d="M340.55,470.12v-.31c-3.46.1-6.88.16-10.26.21s-6.8-.12-10.26-.21v.31c-127.33.27-201.64-30.52-201.64-30.52l2.43,556.22c.41,9.87,90.11,46.67,199.21,51.77v.6q5.16-.06,10.26-.21,5.11.15,10.26.21v-.6c109.09-5.1,193.66-38.39,194.07-48.26l1.62-556.69S467.88,470.39,340.55,470.12Z"/><path class="cls-8" d="M340.55,469.81c-3.46.1-6.88.16-10.26.21s-6.8-.12-10.26-.21v.31c-127.33.27-201.64-30.52-201.64-30.52l-1.3,19.81c44.72,12.18,122.17,27.14,208.4,27.14,92.76,0,173.68-9.27,216.55-23l.15-23.92s-74.3,30.79-201.64,30.52Z"/><path class="cls-9" d="M338.61,1047.59c109.09-5.1,197.81-39.43,198.22-49.29l3.41-558.7s-74.3,30.79-201.64,30.52Z"/><path class="cls-6" d="M541.91,464.52l-.54-25.93c-7.22,2.49-19.4,6.34-36.13,10.37a659.46,659.46,0,0,1-167.53,21.23l.81,17C422.93,486.76,498.71,476.64,541.91,464.52Z"/><ellipse class="cls-10" cx="328.34" cy="732.38" rx="191.32" ry="179.36" transform="translate(-292.7 223.95) rotate(-26.55)"/><path class="cls-8" d="M343.65,1032.16c-82.34,4.14-181.78-25.54-223-42.44l.06,9.66c.41,9.87,90.06,44.2,200.3,49.29v.12c1.14-.11,2.34-.17,3.58-.17s2.54.08,3.72.19c1.09,0,2.16-.06,3.18-.06,1.68,0,3.45.12,5.21.29a37.46,37.46,0,0,1,4.63-.29h.42v-.1c110.23-5.1,194.61-31.64,195-41.51V995.28C488.68,1012.61,411.45,1028.75,343.65,1032.16Z"/><path class="cls-6" d="M338.52,1032.36v16.52c.91-.07,1.84-.12,2.82-.12h.42v-.1c110.23-5.1,194.61-31.64,195-41.51V995.28c-48.1,17.33-125.33,33.47-193.13,36.88C342,1032.25,340.23,1032.3,338.52,1032.36Z"/><path class="cls-8" d="M185.74,721.7l19.41-.08.14,35c.07,17.67-6.94,27.8-20.56,27.85S164,774.49,164,756.82l-.24-57.43c-.07-17.67,6.94-27.8,20.56-27.85s20.71,10,20.78,27.68l0,10.73L192,710l0-11.83c0-7.89-2.82-10.88-7.23-10.86s-7.17,3-7.14,10.92l.24,59.64c0,7.89,2.82,10.72,7.23,10.7s7.17-2.87,7.14-10.76l-.08-20.35-6.3,0Z"/><path class="cls-8" d="M228,719.16l19-.08.06,15.78-19,.08.13,32.34,23.95-.1.06,15.78-37.81.16-.45-110.44,37.81-.16.06,15.78-23.95.1Z"/><path class="cls-8" d="M273,702.89h-.25l.33,80-12.48.05-.45-110.44,17.39-.07,14.26,66h.25l-.27-66.11,12.35-.05.45,110.44-14.24.06Z"/><path class="cls-8" d="M328.15,718.75l19-.08.06,15.78-19,.08.13,32.34,23.95-.1.06,15.78-37.81.16-.45-110.44,37.81-.16.06,15.78L328,688Z"/><path class="cls-8" d="M389.91,782.4c-.77-2.84-1.28-4.57-1.32-13.56l-.07-17.35c0-10.26-2.83-14-9.13-14l-4.79,0,.18,45-13.86.06-.45-110.44,20.92-.09c14.37-.06,20.58,8.28,20.65,25.32l0,8.68c0,11.36-2.82,18.63-9,22.28v.32c6.95,3.6,9.25,11.8,9.3,23.31l.07,17c0,5.36.16,9.31,1.57,13.4ZM374.4,687.8l.14,33.92,5.42,0c5.17,0,8.31-2.87,8.27-11.71l0-10.89c0-7.89-2.19-11.35-7.1-11.33Z"/><path class="cls-8" d="M456.46,782.13l-14,.06-2.48-20-17,.07-2.31,20-12.73.05,13.66-110.5,20.29-.08Zm-31.78-34.9,13.36-.06-6.78-55.82H431Z"/><path class="cls-8" d="M462.43,671.66l13.86-.06.39,94.66,22.81-.09.06,15.78-36.68.15Z"/></g></g></svg>