<svg xmlns="http://www.w3.org/2000/svg" viewBox="0 0 366.32 644.23"><defs><style>.cls-1{fill:#81b4d4;}.cls-2{fill:#44c7f4;}.cls-3{fill:#27aae1;}.cls-4{fill:#2ab34b;}.cls-5{fill:#009444;}.cls-6{fill:#1a8fcb;}.cls-7{fill:#f47d2b;}.cls-10,.cls-8{fill:#f7941d;}.cls-9{fill:#fff;}.cls-10{stroke:#fff;stroke-miterlimit:10;stroke-width:2.36px;}</style></defs><title>gatorade</title><g id="Layer_2" data-name="Layer 2"><g id="drinks_and_fruits" data-name="drinks and fruits"><path class="cls-1" d="M0,622.05c0-12.11,76.67-18.39,173.39-18.39s173.92,1.55,173.92,13.66S277,646.58,172,644C75.3,641.54,0,634.17,0,622.05Z"/><path class="cls-2" d="M352.79,565.21H84.59C69,573.22,69,585.69,74,604.53c3.18,12.14,14.33,18.12,19.88,20.92,20.16,10.18,51.47,15.22,69.31,15.22l41.18,1.78h5.55c6.08,0,13.14.28,19.52,0H233l41.18-1.78c17.84,0,49.15-5,69.31-15.22,5.55-2.8,16.7-8.78,19.88-20.92C368.34,585.69,368.34,573.22,352.79,565.21Z"/><path class="cls-3" d="M352.79,565.21H218.69v77.33c3.6,0,7.27.06,10.73-.09H233l41.18-1.78c17.84,0,49.15-5,69.31-15.22,5.55-2.8,16.7-8.78,19.88-20.92C368.34,585.69,368.34,573.22,352.79,565.21Z"/><path class="cls-4" d="M356.36,565.21c5.7,30.24-281.45,31.95-277.12,0,5.07-37.39,0-260.66,0-260.66s277.12-69.28,277.12,0C356.36,317.21,347.53,518.39,356.36,565.21Z"/><path class="cls-5" d="M218.69,307.46V588.53c70.41-.24,140.52-8.22,137.67-23.32-8.43-44.67-.77-229.85-.05-257.76Z"/><path class="cls-2" d="M279.78,315.22l-102.82,2c-9.06,0-92.23-2.7-99.29-8.38-4.38-3.53-1.56-19-1.56-19,0-9.06,16.56-17.65,23.18-24.71,29.58-31.56,173.72.73,234.29.73,9.06,0,26.86,11.69,26.86,20.75,0,0,5.24,12.61-2.55,21.77C352,315.29,288.84,315.22,279.78,315.22Z"/><path class="cls-3" d="M218.69,316.4l60.78-1.18c9.06,0,72.23.07,78.11-6.83,7.8-9.16,2.55-21.77,2.55-21.77,0-9.06-17.8-20.75-26.86-20.75-20.54,0-50.68-3.71-82.71-7.39H218.69Z"/><path class="cls-3" d="M346.93,271c16,9.12-280.2,9-253.14-.59,5.35-1.89,2.75-14.91,0-16.09C50.89,236,372.15,221,342.14,254.35,336.76,260.32,341.58,268,346.93,271Z"/><path class="cls-6" d="M218.69,277.75c67.85,0,136.11-2.22,128.24-6.72-5.35-3.06-10.17-10.7-4.79-16.68,6.38-7.09-3.12-12-21.61-15.14H218.69Z"/><path class="cls-2" d="M338.26,188.17c-2-9-10.6-38.33-10.6-38.33-15-47-24.54-62.95-50.83-72.42V61.71h10.53a4,4,0,0,0,4-4h0a4,4,0,0,0-4-4H276.83V50.23h-120v3.41H145.39a4,4,0,0,0-4,4h0a4,4,0,0,0,4,4H156.8V78.18c-37.14,18.3-41.16,38-50.75,76.64C104.27,162,98.8,177,97.45,184.65c-7.22,40.65-69,75.36,85.79,85.79,0,0,83.53,7.31,156.12-17C374.54,241.68,345.36,220.4,338.26,188.17Z"/><path class="cls-3" d="M340.24,253.45c35.18-11.77,6-33.06-1.09-65.28-2-9-10.6-38.33-10.6-38.33-15-47-24.54-62.95-50.83-72.42V61.71h10.53a4,4,0,0,0,4-4h0a4,4,0,0,0-4-4H277.72V50.23h-59V271.45C249.73,271.19,296.93,267.95,340.24,253.45Z"/><path class="cls-7" d="M289.07,53l-146.21.6s2.41-17.56,5.55-22.28c13.18-19.75,76.95-23.33,135,0C286.83,32.73,289.07,53,289.07,53Z"/><path class="cls-8" d="M284.11,31.37s-54.11-7-135.7,0V18.63h0C148.42,9,150,3.37,159.55,2.3,188.46-.9,244.73-.57,272.46,2.11c9.6.93,11.65,6.87,11.65,16.51h0C284.13,21.28,284,25.82,284.11,31.37Z"/><path class="cls-9" d="M101.69,371.18c3.07,0,9.71,1.29,9.71,5.84v3.59H108v-2.29c0-2.59-3.86-3.55-6.21-3.55-5.45,0-9.45,4.63-9.45,11.31,0,7,4.11,11.93,9.67,11.93,1.8,0,6.35-.75,6.35-3.46v-2.29h3.36v3.59c0,4.34-6.39,5.8-9.92,5.8-7.65,0-13.17-6.8-13.17-15.39S94.32,371.18,101.69,371.18Z"/><path class="cls-9" d="M128.57,371.18c7.36,0,13.1,6.55,13.1,15,0,8.68-5.74,15.44-13.1,15.44s-13.1-6.76-13.1-15.44C115.47,377.73,121.17,371.18,128.57,371.18Zm0,26.74c5.16,0,9.35-5.09,9.35-11.72,0-6.42-4.19-11.35-9.35-11.35s-9.38,4.92-9.38,11.35C119.19,392.83,123.38,397.92,128.57,397.92Z"/><path class="cls-9" d="M144.49,397.88h3.18l1.62-23H146v-3.21h7.22l6.53,17.94a19.85,19.85,0,0,1,.58,2.13h.07a19.94,19.94,0,0,1,.58-2.13l6.53-17.94h7.22v3.21h-3.25l1.62,23h3.18v3.25H166.5v-3.25h3.07l-1.15-17.6a23.32,23.32,0,0,1,.11-2.42h-.11a22.86,22.86,0,0,1-.58,2.25L162,395.58h-3.18L153,380.11a22.86,22.86,0,0,1-.58-2.25h-.11a23.32,23.32,0,0,1,.11,2.42l-1.15,17.6h3.07v3.25h-9.82Z"/><path class="cls-9" d="M179.6,397.88h3.18v-23H179.6v-3.21h11.87a9.4,9.4,0,0,1,4.37.79c2.63,1.29,4.33,4.42,4.33,8.34,0,4.13-1.88,7.47-4.8,8.64a9.55,9.55,0,0,1-3.83.63h-5.16v7.8h3.21v3.25h-10Zm11.51-11.22a6.46,6.46,0,0,0,2.85-.58c1.62-.83,2.56-2.71,2.56-5.26,0-2.38-.83-4.13-2.27-5a5.86,5.86,0,0,0-3.1-.71h-4.76v11.56Z"/><path class="cls-9" d="M203.17,397.88h3.18v-23h-3.18v-3.21h18.44v6.84h-3.14V375.1H210v9.47h9V388h-9v9.72h9.13v-3.55h3.14v7H203.17Z"/><path class="cls-9" d="M231,397.88h3.21V375.1h-6v4.59h-3.14v-8H247v8h-3.14V375.1h-6v22.78h3.21v3.25H231Z"/><path class="cls-9" d="M249.94,397.88h3.18v-23h-3.18v-3.21h18.44v6.84h-3.14V375.1h-8.52v9.47h9V388h-9v9.72h9.13v-3.55H269v7H249.94Z"/><path class="cls-9" d="M272.75,397.88h3.18v-23h-3.18v-3.21h6.75L292,392.79a18.43,18.43,0,0,1,.87,2.13H293s-.18-1.46-.18-2.38V374.89h-3.25v-3.21h10.07v3.21h-3.21v26.24h-3.54L280.37,380a13.26,13.26,0,0,1-.87-2.13h-.11a19,19,0,0,1,.14,2.38v17.6h3.28v3.25H272.75Z"/><path class="cls-9" d="M315.7,371.18c3.07,0,9.71,1.29,9.71,5.84v3.59H322v-2.29c0-2.59-3.86-3.55-6.21-3.55-5.45,0-9.45,4.63-9.45,11.31,0,7,4.11,11.93,9.67,11.93,1.8,0,6.35-.75,6.35-3.46v-2.29h3.36v3.59c0,4.34-6.39,5.8-9.92,5.8-7.65,0-13.17-6.8-13.17-15.39S308.34,371.18,315.7,371.18Z"/><path class="cls-9" d="M334.47,397.88h3.21v-9.22l-7.15-13.77h-2.42v-3.21h8.77v3.21h-2.67l4.73,9.26c.29.63.51,1.25.51,1.25h.07a10.68,10.68,0,0,1,.54-1.25l4.73-9.26h-2.63v-3.21h8.7v3.21h-2.42l-7.15,13.77v9.22h3.21v3.25h-10Z"/><path class="cls-10" d="M106.75,458.6h5.34V428.22h-5.34v-8.68h22.3c3.74,0,6.08.13,8.75,1A11.78,11.78,0,0,1,146.15,432a11.45,11.45,0,0,1-5.68,10.22v.13c5.68,1.74,7.61,6.41,7.61,11a13.6,13.6,0,0,1-10.62,13.35,28.52,28.52,0,0,1-7.14.67H106.75ZM129.92,438c2.94,0,4.21-2.07,4.21-4.61,0-1.67-.67-3.47-2.2-4.14a7.63,7.63,0,0,0-2.94-.4H124V438Zm1,19.9a5.42,5.42,0,0,0,2.2-.4c1.87-.8,2.87-3,2.87-5.21,0-2.8-1.6-4.94-5-4.94H124v10.55Z"/><path class="cls-10" d="M151.36,458.6h3.94l13-39.06h13.62l13,39.06h3.94v8.68h-20V458.6h4.14l-1.8-6.34H169l-1.8,6.34h4.14v8.68h-20Zm27.31-15.42-2.47-8.81a27.89,27.89,0,0,1-.94-5H175a28,28,0,0,1-.93,5l-2.54,8.81Z"/><path class="cls-10" d="M212.93,450.32v3.54c0,2.47,3.14,3.87,6.88,3.87s6.41-1.34,6.41-3.87c0-3.67-5.27-4.81-10.28-6.81-6.48-2.47-12.55-5.61-12.55-14.36,0-10.62,8.68-14,17.16-14,8.15,0,16.23,3.07,16.23,9.15V435H226.09v-3c0-1.87-2.54-2.87-5.54-2.87-2.74,0-5.14.8-5.14,3.27,0,3.27,3.94,4.67,8.28,6.21,7.28,2.54,14.56,5.54,14.56,14.56,0,10.88-9.35,15-18.43,15-8.88,0-17.56-3.94-17.56-11.62v-6.14Z"/><path class="cls-10" d="M244.12,458.6h5.34V428.22h-5.34v-8.68h36.79v14.09h-10v-4.74h-9.48v9.68h14v9.35h-14v10h10.28v-4.74h10v14.09H244.12Z"/><path class="cls-10" d="M288.13,458.6h5.34V428.22h-5.34v-8.68h21a34.94,34.94,0,0,1,9.82,1c9.48,2.67,16,10.88,16,22.84,0,11-5.61,19.1-14.36,22.3a32.38,32.38,0,0,1-11.42,1.6h-21.1Zm20.77-.67a16.31,16.31,0,0,0,7.28-1.34c4.07-2.07,6.48-6.81,6.48-13.15,0-7.08-2.94-11.69-7.34-13.55a15.59,15.59,0,0,0-6.41-1h-3.47v29Z"/><path class="cls-9" d="M100.47,510.66H104V488.48h-3.57v-3.1h11.25v3.1h-3.62v22.18h3.62v3.14H100.47Z"/><path class="cls-9" d="M116,510.66h3.57V488.48H116v-3.1h7.6l14.09,20.37a16.46,16.46,0,0,1,1,2.05h.12a20.79,20.79,0,0,1-.2-2.29v-17h-3.66v-3.1h11.33v3.1h-3.62V513.8h-4l-14.09-20.37a11.8,11.8,0,0,1-1-2.05h-.12a15.73,15.73,0,0,1,.16,2.29v17h3.7v3.14H116Z"/><path class="cls-9" d="M155.71,510.66h3.62v-22h-6.74v4.43h-3.53v-7.73h24.62v7.73h-3.53v-4.43h-6.74v22H167v3.14H155.71Z"/><path class="cls-9" d="M177,510.66h3.57V488.48H177v-3.1h20.76V492h-3.53v-3.3h-9.59v9.14h10.15v3.3H184.64v9.38h10.28v-3.42h3.53v6.72H177Z"/><path class="cls-9" d="M202.67,510.66h3.57V488.48h-3.57v-3.1H215.1a16.56,16.56,0,0,1,5.28.6c3,1,5,3.5,5,7.37,0,4.11-2.27,7-5.93,8v.08a3.41,3.41,0,0,1,1.22,1.33l4.06,7c.45.76,1,.93,2,.93h.85v3.14h-2.44c-2.44,0-3-.44-4-2.13l-4.43-7.77c-.73-1.21-1.26-1.57-3-1.57h-3.41v8.33h3.53v3.14H202.67ZM216.07,499c3.13,0,5.2-2,5.2-5.35,0-2.21-.89-3.74-2.68-4.47a10,10,0,0,0-3.53-.52h-4.75V499Z"/><path class="cls-9" d="M231.59,488.48h-2.8v-3.1H239v3.1h-3.17l6.42,18.72a15,15,0,0,1,.49,2.21h.12a14.92,14.92,0,0,1,.49-2.21l6.42-18.72h-3.17v-3.1h10.24v3.1H254L245,513.8h-4.31Z"/><path class="cls-9" d="M259.46,510.66H263V488.48h-3.57v-3.1h11.25v3.1h-3.62v22.18h3.62v3.14H259.46Z"/><path class="cls-9" d="M275,510.66h3.57V488.48H275v-3.1h20.76V492h-3.53v-3.3h-9.59v9.14h10.15v3.3H282.61v9.38h10.28v-3.42h3.53v6.72H275Z"/><path class="cls-9" d="M299.14,485.38h10.2v3.1h-3.41l4.47,18.64c.2,1,.32,2.13.32,2.13h.12s.16-1.13.41-2.13l6-21.74h3.45l6,21.74a15.08,15.08,0,0,1,.41,2.13h.16a19.7,19.7,0,0,1,.28-2.13L332,488.48h-3.41v-3.1h10.24v3.1h-2.76l-6.42,25.32H325l-5.6-20.17a12.85,12.85,0,0,1-.37-2.25h-.16a12.85,12.85,0,0,1-.37,2.25l-5.6,20.17h-4.63l-6.38-25.32h-2.76Z"/></g></g></svg>