<svg xmlns="http://www.w3.org/2000/svg" viewBox="0 0 430.27 780.07"><defs><style>.cls-1{fill:#81b4d4;}.cls-2{fill:#4d315b;}.cls-3{fill:#604275;}.cls-4{fill:#513468;}.cls-5{fill:#2f3178;}.cls-6{fill:#262262;}.cls-7{fill:#bdc2e2;}.cls-8{fill:#adb7d8;}.cls-9{fill:#fff;}.cls-10{fill:#83abdb;}.cls-11{fill:#8dc63f;}.cls-12{font-size:59.37px;fill:#5c6fb5;font-family:Avenir-Black, Avenir Black;}.cls-13{letter-spacing:0em;}.cls-14{letter-spacing:-0.01em;}.cls-15{letter-spacing:0.02em;}.cls-16{letter-spacing:-0.01em;}.cls-17{letter-spacing:-0.01em;}.cls-18{letter-spacing:0em;}</style></defs><title>naked</title><g id="Layer_2" data-name="Layer 2"><g id="drinks_and_fruits" data-name="drinks and fruits"><path class="cls-1" d="M0,749.84c0-16.51,95-25.07,214.81-25.07s215.46,2.12,215.46,18.63S343.21,783.28,213,779.7C93.28,776.41,0,766.35,0,749.84Z"/><ellipse class="cls-2" cx="263.13" cy="79.24" rx="87.31" ry="7.32"/><path class="cls-3" d="M429,203.35c0-40.91-95.36-66.37-97.65-85.43-7.79-65.06,55.87-64.3-27.26-61.75.19-1.9.44-3.66.74-5.27-8.35,3.39-21.34,6-40.9,6.14-19.56-.14-32.55-2.75-40.9-6.14.3,1.61.55,3.36.74,5.27-83.13-2.55-19.47-3.31-27.26,61.75C194.28,137,89.36,154.54,89.36,202c0,244.94,10.89,400.4,13.24,547.38.61,38.34,323.94,33.69,323.94,6C426.54,601.65,429,415.71,429,203.35Z"/><path class="cls-4" d="M331.39,117.91c-7.79-65.06,55.87-64.3-27.26-61.75.19-1.9.44-3.66.74-5.27-8.35,3.39-21.34,6-40.9,6.14-3.15,0-6.11-.12-8.93-.26V777.11c84,.87,171.49-7.3,171.49-21.71,0-153.75,2.49-339.7,2.49-552.05C429,162.44,333.68,137,331.39,117.91Z"/><path class="cls-5" d="M354.18,64.46h0V8.84h-1.28a380.81,380.81,0,0,1-43.57-2.42A132.13,132.13,0,0,1,284,8.85a123.23,123.23,0,0,1-43.5-7.55C230,8.41,215.33,12.82,199.16,12.82a81.06,81.06,0,0,1-29-5.18s0,63.9,0,63.9c.57,4.84,41.54,13.17,92,13.17,50.7,0,91.82-8.72,92-13.59V64.46Z"/><ellipse class="cls-6" cx="262.17" cy="8.85" rx="92.01" ry="8.85"/><path class="cls-7" d="M396.54,636.52C391.6,670,133.64,665,129.05,636c-9.79-62-19-232-19-232H403.32S403.54,589.14,396.54,636.52Z"/><path class="cls-8" d="M251.27,404.11V659.54C321,661,394.07,654,396.7,636.54c7.11-47.35,6.9-232.43,6.9-232.43Z"/><path class="cls-9" d="M400.65,463.34c-73.93-77.91-248.94,53.75-287.26,4.88-11.21-14.3-10.28-165.28,2.79-139.79,28.44,55.46,221.39-84.29,285.32-3.59C411.59,337.59,412.29,475.61,400.65,463.34Z"/><path class="cls-6" d="M408.37,402.94c-56.92-91.08-261.57,53-299.9,4.12-11.21-14.3-4.34-167.08,8.73-141.6,28.44,55.46,232.53-92,285.32-3.59C408.14,271.27,414.88,413.36,408.37,402.94Z"/><path class="cls-10" d="M183.4,305.52c-1.2,0-2.29,0-3.39-.11C174.55,314.7,168.54,325,161.66,334c8.19,7.54,15.62,14.53,23.6,14.53,4,0,6.77-3.17,7.21-3.17s.87.22.87.77S182.85,362,173.24,362c-7.32,0-14.31-7.87-21.74-16.39-8.08,7.65-17.37,12.78-28.08,12.78-14.31,0-21.09-9.07-21.09-18.79,0-11.36,9.18-23.82,26.33-23.82,8.3,0,15.51,3.82,22.07,8.85,5.35-7.32,10.71-15.4,16.17-23.05-9.83-4.81-16.82-13.22-16.82-20,0-4.26,3.61-7.21,5.13-7.21,1.31,0,1.75,2.51,2.73,4.48,3.28,6.66,9,11.36,15.4,14.31,9.61-11.91,19.88-20.87,32-20.87,8.52,0,12.67,4.59,12.67,10.27C218,292.41,206.12,305.52,183.4,305.52ZM122.76,325c-8.08,0-13.55,5.79-13.55,12.24,0,6,4.26,10.6,11.91,10.6,7.43,0,14.31-5,21.09-12.45C136.2,329.45,129.86,325,122.76,325Zm81.94-47.31c-6.34,0-12.46,7.87-19.23,18.79a33.92,33.92,0,0,0,4.7.33c13.66,0,20.43-7.54,20.43-13.11A5.65,5.65,0,0,0,204.7,277.67Z"/><path class="cls-10" d="M232,358A9.88,9.88,0,0,1,222,348.24a10.65,10.65,0,0,1,.11-2.08c-1.75,2.51-10.16,11.91-15.19,11.91s-9.94-6.34-9.94-12.56c0-13.33,17-40.86,22.62-43.15a14.62,14.62,0,0,1,2.84-.22c2.73,0,6.56.55,6.56,2.4a1.74,1.74,0,0,1-.33.87c-2.29,4.37-18.68,33-18.68,40.53,0,1.64.66,2.29,1.53,2.29,2.51,0,11.47-9.83,17.7-20.43,5.46-9.07,12.56-25.35,15-25.35,5.35,0,9.4,1.86,9.4,3.82,0,2.95-1.75,5.68-3.17,8.63s-13.88,25.24-13.88,29.94c0,1.31.33,2.29,2.62,2.29,5.57,0,17.59-19.56,18.46-19.56,1.09,0,1.42,1.86,1.42,3.71C259,334.48,242.72,358,232,358Z"/><path class="cls-10" d="M285.22,358a10,10,0,0,1-10.05-9.72c0-12.46,11.47-30.15,14.31-34.09l-.44-.22c-6,5.79-17.81,19-23.93,28.3s-8.19,15.62-10.49,15.62-7-3.28-7-7.32c0-5.14,20.87-48.84,25.67-48.84,1.64,0,7.54,1.42,7.54,4.48,0,2.73-3.71,10.82-4.26,12.67l.11.11c2-2,14.42-16.5,20.43-16.5,4,0,9.29,2.73,9.29,4.7,0,2.95-1.31,4.81-2.84,7.76s-13.77,25.24-13.77,29.94c0,1.31.33,2.29,2.51,2.29,5.68,0,17.59-19.56,18.57-19.56s1.42,1.86,1.42,3.71C312.32,334.48,295.93,358,285.22,358Z"/><path class="cls-10" d="M321.61,359.39c-8.19,0-15.4-5.46-15.4-17.26,0-13.87,15.4-39.11,30.48-39.11,3.5,0,4.48-1,8-1,5,0,8.85,2.51,8.85,10.71,0,6-4.48,10.27-7.21,11.69s-6,2.62-7.65,2.62c-.77,0-.66-.22-.66-.55s.55-.33,1.31-1.42,3.82-8.19,3.82-14.2c0-1.53-.33-2.51-1.42-2.51-3.82,0-21.3,21-21.3,34.52a7.23,7.23,0,0,0,6.88,7.54c16.17,0,28-22.62,29.28-22.62s1.31,2.51,1.31,3.82C357.88,333.6,343,359.39,321.61,359.39Z"/><path class="cls-10" d="M384.21,358a10,10,0,0,1-10.05-9.72c0-12.46,11.47-30.15,14.31-34.09l-.44-.22c-6.34,5.79-17.81,17.7-24.91,28.08-6.12,9.18-8,15.84-10.16,15.84s-7-3.28-7-7.32c0-2.62,9.83-22,19.34-40.42,9.29-17.7,18.14-34.52,20.43-34.52,1.64,0,7.54,1.42,7.54,4.48,0,2.73-16.82,31.79-23.38,45.23l.11.22c1.64-2.08,20.1-23.05,26.11-23.05,4,0,10.16,2.29,10.16,4.15,0,1.53-1.31,3.82-2.84,6.77s-14.64,25.67-14.64,31.46c0,1.31.33,2.29,2.51,2.29,5.68,0,17.59-19.56,18.57-19.56s1.42,1.86,1.42,3.71C411.3,334.48,394.91,358,384.21,358Z"/><path class="cls-9" d="M181,300.74c-1.2,0-2.29,0-3.39-.11-5.46,9.29-11.47,19.56-18.35,28.62,8.19,7.54,15.62,14.53,23.6,14.53,4,0,6.77-3.17,7.21-3.17s.87.22.87.77-10.49,15.84-20.1,15.84c-7.32,0-14.31-7.87-21.74-16.39-8.08,7.65-17.37,12.78-28.08,12.78-14.31,0-21.09-9.07-21.09-18.79,0-11.36,9.18-23.82,26.33-23.82,8.3,0,15.51,3.82,22.07,8.85,5.35-7.32,10.71-15.4,16.17-23.05-9.83-4.81-16.82-13.22-16.82-20,0-4.26,3.61-7.21,5.13-7.21,1.31,0,1.75,2.51,2.73,4.48,3.28,6.66,9,11.36,15.4,14.31,9.61-11.91,19.88-20.87,32-20.87,8.52,0,12.67,4.59,12.67,10.27C215.67,287.63,203.77,300.74,181,300.74Zm-60.64,19.45c-8.08,0-13.55,5.79-13.55,12.24,0,6,4.26,10.6,11.91,10.6,7.43,0,14.31-5,21.09-12.45C133.84,324.66,127.51,320.18,120.41,320.18Zm81.94-47.31c-6.34,0-12.46,7.87-19.23,18.79a33.92,33.92,0,0,0,4.7.33c13.66,0,20.43-7.54,20.43-13.11A5.65,5.65,0,0,0,202.35,272.88Z"/><path class="cls-9" d="M229.66,353.18a9.88,9.88,0,0,1-10.05-9.72,10.65,10.65,0,0,1,.11-2.08c-1.75,2.51-10.16,11.91-15.19,11.91s-9.94-6.34-9.94-12.56c0-13.33,17-40.86,22.62-43.15a14.62,14.62,0,0,1,2.84-.22c2.73,0,6.56.55,6.56,2.4a1.74,1.74,0,0,1-.33.87c-2.29,4.37-18.68,33-18.68,40.53,0,1.64.66,2.29,1.53,2.29,2.51,0,11.47-9.83,17.7-20.43,5.46-9.07,12.56-25.35,15-25.35,5.35,0,9.4,1.86,9.4,3.82,0,2.95-1.75,5.68-3.17,8.63s-13.88,25.24-13.88,29.94c0,1.31.33,2.29,2.62,2.29,5.57,0,17.59-19.56,18.46-19.56,1.09,0,1.42,1.86,1.42,3.71C256.65,329.69,240.37,353.18,229.66,353.18Z"/><path class="cls-9" d="M282.87,353.18a10,10,0,0,1-10.05-9.72c0-12.46,11.47-30.15,14.31-34.09l-.44-.22c-6,5.79-17.81,19-23.93,28.3s-8.19,15.62-10.49,15.62-7-3.28-7-7.32c0-5.14,20.87-48.84,25.67-48.84,1.64,0,7.54,1.42,7.54,4.48,0,2.73-3.71,10.82-4.26,12.67l.11.11c2-2,14.42-16.5,20.43-16.5,4,0,9.29,2.73,9.29,4.7,0,2.95-1.31,4.81-2.84,7.76s-13.77,25.24-13.77,29.94c0,1.31.33,2.29,2.51,2.29,5.68,0,17.59-19.56,18.57-19.56s1.42,1.86,1.42,3.71C310,329.69,293.58,353.18,282.87,353.18Z"/><path class="cls-9" d="M319.25,354.6c-8.19,0-15.4-5.46-15.4-17.26,0-13.87,15.4-39.11,30.48-39.11,3.5,0,4.48-1,8-1,5,0,8.85,2.51,8.85,10.71,0,6-4.48,10.27-7.21,11.69s-6,2.62-7.65,2.62c-.77,0-.66-.22-.66-.55s.55-.33,1.31-1.42,3.82-8.19,3.82-14.2c0-1.53-.33-2.51-1.42-2.51-3.82,0-21.3,21-21.3,34.52a7.23,7.23,0,0,0,6.88,7.54c16.17,0,28-22.62,29.28-22.62s1.31,2.51,1.31,3.82C355.52,328.82,340.66,354.6,319.25,354.6Z"/><path class="cls-9" d="M381.85,353.18a10,10,0,0,1-10.05-9.72c0-12.46,11.47-30.15,14.31-34.09l-.44-.22c-6.34,5.79-17.81,17.7-24.91,28.08-6.12,9.18-8,15.84-10.16,15.84s-7-3.28-7-7.32c0-2.62,9.83-22,19.34-40.42,9.29-17.7,18.14-34.52,20.43-34.52,1.64,0,7.54,1.42,7.54,4.48,0,2.73-16.82,31.79-23.38,45.23l.11.22c1.64-2.08,20.1-23.05,26.11-23.05,4,0,10.16,2.29,10.16,4.15,0,1.53-1.31,3.82-2.84,6.77s-14.64,25.67-14.64,31.46c0,1.31.33,2.29,2.51,2.29,5.68,0,17.59-19.56,18.57-19.56s1.42,1.86,1.42,3.71C408.95,329.69,392.56,353.18,381.85,353.18Z"/><path class="cls-11" d="M337.25,271.77c-29.43-29.08,37.7-34.49,43.87-42.2C390.63,217.68,365.25,299.44,337.25,271.77Z"/><text class="cls-12" transform="translate(148.93 542.29)">i<tspan class="cls-13" x="13.89" y="0">n</tspan><tspan class="cls-14" x="46.61" y="0">t</tspan><tspan x="65.9" y="0">e</tspan><tspan class="cls-15" x="95.65" y="0">r</tspan><tspan x="116.54" y="0">view</tspan></text><text class="cls-12" transform="translate(161.88 594.06)">p<tspan class="cls-16" x="33.78" y="0">r</tspan><tspan x="52.6" y="0">o</tspan><tspan class="cls-17" x="85.2" y="0">t</tspan><tspan class="cls-18" x="104.49" y="0">o</tspan><tspan class="cls-14" x="137.09" y="0">c</tspan><tspan x="163.33" y="0">ol</tspan></text></g></g></svg>