<svg xmlns="http://www.w3.org/2000/svg" viewBox="0 0 261.13 418.93"><defs><style>.cls-1{fill:#bcbec0;}.cls-2{fill:#78d0e8;}.cls-3{fill:#48c3e0;}.cls-4{fill:#21b4cb;}.cls-5{fill:#a7a9ac;}.cls-6{fill:#fff;}.cls-7{fill:#d2edf5;}.cls-8{fill:#d1d3d4;}</style></defs><title>skype</title><g id="Layer_2" data-name="Layer 2"><g id="drinks_and_fruits" data-name="drinks and fruits"><rect class="cls-1" x="51.78" y="396" width="155.15" height="22.93"/><path class="cls-2" d="M62.6,11.84H199.31a61.82,61.82,0,0,1,61.82,61.82V352.75a59.81,59.81,0,0,1-59.81,59.81H61.9A61.9,61.9,0,0,1,0,350.65V74.44A62.6,62.6,0,0,1,62.6,11.84Z"/><path class="cls-3" d="M199.25,11.84H130.57V412.56h68.69a62.06,62.06,0,0,0,61.88-61.88v-277A62.06,62.06,0,0,0,199.25,11.84Z"/><path class="cls-3" d="M199.25,412.56a62.06,62.06,0,0,0,61.88-61.88v-277A61.31,61.31,0,0,0,254,45C245.7,137.9,196.56,225.26,112.75,278A301.5,301.5,0,0,1,0,320.64v30a62.06,62.06,0,0,0,61.88,61.88Z"/><path class="cls-4" d="M261,70.15c0-.36-.05-.71-.08-1.06-.06-.84-.14-1.68-.24-2.51,0-.38-.09-.75-.14-1.13q-.17-1.27-.39-2.52c-.06-.31-.11-.63-.17-.94-.21-1.06-.43-2.11-.69-3.15l0-.2a61.3,61.3,0,0,0-2.2-6.91l-.12-.31q-.59-1.52-1.27-3l-.15-.33Q254.79,46.5,254,45h0c-7.67,86.14-50.47,167.47-123.41,220.91v146.7h68.69a62.06,62.06,0,0,0,61.88-61.88v-277C261.13,72.52,261.09,71.33,261,70.15Z"/><path class="cls-5" d="M234.76,23.13c-.28,9.14-47.26,15-104.19,15S27.9,31.25,27.87,22.1C27.8,1.49,79.86,14.9,131,11.84,214.4,6.83,235.27,6.25,234.76,23.13Z"/><ellipse class="cls-1" cx="130.96" cy="16.55" rx="103.09" ry="16.55"/><circle class="cls-6" cx="130.96" cy="212.2" r="114.72"/><path class="cls-7" d="M246.46,211.8C246.46,148.43,194.18,97,129.68,97V326.56C194.18,326.56,246.46,275.18,246.46,211.8Z"/><ellipse class="cls-8" cx="167.96" cy="16.55" rx="56.07" ry="8.77"/><path class="cls-3" d="M162.67,231c0,4.8,0,9.37,0,13.93,0,2.89-1.06,5.24-3.83,6.46a6.47,6.47,0,0,1-9.19-6.13c0-9.62,0-19.23,0-28.85q0-9.88,0-19.76a12.89,12.89,0,0,1,.47-3.83,5.69,5.69,0,0,1,4.81-4.38,5.78,5.78,0,0,1,6.17,2.66c.41.63.55,1.72,1.25,1.77.5,0,1.07-.86,1.6-1.36,5.26-4.88,14.69-4.36,20.39.18,5.21,4.15,7.72,9.73,8.46,16.18A27.08,27.08,0,0,1,190,223.62c-2.91,5.64-7.33,9.47-13.71,10.69a15.11,15.11,0,0,1-12.22-2.4C163.69,231.63,163.28,231.39,162.67,231Zm17.22-18.81c0-3.81-.83-6.47-2.44-8.62-3.48-4.63-10-4.56-13.09.32a13.64,13.64,0,0,0-.54,14c2.9,5.88,10.2,6.25,13.91.84A12.59,12.59,0,0,0,179.89,212.19Z"/><path class="cls-3" d="M74.94,212.9q0,6.84,0,13.68a11.53,11.53,0,0,1-.27,3.13,6.39,6.39,0,0,1-7.22,4.53A6.18,6.18,0,0,1,62,228.3c-.08-4.61-.06-9.21-.06-13.82q0-19.58.05-39.16a6.43,6.43,0,0,1,12.85-.05c.06,8.89,0,17.78,0,26.67,0,.42,0,.85,0,1.32,1.36-1.29,2.68-2.47,3.92-3.71,3.1-3.12,6.17-6.28,9.26-9.42a6.33,6.33,0,0,1,10.09,1,5.79,5.79,0,0,1-.88,7.44c-2.88,2.94-5.86,5.8-8.85,8.63-.72.68-.77,1.07-.14,1.85,3.9,4.79,7.73,9.64,11.61,14.45,2.68,3.33,1.85,6.8-.12,8.78a6.29,6.29,0,0,1-9.26,0c-2.6-2.77-4.76-5.91-7.11-8.89-2.78-3.51-5.52-7.05-8.27-10.58Z"/><path class="cls-3" d="M222.3,215.72c-3.76,0-7.52,0-11.27,0-.89,0-1.14.14-.74,1.06,2.53,5.87,7.8,7.5,13.29,6.07,2.47-.64,4.65-2,7-3.08,3-1.36,5.56-.76,7.29,1.69a4.76,4.76,0,0,1,.39,5.25,10.32,10.32,0,0,1-4.7,4.41c-8.6,4.37-17.42,5.08-26.15.67-7.31-3.69-10.94-10-11.46-18.14A25,25,0,0,1,201,196.16c7.32-9.48,22.07-10.85,31-2.89,5.38,4.8,7.72,10.89,7.55,18-.06,2.58-1.63,4.08-4.31,4.29-4,.31-8,.07-12,.15Zm-4.19-8.9h5.94c3,0,3,0,1.84-2.84a8.13,8.13,0,0,0-12.59-3.64c-1.79,1.38-2.7,3.37-3.55,5.4-.34.82-.25,1.12.73,1.1C213,206.78,215.57,206.82,218.11,206.82Z"/><path class="cls-3" d="M123.89,213.43c.72-1.77,1.33-3.24,1.91-4.73,1.95-4.91,3.88-9.83,5.83-14.74a17.41,17.41,0,0,1,1-2.19,6.54,6.54,0,0,1,11.83,5.54c-2.36,5.92-4.83,11.79-7.29,17.68q-6.75,16.19-13.54,32.37a11.21,11.21,0,0,1-2,3.3,6.28,6.28,0,0,1-7.65,1.15,6.2,6.2,0,0,1-3.29-6.79c.67-3,2.18-5.63,3.3-8.44.78-1.95,1.62-3.87,2.51-5.77a2.71,2.71,0,0,0,0-2.41c-4.37-10.29-8.73-20.57-13-30.89a6.13,6.13,0,0,1,.92-6.81,6.69,6.69,0,0,1,7-2.08,5,5,0,0,1,3,2.18,31,31,0,0,1,3,6.57q3,7.48,5.91,15C123.49,212.6,123.62,212.85,123.89,213.43Z"/><path class="cls-3" d="M39.81,188.09c4.71,0,8.47.89,11.8,3.22a7.92,7.92,0,0,1,3.34,4.18,5.57,5.57,0,0,1-1.69,5.84,4.75,4.75,0,0,1-5.39,1c-2.37-.89-4.58-2.23-7.13-2.64a5.83,5.83,0,0,0-2.75.18,2.07,2.07,0,0,0-1.67,1.71,2.14,2.14,0,0,0,1.17,2.32,43.45,43.45,0,0,0,5.09,2.24c3.09,1.28,6.23,2.44,8.93,4.52,6.2,4.78,5.86,13.8,1,18.91a16.46,16.46,0,0,1-9.94,4.83,23.78,23.78,0,0,1-15.34-2.67c-2.3-1.28-4.27-2.94-4.77-5.76-.68-3.87,3.36-7.51,7.1-6.28,1.83.6,3.59,1.46,5.36,2.22a12.13,12.13,0,0,0,4.9,1.21,4.12,4.12,0,0,0,2.39-.75,2.44,2.44,0,0,0,0-4.28,36.71,36.71,0,0,0-6.56-2.78A39.41,39.41,0,0,1,28.86,212c-4.46-2.83-5.77-6.95-5-12,1-6.44,5.48-9.78,11.44-11.43A15.37,15.37,0,0,1,39.81,188.09Z"/></g></g></svg>