
<svg xmlns="http://www.w3.org/2000/svg" version="1.1" xmlns:xlink="http://www.w3.org/1999/xlink" preserveAspectRatio="none" x="0px" y="0px" width="1910px" height="515px" viewBox="0 0 1910 515">
<defs>
<g id="Layer40_0_FILL">
<path fill="#142644" stroke="none" d="
M 1780.65 1357.55
L 1835.95 1193.5 381.5 1183.6 462.5 1347.65 1780.65 1357.55 Z"/>
</g>

<g id="Layer40_1_FILL">
<path fill="#142644" stroke="none" d="
M 1777.2 1363.6
Q 1778.5 1363.6 1779.7 1363.15
L 2048 1267.9
Q 2050.65 1266.95 2048.15 1263.25 2045.9 1260 2040.5 1255.65 2035.25 1251.5 2029.9 1248.6 2024.15 1245.45 2021.25 1245.45
L 808.7 1242.9
Q 807.7 1242.9 806.8 1243.2
L 467.95 1338.3
Q 465.1 1339.1 463.7 1341.45 462.4 1343.55 462.75 1346.15 463.1 1348.75 464.9 1350.45 466.85 1352.35 469.8 1352.35
L 1777.2 1363.6 Z"/>
</g>

<g id="Layer40_2_FILL">
<path fill="#0E1E30" stroke="none" d="
M 1830.05 1185.6
L 1782.6 1361.5 2050.05 1267.3 2104.5 1099.5 1830.05 1185.6 Z"/>
</g>

<g id="Layer40_3_FILL">
<path fill="#0C192B" stroke="none" d="
M 1845.1 1209.45
Q 1846.6 1209.45 1847.9 1208.95
L 2103.8 1107.05
Q 2104.55 1105.95 2114.5 1100.65 2124.15 1095.5 2126.05 1091.75
L 2125.3 1062.35 2020.65 1052.55 2041.35 1077.6 750.9 1073.1
Q 749.75 1073.1 748.7 1073.4
L 355.8 1181.95
Q 352.6 1182.85 351.4 1185.2 350.3 1187.35 351.2 1189.95 352.1 1192.5 354.45 1194.25 357.05 1196.1 360.4 1196.15
L 1845.1 1209.45 Z"/>
</g>

<g id="Layer40_4_FILL">
<path fill="#0C192B" stroke="none" d="
M 356.7 1160.25
L 350.45 1187.95 422.1 1190.75 422.1 1167.25 356.7 1160.25 Z"/>
</g>

<g id="Layer40_5_FILL">
<path fill="#142644" stroke="none" d="
M 1841.15 1181.75
Q 1842.4 1181.8 1843.95 1181.3
L 2105.65 1085.25
Q 2109.35 1083.95 2114.05 1080.15 2119.45 1075.75 2122.5 1070.75 2130.8 1057.05 2116.55 1047.1
L 746.95 1045.45
Q 745.8 1045.45 744.75 1045.75
L 361.9 1153.2
Q 358.7 1154.1 357.1 1156.75 355.7 1159.15 356.05 1162.05 356.45 1165 358.45 1166.95 360.65 1169.05 364 1169.1
L 1841.15 1181.75 Z"/>
</g>

<g id="Layer40_6_FILL">
<path fill="#0C192B" stroke="none" d="
M 604.45 1107.6
L 447 1151.05 703.25 1153.75 824.95 1107.6 604.45 1107.6 Z"/>
</g>

<g id="Layer40_7_FILL">
<path fill="#0C192B" stroke="none" d="
M 1008.45 1155.45
L 1099.75 1107.15 862.75 1107.15 752.2 1152.6 1008.45 1155.45 Z"/>
</g>

<g id="Layer40_8_FILL">
<path fill="#0C192B" stroke="none" d="
M 1050.9 1156.1
L 1290.4 1158.5 1369.6 1110.65 1141.2 1108.9 1050.9 1156.1 Z"/>
</g>

<g id="Layer40_9_FILL">
<path fill="#0C192B" stroke="none" d="
M 1412.55 1112.25
L 1333.35 1156.85 1569.4 1160.15 1665.15 1115.55 1412.55 1112.25 Z"/>
</g>

<g id="Layer40_10_FILL">
<path fill="#0C192B" stroke="none" d="
M 1610.7 1161.75
L 1840.55 1162.1 1957.7 1115.45 1713.75 1113.9 1610.7 1161.75 Z"/>
</g>

<g id="Layer40_11_FILL">
<path fill="#0C192B" stroke="none" d="
M 757.15 1061.65
L 667.05 1088.2 856.55 1089.65 956 1059.1 757.15 1061.65 Z"/>
</g>

<g id="Layer40_12_FILL">
<path fill="#0C192B" stroke="none" d="
M 1113.15 1094.75
L 1199 1058.25 990.8 1059.95 880.35 1095.6 1113.15 1094.75 Z"/>
</g>

<g id="Layer40_13_FILL">
<path fill="#0C192B" stroke="none" d="
M 1382.55 1097.3
L 1453.05 1058.25 1237.25 1059.95 1154.8 1096.45 1382.55 1097.3 Z"/>
</g>

<g id="Layer40_14_FILL">
<path fill="#0C192B" stroke="none" d="
M 1679.05 1099.85
L 1758.95 1063.35 1500.65 1060.8 1435.25 1094.05 1679.05 1099.85 Z"/>
</g>

<g id="Layer40_15_FILL">
<path fill="#0C192B" stroke="none" d="
M 1807.4 1065.05
L 1741.5 1095 1973.9 1097.3 2076.75 1063.35 1807.4 1065.05 Z"/>
</g>

<g id="Layer40_16_FILL">
<path fill="#142644" stroke="none" d="
M 1768 1325.15
L 1768 1198.75 498.05 1185.6 498.05 1325.15 1768 1325.15 Z"/>
</g>

<g id="Layer40_17_FILL">
<path fill="#0C192B" stroke="none" d="
M 1820.7 1209.3
L 1837.8 1173.75 403.95 1169.8 400 1196.1 1820.7 1209.3 Z"/>
</g>

<g id="Layer40_18_FILL">
<path fill="#142644" stroke="none" d="
M 1837.25 1185.5
L 1849.65 1168.45 432.9 1148.7 423.65 1169.15 1837.25 1185.5 Z"/>
</g>

<g id="Layer40_19_FILL">
<path fill="#142644" stroke="none" d="
M 1826.8 1168.15
L 1826.65 1185.5 1837.25 1185.5 2105.65 1085.25 2076.75 1063.35 1826.8 1168.15 Z"/>
</g>

<g id="Mask_39_MASK_0_FILL">
<path fill="#FFFFFF" stroke="none" d="
M 339.05 256.25
L 404.2 272.7 407 221.6 573.3 222.9 791.35 155.65 619.9 -21.45 359.6 29.5 294.15 167.7 339.05 256.25 Z"/>
</g>

<g id="cube_05_layer_0_Layer0_0_MEMBER_0_FILL">
<path fill="#C4E4ED" stroke="none" d="
M 586.75 1009.05
L 586.75 1168.3 746.05 1168.3 746.05 1009.05 586.75 1009.05 Z"/>
</g>

<g id="cube_05_layer_0_Layer0_0_MEMBER_1_FILL">
<path fill="#A4D6E0" stroke="none" d="
M 552.1 1030.6
L 552.1 1183.15 586.75 1168.3 586.75 1009.05 552.1 1030.6 Z"/>
</g>

<g id="cube_05_layer_0_Layer0_0_MEMBER_2_FILL">
<path fill="#A4D6E0" stroke="none" d="
M 586.75 1168.3
L 552.1 1183.15 718.1 1183.15 746.05 1168.3 586.75 1168.3 Z"/>
</g>

<g id="cube_05_layer_0_Layer0_0_MEMBER_3_FILL">
<path fill="#221F20" stroke="none" d="
M 708.35 1057.6
Q 706.4 1059.55 706.4 1062.35 706.4 1065.15 708.35 1064 710.35 1062.85 713.15 1062.85 715.95 1062.85 717.9 1064 719.85 1065.15 719.85 1062.35 719.85 1059.6 717.9 1057.6 715.95 1055.65 713.15 1055.65 710.35 1055.65 708.35 1057.6 Z"/>
</g>

<g id="cube_05_layer_0_Layer0_0_MEMBER_4_FILL">
<path fill="#221F20" stroke="none" d="
M 626 1057.6
Q 624.05 1059.6 624.05 1062.35 624.05 1065.15 626.1 1064.5 628.2 1063.85 631 1063.85 633.8 1063.85 635.65 1064.5 637.5 1065.15 637.5 1062.35 637.5 1059.55 635.55 1057.6 633.55 1055.65 630.75 1055.65 628 1055.65 626 1057.6 Z"/>
</g>

<g id="cube_05_layer_0_Layer0_0_MEMBER_5_FILL">
<path fill="#E99B9B" stroke="none" d="
M 510.75 160.8
Q 508.75 160.3 507.75 161.25 505.4 163.45 513.45 166.55 521.7 169.75 531.05 169.75 540.5 169.75 548.95 166.55 557.3 163.45 554.35 161.25 552.5 159.9 545.75 162.55 537.05 166 530.4 166 523.55 166 515.35 162.55 511.75 161.05 510.75 160.8 Z"/>
</g>

<g id="cube_05_layer_0_Layer0_0_MEMBER_6_FILL">
<path fill="#221F20" stroke="none" d="
M 622.95 1034.1
Q 620 1036.5 620.25 1037.45 620.4 1037.9 623.8 1035.8 628.3 1033.05 631.45 1032.05 634.45 1031.1 639.35 1030.65 642.8 1030.35 642.65 1029.85 642.35 1028.9 639 1028.7 635.15 1028.55 630.75 1029.95 626.4 1031.4 622.95 1034.1 Z"/>
</g>

<g id="cube_05_layer_0_Layer0_0_MEMBER_7_FILL">
<path fill="#221F20" stroke="none" d="
M 724.3 1037.45
Q 724.6 1036.5 721.65 1034.1 718.25 1031.4 713.85 1029.95 709.5 1028.55 705.6 1028.7 702.25 1028.9 701.95 1029.85 701.8 1030.35 705.25 1030.65 710.15 1031.1 713.15 1032.05 716.3 1033.05 720.8 1035.85 724.15 1037.9 724.3 1037.45 Z"/>
</g>

<g id="Mask_36_MASK_0_FILL">
<path fill="#FFFFFF" stroke="none" d="
M 655.95 273.95
L 661.15 228.6 829.9 228 981.75 164.5 882.4 24.7 621.8 25.3 597.1 228.85 591.45 276.5 655.95 273.95 Z"/>
</g>

<g id="cube_06_0_Layer0_0_MEMBER_0_FILL">
<path fill="#C4E4ED" stroke="none" d="
M 586.75 1009.05
L 586.75 1168.3 746.05 1168.3 746.05 1009.05 586.75 1009.05 Z"/>
</g>

<g id="cube_06_0_Layer0_0_MEMBER_1_FILL">
<path fill="#A4D6E0" stroke="none" d="
M 552.1 1030.6
L 552.1 1183.15 586.75 1168.3 586.75 1009.05 552.1 1030.6 Z"/>
</g>

<g id="cube_06_0_Layer0_0_MEMBER_2_FILL">
<path fill="#A4D6E0" stroke="none" d="
M 586.75 1168.3
L 552.1 1183.15 718.1 1183.15 746.05 1168.3 586.75 1168.3 Z"/>
</g>

<g id="cube_06_0_Layer0_0_MEMBER_3_FILL">
<path fill="#221F20" stroke="none" d="
M 708.35 1057.6
Q 706.4 1059.55 706.4 1062.35 706.4 1065.15 708.35 1067.15 710.35 1069.1 713.15 1069.1 715.95 1069.1 717.9 1067.15 719.85 1065.15 719.85 1062.35 719.85 1059.6 717.9 1057.6 715.95 1055.65 713.15 1055.65 710.35 1055.65 708.35 1057.6 Z"/>
</g>

<g id="cube_06_0_Layer0_0_MEMBER_4_FILL">
<path fill="#221F20" stroke="none" d="
M 626 1057.6
Q 624.05 1059.6 624.05 1062.35 624.05 1065.15 626 1067.15 627.95 1069.1 630.75 1069.1 633.55 1069.1 635.55 1067.15 637.5 1065.15 637.5 1062.35 637.5 1059.55 635.55 1057.6 633.55 1055.65 630.75 1055.65 628 1055.65 626 1057.6 Z"/>
</g>

<g id="cube_06_0_Layer0_0_MEMBER_5_FILL">
<path fill="#E99B9B" stroke="none" d="
M 792.7 161.7
Q 790.6 159.6 785.95 159.4 783.3 159.25 780.55 160.35 777.45 161.55 777.3 163.4 777.15 165.65 779.55 167.65 782.3 169.9 786.4 169.75 790.1 169.6 792.35 166.7 793.45 165.25 793.85 163.8 793.75 162.8 792.7 161.7 Z"/>
</g>

<g id="cube_06_0_Layer0_0_MEMBER_6_FILL">
<path fill="#221F20" stroke="none" d="
M 622.95 1034.1
Q 620 1036.5 620.25 1037.45 620.4 1037.9 623.8 1035.8 628.3 1033.05 631.45 1032.05 634.45 1031.1 639.35 1030.65 642.8 1030.35 642.65 1029.85 642.35 1028.9 639 1028.7 635.15 1028.55 630.75 1029.95 626.4 1031.4 622.95 1034.1 Z"/>
</g>

<g id="cube_06_0_Layer0_0_MEMBER_7_FILL">
<path fill="#221F20" stroke="none" d="
M 724.3 1037.45
Q 724.6 1036.5 721.65 1034.1 718.25 1031.4 713.85 1029.95 709.5 1028.55 705.6 1028.7 702.25 1028.9 701.95 1029.85 701.8 1030.35 705.25 1030.65 710.15 1031.1 713.15 1032.05 716.3 1033.05 720.8 1035.85 724.15 1037.9 724.3 1037.45 Z"/>
</g>

<g id="Mask_33_MASK_0_FILL">
<path fill="#FFFFFF" stroke="none" d="
M 1099.3 230.55
L 1286 125.25 1075.4 -25.3 868.4 13.3 871.55 229.7 869.8 279.6 938.1 274.55 939.55 229.95 1099.3 230.55 Z"/>
</g>

<g id="cube_07_0_Layer0_0_MEMBER_0_FILL">
<path fill="#C4E4ED" stroke="none" d="
M 586.75 1009.05
L 586.75 1168.3 746.05 1168.3 746.05 1009.05 586.75 1009.05 Z"/>
</g>

<g id="cube_07_0_Layer0_0_MEMBER_1_FILL">
<path fill="#A4D6E0" stroke="none" d="
M 552.1 1030.6
L 552.1 1183.15 586.75 1168.3 586.75 1009.05 552.1 1030.6 Z"/>
</g>

<g id="cube_07_0_Layer0_0_MEMBER_2_FILL">
<path fill="#A4D6E0" stroke="none" d="
M 586.75 1168.3
L 552.1 1183.15 718.1 1183.15 746.05 1168.3 586.75 1168.3 Z"/>
</g>

<g id="cube_07_0_Layer0_0_MEMBER_3_FILL">
<path fill="#221F20" stroke="none" d="
M 708.35 1057.6
Q 706.4 1059.55 706.4 1062.35 706.4 1065.15 708.35 1067.15 710.35 1069.1 713.15 1069.1 715.95 1069.1 717.9 1067.15 719.85 1065.15 719.85 1062.35 719.85 1059.6 717.9 1057.6 715.95 1055.65 713.15 1055.65 710.35 1055.65 708.35 1057.6 Z"/>
</g>

<g id="cube_07_0_Layer0_0_MEMBER_4_FILL">
<path fill="#221F20" stroke="none" d="
M 626 1057.6
Q 624.05 1059.6 624.05 1062.35 624.05 1065.15 626 1067.15 627.95 1069.1 630.75 1069.1 633.55 1069.1 635.55 1067.15 637.5 1065.15 637.5 1062.35 637.5 1059.55 635.55 1057.6 633.55 1055.65 630.75 1055.65 628 1055.65 626 1057.6 Z"/>
</g>

<g id="cube_07_0_Layer0_0_MEMBER_5_FILL">
<path fill="#E99B9B" stroke="none" d="
M 694.2 1094.75
Q 696 1092.8 695.5 1092.15 694.6 1090.95 671.9 1091.2 649.2 1091.5 648.65 1092.8 647.85 1094.7 655.4 1099.35 663.9 1104.6 672.4 1104.6 680.9 1104.6 689.2 1099 692.35 1096.9 694.2 1094.75 Z"/>
</g>

<g id="cube_07_0_Layer0_0_MEMBER_6_FILL">
<path fill="#221F20" stroke="none" d="
M 622.95 1034.1
Q 620 1036.5 620.25 1037.45 620.4 1037.9 623.8 1035.8 628.3 1033.05 631.45 1032.05 634.45 1031.1 639.35 1030.65 642.8 1030.35 642.65 1029.85 642.35 1028.9 639 1028.7 635.15 1028.55 630.75 1029.95 626.4 1031.4 622.95 1034.1 Z"/>
</g>

<g id="cube_07_0_Layer0_0_MEMBER_7_FILL">
<path fill="#221F20" stroke="none" d="
M 724.3 1037.45
Q 724.6 1036.5 721.65 1034.1 718.25 1031.4 713.85 1029.95 709.5 1028.55 705.6 1028.7 702.25 1028.9 701.95 1029.85 701.8 1030.35 705.25 1030.65 710.15 1031.1 713.15 1032.05 716.3 1033.05 720.8 1035.85 724.15 1037.9 724.3 1037.45 Z"/>
</g>

<g id="cube_07_0_Layer0_1_MEMBER_0_MEMBER_0_FILL">
<path fill="#181526" stroke="none" d="
M 576.15 1020.05
Q 586.85 1018.4 590.8 1017.5 597.25 1016 617.25 1009.9
L 611.55 984.95 560.5 996.65 566.2 1021.55 576.15 1020.05 Z"/>
</g>

<g id="cube_07_0_Layer0_1_MEMBER_0_MEMBER_1_FILL">
<path fill="#F1B257" stroke="none" d="
M 536.7 1011.85
L 533.7 1011.85 533.7 1055.8 536.7 1055.8 536.7 1011.85 Z"/>
</g>

<g id="cube_07_0_Layer0_1_MEMBER_0_MEMBER_2_FILL">
<path fill="#221E36" stroke="none" d="
M 555.7 975.7
Q 551.3 976.7 548.1 980.1
L 521.25 1008.9
Q 519.45 1010.85 520.75 1013.15 522.05 1015.4 524.65 1014.8
L 630.45 990.6
Q 634.4 989.75 636.85 986.35
L 656.6 958.95
Q 658.15 956.85 656.7 954.7 655.25 952.5 652.75 953.1
L 555.7 975.7 Z"/>
</g>

<g id="cube_07_0_Layer0_1_MEMBER_0_MEMBER_3_FILL">
<path fill="#F1B257" stroke="none" d="
M 584.25 983.2
L 578.5 982.45 537.3 991.3 535.4 993.5 584.25 983.2 Z"/>
</g>

<g id="Mask_30_MASK_0_FILL">
<path fill="#FFFFFF" stroke="none" d="
M 1395.8 233.1
L 1637.75 120.85 1557.45 19.65 1203.2 16.5 1152 227.3 1153.2 291.55 1232.9 292.65 1232.65 229.2 1395.8 233.1 Z"/>
</g>

<g id="cube_8_0_Layer0_0_MEMBER_0_FILL">
<path fill="#C4E4ED" stroke="none" d="
M 586.75 1009.05
L 586.75 1168.3 746.05 1168.3 746.05 1009.05 586.75 1009.05 Z"/>
</g>

<g id="cube_8_0_Layer0_0_MEMBER_1_FILL">
<path fill="#A4D6E0" stroke="none" d="
M 552.1 1030.6
L 552.1 1183.15 586.75 1168.3 586.75 1009.05 552.1 1030.6 Z"/>
</g>

<g id="cube_8_0_Layer0_0_MEMBER_2_FILL">
<path fill="#A4D6E0" stroke="none" d="
M 586.75 1168.3
L 552.1 1183.15 718.1 1183.15 746.05 1168.3 586.75 1168.3 Z"/>
</g>

<g id="cube_8_0_Layer0_0_MEMBER_3_FILL">
<path fill="#221F20" stroke="none" d="
M 708.35 1057.6
Q 706.4 1059.55 706.4 1062.35 706.4 1065.15 708.35 1067.15 710.35 1069.1 713.15 1069.1 715.95 1069.1 717.9 1067.15 719.85 1065.15 719.85 1062.35 719.85 1059.6 717.9 1057.6 715.95 1055.65 713.15 1055.65 710.35 1055.65 708.35 1057.6 Z"/>
</g>

<g id="cube_8_0_Layer0_0_MEMBER_4_FILL">
<path fill="#221F20" stroke="none" d="
M 1310.9 130.95
Q 1308.95 132.95 1308.95 135.7 1308.95 138.5 1310.9 140.5 1312.85 142.45 1315.65 142.45 1318.45 142.45 1320.45 140.5 1322.4 138.5 1322.4 135.7 1322.4 132.9 1320.45 130.95 1318.45 129 1315.65 129 1312.9 129 1310.9 130.95 Z"/>
</g>

<g id="cube_8_0_Layer0_0_MEMBER_5_FILL">
<path fill="#E99B9B" stroke="none" d="
M 663.2 1087.4
Q 658.25 1087.3 655.6 1087.8 648.55 1089.05 649.1 1096.1 649.35 1099.6 655.85 1100.9 662.4 1102.25 671.95 1102.25 681.55 1102.25 688.4 1100.95 695.3 1099.65 695.7 1096.1 696.4 1089.05 689.3 1087.8 686.65 1087.3 681.6 1087.4 675.6 1087.6 672.4 1087.6 666.05 1087.45 663.2 1087.4 Z"/>
</g>

<g id="cube_8_0_Layer0_0_MEMBER_6_FILL">
<path fill="#221F20" stroke="none" d="
M 622.95 1034.1
Q 620 1036.5 620.25 1037.45 620.4 1037.9 623.8 1035.8 628.3 1033.05 632.1 1033.45 635.95 1033.85 640.1 1033.45 644.3 1033.1 643.3 1031 642.35 1028.9 639 1028.7 635.15 1028.55 630.75 1029.95 626.4 1031.4 622.95 1034.1 Z"/>
</g>

<g id="cube_8_0_Layer0_0_MEMBER_7_FILL">
<path fill="#221F20" stroke="none" d="
M 724.3 1037.45
Q 724.6 1036.5 721.65 1034.1 718.25 1031.4 713.85 1029.95 709.5 1028.55 705.6 1028.7 702.25 1028.9 701.75 1030.8 701.3 1032.7 705.45 1033.05 709.65 1033.45 712.95 1033.25 716.3 1033.05 720.8 1035.85 724.15 1037.9 724.3 1037.45 Z"/>
</g>

<g id="Mask_27_MASK_0_FILL">
<path fill="#FFFFFF" stroke="none" d="
M 1494.75 295.25
L 1498.55 228.65 1690.65 230.55 2043.85 113.9 1916.7 14.6 1398.6 -41.7 1458.25 228.25 1428.95 272.7 1494.75 295.25 Z"/>
</g>

<g id="cube_9_0_Layer0_0_MEMBER_0_FILL">
<path fill="#221F20" stroke="none" d="
M 70.65 6.5
Q 67.53046875 14.2861328125 65.45 22.4 61.3 38.6 62.1 53.1 64 87.05 90.75 99.5 91.4 99.8 92.55 101.35 93.5 102.55 94.55 102.45 95.95 102.25 97.2 100.85 98.4 99.4 97.35 98.65 65.35 77.05 68.9 42.5 69.4078125 37.829296875 70.65 32.35
L 70.65 6.5 Z"/>
</g>

<g id="cube_9_0_Layer0_0_MEMBER_1_FILL">
<path fill="#C4E4ED" stroke="none" d="
M 586.75 1009.05
L 586.75 1168.3 746.05 1168.3 746.05 1009.05 586.75 1009.05 Z"/>
</g>

<g id="cube_9_0_Layer0_0_MEMBER_2_FILL">
<path fill="#A4D6E0" stroke="none" d="
M 552.1 1030.6
L 552.1 1183.15 586.75 1168.3 586.75 1009.05 552.1 1030.6 Z"/>
</g>

<g id="cube_9_0_Layer0_0_MEMBER_3_FILL">
<path fill="#A4D6E0" stroke="none" d="
M 586.75 1168.3
L 552.1 1183.15 718.1 1183.15 746.05 1168.3 586.75 1168.3 Z"/>
</g>

<g id="cube_9_0_Layer0_0_MEMBER_4_FILL">
<path fill="#221F20" stroke="none" d="
M 708.35 1057.6
Q 706.4 1059.55 706.4 1062.35 706.4 1065.15 708.35 1067.15 710.35 1069.1 713.15 1069.1 715.95 1069.1 717.9 1067.15 719.85 1065.15 719.85 1062.35 719.85 1059.6 717.9 1057.6 715.95 1055.65 713.15 1055.65 710.35 1055.65 708.35 1057.6 Z"/>
</g>

<g id="cube_9_0_Layer0_0_MEMBER_5_FILL">
<path fill="#221F20" stroke="none" d="
M 626 1057.6
Q 624.05 1059.6 624.05 1062.35 624.05 1065.15 626 1067.15 627.95 1069.1 630.75 1069.1 633.55 1069.1 635.55 1067.15 637.5 1065.15 637.5 1062.35 637.5 1059.55 635.55 1057.6 633.55 1055.65 630.75 1055.65 628 1055.65 626 1057.6 Z"/>
</g>

<g id="cube_9_0_Layer0_0_MEMBER_6_FILL">
<path fill="#E9ECEE" stroke="none" d="
M 808.25 1066.9
Q 805.7 1068.8 800.5 1077 799.9 1078 799.15 1079.45 797.05 1077.2 794.9 1076.35 792.7 1075.5 791.35 1076.4 789.65 1077.55 790 1080.75 790.4 1083.95 792.7 1087.3 794 1089.2 795.5 1090.55 792.65 1090.3 791.85 1091.8 790.85 1093.6 793.3 1096.6 795.85 1099.7 800.9 1102.4 805.75 1105 808.45 1105 810.75 1105.05 811.75 1103.15 812.35 1102 812.2 1100.95 816.05 1100.6 819.5 1098.35 823.2 1096 825.7 1091.95 829.75 1085.6 827 1078.3 824.45 1071.6 817.85 1067.4 812.3 1063.9 808.25 1066.9 Z"/>
</g>

<g id="cube_9_0_Layer0_0_MEMBER_7_FILL">
<path fill="#221F20" stroke="none" d="
M 622.95 1034.1
Q 620 1036.5 620.25 1037.45 620.4 1037.9 623.8 1035.8 628.3 1033.05 631.45 1032.05 634.45 1031.1 639.35 1030.65 642.8 1030.35 642.65 1029.85 642.35 1028.9 639 1028.7 635.15 1028.55 630.75 1029.95 626.4 1031.4 622.95 1034.1 Z"/>
</g>

<g id="cube_9_0_Layer0_0_MEMBER_8_FILL">
<path fill="#221F20" stroke="none" d="
M 724.3 1037.45
Q 724.6 1036.5 721.65 1034.1 718.25 1031.4 713.85 1029.95 709.5 1028.55 705.6 1028.7 702.25 1028.9 701.95 1029.85 701.8 1030.35 705.25 1030.65 710.15 1031.1 713.15 1032.05 716.3 1033.05 720.8 1035.85 724.15 1037.9 724.3 1037.45 Z"/>
</g>

<g id="cube_9_0_Layer0_1_MEMBER_0_MEMBER_0_FILL">
<path fill="#181526" stroke="none" d="
M 576.15 1020.05
Q 586.85 1018.4 590.8 1017.5 597.25 1016 617.25 1009.9
L 611.55 984.95 560.5 996.65 566.2 1021.55 576.15 1020.05 Z"/>
</g>

<g id="cube_9_0_Layer0_1_MEMBER_0_MEMBER_1_FILL">
<path fill="#F1B257" stroke="none" d="
M 536.7 1011.85
L 533.7 1011.85 533.7 1055.8 536.7 1055.8 536.7 1011.85 Z"/>
</g>

<g id="cube_9_0_Layer0_1_MEMBER_0_MEMBER_2_FILL">
<path fill="#221E36" stroke="none" d="
M 555.7 975.7
Q 551.3 976.7 548.1 980.1
L 521.25 1008.9
Q 519.45 1010.85 520.75 1013.15 522.05 1015.4 524.65 1014.8
L 630.45 990.6
Q 634.4 989.75 636.85 986.35
L 656.6 958.95
Q 658.15 956.85 656.7 954.7 655.25 952.5 652.75 953.1
L 555.7 975.7 Z"/>
</g>

<g id="cube_9_0_Layer0_1_MEMBER_0_MEMBER_3_FILL">
<path fill="#F1B257" stroke="none" d="
M 584.25 983.2
L 578.5 982.45 537.3 991.3 535.4 993.5 584.25 983.2 Z"/>
</g>

<g id="cube_9_mouth_0_Layer0_0_FILL">
<path fill="#E99B9B" stroke="none" d="
M 664.15 1096.15
Q 661.9 1097.1 662.05 1098.45 662.1 1098.85 662 1100.35 662 1101.85 662.6 1102.95 664.4 1106.2 672 1106.2 679.7 1106.2 681.75 1103.15 682.45 1102.05 682.45 1098.45 682.45 1094.45 672.35 1094.8 666.8 1095 664.15 1096.15 Z"/>
</g>

<g id="Mask_23_MASK_0_FILL">
<path fill="#FFFFFF" stroke="none" d="
M 423.15 285.75
L 518.9 249.2 509.25 65.15 172.1 65.15 149.65 281.95 184.05 282.45 225.05 282.9 423.15 285.75 Z"/>
</g>

<g id="cube_1_0_Layer0_0_MEMBER_0_FILL">
<path fill="#221F20" stroke="none" d="
M 694.35 1099.4
Q 695 1099.9 696.55 1100.8 709.3 1110.2 724.15 1116.15 739.65 1122.3 754.2 1123.35 788.1 1125.75 803.85 1100.8 804.25 1100.2 805.9 1099.25 807.2 1098.5 807.2 1097.45 807.2 1096 806 1094.6 804.7 1093.2 803.85 1094.15 778.35 1123.15 744.5 1115.2 733.3 1112.55 718.2 1105 696.85 1094.25 696.55 1094.15 695.35 1093.65 694.3 1094.85 693.25 1096 693.25 1097.45 693.25 1098.6 694.35 1099.4 Z"/>
</g>

<g id="cube_1_0_Layer0_0_MEMBER_1_FILL">
<path fill="#C4E4ED" stroke="none" d="
M 195.65 298.55
L 195.65 457.8 354.95 457.8 354.95 298.55 195.65 298.55 Z"/>
</g>

<g id="cube_1_0_Layer0_0_MEMBER_2_FILL">
<path fill="#A4D6E0" stroke="none" d="
M 552.1 1030.6
L 552.1 1183.15 586.75 1168.3 586.75 1009.05 552.1 1030.6 Z"/>
</g>

<g id="cube_1_0_Layer0_0_MEMBER_3_FILL">
<path fill="#A4D6E0" stroke="none" d="
M 586.75 1168.3
L 552.1 1183.15 718.1 1183.15 746.05 1168.3 586.75 1168.3 Z"/>
</g>

<g id="cube_1_0_Layer0_0_MEMBER_4_FILL">
<path fill="#221F20" stroke="none" d="
M 708.35 1057.6
Q 706.4 1059.55 706.4 1062.35 706.4 1065.15 708.35 1067.15 710.35 1069.1 713.15 1069.1 715.95 1069.1 717.9 1067.15 719.85 1065.15 719.85 1062.35 719.85 1059.6 717.9 1057.6 715.95 1055.65 713.15 1055.65 710.35 1055.65 708.35 1057.6 Z"/>
</g>

<g id="cube_1_0_Layer0_0_MEMBER_5_FILL">
<path fill="#221F20" stroke="none" d="
M 626 1057.6
Q 624.05 1059.6 624.05 1062.35 624.05 1065.15 626 1067.15 627.95 1069.1 630.75 1069.1 633.55 1069.1 635.55 1067.15 637.5 1065.15 637.5 1062.35 637.5 1059.55 635.55 1057.6 633.55 1055.65 630.75 1055.65 628 1055.65 626 1057.6 Z"/>
</g>

<g id="cube_1_0_Layer0_0_MEMBER_6_FILL">
<path fill="#221F20" stroke="none" d="
M 560.75 1111.7
Q 553.2 1118.7 546.45 1125.8 524.85 1148.6 518.95 1164.55 517.75 1167.95 517.3 1172.1 516.75 1177.55 519.8 1174.65 520.95 1173.6 530.1 1156.7 532.15 1153.25 538.15 1145.55 544.4 1137.65 545.65 1136 552.15 1127.7 561.5 1119.8 570.6 1112.15 572.3 1109.85 573.55 1108.45 573.7 1107.75 573.85 1106.85 572.7 1105.8 571.4 1104.7 569.75 1104.8 568 1104.95 566.9 1106.2
L 560.75 1111.7 Z"/>
</g>

<g id="cube_1_0_Layer0_0_MEMBER_7_FILL">
<path fill="#E9ECEE" stroke="none" d="
M 503.25 1167.5
Q 499.65 1172.75 504.25 1180.8 508.6 1188.45 515.5 1191.4 520.05 1193.35 523 1188.95 526.1 1182.5 528.35 1179.25 529.25 1183.4 531.1 1185.95 533 1188.5 535.05 1188.3 537.4 1188.05 538.65 1184.3 539.9 1180.55 539.3 1175.5 538.6 1169.3 535.8 1165.9 538.15 1165.6 538.75 1164.2 539.6 1162.25 536.5 1159.2 533.35 1156.2 528.05 1153.9 522.75 1151.6 518.4 1151.4 514.05 1151.2 513.2 1153.2 512.4 1155 515.1 1157.8 509.15 1159 503.25 1167.5 Z"/>
</g>

<g id="cube_1_mouth_0_Layer0_0_FILL">
<path fill="#E99B9B" stroke="none" d="
M -0.25 -2.75
Q -8.3 -2.75 -16.6 -1.3 -20.75 -0.6 -23.3 0.1 -20.75 1.2 -16.6 2.3 -8.3 4.5 -0.25 4.5 7.8 4.5 16.35 2.3 20.65 1.2 23.3 0.1 20.65 -0.6 16.35 -1.3 7.8 -2.75 -0.25 -2.75 Z"/>
</g>

<g id="cube_1_0_Layer0_0_MEMBER_9_FILL">
<path fill="#E9ECEE" stroke="none" d="
M 114.4 75
Q 113.65 72.25 111.95 72 109.95 71.7 107.95 75 105.85 78.4 105 84.05 104.15 89.5 105.05 92.05 105.8 94.25 107.9 94.55 109.2 94.75 110.15 94.25 111.75 97.75 115.05 100.25 118.5 102.95 123.1 104 130.45 105.65 136.45 100.6 141.9 96 143.65 88.4 145.1 81.95 140.95 79.15 138.3 77.4 128.8 75.2 127.65 74.95 126.05 74.75 127.45 72 127.55 69.7 127.6 67.35 126.3 66.4 124.7 65.15 121.75 66.6 118.9 68 116.5 71.25 115.15 73.15 114.4 75 Z"/>
</g>

<g id="cube_1_0_Layer0_0_MEMBER_10_FILL">
<path fill="#221F20" stroke="none" d="
M 622.95 1034.1
Q 620 1036.5 620.25 1037.45 620.4 1037.9 623.8 1035.8 628.3 1033.05 631.45 1032.05 634.45 1031.1 639.35 1030.65 642.8 1030.35 642.65 1029.85 642.35 1028.9 639 1028.7 635.15 1028.55 630.75 1029.95 626.4 1031.4 622.95 1034.1 Z"/>
</g>

<g id="cube_1_0_Layer0_0_MEMBER_11_FILL">
<path fill="#221F20" stroke="none" d="
M 724.3 1037.45
Q 724.6 1036.5 721.65 1034.1 718.25 1031.4 713.85 1029.95 709.5 1028.55 705.6 1028.7 702.25 1028.9 701.95 1029.85 701.8 1030.35 705.25 1030.65 710.15 1031.1 713.15 1032.05 716.3 1033.05 720.8 1035.85 724.15 1037.9 724.3 1037.45 Z"/>
</g>

<g id="cube_1_0_Layer0_1_MEMBER_0_MEMBER_0_FILL">
<path fill="#181526" stroke="none" d="
M 576.15 1020.05
Q 586.85 1018.4 590.8 1017.5 597.25 1016 617.25 1009.9
L 611.55 984.95 560.5 996.65 566.2 1021.55 576.15 1020.05 Z"/>
</g>

<g id="cube_1_0_Layer0_1_MEMBER_0_MEMBER_1_FILL">
<path fill="#F1B257" stroke="none" d="
M 536.7 1011.85
L 533.7 1011.85 533.7 1055.8 536.7 1055.8 536.7 1011.85 Z"/>
</g>

<g id="cube_1_0_Layer0_1_MEMBER_0_MEMBER_2_FILL">
<path fill="#221E36" stroke="none" d="
M 555.7 975.7
Q 551.3 976.7 548.1 980.1
L 521.25 1008.9
Q 519.45 1010.85 520.75 1013.15 522.05 1015.4 524.65 1014.8
L 630.45 990.6
Q 634.4 989.75 636.85 986.35
L 656.6 958.95
Q 658.15 956.85 656.7 954.7 655.25 952.5 652.75 953.1
L 555.7 975.7 Z"/>
</g>

<g id="cube_1_0_Layer0_1_MEMBER_0_MEMBER_3_FILL">
<path fill="#F1B257" stroke="none" d="
M 584.25 983.2
L 578.5 982.45 537.3 991.3 535.4 993.5 584.25 983.2 Z"/>
</g>

<g id="Mask_20_MASK_0_FILL">
<path fill="#FFFFFF" stroke="none" d="
M 1633.45 263.65
L 1717.45 82.85 1267.05 72.7 1271.5 373.85 1316.35 295 1351.85 295 1557.3 295.35 1633.45 263.65 Z"/>
</g>

<g id="cube_2_0_Layer0_0_MEMBER_0_FILL">
<path fill="#C4E4ED" stroke="none" d="
M 586.75 1009.05
L 586.75 1168.3 746.05 1168.3 746.05 1009.05 586.75 1009.05 Z"/>
</g>

<g id="cube_2_0_Layer0_0_MEMBER_1_FILL">
<path fill="#A4D6E0" stroke="none" d="
M 552.1 1030.6
L 552.1 1183.15 586.75 1168.3 586.75 1009.05 552.1 1030.6 Z"/>
</g>

<g id="cube_2_0_Layer0_0_MEMBER_2_FILL">
<path fill="#A4D6E0" stroke="none" d="
M 586.75 1168.3
L 552.1 1183.15 718.1 1183.15 746.05 1168.3 586.75 1168.3 Z"/>
</g>

<g id="cube_2_0_Layer0_0_MEMBER_3_FILL">
<path fill="#221F20" stroke="none" d="
M 708.35 1057.6
Q 706.4 1059.55 706.4 1062.35 706.4 1065.15 708.35 1067.15 710.35 1069.1 713.15 1069.1 715.95 1069.1 717.9 1067.15 719.85 1065.15 719.85 1062.35 719.85 1059.6 717.9 1057.6 715.95 1055.65 713.15 1055.65 710.35 1055.65 708.35 1057.6 Z"/>
</g>

<g id="cube_2_0_Layer0_0_MEMBER_4_FILL">
<path fill="#221F20" stroke="none" d="
M 626 1057.6
Q 624.05 1059.6 624.05 1062.35 624.05 1065.15 626 1067.15 627.95 1069.1 630.75 1069.1 633.55 1069.1 635.55 1067.15 637.5 1065.15 637.5 1062.35 637.5 1059.55 635.55 1057.6 633.55 1055.65 630.75 1055.65 628 1055.65 626 1057.6 Z"/>
</g>

<g id="cube_2_mouth_0_Layer0_0_FILL">
<path fill="#E99B9B" stroke="none" d="
M 23.35 -8
Q 21.9 -10.2 0.15 -10.15 -21.5 -10.05 -23.25 -8 -24.9 -6.05 -17.35 -4.7 -10.35 -3.45 -0.1 -3.45 10.4 -3.45 17.2 -4.6 24.75 -5.9 23.35 -8 Z"/>
</g>

<g id="cube_2_brrow_0_Layer0_0_FILL">
<path fill="#221F20" stroke="none" d="
M 622.95 1034.1
Q 620 1036.5 620.25 1037.45 620.4 1037.9 623.8 1035.8 628.3 1033.05 631.45 1032.05 634.45 1031.1 639.35 1030.65 642.8 1030.35 642.65 1029.85 642.35 1028.9 639 1028.7 635.15 1028.55 630.75 1029.95 626.4 1031.4 622.95 1034.1 Z"/>
</g>

<g id="cube_2_brrow_0_Layer0_1_FILL">
<path fill="#221F20" stroke="none" d="
M 724.3 1037.45
Q 724.6 1036.5 721.65 1034.1 718.25 1031.4 713.85 1029.95 709.5 1028.55 705.6 1028.7 702.25 1028.9 701.95 1029.85 701.8 1030.35 705.25 1030.65 710.15 1031.1 713.15 1032.05 716.3 1033.05 720.8 1035.85 724.15 1037.9 724.3 1037.45 Z"/>
</g>

<g id="cube_2_r_arm_0_Layer0_0_FILL">
<path fill="#221F20" stroke="none" d="
M 560.75 1111.7
Q 553.2 1118.7 546.45 1125.8 524.85 1148.6 518.95 1164.55 517.75 1167.95 517.3 1172.1 516.75 1177.55 519.8 1174.65 520.95 1173.6 530.1 1156.7 532.15 1153.25 538.15 1145.55 544.4 1137.65 545.65 1136 552.15 1127.7 561.5 1119.8 570.6 1112.15 572.3 1109.85 573.55 1108.45 573.7 1107.75 573.85 1106.85 572.7 1105.8 571.4 1104.7 569.75 1104.8 568 1104.95 566.9 1106.2
L 560.75 1111.7 Z"/>
</g>

<g id="cube_2_r_arm_0_Layer0_1_FILL">
<path fill="#E9ECEE" stroke="none" d="
M 503.25 1167.5
Q 499.65 1172.75 504.25 1180.8 508.6 1188.45 515.5 1191.4 520.05 1193.35 523 1188.95 526.1 1182.5 528.35 1179.25 529.25 1183.4 531.1 1185.95 533 1188.5 535.05 1188.3 537.4 1188.05 538.65 1184.3 539.9 1180.55 539.3 1175.5 538.6 1169.3 535.8 1165.9 538.15 1165.6 538.75 1164.2 539.6 1162.25 536.5 1159.2 533.35 1156.2 528.05 1153.9 522.75 1151.6 518.4 1151.4 514.05 1151.2 513.2 1153.2 512.4 1155 515.1 1157.8 509.15 1159 503.25 1167.5 Z"/>
</g>

<g id="Mask_15_MASK_0_FILL">
<path fill="#FFFFFF" stroke="none" d="
M 1354.5 198.15
L 1354.5 363.8 1548.8 363.8 1548.8 198.15 1354.5 198.15 Z"/>
</g>

<g id="cube_2_l_arm_0_Layer0_0_FILL">
<path fill="#221F20" stroke="none" d="
M 694.35 1099.4
Q 695 1099.9 696.55 1100.8 709.3 1110.2 724.15 1116.15 739.65 1122.3 754.2 1123.35 788.1 1125.75 803.85 1100.8 804.25 1100.2 805.9 1099.25 807.2 1098.5 807.2 1097.45 807.2 1096 806 1094.6 804.7 1093.2 803.85 1094.15 778.35 1123.15 744.5 1115.2 733.3 1112.55 718.2 1105 696.85 1094.25 696.55 1094.15 695.35 1093.65 694.3 1094.85 693.25 1096 693.25 1097.45 693.25 1098.6 694.35 1099.4 Z"/>
</g>

<g id="cube_2_l_arm_0_Layer0_1_FILL">
<path fill="#E9ECEE" stroke="none" d="
M 808.25 1066.9
Q 805.7 1068.8 800.5 1077 799.9 1078 799.15 1079.45 797.05 1077.2 794.9 1076.35 792.7 1075.5 791.35 1076.4 789.65 1077.55 790 1080.75 790.4 1083.95 792.7 1087.3 794 1089.2 795.5 1090.55 792.65 1090.3 791.85 1091.8 790.85 1093.6 793.3 1096.6 795.85 1099.7 800.9 1102.4 805.75 1105 808.45 1105 810.75 1105.05 811.75 1103.15 812.35 1102 812.2 1100.95 816.05 1100.6 819.5 1098.35 823.2 1096 825.7 1091.95 829.75 1085.6 827 1078.3 824.45 1071.6 817.85 1067.4 812.3 1063.9 808.25 1066.9 Z"/>
</g>

<g id="Mask_12_MASK_0_FILL">
<path fill="#FFFFFF" stroke="none" d="
M 725.2 288.7
L 1002.7 139.55 752.65 14.5 450.55 27.5 468.95 285.85 725.2 288.7 Z"/>
</g>

<g id="tanner_l_arm_0_Layer0_0_FILL">
<path fill="#221F20" stroke="none" d="
M 1079.4 1069
Q 1084.5 1063.05 1087.45 1058.05 1090.2 1053.4 1089.45 1052.45 1087.6 1050.1 1084.95 1051.85 1083.15 1053.1 1078.7 1058.35 1066 1073.45 1055.2 1080.8 1047.9 1085.75 1038.35 1089.7 1034.25 1091.4 1023.65 1095.05 1016.5 1097.5 1014.45 1099.05 1011.7 1101.15 1014 1104.05 1015.55 1106.05 1023.7 1103.75 1033.3 1101.05 1049.7 1092.9 1065.75 1084.9 1079.4 1069 Z"/>
</g>

<g id="tanner_l_arm_0_Layer0_1_FILL">
<path fill="#E9ECEE" stroke="none" d="
M 107.55 -10.7
Q 105.5 -9.95 105.3 -6.4 105.05 -2.85 106.75 1.25 108.55 5.6 111.6 9.25 111 9.65 110.7 10.15 109.6 12 111.8 15.1 114.05 18.15 118.3 20.65 122.55 23.1 126.3 23.5 130.1 23.9 131.2 22 131.7 21.1 131.4 19.85
L 131.45 19.85
Q 139.6 19.7 145.1 14.2 150.6 8.65 150.45 0.85 150.35 -7.15 144.85 -12.8 139.2 -18.6 131.45 -18.15 126.85 -17.9 123.55 -14.3 122.65 -13.35 117.2 -5.35 115.1 -9.6 113.4 -10.7 111.3 -12 107.55 -10.7 Z"/>
</g>

<g id="tanner_0_Layer0_0_MEMBER_0_MEMBER_0_FILL">
<path fill="#EA983E" stroke="none" d="
M 1025.75 1067.9
Q 1017.5 1049.95 1002.35 1036.1 987.25 1022.25 967.65 1014.65 947.35 1006.8 925.15 1006.8 902.95 1006.8 882.65 1014.65 863.05 1022.25 847.95 1036.1 832.85 1049.95 824.55 1067.9 815.95 1086.5 815.95 1106.85 815.95 1131.45 828.3 1153.1 829.15 1153.1 847.15 1153.9 866.05 1154.75 868.35 1154.95
L 934.5 1155.85
Q 1003.75 1156.85 1019.5 1157.25 1026.7 1145.95 1030.45 1133.4 1034.35 1120.4 1034.35 1106.85 1034.35 1086.5 1025.75 1067.9 Z"/>
</g>

<g id="tanner_0_Layer0_0_MEMBER_0_MEMBER_1_FILL">
<path fill="#E3753A" stroke="none" d="
M 874.6 1018.15
Q 848 1030.9 832.2 1054.3 815.95 1078.4 815.95 1106.85 815.95 1131.45 828.3 1153.1
L 829.7 1153.15
Q 841.6 1153.35 856.25 1154.35 846 1141.75 840.55 1126.85 834.85 1111.45 834.85 1095 834.85 1072.1 845.65 1051.65 856.1 1031.9 874.6 1018.15 Z"/>
</g>

<g id="tanner_0_Layer0_0_MEMBER_0_MEMBER_2_FILL">
<path fill="#221F20" stroke="none" d="
M 900.7 1083.6
Q 900.55 1080.95 898.6 1079.2 896.6 1077.45 894 1077.6 891.4 1077.75 889.65 1079.7 887.9 1081.65 888 1084.3 888.15 1086.95 890.1 1088.7 892.1 1090.45 894.7 1090.3 897.35 1090.15 899.1 1088.2 900.85 1086.2 900.7 1083.6 Z"/>
</g>

<g id="tanner_0_Layer0_0_MEMBER_0_MEMBER_3_FILL">
<path fill="#221F20" stroke="none" d="
M 990.65 1074.35
Q 990.55 1071.75 988.6 1069.95 986.65 1068.2 984 1068.35 981.35 1068.5 979.6 1070.45 977.85 1072.45 978 1075.05 978.15 1077.7 980.1 1079.4 982.05 1081.15 984.7 1081.05 987.3 1080.9 989.05 1078.95 990.8 1077 990.65 1074.35 Z"/>
</g>

<g id="tanner_0_Layer0_0_MEMBER_0_MEMBER_4_FILL">
<path fill="#221F20" stroke="none" d="
M 903.85 1049.2
Q 903.5 1048.05 899.65 1047.5 895.15 1046.85 890.55 1048.3 885.95 1049.8 882.8 1052.8 880.05 1055.35 880.45 1056.45 880.55 1056.85 883.4 1054.65 887.35 1051.65 891.2 1050.35 895.1 1049.1 900.25 1049.35 904 1049.55 903.85 1049.2 Z"/>
</g>

<g id="tanner_0_Layer0_0_MEMBER_0_MEMBER_5_FILL">
<path fill="#221F20" stroke="none" d="
M 983.3 1043.35
Q 978.5 1042.6 974.3 1043.75 970.65 1044.7 970.45 1045.85 970.4 1046.3 974 1045.65 979 1044.85 983 1045.45 987 1046.1 991.45 1048.45 994.65 1050.1 994.7 1049.65 994.9 1048.55 991.75 1046.5 988.05 1044.1 983.3 1043.35 Z"/>
</g>

<g id="tanner_mouth_0_Layer0_0_FILL">
<path fill="#C55C64" stroke="none" d="
M 20.5 -0.15
Q 21.95 -6.15 18.9 -8.75 14.5 -12.5 -0.15 -11.8 -14.15 -11.1 -18.35 -8.35 -22.1 -5.9 -20.5 0.25 -19.2 5.2 -13.8 8.5 -8.05 11.95 0.1 11.9 8.25 11.8 13.95 8.2 19.25 4.85 20.5 -0.15 Z"/>
</g>

<g id="tanner_0_Layer0_0_MEMBER_0_MEMBER_7_FILL">
<path fill="#221F20" stroke="none" d="
M 825.5 1119.15
Q 822.95 1119.1 819.6 1126.75 815.7 1135.75 811.6 1153.4 815.7 1153 819.4 1153 820.9 1144.3 827.6 1127.65 829.45 1123 829.2 1121.3 828.95 1119.2 825.5 1119.15 Z"/>
</g>

<g id="tanner_0_Layer0_0_MEMBER_1_MEMBER_0_FILL">
<path fill="#181526" stroke="none" d="
M 852.8 1032.4
L 862.8 1028.8
Q 873.55 1024.85 877.4 1023.1 883.75 1020.25 903.15 1009.8
L 892.15 985.2 841.75 1007.8 852.8 1032.4 Z"/>
</g>

<g id="tanner_0_Layer0_0_MEMBER_1_MEMBER_1_FILL">
<path fill="#F1B257" stroke="none" d="
M 814.85 1028.9
L 811.7 1028.9 811.7 1075.25 814.85 1075.25 814.85 1028.9 Z"/>
</g>

<g id="tanner_0_Layer0_0_MEMBER_1_MEMBER_2_FILL">
<path fill="#221E36" stroke="none" d="
M 912.85 987.15
Q 916.8 985.35 918.6 981.4
L 933.4 949
Q 934.55 946.5 932.6 944.6 930.65 942.65 928.2 943.75
L 832.5 987.1
Q 828.15 989.05 825.5 993.25
L 803.7 1028.6
Q 802.25 1030.95 804.05 1033.05 805.9 1035.15 808.4 1034
L 912.85 987.15 Z"/>
</g>

<g id="tanner_0_Layer0_0_MEMBER_1_MEMBER_3_FILL">
<path fill="#F1B257" stroke="none" d="
M 863.55 989
L 857.45 989.4 816.65 1007.05 815.15 1009.75 863.55 989 Z"/>
</g>

<g id="Mask_8_MASK_0_FILL">
<path fill="#FFFFFF" stroke="none" d="
M 1007.15 291.75
L 1086.35 243.9 1079.2 120.85 906.8 82.85 769.85 130.25 768.65 289.05 803.65 289.7 1007.15 291.75 Z"/>
</g>

<g id="cube_4_l_arm_0_Layer0_0_FILL">
<path fill="#221F20" stroke="none" d="
M 55.8 -14.05
Q 54.5 -15.45 53.65 -14.5 28.15 14.5 -5.7 6.55 -16.9 3.9 -32 -3.65 -53.35 -14.4 -53.65 -14.5 -54.85 -15 -55.9 -13.8 -56.95 -12.65 -56.95 -11.2 -56.95 -10.05 -55.85 -9.25 -55.2 -8.75 -53.65 -7.85 -40.9 1.55 -26.05 7.5 -10.55 13.65 4 14.7 37.9 17.1 53.65 -7.85 54.05 -8.45 55.7 -9.4 57 -10.15 57 -11.2 57 -12.65 55.8 -14.05 Z"/>
</g>

<g id="cube_4_l_hand_0_Layer0_0_FILL">
<path fill="#E9ECEE" stroke="none" d="
M -0.75 -18.35
Q -3.3 -16.45 -8.5 -8.25 -9.1 -7.25 -9.85 -5.8 -11.95 -8.05 -14.1 -8.9 -16.3 -9.75 -17.65 -8.85 -19.35 -7.7 -19 -4.5 -18.6 -1.3 -16.3 2.05 -15 3.95 -13.5 5.3 -16.35 5.05 -17.15 6.55 -18.15 8.35 -15.7 11.35 -13.15 14.45 -8.1 17.15 -3.25 19.75 -0.55 19.75 1.75 19.8 2.75 17.9 3.35 16.75 3.2 15.7 7.05 15.35 10.5 13.1 14.2 10.75 16.7 6.7 20.75 0.35 18 -6.95 15.45 -13.65 8.85 -17.85 3.3 -21.35 -0.75 -18.35 Z"/>
</g>

<g id="cube_04_0_Layer0_0_MEMBER_0_FILL">
<path fill="#C4E4ED" stroke="none" d="
M 81.2 -91.45
L -78.1 -91.45 -78.1 67.8 81.2 67.8 81.2 -91.45 Z"/>
</g>

<g id="cube_04_0_Layer0_0_MEMBER_1_FILL">
<path fill="#A4D6E0" stroke="none" d="
M 552.1 1030.6
L 552.1 1183.15 586.75 1168.3 586.75 1009.05 552.1 1030.6 Z"/>
</g>

<g id="cube_04_0_Layer0_0_MEMBER_2_FILL">
<path fill="#A4D6E0" stroke="none" d="
M 586.75 1168.3
L 552.1 1183.15 718.1 1183.15 746.05 1168.3 586.75 1168.3 Z"/>
</g>

<g id="cube_04_0_Layer0_0_MEMBER_3_FILL">
<path fill="#221F20" stroke="none" d="
M 708.35 1057.6
Q 706.4 1059.55 706.4 1062.35 706.4 1065.15 708.65 1065.25 710.95 1065.35 713.75 1065.35 716.55 1065.35 718.2 1065.25 719.85 1065.15 719.85 1062.35 719.85 1059.6 717.9 1057.6 715.95 1055.65 713.15 1055.65 710.35 1055.65 708.35 1057.6 Z"/>
</g>

<g id="cube_04_0_Layer0_0_MEMBER_4_FILL">
<path fill="#221F20" stroke="none" d="
M -34.1 -44.85
Q -36.85 -44.85 -38.85 -42.9 -40.8 -40.9 -40.8 -38.15 -40.794140625 -35.3447265625 -37.5 -35.6 -34.167578125 -35.86640625 -31.6 -35.5 -29.032421875 -35.1337890625 -28.2 -35.25 -27.355859375 -35.35546875 -27.35 -38.15 -27.35 -40.95 -29.3 -42.9 -31.3 -44.85 -34.1 -44.85 Z"/>
</g>

<g id="cube_04_0_Layer0_0_MEMBER_5_FILL">
<path fill="#221F20" stroke="none" d="
M -26.6 -72.85
Q -30.4 -72.45 -34.55 -70.4 -38.65 -68.4 -41.65 -65.2 -44.25 -62.45 -43.9 -61.5 -43.65 -61.1 -40.6 -63.65 -36.5 -67 -33.55 -68.45 -30.75 -69.85 -25.95 -71 -22.55 -71.8 -22.75 -72.2 -23.2 -73.15 -26.6 -72.85 Z"/>
</g>

<g id="cube_04_0_Layer0_0_MEMBER_6_FILL">
<path fill="#221F20" stroke="none" d="
M 724.3 1037.45
Q 724.6 1036.5 721.65 1034.1 718.25 1031.4 713.85 1029.95 709.5 1028.55 705.6 1028.7 702.25 1028.9 701.95 1029.85 701.8 1030.35 705.25 1030.65 710.15 1031.1 713.15 1032.05 716.3 1033.05 720.8 1035.85 724.15 1037.9 724.3 1037.45 Z"/>
</g>

<g id="cube_4_r_arm_0_Layer0_0_FILL">
<path fill="#E9ECEE" stroke="none" d="
M -12.8 4.3
Q -16.25 3.15 -19.3 3 -23.65 2.8 -24.5 4.8 -25.3 6.6 -22.6 9.4 -28.55 10.6 -34.45 19.1 -38.05 24.35 -33.45 32.4 -29.1 40.05 -22.2 43 -17.65 44.95 -14.7 40.55 -11.6 34.1 -9.35 30.85 -8.45 35 -6.6 37.55 -4.7 40.1 -2.65 39.9 -0.3 39.65 0.95 35.9 2.2 32.15 1.6 27.1 0.9 20.9 -1.9 17.5 0.45 17.2 1.05 15.8 1.9 13.85 -1.2 10.8 -3.45 8.7 -6.7 6.9 -8.1 6.15 -9.65 5.5 -11.25 4.8 -12.8 4.3 Z"/>

<path fill="#221F20" stroke="none" d="
M 23.8 -28.6
Q 32.9 -36.25 34.6 -38.55 35.85 -39.95 36 -40.65 36.15 -41.55 35 -42.6 33.7 -43.7 32.05 -43.6 30.3 -43.45 29.2 -42.2
L 23.05 -36.7
Q 15.5 -29.7 8.75 -22.6 -5.4 -7.7 -12.8 4.3 -11.25 4.8 -9.65 5.5 -8.1 6.15 -6.7 6.9 -4.45 3.45 0.45 -2.85 6.7 -10.75 7.95 -12.4 14.45 -20.7 23.8 -28.6 Z"/>
</g>

<g id="cube_4_mouth_0_Layer0_0_FILL">
<path fill="#E99B9B" stroke="none" d="
M 9.35 -1.6
Q 8.45 -2.7 0.55 -2.85 -7.2 -3 -9 -2.2 -10.35 -1.6 -9 -0.4 -8.2 0.3 -6.15 1.9 -5.1 3 -0.35 2.85 4 2.7 6.2 1.9 8.45 1.05 9.2 0.4 10.2 -0.5 9.35 -1.6 Z"/>
</g>

<g id="Mask_2_MASK_0_FILL">
<path fill="#FFFFFF" stroke="none" d="
M 1286.15 115.2
L 1212 55 1020.35 65.75 1021.6 168.85 961.25 291.3 1084.8 290.6 1286.15 293.4 1394.85 241.6 1286.15 115.2 Z"/>
</g>

<g id="cube_3_l_arm_0_Layer0_0_FILL">
<path fill="#221F20" stroke="none" d="
M 1340.35 249.45
Q 1339.05 248.05 1338.2 249 1312.7 278 1278.85 270.05 1267.65 267.4 1252.55 259.85 1231.2 249.1 1230.9 249 1229.7 248.5 1228.65 249.7 1227.6 250.85 1227.6 252.3 1227.6 253.45 1228.7 254.25 1229.35 254.75 1230.9 255.65 1243.65 265.05 1258.5 271 1274 277.15 1288.55 278.2 1322.45 280.6 1338.2 255.65 1338.6 255.05 1340.25 254.1 1341.55 253.35 1341.55 252.3 1341.55 250.85 1340.35 249.45 Z"/>
</g>

<g id="cube_3_l_arm_0_Layer0_1_FILL">
<path fill="#E9ECEE" stroke="none" d="
M 1360.05 246.8
Q 1364.1 240.45 1361.35 233.15 1358.8 226.45 1352.2 222.25 1346.65 218.75 1342.6 221.75 1340.05 223.65 1334.85 231.85 1334.25 232.85 1333.5 234.3 1331.4 232.05 1329.25 231.2 1327.05 230.35 1325.7 231.25 1324 232.4 1324.35 235.6 1324.75 238.8 1327.05 242.15 1328.35 244.05 1329.85 245.4 1327 245.15 1326.2 246.65 1325.2 248.45 1327.65 251.45 1330.2 254.55 1335.25 257.25 1340.1 259.85 1342.8 259.85 1345.1 259.9 1346.1 258 1346.7 256.85 1346.55 255.8 1350.4 255.45 1353.85 253.2 1357.55 250.85 1360.05 246.8 Z"/>
</g>

<g id="cube_3_all_0_Layer0_1_MEMBER_0_FILL">
<path fill="#C4E4ED" stroke="none" d="
M 1121.1 163.9
L 1121.1 323.15 1280.4 323.15 1280.4 163.9 1121.1 163.9 Z"/>
</g>

<g id="cube_3_all_0_Layer0_1_MEMBER_1_FILL">
<path fill="#A4D6E0" stroke="none" d="
M 552.1 1030.6
L 552.1 1183.15 586.75 1168.3 586.75 1009.05 552.1 1030.6 Z"/>
</g>

<g id="cube_3_all_0_Layer0_1_MEMBER_2_FILL">
<path fill="#A4D6E0" stroke="none" d="
M 586.75 1168.3
L 552.1 1183.15 718.1 1183.15 746.05 1168.3 586.75 1168.3 Z"/>
</g>

<g id="cube_3_all_0_Layer0_1_MEMBER_3_FILL">
<path fill="#E99B9B" stroke="none" d="
M 658.15 1100.75
Q 655.1 1100.7 654.3 1101.7 653.3 1102.95 658.05 1103.75 663 1104.6 672.4 1104.6 680.85 1104.6 684.9 1103.5 688.1 1102.65 687.05 1101.95 686.3 1101.45 683.35 1101.25 679.85 1101 670.7 1101 660.5 1100.8 658.15 1100.75 Z"/>
</g>

<g id="cube_3_r_arm_0_Layer0_0_FILL">
<path fill="#E9ECEE" stroke="none" d="
M -14.35 3.6
Q -17.6 5.25 -19.9 7.25 -23.1 10.25 -22.3 12.25 -21.6 14.05 -17.7 14.15 -21.05 19.2 -19.2 29.35 -18.05 35.6 -9.1 38.05 -0.65 40.4 6.35 37.6 10.95 35.8 9.9 30.55 7.55 23.8 6.8 19.95 10.4 22.25 13.5 22.75 16.65 23.2 17.95 21.6 19.45 19.8 17.7 16.25 15.95 12.7 11.9 9.55 7.05 5.7 2.65 5.2 4.1 3.35 3.55 1.9 2.8 -0.05 -1.55 0 -4.21796875 0.0861328125 -7.25 0.85 -7.7052734375 1.0037109375 -8.2 1.15 -9.75 1.6 -11.3 2.25 -12.1541015625 2.5703125 -13 2.9 -13.6740234375 3.250390625 -14.35 3.6 Z"/>

<path fill="#221F20" stroke="none" d="
M 25.7 -43.7
Q 15.55 -43.6 7.2 -40.3 -17.9376953125 -30.352734375 -13 2.9 -12.1541015625 2.5703125 -11.3 2.25 -9.75 1.6 -8.2 1.15 -7.7052734375 1.0037109375 -7.25 0.85 -8.88359375 -28.7552734375 14.75 -35.95 18.3 -37 31.3 -38.8 34.65 -39.25 35.55 -39.95 36.65 -40.8 35.05 -42.6 34.05 -43.75 25.7 -43.7 Z"/>
</g>

<g id="cube_3_eyes_0_Layer0_0_FILL">
<path fill="#221F20" stroke="none" d="
M -41.2 -6.7
Q -43.95 -6.7 -45.95 -4.75 -47.9 -2.75 -47.9 0 -47.8955078125 2.8048828125 -45.85 3.95 -43.7640625 5.1349609375 -40.95 5 -38.1361328125 4.86484375 -36.3 3.8 -34.4546875 2.794921875 -34.45 0 -34.45 -2.8 -36.4 -4.75 -38.4 -6.7 -41.2 -6.7
M 45.95 -4.75
Q 44 -6.7 41.2 -6.7 38.4 -6.7 36.4 -4.75 34.45 -2.8 34.45 0 34.444140625 2.796875 36.5 4.1 38.6171875 5.4087890625 41.45 5.25 44.2826171875 5.091015625 46.1 3.95 47.9056640625 2.8029296875 47.9 0 47.9 -2.75 45.95 -4.75 Z"/>
</g>

<g id="cube_3_eyes_0_Layer0_1_FILL">
<path fill="#221F20" stroke="none" d="
M -41.2 -6.7
Q -43.95 -6.7 -45.95 -4.75 -47.9 -2.75 -47.9 0 -47.8955078125 2.8048828125 -45.85 3.95 -43.7640625 5.1349609375 -40.95 5 -38.1361328125 4.86484375 -36.3 3.8 -34.4546875 2.794921875 -34.45 0 -34.45 -2.8 -36.4 -4.75 -38.4 -6.7 -41.2 -6.7
M 45.95 -4.75
Q 44 -6.7 41.2 -6.7 38.4 -6.7 36.4 -4.75 34.45 -2.8 34.45 0 34.444140625 2.796875 36.5 4.1 38.6171875 5.4087890625 41.45 5.25 44.2826171875 5.091015625 46.1 3.95 47.9056640625 2.8029296875 47.9 0 47.9 -2.75 45.95 -4.75 Z"/>
</g>

<g id="cube_3_brrow_0_Layer0_0_FILL">
<path fill="#221F20" stroke="none" d="
M 622.95 1034.1
Q 620 1036.5 620.25 1037.45 620.4 1037.9 623.8 1035.8 628.3 1033.05 631.45 1032.05 634.45 1031.1 639.35 1030.65 642.8 1030.35 642.65 1029.85 642.35 1028.9 639 1028.7 635.15 1028.55 630.75 1029.95 626.4 1031.4 622.95 1034.1 Z"/>
</g>

<g id="cube_3_brrow_0_Layer0_1_FILL">
<path fill="#221F20" stroke="none" d="
M 724.3 1037.45
Q 724.6 1036.5 721.65 1034.1 718.25 1031.4 713.85 1029.95 709.5 1028.55 705.6 1028.7 702.25 1028.9 701.95 1029.85 701.8 1030.35 705.25 1030.65 710.15 1031.1 713.15 1032.05 716.3 1033.05 720.8 1035.85 724.15 1037.9 724.3 1037.45 Z"/>
</g>

<g id="cube_3_hat_0_Layer0_0_MEMBER_0_FILL">
<path fill="#181526" stroke="none" d="
M 576.15 1020.05
Q 586.85 1018.4 590.8 1017.5 597.25 1016 617.25 1009.9
L 611.55 984.95 560.5 996.65 566.2 1021.55 576.15 1020.05 Z"/>
</g>

<g id="cube_3_hat_0_Layer0_0_MEMBER_1_FILL">
<path fill="#F1B257" stroke="none" d="
M 536.7 1011.85
L 533.7 1011.85 533.7 1055.8 536.7 1055.8 536.7 1011.85 Z"/>
</g>

<g id="cube_3_hat_0_Layer0_0_MEMBER_2_FILL">
<path fill="#221E36" stroke="none" d="
M 555.7 975.7
Q 551.3 976.7 548.1 980.1
L 521.25 1008.9
Q 519.45 1010.85 520.75 1013.15 522.05 1015.4 524.65 1014.8
L 630.45 990.6
Q 634.4 989.75 636.85 986.35
L 656.6 958.95
Q 658.15 956.85 656.7 954.7 655.25 952.5 652.75 953.1
L 555.7 975.7 Z"/>
</g>

<g id="cube_3_hat_0_Layer0_0_MEMBER_3_FILL">
<path fill="#F1B257" stroke="none" d="
M 584.25 983.2
L 578.5 982.45 537.3 991.3 535.4 993.5 584.25 983.2 Z"/>
</g>

<path id="cube_9_0_Layer0_0_MEMBER_6_1_STROKES" stroke="#221F20" stroke-width="1.9" stroke-linejoin="miter" stroke-linecap="butt" stroke-miterlimit="10" fill="none" d="
M 99.85768966674823 89.91210479736321
Q 101.00609741210928 88.25275268554685 102.72544708251974 86.72188262939449 105.75592880249019 84.01488647460928 108.87907333374028 83.21149902343745 112.00857162475609 82.45770492553697 113.3652465820312 83.99774246215827 114.42947845458991 85.22239532470701 113.86595687866225 87.51251678466781 113.29608154296864 89.75304489135738 111.33123855590816 92.1218849182128 112.86475219726572 92.68152618408192 113.93286437988286 93.1495712280273 122.72696533203145 97.26526336669917 124.93555450439453 99.55308151245117 128.4258102416992 103.18891754150388 125.65954284667964 109.13854293823249 122.33239746093761 116.21858139038079 116.01092987060565 119.59924621582024 109.11975708007822 123.25452957153311 102.30674667358392 120.04439544677734 97.97199707031257 118.07938232421873 95.17093124389658 114.70810089111319 92.50082092285163 111.57207870483387 91.66442794799798 107.79786682128906 90.64202880859375 108.08007583618166 89.42513656616211 107.6310920715332 87.41351394653339 106.8806678771972 87.170834350586 104.59301986694334 86.82773132324223 101.91497879028316 88.7902709960938 96.77402801513665 90.82658233642564 91.42199630737309 93.577328491211 88.49880218505848 96.24159545898442 85.68750228881834 98.15403137207045 86.45063400268555 99.74349212646507 87.05351486206041 99.85768966674823 89.91210479736321 Z"/>

<path id="cube_1_0_Layer0_0_MEMBER_7_1_STROKES" stroke="#221F20" stroke-width="1.9" stroke-linejoin="miter" stroke-linecap="butt" stroke-miterlimit="10" fill="none" d="
M -126.73930816650386 107.27017288208003
Q -125.87961425781248 96.95902633666992 -121.3267303466796 92.94488372802721 -125.06496276855466 91.86996459960938 -125.2721130371093 89.91112670898428 -125.53595886230471 87.75408401489267 -121.66874084472647 85.75235595703134 -117.80152282714857 83.75062789916979 -112.0616104125977 83.09257278442396 -106.32169799804683 82.43451766967769 -102.09375610351549 83.45764923095703 -97.88411636352544 84.54908142089835 -97.64526977539049 86.66282272338867 -97.46490783691411 88.1752525329589 -99.35007781982426 89.6100250244142 -95.22525177001944 91.15456237792955 -91.51912689208984 96.17394561767583 -88.47458724975581 100.24739532470699 -87.68217926025386 104.11998062133785 -86.88977127075191 107.9925659179687 -88.79994049072252 109.38403701782227 -90.47530059814449 110.58221130371089 -93.39571456909175 109.32381134033199 -96.27282714843727 108.04041213989262 -99.12718887329106 104.89638290405264 -99.45080108642583 108.83593902587882 -98.91058578491197 115.97177124023438 -99.26543502807613 121.2572486877441 -104.18083190917946 121.84342498779301 -111.63137893676753 122.7385375976562 -119.22348327636723 118.28835830688467 -127.23208847045896 113.61676406860352 -126.73930816650386 107.27017288208003 Z"/>

<path id="cube_1_0_Layer0_0_MEMBER_9_1_STROKES" stroke="#221F20" stroke-width="1.9" stroke-linejoin="miter" stroke-linecap="butt" stroke-miterlimit="10" fill="none" d="
M 114.4 75
Q 115.15 73.15 116.5 71.25 118.9 68 121.75 66.6 124.7 65.15 126.3 66.4 127.6 67.35 127.55 69.7 127.45 72 126.05 74.75 127.65 74.95 128.8 75.2 138.3 77.4 140.95 79.15 145.1 81.95 143.65 88.4 141.9 96 136.45 100.6 130.45 105.65 123.1 104 118.5 102.95 115.05 100.25 111.75 97.75 110.15 94.25 109.2 94.75 107.9 94.55 105.8 94.25 105.05 92.05 104.15 89.5 105 84.05 105.85 78.4 107.95 75 109.95 71.7 111.95 72 113.65 72.25 114.4 75 Z"/>

<path id="cube_2_r_arm_0_Layer0_1_1_STROKES" stroke="#221F20" stroke-width="1.9" stroke-linejoin="miter" stroke-linecap="butt" stroke-miterlimit="10" fill="none" d="
M 19.09999999999991 34.450000000000045
Q 10.599999999999909 28.550000000000068 9.399999999999864 22.600000000000023 6.599999999999909 25.300000000000068 4.7999999999999545 24.5 2.7999999999999545 23.65000000000009 3 19.300000000000068 3.199999999999818 14.950000000000045 5.5 9.650000000000091 7.7999999999999545 4.350000000000023 10.799999999999955 1.2000000000000455 13.849999999999909 -1.8999999999999773 15.799999999999955 -1.0499999999999545 17.199999999999818 -0.4499999999999318 17.5 1.900000000000091 20.899999999999864 -0.8999999999999773 27.09999999999991 -1.599999999999909 32.149999999999864 -2.199999999999932 35.899999999999864 -0.9499999999999318 39.649999999999864 0.3000000000000682 39.899999999999864 2.650000000000091 40.09999999999991 4.7000000000000455 37.549999999999955 6.600000000000023 35 8.450000000000045 30.84999999999991 9.350000000000023 34.09999999999991 11.600000000000023 40.549999999999955 14.700000000000045 44.94999999999982 17.65000000000009 43 22.200000000000045 40.049999999999955 29.100000000000023 32.399999999999864 33.450000000000045 24.34999999999991 38.05000000000007 19.09999999999991 34.450000000000045 Z"/>

<path id="cube_2_l_arm_0_Layer0_1_1_STROKES" stroke="#221F20" stroke-width="1.9" stroke-linejoin="miter" stroke-linecap="butt" stroke-miterlimit="10" fill="none" d="
M -10.782595825195358 31.49022369384761
Q -11.404101562500045 29.586718750000045 -12.601049804687591 27.65201416015634 -14.70832214355471 24.233580017089935 -17.435153198242233 22.617210388183594 -20.181848144531273 21.046722412109375 -21.894284057617142 22.15772552490239 -23.24222412109384 23.045159912109284 -23.34971008300795 25.39580230712886 -23.437332153320312 27.700563049316315 -22.242578125000023 30.50601806640634 -23.848138427734398 30.628146362304506 -24.98829956054692 30.788314819335938 -34.448858642578216 32.35863342285165 -37.17532653808587 33.95681610107431 -41.489685058593636 36.50199584960933 -40.53829650878902 42.96129913330083 -39.37279357910177 50.65740509033208 -34.34382934570317 55.61312561035152 -28.853244018554847 60.986619567871 -21.517874145507903 59.74931793212909 -16.87241210937509 59.03640136718741 -13.283267211914222 56.55862579345694 -9.883621215820426 54.271217346191406 -8.038473510742278 50.874974060058776 -7.151181030273506 51.42255096435565 -5.875750732421807 51.32094421386728 -3.7650634765625455 51.145092773437455 -2.8964141845704034 49.015016174316315 -1.823764038085983 46.53740692138672 -2.241632080078034 41.07181701660147 -2.6702239990235057 35.38365936279297 -4.452728271484489 31.833419799804688 -6.184780883789244 28.413984680175872 -8.20528869628913 28.62887725830069 -9.87580261230471 28.777366638183594 -10.782595825195358 31.49022369384761 Z"/>

<path id="tanner_l_arm_0_Layer0_1_1_STROKES" stroke="#221F20" stroke-width="1.95" stroke-linejoin="miter" stroke-linecap="butt" stroke-miterlimit="10" fill="none" d="
M 150.45 0.85
Q 150.35 -7.15 144.85 -12.8 139.2 -18.6 131.45 -18.15 126.85 -17.9 123.55 -14.3 122.65 -13.35 117.2 -5.35 115.1 -9.6 113.4 -10.7 111.3 -12 107.55 -10.7 105.5 -9.95 105.3 -6.4 105.05 -2.85 106.75 1.25 108.55 5.6 111.6 9.25 111 9.65 110.7 10.15 109.6 12 111.8 15.1 114.05 18.15 118.3 20.65 122.55 23.1 126.3 23.5 130.1 23.9 131.2 22 131.7 21.1 131.4 19.85
L 131.45 19.85
Q 139.6 19.7 145.1 14.2 150.6 8.65 150.45 0.85 Z"/>

<path id="cube_4_l_hand_0_Layer0_0_1_STROKES" stroke="#221F20" stroke-width="1.9" stroke-linejoin="miter" stroke-linecap="butt" stroke-miterlimit="10" fill="none" d="
M -13.5 5.3
Q -15 3.95 -16.3 2.05 -18.6 -1.3 -19 -4.5 -19.35 -7.7 -17.65 -8.85 -16.3 -9.75 -14.1 -8.9 -11.95 -8.05 -9.85 -5.8 -9.1 -7.25 -8.5 -8.25 -3.3 -16.45 -0.75 -18.35 3.3 -21.35 8.85 -17.85 15.45 -13.65 18 -6.95 20.75 0.35 16.7 6.7 14.2 10.75 10.5 13.1 7.05 15.35 3.2 15.7 3.35 16.75 2.75 17.9 1.75 19.8 -0.55 19.75 -3.25 19.75 -8.1 17.15 -13.15 14.45 -15.7 11.35 -18.15 8.35 -17.15 6.55 -16.35 5.05 -13.5 5.3 Z"/>

<path id="cube_4_r_arm_0_Layer0_0_1_STROKES" stroke="#221F20" stroke-width="1.9" stroke-linejoin="miter" stroke-linecap="butt" stroke-miterlimit="10" fill="none" d="
M -12.8 4.3
Q -11.25 4.8 -9.65 5.5 -8.1 6.15 -6.7 6.9 -3.45 8.7 -1.2 10.8 1.9 13.85 1.05 15.8 0.45 17.2 -1.9 17.5 0.9 20.9 1.6 27.1 2.2 32.15 0.95 35.9 -0.3 39.65 -2.65 39.9 -4.7 40.1 -6.6 37.55 -8.45 35 -9.35 30.85 -11.6 34.1 -14.7 40.55 -17.65 44.95 -22.2 43 -29.1 40.05 -33.45 32.4 -38.05 24.35 -34.45 19.1 -28.55 10.6 -22.6 9.4 -25.3 6.6 -24.5 4.8 -23.65 2.8 -19.3 3 -16.25 3.15 -12.8 4.3 Z"/>

<path id="cube_3_l_arm_0_Layer0_1_1_STROKES" stroke="#221F20" stroke-width="1.9" stroke-linejoin="miter" stroke-linecap="butt" stroke-miterlimit="10" fill="none" d="
M 1329.85 245.4
Q 1328.35 244.05 1327.05 242.15 1324.75 238.8 1324.35 235.6 1324 232.4 1325.7 231.25 1327.05 230.35 1329.25 231.2 1331.4 232.05 1333.5 234.3 1334.25 232.85 1334.85 231.85 1340.05 223.65 1342.6 221.75 1346.65 218.75 1352.2 222.25 1358.8 226.45 1361.35 233.15 1364.1 240.45 1360.05 246.8 1357.55 250.85 1353.85 253.2 1350.4 255.45 1346.55 255.8 1346.7 256.85 1346.1 258 1345.1 259.9 1342.8 259.85 1340.1 259.85 1335.25 257.25 1330.2 254.55 1327.65 251.45 1325.2 248.45 1326.2 246.65 1327 245.15 1329.85 245.4 Z"/>

<path id="cube_3_r_arm_0_Layer0_0_1_STROKES" stroke="#221F20" stroke-width="1.9" stroke-linejoin="miter" stroke-linecap="butt" stroke-miterlimit="10" fill="none" d="
M -12.975 2.925
Q -12.1541015625 2.5703125 -11.3 2.25 -9.75 1.6 -8.2 1.15 -7.7052734375 1.0037109375 -7.225 0.875 -4.21796875 0.0861328125 -1.55 0 2.8 -0.05 3.55 1.9 4.1 3.35 2.65 5.2 7.05 5.7 11.9 9.55 15.95 12.7 17.7 16.25 19.45 19.8 17.95 21.6 16.65 23.2 13.5 22.75 10.4 22.25 6.8 19.95 7.55 23.8 9.9 30.55 10.95 35.8 6.35 37.6 -0.65 40.4 -9.1 38.05 -18.05 35.6 -19.2 29.35 -21.05 19.2 -17.7 14.15 -21.6 14.05 -22.3 12.25 -23.1 10.25 -19.9 7.25 -17.6 5.25 -14.35 3.6 -13.6740234375 3.250390625 -12.975 2.925 Z"/>
</defs>

<g transform="matrix( 1, 0, 0, 1, -283.25,-866.75) ">
<use xlink:href="#Layer40_0_FILL"/>
</g>

<g transform="matrix( 1, 0, 0, 1, -283.25,-866.75) ">
<use xlink:href="#Layer40_1_FILL"/>
</g>

<g transform="matrix( 1, 0, 0, 1, -283.25,-866.75) ">
<use xlink:href="#Layer40_2_FILL"/>
</g>

<g transform="matrix( 1, 0, 0, 1, -283.25,-866.75) ">
<use xlink:href="#Layer40_3_FILL"/>
</g>

<g transform="matrix( 1, 0, 0, 1, -283.25,-866.75) ">
<use xlink:href="#Layer40_4_FILL"/>
</g>

<g transform="matrix( 1, 0, 0, 1, -283.25,-866.75) ">
<use xlink:href="#Layer40_5_FILL"/>
</g>

<g transform="matrix( 1, 0, 0, 1, -283.25,-866.75) ">
<use xlink:href="#Layer40_6_FILL"/>
</g>

<g transform="matrix( 1, 0, 0, 1, -283.25,-866.75) ">
<use xlink:href="#Layer40_7_FILL"/>
</g>

<g transform="matrix( 1, 0, 0, 1, -283.25,-866.75) ">
<use xlink:href="#Layer40_8_FILL"/>
</g>

<g transform="matrix( 1, 0, 0, 1, -283.25,-866.75) ">
<use xlink:href="#Layer40_9_FILL"/>
</g>

<g transform="matrix( 1, 0, 0, 1, -283.25,-866.75) ">
<use xlink:href="#Layer40_10_FILL"/>
</g>

<g transform="matrix( 1, 0, 0, 1, -283.25,-866.75) ">
<use xlink:href="#Layer40_11_FILL"/>
</g>

<g transform="matrix( 1, 0, 0, 1, -283.25,-866.75) ">
<use xlink:href="#Layer40_12_FILL"/>
</g>

<g transform="matrix( 1, 0, 0, 1, -283.25,-866.75) ">
<use xlink:href="#Layer40_13_FILL"/>
</g>

<g transform="matrix( 1, 0, 0, 1, -283.25,-866.75) ">
<use xlink:href="#Layer40_14_FILL"/>
</g>

<g transform="matrix( 1, 0, 0, 1, -283.25,-866.75) ">
<use xlink:href="#Layer40_15_FILL"/>
</g>

<g transform="matrix( 1, 0, 0, 1, -283.25,-866.75) ">
<use xlink:href="#Layer40_16_FILL"/>
</g>

<g transform="matrix( 1, 0, 0, 1, -283.25,-866.75) ">
<use xlink:href="#Layer40_17_FILL"/>
</g>

<g transform="matrix( 1, 0, 0, 1, -283.25,-866.75) ">
<use xlink:href="#Layer40_18_FILL"/>
</g>

<g transform="matrix( 1, 0, 0, 1, -283.25,-866.75) ">
<use xlink:href="#Layer40_19_FILL"/>
</g>

<mask id="Mask_Mask_1">
<g transform="matrix( 1, 0, 0, 1, 0,0) ">
<use xlink:href="#Mask_39_MASK_0_FILL"/>
</g>
</mask>

<g mask="url(#Mask_Mask_1)">
<g transform="matrix( 1, 0, 0, 1, 507.7,161.25) ">
<g transform="matrix( 1, 0, 0, 1, -649.05,-1096.1) ">
<use xlink:href="#cube_05_layer_0_Layer0_0_MEMBER_0_FILL"/>
</g>

<g transform="matrix( 1, 0, 0, 1, -649.05,-1096.1) ">
<use xlink:href="#cube_05_layer_0_Layer0_0_MEMBER_1_FILL"/>
</g>

<g transform="matrix( 1, 0, 0, 1, -649.05,-1096.1) ">
<use xlink:href="#cube_05_layer_0_Layer0_0_MEMBER_2_FILL"/>
</g>

<g transform="matrix( 1, 0, 0, 1, -649.05,-1096.1) ">
<use xlink:href="#cube_05_layer_0_Layer0_0_MEMBER_3_FILL"/>
</g>

<g transform="matrix( 1, 0, 0, 1, -649.05,-1096.1) ">
<use xlink:href="#cube_05_layer_0_Layer0_0_MEMBER_4_FILL"/>
</g>

<g transform="matrix( 1, 0, 0, 1, -507.7,-161.25) ">
<use xlink:href="#cube_05_layer_0_Layer0_0_MEMBER_5_FILL"/>
</g>

<g transform="matrix( 0.965911865234375, -0.2587890625, 0.2587890625, 0.965911865234375, -899.9,-897.4) ">
<use xlink:href="#cube_05_layer_0_Layer0_0_MEMBER_6_FILL"/>
</g>

<g transform="matrix( 0.9659271240234375, 0.2587890625, -0.2587890625, 0.9659271240234375, -352.35,-1245.45) ">
<use xlink:href="#cube_05_layer_0_Layer0_0_MEMBER_7_FILL"/>
</g>
</g>
</g>

<mask id="Mask_Mask_2">
<g transform="matrix( 1, 0, 0, 1, 0,0) ">
<use xlink:href="#Mask_36_MASK_0_FILL"/>
</g>
</mask>

<g mask="url(#Mask_Mask_2)">
<g transform="matrix( 1, 0, 0, 1, 763.05,161.25) ">
<g transform="matrix( 1, 0, 0, 1, -649.05,-1096.1) ">
<use xlink:href="#cube_06_0_Layer0_0_MEMBER_0_FILL"/>
</g>

<g transform="matrix( 1, 0, 0, 1, -649.05,-1096.1) ">
<use xlink:href="#cube_06_0_Layer0_0_MEMBER_1_FILL"/>
</g>

<g transform="matrix( 1, 0, 0, 1, -649.05,-1096.1) ">
<use xlink:href="#cube_06_0_Layer0_0_MEMBER_2_FILL"/>
</g>

<g transform="matrix( 1, 0, 0, 1, -649.05,-1096.1) ">
<use xlink:href="#cube_06_0_Layer0_0_MEMBER_3_FILL"/>
</g>

<g transform="matrix( 1, 0, 0, 1, -649.05,-1096.1) ">
<use xlink:href="#cube_06_0_Layer0_0_MEMBER_4_FILL"/>
</g>

<g transform="matrix( 1, 0, 0, 1, -763.05,-161.25) ">
<use xlink:href="#cube_06_0_Layer0_0_MEMBER_5_FILL"/>
</g>

<g transform="matrix( 1, 0, 0, 1, -649.05,-1096.1) ">
<use xlink:href="#cube_06_0_Layer0_0_MEMBER_6_FILL"/>
</g>

<g transform="matrix( 1, 0, 0, 1, -649.05,-1096.1) ">
<use xlink:href="#cube_06_0_Layer0_0_MEMBER_7_FILL"/>
</g>
</g>
</g>

<mask id="Mask_Mask_3">
<g transform="matrix( 1, 0, 0, 1, 0,0) ">
<use xlink:href="#Mask_33_MASK_0_FILL"/>
</g>
</mask>

<g mask="url(#Mask_Mask_3)">
<g transform="matrix( 1, 0, 0, 1, 1025.5,133.2) ">
<g transform="matrix( 1, 0, 0, 1, -633.1,-1068.05) ">
<use xlink:href="#cube_07_0_Layer0_0_MEMBER_0_FILL"/>
</g>

<g transform="matrix( 1, 0, 0, 1, -633.1,-1068.05) ">
<use xlink:href="#cube_07_0_Layer0_0_MEMBER_1_FILL"/>
</g>

<g transform="matrix( 1, 0, 0, 1, -633.1,-1068.05) ">
<use xlink:href="#cube_07_0_Layer0_0_MEMBER_2_FILL"/>
</g>

<g transform="matrix( 1, 0, 0, 1, -633.1,-1068.05) ">
<use xlink:href="#cube_07_0_Layer0_0_MEMBER_3_FILL"/>
</g>

<g transform="matrix( 1, 0, 0, 1, -633.1,-1068.05) ">
<use xlink:href="#cube_07_0_Layer0_0_MEMBER_4_FILL"/>
</g>

<g transform="matrix( 1, 0, 0, 1, -633.1,-1068.05) ">
<use xlink:href="#cube_07_0_Layer0_0_MEMBER_5_FILL"/>
</g>

<g transform="matrix( 1, 0, 0, 1, -633.1,-1068.05) ">
<use xlink:href="#cube_07_0_Layer0_0_MEMBER_6_FILL"/>
</g>

<g transform="matrix( 1, 0, 0, 1, -633.1,-1068.05) ">
<use xlink:href="#cube_07_0_Layer0_0_MEMBER_7_FILL"/>
</g>

<g transform="matrix( 1, 0, 0, 1, -633.1,-1068.05) ">
<use xlink:href="#cube_07_0_Layer0_1_MEMBER_0_MEMBER_0_FILL"/>
</g>

<g transform="matrix( 1, 0, 0, 1, -633.1,-1068.05) ">
<use xlink:href="#cube_07_0_Layer0_1_MEMBER_0_MEMBER_1_FILL"/>
</g>

<g transform="matrix( 1, 0, 0, 1, -633.1,-1068.05) ">
<use xlink:href="#cube_07_0_Layer0_1_MEMBER_0_MEMBER_2_FILL"/>
</g>

<g transform="matrix( 1, 0, 0, 1, -633.1,-1068.05) ">
<use xlink:href="#cube_07_0_Layer0_1_MEMBER_0_MEMBER_3_FILL"/>
</g>
</g>
</g>

<mask id="Mask_Mask_4">
<g transform="matrix( 1, 0, 0, 1, 0,0) ">
<use xlink:href="#Mask_30_MASK_0_FILL"/>
</g>
</mask>

<g mask="url(#Mask_Mask_4)">
<g transform="matrix( 1, 0, 0, 1, 1333.95,169.45) ">
<g transform="matrix( 1, 0, 0, 1, -649.05,-1096.1) ">
<use xlink:href="#cube_8_0_Layer0_0_MEMBER_0_FILL"/>
</g>

<g transform="matrix( 1, 0, 0, 1, -649.05,-1096.1) ">
<use xlink:href="#cube_8_0_Layer0_0_MEMBER_1_FILL"/>
</g>

<g transform="matrix( 1, 0, 0, 1, -649.05,-1096.1) ">
<use xlink:href="#cube_8_0_Layer0_0_MEMBER_2_FILL"/>
</g>

<g transform="matrix( 1, 0, 0, 1, -649.05,-1096.1) ">
<use xlink:href="#cube_8_0_Layer0_0_MEMBER_3_FILL"/>
</g>

<g transform="matrix( 1, 0, 0, 1, -1333.95,-169.45) ">
<use xlink:href="#cube_8_0_Layer0_0_MEMBER_4_FILL"/>
</g>

<g transform="matrix( 1, 0, 0, 1, -649.05,-1096.1) ">
<use xlink:href="#cube_8_0_Layer0_0_MEMBER_5_FILL"/>
</g>

<g transform="matrix( 1, 0, 0, 1, -649.05,-1096.1) ">
<use xlink:href="#cube_8_0_Layer0_0_MEMBER_6_FILL"/>
</g>

<g transform="matrix( 1, 0, 0, 1, -649.05,-1096.1) ">
<use xlink:href="#cube_8_0_Layer0_0_MEMBER_7_FILL"/>
</g>
</g>
</g>

<mask id="Mask_Mask_5">
<g transform="matrix( 1, 0, 0, 1, 0,0) ">
<use xlink:href="#Mask_27_MASK_0_FILL"/>
</g>
</mask>

<g mask="url(#Mask_Mask_5)">
<g transform="matrix( 1, 0, 0, 1, 1623.45,150.65) ">
<g transform="matrix( 1, 0, 0, 1, 0,0) ">
<use xlink:href="#cube_9_0_Layer0_0_MEMBER_0_FILL"/>
</g>

<g transform="matrix( 1, 0, 0, 1, -674.15,-1068.05) ">
<use xlink:href="#cube_9_0_Layer0_0_MEMBER_1_FILL"/>
</g>

<g transform="matrix( 1, 0, 0, 1, -674.15,-1068.05) ">
<use xlink:href="#cube_9_0_Layer0_0_MEMBER_2_FILL"/>
</g>

<g transform="matrix( 1, 0, 0, 1, -674.15,-1068.05) ">
<use xlink:href="#cube_9_0_Layer0_0_MEMBER_3_FILL"/>
</g>

<g transform="matrix( 1, 0, 0, 1, -674.15,-1068.05) ">
<use xlink:href="#cube_9_0_Layer0_0_MEMBER_4_FILL"/>
</g>

<g transform="matrix( 1, 0, 0, 1, -674.15,-1068.05) ">
<use xlink:href="#cube_9_0_Layer0_0_MEMBER_5_FILL"/>
</g>

<g transform="matrix( 0.1270751953125, 0.9918670654296875, -0.9918670654296875, 0.1270751953125, 1080.45,-837.7) ">
<use xlink:href="#cube_9_0_Layer0_0_MEMBER_6_FILL"/>

<use xlink:href="#cube_9_0_Layer0_0_MEMBER_6_1_STROKES" transform="matrix( 0.1270751953125, -0.991912841796875, 0.991912841796875, 0.1270751953125, 693.6,1178.15) "/>
</g>

<g transform="matrix( 1, 0, 0, 1, -674.15,-1068.05) ">
<use xlink:href="#cube_9_0_Layer0_0_MEMBER_7_FILL"/>
</g>

<g transform="matrix( 1, 0, 0, 1, -674.15,-1068.05) ">
<use xlink:href="#cube_9_0_Layer0_0_MEMBER_8_FILL"/>
</g>

<g transform="matrix( 1, 0, 0, 1, -674.15,-1068.05) ">
<use xlink:href="#cube_9_0_Layer0_1_MEMBER_0_MEMBER_0_FILL"/>
</g>

<g transform="matrix( 1, 0, 0, 1, -674.15,-1068.05) ">
<use xlink:href="#cube_9_0_Layer0_1_MEMBER_0_MEMBER_1_FILL"/>
</g>

<g transform="matrix( 1, 0, 0, 1, -674.15,-1068.05) ">
<use xlink:href="#cube_9_0_Layer0_1_MEMBER_0_MEMBER_2_FILL"/>
</g>

<g transform="matrix( 1, 0, 0, 1, -674.15,-1068.05) ">
<use xlink:href="#cube_9_0_Layer0_1_MEMBER_0_MEMBER_3_FILL"/>
</g>
</g>
</g>

<g mask="url(#Mask_Mask_5)">
<g transform="matrix( 2.25, 0, 0, 1.91302490234375, 1621.5,183) ">
<g transform="matrix( 1, 0, 0, 1, -672.2,-1100.45) ">
<use xlink:href="#cube_9_mouth_0_Layer0_0_FILL"/>
</g>
</g>
</g>

<mask id="Mask_Mask_6">
<g transform="matrix( 1, 0, 0, 1, 0,0) ">
<use xlink:href="#Mask_23_MASK_0_FILL"/>
</g>
</mask>

<g mask="url(#Mask_Mask_6)">
<g transform="matrix( 1, 0, 0, 1, 340.3,229.75) ">
<g transform="matrix( 0.33392333984375, 0.94256591796875, -0.94256591796875, 0.33392333984375, 880.15,-1023.45) ">
<use xlink:href="#cube_1_0_Layer0_0_MEMBER_0_FILL"/>
</g>

<g transform="matrix( 1, 0, 0, 1, -273.1,-364.4) ">
<use xlink:href="#cube_1_0_Layer0_0_MEMBER_1_FILL"/>
</g>

<g transform="matrix( 1, 0, 0, 1, -664.2,-1074.9) ">
<use xlink:href="#cube_1_0_Layer0_0_MEMBER_2_FILL"/>
</g>

<g transform="matrix( 1, 0, 0, 1, -664.2,-1074.9) ">
<use xlink:href="#cube_1_0_Layer0_0_MEMBER_3_FILL"/>
</g>

<g transform="matrix( 1, 0, 0, 1, -664.2,-1074.9) ">
<use xlink:href="#cube_1_0_Layer0_0_MEMBER_4_FILL"/>
</g>

<g transform="matrix( 1, 0, 0, 1, -664.2,-1074.9) ">
<use xlink:href="#cube_1_0_Layer0_0_MEMBER_5_FILL"/>
</g>

<g transform="matrix( 0.86602783203125, -0.4999847412109375, 0.4999847412109375, 0.86602783203125, -1146.3,-652.2) ">
<use xlink:href="#cube_1_0_Layer0_0_MEMBER_6_FILL"/>
</g>

<g transform="matrix( 0.86602783203125, -0.4999847412109375, 0.4999847412109375, 0.86602783203125, -1146.3,-652.2) ">
<use xlink:href="#cube_1_0_Layer0_0_MEMBER_7_FILL"/>

<use xlink:href="#cube_1_0_Layer0_0_MEMBER_7_1_STROKES" transform="matrix( 0.86602783203125, 0.4999847412109375, -0.4999847412109375, 0.86602783203125, 666.6,1137.95) "/>
</g>

<g transform="matrix( 1, 0, 0, 1, 8.2,21.1) ">
<g transform="matrix( 1, 0, 0, 1, 0,0) ">
<use xlink:href="#cube_1_mouth_0_Layer0_0_FILL"/>
</g>
</g>

<g transform="matrix( 1, 0, 0, 1, 3.5,15.5) ">
<use xlink:href="#cube_1_0_Layer0_0_MEMBER_9_FILL"/>

<use xlink:href="#cube_1_0_Layer0_0_MEMBER_9_1_STROKES"/>
</g>

<g transform="matrix( 1, 0, 0, 1, -664.2,-1074.9) ">
<use xlink:href="#cube_1_0_Layer0_0_MEMBER_10_FILL"/>
</g>

<g transform="matrix( 1, 0, 0, 1, -664.2,-1074.9) ">
<use xlink:href="#cube_1_0_Layer0_0_MEMBER_11_FILL"/>
</g>

<g transform="matrix( 1, 0, 0, 1, -664.2,-1074.9) ">
<use xlink:href="#cube_1_0_Layer0_1_MEMBER_0_MEMBER_0_FILL"/>
</g>

<g transform="matrix( 1, 0, 0, 1, -664.2,-1074.9) ">
<use xlink:href="#cube_1_0_Layer0_1_MEMBER_0_MEMBER_1_FILL"/>
</g>

<g transform="matrix( 1, 0, 0, 1, -664.2,-1074.9) ">
<use xlink:href="#cube_1_0_Layer0_1_MEMBER_0_MEMBER_2_FILL"/>
</g>

<g transform="matrix( 1, 0, 0, 1, -664.2,-1074.9) ">
<use xlink:href="#cube_1_0_Layer0_1_MEMBER_0_MEMBER_3_FILL"/>
</g>
</g>
</g>

<mask id="Mask_Mask_7">
<g transform="matrix( 1, 0, 0, 1, 0,0) ">
<use xlink:href="#Mask_20_MASK_0_FILL"/>
</g>
</mask>

<g mask="url(#Mask_Mask_7)">
<g transform="matrix( 1, 0, 0, 1, 1451.8,250.95) ">
<g transform="matrix( 1, 0, 0, 1, -649.05,-1096.1) ">
<use xlink:href="#cube_2_0_Layer0_0_MEMBER_0_FILL"/>
</g>

<g transform="matrix( 1, 0, 0, 1, -649.05,-1096.1) ">
<use xlink:href="#cube_2_0_Layer0_0_MEMBER_1_FILL"/>
</g>

<g transform="matrix( 1, 0, 0, 1, -649.05,-1096.1) ">
<use xlink:href="#cube_2_0_Layer0_0_MEMBER_2_FILL"/>
</g>

<g transform="matrix( 1, 0, 0, 1, -649.05,-1096.1) ">
<use xlink:href="#cube_2_0_Layer0_0_MEMBER_3_FILL"/>
</g>

<g transform="matrix( 1, 0, 0, 1, -649.05,-1096.1) ">
<use xlink:href="#cube_2_0_Layer0_0_MEMBER_4_FILL"/>
</g>
</g>
</g>

<g mask="url(#Mask_Mask_7)">
<g transform="matrix( 1, 0, 0, 1, 1475.1,252.15) ">
<g transform="matrix( 1, 0, 0, 1, 0,6.8) ">
<g transform="matrix( 1, 0, 0, 1, 0,0) ">
<use xlink:href="#cube_2_mouth_0_Layer0_0_FILL"/>
</g>
</g>
</g>
</g>

<g mask="url(#Mask_Mask_7)">
<g transform="matrix( 1, 0, 0, 1, 1475.85,193.7) ">
<g transform="matrix( 1, 0, 0, 1, -672.3,-1033.1) ">
<use xlink:href="#cube_2_brrow_0_Layer0_0_FILL"/>
</g>

<g transform="matrix( 1, 0, 0, 1, -672.3,-1033.1) ">
<use xlink:href="#cube_2_brrow_0_Layer0_1_FILL"/>
</g>
</g>
</g>

<g mask="url(#Mask_Mask_7)">
<g transform="matrix( 0.605438232421875, 0.793914794921875, -0.793914794921875, 0.605438232421875, 1374.35,314.85) ">
<g transform="matrix( 0, -1, 1, 0, -1148.4,537.7) ">
<use xlink:href="#cube_2_r_arm_0_Layer0_0_FILL"/>
</g>

<g transform="matrix( 0, -1, 1, 0, -1148.4,537.7) ">
<use xlink:href="#cube_2_r_arm_0_Layer0_1_FILL"/>

<use xlink:href="#cube_2_r_arm_0_Layer0_1_1_STROKES" transform="matrix( 0, 1, -1, 0, 537.7,1148.4) "/>
</g>
</g>
</g>

<mask id="Mask_Mask_8">
<g transform="matrix( 1, 0, 0, 0.6316375732421875, 0,103.5) ">
<use xlink:href="#Mask_15_MASK_0_FILL"/>
</g>
</mask>

<g mask="url(#Mask_Mask_8)">
<g transform="matrix( 1, 0, 0, 1, 1529.05,256.85) ">
<g transform="matrix( -0.39727783203125, 0.917633056640625, 0.90179443359375, 0.390411376953125, -678.2,-1124.25) ">
<use xlink:href="#cube_2_l_arm_0_Layer0_0_FILL"/>
</g>

<g transform="matrix( -0.39727783203125, 0.917633056640625, 0.90179443359375, 0.390411376953125, -678.2,-1124.25) ">
<use xlink:href="#cube_2_l_arm_0_Layer0_1_FILL"/>

<use xlink:href="#cube_2_l_arm_0_Layer0_1_1_STROKES" transform="matrix( -0.397308349609375, 0.9338531494140625, 0.9177398681640625, 0.404296875, 762.3,1087.85) "/>
</g>
</g>
</g>

<mask id="Mask_Mask_9">
<g transform="matrix( 1, 0, 0, 1, 0,0) ">
<use xlink:href="#Mask_12_MASK_0_FILL"/>
</g>
</mask>

<g mask="url(#Mask_Mask_9)">
<g transform="matrix( 1, 0, 0, 1, 756.1,190.4) ">
<g transform="matrix( 1, 0, 0, 1, -1058.45,-1068.35) ">
<use xlink:href="#tanner_l_arm_0_Layer0_0_FILL"/>
</g>

<g transform="matrix( 1, 0, 0, 1, -104.95,-18.45) ">
<use xlink:href="#tanner_l_arm_0_Layer0_1_FILL"/>

<use xlink:href="#tanner_l_arm_0_Layer0_1_1_STROKES"/>
</g>
</g>
</g>

<g mask="url(#Mask_Mask_9)">
<g transform="matrix( 1, 0, 0, 1, 656.5,184.1) ">
<g transform="matrix( 1, 0, 0, 1, -953.5,-1049.9) ">
<use xlink:href="#tanner_0_Layer0_0_MEMBER_0_MEMBER_0_FILL"/>
</g>

<g transform="matrix( 1, 0, 0, 1, -953.5,-1049.9) ">
<use xlink:href="#tanner_0_Layer0_0_MEMBER_0_MEMBER_1_FILL"/>
</g>

<g transform="matrix( 1, 0, 0, 1, -953.5,-1049.9) ">
<use xlink:href="#tanner_0_Layer0_0_MEMBER_0_MEMBER_2_FILL"/>
</g>

<g transform="matrix( 1, 0, 0, 1, -953.5,-1049.9) ">
<use xlink:href="#tanner_0_Layer0_0_MEMBER_0_MEMBER_3_FILL"/>
</g>

<g transform="matrix( 1, 0, 0, 1, -953.5,-1049.9) ">
<use xlink:href="#tanner_0_Layer0_0_MEMBER_0_MEMBER_4_FILL"/>
</g>

<g transform="matrix( 1, 0, 0, 1, -953.5,-1049.9) ">
<use xlink:href="#tanner_0_Layer0_0_MEMBER_0_MEMBER_5_FILL"/>
</g>

<g transform="matrix( 1, 0, 0, 1, -7.3,56.2) ">
<g transform="matrix( 1, 0, 0, 1, 0,0) ">
<use xlink:href="#tanner_mouth_0_Layer0_0_FILL"/>
</g>
</g>

<g transform="matrix( 1, 0, 0, 1, -953.5,-1049.9) ">
<use xlink:href="#tanner_0_Layer0_0_MEMBER_0_MEMBER_7_FILL"/>
</g>

<g transform="matrix( 1, 0, 0, 1, -953.5,-1050.65) ">
<use xlink:href="#tanner_0_Layer0_0_MEMBER_1_MEMBER_0_FILL"/>
</g>

<g transform="matrix( 1, 0, 0, 1, -953.5,-1050.65) ">
<use xlink:href="#tanner_0_Layer0_0_MEMBER_1_MEMBER_1_FILL"/>
</g>

<g transform="matrix( 1, 0, 0, 1, -953.5,-1050.65) ">
<use xlink:href="#tanner_0_Layer0_0_MEMBER_1_MEMBER_2_FILL"/>
</g>

<g transform="matrix( 1, 0, 0, 1, -953.5,-1050.65) ">
<use xlink:href="#tanner_0_Layer0_0_MEMBER_1_MEMBER_3_FILL"/>
</g>
</g>
</g>

<mask id="Mask_Mask_10">
<g transform="matrix( 1, 0, 0, 1, 0,0) ">
<use xlink:href="#Mask_8_MASK_0_FILL"/>
</g>
</mask>

<g mask="url(#Mask_Mask_10)">
<g transform="matrix( 1, 0, 0, 1, 1004.15,246.45) ">
<g transform="matrix( 1, 0, 0, 1, 0,0) ">
<use xlink:href="#cube_4_l_arm_0_Layer0_0_FILL"/>
</g>

<g transform="matrix( 1, 0, 0, 1, 61,-23) ">
<g transform="matrix( 1, 0, 0, 1, 0,0) ">
<use xlink:href="#cube_4_l_hand_0_Layer0_0_FILL"/>

<use xlink:href="#cube_4_l_hand_0_Layer0_0_1_STROKES"/>
</g>
</g>
</g>
</g>

<g mask="url(#Mask_Mask_10)">
<g transform="matrix( 1, 0, 0, 1, 918.8,232.5) ">
<g transform="matrix( 1, 0, 0, 1, 0,0) ">
<use xlink:href="#cube_04_0_Layer0_0_MEMBER_0_FILL"/>
</g>

<g transform="matrix( 1, 0, 0, 1, -664.85,-1100.5) ">
<use xlink:href="#cube_04_0_Layer0_0_MEMBER_1_FILL"/>
</g>

<g transform="matrix( 1, 0, 0, 1, -664.85,-1100.5) ">
<use xlink:href="#cube_04_0_Layer0_0_MEMBER_2_FILL"/>
</g>

<g transform="matrix( 1, 0, 0, 1, -664.85,-1100.5) ">
<use xlink:href="#cube_04_0_Layer0_0_MEMBER_3_FILL"/>
</g>

<g transform="matrix( 1, 0, 0, 1, 0,0) ">
<use xlink:href="#cube_04_0_Layer0_0_MEMBER_4_FILL"/>
</g>

<g transform="matrix( 1, 0, 0, 1, 0,0) ">
<use xlink:href="#cube_04_0_Layer0_0_MEMBER_5_FILL"/>
</g>

<g transform="matrix( 0.9659271240234375, 0.2587890625, -0.2587890625, 0.9659271240234375, -373.1,-1249.85) ">
<use xlink:href="#cube_04_0_Layer0_0_MEMBER_6_FILL"/>
</g>
</g>
</g>

<g mask="url(#Mask_Mask_10)">
<g transform="matrix( 0.9170989990234375, -0.395660400390625, 0.395660400390625, 0.9170989990234375, 800.95,287.6) ">
<g transform="matrix( 1, 0, 0, 1, 0,0) ">
<use xlink:href="#cube_4_r_arm_0_Layer0_0_FILL"/>

<use xlink:href="#cube_4_r_arm_0_Layer0_0_1_STROKES"/>
</g>
</g>
</g>

<g transform="matrix( 1, 0, 0, 1, 925.45,229.9) ">
<g transform="matrix( 1, 0, 0, 1, 0,0) ">
<use xlink:href="#cube_4_mouth_0_Layer0_0_FILL"/>
</g>
</g>

<mask id="Mask_Mask_11">
<g transform="matrix( 1, 0, 0, 1, 0,0) ">
<use xlink:href="#Mask_2_MASK_0_FILL"/>
</g>
</mask>

<g mask="url(#Mask_Mask_11)">
<g transform="matrix( 0.9999847412109375, 0, 0, 0.9951019287109375, 1212.55,228.25) ">
<g transform="matrix( 0.5544891357421875, 0.83135986328125, -0.83135986328125, 0.5544891357421875, 100.6,47.5) ">
<g transform="matrix( 1, 0, 0, 1, -1295,-249.35) ">
<use xlink:href="#cube_3_l_arm_0_Layer0_0_FILL"/>
</g>

<g transform="matrix( 1, 0, 0, 1, -1295,-249.35) ">
<use xlink:href="#cube_3_l_arm_0_Layer0_1_FILL"/>

<use xlink:href="#cube_3_l_arm_0_Layer0_1_1_STROKES"/>
</g>
</g>

<g transform="matrix( 1, 0, 0, 1, -1212.5,-227.45) ">
<use xlink:href="#cube_3_all_0_Layer0_1_MEMBER_0_FILL"/>
</g>

<g transform="matrix( 1, 0, 0, 1, -678.15,-1072.6) ">
<use xlink:href="#cube_3_all_0_Layer0_1_MEMBER_1_FILL"/>
</g>

<g transform="matrix( 1, 0, 0, 1, -678.15,-1072.6) ">
<use xlink:href="#cube_3_all_0_Layer0_1_MEMBER_2_FILL"/>
</g>

<g transform="matrix( 1, 0, 0, 1, -678.15,-1072.6) ">
<use xlink:href="#cube_3_all_0_Layer0_1_MEMBER_3_FILL"/>
</g>

<g transform="matrix( 0.865509033203125, -0.498016357421875, 0.498016357421875, 0.865509033203125, -120.85,72.4) ">
<g transform="matrix( 1, 0, 0, 1, 0,0) ">
<use xlink:href="#cube_3_r_arm_0_Layer0_0_FILL"/>

<use xlink:href="#cube_3_r_arm_0_Layer0_0_1_STROKES"/>
</g>
</g>

<g transform="matrix( 1, 0, 0, 1, 3.8,-10.4) ">
<g transform="matrix( 1, 0, 0, 1, 0,0) ">
<use xlink:href="#cube_3_eyes_0_Layer0_0_FILL"/>
</g>

<g transform="matrix( 1, 0, 0, 1, 0,0) ">
<use xlink:href="#cube_3_eyes_0_Layer0_1_FILL"/>
</g>
</g>

<g transform="matrix( 1, 0, 0, 1, 2.15,-32) ">
<g transform="matrix( 1, 0, 0, 1, -672.3,-1033.1) ">
<use xlink:href="#cube_3_brrow_0_Layer0_0_FILL"/>
</g>

<g transform="matrix( 1, 0, 0, 1, -672.3,-1033.1) ">
<use xlink:href="#cube_3_brrow_0_Layer0_1_FILL"/>
</g>
</g>

<g transform="matrix( 1, 0, 0, 1, -89.35,-68.25) ">
<g transform="matrix( 1, 0, 0, 1, -588.8,-1004.35) ">
<use xlink:href="#cube_3_hat_0_Layer0_0_MEMBER_0_FILL"/>
</g>

<g transform="matrix( 1, 0, 0, 1, -588.8,-1004.35) ">
<use xlink:href="#cube_3_hat_0_Layer0_0_MEMBER_1_FILL"/>
</g>

<g transform="matrix( 1, 0, 0, 1, -588.8,-1004.35) ">
<use xlink:href="#cube_3_hat_0_Layer0_0_MEMBER_2_FILL"/>
</g>

<g transform="matrix( 1, 0, 0, 1, -588.8,-1004.35) ">
<use xlink:href="#cube_3_hat_0_Layer0_0_MEMBER_3_FILL"/>
</g>
</g>
</g>
</g>
</svg>
