<?xml version="1.0" encoding="UTF-8" standalone="no"?>
<svg
   xmlns:dc="http://purl.org/dc/elements/1.1/"
   xmlns:cc="http://creativecommons.org/ns#"
   xmlns:rdf="http://www.w3.org/1999/02/22-rdf-syntax-ns#"
   xmlns:svg="http://www.w3.org/2000/svg"
   xmlns="http://www.w3.org/2000/svg"
   version="1.1"
   id="svg3270"
   viewBox="0 0 3494.0001 1718"
   width="986.08447mm"
   height="484.85779mm">
  <defs
     id="defs3276">
    <style
       id="style3282">.cls-1{fill:#795ea4;}.cls-2{fill:#866fac;}.cls-3{fill:#5b5193;}.cls-4{fill:#453f7f;}</style>
  </defs>
  <metadata
     id="metadata3272">
    <rdf:RDF>
      <cc:Work
         rdf:about="">
        <dc:format>image/svg+xml</dc:format>
        <dc:type
           rdf:resource="http://purl.org/dc/dcmitype/StillImage" />
        <dc:title></dc:title>
      </cc:Work>
    </rdf:RDF>
  </metadata>
  <g
     id="Layer_2"
     data-name="Layer 2">
    <g
       id="Layer_2-2"
       data-name="Layer 2">
      <rect
         style="fill:#795ea4"
         y="0"
         x="0"
         class="cls-1"
         width="3494"
         height="1718"
         id="rect3288" />
      <path
         style="fill:#866fac"
         class="cls-2"
         d="m 2978.07,404 c -49.59,-77.28 7.33,-140.77 76.4,-154.49 9,-38.52 -21.95,-100.39 -87.62,-174.07 L 3006.61,46 c 66.51,57.6 100.72,124.79 107,202.85 40.28,9.56 72.08,28.4 88.18,60.93 15.71,31.76 11.39,62.95 -10.95,94.25 47.92,0 93.4,0 138.88,0 30.76,0 39.21,6.78 39.22,31.43 q 0,70.07 0,140.14 c 0,27.11 -3.68,30.56 -37.32,35.08 -3.45,0.46 -6.82,1.3 -12,2.31 0,5.75 0,11.43 0,17.11 q 0,148.08 0,296.17 c 0,24.56 -8.84,31.8 -39.14,31.8 q -491.56,0 -983.11,0 c -31.55,0 -39.52,-6.66 -39.53,-32.72 0,-99.69 -0.18,-199.37 0.24,-299.06 0,-10.7 -1.29,-17 -17.39,-17.24 -14.51,-0.21 -22.54,-8.93 -22.62,-20.32 -0.39,-54.41 -0.46,-108.83 0.19,-163.24 0.16,-13.21 11.26,-20.67 27.71,-21.4 5.33,-0.24 10.68,-0.06 16,-0.06 l 716,0 z m -664.23,508.19 948.54,0 0,-208 -948.54,0 z m 999.07,-461.83 -1040.29,0 0,114.59 c 17.62,8.29 33.6,15.44 49.11,23.2 23.15,11.59 45.56,11.25 68.21,-1 55.27,-29.81 94.44,-29.72 149.32,0 23.46,12.7 46.31,13.3 69.48,-0.12 50.16,-29 99.63,-29 149.68,0 23.55,13.62 47.25,12.47 71,-0.54 53.07,-29 93.65,-28.72 147.82,0.6 23.59,12.77 45.41,12.41 69.65,0.29 14,-7 28.42,-14.58 44,-18.19 35.47,-8.22 68.93,-2.94 99.66,14.45 31.32,17.73 49.88,17.19 81.32,0.54 10.33,-5.48 22.08,-9.17 32.63,-14.42 3.67,-1.83 8,-5.86 8.06,-8.92 0.55,-36.51 0.35,-73.02 0.35,-110.48 z m -50,188 c -36.11,5 -68.49,2.54 -98.32,-14.41 -33.91,-19.27 -51.24,-18.73 -85.67,-0.15 -43.16,23.3 -90.68,23.34 -133.22,0.13 -34.45,-18.8 -51.28,-18.83 -85.74,-0.19 -43.31,23.43 -89.89,23.51 -133.14,0.22 -34.81,-18.74 -51.61,-18.81 -85.81,-0.36 -44,23.74 -91.42,23.65 -134.68,-0.26 -32.38,-17.89 -50.74,-18.27 -82.64,-0.44 -23.36,13.06 -48.63,19.66 -77,17.61 -10.85,-0.79 -21.64,-2.19 -32.35,-3.3 l 0,20.69 948.56,0 z M 3083.73,404 c 39,0.3 71.33,-24.47 72.05,-55.24 0.71,-30.49 -31.16,-56.92 -69.54,-57.65 -38.16,-0.73 -72.81,26.53 -72.52,57 0.28,29.77 32.69,55.62 70.01,55.89 z"
         id="path3290" />
      <path
         style="fill:#866fac"
         class="cls-2"
         d="m 496.75,70 c 24.66,2.79 53.57,5.12 82.15,9.58 23.8,3.71 29,15.21 19.32,37.15 -54.45,123.77 12.33,264.76 142.78,300.6 51.46,14.13 102.06,10.34 151.21,-10.77 22.79,-9.79 33.62,-4.27 38.3,19.69 C 976.68,662.68 822.38,892.8 585.46,940.88 360.79,986.47 138.62,861 67.55,648.43 -9.82,417 119.9,165.95 355.22,92.44 a 489.05,489.05 0 0 1 68.38,-16 c 22.65,-3.6 45.78,-4.16 73.15,-6.44 z M 365.58,217.14 c -29.53,-5.62 -53.39,-0.09 -64.89,31.39 -13.52,37 -40.58,59.82 -76.31,75.09 -30.68,13.11 -34.51,21.85 -30.73,54.95 3.92,34.27 -2.21,65.17 -23.28,93.8 -26.61,36.15 -26.42,40.36 -0.24,76.53 19.11,26.4 26.7,54.52 24.21,86.82 -3.56,46.28 -3.18,47.18 39.66,66.81 30.09,13.78 50.83,34.91 64.37,64.91 16.91,37.5 22.93,40.27 63.73,37.36 1.38,-0.1 2.77,-0.08 4.14,-0.27 30.67,-4.27 59.43,1.55 83.24,21.32 29.17,24.22 55.9,24.31 85.12,0.06 24.25,-20.12 53.51,-25.67 84.65,-21.37 4.54,0.63 9.25,0.12 13.78,0.81 23.51,3.58 39.53,-6 47.83,-27.86 15.19,-40 43.23,-66.53 83,-81.32 1.71,-0.64 3.26,-1.72 4.94,-2.47 17.34,-7.72 26.06,-21.45 22.74,-39.83 -8.19,-45.33 3.8,-84.35 32.48,-119.6 10.66,-13.1 12,-27.76 2.64,-43.57 -8.95,-15.12 -17.71,-28 -38.26,-23.2 -3.46,0.81 -7.35,0 -11,-0.33 C 638.68,453 539.35,345.77 535.19,205.92 c -0.11,-3.83 -0.76,-8.71 -3.14,-11.24 -19.94,-21.25 -43.31,-23.82 -68.08,-8.08 -3.5,2.22 -7,4.45 -10.33,6.92 -26.33,19.48 -55.36,28.68 -88.06,23.62 z m 494,245.24 c 20.27,30.75 23.09,61.35 3.37,90.82 -36.8,55 -30.37,42.17 -28.5,105.11 1,32.45 -13.19,55.94 -41.46,70.7 -52.67,27.5 -48.82,17.2 -78.76,77.14 -14.24,28.51 -39.18,44 -71,41.08 -64.69,-5.88 -68.89,2.07 -109.53,29 -26.87,17.79 -55.72,16.68 -83.54,0.06 -9.09,-5.43 -18.2,-10.88 -26.79,-17 -15.79,-11.32 -32.91,-15.34 -52.22,-13"
         id="path3292" />
      <path
         style="fill:#866fac"
         class="cls-2"
         d="m 493,387.4 c 70.79,0.59 125.24,55.42 124.68,125.54 -0.55,68 -57.36,121.93 -127.76,121.28 C 421.49,633.58 365.47,577.3 366.17,509.88 366.83,441.5 423.45,386.82 493,387.4 Z m 81.47,123 c -0.22,-44.66 -37.19,-81 -82.37,-81 -45.64,0 -82.87,37.3 -82.37,82.46 0.49,44.17 38.6,81.06 83.17,80.49 44.89,-0.54 81.75,-37.59 81.53,-81.95 z"
         id="path3294" />
      <path
         style="fill:#866fac"
         class="cls-2"
         d="m 1594.48,871.89 c -71.72,0 -143.45,-0.56 -215.17,0.2 -48,0.51 -79.4,-31.4 -83.87,-74 -7,-67 -17.48,-133.67 -27.1,-200.39 -0.67,-4.64 -5.67,-9.65 -9.95,-12.61 -45.57,-31.56 -70.32,-74.33 -70.49,-130.22 -0.2,-64.2 40.29,-121.06 101,-144.13 a 44.35,44.35 0 0 0 19.49,-15.65 c 46.51,-68 108.69,-114.39 187.75,-137.5 11.79,-3.45 17.37,-7.77 19.1,-21 4.88,-37.1 36.21,-64.42 73.83,-66.94 a 80.78,80.78 0 0 1 82.4,56.87 c 0.49,1.6 1.64,3.26 1.46,4.77 -2.28,19 9.41,23.18 25,28 77.78,24 138.78,70.94 184,138.69 a 33.69,33.69 0 0 0 14.93,11.86 c 59.59,23.26 95.75,66 102.86,129.57 6.58,58.82 -16.87,106.13 -64.07,141.91 -4.69,3.55 -9.24,9.8 -10.17,15.41 -11.41,68.53 -22.22,137.16 -33,205.79 -6.91,43.93 -36.4,69.24 -81.47,69.29 q -108.32,0.19 -216.53,0.08 z m 366.74,-416.43"
         id="path3296" />
      <path
         style="fill:#866fac"
         class="cls-2"
         d="m 1386.65,364.24 -34.11,-19.06 c 34.89,-60 84.52,-100.16 149.86,-124.18 2.51,6.25 4.91,11.83 7,17.53 2.09,5.7 3.94,11.76 6.27,18.77 -55.46,20.3 -98.55,55.16 -129.02,106.94 z"
         id="path3298" />
    </g>
  </g>
</svg>
