<svg xmlns="http://www.w3.org/2000/svg" viewBox="0 0 1297.08 820.2"><defs><style>.cls-1{isolation:isolate;}.cls-2{fill:#453f7f;}.cls-3{fill:#acd8f4;}.cls-3,.cls-4,.cls-6{opacity:0.44;}.cls-4{fill:#81b7e3;}.cls-5{fill:#add8e5;opacity:0.19;}.cls-6{fill:#b4e0f3;mix-blend-mode:multiply;}.cls-7{fill:#fbf3d9;}.cls-8{fill:#eddba9;}.cls-9{fill:#f2db91;}.cls-10{fill:#dea058;}.cls-11{fill:#fff;}.cls-12{fill:#272963;}.cls-13{fill:#262262;}.cls-14{fill:#2a3378;}.cls-15{fill:#2b3781;}.cls-16{fill:#23265a;}.cls-17{fill:#1a1648;}</style></defs><title>cheesecake</title><g class="cls-1"><g id="Layer_2" data-name="Layer 2"><g id="Layer_8" data-name="Layer 8"><ellipse class="cls-2" cx="849.82" cy="775.89" rx="447.26" ry="39.83"/><path class="cls-3" d="M766.83,642.06c0,84.46,261,152.94-122.54,152.94S480.9,726.53,480.9,642.06,260.79,489.13,644.29,489.13,766.83,557.6,766.83,642.06Z"/><path class="cls-4" d="M1279.34,501.9C1271,581.83,993.73,647.41,641.41,647.41S11.51,581.86,3.49,501.9C-7.93,388,289.1,356.4,641.41,356.4S1289.66,402.76,1279.34,501.9Z"/><ellipse class="cls-3" cx="637.92" cy="480.97" rx="637.92" ry="145.51"/><ellipse class="cls-5" cx="630.83" cy="769.8" rx="228.58" ry="50.39"/><ellipse class="cls-5" cx="630.83" cy="755.4" rx="228.58" ry="50.39"/><path class="cls-6" d="M1279.34,501.9a46.67,46.67,0,0,0-3.6-23.53c-3.27-42.66-87-80.85-218.16-107l-27.44-3.5L229.87,553.79l346.62,92.86q32,.74,64.93.75C993.73,647.41,1271,581.83,1279.34,501.9Z"/><polygon class="cls-7" points="1036.16 520.69 231.82 554.73 190.4 286.74 1061.72 130.34 1036.16 520.69"/><polygon class="cls-8" points="188.8 289.93 617.53 120.77 1061.72 130.34 188.8 289.93"/><polygon class="cls-9" points="212.28 428.25 231.82 554.73 1036.16 520.69 1048.46 332.87 212.28 428.25"/><polygon class="cls-10" points="226.92 522.99 231.82 554.73 1036.16 520.69 1038.61 483.27 226.92 522.99"/><path class="cls-11" d="M919.08,43.18c22-1.19-121,94.47-203.07,94.47S567.34,117.42,567.34,92.47,572.22,0,654.33,0,842.93,47.29,919.08,43.18Z"/><path class="cls-11" d="M1105.91,65.77c19.49,1.77,7.25,82.14-147.32,82.14-72.87,0-102.89-28.44-102.89-53.39s31.09-85.85,104-85.85S1015.26,57.55,1105.91,65.77Z"/><path class="cls-11" d="M1006.11,63.72c21.35,8.19-37.55,69.82-119.66,69.82S725,112.29,725,87.33,718.22.67,800.33.67,904.33,24.67,1006.11,63.72Z"/><path class="cls-12" d="M685.25,87.51C692.8,122.57,663,151.87,625.33,160s-69-8-76.56-43.09,20.61-64.43,58.3-72.54S677.7,52.45,685.25,87.51Z"/><path class="cls-13" d="M802.94,102.93c-5.24,35.48-43.41,52.46-81.55,46.83S659.59,118,664.83,82.54s41.91-53.09,80.05-47.46S808.18,67.45,802.94,102.93Z"/><path class="cls-13" d="M913.41,105.34c-4.83,35.53-42.81,53-81,47.76s-62.16-31-57.33-66.57,41.3-53.57,79.5-48.37S918.24,69.8,913.41,105.34Z"/><path class="cls-14" d="M838.65,115.91c-5.24,35.48-43.41,52.46-81.55,46.83S695.31,131,700.54,95.53s41.91-53.09,80.05-47.46S843.89,80.44,838.65,115.91Z"/><path class="cls-15" d="M725,135.39c-5.24,35.48-33.25,44.7-85.31,41.45s-58-26.36-52.8-61.84S628.83,61.91,667,67.54,730.26,99.92,725,135.39Z"/><polygon class="cls-13" points="681.16 87.05 668.85 99.44 673.06 116.39 656.33 108.76 640.66 117.2 642.64 100.09 628.74 88.36 646.69 85.42 653.78 69.72 662.89 85.02 681.16 87.05"/><polygon class="cls-16" points="791.78 52.87 791.83 69.87 806.06 79.18 789.68 84.82 784.81 101.24 774.64 87.72 757.4 88.56 767.5 74.56 761.71 58.66 778.12 63.53 791.78 52.87"/><polygon class="cls-17" points="605.05 49.74 601.6 61.35 613.21 64.78 596.48 72 588.48 84.21 581.59 77.08 565.03 81.2 577.51 69.56 575.28 59.89 589.88 59.84 605.05 49.74"/><polygon class="cls-17" points="849.56 48.13 864.47 52.19 878.72 46.18 876.64 57.03 888.94 63.8 872.75 66.45 866.11 76.64 858.17 67.42 841.76 66.95 853.05 58.61 849.56 48.13"/><polygon class="cls-17" points="708.12 38.76 724.34 39.63 740.31 36.61 737.51 40.93 750.72 42.97 732.77 44.77 724.97 49.05 716.67 45.85 698.64 46.45 711.47 42.67 708.12 38.76"/></g></g></g></svg>