<svg xmlns="http://www.w3.org/2000/svg" viewBox="0 0 103.65 111.43"><defs><style>.cls-1{fill:#231f20;}.cls-2{fill:#ec5291;}.cls-3,.cls-4{fill:#fff;stroke:#000;stroke-miterlimit:10;}.cls-3{stroke-width:0.65px;}.cls-4{stroke-width:0.78px;}.cls-5{fill:#009345;}.cls-6{fill:#f6921e;}.cls-7{fill:#d35461;}.cls-8{fill:#ff99b1;}</style></defs><title>congrats</title><g id="Layer_2" data-name="Layer 2"><g id="Layer_2-2" data-name="Layer 2"><path class="cls-1" d="M18.32,60.91c4.5,1.86,8.21,2.51,8.42,1.82.64-2,.31-.87-7.93-3.85-3.91-1.42-7.62-4.72-8.23-3.71C9.42,57.09,13.63,59,18.32,60.91Z"/><path class="cls-2" d="M4.55,49.7C.65,61.86-.8,74.72,9.37,76.23c8.45,1.25,8.35-4.13,7.91-9.33-.13-1.52-4.51-.63-4.93-1.91-1-3,.2-7.42,1.53-11.15,3-8.28,5.93-8.93,7.15-9.74.87-.58,5.17,3,5.88,2.33,6.28-6,12-9.9-3.43-14.23C18.91,30.91,8.44,37.54,4.55,49.7Z"/><path class="cls-3" d="M16.81,51.53c0,2.93-3.77,7.18-8.32,7.18S.33,56.82.33,53.89,2.47,44.67,7,44.67,16.81,48.6,16.81,51.53Z"/><ellipse class="cls-4" cx="15.35" cy="51.82" rx="3.53" ry="2.64" transform="translate(-37.2 39.2) rotate(-60)"/><path class="cls-1" d="M63.87,99.89c.38,1.42,1.59,5.07,1.9,6.31.35,1.4,6.32,2.84,8,4.24,1.39,1.16-11,1.64-11.33-.5-.31-2.31-.68-3.57-1.92-9.33-1.33-6.15-3.82-9-2.57-10.41C59.4,88.57,61.69,91.84,63.87,99.89Z"/><path class="cls-5" d="M97.1,38.15c-10.93,6.53-22.36,5.55-33.29,1-5.32-2.22-16.16-5.88-17.46-17.05-.58-5,4.69-9.48,10.44-9.06,7.91.59,20.75,22.76,31.33,25C92,38.8,97.73,37.77,97.1,38.15Z"/><path class="cls-1" d="M42.68,97.41c.67,3.53,2.15,6.72,2.37,8,.24,1.42-5.22,2.45-6.85,4.08-1.28,1.28,12.4,1.14,11.42-1.8-.74-2.21-2.45-5.07-3.65-10.83-1.28-6.16,1.26-9.92-.43-10.68C43.52,85.26,41.11,89.21,42.68,97.41Z"/><ellipse class="cls-6" cx="49.07" cy="63.22" rx="33.95" ry="30.03"/><path class="cls-1" d="M82.58,73.89c3.28,3.59,6.37,5.75,6.85,5.22,1.45-1.58.65-.65-5.55-6.85C80.94,69.31,79,64.75,78,65.4,76.14,66.65,79.15,70.13,82.58,73.89Z"/><path class="cls-3" d="M95.47,77.26a29.6,29.6,0,0,0-4.1.3c.8-.73,1.14-1.4.35-1.93-.56-.38-2.33.44-4.37,1.85s-3.31,3-3,3.56c.39.75,1.14.56,2.1,0-.53.79-1,1.68-1.41,2.3-.67.94-1.48,2.41-.5,3.39C87,89.19,89.87,83.52,92,84.6c2,1,13.38,4.57,10.93-4C102.13,77.62,98.24,77.1,95.47,77.26Z"/><polygon class="cls-5" points="53.2 34.88 50.59 35.21 50.59 29.17 53.69 29.82 53.2 34.88"/><ellipse class="cls-1" cx="29.44" cy="54.94" rx="1.96" ry="1.87" transform="translate(-32.86 52.97) rotate(-60)"/><ellipse class="cls-1" cx="61.42" cy="53.31" rx="1.96" ry="1.87" transform="matrix(0.5, -0.87, 0.87, 0.5, -15.46, 79.85)"/><path class="cls-7" d="M52.63,57.65S55.9,72.53,45.7,72.83c-8.57.24-7.83-13-7.83-13Z"/><path class="cls-1" d="M64.37,40.91c-.61.67-.48-.6-3.12-1.67-1.76-.71-3.31-.17-3.34-.69,0-.72,2.37-.45,3.53-.06S64.88,40.34,64.37,40.91Z"/><path class="cls-1" d="M25.08,45.71c.17.27.51-1,2.33-2.65,1.15-1.06,3.1-1.39,2.89-1.82-.38-.78-2.38.4-3.33,1.18S24.51,44.79,25.08,45.71Z"/><path class="cls-8" d="M29.57,15.43,27,7.26q-.74-2.39-1-3.45a3.25,3.25,0,0,1,.22-2.43A2.66,2.66,0,0,1,28.05.1a2.06,2.06,0,0,1,2.24.56,7.19,7.19,0,0,1,1.21,2.85,23.34,23.34,0,0,1,.43,2.35l1.3,8.73a6.93,6.93,0,0,1,0,2.47,1.4,1.4,0,0,1-1.12,1.13,1.35,1.35,0,0,1-1.49-.48A8.11,8.11,0,0,1,29.57,15.43Zm4.65,11a2.8,2.8,0,0,1-2-.24A2.46,2.46,0,0,1,31,24.41a2.65,2.65,0,0,1,2-3.21,2.64,2.64,0,0,1,2,.31,2.53,2.53,0,0,1,1.21,1.65,2.49,2.49,0,0,1-.33,2.09A2.73,2.73,0,0,1,34.22,26.39Z"/></g></g></svg>