<svg xmlns="http://www.w3.org/2000/svg" viewBox="0 0 108.67 94.4"><defs><style>.cls-1{fill:#231f20;}.cls-2{fill:#009345;}.cls-3{fill:#ec5291;}.cls-4{fill:#f6921e;}.cls-5{fill:#fff;stroke:#000;stroke-miterlimit:10;stroke-width:0.65px;}.cls-6{fill:#d35461;}.cls-7{fill:#7ca9ff;}</style></defs><title>followup</title><g id="Layer_2" data-name="Layer 2"><g id="Layer_2-2" data-name="Layer 2"><path d="M81,61.72c4.52,3.08,8.82.57,9.38,1.88.8,1.86-6.58,3.08-11.1,0s-5.79-5.22-4.81-5.88C76.47,56.41,76.52,58.64,81,61.72Z"/><path class="cls-1" d="M45.84,94.28c-2-.28-4.07-.31-4.76-.83-1-.77-.26-4.69-.14-5.71l1.54-13.22c.12-1,1.24-.7,2.63-.54h0c.41,2.68-.68,15,.5,15.52,4.57,2.18,8.65,4.67,4.79,4.79A22,22,0,0,1,45.84,94.28Z"/><path class="cls-1" d="M63.79,92.83a13.67,13.67,0,0,1-5-.95c-1.09-.66-.76-4.63-.75-5.66l.11-13.31c0-1,1.15-.83,2.56-.82h0c.69,2.62,1,14.7,2.17,15.37,4.37,2.62,9.38,4.63,5.56,5.17A20.55,20.55,0,0,1,63.79,92.83Z"/><path class="cls-2" d="M17.12,18.34c-3.31-1.42,8.77,4.35,17.84,4.35s25.18-3.27,28.72-10C65.86,8.55,64.23-.84,55.2.06,40,1.58,21.69,20.3,17.12,18.34Z"/><path class="cls-3" d="M94.27,63.64c-2.89,9.28-7.61,17.92-14.6,14.42-5.81-2.91-3.39-6.22-.84-9.27.74-.89,3.08,1.58,3.9,1,1.94-1.46,3.12-4.71,3.92-7.61,1.78-6.45.21-8.15-.19-9.19-.29-.75-4.53-.39-4.68-1.12-1.29-6.48-3.13-11.4,8.36-7.36C93.54,45.66,97.16,54.36,94.27,63.64Z"/><path class="cls-4" d="M85,49.89C85,67,69.23,78.43,51.94,77.74c-21.76-.87-33.07-12.53-33.07-29.59S35.5,19.43,52.81,19.43,85,32.83,85,49.89Z"/><polygon class="cls-2" points="57.21 21.17 55.42 20.84 56.23 14.48 59.82 13.01 57.21 21.17"/><path d="M20.46,62.66c-4.52,3.08-8.41,3.5-9,4.81-.8,1.86,5.23,0,9.74-3.09S28.82,57,27.84,56.3C25.89,55,25,59.58,20.46,62.66Z"/><path class="cls-5" d="M15.34,66.44c-.45-1.81-1.37-3.13-2.07-3-.41.1-.65.7-.68,1.55a7.22,7.22,0,0,0-2.26-2.58c-1.54-1-3.14-1.63-4.08-.69S6,63.77,7,64.92l-.62,0C1.42,64.9.07,66.82.37,69,.8,72.3,2.76,74,8.2,73.61c3.91-.31,5.31-2.28,5.73-4.1.32.39.66.59,1,.52C15.58,69.86,15.79,68.25,15.34,66.44Z"/><path class="cls-5" d="M97.2,61.86c-.22,4.35-2.87,5.22-6.42,5.22a5.28,5.28,0,0,1-5.55-5.44c0-2.88,2.33-5.22,5.88-5.22S97.42,57.29,97.2,61.86Z"/><ellipse cx="50.28" cy="42.26" rx="1.88" ry="1.84"/><ellipse cx="75.9" cy="45.85" rx="1.88" ry="1.84"/><path class="cls-6" d="M69,56.5c.72,1.43-2.82,3.71-7,3-4.45-.73-5.75-3.1-4.77-5.06.72-1.43,4.11,0,6.28.65C65.37,55.68,68.47,55.36,69,56.5Z"/><path d="M48.93,36.87c-1.61,1.09-2.23,2.2-2.66,1.76-.16-.16.59-1.34,2.2-2.44A5.81,5.81,0,0,1,51.91,35C52.41,35.4,50.55,35.78,48.93,36.87Z"/><path d="M77.34,40.38c1.44,1.31,1.9,2.49,2.38,2.12.18-.14-.39-1.41-1.83-2.72a5.81,5.81,0,0,0-3.22-1.71C74.11,38.43,75.9,39.07,77.34,40.38Z"/><path class="cls-5" d="M87.81,60a2.49,2.49,0,0,1-2.16,2.9A2.74,2.74,0,0,1,83.24,60c0-1.6,1.17-3,2.37-3S87.57,57.89,87.81,60Z"/><path class="cls-7" d="M108.67,17.9C108.67,10.21,101.37,4,92.35,4S76,10.21,76,17.9c0,6.28,5.82,11.81,12.51,13.55a3.58,3.58,0,0,1-.17,3,.42.42,0,0,0,.38.66,5.13,5.13,0,0,0,4.67-3.29C101.93,31.31,108.67,25.29,108.67,17.9Z"/></g></g></svg>