<svg xmlns="http://www.w3.org/2000/svg" viewBox="0 0 124.38 132.46"><defs><style>.cls-1{fill:#009345;}.cls-2{fill:#231f20;}.cls-3{fill:#f6921e;}.cls-10,.cls-4,.cls-9{fill:#fff;}.cls-5{fill:#1b75bb;}.cls-6{fill:#33a033;}.cls-7{fill:#62b244;}.cls-8{fill:#8bc759;}.cls-10,.cls-9{stroke:#000;stroke-miterlimit:10;}.cls-9{stroke-width:0.65px;}.cls-10{stroke-width:0.76px;}.cls-11{fill:#ffeb36;}</style></defs><title>hurray</title><g id="Layer_2" data-name="Layer 2"><g id="Layer_2-2" data-name="Layer 2"><path class="cls-1" d="M97.73,47.44C86.79,54,77.66,55.6,66.72,51c-5.32-2.22-16.65-6.12-18-17.3-.58-5,6.31-9.34,12.08-9.14,9.14.33,17.49,21,28.07,23.17C92.83,48.58,98.36,47.06,97.73,47.44Z"/><path class="cls-2" d="M49.57,112.27c-.47,3.56-.56,6.42-.69,7.7-.15,1.44-6.11,1.8-8,4-1.18,1.37,12.09,3,11.94-.09a109,109,0,0,1,.52-11c.43-6.28,2.43-7.9,1-9.1C52.66,102.33,50.39,106,49.57,112.27Z"/><path class="cls-2" d="M18.27,89.83C20,90,19.9,86.37,25,82.24c4.55-3.7,8.52-3.59,7.93-5.5-.66-2.14-4.52-.16-9.16,3.42C18.8,84,16.1,89.63,18.27,89.83Z"/><path class="cls-2" d="M73,112.09c.55,3.55.7,6.41.86,7.68.18,1.43,6.14,1.67,8.07,3.8,1.21,1.34-12,3.27-11.94.17a109,109,0,0,0-.76-11c-.57-6.27-2.6-7.85-1.2-9.07C69.72,102.22,72.07,105.84,73,112.09Z"/><path class="cls-3" d="M95.92,77c0,16.51-15,29.89-33.49,29.89S29.29,94.44,28.94,77c-.41-19.89,15.14-30,33.49-29.89C79.89,47.22,95.92,60.49,95.92,77Z"/><polygon class="cls-1" points="62.89 48.82 60.27 49.15 60.27 43.11 63.38 43.76 62.89 48.82"/><ellipse class="cls-2" cx="44.53" cy="64.08" rx="1.63" ry="1.7"/><ellipse class="cls-2" cx="76.16" cy="63.21" rx="1.63" ry="1.7"/><path class="cls-4" d="M73.36,72.79c.94,3.11-2.42,9.83-13.38,9.68-10-.14-13.92-6.78-13.06-9.91s5.29-2.36,13-2.36S72.27,69.19,73.36,72.79Z"/><path class="cls-5" d="M77,83.27C74,80.78,65.36,85.57,62,88.87a3.63,3.63,0,0,0-4.18-.14C54.44,85.37,46,80.53,43,82.94c-2.11,1.65-2.07,12,.9,14.42S55,97.47,58,94.52a3.64,3.64,0,0,0,3.67-.05c2.89,3.06,11.11,5.56,14.17,3.21S79.12,85,77,83.27Z"/><path class="cls-2" d="M41.83,58.71c.1.22.94-1,2.36-1.65s2.9-.43,2.81-.65a3.63,3.63,0,0,0-3,.15C42.54,57.2,41.73,58.49,41.83,58.71Z"/><path class="cls-2" d="M78.59,57.65c-.08.23-1-.91-2.52-1.4s-2.93-.14-2.86-.37a3.63,3.63,0,0,1,3-.15C77.72,56.22,78.66,57.42,78.59,57.65Z"/><path class="cls-2" d="M104.47,90.19c-1.74,0-1.31-3.59-6-8.16-4.19-4.09-8.16-4.35-7.4-6.2.85-2.07,4.52.26,8.81,4.24C104.47,84.32,106.65,90.19,104.47,90.19Z"/><path class="cls-6" d="M105.67,132,123,114s.76-1.9,1.31-10.23a78,78,0,0,0-.33-11.86l-19.37,12.84Z"/><path class="cls-7" d="M105.67,132l-13.38.44a86.8,86.8,0,0,1-2.94-13.06c-1-9.14-.44-13.82-.44-13.82l16.43-.76s.82,10.44.82,14.47C106.16,124,105.67,132,105.67,132Z"/><path class="cls-8" d="M105.34,105l-16.43.54s14.63-11,20.13-12.84c3.8-1.26,14.91-.87,14.91-.87Z"/><path class="cls-6" d="M109.64,92l-3.1-.24L96,99.91c-.37.17.06,3.44.57,3.43l3-.05c.52,0,1-3,.81-3.2Z"/><path class="cls-9" d="M108.57,88.59c.52-.27.76-.57.59-1-.46-1.15-2.15-.28-5.19.58s-4.71,1.38-4.5,2.14a.76.76,0,0,0,.66.6,7.9,7.9,0,0,0-1.64,2.56c-.66,1.49-.44,3.81.33,3.92,1.4.2,1.69-1,2.83-2.18a8.14,8.14,0,0,0,3.59,4.13c4.3,2.26,8.49-2.09,8.49-4.46C113.72,92.83,111.15,89.17,108.57,88.59Z"/><path class="cls-10" d="M22.72,91.83A5.63,5.63,0,0,0,22,91a.82.82,0,0,0,1-.61c.22-.76-1.46-1.29-4.5-2.14s-4.73-1.73-5.19-.58c-.17.43.06.74.59,1a6.77,6.77,0,0,0-5.37,5.2c-1.09,4.13,7.83,6.31,10,3.92A8,8,0,0,0,20.23,95c1,.92,2.14,1.27,2.85.77C24,95.15,23.82,93.38,22.72,91.83Z"/><rect class="cls-11" x="21.06" y="14.08" width="4.17" height="19.07" rx="1.17" ry="1.17" transform="translate(-9.91 23.28) rotate(-45)"/><rect class="cls-11" x="8.77" y="31.5" width="4.17" height="19.07" rx="1.17" ry="1.17" transform="translate(-31.56 42.55) rotate(-77.23)"/><rect class="cls-11" x="7.65" y="49.3" width="3.83" height="19.07" rx="1.17" ry="1.17" transform="translate(-48.24 73.38) rotate(-94.89)"/><rect class="cls-11" x="12" y="64.31" width="3.83" height="19.07" rx="1.17" ry="1.17" transform="translate(-50.43 112.66) rotate(-110.43)"/><rect class="cls-11" x="109.71" y="63.88" width="3.83" height="19.07" rx="1.17" ry="1.17" transform="translate(3.86 152.39) rotate(-69.57)"/><rect class="cls-11" x="111.68" y="48.74" width="3.97" height="19.07" rx="1.17" ry="1.17" transform="translate(51.32 169.75) rotate(-87.92)"/><rect class="cls-11" x="38.93" y="3.8" width="4.17" height="19.07" rx="1.17" ry="1.17" transform="translate(-1.79 18.6) rotate(-25.02)"/><rect class="cls-11" x="60.61" width="4.17" height="19.07" rx="1.17" ry="1.17"/><rect class="cls-11" x="97.6" y="14.08" width="4.17" height="19.07" rx="1.17" ry="1.17" transform="translate(153.48 110.79) rotate(-135)"/><rect class="cls-11" x="109.89" y="31.5" width="4.17" height="19.07" rx="1.17" ry="1.17" transform="translate(96.71 159.31) rotate(-102.77)"/><rect class="cls-11" x="79.73" y="3.8" width="4.17" height="19.07" rx="1.17" ry="1.17" transform="translate(150.31 60.01) rotate(-154.98)"/></g></g></svg>