<svg xmlns="http://www.w3.org/2000/svg" viewBox="0 0 69.13 100.64"><defs><style>.cls-1{fill:#5454d6;}.cls-2{fill:#009345;}.cls-3{fill:#231f20;}.cls-4{fill:#f6921e;}.cls-5{fill:#fff;stroke:#000;stroke-miterlimit:10;stroke-width:0.65px;}.cls-6{fill:#7fd2f2;}</style></defs><title>nervous</title><g id="Layer_2" data-name="Layer 2"><g id="Layer_2-2" data-name="Layer 2"><rect class="cls-1" x="46.95" y="5.08" width="2.88" height="33.29" rx="1.1" ry="1.1" transform="translate(96.78 43.45) rotate(180)"/><rect class="cls-1" x="52.71" y="10.2" width="2.88" height="22.09" rx="1.1" ry="1.1" transform="translate(108.3 42.49) rotate(-180)"/><rect class="cls-1" x="58.6" y="14.52" width="2.88" height="22.09" rx="1.1" ry="1.1" transform="translate(120.09 51.14) rotate(180)"/><path class="cls-2" d="M12.79,23.86C9,22.07,12.46,26.68,24.1,25.72s19-6.24,20.45-13.86C45.43,7.15,42.63-1.49,31.06.22,19.69,1.89,20.11,27.28,12.79,23.86Z"/><polygon class="cls-2" points="33.29 20.7 35.21 20.6 35.46 15.51 32.91 15.96 33.29 20.7"/><path class="cls-3" d="M23.65,100.29a13.67,13.67,0,0,0,5-.88c1.09-.64.82-4.62.82-5.65l.07-13.31c0-1-1.14-.85-2.54-.86h0c-.73,2.61-1.24,14.69-2.38,15.34-4.41,2.56-9.45,4.5-5.62,5.09A20.55,20.55,0,0,0,23.65,100.29Z"/><path class="cls-3" d="M47.08,100.64a13.67,13.67,0,0,1-5-.8c-1.1-.62-.89-4.61-.91-5.64l-.28-13.31c0-1,1.13-.87,2.53-.9h0c.77,2.59,1.48,14.67,2.62,15.3,4.45,2.49,9.52,4.35,5.7,5A20.55,20.55,0,0,1,47.08,100.64Z"/><ellipse class="cls-4" cx="34.56" cy="52" rx="34.56" ry="31.75"/><circle class="cls-3" cx="19.78" cy="42.03" r="2.01" transform="translate(-2.27 1.14) rotate(-3.13)"/><circle class="cls-3" cx="50.15" cy="42.07" r="2.01" transform="translate(-2.22 2.8) rotate(-3.13)"/><path class="cls-3" d="M15.39,36.78c-.17-.34,1.87.06,3.91-1s2.93-2.75,3.1-2.41-.76,2-2.8,3S15.56,37.12,15.39,36.78Z"/><path class="cls-3" d="M45.64,50.25c0,.12-1.37-1.35-2.3-1.29-.71.05-2.82,1-3.69.92s-2.14-1-3-1.13c-1.31-.14-2.4.88-4.11,1-1.51.09-2-1.26-3.14-1-2.74.55-3.38,2-3.4,1.67s.43-1.56,3.11-2.15c1.19-.26,1.82,1,3.38.93,1.72-.11,2.84-1.07,4.15-.9.87.11,2,1,3,1.14A20.47,20.47,0,0,0,43,48.62C44.62,48.36,45.63,50.12,45.64,50.25Z"/><path class="cls-3" d="M55,37.55c.16-.34-1.78,0-3.84-1s-3-2.68-3.18-2.34.83,2,2.89,3S54.85,37.89,55,37.55Z"/><path class="cls-3" d="M6.57,64.69c4.43,5.54,13.34.8,20.49-4.12,1-.71,1.67,2.29,1.89,2.17.86-.47-13.17,12.36-22.15,6C2.05,65.32.32,59.32.91,58.57,2.57,56.45,4.28,61.83,6.57,64.69Z"/><path class="cls-3" d="M63,64.78c-4.43,5.54-13.34.8-20.49-4.12-1-.71-1.67,2.29-1.89,2.17-.86-.47,13.17,12.36,22.15,6,4.75-3.38,6.48-9.38,5.89-10.13C67,56.54,65.26,61.92,63,64.78Z"/><path class="cls-5" d="M46.18,56.51a7.18,7.18,0,0,1-1.1,3.73,1,1,0,0,1,.94.18c.56.63-.41,2.42-2.18,4s-3.65,2.37-4.21,1.74c-.25-.28-.2-.78.09-1.39-1.59.4-3.52-.05-5.61-3s.12-6.2,2.53-8,4-1.27,5.91,1.12c.31-.9.88-1.51,1.57-1.54C45.18,53.32,46.11,54.73,46.18,56.51Z"/><path class="cls-5" d="M23.36,56.42a7.18,7.18,0,0,0,1.1,3.73,1,1,0,0,0-.94.18c-.56.63.41,2.42,2.18,4s3.65,2.37,4.21,1.74c.25-.28.2-.78-.09-1.39,1.59.4,3.52-.05,5.61-3s-.12-6.2-2.53-8-4-1.27-5.91,1.12c-.31-.9-.88-1.51-1.57-1.54C24.36,53.23,23.43,54.64,23.36,56.42Z"/><path class="cls-6" d="M8.28,41.37c.94,3.07-.85,3.67-1.82,3.4-.75-.21-1.66-1.7-1-3.48C6,39.7,6.08,39.45,6.58,38,6.88,37.08,7.31,38.23,8.28,41.37Z"/><path class="cls-6" d="M11.63,49.27c.7,2.26-.62,2.7-1.34,2.51a2,2,0,0,1-.77-2.56c.4-1.17.49-1.36.86-2.45C10.6,46.12,10.91,47,11.63,49.27Z"/></g></g></svg>