<svg xmlns="http://www.w3.org/2000/svg" viewBox="0 0 665.06 844.57"><defs><style>.cls-1{isolation:isolate;}.cls-2{fill:#453f7f;}.cls-3{fill:#e6e3f2;}.cls-4{fill:#faf5ef;}.cls-5{fill:#fdf7f0;}.cls-6{fill:#f27d9c;}.cls-7{fill:#ee325f;}.cls-8{fill:#f7f0e7;}.cls-9{fill:#ec008c;opacity:0.11;mix-blend-mode:multiply;}.cls-10{fill:#fff;opacity:0.37;mix-blend-mode:overlay;}</style></defs><title>shake</title><g class="cls-1"><g id="Layer_2" data-name="Layer 2"><g id="Layer_8" data-name="Layer 8"><ellipse class="cls-2" cx="366.04" cy="811.78" rx="299.03" ry="32.8"/><path class="cls-3" d="M208,736.65c0,50.69,234.86,94.41-19.46,92.31-259.53-2.14-16.87-43.72-16.87-94.41s-15.58-79.84,16.87-80.77C224.92,652.73,208,686,208,736.65Z"/><path class="cls-4" d="M377.39,248.58c5,39.58-84.3,72.25-188.28,72.25S-9.93,287,.83,248.58c22.31-79.62,84.3-72.25,188.28-72.25S368.18,176.33,377.39,248.58Z"/><path class="cls-3" d="M185.31,674.74C-37.35,670.48,9.87,276.6,9.87,276.6H368.18S415.37,679.14,185.31,674.74Z"/><path class="cls-5" d="M334.27,549.39C306.68,618.95,69,612.49,43.79,542c-29.49-82.57-31-190.21-31-190.21l353.89,2.95S368.18,463.86,334.27,549.39Z"/><path class="cls-6" d="M186.48,668.87C65.9,668.82,39.36,534.61,39.36,534.61s75.3,11.58,148.93,14.42c57.51,2.22,150.4-13.31,150.4-13.31S318.18,668.92,186.48,668.87Z"/><path class="cls-6" d="M359.33,382.76c-54.91,64.72-290.81,67.35-339.14-2.95C4,356.22,14.3,286.92,14.3,286.92H363.76S375.55,363.65,359.33,382.76Z"/><path class="cls-4" d="M322.47,169.7c2.79,32-61.4,58.24-137.13,58.24S43.13,201.46,48.21,169.7c8.85-55.29,61.4-58.24,137.13-58.24S318,118.82,322.47,169.7Z"/><path class="cls-4" d="M270.86,68.69c8.38,16.75-4.42,88.47-93.63,78.15C143.66,143,116,131.66,116,112.93S143.63,75.38,177.23,79C204.51,82,269.39,65.74,270.86,68.69Z"/><path class="cls-7" d="M222.94,75.33c0,24.43-18.69,47.69-43.5,46.45C150,120.3,130,101.23,130,76.8S153.13,37,178,37,222.94,50.9,222.94,75.33Z"/><path class="cls-7" d="M171.27,30.65a131.58,131.58,0,0,1,1.34,31.91c1.08-18-1.5-37.69-16.76-52.85C143.12-2.95,159.51.56,161.76.16S168.27,13.42,171.27,30.65Z"/><path class="cls-4" d="M124.88,115.88c0,14.66,28.34,32.44,56,32.44s66.75-18.35,70.78-32.44c8.85-31-4.42-23.59-69.3-26.54C154.73,88.08,124.88,101.22,124.88,115.88Z"/><path class="cls-8" d="M316.4,181.46c-9.14,12.94-53.44,27.25-138.84,27.25S50,191.2,50,174.5s33.11.58,117.78,13.45C254.34,201.1,317.66,179.68,316.4,181.46Z"/><path class="cls-8" d="M120,115.1c14.18,10.79,20,18.4,66.25,21.91,42.05,3.19,73.55-11.6,76.18-24.08,2-9.63-4.16,4-49.85,14.72C165.86,138.64,118.66,114.1,120,115.1Z"/><path class="cls-9" d="M368.18,276.6h-3.49c9.31-8.64,14-18.11,12.7-28-4.62-36.25-25.83-54.31-58.94-63.31a25.15,25.15,0,0,0,4-15.58c-2.65-30.51-24.21-45.37-57.38-52.38a46.55,46.55,0,0,0,1.85,4.87c67.76,153.71-49.58,492.54-180.16,514l-.47.08c24.88,23.1,57.18,37.65,99,38.45C415.37,679.14,368.18,276.6,368.18,276.6Z"/><path class="cls-10" d="M208.55,787.93c5.74,23.67,67.79,27,23.89,31.32-80.44,7.83-32.58-13.74-34.52-32-3-28.07,2.39-124.5,2.35-101.05C200.21,710.5,204.21,770.06,208.55,787.93Z"/></g></g></g></svg>