
<svg xmlns="http://www.w3.org/2000/svg" version="1.1" xmlns:xlink="http://www.w3.org/1999/xlink" preserveAspectRatio="none" x="0px" y="0px" width="550px" height="400px" viewBox="0 0 550 400">
<defs>
<g id="Tween_2_0_Layer0_0_FILL">
<path fill="#221F20" stroke="none" d="
M 364.15 167.3
Q 362.15 168.85 358.65 172.75 347.4 184.95 339.55 191.65 332.6 197.65 318 203.8 312.45 206.1 310.95 207.2 308.6 208.85 310.05 210.45 310.65 211.1 314.3 210.15 318.3 209.2 323.55 206.85 337.45 200.75 348.8 191.05 360.7 180.75 366.85 172.25 369.4 168.75 370 166.75 370.5 164.85 369.05 164.95 366.7 165.35 364.15 167.3 Z"/>
</g>

<g id="Tween_2_0_Layer0_1_FILL">
<path fill="#E9ECEE" stroke="none" d="
M 2332.7 1094.45
Q 2332.7 1094.85 2332.9 1095.2 2330.05 1096.4 2327.45 1098.35 2324.7 1100.45 2323.05 1102.8 2319.8 1107.4 2319.15 1111.8 2318.5 1116.25 2320.9 1117.95 2322.95 1119.4 2326.35 1118.05 2329.7 1116.65 2332.85 1113.15 2332.7 1115.2 2332.7 1117.3 2332.7 1120.5 2332.4 1126.1 2332.25 1130.65 2333.15 1133 2335.35 1139.1 2347.8 1139.1 2355.95 1139.1 2361.75 1132.35 2367.5 1125.55 2367.5 1115.95 2367.5 1110.6 2365.55 1105.85 2363.65 1101.25 2360.25 1098 2365.25 1096.55 2365.25 1094.45 2365.25 1092.4 2360.5 1090.95 2355.7 1089.5 2348.95 1089.5 2342.2 1089.5 2337.45 1090.95 2332.7 1092.4 2332.7 1094.45 Z"/>
</g>

<g id="Layer5_0_FILL">
<path fill="#221F20" stroke="none" d="
M 297.7 285.85
Q 299.35 292.6 299.55 295.35 299.65 314.6 298.95 331.6
L 298.95 332.55
Q 298.45 346.95 297.1 354.05 299.9 358.6 303.35 358.65 315.65 359.5 321.65 357.15 332.45 355.25 308.65 347.8 307.3 345.9 306.25 331.85
L 306.15 331.35
Q 305.25 321.5 305 300.85 306.65 294.9 302.15 295.2
L 298.35 279.05
Q 296.75 280.55 297.7 285.85 Z"/>
</g>

<g id="Layer4_0_FILL">
<path fill="#221F20" stroke="none" d="
M 2186.25 1174.55
L 2179.35 1145.2
Q 2176.05 1145.4 2178.2 1157.55 2179.35 1164.05 2181.45 1174.75
L 2181.15 1218.45
Q 2180.2 1265.4 2177.1 1281.5 2176.25 1285.9 2180.7 1288.15 2183.85 1289.8 2188.4 1290 2196.65 1290.45 2205.75 1289.9 2216.75 1289.2 2221.7 1287.3 2235.5 1282 2198 1270.25 2196.7 1268.35 2195.2 1256.7 2192.25 1233.4 2191.45 1184.8 2191.35 1178.45 2190.85 1177 2189.95 1174.3 2186.25 1174.55 Z"/>
</g>

<g id="Layer3_0_FILL">
<path fill="#221F20" stroke="none" d="
M 215.15 192.25
Q 214.25 192.15 212.25 195.4 210.05 198.85 207.8 204.15 201.9 218.15 200.45 233.05 198.9 248.75 200.25 259.1 200.85 263.4 201.8 265.25 202.75 267.05 203.75 265.85 205.25 264 205.7 260.8 206.05 258.35 205.95 253.05 205.65 236.5 206.7 226.25 207.6 217.1 213.95 202.55 216.35 197.05 216.7 195.2 217.25 192.45 215.15 192.25 Z"/>
</g>

<g id="Layer3_0_MEMBER_0_FILL">
<path fill="#221F20" stroke="none" d="
M 2320.2 990.25
Q 2320.85 993.5 2325.25 1003.55 2336.75 1029.95 2338.4 1046.65 2340.25 1065.25 2339.75 1095.35 2339.55 1105 2340.15 1109.4 2341 1115.3 2343.75 1118.7 2345.55 1120.9 2347.25 1117.55 2349 1114.2 2350.05 1106.35 2352.6 1087.55 2349.75 1059.05 2347.1 1031.9 2336.4 1006.5 2332.3 996.8 2328.3 990.55 2324.6 984.7 2323 984.85 2319.15 985.25 2320.2 990.25 Z"/>
</g>

<g id="Layer3_0_MEMBER_1_FILL">
<path fill="#B2D28E" stroke="none" d="
M 2261.75 787.75
Q 2241.7 765.45 2209.8 765.45 2177.85 765.45 2155.7 791.45 2138.45 811.65 2122.9 854.1 2118.2 866.9 2110.1 891.9 2101.5 918.45 2097.25 930.25 2081.5 974.4 2064.5 996.75 2039.15 1030.1 2044.45 1069.25 2049.15 1104.15 2076.8 1137.15 2102.7 1168 2139.95 1187.4 2177.65 1207.05 2212.15 1207.05 2246.6 1207.05 2286.05 1185.75 2324.95 1164.75 2352.4 1132.1 2381.75 1097.1 2386.45 1061.6 2391.7 1021.55 2363.6 989.65 2338.05 960.7 2318.95 916.45 2312.4 901.3 2304.3 878.95 2295.8 854.8 2291.55 843.6 2276.8 804.55 2261.75 787.75 Z"/>
</g>

<g id="Layer3_0_MEMBER_2_FILL">
<path fill="#CBDD9A" stroke="none" d="
M 2210.5 765.45
Q 2207.7 765.45 2204.45 765.7 2178 771.75 2158.85 796.5 2142.9 817.1 2130.35 853.35 2122.25 876.7 2111.15 921.95 2099.35 970.15 2093.6 988 2081.15 1026.65 2089.15 1066.95 2096.55 1104.35 2119.85 1135.75 2142.6 1166.5 2174.3 1183.3 2207.3 1200.75 2241.25 1198.3 2256.05 1197.3 2272.35 1192.85 2302.95 1179.2 2329.4 1156.15 2356.7 1132.35 2372.1 1104.85 2388.75 1075 2387.9 1046.7 2386.95 1015.35 2364.3 989.65 2338.75 960.7 2319.65 916.45 2313.1 901.3 2305 878.95 2296.5 854.8 2292.25 843.6 2277.5 804.55 2262.45 787.75 2242.4 765.45 2210.5 765.45 Z"/>
</g>

<g id="Layer3_0_MEMBER_3_FILL">
<path fill="#FFFFFF" stroke="none" d="
M 2261.25 918.75
Q 2249.85 919.35 2242.55 919.35 2228.65 918.55 2223.85 918.75 2216.1 919.05 2216.1 924.1 2216.1 930.1 2223.85 934.35 2231.6 938.55 2242.55 938.55 2253.5 938.55 2261.25 934.35 2269 930.1 2269 924.1 2269 919.05 2261.25 918.75 Z"/>
</g>

<g id="Layer3_0_MEMBER_4_FILL">
<path fill="#845F41" stroke="none" d="
M 2235.05 727
Q 2235.65 722.65 2232.3 719 2229.1 715.45 2224.5 714.85 2219.85 714.25 2217.75 715.3 2215.45 716.5 2213.9 720.6 2211 728.5 2208.65 745.9 2206.45 762.3 2207.25 761.75 2206.75 765.5 2208.4 768.45 2209.2 769.95 2210.1 770.65 2214.65 771.25 2216.05 770.25 2217.5 769.15 2217.75 764.7 2218.6 749.15 2226.9 736.5 2231.05 730.2 2235.05 727 Z"/>
</g>

<g id="Layer3_0_MEMBER_5_FILL">
<path fill="#221F20" stroke="none" d="
M 2290.4 858.95
Q 2290.7 858.1 2287.85 856.4 2284.95 854.75 2280.6 853.2 2276.2 851.7 2272.9 851.25 2269.6 850.8 2269.3 851.65 2269.05 852.3 2272.25 853.15 2278.2 854.7 2279.85 855.3 2281.7 855.95 2287.15 858.3 2290.15 859.6 2290.4 858.95 Z"/>
</g>

<g id="Layer3_0_MEMBER_6_FILL">
<path fill="#221F20" stroke="none" d="
M 2195.9 850.65
Q 2192.65 851.35 2188.4 853.2 2184.15 855.1 2181.4 857 2178.7 858.9 2179.05 859.75 2179.35 860.4 2182.25 858.85 2187.75 855.95 2189.3 855.25 2190.95 854.55 2196.75 852.5 2199.85 851.45 2199.55 850.8 2199.2 849.95 2195.9 850.65 Z"/>
</g>

<g id="Layer2_0_FILL">
<path fill="#221F20" stroke="none" d="
M 264.3 143.55
Q 264.3 142.15 263.3 141.15 262.3 140.15 260.9 140.15 259.45 140.15 258.45 141.15 257.45 142.15 257.45 143.55 257.45 145 258.45 146 259.45 147 260.9 147 262.3 147 263.3 146 264.3 145 264.3 143.55
M 314.9 143.5
Q 314.9 142.1 313.9 141.1 312.9 140.1 311.5 140.1 310.05 140.1 309.05 141.1 308.05 142.1 308.05 143.5 308.05 144.95 309.05 145.95 310.05 146.95 311.5 146.95 312.9 146.95 313.9 145.95 314.9 144.95 314.9 143.5 Z"/>
</g>

<g id="Layer2_1_FILL">
<path fill="#221F20" stroke="none" d="
M 264.3 143.55
Q 264.3 142.15 263.3 141.15 262.3 140.15 260.9 140.15 259.45 140.15 258.45 141.15 257.45 142.15 257.45 143.55 257.45 145 258.45 146 259.45 147 260.9 147 262.3 147 263.3 146 264.3 145 264.3 143.55
M 314.9 143.5
Q 314.9 142.1 313.9 141.1 312.9 140.1 311.5 140.1 310.05 140.1 309.05 141.1 308.05 142.1 308.05 143.5 308.05 144.95 309.05 145.95 310.05 146.95 311.5 146.95 312.9 146.95 313.9 145.95 314.9 144.95 314.9 143.5 Z"/>
</g>

<g id="Layer1_0_FILL">
<path fill="#221F20" stroke="none" d="
M 221.5 194.55
Q 219.75 192.75 219.15 194.75 218.85 195.75 220.45 199.2 222.35 203.3 225.55 207.35 234.7 219.05 248.55 223.05 256.05 225.2 259.8 217.6 263 211.2 262.9 199.95 262.85 189.8 260.45 182.35 257.95 174.7 255.05 177.05 252.5 179.1 253.45 186.6 254 190.9 255.95 200.7 257.3 209.05 255.6 212.35 253.4 216.75 245.45 214.45 235.4 211.5 226.3 200.4 222.65 195.7 221.5 194.55 Z"/>
</g>

<g id="Tween_1_0_Layer0_0_FILL">
<path fill="#E9ECEE" stroke="none" d="
M 242.1 170.05
Q 240.85 171 241.15 173.45 241.5 175.9 243.3 178.4 244.25 179.65 245.75 180.8 247.2 181.85 248.7 182.55 248.6 182.85 248.6 182.95 248.6 184.05 251.2 184.85 253.85 185.65 257.6 185.65 261.3 185.65 263.9 184.85 266.55 184.05 266.55 182.95 266.55 181.8 263.8 181 265.65 179.25 266.7 176.7 267.75 174.1 267.75 171.15 267.75 165.85 264.6 162.15 261.45 158.4 256.95 158.4 250.05 158.4 248.85 161.75 248.35 163.05 248.45 165.55 248.6 168.6 248.6 170.4 248.6 171.55 248.7 172.7 247 170.75 245.15 170 243.3 169.2 242.1 170.05 Z"/>
</g>

<path id="Tween_2_0_Layer0_1_1_STROKES" stroke="#221F20" stroke-width="2.04" stroke-linejoin="miter" stroke-linecap="butt" stroke-miterlimit="10" fill="none" d="
M 8.90235900878929 -19.677720642089724
Q 8.98664703369127 -18.101495361328233 9.65652618408194 -16.32124786376957 10.300198364257994 -14.654631042480418 11.278961181640852 -13.264755249023409 11.083741760253815 -13.159893798828165 10.96717681884752 -12.973443603515733 10.369781494140625 -12.017886352539193 12.16132965087877 -9.95779571533214 13.952877807617142 -7.897705078125085 17.09922485351558 -5.9306716918946165 20.245571899414017 -3.9636383056641478 22.905522155761673 -3.240740966796892 25.542166137695403 -2.5324142456055085 26.1395614624023 -3.4879714965820483 26.751527404785293 -4.466835021972628 24.843447875976608 -6.599778747558588 27.375364685058685 -7.12388458251948 29.601499938964935 -8.714378356933452 31.8946533203125 -10.360220336914011 33.45370941162105 -12.853991699218767 36.25126800537123 -17.32879638671872 35.552650451660156 -22.174070739746043 34.816156005859284 -27.010609436035196 31.01723327636728 -29.385620117187358 25.21397094726558 -33.013703918457026 22.410879516601653 -30.81144561767573 21.30654754638681 -29.978321838378946 20.050540161132858 -27.81373901367178 18.558468627929642 -25.116012573242273 17.625949096679733 -23.62441101074225 17.01398315429674 -22.64554748535167 16.486506652832077 -21.64627838134774 16.03815460205078 -24.19566650390638 14.884611511230332 -25.82447357177736 13.693191528320312 -27.444544982910287 12.315086364746321 -27.366058349609347 10.700984191894577 -27.273034667968744 9.707180786132767 -25.009358215331957 8.727947998047057 -22.768988037109324 8.90235900878929 -19.677720642089724 Z"/>

<path id="Tween_1_0_Layer0_0_1_STROKES" stroke="#221F20" stroke-width="2.04" stroke-linejoin="miter" stroke-linecap="butt" stroke-miterlimit="10" fill="none" d="
M 243.3 178.4
Q 244.25 179.65 245.75 180.8 247.2 181.85 248.7 182.55 248.6 182.85 248.6 182.95 248.6 184.05 251.2 184.85 253.85 185.65 257.6 185.65 261.3 185.65 263.9 184.85 266.55 184.05 266.55 182.95 266.55 181.8 263.8 181 265.65 179.25 266.7 176.7 267.75 174.1 267.75 171.15 267.75 165.85 264.6 162.15 261.45 158.4 256.95 158.4 250.05 158.4 248.85 161.75 248.35 163.05 248.45 165.55 248.6 168.6 248.6 170.4 248.6 171.55 248.7 172.7 247 170.75 245.15 170 243.3 169.2 242.1 170.05 240.85 171 241.15 173.45 241.5 175.9 243.3 178.4 Z"/>
</defs>

<g transform="matrix( 0.9659271240234375, -0.2588043212890625, 0.2588043212890625, 0.9659271240234375, 339.75,183.25) ">
<g transform="matrix( 1, 0, 0, 1, -345.15,-179.05) ">
<use xlink:href="#Tween_2_0_Layer0_0_FILL"/>
</g>

<g transform="matrix( 0.46612548828125, 0.291412353515625, 0.291412353515625, -0.46612548828125, -1395.3,-182.6) ">
<use xlink:href="#Tween_2_0_Layer0_1_FILL"/>

<use xlink:href="#Tween_2_0_Layer0_1_1_STROKES" transform="matrix( 1.5424652099609375, 0.9643096923828125, 0.9643096923828125, -1.5424652099609375, 2328.25,1063.85) "/>
</g>
</g>

<g transform="matrix( 1, 0, 0, 1, 0,0) ">
<use xlink:href="#Layer5_0_FILL"/>
</g>

<g transform="matrix( 0.54998779296875, 0, 0, 0.54998779296875, -943.1,-348.5) ">
<use xlink:href="#Layer4_0_FILL"/>
</g>

<g transform="matrix( 1, 0, 0, 1, 0,0) ">
<use xlink:href="#Layer3_0_FILL"/>
</g>

<g transform="matrix( 0.54998779296875, 0, 0, 0.54998779296875, -943.1,-348.5) ">
<use xlink:href="#Layer3_0_MEMBER_0_FILL"/>
</g>

<g transform="matrix( 0.54998779296875, 0, 0, 0.54998779296875, -943.1,-348.5) ">
<use xlink:href="#Layer3_0_MEMBER_1_FILL"/>
</g>

<g transform="matrix( 0.54998779296875, 0, 0, 0.54998779296875, -943.1,-348.5) ">
<use xlink:href="#Layer3_0_MEMBER_2_FILL"/>
</g>

<g transform="matrix( 0.54998779296875, 0, 0, 0.54998779296875, -943.1,-348.5) ">
<use xlink:href="#Layer3_0_MEMBER_3_FILL"/>
</g>

<g transform="matrix( 0.54998779296875, 0, 0, 0.54998779296875, -943.1,-348.5) ">
<use xlink:href="#Layer3_0_MEMBER_4_FILL"/>
</g>

<g transform="matrix( 0.54998779296875, 0, 0, 0.54998779296875, -943.1,-348.5) ">
<use xlink:href="#Layer3_0_MEMBER_5_FILL"/>
</g>

<g transform="matrix( 0.54998779296875, 0, 0, 0.54998779296875, -943.1,-348.5) ">
<use xlink:href="#Layer3_0_MEMBER_6_FILL"/>
</g>

<g transform="matrix( 1, 0, 0, 1, 0,0) ">
<use xlink:href="#Layer2_0_FILL"/>
</g>

<g transform="matrix( 1, 0, 0, 1, 0,0) ">
<use xlink:href="#Layer2_1_FILL"/>
</g>

<g transform="matrix( 1, 0, 0, 1, 0,0) ">
<use xlink:href="#Layer1_0_FILL"/>
</g>

<g transform="matrix( 1, 0, 0, 1, 254.4,172) ">
<g transform="matrix( 1, 0, 0, 1, -254.4,-172) ">
<use xlink:href="#Tween_1_0_Layer0_0_FILL"/>

<use xlink:href="#Tween_1_0_Layer0_0_1_STROKES"/>
</g>
</g>
</svg>
