<svg xmlns="http://www.w3.org/2000/svg" viewBox="0 0 3533.17 1734.53"><defs><style>.cls-1{fill:#184a8e;}.cls-2{fill:#2d6cab;}.cls-3{fill:#1c5999;}.cls-4{fill:#16568a;}</style></defs><title>background2</title><g id="Layer_2" data-name="Layer 2"><g id="Layer_4" data-name="Layer 4"><rect class="cls-1" x="20.66" width="3494" height="1714.95"/><path class="cls-2" d="M1386.16,824.53,1324.44,841c-1.23-1.16-2.7-2.48-4.09-3.88q-41.41-41.7-82.74-83.47c-2.78-2.83-5.17-3.65-9.09-2.56-20.39,5.67-40.88,11-61.33,16.47l-5.82,1.55,157.22,158-61.88,16.51L1122,808.52,1090.5,926,1045,880.09l22.91-85.6c-2.25.41-3.8.59-5.29,1-14.77,3.91-29.49,8-44.31,11.71-3.94,1-5.6,2.92-6.62,6.76q-21.85,82.69-44,165.3-8.25,30.92-16.51,61.84c-.61,2.3-1.13,4.62-1.71,7l40,40.08c.79-2.64,1.4-4.51,1.91-6.41,6.54-24.71,13.16-49.4,19.5-74.16,1-3.89,2.76-5.72,6.66-6.72,16.94-4.32,33.8-9,50.69-13.51l6.31-1.68-31,116.9c2.37-.45,3.93-.65,5.45-1,16.92-4.4,33.84-8.79,50.74-13.27q61.11-16.2,122.18-32.57c4.28-1.16,7-.5,10.09,2.72,12,12.47,24.26,24.64,36.42,36.93,1.14,1.15,2.2,2.38,4,4.33-14.57,4.52-28.81,7.68-42.84,11.54-14.2,3.9-28.45,7.62-42.67,11.41L1144.2,1134l-42.68,11.39L1057.94,1157l52.93,53.34L1235,1177.25l44.88,45.32c-41.42,11.65-82.16,21.88-123.58,33.39l55.34,55.77L1172.45,1351c-18.64-18.26-36.53-36.86-55.61-55.62l-33.23,123.89c-1.56-1.34-2.59-2.1-3.48-3-12.87-12.88-25.64-25.86-38.63-38.62-2.59-2.55-3.11-4.73-2.17-8.22,10.27-37.8,20.27-75.68,30.61-113.46,1.28-4.69.6-7.63-2.91-11.07-14.87-14.52-29.39-29.39-44.06-44.11-1.26-1.27-2.64-2.42-4.51-4.12L961.14,1412c-15.67-15.06-30.21-30.21-45.4-45.26l48.9-184.43c-7.13.88-13.26,3.18-19.55,4.74s-12.81,3.39-19.21,5.1l-19.74,5.27-19.21,5.12-19.22,5.09L848,1212.94c.52-2.55.79-4.3,1.25-6,4.63-17.23,9.43-34.42,13.86-51.7,1-3.8,2.9-5.27,6.49-6.2,25.47-6.62,50.9-13.43,76.33-20.2,1.05-.28,2.07-.67,3.56-1.16a29.87,29.87,0,0,0-2.35-3.14c-11.78-11.89-23.62-23.72-35.35-35.66-1.9-1.94-3.74-2.8-6.32-1.75a22.69,22.69,0,0,1-2.66.73q-112.3,30-224.64,59.84c-4.47,1.18-6.68,3.06-7.8,7.66-3.51,14.48-7.55,28.82-11.37,43.22-.55,2.08-1,4.19-1.67,7l85.18-22.73,45.73,45.79L671.1,1259.92c15.42,15.92,30.37,30.72,45.15,45.68s29.78,30,44.67,45.06l45,45.4-16.67,62.06L631.94,1299.72l-19.3,72.53,90.79,91.32-16.6,62-90.82-91-20.31,75.87-53.63-14.54,20.17-75.8c-11.17,2.27-21.14,5.35-31.21,8-10.33,2.68-20.63,5.49-30.95,8.24l-30.41,8.12-31,8.27c.49-2.56.7-4.15,1.11-5.69,4.57-17.24,9.31-34.45,13.65-51.75.92-3.68,2.81-5,6.16-5.83,37.73-9.94,75.41-20.09,113.17-29.93,4.48-1.17,6.69-3.06,7.84-7.62,5.14-20.32,10.68-40.55,16.05-60.81.45-1.71.78-3.45,1.29-5.76l-213.42,57c-.39-4.16,11.31-50.44,15.69-62.09l183.62-49-85.35-86.05,62.14-16.58,62.57,63.05,15.3-57.24L445.69,960.5l-57,15.2c2,2.09,3.63,3.78,5.27,5.43,17.91,18,35.78,36,53.81,53.87,2.55,2.52,3.27,4.62,2.29,8.17-4.81,17.37-9.29,34.83-13.89,52.26-.42,1.57-.92,3.12-1.62,5.45L349.06,1015c-4.66,15.73-8.43,30.94-12.54,46.05q-6.3,23.16-12.49,46.36-6.16,22.91-12.3,45.83c-4.1,15.27-8.22,30.53-12.37,45.93l-61.69,16.46c4.5-18.43,9.6-36.19,14.28-54.06s9.48-35.54,14.24-53.3q7.21-26.91,14.44-53.82c4.73-17.68,9.45-35.37,14.36-53.73L223,1020c-.52,1.67-1.17,3.57-1.69,5.5-10,37.68-20.15,75.34-30,113.06-1.06,4.07-2.75,6.05-7,7.1-16.79,4.18-33.46,8.81-50.18,13.27l-6.34,1.69,32.94-124.15-75.1,20-14.45-54.15,75.25-20.08L56.07,891l61.79-16.49c3.14,3.13,6.53,6.47,9.89,9.85Q166,923,204.25,961.61c3,3,5.45,3.82,9.6,2.65,20-5.61,40.16-10.84,60.26-16.2l6.32-1.69c-10.49-11.23-21-21.32-31.27-31.69-10.47-10.6-21-21.12-31.53-31.68L186.5,851.71Q170.73,835.87,155,820c-10.32-10.38-20.63-20.77-31.76-32l13.19-3.52c14.76-3.94,29.54-7.79,44.26-11.89,3.25-.9,5.33-.28,7.72,2.12q63.4,63.79,127,127.4c1.4,1.4,2.87,2.73,4.82,4.58l31.41-117.33,45.42,46L374.12,921c2.49-.49,4.22-.72,5.9-1.17,14.95-4,29.84-8.11,44.84-11.84,4.11-1,6-2.86,7.08-7,8.62-33.1,17.51-66.14,26.33-99.19q17.2-64.51,34.41-129c.33-1.24.58-2.49,1-4.19L452.5,627.19l-22.8,85.75-62.13,16.58L398.68,612.4l-6.35,1.69-112.1,29.65c-20.28,5.37-40.59,10.65-60.83,16.18-3.61,1-6,.53-8.69-2.28-12.26-12.71-24.79-25.15-37.2-37.7-1.13-1.14-2.15-2.37-3.7-4.1L383.7,558.76a46.59,46.59,0,0,0-3-3.81c-15.28-15.42-30.66-30.72-45.8-46.27-2.72-2.79-5-3.28-8.67-2.3-37.67,10.18-75.41,20.11-113.05,30.38-4.55,1.24-7.29.44-10.51-2.92C191,521.62,178.91,509.74,167,497.72c-1.38-1.39-2.66-2.89-4.62-5l123.28-32.9c-6.26-7.26-12.6-13-18.51-19.09s-11.93-12-17.89-18-12.15-12.25-18.74-18.91c12.92-13.27,25.89-26.1,39.22-39.36l55.47,55.71,33.32-124.34,45.35,45.41q-4.27,16.08-8.51,32-11.74,44-23.56,87.94c-.85,3.14-.71,5.34,1.78,7.81,15.81,15.66,31.46,31.49,47.17,47.25.75.76,1.65,1.37,2.92,2.41L481,303.21l45.39,45.46-49,184.79c20-5,39-10.28,58.11-15.33s38.4-10.24,57.63-15.37c.58,4-9.49,43.75-15.72,62.3l-85.2,22.74c1.86,2,3.14,3.46,4.51,4.84,10.49,10.57,21.09,21,31.45,31.76,2.75,2.84,5.21,3.6,9.12,2.54q64-17.3,128-34.26c33.26-8.88,66.49-17.82,99.79-26.54,3.84-1,5.81-2.67,6.79-6.61,3.71-14.81,7.78-29.52,11.69-44.28.41-1.55.71-3.13,1.29-5.7l-6.32,1.69c-24.53,6.59-49.1,13.05-73.56,19.88-4.18,1.17-6.69.34-9.6-2.65-12.06-12.38-24.38-24.51-36.6-36.75-1.4-1.4-2.75-2.86-4.77-5,6.83-2.31,13.2-3.7,19.45-5.42s12.8-3.43,19.2-5.14l19.74-5.27,19.21-5.13,19.21-5.13,20.07-5.36L636.19,319.37l16.66-62,157,158.13c.68-2,1.26-3.47,1.67-5,5.57-20.79,11-41.61,16.74-62.34,1-3.69.36-6-2.34-8.68q-40.86-40.69-81.47-81.62a32.57,32.57,0,0,0-3.13-3.11c-2.46-1.87-2.5-4.09-1.72-6.84,2.7-9.56,5.22-19.16,7.81-28.75l7.89-29.23L846,280.84c7.26-25.41,13.39-50.42,20.54-75.73L920,219.62l-19.92,74.89c2.6,1.12,4.62-.12,6.62-.65q55-14.53,109.94-29.17l7.1-1.89-16.44,61.86L883.2,357.79l-19.36,72.56c36.44-9.45,71.8-19.2,107.24-28.61s71-18.94,107.17-28.59c-.33,2.15-.42,3.56-.78,4.91-4.61,17.43-9.39,34.81-13.79,52.29-.92,3.65-2.79,5-6.15,5.89q-43.24,11.44-86.41,23.14-43.45,11.7-86.89,23.46l-5.87,1.57c28.47,29.08,56.71,57.07,85.07,86-1.73.68-2.79,1.23-3.92,1.53-17.61,4.68-35.26,9.22-52.82,14.06-3.89,1.07-6.32.21-9.11-2.65-17.85-18.3-35.91-36.4-53.9-54.56-1.4-1.41-2.87-2.76-4.67-4.48-.66,2-1.21,3.55-1.62,5.09-3.95,14.75-7.79,29.52-11.85,44.24-.87,3.16-.55,5.34,1.9,7.8q84.9,85.2,169.65,170.56c.77.77,1.62,1.46,2.49,2.23l53.78-14.35c-20.94-21.38-41.85-41.92-62.53-62.93l16.49-62.45,85.87,86.19,49.5-184.33,61.62-16.45c-4.39,18.38-9.48,36.09-14.18,53.89s-9.52,35.53-14.27,53.3q-7.2,26.92-14.39,53.84c-4.73,17.7-9.47,35.41-14.38,53.77l72.28-19.29,32.95-123.69L1314,555.2c-1.66,8.58-4.2,16.53-6.24,24.58s-4.36,16.35-6.54,24.53q-3.34,12.53-6.66,25.06c-2.18,8.17-4.4,16.34-6.57,24.52s-4.25,16.22-6.61,25.25l75.15-20.06,14.42,54-75.32,20.1ZM785.56,618.06l-5.78,1.54Q666.45,649.85,553.09,680c-4.34,1.15-6.22,3.18-7.34,7.41q-30.25,114.1-60.85,228.11c-1,3.68-.44,6,2.27,8.7q83.72,84,167.19,168.23c2.75,2.78,5.09,3.2,8.68,2.24q114.1-30.6,228.27-60.91c3.69-1,5.33-2.68,6.3-6.37q30.18-113.83,60.74-227.55c1.26-4.68.64-7.59-2.84-11.07Q885.31,718.55,815.41,648C805.57,638.14,795.71,628.25,785.56,618.06Z"/><path class="cls-2" d="M670.89,1047.64c-6.45-6.47-12.82-12.82-19.16-19.19Q593.79,970.15,535.8,911.92c-3-3-3.69-5.51-2.58-9.63q24-89.21,47.59-178.53c1.22-4.62,3.13-6.93,8-8.21q88.87-23.4,177.59-47.37c4.5-1.21,7.28-.49,10.56,2.83q64.94,65.7,130.17,131.13c1.29,1.3,2.56,2.63,4.07,4.19-.25,1.27-.45,2.7-.82,4.08q-24.06,90.34-48.08,180.7c-1.09,4.13-2.78,6.33-7.22,7.5q-89.4,23.57-178.69,47.56Zm84.65-318.28-127.23,34c-.37,1-.77,1.8-1,2.68q-16.24,60.75-32.53,121.49c-.87,3.22.14,5.07,2.26,7.19q43.25,43.34,86.31,86.87c2.85,2.89,5.25,3.47,9.12,2.42,39.07-10.59,78.2-21,117.31-31.41l5-1.33c.54-1.86,1.09-3.59,1.56-5.34,10.49-39.26,20.9-78.53,31.54-117.75,1-3.8.15-6-2.49-8.64Q805.58,779.71,766,739.71C762.53,736.2,759,732.76,755.54,729.36Z"/><path class="cls-3" d="M2996.46,1456.25l-85.37,38-58.83-132.15c-14.18,18.36-26.57,36.56-40.25,54.65l-75.38-54.62c1.16-1.78,2.16-3.5,3.33-5.1q32.12-44.17,64.35-88.25c2.78-3.78,3.56-6.71,1.44-11.26-8.41-18-16.31-36.31-24.43-54.48-.82-1.84-1.84-3.59-3.29-6.39L2685,1324.58l-75.47-54.72c1.3-1.94,2.47-3.8,3.76-5.57q58.51-80.47,117.16-160.84c3.17-4.33,3.45-7.59,1.22-12.38-8.48-18.24-16.54-36.67-24.61-55.09a19.88,19.88,0,0,0-7-8.57c-15-10.7-29.85-21.6-44.76-32.41-1.68-1.22-3.43-2.35-5.69-3.89-.34,2.48-.66,4.48-.88,6.49q-8.32,78.38-16.55,156.76a21,21,0,0,1-4.22,10.86c-9.27,12.4-18.36,24.94-27.53,37.42-1.21,1.65-2.5,3.25-4.27,5.53-1-1.8-1.68-2.95-2.22-4.17-6.54-14.75-13-29.52-19.6-44.25a21.57,21.57,0,0,1-1.71-11.57q8.37-77.42,16.47-154.86c.24-2.24.32-4.5.53-7.42-2.05.68-3.59,1.06-5,1.69-18,8-36,15.95-54,24.08a16.53,16.53,0,0,0-6.38,4.72c-12.82,17.33-25.42,34.81-38.08,52.26-.73,1-1.32,2.09-2.18,3.47l86,193.07-85,37.86-63.62-142.9c-4,2.6-38.28,48.7-43.91,58.8l49,110.14L2341.28,1367,2314,1305.81c-8.36,10.27-15,20.24-22.16,29.86s-14.08,19.26-21.09,28.91c-7.13,9.82-14.22,19.68-21.36,29.49-7,9.61-14,19.19-21.32,29.15l-75.63-54.83,85.47-117.62-67.49-7.16,9.83-92.84,121.31,12.61,43.17-59.4L2187,1087.47l9.82-92.88c3.41.34,6.26.61,9.12.91q98,10.22,196,20.57c4.87.52,7.53-.67,10.32-4.63,11.58-16.41,23.6-32.51,35.33-48.81,1.53-2.12,3-4.7,3.31-7.21,2.31-20.38,4.34-40.8,6.43-61.2.1-1,0-2,.06-4l-7.36,3.28q-70.63,31.44-141.23,62.94a21.06,21.06,0,0,1-11.51,1.83c-16.21-1.88-32.46-3.5-48.69-5.24-1.41-.15-2.81-.48-4.8-.84,1.28-1.9,2.23-3.42,3.29-4.86,9.53-13,19.15-25.91,28.58-39a19.12,19.12,0,0,1,8.15-6.5q71.54-31.72,143-63.6l7.44-3.31c-2.14-1.72-3.35-2.77-4.65-3.72-15.57-11.33-31.13-22.69-46.78-33.91a15.18,15.18,0,0,0-6.71-2.94c-22.88-2.55-45.78-4.87-68.68-7.25a9.1,9.1,0,0,0-1.73.26L2180.92,958.86,2105.3,904l93.27-128.36-73-7.69-71.77,98.64-75.58-54.86L2018,756.84l-144.57-15.19,9.85-92.91,144.22,15c-1.8-6-4.45-10.83-6.61-15.86s-4.42-10-6.63-14.94l-6.9-15.5-6.54-14.68c4-3.32,76.64-36,85-38.36,1,2,2.15,4.18,3.14,6.4,14.5,32.53,29.13,65,43.32,97.68,2.28,5.25,5.22,7,10.62,7.43,18.34,1.58,36.64,3.7,55,5.61,3.09.32,6.18.61,9.92,1-1.64-6.88-5-12.4-7.45-18.26-2.58-6.19-5.42-12.26-8.15-18.39l-7.92-17.8-7.92-17.8-7.92-17.8-8.18-18.37-7.92-17.8-8.07-18.14,85.31-38,3.06,6.88q40.14,90.15,80.15,180.35c2.14,4.85,4.71,6.85,10,7.31,19.8,1.73,39.55,4,59.32,6.13a18.83,18.83,0,0,0,10.3-1.54c17.34-7.92,34.8-15.58,52.22-23.34l5.91-2.63c-2.38-1.87-4.08-3.31-5.87-4.61q-62.27-45.18-124.6-90.27a27.47,27.47,0,0,1-9.67-11.87c-5.87-13.66-12.22-27.12-18.37-40.66-.83-1.83-1.64-3.68-2.78-6.24,2.72.09,4.55,0,6.35.23,16.23,1.68,32.46,3.46,48.7,5.06a16.78,16.78,0,0,1,8.59,3.29q63.22,46,126.54,91.86c1.8,1.31,3.66,2.53,6.11,4.22.43-2.58.82-4.34,1-6.13,2-19.15,4-38.31,6.13-57.45a17.84,17.84,0,0,0-1.57-9.7c-8.27-18.33-16.53-36.67-24.49-55.15-1.8-4.19-4.12-5.88-8.72-6.35q-99.31-10.13-198.58-20.64c-2.07-.22-4.12-.54-6.86-.91l9.8-92.82,157.28,16.44c-.84-2.37-1.32-4.11-2-5.74-8.32-18.77-16.81-37.47-24.93-56.32-1.68-3.9-4-5.13-7.94-5.53-36.44-3.68-72.86-7.55-109.28-11.38-1.86-.19-3.7-.48-6.4-.83l9.85-92.79,66.49,6.89c-.65-5.77-3.71-10.07-5.61-14.77-2-5-4.39-10-6.61-14.95l-6.39-14.36L2320.07,167l-6.39-14.36L2307,137.69l-6.39-14.36L2294,108.4l-6.47-14.53,85.22-37.94L2431.55,188c14.13-18.3,26.54-36.51,40.33-54.77,25.31,18,50.15,36.38,75.63,54.72l-71.64,98.6,29.7,66.72c11-14.27,21-28.6,31.3-42.66s20.46-28.07,30.68-42.11,20.63-28.37,31.4-43.18l75.63,54.85C2633,337.65,2591.3,394.63,2549.72,452c.57,1.55,1.05,3.12,1.71,4.61,8.42,19,16.8,37.93,25.37,56.82a16.46,16.46,0,0,0,4.76,6.34c16.84,12.44,33.83,24.66,50.78,36.94.62.45,1.32.78,2.48,1.46.38-2.7.76-4.94,1-7.18Q2644,473.88,2652,396.75a22.36,22.36,0,0,1,4.26-11.5c9.44-12.8,18.61-25.79,27.9-38.7.94-1.31,2-2.54,3.39-4.3,1.14,2.19,2.05,3.75,2.79,5.4,6.58,14.73,13.07,29.5,19.75,44.18a18.91,18.91,0,0,1,1.58,10.31q-8.32,77.43-16.43,154.88c-.23,2.22-.3,4.46-.48,7.28,2.13-.82,3.66-1.33,5.13-2,17.81-7.91,35.59-15.87,53.42-23.73a15.49,15.49,0,0,0,6.7-5.34c12.09-16.82,24.23-33.61,36.63-50.2,2.65-3.55,2.68-6.31.95-10.19Q2757.18,382.5,2717,292l-3.37-7.57L2798,246.91a5.45,5.45,0,0,1,.74.21,1.41,1.41,0,0,1,.49.34,4.57,4.57,0,0,1,.73,1c21,47.07,41.93,94.15,63.27,142.1,1.58-1.8,2.83-3,3.85-4.43,12.21-16.73,24.27-33.57,36.65-50.18,2.52-3.38,2.49-6,.84-9.64-14.79-32.86-29.39-65.81-44-98.73l-3.14-7.06,85.13-37.9,27.46,61.68c10.43-13.37,19.5-26.49,28.92-39.34s18.72-25.71,28.08-38.57l28.88-39.67,75.52,54.69c-13.89,19.81-28.23,39-42.25,58.41s-28.29,38.91-43.14,59.32l67.52,7.17L3103.65,399c-2.56-.17-4.77-.24-7-.47-36-3.76-72-7.42-108-11.43-4.87-.54-7.51.75-10.29,4.68-11.58,16.42-23.54,32.56-35.35,48.81-1.08,1.48-2.05,3-3.63,5.39L3097,462.5l-9.83,92.91L2875.59,533.3q-7.4,10.19-14.74,20.28c-8.63,11.84-17.32,23.63-25.84,35.55a15.26,15.26,0,0,0-2.91,6.72c-2.34,20.59-4.44,41.21-6.59,61.82a15.5,15.5,0,0,0,.29,2.57c2.22-.86,4.28-1.57,6.25-2.44q71.5-31.8,143-63.71a22.53,22.53,0,0,1,12.1-2c17.47,1.85,35,3.45,53.15,5.21-1.06,1.78-1.75,3.18-2.66,4.42-9.7,13.39-19.49,26.71-29.11,40.15a20.12,20.12,0,0,1-8.67,6.84q-71,31.46-141.85,63.1l-6.84,3c1.85,1.6,3,2.74,4.28,3.68q23.85,17.39,47.78,34.67a13.83,13.83,0,0,0,6.17,2.64c22.67,2.5,45.35,4.8,68.5,7.21l125.14-172,75.64,54.82-93.26,128.32,72.93,7.73,71.8-98.59,75.62,54.77L3266,792.88c16.49,2.38,32.42,3.57,48.27,5.32s31.63,3.32,47.45,5l48.72,5.13-9.81,92.92L3256,886.14c9.23,21.12,18.27,41,27,60.89-3.93,3.17-73.74,34.74-85,38.44q-12.29-27.54-24.67-55.29c-8.18-18.35-16.35-36.71-24.61-55.27l-72.82-7.62,63.79,143.29c-3.77,3.38-76.57,36.24-85.53,38.67l-3.18-7.14q-40-89.86-79.92-179.77c-2-4.55-4.42-6.63-9.55-7.08-20-1.75-40-4.08-60-6a16.54,16.54,0,0,0-7.87.88c-19,8.26-37.94,16.78-56.88,25.23a28.84,28.84,0,0,0-2.63,1.59c1.43,1.26,2.54,2.41,3.81,3.34q63.51,46.13,127.09,92.16a24.12,24.12,0,0,1,8.44,10.52c6.09,14.26,12.46,28.39,18.7,42.58.67,1.52,1.22,3.09,2.07,5.26-2,0-3.56.06-5.1-.1-16.23-1.73-32.45-3.58-48.7-5.19a17.89,17.89,0,0,1-9.14-3.56q-64-46.55-128.07-93c-1.68-1.22-3.41-2.37-5.65-3.92-.36,2.31-.71,4.11-.91,5.93-2,19.15-4,38.31-6.14,57.45a16.67,16.67,0,0,0,1.63,9.06c8.49,18.92,17,37.83,25.24,56.88,1.73,4,4,5.53,8.32,6q100.22,10.27,200.41,20.86c1.44.15,2.88.34,5.25.63-3.09,30.92-6.46,61.58-9.77,92.89l-157.46-16.47,29.85,67L3014.94,1238l-9.82,92.9-67.58-7Zm-379.05-736a29.19,29.19,0,0,0,.82-3.22c3.07-28.69,6.05-57.39,9.24-86.06.39-3.48-1-5.29-3.56-7.18q-34.54-25-69-50.22a25.61,25.61,0,0,0-3.64-1.85,11.41,11.41,0,0,0-.51,1.66c-3,29.32-6,58.66-9.16,88-.32,3,.76,4.59,3,6.19,9,6.42,18,13,26.93,19.49Zm-35.47,48.53c-1.71-1.4-2.89-2.49-4.18-3.42-22.17-16.12-44.43-32.13-66.47-48.43-3.61-2.67-6.39-2.56-10.2-.84-24.24,11-48.57,21.7-72.86,32.54-1.83.82-3.59,1.82-6.22,3.17l74.9,54.84Zm180.6-80.32,9.36-92.37c-2,.67-3.18,1-4.27,1.44-25.43,11.3-50.82,22.7-76.32,33.85-3.52,1.54-4.36,3.83-4.71,7.19-2.8,27.25-5.72,54.48-8.58,81.72-.19,1.79-.2,3.6-.31,5.94Zm-251.36,266,86-38.29,9.71-92.27-86.16,38.36ZM2666.88,830a18,18,0,0,0-.65,2.14c-3.09,28.93-6.1,57.86-9.32,86.78-.37,3.29.93,4.91,3.34,6.63q34.18,24.53,68.25,49.2c.9.65,1.94,1.1,3.61,2l9.93-92.23Zm195.62-32c-1.35-1.19-1.93-1.78-2.58-2.25-22.82-16.64-45.71-33.2-68.43-50-3.06-2.26-5.41-2-8.54-.61-24.83,11.16-49.72,22.19-74.58,33.28-1.83.81-3.57,1.81-6.32,3.22l75,54.4Z"/><rect class="cls-2" x="20.66" y="867.61" width="3494" height="850.39"/><rect class="cls-4" y="1591.97" width="3533.17" height="142.56"/></g></g></svg>