<svg xmlns="http://www.w3.org/2000/svg" viewBox="0 0 322.76 320.22"><defs><style>.cls-1{fill:#fff;}</style></defs><title>Star3</title><g id="Layer_2" data-name="Layer 2"><g id="Layer_10" data-name="Layer 10"><path class="cls-1" d="M126.29,320.22l-19.19-5.45,8.43-29.7c-4.83,1.07-9.35,2.36-14.07,3.45l-4.88-19.26c.43-.13.83-.28,1.24-.38,7.54-1.9,15.07-3.8,22.62-5.66a2,2,0,0,0,1.78-1.65c1.09-4.11,2.29-8.18,3.45-12.27.12-.41.19-.84.34-1.5L93.25,256l-4.88-19.29c.48-.14.92-.29,1.38-.4q20.59-5.18,41.2-10.33a2.25,2.25,0,0,0,1.89-1.86c1.11-4.15,2.31-8.27,3.5-12.39a4.24,4.24,0,0,0,0-2.36c-1-3.8-1.94-7.62-2.9-11.43-.11-.43-.24-.85-.4-1.41-.39.36-.72.64-1,.94Q120,209.2,107.88,220.92a4.48,4.48,0,0,1-2.18,1.2c-3.22.76-6.42,1.58-9.63,2.37-.42.1-.85.19-1.46.32.09-.43.13-.71.21-1,.95-3.31,1.9-6.62,2.84-9.93a4.6,4.6,0,0,1,1.3-2.13q12-11.54,23.88-23.12c.35-.33.67-.69,1.1-1.14-.43-.17-.73-.32-1.05-.41-4-1.15-8.08-2.31-12.13-3.43a3.53,3.53,0,0,0-1.69-.1c-4.47,1.09-8.93,2.23-13.39,3.35-.26.06-.5.16-.83.27l-12.32,43.4-19.11-5.43L72.54,193c-1-.12-12.93,2.74-15.24,3.63l-7,24.76L31.13,216,35,202.22c-2.77.54-5.23,1.26-7.72,1.86s-4.94,1.23-7.41,1.85l-7.53,1.91-7.48,1.86L0,190.38l30.09-7.58L20,172.39l14.31-13.87,18.15,18.66,15.2-3.83-23.6-24.29,14.31-13.88,1.37,1.4q14.66,15.08,29.31,30.18a2,2,0,0,0,2.32.65c4.14-1.1,8.31-2.1,12.47-3.17a3.52,3.52,0,0,0,1.53-.73c3.17-3,6.29-6.09,9.43-9.15.15-.15.27-.32.56-.65l-1.65-.47q-15.87-4.51-31.75-9A4.49,4.49,0,0,1,79.83,143c-2.4-2.53-4.84-5-7.26-7.52-.21-.22-.39-.46-.67-.79.47-.14.83-.25,1.2-.35,3.34-.82,6.68-1.63,10-2.48a4.08,4.08,0,0,1,2.22.05q16.06,4.59,32.13,9.14l1.67.47c-.12-.57-.17-.91-.25-1.24-1-4-2-8-3-12a3.24,3.24,0,0,0-.7-1.4c-3.4-3.55-6.84-7.06-10.26-10.58a1.94,1.94,0,0,0-.32-.19l-43.91,11-4.89-19.33,32.84-8.28L77.71,88.31,52.46,94.66,47.58,75.33l14-3.56L40,49.51,54.33,35.63,75.9,57.83A30.59,30.59,0,0,0,77,54.32c.33-1.11.64-2.24,1-3.35l1-3.48.94-3.3c1.11,0,17.49,4.58,19.18,5.34-.11.47-.22,1-.36,1.48-2.07,7.31-4.12,14.64-6.26,21.93a2.32,2.32,0,0,0,.72,2.67c2.79,2.77,5.5,5.62,8.24,8.44l1.49,1.52a24.45,24.45,0,0,0,1.28-4c.42-1.37.79-2.75,1.18-4.13l1.14-4,1.14-4,1.14-4,1.17-4.13,1.14-4,1.16-4.08,19.18,5.45-.44,1.55q-5.75,20.26-11.53,40.52a2.24,2.24,0,0,0,.64,2.57c3,3,5.94,6.06,8.88,9.12a4,4,0,0,0,1.9,1.16c3.92,1.07,7.83,2.21,11.75,3.32l1.33.38c-.13-.63-.22-1.1-.33-1.56q-4-15.92-8.07-31.84a5.86,5.86,0,0,1,0-3.27c.91-3,1.71-6.11,2.55-9.18.11-.41.23-.83.4-1.4.43.39.74.63,1,.91,2.43,2.5,4.85,5,7.29,7.49a3.58,3.58,0,0,1,1,1.72q4.07,16.19,8.17,32.36c.12.46.25.92.42,1.53.42-.36.73-.6,1-.87,3-2.86,5.9-5.73,8.86-8.57a3.81,3.81,0,0,0,1.07-1.8c1.15-4.14,2.31-8.27,3.53-12.39a2,2,0,0,0-.56-2.23q-14.89-15.24-29.72-30.54c-.31-.32-.6-.65-1-1.09l14.3-13.87,23.52,24.21c.19-.5.35-.85.45-1.22,1.2-4.21,2.37-8.44,3.62-12.64a1.76,1.76,0,0,0-.54-2q-8.2-8.38-16.35-16.81c-.28-.29-.54-.58-.93-1l14.31-13.86,10,10.22a11.55,11.55,0,0,0,1.1-3.19c.36-1.11.64-2.23,1-3.35l.92-3.23,1-3.36.92-3.23,1-3.36.92-3.23,1-3.36L196.46,0l19.15,5.44-8.43,29.69c4.82-1.07,9.34-2.35,14.1-3.46,1.68,6.42,3.24,12.82,4.91,19.31L201,57.34l-4.26,15c3.76-.83,7.35-1.81,11-2.71l10.79-2.7,11.05-2.78,4.89,19.33c-14.67,3.73-29.3,7.36-44,11.08-.12.33-.25.66-.35,1-1.21,4.26-2.43,8.51-3.62,12.78a3.51,3.51,0,0,0-.09,1.69c1.06,4.34,2.17,8.67,3.27,13,0,.16.11.31.21.58.43-.39.8-.7,1.15-1Q202.89,111,214.76,99.49a4.77,4.77,0,0,1,2.27-1.3c3.3-.81,6.58-1.68,9.87-2.52.33-.09.68-.14,1.14-.24-.11.51-.18.9-.28,1.27-.94,3.31-1.89,6.62-2.81,9.94a4,4,0,0,1-1.15,1.91q-12,11.55-23.88,23.13c-.34.33-.66.69-1.07,1.13.46.16.78.28,1.11.38,4,1.14,8,2.27,12,3.42a3.31,3.31,0,0,0,1.83,0c4.28-1.1,8.57-2.19,12.87-3.22a1.87,1.87,0,0,0,1.55-1.54q5.73-20.34,11.53-40.66l.48-1.7,19,5.38a1.16,1.16,0,0,1,.09.14.3.3,0,0,1,0,.12,1,1,0,0,1,0,.27l-9.07,31.94c.51-.08.88-.11,1.24-.2,4.29-1.07,8.57-2.18,12.87-3.21a1.76,1.76,0,0,0,1.46-1.47c2.07-7.41,4.18-14.8,6.29-22.2l.45-1.59,19.13,5.43L287.71,118c3.54-.76,6.82-1.67,10.12-2.49s6.58-1.65,9.88-2.48l10.16-2.55,4.89,19.29c-5,1.35-10,2.53-14.91,3.79s-10,2.51-15.18,3.82l10.08,10.41-14.28,13.84c-.4-.38-.75-.69-1.08-1-5.39-5.54-10.79-11.07-16.14-16.65a2,2,0,0,0-2.33-.64c-4.14,1.11-8.31,2.12-12.47,3.16-.38.1-.75.22-1.33.39l23.55,24.27L264.36,185l-31.64-32.56-5.19,1.31c-3,.76-6.07,1.5-9.1,2.29a3.26,3.26,0,0,0-1.4.7c-3.2,3.05-6.36,6.15-9.54,9.23a3.31,3.31,0,0,0-.3.46c.48.16.92.33,1.36.45q16.07,4.57,32.14,9.11a4.81,4.81,0,0,1,2.25,1.33c2.61,2.69,5.26,5.35,8,8.12-.42.15-.72.28-1,.36-3.42.87-6.85,1.71-10.26,2.6a4.3,4.3,0,0,1-2.36-.07q-15.93-4.55-31.87-9.06l-1.54-.44c.08.51.11.86.2,1.19,1,4.07,2,8.15,3.09,12.22a3,3,0,0,0,.65,1.28c3.37,3.51,6.78,7,10.24,10.55l44-11.06,4.9,19.33-32.83,8.27L245,231.87l25.25-6.33,4.9,19.32-14,3.54c2.38,2.65,4.82,5,7.18,7.48s4.73,4.87,7.09,7.31l7.28,7.51-14.32,13.88-21.64-22.26c-1.38,4.72-2.61,9.22-3.9,13.67-1.08,0-16.84-4.39-19.19-5.33l3.52-12.43,3.53-12.42-10.89-11.21-9.15,32.21c-1.08,0-17.5-4.53-19.3-5.36l.46-1.6q5.74-20.2,11.49-40.39a2.16,2.16,0,0,0-.6-2.47c-3-3-6-6.14-9-9.19a3.53,3.53,0,0,0-1.41-.93c-4.25-1.25-8.51-2.44-12.77-3.65a6.16,6.16,0,0,0-.65-.1c.06.4.09.74.17,1.07q4.1,16.25,8.22,32.49a5.15,5.15,0,0,1-.06,2.88c-1,3.17-1.84,6.36-2.76,9.54-.1.34-.22.67-.38,1.15-.32-.28-.59-.48-.82-.71-2.42-2.5-4.83-5-7.27-7.51a3.82,3.82,0,0,1-1-1.83q-4.12-16.38-8.27-32.75c-.11-.43-.23-.86-.39-1.41-.38.33-.68.58-1,.85-3,2.86-5.89,5.73-8.86,8.57a3.56,3.56,0,0,0-1,1.71c-1.2,4.26-2.39,8.53-3.64,12.77a1.87,1.87,0,0,0,.55,2.11q15,15.39,30,30.83l.77.82c-4.74,4.64-9.48,9.21-14.31,13.88l-23.55-24.24-4.28,15.07L159.17,287l-14.32,13.88-10.12-10.38Zm38.56-172.45a6.23,6.23,0,0,0,.57-.42q6.64-6.42,13.29-12.84a1.49,1.49,0,0,0,.4-1.66c-1.49-5.88-3-11.78-4.43-17.66a5.47,5.47,0,0,0-.34-.8,2.43,2.43,0,0,0-.31.2q-6.76,6.58-13.53,13.16a1.28,1.28,0,0,0-.35,1.43c.6,2.29,1.17,4.58,1.75,6.88Zm-12.45,3.1c-.09-.46-.13-.8-.22-1.13-1.43-5.67-2.89-11.34-4.27-17a1.87,1.87,0,0,0-1.56-1.53c-5.47-1.52-10.93-3.09-16.39-4.63-.41-.12-.84-.19-1.45-.33l4.77,19.23ZM193,162.41l14.17-13.86c-.42-.16-.65-.28-.9-.35-5.71-1.63-11.43-3.23-17.14-4.89a1.58,1.58,0,0,0-1.75.53q-6.28,6.12-12.58,12.22c-.28.27-.52.56-.86.93Zm-77.57,9.2,19.33,5.49,14.21-13.79-19.36-5.5Zm42.53.91a3.84,3.84,0,0,0-.4.26q-6.69,6.48-13.4,12.95a1.36,1.36,0,0,0-.36,1.54c1.5,5.8,3,11.6,4.46,17.4.06.23.17.45.32.83l14.24-13.76ZM194.37,194c-.06-.38-.07-.55-.11-.72-1.46-5.85-2.95-11.69-4.38-17.55a1.57,1.57,0,0,0-1.32-1.27c-5.6-1.57-11.18-3.17-16.77-4.75-.41-.12-.83-.19-1.48-.34l4.85,19.17Z"/></g></g></svg>