<svg xmlns="http://www.w3.org/2000/svg" viewBox="0 0 354.16 335.8"><defs><style>.cls-1{fill:#81b4d4;}.cls-2{fill:#009444;}.cls-3{fill:#231f20;}.cls-4{fill:#e8ecee;stroke:#231f20;stroke-miterlimit:10;stroke-width:2.2px;}.cls-5{fill:#f7941d;}.cls-6{fill:#f36e24;}.cls-7{fill:#d35461;}</style></defs><title>orangeboy</title><g id="Layer_2" data-name="Layer 2"><g id="Layer_7" data-name="Layer 7"><path class="cls-1" d="M325.1,325.59c-12-10-54.7-15.73-106-16-63.12-.33-95.59,7.64-95.59,17s46.47,9,109.59,9S333.67,332.74,325.1,325.59Z"/><path class="cls-2" d="M351.87,35.92c13.63-5.17-36.33,23.64-77.19,18.89s-79.72-21.75-78-36.93,11.15-22.2,51.67-15.08C288.21,9.79,325.85,45.79,351.87,35.92Z"/><polygon class="cls-2" points="221.89 52.73 215.18 52.38 214.3 34.58 223.23 36.18 221.89 52.73"/><path class="cls-3" d="M55.19,130.77c-25-17-32-39-38-31.46-2.08,2.61,17.06,31.4,44.07,44.85,26.13,13,37.51,15,39.59,12.39C108.26,147.29,80.14,147.73,55.19,130.77Z"/><path class="cls-4" d="M1.1,97.42c.2-11.64,9.46-21.71,21.09-21.09,7.75.42,10.36,6.26,15.82,14.19,2.87-5.78,4.85-7.93,10.69-5.89,3.06,1.07,3.39,7.17.88,13.26a36.5,36.5,0,0,1-5.34,8.85,2.89,2.89,0,0,1,1,1c1.62,2.81-2.16,8-8.43,11.64s-12.68,4.29-14.3,1.48a3.28,3.28,0,0,1-.27-2.35h0C10.11,118.26.91,109,1.1,97.42Z"/><path class="cls-3" d="M214.33,335.12c6.92-.68,14.63-2.73,17.11-4.46,3.64-2.54,1.57-16.34,1.31-19.93l-3.46-46.43c-.27-3.59-4.22-2.64-9.11-2.27h0c-1.82,9.29-.25,51.55-4,54.16-14.66,10.14-31.68,18.33-18.2,19.31A71.87,71.87,0,0,0,214.33,335.12Z"/><path class="cls-3" d="M144.14,327.62c7,0,14.82-1.32,17.45-2.81,3.86-2.18,3.12-16.11,3.2-19.71l1-46.55c.08-3.6-3.95-3-8.85-3.13h0c-2.69,9.08-5.17,51.29-9.16,53.53-15.56,8.7-33.28,15.22-20,17.49A71.87,71.87,0,0,0,144.14,327.62Z"/><ellipse class="cls-5" cx="199.43" cy="159.64" rx="121.1" ry="110.98"/><path class="cls-6" d="M182.56,255.57c64.61,0,117-48.83,117-109.05,0-34.52-17.21-65.28-44.05-85.27,38.66,18.54,65,55.64,65,98.39,0,61.29-54.22,111-121.1,111-39.9,0-75.28-17.68-97.34-45C123.06,244.2,151.38,255.57,182.56,255.57Z"/><circle class="cls-3" cx="233.57" cy="134.25" r="7.04" transform="translate(86.75 360.13) rotate(-86.87)"/><circle class="cls-3" cx="133.79" cy="123.97" r="7.04" transform="translate(2.69 250.79) rotate(-86.87)"/><path class="cls-3" d="M223,95.69c-.41,1.25,6.43-1.17,14,1.3s11.56,8,12,6.75-3.65-6.54-11.23-9S223.44,94.44,223,95.69Z"/><path class="cls-3" d="M149.17,92c.2,1.3-6-1.63-13.88-.41s-12.8,6-13,4.65,4.76-5.79,12.64-7S149,90.68,149.17,92Z"/><path class="cls-7" d="M153.36,158.63c1.77,7.06,10,13.23,22.6,13.35s21-5.89,22.86-12.9c2.28-8.68-1.12-12.28-22.6-13.35C152.18,144.54,151.6,151.6,153.36,158.63Z"/><path class="cls-3" d="M317.7,218.16c2.7,30.05-8.65,56.24,1,56.09,3.34-.05,13.47-33.1,6.75-62.51-6.5-28.46-12.17-38.52-15.51-38.47C298.09,173.44,315,188.1,317.7,218.16Z"/><path class="cls-4" d="M296.62,251.45a25.1,25.1,0,0,1,12.21-6c-1.2-.9-1.85-1.87-1.76-2.84.27-2.93,7.2-4.68,15.47-3.9s14.75,3.78,14.47,6.71c-.12,1.29-1.53,2.35-3.78,3.07,4.8,3.15,8.21,9.18,5.54,21.58-2.56,11.9-16.23,14.4-26.54,12.41-9.79-1.89-12.77-7.29-11.12-17.87-3,1.34-6,1.31-7.67-.38C290.79,261.58,292.21,255.86,296.62,251.45Z"/></g></g></svg>