<svg id="building" xmlns="http://www.w3.org/2000/svg" viewBox="0 0 611.78 213.25">
  <defs>
    <style>
      .cls-1, .cls-3 {
        fill: none;
      }

      .cls-1, .cls-3, .cls-4 {
        stroke: #d1d1d1;
        stroke-miterlimit: 10;
      }

      .cls-1 {
        stroke-width: 1.79px;
      }

      .cls-2 {
        fill: #636666;
      }

      .cls-3, .cls-4 {
        stroke-width: 1.48px;
      }

      .cls-4 {
        fill: #fff;
      }
    </style>
  </defs>
  <title>Asset 6</title>
  <g id="Layer_2" data-name="Layer 2">
    <g id="Layer_1-2" data-name="Layer 1">
      <g>
        <g id="main_banner" data-name="main banner">
          <rect class="cls-1" x="227.01" y="77.55" width="72.48" height="103.25"/>
          <rect class="cls-1" x="299.49" y="100.69" width="153.84" height="80.11"/>
          <rect class="cls-1" x="192.02" y="100.69" width="34.81" height="80.11"/>
          <rect class="cls-1" x="303.97" y="110.83" width="10.14" height="9.15"/>
          <path class="cls-1" d="M309,106.79c-2.78,0-5,1.79-5,4.13h10.14C314.11,108.58,311.78,106.79,309,106.79Z"/>
          <rect class="cls-1" x="318.95" y="110.83" width="10.14" height="9.15"/>
          <path class="cls-1" d="M324,106.79c-2.78,0-5,1.79-5,4.13h10.14C329,108.58,326.76,106.79,324,106.79Z"/>
          <rect class="cls-1" x="333.93" y="110.83" width="10.14" height="9.15"/>
          <path class="cls-1" d="M339,106.79c-2.78,0-5,1.79-5,4.13h10.14C344,108.58,341.74,106.79,339,106.79Z"/>
          <rect class="cls-1" x="348.83" y="110.83" width="10.14" height="9.15"/>
          <path class="cls-1" d="M353.94,106.79c-2.78,0-5,1.79-5,4.13h10.14C359,108.58,356.72,106.79,353.94,106.79Z"/>
          <rect class="cls-1" x="363.81" y="110.83" width="10.14" height="9.15"/>
          <path class="cls-1" d="M368.83,106.79c-2.78,0-5,1.79-5,4.13h10.14C373.94,108.58,371.7,106.79,368.83,106.79Z"/>
          <rect class="cls-1" x="378.79" y="110.83" width="10.14" height="9.15"/>
          <path class="cls-1" d="M383.81,106.79c-2.78,0-5,1.79-5,4.13h10.14C388.92,108.58,386.59,106.79,383.81,106.79Z"/>
          <rect class="cls-1" x="393.77" y="110.83" width="10.14" height="9.15"/>
          <path class="cls-1" d="M398.79,106.79c-2.78,0-5,1.79-5,4.13H403.9C403.81,108.58,401.57,106.79,398.79,106.79Z"/>
          <rect class="cls-1" x="408.66" y="110.83" width="10.14" height="9.15"/>
          <path class="cls-1" d="M413.77,106.79c-2.78,0-5,1.79-5,4.13h10.14C418.79,108.58,416.55,106.79,413.77,106.79Z"/>
          <rect class="cls-1" x="303.97" y="128.68" width="10.14" height="9.15"/>
          <path class="cls-1" d="M309,124.64c-2.78,0-5,1.79-5,4.13h10.14C314.11,126.44,311.78,124.64,309,124.64Z"/>
          <rect class="cls-1" x="318.95" y="128.68" width="10.14" height="9.15"/>
          <path class="cls-1" d="M324,124.64c-2.78,0-5,1.79-5,4.13h10.14C329,126.44,326.76,124.64,324,124.64Z"/>
          <rect class="cls-1" x="333.93" y="128.68" width="10.14" height="9.15"/>
          <path class="cls-1" d="M339,124.64c-2.78,0-5,1.79-5,4.13h10.14C344,126.44,341.74,124.64,339,124.64Z"/>
          <rect class="cls-1" x="348.83" y="128.68" width="10.14" height="9.15"/>
          <path class="cls-1" d="M353.94,124.64c-2.78,0-5,1.79-5,4.13h10.14C359,126.44,356.72,124.64,353.94,124.64Z"/>
          <rect class="cls-1" x="363.81" y="128.68" width="10.14" height="9.15"/>
          <path class="cls-1" d="M368.83,124.64c-2.78,0-5,1.79-5,4.13h10.14C373.94,126.44,371.7,124.64,368.83,124.64Z"/>
          <rect class="cls-1" x="378.79" y="128.68" width="10.14" height="9.15"/>
          <path class="cls-1" d="M383.81,124.64c-2.78,0-5,1.79-5,4.13h10.14C388.92,126.44,386.59,124.64,383.81,124.64Z"/>
          <rect class="cls-1" x="393.77" y="128.68" width="10.14" height="9.15"/>
          <path class="cls-1" d="M398.79,124.64c-2.78,0-5,1.79-5,4.13H403.9C403.81,126.44,401.57,124.64,398.79,124.64Z"/>
          <rect class="cls-1" x="408.66" y="128.68" width="10.14" height="9.15"/>
          <path class="cls-1" d="M413.77,124.64c-2.78,0-5,1.79-5,4.13h10.14C418.79,126.44,416.55,124.64,413.77,124.64Z"/>
          <rect class="cls-1" x="303.97" y="145.72" width="10.14" height="9.15"/>
          <path class="cls-1" d="M309,141.6c-2.78,0-5,1.79-5,4.13h10.14C314.11,143.48,311.78,141.6,309,141.6Z"/>
          <rect class="cls-1" x="318.95" y="145.72" width="10.14" height="9.15"/>
          <path class="cls-1" d="M324,141.6c-2.78,0-5,1.79-5,4.13h10.14C329,143.48,326.76,141.6,324,141.6Z"/>
          <rect class="cls-1" x="333.93" y="145.72" width="10.14" height="9.15"/>
          <path class="cls-1" d="M339,141.6c-2.78,0-5,1.79-5,4.13h10.14C344,143.48,341.74,141.6,339,141.6Z"/>
          <rect class="cls-1" x="348.83" y="145.72" width="10.14" height="9.15"/>
          <path class="cls-1" d="M353.94,141.6c-2.78,0-5,1.79-5,4.13h10.14C359,143.48,356.72,141.6,353.94,141.6Z"/>
          <rect class="cls-1" x="363.81" y="145.72" width="10.14" height="9.15"/>
          <path class="cls-1" d="M368.83,141.6c-2.78,0-5,1.79-5,4.13h10.14C373.94,143.48,371.7,141.6,368.83,141.6Z"/>
          <rect class="cls-1" x="378.79" y="145.72" width="10.14" height="9.15"/>
          <path class="cls-1" d="M383.81,141.6c-2.78,0-5,1.79-5,4.13h10.14C388.92,143.48,386.59,141.6,383.81,141.6Z"/>
          <rect class="cls-1" x="393.77" y="145.72" width="10.14" height="9.15"/>
          <path class="cls-1" d="M398.79,141.6c-2.78,0-5,1.79-5,4.13H403.9C403.81,143.48,401.57,141.6,398.79,141.6Z"/>
          <rect class="cls-1" x="408.66" y="145.72" width="10.14" height="9.15"/>
          <path class="cls-1" d="M413.77,141.6c-2.78,0-5,1.79-5,4.13h10.14C418.79,143.48,416.55,141.6,413.77,141.6Z"/>
          <rect class="cls-1" x="303.97" y="164.2" width="10.14" height="9.15"/>
          <path class="cls-1" d="M309,160.07c-2.78,0-5,1.79-5,4.13h10.14C314.11,162,311.78,160.07,309,160.07Z"/>
          <rect class="cls-1" x="318.95" y="164.2" width="10.14" height="9.15"/>
          <path class="cls-1" d="M324,160.07c-2.78,0-5,1.79-5,4.13h10.14C329,162,326.76,160.07,324,160.07Z"/>
          <rect class="cls-1" x="333.93" y="164.2" width="10.14" height="9.15"/>
          <path class="cls-1" d="M339,160.07c-2.78,0-5,1.79-5,4.13h10.14C344,162,341.74,160.07,339,160.07Z"/>
          <rect class="cls-1" x="348.83" y="164.2" width="10.14" height="9.15"/>
          <path class="cls-1" d="M353.94,160.07c-2.78,0-5,1.79-5,4.13h10.14C359,162,356.72,160.07,353.94,160.07Z"/>
          <rect class="cls-1" x="363.81" y="164.2" width="10.14" height="9.15"/>
          <path class="cls-1" d="M368.83,160.07c-2.78,0-5,1.79-5,4.13h10.14C373.94,162,371.7,160.07,368.83,160.07Z"/>
          <rect class="cls-1" x="378.79" y="164.2" width="10.14" height="9.15"/>
          <path class="cls-1" d="M383.81,160.07c-2.78,0-5,1.79-5,4.13h10.14C388.92,162,386.59,160.07,383.81,160.07Z"/>
          <rect class="cls-1" x="393.77" y="164.2" width="10.14" height="9.15"/>
          <path class="cls-1" d="M398.79,160.07c-2.78,0-5,1.79-5,4.13H403.9C403.81,162,401.57,160.07,398.79,160.07Z"/>
          <rect class="cls-1" x="408.66" y="164.2" width="10.14" height="9.15"/>
          <path class="cls-1" d="M413.77,160.07c-2.78,0-5,1.79-5,4.13h10.14C418.79,162,416.55,160.07,413.77,160.07Z"/>
          <rect class="cls-1" x="423.37" y="110.83" width="10.14" height="9.15"/>
          <path class="cls-1" d="M428.39,106.79c-2.78,0-5,1.79-5,4.13h10.14C433.42,108.58,431.17,106.79,428.39,106.79Z"/>
          <rect class="cls-1" x="438.26" y="110.83" width="10.14" height="9.15"/>
          <path class="cls-1" d="M443.37,106.79c-2.78,0-5,1.79-5,4.13h10.14C448.4,108.58,446.15,106.79,443.37,106.79Z"/>
          <rect class="cls-1" x="423.37" y="128.68" width="10.14" height="9.15"/>
          <path class="cls-1" d="M428.39,124.64c-2.78,0-5,1.79-5,4.13h10.14C433.42,126.44,431.17,124.64,428.39,124.64Z"/>
          <rect class="cls-1" x="438.26" y="128.68" width="10.14" height="9.15"/>
          <path class="cls-1" d="M443.37,124.64c-2.78,0-5,1.79-5,4.13h10.14C448.4,126.44,446.15,124.64,443.37,124.64Z"/>
          <rect class="cls-1" x="423.37" y="145.72" width="10.14" height="9.15"/>
          <path class="cls-1" d="M428.39,141.6c-2.78,0-5,1.79-5,4.13h10.14C433.42,143.48,431.17,141.6,428.39,141.6Z"/>
          <rect class="cls-1" x="438.26" y="145.72" width="10.14" height="9.15"/>
          <path class="cls-1" d="M443.37,141.6c-2.78,0-5,1.79-5,4.13h10.14C448.4,143.48,446.15,141.6,443.37,141.6Z"/>
          <rect class="cls-1" x="423.37" y="164.2" width="10.14" height="9.15"/>
          <path class="cls-1" d="M428.39,160.07c-2.78,0-5,1.79-5,4.13h10.14C433.42,162,431.17,160.07,428.39,160.07Z"/>
          <rect class="cls-1" x="438.26" y="164.2" width="10.14" height="9.15"/>
          <path class="cls-1" d="M443.37,160.07c-2.78,0-5,1.79-5,4.13h10.14C448.4,162,446.15,160.07,443.37,160.07Z"/>
          <rect class="cls-1" x="196.51" y="110.83" width="10.14" height="9.15"/>
          <path class="cls-1" d="M201.53,106.79c-2.78,0-5,1.79-5,4.13h10.14C206.64,108.58,204.4,106.79,201.53,106.79Z"/>
          <rect class="cls-1" x="211.49" y="110.83" width="10.14" height="9.15"/>
          <path class="cls-1" d="M216.51,106.79c-2.78,0-5,1.79-5,4.13h10.14C221.62,108.58,219.29,106.79,216.51,106.79Z"/>
          <rect class="cls-1" x="196.51" y="128.68" width="10.14" height="9.15"/>
          <path class="cls-1" d="M201.53,124.64c-2.78,0-5,1.79-5,4.13h10.14C206.64,126.44,204.4,124.64,201.53,124.64Z"/>
          <rect class="cls-1" x="211.49" y="128.68" width="10.14" height="9.15"/>
          <path class="cls-1" d="M216.51,124.64c-2.78,0-5,1.79-5,4.13h10.14C221.62,126.44,219.29,124.64,216.51,124.64Z"/>
          <rect class="cls-1" x="196.51" y="145.72" width="10.14" height="9.15"/>
          <path class="cls-1" d="M201.53,141.6c-2.78,0-5,1.79-5,4.13h10.14C206.64,143.48,204.4,141.6,201.53,141.6Z"/>
          <rect class="cls-1" x="211.49" y="145.72" width="10.14" height="9.15"/>
          <path class="cls-1" d="M216.51,141.6c-2.78,0-5,1.79-5,4.13h10.14C221.62,143.48,219.29,141.6,216.51,141.6Z"/>
          <rect class="cls-1" x="196.51" y="164.2" width="10.14" height="9.15"/>
          <path class="cls-1" d="M201.53,160.07c-2.78,0-5,1.79-5,4.13h10.14C206.64,162,204.4,160.07,201.53,160.07Z"/>
          <rect class="cls-1" x="211.49" y="164.2" width="10.14" height="9.15"/>
          <path class="cls-1" d="M216.51,160.07c-2.78,0-5,1.79-5,4.13h10.14C221.62,162,219.29,160.07,216.51,160.07Z"/>
          <line class="cls-1" x1="227.01" y1="81.04" x2="299.49" y2="81.04"/>
          <line class="cls-1" x1="299.49" y1="103.29" x2="453.33" y2="103.29"/>
          <line class="cls-1" x1="192.02" y1="103.29" x2="226.74" y2="103.29"/>
          <line class="cls-1" x1="241.36" y1="83.83" x2="241.36" y2="180.8"/>
          <line class="cls-1" x1="285.31" y1="83.83" x2="285.31" y2="180.71"/>
          <rect class="cls-1" x="192.02" y="180.8" width="261.31" height="30.59"/>
          <path class="cls-2" d="M369.37,61.4a7.24,7.24,0,0,0-7.27,7.27c0,5.38,7.27,12.65,7.27,12.65s7.27-7.27,7.27-12.65a7.24,7.24,0,0,0-7.27-7.27Zm0,10a2.69,2.69,0,1,1,2.69-2.69,2.7,2.7,0,0,1-2.69,2.69Z"/>
          <path class="cls-2" d="M317.61,88.13c1.44,0,2.33.63,2.33,1.79a1.46,1.46,0,0,1-1.17,1.61,1.61,1.61,0,0,1,1.52,1.7c0,1.35-.9,2-2.51,2h-3V88.13ZM316.8,91c.81,0,1.7-.09,1.7-.81s-.63-.72-1.44-.72h-.72V91Zm.45,3c.9,0,1.61-.09,1.61-.81,0-.9-1-.9-2-.9h-.72v1.79Z"/>
          <path class="cls-2" d="M323,94l-.63,1.26h-1.52l3.5-7.27,3.5,7.27h-1.52L325.77,94Zm1.35-3.14-.9,2h1.79Z"/>
          <path class="cls-2" d="M331.51,92.26v3h-1.44v-3l-2.69-4.13H329l1.79,2.78,1.79-2.78h1.61Z"/>
          <path class="cls-2" d="M337.52,93.16h-1.08v2.06h-1.52V88.13h2.24c1.79,0,2.87.9,2.87,2.51a2.18,2.18,0,0,1-1.17,2.15l1.44,2.42h-1.61ZM337,92c1,0,1.61-.09,1.61-1.26s-.81-1.35-1.61-1.35h-.63V92Z"/>
          <path class="cls-2" d="M342.64,94l-.54,1.26h-1.52l3.5-7.27,3.5,7.27H346L345.51,94Zm1.44-3.14-.9,2H345Z"/>
          <path class="cls-2" d="M355.46,95.22H354V91.09L352,93.16l-2.15-2.06v4.13h-1.44V87.86L352,91.27l3.59-3.41Z"/>
          <path class="cls-2" d="M357,95.22V88.13h1.44v7.09Z"/>
          <path class="cls-2" d="M361.38,94l-.54,1.26h-1.52l3.5-7.27,3.5,7.27h-1.52L364.25,94Zm1.44-3.14-.9,2h1.79Z"/>
          <path class="cls-2" d="M368.65,91.18v4h-1.44V87.86l4.49,4.31v-4h1.44v7.36Z"/>
          <path class="cls-2" d="M383.45,95.22H382v-3h-3.14v3h-1.44V88.13h1.44V91h3.23V88.13h1.44Z"/>
          <path class="cls-2" d="M386.23,94l-.54,1.26h-1.52l3.5-7.27,3.5,7.27h-1.52L389.1,94Zm1.44-3.14-.9,2h1.79Z"/>
          <path class="cls-2" d="M397.18,95.22h-5.11V88.13h1.44V94h3.59Z"/>
          <path class="cls-2" d="M403.28,95.22h-5.11V88.13h1.44V94h3.59Z"/>
          <path class="cls-2" d="M406.86,93.33V92.17h2.51v1.17Z"/>
          <path class="cls-2" d="M418,93.51v1.7h-1.44v-1.7h-3.5a7.24,7.24,0,0,0,1.44-4.22h1.35a6.76,6.76,0,0,1-.63,3h1.35V88H418v4.31h.81v1.26Z"/>
          <path class="cls-2" d="M421.76,95.22h-1.44V89.66l-1,.27L419,88.76l2.87-.81v7.27Z"/>
          <path class="cls-2" d="M422.83,88.4a6.25,6.25,0,0,1,2.24-.45c1.52,0,2.33.9,2.33,2a1.66,1.66,0,0,1-1,1.52,2,2,0,0,1,1.26,1.79c0,1.44-1,2.24-2.51,2.24a4.67,4.67,0,0,1-2.6-.81l.63-1.17a4.3,4.3,0,0,0,1.79.63c.72,0,1.35-.18,1.26-1.08-.09-.63-.54-.9-1.35-.9H424V90.91h.9c.9,0,1.17-.45,1.17-.81,0-.63-.45-.81-1.08-.72a3.33,3.33,0,0,0-1.35.36Z"/>
          <line class="cls-1" x1="310.07" y1="64.27" x2="251.05" y2="64.27"/>
          <line class="cls-1" x1="342.9" y1="71.63" x2="319.31" y2="71.63"/>
          <circle class="cls-1" cx="315.1" cy="67.68" r="1.44"/>
          <path class="cls-1" d="M180.81,91.09h28.62a4.38,4.38,0,0,0,4.4-4.31"/>
          <path class="cls-1" d="M183.23,64.27h9.24a4.4,4.4,0,0,1,4.4-4.4h37.86a4.4,4.4,0,1,1,0,8.79h-9.24a4.4,4.4,0,0,1-4.4,4.4H183.23a4.4,4.4,0,0,1-4.4-4.4A4.46,4.46,0,0,1,183.23,64.27Z"/>
          <path class="cls-1" d="M444.63,65.53h-9.24a4.4,4.4,0,0,0-4.4-4.4H393.23a4.4,4.4,0,0,0,0,8.79h9.24a4.4,4.4,0,0,0,4.4,4.4h37.86a4.4,4.4,0,0,0,4.4-4.4,4.48,4.48,0,0,0-4.49-4.4Z"/>
          <circle class="cls-1" cx="204.85" cy="86.7" r="1.44"/>
          <line class="cls-1" x1="425.34" y1="193.62" x2="290.52" y2="193.62"/>
          <line class="cls-1" x1="359.23" y1="202.33" x2="220.1" y2="202.33"/>
          <line class="cls-1" x1="444.27" y1="193.62" x2="430.46" y2="193.62"/>
          <line class="cls-1" x1="214.54" y1="202.33" x2="200.63" y2="202.33"/>
        </g>
        <g>
          <path class="cls-2" d="M202.07,13.85h-5.85V5.68h1.67v6.68h4.19Z"/>
          <path class="cls-2" d="M203.32,13.85V5.68H205v8.16Z"/>
          <path class="cls-2" d="M208.41,8.94h3.86v1.48h-3.86v3.42h-1.67V5.68h5.85V7.23h-4.19Z"/>
          <path class="cls-2" d="M215.51,8.94h3.9v1.48h-3.9V12.3h4.22v1.55h-5.89V5.68h5.89V7.23h-4.22Z"/>
          <path class="cls-2" d="M224.5,13.85V5.68h1.67v8.16Z"/>
          <path class="cls-2" d="M232.34,7.34c-1.21-.59-3.12-.75-3.12.39,0,.53.6.8,1.31,1,1.65.51,2.71,1.16,2.71,2.66,0,3.49-4.92,2.84-5.82,1.81l.75-1.3c1.29.93,3.36.85,3.36-.43,0-.67-.66-1-1.5-1.29-1.48-.51-2.52-1-2.52-2.4,0-2.55,3.3-2.69,5.37-1.81Z"/>
          <path class="cls-2" d="M236.21,9.2v4.65h-1.67V5.38l5.12,5V5.68h1.67v8.47Z"/>
          <path class="cls-2" d="M243.27,7a.83.83,0,1,1,.92-.83,3.8,3.8,0,0,1-.77,1.61H243Z"/>
          <path class="cls-2" d="M249.13,7.16v6.68h-1.67V7.16h-2.33V5.68h6.34V7.16Z"/>
          <path class="cls-2" d="M257.63,12.43,257,13.85H255.2l4.05-8.4,4.05,8.4h-1.8l-.63-1.41Zm1.62-3.61-1,2.27h2Z"/>
          <path class="cls-2" d="M267.46,5.68c1.68,0,2.72.76,2.72,2.08a1.69,1.69,0,0,1-1.31,1.82,1.87,1.87,0,0,1,1.77,2c0,1.55-1.09,2.31-2.87,2.31h-3.54V5.68Zm-.91,3.26c1,0,1.95-.11,1.95-.92s-.7-.88-1.7-.88h-.87v1.8Zm.52,3.45c1.06,0,1.88-.11,1.88-1,0-1-1.13-1.07-2.24-1.07h-.78v2Z"/>
          <path class="cls-2" d="M279.82,9.76a4.11,4.11,0,1,1-8.21,0,4.11,4.11,0,1,1,8.21,0Zm-6.49,0c0,1.71.84,2.71,2.38,2.71s2.38-1,2.38-2.71-.84-2.71-2.38-2.71S273.34,8,273.34,9.76Z"/>
          <path class="cls-2" d="M287.9,10.31c0,2.34-1.17,3.71-3.41,3.71s-3.38-1.36-3.38-3.7V5.68h1.67V10.1c0,1.63.41,2.43,1.72,2.43s1.74-.8,1.74-2.43V5.68h1.67Z"/>
          <path class="cls-2" d="M293,7.16v6.68h-1.67V7.16H289V5.68h6.34V7.16Z"/>
          <path class="cls-2" d="M301.53,8.94h3.86v1.48h-3.86v3.42h-1.67V5.68h5.86V7.23h-4.19Z"/>
          <path class="cls-2" d="M307,13.85V5.68h1.67v8.16Z"/>
          <path class="cls-2" d="M312.11,9.2v4.65h-1.67V5.38l5.12,5V5.68h1.67v8.47Z"/>
          <path class="cls-2" d="M321.71,5.68a3.86,3.86,0,0,1,4.21,4.09c0,2.74-1.84,4.07-4.21,4.07h-2.8V5.68Zm0,6.6a2.21,2.21,0,0,0,2.51-2.51,2.22,2.22,0,0,0-2.51-2.53h-1.12v5Z"/>
          <path class="cls-2" d="M327.38,13.85V5.68H329v8.16Z"/>
          <path class="cls-2" d="M332.46,9.2v4.65h-1.67V5.38l5.12,5V5.68h1.67v8.47Z"/>
          <path class="cls-2" d="M346.35,9.24v3.11A4,4,0,0,1,342.92,14c-2.59,0-4-2-4-4.26a4,4,0,0,1,4-4.26,4,4,0,0,1,3.43,1.64l-1.16.92A2.8,2.8,0,0,0,343,7c-1.47,0-2.33,1.15-2.33,2.78s.88,2.78,2.26,2.78a2.58,2.58,0,0,0,1.76-.61V10.58h-1.46V9.24Z"/>
          <path class="cls-2" d="M355.14,10.39v3.45h-1.67V10.39L350.4,5.68h1.82l2.09,3.25,2.09-3.25h1.82Z"/>
          <path class="cls-2" d="M367,9.76a4.11,4.11,0,1,1-8.21,0,4.11,4.11,0,1,1,8.21,0Zm-6.49,0c0,1.71.84,2.71,2.38,2.71s2.38-1,2.38-2.71-.84-2.71-2.38-2.71S360.55,8,360.55,9.76Z"/>
          <path class="cls-2" d="M375.12,10.31c0,2.34-1.17,3.71-3.41,3.71s-3.38-1.36-3.38-3.7V5.68H370V10.1c0,1.63.41,2.43,1.72,2.43s1.74-.8,1.74-2.43V5.68h1.67Z"/>
          <path class="cls-2" d="M379.65,11.48h-1.28v2.36H376.7V5.68h2.6c2.1,0,3.32,1.07,3.32,2.93a2.59,2.59,0,0,1-1.36,2.47l1.59,2.77H381Zm-.59-1.4c1.14,0,1.9-.13,1.9-1.47s-.95-1.51-1.9-1.51h-.69v3Z"/>
          <path class="cls-2" d="M388.4,7.34c-1.21-.59-3.12-.75-3.12.39,0,.53.6.8,1.31,1,1.65.51,2.71,1.16,2.71,2.66,0,3.49-4.92,2.84-5.82,1.81l.75-1.3c1.29.93,3.36.85,3.36-.43,0-.67-.66-1-1.5-1.29-1.48-.51-2.52-1-2.52-2.4,0-2.55,3.3-2.69,5.37-1.81Z"/>
          <path class="cls-2" d="M392.28,8.94h3.9v1.48h-3.9V12.3h4.22v1.55h-5.89V5.68h5.89V7.23h-4.22Z"/>
          <path class="cls-2" d="M403.72,13.85h-5.86V5.68h1.67v6.68h4.19Z"/>
          <path class="cls-2" d="M406.58,8.94h3.86v1.48h-3.86v3.42h-1.67V5.68h5.86V7.23h-4.19Z"/>
          <path class="cls-2" d="M412.36,13.12a.84.84,0,0,1-1.68,0,.84.84,0,1,1,1.68,0Z"/>
          <path class="cls-2" d="M206.21,27.84h-5.85V19.68H202v6.68h4.19Z"/>
          <path class="cls-2" d="M207.46,27.84V19.68h1.67v8.16Z"/>
          <path class="cls-2" d="M212.55,22.94h3.86v1.48h-3.86v3.42h-1.67V19.68h5.85v1.55h-4.19Z"/>
          <path class="cls-2" d="M219.65,22.94h3.9v1.48h-3.9v1.87h4.22v1.55H218V19.68h5.89v1.55h-4.22Z"/>
          <path class="cls-2" d="M228.64,27.84V19.68h1.67v8.16Z"/>
          <path class="cls-2" d="M236.48,21.33c-1.21-.59-3.12-.75-3.12.39,0,.53.6.8,1.31,1,1.65.51,2.71,1.16,2.71,2.66,0,3.49-4.92,2.84-5.82,1.81l.75-1.3c1.29.93,3.36.85,3.36-.43,0-.67-.66-1-1.5-1.29-1.48-.51-2.52-1-2.52-2.4,0-2.55,3.3-2.69,5.37-1.81Z"/>
          <path class="cls-2" d="M243.67,26.43,243,27.84h-1.79l4.05-8.4,4.05,8.4h-1.8l-.63-1.41Zm1.62-3.61-1,2.27h2Z"/>
          <path class="cls-2" d="M253.5,19.68c1.68,0,2.72.76,2.72,2.08a1.69,1.69,0,0,1-1.31,1.82,1.87,1.87,0,0,1,1.77,2c0,1.55-1.09,2.31-2.87,2.31h-3.54V19.68Zm-.91,3.26c1,0,1.95-.11,1.95-.92s-.7-.88-1.7-.88H252v1.8Zm.52,3.45c1.06,0,1.88-.11,1.88-1,0-1-1.13-1.07-2.24-1.07H252v2Z"/>
          <path class="cls-2" d="M265.86,23.76a4.11,4.11,0,1,1-8.21,0,4.11,4.11,0,1,1,8.21,0Zm-6.49,0c0,1.71.84,2.71,2.38,2.71s2.38-1,2.38-2.71-.84-2.71-2.38-2.71S259.38,22,259.38,23.76Z"/>
          <path class="cls-2" d="M273.94,24.31c0,2.34-1.17,3.71-3.41,3.71s-3.38-1.36-3.38-3.7V19.68h1.67v4.41c0,1.63.41,2.43,1.72,2.43s1.74-.8,1.74-2.43V19.68h1.67Z"/>
          <path class="cls-2" d="M279,21.16v6.68h-1.67V21.16H275V19.68h6.34v1.48Z"/>
          <path class="cls-2" d="M292.91,26.35A4.11,4.11,0,0,1,289.57,28c-2.8,0-4-2.06-4-4.26,0-2.69,1.61-4.26,4-4.26a4.06,4.06,0,0,1,3.35,1.64l-1.26,1a2.63,2.63,0,0,0-2.05-1.09c-1.58,0-2.3,1.06-2.3,2.69s.73,2.69,2.3,2.69a2.77,2.77,0,0,0,2.05-1.09Z"/>
          <path class="cls-2" d="M297,25.48h-1.28v2.36h-1.67V19.68h2.6c2.1,0,3.32,1.07,3.32,2.93a2.59,2.59,0,0,1-1.36,2.47l1.59,2.77h-1.85Zm-.59-1.4c1.14,0,1.9-.13,1.9-1.47s-.95-1.51-1.9-1.51h-.69v3Z"/>
          <path class="cls-2" d="M303,22.94h3.9v1.48H303v1.87h4.22v1.55h-5.89V19.68h5.89v1.55H303Z"/>
          <path class="cls-2" d="M310.39,26.43l-.64,1.41H308l4-8.4,4.05,8.4h-1.8l-.63-1.41ZM312,22.82l-1,2.27h2Z"/>
          <path class="cls-2" d="M319.64,21.16v6.68H318V21.16h-2.33V19.68H322v1.48Z"/>
          <path class="cls-2" d="M323.24,27.84V19.68h1.67v8.16Z"/>
          <path class="cls-2" d="M328.32,23.19v4.65h-1.67V19.37l5.12,5V19.68h1.67v8.47Z"/>
          <path class="cls-2" d="M342.21,23.24v3.11A4,4,0,0,1,338.77,28c-2.59,0-4-2-4-4.26a4,4,0,0,1,4-4.26,4,4,0,0,1,3.43,1.64l-1.16.92A2.8,2.8,0,0,0,338.84,21c-1.47,0-2.33,1.15-2.33,2.78s.88,2.78,2.26,2.78a2.58,2.58,0,0,0,1.76-.61V24.57h-1.46V23.24Z"/>
          <path class="cls-2" d="M351,24.39v3.45h-1.67V24.39l-3.08-4.71h1.82l2.09,3.25,2.09-3.25h1.82Z"/>
          <path class="cls-2" d="M362.9,23.76a4.11,4.11,0,1,1-8.21,0,4.11,4.11,0,1,1,8.21,0Zm-6.49,0c0,1.71.84,2.71,2.38,2.71s2.38-1,2.38-2.71-.84-2.71-2.38-2.71S356.41,22,356.41,23.76Z"/>
          <path class="cls-2" d="M371,24.31c0,2.34-1.17,3.71-3.41,3.71s-3.38-1.36-3.38-3.7V19.68h1.67v4.41c0,1.63.41,2.43,1.72,2.43s1.74-.8,1.74-2.43V19.68H371Z"/>
          <path class="cls-2" d="M375.51,25.48h-1.28v2.36h-1.67V19.68h2.6c2.1,0,3.32,1.07,3.32,2.93a2.59,2.59,0,0,1-1.36,2.47l1.59,2.77h-1.85Zm-.59-1.4c1.14,0,1.9-.13,1.9-1.47s-.95-1.51-1.9-1.51h-.69v3Z"/>
          <path class="cls-2" d="M384.25,21.33c-1.21-.59-3.12-.75-3.12.39,0,.53.6.8,1.31,1,1.65.51,2.71,1.16,2.71,2.66,0,3.49-4.92,2.84-5.82,1.81l.75-1.3c1.29.93,3.36.85,3.36-.43,0-.67-.66-1-1.5-1.29-1.48-.51-2.52-1-2.52-2.4,0-2.55,3.3-2.69,5.37-1.81Z"/>
          <path class="cls-2" d="M388.14,22.94H392v1.48h-3.9v1.87h4.22v1.55h-5.89V19.68h5.89v1.55h-4.22Z"/>
          <path class="cls-2" d="M399.58,27.84h-5.86V19.68h1.67v6.68h4.19Z"/>
          <path class="cls-2" d="M402.44,22.94h3.86v1.48h-3.86v3.42h-1.67V19.68h5.86v1.55h-4.19Z"/>
          <path class="cls-2" d="M408.22,27.12a.84.84,0,0,1-1.68,0,.84.84,0,1,1,1.68,0Z"/>
          <path class="cls-2" d="M292.62,41.39l.11-.61h2.72l-.11.61Z"/>
          <path class="cls-2" d="M307.1,39.59l-.48,2.73a4.34,4.34,0,0,1-3.41,1.56c-2.42,0-3.35-1.91-3-4a4.56,4.56,0,0,1,4.39-4,3,3,0,0,1,2.86,1.54l-.57.38a2.51,2.51,0,0,0-2.4-1.31,3.74,3.74,0,0,0-3.59,3.37c-.36,2.08.73,3.37,2.4,3.37A3.47,3.47,0,0,0,306,42.12l.34-1.92h-2.26l.11-.61Z"/>
          <path class="cls-2" d="M308.89,41.39c-.1,1.11.41,2,1.66,2a3.82,3.82,0,0,0,1.78-.56l.16.52a4,4,0,0,1-2,.59c-1.94,0-2.48-1.44-2.23-2.89a3.2,3.2,0,0,1,3.07-2.88c2,0,2.27,1.45,2,3.25Zm3.85-.51c.2-1.29-.12-2.21-1.49-2.21A2.41,2.41,0,0,0,309,40.88Z"/>
          <path class="cls-2" d="M319.8,41a3.16,3.16,0,0,1-3.16,2.89c-1.75,0-2.46-1.19-2.16-2.89a3.17,3.17,0,0,1,3.17-2.88C319.39,38.14,320.1,39.32,319.8,41Zm-4.65,0c-.24,1.38.27,2.37,1.57,2.37a2.52,2.52,0,0,0,2.4-2.37c.24-1.38-.27-2.35-1.57-2.35A2.5,2.5,0,0,0,315.15,41Z"/>
          <path class="cls-2" d="M322.36,38.26a3.78,3.78,0,0,1,0,.57c.71-.58,1.51-.93,2.17-.43l-.3.59c-.49-.41-1.23-.27-2,.49l-.74,4.23h-.66l1-5.45Z"/>
          <path class="cls-2" d="M329.28,43.32c-.34,1.91-1,2.86-2.75,2.86a3.22,3.22,0,0,1-2.12-.7l.35-.52a2.85,2.85,0,0,0,1.92.67c1.16,0,1.64-.61,1.87-1.93l.13-.71a2.74,2.74,0,0,1-1.89.83c-1.6,0-2.17-1.23-1.88-2.87s1.29-2.9,2.89-2.9a1.93,1.93,0,0,1,1.61.8,5,5,0,0,1,.17-.6h.6Zm0-3.69a1.63,1.63,0,0,0-1.52-1c-1.1,0-1.89.91-2.14,2.36s.21,2.35,1.32,2.35a2.41,2.41,0,0,0,1.88-1Z"/>
          <path class="cls-2" d="M331.79,41.39c-.1,1.11.41,2,1.66,2a3.82,3.82,0,0,0,1.78-.56l.16.52a4,4,0,0,1-2,.59c-1.94,0-2.48-1.44-2.23-2.89a3.2,3.2,0,0,1,3.07-2.88c2,0,2.27,1.45,2,3.25Zm3.85-.51c.2-1.29-.12-2.21-1.49-2.21a2.41,2.41,0,0,0-2.29,2.21Z"/>
          <path class="cls-2" d="M344.05,36.08c1.57,0,2.42.71,2.2,1.94a2,2,0,0,1-1.52,1.7,1.43,1.43,0,0,1,1.33,1.83c-.26,1.45-1.39,2.16-3.06,2.16h-2.41l1.34-7.62Zm-1.13,7c1.46,0,2.28-.44,2.47-1.54s-.43-1.45-2.08-1.45h-1.4l-.53,3Zm.43-3.61c1,0,2-.36,2.22-1.39s-.42-1.38-1.79-1.38h-1.26L342,39.48Z"/>
          <path class="cls-2" d="M348,41.39c-.1,1.11.41,2,1.66,2a3.82,3.82,0,0,0,1.78-.56l.16.52a4,4,0,0,1-2,.59c-1.94,0-2.48-1.44-2.23-2.89a3.2,3.2,0,0,1,3.07-2.88c2,0,2.27,1.45,2,3.25Zm3.85-.51c.2-1.29-.12-2.21-1.49-2.21A2.41,2.41,0,0,0,348,40.88Z"/>
          <path class="cls-2" d="M354.81,38.26a3.78,3.78,0,0,1,0,.57c.71-.58,1.51-.93,2.17-.43l-.3.59c-.49-.41-1.23-.27-2,.49l-.74,4.23h-.66l1-5.45Z"/>
          <path class="cls-2" d="M358.61,38.26a4.21,4.21,0,0,1-.06.72,3.36,3.36,0,0,1,2.1-.86c1.25,0,1.72.85,1.51,2l-.63,3.61h-.66l.61-3.47c.36-2-1.69-1.88-3-.67l-.73,4.13h-.66l1-5.45Z"/>
          <path class="cls-2" d="M364.22,38.69a6.31,6.31,0,0,1,2.33-.57c1.19,0,1.47.78,1.28,1.81l-.67,3.77h-.59a3.89,3.89,0,0,1,0-.61,3,3,0,0,1-1.9.8A1.5,1.5,0,0,1,363.13,42a2.15,2.15,0,0,1,2.25-1.87,5.37,5.37,0,0,1,1.71.3l.07-.41c.15-.88,0-1.33-.79-1.33a4.78,4.78,0,0,0-2,.53ZM367,40.93a4.82,4.82,0,0,0-1.62-.32,1.47,1.47,0,0,0-1.57,1.33c-.15.85.22,1.43,1.09,1.43a2.77,2.77,0,0,0,1.83-.87Z"/>
          <path class="cls-2" d="M370.48,38.26a3.78,3.78,0,0,1,0,.57c.71-.58,1.51-.93,2.17-.43l-.3.59c-.49-.41-1.23-.27-2,.49l-.74,4.23h-.66l1-5.45Z"/>
          <path class="cls-2" d="M377.35,43.71h-.6a4.07,4.07,0,0,1,0-.6,2.78,2.78,0,0,1-1.88.8c-1.6,0-2.17-1.23-1.88-2.89s1.29-2.88,2.89-2.88a1.88,1.88,0,0,1,1.6.83l.55-3.1h.66Zm0-4a1.57,1.57,0,0,0-1.51-1c-1.11,0-1.89.9-2.14,2.35s.22,2.36,1.32,2.36a2.49,2.49,0,0,0,1.87-1Z"/>
          <path class="cls-2" d="M387.81,37c-1-.64-3.63-1-4,.92-.16.89.82,1.11,1.62,1.37,1.42.47,2.32.92,2.08,2.31-.55,3.14-4.71,2.4-5.38,1.44l.42-.56c1,1,3.91,1.31,4.29-.87.2-1.09-.86-1.43-1.73-1.72-1.34-.45-2.18-.75-2-2,.41-2.32,3.19-2.34,5-1.53Z"/>
          <path class="cls-2" d="M390.26,39a3.36,3.36,0,0,1,2.09-.85c1.25,0,1.72.85,1.51,2l-.63,3.61h-.66l.61-3.47c.36-2-1.68-1.88-3-.67l-.73,4.13h-.66l1.38-7.84h.66Z"/>
          <path class="cls-2" d="M396,38.69a6.31,6.31,0,0,1,2.33-.57c1.19,0,1.47.78,1.28,1.81l-.67,3.77h-.59a3.89,3.89,0,0,1,0-.61,3,3,0,0,1-1.9.8A1.5,1.5,0,0,1,394.87,42a2.15,2.15,0,0,1,2.25-1.87,5.37,5.37,0,0,1,1.71.3l.07-.41c.15-.88,0-1.33-.79-1.33a4.78,4.78,0,0,0-2,.53Zm2.78,2.24a4.82,4.82,0,0,0-1.62-.32,1.47,1.47,0,0,0-1.57,1.33c-.15.85.22,1.43,1.09,1.43a2.77,2.77,0,0,0,1.83-.87Z"/>
          <path class="cls-2" d="M405,39.69,402.5,44l-1.36-5.77h.72l.93,4.23,2.5-4.33,1,4.33,2.42-4.22h.72L406,44Z"/>
        </g>
        <path class="cls-2" d="M181.43,3.28A3.1,3.1,0,0,1,181,9.45,3,3,0,0,1,178,6.37c0-1.28,1.39-3.77,3-6.37h1.57Zm7.79,0a3.1,3.1,0,0,1-.39,6.17,3,3,0,0,1-3.09-3.09c0-1.28,1.39-3.77,3-6.37h1.57Z"/>
        <path class="cls-2" d="M416.34,23a3.1,3.1,0,1,1,3.48-3.09c0,1.28-1.39,3.77-3,6.37h-1.57Zm7.79,0a3.1,3.1,0,1,1,3.48-3.09c0,1.28-1.39,3.77-3,6.37H423Z"/>
        <circle class="cls-3" cx="170.71" cy="160.48" r="13.27"/>
        <line class="cls-3" x1="170.71" y1="160.48" x2="170.71" y2="212.26"/>
        <circle class="cls-3" cx="141.35" cy="155.16" r="15.34"/>
        <line class="cls-3" x1="141.35" y1="155.16" x2="141.35" y2="212.35"/>
        <circle class="cls-3" cx="507.61" cy="176.66" r="13.27"/>
        <line class="cls-3" x1="507.61" y1="176.66" x2="507.61" y2="211.48"/>
        <circle class="cls-3" cx="478.25" cy="171.35" r="15.34"/>
        <line class="cls-3" x1="478.25" y1="171.35" x2="478.25" y2="211.57"/>
        <path class="cls-4" d="M39.09,188.18a2,2,0,0,1-.35,0c-.56-.14-1.76-1.34-3.8-1.34-3.49,0-7.13,3.71-7.13,7.32s1.9,6.43,5.91,6.43c3.19,0,5.16-1.27,5.72-1.27s1.31,1.15,1.31,1.69c0,1.5-2.67,2.81-6.64,2.81-5.68,0-9.45-3.92-9.45-8.82,0-5.32,4.13-11.07,10.11-11.07a9.73,9.73,0,0,1,2,.21c1,.19,3.21,1.06,3.31,2.63C40.06,187.78,39.73,188.18,39.09,188.18Z"/>
        <path class="cls-4" d="M59.09,189.4c-.47,0-2.18-2.13-5.61-2.13-2.09,0-4.13,1.43-4.13,3.28.26,3.45,11.66.09,11.66,7.39,0,2.58-3,5.86-7.46,5.86-3.94,0-6.94-1.62-6.94-4.08,0-.94.28-1.52.87-1.52s1.41,2.72,6.38,2.72c1.08,0,3.92-.7,3.92-3,0-4.22-11.66-.19-11.66-7.83,0-3.47,3.92-5.63,7.22-5.63a10.7,10.7,0,0,1,5.23,1.15A2.55,2.55,0,0,1,60,187.85C60,188.82,59.7,189.4,59.09,189.4Z"/>
        <path class="cls-4" d="M81,195.38c0,8-4.43,8.42-7.67,8.42-4.46,0-5.54-3.17-5.54-5.72,0-3.31.21-6.5.21-10.51,0-1.55.66-2.65,1.64-2.65.7,0,1.1,1.27,1.1,2,0,3.33-.35,6.24-.35,9.85,0,1.76.28,3.54,3.64,3.54,4,0,4.34-2.18,4.34-6.52,0-2.42-.33-3.66-.33-6.29A2.25,2.25,0,0,1,79.76,185,1.14,1.14,0,0,1,81,186.21Z"/>
        <path class="cls-4" d="M101.64,203.8c-2.11,0-7.25-8-11.28-12.41,0,4.46.07,8.73.07,9.31,0,1.27,0,2.88-1.24,2.88a1.55,1.55,0,0,1-1.48-1.74c0-14.26-.09-14.31-.09-14.57,0-1.27.14-2.25,1.27-2.25a1.49,1.49,0,0,1,1.31.91c1.29,2.18,6.59,10,9.92,13.42,0-9-.07-12.6-.07-12.83,0-1.27.33-2.25,1.45-2.25.7,0,1.38.54,1.41,2.16s-.09,4-.09,5.65c0,3,.07,8.23.07,8.82C102.88,202.18,102.88,203.8,101.64,203.8Z"/>
        <line class="cls-3" x1="28.89" y1="212.06" x2="28.89" y2="202.45"/>
        <line class="cls-3" x1="37.1" y1="212.06" x2="37.1" y2="202.45"/>
        <line class="cls-3" x1="48.9" y1="212.06" x2="48.9" y2="202.45"/>
        <line class="cls-3" x1="57.72" y1="212.06" x2="57.72" y2="202.45"/>
        <line class="cls-3" x1="69.57" y1="212.06" x2="69.57" y2="202.45"/>
        <line class="cls-3" x1="78.67" y1="212.06" x2="78.67" y2="202.45"/>
        <line class="cls-3" x1="89.19" y1="212.06" x2="89.19" y2="202.45"/>
        <line class="cls-3" x1="101.75" y1="212.06" x2="101.75" y2="202.45"/>
        <circle class="cls-4" cx="118.38" cy="154.55" r="13.27"/>
        <line class="cls-3" x1="118.38" y1="154.55" x2="118.38" y2="212.26"/>
        <path class="cls-3" d="M568.32,173.47c.14-.78.06-1.61.23-2.38.28-1.26.7-2.49,1-3.74s.63-2.73,1-4.08c.07-.24.4-.4.57-.63s.34-.4.33-.6c0-1-.2-2-.23-2.95a4.64,4.64,0,0,1,.21-1.83,2.12,2.12,0,0,0-1.65-3.12,9.57,9.57,0,0,1-1-.34l1-1.92c.47-.09,1,0,1.19-.27a1.29,1.29,0,0,0-.63-2c-.52-.15-1-.38-1.54-.55a5.69,5.69,0,0,0-1.23-.29c-.64-.05-1.29,0-1.94,0a1.3,1.3,0,0,0-1.34,1.22c-.11.77.42.92,1,1a.6.6,0,0,1,.18.1,1.29,1.29,0,0,0,.39,1.54c.13.15.28.49.21.59a5.6,5.6,0,0,1-1.08,1.29c-1.1.87-2.12,1.74-2.07,3.34a3.74,3.74,0,0,1-.32,1.52,28.89,28.89,0,0,0-2.32,7.79c0,.4.07.87-.1,1.19a18.09,18.09,0,0,1-1.43,2.07c-1.93,2.56-3.92,5.07-5.79,7.67-1.46,2-2.73,4.2-4.2,6.22a3,3,0,0,0-.68,2.41h23.18c-.17-.58-.32-1.18-.52-1.75a1.28,1.28,0,0,0-.45-.63c-.56-.35-1.19-.61-1.75-1a2.38,2.38,0,0,1-1.29-1.75,11.14,11.14,0,0,1,.45-6A9.36,9.36,0,0,0,568.32,173.47Zm-2.5-9.38c-.26.78-.61,1.52-.92,2.28a2.45,2.45,0,0,0,.15,2.1,1.61,1.61,0,0,1-.34,2c-1.06,1-2.08,2.09-3.12,3.13a6.6,6.6,0,0,1-.57.46c.16-1.38-.18-2.83.76-4a1.42,1.42,0,0,0,.19-.56c.45-2,.82-3.93,1.37-5.85a8.63,8.63,0,0,1,1.53-2.64,5,5,0,0,0,.2.71c.21.48.48.93.67,1.42A1.52,1.52,0,0,1,565.82,164.09Z"/>
        <polygon class="cls-3" points="580.67 210.8 538.15 210.8 544.66 189.75 574.16 189.75 580.67 210.8"/>
        <line class="cls-3" x1="549.34" y1="197.7" x2="568.17" y2="197.7"/>
        <line class="cls-3" x1="549.34" y1="201.65" x2="568.17" y2="201.65"/>
        <line class="cls-3" x1="549.34" y1="205.35" x2="568.17" y2="205.35"/>
        <rect class="cls-3" x="551.25" y="186.68" width="16.18" height="3.07"/>
        <line class="cls-1" y1="212.35" x2="611.78" y2="212.35"/>
      </g>
    </g>
  </g>
</svg>


