
<svg xmlns="http://www.w3.org/2000/svg" version="1.1" xmlns:xlink="http://www.w3.org/1999/xlink" preserveAspectRatio="none" x="0px" y="0px" width="550px" height="400px" viewBox="0 0 550 400">
<defs>
<g id="ban_l_arm_0_Layer0_0_FILL">
<path fill="#231F20" stroke="none" d="
M 78.85 144.5
Q 75.45 143.1 74.1 145 73.65 145.65 76.6 148.2 79.9 151.05 84.3 153.2 97.1 159.35 107.7 153.9 118.85 148.15 125.7 139.65 128.35 136.35 129.2 133.95 130 131.65 128.7 131.5 126.85 131.3 125.15 133.05 124.8 133.45 121.65 137.75 115.4 146.2 105.55 151.25 97.95 155.15 86.3 148.6 79.6 144.8 78.85 144.5 Z"/>
</g>

<g id="ban_l_arm_0_Layer0_1_FILL">
<path fill="#E8ECEE" stroke="none" d="
M 142 126.3
Q 140.6 121.65 136.85 119.05 131.55 115.4 123.8 126.25 121.3 121.85 117.6 122.75 114.8 123.45 115.35 127.05 115.6 128.65 117.4 133.2 117.8 134.35 118.6 135.55 117.35 135.55 117.05 136.05 116.55 136.9 118.05 138.7 119.55 140.55 122.25 142.25 124.95 144 127.25 144.55 129.55 145.15 130.1 144.25 130.5 143.65 129.8 142.55 132.8 142.05 135.85 140.05 138.9 138 140.8 135.25 143.5 131.4 142 126.3 Z"/>
</g>

<g id="Layer13_0_MEMBER_0_MEMBER_0_FILL">
<path fill="#231F20" stroke="none" d="
M 49 237.2
Q 47.05 237.2 47.8 244.3 48.2 248.1 49 254.3
L 47 279.45
Q 44.55 306.4 42.15 315.5 41.5 318 43.95 319.5 45.7 320.55 48.3 320.9 61.55 322.45 67.6 320.65 75.7 318.15 54.6 309.9 53.95 308.75 53.55 302 52.8 288.45 54.3 260.5 54.5 256.75 54.3 255.95 53.85 254.35 51.75 254.35
L 49 237.2 Z"/>
</g>

<g id="Layer13_0_MEMBER_0_MEMBER_1_FILL">
<path fill="#231F20" stroke="none" d="
M 80.1 250.8
L 77.95 251.55
Q 75.8 251.7 75.15 253.6 74.7 255 74.95 258.4
L 76.25 281.15
Q 77.2 305.3 75.5 312.55 74.9 315 77.2 316.15 78.1 316.6 81.3 317.2 85.15 317.9 90.6 317.9 96.35 317.85 99.15 316.95 106.8 314.55 86.25 308.75 85 306.85 83.55 299.4 80.7 284.4 79.9 256.4 79.85 254.7 81.15 252.05 81.8 250.65 80.1 250.8 Z"/>
</g>

<g id="Layer13_0_MEMBER_0_MEMBER_2_FILL">
<path fill="#FEE465" stroke="none" d="
M 127.95 11
Q 129.65 8.75 128.15 6.95 127.8 6.5 123.8 3.5 120.25 0.9 118.6 0.3 115.8 -0.65 114.1 1.65 111.8 3.8 108.45 8 101.75 16.4 96.6 26.75 95.1 29.8 95.4 32.7 95.75 35.9 98.2 37.75 100.8 39.65 102.65 39 104.55 38.25 105.15 35.1 106.95 25.05 117.65 17 123 13 127.95 11 Z"/>
</g>

<g id="Layer13_0_MEMBER_0_MEMBER_3_FILL">
<path fill="#FEE465" stroke="none" d="
M 109.2 31.5
Q 109.25 21 99.9 21 89.4 21 75.1 30.75 60 41.05 46.9 58.15 32.2 77.35 23.8 100.45 14.2 126.8 14.2 154.85 14.2 201 37.2 239.8 46.8 256 59 268.15 70.4 279.45 81.55 284.85 90.6 290.85 90.95 291.05 95.5 294.15 96.75 295.4 98.25 296.8 101.45 295.55 104.35 294.45 107.35 291.75 110.35 289 111.55 286.3 112.9 283.3 111.2 281.75 108.8 279.5 107.25 276.45 106.1 274.15 105.2 270.85 104.2 265.15 100.7 251.75 96.25 234.8 94.35 226.5 86.2 190.95 86.2 159.55 86.2 133.65 92.15 104.45 95.1 89.95 103.2 60.5 109.2 38.85 109.2 31.5 Z"/>
</g>

<g id="Layer13_0_MEMBER_0_MEMBER_4_FILL">
<path fill="#FFD449" stroke="none" d="
M 105.35 22.1
Q 102.8 20.85 100.1 21 89.6 21 75.3 30.75 60.2 41.05 47.1 58.15 32.4 77.35 24 100.45 14.4 126.8 14.4 154.85 14.4 201 37.4 239.8 47 256 59.2 268.15 70.6 279.45 81.75 284.85 90.8 290.85 91.15 291.05 95.7 294.15 96.95 295.4 98.3 296.7 101 295.85 103.45 295.05 106.25 292.85 102.95 293.1 99.05 290.4 95.1 287.75 94.35 284.8 84.25 284.3 72.45 273.35 60.7 262.45 50.55 244.4 39.85 225.4 33.75 203.2 27 178.85 27 154.8 27 128.7 34.7 103.7 41.75 80.95 54.1 62.05 65.75 44.35 79.55 33.6 93.2 23 105.35 22.1 Z"/>
</g>

<g id="Layer13_0_MEMBER_0_MEMBER_5_FILL">
<path fill="#754C29" stroke="none" d="
M 128.15 6.9
Q 127.7 6.4 123.8 3.5 120.25 0.85 118.6 0.3 115.8 -0.7 114.1 1.65 112.8 2.8 110.8 5.15 114.85 12.55 122.8 13.6 125.1 12.2 128 11 129.65 8.75 128.15 6.9 Z"/>
</g>

<g id="Layer13_0_MEMBER_0_MEMBER_6_FILL">
<path fill="#754C29" stroke="none" d="
M 100.4 285.45
Q 98.25 287.6 97.05 290.05 95.9 292.4 95.9 294.45 96.6 294.9 96.9 295.3 98.4 296.75 101.6 295.55 104.5 294.4 107.5 291.7 110.5 289 111.75 286.3 113.1 283.3 111.4 281.75
L 110.75 281.15
Q 108.65 280.6 105.8 281.75 102.9 282.95 100.4 285.45 Z"/>
</g>

<g id="Layer13_0_MEMBER_0_MEMBER_7_FILL">
<path fill="#231F20" stroke="none" d="
M 13 176
Q 13.75 168.35 19 156.4 20.95 151.8 21.25 150.35 21.75 148.05 20 147.9 18.15 147.7 13.9 157.7 9.05 169.3 7.8 181.6 6.55 194.55 7.7 203.1 8.75 210.9 10.55 208.7 12.5 206.25 12.4 198.1 12.15 184.5 13 176 Z"/>
</g>

<g id="Layer13_0_MEMBER_0_MEMBER_8_FILL">
<path fill="#E8ECEE" stroke="none" d="
M 4.5 195.9
Q 1.8 196.7 1.8 197.85 1.8 199.05 4.65 199.85 0.45 204.05 0.55 210 0.55 215.4 3.8 219.25 7.05 223.05 11.6 223.05 18.65 223.05 19.9 219.6 20.4 218.3 20.35 215.7 20.15 212.55 20.15 210.75 20.15 209.2 20.05 208.4 21.85 210.4 23.75 211.2 25.65 211.95 26.8 211.1 28.15 210.15 27.8 207.65 27.45 205.15 25.6 202.55 23.4 199.7 20.05 198.25
L 20.15 197.85
Q 20.15 196.7 17.45 195.9 14.8 195.1 11 195.1 7.2 195.1 4.5 195.9 Z"/>
</g>

<g id="Layer12_0_FILL">
<path fill="#231F20" stroke="none" d="
M 132.1 233.55
L 130.9 232.35
Q 130.15 237.45 134.85 237.9 137.9 238.15 139.2 236.2 139.75 235.4 140.05 233.65 139.45 234.1 138.55 234.45 136.75 235.2 135.2 234.95 133.6 234.75 132.1 233.55 Z"/>
</g>

<g id="dr_ban_eyes_0_Layer0_0_FILL">
<path fill="#231F20" stroke="none" d="
M 51.15 101.1
Q 49.7 101.1 48.6 102.15 47.55 103.2 47.55 104.7 47.55 106.2 48.6 107.25 49.7 108.3 51.15 108.3 52.65 108.3 53.7 107.25 54.75 106.2 54.75 104.7 54.75 103.2 53.7 102.15 52.65 101.1 51.15 101.1 Z"/>
</g>

<g id="dr_ban_eyes_0_Layer0_1_FILL">
<path fill="#231F20" stroke="none" d="
M 80.9 107.85
Q 79.85 108.9 79.85 110.4 79.85 111.85 80.9 112.9 81.95 113.95 83.45 113.95 84.95 113.95 86 112.9 87.05 111.85 87.05 110.4 87.05 108.9 86 107.85 84.95 106.8 83.45 106.8 81.95 106.8 80.9 107.85 Z"/>
</g>

<g id="dr_ban_brrows_0_Layer0_0_FILL">
<path fill="#231F20" stroke="none" d="
M 61.9 89.7
Q 61.9 89.25 60.35 88.95 58.75 88.6 56.55 88.6 54.3 88.6 52.75 88.95 51.15 89.25 51.15 89.7 51.15 90 52.75 89.9 55.65 89.7 56.55 89.7 57.45 89.7 60.35 89.9 61.9 90 61.9 89.7 Z"/>
</g>

<g id="dr_ban_brrows_0_Layer0_1_FILL">
<path fill="#231F20" stroke="none" d="
M 83.15 93
Q 81.6 92.7 81.4 93.1 81.25 93.45 82.7 93.9 85.95 95 86.25 95.1 87.05 95.45 89.55 96.75 90.9 97.45 91.05 97.1 91.25 96.7 89.95 95.8 88.65 94.95 86.65 94.1 84.7 93.3 83.15 93 Z"/>
</g>

<g id="Layer9_0_MEMBER_0_MEMBER_0_FILL">
<path fill="#FEF7BC" stroke="none" d="
M 465.6 112.5
L 348.8 112.5 14.15 150.8 193.3 160.75 465.6 112.5 Z"/>
</g>

<g id="Layer9_0_MEMBER_0_MEMBER_1_FILL">
<path fill="#FEEA98" stroke="none" d="
M 481.2 126.15
Q 481.2 116.15 473.85 113.55 468.15 111.55 455.85 113.65
L 169 154.1
Q 160.65 155.55 155.2 162.1 149.75 168.6 149.75 177.1
L 149.75 318.35
Q 149.75 330.35 162.8 338.25 168.6 341.75 175 342.75 181.7 343.8 187.2 341.75
L 469.8 260.2
Q 475.85 257.95 477.85 250.6 479.1 246 479.1 236.15
L 481.2 126.15 Z"/>
</g>

<g id="Layer9_0_MEMBER_0_MEMBER_2_FILL">
<path fill="#FDF5A4" stroke="none" d="
M 192.45 165
Q 192.45 159.1 188.3 154.95 184.15 150.8 178.25 150.8
L 14.15 150.8
Q 8.25 150.8 4.15 154.95 0 159.1 0 165
L 0 329.1
Q 0 335 4.15 339.1 8.25 343.25 14.15 343.25
L 178.25 343.25
Q 184.15 343.25 188.3 339.1 192.45 335 192.45 329.1
L 192.45 165 Z"/>
</g>

<g id="Layer9_0_MEMBER_0_MEMBER_3_FILL">
<path fill="#2B3990" stroke="none" d="
M 253.6 205.55
Q 250.65 204.95 247.8 205.6
L 235.35 208 235.35 237.15 247.75 234.45
Q 250.45 233.8 252.65 232.6 254.85 231.4 256.35 229.55 258.1 227.3 259 224.75 260.1 221.15 260 217.45 260 214.65 259.35 212.05 258.8 209.8 257.25 207.9 255.8 206.15 253.6 205.55
M 243.75 213
L 245.8 212.55
Q 249 211.9 250.4 213.35 251.8 214.85 251.8 219.35 251.9 222.05 251.15 224.45 250.7 225.95 249.45 226.95 247.9 228 245.75 228.35
L 243.75 228.8 243.75 213 Z"/>
</g>

<g id="Layer9_0_MEMBER_0_MEMBER_4_FILL">
<path fill="#2B3990" stroke="none" d="
M 290.45 225.15
L 286.75 217.9
Q 286.3 217.1 285.7 216.4 284.9 215.5 284.45 215.2 283.55 214.7 282.45 214.55 284 213.9 285.15 212.9 286.65 211.65 287.6 209.7 288.55 207.7 288.45 205.55 288.6 203.25 287.3 201.25 286.2 199.7 284.3 199.3 281.35 199.05 278.8 199.7
L 265.65 202.2 265.65 230.55 273.55 228.8 273.55 217.35 274.25 217.2
Q 275.3 216.95 276.2 217.5 277.15 218.2 277.6 219.35
L 281.75 227 290.45 225.15
M 273.65 206.35
L 277.1 205.65
Q 279.25 205.25 280 205.8 280.9 206.6 280.8 207.75 280.8 208.6 280.3 209.45 279.85 210.2 279.05 210.6 277.65 211.2 276.95 211.4
L 273.65 212.05 273.65 206.35 Z"/>
</g>

<g id="Layer9_0_MEMBER_0_MEMBER_5_FILL">
<path fill="#2B3990" stroke="none" d="
M 293.75 216.75
L 293.75 224.45 301 222.9 301 215.25 293.75 216.75 Z"/>
</g>

<g id="Layer9_0_MEMBER_0_MEMBER_6_FILL">
<path fill="#2B3990" stroke="none" d="
M 336.75 195.3
Q 336.9 192.65 335 190.9 333.25 189.3 330 190
L 316.6 192.5 316.55 219.55 328.95 216.85
Q 330.35 216.5 332.1 215.85 333.6 215.4 334.75 214.4 336.2 213.15 337 211.35 337.85 209.35 337.8 207.45 337.95 205.2 336.65 203.45 335.2 201.85 333.1 201.85 334.7 200.85 335.5 199.55 336.85 197.6 336.75 195.3
M 327 195.95
Q 328.25 195.55 329.3 196.15 330.05 196.9 329.95 197.85 329.95 199 329.3 199.85 328.3 200.75 327 201
L 323.85 201.65 323.85 196.55 327 195.95
M 327.5 206
Q 328.85 205.55 330.1 206.2 330.9 206.85 330.8 207.95 330.9 209.1 330.05 210.1 329 211.15 327.5 211.4
L 323.85 212.2 323.85 206.75 327.5 206 Z"/>
</g>

<g id="Layer9_0_MEMBER_0_MEMBER_7_FILL">
<path fill="#2B3990" stroke="none" d="
M 356.1 184.95
L 348.75 186.35 340.35 214.35 347.35 212.85 348.45 208.3 356.1 206.65 357.2 210.7 364.2 209.15 356.1 184.95
M 354.75 201.3
L 349.9 202.3 352.3 192.45 354.75 201.3 Z"/>
</g>

<g id="Layer9_0_MEMBER_0_MEMBER_8_FILL">
<path fill="#2B3990" stroke="none" d="
M 387.3 179
L 381.3 180.15 381.3 194.15 373.45 181.65 367.4 182.8 367.35 208.45 373.5 207.15 373.5 193.15 381.3 205.45 387.3 204.15 387.3 179 Z"/>
</g>

<g id="Layer9_0_MEMBER_0_MEMBER_9_FILL">
<path fill="#2B3990" stroke="none" d="
M 404.65 175.7
L 398 177 390.4 203.5 396.75 202.15 397.75 197.8 404.65 196.35 405.65 200.15 411.95 198.8 404.65 175.7
M 403.4 191.25
L 399.05 192.15 401.25 182.8 403.4 191.25 Z"/>
</g>

<g id="Layer9_0_MEMBER_0_MEMBER_10_FILL">
<path fill="#2B3990" stroke="none" d="
M 420.45 197
L 420.45 183.7 427.45 195.5 432.85 194.35 432.85 170.4 427.45 171.4 427.45 184.8 420.35 172.8 414.85 173.8 414.9 198.2 420.45 197 Z"/>
</g>

<g id="Layer9_0_MEMBER_0_MEMBER_11_FILL">
<path fill="#2B3990" stroke="none" d="
M 442.55 168.5
L 435.75 193.65 441.5 192.4 442.35 188.3 448.65 187 449.5 190.7 455.2 189.45 448.55 167.35 442.55 168.5
M 445.5 174.05
L 447.5 182.15 443.5 182.95 445.5 174.05 Z"/>
</g>

<g id="Layer9_0_MEMBER_0_MEMBER_12_FILL">
<path fill="#ED1F25" stroke="none" d="
M 364.2 90.1
Q 358.55 93.05 354.35 98 352.6 99.95 351.65 102.75 351.1 104.15 351.75 105.6 351.85 105.8 351.65 106 351.15 106.5 351.05 107.3
L 352.25 108.1
Q 354.4 109.25 356.4 109.95 356.65 110.1 357.25 110.2 357 110.1 356.9 109.95 357.25 109.95 357.4 110.05 360.6 110.9 362.9 111.35 365.25 111.9 367.55 111.9 369.35 111.9 370.7 111.35 372.15 110.7 373.35 109.25 375.1 107.2 378.1 102.8
L 379.35 101.15 379.35 101.3
Q 377.25 105.1 376.15 107 375 109.05 373.45 110.45 371.95 111.95 369.9 112.35 368.25 112.6 366.9 112.45 365.4 112.2 364.65 112.2 365.3 112.45 365.95 112.45 367.3 112.65 368.95 112.65 371.45 112.65 373.35 111 375.7 108.8 377.15 106 379.8 101 380.35 100 381.8 97.55 384 94.85
L 386.15 92.5
Q 386 92.1 385.65 91.9 385.05 91.55 384.3 91.3 381.85 90.7 379.2 90.7
L 374.8 90.7
Q 373.45 90.8 372.75 90.8
L 370.5 90.9
Q 370.25 90.9 370.25 90.8 370 89.65 368.9 89.5 366.35 88.85 364.2 90.1
M 354.95 97.75
Q 358.8 93.55 363.8 90.65 365.7 89.55 367.95 89.65
L 368.1 89.65
Q 367.9 89.8 367.4 89.9 364.8 90.9 362.55 92.35 358.95 94.7 356 97.85 353.6 100.4 352 103.05
L 351.85 103.3 351.8 103.3
Q 352.05 102.35 352.4 101.55 353.4 99.5 354.95 97.75
M 369.25 91.5
Q 369.45 91.6 369.45 91.9 369.45 92.6 369.15 93.1 367.95 95.2 366.5 96.85 363.95 99.9 360.85 102.85 359.1 104.65 356.5 106.05 355.4 106.55 354.15 106.65 353.45 106.7 352.85 106.3 352.25 105.85 352.05 105.15 351.9 104.7 351.9 104.2 352.05 104.2 352.05 104.4 352.4 104.85 353.05 105 353.65 105.15 354.2 104.9 356.95 103.9 358.85 101.9 360.35 100.55 362.4 98.45
L 368.9 91.7
Q 369.15 91.45 369.25 91.5
M 369.35 96.55
L 369.15 96.45
Q 368.85 96.3 368.75 96 368.65 95.65 368.8 95.35 369.5 93.95 370.8 93.25 372.1 92.5 373.55 92.5
L 376.85 92.5
Q 378.8 92.5 380.5 92.95
L 381 93.05
Q 381.4 93.3 381.55 93.75 381.7 94.2 381.45 94.6 381.35 95.15 381.05 95.4
L 381.1 95.4
Q 381.1 95.5 381 95.55 380.2 96.75 379 97.2 378.4 97.45 378 97.45
L 376.1 97.45
Q 375.65 97.4 375.15 97.45
L 373.4 97.3 373.1 97.3 371 97 369.35 96.55
M 374.75 100.3
Q 375 100.3 375.15 100.45 375.5 100.65 375.55 101.1 375.65 101.5 375.4 101.85 374.8 102.75 374.2 103.45 373.9 103.85 373.45 104.05 373.25 104.1 373.25 104.3 373.35 104.75 373 105.15 372.6 105.9 371.65 106.85 371.15 107.3 371 107.8
L 370.8 108.25 369.95 109.45
Q 369.25 110.3 368.15 110.15
L 366.8 109.85
Q 366.45 109.7 366.2 109.4 366.05 109.15 365.75 109.25 364.6 109.5 363.55 108.9
L 363.35 108.8
Q 363.15 108.45 362.55 108.55 361.55 108.8 360.6 108.3
L 360.45 108.25
Q 360.1 108.05 360 107.7 359.95 107.3 360.15 106.95 360.75 105.8 361.85 104.95
L 362.6 104.05
Q 363 103.3 363.6 102.8 364.1 102.15 364.8 101.95 364.95 101.8 364.9 101.75 364.9 101.3 365.25 100.95 365.8 100.2 366.6 99.55 367.15 99.05 367.9 99.15
L 368 99.15
Q 368.75 99.1 369.45 99.55 369.8 99.85 370.35 99.75 371.55 99.45 372.5 100.25 372.75 100.35 372.85 100.3 373.8 99.9 374.75 100.3 Z"/>
</g>

<g id="Layer9_0_MEMBER_0_MEMBER_13_FILL">
<path fill="#9D1D1F" stroke="none" d="
M 386.9 97.45
Q 386.9 96 386.65 94.25 386.6 93.5 386.15 92.45 385.15 93.45 384.05 94.8 382.2 96.9 380.35 99.95 378.2 103.95 377.1 105.95 375.8 108.7 373.3 110.95 371.45 112.55 368.95 112.65
L 365.95 112.45 364.65 112.2
Q 364.35 112.2 364.25 112.1 361.45 111.6 358.35 110.55
L 358.05 110.5
Q 357.9 110.5 357.9 110.4 357.7 110.4 357.7 110.35 357.4 110.35 357.2 110.15 356.75 110.15 356.35 109.9 354.2 109.15 352.2 108.05
L 351.05 107.3
Q 351 108.15 351.15 109.15 351.25 109.4 351.6 110.6 351.95 111.7 352.2 111.9 353.75 113.1 354.15 113.35 357 114.8 362.65 115.65 369.8 116.75 375.35 115.5 377.35 114.1 379.2 112.4 380.95 110.8 385.8 101.55 386.9 99.6 386.9 97.45 Z"/>
</g>

<g id="Layer9_0_MEMBER_0_MEMBER_14_FILL">
<path fill="#9D1D1F" stroke="none" d="
M 366.55 96.8
Q 368.1 95 369.2 93.05 369.5 92.55 369.5 91.9 369.5 91.55 369.3 91.5 369.15 91.4 369 91.65
L 358.95 101.85
Q 356.85 103.9 354.25 104.85 353.7 105.1 353.1 104.95 352.45 104.8 352.1 104.3
L 351.9 104.2
Q 351.9 104.5 352.1 105.1 352.3 105.8 352.9 106.25 353.5 106.65 354.2 106.6 355.45 106.5 356.55 106 359.15 104.6 360.9 102.8 364 99.85 366.55 96.8 Z"/>
</g>

<g id="Layer9_0_MEMBER_0_MEMBER_15_FILL">
<path fill="#28283D" stroke="none" d="
M 373.45 97.3
Q 374.2 97.2 374.55 97.25 376.25 97.4 378.05 97.25
L 378.95 97.15
Q 380.25 96.7 380.95 95.45
L 381.05 95.35 381.15 95.1 381.15 95
Q 381.35 94.3 380.6 94.1 379.7 93.75 378.85 93.7 376.55 93.4 374.5 93.45 373 93.35 371.8 94.05 370.95 94.55 370.3 95.5 369.7 96.5 370.8 96.85
L 372.8 97.15
Q 373.1 97.25 373.15 97.3
L 373.45 97.3 Z"/>
</g>

<g id="Layer9_0_MEMBER_0_MEMBER_16_FILL">
<path fill="#9D1D1F" stroke="none" d="
M 375.5 101.8
Q 375.65 101.65 375.65 101.4 375.75 101.05 375.55 100.7 375.3 100.35 374.9 100.25 373.95 99.95 372.95 100.25 372.8 100.35 372.65 100.2 371.6 99.4 370.5 99.7 370 99.85 369.6 99.5 368.9 99.05 368 99.15 367.3 99.05 366.7 99.5 365.9 100.15 365.35 100.9 365.05 101.2 365.05 101.7 365.05 101.9 364.9 101.9 364.2 102.1 363.7 102.75 363 103.45 362.7 104 362.45 104.45 361.95 104.95 361 105.65 360.25 106.95
L 360.2 107.1
Q 360.05 107.45 360.2 107.8 360.4 108.15 360.75 108.3 361.7 108.7 362.65 108.55 363.25 108.4 363.45 108.75
L 363.65 108.85
Q 364.75 109.4 365.85 109.25 366.1 109.1 366.3 109.4
L 366.95 109.8
Q 367.55 110.05 368.3 110.1 369.4 110.25 370.05 109.4
L 370.9 108.2 371.1 107.75
Q 371.3 107.15 371.75 106.8 372.6 106.05 373.1 105.15 373.4 104.8 373.4 104.25 373.3 104 373.55 104 374.1 103.75 374.35 103.4
L 375.5 101.8
M 373.75 100.5
L 374.5 100.65
Q 375.05 100.9 374.75 101.3
L 373.6 102.9
Q 373.1 103.45 372.3 103.45
L 372.3 103.4
Q 371.65 103.4 371.25 103.2
L 371.1 103.1
Q 370.75 102.8 371.05 102.5 371.55 101.65 372.15 101 372.8 100.25 373.75 100.5
M 371.2 100.1
Q 371.85 100.25 371.95 100.45 372.1 100.7 371.65 101.25
L 370.95 102.2
Q 370.4 103 369.45 102.85 368.6892578125 102.7453125 368.35 102.6
L 368.2 102.5
Q 367.9 102.2 368.15 101.85 369.05 100.75 369.25 100.5 370.1 99.7 371.2 100.1
M 369.85 103.95
Q 370.4 103.35 371.3 103.5 371.6 103.5 372.2 103.7 372.75 103.95 372.45 104.45
L 371.4 105.95
Q 370.85 106.5 370.1 106.45 369.5 106.35 369 106.1
L 368.85 106
Q 368.5 105.7 368.8 105.4
L 369.85 103.95
M 369.65 103.3
Q 369.95 103.6 369.6 103.95
L 368.7 105.15
Q 368.2 105.75 367.45 105.75 366.8 105.7 366.05 105.35
L 365.9 105.25
Q 365.6 104.95 365.9 104.6
L 366.95 103.3
Q 367.55 102.7 368.35 102.85 368.95 102.95 369.45 103.15 369.5 103.2 369.65 103.3
M 367.8 99.5
L 367.85 99.45
Q 368.3 99.5 368.85 99.75
L 369.05 99.85
Q 369.3 100.2 369 100.45 368.5 101.2 367.95 101.75 367.35 102.35 366.5 102.2 365.8 102.1 365.5 101.95 364.9 101.7 365.35 101.2
L 366.35 100.05
Q 366.9 99.4 367.8 99.5
M 365.3 102.2
L 365.35 102.2
Q 365.85 102.2 366.55 102.55
L 366.75 102.65
Q 367 103 366.7 103.3
L 365.8 104.4
Q 365.3 105 364.5 105 363.8 105 363.1 104.7
L 362.85 104.55
Q 362.6 104.25 362.9 103.95
L 364 102.7
Q 364.55 102.15 365.3 102.2
M 367.55 106.85
Q 368.2 106.3 368.8 106.45 369.45 106.45 369.95 106.75
L 370.15 106.85
Q 370.5 107.2 370.1 107.5
L 369.05 108.85
Q 368.7 109.3 368.05 109.3 367.3 109.4 366.55 108.95
L 366.4 108.85
Q 366.05 108.5 366.4 108.25
L 367.55 106.85
M 367.1 106
Q 367.7 106.3 367.25 106.85
L 366.35 107.95
Q 365.9 108.55 365.05 108.55
L 365 108.55
Q 364.2 108.45 363.6 108.2
L 363.4 108.05
Q 363.1 107.65 363.45 107.4
L 364.45 106.2
Q 364.9 105.65 365.6 105.65 366.4 105.65 367.1 106
M 364.35 106.05
L 363.2 107.35
Q 362.7 107.85 361.85 107.85 361.25 107.8 360.65 107.55
L 360.5 107.45
Q 360.2 107.2 360.45 106.85
L 361.6 105.5
Q 362.15 104.8 363.15 104.95 363.7 105.05 364.15 105.25 364.5 105.4 364.55 105.55 364.6 105.75 364.35 106.05 Z"/>
</g>

<g id="Layer9_0_MEMBER_0_MEMBER_17_FILL">
<path fill="#ED1F25" stroke="none" d="
M 376.1 106.95
Q 377.2 105.1 379.3 101.25
L 379.3 101.15 378.05 102.75
Q 375 107.2 373.3 109.2 372.2 110.6 370.65 111.35 369.05 111.9 367.5 111.85 365.05 111.85 362.85 111.35 361.15 111.05 357.35 110 357.15 109.85 356.85 109.95
L 357.2 110.15
Q 357.4 110.15 357.7 110.35 357.9 110.35 357.9 110.45
L 358.05 110.5 358.35 110.55
Q 361.05 111.55 364.25 112.1 364.35 112.15 364.6 112.2 365.35 112.25 366.85 112.4 368.45 112.55 369.85 112.35 371.95 111.9 373.4 110.45 375.1 108.85 376.1 106.95 Z"/>
</g>

<g id="Layer9_0_MEMBER_0_MEMBER_18_FILL">
<path fill="#ED1F25" stroke="none" d="
M 356 97.8
Q 359 94.6 362.6 92.3 364.75 90.85 367.4 89.85 367.9 89.75 368.15 89.6
L 367.95 89.6
Q 365.8 89.55 363.8 90.6 358.75 93.5 355 97.7 353.5 99.35 352.45 101.5 352.05 102.3 351.8 103.3
L 351.85 103.2 352.05 102.9
Q 353.95 99.9 356 97.8 Z"/>
</g>

<g id="Layer9_0_MEMBER_0_MEMBER_19_FILL">
<path fill="#9D1D1F" stroke="none" d="
M 368.85 95.65
Q 368.7 96.35 369.45 96.65
L 373.2 97.35
Q 373.1 97.2 372.85 97.2
L 370.85 96.9
Q 369.75 96.55 370.35 95.55 371 94.6 371.85 94.1 373.05 93.4 374.55 93.5 376.6 93.45 378.9 93.75 379.75 93.8 380.65 94.15
L 380.75 94.15
Q 381.05 94.25 381.2 94.55 381.3 94.85 381.15 95.15
L 381.1 95.4
Q 381.45 95.15 381.6 94.7
L 381.7 94.25
Q 381.75 93.75 381.4 93.4 381.1 93.05 380.65 93.05 378.85 92.6 377 92.6 375.35 92.45 373.65 92.6 372.25 92.6 370.95 93.35 369.6 94.05 368.95 95.45
L 368.85 95.65 Z"/>
</g>

<g id="Layer9_0_MEMBER_0_MEMBER_20_FILL">
<path fill="#ED1F25" stroke="none" d="
M 365 108.55
Q 365.8 108.55 366.25 107.95
L 367.15 106.85
Q 367.7 106.3 367 106 366.35 105.65 365.5 105.65 364.8 105.65 364.35 106.2
L 363.35 107.4 363.25 107.6
Q 363.1 108 363.5 108.2 364.2 108.5 365 108.55 Z"/>
</g>

<g id="Layer9_0_MEMBER_0_MEMBER_21_FILL">
<path fill="#ED1F25" stroke="none" d="
M 360.6 107.55
Q 361 107.75 361.85 107.85 362.65 107.85 363.15 107.35
L 364.3 106.05
Q 364.65 105.55 364.1 105.25 363.65 105.05 363.1 104.95 362.1 104.8 361.55 105.5
L 360.45 106.9 360.35 107.05
Q 360.15 107.45 360.6 107.55 Z"/>
</g>

<g id="Layer9_0_MEMBER_0_MEMBER_22_FILL">
<path fill="#ED1F25" stroke="none" d="
M 368.1 109.35
Q 368.75 109.25 369.1 108.85
L 370.3 107.35
Q 370.4 106.9 370 106.75 369.4 106.45 368.8 106.45 368.1 106.35 367.55 106.85
L 366.4 108.25 366.3 108.4
Q 366.2 108.8 366.55 108.95 367.35 109.35 368.1 109.35 Z"/>
</g>

<g id="Layer9_0_MEMBER_0_MEMBER_23_FILL">
<path fill="#ED1F25" stroke="none" d="
M 367.45 105.75
Q 368.2 105.75 368.7 105.15
L 369.75 103.75
Q 369.85 103.35 369.45 103.15 368.95 102.95 368.35 102.85 367.55 102.7 366.95 103.3
L 365.75 104.8
Q 365.65 105.25 366.05 105.35 366.8 105.7 367.45 105.75 Z"/>
</g>

<g id="Layer9_0_MEMBER_0_MEMBER_24_FILL">
<path fill="#ED1F25" stroke="none" d="
M 371.25 103.5
Q 370.4 103.35 369.85 104
L 368.75 105.4 368.7 105.55
Q 368.65 105.7 368.7 105.9 368.8 106.05 368.95 106.1 369.4 106.35 370.1 106.45 370.85 106.55 371.35 105.95
L 372.4 104.45
Q 372.7 103.95 372.15 103.7 371.55 103.5 371.25 103.5 Z"/>
</g>

<g id="Layer9_0_MEMBER_0_MEMBER_25_FILL">
<path fill="#ED1F25" stroke="none" d="
M 372.3 103.4
Q 373.05 103.5 373.55 102.85
L 374.7 101.25
Q 375.05 100.85 374.5 100.6 374.15 100.45 373.7 100.45 372.75 100.2 372.1 100.95
L 370.9 102.6
Q 370.8 103.05 371.2 103.15 371.8 103.4 372.3 103.4 Z"/>
</g>

<g id="Layer9_0_MEMBER_0_MEMBER_26_FILL">
<path fill="#ED1F25" stroke="none" d="
M 364.5 104.95
Q 365.3 105.05 365.8 104.35
L 366.85 103.05
Q 366.95 102.6 366.55 102.5 366.05 102.2 365.35 102.2 364.55 102.1 364 102.65
L 362.95 103.95
Q 362.8 104.05 362.8 104.15 362.7 104.55 363.1 104.65 363.8 104.95 364.5 104.95 Z"/>
</g>

<g id="Layer9_0_MEMBER_0_MEMBER_27_FILL">
<path fill="#ED1F25" stroke="none" d="
M 369.5 102.85
Q 370.5 102.95 370.95 102.15
L 371.7 101.25
Q 372.45 100.3 371.2 100.05 370.2 99.65 369.3 100.45 368.5 101.35 368.2 101.85
L 368.1 102
Q 367.9 102.45 368.4 102.55 368.95 102.8 369.5 102.85 Z"/>
</g>

<g id="Layer9_0_MEMBER_0_MEMBER_28_FILL">
<path fill="#ED1F25" stroke="none" d="
M 367.95 101.75
L 369 100.4
Q 369.15 100.35 369.15 100.2 369.25 99.8 368.85 99.7 368.5 99.55 367.85 99.45 366.9 99.35 366.35 100
L 365.35 101.15
Q 364.9 101.65 365.5 101.9
L 366.5 102.2
Q 367.35 102.3 367.95 101.75 Z"/>
</g>

<g id="Layer9_0_MEMBER_0_MEMBER_29_FILL">
<path fill="#2A3B90" stroke="none" d="
M 260.65 241
Q 260.05 241 259.5 241.15
L 255.75 242.05 255.75 255.65 257.3 255.3 257.3 249.95 259.7 249.4
Q 261.3 249 262.1 247.5 262.85 246.25 262.95 244.55 262.95 243.5 262.6 242.65 262.35 241.95 261.8 241.55 261.4 241.15 260.65 241
M 261.35 244.9
Q 261.35 245.7 260.95 246.5 260.5 247.25 259.65 247.5
L 257.3 248.05 257.3 243.65 259.55 243.1
Q 260.15 242.95 260.7 243.2 261.05 243.45 261.2 243.75 261.35 244.35 261.35 244.9 Z"/>
</g>

<g id="Layer9_0_MEMBER_0_MEMBER_30_FILL">
<path fill="#2A3B90" stroke="none" d="
M 266.45 245.85
Q 266.8 245.25 267.45 245.1 268.05 244.95 268.45 245.4 268.95 246.05 268.85 246.85
L 268.85 252.65 270.3 252.25 270.3 245.85
Q 270.45 244.55 269.55 243.5 268.9 242.85 267.85 243 266.6 243.4 265.95 244.65
L 265.95 239.65 264.5 240 264.55 253.65 266 253.3 266 247.5
Q 266 246.6 266.45 245.85 Z"/>
</g>

<g id="Layer9_0_MEMBER_0_MEMBER_31_FILL">
<path fill="#2A3B90" stroke="none" d="
M 272.55 249.75
L 272.55 251.7 274 251.35 274 249.4 272.55 249.75 Z"/>
</g>

<g id="Layer9_0_MEMBER_0_MEMBER_32_FILL">
<path fill="#2A3B90" stroke="none" d="
M 281.7 236.55
Q 280.8 236.1 279.8 236.35
L 276.2 237.2 276.2 250.85 279.7 250.05
Q 280.95 249.7 281.7 248.9 282.55 247.95 282.95 247.05
L 283.25 246.25 283.4 245.45
Q 283.55 243.7 283.5 242.35
L 283.45 239.45
Q 283.35 238.65 283 238 282.65 237.05 281.7 236.55
M 279.65 238.35
Q 280.2 238.15 280.7 238.35 281.25 238.55 281.5 239.05 281.85 239.65 281.9 240.2
L 281.9 245.25
Q 281.8 245.9 281.55 246.45 281.05 247.75 279.65 248.1
L 277.75 248.5 277.75 238.8 279.65 238.35 Z"/>
</g>

<g id="Layer9_0_MEMBER_0_MEMBER_33_FILL">
<path fill="#2A3B90" stroke="none" d="
M 295.9 234.9
Q 295.55 233.95 294.65 233.5 293.75 233.05 292.75 233.3
L 289.2 234.15 289.15 247.75 292.6 246.95
Q 293.9 246.6 294.6 245.8 295.5 244.9 295.85 243.95
L 296.35 242.35
Q 296.45 241.3 296.45 239.25 296.45 236.9 296.35 236.35 296.25 235.55 295.9 234.9
M 290.75 245.45
L 290.75 235.75 292.6 235.3
Q 293.1 235.1 293.65 235.3 294.15 235.5 294.4 236 294.8 236.55 294.8 237.15 294.9 238.15 294.9 239.7
L 294.8 242.2
Q 294.8 242.8 294.5 243.4 293.95 244.7 292.6 245
L 290.75 245.45 Z"/>
</g>

<g id="Layer9_0_MEMBER_0_MEMBER_34_FILL">
<path fill="#2A3B90" stroke="none" d="
M 298.5 232
L 298.5 233.9 299.95 233.6 299.95 231.65 298.5 232
M 298.5 235.9
L 298.5 245.6 299.95 245.25 299.95 235.55 298.5 235.9 Z"/>
</g>

<g id="Layer9_0_MEMBER_0_MEMBER_35_FILL">
<path fill="#2A3B90" stroke="none" d="
M 302 235.05
L 301.85 244.75 303.35 244.4 303.35 238.55
Q 303.3 237.65 303.8 236.9 304.1 236.4 304.8 236.2 305.4 236.05 305.8 236.45
L 306.85 234.5
Q 306.2 233.9 305.35 234.15 304 234.45 303.45 235.75
L 303.45 234.75 302 235.05 Z"/>
</g>

<g id="Layer9_0_MEMBER_0_MEMBER_36_FILL">
<path fill="#2A3B90" stroke="none" d="
M 312.3 233.6
Q 311.4 232.7 310.2 233 309.7 233.1 309.15 233.5 308.5 234 308.15 234.55 307.7 235.25 307.45 236.25 307.15 237.45 307.15 238.7 307.15 240 307.5 241.05 307.65 241.7 308.25 242.4 308.65 242.7 308.75 242.7
L 309.3 242.9
Q 309.85 243.05 310.4 242.9 312.15 242.45 313.05 240.75
L 311.95 239.75
Q 311.45 240.75 310.35 241.05 309.7 241.3 309.15 240.75 308.5 239.95 308.6 239.1
L 313.2 238 313.2 236.4
Q 313.3 234.8 312.3 233.6
M 311.25 235.15
Q 311.75 235.95 311.7 236.75
L 308.6 237.45
Q 308.6 236.45 309.1 235.65 309.4 235 310.15 234.85 310.75 234.65 311.25 235.15 Z"/>
</g>

<g id="Layer9_0_MEMBER_0_MEMBER_37_FILL">
<path fill="#2A3B90" stroke="none" d="
M 317.75 233.2
Q 318.8 233 319.2 233.9
L 320.3 232.35
Q 319.8 231.65 319.15 231.35 318.45 231.05 317.7 231.25 316.25 231.65 315.4 232.95 314.35 234.8 314.4 237 314.4 239.6 315.4 240.5 316.35 241.45 317.7 241.15 318.5 240.95 319.2 240.3 319.9 239.6 320.3 238.85
L 319.2 237.9
Q 318.8 238.95 317.75 239.25 315.8 239.8 315.85 236.7 315.85 233.65 317.75 233.2 Z"/>
</g>

<g id="Layer9_0_MEMBER_0_MEMBER_38_FILL">
<path fill="#2A3B90" stroke="none" d="
M 324.15 239.5
L 324.15 237.7 323.6 237.8
Q 323.05 237.95 323.05 237.25
L 323.05 231.6 324.15 231.35 324.15 229.85 323.05 230.1 323.05 227.15 321.6 227.5 321.6 230.5 320.9 230.65 320.9 232.15 321.6 232 321.6 237.75
Q 321.5 238.6 322.1 239.35 322.65 239.9 323.35 239.7
L 324.15 239.5 Z"/>
</g>

<g id="Layer9_0_MEMBER_0_MEMBER_39_FILL">
<path fill="#2A3B90" stroke="none" d="
M 325.45 232
Q 325.25 233.05 325.25 234.4 325.25 235.7 325.45 236.7 325.6 237.4 326.05 237.9 326.4 238.35 326.9 238.55 327.5 238.8 328.25 238.65 329.05 238.45 329.65 237.9 329.95 237.65 330.1 237.4
L 330.45 236.9
Q 330.85 236.2 331.1 235.35 331.25 234.15 331.25 233 331.3 232.2 331.1 230.7 330.95 229.95 330.5 229.5 330.05 229 329.65 228.8 329.05 228.6 328.25 228.75 327.4 229 326.9 229.45 326.65 229.65 326.05 230.5
L 325.45 232
M 326.8 232.6
L 327.1 231.7
Q 327.25 231.4 327.6 231.1 327.9 230.85 328.25 230.75 328.65 230.6 328.95 230.75 329.3 230.8 329.45 231.15 329.65 231.45 329.75 231.85 329.85 232.85 329.8 233.35
L 329.75 234.85
Q 329.7 235.3 329.45 235.75 329.35 235.95 328.95 236.35 328.75 236.6 328.25 236.7 327.95 236.85 327.6 236.7 327.4 236.65 327.1 236.35 326.85 235.95 326.8 235.55
L 326.8 232.6 Z"/>
</g>

<g id="Layer9_0_MEMBER_0_MEMBER_40_FILL">
<path fill="#2A3B90" stroke="none" d="
M 334.4 231.25
Q 334.4 230.3 334.85 229.6 335.3 228.95 335.85 228.9 336.45 228.75 336.85 229.15
L 337.95 227.2
Q 337.2 226.65 336.4 226.85 335.1 227.15 334.5 228.4
L 334.5 227.4 333.05 227.75 332.95 237.4 334.4 237.05 334.4 231.25 Z"/>
</g>

<g id="Layer9_0_MEMBER_0_MEMBER_41_FILL">
<path fill="#2A3B90" stroke="none" d="
M 342.75 226.6
Q 342.4 227.3 342.15 228.1 341.95 229.25 342 230.45 341.95 231.65 342.15 232.75 342.25 233.2 342.75 234 343.1 234.35 343.6 234.6 344.2 234.85 344.95 234.7 345.75 234.5 346.35 233.95
L 346.85 233.45 347.15 232.95
Q 347.6 232.2 347.75 231.4 347.95 230.4 347.95 229.05 347.95 227.75 347.75 226.75 347.7 226.2 347.15 225.55 346.8 225.05 346.35 224.9 345.7 224.6 344.95 224.85 344.25 225 343.6 225.55 343.2 225.9 342.75 226.6
M 343.5 228.7
Q 343.6 228.2 343.8 227.85 343.95 227.5 344.25 227.2 344.65 226.9 344.95 226.85 345.35 226.7 345.65 226.85 346 226.95 346.15 227.25 346.4 227.55 346.45 228
L 346.45 230.95 346.15 231.85 345.65 232.45
Q 345.35 232.75 344.95 232.8 344.65 232.95 344.25 232.8 343.95 232.7 343.8 232.45 343.55 232.05 343.5 231.65 343.4 230.75 343.45 230.2 343.4 229.7 343.5 228.7 Z"/>
</g>

<g id="Layer9_0_MEMBER_0_MEMBER_42_FILL">
<path fill="#2A3B90" stroke="none" d="
M 351.45 222.2
Q 351.35 221.3 352.05 221.2
L 352.9 221 352.9 219.25 351.95 219.45
Q 351.05 219.7 350.55 220.4 349.95 221.35 350 222.55
L 350 223.8 349.25 224 349.25 225.45 350 225.25 349.95 233.45 351.45 233.1 351.45 224.95 352.9 224.6 352.9 223.1 351.45 223.45 351.45 222.2 Z"/>
</g>

<g id="Layer9_0_MEMBER_0_MEMBER_43_FILL">
<path fill="#2A3B90" stroke="none" d="
M 364 216.55
L 357.5 218.1 357.5 231.65 359 231.25 359 225.5 363.25 224.5 363.25 222.65 359 223.65 359 219.65 364 218.5 364 216.55 Z"/>
</g>

<g id="Layer9_0_MEMBER_0_MEMBER_44_FILL">
<path fill="#2A3B90" stroke="none" d="
M 366.5 219.9
L 365.05 220.2 364.95 229.85 366.4 229.5 366.4 223.7
Q 366.35 222.8 366.85 222.05 367.15 221.5 367.85 221.35 368.35 221.2 368.85 221.6
L 369.9 219.7
Q 369.25 219.05 368.4 219.3 367.05 219.6 366.5 220.9
L 366.5 219.9 Z"/>
</g>

<g id="Layer9_0_MEMBER_0_MEMBER_45_FILL">
<path fill="#2A3B90" stroke="none" d="
M 372.05 218.55
L 370.6 218.9 370.55 225.3
Q 370.4 226.65 371.35 227.6 372 228.25 373 228.1 374.3 227.7 374.85 226.55
L 374.85 227.55 376.3 227.2 376.3 217.55 374.85 217.9 374.85 223.65
Q 374.95 224.45 374.45 225.25 374.15 225.9 373.45 226.05 372.9 226.2 372.45 225.75 371.95 225.1 372.05 224.3
L 372.05 218.55 Z"/>
</g>

<g id="Layer9_0_MEMBER_0_MEMBER_46_FILL">
<path fill="#2A3B90" stroke="none" d="
M 378.55 213.15
L 378.55 215.1 380 214.75 380 212.8 378.55 213.15
M 378.55 217.05
L 378.55 226.65 380 226.3 380 216.7 378.55 217.05 Z"/>
</g>

<g id="Layer9_0_MEMBER_0_MEMBER_47_FILL">
<path fill="#2A3B90" stroke="none" d="
M 382.1 213.25
L 382.1 216.2 381.4 216.35 381.4 217.85 382.1 217.7 382.1 223.5
Q 382 224.35 382.6 225.1 383.05 225.65 383.85 225.45
L 384.6 225.25 384.6 223.45 384.1 223.55
Q 383.55 223.7 383.55 223
L 383.55 217.35 384.65 217.1 384.65 215.6 383.55 215.85 383.55 212.95 382.1 213.25 Z"/>
</g>

<g id="Layer9_0_MEMBER_0_MEMBER_48_FILL">
<path fill="#2A3B90" stroke="none" d="
M 393.5 215.45
L 392.35 215.5
Q 391.7 215.6 391.3 215.1 390.95 214.7 390.95 214.1 390.95 213.15 391.45 212.5 392 211.9 392.65 211.75 394 211.45 395.15 212.2
L 396 210.35
Q 394.5 209.25 392.7 209.7 391.1 210.1 390.3 211.35 389.4 212.7 389.4 214.45 389.3 215.75 390.1 216.75 390.9 217.7 392.1 217.6
L 393.45 217.5
Q 394.8 217.5 394.8 219 394.8 219.9 394.25 220.6 393.65 221.25 392.8 221.4 391.15 221.8 389.9 220.7
L 388.85 222.5
Q 390.5 224.1 392.75 223.45 396.25 222.55 396.3 218.7 396.3 217.3 395.6 216.3 394.8 215.3 393.5 215.45 Z"/>
</g>

<g id="Layer9_0_MEMBER_0_MEMBER_49_FILL">
<path fill="#2A3B90" stroke="none" d="
M 400.85 213.65
Q 401.8 213.4 402.3 214.3
L 403.35 212.75
Q 403 212.2 402.25 211.85 401.55 211.55 400.8 211.7 399.3 212.1 398.55 213.4 397.4 215.25 397.55 217.4 397.55 220.05 398.55 220.9 399.45 221.9 400.8 221.5 401.6 221.35 402.25 220.7 402.95 220 403.35 219.25
L 402.3 218.25
Q 401.9 219.3 400.85 219.6 398.95 220.15 398.95 217.1 399.05 214 400.85 213.65 Z"/>
</g>

<g id="Layer9_0_MEMBER_0_MEMBER_50_FILL">
<path fill="#2A3B90" stroke="none" d="
M 406.05 208.55
L 406.05 206.65 404.6 207 404.6 208.9 406.05 208.55
M 406.05 220.15
L 406.05 210.55 404.6 210.85 404.6 220.5 406.05 220.15 Z"/>
</g>

<g id="Layer9_0_MEMBER_0_MEMBER_51_FILL">
<path fill="#2A3B90" stroke="none" d="
M 412.7 209.95
Q 411.9 209 410.65 209.35 410.1 209.5 409.65 209.85 409.05 210.25 408.65 210.85 408.2 211.5 407.95 212.5 407.65 213.8 407.7 214.95 407.65 216.1 408 217.3 408.2 218.1 408.75 218.6 409 218.85 409.25 218.9 409.55 219.1 409.75 219.1 410.35 219.25 410.9 219.1 412.65 218.6 413.45 216.95
L 412.45 216
Q 412 216.95 410.9 217.3 410.15 217.55 409.7 217 409.05 216.25 409.2 215.35
L 413.6 214.3 413.6 212.7
Q 413.7 211.1 412.7 209.95
M 410.65 211.15
Q 411.25 210.95 411.75 211.45 412.2 212.15 412.2 213.05
L 409.15 213.75
Q 409.15 212.8 409.6 211.95 409.9 211.3 410.65 211.15 Z"/>
</g>

<g id="Layer9_0_MEMBER_0_MEMBER_52_FILL">
<path fill="#2A3B90" stroke="none" d="
M 417.25 210.25
Q 417.6 209.65 418.25 209.5 418.85 209.35 419.25 209.8 419.75 210.35 419.65 211.2
L 419.65 216.95 421.1 216.6 421.1 210.2
Q 421.25 208.95 420.35 207.9 419.65 207.2 418.7 207.45 417.45 207.75 416.85 209
L 416.85 208 415.4 208.35 415.4 217.95 416.85 217.6 416.85 211.9
Q 416.85 211.05 417.25 210.25 Z"/>
</g>

<g id="Layer9_0_MEMBER_0_MEMBER_53_FILL">
<path fill="#2A3B90" stroke="none" d="
M 428.55 213.3
L 427.5 212.3
Q 427 213.35 426 213.65 424.15 214.15 424.15 211.1 424.15 208.1 426 207.65 427.05 207.5 427.5 208.35
L 428.55 206.85
Q 428.05 206.15 427.45 205.9 426.7 205.6 425.95 205.75 424.5 206.15 423.75 207.45 422.6 209.3 422.75 211.45 422.75 214 423.75 214.95 424.65 215.95 425.95 215.55 426.9 215.3 427.45 214.75 428.25 213.85 428.55 213.3 Z"/>
</g>

<g id="Layer9_0_MEMBER_0_MEMBER_54_FILL">
<path fill="#2A3B90" stroke="none" d="
M 429.7 207.4
Q 429.4 208.55 429.4 209.8 429.4 211.05 429.7 212.15 429.95 212.95 430.45 213.45
L 430.95 213.8 431.5 214
Q 432 214.05 432.6 214 434.35 213.45 435.1 211.85
L 434.1 210.9
Q 433.65 211.9 432.55 212.2 431.9 212.45 431.35 211.9 430.75 211.25 430.85 210.25
L 435.35 209.15 435.35 207.55
Q 435.45 205.95 434.45 204.8 433.55 203.9 432.35 204.2 431.75 204.4 431.35 204.7 430.9 205 430.35 205.7 429.85 206.55 429.7 207.4
M 431.25 206.85
Q 431.65 206.2 432.3 206.05 432.95 205.9 433.4 206.35 433.85 207.05 433.85 207.95
L 430.8 208.65
Q 430.8 207.7 431.25 206.85 Z"/>
</g>

<g id="Layer9_0_MEMBER_0_MEMBER_55_FILL">
<path fill="#2A3B90" stroke="none" d="
M 442.2 203.25
Q 441.65 202.7 441 202.55
L 440.3 202.45
Q 439.85 202.45 439.4 202.6 438.2 202.85 437.5 203.75 436.7 204.75 436.7 206.15 436.65 207.1 437.3 207.95 438 208.55 438.8 208.4
L 440.05 208.25
Q 440.35 208.2 440.7 208.35 440.95 208.5 440.95 209 440.95 209.6 440.55 210 440.2 210.35 439.55 210.55 438.15 210.95 437.25 209.85
L 436.25 211.35
Q 437.55 212.85 439.4 212.35 440.65 212.05 441.5 211.1 442.45 210 442.35 208.75 442.45 207.7 441.9 206.85 441.25 206.1 440.3 206.35
L 439.1 206.5
Q 438.65 206.6 438.35 206.35 438.15 206.15 438.15 205.85 438.15 205.35 438.45 204.95 438.75 204.5 439.4 204.4 439.95 204.25 440.45 204.4 440.95 204.55 441.3 204.85
L 442.2 203.25 Z"/>
</g>

<g id="Layer9_0_MEMBER_0_MEMBER_56_FILL">
<path fill="#181311" stroke="none" d="
M 407.4 69.3
L 407.4 56.65 401.2 56.65 401.2 69.3 407.4 69.3 Z"/>
</g>

<g id="Layer9_0_MEMBER_0_MEMBER_57_FILL">
<path fill="#2B201D" stroke="none" d="
M 395.4 56.65
L 395.4 69.3 401.55 69.3 401.55 56.65 395.4 56.65 Z"/>
</g>

<g id="Layer9_0_MEMBER_0_MEMBER_58_FILL">
<path fill="#FFF7D7" stroke="none" d="
M 438.55 62.05
L 430 0 369.25 0 362.55 62.5 438.55 62.05 Z"/>
</g>

<g id="Layer9_0_MEMBER_0_MEMBER_59_FILL">
<path fill="#3F302B" stroke="none" d="
M 402.05 67.5
L 386.3 67.5 386.5 116 402.05 117.5 402.05 67.5 Z"/>
</g>

<g id="Layer9_0_MEMBER_0_MEMBER_60_FILL">
<path fill="#2B201D" stroke="none" d="
M 416.55 115
L 416.55 67.3 402.05 67.5 402.05 117.5 416.55 115 Z"/>
</g>

<g id="Layer9_0_MEMBER_0_MEMBER_61_FILL">
<path fill="#E9EFF3" stroke="none" d="
M 285.2 123.35
L 219.95 130.05 283.95 134.95 338.25 126.4 285.2 123.35 Z"/>
</g>

<g id="Layer9_0_MEMBER_0_MEMBER_62_FILL">
<path fill="#FFFFFF" stroke="none" d="
M 228.5 128.85
L 206.55 138 266.3 138 278.5 129.45 228.5 128.85 Z"/>
</g>

<g id="Layer8_0_MEMBER_0_MEMBER_0_MEMBER_0_MEMBER_0_MEMBER_0_FILL">
<path fill="#FFFFFF" stroke="none" d="
M 192.45 268
L 175.8 262.05 158.9 265.3 175.6 271.25 192.45 268
M 183.6 265.7
L 184.05 265.85 171.25 268.3 170.8 268.15 183.6 265.7
M 182.5 265.3
L 182.95 265.45 170.15 267.9 169.7 267.75 182.5 265.3
M 166.7 266.65
L 166.25 266.5 179.05 264.05 179.5 264.2 166.7 266.65
M 167.8 267.05
L 167.35 266.9 180.15 264.45 180.6 264.6 167.8 267.05
M 165.6 266.3
L 165.15 266.1 177.95 263.65 178.4 263.8 165.6 266.3
M 169.05 267.5
L 168.6 267.35 181.4 264.9 181.85 265.05 169.05 267.5
M 175 269.65
L 174.55 269.5 182.1 268 182.55 268.15 175 269.65
M 174 269.3
L 173.55 269.1 181.1 267.65 181.55 267.8 174 269.3
M 173 268.9
L 172.55 268.75 180.15 267.3 180.55 267.45 173 268.9
M 176.4 270.1
L 175.95 269.95 178.1 269.55 178.55 269.7 176.4 270.1 Z"/>
</g>

<g id="Layer8_0_MEMBER_0_MEMBER_0_MEMBER_0_MEMBER_0_MEMBER_1_FILL">
<path fill="#000000" stroke="none" d="
M 174.55 269.5
L 175 269.65 182.55 268.15 182.1 268 174.55 269.5
M 172.55 268.75
L 173 268.9 180.55 267.45 180.15 267.3 172.55 268.75
M 175.95 269.95
L 176.4 270.1 178.55 269.7 178.1 269.55 175.95 269.95
M 173.55 269.1
L 174 269.3 181.55 267.8 181.1 267.65 173.55 269.1
M 166.25 266.5
L 166.7 266.65 179.5 264.2 179.05 264.05 166.25 266.5
M 167.35 266.9
L 167.8 267.05 180.6 264.6 180.15 264.45 167.35 266.9
M 168.6 267.35
L 169.05 267.5 181.85 265.05 181.4 264.9 168.6 267.35
M 165.15 266.1
L 165.6 266.3 178.4 263.8 177.95 263.65 165.15 266.1
M 184.05 265.85
L 183.6 265.7 170.8 268.15 171.25 268.3 184.05 265.85
M 182.95 265.45
L 182.5 265.3 169.7 267.75 170.15 267.9 182.95 265.45 Z"/>
</g>

<g id="tanner_body_0_Layer1_0_FILL">
<path fill="#3E914D" stroke="none" d="
M 794.5 678.7
Q 786.15 676.45 771.8 669.45 749.55 658.55 746.7 657.3 731.75 650.7 720.05 648.65 693.95 644.05 683.35 647.9 674.4 651.15 673.1 662.35 671.9 672.5 694 682.7 715.5 692.6 743.95 695.9 767.15 698.6 797.6 687.2 807.4 683.55 813.6 680.05 819.85 676.6 814.1 678.75 806.05 681.8 794.5 678.7 Z"/>
</g>

<g id="tanner_body_0_Layer1_1_FILL">
<path fill="#3E914D" stroke="none" d="
M 697.2 679
L 689.05 677.5 689.85 693.7 695.95 694.05 697.2 679 Z"/>
</g>

<g id="tanner_body_0_Layer1_2_FILL">
<path fill="#221F20" stroke="none" d="
M 700.15 883.95
Q 699.6 883.9 694.4 884.25 693.85 887.05 693.25 911.15 692.7 932.15 690.75 933.5 684.1 938.1 672.9 945.4 666.35 950.5 674.2 951.05 679.2 951.4 682.4 951.3 683.9 951.25 689.1 950.7 693.75 950.25 698.4 949.05 702.95 947.85 704.65 946.65 706.75 945.2 706.55 937.95 705.95 930.2 705.85 928.55
L 702.7 886.35
Q 702.55 884.2 700.15 883.95 Z"/>
</g>

<g id="tanner_body_0_Layer1_3_FILL">
<path fill="#221F20" stroke="none" d="
M 642.6 878.5
Q 641.95 878.35 636.9 878.25 636.1 881 633.2 904.9 630.65 925.75 628.6 926.9 621.55 930.85 609.65 937.05 602.7 941.5 610.45 942.8 615.35 943.65 618.55 943.8 620 943.9 625.3 943.9 630.05 943.85 634.7 943.1 639.35 942.35 641.15 941.35 643.35 940.1 643.9 932.85 643.9 932.65 644.05 923.4
L 644.95 881.1
Q 645 878.95 642.6 878.5 Z"/>
</g>

<g id="tanner_body_0_Layer1_4_FILL">
<path fill="#EA983E" stroke="none" d="
M 27.65 -35.1
Q 20.85 -41.3 12.1 -44.7 3 -48.2 -6.95 -48.2 -16.9 -48.2 -25.95 -44.7 -34.75 -41.3 -41.5 -35.1 -48.3 -28.85 -52 -20.85 -55.85 -12.5 -55.85 -3.4 -55.85 5.7 -52 14.05 -48.3 22.05 -41.5 28.3 -34.75 34.5 -25.95 37.9 -16.9 41.4 -6.95 41.4 3 41.4 12.1 37.9 20.85 34.5 27.65 28.3 34.4 22.05 38.1 14.05 41.95 5.7 41.95 -3.4 41.95 -12.5 38.1 -20.85 34.4 -28.85 27.65 -35.1 Z"/>
</g>

<g id="tanner_body_0_Layer1_5_FILL">
<path fill="#E3753A" stroke="none" d="
M 785.65 791.2
Q 785.65 762.5 769.25 738.25 753.3 714.6 726.5 701.75 745.15 715.65 755.7 735.55 766.55 756.15 766.55 779.25 766.55 799.4 758.2 817.85 750.1 835.65 735.4 849.35 720.7 863.1 701.6 870.6 681.85 878.4 660.2 878.4 639.35 878.4 620.2 871.1 601.65 864.1 587.05 851.2 602.4 870.15 625.25 880.95 648.85 892.1 675.55 892.1 697.95 892.1 718.4 884.15 738.15 876.5 753.4 862.55 768.65 848.55 777 830.45 785.65 811.7 785.65 791.2 Z"/>
</g>

<g id="tanner_body_0_Layer1_6_FILL">
<path fill="#221F20" stroke="none" d="
M 701.25 731.35
Q 697.4 731.95 697 733.05 696.9 733.45 700.65 733.25 705.8 732.95 709.75 734.25 713.65 735.55 717.65 738.6 720.5 740.8 720.6 740.4 721 739.3 718.25 736.7 715.05 733.7 710.4 732.2 705.8 730.7 701.25 731.35 Z"/>
</g>

<g id="tanner_body_0_Layer1_7_FILL">
<path fill="#221F20" stroke="none" d="
M 629.85 729.7
Q 629.7 728.55 626 727.55 621.7 726.45 616.9 727.2 612.1 727.95 608.4 730.35 605.25 732.4 605.4 733.55 605.5 734 608.7 732.3 613.25 729.95 617.25 729.35 621.3 728.7 626.3 729.55 629.95 730.15 629.85 729.7 Z"/>
</g>

<g id="mouth_0_Layer0_0_FILL">
<path fill="#C55C64" stroke="none" d="
M 7.1 20.25
Q 12.8 23.9 21 23.95 29.25 24.05 35.05 20.55 40.45 17.25 41.8 12.25 43.4 6.05 39.65 3.6 35.4 0.8 21.25 0.1 6.5 -0.65 2.05 3.15 -1.05 5.85 0.5 11.85 1.75 16.9 7.1 20.25 Z"/>
</g>

<g id="eyes_0_Layer0_0_FILL">
<path fill="#221F20" stroke="none" d="
M 2.1 1.6
Q 0.15 3.4 0 6.05 -0.15 8.7 1.6 10.65 3.4 12.65 6.05 12.75 8.7 12.9 10.65 11.15 12.65 9.35 12.8 6.75 12.9 4.1 11.15 2.1 9.4 0.15 6.75 0 4.1 -0.15 2.1 1.6
M 92.8 10.95
Q 90.85 12.7 90.7 15.35 90.55 18 92.3 20 94.1 21.95 96.75 22.1 99.4 22.25 101.35 20.5 103.35 18.7 103.45 16.05 103.6 13.4 101.85 11.45 100.05 9.45 97.45 9.35 94.8 9.2 92.8 10.95 Z"/>
</g>

<g id="eyes_0_Layer0_1_FILL">
<path fill="#221F20" stroke="none" d="
M 2.1 1.6
Q 0.15 3.4 0 6.05 -0.15 8.7 1.6 10.65 3.4 12.65 6.05 12.75 8.7 12.9 10.65 11.15 12.65 9.35 12.8 6.75 12.9 4.1 11.15 2.1 9.4 0.15 6.75 0 4.1 -0.15 2.1 1.6
M 92.8 10.95
Q 90.85 12.7 90.7 15.35 90.55 18 92.3 20 94.1 21.95 96.75 22.1 99.4 22.25 101.35 20.5 103.35 18.7 103.45 16.05 103.6 13.4 101.85 11.45 100.05 9.45 97.45 9.35 94.8 9.2 92.8 10.95 Z"/>
</g>

<g id="Mask_6_MASK_0_FILL">
<path fill="#FFFFFF" stroke="none" d="
M 349.5 342.5
Q 347.7 338 332.5 334.6 316.95 331.15 306.8 320.75 299.55 313.3 296.2 303.7 293.9 296.8 293.75 285.6 293.55 272.4 296.2 250.55 296.45 248.6 280.15 248 265.15 247.45 244.05 248.3 222.2 249.15 207.25 251 190.25 253.15 189.2 255.8 187.35 260.4 207.85 304.45 213 315.55 222.25 335.3 228.85 349.85 228.8 352 228.65 356.65 248.75 366.6 253.9 369.2 263.7 373.8 271.3 377.5 273 379 276.1 381.7 285.6 378.15 296.1 374.2 298.4 374.75 307.2599609375 377.0671875 328.6 373.1 347.7859375 368.0123046875 348.55 353.6 348.65 352.2 349.55 347.35 350.15 344.15 349.5 342.5 Z"/>
</g>

<g id="r_hand_0_Layer0_0_FILL">
<path fill="#E9ECEE" stroke="none" d="
M 539.35 735.05
Q 541.05 730.9 540.85 727.35 540.6 723.75 538.55 723 534.8 721.7 532.7 723 530.95 724.1 528.8 728.35 523.2 720.2 522.4 719.35 519.1 715.7 514.45 715.45 506.6 715.05 500.95 720.85 495.4 726.55 495.3 734.65 495.15 742.55 500.7 748.1 506.2 753.65 514.45 753.8
L 514.5 753.8
Q 514.2 755.05 514.7 755.95 515.85 757.85 519.65 757.45 523.45 757.1 527.7 754.6 532 752.15 534.25 749 536.5 745.9 535.4 744 535.05 743.5 534.5 743.1 537.45 739.6 539.35 735.05 Z"/>
</g>

<g id="Mask_3_MASK_0_FILL">
<path fill="#FFFFFF" stroke="none" d="
M 88 428.8
L 476.8 378 562.4 -16 72.8 67.2 88 428.8 Z"/>
</g>

<g id="folder_0_Layer3_0_FILL">
<path fill="#C28830" stroke="none" d="
M 15.65 -11.3
L 14.15 -8.9 14.15 19 15.65 19 15.65 -11.3 Z"/>
</g>

<g id="paper_0_Layer0_0_MEMBER_0_FILL">
<path fill="#FFFFFF" stroke="none" d="
M 13.5 16.75
L 13.5 -16.7 -13.5 -16.7 -13.5 16.75 13.5 16.75
M 4.85 -5.45
L 4.85 -13.5 11.05 -13.5 11.05 -5.45 4.85 -5.45
M 2.75 -8.35
L 2.75 -7.45 -9.4 -7.45 -9.4 -8.35 2.75 -8.35
M 2.75 -10.35
L 2.75 -9.45 -9.4 -9.45 -9.4 -10.35 2.75 -10.35
M 2.75 -6.35
L 2.75 -5.45 -9.4 -5.45 -9.4 -6.35 2.75 -6.35
M 11.1 -2.9
L 11.1 -2 -9.4 -2 -9.4 -2.9 11.1 -2.9
M 11.1 4.05
L 11.1 4.95 -9.4 4.95 -9.4 4.05 11.1 4.05
M 11.1 6.3
L 11.1 7.2 -9.4 7.2 -9.4 6.3 11.1 6.3
M 11.1 8.5
L 11.1 9.4 -9.4 9.4 -9.4 8.5 11.1 8.5
M 11.1 1.55
L 11.1 2.45 -9.4 2.45 -9.4 1.55 11.1 1.55
M 11.1 -0.65
L 11.1 0.25 -9.4 0.25 -9.4 -0.65 11.1 -0.65
M -9.35 -12.25
L -9.35 -13.1 -5.9 -13.1 -5.9 -12.25 -9.35 -12.25
M 4.85 -13.5
L 4.85 -5.45 11.05 -5.45 11.05 -13.5 4.85 -13.5 Z"/>

<path fill="#000000" stroke="none" d="
M -9.35 -13.1
L -9.35 -12.25 -5.9 -12.25 -5.9 -13.1 -9.35 -13.1
M 11.1 0.25
L 11.1 -0.65 -9.4 -0.65 -9.4 0.25 11.1 0.25
M 11.1 2.45
L 11.1 1.55 -9.4 1.55 -9.4 2.45 11.1 2.45
M 11.1 9.4
L 11.1 8.5 -9.4 8.5 -9.4 9.4 11.1 9.4
M 11.1 7.2
L 11.1 6.3 -9.4 6.3 -9.4 7.2 11.1 7.2
M 11.1 4.95
L 11.1 4.05 -9.4 4.05 -9.4 4.95 11.1 4.95
M 11.1 -2
L 11.1 -2.9 -9.4 -2.9 -9.4 -2 11.1 -2
M 2.75 -5.45
L 2.75 -6.35 -9.4 -6.35 -9.4 -5.45 2.75 -5.45
M 2.75 -9.45
L 2.75 -10.35 -9.4 -10.35 -9.4 -9.45 2.75 -9.45
M 2.75 -7.45
L 2.75 -8.35 -9.4 -8.35 -9.4 -7.45 2.75 -7.45 Z"/>
</g>

<g id="folder_0_Layer0_0_FILL">
<path fill="#E9BE49" stroke="none" d="
M 14.15 -8.9
L 15.65 -11.3 15.65 -18.95 -15.6 -18.95 -15.6 19 14.15 19 14.15 -8.9 Z"/>
</g>

<g id="l_arm_0_Layer0_0_FILL">
<path fill="#221F20" stroke="none" d="
M 2.4 10.2
Q 9.7 27.85 10.85 40.8 11.95 52.8 8.95 76.55 7.9 84.7 8.25 87.7 8.75 91.8 11.75 91.75 12.95 91.75 14.85 86.65 16.9 81.15 18.25 73.4 21.95 52.6 17.9 34.95 13.8 17 9.75 7.75 6.35 -0.05 3.8 0 0.1 0.05 0 2.6 0 4.45 2.4 10.2 Z"/>
</g>

<g id="l_hand_0_Layer0_0_FILL">
<path fill="#E9ECEE" stroke="none" d="
M 763.9 874.65
Q 760.9 877.65 760.05 881.05 759.2 884.45 761 886.25 762.15 887.4 764.05 887.5 765.85 887.55 767.95 886.6 766.8 893.9 769.15 897.7 771.5 901.6 778.1 902.85 786.15 904.4 792.8 901.95 800.6 899.05 802.2 891.6 805.3 877.25 797.15 871.95 800.45 870.9 800.6 869.2 800.8 867.2 796.95 865.4 793.1 863.65 787.45 863.1 781.8 862.55 777.7 863.6 773.6 864.65 773.4 866.65 773.25 867.95 775 869.2 772.15 869.65 769.05 871.2 765.8 872.75 763.9 874.65 Z"/>
</g>

<path id="ban_l_arm_0_Layer0_1_1_STROKES" stroke="#231F20" stroke-width="1.14" stroke-linejoin="miter" stroke-linecap="butt" stroke-miterlimit="10" fill="none" d="
M 16.571162414550784 -10.552598571777338
Q 13.497233581542972 -12.66954956054687 9.002337646484378 -6.376695251464838 7.552371215820315 -8.928636169433588 5.406420898437503 -8.406648254394526 3.782458496093753 -8.000657653808588 4.101451110839847 -5.912705993652338 4.246447753906253 -4.984727478027338 5.290423583984378 -2.3457885742187443 5.522418212890628 -1.6788040161132756 5.986407470703128 -0.9828201293945256 5.261424255371097 -0.9828201293945256 5.087428283691409 -0.6928268432617131 4.797434997558597 -0.19983825683593182 5.667414855957034 0.8441375732421932 6.537394714355472 1.9171127319335994 8.103358459472659 2.903089904785162 9.669322204589847 3.9180664062500057 11.003291320800784 4.237059020996099 12.337260437011722 4.585050964355474 12.656253051757815 4.063063049316412 12.888247680664065 3.715071105957037 12.482257080078128 3.0770858764648494 14.222216796875003 2.787092590332037 15.991175842285159 1.627119445800787 17.760134887695315 0.4381469726562557 18.862109375000003 -1.156816101074213 20.42807312011719 -3.3897644042968693 19.558093261718753 -6.347695922851557 18.746112060546878 -9.044633483886713 16.571162414550784 -10.552598571777338 Z"/>

<path id="Layer13_0_MEMBER_0_MEMBER_8_1_STROKES" stroke="#231F20" stroke-width="1.14" stroke-linejoin="miter" stroke-linecap="butt" stroke-miterlimit="10" fill="none" d="
M 111.89765625 279.02628021240236
Q 110.62168579101562 277.3733184814453 108.67873077392578 276.53233795166017
L 108.73672943115234 276.3003433227539
Q 108.73672943115234 275.63335876464845 107.17076568603515 275.16936950683595 105.63380126953125 274.70538024902345 103.42985229492187 274.70538024902345 101.2259033203125 274.70538024902345 99.65993957519531 275.16936950683595 98.09397583007812 275.63335876464845 98.09397583007812 276.3003433227539 98.09397583007812 276.99632720947267 99.74693756103515 277.46031646728517 97.31099395751953 279.8962600708008 97.36899261474609 283.34718017578126 97.36899261474609 286.47910766601564 99.25394897460937 288.7120559692383 101.13890533447265 290.91600494384767 103.77784423828125 290.91600494384767 107.8667495727539 290.91600494384767 108.59173278808593 288.91505126953126 108.88172607421875 288.16106872558595 108.85272674560547 286.6531036376953 108.73672943115234 284.8261459350586 108.73672943115234 283.7821701049805 108.73672943115234 282.88319091796876 108.67873077392578 282.41920166015626 109.7227066040039 283.5791748046875 110.82468109130859 284.0431640625 111.92665557861328 284.47815399169923 112.59364013671875 283.98516540527345 113.37662200927734 283.4341781616211 113.17362670898437 281.98421173095704 112.9706314086914 280.534245300293 111.89765625 279.02628021240236 Z"/>

<path id="Layer8_0_MEMBER_0_MEMBER_0_MEMBER_1_MEMBER_0_1_STROKES" stroke="#000000" stroke-width="1" stroke-linejoin="miter" stroke-linecap="butt" stroke-miterlimit="10" fill="none" d="
M 185.45 268.5
L 189.3 267.75 185.3 266.3 181.45 267.05 185.45 268.5 Z"/>

<path id="Layer6_0_1_STROKES" stroke="#231F20" stroke-width="3" stroke-linejoin="miter" stroke-linecap="butt" stroke-miterlimit="10" fill="none" d="
M 286.5 315
Q 287.65 313.75 290.15 310.9 293.2 307.45 294.35 306.3 295.9 304.7 297.15 303.6 298.2 302.7 299.25 302 305.7 297.75 313.8 299.3"/>

<path id="r_hand_0_Layer0_0_1_STROKES" stroke="#221F20" stroke-width="2" stroke-linejoin="miter" stroke-linecap="butt" stroke-miterlimit="10" fill="none" d="
M 495.3 734.65
Q 495.4 726.55 500.95 720.85 506.6 715.05 514.45 715.45 519.1 715.7 522.4 719.35 523.2 720.2 528.8 728.35 530.95 724.1 532.7 723 534.8 721.7 538.55 723 540.6 723.75 540.85 727.35 541.05 730.9 539.35 735.05 537.45 739.6 534.5 743.1 535.05 743.5 535.4 744 536.5 745.9 534.25 749 532 752.15 527.7 754.6 523.45 757.1 519.65 757.45 515.85 757.85 514.7 755.95 514.2 755.05 514.5 753.8
L 514.45 753.8
Q 506.2 753.65 500.7 748.1 495.15 742.55 495.3 734.65 Z"/>

<path id="paper_0_Layer0_0_MEMBER_0_1_STROKES" stroke="#000000" stroke-width="1" stroke-linejoin="miter" stroke-linecap="butt" stroke-miterlimit="10" fill="none" d="
M 4.85 -13.5
L 11.05 -13.5 11.05 -5.45 4.85 -5.45 4.85 -13.5 Z"/>

<path id="l_hand_0_Layer0_0_1_STROKES" stroke="#221F20" stroke-width="2" stroke-linejoin="miter" stroke-linecap="butt" stroke-miterlimit="10" fill="none" d="
M 763.9 874.65
Q 765.8 872.75 769.05 871.2 772.15 869.65 775 869.2 773.25 867.95 773.4 866.65 773.6 864.65 777.7 863.6 781.8 862.55 787.45 863.1 793.1 863.65 796.95 865.4 800.8 867.2 800.6 869.2 800.45 870.9 797.15 871.95 805.3 877.25 802.2 891.6 800.6 899.05 792.8 901.95 786.15 904.4 778.1 902.85 771.5 901.6 769.15 897.7 766.8 893.9 767.95 886.6 765.85 887.55 764.05 887.5 762.15 887.4 761 886.25 759.2 884.45 760.05 881.05 760.9 877.65 763.9 874.65 Z"/>
</defs>

<g transform="matrix( 0.1050872802734375, 0.994110107421875, -0.994110107421875, 0.1050872802734375, 150.75,264.35) ">
<g transform="matrix( 0.579986572265625, 0, 0, 0.579986572265625, -62.8,-79.6) ">
<use xlink:href="#ban_l_arm_0_Layer0_0_FILL"/>
</g>

<g transform="matrix( 0.579986572265625, 0, 0, 0.579986572265625, -62.8,-79.6) ">
<use xlink:href="#ban_l_arm_0_Layer0_1_FILL"/>

<use xlink:href="#ban_l_arm_0_Layer0_1_1_STROKES" transform="matrix( 1.7241668701171875, 0, 0, 1.7241668701171875, 108.25,137.2) "/>
</g>
</g>

<g transform="matrix( 0.579986572265625, 0, 0, 0.579986572265625, 97.05,161.55) ">
<use xlink:href="#Layer13_0_MEMBER_0_MEMBER_0_FILL"/>
</g>

<g transform="matrix( 0.579986572265625, 0, 0, 0.579986572265625, 97.05,161.55) ">
<use xlink:href="#Layer13_0_MEMBER_0_MEMBER_1_FILL"/>
</g>

<g transform="matrix( 0.579986572265625, 0, 0, 0.579986572265625, 97.05,161.55) ">
<use xlink:href="#Layer13_0_MEMBER_0_MEMBER_2_FILL"/>
</g>

<g transform="matrix( 0.579986572265625, 0, 0, 0.579986572265625, 97.05,161.55) ">
<use xlink:href="#Layer13_0_MEMBER_0_MEMBER_3_FILL"/>
</g>

<g transform="matrix( 0.579986572265625, 0, 0, 0.579986572265625, 97.05,161.55) ">
<use xlink:href="#Layer13_0_MEMBER_0_MEMBER_4_FILL"/>
</g>

<g transform="matrix( 0.579986572265625, 0, 0, 0.579986572265625, 97.05,161.55) ">
<use xlink:href="#Layer13_0_MEMBER_0_MEMBER_5_FILL"/>
</g>

<g transform="matrix( 0.579986572265625, 0, 0, 0.579986572265625, 97.05,161.55) ">
<use xlink:href="#Layer13_0_MEMBER_0_MEMBER_6_FILL"/>
</g>

<g transform="matrix( 0.579986572265625, 0, 0, 0.579986572265625, 97.05,161.55) ">
<use xlink:href="#Layer13_0_MEMBER_0_MEMBER_7_FILL"/>
</g>

<g transform="matrix( 0.579986572265625, 0, 0, 0.579986572265625, 97.05,161.55) ">
<use xlink:href="#Layer13_0_MEMBER_0_MEMBER_8_FILL"/>

<use xlink:href="#Layer13_0_MEMBER_0_MEMBER_8_1_STROKES" transform="matrix( 1.7241668701171875, 0, 0, 1.7241668701171875, -167.3,-278.5) "/>
</g>

<g transform="matrix( 1, 0, 0, 1, 0,0) ">
<use xlink:href="#Layer12_0_FILL"/>
</g>

<g transform="matrix( 1, 0, 0, 1, 136.1,226.4) ">
<g transform="matrix( 0.579986572265625, 0, 0, 0.579986572265625, -39.05,-62.35) ">
<use xlink:href="#dr_ban_eyes_0_Layer0_0_FILL"/>
</g>

<g transform="matrix( 0.579986572265625, 0, 0, 0.579986572265625, -39.05,-62.35) ">
<use xlink:href="#dr_ban_eyes_0_Layer0_1_FILL"/>
</g>
</g>

<g transform="matrix( 1, 0, 0, 1, 138.35,214.55) ">
<g transform="matrix( 0.579986572265625, 0, 0, 0.579986572265625, -41.2,-53.85) ">
<use xlink:href="#dr_ban_brrows_0_Layer0_0_FILL"/>
</g>

<g transform="matrix( 0.579986572265625, 0, 0, 0.579986572265625, -41.2,-53.85) ">
<use xlink:href="#dr_ban_brrows_0_Layer0_1_FILL"/>
</g>
</g>

<g transform="matrix( 0.509979248046875, 0, 0, 0.509979248046875, 57.85,198.95) ">
<use xlink:href="#Layer9_0_MEMBER_0_MEMBER_0_FILL"/>
</g>

<g transform="matrix( 0.509979248046875, 0, 0, 0.509979248046875, 57.85,198.95) ">
<use xlink:href="#Layer9_0_MEMBER_0_MEMBER_1_FILL"/>
</g>

<g transform="matrix( 0.509979248046875, 0, 0, 0.509979248046875, 57.85,198.95) ">
<use xlink:href="#Layer9_0_MEMBER_0_MEMBER_2_FILL"/>
</g>

<g transform="matrix( 0.509979248046875, 0, 0, 0.509979248046875, 57.85,198.95) ">
<use xlink:href="#Layer9_0_MEMBER_0_MEMBER_3_FILL"/>
</g>

<g transform="matrix( 0.509979248046875, 0, 0, 0.509979248046875, 57.85,198.95) ">
<use xlink:href="#Layer9_0_MEMBER_0_MEMBER_4_FILL"/>
</g>

<g transform="matrix( 0.509979248046875, 0, 0, 0.509979248046875, 57.85,198.95) ">
<use xlink:href="#Layer9_0_MEMBER_0_MEMBER_5_FILL"/>
</g>

<g transform="matrix( 0.509979248046875, 0, 0, 0.509979248046875, 57.85,198.95) ">
<use xlink:href="#Layer9_0_MEMBER_0_MEMBER_6_FILL"/>
</g>

<g transform="matrix( 0.509979248046875, 0, 0, 0.509979248046875, 57.85,198.95) ">
<use xlink:href="#Layer9_0_MEMBER_0_MEMBER_7_FILL"/>
</g>

<g transform="matrix( 0.509979248046875, 0, 0, 0.509979248046875, 57.85,198.95) ">
<use xlink:href="#Layer9_0_MEMBER_0_MEMBER_8_FILL"/>
</g>

<g transform="matrix( 0.509979248046875, 0, 0, 0.509979248046875, 57.85,198.95) ">
<use xlink:href="#Layer9_0_MEMBER_0_MEMBER_9_FILL"/>
</g>

<g transform="matrix( 0.509979248046875, 0, 0, 0.509979248046875, 57.85,198.95) ">
<use xlink:href="#Layer9_0_MEMBER_0_MEMBER_10_FILL"/>
</g>

<g transform="matrix( 0.509979248046875, 0, 0, 0.509979248046875, 57.85,198.95) ">
<use xlink:href="#Layer9_0_MEMBER_0_MEMBER_11_FILL"/>
</g>

<g transform="matrix( 0.509979248046875, 0, 0, 0.509979248046875, 57.85,198.95) ">
<use xlink:href="#Layer9_0_MEMBER_0_MEMBER_12_FILL"/>
</g>

<g transform="matrix( 0.509979248046875, 0, 0, 0.509979248046875, 57.85,198.95) ">
<use xlink:href="#Layer9_0_MEMBER_0_MEMBER_13_FILL"/>
</g>

<g transform="matrix( 0.509979248046875, 0, 0, 0.509979248046875, 57.85,198.95) ">
<use xlink:href="#Layer9_0_MEMBER_0_MEMBER_14_FILL"/>
</g>

<g transform="matrix( 0.509979248046875, 0, 0, 0.509979248046875, 57.85,198.95) ">
<use xlink:href="#Layer9_0_MEMBER_0_MEMBER_15_FILL"/>
</g>

<g transform="matrix( 0.509979248046875, 0, 0, 0.509979248046875, 57.85,198.95) ">
<use xlink:href="#Layer9_0_MEMBER_0_MEMBER_16_FILL"/>
</g>

<g transform="matrix( 0.509979248046875, 0, 0, 0.509979248046875, 57.85,198.95) ">
<use xlink:href="#Layer9_0_MEMBER_0_MEMBER_17_FILL"/>
</g>

<g transform="matrix( 0.509979248046875, 0, 0, 0.509979248046875, 57.85,198.95) ">
<use xlink:href="#Layer9_0_MEMBER_0_MEMBER_18_FILL"/>
</g>

<g transform="matrix( 0.509979248046875, 0, 0, 0.509979248046875, 57.85,198.95) ">
<use xlink:href="#Layer9_0_MEMBER_0_MEMBER_19_FILL"/>
</g>

<g transform="matrix( 0.509979248046875, 0, 0, 0.509979248046875, 57.85,198.95) ">
<use xlink:href="#Layer9_0_MEMBER_0_MEMBER_20_FILL"/>
</g>

<g transform="matrix( 0.509979248046875, 0, 0, 0.509979248046875, 57.85,198.95) ">
<use xlink:href="#Layer9_0_MEMBER_0_MEMBER_21_FILL"/>
</g>

<g transform="matrix( 0.509979248046875, 0, 0, 0.509979248046875, 57.85,198.95) ">
<use xlink:href="#Layer9_0_MEMBER_0_MEMBER_22_FILL"/>
</g>

<g transform="matrix( 0.509979248046875, 0, 0, 0.509979248046875, 57.85,198.95) ">
<use xlink:href="#Layer9_0_MEMBER_0_MEMBER_23_FILL"/>
</g>

<g transform="matrix( 0.509979248046875, 0, 0, 0.509979248046875, 57.85,198.95) ">
<use xlink:href="#Layer9_0_MEMBER_0_MEMBER_24_FILL"/>
</g>

<g transform="matrix( 0.509979248046875, 0, 0, 0.509979248046875, 57.85,198.95) ">
<use xlink:href="#Layer9_0_MEMBER_0_MEMBER_25_FILL"/>
</g>

<g transform="matrix( 0.509979248046875, 0, 0, 0.509979248046875, 57.85,198.95) ">
<use xlink:href="#Layer9_0_MEMBER_0_MEMBER_26_FILL"/>
</g>

<g transform="matrix( 0.509979248046875, 0, 0, 0.509979248046875, 57.85,198.95) ">
<use xlink:href="#Layer9_0_MEMBER_0_MEMBER_27_FILL"/>
</g>

<g transform="matrix( 0.509979248046875, 0, 0, 0.509979248046875, 57.85,198.95) ">
<use xlink:href="#Layer9_0_MEMBER_0_MEMBER_28_FILL"/>
</g>

<g transform="matrix( 0.509979248046875, 0, 0, 0.509979248046875, 57.85,198.95) ">
<use xlink:href="#Layer9_0_MEMBER_0_MEMBER_29_FILL"/>
</g>

<g transform="matrix( 0.509979248046875, 0, 0, 0.509979248046875, 57.85,198.95) ">
<use xlink:href="#Layer9_0_MEMBER_0_MEMBER_30_FILL"/>
</g>

<g transform="matrix( 0.509979248046875, 0, 0, 0.509979248046875, 57.85,198.95) ">
<use xlink:href="#Layer9_0_MEMBER_0_MEMBER_31_FILL"/>
</g>

<g transform="matrix( 0.509979248046875, 0, 0, 0.509979248046875, 57.85,198.95) ">
<use xlink:href="#Layer9_0_MEMBER_0_MEMBER_32_FILL"/>
</g>

<g transform="matrix( 0.509979248046875, 0, 0, 0.509979248046875, 57.85,198.95) ">
<use xlink:href="#Layer9_0_MEMBER_0_MEMBER_33_FILL"/>
</g>

<g transform="matrix( 0.509979248046875, 0, 0, 0.509979248046875, 57.85,198.95) ">
<use xlink:href="#Layer9_0_MEMBER_0_MEMBER_34_FILL"/>
</g>

<g transform="matrix( 0.509979248046875, 0, 0, 0.509979248046875, 57.85,198.95) ">
<use xlink:href="#Layer9_0_MEMBER_0_MEMBER_35_FILL"/>
</g>

<g transform="matrix( 0.509979248046875, 0, 0, 0.509979248046875, 57.85,198.95) ">
<use xlink:href="#Layer9_0_MEMBER_0_MEMBER_36_FILL"/>
</g>

<g transform="matrix( 0.509979248046875, 0, 0, 0.509979248046875, 57.85,198.95) ">
<use xlink:href="#Layer9_0_MEMBER_0_MEMBER_37_FILL"/>
</g>

<g transform="matrix( 0.509979248046875, 0, 0, 0.509979248046875, 57.85,198.95) ">
<use xlink:href="#Layer9_0_MEMBER_0_MEMBER_38_FILL"/>
</g>

<g transform="matrix( 0.509979248046875, 0, 0, 0.509979248046875, 57.85,198.95) ">
<use xlink:href="#Layer9_0_MEMBER_0_MEMBER_39_FILL"/>
</g>

<g transform="matrix( 0.509979248046875, 0, 0, 0.509979248046875, 57.85,198.95) ">
<use xlink:href="#Layer9_0_MEMBER_0_MEMBER_40_FILL"/>
</g>

<g transform="matrix( 0.509979248046875, 0, 0, 0.509979248046875, 57.85,198.95) ">
<use xlink:href="#Layer9_0_MEMBER_0_MEMBER_41_FILL"/>
</g>

<g transform="matrix( 0.509979248046875, 0, 0, 0.509979248046875, 57.85,198.95) ">
<use xlink:href="#Layer9_0_MEMBER_0_MEMBER_42_FILL"/>
</g>

<g transform="matrix( 0.509979248046875, 0, 0, 0.509979248046875, 57.85,198.95) ">
<use xlink:href="#Layer9_0_MEMBER_0_MEMBER_43_FILL"/>
</g>

<g transform="matrix( 0.509979248046875, 0, 0, 0.509979248046875, 57.85,198.95) ">
<use xlink:href="#Layer9_0_MEMBER_0_MEMBER_44_FILL"/>
</g>

<g transform="matrix( 0.509979248046875, 0, 0, 0.509979248046875, 57.85,198.95) ">
<use xlink:href="#Layer9_0_MEMBER_0_MEMBER_45_FILL"/>
</g>

<g transform="matrix( 0.509979248046875, 0, 0, 0.509979248046875, 57.85,198.95) ">
<use xlink:href="#Layer9_0_MEMBER_0_MEMBER_46_FILL"/>
</g>

<g transform="matrix( 0.509979248046875, 0, 0, 0.509979248046875, 57.85,198.95) ">
<use xlink:href="#Layer9_0_MEMBER_0_MEMBER_47_FILL"/>
</g>

<g transform="matrix( 0.509979248046875, 0, 0, 0.509979248046875, 57.85,198.95) ">
<use xlink:href="#Layer9_0_MEMBER_0_MEMBER_48_FILL"/>
</g>

<g transform="matrix( 0.509979248046875, 0, 0, 0.509979248046875, 57.85,198.95) ">
<use xlink:href="#Layer9_0_MEMBER_0_MEMBER_49_FILL"/>
</g>

<g transform="matrix( 0.509979248046875, 0, 0, 0.509979248046875, 57.85,198.95) ">
<use xlink:href="#Layer9_0_MEMBER_0_MEMBER_50_FILL"/>
</g>

<g transform="matrix( 0.509979248046875, 0, 0, 0.509979248046875, 57.85,198.95) ">
<use xlink:href="#Layer9_0_MEMBER_0_MEMBER_51_FILL"/>
</g>

<g transform="matrix( 0.509979248046875, 0, 0, 0.509979248046875, 57.85,198.95) ">
<use xlink:href="#Layer9_0_MEMBER_0_MEMBER_52_FILL"/>
</g>

<g transform="matrix( 0.509979248046875, 0, 0, 0.509979248046875, 57.85,198.95) ">
<use xlink:href="#Layer9_0_MEMBER_0_MEMBER_53_FILL"/>
</g>

<g transform="matrix( 0.509979248046875, 0, 0, 0.509979248046875, 57.85,198.95) ">
<use xlink:href="#Layer9_0_MEMBER_0_MEMBER_54_FILL"/>
</g>

<g transform="matrix( 0.509979248046875, 0, 0, 0.509979248046875, 57.85,198.95) ">
<use xlink:href="#Layer9_0_MEMBER_0_MEMBER_55_FILL"/>
</g>

<g transform="matrix( 0.509979248046875, 0, 0, 0.509979248046875, 57.85,198.95) ">
<use xlink:href="#Layer9_0_MEMBER_0_MEMBER_56_FILL"/>
</g>

<g transform="matrix( 0.509979248046875, 0, 0, 0.509979248046875, 57.85,198.95) ">
<use xlink:href="#Layer9_0_MEMBER_0_MEMBER_57_FILL"/>
</g>

<g transform="matrix( 0.509979248046875, 0, 0, 0.509979248046875, 57.85,198.95) ">
<use xlink:href="#Layer9_0_MEMBER_0_MEMBER_58_FILL"/>
</g>

<g transform="matrix( 0.509979248046875, 0, 0, 0.509979248046875, 57.85,198.95) ">
<use xlink:href="#Layer9_0_MEMBER_0_MEMBER_59_FILL"/>
</g>

<g transform="matrix( 0.509979248046875, 0, 0, 0.509979248046875, 57.85,198.95) ">
<use xlink:href="#Layer9_0_MEMBER_0_MEMBER_60_FILL"/>
</g>

<g transform="matrix( 0.509979248046875, 0, 0, 0.509979248046875, 57.85,198.95) ">
<use xlink:href="#Layer9_0_MEMBER_0_MEMBER_61_FILL"/>
</g>

<g transform="matrix( 0.509979248046875, 0, 0, 0.509979248046875, 57.85,198.95) ">
<use xlink:href="#Layer9_0_MEMBER_0_MEMBER_62_FILL"/>
</g>

<g transform="matrix( 1, 0, 0, 1, 0,0) ">
<use xlink:href="#Layer8_0_MEMBER_0_MEMBER_0_MEMBER_0_MEMBER_0_MEMBER_0_FILL"/>
</g>

<g transform="matrix( 1, 0, 0, 1, 0,0) ">
<use xlink:href="#Layer8_0_MEMBER_0_MEMBER_0_MEMBER_0_MEMBER_0_MEMBER_1_FILL"/>
</g>

<g transform="matrix( 1, 0, 0, 1, 0,0) ">
<use xlink:href="#Layer8_0_MEMBER_0_MEMBER_0_MEMBER_1_MEMBER_0_1_STROKES"/>
</g>

<g transform="matrix( 1, 0, 0, 1, 350,294.2) ">
<g transform="matrix( 0.444122314453125, 0, 0, 0.444122314453125, -306.95,-354.75) ">
<use xlink:href="#tanner_body_0_Layer1_0_FILL"/>
</g>

<g transform="matrix( 0.444122314453125, 0, 0, 0.444122314453125, -306.95,-354.75) ">
<use xlink:href="#tanner_body_0_Layer1_1_FILL"/>
</g>

<g transform="matrix( 0.444122314453125, 0, 0, 0.444122314453125, -306.95,-354.75) ">
<use xlink:href="#tanner_body_0_Layer1_2_FILL"/>
</g>

<g transform="matrix( 0.444122314453125, 0, 0, 0.444122314453125, -306.95,-354.75) ">
<use xlink:href="#tanner_body_0_Layer1_3_FILL"/>
</g>

<g transform="matrix( 1, 0, 0, 1, 0,0) ">
<use xlink:href="#tanner_body_0_Layer1_4_FILL"/>
</g>

<g transform="matrix( 0.444122314453125, 0, 0, 0.444122314453125, -306.95,-354.75) ">
<use xlink:href="#tanner_body_0_Layer1_5_FILL"/>
</g>

<g transform="matrix( 0.444122314453125, 0, 0, 0.444122314453125, -306.95,-354.75) ">
<use xlink:href="#tanner_body_0_Layer1_6_FILL"/>
</g>

<g transform="matrix( 0.444122314453125, 0, 0, 0.444122314453125, -306.95,-354.75) ">
<use xlink:href="#tanner_body_0_Layer1_7_FILL"/>
</g>

<g transform="matrix( 0.444122314453125, 0, 0, 0.12896728515625, -25.75,-5.3) ">
<g transform="matrix( 1, 0, 0, 1, 0,0) ">
<use xlink:href="#mouth_0_Layer0_0_FILL"/>
</g>
</g>

<g transform="matrix( 0.4441070556640625, 0, 0, 0.4441070556640625, -38.75,-23.85) ">
<g transform="matrix( 1, 0, 0, 1, 0,0) ">
<use xlink:href="#eyes_0_Layer0_0_FILL"/>
</g>

<g transform="matrix( 1, 0, 0, 1, 0,0) ">
<use xlink:href="#eyes_0_Layer0_1_FILL"/>
</g>
</g>
</g>

<mask id="Mask_Mask_1">
<g transform="matrix( 1, 0, 0, 1, 0,0) ">
<use xlink:href="#Mask_6_MASK_0_FILL"/>
</g>
</mask>

<g mask="url(#Mask_Mask_1)">
<g transform="matrix( 1, 0, 0, 1, 0,0) ">
<use xlink:href="#Layer6_0_1_STROKES"/>
</g>
</g>

<g transform="matrix( -0.413970947265625, -0.1593170166015625, -0.1593170166015625, 0.413970947265625, 317.2,286.15) ">
<g id="ikNode_1" transform="matrix( 0.5848846435546875, -0.81109619140625, -0.81109619140625, -0.5848846435546875, 46.15,110.25) "/>

<g transform="matrix( 0.5836029052734375, -0.80816650390625, -0.80816650390625, -0.5836029052734375, 50.85,135.5) ">
<g transform="matrix( 1, 0, 0, 1, -495.3,-715.4) ">
<use xlink:href="#r_hand_0_Layer0_0_FILL"/>

<use xlink:href="#r_hand_0_Layer0_0_1_STROKES"/>
</g>
</g>
</g>

<mask id="Mask_Mask_2">
<g transform="matrix( 1, 0, 0, 1, 0,0) ">
<use xlink:href="#Mask_3_MASK_0_FILL"/>
</g>
</mask>

<g mask="url(#Mask_Mask_2)">
<g transform="matrix( -0.9472198486328125, 0.3173675537109375, 0.3173675537109375, 0.9472198486328125, 339.3,317.2) ">
<g transform="matrix( 1, 0, 0, 1, 0,0) ">
<use xlink:href="#folder_0_Layer3_0_FILL"/>
</g>

<g transform="matrix( 1, 0, 0, 1, 1.5,0.9) ">
<g transform="matrix( 1, 0, 0, 1, 0,0) ">
<use xlink:href="#paper_0_Layer0_0_MEMBER_0_FILL"/>

<use xlink:href="#paper_0_Layer0_0_MEMBER_0_1_STROKES"/>
</g>
</g>

<g transform="matrix( 1, 0, 0, 1, 1.5,0.9) ">
<g transform="matrix( 1, 0, 0, 1, 0,0) ">
<use xlink:href="#paper_0_Layer0_0_MEMBER_0_FILL"/>

<use xlink:href="#paper_0_Layer0_0_MEMBER_0_1_STROKES"/>
</g>
</g>

<g transform="matrix( 1, 0, 0, 1, 0,0) ">
<use xlink:href="#folder_0_Layer0_0_FILL"/>
</g>
</g>
</g>

<g transform="matrix( 0.1278839111328125, 0.424041748046875, -0.424041748046875, 0.1278839111328125, 385.7,294.7) ">
<g transform="matrix( 1, 0, 0, 1, 12.4,0) ">
<g transform="matrix( 1, 0, 0, 1, 0,0) ">
<use xlink:href="#l_arm_0_Layer0_0_FILL"/>
</g>
</g>

<g transform="matrix( 1, 0, 0, 1, 0,59.3) ">
<g transform="matrix( 1, 0, 0, 1, -759.8,-862.9) ">
<use xlink:href="#l_hand_0_Layer0_0_FILL"/>

<use xlink:href="#l_hand_0_Layer0_0_1_STROKES"/>
</g>
</g>
</g>
</svg>
