<svg xmlns="http://www.w3.org/2000/svg" viewBox="0 0 906.99 377.97"><defs><style>.cls-1{fill:#009444;}.cls-2{fill:#231f20;}.cls-13,.cls-18,.cls-3,.cls-8{fill:#e8ecee;stroke:#231f20;stroke-miterlimit:10;}.cls-3{stroke-width:1px;}.cls-4{fill:#f7941d;}.cls-5{fill:#f36e24;}.cls-6{fill:#d35461;}.cls-7{fill:#be1e2d;}.cls-8{stroke-width:0.53px;}.cls-9{fill:#044926;}.cls-10{fill:#8dc63f;}.cls-11{fill:#006838;}.cls-12{fill:#fff;}.cls-13{stroke-width:0.97px;}.cls-14{fill:#ffd469;}.cls-15{fill:#fee96b;}.cls-16{fill:#b5c962;}.cls-17{fill:#cad86e;}.cls-18{stroke-width:1px;}.cls-19{fill:#fee465;}.cls-20{fill:#ffd449;}.cls-21{fill:#754c29;}.cls-22{fill:#c19cc8;}.cls-23{fill:#a87ab5;}</style></defs><title>panel_interview</title><g id="Layer_2" data-name="Layer 2"><g id="Layer_2-2" data-name="Layer 2"><path class="cls-1" d="M1,241c-6.22-2.36,16.59,10.8,35.25,8.63s36.41-9.93,35.6-16.87-5.09-10.14-23.6-6.89C30.12,229.08,12.93,245.52,1,241Z"/><polygon class="cls-1" points="60.41 248.69 63.47 248.53 63.88 240.4 59.8 241.13 60.41 248.69"/><path class="cls-2" d="M136.54,284.33c11.4-7.75,14.59-17.82,17.33-14.37.95,1.19-7.79,14.34-20.13,20.48-11.94,5.94-17.13,6.85-18.08,5.66C112.31,291.87,125.15,292.08,136.54,284.33Z"/><path class="cls-3" d="M161.25,269.1c-.09-5.32-4.32-9.92-9.63-9.63-3.54.19-4.73,2.86-7.22,6.48-1.31-2.64-2.21-3.62-4.88-2.69-1.4.49-1.55,3.28-.4,6.05a16.67,16.67,0,0,0,2.44,4,1.32,1.32,0,0,0-.46.45c-.74,1.28,1,3.66,3.85,5.32s5.79,2,6.53.68a1.5,1.5,0,0,0,.12-1.08h0A9.55,9.55,0,0,0,161.25,269.1Z"/><path class="cls-2" d="M63.86,377.66c-3.16-.31-6.68-1.25-7.81-2-1.66-1.16-.72-7.46-.6-9.1L57,345.32c.12-1.64,1.93-1.21,4.16-1h0c.83,4.24.12,23.55,1.83,24.74,6.7,4.63,14.47,8.37,8.31,8.82A32.83,32.83,0,0,1,63.86,377.66Z"/><path class="cls-2" d="M95.92,374.24c-3.17,0-6.77-.61-8-1.28-1.76-1-1.43-7.36-1.46-9L86,342.69c0-1.64,1.8-1.38,4-1.43h0c1.23,4.14,2.36,23.43,4.18,24.45,7.11,4,15.2,7,9.11,8A32.83,32.83,0,0,1,95.92,374.24Z"/><ellipse class="cls-4" cx="70.67" cy="297.52" rx="55.31" ry="50.69"/><path class="cls-5" d="M78.37,341.33c-29.51,0-53.43-22.3-53.43-49.81,0-15.76,7.86-29.82,20.12-38.94C27.41,261,15.36,278,15.36,297.52c0,28,24.76,50.69,55.31,50.69,18.22,0,34.38-8.08,44.46-20.53A55.37,55.37,0,0,1,78.37,341.33Z"/><circle class="cls-2" cx="55.08" cy="285.92" r="3.22" transform="translate(-15.55 3.44) rotate(-3.13)"/><circle class="cls-2" cx="100.64" cy="281.23" r="3.22" transform="translate(-15.22 5.92) rotate(-3.13)"/><path class="cls-2" d="M59.89,268.31c.19.57-2.94-.53-6.4.6S48.21,272.56,48,272s1.67-3,5.13-4.12S59.7,267.74,59.89,268.31Z"/><path class="cls-2" d="M93.62,266.62c-.09.6,2.74-.75,6.34-.19s5.85,2.72,5.94,2.12-2.17-2.64-5.77-3.2S93.72,266,93.62,266.62Z"/><path class="cls-6" d="M91.71,297.06c-.81,3.22-4.59,6-10.32,6.1s-9.6-2.69-10.44-5.89c-1-4,.51-5.61,10.32-6.1C92.25,290.62,92.51,293.84,91.71,297.06Z"/><path class="cls-2" d="M16.65,324.24c-1.23,13.73,4,25.69-.45,25.62-1.52,0-6.15-15.12-3.08-28.55,3-13,5.56-17.59,7.08-17.57C25.61,303.82,17.89,310.52,16.65,324.24Z"/><path class="cls-3" d="M26.28,339.45a11.47,11.47,0,0,0-5.57-2.74,1.57,1.57,0,0,0,.81-1.3c-.13-1.34-3.29-2.14-7.06-1.78s-6.74,1.73-6.61,3.06c.06.59.7,1.07,1.72,1.4C7.37,339.53,5.81,342.29,7,348c1.17,5.43,7.41,6.58,12.12,5.67,4.47-.86,5.83-3.33,5.08-8.16,1.39.61,2.73.6,3.5-.17C28.94,344.07,28.29,341.46,26.28,339.45Z"/><path class="cls-7" d="M56.55,307.78c5.07-5.13,21.71,1.92,28.49,7.28A6.65,6.65,0,0,1,92.62,314c5.49-6.78,19.84-17.21,25.9-13.43,4.15,2.6,6.1,21.51,1.15,26.42s-20.22,2.36-26.3-2.44a6.65,6.65,0,0,1-6.7.62c-4.67,6.12-19.14,12.28-25.17,8.58S53.11,311.25,56.55,307.78Z"/><path class="cls-2" d="M783,273.29c1.37-.14,4.16-.81,3.63-3-2.05-8.47-3.16-35.41-3.16-35.41.05-2.26,2-9.82.23-9.87l-1.83,9.87c-1.82,0-1.64,1.23-1.56,3.49.81,25.87-.82,28.52-.82,28.52C760.6,273.82,776.87,273.92,783,273.29Z"/><path class="cls-2" d="M765.19,272.87c1.37-.12,4.17-.74,3.68-2.95-1.91-8.51-2.55-35.46-2.55-35.46.09-2.26,2.22-9.79.4-9.86l-2,9.84c-1.82-.07-1.66,1.2-1.62,3.46.37,25.88-1.31,28.5-1.31,28.5C742.8,273,759.07,273.39,765.19,272.87Z"/><path class="cls-2" d="M749.18,233.38c-1.1,11.08.67,15.8-1.36,18.3-1.2,1.48-2.55-4.78-1.52-15.15s5.78-19,6.8-18.85C756,218,750,224.82,749.18,233.38Z"/><path class="cls-8" d="M753.09,247.64a6.28,6.28,0,0,0-2.5-1.93.42.42,0,0,0,.05-.19c0-.69-1.85-1.25-4.14-1.25s-4.14.56-4.14,1.25c0,.35.49.67,1.27.9a6.33,6.33,0,0,0-1.84,4.56c0,3.25,2.24,5.89,5,5.89,4.84,0,3.85-2.29,3.85-5.54,0-.36,0-.71,0-1.06,1.05,1.18,2.33,1.73,3,1.22S754.19,249.19,753.09,247.64Z"/><path class="cls-9" d="M798.81,145.42c-10.95,0-20.66,4.28-26.72,10.89-6.06-6.61-15.77-10.89-26.72-10.89-18.37,0-33.27,12.06-33.27,26.95s14.89,26.95,33.27,26.95c10.95,0,20.66-4.28,26.72-10.89,6.06,6.61,15.77,10.89,26.72,10.89,18.37,0,33.27-12.06,33.27-26.95S817.18,145.42,798.81,145.42Z"/><path class="cls-10" d="M788.79,245h-34c-5.87,0-3.18-4.52-2.92-10.38,1.7-38.26-12.91-60-12.91-60,0-5.87,6.49-16,12.36-16,0,0,5.68,18.61,8.61,19.42,9.33,2.55,4.6-15.08,8.27-14.65a40.6,40.6,0,0,0,7.56,0c3.61-.26-.74,15.93,9.28,14.87,2.95-.31,6.36-19.63,6.36-19.63,5.87,0,12.12,9.5,12.12,15.36,0,0-12.56,17.51-12.56,60.66C790.91,240.44,792.95,244.43,788.79,245Z"/><path class="cls-11" d="M872.89,137.2a25.33,25.33,0,0,0-10.24-20.37c1.73-11.94-4.3-25.53-16.42-34.33A43.57,43.57,0,0,0,837,77.39a25.38,25.38,0,0,0-37-17c-6.68-6.15-16.36-10-27.13-10-11.47,0-21.69,4.38-28.38,11.22a25.37,25.37,0,0,0-38.93,15.55,43.31,43.31,0,0,0-11.46,4.6c-14.71,8.49-22.26,23.94-19.28,37.22A25.37,25.37,0,0,0,681,160.83c0,.09,0,.17,0,.26,2.08,16.52,20,27.88,39.94,25.37,15.46-1.94,27.64-11.62,31.4-23.55a41.79,41.79,0,0,0,20.59,5.27,42.37,42.37,0,0,0,17.69-3.79c4.23,10.48,14.88,19.11,28.55,21.75,19.77,3.82,38.36-6.34,41.52-22.69a25.22,25.22,0,0,0,.45-4.86A25.34,25.34,0,0,0,872.89,137.2Z"/><circle class="cls-2" cx="756.73" cy="200.6" r="2.73"/><circle class="cls-2" cx="781.49" cy="200.6" r="2.73"/><path class="cls-2" d="M786.93,190.9c-.2.58-2.37-.82-5.29-1.84s-5.49-1.26-5.29-1.84,2.73-.23,5.66.78S787.13,190.32,786.93,190.9Z"/><path class="cls-2" d="M748.82,192.86c.2.58,2.37-.82,5.29-1.84s5.49-1.26,5.29-1.84-2.73-.23-5.66.78S748.62,192.28,748.82,192.86Z"/><path class="cls-2" d="M793.3,233.38c1.1,11.08-.67,15.8,1.36,18.3,1.2,1.48,2.55-4.78,1.52-15.15s-5.78-19-6.8-18.85C786.51,218,792.45,224.82,793.3,233.38Z"/><path class="cls-8" d="M789.39,247.64a6.28,6.28,0,0,1,2.5-1.93.42.42,0,0,1-.05-.19c0-.69,1.85-1.25,4.14-1.25s4.14.56,4.14,1.25c0,.35-.49.67-1.27.9a6.33,6.33,0,0,1,1.84,4.56c0,3.25-2.24,5.89-5,5.89-4.84,0-3.85-2.29-3.85-5.54,0-.36,0-.71,0-1.06-1.05,1.18-2.33,1.73-3,1.22S788.29,249.19,789.39,247.64Z"/><path class="cls-12" d="M779.31,208.21c0,2.08-4.32,6.45-9.65,6.45s-9.65-4.37-9.65-6.45,4.32-1.35,9.65-1.35S779.31,206.14,779.31,208.21Z"/><path class="cls-2" d="M577.42,368c2-.23,6-1.26,5.19-4.42-3.13-12.21-5.26-51.15-5.26-51.15,0-3.27,2.77-14.25.14-14.27L575,312.51c-2.63,0-2.34,1.81-2.19,5.08,1.68,37.39-.63,41.26-.63,41.26C545.06,369.23,568.6,369.06,577.42,368Z"/><path class="cls-2" d="M551.76,367.51c2-.1,6.07-.85,5.47-4.06-2.3-12.39-1.78-51.39-1.78-51.39.25-3.26,3.73-14,1.11-14.23l-3.41,14.12c-2.62-.2-2.46,1.65-2.53,4.92-.86,37.42-3.42,41.12-3.42,41.12C519.4,366.51,542.9,367.93,551.76,367.51Z"/><path class="cls-2" d="M508.89,191.14c-4.17,20.16-1.85,29.2-6.05,33.4-2.5,2.49-3.76-9.28.14-28.17S517.3,162.62,519.14,163C524.38,164.08,512.12,175.55,508.89,191.14Z"/><path class="cls-13" d="M513.45,220.17a11.62,11.62,0,0,0-4.23-4,.79.79,0,0,0,.14-.34c.13-1.27-3.17-2.66-7.37-3.1s-7.72.23-7.86,1.5c-.07.65.77,1.33,2.17,1.9a11.71,11.71,0,0,0-4.26,8c-.63,6,3,11.27,8,11.81,8.9.94,7.52-3.46,8.16-9.45.07-.66.11-1.32.13-2,1.7,2.38,4,3.63,5.35,2.84C515.3,226.45,515.19,223.23,513.45,220.17Z"/><path class="cls-14" d="M627.4,120.31a9.75,9.75,0,0,0-4.58-8.27,9.76,9.76,0,0,0-2-14.18,9.76,9.76,0,0,0-4.37-12.53l-.22-1a9.73,9.73,0,0,0-2.59-12.8,9.75,9.75,0,0,0-1.54-13.78,9.73,9.73,0,0,0-3.65-12.41,9.74,9.74,0,0,0-5.08-12.46,9.75,9.75,0,0,0-8.07-14.75,9.75,9.75,0,0,0-9.6-11.58c-.28,0-.55,0-.82,0a9.76,9.76,0,0,0-18.5.1A9.74,9.74,0,0,0,555.2,18.14a9.76,9.76,0,0,0-8.1,14.48A9.73,9.73,0,0,0,541.25,45a9.75,9.75,0,0,0-3.72,13.65A9.75,9.75,0,0,0,532,70.36,9.72,9.72,0,0,0,530,81.55a9.74,9.74,0,0,0-1.73,13.34,9.76,9.76,0,0,0,2.09,18.64c-2.82,14.95-5.72,30.73-8.95,46.82a173.58,173.58,0,0,1,74.25-16.26,181.18,181.18,0,0,1,30.88,2.64q-1.21-9.61-2.56-18.94A9.74,9.74,0,0,0,627.4,120.31Z"/><path class="cls-15" d="M616.06,127.78A9.75,9.75,0,0,0,615,112a9.76,9.76,0,0,0-2-14.18,9.76,9.76,0,0,0-4.37-12.53l-.22-1a9.73,9.73,0,0,0-2.59-12.8,9.75,9.75,0,0,0-1.54-13.78,9.73,9.73,0,0,0-3.65-12.41,9.74,9.74,0,0,0-5.08-12.46,9.75,9.75,0,0,0-8.07-14.75,9.75,9.75,0,0,0-9.6-11.58c-.28,0-.55,0-.82,0A9.8,9.8,0,0,0,572,1,9.8,9.8,0,0,0,567,6.69a9.74,9.74,0,0,0-11.22,11.44,9.76,9.76,0,0,0-8.1,14.48A9.73,9.73,0,0,0,541.78,45a9.75,9.75,0,0,0-3.72,13.65,9.75,9.75,0,0,0-5.51,11.71,9.72,9.72,0,0,0-2.06,11.19,9.74,9.74,0,0,0-1.73,13.34,9.76,9.76,0,0,0,2.09,18.64c-2.59,13.7-5.24,28.11-8.15,42.81a175.41,175.41,0,0,1,65-12.25q2.12,0,4.23.05c1.39,0,2.78-.05,4.19-.05a181.93,181.93,0,0,1,22.31,1.38Q617.32,136.5,616.06,127.78Z"/><path class="cls-16" d="M549.28,140c-48,8.41-17.37,176,3.54,181.95,34.83,10,61.38-48.15,72.62-107.88,11.72-62.24,29.56-113.64,1-149.18C620.16,57.05,670.64,118.76,549.28,140Z"/><path class="cls-17" d="M574.37,162.68c20.79,45.9,6.11,150.21-15.57,157.65-31.35,10.76-40.92-103-52.84-162.73-12.43-62.24-33.2-61.91-46.17-61.91C447.68,95.69,526.5,57,574.37,162.68Z"/><circle class="cls-2" cx="548.81" cy="73.44" r="3.36"/><circle class="cls-2" cx="585.15" cy="75.17" r="3.36"/><path class="cls-2" d="M579.89,83.48c.36,1.49-2.7,6-7.55,7.2s-9.66-1.41-10-2.9c0,0,4.86,2.8,9.71,1.62S579.89,83.48,579.89,83.48Z"/><path class="cls-2" d="M554.67,50c.21.45-1.82.84-4.07,1.87s-3.86,2.32-4.07,1.87S548,52.07,550.23,51,554.46,49.53,554.67,50Z"/><path class="cls-2" d="M593.77,55.72c-.23.44-1.78-.93-4-2.07s-4.2-1.63-4-2.07,2.19.14,4.38,1.28S594,55.29,593.77,55.72Z"/><path class="cls-2" d="M628.09,196.93c2,20.49-1.23,29.23,2.51,33.85,2.23,2.74,4.71-8.84,2.82-28s-10.7-35.06-12.57-34.88C615.53,168.39,626.52,181.09,628.09,196.93Z"/><path class="cls-13" d="M620.86,223.31a11.62,11.62,0,0,1,4.63-3.57.79.79,0,0,1-.1-.36c0-1.28,3.43-2.31,7.66-2.31s7.66,1,7.66,2.31c0,.65-.91,1.25-2.35,1.67a11.71,11.71,0,0,1,3.4,8.44c0,6-4.14,10.9-9.24,10.9-9,0-7.12-4.23-7.12-10.25,0-.66,0-1.32.08-2-1.94,2.19-4.31,3.2-5.62,2.26C618.36,229.36,618.81,226.17,620.86,223.31Z"/><path class="cls-2" d="M345.62,192.92c-15.17-7.8-14.94-17.49-19.84-17-2.91.32,3.8,11.89,18,19.21s29.75-6.39,28.84-7.65C369,182.52,357.34,199,345.62,192.92Z"/><path class="cls-18" d="M318.78,165.3c3.73-2.57,8,1.74,11.2,6.17,1.17-2,2.82-3.63,5.31-3,3.69.91,1.38,5.91.2,9a9.63,9.63,0,0,1-1,2c.64,0,1.11.09,1.32.42.63,1-1.36,3.38-4.45,5.34s-6.1,2.75-6.73,1.76c-.22-.35-.11-.87.25-1.48a15.35,15.35,0,0,1-9.46-6.26C312.16,174.52,314.84,168,318.78,165.3Z"/><path class="cls-2" d="M394.76,338.42c2-.26,6.15-1.35,5.28-4.6-3.34-12.52-5.9-52.51-5.9-52.51,0-3.36,2.71-14.67,0-14.67l-2.38,14.73c-2.71,0-2.39,1.89-2.21,5.24,2.09,38.4-.24,42.4-.24,42.4C361.52,340,385.71,339.56,394.76,338.42Z"/><path class="cls-2" d="M366.46,335.26c2-.37,5.74-.72,5-4-2.35-10,.46-46.45.46-46.45.28-3.35.14-5.64-2.55-5.87l-1.85-.63c-2.7-.22.27,1.43.17,4.79-1.07,38.45-5.44,44.91-5.44,44.91C335.4,335.6,358.07,336.81,366.46,335.26Z"/><path class="cls-19" d="M351.95,95.52h0c3-2.22,3-6.12,1.37-9.44-7.06-14.21-15-21.52-15-21.52-2.22-3-5.35-.63-8.32,1.59h0c-3,2.22-5.81,3.5-3.59,6.47,0,0,17.1,6.85,19.58,20.65C346.66,96.91,349,97.74,351.95,95.52Z"/><path class="cls-19" d="M340.8,304.85c3.06-2.83,4.27-6.19,5.17-9.35,3.1-18.13,16.32-51.49,16.32-95.44,0-68.09-35.08-118.86-11.8-118.86S424,127.92,424,196c0,57.45-33.37,99.69-57.78,111.49-5.69,3.79-11.39,7.43-13,9C349.64,320,336.72,308.62,340.8,304.85Z"/><path class="cls-20" d="M355.26,307.5C378.4,306.33,413,253.46,413,196c0-62.45-39.63-111.79-67.22-113.86a9.36,9.36,0,0,1,4.5-1c23.28,0,73.52,46.73,73.52,114.81,0,57.45-33.37,99.69-57.78,111.49-5.69,3.79-11.39,7.43-13,9s-5,.16-8-2.19C348.81,314.68,354.41,310.82,355.26,307.5Z"/><path class="cls-21" d="M330,66.14c3-2.22,6.1-4.56,8.32-1.59,0,0,1.09,1,2.83,3a13.08,13.08,0,0,1-10.33,7.27,38.7,38.7,0,0,0-4.41-2.22C324.2,69.64,327,68.36,330,66.14Z"/><path class="cls-21" d="M340.62,304.85l.54-.52c2.42-.61,6,.78,8.9,3.69,2.48,2.48,3.86,5.43,3.84,7.75-.36.28-.65.54-.87.75C349.46,320,336.54,308.62,340.62,304.85Z"/><circle class="cls-2" cx="392.29" cy="152.97" r="3.08"/><circle class="cls-2" cx="364.6" cy="157.85" r="3.08"/><path class="cls-2" d="M372.63,169.78c.16,1.15,3.57,3.47,7.31,2.94s6.38-3.68,6.22-4.83c0,0-2.62,3.32-6.36,3.84S372.63,169.78,372.63,169.78Z"/><path class="cls-2" d="M383.09,140.09c0,.5,2.06,0,4.6,0s4.6.5,4.6,0-2.06-.91-4.6-.91S383.09,139.58,383.09,140.09Z"/><path class="cls-2" d="M366.36,143c.2.46-1.85.79-4.14,1.75s-3.94,2.22-4.14,1.75,1.49-1.63,3.78-2.59S366.16,142.57,366.36,143Z"/><path class="cls-2" d="M425,214.11c1.69,17-1,24.22,2.08,28,1.85,2.27,3.9-7.32,2.33-23.23S420.6,189.88,419,190C414.64,190.47,423.74,201,425,214.11Z"/><path class="cls-18" d="M414.24,236.92a11.94,11.94,0,0,1,4.76-3.67.81.81,0,0,1-.1-.37c0-1.31,3.52-2.38,7.87-2.38s7.87,1.06,7.87,2.38c0,.67-.93,1.28-2.42,1.71a12,12,0,0,1,3.49,8.67c0,6.19-4.25,11.2-9.5,11.2-9.2,0-7.32-4.35-7.32-10.54,0-.68,0-1.36.08-2-2,2.25-4.43,3.28-5.77,2.32C411.67,243.14,412.14,239.87,414.24,236.92Z"/><rect class="cls-22" x="290.65" y="251.17" width="592.33" height="124.64"/><rect class="cls-23" x="265.49" y="229.44" width="641.51" height="21.73"/></g></g></svg>