<svg xmlns="http://www.w3.org/2000/svg" viewBox="0 0 830.63 690.32"><defs><style>.cls-1{fill:#253c81;}.cls-2{fill:#93bee6;}.cls-3{fill:#3f56a6;}.cls-4{fill:#3e56a6;}.cls-5{fill:#009444;}.cls-6{fill:#231f20;}.cls-7{fill:#e8ecee;stroke:#231f20;stroke-miterlimit:10;stroke-width:1.77px;}.cls-8{fill:#f7941d;}.cls-9{fill:#f36e24;}.cls-10{fill:#d35461;}.cls-11{fill:#be1e2d;}.cls-12{fill:#2d2d2d;}.cls-13{fill:#fef7af;}.cls-14{fill:#bcbec0;}.cls-15{fill:#d1d3d4;}.cls-16{fill:#f7cd1d;}</style></defs><title>presentation_interview</title><g id="Layer_2" data-name="Layer 2"><g id="Layer_2-2" data-name="Layer 2"><polygon class="cls-1" points="823.52 30.71 823.69 28.43 509.25 5.34 509.25 0 497.2 0 497.2 5.62 177.35 29.11 177.52 31.39 497.2 7.91 497.2 605.99 405.14 665.4 411.13 674.69 497.2 619.14 497.2 680.3 509.25 680.3 509.25 619.5 596.33 675.69 602.32 666.41 509.25 606.35 509.25 7.63 823.52 30.71"/><rect class="cls-2" x="184.39" y="46.59" width="632.82" height="406.58"/><path class="cls-3" d="M812.64,51.16V448.6H189V51.16H812.64M821.78,42h-642V457.74h642V42Z"/><rect class="cls-4" x="171.91" y="27.48" width="658.73" height="22.42" rx="10.76" ry="10.76"/><rect class="cls-4" x="171.11" y="453.23" width="658.73" height="49.72" rx="14.73" ry="14.73"/><path class="cls-5" d="M1.84,449c-11-4.16,29.23,19,62.11,15.2s64.15-17.5,62.73-29.72-9-17.87-41.58-12.14C53.07,428,22.77,457,1.84,449Z"/><polygon class="cls-5" points="106.43 462.56 111.83 462.27 112.54 447.94 105.35 449.23 106.43 462.56"/><path class="cls-6" d="M240.56,525.34C260.64,511.7,266.27,494,271.1,500c1.67,2.1-13.73,25.26-35.46,36.09-21,10.47-30.18,12.07-31.85,10C197.86,538.63,220.48,539,240.56,525.34Z"/><path class="cls-7" d="M284.08,498.51c-.16-9.37-7.61-17.47-17-17-6.24.34-8.33,5-12.73,11.42-2.31-4.65-3.9-6.38-8.6-4.74-2.46.86-2.73,5.77-.71,10.67a29.37,29.37,0,0,0,4.3,7.12,2.32,2.32,0,0,0-.8.8c-1.3,2.26,1.73,6.45,6.79,9.37s10.2,3.45,11.51,1.19a2.64,2.64,0,0,0,.22-1.89h0C276.83,515.28,284.24,507.79,284.08,498.51Z"/><path class="cls-6" d="M112.51,689.77c-5.57-.55-11.77-2.2-13.76-3.59-2.93-2-1.27-13.15-1.05-16l2.79-37.36c.22-2.89,3.4-2.12,7.33-1.83h0c1.46,7.48.2,41.48,3.23,43.58,11.8,8.16,25.49,14.75,14.64,15.54A57.83,57.83,0,0,1,112.51,689.77Z"/><path class="cls-6" d="M169,683.74c-5.59,0-11.93-1.07-14-2.26-3.11-1.75-2.51-13-2.57-15.86l-.79-37.46c-.06-2.9,3.18-2.44,7.12-2.52h0c2.17,7.3,4.16,41.27,7.37,43.07,12.52,7,26.78,12.25,16.06,14.07A57.83,57.83,0,0,1,169,683.74Z"/><ellipse class="cls-8" cx="124.5" cy="548.58" rx="97.44" ry="89.3"/><path class="cls-9" d="M138.07,625.76c-52,0-94.13-39.29-94.13-87.75,0-27.77,13.84-52.53,35.45-68.61-31.11,14.91-52.34,44.77-52.34,79.17,0,49.32,43.63,89.3,97.44,89.3,32.1,0,60.57-14.23,78.33-36.18A97.54,97.54,0,0,1,138.07,625.76Z"/><circle class="cls-6" cx="97.03" cy="528.15" r="5.67" transform="translate(-28.72 6.09) rotate(-3.13)"/><circle class="cls-6" cx="177.31" cy="519.87" r="5.67" transform="translate(-28.15 10.47) rotate(-3.13)"/><path class="cls-6" d="M105.51,497.12c.33,1-5.17-.94-11.28,1s-9.3,6.44-9.63,5.43,2.94-5.26,9-7.26S105.18,496.11,105.51,497.12Z"/><path class="cls-6" d="M164.94,494.14c-.16,1,4.83-1.31,11.17-.33s10.3,4.79,10.46,3.74-3.83-4.66-10.17-5.64S165.11,493.09,164.94,494.14Z"/><path class="cls-10" d="M161.57,547.76c-1.43,5.68-8.08,10.64-18.18,10.74s-16.91-4.74-18.39-10.38c-1.83-7,.9-9.88,18.18-10.74C162.52,536.42,163,542.11,161.57,547.76Z"/><path class="cls-6" d="M29.34,595.66c-2.17,24.18,7,45.25-.8,45.13-2.69,0-10.84-26.63-5.43-50.3,5.23-22.9,9.79-31,12.48-31C45.11,559.68,31.51,571.48,29.34,595.66Z"/><path class="cls-7" d="M46.3,622.45a20.2,20.2,0,0,0-9.82-4.82,2.77,2.77,0,0,0,1.42-2.28c-.22-2.36-5.79-3.76-12.45-3.14s-11.87,3-11.65,5.4c.1,1,1.23,1.89,3,2.47-3.86,2.53-6.61,7.38-4.46,17.36,2.06,9.57,13.06,11.59,21.36,10C41.61,645.9,44,641.55,42.68,633c2.45,1.08,4.81,1.05,6.17-.31C51,630.6,49.84,626,46.3,622.45Z"/><path class="cls-11" d="M98.75,576.44c8.4-8.48,35.94,3.17,47.15,12a11,11,0,0,1,12.54-1.75c9.08-11.23,32.84-28.49,42.86-22.22,6.87,4.3,10.1,35.6,1.9,43.73s-33.46,3.91-43.52-4a11,11,0,0,1-11.08,1c-7.74,10.13-31.68,20.32-41.66,14.21S93.05,582.2,98.75,576.44Z"/><path class="cls-12" d="M526.34,370.72c7.73-3.45-10.25-7.47-22.71-7.23s-28.91,4.6-22.41,8.1c8,4.32,10.25,7.47,22.71,7.23S517.08,374.86,526.34,370.72Z"/><path class="cls-13" d="M589.57,193.61c.48,24.72-24,60.83-41.94,82-16.09,18.91-17.43,64.85-17.43,64.85-4.56,23.74,3.36,25.52-11.58,27.38l-10.19.2-4,.08-10.19.2c-18.65.36-9.42-5.45-17.09-26.83,0,0-3.08-46.92-19.89-65.2-18.78-20.42-40-51-40.56-77.89-.9-46.41,31.18-74.54,83-77.42v-.08l2,0,2-.06v.08C555.51,121.74,588.67,147.19,589.57,193.61Z"/><rect class="cls-14" x="473.75" y="337.03" width="58.73" height="33.12" rx="5" ry="5" transform="translate(-6.73 9.77) rotate(-1.11)"/><rect class="cls-15" x="472.47" y="343.29" width="61.55" height="20.2" rx="5" ry="5" transform="translate(-6.72 9.78) rotate(-1.11)"/><path class="cls-16" d="M504.27,335.21c2.92-14.54,5.85-29.14,7-44,.81-10.82,1.82-24.48-7.32-32.31-6.23-5.33-16.8-5.07-20.55,3.15-3.62,7.95,4.41,15.07,12,15.18,10.36.16,22.35-9.2,27.14-18,5-9.17,1.3-17.79-6.4-23.86-7.15-5.64-20.24-11.51-29.26-6.64-2.44,1.32-3.85,3.65-2.25,6.22,2.23,3.59,8.12,4.89,12,5,11.43.32,20.45-8.32,22.26-19.31,1-6-.34-11.57-2.7-17.1-2.93-6.85-8.35-17.69-.21-23.3,1.59-1.1.08-3.73-1.53-2.62-13.05,9,0,24.45,1.52,35.38,1.3,9.09-2.88,18.93-11.7,22.51a18,18,0,0,1-12,.69c-2.57-.8-6.68-2.47-3-5.13,1.66-1.19,5.27-.8,7.33-.67,8.52.57,18.79,5.9,23.35,13.32,6,9.75-2.92,19.58-10.6,24.95-3.34,2.33-7.13,4.58-11.2,5.27-5.35.91-12.44-1.82-12.41-8.06,0-5.54,6.31-8.68,11.24-7.41,5.25,1.34,8.77,6.22,10.33,11.13,3.05,9.63,1.2,21.31,0,31.12-1.39,11.3-3.66,22.47-5.9,33.63-.38,1.9,2.54,2.72,2.92.81Z"/></g></g></svg>