<svg xmlns="http://www.w3.org/2000/svg" viewBox="0 0 299 635.67"><defs><style>.cls-1{fill:#4495aa;}.cls-2{font-size:24px;font-family:LeagueGothic-Regular, League Gothic;}.cls-15,.cls-2{fill:#fff;}.cls-3{font-family:GoodHeadlinePro-CondBook, Good Headline Pro;}.cls-4{letter-spacing:0.24em;}.cls-5{letter-spacing:0em;}.cls-6{letter-spacing:0.24em;}.cls-7{letter-spacing:0em;}.cls-8{letter-spacing:-0.01em;}.cls-9{letter-spacing:-0.01em;}.cls-10{fill:#231f20;}.cls-11,.cls-24{fill:#e8ecee;stroke:#231f20;stroke-miterlimit:10;}.cls-11{stroke-width:0.67px;}.cls-12{fill:#a9d385;}.cls-13{fill:#c5de90;}.cls-14{fill:#dfe6e9;}.cls-16{fill:#8a5d3b;}.cls-17{fill:#f7f0da;}.cls-18{fill:#6d6e70;}.cls-19{fill:#90b76b;}.cls-20{fill:#be1e2d;}.cls-21{fill:#e9c34c;}.cls-22{fill:#fbd776;}.cls-23{fill:#009345;}.cls-24{stroke-width:0.65px;}.cls-25{fill:#f6921e;}.cls-26{fill:#f26e24;}.cls-27{fill:#d35361;}.cls-28{fill:#0d1226;}.cls-29{fill:#006838;}.cls-30{fill:#95c958;}.cls-31{fill:#00a69c;}.cls-32{fill:#93d5db;}.cls-33{fill:#d6de23;}.cls-34{fill:#fdf7c0;}</style></defs><title>bubble3</title><g id="Layer_2" data-name="Layer 2"><g id="Layer_2-2" data-name="Layer 2"><rect class="cls-1" width="299" height="430" rx="12" ry="12"/><text class="cls-2" transform="translate(55.32 85.64)">UNSURE OF HOW TO NEWORK?<tspan class="cls-3" x="190.36" y="0"> </tspan><tspan class="cls-3"><tspan x="-35.32" y="48">Consider</tspan><tspan class="cls-4" x="30.75" y="48"> </tspan><tspan class="cls-5" x="40.81" y="48">a</tspan><tspan x="49.57" y="48">ttending</tspan><tspan class="cls-6" x="114.25" y="48"> </tspan><tspan x="124.3" y="48">our</tspan><tspan class="cls-6" x="150.08" y="48"> </tspan><tspan class="cls-7" x="160.14" y="48">Mocktail </tspan><tspan class="cls-8" x="-35.32" y="72">E</tspan><tspan class="cls-9" x="-26.41" y="72">v</tspan><tspan x="-17.22" y="72">ent for p</tspan><tspan class="cls-8" x="48.01" y="72">r</tspan><tspan x="54.54" y="72">actice!</tspan></tspan></text><path class="cls-1" d="M156.6,458.31a4.16,4.16,0,0,1-7.21,0l-17.92-31-17.92-31a4.16,4.16,0,0,1,3.6-6.24h71.66a4.16,4.16,0,0,1,3.6,6.24l-17.92,31Z"/><path class="cls-10" d="M187.64,559.11c-.56,14.18,2.05,20.07-.34,23.4-1.42,2-3.6-5.89-3.09-19.17s5.92-24.57,7.21-24.52C195.11,539,188.07,548.15,187.64,559.11Z"/><path class="cls-11" d="M193.7,577a8,8,0,0,0-3.34-2.27.54.54,0,0,0,.05-.25c-.05-.88-2.45-1.45-5.37-1.28s-5.23,1-5.17,1.91c0,.45.67.82,1.69,1a8.07,8.07,0,0,0-2,5.95c.25,4.14,3.3,7.33,6.81,7.12,6.16-.37,4.72-3.21,4.48-7.35,0-.46-.07-.91-.13-1.35,1.43,1.43,3.1,2,4,1.32S195.23,578.85,193.7,577Z"/><path class="cls-10" d="M240.87,634.91c1.33-.15,4-.84,3.5-3-2.1-8.22-3.48-34.44-3.48-34.44,0-2.2,1.88-9.59.11-9.61l-1.66,9.63c-1.77,0-1.58,1.22-1.48,3.42,1.09,25.17-.47,27.77-.47,27.77C219.09,635.68,234.94,635.59,240.87,634.91Z"/><path class="cls-10" d="M215.65,635c1.33-.15,4-.84,3.5-3-2.1-8.22-3.48-34.44-3.48-34.44,0-2.2,1.88-9.59.11-9.61l-1.66,9.63c-1.77,0-1.58,1.22-1.48,3.42,1.09,25.17-.47,27.77-.47,27.77C193.87,635.79,209.72,635.7,215.65,635Z"/><path class="cls-12" d="M178.4,541.16c-23.91,30.64,23.2,69.18,53.19,67.39s68.58-41.88,43.68-70.88c-19.1-22.23-21.48-73.8-51.47-72S202.45,510.34,178.4,541.16Z"/><path class="cls-13" d="M178.17,541.17c24.05-30.82,15.41-73.7,45.4-75.49q1-.06,2,0c24.79,4.14,30.28,44.39,40.15,69.77,13.2,33.94-13.64,71.24-43.68,70.88a52.87,52.87,0,0,1-10.16-1.16C185.26,595.13,159.08,565.63,178.17,541.17Z"/><circle class="cls-10" cx="233" cy="507.07" r="2.02" transform="translate(-29.87 14.82) rotate(-3.42)"/><polygon class="cls-14" points="251.57 580.45 246.96 577.33 246.96 562.75 246.26 562.75 246.26 577.33 241.65 580.45 251.57 580.45"/><circle class="cls-10" cx="203.24" cy="508.82" r="2.02" transform="translate(-30.03 13.05) rotate(-3.42)"/><path class="cls-15" d="M207.72,518.13c.15,2.58,4.11,4.45,8.84,4.16s8.43-2.61,8.28-5.19-3.92-1.31-8.65-1S207.56,515.55,207.72,518.13Z"/><path class="cls-16" d="M223.81,467.36a3.18,3.18,0,0,0,.75-2.93c.23.12-1.28-9.36-3-13.19-.78-1.79-1.62-2-3.53-1.66h0c-1.92.37-3.56,2.23-3.19,4.15a17.49,17.49,0,0,1,6.34,11.86C221.45,467.52,221.9,467.73,223.81,467.36Z"/><path class="cls-10" d="M199.53,497.47c.15.37,1.5-.62,3.35-1.39s3.5-1,3.35-1.39-1.77,0-3.62.73S199.38,497.1,199.53,497.47Z"/><path class="cls-10" d="M235.57,495.57c-.14.37-1.52-.56-3.4-1.25s-3.54-.88-3.4-1.25,1.77-.12,3.65.58S235.71,495.19,235.57,495.57Z"/><path class="cls-10" d="M267.78,553.79c2.07,12-19.16,10.29-16.4,13.31,1.65,1.8,21.39-1.94,20.3-9.53-1.88-13.17-8.81-23.69-10.09-23.48C258,534.67,265.92,543,267.78,553.79Z"/><path class="cls-11" d="M249.67,559.48a8,8,0,0,1,3.27,2.35.54.54,0,0,1,.22-.14c.84-.25,2.2,1.81,3,4.6s.83,5.26,0,5.51c-.43.13-1-.35-1.57-1.23a8.07,8.07,0,0,1-4.9,3.91c-4,1.19-8-.58-9-4-1.77-5.91,1.39-5.54,5.37-6.73.44-.13.88-.24,1.31-.34-1.83-.85-3-2.22-2.6-3.26S247.38,558.7,249.67,559.48Z"/><path class="cls-17" d="M266,522.24a3.78,3.78,0,0,0-3.68,2.94,3.77,3.77,0,0,0-4.16,5,3.78,3.78,0,0,0-6.46,3.31,3.78,3.78,0,0,0-6.25,2.85c0,.08,0,.16,0,.23a3.78,3.78,0,0,0-6.26,2.85v0a3.77,3.77,0,0,0-6.18,2.38,3.77,3.77,0,0,0-6.71,1.75,3.78,3.78,0,0,0-6.69.81,3.78,3.78,0,0,0-7.18,0,3.78,3.78,0,0,0-7-1.62c0-.07,0-.14,0-.22a3.78,3.78,0,0,0-6.7-2.4A3.77,3.77,0,0,0,195,536a3.76,3.76,0,0,0-2.49.94,3.77,3.77,0,0,0-2.78-4.38,3.78,3.78,0,1,0-4.22,1.81,3.78,3.78,0,0,0,5.78,4.69,3.78,3.78,0,0,0,6.63,3.11,3.78,3.78,0,0,0,7,2.37c0,.07,0,.14,0,.22a3.78,3.78,0,0,0,7.37,1.19,3.78,3.78,0,0,0,7.31,1,3.78,3.78,0,0,0,7.33-.6,3.78,3.78,0,0,0,6.89-1.59,3.78,3.78,0,0,0,6.76-2.32v0a3.78,3.78,0,0,0,6.22-2.89c0-.08,0-.16,0-.23a3.78,3.78,0,0,0,6.18-3.58,3.77,3.77,0,0,0,6-4.14,3.77,3.77,0,0,0,6.44-1.75,3.78,3.78,0,1,0,.61-7.51Z"/><polygon class="cls-14" points="260.26 550.03 246.62 563.76 232.9 550.11 260.26 550.03"/><rect class="cls-18" x="238.82" y="544.51" width="0.35" height="12.04" transform="translate(-269.55 231.8) rotate(-34.46)"/><circle class="cls-19" cx="239.18" cy="550.53" r="2.66"/><ellipse class="cls-20" cx="240.36" cy="549.86" rx="0.81" ry="1.08" transform="translate(-318.41 331.01) rotate(-45)"/><polygon class="cls-21" points="255.31 553.78 246.62 562.52 237.88 553.83 255.31 553.78"/><circle class="cls-22" cx="249.76" cy="555.76" r="0.97"/><circle class="cls-22" cx="247.33" cy="558.27" r="0.64"/><path class="cls-15" d="M61.74,535.14c.15,2.58,4.11,4.45,8.84,4.16s8.43-2.61,8.28-5.19-3.92-1.31-8.65-1S61.59,532.56,61.74,535.14Z"/><polygon class="cls-23" points="59.32 552.3 61.29 552.19 61.55 546.95 58.92 547.42 59.32 552.3"/><path class="cls-10" d="M108.41,575.28c7.35-5,9.41-11.49,11.18-9.26.61.77-5,9.25-13,13.21-7.7,3.83-11,4.42-11.66,3.65C92.78,580.14,101.06,580.27,108.41,575.28Z"/><path class="cls-24" d="M124.34,565.46a6.13,6.13,0,0,0-6.21-6.21c-2.28.12-3.05,1.84-4.66,4.18-.84-1.7-1.43-2.34-3.15-1.73-.9.32-1,2.11-.26,3.9a10.75,10.75,0,0,0,1.57,2.61.85.85,0,0,0-.29.29c-.48.83.63,2.36,2.48,3.43s3.73,1.26,4.21.44a1,1,0,0,0,.08-.69h0A6.16,6.16,0,0,0,124.34,565.46Z"/><path class="cls-10" d="M61.54,635.47a14.09,14.09,0,0,1-5-1.31c-1.07-.75-.46-4.81-.38-5.87l1-13.68c.08-1.06,1.24-.78,2.68-.67h0c.53,2.74.07,15.18,1.18,16,4.32,3,9.33,5.4,5.36,5.69A21.17,21.17,0,0,1,61.54,635.47Z"/><path class="cls-10" d="M82.22,633.26a14.09,14.09,0,0,1-5.14-.83c-1.14-.64-.92-4.75-.94-5.81l-.29-13.71c0-1.06,1.16-.89,2.61-.92h0c.79,2.67,1.52,15.11,2.7,15.77,4.58,2.56,9.8,4.48,5.88,5.15A21.17,21.17,0,0,1,82.22,633.26Z"/><ellipse class="cls-25" cx="65.93" cy="583.78" rx="35.67" ry="32.69"/><path class="cls-26" d="M70.9,612c-19,0-34.45-14.38-34.45-32.12a31.31,31.31,0,0,1,13-25.11c-11.39,5.46-19.16,16.39-19.16,29,0,18.05,16,32.69,35.67,32.69A36.76,36.76,0,0,0,94.6,603.23,35.7,35.7,0,0,1,70.9,612Z"/><circle class="cls-10" cx="61.28" cy="573.71" r="2.07" transform="translate(-31.27 4.21) rotate(-3.13)"/><polygon class="cls-14" points="45.97 617.06 51.49 613.82 51.49 603.78 52.04 603.78 52.04 596.88 52.98 596.88 52.98 603.78 53.54 603.78 53.54 613.83 59.05 617.06 45.97 617.06"/><circle class="cls-10" cx="90.66" cy="570.25" r="2.07" transform="translate(-31.03 5.81) rotate(-3.13)"/><path class="cls-10" d="M63,563.88c.18.35-1.92,0-4,1s-3,2.87-3.17,2.52.76-2.07,2.84-3.15S62.77,563.53,63,563.88Z"/><path class="cls-10" d="M85.72,561.77c-.08.38,1.8-.36,4.09.15s3.64,2,3.73,1.62-1.28-1.79-3.58-2.31S85.8,561.39,85.72,561.77Z"/><path class="cls-27" d="M87.92,581.11c-.52,2.08-3,3.9-6.66,3.93s-6.19-1.73-6.73-3.8c-.67-2.56.33-3.62,6.66-3.93C88.27,577,88.44,579,87.92,581.11Z"/><path class="cls-10" d="M40.6,601.88c1,7.23,10.53,6.27,8.81,9.07-.52.84-13.07-2.3-11.09-11,1.91-8.38,3.59-11.35,4.57-11.33C46.38,588.71,39.69,595.19,40.6,601.88Z"/><path class="cls-24" d="M50.2,602.76a7.39,7.39,0,0,0-2,3.47c-.24-.37-.51-.58-.8-.57-.87,0-1.51,2-1.45,4.47s.83,4.41,1.69,4.38c.38,0,.72-.4,1-1.05.83,1.47,2.54,2.59,6.23,2C58.41,615,59.4,611,59,607.95c-.37-2.91-1.9-3.89-5-3.61a2,2,0,0,0,0-2.26C53.29,601.25,51.58,601.55,50.2,602.76Z"/><path class="cls-28" d="M104.1,587.85c-.86-3.44-10.41-.14-14.19,3.2a25,25,0,0,0-2.7,2.57,3.25,3.25,0,0,0-1.69-.44,3.31,3.31,0,0,0-2.7,1.49c-.69-.74-2-1.31-4.17-2.47-4.33-2.26-13.29-2.74-13.45.83s-.34,12,4.43,12.3c4.3.3,12.05-3,13.64-6.22a3.27,3.27,0,0,0,4.82-.2c2.62,2.47,10.2,3.42,14.13,2.08C106.78,599.42,105,591.28,104.1,587.85Z"/><path class="cls-29" d="M45.31,547.26c-3.1,6.09-1.13,18.55,10.8,1.27,2.22-3.21,2.24,2.38,5.81-2.08,1.38-1.72-1.57-5.91-5.81-5.91S46.31,545.29,45.31,547.26Z"/><path class="cls-23" d="M25,571.42s14.88-.09,23.11-9.29c4.33-4.83,5.24-16.73,8.21-17.93,10.15-4.1,1.83,8,4.32,5C81.6,524,46.81,534,40.93,539.89c-3.46,3.46-6.48,9.4-7.78,17.34C31.21,569.11,25,571.42,25,571.42Z"/><path class="cls-14" d="M41.83,589.7s-4,14.35,10.71,14.58C68.49,604.53,64,589.7,64,589.7Z"/><path class="cls-30" d="M42.58,593.07s-1.49,10.34,10,10.28c12.65-.06,10.66-10.28,10.66-10.28Z"/><path class="cls-31" d="M63.26,596.06c-.45,3-2.54,7.25-10.66,7.29-7.42,0-9.44-4.24-9.93-7.29Z"/><circle class="cls-32" cx="58.64" cy="598.56" r="1.18"/><circle class="cls-32" cx="55.46" cy="600.74" r="0.75"/><path class="cls-33" d="M40.71,586.72c-3.69,2.32-1.64,7.94-1.64,7.94l9.5-6S44.22,584.52,40.71,586.72Z"/><polygon class="cls-34" points="43.6 591.22 47.86 588.73 45.26 587.18 43.6 591.22"/><path class="cls-34" d="M43.38,591.22,44.76,587a3,3,0,0,0-1.61-.39,2.74,2.74,0,0,0-1.55.5Z"/><polygon class="cls-34" points="43.27 591.45 39.18 594.22 38.84 591.21 43.27 591.45"/><path class="cls-34" d="M43,591.22l-1.94-3.77a3.33,3.33,0,0,0-1.72,1.22,2.84,2.84,0,0,0-.28,2Z"/></g></g></svg>