<svg xmlns="http://www.w3.org/2000/svg" viewBox="0 0 334.03 663.83"><defs><style>.cls-1{fill:#1ab1c1;}.cls-2{fill:#fff;}.cls-3{fill:#231f20;}.cls-22,.cls-4{fill:#e8ecee;stroke:#231f20;stroke-miterlimit:10;}.cls-4{stroke-width:0.75px;}.cls-5{fill:#fde464;}.cls-6{fill:#ffd448;}.cls-7{fill:#754c28;}.cls-8{fill:#fff7bb;}.cls-9{fill:#fde997;}.cls-10{fill:#fdf5a3;}.cls-11{fill:#2b388f;}.cls-12{fill:#ec1e25;}.cls-13{fill:#9c1d1f;}.cls-14{fill:#27283d;}.cls-15{fill:#2a3b8f;}.cls-16{fill:#171211;}.cls-17{fill:#2b1f1c;}.cls-18{fill:#fff7d7;}.cls-19{fill:#3f302b;}.cls-20{fill:#e8eef3;}.cls-21{fill:#009345;}.cls-22{stroke-width:0.62px;}.cls-23{fill:#f6921e;}.cls-24{fill:#f26e24;}.cls-25{fill:#faaf40;}.cls-26{fill:#ffc767;}.cls-27{fill:#d35361;}</style></defs><title>bubble_1</title><g id="Layer_2" data-name="Layer 2"><g id="Layer_2-2" data-name="Layer 2"><rect class="cls-1" x="29.09" width="299" height="430" rx="12" ry="12"/><path class="cls-2" d="M51.62,68V83.67H49.77V68Z"/><path class="cls-2" d="M59.08,73.42H56.61V83.67H54.93V73.42h-1.3V72.05h1.3v-.43c0-2.33,1.15-3.6,4-3.72l.1,1.27c-1.78.12-2.42.79-2.42,2.45v.43h2.52Z"/><path class="cls-2" d="M74,73.45H71.56v7.42c0,1.13.48,1.61,1.3,1.61a2.1,2.1,0,0,0,1-.24l.22,1.1a3,3,0,0,1-1.75.53c-1.66,0-2.45-1.06-2.45-3V73.52l-1.32-.29V72.05l1.42-.1.41-2.71h1.22V72H74Z"/><path class="cls-2" d="M77.68,83.67H76V68h1.7v4.51a3.24,3.24,0,0,1,2.59-1.18c2,0,3.07,1.44,3.07,4v8.33h-1.7v-8.3c0-1.7-.62-2.52-1.87-2.52A2.54,2.54,0,0,0,77.68,74Z"/><path class="cls-2" d="M87.09,77.65V79.9c0,1.66.72,2.52,2,2.52,1.06,0,1.66-.55,2.09-2.09l1.3.43c-.5,2.11-1.66,3.1-3.53,3.1-2.35,0-3.6-1.63-3.6-3.91v-4.7c0-2.28,1.25-3.91,3.58-3.91s3.5,1.7,3.5,4v2.33Zm0-1.2h3.84v-1.3c0-1.58-.7-2.4-1.92-2.4s-1.92.86-1.92,2.42Z"/><path class="cls-2" d="M99.54,73.33a1.65,1.65,0,0,0-1-.26c-1.34,0-2.18,1.18-2.35,3.36v7.25h-1.7V71.55H96l.1,2c.58-1.56,1.44-2.18,2.52-2.18a2.29,2.29,0,0,1,1.15.29Z"/><path class="cls-2" d="M102.4,77.65V79.9c0,1.66.72,2.52,2,2.52,1.06,0,1.66-.55,2.09-2.09l1.3.43c-.5,2.11-1.66,3.1-3.53,3.1-2.35,0-3.6-1.63-3.6-3.91v-4.7c0-2.28,1.25-3.91,3.58-3.91s3.5,1.7,3.5,4v2.33Zm0-1.2h3.84v-1.3c0-1.58-.7-2.4-1.92-2.4s-1.92.86-1.92,2.42Z"/><path class="cls-2" d="M120.47,72V83.67h-1.7V72Zm0-4v2.18h-1.61V68Z"/><path class="cls-2" d="M128,74.41c-.36-1.27-1.06-1.7-2-1.7a1.5,1.5,0,0,0-1.63,1.68c0,2.69,4.8,2.16,4.8,6.12A3.13,3.13,0,0,1,126,83.86a3.29,3.29,0,0,1-3.36-2.69l1.18-.53c.41,1.42,1.27,1.9,2.14,1.9,1.06,0,1.63-.7,1.63-1.92,0-2.88-4.82-2.33-4.82-6.12A3,3,0,0,1,126,71.33,3.15,3.15,0,0,1,129.15,74Z"/><path class="cls-2" d="M139.69,74c.62-1.58,1.66-2.71,3.36-2.71,2.16,0,3.07,1.51,3.07,3.74v6.58c0,.6.26.94.79.94h.29v1.1a3.09,3.09,0,0,1-.86.14,1.74,1.74,0,0,1-1.68-1,3.21,3.21,0,0,1-2.5,1.08c-1.7,0-2.78-1.22-2.78-3.24,0-2.28,1.18-3.89,4.32-3.89h.72V75.05c0-1.61-.53-2.3-1.56-2.3s-1.56.65-2,1.85Zm4.73,7.44V78h-.72c-2,0-2.69.91-2.69,2.47s.6,2,1.51,2A2.13,2.13,0,0,0,144.42,81.46Z"/><path class="cls-2" d="M159.2,82.78v3.46h-1.7V71.55H159l.1,1a3.33,3.33,0,0,1,2.71-1.25c2,0,3.07,1.49,3.07,4v4.51c0,2.54-1.13,4-3.14,4A3.2,3.2,0,0,1,159.2,82.78Zm0-1.46a2.43,2.43,0,0,0,2.06,1.08c1.27,0,1.9-.86,1.9-2.52V75.39c0-1.7-.6-2.54-1.87-2.54A2.52,2.52,0,0,0,159.2,74Z"/><path class="cls-2" d="M166.87,74c.62-1.58,1.66-2.71,3.36-2.71,2.16,0,3.07,1.51,3.07,3.74v6.58c0,.6.26.94.79.94h.29v1.1a3.09,3.09,0,0,1-.86.14,1.74,1.74,0,0,1-1.68-1,3.21,3.21,0,0,1-2.5,1.08c-1.7,0-2.78-1.22-2.78-3.24,0-2.28,1.18-3.89,4.32-3.89h.72V75.05c0-1.61-.53-2.3-1.56-2.3s-1.56.65-2,1.85Zm4.73,7.44V78h-.72c-2,0-2.69.91-2.69,2.47s.6,2,1.51,2A2.13,2.13,0,0,0,171.6,81.46Z"/><path class="cls-2" d="M180.94,73.33a1.65,1.65,0,0,0-1-.26c-1.34,0-2.18,1.18-2.35,3.36v7.25h-1.7V71.55h1.46l.1,2c.58-1.56,1.44-2.18,2.52-2.18a2.29,2.29,0,0,1,1.15.29Z"/><path class="cls-2" d="M187.3,73.45h-2.45v7.42c0,1.13.48,1.61,1.3,1.61a2.1,2.1,0,0,0,1-.24l.22,1.1a3,3,0,0,1-1.75.53c-1.66,0-2.45-1.06-2.45-3V73.52l-1.32-.29V72.05l1.42-.1.41-2.71h1.22V72h2.45Z"/><path class="cls-2" d="M191.07,72V83.67h-1.7V72Zm0-4v2.18h-1.61V68Z"/><path class="cls-2" d="M199,74.58c-.34-1.25-1-1.78-1.94-1.78-1.22,0-1.92.79-1.92,2.5V79.9c0,1.7.7,2.52,1.92,2.52,1,0,1.61-.53,2-1.85l1.27.43A3.35,3.35,0,0,1,197,83.86c-2.35,0-3.53-1.7-3.53-3.89V75.25c0-2.23,1.2-3.91,3.5-3.91a3.37,3.37,0,0,1,3.31,2.76Z"/><path class="cls-2" d="M207.48,71.55h1.68V83.67h-1.49l-.1-1a3.31,3.31,0,0,1-2.71,1.22c-1.94,0-3.07-1.44-3.07-4V71.55h1.7v8.33c0,1.63.65,2.5,1.87,2.5a2.54,2.54,0,0,0,2.11-1.1Z"/><path class="cls-2" d="M213.63,68V83.67h-1.7V68Z"/><path class="cls-2" d="M216.22,74c.62-1.58,1.66-2.71,3.36-2.71,2.16,0,3.07,1.51,3.07,3.74v6.58c0,.6.26.94.79.94h.29v1.1a3.09,3.09,0,0,1-.86.14,1.74,1.74,0,0,1-1.68-1,3.21,3.21,0,0,1-2.5,1.08c-1.7,0-2.78-1.22-2.78-3.24,0-2.28,1.18-3.89,4.32-3.89h.72V75.05c0-1.61-.53-2.3-1.56-2.3s-1.56.65-2,1.85Zm4.73,7.44V78h-.72c-2,0-2.69.91-2.69,2.47s.6,2,1.51,2A2.13,2.13,0,0,0,220.95,81.46Z"/><path class="cls-2" d="M230.28,73.33a1.65,1.65,0,0,0-1-.26c-1.34,0-2.18,1.18-2.35,3.36v7.25h-1.7V71.55h1.46l.1,2c.58-1.56,1.44-2.18,2.52-2.18a2.29,2.29,0,0,1,1.15.29Z"/><path class="cls-2" d="M246,74.58c-.34-1.25-1-1.78-1.94-1.78-1.22,0-1.92.79-1.92,2.5V79.9c0,1.7.7,2.52,1.92,2.52,1,0,1.61-.53,2-1.85l1.27.43A3.35,3.35,0,0,1,244,83.86c-2.35,0-3.53-1.7-3.53-3.89V75.25c0-2.23,1.2-3.91,3.5-3.91a3.37,3.37,0,0,1,3.31,2.76Z"/><path class="cls-2" d="M256.08,80c0,2.28-1.3,3.86-3.72,3.86s-3.67-1.56-3.67-3.86V75.25c0-2.28,1.27-3.91,3.67-3.91s3.72,1.61,3.72,3.91Zm-5.69,0c0,1.61.65,2.5,2,2.5s2-.89,2-2.5V75.29c0-1.61-.65-2.52-2-2.52s-2,.91-2,2.52Z"/><path class="cls-2" d="M265.15,83.67h-1.7V75.34c0-1.9-.67-2.47-1.61-2.47A2,2,0,0,0,260,74.41v9.26h-1.7V71.55h1.49V72.8a2.89,2.89,0,0,1,2.5-1.46,2.41,2.41,0,0,1,2.4,1.68,3,3,0,0,1,2.66-1.68c1.82,0,3,1.22,3,4v8.33h-1.7V75.34c0-1.63-.53-2.47-1.66-2.47s-1.78.7-1.78,2.47Z"/><path class="cls-2" d="M274.37,82.78v3.46h-1.7V71.55h1.49l.1,1A3.33,3.33,0,0,1,277,71.33c2,0,3.07,1.49,3.07,4v4.51c0,2.54-1.13,4-3.14,4A3.2,3.2,0,0,1,274.37,82.78Zm0-1.46a2.43,2.43,0,0,0,2.06,1.08c1.27,0,1.9-.86,1.9-2.52V75.39c0-1.7-.6-2.54-1.87-2.54A2.52,2.52,0,0,0,274.37,74Z"/><path class="cls-2" d="M282,74c.62-1.58,1.66-2.71,3.36-2.71,2.16,0,3.07,1.51,3.07,3.74v6.58c0,.6.26.94.79.94h.29v1.1a3.09,3.09,0,0,1-.86.14,1.74,1.74,0,0,1-1.68-1,3.21,3.21,0,0,1-2.5,1.08c-1.7,0-2.78-1.22-2.78-3.24,0-2.28,1.18-3.89,4.32-3.89h.72V75.05c0-1.61-.53-2.3-1.56-2.3s-1.56.65-2,1.85Zm4.73,7.44V78h-.72c-2,0-2.69.91-2.69,2.47s.6,2,1.51,2A2.13,2.13,0,0,0,286.77,81.46Z"/><path class="cls-2" d="M292.8,83.67h-1.7V71.55h1.49l.07,1.06a3.35,3.35,0,0,1,2.71-1.27c2,0,3.1,1.44,3.1,4v8.33h-1.7v-8.3c0-1.7-.62-2.52-1.87-2.52A2.49,2.49,0,0,0,292.8,74Z"/><path class="cls-2" d="M305.25,83.1c-.67,2.18-1.61,3.1-3.46,3.22L301.65,85c1.13-.17,1.68-.65,2.06-2l.07-.26-3.86-11.18h1.85l2.86,9,2.33-9h1.75Z"/><path class="cls-2" d="M53.95,97.45H51.5v7.42c0,1.13.48,1.61,1.3,1.61a2.1,2.1,0,0,0,1-.24l.22,1.1a3,3,0,0,1-1.75.53c-1.66,0-2.45-1.06-2.45-3V97.52l-1.32-.29V96.05l1.42-.1.41-2.71H51.5V96h2.45Z"/><path class="cls-2" d="M57.62,107.67h-1.7V92h1.7v4.51a3.24,3.24,0,0,1,2.59-1.18c2,0,3.07,1.44,3.07,4v8.33h-1.7v-8.3c0-1.7-.62-2.52-1.87-2.52A2.54,2.54,0,0,0,57.62,98Z"/><path class="cls-2" d="M65.47,98c.62-1.58,1.66-2.71,3.36-2.71,2.16,0,3.07,1.51,3.07,3.74v6.58c0,.6.26.94.79.94H73v1.1a3.09,3.09,0,0,1-.86.14,1.74,1.74,0,0,1-1.68-1,3.21,3.21,0,0,1-2.5,1.08c-1.7,0-2.78-1.22-2.78-3.24,0-2.28,1.18-3.89,4.32-3.89h.72V99.05c0-1.61-.53-2.3-1.56-2.3s-1.56.65-2,1.85Zm4.73,7.44V102h-.72c-2,0-2.69.91-2.69,2.47s.6,2,1.51,2A2.13,2.13,0,0,0,70.2,105.46Z"/><path class="cls-2" d="M79,97.45H76.56v7.42c0,1.13.48,1.61,1.3,1.61a2.1,2.1,0,0,0,1-.24l.22,1.1a3,3,0,0,1-1.75.53c-1.66,0-2.45-1.06-2.45-3V97.52l-1.32-.29V96.05l1.42-.1.41-2.71h1.22V96H79Z"/><path class="cls-2" d="M93.75,107.1c-.67,2.18-1.61,3.1-3.46,3.22L90.15,109c1.13-.17,1.68-.65,2.06-2l.07-.26L88.42,95.55h1.85l2.86,9,2.33-9H97.2Z"/><path class="cls-2" d="M105.72,104c0,2.28-1.3,3.86-3.72,3.86s-3.67-1.56-3.67-3.86V99.25c0-2.28,1.27-3.91,3.67-3.91s3.72,1.61,3.72,3.91ZM100,104c0,1.61.65,2.5,2,2.5s2-.89,2-2.5V99.29c0-1.61-.65-2.52-2-2.52s-2,.91-2,2.52Z"/><path class="cls-2" d="M113.43,95.55h1.68v12.12h-1.49l-.1-1a3.31,3.31,0,0,1-2.71,1.22c-1.94,0-3.07-1.44-3.07-4V95.55h1.7v8.33c0,1.63.65,2.5,1.87,2.5a2.54,2.54,0,0,0,2.11-1.1Z"/><path class="cls-2" d="M116.93,92h1.68v1.3a3.12,3.12,0,0,1-1.08,2.59l-.48-.48a2,2,0,0,0,.62-1.54l-.74-.17Z"/><path class="cls-2" d="M125.86,96.44V92h1.7v15.67h-1.49l-.1-1a3.31,3.31,0,0,1-2.71,1.22c-2,0-3.07-1.44-3.07-4V99.37c0-2.54,1.1-4,3.14-4A3.28,3.28,0,0,1,125.86,96.44Zm0,1.51a2.44,2.44,0,0,0-2.06-1.08c-1.27,0-1.9.84-1.9,2.52v4.49c0,1.63.62,2.52,1.87,2.52a2.53,2.53,0,0,0,2.09-1.1Z"/><path class="cls-2" d="M140.53,92v15.67h-1.7V92Z"/><path class="cls-2" d="M150.37,104c0,2.28-1.3,3.86-3.72,3.86S143,106.3,143,104V99.25c0-2.28,1.27-3.91,3.67-3.91s3.72,1.61,3.72,3.91Zm-5.69,0c0,1.61.65,2.5,2,2.5s2-.89,2-2.5V99.29c0-1.61-.65-2.52-2-2.52s-2,.91-2,2.52Z"/><path class="cls-2" d="M156.76,107.67h-1.94l-3.36-12.12h1.87l2.47,10.37,2.5-10.37h1.9Z"/><path class="cls-2" d="M162.95,101.65v2.26c0,1.66.72,2.52,2,2.52,1.06,0,1.66-.55,2.09-2.09l1.3.43c-.5,2.11-1.66,3.1-3.53,3.1-2.35,0-3.6-1.63-3.6-3.91v-4.7c0-2.28,1.25-3.91,3.58-3.91s3.5,1.7,3.5,4v2.33Zm0-1.2h3.84v-1.3c0-1.58-.7-2.4-1.92-2.4s-1.92.86-1.92,2.42Z"/><path class="cls-2" d="M183.38,97.45h-2.45v7.42c0,1.13.48,1.61,1.3,1.61a2.1,2.1,0,0,0,1-.24l.22,1.1a3,3,0,0,1-1.75.53c-1.66,0-2.45-1.06-2.45-3V97.52l-1.32-.29V96.05l1.42-.1.41-2.71h1.22V96h2.45Z"/><path class="cls-2" d="M192.33,104c0,2.28-1.3,3.86-3.72,3.86s-3.67-1.56-3.67-3.86V99.25c0-2.28,1.27-3.91,3.67-3.91s3.72,1.61,3.72,3.91Zm-5.69,0c0,1.61.65,2.5,2,2.5s2-.89,2-2.5V99.29c0-1.61-.65-2.52-2-2.52s-2,.91-2,2.52Z"/><path class="cls-2" d="M208.64,97.86l-2,9.82h-1.9l-2.66-12.12h1.78l1.9,10.15,2.09-10.15h1.61l2.09,10.22,1.9-10.22h1.78l-2.71,12.12h-1.87Z"/><path class="cls-2" d="M223.76,104c0,2.28-1.3,3.86-3.72,3.86s-3.67-1.56-3.67-3.86V99.25c0-2.28,1.27-3.91,3.67-3.91s3.72,1.61,3.72,3.91Zm-5.69,0c0,1.61.65,2.5,2,2.5s2-.89,2-2.5V99.29c0-1.61-.65-2.52-2-2.52s-2,.91-2,2.52Z"/><path class="cls-2" d="M231,97.33a1.65,1.65,0,0,0-1-.26c-1.34,0-2.18,1.18-2.35,3.36v7.25H226V95.55h1.46l.1,2C228.1,96,229,95.36,230,95.36a2.29,2.29,0,0,1,1.15.29Z"/><path class="cls-2" d="M234.53,92v9.77l4-6.22h1.85L237,100.76l3.82,6.91h-1.94l-3-5.69-1.34,1.75v3.94h-1.7V92Z"/><path class="cls-2" d="M255.2,97.42h-2.47v10.25h-1.68V97.42h-1.3V96.05h1.3v-.43c0-2.33,1.15-3.6,4-3.72l.1,1.27c-1.78.12-2.42.79-2.42,2.45v.43h2.52Z"/><path class="cls-2" d="M263.84,104c0,2.28-1.3,3.86-3.72,3.86s-3.67-1.56-3.67-3.86V99.25c0-2.28,1.27-3.91,3.67-3.91s3.72,1.61,3.72,3.91Zm-5.69,0c0,1.61.65,2.5,2,2.5s2-.89,2-2.5V99.29c0-1.61-.65-2.52-2-2.52s-2,.91-2,2.52Z"/><path class="cls-2" d="M271.07,97.33a1.65,1.65,0,0,0-1-.26c-1.34,0-2.18,1.18-2.35,3.36v7.25H266V95.55h1.46l.1,2c.58-1.56,1.44-2.18,2.52-2.18a2.29,2.29,0,0,1,1.15.29Z"/><path class="cls-2" d="M271.86,105.85h1.66v1.37c0,1.54-.36,2.33-1.68,2.5l-.1-.82c.65-.17.84-.41.84-1.22h-.72Z"/><path class="cls-2" d="M286.17,106.62l-.12,1.06h-1.46V92h1.7v4.49a3.28,3.28,0,0,1,2.62-1.15c1.94,0,3,1.46,3,4v4.51c0,2.54-1.1,4-3.14,4A3.17,3.17,0,0,1,286.17,106.62Zm.12-1.42a2.28,2.28,0,0,0,2.06,1.18c1.27,0,1.9-.84,1.9-2.5V99.39c0-1.68-.62-2.54-1.87-2.54A2.55,2.55,0,0,0,286.29,98Z"/><path class="cls-2" d="M299.66,95.55h1.68v12.12h-1.49l-.1-1a3.31,3.31,0,0,1-2.71,1.22c-1.94,0-3.07-1.44-3.07-4V95.55h1.7v8.33c0,1.63.65,2.5,1.87,2.5a2.54,2.54,0,0,0,2.11-1.1Z"/><path class="cls-2" d="M308.47,97.45H306v7.42c0,1.13.48,1.61,1.3,1.61a2.1,2.1,0,0,0,1-.24l.22,1.1a3,3,0,0,1-1.75.53c-1.66,0-2.45-1.06-2.45-3V97.52L303,97.23V96.05l1.42-.1.41-2.71H306V96h2.45Z"/><path class="cls-2" d="M53.95,121.45H51.5v7.42c0,1.13.48,1.61,1.3,1.61a2.1,2.1,0,0,0,1-.24l.22,1.1a3,3,0,0,1-1.75.53c-1.66,0-2.45-1.06-2.45-3v-7.32l-1.32-.29v-1.18l1.42-.1.41-2.71H51.5V120h2.45Z"/><path class="cls-2" d="M57.62,131.67h-1.7V116h1.7v4.51a3.24,3.24,0,0,1,2.59-1.18c2,0,3.07,1.44,3.07,4v8.33h-1.7v-8.3c0-1.7-.62-2.52-1.87-2.52A2.54,2.54,0,0,0,57.62,122Z"/><path class="cls-2" d="M67,125.65v2.26c0,1.66.72,2.52,2,2.52,1.06,0,1.66-.55,2.09-2.09l1.3.43c-.5,2.11-1.66,3.1-3.53,3.1-2.35,0-3.6-1.63-3.6-3.91v-4.7c0-2.28,1.25-3.91,3.58-3.91s3.5,1.7,3.5,4v2.33Zm0-1.2h3.84v-1.3c0-1.58-.7-2.4-1.92-2.4s-1.92.86-1.92,2.42Z"/><path class="cls-2" d="M78.71,131.1c-.67,2.18-1.61,3.1-3.46,3.22L75.11,133c1.13-.17,1.68-.65,2.06-2l.07-.26-3.86-11.18h1.85l2.86,9,2.33-9h1.75Z"/><path class="cls-2" d="M97,122c.62-1.58,1.66-2.71,3.36-2.71,2.16,0,3.07,1.51,3.07,3.74v6.58c0,.6.26.94.79.94h.29v1.1a3.09,3.09,0,0,1-.86.14,1.74,1.74,0,0,1-1.68-1,3.21,3.21,0,0,1-2.5,1.08c-1.7,0-2.78-1.22-2.78-3.24,0-2.28,1.18-3.89,4.32-3.89h.72v-1.68c0-1.61-.53-2.3-1.56-2.3s-1.56.65-2,1.85Zm4.73,7.44V126H101c-2,0-2.69.91-2.69,2.47s.6,2,1.51,2A2.13,2.13,0,0,0,101.74,129.46Z"/><path class="cls-2" d="M111.08,121.33a1.65,1.65,0,0,0-1-.26c-1.34,0-2.18,1.18-2.35,3.36v7.25h-1.7V119.55h1.46l.1,2c.58-1.56,1.44-2.18,2.52-2.18a2.29,2.29,0,0,1,1.15.29Z"/><path class="cls-2" d="M113.94,125.65v2.26c0,1.66.72,2.52,2,2.52,1.06,0,1.66-.55,2.09-2.09l1.3.43c-.5,2.11-1.66,3.1-3.53,3.1-2.35,0-3.6-1.63-3.6-3.91v-4.7c0-2.28,1.25-3.91,3.58-3.91s3.5,1.7,3.5,4v2.33Zm0-1.2h3.84v-1.3c0-1.58-.7-2.4-1.92-2.4s-1.92.86-1.92,2.42Z"/><path class="cls-2" d="M123.08,131.67h-1.7V119.55h1.49l.07,1.06a3.35,3.35,0,0,1,2.71-1.27c2,0,3.1,1.44,3.1,4v8.33H127v-8.3c0-1.7-.62-2.52-1.87-2.52a2.49,2.49,0,0,0-2.09,1.13Z"/><path class="cls-2" d="M129.61,116h1.68v1.3a3.13,3.13,0,0,1-1.08,2.59l-.48-.48a2,2,0,0,0,.62-1.54l-.74-.17Z"/><path class="cls-2" d="M137.79,121.45h-2.45v7.42c0,1.13.48,1.61,1.3,1.61a2.1,2.1,0,0,0,1-.24l.22,1.1a3,3,0,0,1-1.75.53c-1.66,0-2.45-1.06-2.45-3v-7.32l-1.32-.29v-1.18l1.42-.1.41-2.71h1.22V120h2.45Z"/><path class="cls-2" d="M158.3,122.58c-.34-1.25-1-1.78-1.94-1.78-1.22,0-1.92.79-1.92,2.5v4.61c0,1.7.7,2.52,1.92,2.52,1,0,1.61-.53,2-1.85l1.27.43a3.35,3.35,0,0,1-3.34,2.86c-2.35,0-3.53-1.7-3.53-3.89v-4.73c0-2.23,1.2-3.91,3.5-3.91a3.37,3.37,0,0,1,3.31,2.76Z"/><path class="cls-2" d="M166.77,119.55h1.68v12.12H167l-.1-1a3.31,3.31,0,0,1-2.71,1.22c-1.94,0-3.07-1.44-3.07-4v-8.33h1.7v8.33c0,1.63.65,2.5,1.87,2.5a2.54,2.54,0,0,0,2.11-1.1Z"/><path class="cls-2" d="M176,121.33a1.65,1.65,0,0,0-1-.26c-1.34,0-2.18,1.18-2.35,3.36v7.25H171V119.55h1.46l.1,2c.58-1.56,1.44-2.18,2.52-2.18a2.29,2.29,0,0,1,1.15.29Z"/><path class="cls-2" d="M182.8,121.33a1.65,1.65,0,0,0-1-.26c-1.34,0-2.18,1.18-2.35,3.36v7.25h-1.7V119.55h1.46l.1,2c.58-1.56,1.44-2.18,2.52-2.18a2.29,2.29,0,0,1,1.15.29Z"/><path class="cls-2" d="M185.66,125.65v2.26c0,1.66.72,2.52,2,2.52,1.06,0,1.66-.55,2.09-2.09l1.3.43c-.5,2.11-1.66,3.1-3.53,3.1-2.35,0-3.6-1.63-3.6-3.91v-4.7c0-2.28,1.25-3.91,3.58-3.91s3.5,1.7,3.5,4v2.33Zm0-1.2h3.84v-1.3c0-1.58-.7-2.4-1.92-2.4s-1.92.86-1.92,2.42Z"/><path class="cls-2" d="M194.8,131.67h-1.7V119.55h1.49l.07,1.06a3.35,3.35,0,0,1,2.71-1.27c2,0,3.1,1.44,3.1,4v8.33h-1.7v-8.3c0-1.7-.62-2.52-1.87-2.52A2.49,2.49,0,0,0,194.8,122Z"/><path class="cls-2" d="M207.4,121.45H205v7.42c0,1.13.48,1.61,1.3,1.61a2.1,2.1,0,0,0,1-.24l.22,1.1a3,3,0,0,1-1.75.53c-1.66,0-2.45-1.06-2.45-3v-7.32l-1.32-.29v-1.18l1.42-.1.41-2.71H205V120h2.45Z"/><path class="cls-2" d="M211.22,116v15.67h-1.7V116Z"/><path class="cls-2" d="M218.44,131.1c-.67,2.18-1.61,3.1-3.46,3.22l-.14-1.32c1.13-.17,1.68-.65,2.06-2l.07-.26-3.86-11.18H215l2.86,9,2.33-9h1.75Z"/><path class="cls-2" d="M238.71,131.67H237V116h1.7v4.51a3.24,3.24,0,0,1,2.59-1.18c2,0,3.07,1.44,3.07,4v8.33h-1.7v-8.3c0-1.7-.62-2.52-1.87-2.52a2.54,2.54,0,0,0-2.09,1.13Z"/><path class="cls-2" d="M248.62,120v11.64h-1.7V120Zm0-4v2.18H247V116Z"/><path class="cls-2" d="M256.35,121.33a1.65,1.65,0,0,0-1-.26c-1.34,0-2.18,1.18-2.35,3.36v7.25h-1.7V119.55h1.46l.1,2c.58-1.56,1.44-2.18,2.52-2.18a2.29,2.29,0,0,1,1.15.29Z"/><path class="cls-2" d="M260,120v11.64h-1.7V120Zm0-4v2.18h-1.61V116Z"/><path class="cls-2" d="M264.41,131.67h-1.7V119.55h1.49l.07,1.06a3.35,3.35,0,0,1,2.71-1.27c2,0,3.1,1.44,3.1,4v8.33h-1.7v-8.3c0-1.7-.62-2.52-1.87-2.52a2.49,2.49,0,0,0-2.09,1.13Z"/><path class="cls-2" d="M274.18,126.44a1.11,1.11,0,0,0-.72,1c0,.5.34.84,1.22.84h2.06c2.33,0,3.19,1,3.19,2.66,0,2.23-1.56,3.43-4.13,3.43s-3.58-1-3.58-2.66a2.76,2.76,0,0,1,.94-2.18,1.84,1.84,0,0,1-1.15-1.78,2.08,2.08,0,0,1,1.3-1.82,3.94,3.94,0,0,1-.89-2.88c0-2.59,1.06-3.67,3.38-3.67a4.05,4.05,0,0,1,2.06.46,3.05,3.05,0,0,0,1.27-1.39l.84.36a3.63,3.63,0,0,1-1.2,2,4.93,4.93,0,0,1,.43,2.23c0,2.52-1.06,3.67-3.41,3.67A4.15,4.15,0,0,1,274.18,126.44Zm.31,3.31a1.88,1.88,0,0,0-.79,1.75c0,1.1.79,1.58,2.18,1.58,2,0,2.52-.82,2.52-1.92s-.41-1.42-1.78-1.42Zm1.32-4.37c1.37,0,1.78-.5,1.78-2.3s-.5-2.35-1.78-2.35-1.75.5-1.75,2.35S274.49,125.38,275.81,125.38Z"/><path class="cls-2" d="M281.67,129.85h1.66v1.37c0,1.54-.36,2.33-1.68,2.5l-.1-.82c.65-.17.84-.41.84-1.22h-.72Z"/><path class="cls-2" d="M301.17,120v11.64h-1.7V120Zm0-4v2.18h-1.61V116Z"/><path class="cls-2" d="M308.47,121.45H306v7.42c0,1.13.48,1.61,1.3,1.61a2.1,2.1,0,0,0,1-.24l.22,1.1a3,3,0,0,1-1.75.53c-1.66,0-2.45-1.06-2.45-3v-7.32l-1.32-.29v-1.18l1.42-.1.41-2.71H306V120h2.45Z"/><path class="cls-2" d="M51.07,155.67h-1.7V143.55h1.49l.07,1.06a3.35,3.35,0,0,1,2.71-1.27c2,0,3.1,1.44,3.1,4v8.33H55v-8.3c0-1.7-.62-2.52-1.87-2.52A2.49,2.49,0,0,0,51.07,146Z"/><path class="cls-2" d="M60.45,149.65v2.26c0,1.66.72,2.52,2,2.52,1.06,0,1.66-.55,2.09-2.09l1.3.43c-.5,2.11-1.66,3.1-3.53,3.1-2.35,0-3.6-1.63-3.6-3.91v-4.7c0-2.28,1.25-3.91,3.58-3.91s3.5,1.7,3.5,4v2.33Zm0-1.2h3.84v-1.3c0-1.58-.7-2.4-1.92-2.4s-1.92.86-1.92,2.42Z"/><path class="cls-2" d="M72.07,155.67H70.12l-3.36-12.12h1.87l2.47,10.37,2.5-10.37h1.9Z"/><path class="cls-2" d="M78.26,149.65v2.26c0,1.66.72,2.52,2,2.52,1.06,0,1.66-.55,2.09-2.09l1.3.43c-.5,2.11-1.66,3.1-3.53,3.1-2.35,0-3.6-1.63-3.6-3.91v-4.7c0-2.28,1.25-3.91,3.58-3.91s3.5,1.7,3.5,4v2.33Zm0-1.2H82.1v-1.3c0-1.58-.7-2.4-1.92-2.4s-1.92.86-1.92,2.42Z"/><path class="cls-2" d="M90.71,145.33a1.65,1.65,0,0,0-1-.26c-1.34,0-2.18,1.18-2.35,3.36v7.25H85.7V143.55h1.46l.1,2c.58-1.56,1.44-2.18,2.52-2.18a2.29,2.29,0,0,1,1.15.29Z"/><path class="cls-2" d="M98,155.67h-1.7V140H98v4.51a3.24,3.24,0,0,1,2.59-1.18c2,0,3.07,1.44,3.07,4v8.33H102v-8.3c0-1.7-.62-2.52-1.87-2.52A2.54,2.54,0,0,0,98,146Z"/><path class="cls-2" d="M111.59,143.55h1.68v12.12h-1.49l-.1-1a3.31,3.31,0,0,1-2.71,1.22c-1.94,0-3.07-1.44-3.07-4v-8.33h1.7v8.33c0,1.63.65,2.5,1.87,2.5a2.54,2.54,0,0,0,2.11-1.1Z"/><path class="cls-2" d="M120.82,145.33a1.65,1.65,0,0,0-1-.26c-1.34,0-2.18,1.18-2.35,3.36v7.25h-1.7V143.55h1.46l.1,2c.58-1.56,1.44-2.18,2.52-2.18a2.29,2.29,0,0,1,1.15.29Z"/><path class="cls-2" d="M127.18,145.45h-2.45v7.42c0,1.13.48,1.61,1.3,1.61a2.1,2.1,0,0,0,1-.24l.22,1.1a3,3,0,0,1-1.75.53c-1.66,0-2.45-1.06-2.45-3v-7.32l-1.32-.29v-1.18l1.42-.1.41-2.71h1.22V144h2.45Z"/><path class="cls-2" d="M133.93,146.41c-.36-1.27-1.06-1.7-2-1.7a1.5,1.5,0,0,0-1.63,1.68c0,2.69,4.8,2.16,4.8,6.12a3.13,3.13,0,0,1-3.19,3.36,3.29,3.29,0,0,1-3.36-2.69l1.18-.53c.41,1.42,1.27,1.9,2.14,1.9,1.06,0,1.63-.7,1.63-1.92,0-2.88-4.82-2.33-4.82-6.12a3,3,0,0,1,3.22-3.17,3.15,3.15,0,0,1,3.14,2.62Z"/><path class="cls-2" d="M145.39,145.45h-2.45v7.42c0,1.13.48,1.61,1.3,1.61a2.1,2.1,0,0,0,1-.24l.22,1.1a3,3,0,0,1-1.75.53c-1.66,0-2.45-1.06-2.45-3v-7.32l-1.32-.29v-1.18l1.42-.1.41-2.71h1.22V144h2.45Z"/><path class="cls-2" d="M154.34,152c0,2.28-1.3,3.86-3.72,3.86s-3.67-1.56-3.67-3.86v-4.75c0-2.28,1.27-3.91,3.67-3.91s3.72,1.61,3.72,3.91Zm-5.69,0c0,1.61.65,2.5,2,2.5s2-.89,2-2.5v-4.66c0-1.61-.65-2.52-2-2.52s-2,.91-2,2.52Z"/><path class="cls-2" d="M165.66,144.44V140h1.7v15.67h-1.49l-.1-1a3.31,3.31,0,0,1-2.71,1.22c-2,0-3.07-1.44-3.07-4v-4.51c0-2.54,1.1-4,3.14-4A3.28,3.28,0,0,1,165.66,144.44Zm0,1.51a2.44,2.44,0,0,0-2.06-1.08c-1.27,0-1.9.84-1.9,2.52v4.49c0,1.63.62,2.52,1.87,2.52a2.53,2.53,0,0,0,2.09-1.1Z"/><path class="cls-2" d="M175,145.33a1.65,1.65,0,0,0-1-.26c-1.34,0-2.18,1.18-2.35,3.36v7.25H170V143.55h1.46l.1,2c.58-1.56,1.44-2.18,2.52-2.18a2.29,2.29,0,0,1,1.15.29Z"/><path class="cls-2" d="M183.56,152c0,2.28-1.3,3.86-3.72,3.86s-3.67-1.56-3.67-3.86v-4.75c0-2.28,1.27-3.91,3.67-3.91s3.72,1.61,3.72,3.91Zm-5.69,0c0,1.61.65,2.5,2,2.5s2-.89,2-2.5v-4.66c0-1.61-.65-2.52-2-2.52s-2,.91-2,2.52Z"/><path class="cls-2" d="M187.47,154.78v3.46h-1.7V143.55h1.49l.1,1a3.33,3.33,0,0,1,2.71-1.25c2,0,3.07,1.49,3.07,4v4.51c0,2.54-1.13,4-3.14,4A3.2,3.2,0,0,1,187.47,154.78Zm0-1.46a2.43,2.43,0,0,0,2.06,1.08c1.27,0,1.9-.86,1.9-2.52v-4.49c0-1.7-.6-2.54-1.87-2.54a2.52,2.52,0,0,0-2.09,1.13Z"/><path class="cls-2" d="M206.19,152c0,2.28-1.3,3.86-3.72,3.86s-3.67-1.56-3.67-3.86v-4.75c0-2.28,1.27-3.91,3.67-3.91s3.72,1.61,3.72,3.91Zm-5.69,0c0,1.61.65,2.5,2,2.5s2-.89,2-2.5v-4.66c0-1.61-.65-2.52-2-2.52s-2,.91-2,2.52Z"/><path class="cls-2" d="M218.31,145.42h-2.47v10.25h-1.68V145.42h-3.72v10.25h-1.68V145.42h-1.3v-1.37h1.3v-.43c0-2.33,1.15-3.6,4-3.72l.1,1.27c-1.78.12-2.42.79-2.42,2.45v.43h3.77v-.43c0-2.33,1.15-3.6,4-3.72l.1,1.27c-1.78.12-2.42.79-2.42,2.45v.43h2.52Z"/><path class="cls-2" d="M223.29,146c.62-1.58,1.66-2.71,3.36-2.71,2.16,0,3.07,1.51,3.07,3.74v6.58c0,.6.26.94.79.94h.29v1.1a3.09,3.09,0,0,1-.86.14,1.74,1.74,0,0,1-1.68-1,3.21,3.21,0,0,1-2.5,1.08c-1.7,0-2.78-1.22-2.78-3.24,0-2.28,1.18-3.89,4.32-3.89H228v-1.68c0-1.61-.53-2.3-1.56-2.3s-1.56.65-2,1.85Zm4.73,7.44V150h-.72c-2,0-2.69.91-2.69,2.47s.6,2,1.51,2A2.13,2.13,0,0,0,228,153.46Z"/><path class="cls-2" d="M241.13,145.33a1.65,1.65,0,0,0-1-.26c-1.34,0-2.18,1.18-2.35,3.36v7.25h-1.7V143.55h1.46l.1,2c.58-1.56,1.44-2.18,2.52-2.18a2.29,2.29,0,0,1,1.15.29Z"/><path class="cls-2" d="M244,149.65v2.26c0,1.66.72,2.52,2,2.52,1.06,0,1.66-.55,2.09-2.09l1.3.43c-.5,2.11-1.66,3.1-3.53,3.1-2.35,0-3.6-1.63-3.6-3.91v-4.7c0-2.28,1.25-3.91,3.58-3.91s3.5,1.7,3.5,4v2.33Zm0-1.2h3.84v-1.3c0-1.58-.7-2.4-1.92-2.4s-1.92.86-1.92,2.42Z"/><path class="cls-2" d="M256.28,146.41c-.36-1.27-1.06-1.7-2-1.7a1.5,1.5,0,0,0-1.63,1.68c0,2.69,4.8,2.16,4.8,6.12a3.13,3.13,0,0,1-3.19,3.36,3.29,3.29,0,0,1-3.36-2.69l1.18-.53c.41,1.42,1.27,1.9,2.14,1.9,1.06,0,1.63-.7,1.63-1.92,0-2.88-4.82-2.33-4.82-6.12a3,3,0,0,1,3.22-3.17A3.15,3.15,0,0,1,257.4,146Z"/><path class="cls-2" d="M264.87,143.55h1.68v12.12h-1.49l-.1-1a3.31,3.31,0,0,1-2.71,1.22c-1.94,0-3.07-1.44-3.07-4v-8.33h1.7v8.33c0,1.63.65,2.5,1.87,2.5a2.54,2.54,0,0,0,2.11-1.1Z"/><path class="cls-2" d="M276,155.67h-1.7v-8.33c0-1.9-.67-2.47-1.61-2.47a2,2,0,0,0-1.85,1.54v9.26h-1.7V143.55h1.49v1.25a2.89,2.89,0,0,1,2.5-1.46,2.41,2.41,0,0,1,2.4,1.68,3,3,0,0,1,2.66-1.68c1.82,0,3,1.22,3,4v8.33h-1.7v-8.33c0-1.63-.53-2.47-1.66-2.47s-1.78.7-1.78,2.47Z"/><path class="cls-2" d="M284.84,149.65v2.26c0,1.66.72,2.52,2,2.52,1.06,0,1.66-.55,2.09-2.09l1.3.43c-.5,2.11-1.66,3.1-3.53,3.1-2.35,0-3.6-1.63-3.6-3.91v-4.7c0-2.28,1.25-3.91,3.58-3.91s3.5,1.7,3.5,4v2.33Zm0-1.2h3.84v-1.3c0-1.58-.7-2.4-1.92-2.4s-1.92.86-1.92,2.42Z"/><path class="cls-2" d="M297.93,144v11.64h-1.7V144Zm0-4v2.18h-1.61V140Z"/><path class="cls-2" d="M302.35,155.67h-1.7V143.55h1.49l.07,1.06a3.35,3.35,0,0,1,2.71-1.27c2,0,3.1,1.44,3.1,4v8.33h-1.7v-8.3c0-1.7-.62-2.52-1.87-2.52a2.49,2.49,0,0,0-2.09,1.13Z"/><path class="cls-2" d="M51.07,178.78v3.46h-1.7V167.55h1.49l.1,1a3.33,3.33,0,0,1,2.71-1.25c2,0,3.07,1.49,3.07,4v4.51c0,2.54-1.13,4-3.14,4A3.2,3.2,0,0,1,51.07,178.78Zm0-1.46a2.43,2.43,0,0,0,2.06,1.08c1.27,0,1.9-.86,1.9-2.52v-4.49c0-1.7-.6-2.54-1.87-2.54A2.52,2.52,0,0,0,51.07,170Z"/><path class="cls-2" d="M60.31,173.65v2.26c0,1.66.72,2.52,2,2.52,1.06,0,1.66-.55,2.09-2.09l1.3.43c-.5,2.11-1.66,3.1-3.53,3.1-2.35,0-3.6-1.63-3.6-3.91v-4.7c0-2.28,1.25-3.91,3.58-3.91s3.5,1.7,3.5,4v2.33Zm0-1.2h3.84v-1.3c0-1.58-.7-2.4-1.92-2.4s-1.92.86-1.92,2.42Z"/><path class="cls-2" d="M72.76,169.33a1.65,1.65,0,0,0-1-.26c-1.34,0-2.18,1.18-2.35,3.36v7.25h-1.7V167.55h1.46l.1,2c.58-1.56,1.44-2.18,2.52-2.18a2.29,2.29,0,0,1,1.15.29Z"/><path class="cls-2" d="M79.39,170.41c-.36-1.27-1.06-1.7-2-1.7a1.5,1.5,0,0,0-1.63,1.68c0,2.69,4.8,2.16,4.8,6.12a3.13,3.13,0,0,1-3.19,3.36A3.29,3.29,0,0,1,74,177.18l1.18-.53c.41,1.42,1.27,1.9,2.14,1.9,1.06,0,1.63-.7,1.63-1.92,0-2.88-4.82-2.33-4.82-6.12a3,3,0,0,1,3.22-3.17A3.15,3.15,0,0,1,80.51,170Z"/><path class="cls-2" d="M89.54,176c0,2.28-1.3,3.86-3.72,3.86s-3.67-1.56-3.67-3.86v-4.75c0-2.28,1.27-3.91,3.67-3.91s3.72,1.61,3.72,3.91Zm-5.69,0c0,1.61.65,2.5,2,2.5s2-.89,2-2.5v-4.66c0-1.61-.65-2.52-2-2.52s-2,.91-2,2.52Z"/><path class="cls-2" d="M93.45,179.67h-1.7V167.55h1.49l.07,1.06A3.35,3.35,0,0,1,96,167.33c2,0,3.1,1.44,3.1,4v8.33h-1.7v-8.3c0-1.7-.62-2.52-1.87-2.52A2.49,2.49,0,0,0,93.45,170Z"/><path class="cls-2" d="M112.51,176c0,2.28-1.3,3.86-3.72,3.86s-3.67-1.56-3.67-3.86v-4.75c0-2.28,1.27-3.91,3.67-3.91s3.72,1.61,3.72,3.91Zm-5.69,0c0,1.61.65,2.5,2,2.5s2-.89,2-2.5v-4.66c0-1.61-.65-2.52-2-2.52s-2,.91-2,2.52Z"/><path class="cls-2" d="M119.74,169.33a1.65,1.65,0,0,0-1-.26c-1.34,0-2.18,1.18-2.35,3.36v7.25h-1.7V167.55h1.46l.1,2c.58-1.56,1.44-2.18,2.52-2.18a2.29,2.29,0,0,1,1.15.29Z"/><path class="cls-2" d="M130.35,170.41c-.36-1.27-1.06-1.7-2-1.7a1.5,1.5,0,0,0-1.63,1.68c0,2.69,4.8,2.16,4.8,6.12a3.13,3.13,0,0,1-3.19,3.36,3.29,3.29,0,0,1-3.36-2.69l1.18-.53c.41,1.42,1.27,1.9,2.14,1.9,1.06,0,1.63-.7,1.63-1.92,0-2.88-4.82-2.33-4.82-6.12a3,3,0,0,1,3.22-3.17,3.15,3.15,0,0,1,3.14,2.62Z"/><path class="cls-2" d="M134.81,173.65v2.26c0,1.66.72,2.52,2,2.52,1.06,0,1.66-.55,2.09-2.09l1.3.43c-.5,2.11-1.66,3.1-3.53,3.1-2.35,0-3.6-1.63-3.6-3.91v-4.7c0-2.28,1.25-3.91,3.58-3.91s3.5,1.7,3.5,4v2.33Zm0-1.2h3.84v-1.3c0-1.58-.7-2.4-1.92-2.4s-1.92.86-1.92,2.42Z"/><path class="cls-2" d="M144,179.67h-1.7V167.55h1.49l.07,1.06a3.35,3.35,0,0,1,2.71-1.27c2,0,3.1,1.44,3.1,4v8.33h-1.7v-8.3c0-1.7-.62-2.52-1.87-2.52A2.49,2.49,0,0,0,144,170Z"/><path class="cls-2" d="M157.3,168.44V164H159v15.67h-1.49l-.1-1a3.31,3.31,0,0,1-2.71,1.22c-2,0-3.07-1.44-3.07-4v-4.51c0-2.54,1.1-4,3.14-4A3.28,3.28,0,0,1,157.3,168.44Zm0,1.51a2.44,2.44,0,0,0-2.06-1.08c-1.27,0-1.9.84-1.9,2.52v4.49c0,1.63.62,2.52,1.87,2.52a2.53,2.53,0,0,0,2.09-1.1Z"/><path class="cls-2" d="M163.52,168v11.64h-1.7V168Zm0-4v2.18h-1.61V164Z"/><path class="cls-2" d="M167.93,179.67h-1.7V167.55h1.49l.07,1.06a3.35,3.35,0,0,1,2.71-1.27c2,0,3.1,1.44,3.1,4v8.33h-1.7v-8.3c0-1.7-.62-2.52-1.87-2.52a2.49,2.49,0,0,0-2.09,1.13Z"/><path class="cls-2" d="M177.7,174.44a1.11,1.11,0,0,0-.72,1c0,.5.34.84,1.22.84h2.06c2.33,0,3.19,1,3.19,2.66,0,2.23-1.56,3.43-4.13,3.43s-3.58-1-3.58-2.66a2.76,2.76,0,0,1,.94-2.18,1.84,1.84,0,0,1-1.15-1.78,2.08,2.08,0,0,1,1.3-1.82,3.94,3.94,0,0,1-.89-2.88c0-2.59,1.06-3.67,3.38-3.67a4.05,4.05,0,0,1,2.06.46,3.05,3.05,0,0,0,1.27-1.39l.84.36a3.64,3.64,0,0,1-1.2,2,4.93,4.93,0,0,1,.43,2.23c0,2.52-1.06,3.67-3.41,3.67A4.15,4.15,0,0,1,177.7,174.44Zm.31,3.31a1.88,1.88,0,0,0-.79,1.75c0,1.1.79,1.58,2.18,1.58,2,0,2.52-.82,2.52-1.92s-.41-1.42-1.78-1.42Zm1.32-4.37c1.37,0,1.78-.5,1.78-2.3s-.5-2.35-1.78-2.35-1.75.5-1.75,2.35S178,173.38,179.33,173.38Z"/><path class="cls-2" d="M193.74,169.45h-2.45v7.42c0,1.13.48,1.61,1.3,1.61a2.1,2.1,0,0,0,1-.24l.22,1.1a3,3,0,0,1-1.75.53c-1.66,0-2.45-1.06-2.45-3v-7.32l-1.32-.29v-1.18l1.42-.1.41-2.71h1.22V168h2.45Z"/><path class="cls-2" d="M197.41,179.67h-1.7V164h1.7v4.51a3.24,3.24,0,0,1,2.59-1.18c2,0,3.07,1.44,3.07,4v8.33h-1.7v-8.3c0-1.7-.62-2.52-1.87-2.52a2.54,2.54,0,0,0-2.09,1.13Z"/><path class="cls-2" d="M206.82,173.65v2.26c0,1.66.72,2.52,2,2.52,1.06,0,1.66-.55,2.09-2.09l1.3.43c-.5,2.11-1.66,3.1-3.53,3.1-2.35,0-3.6-1.63-3.6-3.91v-4.7c0-2.28,1.25-3.91,3.58-3.91s3.5,1.7,3.5,4v2.33Zm0-1.2h3.84v-1.3c0-1.58-.7-2.4-1.92-2.4s-1.92.86-1.92,2.42Z"/><path class="cls-2" d="M223.48,170.58c-.34-1.25-1-1.78-1.94-1.78-1.22,0-1.92.79-1.92,2.5v4.61c0,1.7.7,2.52,1.92,2.52,1,0,1.61-.53,2-1.85l1.27.43a3.35,3.35,0,0,1-3.34,2.86c-2.35,0-3.53-1.7-3.53-3.89v-4.73c0-2.23,1.2-3.91,3.5-3.91a3.37,3.37,0,0,1,3.31,2.76Z"/><path class="cls-2" d="M233.51,176c0,2.28-1.3,3.86-3.72,3.86s-3.67-1.56-3.67-3.86v-4.75c0-2.28,1.27-3.91,3.67-3.91s3.72,1.61,3.72,3.91Zm-5.69,0c0,1.61.65,2.5,2,2.5s2-.89,2-2.5v-4.66c0-1.61-.65-2.52-2-2.52s-2,.91-2,2.52Z"/><path class="cls-2" d="M242.58,179.67h-1.7v-8.33c0-1.9-.67-2.47-1.61-2.47a2,2,0,0,0-1.85,1.54v9.26h-1.7V167.55h1.49v1.25a2.89,2.89,0,0,1,2.5-1.46,2.41,2.41,0,0,1,2.4,1.68,3,3,0,0,1,2.66-1.68c1.82,0,3,1.22,3,4v8.33H246v-8.33c0-1.63-.53-2.47-1.66-2.47s-1.78.7-1.78,2.47Z"/><path class="cls-2" d="M251.8,178.78v3.46h-1.7V167.55h1.49l.1,1a3.33,3.33,0,0,1,2.71-1.25c2,0,3.07,1.49,3.07,4v4.51c0,2.54-1.13,4-3.14,4A3.2,3.2,0,0,1,251.8,178.78Zm0-1.46a2.43,2.43,0,0,0,2.06,1.08c1.27,0,1.9-.86,1.9-2.52v-4.49c0-1.7-.6-2.54-1.87-2.54A2.52,2.52,0,0,0,251.8,170Z"/><path class="cls-2" d="M259.48,170c.62-1.58,1.66-2.71,3.36-2.71,2.16,0,3.07,1.51,3.07,3.74v6.58c0,.6.26.94.79.94H267v1.1a3.09,3.09,0,0,1-.86.14,1.74,1.74,0,0,1-1.68-1,3.21,3.21,0,0,1-2.5,1.08c-1.7,0-2.78-1.22-2.78-3.24,0-2.28,1.18-3.89,4.32-3.89h.72v-1.68c0-1.61-.53-2.3-1.56-2.3s-1.56.65-2,1.85Zm4.73,7.44V174h-.72c-2,0-2.69.91-2.69,2.47s.6,2,1.51,2A2.13,2.13,0,0,0,264.21,177.46Z"/><path class="cls-2" d="M270.23,179.67h-1.7V167.55H270l.07,1.06a3.35,3.35,0,0,1,2.71-1.27c2,0,3.1,1.44,3.1,4v8.33h-1.7v-8.3c0-1.7-.62-2.52-1.87-2.52a2.49,2.49,0,0,0-2.09,1.13Z"/><path class="cls-2" d="M282.69,179.1c-.67,2.18-1.61,3.1-3.46,3.22l-.14-1.32c1.13-.17,1.68-.65,2.06-2l.07-.26-3.86-11.18h1.85l2.86,9,2.33-9h1.75Z"/><path class="cls-2" d="M291.59,170c.62-1.58,1.66-2.71,3.36-2.71,2.16,0,3.07,1.51,3.07,3.74v6.58c0,.6.26.94.79.94h.29v1.1a3.09,3.09,0,0,1-.86.14,1.74,1.74,0,0,1-1.68-1,3.21,3.21,0,0,1-2.5,1.08c-1.7,0-2.78-1.22-2.78-3.24,0-2.28,1.18-3.89,4.32-3.89h.72v-1.68c0-1.61-.53-2.3-1.56-2.3s-1.56.65-2,1.85Zm4.73,7.44V174h-.72c-2,0-2.69.91-2.69,2.47s.6,2,1.51,2A2.13,2.13,0,0,0,296.32,177.46Z"/><path class="cls-2" d="M302.35,179.67h-1.7V167.55h1.49l.07,1.06a3.35,3.35,0,0,1,2.71-1.27c2,0,3.1,1.44,3.1,4v8.33h-1.7v-8.3c0-1.7-.62-2.52-1.87-2.52a2.49,2.49,0,0,0-2.09,1.13Z"/><path class="cls-2" d="M50.73,197.65v2.26c0,1.66.72,2.52,2,2.52,1.06,0,1.66-.55,2.09-2.09l1.3.43c-.5,2.11-1.66,3.1-3.53,3.1-2.35,0-3.6-1.63-3.6-3.91v-4.7c0-2.28,1.25-3.91,3.58-3.91s3.5,1.7,3.5,4v2.33Zm0-1.2h3.84v-1.3c0-1.58-.7-2.4-1.92-2.4s-1.92.86-1.92,2.42Z"/><path class="cls-2" d="M65,203.67h-1.7v-8.33c0-1.9-.67-2.47-1.61-2.47a2,2,0,0,0-1.85,1.54v9.26h-1.7V191.55h1.49v1.25a2.89,2.89,0,0,1,2.5-1.46,2.41,2.41,0,0,1,2.4,1.68,3,3,0,0,1,2.66-1.68c1.82,0,3,1.22,3,4v8.33h-1.7v-8.33c0-1.63-.53-2.47-1.66-2.47s-1.78.7-1.78,2.47Z"/><path class="cls-2" d="M72.36,194c.62-1.58,1.66-2.71,3.36-2.71,2.16,0,3.07,1.51,3.07,3.74v6.58c0,.6.26.94.79.94h.29v1.1a3.09,3.09,0,0,1-.86.14,1.74,1.74,0,0,1-1.68-1,3.21,3.21,0,0,1-2.5,1.08c-1.7,0-2.78-1.22-2.78-3.24,0-2.28,1.18-3.89,4.32-3.89h.72v-1.68c0-1.61-.53-2.3-1.56-2.3s-1.56.65-2,1.85Zm4.73,7.44V198h-.72c-2,0-2.69.91-2.69,2.47s.6,2,1.51,2A2.13,2.13,0,0,0,77.08,201.46Z"/><path class="cls-2" d="M83.27,192v11.64h-1.7V192Zm0-4v2.18H81.62V188Z"/><path class="cls-2" d="M87.91,188v15.67H86.2V188Z"/><path class="cls-2" d="M92.32,188v6.79l-.17,4.42H90.83l-.17-4.39V188Zm-1.49,13.85h1.66v1.82H90.83Z"/><path class="cls-2" d="M51.62,236v15.67H49.77V236Z"/><path class="cls-2" d="M59.16,241.45H56.71v7.42c0,1.13.48,1.61,1.3,1.61a2.1,2.1,0,0,0,1-.24l.22,1.1a3,3,0,0,1-1.75.53c-1.66,0-2.45-1.06-2.45-3v-7.32l-1.32-.29v-1.18l1.42-.1.41-2.71h1.22V240h2.45Z"/><path class="cls-2" d="M74.07,242.41c-.36-1.27-1.06-1.7-2-1.7a1.5,1.5,0,0,0-1.63,1.68c0,2.69,4.8,2.16,4.8,6.12a3.13,3.13,0,0,1-3.19,3.36,3.29,3.29,0,0,1-3.36-2.69l1.18-.53c.41,1.42,1.27,1.9,2.14,1.9,1.06,0,1.63-.7,1.63-1.92,0-2.88-4.82-2.33-4.82-6.12A3,3,0,0,1,72,239.33,3.15,3.15,0,0,1,75.19,242Z"/><path class="cls-2" d="M78.94,251.67h-1.7V236h1.7v4.51a3.24,3.24,0,0,1,2.59-1.18c2,0,3.07,1.44,3.07,4v8.33H82.9v-8.3c0-1.7-.62-2.52-1.87-2.52A2.54,2.54,0,0,0,78.94,242Z"/><path class="cls-2" d="M94,248c0,2.28-1.3,3.86-3.72,3.86s-3.67-1.56-3.67-3.86v-4.75c0-2.28,1.27-3.91,3.67-3.91S94,240.94,94,243.25Zm-5.69,0c0,1.61.65,2.5,2,2.5s2-.89,2-2.5v-4.66c0-1.61-.65-2.52-2-2.52s-2,.91-2,2.52Z"/><path class="cls-2" d="M101.76,241.86l-2,9.82h-1.9l-2.66-12.12H97l1.9,10.15L101,239.55h1.61l2.09,10.22,1.9-10.22h1.78l-2.71,12.12h-1.87Z"/><path class="cls-2" d="M114.84,242.41c-.36-1.27-1.06-1.7-2-1.7a1.5,1.5,0,0,0-1.63,1.68c0,2.69,4.8,2.16,4.8,6.12a3.13,3.13,0,0,1-3.19,3.36,3.29,3.29,0,0,1-3.36-2.69l1.18-.53c.41,1.42,1.27,1.9,2.14,1.9,1.06,0,1.63-.7,1.63-1.92,0-2.88-4.82-2.33-4.82-6.12a3,3,0,0,1,3.22-3.17A3.15,3.15,0,0,1,116,242Z"/><path class="cls-2" d="M127.8,250.78v3.46h-1.7V239.55h1.49l.1,1a3.33,3.33,0,0,1,2.71-1.25c2,0,3.07,1.49,3.07,4v4.51c0,2.54-1.13,4-3.14,4A3.2,3.2,0,0,1,127.8,250.78Zm0-1.46a2.43,2.43,0,0,0,2.06,1.08c1.27,0,1.9-.86,1.9-2.52v-4.49c0-1.7-.6-2.54-1.87-2.54A2.52,2.52,0,0,0,127.8,242Z"/><path class="cls-2" d="M135.48,242c.62-1.58,1.66-2.71,3.36-2.71,2.16,0,3.07,1.51,3.07,3.74v6.58c0,.6.26.94.79.94H143v1.1a3.09,3.09,0,0,1-.86.14,1.74,1.74,0,0,1-1.68-1,3.21,3.21,0,0,1-2.5,1.08c-1.7,0-2.78-1.22-2.78-3.24,0-2.28,1.18-3.89,4.32-3.89h.72v-1.68c0-1.61-.53-2.3-1.56-2.3s-1.56.65-2,1.85Zm4.73,7.44V246h-.72c-2,0-2.69.91-2.69,2.47s.6,2,1.51,2A2.13,2.13,0,0,0,140.21,249.46Z"/><path class="cls-2" d="M149.38,242.41c-.36-1.27-1.06-1.7-2-1.7a1.5,1.5,0,0,0-1.63,1.68c0,2.69,4.8,2.16,4.8,6.12a3.13,3.13,0,0,1-3.19,3.36,3.29,3.29,0,0,1-3.36-2.69l1.18-.53c.41,1.42,1.27,1.9,2.14,1.9,1.06,0,1.63-.7,1.63-1.92,0-2.88-4.82-2.33-4.82-6.12a3,3,0,0,1,3.22-3.17,3.15,3.15,0,0,1,3.14,2.62Z"/><path class="cls-2" d="M157.32,242.41c-.36-1.27-1.06-1.7-2-1.7a1.5,1.5,0,0,0-1.63,1.68c0,2.69,4.8,2.16,4.8,6.12a3.13,3.13,0,0,1-3.19,3.36,3.29,3.29,0,0,1-3.36-2.69l1.18-.53c.41,1.42,1.27,1.9,2.14,1.9,1.06,0,1.63-.7,1.63-1.92,0-2.88-4.82-2.33-4.82-6.12a3,3,0,0,1,3.22-3.17,3.15,3.15,0,0,1,3.14,2.62Z"/><path class="cls-2" d="M162.29,240v11.64h-1.7V240Zm0-4v2.18h-1.61V236Z"/><path class="cls-2" d="M172.06,248c0,2.28-1.3,3.86-3.72,3.86s-3.67-1.56-3.67-3.86v-4.75c0-2.28,1.27-3.91,3.67-3.91s3.72,1.61,3.72,3.91Zm-5.69,0c0,1.61.65,2.5,2,2.5s2-.89,2-2.5v-4.66c0-1.61-.65-2.52-2-2.52s-2,.91-2,2.52Z"/><path class="cls-2" d="M176,251.67h-1.7V239.55h1.49l.07,1.06a3.35,3.35,0,0,1,2.71-1.27c2,0,3.1,1.44,3.1,4v8.33h-1.7v-8.3c0-1.7-.62-2.52-1.87-2.52A2.49,2.49,0,0,0,176,242Z"/><path class="cls-2" d="M192,242c.62-1.58,1.66-2.71,3.36-2.71,2.16,0,3.07,1.51,3.07,3.74v6.58c0,.6.26.94.79.94h.29v1.1a3.09,3.09,0,0,1-.86.14,1.74,1.74,0,0,1-1.68-1,3.21,3.21,0,0,1-2.5,1.08c-1.7,0-2.78-1.22-2.78-3.24,0-2.28,1.18-3.89,4.32-3.89h.72v-1.68c0-1.61-.53-2.3-1.56-2.3s-1.56.65-2,1.85Zm4.73,7.44V246H196c-2,0-2.69.91-2.69,2.47s.6,2,1.51,2A2.13,2.13,0,0,0,196.69,249.46Z"/><path class="cls-2" d="M202.71,251.67H201V239.55h1.49l.07,1.06a3.35,3.35,0,0,1,2.71-1.27c2,0,3.1,1.44,3.1,4v8.33h-1.7v-8.3c0-1.7-.62-2.52-1.87-2.52a2.49,2.49,0,0,0-2.09,1.13Z"/><path class="cls-2" d="M216.06,240.44V236h1.7v15.67h-1.49l-.1-1a3.31,3.31,0,0,1-2.71,1.22c-2,0-3.07-1.44-3.07-4v-4.51c0-2.54,1.1-4,3.14-4A3.28,3.28,0,0,1,216.06,240.44Zm0,1.51a2.44,2.44,0,0,0-2.06-1.08c-1.27,0-1.9.84-1.9,2.52v4.49c0,1.63.62,2.52,1.87,2.52a2.53,2.53,0,0,0,2.09-1.1Z"/><path class="cls-2" d="M230.44,240v11.64h-1.7V240Zm0-4v2.18h-1.61V236Z"/><path class="cls-2" d="M234.85,251.67h-1.7V239.55h1.49l.07,1.06a3.35,3.35,0,0,1,2.71-1.27c2,0,3.1,1.44,3.1,4v8.33h-1.7v-8.3c0-1.7-.62-2.52-1.87-2.52a2.49,2.49,0,0,0-2.09,1.13Z"/><path class="cls-2" d="M247.45,241.45H245v7.42c0,1.13.48,1.61,1.3,1.61a2.1,2.1,0,0,0,1-.24l.22,1.1a3,3,0,0,1-1.75.53c-1.66,0-2.45-1.06-2.45-3v-7.32l-1.32-.29v-1.18l1.42-.1.41-2.71H245V240h2.45Z"/><path class="cls-2" d="M250.72,245.65v2.26c0,1.66.72,2.52,2,2.52,1.06,0,1.66-.55,2.09-2.09l1.3.43c-.5,2.11-1.66,3.1-3.53,3.1-2.35,0-3.6-1.63-3.6-3.91v-4.7c0-2.28,1.25-3.91,3.58-3.91s3.5,1.7,3.5,4v2.33Zm0-1.2h3.84v-1.3c0-1.58-.7-2.4-1.92-2.4s-1.92.86-1.92,2.42Z"/><path class="cls-2" d="M263.17,241.33a1.65,1.65,0,0,0-1-.26c-1.34,0-2.18,1.18-2.35,3.36v7.25h-1.7V239.55h1.46l.1,2c.58-1.56,1.44-2.18,2.52-2.18a2.29,2.29,0,0,1,1.15.29Z"/><path class="cls-2" d="M266,245.65v2.26c0,1.66.72,2.52,2,2.52,1.06,0,1.66-.55,2.09-2.09l1.3.43c-.5,2.11-1.66,3.1-3.53,3.1-2.35,0-3.6-1.63-3.6-3.91v-4.7c0-2.28,1.25-3.91,3.58-3.91s3.5,1.7,3.5,4v2.33Zm0-1.2h3.84v-1.3c0-1.58-.7-2.4-1.92-2.4s-1.92.86-1.92,2.42Z"/><path class="cls-2" d="M278.32,242.41c-.36-1.27-1.06-1.7-2-1.7a1.5,1.5,0,0,0-1.63,1.68c0,2.69,4.8,2.16,4.8,6.12a3.13,3.13,0,0,1-3.19,3.36,3.29,3.29,0,0,1-3.36-2.69l1.18-.53c.41,1.42,1.27,1.9,2.14,1.9,1.06,0,1.63-.7,1.63-1.92,0-2.88-4.82-2.33-4.82-6.12a3,3,0,0,1,3.22-3.17,3.15,3.15,0,0,1,3.14,2.62Z"/><path class="cls-2" d="M286,241.45h-2.45v7.42c0,1.13.48,1.61,1.3,1.61a2.1,2.1,0,0,0,1-.24l.22,1.1a3,3,0,0,1-1.75.53c-1.66,0-2.45-1.06-2.45-3v-7.32l-1.32-.29v-1.18l1.42-.1.41-2.71h1.22V240H286Z"/><path class="cls-2" d="M297.93,240v11.64h-1.7V240Zm0-4v2.18h-1.61V236Z"/><path class="cls-2" d="M302.35,251.67h-1.7V239.55h1.49l.07,1.06a3.35,3.35,0,0,1,2.71-1.27c2,0,3.1,1.44,3.1,4v8.33h-1.7v-8.3c0-1.7-.62-2.52-1.87-2.52a2.49,2.49,0,0,0-2.09,1.13Z"/><path class="cls-2" d="M49.17,266c.62-1.58,1.66-2.71,3.36-2.71,2.16,0,3.07,1.51,3.07,3.74v6.58c0,.6.26.94.79.94h.29v1.1a3.09,3.09,0,0,1-.86.14,1.74,1.74,0,0,1-1.68-1,3.21,3.21,0,0,1-2.5,1.08c-1.7,0-2.78-1.22-2.78-3.24,0-2.28,1.18-3.89,4.32-3.89h.72v-1.68c0-1.61-.53-2.3-1.56-2.3s-1.56.65-2,1.85Zm4.73,7.44V270h-.72c-2,0-2.69.91-2.69,2.47s.6,2,1.51,2A2.13,2.13,0,0,0,53.9,273.46Z"/><path class="cls-2" d="M59.92,275.67h-1.7V263.55h1.49l.07,1.06a3.35,3.35,0,0,1,2.71-1.27c2,0,3.1,1.44,3.1,4v8.33h-1.7v-8.3c0-1.7-.62-2.52-1.87-2.52A2.49,2.49,0,0,0,59.92,266Z"/><path class="cls-2" d="M72.38,275.1c-.67,2.18-1.61,3.1-3.46,3.22L68.78,277c1.13-.17,1.68-.65,2.06-2l.07-.26-3.86-11.18H68.9l2.86,9,2.33-9h1.75Z"/><path class="cls-2" d="M86.25,265.42H83.78v10.25H82.1V265.42H80.8v-1.37h1.3v-.43c0-2.33,1.15-3.6,4-3.72l.1,1.27c-1.78.12-2.42.79-2.42,2.45v.43h2.52Z"/><path class="cls-2" d="M93.33,263.55H95v12.12H93.52l-.1-1a3.31,3.31,0,0,1-2.71,1.22c-1.94,0-3.07-1.44-3.07-4v-8.33h1.7v8.33c0,1.63.65,2.5,1.87,2.5a2.54,2.54,0,0,0,2.11-1.1Z"/><path class="cls-2" d="M102.14,265.45H99.69v7.42c0,1.13.48,1.61,1.3,1.61a2.1,2.1,0,0,0,1-.24l.22,1.1a3,3,0,0,1-1.75.53c-1.66,0-2.45-1.06-2.45-3v-7.32l-1.32-.29v-1.18l1.42-.1.41-2.71h1.22V264h2.45Z"/><path class="cls-2" d="M109.53,263.55h1.68v12.12h-1.49l-.1-1a3.31,3.31,0,0,1-2.71,1.22c-1.94,0-3.07-1.44-3.07-4v-8.33h1.7v8.33c0,1.63.65,2.5,1.87,2.5a2.54,2.54,0,0,0,2.11-1.1Z"/><path class="cls-2" d="M118.77,265.33a1.65,1.65,0,0,0-1-.26c-1.34,0-2.18,1.18-2.35,3.36v7.25h-1.7V263.55h1.46l.1,2c.58-1.56,1.44-2.18,2.52-2.18a2.29,2.29,0,0,1,1.15.29Z"/><path class="cls-2" d="M121.63,269.65v2.26c0,1.66.72,2.52,2,2.52,1.06,0,1.66-.55,2.09-2.09l1.3.43c-.5,2.11-1.66,3.1-3.53,3.1-2.35,0-3.6-1.63-3.6-3.91v-4.7c0-2.28,1.25-3.91,3.58-3.91s3.5,1.7,3.5,4v2.33Zm0-1.2h3.84v-1.3c0-1.58-.7-2.4-1.92-2.4s-1.92.86-1.92,2.42Z"/><path class="cls-2" d="M131.56,276.92c1.3-.22,1.94-1.06,1.94-3V264h1.7v9.86c0,2.83-1.25,4.25-3.5,4.44ZM135.14,260v2.18h-1.61V260Z"/><path class="cls-2" d="M144.66,272c0,2.28-1.3,3.86-3.72,3.86s-3.67-1.56-3.67-3.86v-4.75c0-2.28,1.27-3.91,3.67-3.91s3.72,1.61,3.72,3.91ZM139,272c0,1.61.65,2.5,2,2.5s2-.89,2-2.5v-4.66c0-1.61-.65-2.52-2-2.52s-2,.91-2,2.52Z"/><path class="cls-2" d="M148.53,274.62l-.12,1.06h-1.46V260h1.7v4.49a3.28,3.28,0,0,1,2.62-1.15c1.94,0,3,1.46,3,4v4.51c0,2.54-1.1,4-3.14,4A3.17,3.17,0,0,1,148.53,274.62Zm.12-1.42a2.28,2.28,0,0,0,2.06,1.18c1.27,0,1.9-.84,1.9-2.5v-4.49c0-1.68-.62-2.54-1.87-2.54a2.55,2.55,0,0,0-2.09,1.13Z"/><path class="cls-2" d="M161.37,266.41c-.36-1.27-1.06-1.7-2-1.7a1.5,1.5,0,0,0-1.63,1.68c0,2.69,4.8,2.16,4.8,6.12a3.13,3.13,0,0,1-3.19,3.36,3.29,3.29,0,0,1-3.36-2.69l1.18-.53c.41,1.42,1.27,1.9,2.14,1.9,1.06,0,1.63-.7,1.63-1.92,0-2.88-4.82-2.33-4.82-6.12a3,3,0,0,1,3.22-3.17A3.15,3.15,0,0,1,162.5,266Z"/><path class="cls-2" d="M164.49,273.85h1.66v1.37c0,1.54-.36,2.33-1.68,2.5l-.1-.82c.65-.17.84-.41.84-1.22h-.72Z"/><path class="cls-2" d="M172.79,266c.62-1.58,1.66-2.71,3.36-2.71,2.16,0,3.07,1.51,3.07,3.74v6.58c0,.6.26.94.79.94h.29v1.1a3.09,3.09,0,0,1-.86.14,1.74,1.74,0,0,1-1.68-1,3.21,3.21,0,0,1-2.5,1.08c-1.7,0-2.78-1.22-2.78-3.24,0-2.28,1.18-3.89,4.32-3.89h.72v-1.68c0-1.61-.53-2.3-1.56-2.3s-1.56.65-2,1.85Zm4.73,7.44V270h-.72c-2,0-2.69.91-2.69,2.47s.6,2,1.51,2A2.13,2.13,0,0,0,177.52,273.46Z"/><path class="cls-2" d="M183.54,275.67h-1.7V263.55h1.49l.07,1.06a3.35,3.35,0,0,1,2.71-1.27c2,0,3.1,1.44,3.1,4v8.33h-1.7v-8.3c0-1.7-.62-2.52-1.87-2.52a2.49,2.49,0,0,0-2.09,1.13Z"/><path class="cls-2" d="M196.89,264.44V260h1.7v15.67H197.1l-.1-1a3.31,3.31,0,0,1-2.71,1.22c-2,0-3.07-1.44-3.07-4v-4.51c0-2.54,1.1-4,3.14-4A3.28,3.28,0,0,1,196.89,264.44Zm0,1.51a2.44,2.44,0,0,0-2.06-1.08c-1.27,0-1.9.84-1.9,2.52v4.49c0,1.63.62,2.52,1.87,2.52a2.53,2.53,0,0,0,2.09-1.1Z"/><path class="cls-2" d="M209.92,275.1c-.67,2.18-1.61,3.1-3.46,3.22l-.14-1.32c1.13-.17,1.68-.65,2.06-2l.07-.26-3.86-11.18h1.85l2.86,9,2.33-9h1.75Z"/><path class="cls-2" d="M221.89,272c0,2.28-1.3,3.86-3.72,3.86s-3.67-1.56-3.67-3.86v-4.75c0-2.28,1.27-3.91,3.67-3.91s3.72,1.61,3.72,3.91Zm-5.69,0c0,1.61.65,2.5,2,2.5s2-.89,2-2.5v-4.66c0-1.61-.65-2.52-2-2.52s-2,.91-2,2.52Z"/><path class="cls-2" d="M229.6,263.55h1.68v12.12h-1.49l-.1-1a3.31,3.31,0,0,1-2.71,1.22c-1.94,0-3.07-1.44-3.07-4v-8.33h1.7v8.33c0,1.63.65,2.5,1.87,2.5a2.54,2.54,0,0,0,2.11-1.1Z"/><path class="cls-2" d="M244.93,275.67h-1.7v-8.33c0-1.9-.67-2.47-1.61-2.47a2,2,0,0,0-1.85,1.54v9.26h-1.7V263.55h1.49v1.25a2.89,2.89,0,0,1,2.5-1.46,2.41,2.41,0,0,1,2.4,1.68,3,3,0,0,1,2.66-1.68c1.82,0,3,1.22,3,4v8.33h-1.7v-8.33c0-1.63-.53-2.47-1.66-2.47s-1.78.7-1.78,2.47Z"/><path class="cls-2" d="M252.25,266c.62-1.58,1.66-2.71,3.36-2.71,2.16,0,3.07,1.51,3.07,3.74v6.58c0,.6.26.94.79.94h.29v1.1a3.09,3.09,0,0,1-.86.14,1.74,1.74,0,0,1-1.68-1,3.21,3.21,0,0,1-2.5,1.08c-1.7,0-2.78-1.22-2.78-3.24,0-2.28,1.18-3.89,4.32-3.89H257v-1.68c0-1.61-.53-2.3-1.56-2.3s-1.56.65-2,1.85Zm4.73,7.44V270h-.72c-2,0-2.69.91-2.69,2.47s.6,2,1.51,2A2.13,2.13,0,0,0,257,273.46Z"/><path class="cls-2" d="M265.43,275.1c-.67,2.18-1.61,3.1-3.46,3.22l-.14-1.32c1.13-.17,1.68-.65,2.06-2l.07-.26-3.86-11.18h1.85l2.86,9,2.33-9h1.75Z"/><path class="cls-2" d="M273,276.92c1.3-.22,1.94-1.06,1.94-3V264h1.7v9.86c0,2.83-1.25,4.25-3.5,4.44ZM276.61,260v2.18H275V260Z"/><path class="cls-2" d="M284.58,263.55h1.68v12.12h-1.49l-.1-1a3.31,3.31,0,0,1-2.71,1.22c-1.94,0-3.07-1.44-3.07-4v-8.33h1.7v8.33c0,1.63.65,2.5,1.87,2.5a2.54,2.54,0,0,0,2.11-1.1Z"/><path class="cls-2" d="M293.65,266.41c-.36-1.27-1.06-1.7-2-1.7a1.5,1.5,0,0,0-1.63,1.68c0,2.69,4.8,2.16,4.8,6.12a3.13,3.13,0,0,1-3.19,3.36,3.29,3.29,0,0,1-3.36-2.69l1.18-.53c.41,1.42,1.27,1.9,2.14,1.9,1.06,0,1.63-.7,1.63-1.92,0-2.88-4.82-2.33-4.82-6.12a3,3,0,0,1,3.22-3.17,3.15,3.15,0,0,1,3.14,2.62Z"/><path class="cls-2" d="M301.33,265.45h-2.45v7.42c0,1.13.48,1.61,1.3,1.61a2.1,2.1,0,0,0,1-.24l.22,1.1a3,3,0,0,1-1.75.53c-1.66,0-2.45-1.06-2.45-3v-7.32l-1.32-.29v-1.18l1.42-.1.41-2.71h1.22V264h2.45Z"/><path class="cls-2" d="M51.24,288v11.64h-1.7V288Zm0-4v2.18H49.58V284Z"/><path class="cls-2" d="M60.81,299.67h-1.7v-8.33c0-1.9-.67-2.47-1.61-2.47a2,2,0,0,0-1.85,1.54v9.26h-1.7V287.55h1.49v1.25a2.89,2.89,0,0,1,2.5-1.46,2.41,2.41,0,0,1,2.4,1.68A3,3,0,0,1,63,287.33c1.82,0,3,1.22,3,4v8.33h-1.7v-8.33c0-1.63-.53-2.47-1.66-2.47s-1.78.7-1.78,2.47Z"/><path class="cls-2" d="M70,298.78v3.46h-1.7V287.55h1.49l.1,1a3.33,3.33,0,0,1,2.71-1.25c2,0,3.07,1.49,3.07,4v4.51c0,2.54-1.13,4-3.14,4A3.2,3.2,0,0,1,70,298.78Zm0-1.46a2.43,2.43,0,0,0,2.06,1.08c1.27,0,1.9-.86,1.9-2.52v-4.49c0-1.7-.6-2.54-1.87-2.54A2.52,2.52,0,0,0,70,290Z"/><path class="cls-2" d="M82.92,289.33a1.65,1.65,0,0,0-1-.26c-1.34,0-2.18,1.18-2.35,3.36v7.25H77.9V287.55h1.46l.1,2C80,288,80.9,287.36,82,287.36a2.29,2.29,0,0,1,1.15.29Z"/><path class="cls-2" d="M85.77,293.65v2.26c0,1.66.72,2.52,2,2.52,1.06,0,1.66-.55,2.09-2.09l1.3.43c-.5,2.11-1.66,3.1-3.53,3.1-2.35,0-3.6-1.63-3.6-3.91v-4.7c0-2.28,1.25-3.91,3.58-3.91s3.5,1.7,3.5,4v2.33Zm0-1.2h3.84v-1.3c0-1.58-.7-2.4-1.92-2.4s-1.92.86-1.92,2.42Z"/><path class="cls-2" d="M98.06,290.41c-.36-1.27-1.06-1.7-2-1.7a1.5,1.5,0,0,0-1.63,1.68c0,2.69,4.8,2.16,4.8,6.12a3.13,3.13,0,0,1-3.19,3.36,3.29,3.29,0,0,1-3.36-2.69l1.18-.53c.41,1.42,1.27,1.9,2.14,1.9,1.06,0,1.63-.7,1.63-1.92,0-2.88-4.82-2.33-4.82-6.12A3,3,0,0,1,96,287.33,3.15,3.15,0,0,1,99.19,290Z"/><path class="cls-2" d="M106,290.41c-.36-1.27-1.06-1.7-2-1.7a1.5,1.5,0,0,0-1.63,1.68c0,2.69,4.8,2.16,4.8,6.12a3.13,3.13,0,0,1-3.19,3.36,3.29,3.29,0,0,1-3.36-2.69l1.18-.53c.41,1.42,1.27,1.9,2.14,1.9,1.06,0,1.63-.7,1.63-1.92,0-2.88-4.82-2.33-4.82-6.12a3,3,0,0,1,3.22-3.17,3.15,3.15,0,0,1,3.14,2.62Z"/><path class="cls-2" d="M121.57,289.45h-2.45v7.42c0,1.13.48,1.61,1.3,1.61a2.1,2.1,0,0,0,1-.24l.22,1.1a3,3,0,0,1-1.75.53c-1.66,0-2.45-1.06-2.45-3v-7.32l-1.32-.29v-1.18l1.42-.1.41-2.71h1.22V288h2.45Z"/><path class="cls-2" d="M125.24,299.67h-1.7V284h1.7v4.51a3.24,3.24,0,0,1,2.59-1.18c2,0,3.07,1.44,3.07,4v8.33h-1.7v-8.3c0-1.7-.62-2.52-1.87-2.52a2.54,2.54,0,0,0-2.09,1.13Z"/><path class="cls-2" d="M134.65,293.65v2.26c0,1.66.72,2.52,2,2.52,1.06,0,1.66-.55,2.09-2.09l1.3.43c-.5,2.11-1.66,3.1-3.53,3.1-2.35,0-3.6-1.63-3.6-3.91v-4.7c0-2.28,1.25-3.91,3.58-3.91s3.5,1.7,3.5,4v2.33Zm0-1.2h3.84v-1.3c0-1.58-.7-2.4-1.92-2.4s-1.92.86-1.92,2.42Z"/><path class="cls-2" d="M148.95,299.67h-1.7v-8.33c0-1.9-.67-2.47-1.61-2.47a2,2,0,0,0-1.85,1.54v9.26h-1.7V287.55h1.49v1.25a2.89,2.89,0,0,1,2.5-1.46,2.41,2.41,0,0,1,2.4,1.68,3,3,0,0,1,2.66-1.68c1.82,0,3,1.22,3,4v8.33h-1.7v-8.33c0-1.63-.53-2.47-1.66-2.47s-1.78.7-1.78,2.47Z"/><path class="cls-2" d="M165.71,293.65v2.26c0,1.66.72,2.52,2,2.52,1.06,0,1.66-.55,2.09-2.09l1.3.43c-.5,2.11-1.66,3.1-3.53,3.1-2.35,0-3.6-1.63-3.6-3.91v-4.7c0-2.28,1.25-3.91,3.58-3.91s3.5,1.7,3.5,4v2.33Zm0-1.2h3.84v-1.3c0-1.58-.7-2.4-1.92-2.4s-1.92.86-1.92,2.42Z"/><path class="cls-2" d="M174.85,299.67h-1.7V287.55h1.49l.07,1.06a3.35,3.35,0,0,1,2.71-1.27c2,0,3.1,1.44,3.1,4v8.33h-1.7v-8.3c0-1.7-.62-2.52-1.87-2.52a2.49,2.49,0,0,0-2.09,1.13Z"/><path class="cls-2" d="M189.93,296c0,2.28-1.3,3.86-3.72,3.86s-3.67-1.56-3.67-3.86v-4.75c0-2.28,1.27-3.91,3.67-3.91s3.72,1.61,3.72,3.91Zm-5.69,0c0,1.61.65,2.5,2,2.5s2-.89,2-2.5v-4.66c0-1.61-.65-2.52-2-2.52s-2,.91-2,2.52Z"/><path class="cls-2" d="M197.63,287.55h1.68v12.12h-1.49l-.1-1a3.31,3.31,0,0,1-2.71,1.22c-1.94,0-3.07-1.44-3.07-4v-8.33h1.7v8.33c0,1.63.65,2.5,1.87,2.5a2.54,2.54,0,0,0,2.11-1.1Z"/><path class="cls-2" d="M203.61,294.44a1.11,1.11,0,0,0-.72,1c0,.5.34.84,1.22.84h2.06c2.33,0,3.19,1,3.19,2.66,0,2.23-1.56,3.43-4.13,3.43s-3.58-1-3.58-2.66a2.76,2.76,0,0,1,.94-2.18,1.84,1.84,0,0,1-1.15-1.78,2.08,2.08,0,0,1,1.3-1.82,3.94,3.94,0,0,1-.89-2.88c0-2.59,1.06-3.67,3.38-3.67a4.05,4.05,0,0,1,2.06.46,3.05,3.05,0,0,0,1.27-1.39l.84.36a3.64,3.64,0,0,1-1.2,2,4.93,4.93,0,0,1,.43,2.23c0,2.52-1.06,3.67-3.41,3.67A4.15,4.15,0,0,1,203.61,294.44Zm.31,3.31a1.88,1.88,0,0,0-.79,1.75c0,1.1.79,1.58,2.18,1.58,2,0,2.52-.82,2.52-1.92s-.41-1.42-1.78-1.42Zm1.32-4.37c1.37,0,1.78-.5,1.78-2.3s-.5-2.35-1.78-2.35-1.75.5-1.75,2.35S203.92,293.38,205.24,293.38Z"/><path class="cls-2" d="M212.84,299.67h-1.7V284h1.7v4.51a3.24,3.24,0,0,1,2.59-1.18c2,0,3.07,1.44,3.07,4v8.33h-1.7v-8.3c0-1.7-.62-2.52-1.87-2.52a2.54,2.54,0,0,0-2.09,1.13Z"/><path class="cls-2" d="M233.35,289.45H230.9v7.42c0,1.13.48,1.61,1.3,1.61a2.1,2.1,0,0,0,1-.24l.22,1.1a3,3,0,0,1-1.75.53c-1.66,0-2.45-1.06-2.45-3v-7.32l-1.32-.29v-1.18l1.42-.1.41-2.71h1.22V288h2.45Z"/><path class="cls-2" d="M242.3,296c0,2.28-1.3,3.86-3.72,3.86s-3.67-1.56-3.67-3.86v-4.75c0-2.28,1.27-3.91,3.67-3.91s3.72,1.61,3.72,3.91Zm-5.69,0c0,1.61.65,2.5,2,2.5s2-.89,2-2.5v-4.66c0-1.61-.65-2.52-2-2.52s-2,.91-2,2.52Z"/><path class="cls-2" d="M259.26,299.67h-1.7v-8.33c0-1.9-.67-2.47-1.61-2.47a2,2,0,0,0-1.85,1.54v9.26h-1.7V287.55h1.49v1.25a2.89,2.89,0,0,1,2.5-1.46,2.41,2.41,0,0,1,2.4,1.68,3,3,0,0,1,2.66-1.68c1.82,0,3,1.22,3,4v8.33h-1.7v-8.33c0-1.63-.53-2.47-1.66-2.47s-1.78.7-1.78,2.47Z"/><path class="cls-2" d="M266.58,290c.62-1.58,1.66-2.71,3.36-2.71,2.16,0,3.07,1.51,3.07,3.74v6.58c0,.6.26.94.79.94h.29v1.1a3.09,3.09,0,0,1-.86.14,1.74,1.74,0,0,1-1.68-1,3.21,3.21,0,0,1-2.5,1.08c-1.7,0-2.78-1.22-2.78-3.24,0-2.28,1.18-3.89,4.32-3.89h.72v-1.68c0-1.61-.53-2.3-1.56-2.3s-1.56.65-2,1.85Zm4.73,7.44V294h-.72c-2,0-2.69.91-2.69,2.47s.6,2,1.51,2A2.13,2.13,0,0,0,271.3,297.46Z"/><path class="cls-2" d="M277.4,284v9.77l4-6.22h1.85l-3.41,5.21,3.82,6.91h-1.94l-3-5.69-1.34,1.75v3.94h-1.7V284Z"/><path class="cls-2" d="M286.18,293.65v2.26c0,1.66.72,2.52,2,2.52,1.06,0,1.66-.55,2.09-2.09l1.3.43c-.5,2.11-1.66,3.1-3.53,3.1-2.35,0-3.6-1.63-3.6-3.91v-4.7c0-2.28,1.25-3.91,3.58-3.91s3.5,1.7,3.5,4v2.33Zm0-1.2H290v-1.3c0-1.58-.7-2.4-1.92-2.4s-1.92.86-1.92,2.42Z"/><path class="cls-2" d="M301.31,290c.62-1.58,1.66-2.71,3.36-2.71,2.16,0,3.07,1.51,3.07,3.74v6.58c0,.6.26.94.79.94h.29v1.1a3.09,3.09,0,0,1-.86.14,1.74,1.74,0,0,1-1.68-1,3.21,3.21,0,0,1-2.5,1.08c-1.7,0-2.78-1.22-2.78-3.24,0-2.28,1.18-3.89,4.32-3.89H306v-1.68c0-1.61-.53-2.3-1.56-2.3s-1.56.65-2,1.85Zm4.73,7.44V294h-.72c-2,0-2.69.91-2.69,2.47s.6,2,1.51,2A2.13,2.13,0,0,0,306,297.46Z"/><path class="cls-2" d="M51.07,322.78v3.46h-1.7V311.55h1.49l.1,1a3.33,3.33,0,0,1,2.71-1.25c2,0,3.07,1.49,3.07,4v4.51c0,2.54-1.13,4-3.14,4A3.2,3.2,0,0,1,51.07,322.78Zm0-1.46a2.43,2.43,0,0,0,2.06,1.08c1.27,0,1.9-.86,1.9-2.52v-4.49c0-1.7-.6-2.54-1.87-2.54A2.52,2.52,0,0,0,51.07,314Z"/><path class="cls-2" d="M60.86,308v15.67h-1.7V308Z"/><path class="cls-2" d="M63.45,314c.62-1.58,1.66-2.71,3.36-2.71,2.16,0,3.07,1.51,3.07,3.74v6.58c0,.6.26.94.79.94H71v1.1a3.09,3.09,0,0,1-.86.14,1.74,1.74,0,0,1-1.68-1,3.21,3.21,0,0,1-2.5,1.08c-1.7,0-2.78-1.22-2.78-3.24,0-2.28,1.18-3.89,4.32-3.89h.72v-1.68c0-1.61-.53-2.3-1.56-2.3s-1.56.65-2,1.85Zm4.73,7.44V318h-.72c-2,0-2.69.91-2.69,2.47s.6,2,1.51,2A2.13,2.13,0,0,0,68.18,321.46Z"/><path class="cls-2" d="M77.73,314.58c-.34-1.25-1-1.78-1.94-1.78-1.22,0-1.92.79-1.92,2.5v4.61c0,1.7.7,2.52,1.92,2.52,1,0,1.61-.53,2-1.85L79,321a3.35,3.35,0,0,1-3.34,2.86c-2.35,0-3.53-1.7-3.53-3.89v-4.73c0-2.23,1.2-3.91,3.5-3.91A3.37,3.37,0,0,1,79,314.09Z"/><path class="cls-2" d="M82.08,317.65v2.26c0,1.66.72,2.52,2,2.52,1.06,0,1.66-.55,2.09-2.09l1.3.43c-.5,2.11-1.66,3.1-3.53,3.1-2.35,0-3.6-1.63-3.6-3.91v-4.7c0-2.28,1.25-3.91,3.58-3.91s3.5,1.7,3.5,4v2.33Zm0-1.2h3.84v-1.3c0-1.58-.7-2.4-1.92-2.4s-1.92.86-1.92,2.42Z"/><path class="cls-2" d="M98.28,313.42H95.8v10.25H94.12V313.42h-1.3v-1.37h1.3v-.43c0-2.33,1.15-3.6,4-3.72l.1,1.27c-1.78.12-2.42.79-2.42,2.45v.43h2.52Z"/><path class="cls-2" d="M106.92,320c0,2.28-1.3,3.86-3.72,3.86s-3.67-1.56-3.67-3.86v-4.75c0-2.28,1.27-3.91,3.67-3.91s3.72,1.61,3.72,3.91Zm-5.69,0c0,1.61.65,2.5,2,2.5s2-.89,2-2.5v-4.66c0-1.61-.65-2.52-2-2.52s-2,.91-2,2.52Z"/><path class="cls-2" d="M114.14,313.33a1.65,1.65,0,0,0-1-.26c-1.34,0-2.18,1.18-2.35,3.36v7.25h-1.7V311.55h1.46l.1,2c.58-1.56,1.44-2.18,2.52-2.18a2.29,2.29,0,0,1,1.15.29Z"/><path class="cls-2" d="M124.6,323.1c-.67,2.18-1.61,3.1-3.46,3.22L121,325c1.13-.17,1.68-.65,2.06-2l.07-.26-3.86-11.18h1.85l2.86,9,2.33-9h1.75Z"/><path class="cls-2" d="M136.58,320c0,2.28-1.3,3.86-3.72,3.86s-3.67-1.56-3.67-3.86v-4.75c0-2.28,1.27-3.91,3.67-3.91s3.72,1.61,3.72,3.91Zm-5.69,0c0,1.61.65,2.5,2,2.5s2-.89,2-2.5v-4.66c0-1.61-.65-2.52-2-2.52s-2,.91-2,2.52Z"/><path class="cls-2" d="M144.28,311.55H146v12.12h-1.49l-.1-1a3.31,3.31,0,0,1-2.71,1.22c-1.94,0-3.07-1.44-3.07-4v-8.33h1.7v8.33c0,1.63.65,2.5,1.87,2.5a2.54,2.54,0,0,0,2.11-1.1Z"/><path class="cls-2" d="M148.53,321.85h1.66v1.82h-1.66Z"/><path class="cls-1" d="M187.7,458.31a4.16,4.16,0,0,1-7.21,0l-17.92-31-17.92-31a4.16,4.16,0,0,1,3.6-6.24h71.66a4.16,4.16,0,0,1,3.6,6.24l-17.92,31Z"/><path class="cls-3" d="M117.84,539c9-4.63,8.86-10.37,11.77-10.06,1.73.19-2.25,7.05-10.68,11.39s-17.65-3.79-17.1-4.54C104,532.8,110.89,542.54,117.84,539Z"/><path class="cls-4" d="M133.76,522.58c-2.21-1.52-4.76,1-6.64,3.66-.7-1.21-1.67-2.15-3.15-1.79-2.19.54-.82,3.5-.12,5.33a5.71,5.71,0,0,0,.61,1.18c-.38,0-.66.05-.78.25-.37.59.81,2,2.64,3.17s3.62,1.63,4,1c.13-.21.07-.52-.15-.88a9.11,9.11,0,0,0,5.61-3.71C137.69,528.05,136.1,524.19,133.76,522.58Z"/><path class="cls-3" d="M88.7,625.26c-1.2-.15-3.65-.8-3.13-2.73,2-7.42,3.5-31.14,3.5-31.14,0-2-1.61-8.7,0-8.7l1.41,8.74c1.6,0,1.42,1.12,1.31,3.11-1.24,22.78.15,25.15.15,25.15C108.41,626.18,94.06,625.94,88.7,625.26Z"/><path class="cls-3" d="M105.48,623.39c-1.19-.22-3.41-.43-2.95-2.37,1.39-5.91-.27-27.55-.27-27.55-.16-2-.09-3.35,1.51-3.48l1.1-.37c1.6-.13-.16.85-.1,2.84.63,22.8,3.23,26.64,3.23,26.64C123.9,623.59,110.46,624.31,105.48,623.39Z"/><path class="cls-5" d="M114.09,481.2h0c-1.76-1.32-1.79-3.63-.81-5.6a47.07,47.07,0,0,1,8.89-12.77c1.32-1.76,3.17-.38,4.94.94h0c1.76,1.32,3.44,2.07,2.13,3.84,0,0-10.14,4.06-11.61,12.25C117.23,482,115.85,482.51,114.09,481.2Z"/><path class="cls-5" d="M120.7,605.35a11.24,11.24,0,0,1-3.07-5.54c-1.84-10.75-9.68-30.54-9.68-56.61,0-40.38,20.81-70.5,7-70.5s-43.6,27.71-43.6,68.1c0,34.07,19.79,59.13,34.27,66.12a93.08,93.08,0,0,1,7.72,5.35C115.46,614.33,123.12,607.59,120.7,605.35Z"/><path class="cls-6" d="M112.12,606.92c-13.72-.69-34.27-32.05-34.27-66.12,0-37,23.51-66.3,39.87-67.53a5.55,5.55,0,0,0-2.67-.57c-13.81,0-43.6,27.71-43.6,68.1,0,34.07,19.79,59.13,34.27,66.12a93.08,93.08,0,0,1,7.72,5.35c.94.92,3,.09,4.73-1.3C115.95,611.18,112.63,608.89,112.12,606.92Z"/><path class="cls-7" d="M127.1,463.77c-1.76-1.32-3.62-2.7-4.94-.94,0,0-.65.6-1.68,1.78a7.76,7.76,0,0,0,6.13,4.31,23,23,0,0,1,2.61-1.32C130.55,465.85,128.87,465.09,127.1,463.77Z"/><path class="cls-7" d="M120.8,605.35l-.32-.31c-1.43-.36-3.55.46-5.28,2.19a7,7,0,0,0-2.28,4.59c.21.17.39.32.52.44C115.56,614.33,123.23,607.59,120.8,605.35Z"/><circle class="cls-3" cx="90.16" cy="515.27" r="1.83"/><circle class="cls-3" cx="106.58" cy="518.17" r="1.83"/><path class="cls-3" d="M101.82,525.24c-.09.68-2.12,2.06-4.33,1.75s-3.78-2.18-3.69-2.87a5.59,5.59,0,0,0,8,1.12Z"/><path class="cls-3" d="M95.62,507.63c0,.3-1.22,0-2.73,0s-2.73.3-2.73,0,1.22-.54,2.73-.54S95.62,507.33,95.62,507.63Z"/><path class="cls-3" d="M105.54,509.38c-.12.28,1.1.47,2.45,1s2.34,1.32,2.45,1-.89-1-2.24-1.54S105.66,509.1,105.54,509.38Z"/><path class="cls-3" d="M70.74,551.54c-1,10.07.6,14.37-1.24,16.63-1.09,1.35-2.31-4.34-1.38-13.78s5.26-17.23,6.18-17.14C76.91,537.51,71.51,543.75,70.74,551.54Z"/><path class="cls-4" d="M77.14,565.06a7.08,7.08,0,0,0-2.82-2.18.48.48,0,0,0,.06-.22c0-.78-2.09-1.41-4.67-1.41s-4.67.63-4.67,1.41c0,.4.55.76,1.44,1a7.14,7.14,0,0,0-2.07,5.14c0,3.67,2.52,6.64,5.63,6.64,5.46,0,4.34-2.58,4.34-6.25,0-.4,0-.81,0-1.2,1.19,1.34,2.63,1.95,3.42,1.38S78.39,566.81,77.14,565.06Z"/><polygon class="cls-8" points="227.74 550.95 170.62 550.94 6.93 569.69 94.55 574.55 227.74 550.95"/><path class="cls-9" d="M229.8,623.2,91.58,663.08c-7.39,2.77-18.31-3.48-18.31-11.45V582.54a11.4,11.4,0,0,1,9.4-11.27L223,551.49c6.91-1.2,12.4-1,12.4,6.12l-1,53.81C234.35,616.22,234.24,621.54,229.8,623.2Z"/><rect class="cls-10" y="569.69" width="94.14" height="94.14" rx="14.18" ry="14.18"/><path class="cls-11" d="M115.14,597.64l6.08-1.16a6.34,6.34,0,0,1,2.85,0,3.57,3.57,0,0,1,1.78,1.14,5.06,5.06,0,0,1,1,2,10.49,10.49,0,0,1,.31,2.64,11,11,0,0,1-.47,3.56,7.62,7.62,0,0,1-1.3,2.34,5.66,5.66,0,0,1-1.8,1.5,10.18,10.18,0,0,1-2.4.9l-6.08,1.32Zm4.1,2.42v7.73l1-.21a4.59,4.59,0,0,0,1.8-.68,2.69,2.69,0,0,0,.83-1.23,7.71,7.71,0,0,0,.3-2.5,4.4,4.4,0,0,0-.67-2.92,2.38,2.38,0,0,0-2.25-.38Z"/><path class="cls-11" d="M129.95,608.69V594.82l6.44-1.23a8.15,8.15,0,0,1,2.69-.18,2.23,2.23,0,0,1,1.49,1,3.54,3.54,0,0,1,.56,2.09,4.69,4.69,0,0,1-.43,2,4.84,4.84,0,0,1-1.19,1.57,5.48,5.48,0,0,1-1.33.81,2.92,2.92,0,0,1,1,.3,3,3,0,0,1,.6.59,4.08,4.08,0,0,1,.53.74l1.81,3.55-4.25.92-2-3.75a2.38,2.38,0,0,0-.69-.91,1.32,1.32,0,0,0-.94-.12l-.34.07v5.59Zm3.9-9,1.62-.33a6.09,6.09,0,0,0,1-.39,1.32,1.32,0,0,0,.62-.55,1.59,1.59,0,0,0,.24-.84,1.1,1.1,0,0,0-.38-.94,1.93,1.93,0,0,0-1.42-.08l-1.69.33Z"/><path class="cls-11" d="M143.71,602l3.54-.74v3.73l-3.54.77Z"/><path class="cls-11" d="M154.86,590.08l6.56-1.25a2.77,2.77,0,0,1,2.47.46,2.71,2.71,0,0,1,.86,2.13,3.77,3.77,0,0,1-.61,2.09,3.63,3.63,0,0,1-1.2,1.11,2.37,2.37,0,0,1,1.76.8,3,3,0,0,1,.56,1.94,4.57,4.57,0,0,1-.4,1.89,4.4,4.4,0,0,1-1.09,1.51,4.11,4.11,0,0,1-1.3.71,14.88,14.88,0,0,1-1.55.51l-6.05,1.31Zm3.56,4.47,1.52-.3a1.9,1.9,0,0,0,1.13-.55,1.53,1.53,0,0,0,.32-1,1,1,0,0,0-.32-.83,1.37,1.37,0,0,0-1.11-.1l-1.54.3Zm0,5.15,1.78-.38a2.16,2.16,0,0,0,1.26-.64,1.63,1.63,0,0,0,.37-1.07,1,1,0,0,0-.36-.85,1.63,1.63,0,0,0-1.27-.09l-1.77.36Z"/><path class="cls-11" d="M174.2,597l-3.75.8-.53,2.23-3.43.74,4.09-13.68,3.61-.69,4,11.85-3.4.74Zm-.68-2.61-1.18-4.34-1.17,4.83Z"/><path class="cls-11" d="M179.71,585.35l3-.57,3.83,6.12v-6.85l2.92-.56v12.3l-2.92.63-3.81-6v6.85l-3,.65Z"/><path class="cls-11" d="M197.95,592l-3.39.72-.48,2.11-3.1.67,3.69-13,3.26-.62,3.58,11.3-3.08.67Zm-.62-2.48-1.06-4.14-1.06,4.58Z"/><path class="cls-11" d="M202.93,580.93l2.69-.51,3.47,5.86v-6.52l2.64-.5V591l-2.64.57-3.45-5.77v6.52l-2.71.59Z"/><path class="cls-11" d="M219.46,587.39l-3.08.65-.43,2-2.81.61,3.35-12.31,3-.56,3.25,10.8-2.8.61ZM218.9,585l-1-4-1,4.35Z"/><path class="cls-12" d="M171.73,548.41a1.08,1.08,0,0,1,.29-.65c0-.05.1-.1.06-.19a1.82,1.82,0,0,1,0-1.4,6.87,6.87,0,0,1,1.32-2.34,16.06,16.06,0,0,1,4.8-3.85,3.11,3.11,0,0,1,2.31-.28.78.78,0,0,1,.66.63c0,.09.07.06.12.06l1.11-.07c.33,0,.67,0,1,0,.72,0,1.44,0,2.15,0a10.54,10.54,0,0,1,2.49.31,2.21,2.21,0,0,1,.66.29.55.55,0,0,1,.23.3,14.2,14.2,0,0,0-1,1.15,19.89,19.89,0,0,0-1.79,2.51c-.58,1-1.06,2-1.58,2.94a8.14,8.14,0,0,1-1.86,2.43,3.22,3.22,0,0,1-2.14.83,11.5,11.5,0,0,1-1.48-.1,2.48,2.48,0,0,1-.64-.12c.36,0,.73.09,1.09.11a6.2,6.2,0,0,0,1.47,0,3.55,3.55,0,0,0,1.75-.93,7,7,0,0,0,1.32-1.71c.54-.92,1-1.87,1.55-2.78,0,0,0,0,0-.06l-.61.8c-.78,1-1.48,2.15-2.32,3.15a3.48,3.48,0,0,1-1.3,1,4.22,4.22,0,0,1-1.53.26,10.31,10.31,0,0,1-2.28-.26c-.9-.18-1.79-.41-2.68-.65a.37.37,0,0,0-.25,0c.05.05.13.05.17.11a1,1,0,0,1-.41-.12,12.89,12.89,0,0,1-2-.92C172.09,548.66,171.92,548.53,171.73,548.41Zm14.69-5.83h0a.7.7,0,0,0,.2-.39.56.56,0,0,0-.46-.82,8.35,8.35,0,0,0-1.79-.22c-.54,0-1.08,0-1.62,0a2.75,2.75,0,0,0-1.33.37,2.26,2.26,0,0,0-1,1,.39.39,0,0,0,.25.57,4.74,4.74,0,0,0,.77.2c.35.07.7.1,1,.15h.15a6.46,6.46,0,0,0,.86.07,4,4,0,0,1,.46,0,5.59,5.59,0,0,0,.9,0,1,1,0,0,0,.5-.11,1.91,1.91,0,0,0,1-.81S186.42,542.62,186.42,542.59Zm-14.27,4.3a1.21,1.21,0,0,0,.08.46,1,1,0,0,0,1,.73,2.77,2.77,0,0,0,1.14-.29,7.94,7.94,0,0,0,2.14-1.56,32.74,32.74,0,0,0,2.78-3,11.16,11.16,0,0,0,1.28-1.83,1,1,0,0,0,.16-.57c0-.08,0-.16-.1-.19s-.12,0-.17.09l-1.35,1.41-1.83,1.89c-.57.58-1.14,1.15-1.73,1.7a6.54,6.54,0,0,1-2.29,1.46.93.93,0,0,1-1.05-.27S172.19,546.89,172.15,546.89Zm7.85-2.47a.91.91,0,0,0-.62.19,3.8,3.8,0,0,0-.66.69.56.56,0,0,0-.16.41.08.08,0,0,1-.06.09,1.19,1.19,0,0,0-.59.43,2.64,2.64,0,0,0-.48.6,2.74,2.74,0,0,1-.36.45,3.3,3.3,0,0,0-.83,1,.46.46,0,0,0,.24.66,1.54,1.54,0,0,0,.95.12c.16,0,.29-.05.38.1a.22.22,0,0,0,.09.06,1.75,1.75,0,0,0,1.09.18.19.19,0,0,1,.21.07.65.65,0,0,0,.3.2,2.64,2.64,0,0,0,.66.14.88.88,0,0,0,.86-.34c.14-.2.29-.39.42-.59a.87.87,0,0,0,.11-.22.92.92,0,0,1,.32-.45,3.72,3.72,0,0,0,.66-.83.58.58,0,0,0,.13-.43c0-.07,0-.1.08-.12a.89.89,0,0,0,.38-.28,7.47,7.47,0,0,0,.57-.78.48.48,0,0,0-.3-.76,1.47,1.47,0,0,0-.94,0,.15.15,0,0,1-.17,0,1.24,1.24,0,0,0-1-.24.49.49,0,0,1-.45-.09A1.24,1.24,0,0,0,180,544.42Zm-7.9,2,0,0,.09-.14a15.48,15.48,0,0,1,1.92-2.5,16.85,16.85,0,0,1,3.22-2.69,11.33,11.33,0,0,1,2.37-1.2,1.36,1.36,0,0,0,.35-.12H180a3.86,3.86,0,0,0-2,.48,17.05,17.05,0,0,0-4.32,3.47,7.72,7.72,0,0,0-1.25,1.85A4,4,0,0,0,172.1,546.45Z"/><path class="cls-13" d="M171.73,548.41c.18.12.36.25.55.36a12.89,12.89,0,0,0,2,.92,1,1,0,0,0,.41.12h0a.27.27,0,0,0,.25.09h0s.06,0,.09,0h0s0,0,.07,0,.1,0,.15,0a20.18,20.18,0,0,0,2.88.76c.06.06.13,0,.2,0h0a2.48,2.48,0,0,0,.64.12,11.5,11.5,0,0,0,1.48.1,3.22,3.22,0,0,0,2.14-.83,8.14,8.14,0,0,0,1.86-2.43c.52-1,1-2,1.58-2.94a19.89,19.89,0,0,1,1.79-2.51,14.2,14.2,0,0,1,1-1.15,2.79,2.79,0,0,1,.24.89,10.46,10.46,0,0,1,.13,1.55,4,4,0,0,1-.55,2,41.61,41.61,0,0,1-3.23,5.31,14.19,14.19,0,0,1-1.87,1.52,19.05,19.05,0,0,1-10.38-1,8.93,8.93,0,0,1-.93-.7,4.06,4.06,0,0,1-.52-1.35A2.7,2.7,0,0,1,171.73,548.41Z"/><path class="cls-13" d="M172.15,546.89s.06,0,.08.06a.93.93,0,0,0,1.05.27,6.54,6.54,0,0,0,2.29-1.46c.6-.55,1.17-1.12,1.73-1.7l1.83-1.89,1.35-1.41s.08-.12.17-.09.09.11.1.19a1,1,0,0,1-.16.57,11.16,11.16,0,0,1-1.28,1.83,32.74,32.74,0,0,1-2.78,3,7.94,7.94,0,0,1-2.14,1.56,2.77,2.77,0,0,1-1.14.29,1,1,0,0,1-1-.73A1.21,1.21,0,0,1,172.15,546.89Z"/><path class="cls-14" d="M182.67,543.51h-.15c0-.07-.1-.05-.16-.06a6,6,0,0,1-1-.17c-.37-.1-.45-.32-.25-.65a2.25,2.25,0,0,1,.72-.7,2.44,2.44,0,0,1,1.32-.3,13.36,13.36,0,0,1,2.14.13,4.23,4.23,0,0,1,.86.19.37.37,0,0,1,.25.51l0,.13h0s0,0,0,.06a1.91,1.91,0,0,1-1,.81l-.45.06a12.84,12.84,0,0,1-1.7,0A2.34,2.34,0,0,0,182.67,543.51Z"/><path class="cls-13" d="M180,544.42a1.24,1.24,0,0,1,.78.18.49.49,0,0,0,.45.09,1.24,1.24,0,0,1,1,.24.15.15,0,0,0,.17,0,1.47,1.47,0,0,1,.94,0,.48.48,0,0,1,.3.76,7.47,7.47,0,0,1-.57.78.89.89,0,0,1-.38.28c-.06,0-.09.05-.08.12a.58.58,0,0,1-.13.43,3.72,3.72,0,0,1-.66.83.92.92,0,0,0-.32.45.87.87,0,0,1-.11.22c-.13.2-.28.39-.42.59a.88.88,0,0,1-.86.34,2.64,2.64,0,0,1-.66-.14.65.65,0,0,1-.3-.2.19.19,0,0,0-.21-.07,1.75,1.75,0,0,1-1.09-.18.22.22,0,0,1-.09-.06c-.1-.16-.22-.14-.38-.1a1.54,1.54,0,0,1-.95-.12.46.46,0,0,1-.24-.66,3.3,3.3,0,0,1,.83-1,2.74,2.74,0,0,0,.36-.45,2.64,2.64,0,0,1,.48-.6,1.19,1.19,0,0,1,.59-.43.08.08,0,0,0,.06-.09.56.56,0,0,1,.16-.41,3.8,3.8,0,0,1,.66-.69A.91.91,0,0,1,180,544.42Zm-1.44,4.6a.76.76,0,0,0,.65-.3l.44-.52c.15-.18.13-.33-.09-.43a1.49,1.49,0,0,0-.73-.16.76.76,0,0,0-.55.27l-.5.59a.23.23,0,0,0,.07.38A1.77,1.77,0,0,0,178.56,549Zm-1.55-.35a.81.81,0,0,0,.65-.24c.19-.21.38-.42.56-.64s.11-.3-.09-.39a1.63,1.63,0,0,0-.5-.13.81.81,0,0,0-.77.27c-.19.22-.37.44-.54.67a.2.2,0,0,0,.09.34A1.58,1.58,0,0,0,177,548.67Zm3.4-.68a.76.76,0,0,0-.62.21,6.2,6.2,0,0,0-.57.67.22.22,0,0,0,.08.36,1.42,1.42,0,0,0,.74.18.68.68,0,0,0,.51-.23l.52-.65a.22.22,0,0,0-.08-.38A1.65,1.65,0,0,0,180.4,548Zm-.68-.34a.76.76,0,0,0,.62-.29l.45-.59a.23.23,0,0,0-.09-.38,1.6,1.6,0,0,0-.53-.14.74.74,0,0,0-.68.22c-.19.2-.36.41-.52.63a.22.22,0,0,0,.09.37A2,2,0,0,0,179.73,547.64Zm1.3.34a.72.72,0,0,0,.62-.24,6.22,6.22,0,0,0,.52-.73c.1-.17.06-.29-.13-.37a1.81,1.81,0,0,0-.44-.1.73.73,0,0,0-.7.24,8.35,8.35,0,0,0-.52.69.22.22,0,0,0,.1.36A1.52,1.52,0,0,0,181,548Zm1.08-1.49a.73.73,0,0,0,.62-.25c.21-.25.39-.52.57-.78s.05-.27-.12-.34a1.52,1.52,0,0,0-.38-.07.82.82,0,0,0-.78.27,5.05,5.05,0,0,0-.54.73.22.22,0,0,0,.1.34A1.32,1.32,0,0,0,182.11,546.5Zm-3.41-.59a.81.81,0,0,0-.64.23c-.19.2-.36.41-.53.62a.21.21,0,0,0,.09.36,1.79,1.79,0,0,0,.69.15.74.74,0,0,0,.62-.29l.45-.55a.21.21,0,0,0-.08-.36A1.68,1.68,0,0,0,178.7,545.9Zm2,.32a.78.78,0,0,0,.73-.33c.11-.16.23-.31.35-.45.32-.4.14-.51-.23-.58a.93.93,0,0,0-.93.21,5.3,5.3,0,0,0-.54.67.22.22,0,0,0,.1.35A1.51,1.51,0,0,0,180.73,546.22Zm-.8-1.65a.87.87,0,0,0-.73.26c-.17.18-.33.38-.49.57s-.09.29.09.37a1.68,1.68,0,0,0,.51.13.77.77,0,0,0,.7-.22c.19-.21.35-.43.52-.65a.2.2,0,0,0-.09-.35A1.48,1.48,0,0,0,179.93,544.57Z"/><path class="cls-12" d="M178.17,550.77a20.18,20.18,0,0,1-2.88-.76s-.11,0-.15,0,0,0-.07,0h0s-.06,0-.09,0h0a.42.42,0,0,0-.25-.09h0c0-.06-.12-.06-.17-.11a.37.37,0,0,1,.25,0c.89.24,1.78.47,2.68.65a10.31,10.31,0,0,0,2.28.26,4.22,4.22,0,0,0,1.53-.26,3.48,3.48,0,0,0,1.3-1c.84-1,1.54-2.1,2.32-3.15l.61-.8s0,.05,0,.06c-.54.91-1,1.87-1.55,2.78a7,7,0,0,1-1.32,1.71,3.55,3.55,0,0,1-1.75.93,6.2,6.2,0,0,1-1.47,0c-.37,0-.73-.09-1.09-.11h0C178.3,550.75,178.23,550.78,178.17,550.77Z"/><path class="cls-12" d="M172.1,546.45a4,4,0,0,1,.31-.88,7.72,7.72,0,0,1,1.25-1.85,17.05,17.05,0,0,1,4.32-3.47,3.86,3.86,0,0,1,2-.48h.08a1.36,1.36,0,0,1-.35.12,11.33,11.33,0,0,0-2.37,1.2,16.85,16.85,0,0,0-3.22,2.69,15.48,15.48,0,0,0-1.92,2.5l-.09.14Z"/><path class="cls-13" d="M186.42,542.59l0-.13a.37.37,0,0,0-.25-.51,4.23,4.23,0,0,0-.86-.19,13.36,13.36,0,0,0-2.14-.13,2.44,2.44,0,0,0-1.32.3,2.25,2.25,0,0,0-.72.7c-.2.33-.12.55.25.65a6,6,0,0,0,1,.17c.06,0,.13,0,.16.06-.35-.05-.7-.08-1-.15a4.74,4.74,0,0,1-.77-.2.39.39,0,0,1-.25-.57,2.26,2.26,0,0,1,1-1,2.75,2.75,0,0,1,1.33-.37c.54,0,1.08,0,1.62,0a8.35,8.35,0,0,1,1.79.22.56.56,0,0,1,.46.82A.7.7,0,0,1,186.42,542.59Z"/><path class="cls-13" d="M182.67,543.51a2.34,2.34,0,0,1,.57,0,12.84,12.84,0,0,0,1.7,0l.45-.06a1,1,0,0,1-.5.11,5.59,5.59,0,0,1-.9,0,4,4,0,0,0-.46,0A6.46,6.46,0,0,1,182.67,543.51Z"/><path class="cls-12" d="M174.73,549.81a.42.42,0,0,1,.25.09A.27.27,0,0,1,174.73,549.81Z"/><path class="cls-12" d="M178.17,550.77c.07,0,.14,0,.2,0S178.22,550.82,178.17,550.77Z"/><path class="cls-12" d="M175,549.9s.07,0,.09,0S175,549.94,175,549.9Z"/><path class="cls-12" d="M175.07,549.93s.06,0,.07,0S175.08,550,175.07,549.93Z"/><path class="cls-12" d="M178.56,549a1.77,1.77,0,0,1-.71-.17.23.23,0,0,1-.07-.38l.5-.59a.76.76,0,0,1,.55-.27,1.49,1.49,0,0,1,.73.16c.21.1.24.25.09.43l-.44.52A.76.76,0,0,1,178.56,549Z"/><path class="cls-12" d="M177,548.67a1.58,1.58,0,0,1-.61-.13.2.2,0,0,1-.09-.34c.18-.23.35-.46.54-.67a.81.81,0,0,1,.77-.27,1.63,1.63,0,0,1,.5.13c.2.1.23.23.09.39s-.36.44-.56.64A.81.81,0,0,1,177,548.67Z"/><path class="cls-12" d="M180.4,548a1.65,1.65,0,0,1,.58.16.22.22,0,0,1,.08.38l-.52.65a.68.68,0,0,1-.51.23,1.42,1.42,0,0,1-.74-.18.22.22,0,0,1-.08-.36,6.2,6.2,0,0,1,.57-.67A.76.76,0,0,1,180.4,548Z"/><path class="cls-12" d="M179.73,547.64a2,2,0,0,1-.67-.18.22.22,0,0,1-.09-.37c.17-.22.34-.43.52-.63a.74.74,0,0,1,.68-.22,1.6,1.6,0,0,1,.53.14.23.23,0,0,1,.09.38l-.45.59A.76.76,0,0,1,179.73,547.64Z"/><path class="cls-12" d="M181,548a1.52,1.52,0,0,1-.55-.15.22.22,0,0,1-.1-.36,8.35,8.35,0,0,1,.52-.69.73.73,0,0,1,.7-.24,1.81,1.81,0,0,1,.44.1c.18.08.23.2.13.37a6.22,6.22,0,0,1-.52.73A.72.72,0,0,1,181,548Z"/><path class="cls-12" d="M182.11,546.5a1.32,1.32,0,0,1-.52-.11.22.22,0,0,1-.1-.34,5.05,5.05,0,0,1,.54-.73.82.82,0,0,1,.78-.27,1.52,1.52,0,0,1,.38.07c.17.07.22.19.12.34s-.37.53-.57.78A.73.73,0,0,1,182.11,546.5Z"/><path class="cls-12" d="M178.7,545.9a1.68,1.68,0,0,1,.6.15.21.21,0,0,1,.08.36l-.45.55a.74.74,0,0,1-.62.29,1.79,1.79,0,0,1-.69-.15.21.21,0,0,1-.09-.36c.17-.21.35-.42.53-.62A.81.81,0,0,1,178.7,545.9Z"/><path class="cls-12" d="M180.73,546.22a1.51,1.51,0,0,1-.53-.13.22.22,0,0,1-.1-.35,5.3,5.3,0,0,1,.54-.67.93.93,0,0,1,.93-.21c.37.08.55.18.23.58-.12.15-.24.3-.35.45A.78.78,0,0,1,180.73,546.22Z"/><path class="cls-12" d="M179.93,544.57a1.48,1.48,0,0,1,.51.12.2.2,0,0,1,.09.35c-.17.22-.34.44-.52.65a.77.77,0,0,1-.7.22,1.68,1.68,0,0,1-.51-.13c-.18-.08-.22-.21-.09-.37s.32-.39.49-.57A.87.87,0,0,1,179.93,544.57Z"/><path class="cls-15" d="M125.11,614.31l1.83-.43a2.22,2.22,0,0,1,.57-.06,1.09,1.09,0,0,1,.56.26,1.16,1.16,0,0,1,.39.55,2.35,2.35,0,0,1,.16.91,2.91,2.91,0,0,1-.39,1.44,1.84,1.84,0,0,1-1.18.94l-1.16.27v2.6l-.76.18Zm.76,2.93L127,617a1,1,0,0,0,.64-.5,1.63,1.63,0,0,0,.2-.78,1.5,1.5,0,0,0-.08-.55.56.56,0,0,0-.24-.27.68.68,0,0,0-.55-.06l-1.11.26Z"/><path class="cls-15" d="M129.38,613.31l.72-.17v2.42h0a1.45,1.45,0,0,1,.93-.78.87.87,0,0,1,.81.22,1.54,1.54,0,0,1,.38,1.14v3.15l-.72.17v-2.83a1,1,0,0,0-.2-.71.49.49,0,0,0-.51-.15.83.83,0,0,0-.51.39,1.44,1.44,0,0,0-.2.81v2.83l-.72.17Z"/><path class="cls-15" d="M133.33,618.09l.72-.17v.95l-.72.17Z"/><path class="cls-15" d="M135.12,612l1.76-.41a1.27,1.27,0,0,1,1.53.76,2,2,0,0,1,.23.73q0,.4,0,1.41a13.2,13.2,0,0,1-.06,1.51,2.43,2.43,0,0,1-.08.4q-.06.18-.14.38a2.92,2.92,0,0,1-.61.92,1.85,1.85,0,0,1-1,.55l-1.71.4Zm.76,5.53.91-.22a1.32,1.32,0,0,0,.93-.8,1.6,1.6,0,0,0,.16-.58q0-.33,0-1.22t0-1.24a1.09,1.09,0,0,0-.2-.56.74.74,0,0,0-.9-.35l-.91.21Z"/><path class="cls-15" d="M141.46,610.46l1.76-.41a1.27,1.27,0,0,1,1.53.76,2,2,0,0,1,.23.73q0,.4,0,1.41a13.2,13.2,0,0,1-.06,1.51,2.42,2.42,0,0,1-.08.4q-.06.18-.14.38a2.92,2.92,0,0,1-.61.92,1.85,1.85,0,0,1-1,.55l-1.71.4Zm.76,5.52.91-.21a1.32,1.32,0,0,0,.93-.8,1.6,1.6,0,0,0,.16-.58q0-.33,0-1.22t0-1.24a1.09,1.09,0,0,0-.2-.56.74.74,0,0,0-.9-.35l-.91.21Z"/><path class="cls-15" d="M146,609.4l.72-.17v.95l-.72.17Zm0,1.92.72-.17v4.73L146,616Z"/><path class="cls-15" d="M147.73,610.91l.72-.17v.5h0a1.45,1.45,0,0,1,.93-.78.82.82,0,0,1,.75.19l-.52.94a.53.53,0,0,0-.47-.13.8.8,0,0,0-.47.35,1.32,1.32,0,0,0-.23.81v2.85l-.72.17Z"/><path class="cls-15" d="M151,612.87a1.09,1.09,0,0,0,.25.81.59.59,0,0,0,.61.16,1.33,1.33,0,0,0,.78-.64l.52.47a2.09,2.09,0,0,1-1.28,1.07,1.37,1.37,0,0,1-.55,0,.93.93,0,0,1-.26-.1.91.91,0,0,1-.25-.15,1.5,1.5,0,0,1-.37-.65,3.42,3.42,0,0,1-.15-1.15,4.65,4.65,0,0,1,.13-1.2,2.87,2.87,0,0,1,.34-.83,1.84,1.84,0,0,1,.48-.51,1.49,1.49,0,0,1,.52-.24,1.05,1.05,0,0,1,1,.29,1.89,1.89,0,0,1,.44,1.36v.78Zm1.51-1.14a1.22,1.22,0,0,0-.22-.79.52.52,0,0,0-.53-.15.86.86,0,0,0-.53.4,1.83,1.83,0,0,0-.22.89Z"/><path class="cls-15" d="M156.68,612.76a3,3,0,0,1-.55.71,1.62,1.62,0,0,1-.73.41,1.13,1.13,0,0,1-1.11-.31,2.35,2.35,0,0,1-.51-1.73,3.46,3.46,0,0,1,.51-2,1.86,1.86,0,0,1,1.11-.82,1.15,1.15,0,0,1,.73.05,1.45,1.45,0,0,1,.55.47l-.53.75a.66.66,0,0,0-.72-.33q-.91.2-.93,1.7t.93,1.25a1.14,1.14,0,0,0,.72-.66Z"/><path class="cls-15" d="M157.32,607.21,158,607v1.44l.52-.12v.73l-.52.12V612q0,.36.25.29l.27-.06v.89l-.37.09a.6.6,0,0,1-.62-.16,1.07,1.07,0,0,1-.25-.8v-2.83l-.36.08v-.73l.36-.08Z"/><path class="cls-15" d="M159.12,610.58a5.75,5.75,0,0,1,.09-1.17,2.36,2.36,0,0,1,.29-.73,2.09,2.09,0,0,1,.41-.52,1.54,1.54,0,0,1,.67-.34,1.11,1.11,0,0,1,.68,0,1,1,0,0,1,.4.33,1.25,1.25,0,0,1,.3.59,5.55,5.55,0,0,1,.09,1.13A6,6,0,0,1,162,611a2.3,2.3,0,0,1-.3.75,1.85,1.85,0,0,1-.17.24,1.14,1.14,0,0,1-.23.25,1.47,1.47,0,0,1-.68.37,1,1,0,0,1-.67,0,1,1,0,0,1-.41-.3,1.55,1.55,0,0,1-.29-.61A5,5,0,0,1,159.12,610.58Zm2.22-.51a5.47,5.47,0,0,0,0-.73.81.81,0,0,0-.14-.36.42.42,0,0,0-.23-.2.55.55,0,0,0-.34,0,.8.8,0,0,0-.34.18,1,1,0,0,0-.24.31,1.61,1.61,0,0,0-.13.42,4.86,4.86,0,0,0,0,.74,4.33,4.33,0,0,0,0,.71,1.15,1.15,0,0,0,.13.38.68.68,0,0,0,.24.19.54.54,0,0,0,.34,0,.76.76,0,0,0,.34-.18,1.06,1.06,0,0,0,.23-.3,1.37,1.37,0,0,0,.14-.44A5.51,5.51,0,0,0,161.33,610.07Z"/><path class="cls-15" d="M162.92,607.33l.71-.17v.5h0a1.44,1.44,0,0,1,.92-.78.82.82,0,0,1,.75.19l-.52.94a.53.53,0,0,0-.47-.13.79.79,0,0,0-.47.35,1.32,1.32,0,0,0-.23.8v2.85l-.71.17Z"/><path class="cls-15" d="M167.29,608.65a5.75,5.75,0,0,1,.09-1.17,2.36,2.36,0,0,1,.29-.73,2.08,2.08,0,0,1,.41-.52,1.54,1.54,0,0,1,.67-.34,1.11,1.11,0,0,1,.68,0,1,1,0,0,1,.4.33,1.25,1.25,0,0,1,.3.59,5.55,5.55,0,0,1,.08,1.13,6,6,0,0,1-.09,1.16,2.3,2.3,0,0,1-.3.75,1.85,1.85,0,0,1-.17.24,1.14,1.14,0,0,1-.23.25,1.46,1.46,0,0,1-.68.36,1,1,0,0,1-.67,0,1,1,0,0,1-.41-.3,1.55,1.55,0,0,1-.29-.61A5,5,0,0,1,167.29,608.65Zm2.21-.51a5.47,5.47,0,0,0,0-.73.81.81,0,0,0-.14-.36.42.42,0,0,0-.23-.2.55.55,0,0,0-.34,0,.79.79,0,0,0-.34.17,1,1,0,0,0-.24.31,1.61,1.61,0,0,0-.13.42,4.86,4.86,0,0,0,0,.74,4.33,4.33,0,0,0,0,.71,1.15,1.15,0,0,0,.13.38.68.68,0,0,0,.24.19.54.54,0,0,0,.34,0,.76.76,0,0,0,.34-.18,1.06,1.06,0,0,0,.23-.3,1.37,1.37,0,0,0,.14-.44A5.51,5.51,0,0,0,169.5,608.14Z"/><path class="cls-15" d="M171.2,606.1l-.36.08v-.73l.36-.08v-.62a1.76,1.76,0,0,1,.28-1.06,1.19,1.19,0,0,1,.69-.46l.46-.11V604l-.41.1q-.32.06-.31.47v.63l.72-.17v.73l-.72.17v4l-.71.17Z"/><path class="cls-15" d="M174.88,602.6l3.18-.75v.94l-2.42.57v2l2.07-.49v.89l-2.07.49V609l-.75.18Z"/><path class="cls-15" d="M178.56,603.64l.71-.17v.5h0a1.43,1.43,0,0,1,.92-.77.81.81,0,0,1,.74.19l-.52.94a.52.52,0,0,0-.47-.13.79.79,0,0,0-.47.35,1.32,1.32,0,0,0-.23.8v2.84l-.71.17Z"/><path class="cls-15" d="M181.28,603l.71-.17v2.81a1,1,0,0,0,.2.7.48.48,0,0,0,.5.15.8.8,0,0,0,.5-.39,1.46,1.46,0,0,0,.2-.79V602.5l.71-.17V607l-.71.17v-.5h0a1.43,1.43,0,0,1-.92.77.84.84,0,0,1-.79-.24,1.39,1.39,0,0,1-.39-1.11Z"/><path class="cls-15" d="M185.17,600.18l.71-.17V601l-.71.17Zm0,1.9.71-.17v4.71l-.71.17Z"/><path class="cls-15" d="M186.92,600.24l.71-.17v1.43l.52-.12v.73l-.52.12V605q0,.36.25.29l.27-.06v.89l-.37.09a.6.6,0,0,1-.61-.16,1.07,1.07,0,0,1-.24-.79V602.4l-.36.08v-.73l.36-.08Z"/><path class="cls-15" d="M190.72,603.88a1.53,1.53,0,0,0,1.41.33,1.13,1.13,0,0,0,1-1.15q0-.74-.65-.74l-.66,0a1.15,1.15,0,0,1-1-.4,1.76,1.76,0,0,1-.34-1.14,2.59,2.59,0,0,1,.43-1.5,1.93,1.93,0,0,1,1.18-.81,2,2,0,0,1,1.6.3l-.42.92a1.58,1.58,0,0,0-1.23-.22,1,1,0,0,0-.58.37,1.22,1.22,0,0,0-.25.78.7.7,0,0,0,.17.48.67.67,0,0,0,.53.2l.56,0a1.1,1.1,0,0,1,1,.42,1.91,1.91,0,0,1,.33,1.16,2.19,2.19,0,0,1-1.74,2.33,2,2,0,0,1-1.89-.45Z"/><path class="cls-15" d="M197.31,603.17a3,3,0,0,1-.54.7,1.59,1.59,0,0,1-.72.41,1.12,1.12,0,0,1-1.09-.31,2.35,2.35,0,0,1-.5-1.72,3.46,3.46,0,0,1,.5-2,1.84,1.84,0,0,1,1.1-.81,1.13,1.13,0,0,1,.72.06,1.44,1.44,0,0,1,.54.46l-.52.74a.65.65,0,0,0-.72-.33q-.9.19-.92,1.69t.92,1.24a1.13,1.13,0,0,0,.72-.66Z"/><path class="cls-15" d="M197.92,597.18l.71-.17V598l-.71.17Zm0,1.9.71-.17v4.7l-.71.17Z"/><path class="cls-15" d="M200.15,601.26a1.09,1.09,0,0,0,.24.8.58.58,0,0,0,.6.16,1.31,1.31,0,0,0,.77-.64l.51.46a2.06,2.06,0,0,1-1.27,1.06,1.34,1.34,0,0,1-.54,0,.92.92,0,0,1-.26-.1.9.9,0,0,1-.25-.15,1.49,1.49,0,0,1-.36-.65,3.42,3.42,0,0,1-.15-1.14,4.64,4.64,0,0,1,.13-1.19,2.86,2.86,0,0,1,.34-.82,1.82,1.82,0,0,1,.47-.51,1.46,1.46,0,0,1,.51-.24,1,1,0,0,1,1,.29,1.89,1.89,0,0,1,.43,1.36v.78Zm1.49-1.13a1.22,1.22,0,0,0-.22-.78.51.51,0,0,0-.52-.14.85.85,0,0,0-.52.39,1.83,1.83,0,0,0-.22.88Z"/><path class="cls-15" d="M203.2,597.84l.71-.17v.5h0a1.42,1.42,0,0,1,.91-.77.85.85,0,0,1,.8.22,1.54,1.54,0,0,1,.38,1.13v3.12l-.71.17v-2.8a1,1,0,0,0-.2-.71.47.47,0,0,0-.5-.14.81.81,0,0,0-.5.38,1.44,1.44,0,0,0-.2.8v2.8l-.71.17Z"/><path class="cls-15" d="M209.63,600.26a3,3,0,0,1-.54.7,1.58,1.58,0,0,1-.72.41,1.11,1.11,0,0,1-1.09-.31,2.35,2.35,0,0,1-.5-1.71,3.45,3.45,0,0,1,.5-2,1.83,1.83,0,0,1,1.09-.81,1.13,1.13,0,0,1,.72.06,1.43,1.43,0,0,1,.54.46l-.52.74a.65.65,0,0,0-.71-.33q-.9.19-.91,1.68t.91,1.24a1.13,1.13,0,0,0,.71-.66Z"/><path class="cls-15" d="M210.75,598.77a1.09,1.09,0,0,0,.24.8.57.57,0,0,0,.59.16,1.3,1.3,0,0,0,.77-.64l.51.46a2.05,2.05,0,0,1-1.26,1.06,1.34,1.34,0,0,1-.54,0,.92.92,0,0,1-.26-.1.9.9,0,0,1-.25-.15,1.49,1.49,0,0,1-.36-.65,3.42,3.42,0,0,1-.15-1.14,4.64,4.64,0,0,1,.13-1.19,2.85,2.85,0,0,1,.34-.82,1.81,1.81,0,0,1,.47-.51,1.46,1.46,0,0,1,.51-.24,1,1,0,0,1,1,.29,1.89,1.89,0,0,1,.43,1.35v.78Zm1.48-1.13a1.22,1.22,0,0,0-.22-.78.5.5,0,0,0-.52-.14.84.84,0,0,0-.52.39,1.82,1.82,0,0,0-.22.88Z"/><path class="cls-15" d="M213.89,598.58a1,1,0,0,0,1.11.34,1,1,0,0,0,.5-.28.69.69,0,0,0,.19-.49q0-.25-.11-.33a.42.42,0,0,0-.31,0l-.62.07a.83.83,0,0,1-.72-.23,1.16,1.16,0,0,1-.29-.87,1.8,1.8,0,0,1,.38-1.17,1.65,1.65,0,0,1,.93-.58,2.17,2.17,0,0,1,.44-.06,1.52,1.52,0,0,1,.36,0,1.49,1.49,0,0,1,.58.34l-.44.78a1.54,1.54,0,0,0-.43-.22,1,1,0,0,0-.51,0,.75.75,0,0,0-.46.27.73.73,0,0,0-.14.44.29.29,0,0,0,.1.25.42.42,0,0,0,.36.08l.58-.08a.78.78,0,0,1,.79.26,1.58,1.58,0,0,1,.23.91,1.71,1.71,0,0,1-.42,1.15,1.94,1.94,0,0,1-1,.63,1.57,1.57,0,0,1-1.54-.48Z"/><rect class="cls-16" x="196.26" y="523.63" width="3.02" height="6.2"/><rect class="cls-17" x="193.41" y="523.63" width="3.02" height="6.2"/><polygon class="cls-18" points="214.52 526.27 177.35 526.49 180.63 495.92 210.33 495.92 214.52 526.27"/><polygon class="cls-19" points="196.67 553.39 189.07 552.65 188.96 528.93 196.67 528.93 196.67 553.39"/><polygon class="cls-17" points="203.76 552.16 196.67 553.39 196.67 528.93 203.76 528.85 203.76 552.16"/><polygon class="cls-20" points="165.45 557.76 138.91 561.93 107.6 559.55 139.5 556.27 165.45 557.76"/><polygon class="cls-2" points="130.26 563.42 101.04 563.42 111.77 558.95 136.22 559.25 130.26 563.42"/><path class="cls-21" d="M321.86,540.16c3.85-1.46-10.27,6.69-21.83,5.34s-22.55-6.15-22-10.45,3.15-6.28,14.62-4.27C303.85,532.77,314.5,543,321.86,540.16Z"/><polygon class="cls-21" points="285.1 544.91 283.2 544.82 282.95 539.78 285.48 540.23 285.1 544.91"/><path class="cls-3" d="M237.95,567c-7.06-4.8-9-11-10.73-8.9-.59.74,4.83,8.88,12.46,12.68,7.39,3.68,10.61,4.24,11.2,3.51C253,571.66,245,571.78,237.95,567Z"/><path class="cls-22" d="M222.65,557.55a5.89,5.89,0,0,1,6-6c2.19.12,2.93,1.77,4.47,4,.81-1.63,1.37-2.24,3-1.67.87.3,1,2,.25,3.75a10.32,10.32,0,0,1-1.51,2.5.82.82,0,0,1,.28.28c.46.79-.61,2.27-2.39,3.29s-3.59,1.21-4,.42a.93.93,0,0,1-.08-.67h0A5.91,5.91,0,0,1,222.65,557.55Z"/><path class="cls-3" d="M283,624.78a13.53,13.53,0,0,0,4.84-1.26c1-.72.44-4.62.37-5.64l-1-13.13c-.08-1-1.19-.75-2.58-.64h0c-.51,2.63-.07,14.58-1.14,15.32-4.15,2.87-9,5.18-5.15,5.46A20.33,20.33,0,0,0,283,624.78Z"/><path class="cls-3" d="M263.11,622.66a13.53,13.53,0,0,0,4.94-.79c1.09-.62.88-4.56.9-5.58l.28-13.17c0-1-1.12-.86-2.5-.89h0c-.76,2.57-1.46,14.51-2.59,15.14-4.4,2.46-9.41,4.31-5.64,4.95A20.33,20.33,0,0,0,263.11,622.66Z"/><ellipse class="cls-23" cx="278.75" cy="575.15" rx="34.25" ry="31.39"/><path class="cls-24" d="M274,602.29c18.27,0,33.09-13.81,33.09-30.84a30.07,30.07,0,0,0-12.46-24.12c10.93,5.24,18.4,15.74,18.4,27.83,0,17.34-15.33,31.39-34.25,31.39a35.3,35.3,0,0,1-27.53-12.72A34.29,34.29,0,0,0,274,602.29Z"/><circle class="cls-3" cx="288.4" cy="567.97" r="1.99" transform="translate(-294.49 824.9) rotate(-86.87)"/><path class="cls-25" d="M318.79,622.53l-8.89-3.79a2.57,2.57,0,0,0-.3.5l-.37.86a1.74,1.74,0,0,1-2.35.62l-9.72-4.15a1.74,1.74,0,0,1-1.17-2.12l.37-.86a2,2,0,0,0,.13-.57l-9.38-4a4.54,4.54,0,0,1-2.39-6l8.92-20.9a4.54,4.54,0,0,1,6-2.4l31.68,13.52a4.54,4.54,0,0,1,2.4,6l-8.92,20.9A4.54,4.54,0,0,1,318.79,622.53Z"/><path class="cls-26" d="M317.87,622.14,309,618.35a2.57,2.57,0,0,0-.3.5l-.37.86a1.74,1.74,0,0,1-2.35.62l-9.72-4.15a1.74,1.74,0,0,1-1.17-2.12l.37-.86a2,2,0,0,0,.13-.57l-9.38-4a4.54,4.54,0,0,1-2.39-6l8.92-20.9a4.54,4.54,0,0,1,6-2.4l31.68,13.52a4.54,4.54,0,0,1,2.4,6l-8.92,20.9A4.54,4.54,0,0,1,317.87,622.14Z"/><circle class="cls-3" cx="260.18" cy="565.06" r="1.99" transform="translate(-318.26 793.97) rotate(-86.87)"/><path class="cls-3" d="M285.42,557.06c-.12.35,1.82-.33,4,.37s3.27,2.26,3.39,1.91-1-1.85-3.18-2.55S285.54,556.71,285.42,557.06Z"/><path class="cls-3" d="M264.53,556c.06.37-1.7-.46-3.93-.12s-3.62,1.68-3.68,1.31,1.34-1.64,3.57-2S264.47,555.65,264.53,556Z"/><path class="cls-27" d="M265.72,574.87c.5,2,2.84,3.74,6.39,3.78s5.94-1.67,6.47-3.65c.64-2.45-.32-3.47-6.39-3.78C265.38,570.88,265.22,572.88,265.72,574.87Z"/><path class="cls-3" d="M312.2,591.7c.76,8.5-2.45,15.91.28,15.86.94,0,3.81-9.36,1.91-17.68-1.84-8-3.44-10.9-4.39-10.88C306.65,579.06,311.43,583.2,312.2,591.7Z"/><path class="cls-22" d="M306.23,601.12a7.1,7.1,0,0,1,3.45-1.7,1,1,0,0,1-.5-.8c.08-.83,2-1.32,4.37-1.1s4.17,1.07,4.09,1.9c0,.36-.43.66-1.07.87,1.36.89,2.32,2.6,1.57,6.1s-4.59,4.07-7.51,3.51-3.61-2.06-3.14-5.05a1.94,1.94,0,0,1-2.17-.11C304.58,604,305,602.37,306.23,601.12Z"/></g></g></svg>