<svg xmlns="http://www.w3.org/2000/svg" viewBox="0 0 3496.44 1717.57"><defs><style>.cls-1{fill:#184a8e;}.cls-2{fill:#2d6cab;}.cls-3{fill:#1c5999;}.cls-4{fill:#16568a;}.cls-5{fill:#fff;}.cls-6{fill:#0f2647;}.cls-7{fill:#0b1e32;}.cls-8{fill:#09192d;}.cls-9{fill:#231f20;}.cls-10{fill:#bce5ee;}.cls-11{fill:#97d7e2;}.cls-12,.cls-16,.cls-29,.cls-36{fill:#e8ecee;stroke:#231f20;stroke-miterlimit:10;}.cls-12{stroke-width:1.93px;}.cls-13{fill:#f69799;}.cls-14{fill:#a97c50;}.cls-15{fill:#c49a6c;}.cls-16{stroke-width:2.42px;}.cls-17{fill:#dbaf83;}.cls-18{fill:#f7b3d0;}.cls-19{fill:#d1a378;}.cls-20{fill:#d1a479;}.cls-21{fill:#f6afce;}.cls-22{fill:#f392bd;}.cls-23{fill:#f6c6dc;}.cls-24{fill:#f6b2d0;}.cls-25{fill:#f7d135;}.cls-26{fill:#a57853;}.cls-27{fill:#875b3a;}.cls-28{fill:#b18766;}.cls-29{stroke-width:1.98px;}.cls-30{fill:#f7941d;}.cls-31{fill:#f36e24;}.cls-32{fill:#d35461;}.cls-33{fill:#191528;}.cls-34{fill:#fbb040;}.cls-35{fill:#241e38;}.cls-36{stroke-width:1.91px;}</style></defs><title>scene-background</title><g id="Layer_2" data-name="Layer 2"><g id="Layer_2-2" data-name="Layer 2"><rect class="cls-1" x="2.73" width="3493.71" height="1717.21"/></g><g id="Layer_18" data-name="Layer 18"><path class="cls-2" d="M1435.91,776.1l-61.72,16.47c-1.23-1.16-2.7-2.48-4.09-3.88q-41.41-41.7-82.74-83.47c-2.78-2.83-5.17-3.65-9.09-2.56-20.39,5.67-40.88,11-61.33,16.47l-5.82,1.55,157.22,158-61.88,16.51L1171.74,760.09l-31.49,117.5-45.46-45.92,22.91-85.6c-2.25.41-3.8.59-5.29,1-14.77,3.91-29.49,8-44.31,11.71-3.94,1-5.6,2.92-6.62,6.76q-21.85,82.69-44,165.3-8.25,30.92-16.51,61.84c-.61,2.3-1.13,4.62-1.71,7l40,40.08c.79-2.64,1.4-4.51,1.91-6.41,6.54-24.71,13.16-49.4,19.5-74.16,1-3.89,2.76-5.72,6.66-6.72,16.94-4.32,33.8-9,50.69-13.51l6.31-1.68-31,116.9c2.37-.45,3.93-.65,5.45-1,16.92-4.4,33.84-8.79,50.74-13.27q61.11-16.2,122.18-32.57c4.28-1.16,7-.5,10.09,2.72,12,12.47,24.26,24.64,36.42,36.93,1.14,1.15,2.2,2.38,4,4.33-14.57,4.52-28.81,7.68-42.84,11.54-14.2,3.9-28.45,7.62-42.67,11.41l-42.68,11.39L1151.27,1097l-43.58,11.63,52.93,53.34,124.08-33.12,44.88,45.32c-41.42,11.65-82.16,21.88-123.58,33.39l55.34,55.77-39.15,39.32c-18.64-18.26-36.53-36.86-55.61-55.62l-33.23,123.89c-1.56-1.34-2.59-2.1-3.48-3-12.87-12.88-25.64-25.86-38.63-38.62-2.59-2.55-3.11-4.73-2.17-8.22,10.27-37.8,20.27-75.68,30.61-113.46,1.28-4.69.6-7.63-2.91-11.07-14.87-14.52-29.39-29.39-44.06-44.11-1.26-1.27-2.64-2.42-4.51-4.12l-57.32,215.31c-15.67-15.06-30.21-30.21-45.4-45.26l48.9-184.43c-7.13.88-13.26,3.18-19.55,4.74s-12.81,3.39-19.21,5.1L955.88,1149l-19.21,5.12-19.22,5.09-19.75,5.27c.52-2.55.79-4.3,1.25-6,4.63-17.23,9.43-34.42,13.86-51.7,1-3.8,2.9-5.27,6.49-6.2,25.47-6.62,50.9-13.43,76.33-20.2,1.05-.28,2.07-.67,3.56-1.16a29.87,29.87,0,0,0-2.35-3.14c-11.78-11.89-23.62-23.72-35.35-35.66-1.9-1.94-3.74-2.8-6.32-1.75a22.69,22.69,0,0,1-2.66.73q-112.3,30-224.64,59.84c-4.47,1.18-6.68,3.06-7.8,7.66-3.51,14.48-7.55,28.82-11.37,43.22-.55,2.08-1,4.19-1.67,7l85.18-22.73,45.73,45.79L720.84,1211.5c15.42,15.92,30.37,30.72,45.15,45.68s29.78,30,44.67,45.06l45,45.4L839,1409.7,681.69,1251.29l-19.3,72.53,90.79,91.32-16.6,62-90.82-91L625.45,1462l-53.63-14.54,20.17-75.8c-11.17,2.27-21.14,5.35-31.21,8-10.33,2.68-20.63,5.49-30.95,8.24L499.42,1396l-31,8.27c.49-2.56.7-4.15,1.11-5.69,4.57-17.24,9.31-34.45,13.65-51.75.92-3.68,2.81-5,6.16-5.83,37.73-9.94,75.41-20.09,113.17-29.93,4.48-1.17,6.69-3.06,7.84-7.62,5.14-20.32,10.68-40.55,16.05-60.81.45-1.71.78-3.45,1.29-5.76l-213.42,57c-.39-4.16,11.31-50.44,15.69-62.09l183.62-49-85.35-86.05,62.14-16.58L653,1143.11l15.3-57.24L495.43,912.07l-57,15.2c2,2.09,3.63,3.78,5.27,5.43,17.91,18,35.78,36,53.81,53.87,2.55,2.52,3.27,4.62,2.29,8.17-4.81,17.37-9.29,34.83-13.89,52.26-.42,1.57-.92,3.12-1.62,5.45l-85.53-85.88c-4.66,15.73-8.43,30.94-12.54,46.05Q380,1035.8,373.78,1059q-6.16,22.91-12.3,45.83c-4.1,15.27-8.22,30.53-12.37,45.93l-61.69,16.46c4.5-18.43,9.6-36.19,14.28-54.06s9.48-35.54,14.24-53.3q7.21-26.91,14.44-53.82c4.73-17.68,9.45-35.37,14.36-53.73l-72,19.22c-.52,1.67-1.17,3.57-1.69,5.5-10,37.68-20.15,75.34-30,113.06-1.06,4.07-2.75,6.05-7,7.1-16.79,4.18-33.46,8.81-50.18,13.27l-6.34,1.69L210.49,988l-75.1,20L120.94,953.9l75.25-20.08-90.37-91.19,61.79-16.49c3.14,3.13,6.53,6.47,9.89,9.85q38.3,38.56,76.51,77.2c3,3,5.45,3.82,9.6,2.65,20-5.61,40.16-10.84,60.26-16.2l6.32-1.69c-10.49-11.23-21-21.32-31.27-31.69-10.47-10.6-21-21.12-31.53-31.68l-31.14-31.29q-15.76-15.84-31.53-31.67c-10.32-10.38-20.63-20.77-31.76-32l13.19-3.52c14.76-3.94,29.54-7.79,44.26-11.89,3.25-.9,5.33-.28,7.72,2.12q63.4,63.79,127,127.4c1.4,1.4,2.87,2.73,4.82,4.58L401.33,741l45.42,46-22.88,85.56c2.49-.49,4.22-.72,5.9-1.17,14.95-4,29.84-8.11,44.84-11.84,4.11-1,6-2.86,7.08-7,8.62-33.1,17.51-66.14,26.33-99.19q17.2-64.51,34.41-129c.33-1.24.58-2.49,1-4.19l-41.15-41.34-22.8,85.75L417.32,681.1,448.43,564l-6.35,1.69L330,595.32c-20.28,5.37-40.59,10.65-60.83,16.18-3.61,1-6,.53-8.69-2.28-12.26-12.71-24.79-25.15-37.2-37.7-1.13-1.14-2.15-2.37-3.7-4.1l213.89-57.09a46.59,46.59,0,0,0-3-3.81c-15.28-15.42-30.66-30.72-45.8-46.27-2.72-2.79-5-3.28-8.67-2.3-37.67,10.18-75.41,20.11-113.05,30.38-4.55,1.24-7.29.44-10.51-2.92-11.7-12.22-23.77-24.09-35.68-36.11-1.38-1.39-2.66-2.89-4.62-5l123.28-32.9c-6.26-7.26-12.6-13-18.51-19.09s-11.93-12-17.89-18S286.87,362,280.27,355.36c12.92-13.27,25.89-26.1,39.22-39.36L375,371.71l33.32-124.34,45.35,45.41q-4.27,16.08-8.51,32-11.74,44-23.56,87.94c-.85,3.14-.71,5.34,1.78,7.81,15.81,15.66,31.46,31.49,47.17,47.25.75.76,1.65,1.37,2.92,2.41l57.29-215.42,45.39,45.46L527.11,485c20-5,39-10.28,58.11-15.33s38.4-10.24,57.63-15.37c.58,4-9.49,43.75-15.72,62.3l-85.2,22.74c1.86,2,3.14,3.46,4.51,4.84,10.49,10.57,21.09,21,31.45,31.76,2.75,2.84,5.21,3.6,9.12,2.54q64-17.3,128-34.26c33.26-8.88,66.49-17.82,99.79-26.54,3.84-1,5.81-2.67,6.79-6.61,3.71-14.81,7.78-29.52,11.69-44.28.41-1.55.71-3.13,1.29-5.7l-6.32,1.69c-24.53,6.59-49.1,13.05-73.56,19.88-4.18,1.17-6.69.34-9.6-2.65-12.06-12.38-24.38-24.51-36.6-36.75-1.4-1.4-2.75-2.86-4.77-5,6.83-2.31,13.2-3.7,19.45-5.42s12.8-3.43,19.2-5.14l19.74-5.27,19.21-5.13,19.21-5.13,20.07-5.36L685.94,270.94l16.66-62L859.6,367c.68-2,1.26-3.47,1.67-5,5.57-20.79,11-41.61,16.74-62.34,1-3.69.36-6-2.34-8.68q-40.86-40.69-81.47-81.62a32.57,32.57,0,0,0-3.13-3.11c-2.46-1.87-2.5-4.09-1.72-6.84,2.7-9.56,5.22-19.16,7.81-28.75l7.89-29.23,90.64,90.94C903,207,909.09,182,916.25,156.68l53.52,14.52-19.92,74.89c2.6,1.12,4.62-.12,6.62-.65q55-14.53,109.94-29.17l7.1-1.89-16.44,61.86L933,309.36l-19.36,72.56c36.44-9.45,71.8-19.2,107.24-28.61s71-18.94,107.17-28.59c-.33,2.15-.42,3.56-.78,4.91-4.61,17.43-9.39,34.81-13.79,52.29-.92,3.65-2.79,5-6.15,5.89q-43.24,11.44-86.41,23.14-43.45,11.7-86.89,23.46L928.11,436c28.47,29.08,56.71,57.07,85.07,86-1.73.68-2.79,1.23-3.92,1.53-17.61,4.68-35.26,9.22-52.82,14.06-3.89,1.07-6.32.21-9.11-2.65-17.85-18.3-35.91-36.4-53.9-54.56-1.4-1.41-2.87-2.76-4.67-4.48-.66,2-1.21,3.55-1.62,5.09-3.95,14.75-7.79,29.52-11.85,44.24-.87,3.16-.55,5.34,1.9,7.8q84.9,85.2,169.65,170.56c.77.77,1.62,1.46,2.49,2.23l53.78-14.35c-20.94-21.38-41.85-41.92-62.53-62.93L1057.07,566l85.87,86.19,49.5-184.33,61.62-16.45c-4.39,18.38-9.48,36.09-14.18,53.89s-9.52,35.53-14.27,53.3q-7.2,26.92-14.39,53.84c-4.73,17.7-9.47,35.41-14.38,53.77l72.28-19.29,32.95-123.69,61.64-16.45c-1.66,8.58-4.2,16.53-6.24,24.58s-4.36,16.35-6.54,24.53q-3.34,12.53-6.66,25.06c-2.18,8.17-4.4,16.34-6.57,24.52s-4.25,16.22-6.61,25.25l75.15-20.06,14.42,54-75.32,20.1ZM835.31,569.63l-5.78,1.54Q716.2,601.42,602.84,631.56c-4.34,1.15-6.22,3.18-7.34,7.41q-30.25,114.1-60.85,228.11c-1,3.68-.44,6,2.27,8.7q83.72,84,167.19,168.23c2.75,2.78,5.09,3.2,8.68,2.24q114.1-30.6,228.27-60.91c3.69-1,5.33-2.68,6.3-6.37q30.18-113.83,60.74-227.55c1.26-4.68.64-7.59-2.84-11.07q-70.19-70.22-140.09-140.74C855.32,589.71,845.46,579.82,835.31,569.63Z"/><path class="cls-2" d="M720.63,999.21c-6.45-6.47-12.82-12.82-19.16-19.19q-57.93-58.29-115.93-116.52c-3-3-3.69-5.51-2.58-9.63q24-89.21,47.59-178.53c1.22-4.62,3.13-6.93,8-8.21q88.87-23.4,177.59-47.37c4.5-1.21,7.28-.49,10.56,2.83q64.94,65.7,130.17,131.13c1.29,1.3,2.56,2.63,4.07,4.19-.25,1.27-.45,2.7-.82,4.08Q936.05,852.33,912,942.68c-1.09,4.13-2.78,6.33-7.22,7.5q-89.4,23.57-178.69,47.56Zm84.65-318.28-127.23,34c-.37,1-.77,1.8-1,2.68q-16.24,60.75-32.53,121.49c-.87,3.22.14,5.07,2.26,7.19q43.25,43.34,86.31,86.87c2.85,2.89,5.25,3.47,9.12,2.42,39.07-10.59,78.2-21,117.31-31.41l5-1.33c.54-1.86,1.09-3.59,1.56-5.34,10.49-39.26,20.9-78.53,31.54-117.75,1-3.8.15-6-2.49-8.64q-39.79-39.78-79.35-79.78C812.28,687.78,808.73,684.33,805.29,680.93Z"/><path class="cls-3" d="M3015.22,1471.36l-85.37,38L2871,1377.21c-14.18,18.36-26.57,36.56-40.25,54.65l-75.38-54.62c1.16-1.78,2.16-3.5,3.33-5.1q32.12-44.17,64.35-88.25c2.78-3.78,3.56-6.71,1.44-11.26-8.41-18-16.31-36.31-24.43-54.48-.82-1.84-1.84-3.59-3.29-6.39l-93.07,127.93L2628.25,1285c1.3-1.94,2.47-3.8,3.76-5.57q58.51-80.47,117.16-160.84c3.17-4.33,3.45-7.59,1.22-12.38-8.48-18.24-16.54-36.67-24.61-55.09a19.88,19.88,0,0,0-7-8.57c-15-10.7-29.85-21.6-44.76-32.41-1.68-1.22-3.43-2.35-5.69-3.89-.34,2.48-.66,4.48-.88,6.49q-8.32,78.38-16.55,156.76a21,21,0,0,1-4.22,10.86c-9.27,12.4-18.36,24.94-27.53,37.42-1.21,1.65-2.5,3.25-4.27,5.53-1-1.8-1.68-2.95-2.22-4.17-6.54-14.75-13-29.52-19.6-44.25a21.57,21.57,0,0,1-1.71-11.57q8.37-77.42,16.47-154.86c.24-2.24.32-4.5.53-7.42-2.05.68-3.59,1.06-5,1.69-18,8-36,15.95-54,24.08a16.53,16.53,0,0,0-6.38,4.72c-12.82,17.33-25.42,34.81-38.08,52.26-.73,1-1.32,2.09-2.18,3.47l86,193.07-85,37.86-63.62-142.9c-4,2.6-38.28,48.7-43.91,58.8l49,110.14L2360,1382.13l-27.25-61.21c-8.36,10.27-15,20.24-22.16,29.86s-14.08,19.26-21.09,28.91c-7.13,9.82-14.22,19.68-21.36,29.49-7,9.61-14,19.19-21.32,29.15l-75.63-54.83,85.47-117.62-67.49-7.16,9.83-92.84,121.31,12.61,43.17-59.4-157.78-16.52,9.82-92.88c3.41.34,6.26.61,9.12.91q98,10.22,196,20.57c4.87.52,7.53-.67,10.32-4.63,11.58-16.41,23.6-32.51,35.33-48.81,1.53-2.12,3-4.7,3.31-7.21,2.31-20.38,4.34-40.8,6.43-61.2.1-1,0-2,.06-4l-7.36,3.28q-70.63,31.44-141.23,62.94a21.06,21.06,0,0,1-11.51,1.83c-16.21-1.88-32.46-3.5-48.69-5.24-1.41-.15-2.81-.48-4.8-.84,1.28-1.9,2.23-3.42,3.29-4.86,9.53-13,19.15-25.91,28.58-39a19.12,19.12,0,0,1,8.15-6.5q71.54-31.72,143-63.6L2453,850c-2.14-1.72-3.35-2.77-4.65-3.72-15.57-11.33-31.13-22.69-46.78-33.91a15.18,15.18,0,0,0-6.71-2.94c-22.88-2.55-45.78-4.87-68.68-7.25a9.1,9.1,0,0,0-1.73.26L2199.67,974l-75.62-54.82,93.27-128.36-73-7.69-71.77,98.64-75.58-54.86,39.83-54.94L1892.2,756.76l9.85-92.91,144.22,15c-1.8-6-4.45-10.83-6.61-15.86s-4.42-10-6.63-14.94l-6.9-15.5-6.54-14.68c4-3.32,76.64-36,85-38.36,1,2,2.15,4.18,3.14,6.4,14.5,32.53,29.13,65,43.32,97.68,2.28,5.25,5.22,7,10.62,7.43,18.34,1.58,36.64,3.7,55,5.61,3.09.32,6.18.61,9.92,1-1.64-6.88-5-12.4-7.45-18.26-2.58-6.19-5.42-12.26-8.15-18.39l-7.92-17.8-7.92-17.8-7.92-17.8L2179,589.22l-7.92-17.8L2163,553.28l85.31-38,3.06,6.88q40.14,90.15,80.15,180.35c2.14,4.85,4.71,6.85,10,7.31,19.8,1.73,39.55,4,59.32,6.13a18.83,18.83,0,0,0,10.3-1.54c17.34-7.92,34.8-15.58,52.22-23.34l5.91-2.63c-2.38-1.87-4.08-3.31-5.87-4.61q-62.27-45.18-124.6-90.27a27.47,27.47,0,0,1-9.67-11.87c-5.87-13.66-12.22-27.12-18.37-40.66-.83-1.83-1.64-3.68-2.78-6.24,2.72.09,4.55,0,6.35.23,16.23,1.68,32.46,3.46,48.7,5.06a16.78,16.78,0,0,1,8.59,3.29q63.22,46,126.54,91.86c1.8,1.31,3.66,2.53,6.11,4.22.43-2.58.82-4.34,1-6.13,2-19.15,4-38.31,6.13-57.45a17.84,17.84,0,0,0-1.57-9.7c-8.27-18.33-16.53-36.67-24.49-55.15-1.8-4.19-4.12-5.88-8.72-6.35q-99.31-10.13-198.58-20.64c-2.07-.22-4.12-.54-6.86-.91l9.8-92.82,157.28,16.44c-.84-2.37-1.32-4.11-2-5.74-8.32-18.77-16.81-37.47-24.93-56.32-1.68-3.9-4-5.13-7.94-5.53-36.44-3.68-72.86-7.55-109.28-11.38-1.86-.19-3.7-.48-6.4-.83l9.85-92.79,66.49,6.89c-.65-5.77-3.71-10.07-5.61-14.77-2-5-4.39-10-6.61-14.95L2345.47,197l-6.65-14.93-6.39-14.36-6.65-14.93-6.39-14.36-6.65-14.93L2306.28,109,2391.49,71l58.81,132.09c14.13-18.3,26.54-36.51,40.33-54.77,25.31,18,50.15,36.38,75.63,54.72l-71.64,98.6,29.7,66.72c11-14.27,21-28.6,31.3-42.66s20.46-28.07,30.68-42.11,20.63-28.37,31.4-43.18l75.63,54.85c-41.56,57.46-83.28,114.44-124.85,171.83.57,1.55,1.05,3.12,1.71,4.61,8.42,19,16.8,37.93,25.37,56.82a16.46,16.46,0,0,0,4.76,6.34c16.84,12.44,33.83,24.66,50.78,36.94.62.45,1.32.78,2.48,1.46.38-2.7.76-4.94,1-7.18q8.15-77.13,16.21-154.26a22.36,22.36,0,0,1,4.26-11.5c9.44-12.8,18.61-25.79,27.9-38.7.94-1.31,2-2.54,3.39-4.3,1.14,2.19,2.05,3.75,2.79,5.4,6.58,14.73,13.07,29.5,19.75,44.18a18.91,18.91,0,0,1,1.58,10.31q-8.32,77.43-16.43,154.88c-.23,2.22-.3,4.46-.48,7.28,2.13-.82,3.66-1.33,5.13-2,17.81-7.91,35.59-15.87,53.42-23.73a15.49,15.49,0,0,0,6.7-5.34c12.09-16.82,24.23-33.61,36.63-50.2,2.65-3.55,2.68-6.31.95-10.19q-40.43-90.36-80.6-180.84l-3.37-7.57L2816.72,262a5.45,5.45,0,0,1,.74.21,1.41,1.41,0,0,1,.49.34,4.57,4.57,0,0,1,.73,1c21,47.07,41.93,94.15,63.27,142.1,1.58-1.8,2.83-3,3.85-4.43,12.21-16.73,24.27-33.57,36.65-50.18,2.52-3.38,2.49-6,.84-9.64-14.79-32.86-29.39-65.81-44-98.73l-3.14-7.06,85.13-37.9,27.46,61.68c10.43-13.37,19.5-26.49,28.92-39.34s18.72-25.71,28.08-38.57l28.88-39.67,75.52,54.69c-13.89,19.81-28.23,39-42.25,58.41s-28.29,38.91-43.14,59.32l67.52,7.17-9.82,92.63c-2.56-.17-4.77-.24-7-.47-36-3.76-72-7.42-108-11.43-4.87-.54-7.51.75-10.29,4.68-11.58,16.42-23.54,32.56-35.35,48.81-1.08,1.48-2.05,3-3.63,5.39l157.57,16.57-9.83,92.91-211.54-22.11q-7.4,10.19-14.74,20.28c-8.63,11.84-17.32,23.63-25.84,35.55a15.26,15.26,0,0,0-2.91,6.72c-2.34,20.59-4.44,41.21-6.59,61.82a15.5,15.5,0,0,0,.29,2.57c2.22-.86,4.28-1.57,6.25-2.44q71.5-31.8,143-63.71a22.53,22.53,0,0,1,12.1-2c17.47,1.85,35,3.45,53.15,5.21-1.06,1.78-1.75,3.18-2.66,4.42-9.7,13.39-19.49,26.71-29.11,40.15a20.12,20.12,0,0,1-8.67,6.84q-71,31.46-141.85,63.1l-6.84,3c1.85,1.6,3,2.74,4.28,3.68Q2898,751.05,2922,768.34a13.83,13.83,0,0,0,6.17,2.64c22.67,2.5,45.35,4.8,68.5,7.21l125.14-172L3197.4,661l-93.26,128.32,72.93,7.73,71.8-98.59,75.62,54.77L3284.79,808c16.49,2.38,32.42,3.57,48.27,5.32s31.63,3.32,47.45,5l48.72,5.13-9.81,92.92-144.68-15.1c9.23,21.12,18.27,41,27,60.89-3.93,3.17-73.74,34.74-85,38.44q-12.29-27.54-24.67-55.29c-8.18-18.35-16.35-36.71-24.61-55.27l-72.82-7.62,63.79,143.29c-3.77,3.38-76.57,36.24-85.53,38.67l-3.18-7.14q-40-89.86-79.92-179.77c-2-4.55-4.42-6.63-9.55-7.08-20-1.75-40-4.08-60-6a16.54,16.54,0,0,0-7.87.88c-19,8.26-37.94,16.78-56.88,25.23a28.84,28.84,0,0,0-2.63,1.59c1.43,1.26,2.54,2.41,3.81,3.34q63.51,46.13,127.09,92.16a24.12,24.12,0,0,1,8.44,10.52c6.09,14.26,12.46,28.39,18.7,42.58.67,1.52,1.22,3.09,2.07,5.26-2,0-3.56.06-5.1-.1-16.23-1.73-32.45-3.58-48.7-5.19a17.89,17.89,0,0,1-9.14-3.56q-64-46.55-128.07-93c-1.68-1.22-3.41-2.37-5.65-3.92-.36,2.31-.71,4.11-.91,5.93-2,19.15-4,38.31-6.14,57.45a16.67,16.67,0,0,0,1.63,9.06c8.49,18.92,17,37.83,25.24,56.88,1.73,4,4,5.53,8.32,6q100.22,10.27,200.41,20.86c1.44.15,2.88.34,5.25.63-3.09,30.92-6.46,61.58-9.77,92.89l-157.46-16.47,29.85,67,120.93,12.67-9.82,92.9-67.58-7Zm-379.05-736a29.19,29.19,0,0,0,.82-3.22c3.07-28.69,6.05-57.39,9.24-86.06.39-3.48-1-5.29-3.56-7.18q-34.54-25-69-50.22a25.61,25.61,0,0,0-3.64-1.85,11.41,11.41,0,0,0-.51,1.66c-3,29.32-6,58.66-9.16,88-.32,3,.76,4.59,3,6.19,9,6.42,18,13,26.93,19.49Zm-35.47,48.53c-1.71-1.4-2.89-2.49-4.18-3.42-22.17-16.12-44.43-32.13-66.47-48.43-3.61-2.67-6.39-2.56-10.2-.84-24.24,11-48.57,21.7-72.86,32.54-1.83.82-3.59,1.82-6.22,3.17l74.9,54.84Zm180.6-80.32,9.36-92.37c-2,.67-3.18,1-4.27,1.44-25.43,11.3-50.82,22.7-76.32,33.85-3.52,1.54-4.36,3.83-4.71,7.19-2.8,27.25-5.72,54.48-8.58,81.72-.19,1.79-.2,3.6-.31,5.94Zm-251.36,266,86-38.29,9.71-92.27-86.16,38.36Zm155.7-124.4a18,18,0,0,0-.65,2.14c-3.09,28.93-6.1,57.86-9.32,86.78-.37,3.29.93,4.91,3.34,6.63q34.18,24.53,68.25,49.2c.9.65,1.94,1.1,3.61,2l9.93-92.23Zm195.62-32c-1.35-1.19-1.93-1.78-2.58-2.25-22.82-16.64-45.71-33.2-68.43-50-3.06-2.26-5.41-2-8.54-.61-24.83,11.16-49.72,22.19-74.58,33.28-1.83.81-3.57,1.81-6.32,3.22l75,54.4Z"/></g><g id="Layer_3" data-name="Layer 3"><rect class="cls-2" y="867.18" width="3494.5" height="849.18"/></g><g id="Layer_4" data-name="Layer 4"><rect class="cls-4" x="1.4" y="1591.54" width="3493.82" height="126.03"/></g><g id="Layer_10" data-name="Layer 10"><path class="cls-5" d="M184.6,1365.93l4.21-13.84-9.42,1.89-1.35-5.44c3.27-.67,6.45-1.52,9.68-1.92,2.37-.29,3.62-1.25,3.93-3.6a19.94,19.94,0,0,1,.86-2.92l-17.77,3.61-1.33-5.4c.41-.11.77-.22,1.15-.3,6.27-1.28,12.55-2.56,18.83-3.8.7-.14,1.11-.38,1.27-1.12.19-.89.51-1.75.85-2.84l-9.48,1.91-1.35-5.43,6-1.23c2-.41,4-.78,5.94-1.23a1.41,1.41,0,0,0,.93-.7c1.73-5.56,3.41-11.13,5.1-16.71a1.45,1.45,0,0,0,0-.36l-4.76.79c-4.32.74-8.63,1.5-12.95,2.2a1.39,1.39,0,0,0-1.28,1.09c-1.2,3.59-2.46,7.17-3.72,10.8l-5.38-1.64,2.72-8.94c-1.2.21-2.35.39-3.49.65-.23.05-.45.44-.55.71-1.44,4.14-2.87,8.28-4.26,12.44-.7,2.09-1.29,4.22-2,6.39l-5.77-1.76,5.67-16.63c-1.6.26-3,.61-4.52.71a2.38,2.38,0,0,0-2.38,2.06c-.93,3.1-2,6.15-3.07,9.22a6.25,6.25,0,0,1-.36.75l-5.33-1.62,2.71-8.91-14.64,2.47-1.16-5.46,14.82-2.56-6.39-7.27,4.35-3.54c.4.44.76.83,1.12,1.23,2.27,2.57,4.54,5.13,6.78,7.71a1.54,1.54,0,0,0,1.69.61c1.65-.35,3.33-.59,5.25-.92l-12-13.6L158,1290c.26.25.5.46.71.7,4.27,4.83,8.55,9.64,12.78,14.49a1.59,1.59,0,0,0,1.79.63c.88-.22,1.8-.33,2.93-.53l-6.41-7.27,4.35-3.53c.48.52.95,1,1.4,1.53,2.22,2.51,4.42,5,6.67,7.52a1.57,1.57,0,0,0,1.17.51c5.66-.93,11.31-1.91,17-2.88a2.19,2.19,0,0,0,.39-.17c-.25-.27-.45-.5-.68-.72-3.95-3.75-7.91-7.49-11.83-11.27a1.51,1.51,0,0,0-1.66-.4c-3.8,1-7.61,2-11.54,3.05l-1.66-5.37,9.38-2.48c-1-.94-1.81-1.79-2.71-2.51a1.66,1.66,0,0,0-1.21,0q-8.87,2.3-17.73,4.65l-2,.5-1.65-5.36,17.52-4.59c-1.49-1.43-2.81-2.76-4.21-4a1.65,1.65,0,0,0-1.28-.13c-3.6.91-7.2,1.87-10.79,2.81-.24.06-.49.11-.82.18l-1.65-5.34,9.36-2.47-10.86-10.37,4-3.91,10.79,10.22,2.69-8.84,5.34,1.62a8.35,8.35,0,0,1-.16.94c-.88,3.23-1.74,6.47-2.66,9.69a1.77,1.77,0,0,0,.55,2.12c1.25,1.07,2.41,2.24,3.76,3.52l4.56-17,5.53,1.68-2.15,8.11c-1,3.74-2,7.47-3,11.21a1.07,1.07,0,0,0,.18.87c.76.79,1.58,1.52,2.46,2.34l2.71-8.89,5.36,1.63c-.44,1.7-.89,3.5-1.37,5.3-.52,2-1.08,4-1.57,6a1.28,1.28,0,0,0,.22,1q6.49,6.23,13,12.41a1.8,1.8,0,0,0,.36.19c.12-.32.25-.61.34-.91,1.59-5.22,3.17-10.44,4.79-15.65a1.39,1.39,0,0,0-.41-1.63c-2.56-2.54-5.08-5.12-7.6-7.69-.25-.26-.5-.53-.79-.84l4.1-3.76,6.82,6.87c.38-1.26.77-2.32,1-3.41.06-.3-.32-.77-.6-1.05q-6.84-7-13.71-13.92c-.18-.18-.33-.38-.54-.62l4.11-3.75L215.68,1264c.6-2,1.17-3.72,1.63-5.49.07-.27-.24-.73-.49-1-2.47-2.53-5-5-7.44-7.55-.31-.31-.61-.64-1-1l4.11-3.78,6.77,6.84,4.18-13.74,5.65,1.72-4.19,13.78,9.51-1.91,1.34,5.44c-3.76.77-7.42,1.59-11.11,2.23a2.2,2.2,0,0,0-2.08,1.93c-.3,1.36-.79,2.68-1.27,4.27l17.77-3.6,1.33,5.4c-.35.09-.65.18-1,.24-6.35,1.3-12.69,2.6-19,3.87a1.34,1.34,0,0,0-1.25,1.13c-.2.88-.51,1.74-.84,2.82l9.49-1.91,1.34,5.44-6.49,1.33c-1.8.37-3.61.71-5.4,1.14a1.51,1.51,0,0,0-1,.8c-1.7,5.45-3.36,10.92-5,16.39a4.44,4.44,0,0,0-.08.55c1.18-.19,2.3-.35,3.41-.54,4.82-.82,9.64-1.67,14.46-2.47a1.22,1.22,0,0,0,1.12-1c1.22-3.63,2.49-7.24,3.76-10.9l5.38,1.64-2.71,8.92c1.17-.2,2.33-.36,3.47-.62.23-.05.46-.43.56-.7,1.43-4.14,2.87-8.28,4.25-12.44.71-2.12,1.31-4.28,2-6.42l5.78,1.76-5.68,16.64c2.07-.35,4-.63,5.81-1,.33-.07.67-.62.81-1,1.11-3.2,2.17-6.42,3.26-9.63.13-.38.3-.73.43-1l5.35,1.63-2.7,8.86,14.64-2.48,1.16,5.47-14.81,2.57,6.38,7.26-4.35,3.55-5.65-6.39c-.83-.94-1.63-1.9-2.5-2.8a1.37,1.37,0,0,0-1-.39c-1.82.26-3.62.61-5.65,1l12,13.58-4.34,3.54-3.83-4.31c-3.17-3.59-6.35-7.16-9.47-10.79a1.87,1.87,0,0,0-2.17-.72c-.8.22-1.65.3-2.69.48l6.4,7.28-4.35,3.54-4.54-5.12c-1.2-1.35-2.37-2.72-3.59-4a1.34,1.34,0,0,0-1-.4c-5.77.94-11.54,1.93-17.46,2.93a7.42,7.42,0,0,0,.57.71c4,3.81,8,7.6,12,11.43a1.42,1.42,0,0,0,1.56.36c3.45-.93,6.9-1.83,10.36-2.73l1.26-.3,1.67,5.34L231,1322c1,.94,1.83,1.8,2.75,2.55.22.18.76.07,1.12,0q9.19-2.38,18.38-4.79l1.38-.34,1.64,5.36-17.54,4.61c1.52,1.44,2.88,2.77,4.3,4a1.4,1.4,0,0,0,1.08.11c3.35-.85,6.7-1.74,10-2.62l1.7-.43,1.65,5.37-9.36,2.47L259,1348.64l-4,3.91-10.79-10.22-2.7,8.88-5.37-1.63c.16-.68.34-1.48.56-2.27.78-2.88,1.56-5.76,2.37-8.63a1.49,1.49,0,0,0-.47-1.75c-1.29-1.14-2.51-2.35-3.91-3.66l-4.56,17-5.68-1.73c.45-1.48,1-3,1.38-4.56q2-7.25,3.83-14.53a1.56,1.56,0,0,0-.33-1.21c-.67-.77-1.44-1.44-2.23-2.22l-2.7,8.88-5.36-1.63c.44-1.7.89-3.51,1.37-5.31.52-2,1.08-4,1.56-6a1.27,1.27,0,0,0-.24-1q-6.44-6.19-12.93-12.33a4.5,4.5,0,0,0-.43-.31c-.14.37-.26.66-.35,1-1.58,5.18-3.14,10.37-4.76,15.54a1.56,1.56,0,0,0,.44,1.83c2.52,2.48,5,5,7.46,7.52.28.28.55.58.87.94l-4.12,3.76-6.81-6.87c-.38,1.26-.76,2.32-1,3.41-.06.28.26.72.51,1q6.77,6.89,13.57,13.75c.25.26.49.54.77.85l-4.11,3.77-12.75-12.9c-.59,1.93-1.15,3.64-1.6,5.37a1.45,1.45,0,0,0,.44,1.09c2.56,2.64,5.16,5.25,7.75,7.87.23.23.44.48.7.76l-4.1,3.75-6.79-6.84-4.22,13.85Z"/><path class="cls-5" d="M217.41,1124.22l-19.19-5.45,8.43-29.7c-4.83,1.07-9.35,2.36-14.07,3.45l-4.88-19.26c.43-.13.83-.28,1.24-.38,7.54-1.9,15.07-3.8,22.62-5.66a2,2,0,0,0,1.78-1.65c1.09-4.11,2.29-8.18,3.45-12.27.12-.41.19-.84.34-1.5L184.37,1060l-4.88-19.29c.48-.14.92-.29,1.38-.4q20.59-5.18,41.2-10.33a2.25,2.25,0,0,0,1.89-1.86c1.11-4.15,2.31-8.27,3.5-12.39a4.24,4.24,0,0,0,0-2.36c-1-3.8-1.94-7.62-2.9-11.43-.11-.43-.24-.85-.4-1.41-.39.36-.72.64-1,.94q-12.08,11.71-24.15,23.42a4.48,4.48,0,0,1-2.18,1.2c-3.22.76-6.42,1.58-9.63,2.37-.42.1-.85.19-1.46.32.09-.43.13-.71.21-1,.95-3.31,1.9-6.62,2.84-9.93a4.6,4.6,0,0,1,1.3-2.13q12-11.54,23.88-23.12c.35-.33.67-.69,1.1-1.14-.43-.17-.73-.32-1.05-.41-4-1.15-8.08-2.31-12.13-3.43a3.53,3.53,0,0,0-1.69-.1c-4.47,1.09-8.93,2.23-13.39,3.35-.26.06-.5.16-.83.27l-12.32,43.4-19.11-5.43L163.66,997c-1-.12-12.93,2.74-15.24,3.63l-7,24.76L122.25,1020l3.91-13.76c-2.77.54-5.23,1.26-7.72,1.86s-4.94,1.23-7.41,1.85l-7.53,1.91L96,1013.72l-4.89-19.33,30.09-7.58-10.08-10.4,14.31-13.87,18.15,18.66,15.2-3.83-23.6-24.29,14.31-13.88,1.37,1.4q14.66,15.08,29.31,30.18a2,2,0,0,0,2.32.65c4.14-1.1,8.31-2.1,12.47-3.17a3.52,3.52,0,0,0,1.53-.73c3.17-3,6.29-6.09,9.43-9.15.15-.15.27-.32.56-.65l-1.65-.47q-15.87-4.51-31.75-9A4.49,4.49,0,0,1,171,947c-2.4-2.53-4.84-5-7.26-7.52-.21-.22-.39-.46-.67-.79.47-.14.83-.25,1.2-.35,3.34-.82,6.68-1.63,10-2.48a4.08,4.08,0,0,1,2.22.05q16.06,4.59,32.13,9.14l1.67.47c-.12-.57-.17-.91-.25-1.24-1-4-2-8-3-12a3.24,3.24,0,0,0-.7-1.4c-3.4-3.55-6.84-7.06-10.26-10.58a1.94,1.94,0,0,0-.32-.19l-43.91,11-4.89-19.33,32.84-8.28-10.92-11.25-25.25,6.35-4.88-19.33,14-3.56-21.61-22.26,14.32-13.88L167,861.83a30.59,30.59,0,0,0,1.09-3.5c.33-1.11.64-2.24,1-3.35l1-3.48.94-3.3c1.11,0,17.49,4.58,19.18,5.34-.11.47-.22,1-.36,1.48-2.07,7.31-4.12,14.64-6.26,21.93a2.32,2.32,0,0,0,.72,2.67c2.79,2.77,5.5,5.62,8.24,8.44l1.49,1.52a24.45,24.45,0,0,0,1.28-4c.42-1.37.79-2.75,1.18-4.13l1.14-4,1.14-4,1.14-4,1.17-4.13,1.14-4,1.16-4.08,19.18,5.45-.44,1.55q-5.75,20.26-11.53,40.52a2.24,2.24,0,0,0,.64,2.57c3,3,5.94,6.06,8.88,9.12a4,4,0,0,0,1.9,1.16c3.92,1.07,7.83,2.21,11.75,3.32l1.33.38c-.13-.63-.22-1.1-.33-1.56q-4-15.92-8.07-31.84a5.86,5.86,0,0,1,0-3.27c.91-3,1.71-6.11,2.55-9.18.11-.41.23-.83.4-1.4.43.39.74.63,1,.91,2.43,2.5,4.85,5,7.29,7.49a3.58,3.58,0,0,1,1,1.72q4.07,16.19,8.17,32.36c.12.46.25.92.42,1.53.42-.36.73-.6,1-.87,3-2.86,5.9-5.73,8.86-8.57a3.81,3.81,0,0,0,1.07-1.8c1.15-4.14,2.31-8.27,3.53-12.39a2,2,0,0,0-.56-2.23q-14.89-15.24-29.72-30.54c-.31-.32-.6-.65-1-1.09L245,846.66l23.52,24.21c.19-.5.35-.85.45-1.22,1.2-4.21,2.37-8.44,3.62-12.64a1.76,1.76,0,0,0-.54-2q-8.2-8.38-16.35-16.81c-.28-.29-.54-.58-.93-1L269,823.33l10,10.22a11.55,11.55,0,0,0,1.1-3.19c.36-1.11.64-2.23,1-3.35l.92-3.23,1-3.36.92-3.23,1-3.36.92-3.23,1-3.36.93-3.27,19.15,5.44-8.43,29.69c4.82-1.07,9.34-2.35,14.1-3.46,1.68,6.42,3.24,12.82,4.91,19.31l-25.23,6.36-4.26,15c3.76-.83,7.35-1.81,11-2.71l10.79-2.7,11.05-2.78,4.89,19.33c-14.67,3.73-29.3,7.36-44,11.08-.12.33-.25.66-.35,1-1.21,4.26-2.43,8.51-3.62,12.78a3.51,3.51,0,0,0-.09,1.69c1.06,4.34,2.17,8.67,3.27,13,0,.16.11.31.21.58.43-.39.8-.7,1.15-1Q294,915,305.89,903.49a4.77,4.77,0,0,1,2.27-1.3c3.3-.81,6.58-1.68,9.87-2.52.33-.09.68-.14,1.14-.24-.11.51-.18.9-.28,1.27-.94,3.31-1.89,6.62-2.81,9.94a4,4,0,0,1-1.15,1.91Q303,924.09,291,935.67c-.34.33-.66.69-1.07,1.13.46.16.78.28,1.11.38,4,1.14,8,2.27,12,3.42a3.31,3.31,0,0,0,1.83,0c4.28-1.1,8.57-2.19,12.87-3.22a1.87,1.87,0,0,0,1.55-1.54q5.73-20.34,11.53-40.66l.48-1.7,19,5.38a1.16,1.16,0,0,1,.09.14.3.3,0,0,1,0,.12,1,1,0,0,1,0,.27l-9.07,31.94c.51-.08.88-.11,1.24-.2,4.29-1.07,8.57-2.18,12.87-3.21a1.76,1.76,0,0,0,1.46-1.47c2.07-7.41,4.18-14.8,6.29-22.2l.45-1.59,19.13,5.43L378.83,922c3.54-.76,6.82-1.67,10.12-2.49s6.58-1.65,9.88-2.48L409,914.48l4.89,19.29c-5,1.35-10,2.53-14.91,3.79s-10,2.51-15.18,3.82l10.08,10.41-14.28,13.84c-.4-.38-.75-.69-1.08-1-5.39-5.54-10.79-11.07-16.14-16.65a2,2,0,0,0-2.33-.64c-4.14,1.11-8.31,2.12-12.47,3.16-.38.1-.75.22-1.33.39l23.55,24.27L355.48,989l-31.64-32.56-5.19,1.31c-3,.76-6.07,1.5-9.1,2.29a3.26,3.26,0,0,0-1.4.7c-3.2,3.05-6.36,6.15-9.54,9.23a3.31,3.31,0,0,0-.3.46c.48.16.92.33,1.36.45q16.07,4.57,32.14,9.11a4.81,4.81,0,0,1,2.25,1.33c2.61,2.69,5.26,5.35,8,8.12-.42.15-.72.28-1,.36-3.42.87-6.85,1.71-10.26,2.6a4.3,4.3,0,0,1-2.36-.07q-15.93-4.55-31.87-9.06l-1.54-.44c.08.51.11.86.2,1.19,1,4.07,2,8.15,3.09,12.22a3,3,0,0,0,.65,1.28c3.37,3.51,6.78,7,10.24,10.55l44-11.06,4.9,19.33-32.83,8.27,10.89,11.24,25.25-6.33,4.9,19.32-14,3.54c2.38,2.65,4.82,5,7.18,7.48s4.73,4.87,7.09,7.31l7.28,7.51-14.32,13.88-21.64-22.26c-1.38,4.72-2.61,9.22-3.9,13.67-1.08,0-16.84-4.39-19.19-5.33l3.52-12.43,3.53-12.42L311,1038.57l-9.15,32.21c-1.08,0-17.5-4.53-19.3-5.36l.46-1.6q5.74-20.2,11.49-40.39a2.16,2.16,0,0,0-.6-2.47c-3-3-6-6.14-9-9.19a3.53,3.53,0,0,0-1.41-.93c-4.25-1.25-8.51-2.44-12.77-3.65a6.16,6.16,0,0,0-.65-.1c.06.4.09.74.17,1.07q4.1,16.25,8.22,32.49a5.15,5.15,0,0,1-.06,2.88c-1,3.17-1.84,6.36-2.76,9.54-.1.34-.22.67-.38,1.15-.32-.28-.59-.48-.82-.71-2.42-2.5-4.83-5-7.27-7.51a3.82,3.82,0,0,1-1-1.83q-4.12-16.38-8.27-32.75c-.11-.43-.23-.86-.39-1.41-.38.33-.68.58-1,.85-3,2.86-5.89,5.73-8.86,8.57a3.56,3.56,0,0,0-1,1.71c-1.2,4.26-2.39,8.53-3.64,12.77a1.87,1.87,0,0,0,.55,2.11q15,15.39,30,30.83l.77.82c-4.74,4.64-9.48,9.21-14.31,13.88l-23.55-24.24-4.28,15.07L250.3,1091,236,1104.86l-10.12-10.38ZM256,951.77a6.23,6.23,0,0,0,.57-.42q6.64-6.42,13.29-12.84a1.49,1.49,0,0,0,.4-1.66c-1.49-5.88-3-11.78-4.43-17.66a5.47,5.47,0,0,0-.34-.8,2.43,2.43,0,0,0-.31.2q-6.76,6.58-13.53,13.16a1.28,1.28,0,0,0-.35,1.43c.6,2.29,1.17,4.58,1.75,6.88Zm-12.45,3.1c-.09-.46-.13-.8-.22-1.13-1.43-5.67-2.89-11.34-4.27-17a1.87,1.87,0,0,0-1.56-1.53c-5.47-1.52-10.93-3.09-16.39-4.63-.41-.12-.84-.19-1.45-.33l4.77,19.23Zm40.58,11.54,14.17-13.86c-.42-.16-.65-.28-.9-.35-5.71-1.63-11.43-3.23-17.14-4.89a1.58,1.58,0,0,0-1.75.53q-6.28,6.12-12.58,12.22c-.28.27-.52.56-.86.93Zm-77.57,9.2,19.33,5.49,14.21-13.79-19.36-5.5Zm42.53.91a3.84,3.84,0,0,0-.4.26q-6.69,6.48-13.4,12.95a1.36,1.36,0,0,0-.36,1.54c1.5,5.8,3,11.6,4.46,17.4.06.23.17.45.32.83l14.24-13.76ZM285.49,998c-.06-.38-.07-.55-.11-.72-1.46-5.85-2.95-11.69-4.38-17.55a1.57,1.57,0,0,0-1.32-1.27c-5.6-1.57-11.18-3.17-16.77-4.75-.41-.12-.83-.19-1.48-.34l4.85,19.17Z"/><path class="cls-5" d="M3185.31,1474.41l6.76-11.37c.35,0,.76,0,1.17,0,8.11.12,16.22.24,24.34.4a1.67,1.67,0,0,0,1.72-.94c2.2-3.79,4.46-7.55,6.7-11.31l.64-1.07-46.15-.67,6.78-11.4,39.51.53-12.33-22,13.38.23,9,16c.27-.39.48-.64.64-.91,1.62-2.72,3.21-5.45,4.87-8.15a1.67,1.67,0,0,0,0-2q-8.73-15.41-17.4-30.86l-6.5-11.55c-.24-.43-.5-.85-.76-1.28l-11.72-.16c.26.51.44.87.64,1.23,2.61,4.61,5.2,9.22,7.84,13.81a1.66,1.66,0,0,1,0,2c-1.89,3.09-3.71,6.22-5.56,9.34l-.69,1.16-12.31-21.81c-.29.41-.49.67-.66.94q-2.81,4.65-5.6,9.31-6.71,11.24-13.39,22.5a1.84,1.84,0,0,1-1.89,1.06c-3.58-.12-7.16-.14-10.74-.2-.34,0-.67,0-1.22-.06,1.5-2.78,3.16-5.31,4.68-7.91s3.11-5.24,4.67-7.87l4.68-7.86,4.68-7.86,4.77-8-15.56-.24-13.59,22.86-13.21-.22c4.45-7.72,9-15.13,13.48-22.83l-16.27-.26.11-11.49c5.4,0,10.75.18,16.29.2l-13-23.17c.43,0,.69-.06.95-.06,3.77,0,7.54.12,11.31.13a1.5,1.5,0,0,1,1.51.91c3.95,7.09,7.95,14.15,11.88,21.24a2,2,0,0,0,2,1.22c4.3,0,8.61.1,12.91.16.37,0,.74,0,1.26,0l-22.66-40.19c4.5,0,8.85.1,13.27.14l19.44,34.4a32.72,32.72,0,0,0,2.21-3.53c.72-1.17,1.41-2.36,2.11-3.54l2.16-3.64,2.11-3.54,2.11-3.53,2.16-3.64c.29.45.51.75.68,1.07,1.81,3.22,3.58,6.46,5.43,9.66a1.58,1.58,0,0,1-.06,1.86c-2.82,4.67-5.6,9.35-8.39,14-.12.19-.21.4-.36.69a6.19,6.19,0,0,0,.8.12c3.47.06,6.93.1,10.4.17a1.09,1.09,0,0,0,1.19-.65,4.7,4.7,0,0,1,.29-.49q12.3-20.69,24.63-41.37a1.91,1.91,0,0,0,0-2.26c-1.57-2.65-3.05-5.36-4.57-8-.22-.39-.46-.77-.77-1.28l-9.33,15.69-13.4-.17,12.83-21.57c-4.59-.13-8.94-.16-13.3-.24l-13.14-.21-13.23-.22-6.51-11.61,46.22.72-7.63-13.54L3194,1281l-6.51-11.59,26.63.35-8-14.18,10-5.6,8,14.15c1.33-2,2.36-3.85,3.47-5.7s2.26-3.8,3.39-5.7l3.33-5.6,3.39-5.71c.3.45.5.72.66,1,1.82,3.22,3.6,6.45,5.46,9.64a1.49,1.49,0,0,1-.07,1.76c-4.15,6.93-8.27,13.89-12.44,20.81a1.92,1.92,0,0,0-.06,2.26c2.18,3.76,4.28,7.55,6.42,11.33.18.32.38.62.64,1l23.38-39.32c.66.56,5.62,9.11,6.66,11.47l-20.12,33.83,25.1.4-6.81,11.45-18.39-.29,6,10.7,50.75.75,6.24-10.49-1.57,0c-5.26-.07-10.51-.16-15.77-.2a1.49,1.49,0,0,1-1.52-.88c-1.8-3.27-3.66-6.5-5.5-9.75-.17-.29-.31-.6-.55-1l25.1.35c-1.59-3-3.23-5.8-4.8-8.64s-3.24-5.78-4.86-8.67l-4.81-8.57-4.81-8.59,6.76-11.36c2,3.38,3.81,6.75,5.7,10.08s3.74,6.64,5.6,10l5.65,10.06,5.65,10,7.89-13.27c-.17-.32-.34-.7-.55-1.06q-5.94-10.55-11.91-21.09a1.73,1.73,0,0,1,0-2.06c1.88-3,3.68-6.15,5.52-9.23l.69-1.17,13.08,23.16,8.23-13.83,10,5.93-8.24,13.86,26.58.44L3366,1283.5l-2.89,0c-7.5-.12-15-.22-22.51-.37a1.75,1.75,0,0,0-1.81,1c-2.16,3.73-4.38,7.42-6.58,11.12l-.69,1.17c3.18.15,6.2.12,9.22.17s6.17.09,9.26.13l9.14.13,9.25.13,9.33.14-1.45,2.43c-1.62,2.72-3.25,5.43-4.84,8.17a1.43,1.43,0,0,1-1.45.8q-18.62-.28-37.24-.51c-.41,0-.82,0-1.38,0l12.32,21.93-13.38-.24-9-16c-.3.43-.52.72-.7,1-1.64,2.75-3.25,5.52-4.93,8.24a1.74,1.74,0,0,0,0,2.06c3.51,6.15,7,12.33,10.45,18.51l13.57,24.09c.13.23.27.45.46.76l12.08.17-9-16,6.81-11.45,12.34,21.85.7-1.17,12.32-20.61c2.23-3.73,4.47-7.45,6.67-11.2a1.58,1.58,0,0,1,1.62-.92c3.65.11,7.31.14,11,.2.33,0,.66,0,1.14.07l-23.43,39.4a9.65,9.65,0,0,0,1,.13c4.49.07,9,.12,13.48.23a1.58,1.58,0,0,0,1.62-.91c4.11-7,8.26-13.89,12.36-20.86a1.9,1.9,0,0,1,2-1.09c3.5.12,7,.13,10.51.19.41,0,.81,0,1.41.08l-13.51,22.71c2,.17,3.75.1,5.5.15s3.5.05,5.26.08l5.51.09c0,3.83-.06,7.61-.12,11.51l-16.28-.23,13.05,23.24-13.29-.17-3.37-6q-4.62-8.22-9.23-16.44a1.43,1.43,0,0,0-1.39-.9c-4.61,0-9.22-.11-13.82-.18-.22,0-.44,0-.78.07l22.68,40.21-13.3-.17-19.47-34.47c-2.24,3.64-4.3,7.17-6.39,10.68s-4.21,7.07-6.31,10.61c-.66-.51-4.92-7.86-6.69-11.5l9.33-15.7c-.57,0-1-.06-1.37-.06-3.08,0-6.17-.07-9.25-.16a1.68,1.68,0,0,0-1.72.94q-7,11.82-14,23.6c-3.64,6.13-7.27,12.26-10.95,18.37a1.67,1.67,0,0,0,0,2c1.59,2.73,3.12,5.5,4.67,8.25.16.29.35.57.63,1l.69-1.16c2.68-4.52,5.39-9,8-13.59a1.75,1.75,0,0,1,1.81-1c3.58.09,7.16.1,10.74.15l1.42,0c-.68,1.33-1.42,2.46-2.1,3.62s-1.4,2.36-2.1,3.54l-2.16,3.64-2.1,3.54-2.1,3.54-2.2,3.7,39.62.66,6.5,11.6-46.14-.71c.19.39.32.7.47,1,2.18,3.89,4.39,7.76,6.54,11.66a1.6,1.6,0,0,0,1.6.95c8,.08,15.92.2,23.88.31a6.74,6.74,0,0,0,.91,0,1.15,1.15,0,0,1,1.24.76c1,1.81,2,3.59,3,5.39l3.06,5.47-26.59-.36c2.6,4.82,5.31,9.41,7.91,14.19l-10,5.59-7.88-14c-.55.21-.67.69-.89,1.05q-6,10.11-12.07,20.23l-.78,1.31-6.51-11.54,13.6-22.87-7.63-13.55c-4,6.67-7.86,13.23-11.75,19.75s-7.78,13.08-11.74,19.74c-.26-.37-.45-.59-.59-.84-1.84-3.25-3.65-6.52-5.52-9.74a1.5,1.5,0,0,1,.06-1.76q4.75-8,9.45-15.93l9.48-16,.64-1.08c-8.43-.19-16.66-.25-25-.43.16-.35.24-.59.36-.79,1.93-3.24,3.89-6.47,5.79-9.73a1.68,1.68,0,0,1,1.73-.92c5.29.13,10.59.2,15.88.29.41,0,.82,0,1.34,0-.2-.4-.33-.7-.5-1-1.55-2.76-3.12-5.5-4.64-8.27a1.44,1.44,0,0,0-1.41-.88q-24.91-.34-49.81-.73c-.23,0-.45,0-.69,0l-5.89,9.91c6.2.14,12.27.16,18.37.28l6.59,11.64-25.19-.35,19.33,34.47-6.75,11.35c-2-3.36-3.82-6.72-5.7-10s-3.73-6.64-5.6-10l-5.66-10.06-5.65-10-7.92,13.31,13,23.09-6.75,11.36c-1-1.51-1.77-3.06-2.63-4.54s-1.72-3.05-2.58-4.58l-2.64-4.68-2.57-4.58c-.85-1.51-1.72-3-2.67-4.7l-8.23,13.84-10-5.92,8.25-13.88Zm118.86-56.3.63-1.06q12.42-20.88,24.85-41.74a1.86,1.86,0,0,0,0-2.16q-12-21.28-24-42.6a1.61,1.61,0,0,0-1.59-1q-24.56-.33-49.11-.74a1.59,1.59,0,0,0-1.61.92q-12.48,21-25,42a1.6,1.6,0,0,0,0,1.86q12,21.23,23.92,42.5a2,2,0,0,0,2,1.23q20.56.25,41.12.58Z"/><path class="cls-5" d="M3259,1337.87l5.62.07q17,.26,34,.49a1.78,1.78,0,0,1,1.78,1.05q9.35,16.69,18.78,33.34a2,2,0,0,1,0,2.37q-9.78,16.33-19.46,32.71a1.94,1.94,0,0,1-2,1.11q-19.13-.34-38.26-.6l-1.21,0c-.15-.22-.32-.46-.47-.72q-9.51-16.87-19-33.73a1.85,1.85,0,0,1,0-2.16q9.84-16.43,19.59-32.9Zm33.5,59.4,13.94-23.44c-.09-.2-.15-.38-.24-.54q-6.38-11.35-12.76-22.71a1.36,1.36,0,0,0-1.37-.74q-12.68-.17-25.36-.38a1.67,1.67,0,0,0-1.7,1q-6.39,10.83-12.84,21.63l-.55.92c.19.35.36.69.54,1q6.19,11,12.36,22a1.6,1.6,0,0,0,1.62.92c7.77.09,15.53.22,23.3.34Z"/><path class="cls-5" d="M3093.68,170.59l-6.56,4.06-2.71-4.4c.22-.15.52-.35.83-.55,3.15-1.93,6.31-3.83,9.43-5.8a2.22,2.22,0,0,0,.87-1.21c.64-2.4,1.19-4.83,1.79-7.33l-12.66,7.84-2.72-4.51,7.94-4.82c2.8-1.71,5.61-3.4,8.38-5.15a2.39,2.39,0,0,0,.94-1.27c.53-1.88.92-3.8,1.42-5.69a1.23,1.23,0,0,0-.39-1.4q-4.25-4-8.44-8a1.18,1.18,0,0,0-1.32-.35c-1.87.57-3.77,1-5.63,1.63a2.51,2.51,0,0,0-1.32,1c-3.07,5.42-6.08,10.86-9.11,16.3-.07.13-.17.26-.31.47l-4.36-2.42,7.33-13.18c-2.15.61-4,1.27-5.95,1.64a4.65,4.65,0,0,0-3.52,2.82c-1.46,2.89-3.14,5.66-4.69,8.51-.33.61-.59.66-1.15.31-1.15-.7-2.35-1.32-3.63-2l3.84-7-12,3.39-1.38-4.83,12-3.41-6.94-3.89,2.44-4.38,5.39,3c1.82,1,3.62,2,5.45,3a1.45,1.45,0,0,0,.95.19c2.52-.68,5-1.4,7.83-2.19l-13.2-7.37,2.44-4.38,7.78,4.33c3.08,1.71,6.14,3.44,9.23,5.13a1.85,1.85,0,0,0,1.24.14q3-.77,5.9-1.69a1.4,1.4,0,0,0,.81-.83c1-3.79,1.85-7.6,2.79-11.4a1.08,1.08,0,0,0-.4-1.22c-1.45-1.31-2.88-2.63-4.28-4a2,2,0,0,0-1.59-.58q-9.19.35-18.37.66c-.25,0-.49,0-.83,0l-.19-5,15-.55c-.24-.27-.38-.45-.55-.6-1.68-1.57-3.34-3.16-5.06-4.69a2.11,2.11,0,0,0-1.33-.49c-3.74.09-7.48.24-11.22.37h-1l-.19-5,8-.3-9.11-8.5L3065,81.4l9.14,8.48-.26-7.94,5-.18c.09,2.37.18,4.65.26,6.94.07,1.79.11,3.58.2,5.37a1.47,1.47,0,0,0,.31.92c1.91,1.82,3.85,3.61,6,5.59l-.53-15.07c1.58-.06,3.08-.15,4.57-.15.15,0,.44.45.45.7.18,4.15.33,8.29.49,12.44.08,2.07.13,4.15.24,6.22a1.86,1.86,0,0,0,.48,1.14q2.23,2.17,4.57,4.24a1.44,1.44,0,0,0,1.15.28c3.76-1.07,7.5-2.2,11.25-3.28a1.22,1.22,0,0,0,1-1.06c.42-1.91.94-3.8,1.33-5.71a2.23,2.23,0,0,0-.24-1.47c-3.14-5.18-6.32-10.33-9.49-15.49a7.1,7.1,0,0,0-.6-.75l4.54-2.74,7.7,12.64c.47-1.94.78-3.81,1.38-5.58a5,5,0,0,0-.76-4.89c-1.73-2.51-3.23-5.19-4.83-7.8-.19-.32-.38-.65-.54-.94l4.32-2.62,4,6.78L3119,65.35l5,1.19-2.87,11.9,6.48-4.12,2.69,4.53-6.72,4.1c-1.37.84-3.12,1.42-4,2.62s-.92,3.09-1.32,4.68c-.27,1.07-.52,2.14-.84,3.49L3130.13,86l2.47,4.39-7.5,4.55c-2.91,1.77-5.82,3.54-8.71,5.35a2.11,2.11,0,0,0-.83,1.14c-.53,1.95-1,3.92-1.45,5.88a1.11,1.11,0,0,0,.36,1.24c2.87,2.7,5.71,5.43,8.59,8.11a1.33,1.33,0,0,0,1.07.26q3.06-.79,6.09-1.72a1.84,1.84,0,0,0,.92-.83q4.51-8,9-16.06c.14-.24.29-.48.49-.8l4.37,2.41-7.35,13.2c2.81-.8,5.4-1.52,8-2.3.24-.07.44-.41.59-.67q2.77-4.94,5.52-9.88c.14-.24.29-.47.5-.81l4.36,2.41-3.85,7,12-3.39,1.37,4.82-12,3.42,6.93,3.88-2.42,4.38-6.46-3.58c-1.43-.79-2.85-1.6-4.29-2.38a1.51,1.51,0,0,0-1-.25c-2.58.69-5.14,1.43-7.92,2.22l13.19,7.36-2.43,4.37-5.16-2.85c-3.93-2.19-7.84-4.39-11.79-6.55a2.11,2.11,0,0,0-1.4-.16c-1.92.49-3.82,1.09-5.73,1.6a1.22,1.22,0,0,0-1,1q-1.28,5.53-2.65,11a1.13,1.13,0,0,0,.39,1.3c1.53,1.36,3,2.8,4.52,4.15a2.09,2.09,0,0,0,1.32.48c6.25-.18,12.51-.41,18.76-.63h.58l.2,5-15,.54a6.85,6.85,0,0,0,.5.6c1.65,1.55,3.33,3.08,5,4.66a2,2,0,0,0,1.6.57c3.77-.15,7.54-.28,11.31-.41.21,0,.43,0,.74,0l.2,4.95-8,.31,9.1,8.49-3.41,3.68-9-8.38a4.79,4.79,0,0,0-.1.7c.07,2.11.12,4.21.24,6.31,0,.66-.14.88-.82.88-1.35,0-2.7.08-4.17.14-.07-1.88-.15-3.72-.22-5.56-.08-2.23-.15-4.46-.24-6.69a1.51,1.51,0,0,0-.27-.95c-1.91-1.82-3.85-3.61-6-5.62l.52,15.07-5,.19c-.07-1.88-.15-3.69-.21-5.5-.17-4.65-.33-9.3-.53-13.94a1.82,1.82,0,0,0-.5-1.12q-2.23-2.17-4.56-4.25a1.31,1.31,0,0,0-1-.26c-3.82,1.09-7.62,2.24-11.43,3.34a1.11,1.11,0,0,0-.9.93c-.44,2-1,3.92-1.38,5.9a2.24,2.24,0,0,0,.24,1.48q4.57,7.58,9.22,15.1c.26.43.6.81.9,1.22l-4.52,2.65-7.73-12.73c-.36,1.49-.67,2.76-1,4s-1.07,2.89-.86,4.22,1.35,2.52,2.11,3.75c1.48,2.42,3,4.83,4.43,7.21l-4.25,2.51-3.79-6.33-.34.1-2.83,11.74-5-1.2Zm24.76-43.37c.46-1.9.89-3.8,1.39-5.7a1.17,1.17,0,0,0-.39-1.32q-4.27-4-8.49-8.06a1,1,0,0,0-1.15-.29c-3.77,1.14-7.55,2.22-11.31,3.37a1.39,1.39,0,0,0-.82.83q-1.44,5.73-2.77,11.49a1.39,1.39,0,0,0,.32,1.11c2.83,2.74,5.7,5.43,8.54,8.15a1,1,0,0,0,1.15.3q5.65-1.71,11.32-3.33a1.1,1.1,0,0,0,.87-.95C3117.53,131,3118,129.09,3118.45,127.22Z"/><path class="cls-5" d="M3111.4,125.48a4.17,4.17,0,1,1-8.12-1.91,4.17,4.17,0,0,1,8.12,1.91Z"/></g><g id="Layer_11" data-name="Layer 11"><polygon class="cls-6" points="1782.07 1357.13 463.94 1347.24 382.91 1183.22 1837.41 1193.1 1782.07 1357.13"/><path class="cls-6" d="M1778.65,1363.18,471.25,1352c-8.29-.07-9.85-11.81-1.87-14.05l338.84-95.14a7.16,7.16,0,0,1,1.95-.27l1212.53,2.55c8,0,34.3,19.72,26.74,22.43l-268.31,95.28A7.16,7.16,0,0,1,1778.65,1363.18Z"/><polygon class="cls-7" points="2105.91 1099.1 1831.48 1185.19 1784.05 1361.08 2051.51 1266.9 2105.91 1099.1"/><path class="cls-8" d="M2127.48,1091.36l-.74-29.42-104.66-9.81,20.71,25.07-1290.47-4.52a8.09,8.09,0,0,0-2.2.3l-392.9,108.53c-9,2.53-4.74,14.12,4.62,14.2L1846.56,1209a8.09,8.09,0,0,0,2.8-.47l255.88-101.91C2107.42,1103.38,2124.21,1097.9,2127.48,1091.36Z"/><polygon class="cls-8" points="423.56 1190.32 351.89 1187.56 358.15 1159.87 423.56 1166.86 423.56 1190.32"/><path class="cls-6" d="M1842.61,1181.37,365.45,1168.7c-9.36-.08-11.13-13.35-2.12-15.88l382.84-107.49a8.09,8.09,0,0,1,2.2-.3L2118,1046.68c21.8,15.26-2.36,35.1-10.9,38.16L1845.4,1180.9A8.09,8.09,0,0,1,1842.61,1181.37Z"/><polygon class="cls-8" points="826.37 1107.19 605.9 1107.19 448.43 1150.64 704.68 1153.36 826.37 1107.19"/><polygon class="cls-8" points="1101.19 1106.77 864.21 1106.77 753.61 1152.2 1009.87 1155.06 1101.19 1106.77"/><polygon class="cls-8" points="1371.02 1110.24 1142.62 1108.51 1052.32 1155.68 1291.84 1158.09 1371.02 1110.24"/><polygon class="cls-8" points="1666.61 1115.16 1414.01 1111.86 1334.76 1156.43 1570.85 1159.74 1666.61 1115.16"/><polygon class="cls-8" points="1959.12 1115.06 1715.21 1113.51 1612.13 1161.35 1841.98 1161.72 1959.12 1115.06"/><polygon class="cls-8" points="957.41 1058.68 758.58 1061.22 668.48 1087.82 858 1089.27 957.41 1058.68"/><polygon class="cls-8" points="1200.43 1057.83 992.25 1059.53 881.79 1095.21 1114.61 1094.36 1200.43 1057.83"/><polygon class="cls-8" points="1454.49 1057.83 1238.67 1059.53 1156.24 1096.06 1383.96 1096.91 1454.49 1057.83"/><polygon class="cls-8" points="1760.38 1062.92 1502.07 1060.38 1436.7 1093.64 1680.51 1099.46 1760.38 1062.92"/><polygon class="cls-8" points="2078.17 1062.92 1808.82 1064.62 1742.95 1094.59 1975.36 1096.91 2078.17 1062.92"/><path class="cls-9" d="M861.33,1164.51c-6.06-.6-12.81-2.39-15-3.91-3.19-2.22-1.38-14.31-1.14-17.45l3-40.67c.23-3.14,3.7-2.31,8-2h0c1.59,8.14.22,45.15,3.52,47.43,12.84,8.88,27.75,16.05,15.94,16.92A63,63,0,0,1,861.33,1164.51Z"/><path class="cls-9" d="M808.45,1165.67c-6.06-.6-12.81-2.39-15-3.91-3.19-2.22-1.38-14.31-1.14-17.45l3-40.67c.23-3.14,3.7-2.31,8-2h0c1.59,8.14.22,45.15,3.52,47.43,12.84,8.88,27.75,16.05,15.94,16.92A63,63,0,0,1,808.45,1165.67Z"/><path class="cls-9" d="M871.8,1025.33c33.14,24.48,84.71,35.65,107.31,0,1-1.54,3.32-1.49,3.32-3.32h0c0-1.82-2.11-4.68-3.32-3.32-40.15,45.63-82.36,10.43-107.31,0-1.68-.7-3.32,1.49-3.32,3.32h0C868.48,1023.84,870.33,1024.24,871.8,1025.33Z"/><rect class="cls-10" x="762.01" y="933.58" width="159.27" height="159.27" transform="translate(1683.3 2026.44) rotate(-180)"/><polygon class="cls-11" points="727.36 1107.71 762.01 1092.86 762.01 933.58 727.36 955.13 727.36 1107.71"/><polygon class="cls-11" points="727.36 1107.71 893.33 1107.71 921.28 1092.86 762.01 1092.86 727.36 1107.71"/><circle class="cls-9" cx="888.37" cy="986.91" r="6.73"/><circle class="cls-9" cx="806.01" cy="986.91" r="6.73"/><path class="cls-9" d="M720.89,1060.55c11.52-14.72,21.89-19.8,26.65-26.16,1.48-1.7,2.07-2.55.38-4h0a4.1,4.1,0,0,0-5.77.39s-38.54,32.79-47.94,58.34c-.78,2.11-3.93,14.66.85,10.09,1.11-1.06,9.72-17,10.28-18C708.58,1075.8,718.33,1063.82,720.89,1060.55Z"/><path class="cls-12" d="M678.51,1092.06c4.32-6.25,8.17-8.95,11.84-9.7-1.68-1.73-2.43-3.39-1.9-4.62,1.14-2.64,7.79-2.32,14.85.73s11.86,7.66,10.71,10.3c-.4.92-1.46,1.48-3,1.69,1.68,2,3,5.51,3.5,9.56.78,6.71-1.12,12.45-4.26,12.81-2.74.32-5.52-3.57-6.69-9-4.48,6.47-5.51,15.32-12.86,12.15C682.12,1112.23,673.44,1099.4,678.51,1092.06Z"/><path class="cls-13" d="M824.32,1020.64c.36,4.67,10.43,8.48,23.3,8.48s22.82-3.82,23.3-8.48c1.12-10.86-10.43-8.48-23.3-8.48S823.49,1009.78,824.32,1020.64Z"/><path class="cls-12" d="M970.74,1015.11a17.78,17.78,0,0,1-2.82-3.28c-3-4.47-3.61-9.35-1.32-10.89,1.86-1.26,5.06.09,7.82,3a22.37,22.37,0,0,1,1.34-2.42c5.66-8.94,9.19-14.78,17.36-9.61s13.52,15.63,7.86,24.57c-3.49,5.51-8.55,8.54-13.5,9a3.8,3.8,0,0,1-.46,2.21c-1.22,2.3-3.95,2.93-10.87-.76s-10.25-8.29-9-10.59C967.61,1015.35,968.9,1014.95,970.74,1015.11Z"/><path class="cls-9" d="M795.5,962c.34,1,5.31-3.54,11.16-5.36s11.57-1.18,11.23-2.22-5.48-2-11.92.09S795.17,960.94,795.5,962Z"/><path class="cls-9" d="M899.56,962c-.34,1-5.31-3.54-11.16-5.37s-11.57-1.19-11.23-2.23,5.48-2,11.92.1S899.9,960.95,899.56,962Z"/><path class="cls-9" d="M1106.23,1155.3c-6.06-.6-12.81-2.39-15-3.91-3.19-2.22-1.38-14.31-1.14-17.45l3-40.67c.23-3.14,3.7-2.31,8-2h0c1.59,8.14.22,45.15,3.52,47.43,12.84,8.88,27.75,16.05,15.94,16.92A63,63,0,0,1,1106.23,1155.3Z"/><path class="cls-9" d="M1053.35,1156.45c-6.06-.6-12.81-2.39-15-3.91-3.19-2.22-1.38-14.31-1.14-17.45l3-40.67c.23-3.14,3.7-2.31,8-2h0c1.59,8.14.22,45.15,3.52,47.43,12.84,8.88,27.75,16.05,15.94,16.92A63,63,0,0,1,1053.35,1156.45Z"/><path class="cls-9" d="M1116.7,1016.11c33.14,24.48,84.71,35.65,107.31,0,1-1.54,3.32-1.49,3.32-3.32h0c0-1.82-2.11-4.68-3.32-3.32-40.15,45.63-82.36,10.43-107.31,0-1.68-.7-3.32,1.49-3.32,3.32h0C1113.38,1014.62,1115.23,1015,1116.7,1016.11Z"/><rect class="cls-10" x="1006.91" y="924.37" width="159.27" height="159.27" transform="translate(2173.1 2008.01) rotate(-180)"/><polygon class="cls-11" points="972.26 1098.49 1006.91 1083.64 1006.91 924.37 972.26 945.91 972.26 1098.49"/><polygon class="cls-11" points="972.26 1098.49 1138.23 1098.49 1166.19 1083.64 1006.91 1083.64 972.26 1098.49"/><circle class="cls-9" cx="1133.27" cy="977.7" r="6.73"/><circle class="cls-9" cx="1050.91" cy="977.7" r="6.73"/><path class="cls-9" d="M965.79,1051.33c11.52-14.72,21.89-19.8,26.65-26.16,1.48-1.7,2.07-2.55.38-4h0a4.1,4.1,0,0,0-5.77.39s-38.54,32.79-47.94,58.34c-.78,2.11-3.93,14.66.85,10.09,1.11-1.06,9.72-17,10.28-18C953.49,1066.59,963.23,1054.6,965.79,1051.33Z"/><path class="cls-12" d="M923.41,1082.84c4.32-6.25,8.17-8.95,11.84-9.7-1.68-1.73-2.43-3.39-1.9-4.62,1.14-2.64,7.79-2.32,14.85.73s11.86,7.66,10.71,10.3c-.4.92-1.46,1.48-3,1.69,1.68,2,3,5.51,3.5,9.56.78,6.71-1.12,12.45-4.26,12.81-2.74.32-5.52-3.57-6.69-9-4.48,6.47-5.51,15.32-12.86,12.15C927,1103,918.34,1090.19,923.41,1082.84Z"/><path class="cls-13" d="M1069.23,1011.43c.36,4.67,10.43,8.48,23.3,8.48s22.82-3.82,23.3-8.48c1.12-10.86-10.43-8.48-23.3-8.48S1068.39,1000.56,1069.23,1011.43Z"/><path class="cls-12" d="M1215.64,1005.89a17.78,17.78,0,0,1-2.82-3.28c-3-4.47-3.61-9.35-1.32-10.89,1.86-1.26,5.06.09,7.82,3a22.37,22.37,0,0,1,1.34-2.42c5.66-8.94,9.19-14.78,17.36-9.61s13.52,15.63,7.86,24.57c-3.49,5.51-8.55,8.54-13.5,9a3.8,3.8,0,0,1-.46,2.21c-1.22,2.3-3.95,2.93-10.87-.76s-10.25-8.29-9-10.59C1212.51,1006.13,1213.8,1005.73,1215.64,1005.89Z"/><path class="cls-9" d="M1040.41,952.76c.34,1,5.31-3.54,11.16-5.36s11.57-1.18,11.23-2.22-5.48-2-11.92.09S1040.07,951.72,1040.41,952.76Z"/><path class="cls-9" d="M1144.46,952.77c-.34,1-5.31-3.54-11.16-5.37s-11.57-1.19-11.23-2.23,5.48-2,11.92.1S1144.8,951.73,1144.46,952.77Z"/><path class="cls-9" d="M1364.3,1155.3c-6.06-.6-12.81-2.39-15-3.91-3.19-2.22-1.38-14.31-1.14-17.45l3-40.67c.23-3.14,3.7-2.31,8-2h0c1.59,8.14.22,45.15,3.52,47.43,12.84,8.88,27.75,16.05,15.94,16.92A63,63,0,0,1,1364.3,1155.3Z"/><path class="cls-9" d="M1311.42,1156.45c-6.06-.6-12.81-2.39-15-3.91-3.19-2.22-1.38-14.31-1.14-17.45l3-40.67c.23-3.14,3.7-2.31,8-2h0c1.59,8.14.22,45.15,3.52,47.43,12.84,8.88,27.75,16.05,15.94,16.92A63,63,0,0,1,1311.42,1156.45Z"/><path class="cls-9" d="M1374.77,1016.11c33.14,24.48,84.71,35.65,107.31,0,1-1.54,3.32-1.49,3.32-3.32h0c0-1.82-2.11-4.68-3.32-3.32-40.15,45.63-82.36,10.43-107.31,0-1.68-.7-3.32,1.49-3.32,3.32h0C1371.45,1014.62,1373.3,1015,1374.77,1016.11Z"/><rect class="cls-10" x="1264.98" y="924.37" width="159.27" height="159.27" transform="translate(2689.24 2008.01) rotate(-180)"/><polygon class="cls-11" points="1230.33 1098.49 1264.98 1083.64 1264.98 924.37 1230.33 945.91 1230.33 1098.49"/><polygon class="cls-11" points="1230.33 1098.49 1396.3 1098.49 1424.25 1083.64 1264.98 1083.64 1230.33 1098.49"/><circle class="cls-9" cx="1391.34" cy="977.7" r="6.73"/><circle class="cls-9" cx="1308.98" cy="977.7" r="6.73"/><path class="cls-9" d="M1223.86,1051.33c11.52-14.72,21.89-19.8,26.65-26.16,1.48-1.7,2.07-2.55.38-4h0a4.1,4.1,0,0,0-5.77.39s-38.54,32.79-47.94,58.34c-.78,2.11-3.93,14.66.85,10.09,1.11-1.06,9.72-17,10.28-18C1211.55,1066.59,1221.3,1054.6,1223.86,1051.33Z"/><path class="cls-12" d="M1181.48,1082.84c4.32-6.25,8.17-8.95,11.84-9.7-1.68-1.73-2.43-3.39-1.9-4.62,1.14-2.64,7.79-2.32,14.85.73s11.86,7.66,10.71,10.3c-.4.92-1.46,1.48-3,1.69,1.68,2,3,5.51,3.5,9.56.78,6.71-1.12,12.45-4.26,12.81-2.74.32-5.52-3.57-6.69-9-4.48,6.47-5.51,15.32-12.86,12.15C1185.09,1103,1176.4,1090.19,1181.48,1082.84Z"/><path class="cls-13" d="M1327.29,1011.43c.36,4.67,10.43,8.48,23.3,8.48s22.82-3.82,23.3-8.48c1.12-10.86-10.43-8.48-23.3-8.48S1326.45,1000.56,1327.29,1011.43Z"/><path class="cls-12" d="M1473.71,1005.89a17.78,17.78,0,0,1-2.82-3.28c-3-4.47-3.61-9.35-1.32-10.89,1.86-1.26,5.06.09,7.82,3a22.37,22.37,0,0,1,1.34-2.42c5.66-8.94,9.19-14.78,17.36-9.61s13.52,15.63,7.86,24.57c-3.49,5.51-8.55,8.54-13.5,9a3.8,3.8,0,0,1-.46,2.21c-1.22,2.3-3.95,2.93-10.87-.76s-10.25-8.29-9-10.59C1470.58,1006.13,1471.87,1005.73,1473.71,1005.89Z"/><path class="cls-9" d="M1298.47,952.76c.34,1,5.31-3.54,11.16-5.36s11.57-1.18,11.23-2.22-5.48-2-11.92.09S1298.14,951.72,1298.47,952.76Z"/><path class="cls-9" d="M1402.53,952.77c-.34,1-5.31-3.54-11.16-5.37s-11.57-1.19-11.23-2.23,5.48-2,11.92.1S1402.87,951.73,1402.53,952.77Z"/><path class="cls-9" d="M1634.22,1154c-6.06-.6-12.81-2.39-15-3.91-3.19-2.22-1.38-14.31-1.14-17.45l3-40.67c.23-3.14,3.7-2.31,8-2h0c1.59,8.14.22,45.15,3.52,47.43,12.84,8.88,27.75,16.05,15.94,16.92A63,63,0,0,1,1634.22,1154Z"/><path class="cls-9" d="M1581.34,1155.14c-6.06-.6-12.81-2.39-15-3.91-3.19-2.22-1.38-14.31-1.14-17.45l3-40.67c.23-3.14,3.7-2.31,8-2h0c1.59,8.14.22,45.15,3.52,47.43,12.84,8.88,27.75,16.05,15.94,16.92A63,63,0,0,1,1581.34,1155.14Z"/><path class="cls-9" d="M1644.69,1014.79c33.14,24.48,84.71,35.65,107.31,0,1-1.54,3.32-1.49,3.32-3.32h0c0-1.82-2.11-4.68-3.32-3.32-40.15,45.63-82.36,10.43-107.31,0-1.68-.7-3.32,1.49-3.32,3.32h0C1641.37,1013.3,1643.22,1013.71,1644.69,1014.79Z"/><rect class="cls-10" x="1534.9" y="923.05" width="159.27" height="159.27" transform="translate(3229.07 2005.37) rotate(-180)"/><polygon class="cls-11" points="1500.25 1097.17 1534.9 1082.32 1534.9 923.05 1500.25 944.6 1500.25 1097.17"/><polygon class="cls-11" points="1500.25 1097.17 1666.22 1097.17 1694.17 1082.32 1534.9 1082.32 1500.25 1097.17"/><circle class="cls-9" cx="1661.26" cy="976.38" r="6.73"/><circle class="cls-9" cx="1578.9" cy="976.38" r="6.73"/><path class="cls-9" d="M1493.77,1050c11.52-14.72,21.89-19.8,26.65-26.16,1.48-1.7,2.07-2.55.38-4h0a4.1,4.1,0,0,0-5.77.39s-38.54,32.79-47.94,58.34c-.78,2.11-3.93,14.66.85,10.09,1.11-1.06,9.72-17,10.28-18C1481.47,1065.27,1491.21,1053.28,1493.77,1050Z"/><path class="cls-12" d="M1451.39,1081.53c4.32-6.25,8.17-8.95,11.84-9.7-1.68-1.73-2.43-3.39-1.9-4.62,1.14-2.64,7.79-2.32,14.85.73s11.86,7.66,10.71,10.3c-.4.92-1.46,1.48-3,1.69,1.68,2,3,5.51,3.5,9.56.78,6.71-1.12,12.45-4.26,12.81-2.74.32-5.52-3.57-6.69-9-4.48,6.47-5.51,15.32-12.86,12.15C1455,1101.7,1446.32,1088.87,1451.39,1081.53Z"/><path class="cls-13" d="M1597.21,1010.11c.36,4.67,10.43,8.48,23.3,8.48s22.82-3.82,23.3-8.48c1.12-10.86-10.43-8.48-23.3-8.48S1596.37,999.25,1597.21,1010.11Z"/><path class="cls-12" d="M1743.62,1004.57a17.78,17.78,0,0,1-2.82-3.28c-3-4.47-3.61-9.35-1.32-10.89,1.86-1.26,5.06.09,7.82,3a22.37,22.37,0,0,1,1.34-2.42c5.66-8.94,9.19-14.78,17.36-9.61s13.52,15.63,7.86,24.57c-3.49,5.51-8.55,8.54-13.5,9a3.8,3.8,0,0,1-.46,2.21c-1.22,2.3-3.95,2.93-10.87-.76s-10.25-8.29-9-10.59C1740.5,1004.81,1741.78,1004.42,1743.62,1004.57Z"/><path class="cls-9" d="M1568.39,951.44c.34,1,5.31-3.54,11.16-5.36s11.57-1.18,11.23-2.22-5.48-2-11.92.09S1568.05,950.4,1568.39,951.44Z"/><path class="cls-9" d="M1672.45,951.45c-.34,1-5.31-3.54-11.16-5.37s-11.57-1.19-11.23-2.23,5.48-2,11.92.1S1672.79,950.41,1672.45,951.45Z"/><path class="cls-9" d="M1962.07,1155.3c-6.06-.6-12.81-2.39-15-3.91-3.19-2.22-1.38-14.31-1.14-17.45l3-40.67c.23-3.14,3.7-2.31,8-2h0c1.59,8.14.22,45.15,3.52,47.43,12.84,8.88,27.75,16.05,15.94,16.92A63,63,0,0,1,1962.07,1155.3Z"/><path class="cls-9" d="M1909.19,1156.45c-6.06-.6-12.81-2.39-15-3.91-3.19-2.22-1.38-14.31-1.14-17.45l3-40.67c.23-3.14,3.7-2.31,8-2h0c1.59,8.14.22,45.15,3.52,47.43,12.84,8.88,27.75,16.05,15.94,16.92A63,63,0,0,1,1909.19,1156.45Z"/><path class="cls-9" d="M1972.54,1016.11c33.14,24.48,84.71,35.65,107.31,0,1-1.54,3.32-1.49,3.32-3.32h0c0-1.82-2.11-4.68-3.32-3.32-40.15,45.63-82.36,10.43-107.31,0-1.68-.7-3.32,1.49-3.32,3.32h0C1969.22,1014.62,1971.07,1015,1972.54,1016.11Z"/><rect class="cls-10" x="1862.75" y="924.37" width="159.27" height="159.27" transform="translate(3884.77 2008.01) rotate(-180)"/><polygon class="cls-11" points="1828.1 1098.49 1862.75 1083.64 1862.75 924.37 1828.1 945.91 1828.1 1098.49"/><polygon class="cls-11" points="1828.1 1098.49 1994.07 1098.49 2022.02 1083.64 1862.75 1083.64 1828.1 1098.49"/><circle class="cls-9" cx="1989.11" cy="977.7" r="6.73"/><circle class="cls-9" cx="1906.75" cy="977.7" r="6.73"/><path class="cls-9" d="M1821.62,1051.33c11.52-14.72,21.89-19.8,26.65-26.16,1.48-1.7,2.07-2.55.38-4h0a4.1,4.1,0,0,0-5.77.39s-38.54,32.79-47.94,58.34c-.78,2.11-3.93,14.66.85,10.09,1.11-1.06,9.72-17,10.28-18C1809.32,1066.59,1819.06,1054.6,1821.62,1051.33Z"/><path class="cls-12" d="M1779.24,1082.84c4.32-6.25,8.17-8.95,11.84-9.7-1.68-1.73-2.43-3.39-1.9-4.62,1.14-2.64,7.79-2.32,14.85.73s11.86,7.66,10.71,10.3c-.4.92-1.46,1.48-3,1.69,1.68,2,3,5.51,3.5,9.56.78,6.71-1.12,12.45-4.26,12.81-2.74.32-5.52-3.57-6.69-9-4.48,6.47-5.51,15.32-12.86,12.15C1782.86,1103,1774.17,1090.19,1779.24,1082.84Z"/><path class="cls-13" d="M1925.06,1011.43c.36,4.67,10.43,8.48,23.3,8.48s22.82-3.82,23.3-8.48c1.12-10.86-10.43-8.48-23.3-8.48S1924.22,1000.56,1925.06,1011.43Z"/><path class="cls-12" d="M2071.48,1005.89a17.78,17.78,0,0,1-2.82-3.28c-3-4.47-3.61-9.35-1.32-10.89,1.86-1.26,5.06.09,7.82,3a22.37,22.37,0,0,1,1.34-2.42c5.66-8.94,9.19-14.78,17.36-9.61s13.52,15.63,7.86,24.57c-3.49,5.51-8.55,8.54-13.5,9a3.8,3.8,0,0,1-.46,2.21c-1.22,2.3-3.95,2.93-10.87-.76s-10.25-8.29-9-10.59C2068.35,1006.13,2069.64,1005.73,2071.48,1005.89Z"/><path class="cls-9" d="M1896.24,952.76c.34,1,5.31-3.54,11.16-5.36s11.57-1.18,11.23-2.22-5.48-2-11.92.09S1895.9,951.72,1896.24,952.76Z"/><path class="cls-9" d="M2000.3,952.77c-.34,1-5.31-3.54-11.16-5.37s-11.57-1.19-11.23-2.23,5.48-2,11.92.1S2000.64,951.73,2000.3,952.77Z"/><path class="cls-9" d="M687.53,1239.56c-6.06-.6-12.81-2.39-15-3.91-3.19-2.22-1.38-14.31-1.14-17.45l3-40.67c.23-3.14,3.7-2.31,8-2h0c1.59,8.14.22,45.15,3.52,47.43,12.84,8.88,27.75,16.05,15.94,16.92A63,63,0,0,1,687.53,1239.56Z"/><path class="cls-9" d="M634.65,1240.72c-6.06-.6-12.81-2.39-15-3.91-3.19-2.22-1.38-14.31-1.14-17.45l3-40.67c.23-3.14,3.7-2.31,8-2h0c1.59,8.14.22,45.15,3.52,47.43,12.84,8.88,27.75,16.05,15.94,16.92A63,63,0,0,1,634.65,1240.72Z"/><path class="cls-9" d="M698,1100.38c33.14,24.48,84.71,35.65,107.31,0,1-1.54,3.32-1.49,3.32-3.32h0c0-1.82-2.11-4.68-3.32-3.32-40.15,45.63-82.36,10.43-107.31,0-1.68-.7-3.32,1.49-3.32,3.32h0C694.68,1098.89,696.53,1099.3,698,1100.38Z"/><rect class="cls-10" x="588.21" y="1008.63" width="159.27" height="159.27" transform="translate(1335.7 2176.54) rotate(-180)"/><polygon class="cls-11" points="553.56 1182.76 588.21 1167.91 588.21 1008.63 553.56 1030.18 553.56 1182.76"/><polygon class="cls-11" points="553.56 1182.76 719.53 1182.76 747.49 1167.91 588.21 1167.91 553.56 1182.76"/><circle class="cls-9" cx="714.57" cy="1061.97" r="6.73"/><circle class="cls-9" cx="632.21" cy="1061.97" r="6.73"/><path class="cls-9" d="M547.09,1135.6c11.52-14.72,21.89-19.8,26.65-26.16,1.48-1.7,2.07-2.55.38-4h0a4.1,4.1,0,0,0-5.77.39s-38.54,32.79-47.94,58.34c-.78,2.11-3.93,14.66.85,10.09,1.11-1.06,9.72-17,10.28-18C534.78,1150.85,544.53,1138.87,547.09,1135.6Z"/><path class="cls-12" d="M504.71,1167.11c4.32-6.25,8.17-8.95,11.84-9.7-1.68-1.73-2.43-3.39-1.9-4.62,1.14-2.64,7.79-2.32,14.85.73s11.86,7.66,10.71,10.3c-.4.92-1.46,1.48-3,1.69,1.68,2,3,5.51,3.5,9.56.78,6.71-1.12,12.45-4.26,12.81-2.74.32-5.52-3.57-6.69-9-4.48,6.47-5.51,15.32-12.86,12.15C508.32,1187.28,499.63,1174.46,504.71,1167.11Z"/><path class="cls-13" d="M650.52,1095.7c.36,4.67,10.43,8.48,23.3,8.48s22.82-3.82,23.3-8.48c1.12-10.86-10.43-8.48-23.3-8.48S649.69,1084.83,650.52,1095.7Z"/><path class="cls-12" d="M796.94,1090.16a17.78,17.78,0,0,1-2.82-3.28c-3-4.47-3.61-9.35-1.32-10.89,1.86-1.26,5.06.09,7.82,3a22.37,22.37,0,0,1,1.34-2.42c5.66-8.94,9.19-14.78,17.36-9.61s13.52,15.63,7.86,24.57c-3.49,5.51-8.55,8.54-13.5,9a3.8,3.8,0,0,1-.46,2.21c-1.22,2.3-3.95,2.93-10.87-.76s-10.25-8.29-9-10.59C793.81,1090.4,795.1,1090,796.94,1090.16Z"/><path class="cls-9" d="M621.7,1037c.34,1,5.31-3.54,11.16-5.36s11.57-1.18,11.23-2.22-5.48-2-11.92.09S621.37,1036,621.7,1037Z"/><path class="cls-9" d="M725.76,1037c-.34,1-5.31-3.54-11.16-5.37s-11.57-1.19-11.23-2.23,5.48-2,11.92.1S726.1,1036,725.76,1037Z"/><path class="cls-9" d="M1253.7,1239.56c-6.06-.6-12.81-2.39-15-3.91-3.19-2.22-1.38-14.31-1.14-17.45l3-40.67c.23-3.14,3.7-2.31,8-2h0c1.59,8.14.22,45.15,3.52,47.43,12.84,8.88,27.75,16.05,15.94,16.92A63,63,0,0,1,1253.7,1239.56Z"/><path class="cls-9" d="M1200.82,1240.72c-6.06-.6-12.81-2.39-15-3.91-3.19-2.22-1.38-14.31-1.14-17.45l3-40.67c.23-3.14,3.7-2.31,8-2h0c1.59,8.14.22,45.15,3.52,47.43,12.84,8.88,27.75,16.05,15.94,16.92A63,63,0,0,1,1200.82,1240.72Z"/><path class="cls-9" d="M1264.17,1100.38c33.14,24.48,84.71,35.65,107.31,0,1-1.54,3.32-1.49,3.32-3.32h0c0-1.82-2.11-4.68-3.32-3.32-40.15,45.63-82.36,10.43-107.31,0-1.68-.7-3.32,1.49-3.32,3.32h0C1260.85,1098.89,1262.7,1099.3,1264.17,1100.38Z"/><rect class="cls-10" x="1154.38" y="1008.63" width="159.27" height="159.27" transform="translate(2468.03 2176.54) rotate(-180)"/><polygon class="cls-11" points="1119.73 1182.76 1154.38 1167.91 1154.38 1008.63 1119.73 1030.18 1119.73 1182.76"/><polygon class="cls-11" points="1119.73 1182.76 1285.7 1182.76 1313.65 1167.91 1154.38 1167.91 1119.73 1182.76"/><circle class="cls-9" cx="1280.74" cy="1061.97" r="6.73"/><circle class="cls-9" cx="1198.38" cy="1061.97" r="6.73"/><path class="cls-9" d="M1113.25,1135.6c11.52-14.72,21.89-19.8,26.65-26.16,1.48-1.7,2.07-2.55.38-4h0a4.1,4.1,0,0,0-5.77.39s-38.54,32.79-47.94,58.34c-.78,2.11-3.93,14.66.85,10.09,1.11-1.06,9.72-17,10.28-18C1101,1150.85,1110.69,1138.87,1113.25,1135.6Z"/><path class="cls-12" d="M1070.87,1167.11c4.32-6.25,8.17-8.95,11.84-9.7-1.68-1.73-2.43-3.39-1.9-4.62,1.14-2.64,7.79-2.32,14.85.73s11.86,7.66,10.71,10.3c-.4.92-1.46,1.48-3,1.69,1.68,2,3,5.51,3.5,9.56.78,6.71-1.12,12.45-4.26,12.81-2.74.32-5.52-3.57-6.69-9-4.48,6.47-5.51,15.32-12.86,12.15C1074.49,1187.28,1065.8,1174.46,1070.87,1167.11Z"/><path class="cls-13" d="M1216.69,1095.7c.36,4.67,10.43,8.48,23.3,8.48s22.82-3.82,23.3-8.48c1.12-10.86-10.43-8.48-23.3-8.48S1215.85,1084.83,1216.69,1095.7Z"/><path class="cls-12" d="M1363.11,1090.16a17.78,17.78,0,0,1-2.82-3.28c-3-4.47-3.61-9.35-1.32-10.89,1.86-1.26,5.06.09,7.82,3a22.37,22.37,0,0,1,1.34-2.42c5.66-8.94,9.19-14.78,17.36-9.61s13.52,15.63,7.86,24.57c-3.49,5.51-8.55,8.54-13.5,9a3.8,3.8,0,0,1-.46,2.21c-1.22,2.3-3.95,2.93-10.87-.76s-10.25-8.29-9-10.59C1360,1090.4,1361.27,1090,1363.11,1090.16Z"/><path class="cls-9" d="M1187.87,1037c.34,1,5.31-3.54,11.16-5.36s11.57-1.18,11.23-2.22-5.48-2-11.92.09S1187.53,1036,1187.87,1037Z"/><path class="cls-9" d="M1291.93,1037c-.34,1-5.31-3.54-11.16-5.37s-11.57-1.19-11.23-2.23,5.48-2,11.92.1S1292.27,1036,1291.93,1037Z"/><path class="cls-9" d="M1522.3,1240.88c-6.06-.6-12.81-2.39-15-3.91-3.19-2.22-1.38-14.31-1.14-17.45l3-40.67c.23-3.14,3.7-2.31,8-2h0c1.59,8.14.22,45.15,3.52,47.43,12.84,8.88,27.75,16.05,15.94,16.92A63,63,0,0,1,1522.3,1240.88Z"/><path class="cls-9" d="M1469.42,1242c-6.06-.6-12.81-2.39-15-3.91-3.19-2.22-1.38-14.31-1.14-17.45l3-40.67c.23-3.14,3.7-2.31,8-2h0c1.59,8.14.22,45.15,3.52,47.43,12.84,8.88,27.75,16.05,15.94,16.92A63,63,0,0,1,1469.42,1242Z"/><path class="cls-9" d="M1532.77,1101.7c33.14,24.48,84.71,35.65,107.31,0,1-1.54,3.32-1.49,3.32-3.32h0c0-1.82-2.11-4.68-3.32-3.32-40.15,45.63-82.36,10.43-107.31,0-1.68-.7-3.32,1.49-3.32,3.32h0C1529.45,1100.2,1531.3,1100.61,1532.77,1101.7Z"/><rect class="cls-10" x="1422.98" y="1009.95" width="159.27" height="159.27" transform="translate(3005.24 2179.17) rotate(-180)"/><polygon class="cls-11" points="1388.33 1184.07 1422.98 1169.22 1422.98 1009.95 1388.33 1031.5 1388.33 1184.07"/><polygon class="cls-11" points="1388.33 1184.07 1554.3 1184.07 1582.26 1169.22 1422.98 1169.22 1388.33 1184.07"/><circle class="cls-9" cx="1549.34" cy="1063.28" r="6.73"/><circle class="cls-9" cx="1466.98" cy="1063.28" r="6.73"/><path class="cls-9" d="M1381.86,1136.91c11.52-14.72,21.89-19.8,26.65-26.16,1.48-1.7,2.07-2.55.38-4h0a4.1,4.1,0,0,0-5.77.39s-38.54,32.79-47.94,58.34c-.78,2.11-3.93,14.66.85,10.09,1.11-1.06,9.72-17,10.28-18C1369.55,1152.17,1379.3,1140.18,1381.86,1136.91Z"/><path class="cls-12" d="M1339.48,1168.43c4.32-6.25,8.17-8.95,11.84-9.7-1.68-1.73-2.43-3.39-1.9-4.62,1.14-2.64,7.79-2.32,14.85.73s11.86,7.66,10.71,10.3c-.4.92-1.46,1.48-3,1.69,1.68,2,3,5.51,3.5,9.56.78,6.71-1.12,12.45-4.26,12.81-2.74.32-5.52-3.57-6.69-9-4.48,6.47-5.51,15.32-12.86,12.15C1343.09,1188.6,1334.41,1175.77,1339.48,1168.43Z"/><path class="cls-13" d="M1485.29,1097c.36,4.67,10.43,8.48,23.3,8.48s22.82-3.82,23.3-8.48c1.12-10.86-10.43-8.48-23.3-8.48S1484.46,1086.15,1485.29,1097Z"/><path class="cls-12" d="M1631.71,1091.47a17.78,17.78,0,0,1-2.82-3.28c-3-4.47-3.61-9.35-1.32-10.89,1.86-1.26,5.06.09,7.82,3a22.37,22.37,0,0,1,1.34-2.42c5.66-8.94,9.19-14.78,17.36-9.61s13.52,15.63,7.86,24.57c-3.49,5.51-8.55,8.54-13.5,9a3.8,3.8,0,0,1-.46,2.21c-1.22,2.3-3.95,2.93-10.87-.76s-10.25-8.29-9-10.59C1628.58,1091.72,1629.87,1091.32,1631.71,1091.47Z"/><path class="cls-9" d="M1456.47,1038.34c.34,1,5.31-3.54,11.16-5.36s11.57-1.18,11.23-2.22-5.48-2-11.92.09S1456.14,1037.3,1456.47,1038.34Z"/><path class="cls-9" d="M1560.53,1038.35c-.34,1-5.31-3.54-11.16-5.37s-11.57-1.19-11.23-2.23,5.48-2,11.92.1S1560.87,1037.31,1560.53,1038.35Z"/><path class="cls-9" d="M1806.7,1240.88c-6.06-.6-12.81-2.39-15-3.91-3.19-2.22-1.38-14.31-1.14-17.45l3-40.67c.23-3.14,3.7-2.31,8-2h0c1.59,8.14.22,45.15,3.52,47.43,12.84,8.88,27.75,16.05,15.94,16.92A63,63,0,0,1,1806.7,1240.88Z"/><path class="cls-9" d="M1753.82,1242c-6.06-.6-12.81-2.39-15-3.91-3.19-2.22-1.38-14.31-1.14-17.45l3-40.67c.23-3.14,3.7-2.31,8-2h0c1.59,8.14.22,45.15,3.52,47.43,12.84,8.88,27.75,16.05,15.94,16.92A63,63,0,0,1,1753.82,1242Z"/><path class="cls-9" d="M1817.17,1101.7c33.14,24.48,84.71,35.65,107.31,0,1-1.54,3.32-1.49,3.32-3.32h0c0-1.82-2.11-4.68-3.32-3.32-40.15,45.63-82.36,10.43-107.31,0-1.68-.7-3.32,1.49-3.32,3.32h0C1813.85,1100.2,1815.7,1100.61,1817.17,1101.7Z"/><rect class="cls-10" x="1707.38" y="1009.95" width="159.27" height="159.27" transform="translate(3574.04 2179.17) rotate(-180)"/><polygon class="cls-11" points="1672.73 1184.07 1707.38 1169.22 1707.38 1009.95 1672.73 1031.5 1672.73 1184.07"/><polygon class="cls-11" points="1672.73 1184.07 1838.7 1184.07 1866.66 1169.22 1707.38 1169.22 1672.73 1184.07"/><circle class="cls-9" cx="1833.74" cy="1063.28" r="6.73"/><circle class="cls-9" cx="1751.38" cy="1063.28" r="6.73"/><path class="cls-9" d="M1666.26,1136.91c11.52-14.72,21.89-19.8,26.65-26.16,1.48-1.7,2.07-2.55.38-4h0a4.1,4.1,0,0,0-5.77.39s-38.54,32.79-47.94,58.34c-.78,2.11-3.93,14.66.85,10.09,1.11-1.06,9.72-17,10.28-18C1654,1152.17,1663.7,1140.18,1666.26,1136.91Z"/><path class="cls-12" d="M1623.88,1168.43c4.32-6.25,8.17-8.95,11.84-9.7-1.68-1.73-2.43-3.39-1.9-4.62,1.14-2.64,7.79-2.32,14.85.73s11.86,7.66,10.71,10.3c-.4.92-1.46,1.48-3,1.69,1.68,2,3,5.51,3.5,9.56.78,6.71-1.12,12.45-4.26,12.81-2.74.32-5.52-3.57-6.69-9-4.48,6.47-5.51,15.32-12.86,12.15C1627.49,1188.6,1618.81,1175.77,1623.88,1168.43Z"/><path class="cls-13" d="M1769.7,1097c.36,4.67,10.43,8.48,23.3,8.48s22.82-3.82,23.3-8.48c1.12-10.86-10.43-8.48-23.3-8.48S1768.86,1086.15,1769.7,1097Z"/><path class="cls-12" d="M1916.11,1091.47a17.78,17.78,0,0,1-2.82-3.28c-3-4.47-3.61-9.35-1.32-10.89,1.86-1.26,5.06.09,7.82,3a22.37,22.37,0,0,1,1.34-2.42c5.66-8.94,9.19-14.78,17.36-9.61s13.52,15.63,7.86,24.57c-3.49,5.51-8.55,8.54-13.5,9a3.8,3.8,0,0,1-.46,2.21c-1.22,2.3-3.95,2.93-10.87-.76s-10.25-8.29-9-10.59C1913,1091.72,1914.27,1091.32,1916.11,1091.47Z"/><path class="cls-9" d="M1740.88,1038.34c.34,1,5.31-3.54,11.16-5.36s11.57-1.18,11.23-2.22-5.48-2-11.92.09S1740.54,1037.3,1740.88,1038.34Z"/><path class="cls-9" d="M1844.93,1038.35c-.34,1-5.31-3.54-11.16-5.37s-11.57-1.19-11.23-2.23,5.48-2,11.92.1S1845.27,1037.31,1844.93,1038.35Z"/><polygon class="cls-6" points="1769.45 1324.75 499.48 1324.75 499.48 1185.18 1769.45 1198.35 1769.45 1324.75"/><polygon class="cls-8" points="1822.12 1208.88 401.43 1195.71 405.38 1169.38 1839.23 1173.33 1822.12 1208.88"/><polygon class="cls-6" points="1836.6 1182.55 425.09 1168.72 434.34 1148.31 1851.08 1168.06 1836.6 1182.55"/></g><g id="Layer_17" data-name="Layer 17"><ellipse class="cls-14" cx="2889.28" cy="1174.78" rx="375.97" ry="116.07"/><ellipse class="cls-15" cx="2887.28" cy="1146.78" rx="375.97" ry="116.07"/><rect class="cls-15" x="2511.61" y="1140.57" width="750.76" height="44"/><path class="cls-9" d="M2883.39,1185.12l-23.08,2.43c-12.38,2.69-33.47,3.41-30.84,0,7-9,29.17-12.67,40.15-26.46,2.69-3.38,9.35-99.15,23.51-97.58h0c4.26.68,8.94,3,6.5,6.56-14.78,21.63-14.47,97.76-14.47,97.76C2884.49,1172.09,2887.69,1184.69,2883.39,1185.12Z"/><path class="cls-9" d="M2938.32,1188.16l23.08,2.43c12.38,2.69,33.47,3.41,30.84,0-7-9-29.17-12.67-40.15-26.46-2.69-3.38-26.24-122-28.78-87.44l-.25-8.29c-4.26.68-9.11,3.85-6.44,7.24,16.54,21,19.92,95.22,19.92,95.22C2937.23,1175.12,2934,1187.72,2938.32,1188.16Z"/><path class="cls-9" d="M2800,838c-18.34,35.3-31.51,53.48-38.77,48.4-2.62-1.83,12.9-15.85,31.24-51.15s22.69-65.92,25.76-66C2830.44,768.7,2818.39,802.7,2800,838Z"/><path class="cls-16" d="M2775.52,860c-6.95-3.37-13.59-4-14.83-1.47-.73,1.51.58,3.8,3.19,6.11-14.41.06-33.54,12.54-33.54,21.48s9.59,9.84,24,9.84c8,0,11.18-2.65,14.63-6.3.21,3.83,1.63,6.71,3.88,7.22,3.3.74,6.29-4.14,8.6-10.33a14,14,0,0,0-.46-10.9c-.48-1.29-1.19-2.6-1.52-3.56,3.23.52,5.65.1,6.35-1.35C2787.09,868.14,2782.47,863.33,2775.52,860Z"/><path class="cls-9" d="M2889.79,480c-17-4.58-53.24-8-93,4.1s-70,35.35-74.13,48.64c-4.25,13.63,47.78,6.28,87.58-5.78S2906.27,484.49,2889.79,480Z"/><path class="cls-9" d="M2854.39,540.14l-62.12,17.75c-16.07,5.23-19.66-9.84-27.62-22.21h0c-8.4-20.41,2.76-23.88,14.25-27.54l49.25-15.67c11.49-3.66,23.26-7.39,27.54,14.25h0A98.55,98.55,0,0,1,2854.39,540.14Z"/><path class="cls-17" d="M2916.14,1126.81C2891.66,1142.87,2785,756.47,2785,756.47l48.12-20.83,117.19-8.49S2929.61,1118,2916.14,1126.81Z"/><path class="cls-18" d="M2985,648c0,75.83-58.47,121.23-130.61,121.23S2709.33,742,2709.33,646.55c0-87.59,72.93-119.81,145.06-119.81S2985,581,2985,648Z"/><path class="cls-19" d="M2907.26,760.19c24.9,15.24,17.2,349,4.56,357.27,0,0-1.54,4.2-6.26.39,5.7,8.52,8.94,9.61,10.87,8.35,13.46-8.83,34.42-405.82,34.42-405.82Z"/><path class="cls-20" d="M2949.65,729.45l-4.67-5.72-4.9.35,9.24,11.31C2949.45,733.11,2949.56,731.12,2949.65,729.45Z"/><path class="cls-20" d="M2920.62,1106.43q.62-3.6,1.25-7.87l-14.58,17.83-5-6.07c4.11,7.31,7.69,11.85,10.58,12.94l-3-3.7Z"/><path class="cls-20" d="M2789.14,768.67l17.69,21.63-8.57,10.48,1.35,4.69,9.81-12L2832.77,822l-19.4,23.72-3.22-3.94q1.51,5.14,3.08,10.46l.15-.18L2834.55,878l-10,12.23,1.4,4.63,11.19-13.69,23.28,28.47-19.71,24.11-4.55-5.57q2,6.32,3.95,12.66l.61-.74,19.62,24-9.23,11.29,1.47,4.54,10.35-12.65,19.26,23.55-17,20.82-3.48-4.26q1.86,5.5,3.7,10.87l19.18,23.45-7.57,9.26,1.62,4.36,8.54-10.45,19.71,24.11-15.37,18.79q.91,2.12,1.8,4.14l16.16-19.76,13.75,16.82q.34-2.66.69-5.5L2912,1068.95l15.46-18.91q.44-4.45.87-9.09l-19-23.26,19.71-24.11,3.09,3.78q.23-2.87.46-5.77l-1-1.18,1.18-1.44q.28-3.49.55-7l-4.32,5.28-19.4-23.72,19.4-23.72,6.87,8.4q.21-2.91.42-5.83l-4.69-5.74,5.59-6.84q.24-3.47.49-6.94l-8.67,10.6-19.26-23.55,19.26-23.55,10.31,12.6.39-5.86-8.11-9.91,9.52-11.65q.22-3.46.44-6.88L2929.07,880l-19.62-24,19.62-24,13.58,16.61.37-5.89-11.36-13.89,13.2-16.14.41-6.84-16.21,19.82-23.28-28.47,23.28-28.47,17.16,21,.35-5.92-14.92-18.24,17.16-21q.21-3.7.38-6.8l-20.13,24.62-21.17-25.89,8.77-10.72-5.51.4-5.85,7.15-5.19-6.35-4.9.35,7.5,9.17L2879.43,765l-23.36-28.57,5.42-6.63-5.51.4-2.51,3.06-2.23-2.72-4.9.35,4.53,5.54-19.62,24-16.84-20.59-3.83,1.66,18.08,22.11-19.26,23.55-20.79-25.42,13.57-16.6-8,3.48-7.94,9.71C2787,760.92,2787.94,764.41,2789.14,768.67ZM2816,848.93l19.4-23.72,21.17,25.89-19.4,23.72Zm45.75,2.17L2881,827.54,2904.26,856,2885,879.56Zm42.9,58.8-19.4,23.72-19.62-24,19.4-23.72Zm-45.49-62L2838,822l19.26-23.55,21.17,25.89ZM2839.73,878l19.4-23.72,23.28,28.47L2863,906.46Zm23.19,82.91-19.62-24L2863,912.8l19.62,24Zm2.59,3.17L2885.23,940l19.26,23.55-19.71,24.11Zm2.23,50.71,17-20.82,19.4,23.72-17,20.82Zm58.73,30.18-17,20.82-19.71-24.11,17-20.82Zm0-54.56-19.71,24.11-19.4-23.72,19.71-24.11Zm0-53.79-19.4,23.72-19.26-23.55,19.4-23.72Zm0-53.44-19.26,23.55-19.62-24,19.26-23.55Zm0-54.32-19.62,24-23.28-28.47,19.62-24Zm-21.17-89.17,21.17,25.89L2903.19,794,2882,768.15Zm-4.71,57.53-19.62,24-21.17-25.89,19.62-24Zm-47.12-57.62,23.36,28.57-19.62,24-23.36-28.57Zm-22.21,27.16,23.36,28.56-19.26,23.55L2812,790.3Z"/><path class="cls-5" d="M2850.4,700.83c0,9.86-19.45,20.48-35.48,20.48s-33.38-11.14-33.38-21,13-8,29-8S2850.4,691,2850.4,700.83Z"/><circle class="cls-9" cx="2742.82" cy="637.02" r="7.38"/><circle class="cls-9" cx="2847.77" cy="629.02" r="7.38"/><circle class="cls-21" cx="2808.61" cy="761.22" r="23.45"/><path class="cls-22" d="M2884.74,530c51.15,18.19,87,60.3,87,109.35,0,65.69-64.27,118.95-143.55,118.95a172,172,0,0,1-36.09-3.79,138,138,0,0,0,62.3,14.65c72.13,0,126.91-42.89,130.61-121.23C2988.65,570.52,2942.23,542.73,2884.74,530Z"/><path class="cls-23" d="M2984.06,706.74c-6.61-19.44-19.06-27.38-42.57-27.38a49.3,49.3,0,0,0-9.16.86c-7.15-11.59-21.31-19.49-37.61-19.49a49,49,0,0,0-11.68,1.41c-7.16-11.57-16.63-14-29.91-16.24-14.57-2.44-35.47,3.27-43.1,13.11-7.77-8.89-22.24-11-36.15-11-23.51,0-40.45,12.83-40.45,33.09,0,.39,0,.77,0,1.15-20.3,1.38-36.28,9.16-36.28,33.83,0,16.44,13.56,30.15,31.57,33.28a24.48,24.48,0,0,0-1.31,11c1.48,13.78,14.84,24.7,30.89,25.32,5.15.2,8.25-.92,8.88-3.81,2.05,12.2,19.8,23.09,34.53,23.09,11.91,0,22.16-6.13,26.73-14.93a33.18,33.18,0,0,0,20.3,6.7c12.48,0,23.2-6.48,27.89-15.75a36.45,36.45,0,0,0,6.94.67c11.5,0,21.55-5.31,27.05-13.23a42,42,0,0,0,4.45.24c13.61,0,25.45-6.52,31.54-16.13C2967.72,750.24,2989.85,723.78,2984.06,706.74Zm-172.64-5.34c7.77,8.89,20.12,14.63,34,14.63,1,0,1.9,0,2.84-.09a25.58,25.58,0,0,0-5.45,10.19A24,24,0,0,0,2842,733q-.7,0-1.41,0c-10.22,0-19.11,4.85-23.77,12-4.72-5.89-12.48-9.83-21.33-10.14a33.37,33.37,0,0,0-7-18C2799,715.3,2805,709.68,2811.42,701.4Z"/><path class="cls-24" d="M2984.78,709.74c-1.63-16.7-13.62-22.28-13.74-22.63,13.86,27.67-14.64,40.46-32.77,42.34,1.18,11.34-14.38,29.24-32.79,26.61-1.49-.21-2.34,10.33-3.31,11.28-8.85,8.7-8.3,5.55-19.8,5.55a36.45,36.45,0,0,1-6.94-.67c-4.68,9.27-15.4,15.75-27.89,15.75a33.18,33.18,0,0,1-20.3-6.7c-4.57,8.8-14.82,14.93-26.73,14.93-14.73,0-31.25-2.23-33.3-14.43l0,.08,0-.07c2.05,12.2,19.8,23.09,34.53,23.09,11.91,0,22.16-6.13,26.73-14.93a33.18,33.18,0,0,0,20.3,6.7c12.48,0,23.2-6.48,27.89-15.75a36.45,36.45,0,0,0,6.94.67c11.5,0,21.55-5.31,27.05-13.23a42,42,0,0,0,4.45.24c13.61,0,25.45-6.52,31.54-16.13C2967.72,750.26,2986.51,727.43,2984.78,709.74Z"/><path class="cls-9" d="M2865.35,603.17c-.14.61-6.8-3.38-15.67-5.44s-16.6-1.41-16.46-2,8.24-2.85,17.12-.79S2865.49,602.56,2865.35,603.17Z"/><path class="cls-9" d="M2728.75,610.72c.14.61,6.8-3.38,15.67-5.44s16.6-1.41,16.46-2-8.24-2.85-17.12-.79S2728.61,610.12,2728.75,610.72Z"/><path class="cls-9" d="M2907,847.52c-18.34,35.3-31.51,53.48-38.77,48.4-2.62-1.83,12.9-15.85,31.24-51.15s22.69-65.92,25.76-66C2937.4,778.22,2925.35,812.22,2907,847.52Z"/><path class="cls-25" d="M2743.12,523.81c-22.26,20-8.72,59.54-10,60.07-3.88,1.64-13.19,4.75-12.28.65,2.91-13-.63-44.55,14.65-60.22,20.92-21.44,57.9-39.85,58.64-38.71S2764,505,2743.12,523.81Z"/><path class="cls-16" d="M2889.4,870c-6.95-3.37-13.59-4-14.83-1.47-.73,1.51.58,3.8,3.19,6.11-14.41.06-33.54,12.54-33.54,21.48s9.59,9.84,24,9.84,26.12-7.27,26.12-16.24a23.48,23.48,0,0,0-1-7.63c3.23.52,5.65.1,6.35-1.35C2901,878.15,2896.35,873.33,2889.4,870Z"/><polygon class="cls-26" points="2815.91 1242.94 2642.36 1203.96 2592.18 953.67 2808.02 968.75 2815.91 1242.94"/><polygon class="cls-27" points="2872.51 1178.67 2815.52 1242.96 2808.02 970.01 2886.42 939.66 2872.51 1178.67"/><polygon class="cls-28" points="2808.77 995.61 2573.49 960.62 2558.97 862.61 2807.23 882.02 2808.77 995.61"/><polygon class="cls-26" points="2901.18 930.05 2808.77 995.61 2807.19 882.11 2902.69 906.61 2901.18 930.05"/><polygon class="cls-27" points="2894.9 931.25 2815.04 987.9 2813.68 889.82 2896.21 910.99 2894.9 931.25"/><polygon class="cls-26" points="2890.52 932.08 2819.41 982.53 2818.2 895.19 2891.69 914.04 2890.52 932.08"/><polygon class="cls-26" points="2796.95 989.32 2583.93 957.64 2570.78 868.9 2795.56 886.48 2796.95 989.32"/><polygon class="cls-28" points="2791.32 986.32 2588.91 956.22 2576.41 871.9 2789.99 888.6 2791.32 986.32"/></g><g id="Layer_21" data-name="Layer 21"><path class="cls-9" d="M1056.64,1080.41c22.5-15.29,28.81-35.18,34.22-28.36,1.87,2.36-15.38,28.31-39.74,40.44-23.56,11.73-33.82,13.53-35.69,11.18C1008.79,1095.31,1034.14,1095.71,1056.64,1080.41Z"/><path class="cls-29" d="M1105.41,1050.34c-.18-10.5-8.53-19.58-19-19-7,.38-9.34,5.65-14.26,12.8-2.59-5.21-4.37-7.15-9.64-5.31-2.76,1-3.05,6.47-.79,12a32.91,32.91,0,0,0,4.82,8,2.6,2.6,0,0,0-.9.9c-1.46,2.53,1.94,7.23,7.6,10.5s11.43,3.87,12.89,1.34a3,3,0,0,0,.24-2.12h0C1097.29,1069.14,1105.59,1060.74,1105.41,1050.34Z"/><path class="cls-9" d="M913.14,1264.68c-6.24-.61-13.19-2.46-15.42-4-3.28-2.29-1.42-14.73-1.18-18l3.12-41.87c.24-3.24,3.81-2.38,8.22-2.05h0c1.64,8.38.23,46.49,3.62,48.83,13.22,9.15,28.57,16.52,16.41,17.42A64.81,64.81,0,0,1,913.14,1264.68Z"/><path class="cls-9" d="M976.44,1257.91c-6.27,0-13.36-1.19-15.74-2.53-3.48-2-2.82-14.53-2.88-17.77l-.88-42c-.07-3.25,3.56-2.73,8-2.82h0c2.43,8.18,4.66,46.25,8.26,48.27,14,7.85,30,13.73,18,15.77A64.81,64.81,0,0,1,976.44,1257.91Z"/><ellipse class="cls-30" cx="926.58" cy="1106.45" rx="109.2" ry="100.07"/><path class="cls-31" d="M941.79,1192.95c-58.26,0-105.48-44-105.48-98.33,0-31.12,15.51-58.87,39.72-76.88-34.86,16.71-58.65,50.17-58.65,88.72,0,55.27,48.89,100.07,109.2,100.07,36,0,67.88-15.94,87.78-40.54A109.31,109.31,0,0,1,941.79,1192.95Z"/><circle class="cls-9" cx="895.8" cy="1083.55" r="6.35" transform="translate(-57.89 50.58) rotate(-3.13)"/><circle class="cls-9" cx="985.77" cy="1074.28" r="6.35" transform="translate(-57.25 55.49) rotate(-3.13)"/><path class="cls-9" d="M905.3,1048.78c.37,1.13-5.8-1.06-12.64,1.18s-10.43,7.21-10.8,6.08,3.29-5.9,10.13-8.13S904.93,1047.65,905.3,1048.78Z"/><path class="cls-9" d="M971.9,1045.44c-.18,1.18,5.41-1.47,12.52-.37s11.54,5.37,11.72,4.19-4.29-5.22-11.39-6.32S972.08,1044.26,971.9,1045.44Z"/><path class="cls-32" d="M968.12,1105.54c-1.6,6.37-9.06,11.93-20.38,12s-19-5.31-20.61-11.63c-2.06-7.82,1-11.08,20.38-12C969.19,1092.83,969.71,1099.2,968.12,1105.54Z"/><path class="cls-9" d="M819.94,1159.21c-2.44,27.1,7.8,50.71-.9,50.58-3,0-12.14-29.85-6.08-56.37,5.86-25.66,11-34.74,14-34.69C837.62,1118.89,822.37,1132.11,819.94,1159.21Z"/><path class="cls-29" d="M838.94,1189.23a22.64,22.64,0,0,0-11-5.4c1.08-.81,1.67-1.69,1.59-2.56-.25-2.64-6.49-4.22-13.95-3.52s-13.3,3.41-13.05,6c.11,1.16,1.38,2.12,3.4,2.76-4.32,2.84-7.4,8.27-5,19.46,2.31,10.73,14.63,13,23.93,11.19,8.83-1.7,11.52-6.58,10-16.11,2.75,1.2,5.39,1.18,6.91-.34C844.2,1198.36,842.91,1193.21,838.94,1189.23Z"/><path class="cls-33" d="M904.59,1009.4s-19.39,10.46-25.78,13.32c-6.2,2.78-24.59,9.26-24.59,9.26l-11-24.58,50.36-22.58Z"/><rect class="cls-34" x="813.14" y="1028.5" width="3.16" height="46.38"/><path class="cls-35" d="M914.28,986.76l-104.42,46.82a3.75,3.75,0,0,1-4.73-5.4L827,992.85a15.92,15.92,0,0,1,7-6.13l95.69-43.35a3.94,3.94,0,0,1,5.22,5.23L920.06,981A11.54,11.54,0,0,1,914.28,986.76Z"/><polygon class="cls-34" points="858.89 989.01 818.09 1006.67 816.59 1009.33 864.99 988.6 858.89 989.01"/><path class="cls-9" d="M691.23,1232.88c-6-.59-12.69-2.37-14.84-3.87-3.16-2.2-1.36-14.18-1.13-17.29l3-40.29c.23-3.12,3.66-2.29,7.91-2h0c1.58,8.06.22,44.73,3.49,47,12.72,8.8,27.49,15.9,15.79,16.76A62.36,62.36,0,0,1,691.23,1232.88Z"/><path class="cls-9" d="M638.84,1234c-6-.59-12.69-2.37-14.84-3.87-3.16-2.2-1.36-14.18-1.13-17.29l3-40.29c.23-3.12,3.66-2.29,7.91-2h0c1.58,8.06.22,44.73,3.49,47,12.72,8.8,27.49,15.9,15.79,16.76A62.36,62.36,0,0,1,638.84,1234Z"/><path class="cls-9" d="M701.61,1095c32.83,24.25,83.93,35.32,106.31,0,1-1.53,3.28-1.48,3.28-3.28h0c0-1.81-2.09-4.64-3.28-3.28-39.77,45.21-81.59,10.33-106.31,0-1.67-.7-3.28,1.48-3.28,3.28h0C698.32,1093.51,700.15,1093.91,701.61,1095Z"/><rect class="cls-10" x="592.84" y="1004.09" width="157.79" height="157.79" transform="translate(1343.47 2165.98) rotate(-180)"/><polygon class="cls-11" points="558.51 1176.6 592.84 1161.89 592.84 1004.09 558.51 1025.44 558.51 1176.6"/><polygon class="cls-11" points="558.51 1176.6 722.94 1176.6 750.63 1161.89 592.84 1161.89 558.51 1176.6"/><circle class="cls-9" cx="718.02" cy="1056.93" r="6.67"/><circle class="cls-9" cx="636.43" cy="1056.93" r="6.67"/><path class="cls-9" d="M552.09,1129.88c11.41-14.58,21.68-19.62,26.4-25.91,1.46-1.68,2.05-2.53.38-4h0a4.06,4.06,0,0,0-5.72.39s-38.18,32.49-47.5,57.8c-.77,2.09-3.9,14.52.85,10,1.1-1,9.63-16.85,10.19-17.79C539.91,1145,549.56,1133.12,552.09,1129.88Z"/><path class="cls-36" d="M510.11,1161.1c4.28-6.19,8.09-8.87,11.73-9.61-1.66-1.71-2.41-3.36-1.89-4.58,1.13-2.62,7.72-2.3,14.71.72s11.75,7.59,10.61,10.21c-.39.91-1.44,1.46-2.94,1.67a18.89,18.89,0,0,1,3.47,9.48c.78,6.65-1.11,12.33-4.22,12.7-2.72.32-5.46-3.54-6.63-9-4.43,6.41-5.46,15.18-12.74,12C513.69,1181.08,505.08,1168.37,510.11,1161.1Z"/><path class="cls-13" d="M654.57,1090.35c.36,4.63,10.33,8.4,23.08,8.4s22.61-3.79,23.08-8.4c1.11-10.76-10.33-8.4-23.08-8.4S653.74,1079.58,654.57,1090.35Z"/><path class="cls-36" d="M799.62,1084.86a17.62,17.62,0,0,1-2.8-3.24c-3-4.43-3.58-9.26-1.31-10.79,1.85-1.25,5,.08,7.74,3a22.16,22.16,0,0,1,1.32-2.4c5.61-8.86,9.1-14.64,17.2-9.52s13.39,15.48,7.78,24.34c-3.46,5.46-8.47,8.46-13.38,8.87a3.77,3.77,0,0,1-.46,2.19c-1.21,2.28-3.91,2.91-10.77-.75s-10.16-8.22-8.95-10.49C796.53,1085.1,797.8,1084.7,799.62,1084.86Z"/><path class="cls-9" d="M626,1032.22c.34,1,5.27-3.5,11.06-5.31s11.46-1.17,11.13-2.2-5.43-2-11.81.09S625.68,1031.19,626,1032.22Z"/><path class="cls-9" d="M729.11,1032.23c-.34,1-5.26-3.51-11.05-5.32s-11.46-1.18-11.12-2.21,5.43-2,11.81.1S729.44,1031.2,729.11,1032.23Z"/><path class="cls-33" d="M625.44,1004.57s-20,6.13-26.44,7.61c-6.28,1.44-24.58,4.06-24.58,4.06l-5.7-24.9,51-11.67Z"/><rect class="cls-34" x="541.93" y="1006.53" width="2.99" height="43.98"/><path class="cls-35" d="M638.63,985.31,532.85,1009.5a3.56,3.56,0,0,1-3.4-5.89L556.3,974.8a15.1,15.1,0,0,1,7.62-4.41l97-22.59a3.74,3.74,0,0,1,3.88,5.83L645.08,981A11,11,0,0,1,638.63,985.31Z"/><polygon class="cls-34" points="586.71 977.14 545.49 986 543.61 988.2 592.46 977.89 586.71 977.14"/><path class="cls-9" d="M1253.23,1238.88c-6-.59-12.69-2.37-14.84-3.87-3.16-2.2-1.36-14.18-1.13-17.29l3-40.29c.23-3.12,3.66-2.29,7.91-2h0c1.58,8.06.22,44.73,3.49,47,12.72,8.8,27.49,15.9,15.79,16.76A62.36,62.36,0,0,1,1253.23,1238.88Z"/><path class="cls-9" d="M1200.84,1240c-6-.59-12.69-2.37-14.84-3.87-3.16-2.2-1.36-14.18-1.13-17.29l3-40.29c.23-3.12,3.66-2.29,7.91-2h0c1.58,8.06.22,44.73,3.49,47,12.72,8.8,27.49,15.9,15.79,16.76A62.36,62.36,0,0,1,1200.84,1240Z"/><path class="cls-9" d="M1263.61,1101c32.83,24.25,83.93,35.32,106.31,0,1-1.53,3.28-1.48,3.28-3.28h0c0-1.81-2.09-4.64-3.28-3.28-39.77,45.21-81.59,10.33-106.31,0-1.67-.7-3.28,1.48-3.28,3.28h0C1260.32,1099.51,1262.15,1099.91,1263.61,1101Z"/><rect class="cls-10" x="1154.84" y="1010.09" width="157.79" height="157.79" transform="translate(2467.47 2177.98) rotate(-180)"/><polygon class="cls-11" points="1120.51 1182.6 1154.84 1167.89 1154.84 1010.09 1120.51 1031.44 1120.51 1182.6"/><polygon class="cls-11" points="1120.51 1182.6 1284.94 1182.6 1312.63 1167.89 1154.84 1167.89 1120.51 1182.6"/><circle class="cls-9" cx="1280.02" cy="1062.93" r="6.67"/><circle class="cls-9" cx="1198.43" cy="1062.93" r="6.67"/><path class="cls-9" d="M1114.09,1135.88c11.41-14.58,21.68-19.62,26.4-25.91,1.46-1.68,2.05-2.53.38-4h0a4.06,4.06,0,0,0-5.72.39s-38.18,32.49-47.5,57.8c-.77,2.09-3.9,14.52.85,10,1.1-1,9.63-16.85,10.19-17.79C1101.91,1151,1111.56,1139.12,1114.09,1135.88Z"/><path class="cls-36" d="M1072.11,1167.1c4.28-6.19,8.09-8.87,11.73-9.61-1.66-1.71-2.41-3.36-1.89-4.58,1.13-2.62,7.72-2.3,14.71.72s11.75,7.59,10.61,10.21c-.39.91-1.44,1.46-2.94,1.67a18.89,18.89,0,0,1,3.47,9.48c.78,6.65-1.11,12.33-4.22,12.7-2.72.32-5.46-3.54-6.63-9-4.43,6.41-5.46,15.18-12.74,12C1075.69,1187.08,1067.08,1174.37,1072.11,1167.1Z"/><path class="cls-13" d="M1216.57,1096.35c.36,4.63,10.33,8.4,23.08,8.4s22.61-3.79,23.08-8.4c1.11-10.76-10.33-8.4-23.08-8.4S1215.74,1085.58,1216.57,1096.35Z"/><path class="cls-36" d="M1361.62,1090.86a17.62,17.62,0,0,1-2.8-3.24c-3-4.43-3.58-9.26-1.31-10.79,1.85-1.25,5,.08,7.74,3a22.16,22.16,0,0,1,1.32-2.4c5.61-8.86,9.1-14.64,17.2-9.52s13.39,15.48,7.78,24.34c-3.46,5.46-8.47,8.46-13.38,8.87a3.77,3.77,0,0,1-.46,2.19c-1.21,2.28-3.91,2.91-10.77-.75s-10.16-8.22-8.95-10.49C1358.53,1091.1,1359.8,1090.7,1361.62,1090.86Z"/><path class="cls-9" d="M1188,1038.22c.34,1,5.27-3.5,11.06-5.31s11.46-1.17,11.13-2.2-5.43-2-11.81.09S1187.68,1037.19,1188,1038.22Z"/><path class="cls-9" d="M1291.11,1038.23c-.34,1-5.26-3.51-11.05-5.32s-11.46-1.18-11.12-2.21,5.43-2,11.81.1S1291.44,1037.2,1291.11,1038.23Z"/><path class="cls-33" d="M1277.83,692s-20.86-1.09-27.45-1.92c-6.39-.81-24.48-4.63-24.48-4.63l3.2-25.35,51.93,6.55Z"/><rect class="cls-34" x="1191.09" y="664.35" width="2.99" height="43.98" transform="translate(307.97 -367.6) rotate(20.07)"/><path class="cls-35" d="M1296.84,678.43l-107.66-13.58a3.56,3.56,0,0,1-1.17-6.7l35.1-17.85a15.1,15.1,0,0,1,8.68-1.53l98.88,12.08a3.74,3.74,0,0,1,1.65,6.81l-28,19A11,11,0,0,1,1296.84,678.43Z"/><polygon class="cls-34" points="1250.87 652.94 1209.11 647.12 1206.59 648.54 1256.01 655.61 1250.87 652.94"/><path class="cls-33" d="M951.12,679.88s-18.61,9.47-24.74,12c-5.94,2.49-23.52,8.22-23.52,8.22L893,676.59l48.26-20.27Z"/><rect class="cls-34" x="872.95" y="695.58" width="2.99" height="43.98" transform="translate(-110.35 161.03) rotate(-9.9)"/><path class="cls-35" d="M960.81,658.64l-100.05,42a3.56,3.56,0,0,1-4.36-5.22l21.49-33a15.1,15.1,0,0,1,6.75-5.66l91.69-38.93a3.74,3.74,0,0,1,4.83,5.07l-14.74,30.4A11,11,0,0,1,960.81,658.64Z"/><polygon class="cls-34" points="908.25 659.52 869.17 675.34 867.69 677.83 914.04 659.27 908.25 659.52"/><path class="cls-33" d="M1586.86,666.17s-20.39-4.51-26.76-6.41c-6.17-1.85-23.39-8.59-23.39-8.59L1544,626.7l50.14,15Z"/><rect class="cls-34" x="1502.21" y="624.6" width="2.99" height="43.98" transform="translate(514.08 -657.19) rotate(29.53)"/><path class="cls-35" d="M1607.84,655.92l-104-31.09a3.56,3.56,0,0,1-.05-6.8l37.56-11.84a15.1,15.1,0,0,1,8.81-.08l95.55,28.17a3.74,3.74,0,0,1,.51,7l-30.69,14.12A11,11,0,0,1,1607.84,655.92Z"/><polygon class="cls-34" points="1566.69 623.22 1526.45 610.62 1523.73 611.6 1571.32 626.71 1566.69 623.22"/><path class="cls-33" d="M1802.86,806.17s-20.39-4.51-26.76-6.41c-6.17-1.85-23.39-8.59-23.39-8.59L1760,766.7l50.14,15Z"/><rect class="cls-34" x="1718.21" y="764.6" width="2.99" height="43.98" transform="translate(611.15 -745.47) rotate(29.53)"/><path class="cls-35" d="M1823.84,795.92l-104-31.09a3.56,3.56,0,0,1-.05-6.8l37.56-11.84a15.1,15.1,0,0,1,8.81-.08l95.55,28.17a3.74,3.74,0,0,1,.51,7l-30.69,14.12A11,11,0,0,1,1823.84,795.92Z"/><polygon class="cls-34" points="1782.69 763.22 1742.45 750.62 1739.73 751.6 1787.32 766.71 1782.69 763.22"/><path class="cls-33" d="M1461.15,837.95s-18.3,10.07-24.34,12.84c-5.86,2.69-23.24,9-23.24,9l-10.65-23.22,47.57-21.82Z"/><rect class="cls-34" x="1384.24" y="856.11" width="2.99" height="43.98" transform="translate(-149.82 300.69) rotate(-11.75)"/><path class="cls-35" d="M1470.15,816.4l-98.64,45.24a3.56,3.56,0,0,1-4.53-5.08l20.41-33.68A15.1,15.1,0,0,1,1394,817l90.39-41.88a3.74,3.74,0,0,1,5,4.92l-13.75,30.86A11,11,0,0,1,1470.15,816.4Z"/><polygon class="cls-34" points="1417.65 818.98 1379.1 836.06 1377.7 838.6 1423.42 818.54 1417.65 818.98"/><path class="cls-33" d="M1077.15,879.95s-18.3,10.07-24.34,12.84c-5.86,2.69-23.24,9-23.24,9l-10.65-23.22,47.57-21.82Z"/><rect class="cls-34" x="1000.24" y="898.11" width="2.99" height="43.98" transform="translate(-166.42 223.35) rotate(-11.75)"/><path class="cls-35" d="M1086.15,858.4l-98.64,45.24a3.56,3.56,0,0,1-4.53-5.08l20.41-33.68A15.1,15.1,0,0,1,1010,859l90.39-41.88a3.74,3.74,0,0,1,5,4.92l-13.75,30.86A11,11,0,0,1,1086.15,858.4Z"/><polygon class="cls-34" points="1033.65 860.98 995.1 878.06 993.7 880.6 1039.42 860.54 1033.65 860.98"/><path class="cls-33" d="M675.26,798.21s-20.81-1.78-27.37-2.82c-6.36-1-24.31-5.43-24.31-5.43l4-25.23L679.28,773Z"/><rect class="cls-34" x="588.74" y="767.78" width="2.99" height="43.98" transform="matrix(0.93, 0.37, -0.37, 0.93, 337.97, -163.37)"/><path class="cls-35" d="M694.69,785.28l-107.16-17.1a3.56,3.56,0,0,1-.95-6.74l35.67-16.69a15.1,15.1,0,0,1,8.72-1.24l98.43,15.31a3.74,3.74,0,0,1,1.42,6.86l-28.56,18A11,11,0,0,1,694.69,785.28Z"/><polygon class="cls-34" points="649.59 758.29 608.04 751.11 605.47 752.44 654.64 761.13 649.59 758.29"/><path class="cls-9" d="M1521.23,1236.88c-6-.59-12.69-2.37-14.84-3.87-3.16-2.2-1.36-14.18-1.13-17.29l3-40.29c.23-3.12,3.66-2.29,7.91-2h0c1.58,8.06.22,44.73,3.49,47,12.72,8.8,27.49,15.9,15.79,16.76A62.36,62.36,0,0,1,1521.23,1236.88Z"/><path class="cls-9" d="M1468.84,1238c-6-.59-12.69-2.37-14.84-3.87-3.16-2.2-1.36-14.18-1.13-17.29l3-40.29c.23-3.12,3.66-2.29,7.91-2h0c1.58,8.06.22,44.73,3.49,47,12.72,8.8,27.49,15.9,15.79,16.76A62.36,62.36,0,0,1,1468.84,1238Z"/><path class="cls-9" d="M1531.61,1099c32.83,24.25,83.93,35.32,106.31,0,1-1.53,3.28-1.48,3.28-3.28h0c0-1.81-2.09-4.64-3.28-3.28-39.77,45.21-81.59,10.33-106.31,0-1.67-.7-3.28,1.48-3.28,3.28h0C1528.32,1097.51,1530.15,1097.91,1531.61,1099Z"/><rect class="cls-10" x="1422.84" y="1008.09" width="157.79" height="157.79" transform="translate(3003.47 2173.98) rotate(-180)"/><polygon class="cls-11" points="1388.51 1180.6 1422.84 1165.89 1422.84 1008.09 1388.51 1029.44 1388.51 1180.6"/><polygon class="cls-11" points="1388.51 1180.6 1552.94 1180.6 1580.63 1165.89 1422.84 1165.89 1388.51 1180.6"/><circle class="cls-9" cx="1548.02" cy="1060.93" r="6.67"/><circle class="cls-9" cx="1466.43" cy="1060.93" r="6.67"/><path class="cls-9" d="M1382.09,1133.88c11.41-14.58,21.68-19.62,26.4-25.91,1.46-1.68,2.05-2.53.38-4h0a4.06,4.06,0,0,0-5.72.39s-38.18,32.49-47.5,57.8c-.77,2.09-3.9,14.52.85,10,1.1-1,9.63-16.85,10.19-17.79C1369.91,1149,1379.56,1137.12,1382.09,1133.88Z"/><path class="cls-36" d="M1340.11,1165.1c4.28-6.19,8.09-8.87,11.73-9.61-1.66-1.71-2.41-3.36-1.89-4.58,1.13-2.62,7.72-2.3,14.71.72s11.75,7.59,10.61,10.21c-.39.91-1.44,1.46-2.94,1.67a18.89,18.89,0,0,1,3.47,9.48c.78,6.65-1.11,12.33-4.22,12.7-2.72.32-5.46-3.54-6.63-9-4.43,6.41-5.46,15.18-12.74,12C1343.69,1185.08,1335.08,1172.37,1340.11,1165.1Z"/><path class="cls-13" d="M1484.57,1094.35c.36,4.63,10.33,8.4,23.08,8.4s22.61-3.79,23.08-8.4c1.11-10.76-10.33-8.4-23.08-8.4S1483.74,1083.58,1484.57,1094.35Z"/><path class="cls-36" d="M1629.62,1088.86a17.62,17.62,0,0,1-2.8-3.24c-3-4.43-3.58-9.26-1.31-10.79,1.85-1.25,5,.08,7.74,3a22.16,22.16,0,0,1,1.32-2.4c5.61-8.86,9.1-14.64,17.2-9.52s13.39,15.48,7.78,24.34c-3.46,5.46-8.47,8.46-13.38,8.87a3.77,3.77,0,0,1-.46,2.19c-1.21,2.28-3.91,2.91-10.77-.75s-10.16-8.22-8.95-10.49C1626.53,1089.1,1627.8,1088.7,1629.62,1088.86Z"/><path class="cls-9" d="M1456,1036.22c.34,1,5.27-3.5,11.06-5.31s11.46-1.17,11.13-2.2-5.43-2-11.81.09S1455.68,1035.19,1456,1036.22Z"/><path class="cls-9" d="M1559.11,1036.23c-.34,1-5.26-3.51-11.05-5.32s-11.46-1.18-11.12-2.21,5.43-2,11.81.1S1559.44,1035.2,1559.11,1036.23Z"/><path class="cls-33" d="M1455.44,1008.57s-20,6.13-26.44,7.61c-6.28,1.44-24.58,4.06-24.58,4.06l-5.7-24.9,51-11.67Z"/><rect class="cls-34" x="1371.93" y="1010.53" width="2.99" height="43.98"/><path class="cls-35" d="M1468.63,989.31l-105.79,24.19a3.56,3.56,0,0,1-3.4-5.89l26.84-28.81a15.1,15.1,0,0,1,7.62-4.41l97-22.59a3.74,3.74,0,0,1,3.88,5.83L1475.08,985A11,11,0,0,1,1468.63,989.31Z"/><polygon class="cls-34" points="1416.71 981.14 1375.49 990 1373.61 992.2 1422.46 981.89 1416.71 981.14"/></g></g></svg>