<svg xmlns="http://www.w3.org/2000/svg" viewBox="0 0 401.3 433.79"><defs><style>.cls-1{fill:#a87c4f;}.cls-2{fill:#c3996b;}.cls-3{fill:#231f20;}.cls-4{fill:#e8ecee;stroke:#231f20;stroke-miterlimit:10;stroke-width:2.42px;}.cls-5{fill:#daae82;}.cls-6{fill:#f6b2cf;}.cls-7{fill:#d1a278;}.cls-8{fill:#d1a37a;}.cls-9{fill:#fff;}.cls-10{fill:#f5aecd;}.cls-11{fill:#f290bc;}.cls-12{fill:#f6c6dc;}.cls-13{fill:#f6b1cf;}.cls-14{fill:#f7d034;}.cls-15{fill:#a47953;}.cls-16{fill:#875c3a;}.cls-17{fill:#b18666;}</style></defs><title>icecream</title><g id="Layer_2" data-name="Layer 2"><g id="Layer_1-2" data-name="Layer 1"><ellipse class="cls-1" cx="201.18" cy="372.01" rx="200.12" ry="61.78"/><ellipse class="cls-2" cx="200.12" cy="357.11" rx="200.12" ry="61.78"/><rect class="cls-2" x="0.16" y="353.81" width="399.6" height="23.42"/><path class="cls-3" d="M198,377.52l-12.29,1.29c-6.59,1.43-17.82,1.82-16.41,0,3.71-4.81,15.52-6.74,21.37-14.08,1.43-1.8,5-52.78,12.51-51.94h0c2.27.36,4.76,1.6,3.46,3.49-7.87,11.51-7.7,52-7.7,52C198.63,370.58,200.33,377.29,198,377.52Z"/><path class="cls-3" d="M227.28,379.14l12.29,1.29c6.59,1.43,17.82,1.82,16.41,0-3.71-4.81-15.52-6.74-21.37-14.08-1.43-1.8-14-64.93-15.32-46.54l-.13-4.41c-2.27.36-4.85,2-3.43,3.85,8.81,11.18,10.6,50.68,10.6,50.68C226.7,372.2,225,378.9,227.28,379.14Z"/><path class="cls-3" d="M153.68,192.75c-9.76,18.79-16.77,28.47-20.64,25.76-1.39-1,6.87-8.44,16.63-27.23s12.08-35.09,13.71-35.15C169.86,155.87,163.45,174,153.68,192.75Z"/><path class="cls-4" d="M140.63,204.44c-3.7-1.8-7.23-2.15-7.89-.78-.39.8.31,2,1.7,3.25-7.67,0-17.85,6.67-17.85,11.44s5.1,5.24,12.78,5.24c4.24,0,6-1.41,7.79-3.35.11,2,.86,3.57,2.07,3.84,1.76.4,3.35-2.2,4.58-5.5a7.43,7.43,0,0,0-.24-5.8c-.25-.69-.63-1.38-.81-1.89,1.72.27,3,.05,3.38-.72C146.79,208.8,144.33,206.24,140.63,204.44Z"/><path class="cls-3" d="M201.45,2.23c-9-2.44-28.34-4.23-49.52,2.18s-37.25,18.82-39.46,25.89c-2.26,7.26,25.43,3.34,46.62-3.08S210.22,4.6,201.45,2.23Z"/><path class="cls-3" d="M182.61,34.21l-33.07,9.45c-8.55,2.78-10.47-5.24-14.7-11.82h0c-4.47-10.86,1.47-12.71,7.58-14.66l26.21-8.34C174.75,6.9,181,4.91,183.3,16.43h0A52.45,52.45,0,0,1,182.61,34.21Z"/><path class="cls-5" d="M215.48,346.48c-13,8.55-69.8-197.12-69.8-197.12l25.61-11.09,62.38-4.52S222.64,341.78,215.48,346.48Z"/><path class="cls-6" d="M252.12,91.61c0,40.36-31.12,64.53-69.52,64.53s-77.21-14.48-77.21-65.28c0-46.62,38.82-63.77,77.21-63.77S252.12,56,252.12,91.61Z"/><path class="cls-7" d="M210.75,151.34c13.25,8.11,9.16,185.75,2.43,190.16,0,0-.82,2.23-3.33.21,3,4.53,4.76,5.12,5.78,4.45,7.17-4.7,18.32-216,18.32-216Z"/><path class="cls-8" d="M233.31,135l-2.49-3-2.61.19,4.92,6Z"/><path class="cls-8" d="M217.86,335.63q.33-1.92.67-4.19l-7.76,9.49-2.64-3.23c2.19,3.89,4.1,6.31,5.63,6.89l-1.61-2Z"/><path class="cls-8" d="M147.87,155.85l9.41,11.51-4.56,5.58.72,2.5,5.22-6.39,12.43,15.2-10.33,12.63-1.71-2.1,1.64,5.57.08-.1L172,214l-5.32,6.51.74,2.46,6-7.29,12.39,15.15-10.49,12.83-2.42-3q1,3.37,2.1,6.74l.32-.4,10.44,12.77-4.91,6,.78,2.42,5.51-6.74,10.25,12.53-9.06,11.08-1.85-2.27q1,2.93,2,5.78l10.21,12.48-4,4.93.86,2.32,4.55-5.56,10.49,12.83-8.18,10q.48,1.13,1,2.2l8.6-10.52,7.32,9q.18-1.42.37-2.93l-6.31-7.71,8.23-10.07q.23-2.37.46-4.84l-10.13-12.38,10.49-12.83,1.65,2,.25-3.07-.51-.63.63-.77q.15-1.86.29-3.73l-2.3,2.81L212,259.56l10.33-12.63L226,251.4l.22-3.1-2.5-3.06,3-3.64.26-3.69-4.62,5.64L212.11,231l10.25-12.53,5.49,6.71.21-3.12-4.31-5.28,5.07-6.2.24-3.66-6.69,8.18-10.44-12.77,10.44-12.77,7.23,8.84.2-3.13-6-7.39,7-8.59.22-3.64-8.63,10.55L210,171l12.39-15.15,9.14,11.17.18-3.15-7.94-9.71L232.87,143l.2-3.62-10.71,13.1-11.27-13.78,4.67-5.71-2.93.21-3.11,3.81-2.76-3.38-2.61.19,4,4.88-12.39,15.15-12.43-15.2,2.89-3.53-2.93.21L182.12,137l-1.18-1.45-2.61.19,2.41,2.95L170.3,151.46l-9-11-2,.88,9.62,11.77-10.25,12.53L147.6,152.15l7.22-8.84-4.27,1.85-4.23,5.17Zm14.28,42.72,10.33-12.63,11.27,13.78-10.33,12.63Zm24.35,1.15,10.25-12.53,12.39,15.15L198.9,214.88ZM209.35,231,199,243.65l-10.44-12.77,10.33-12.63Zm-24.22-33-11.27-13.78,10.25-12.53,11.27,13.78ZM174.8,214l10.33-12.63,12.39,15.15L187.2,229.19Zm12.34,44.13L176.7,245.4l10.49-12.83,10.44,12.77Zm1.38,1.69L199,247l10.25,12.53-10.49,12.83Zm1.19,27,9.06-11.08,10.33,12.63L200,299.48ZM221,302.91,211.91,314l-10.49-12.83,9.06-11.08Zm0-29-10.49,12.83-10.33-12.63,10.49-12.83Zm0-28.63-10.33,12.63L200.4,245.34l10.33-12.63Zm0-28.44-10.25,12.53-10.44-12.77L210.53,204Zm0-28.91-10.44,12.77L198.14,185.5l10.44-12.77Zm-11.27-47.46L221,154.2l-12.39,15.15-11.27-13.78ZM207.2,171l-10.44,12.77L185.49,170l10.44-12.77Zm-25.08-30.67,12.43,15.2-10.44,12.77-12.43-15.2ZM170.3,154.83,182.73,170l-10.25,12.53L160,167.37Z"/><path class="cls-9" d="M180.48,119.75c0,5.25-10.36,10.9-18.88,10.9s-17.77-5.93-17.77-11.18,6.91-4.25,15.44-4.25S180.48,114.5,180.48,119.75Z"/><circle class="cls-3" cx="123.22" cy="85.78" r="3.93"/><circle class="cls-3" cx="179.09" cy="81.52" r="3.93"/><circle class="cls-10" cx="158.24" cy="151.89" r="12.48"/><path class="cls-11" d="M198.76,28.84c27.23,9.68,46.3,32.1,46.3,58.2,0,35-34.21,63.31-76.41,63.31a91.56,91.56,0,0,1-19.21-2,73.48,73.48,0,0,0,33.16,7.8c38.39,0,67.55-22.83,69.52-64.53C254.07,50.39,229.36,35.6,198.76,28.84Z"/><path class="cls-12" d="M251.62,122.89c-3.52-10.35-10.15-14.58-22.66-14.58a26.24,26.24,0,0,0-4.87.46c-3.81-6.17-11.34-10.37-20-10.37a26.07,26.07,0,0,0-6.22.75C194,93,189,91.69,181.94,90.51c-7.75-1.3-18.88,1.74-22.94,7-4.14-4.73-11.84-5.88-19.24-5.88-12.52,0-21.53,6.83-21.53,17.61,0,.21,0,.41,0,.61-10.81.73-19.31,4.87-19.31,18,0,8.75,7.22,16,16.8,17.71a13,13,0,0,0-.7,5.83c.79,7.34,7.9,13.15,16.44,13.48,2.74.11,4.39-.49,4.73-2,1.09,6.49,10.54,12.29,18.38,12.29,6.34,0,11.79-3.26,14.23-7.95a17.66,17.66,0,0,0,10.8,3.56c6.64,0,12.35-3.45,14.84-8.38a19.4,19.4,0,0,0,3.69.36,17.44,17.44,0,0,0,14.4-7,22.34,22.34,0,0,0,2.37.13c7.24,0,13.54-3.47,16.79-8.59C242.93,146,254.71,132,251.62,122.89Zm-91.89-2.84a24,24,0,0,0,18.11,7.79c.51,0,1,0,1.51,0a13.61,13.61,0,0,0-2.9,5.43,12.76,12.76,0,0,0-.43,3.68l-.75,0a15,15,0,0,0-12.65,6.4,15.15,15.15,0,0,0-11.35-5.39,17.76,17.76,0,0,0-3.74-9.59C153.14,127.45,156.32,124.46,159.73,120.05Z"/><path class="cls-13" d="M252,124.49a15.27,15.27,0,0,0-7.32-12c7.37,14.73-7.79,21.53-17.44,22.54.63,6-7.66,15.57-17.46,14.16-.79-.11-1.25,5.5-1.76,6-4.71,4.63-4.42,3-10.54,3a19.4,19.4,0,0,1-3.69-.36c-2.49,4.93-8.2,8.38-14.84,8.38a17.66,17.66,0,0,1-10.8-3.56c-2.43,4.68-7.89,7.95-14.23,7.95-7.84,0-16.63-1.19-17.72-7.68v0c1.09,6.49,10.54,12.29,18.38,12.29,6.34,0,11.79-3.26,14.23-7.95a17.66,17.66,0,0,0,10.8,3.56c6.64,0,12.35-3.45,14.84-8.38a19.4,19.4,0,0,0,3.69.36,17.44,17.44,0,0,0,14.4-7,22.34,22.34,0,0,0,2.37.13c7.24,0,13.54-3.47,16.79-8.59C242.93,146.05,252.93,133.9,252,124.49Z"/><path class="cls-3" d="M188.44,67.76c-.07.32-3.62-1.8-8.34-2.9s-8.84-.75-8.76-1.08,4.39-1.52,9.11-.42S188.52,67.44,188.44,67.76Z"/><path class="cls-3" d="M115.74,71.79c.07.32,3.62-1.8,8.34-2.9s8.84-.75,8.76-1.08-4.39-1.52-9.11-.42S115.66,71.46,115.74,71.79Z"/><path class="cls-3" d="M210.61,197.82c-9.76,18.79-16.77,28.47-20.64,25.76-1.39-1,6.87-8.44,16.63-27.23s12.08-35.09,13.71-35.15C226.79,160.94,220.38,179,210.61,197.82Z"/><path class="cls-14" d="M123.38,25.52c-11.85,10.67-4.64,31.69-5.31,32-2.07.87-7,2.53-6.54.34,1.55-6.95-.34-23.71,7.8-32.05,11.14-11.41,30.82-21.21,31.21-20.6S134.51,15.5,123.38,25.52Z"/><path class="cls-4" d="M201.24,209.77c-3.7-1.8-7.23-2.15-7.89-.78-.39.8.31,2,1.7,3.25-7.67,0-17.85,6.67-17.85,11.44s5.1,5.24,12.78,5.24,13.9-3.87,13.9-8.64a12.5,12.5,0,0,0-.52-4.06c1.72.27,3,.05,3.38-.72C207.4,214.13,204.94,211.56,201.24,209.77Z"/><polygon class="cls-15" points="162.12 408.3 69.75 387.55 43.04 254.32 157.93 262.35 162.12 408.3"/><polygon class="cls-16" points="192.25 374.08 161.92 408.31 157.93 263.02 199.66 246.87 192.25 374.08"/><polygon class="cls-17" points="158.32 276.65 33.09 258.02 25.36 205.86 157.5 216.19 158.32 276.65"/><polygon class="cls-15" points="207.51 241.75 158.32 276.65 157.49 216.24 208.32 229.28 207.51 241.75"/><polygon class="cls-16" points="204.17 242.39 161.66 272.55 160.94 220.34 204.87 231.61 204.17 242.39"/><polygon class="cls-15" points="201.84 242.83 163.99 269.69 163.34 223.2 202.46 233.23 201.84 242.83"/><polygon class="cls-15" points="152.04 273.3 38.65 256.44 31.65 209.21 151.29 218.56 152.04 273.3"/><polygon class="cls-17" points="149.04 271.7 41.3 255.68 34.65 210.8 148.33 219.69 149.04 271.7"/></g></g></svg>