<svg xmlns="http://www.w3.org/2000/svg" viewBox="0 0 396.27 292"><defs><style>.cls-1,.cls-7{fill:#fff;}.cls-1{stroke:#000;stroke-miterlimit:10;stroke-width:1.28px;}.cls-2{fill:#25a9e0;}.cls-3{font-size:76.46px;fill:#f1f1f2;font-family:MyriadPro-Regular, Myriad Pro;}.cls-4{letter-spacing:-0.01em;}.cls-5{fill:#f6921e;}.cls-6{fill:#009345;}</style></defs><title>tips</title><g id="Layer_2" data-name="Layer 2"><g id="Layer_6" data-name="Layer 6"><path d="M243.23,153.83c22.4-10.42,9.83-28.05,20-19.15,3.4,3,3.3,20.95-16.17,27.24-27.66,8.94-32.66-4.54-31.07-6.81C220.89,148.11,223.49,163,243.23,153.83Z"/><path class="cls-1" d="M280.25,118.21c0-9.09-7.62-16.47-17-16.47s-17,7.37-17,16.47a16.34,16.34,0,0,0,7.93,13.92c-2,.54-3.25,1.29-3.25,2.12,0,1.65,4.86,3,10.85,3s10.85-1.33,10.85-3c0-.54-.52-1-1.42-1.47A16.4,16.4,0,0,0,280.25,118.21Z"/><rect class="cls-2" x="164.07" y="13.81" width="225.99" height="112.78" transform="translate(11.07 -34.4) rotate(7.25)"/><text class="cls-3" transform="translate(204.46 81.16) rotate(7.18)"><tspan class="cls-4">T</tspan><tspan x="37.08" y="0">ips!</tspan></text><path d="M45.54,210c-24.68-1.06-14.24-26.07-24.47-17.24-4.68,4,5.75,27,26.17,25.75,21-1.31,21.71-23.62,19.36-25.11C59.4,188.82,67.28,210.95,45.54,210Z"/><path d="M121.14,291.91c5-.13,10.67-1.2,12.54-2.31,2.75-1.63,2-11.67,2-14.27l-.06-33.59c0-2.6-2.9-2.12-6.44-2.11h0c-1.79,6.59-2.88,37.08-5.73,38.75-11.08,6.53-23.75,11.52-14.1,12.94A51.84,51.84,0,0,0,121.14,291.91Z"/><path d="M180.46,288.79c-5,.32-10.73-.25-12.7-1.2-2.88-1.39-3-11.45-3.23-14l-2.91-33.46c-.22-2.59,2.7-2.37,6.22-2.67h0c2.37,6.4,6.14,36.68,9.13,38.1,11.61,5.53,24.68,9.38,15.19,11.65A51.84,51.84,0,0,1,180.46,288.79Z"/><path class="cls-5" d="M138.86,87.63c48.25,0,87.36,35.84,87.36,80.06s-39.11,80.06-87.36,80.06S51.5,211.91,51.5,167.69c0-38.48,29.62-70.62,69.11-78.32l.49,1.78,4.8-.83-.31-1.78A94.9,94.9,0,0,1,138.86,87.63Zm39.2,59.4a5.08,5.08,0,1,0-5.36-4.8A5.06,5.06,0,0,0,178.06,147Zm3.56-26.35c.16-1-3.42-4.17-9.1-5.05s-10.14,1-10.29,2,4.33-1.19,10-.31S181.48,121.62,181.62,120.69Zm-32.95,62.91c.25-.92-4.42.7-10-.79s-8.72-5.27-9-4.33,2.95,4.51,8.51,6S148.44,184.51,148.68,183.59Zm-38.2-21.4c3.72-.68,6.83,1.62,6.65.68s-3.24-3.06-7-2.39-5.88,3.72-5.72,4.66S106.78,162.86,110.48,162.19Zm-10.34-31.36c3.76-4.35,8.88-5.41,8.16-6s-5.72.56-9.48,4.91-4.28,9.14-3.56,9.76S96.38,135.18,100.14,130.83Z"/><path d="M182.85,141.69a5.08,5.08,0,1,1-5.34-4.8A5.06,5.06,0,0,1,182.85,141.69Z"/><path d="M172.52,115.63c5.68.88,9.26,4.1,9.1,5.05s-3.69-2.48-9.37-3.36-10.16,1.24-10,.31S166.82,114.73,172.52,115.63Z"/><path d="M138.7,182.8c5.56,1.49,10.23-.13,10,.79s-4.87,2.37-10.43.88-8.76-5.09-8.51-6S133.14,181.31,138.7,182.8Z"/><path class="cls-6" d="M141.79,49.71C145,57.28,137,68.44,123.84,78.62l1.74,9.93c-1.67.23-3.34.5-5,.83l-2-7A131.51,131.51,0,0,1,95.5,94.93c-27.95,11.73-70.84-2.37-59.81-.74,21,3.13,38.81-33.63,65.44-47C128.23,33.61,136.7,37.57,141.79,49.71Z"/><path class="cls-5" d="M125.59,88.55l.31,1.78-4.8.83-.49-1.78C122.24,89.05,123.91,88.78,125.59,88.55Z"/><path d="M117.13,162.87c.18.94-2.93-1.37-6.65-.68s-5.86,3.88-6,2.95,2-4,5.72-4.66S117,161.94,117.13,162.87Z"/><path d="M108.3,124.79c.72.63-4.41,1.69-8.16,6s-4.15,9.26-4.87,8.63-.2-5.39,3.56-9.76S107.59,124.17,108.3,124.79Z"/><path class="cls-1" d="M28.87,169.54c1.63,6.49.53,12.38-2.54,13.17s-7.37-3.72-8.58-10.3c-1.87-10.15-.53-12.38,2.54-13.17S26.82,161.37,28.87,169.54Z"/><path class="cls-1" d="M32.65,197c2.67-3.4,3.53-8.11,3.53-13s-3-7.45-6.49-8.19c-1.18-.43-7.65.52-8.87,1.45-.33.25-2.09,1.3-2.48,1.56-9.86,5.62-17.7-1.33-17.7,7.31,0,8,8.46,14.12,16,15.61-1.34,1-2,2-1.8,2.78.54,1.75,5.57,1.76,11.24,0s9.84-4.56,9.31-6.31C35.15,197.55,34.15,197.12,32.65,197Z"/><path class="cls-1" d="M25,188c-4,1.51-9.05.49-9.05-3.21,0-3.45,2.2-5.77,6.88-8.14a19.65,19.65,0,0,0-2.62-4.5c-2.46-3.22-7.43-.52-13.41,4s-7.33,9.83-4.87,13,14.85,8.54,20.83,4a7,7,0,0,0,2.52-5.31Z"/><path class="cls-1" d="M256.65,123.08c.52,5.11,1.77,9.39-1.79,9.76s-9.1-2.6-9.63-7.72-5.33-11.2,1.11-11.86C249.9,112.9,256.13,118,256.65,123.08Z"/><ellipse class="cls-7" cx="256.85" cy="129.78" rx="5.11" ry="5.75" transform="translate(-26.01 182.75) rotate(-37.41)"/></g></g></svg>