<svg xmlns="http://www.w3.org/2000/svg" viewBox="0 0 850.02 362.73"><defs><style>.cls-1{fill:#0f2647;}.cls-2{fill:#0a1e32;}.cls-3{fill:#09192d;}.cls-4{fill:#231f20;}.cls-5{fill:#bce4ee;}.cls-6{fill:#96d7e1;}.cls-10,.cls-14,.cls-18,.cls-7{fill:#e8ecee;stroke:#231f20;stroke-miterlimit:10;}.cls-7{stroke-width:1.93px;}.cls-8{fill:#f59698;}.cls-9{fill:#009345;}.cls-10{stroke-width:2.09px;}.cls-11{fill:#f6921e;}.cls-12{fill:#f26e24;}.cls-13{fill:#d35361;}.cls-14{stroke-width:1.98px;}.cls-15{fill:#181528;}.cls-16{fill:#faaf40;}.cls-17{fill:#241d38;}.cls-18{stroke-width:1.91px;}</style></defs><title>tray</title><g id="Layer_2" data-name="Layer 2"><g id="Layer_1-2" data-name="Layer 1"><polygon class="cls-1" points="684.67 359.83 53.64 355.1 14.85 276.57 711.16 281.31 684.67 359.83"/><path class="cls-1" d="M683,362.73,57.14,357.36a3.43,3.43,0,0,1-.9-6.73l162.21-45.55a3.43,3.43,0,0,1,.93-.13l580.47,1.22c3.84,0,16.42,9.44,12.8,10.74L684.21,362.53A3.43,3.43,0,0,1,683,362.73Z"/><polygon class="cls-2" points="839.7 236.3 708.32 277.52 685.61 361.72 813.65 316.64 839.7 236.3"/><path class="cls-3" d="M850,232.6l-.36-14.08-50.1-4.7,9.92,12L191.7,223.66a3.87,3.87,0,0,0-1.05.14l-188.09,52c-4.31,1.21-2.27,6.76,2.21,6.8l710.78,6.37a3.87,3.87,0,0,0,1.34-.23l122.5-48.79C840.42,238.35,848.46,235.73,850,232.6Z"/><polygon class="cls-3" points="34.31 279.98 0 278.65 3 265.4 34.31 268.74 34.31 279.98"/><path class="cls-1" d="M713.65,275.69,6.49,269.62a3.87,3.87,0,0,1-1-7.6l183.27-51.46a3.87,3.87,0,0,1,1.05-.14l655.69.79c10.44,7.31-1.13,16.8-5.22,18.27L715,275.46A3.87,3.87,0,0,1,713.65,275.69Z"/><polygon class="cls-3" points="227.14 240.18 121.6 240.18 46.22 260.98 168.89 262.28 227.14 240.18"/><polygon class="cls-3" points="358.71 239.98 245.26 239.98 192.31 261.73 314.99 263.1 358.71 239.98"/><polygon class="cls-3" points="487.89 241.64 378.54 240.81 335.31 263.39 449.98 264.54 487.89 241.64"/><polygon class="cls-3" points="629.39 243.99 508.46 242.41 470.53 263.75 583.55 265.33 629.39 243.99"/><polygon class="cls-3" points="769.42 243.95 652.66 243.2 603.31 266.1 713.35 266.28 769.42 243.95"/><polygon class="cls-3" points="289.88 216.95 194.69 218.17 151.56 230.9 242.29 231.6 289.88 216.95"/><polygon class="cls-3" points="406.22 216.55 306.56 217.36 253.68 234.44 365.13 234.04 406.22 216.55"/><polygon class="cls-3" points="527.84 216.55 424.52 217.36 385.07 234.85 494.08 235.26 527.84 216.55"/><polygon class="cls-3" points="674.28 218.99 550.62 217.77 519.33 233.69 636.05 236.48 674.28 218.99"/><polygon class="cls-3" points="826.42 218.99 697.47 219.8 665.94 234.15 777.2 235.26 826.42 218.99"/><path class="cls-4" d="M243.88,267.62c-2.9-.29-6.13-1.15-7.17-1.87-1.53-1.06-.66-6.85-.55-8.36l1.45-19.47c.11-1.51,1.77-1.11,3.82-1h0c.76,3.9.11,21.62,1.68,22.71,6.15,4.25,13.28,7.68,7.63,8.1A30.14,30.14,0,0,1,243.88,267.62Z"/><path class="cls-4" d="M218.57,268.17c-2.9-.29-6.13-1.15-7.17-1.87-1.53-1.06-.66-6.85-.55-8.36l1.45-19.47c.11-1.51,1.77-1.11,3.82-1h0c.76,3.9.11,21.62,1.68,22.71,6.15,4.25,13.28,7.68,7.63,8.1A30.14,30.14,0,0,1,218.57,268.17Z"/><path class="cls-4" d="M248.89,201c15.86,11.72,40.56,17.07,51.37,0,.47-.74,1.59-.71,1.59-1.59h0c0-.87-1-2.24-1.59-1.59-19.22,21.85-39.43,5-51.37,0-.81-.34-1.59.71-1.59,1.59h0C247.31,200.27,248.19,200.47,248.89,201Z"/><rect class="cls-5" x="196.34" y="157.07" width="76.25" height="76.25" transform="translate(468.92 390.38) rotate(-180)"/><polygon class="cls-6" points="179.75 240.43 196.34 233.32 196.34 157.07 179.75 167.38 179.75 240.43"/><polygon class="cls-6" points="179.75 240.43 259.2 240.43 272.58 233.32 196.34 233.32 179.75 240.43"/><circle class="cls-4" cx="256.83" cy="182.6" r="3.22"/><circle class="cls-4" cx="217.4" cy="182.6" r="3.22"/><path class="cls-4" d="M176.65,217.85c5.51-7,10.48-9.48,12.76-12.52.71-.81,1-1.22.18-1.93h0a2,2,0,0,0-2.76.19s-18.45,15.7-23,27.93c-.37,1-1.88,7,.41,4.83.53-.51,4.65-8.14,4.92-8.59C170.76,225.15,175.42,219.41,176.65,217.85Z"/><path class="cls-7" d="M156.36,232.94c2.07-3,3.91-4.28,5.67-4.64-.8-.83-1.17-1.62-.91-2.21.55-1.27,3.73-1.11,7.11.35s5.68,3.67,5.13,4.93a1.68,1.68,0,0,1-1.42.81,9.13,9.13,0,0,1,1.68,4.58c.37,3.21-.54,6-2,6.13-1.31.15-2.64-1.71-3.2-4.33-2.14,3.1-2.64,7.34-6.16,5.82C158.09,242.59,153.93,236.45,156.36,232.94Z"/><path class="cls-8" d="M226.17,198.75c.17,2.24,5,4.06,11.15,4.06s10.92-1.83,11.15-4.06c.53-5.2-5-4.06-11.15-4.06S225.76,193.55,226.17,198.75Z"/><path class="cls-7" d="M296.26,196.09a8.51,8.51,0,0,1-1.35-1.57c-1.45-2.14-1.73-4.48-.63-5.22.89-.6,2.42,0,3.74,1.46a10.71,10.71,0,0,1,.64-1.16c2.71-4.28,4.4-7.08,8.31-4.6s6.47,7.48,3.76,11.76a8.7,8.7,0,0,1-6.46,4.29,1.82,1.82,0,0,1-.22,1.06c-.59,1.1-1.89,1.4-5.21-.36s-4.91-4-4.32-5.07C294.76,196.21,295.38,196,296.26,196.09Z"/><path class="cls-4" d="M212.37,170.66c.16.5,2.54-1.69,5.34-2.56s5.54-.57,5.38-1.06-2.62-1-5.71,0S212.21,170.16,212.37,170.66Z"/><path class="cls-4" d="M262.18,170.66c-.16.5-2.54-1.7-5.34-2.57s-5.54-.57-5.38-1.07,2.62-1,5.71,0S262.35,170.17,262.18,170.66Z"/><path class="cls-4" d="M361.12,263.21c-2.9-.29-6.13-1.15-7.17-1.87-1.53-1.06-.66-6.85-.55-8.36l1.45-19.47c.11-1.51,1.77-1.11,3.82-1h0c.76,3.9.11,21.62,1.68,22.71,6.15,4.25,13.28,7.68,7.63,8.1A30.14,30.14,0,0,1,361.12,263.21Z"/><path class="cls-4" d="M335.81,263.76c-2.9-.29-6.13-1.15-7.17-1.87-1.53-1.06-.66-6.85-.55-8.36l1.45-19.47c.11-1.51,1.77-1.11,3.82-1h0c.76,3.9.11,21.62,1.68,22.71,6.15,4.25,13.28,7.68,7.63,8.1A30.14,30.14,0,0,1,335.81,263.76Z"/><path class="cls-4" d="M366.13,196.58c15.86,11.72,40.56,17.07,51.37,0,.47-.74,1.59-.71,1.59-1.59h0c0-.87-1-2.24-1.59-1.59-19.22,21.85-39.43,5-51.37,0-.81-.34-1.59.71-1.59,1.59h0C364.55,195.86,365.43,196.06,366.13,196.58Z"/><rect class="cls-5" x="313.58" y="152.66" width="76.25" height="76.25" transform="translate(703.4 381.56) rotate(-180)"/><polygon class="cls-6" points="296.99 236.01 313.58 228.9 313.58 152.66 296.99 162.97 296.99 236.01"/><polygon class="cls-6" points="296.99 236.01 376.44 236.01 389.82 228.9 313.58 228.9 296.99 236.01"/><circle class="cls-4" cx="374.07" cy="178.19" r="3.22"/><circle class="cls-4" cx="334.64" cy="178.19" r="3.22"/><path class="cls-4" d="M293.89,213.44c5.51-7,10.48-9.48,12.76-12.52.71-.81,1-1.22.18-1.93h0a2,2,0,0,0-2.76.19s-18.45,15.7-23,27.93c-.37,1-1.88,7,.41,4.83.53-.51,4.65-8.14,4.92-8.59C288,220.74,292.66,215,293.89,213.44Z"/><path class="cls-7" d="M273.6,228.52c2.07-3,3.91-4.28,5.67-4.64-.8-.83-1.17-1.62-.91-2.21.55-1.27,3.73-1.11,7.11.35s5.68,3.67,5.13,4.93a1.68,1.68,0,0,1-1.42.81,9.13,9.13,0,0,1,1.68,4.58c.37,3.21-.54,6-2,6.13-1.31.15-2.64-1.71-3.2-4.33-2.14,3.1-2.64,7.34-6.16,5.82C275.33,238.18,271.17,232,273.6,228.52Z"/><path class="cls-8" d="M343.41,194.33c.17,2.24,5,4.06,11.15,4.06s10.92-1.83,11.15-4.06c.53-5.2-5-4.06-11.15-4.06S343,189.13,343.41,194.33Z"/><path class="cls-7" d="M413.5,191.68a8.51,8.51,0,0,1-1.35-1.57c-1.45-2.14-1.73-4.48-.63-5.22.89-.6,2.42,0,3.74,1.46a10.71,10.71,0,0,1,.64-1.16c2.71-4.28,4.4-7.08,8.31-4.6s6.47,7.48,3.76,11.76a8.7,8.7,0,0,1-6.46,4.29,1.82,1.82,0,0,1-.22,1.06c-.59,1.1-1.89,1.4-5.21-.36s-4.91-4-4.32-5.07C412,191.8,412.62,191.61,413.5,191.68Z"/><path class="cls-4" d="M329.61,166.25c.16.5,2.54-1.69,5.34-2.56s5.54-.57,5.38-1.06-2.62-1-5.71,0S329.45,165.75,329.61,166.25Z"/><path class="cls-4" d="M379.42,166.25c-.16.5-2.54-1.7-5.34-2.57s-5.54-.57-5.38-1.07,2.62-1,5.71,0S379.59,165.75,379.42,166.25Z"/><path class="cls-4" d="M484.67,263.21c-2.9-.29-6.13-1.15-7.17-1.87-1.53-1.06-.66-6.85-.55-8.36l1.45-19.47c.11-1.51,1.77-1.11,3.82-1h0c.76,3.9.11,21.62,1.68,22.71,6.15,4.25,13.28,7.68,7.63,8.1A30.14,30.14,0,0,1,484.67,263.21Z"/><path class="cls-4" d="M459.35,263.76c-2.9-.29-6.13-1.15-7.17-1.87-1.53-1.06-.66-6.85-.55-8.36l1.45-19.47c.11-1.51,1.77-1.11,3.82-1h0c.76,3.9.11,21.62,1.68,22.71,6.15,4.25,13.28,7.68,7.63,8.1A30.14,30.14,0,0,1,459.35,263.76Z"/><path class="cls-4" d="M489.68,196.58c15.86,11.72,40.56,17.07,51.37,0,.47-.74,1.59-.71,1.59-1.59h0c0-.87-1-2.24-1.59-1.59-19.22,21.85-39.43,5-51.37,0-.81-.34-1.59.71-1.59,1.59h0C488.09,195.86,489,196.06,489.68,196.58Z"/><rect class="cls-5" x="437.12" y="152.66" width="76.25" height="76.25" transform="translate(950.49 381.56) rotate(-180)"/><polygon class="cls-6" points="420.53 236.01 437.12 228.9 437.12 152.66 420.53 162.97 420.53 236.01"/><polygon class="cls-6" points="420.53 236.01 499.99 236.01 513.37 228.9 437.12 228.9 420.53 236.01"/><circle class="cls-4" cx="497.61" cy="178.19" r="3.22"/><circle class="cls-4" cx="458.18" cy="178.19" r="3.22"/><path class="cls-4" d="M417.43,213.44c5.51-7,10.48-9.48,12.76-12.52.71-.81,1-1.22.18-1.93h0a2,2,0,0,0-2.76.19s-18.45,15.7-23,27.93c-.37,1-1.88,7,.41,4.83.53-.51,4.65-8.14,4.92-8.59C411.54,220.74,416.21,215,417.43,213.44Z"/><path class="cls-7" d="M397.14,228.52c2.07-3,3.91-4.28,5.67-4.64-.8-.83-1.17-1.62-.91-2.21.55-1.27,3.73-1.11,7.11.35s5.68,3.67,5.13,4.93a1.68,1.68,0,0,1-1.42.81,9.13,9.13,0,0,1,1.68,4.58c.37,3.21-.54,6-2,6.13-1.31.15-2.64-1.71-3.2-4.33-2.14,3.1-2.64,7.34-6.16,5.82C398.87,238.18,394.72,232,397.14,228.52Z"/><path class="cls-8" d="M467,194.33c.17,2.24,5,4.06,11.15,4.06s10.92-1.83,11.15-4.06c.53-5.2-5-4.06-11.15-4.06S466.55,189.13,467,194.33Z"/><path class="cls-7" d="M537,191.68a8.51,8.51,0,0,1-1.35-1.57c-1.45-2.14-1.73-4.48-.63-5.22.89-.6,2.42,0,3.74,1.46a10.71,10.71,0,0,1,.64-1.16c2.71-4.28,4.4-7.08,8.31-4.6s6.47,7.48,3.76,11.76a8.7,8.7,0,0,1-6.46,4.29,1.82,1.82,0,0,1-.22,1.06c-.59,1.1-1.89,1.4-5.21-.36s-4.91-4-4.32-5.07C535.55,191.8,536.16,191.61,537,191.68Z"/><path class="cls-4" d="M453.15,166.25c.16.5,2.54-1.69,5.34-2.56s5.54-.57,5.38-1.06-2.62-1-5.71,0S453,165.75,453.15,166.25Z"/><path class="cls-4" d="M503,166.25c-.16.5-2.54-1.7-5.34-2.57s-5.54-.57-5.38-1.07,2.62-1,5.71,0S503.13,165.75,503,166.25Z"/><path class="cls-4" d="M613.88,262.58c-2.9-.29-6.13-1.15-7.17-1.87-1.53-1.06-.66-6.85-.55-8.36l1.45-19.47c.11-1.51,1.77-1.11,3.82-1h0c.76,3.9.11,21.62,1.68,22.71,6.15,4.25,13.28,7.68,7.63,8.1A30.14,30.14,0,0,1,613.88,262.58Z"/><path class="cls-4" d="M588.57,263.13c-2.9-.29-6.13-1.15-7.17-1.87-1.53-1.06-.66-6.85-.55-8.36l1.45-19.47c.11-1.51,1.77-1.11,3.82-1h0c.76,3.9.11,21.62,1.68,22.71,6.15,4.25,13.28,7.68,7.63,8.1A30.14,30.14,0,0,1,588.57,263.13Z"/><path class="cls-4" d="M618.9,195.95c15.86,11.72,40.56,17.07,51.37,0,.47-.74,1.59-.71,1.59-1.59h0c0-.87-1-2.24-1.59-1.59-19.22,21.85-39.43,5-51.37,0-.81-.34-1.59.71-1.59,1.59h0C617.31,195.23,618.19,195.43,618.9,195.95Z"/><rect class="cls-5" x="566.34" y="152.02" width="76.25" height="76.25" transform="translate(1208.93 380.3) rotate(-180)"/><polygon class="cls-6" points="549.75 235.38 566.34 228.27 566.34 152.03 549.75 162.34 549.75 235.38"/><polygon class="cls-6" points="549.75 235.38 629.21 235.38 642.59 228.27 566.34 228.27 549.75 235.38"/><circle class="cls-4" cx="626.83" cy="177.56" r="3.22"/><circle class="cls-4" cx="587.4" cy="177.56" r="3.22"/><path class="cls-4" d="M546.65,212.81c5.51-7,10.48-9.48,12.76-12.52.71-.81,1-1.22.18-1.93h0a2,2,0,0,0-2.76.19s-18.45,15.7-23,27.93c-.37,1-1.88,7,.41,4.83.53-.51,4.65-8.14,4.92-8.59C540.76,220.11,545.42,214.37,546.65,212.81Z"/><path class="cls-7" d="M526.36,227.89c2.07-3,3.91-4.28,5.67-4.64-.8-.83-1.17-1.62-.91-2.21.55-1.27,3.73-1.11,7.11.35s5.68,3.67,5.13,4.93a1.68,1.68,0,0,1-1.42.81,9.13,9.13,0,0,1,1.68,4.58c.37,3.21-.54,6-2,6.13-1.31.15-2.64-1.71-3.2-4.33-2.14,3.1-2.64,7.34-6.16,5.82C528.09,237.55,523.93,231.41,526.36,227.89Z"/><path class="cls-8" d="M596.17,193.7c.17,2.24,5,4.06,11.15,4.06s10.92-1.83,11.15-4.06c.53-5.2-5-4.06-11.15-4.06S595.77,188.5,596.17,193.7Z"/><path class="cls-7" d="M666.26,191.05a8.51,8.51,0,0,1-1.35-1.57c-1.45-2.14-1.73-4.48-.63-5.22.89-.6,2.42,0,3.74,1.46a10.71,10.71,0,0,1,.64-1.16c2.71-4.28,4.4-7.08,8.31-4.6s6.47,7.48,3.76,11.76a8.7,8.7,0,0,1-6.46,4.29,1.82,1.82,0,0,1-.22,1.06c-.59,1.1-1.89,1.4-5.21-.36s-4.91-4-4.32-5.07C664.77,191.17,665.38,191,666.26,191.05Z"/><path class="cls-4" d="M582.37,165.62c.16.5,2.54-1.69,5.34-2.56s5.54-.57,5.38-1.06-2.62-1-5.71,0S582.21,165.12,582.37,165.62Z"/><path class="cls-4" d="M632.19,165.62c-.16.5-2.54-1.7-5.34-2.57s-5.54-.57-5.38-1.07,2.62-1,5.71,0S632.35,165.12,632.19,165.62Z"/><path class="cls-4" d="M770.84,263.21c-2.9-.29-6.13-1.15-7.17-1.87-1.53-1.06-.66-6.85-.55-8.36l1.45-19.47c.11-1.51,1.77-1.11,3.82-1h0c.76,3.9.11,21.62,1.68,22.71,6.15,4.25,13.28,7.68,7.63,8.1A30.14,30.14,0,0,1,770.84,263.21Z"/><path class="cls-4" d="M745.52,263.76c-2.9-.29-6.13-1.15-7.17-1.87-1.53-1.06-.66-6.85-.55-8.36l1.45-19.47c.11-1.51,1.77-1.11,3.82-1h0c.76,3.9.11,21.62,1.68,22.71,6.15,4.25,13.28,7.68,7.63,8.1A30.14,30.14,0,0,1,745.52,263.76Z"/><path class="cls-4" d="M775.85,196.58c15.86,11.72,40.56,17.07,51.37,0,.47-.74,1.59-.71,1.59-1.59h0c0-.87-1-2.24-1.59-1.59-19.22,21.85-39.43,5-51.37,0-.81-.34-1.59.71-1.59,1.59h0C774.26,195.86,775.15,196.06,775.85,196.58Z"/><rect class="cls-5" x="723.29" y="152.66" width="76.25" height="76.25" transform="translate(1522.83 381.56) rotate(-180)"/><polygon class="cls-6" points="706.7 236.01 723.29 228.9 723.29 152.66 706.7 162.97 706.7 236.01"/><polygon class="cls-6" points="706.7 236.01 786.16 236.01 799.54 228.9 723.29 228.9 706.7 236.01"/><circle class="cls-4" cx="783.78" cy="178.19" r="3.22"/><circle class="cls-4" cx="744.35" cy="178.19" r="3.22"/><path class="cls-4" d="M703.6,213.44c5.51-7,10.48-9.48,12.76-12.52.71-.81,1-1.22.18-1.93h0a2,2,0,0,0-2.76.19s-18.45,15.7-23,27.93c-.37,1-1.88,7,.41,4.83.53-.51,4.65-8.14,4.92-8.59C697.71,220.74,702.38,215,703.6,213.44Z"/><path class="cls-7" d="M683.31,228.52c2.07-3,3.91-4.28,5.67-4.64-.8-.83-1.17-1.62-.91-2.21.55-1.27,3.73-1.11,7.11.35s5.68,3.67,5.13,4.93a1.68,1.68,0,0,1-1.42.81,9.13,9.13,0,0,1,1.68,4.58c.37,3.21-.54,6-2,6.13-1.31.15-2.64-1.71-3.2-4.33-2.14,3.1-2.64,7.34-6.16,5.82C685,238.18,680.89,232,683.31,228.52Z"/><path class="cls-8" d="M753.12,194.33c.17,2.24,5,4.06,11.15,4.06s10.92-1.83,11.15-4.06c.53-5.2-5-4.06-11.15-4.06S752.72,189.13,753.12,194.33Z"/><path class="cls-7" d="M823.21,191.68a8.51,8.51,0,0,1-1.35-1.57c-1.45-2.14-1.73-4.48-.63-5.22.89-.6,2.42,0,3.74,1.46a10.71,10.71,0,0,1,.64-1.16c2.71-4.28,4.4-7.08,8.31-4.6s6.47,7.48,3.76,11.76a8.7,8.7,0,0,1-6.46,4.29,1.82,1.82,0,0,1-.22,1.06c-.59,1.1-1.89,1.4-5.21-.36s-4.91-4-4.32-5.07C821.72,191.8,822.33,191.61,823.21,191.68Z"/><path class="cls-4" d="M739.32,166.25c.16.5,2.54-1.69,5.34-2.56s5.54-.57,5.38-1.06-2.62-1-5.71,0S739.16,165.75,739.32,166.25Z"/><path class="cls-4" d="M789.14,166.25c-.16.5-2.54-1.7-5.34-2.57s-5.54-.57-5.38-1.07,2.62-1,5.71,0S789.3,165.75,789.14,166.25Z"/><path class="cls-4" d="M160.68,303.55c-2.9-.29-6.13-1.15-7.17-1.87-1.53-1.06-.66-6.85-.55-8.36l1.45-19.47c.11-1.51,1.77-1.11,3.82-1h0c.76,3.9.11,21.62,1.68,22.71,6.15,4.25,13.28,7.68,7.63,8.1A30.14,30.14,0,0,1,160.68,303.55Z"/><path class="cls-4" d="M135.36,304.1c-2.9-.29-6.13-1.15-7.17-1.87-1.53-1.06-.66-6.85-.55-8.36l1.45-19.47c.11-1.51,1.77-1.11,3.82-1h0c.76,3.9.11,21.62,1.68,22.71,6.15,4.25,13.28,7.68,7.63,8.1A30.14,30.14,0,0,1,135.36,304.1Z"/><path class="cls-4" d="M165.69,236.92c15.86,11.72,40.56,17.07,51.37,0,.47-.74,1.59-.71,1.59-1.59h0c0-.87-1-2.24-1.59-1.59-19.22,21.85-39.43,5-51.37,0-.81-.34-1.59.71-1.59,1.59h0C164.1,236.2,165,236.4,165.69,236.92Z"/><rect class="cls-5" x="113.13" y="193" width="76.25" height="76.25" transform="translate(302.51 462.24) rotate(-180)"/><polygon class="cls-6" points="96.54 276.35 113.13 269.25 113.13 193 96.54 203.31 96.54 276.35"/><polygon class="cls-6" points="96.54 276.35 176 276.35 189.38 269.25 113.13 269.25 96.54 276.35"/><circle class="cls-4" cx="173.62" cy="218.53" r="3.22"/><circle class="cls-4" cx="134.2" cy="218.53" r="3.22"/><path class="cls-4" d="M93.44,253.78c5.51-7,10.48-9.48,12.76-12.52.71-.81,1-1.22.18-1.93h0a2,2,0,0,0-2.76.19s-18.45,15.7-23,27.93c-.37,1-1.88,7,.41,4.83.53-.51,4.65-8.14,4.92-8.59C87.55,261.08,92.22,255.34,93.44,253.78Z"/><path class="cls-7" d="M73.15,268.86c2.07-3,3.91-4.28,5.67-4.64-.8-.83-1.17-1.62-.91-2.21.55-1.27,3.73-1.11,7.11.35s5.68,3.67,5.13,4.93a1.68,1.68,0,0,1-1.42.81,9.13,9.13,0,0,1,1.68,4.58c.37,3.21-.54,6-2,6.13-1.31.15-2.64-1.71-3.2-4.33-2.14,3.1-2.64,7.34-6.16,5.82C74.89,278.52,70.73,272.38,73.15,268.86Z"/><path class="cls-8" d="M143,234.67c.17,2.24,5,4.06,11.15,4.06s10.92-1.83,11.15-4.06c.53-5.2-5-4.06-11.15-4.06S142.56,229.47,143,234.67Z"/><path class="cls-7" d="M213.05,232a8.51,8.51,0,0,1-1.35-1.57c-1.45-2.14-1.73-4.48-.63-5.22.89-.6,2.42,0,3.74,1.46a10.71,10.71,0,0,1,.64-1.16c2.71-4.28,4.4-7.08,8.31-4.6s6.47,7.48,3.76,11.76a8.7,8.7,0,0,1-6.46,4.29,1.82,1.82,0,0,1-.22,1.06c-.59,1.1-1.89,1.4-5.21-.36s-4.91-4-4.32-5.07C211.56,232.14,212.17,231.95,213.05,232Z"/><path class="cls-4" d="M129.17,206.59c.16.5,2.54-1.69,5.34-2.56s5.54-.57,5.38-1.06-2.62-1-5.71,0S129,206.09,129.17,206.59Z"/><path class="cls-4" d="M179,206.59c-.16.5-2.54-1.7-5.34-2.57s-5.54-.57-5.38-1.07,2.62-1,5.71,0S179.14,206.1,179,206.59Z"/><polygon class="cls-9" points="263.78 187.09 266.82 186.93 267.23 178.84 263.17 179.57 263.78 187.09"/><path class="cls-9" d="M204.72,179.45c-6.19-2.35,16.5,10.74,35.07,8.58s36.22-9.88,35.42-16.78-5.07-10.09-23.48-6.85C233.64,167.58,216.54,183.94,204.72,179.45Z"/><path class="cls-4" d="M339.51,222.55c11.34-7.71,14.52-17.73,17.24-14.29.94,1.19-7.75,14.27-20,20.38-11.87,5.91-17,6.82-18,5.63C315.4,230.05,328.18,230.25,339.51,222.55Z"/><path class="cls-10" d="M364.09,207.39c-.09-5.29-4.3-9.86-9.58-9.58-3.52.19-4.71,2.84-7.19,6.45-1.3-2.62-2.2-3.6-4.86-2.67-1.39.49-1.54,3.26-.4,6a16.58,16.58,0,0,0,2.43,4,1.31,1.31,0,0,0-.45.45c-.74,1.28,1,3.64,3.83,5.29s5.76,1.95,6.5.67a1.49,1.49,0,0,0,.12-1.07h0A9.5,9.5,0,0,0,364.09,207.39Z"/><path class="cls-4" d="M267.21,315.39c-3.14-.31-6.65-1.24-7.77-2-1.65-1.15-.71-7.42-.59-9.05l1.57-21.1c.12-1.63,1.92-1.2,4.14-1h0c.82,4.22.11,23.42,1.83,24.61,6.66,4.61,14.39,8.33,8.27,8.78A32.65,32.65,0,0,1,267.21,315.39Z"/><path class="cls-4" d="M299.1,312c-3.16,0-6.73-.6-7.93-1.28-1.76-1-1.42-7.32-1.45-9l-.44-21.15c0-1.64,1.79-1.38,4-1.42h0c1.22,4.12,2.35,23.31,4.16,24.32,7.07,4,15.12,6.92,9.07,7.95A32.65,32.65,0,0,1,299.1,312Z"/><ellipse class="cls-11" cx="273.98" cy="235.67" rx="55.02" ry="50.42"/><path class="cls-12" d="M281.64,279.25c-29.35,0-53.15-22.18-53.15-49.55,0-15.68,7.82-29.66,20-38.74-17.56,8.42-29.55,25.28-29.55,44.7,0,27.85,24.63,50.42,55,50.42,18.13,0,34.2-8,44.23-20.43A55.08,55.08,0,0,1,281.64,279.25Z"/><circle class="cls-4" cx="258.47" cy="224.13" r="3.2" transform="translate(-11.86 14.46) rotate(-3.13)"/><circle class="cls-4" cx="303.8" cy="219.46" r="3.2" transform="translate(-11.54 16.93) rotate(-3.13)"/><path class="cls-4" d="M263.26,206.61c.19.57-2.92-.53-6.37.59s-5.25,3.63-5.44,3.06,1.66-3,5.1-4.1S263.07,206,263.26,206.61Z"/><path class="cls-4" d="M296.82,204.92c-.09.59,2.73-.74,6.31-.19s5.82,2.7,5.91,2.11-2.16-2.63-5.74-3.18S296.91,204.33,296.82,204.92Z"/><path class="cls-13" d="M294.91,235.21c-.81,3.21-4.56,6-10.27,6.07s-9.55-2.68-10.39-5.86c-1-3.94.51-5.58,10.27-6.07C295.45,228.8,295.71,232,294.91,235.21Z"/><path class="cls-4" d="M220.24,262.25c-1.23,13.65,3.93,25.55-.45,25.48-1.52,0-6.12-15-3.07-28.4,3-12.93,5.53-17.5,7-17.48C229.15,241.93,221.47,248.6,220.24,262.25Z"/><path class="cls-10" d="M229.82,277.38a11.41,11.41,0,0,0-5.55-2.72,1.57,1.57,0,0,0,.8-1.29c-.12-1.33-3.27-2.13-7-1.77s-6.7,1.72-6.58,3c.05.59.7,1.07,1.72,1.39-2.18,1.43-3.73,4.17-2.52,9.8,1.16,5.41,7.37,6.54,12.06,5.64,4.45-.86,5.8-3.31,5.05-8.12,1.38.61,2.72.59,3.48-.17C232.47,282,231.82,279.38,229.82,277.38Z"/><path class="cls-4" d="M431.72,303.55c-2.9-.29-6.13-1.15-7.17-1.87-1.53-1.06-.66-6.85-.55-8.36l1.45-19.47c.11-1.51,1.77-1.11,3.82-1h0c.76,3.9.11,21.62,1.68,22.71,6.15,4.25,13.28,7.68,7.63,8.1A30.14,30.14,0,0,1,431.72,303.55Z"/><path class="cls-4" d="M406.4,304.1c-2.9-.29-6.13-1.15-7.17-1.87-1.53-1.06-.66-6.85-.55-8.36l1.45-19.47c.11-1.51,1.77-1.11,3.82-1h0c.76,3.9.11,21.62,1.68,22.71,6.15,4.25,13.28,7.68,7.63,8.1A30.14,30.14,0,0,1,406.4,304.1Z"/><path class="cls-4" d="M436.73,236.92c15.86,11.72,40.56,17.07,51.37,0,.47-.74,1.59-.71,1.59-1.59h0c0-.87-1-2.24-1.59-1.59-19.22,21.85-39.43,5-51.37,0-.81-.34-1.59.71-1.59,1.59h0C435.14,236.2,436,236.4,436.73,236.92Z"/><rect class="cls-5" x="384.17" y="193" width="76.25" height="76.25" transform="translate(844.6 462.24) rotate(-180)"/><polygon class="cls-6" points="367.58 276.35 384.17 269.25 384.17 193 367.58 203.31 367.58 276.35"/><polygon class="cls-6" points="367.58 276.35 447.04 276.35 460.42 269.25 384.17 269.25 367.58 276.35"/><circle class="cls-4" cx="444.66" cy="218.53" r="3.22"/><circle class="cls-4" cx="405.24" cy="218.53" r="3.22"/><path class="cls-4" d="M364.48,253.78c5.51-7,10.48-9.48,12.76-12.52.71-.81,1-1.22.18-1.93h0a2,2,0,0,0-2.76.19s-18.45,15.7-23,27.93c-.37,1-1.88,7,.41,4.83.53-.51,4.65-8.14,4.92-8.59C358.6,261.08,363.26,255.34,364.48,253.78Z"/><path class="cls-7" d="M344.2,268.86c2.07-3,3.91-4.28,5.67-4.64-.8-.83-1.17-1.62-.91-2.21.55-1.27,3.73-1.11,7.11.35s5.68,3.67,5.13,4.93a1.68,1.68,0,0,1-1.42.81,9.13,9.13,0,0,1,1.68,4.58c.37,3.21-.54,6-2,6.13-1.31.15-2.64-1.71-3.2-4.33-2.14,3.1-2.64,7.34-6.16,5.82C345.93,278.52,341.77,272.38,344.2,268.86Z"/><path class="cls-8" d="M414,234.67c.17,2.24,5,4.06,11.15,4.06s10.92-1.83,11.15-4.06c.53-5.2-5-4.06-11.15-4.06S413.6,229.47,414,234.67Z"/><path class="cls-7" d="M484.1,232a8.51,8.51,0,0,1-1.35-1.57c-1.45-2.14-1.73-4.48-.63-5.22.89-.6,2.42,0,3.74,1.46a10.71,10.71,0,0,1,.64-1.16c2.71-4.28,4.4-7.08,8.31-4.6s6.47,7.48,3.76,11.76A8.7,8.7,0,0,1,492.1,237a1.82,1.82,0,0,1-.22,1.06c-.59,1.1-1.89,1.4-5.21-.36s-4.91-4-4.32-5.07C482.6,232.14,483.21,231.95,484.1,232Z"/><path class="cls-4" d="M400.21,206.59c.16.5,2.54-1.69,5.34-2.56s5.54-.57,5.38-1.06-2.62-1-5.71,0S400,206.09,400.21,206.59Z"/><path class="cls-4" d="M450,206.59c-.16.5-2.54-1.7-5.34-2.57s-5.54-.57-5.38-1.07,2.62-1,5.71,0S450.18,206.1,450,206.59Z"/><path class="cls-4" d="M560.31,304.18c-2.9-.29-6.13-1.15-7.17-1.87-1.53-1.06-.66-6.85-.55-8.36L554,274.49c.11-1.51,1.77-1.11,3.82-1h0c.76,3.9.11,21.62,1.68,22.71,6.15,4.25,13.28,7.68,7.63,8.1A30.14,30.14,0,0,1,560.31,304.18Z"/><path class="cls-4" d="M535,304.73c-2.9-.29-6.13-1.15-7.17-1.87-1.53-1.06-.66-6.85-.55-8.36L528.72,275c.11-1.51,1.77-1.11,3.82-1h0c.76,3.9.11,21.62,1.68,22.71,6.15,4.25,13.28,7.68,7.63,8.1A30.14,30.14,0,0,1,535,304.73Z"/><path class="cls-4" d="M565.32,237.55c15.86,11.72,40.56,17.07,51.37,0,.47-.74,1.59-.71,1.59-1.59h0c0-.87-1-2.24-1.59-1.59-19.22,21.85-39.43,5-51.37,0-.81-.34-1.59.71-1.59,1.59h0C563.73,236.83,564.62,237,565.32,237.55Z"/><rect class="cls-5" x="512.76" y="193.63" width="76.25" height="76.25" transform="translate(1101.77 463.5) rotate(-180)"/><polygon class="cls-6" points="496.17 276.98 512.76 269.88 512.76 193.63 496.17 203.94 496.17 276.98"/><polygon class="cls-6" points="496.17 276.98 575.63 276.98 589.01 269.88 512.76 269.88 496.17 276.98"/><circle class="cls-4" cx="573.25" cy="219.16" r="3.22"/><circle class="cls-4" cx="533.82" cy="219.16" r="3.22"/><path class="cls-4" d="M493.07,254.41c5.51-7,10.48-9.48,12.76-12.52.71-.81,1-1.22.18-1.93h0a2,2,0,0,0-2.76.19s-18.45,15.7-23,27.93c-.37,1-1.88,7,.41,4.83.53-.51,4.65-8.14,4.92-8.59C487.18,261.71,491.85,256,493.07,254.41Z"/><path class="cls-7" d="M472.78,269.49c2.07-3,3.91-4.28,5.67-4.64-.8-.83-1.17-1.62-.91-2.21.55-1.27,3.73-1.11,7.11.35s5.68,3.67,5.13,4.93a1.68,1.68,0,0,1-1.42.81,9.13,9.13,0,0,1,1.68,4.58c.37,3.21-.54,6-2,6.13-1.31.15-2.64-1.71-3.2-4.33-2.14,3.1-2.64,7.34-6.16,5.82C474.51,279.15,470.36,273,472.78,269.49Z"/><path class="cls-8" d="M542.59,235.31c.17,2.24,5,4.06,11.15,4.06s10.92-1.83,11.15-4.06c.53-5.2-5-4.06-11.15-4.06S542.19,230.1,542.59,235.31Z"/><path class="cls-7" d="M612.68,232.65a8.51,8.51,0,0,1-1.35-1.57c-1.45-2.14-1.73-4.48-.63-5.22.89-.6,2.42,0,3.74,1.46a10.71,10.71,0,0,1,.64-1.16c2.71-4.28,4.4-7.08,8.31-4.6s6.47,7.48,3.76,11.76a8.7,8.7,0,0,1-6.46,4.29,1.82,1.82,0,0,1-.22,1.06c-.59,1.1-1.89,1.4-5.21-.36s-4.91-4-4.32-5.07C611.19,232.77,611.8,232.58,612.68,232.65Z"/><path class="cls-4" d="M528.79,207.22c.16.5,2.54-1.69,5.34-2.56s5.54-.57,5.38-1.06-2.62-1-5.71,0S528.63,206.72,528.79,207.22Z"/><path class="cls-4" d="M578.61,207.22c-.16.5-2.54-1.7-5.34-2.57s-5.54-.57-5.38-1.07,2.62-1,5.71,0S578.77,206.73,578.61,207.22Z"/><path class="cls-4" d="M696.46,304.18c-2.9-.29-6.13-1.15-7.17-1.87-1.53-1.06-.66-6.85-.55-8.36l1.45-19.47c.11-1.51,1.77-1.11,3.82-1h0c.76,3.9.11,21.62,1.68,22.71,6.15,4.25,13.28,7.68,7.63,8.1A30.14,30.14,0,0,1,696.46,304.18Z"/><path class="cls-4" d="M671.14,304.73c-2.9-.29-6.13-1.15-7.17-1.87-1.53-1.06-.66-6.85-.55-8.36L664.88,275c.11-1.51,1.77-1.11,3.82-1h0c.76,3.9.11,21.62,1.68,22.71,6.15,4.25,13.28,7.68,7.63,8.1A30.14,30.14,0,0,1,671.14,304.73Z"/><path class="cls-4" d="M701.47,237.55c15.86,11.72,40.56,17.07,51.37,0,.47-.74,1.59-.71,1.59-1.59h0c0-.87-1-2.24-1.59-1.59-19.22,21.85-39.43,5-51.37,0-.81-.34-1.59.71-1.59,1.59h0C699.88,236.83,700.77,237,701.47,237.55Z"/><rect class="cls-5" x="648.91" y="193.63" width="76.25" height="76.25" transform="translate(1374.07 463.5) rotate(-180)"/><polygon class="cls-6" points="632.32 276.98 648.91 269.88 648.91 193.63 632.32 203.94 632.32 276.98"/><polygon class="cls-6" points="632.32 276.98 711.78 276.98 725.16 269.88 648.91 269.88 632.32 276.98"/><circle class="cls-4" cx="709.4" cy="219.16" r="3.22"/><circle class="cls-4" cx="669.98" cy="219.16" r="3.22"/><path class="cls-4" d="M629.22,254.41c5.51-7,10.48-9.48,12.76-12.52.71-.81,1-1.22.18-1.93h0a2,2,0,0,0-2.76.19s-18.45,15.7-23,27.93c-.37,1-1.88,7,.41,4.83.53-.51,4.65-8.14,4.92-8.59C623.33,261.71,628,256,629.22,254.41Z"/><path class="cls-7" d="M608.93,269.49c2.07-3,3.91-4.28,5.67-4.64-.8-.83-1.17-1.62-.91-2.21.55-1.27,3.73-1.11,7.11.35s5.68,3.67,5.13,4.93a1.68,1.68,0,0,1-1.42.81,9.13,9.13,0,0,1,1.68,4.58c.37,3.21-.54,6-2,6.13-1.31.15-2.64-1.71-3.2-4.33-2.14,3.1-2.64,7.34-6.16,5.82C610.67,279.15,606.51,273,608.93,269.49Z"/><path class="cls-8" d="M678.74,235.31c.17,2.24,5,4.06,11.15,4.06s10.92-1.83,11.15-4.06c.53-5.2-5-4.06-11.15-4.06S678.34,230.1,678.74,235.31Z"/><path class="cls-7" d="M748.83,232.65a8.51,8.51,0,0,1-1.35-1.57c-1.45-2.14-1.73-4.48-.63-5.22.89-.6,2.42,0,3.74,1.46a10.71,10.71,0,0,1,.64-1.16c2.71-4.28,4.4-7.08,8.31-4.6S766,229,763.3,233.33a8.7,8.7,0,0,1-6.46,4.29,1.82,1.82,0,0,1-.22,1.06c-.59,1.1-1.89,1.4-5.21-.36s-4.91-4-4.32-5.07C747.34,232.77,748,232.58,748.83,232.65Z"/><path class="cls-4" d="M664.95,207.22c.16.5,2.54-1.69,5.34-2.56s5.54-.57,5.38-1.06-2.62-1-5.71,0S664.78,206.72,664.95,207.22Z"/><path class="cls-4" d="M714.76,207.22c-.16.5-2.54-1.7-5.34-2.57s-5.54-.57-5.38-1.07,2.62-1,5.71,0S714.92,206.73,714.76,207.22Z"/><polygon class="cls-1" points="678.62 344.33 70.65 344.33 70.65 277.51 678.62 283.82 678.62 344.33"/><polygon class="cls-3" points="703.84 288.86 23.71 282.56 25.6 269.95 712.03 271.84 703.84 288.86"/><polygon class="cls-1" points="710.77 276.25 35.04 269.63 39.47 259.87 717.71 269.32 710.77 276.25"/><path class="cls-4" d="M331.64,217.3c10.77-7.32,13.79-16.84,16.38-13.58.9,1.13-7.36,13.55-19,19.36-11.28,5.62-16.19,6.48-17.09,5.35C308.73,224.43,320.86,224.63,331.64,217.3Z"/><path class="cls-14" d="M355,202.91c-.09-5-4.08-9.37-9.1-9.1-3.35.18-4.47,2.7-6.83,6.13-1.24-2.49-2.09-3.42-4.62-2.54-1.32.46-1.46,3.1-.38,5.72a15.76,15.76,0,0,0,2.31,3.82,1.25,1.25,0,0,0-.43.43c-.7,1.21.93,3.46,3.64,5s5.47,1.85,6.17.64a1.41,1.41,0,0,0,.12-1h0A9,9,0,0,0,355,202.91Z"/><path class="cls-4" d="M262.94,305.52c-3-.29-6.31-1.18-7.38-1.92-1.57-1.1-.68-7.05-.56-8.6l1.5-20c.12-1.55,1.82-1.14,3.93-1h0c.78,4,.11,22.25,1.73,23.38,6.33,4.38,13.68,7.91,7.85,8.34A31,31,0,0,1,262.94,305.52Z"/><path class="cls-4" d="M293.24,302.28c-3,0-6.4-.57-7.53-1.21-1.67-.94-1.35-7-1.38-8.51l-.42-20.09c0-1.55,1.7-1.31,3.82-1.35h0c1.16,3.92,2.23,22.14,4,23.11,6.72,3.76,14.37,6.57,8.61,7.55A31,31,0,0,1,293.24,302.28Z"/><ellipse class="cls-11" cx="269.37" cy="229.77" rx="52.27" ry="47.91"/><path class="cls-12" d="M276.65,271.18c-27.89,0-50.5-21.08-50.5-47.08,0-14.9,7.43-28.18,19-36.81-16.69,8-28.08,24-28.08,42.47,0,26.46,23.4,47.91,52.27,47.91,17.22,0,32.5-7.63,42-19.41A52.33,52.33,0,0,1,276.65,271.18Z"/><circle class="cls-4" cx="254.64" cy="218.81" r="3.04" transform="translate(-11.58 14.25) rotate(-3.13)"/><circle class="cls-4" cx="297.71" cy="214.37" r="3.04" transform="translate(-11.27 16.59) rotate(-3.13)"/><path class="cls-4" d="M259.18,202.16c.18.54-2.78-.51-6,.56s-5,3.45-5.17,2.91,1.58-2.82,4.85-3.89S259,201.62,259.18,202.16Z"/><path class="cls-4" d="M291.07,200.56c-.09.56,2.59-.7,6-.18s5.53,2.57,5.61,2-2.05-2.5-5.45-3S291.16,200,291.07,200.56Z"/><path class="cls-13" d="M289.26,229.33c-.77,3-4.34,5.71-9.76,5.76s-9.07-2.54-9.87-5.57c-1-3.75.48-5.3,9.76-5.76C289.77,223.25,290,226.3,289.26,229.33Z"/><path class="cls-4" d="M218.32,255c-1.17,13,3.74,24.28-.43,24.21-1.44,0-5.81-14.29-2.91-27,2.81-12.29,5.25-16.63,6.7-16.61C226.78,235.72,219.49,242.05,218.32,255Z"/><path class="cls-14" d="M227.42,269.4a10.84,10.84,0,0,0-5.27-2.59,1.49,1.49,0,0,0,.76-1.22c-.12-1.26-3.11-2-6.68-1.68s-6.37,1.63-6.25,2.9c.05.56.66,1,1.63,1.32-2.07,1.36-3.54,4-2.39,9.31,1.1,5.14,7,6.22,11.46,5.36,4.23-.82,5.51-3.15,4.8-7.71,1.31.58,2.58.56,3.31-.16C229.93,273.77,229.32,271.3,227.42,269.4Z"/><path class="cls-15" d="M258.85,183.31s-9.28,5-12.34,6.38-11.77,4.43-11.77,4.43l-5.28-11.77,24.11-10.81Z"/><rect class="cls-16" x="215.07" y="192.45" width="1.51" height="22.2"/><path class="cls-17" d="M263.48,172.47l-50,22.41a1.8,1.8,0,0,1-2.26-2.58l10.45-16.91a7.62,7.62,0,0,1,3.34-2.94l45.81-20.75a1.89,1.89,0,0,1,2.5,2.5l-7.07,15.52A5.53,5.53,0,0,1,263.48,172.47Z"/><polygon class="cls-16" points="236.97 173.55 217.43 182 216.72 183.28 239.89 173.35 236.97 173.55"/><path class="cls-4" d="M162.45,300.35c-2.87-.28-6.08-1.13-7.11-1.85-1.51-1.05-.65-6.79-.54-8.28l1.44-19.29c.11-1.49,1.75-1.1,3.78-.94h0c.75,3.86.1,21.42,1.67,22.5,6.09,4.21,13.16,7.61,7.56,8A29.86,29.86,0,0,1,162.45,300.35Z"/><path class="cls-4" d="M137.37,300.9c-2.87-.28-6.08-1.13-7.11-1.85-1.51-1.05-.65-6.79-.54-8.28l1.44-19.29c.11-1.49,1.75-1.1,3.78-.94h0c.75,3.86.1,21.42,1.67,22.5,6.09,4.21,13.16,7.61,7.56,8A29.86,29.86,0,0,1,137.37,300.9Z"/><path class="cls-4" d="M167.42,234.33c15.72,11.61,40.18,16.91,50.9,0,.46-.73,1.57-.71,1.57-1.57h0c0-.86-1-2.22-1.57-1.57-19,21.64-39.06,4.95-50.9,0-.8-.33-1.57.71-1.57,1.57h0C165.84,233.63,166.72,233.82,167.42,234.33Z"/><rect class="cls-5" x="115.35" y="190.82" width="75.54" height="75.54" transform="translate(306.23 457.18) rotate(-180)"/><polygon class="cls-6" points="98.91 273.41 115.35 266.36 115.35 190.82 98.91 201.04 98.91 273.41"/><polygon class="cls-6" points="98.91 273.41 177.63 273.41 190.89 266.36 115.35 266.36 98.91 273.41"/><circle class="cls-4" cx="175.28" cy="216.12" r="3.19"/><circle class="cls-4" cx="136.21" cy="216.12" r="3.19"/><path class="cls-4" d="M95.84,251c5.46-7,10.38-9.39,12.64-12.41.7-.8,1-1.21.18-1.91h0a2,2,0,0,0-2.74.19s-18.28,15.55-22.74,27.67c-.37,1-1.86,7,.41,4.78.53-.5,4.61-8.07,4.88-8.51C90,258.27,94.63,252.59,95.84,251Z"/><path class="cls-18" d="M75.74,266c2-3,3.87-4.24,5.62-4.6-.79-.82-1.15-1.61-.9-2.19.54-1.25,3.69-1.1,7,.35s5.62,3.63,5.08,4.89a1.66,1.66,0,0,1-1.41.8,9,9,0,0,1,1.66,4.54c.37,3.18-.53,5.9-2,6.08-1.3.15-2.62-1.7-3.17-4.29-2.12,3.07-2.62,7.27-6.1,5.76C77.45,275.55,73.34,269.47,75.74,266Z"/><path class="cls-8" d="M144.9,232.11c.17,2.21,4.95,4,11,4s10.82-1.81,11-4c.53-5.15-4.95-4-11-4S144.5,227,144.9,232.11Z"/><path class="cls-18" d="M214.34,229.49a8.43,8.43,0,0,1-1.34-1.55c-1.43-2.12-1.71-4.43-.63-5.17.88-.6,2.4,0,3.71,1.44a10.61,10.61,0,0,1,.63-1.15c2.68-4.24,4.36-7,8.23-4.56s6.41,7.41,3.73,11.65a8.62,8.62,0,0,1-6.4,4.25,1.8,1.8,0,0,1-.22,1c-.58,1.09-1.87,1.39-5.16-.36s-4.86-3.93-4.28-5C212.86,229.6,213.47,229.41,214.34,229.49Z"/><path class="cls-4" d="M131.23,204.29c.16.49,2.52-1.68,5.29-2.54s5.49-.56,5.33-1.05-2.6-1-5.66,0S131.07,203.79,131.23,204.29Z"/><path class="cls-4" d="M180.58,204.29c-.16.49-2.52-1.68-5.29-2.55s-5.49-.57-5.33-1.06,2.6-.95,5.66,0S180.74,203.8,180.58,204.29Z"/><path class="cls-15" d="M131,191s-9.56,2.94-12.66,3.64-11.77,1.94-11.77,1.94l-2.73-11.92,24.43-5.59Z"/><rect class="cls-16" x="90.98" y="191.99" width="1.43" height="21.05"/><path class="cls-17" d="M137.27,181.83,86.63,193.41A1.7,1.7,0,0,1,85,190.59L97.85,176.8a7.23,7.23,0,0,1,3.65-2.11l46.45-10.81a1.79,1.79,0,0,1,1.86,2.79l-9.45,13.12A5.24,5.24,0,0,1,137.27,181.83Z"/><polygon class="cls-16" points="112.41 177.92 92.68 182.16 91.78 183.22 115.16 178.28 112.41 177.92"/><path class="cls-4" d="M431.5,303.22c-2.87-.28-6.08-1.13-7.11-1.85-1.51-1.05-.65-6.79-.54-8.28l1.44-19.29c.11-1.49,1.75-1.1,3.78-.94h0c.75,3.86.1,21.42,1.67,22.5,6.09,4.21,13.16,7.61,7.56,8A29.86,29.86,0,0,1,431.5,303.22Z"/><path class="cls-4" d="M406.42,303.77c-2.87-.28-6.08-1.13-7.11-1.85-1.51-1.05-.65-6.79-.54-8.28l1.44-19.29c.11-1.49,1.75-1.1,3.78-.94h0c.75,3.86.1,21.42,1.67,22.5,6.09,4.21,13.16,7.61,7.56,8A29.86,29.86,0,0,1,406.42,303.77Z"/><path class="cls-4" d="M436.46,237.21c15.72,11.61,40.18,16.91,50.9,0,.46-.73,1.57-.71,1.57-1.57h0c0-.86-1-2.22-1.57-1.57-19,21.64-39.06,4.95-50.9,0-.8-.33-1.57.71-1.57,1.57h0C434.89,236.5,435.77,236.69,436.46,237.21Z"/><rect class="cls-5" x="384.39" y="193.69" width="75.54" height="75.54" transform="translate(844.32 462.93) rotate(-180)"/><polygon class="cls-6" points="367.96 276.28 384.39 269.24 384.39 193.69 367.96 203.91 367.96 276.28"/><polygon class="cls-6" points="367.96 276.28 446.68 276.28 459.93 269.24 384.39 269.24 367.96 276.28"/><circle class="cls-4" cx="444.32" cy="218.99" r="3.19"/><circle class="cls-4" cx="405.26" cy="218.99" r="3.19"/><path class="cls-4" d="M364.89,253.91c5.46-7,10.38-9.39,12.64-12.41.7-.8,1-1.21.18-1.91h0a2,2,0,0,0-2.74.19s-18.28,15.55-22.74,27.67c-.37,1-1.86,7,.41,4.78.53-.5,4.61-8.07,4.88-8.51C359.05,261.15,363.67,255.46,364.89,253.91Z"/><path class="cls-18" d="M344.79,268.86c2-3,3.87-4.24,5.62-4.6-.79-.82-1.15-1.61-.9-2.19.54-1.25,3.69-1.1,7,.35s5.62,3.63,5.08,4.89a1.66,1.66,0,0,1-1.41.8,9,9,0,0,1,1.66,4.54c.37,3.18-.53,5.9-2,6.08-1.3.15-2.62-1.7-3.17-4.29-2.12,3.07-2.62,7.27-6.1,5.76C346.5,278.42,342.38,272.34,344.79,268.86Z"/><path class="cls-8" d="M413.95,235c.17,2.21,4.95,4,11,4s10.82-1.81,11-4c.53-5.15-4.95-4-11-4S413.55,229.83,413.95,235Z"/><path class="cls-18" d="M483.39,232.36a8.43,8.43,0,0,1-1.34-1.55c-1.43-2.12-1.71-4.43-.63-5.17.88-.6,2.4,0,3.71,1.44a10.61,10.61,0,0,1,.63-1.15c2.68-4.24,4.36-7,8.23-4.56s6.41,7.41,3.73,11.65a8.62,8.62,0,0,1-6.4,4.25,1.8,1.8,0,0,1-.22,1c-.58,1.09-1.87,1.39-5.16-.36s-4.86-3.93-4.28-5C481.91,232.47,482.51,232.28,483.39,232.36Z"/><path class="cls-4" d="M400.28,207.16c.16.49,2.52-1.68,5.29-2.54s5.49-.56,5.33-1.05-2.6-1-5.66,0S400.12,206.67,400.28,207.16Z"/><path class="cls-4" d="M449.63,207.17c-.16.49-2.52-1.68-5.29-2.55s-5.49-.57-5.33-1.06,2.6-.95,5.66,0S449.79,206.67,449.63,207.17Z"/><path class="cls-15" d="M443.27,41.41s-10-.52-13.14-.92-11.72-2.21-11.72-2.21l1.53-12.13,24.86,3.14Z"/><rect class="cls-16" x="401.75" y="28.18" width="1.43" height="21.05" transform="translate(37.73 -135.77) rotate(20.07)"/><path class="cls-17" d="M452.37,34.92l-51.54-6.5a1.7,1.7,0,0,1-.56-3.21l16.8-8.55a7.23,7.23,0,0,1,4.15-.73l47.34,5.78a1.79,1.79,0,0,1,.79,3.26L456,34.06A5.24,5.24,0,0,1,452.37,34.92Z"/><polygon class="cls-16" points="430.37 22.71 410.38 19.93 409.17 20.61 432.83 24 430.37 22.71"/><path class="cls-15" d="M286.86,35.61S278,40.15,275,41.38s-11.26,3.94-11.26,3.94L259,34l23.1-9.7Z"/><rect class="cls-16" x="249.44" y="43.13" width="1.43" height="21.05" transform="translate(-5.5 43.81) rotate(-9.9)"/><path class="cls-17" d="M291.5,25.44l-47.9,20.12a1.7,1.7,0,0,1-2.09-2.5l10.29-15.8A7.23,7.23,0,0,1,255,24.55l43.9-18.64a1.79,1.79,0,0,1,2.31,2.43L294.19,22.9A5.24,5.24,0,0,1,291.5,25.44Z"/><polygon class="cls-16" points="266.34 25.86 247.63 33.44 246.93 34.63 269.12 25.74 266.34 25.86"/><path class="cls-15" d="M591.21,29.05S581.45,26.89,578.4,26s-11.2-4.11-11.2-4.11l3.5-11.72,24,7.18Z"/><rect class="cls-16" x="550.69" y="9.15" width="1.43" height="21.05" transform="translate(81.34 -269.24) rotate(29.53)"/><path class="cls-17" d="M601.26,24.14,551.48,9.26a1.7,1.7,0,0,1,0-3.26l18-5.67a7.23,7.23,0,0,1,4.22,0L619.4,13.78a1.79,1.79,0,0,1,.24,3.34l-14.69,6.76A5.24,5.24,0,0,1,601.26,24.14Z"/><polygon class="cls-16" points="581.56 8.49 562.29 2.45 560.99 2.92 583.77 10.16 581.56 8.49"/><path class="cls-15" d="M694.62,96.07s-9.76-2.16-12.81-3.07-11.2-4.11-11.2-4.11l3.5-11.72,24,7.18Z"/><rect class="cls-16" x="654.09" y="76.17" width="1.43" height="21.05" transform="translate(127.81 -311.5) rotate(29.53)"/><path class="cls-17" d="M704.66,91.17,654.89,76.28a1.7,1.7,0,0,1,0-3.26l18-5.67a7.23,7.23,0,0,1,4.22,0L722.8,80.8a1.79,1.79,0,0,1,.24,3.34l-14.69,6.76A5.24,5.24,0,0,1,704.66,91.17Z"/><polygon class="cls-16" points="684.96 75.51 665.7 69.48 664.4 69.95 687.18 77.18 684.96 75.51"/><path class="cls-15" d="M531,111.28s-8.76,4.82-11.65,6.15-11.12,4.3-11.12,4.3l-5.1-11.12,22.78-10.44Z"/><rect class="cls-16" x="494.21" y="119.98" width="1.43" height="21.05" transform="matrix(0.98, -0.2, 0.2, 0.98, -16.21, 103.56)"/><path class="cls-17" d="M535.34,101l-47.22,21.66a1.7,1.7,0,0,1-2.17-2.43l9.77-16.12a7.23,7.23,0,0,1,3.14-2.81l43.27-20a1.79,1.79,0,0,1,2.39,2.35l-6.58,14.77A5.24,5.24,0,0,1,535.34,101Z"/><polygon class="cls-16" points="510.21 102.2 491.75 110.38 491.08 111.59 512.97 102 510.21 102.2"/><path class="cls-15" d="M347.2,131.39s-8.76,4.82-11.65,6.15-11.12,4.3-11.12,4.3l-5.1-11.12,22.78-10.44Z"/><rect class="cls-16" x="310.38" y="140.08" width="1.43" height="21.05" transform="translate(-24.16 66.53) rotate(-11.75)"/><path class="cls-17" d="M351.51,121.08l-47.22,21.66a1.7,1.7,0,0,1-2.17-2.43l9.77-16.12a7.23,7.23,0,0,1,3.14-2.81l43.27-20a1.79,1.79,0,0,1,2.39,2.35l-6.58,14.77A5.24,5.24,0,0,1,351.51,121.08Z"/><polygon class="cls-16" points="326.37 122.31 307.92 130.49 307.25 131.7 329.14 122.1 326.37 122.31"/><path class="cls-15" d="M154.8,92.26s-10-.85-13.1-1.35-11.64-2.6-11.64-2.6L132,76.23l24.74,3.95Z"/><rect class="cls-16" x="113.39" y="77.69" width="1.43" height="21.05" transform="translate(41.24 -36.25) rotate(21.95)"/><path class="cls-17" d="M164.11,86.07l-51.3-8.19a1.7,1.7,0,0,1-.45-3.23l17.08-8a7.23,7.23,0,0,1,4.17-.6l47.12,7.33a1.79,1.79,0,0,1,.68,3.28l-13.67,8.64A5.24,5.24,0,0,1,164.11,86.07Z"/><polygon class="cls-16" points="142.51 73.15 122.63 69.71 121.39 70.35 144.93 74.51 142.51 73.15"/><path class="cls-4" d="M559.8,302.26c-2.87-.28-6.08-1.13-7.11-1.85-1.51-1.05-.65-6.79-.54-8.28l1.44-19.29c.11-1.49,1.75-1.1,3.78-.94h0c.75,3.86.1,21.42,1.67,22.5,6.09,4.21,13.16,7.61,7.56,8A29.86,29.86,0,0,1,559.8,302.26Z"/><path class="cls-4" d="M534.72,302.81c-2.87-.28-6.08-1.13-7.11-1.85-1.51-1.05-.65-6.79-.54-8.28l1.44-19.29c.11-1.49,1.75-1.1,3.78-.94h0c.75,3.86.1,21.42,1.67,22.5,6.09,4.21,13.16,7.61,7.56,8A29.86,29.86,0,0,1,534.72,302.81Z"/><path class="cls-4" d="M564.76,236.25c15.72,11.61,40.18,16.91,50.9,0,.46-.73,1.57-.71,1.57-1.57h0c0-.86-1-2.22-1.57-1.57-19,21.64-39.06,4.95-50.9,0-.8-.33-1.57.71-1.57,1.57h0C563.19,235.54,564.07,235.74,564.76,236.25Z"/><rect class="cls-5" x="512.69" y="192.74" width="75.54" height="75.54" transform="translate(1100.92 461.01) rotate(-180)"/><polygon class="cls-6" points="496.26 275.32 512.69 268.28 512.69 192.74 496.26 202.96 496.26 275.32"/><polygon class="cls-6" points="496.26 275.32 574.97 275.32 588.23 268.28 512.69 268.28 496.26 275.32"/><circle class="cls-4" cx="572.62" cy="218.03" r="3.19"/><circle class="cls-4" cx="533.56" cy="218.03" r="3.19"/><path class="cls-4" d="M493.19,253c5.46-7,10.38-9.39,12.64-12.41.7-.8,1-1.21.18-1.91h0a2,2,0,0,0-2.74.19S485,254.38,480.53,266.49c-.37,1-1.86,7,.41,4.78.53-.5,4.61-8.07,4.88-8.51C487.35,260.19,492,254.5,493.19,253Z"/><path class="cls-18" d="M473.09,267.9c2-3,3.87-4.24,5.62-4.6-.79-.82-1.15-1.61-.9-2.19.54-1.25,3.69-1.1,7,.35s5.62,3.63,5.08,4.89a1.66,1.66,0,0,1-1.41.8,9,9,0,0,1,1.66,4.54c.37,3.18-.53,5.9-2,6.08-1.3.15-2.62-1.7-3.17-4.29-2.12,3.07-2.62,7.27-6.1,5.76C474.8,277.47,470.68,271.38,473.09,267.9Z"/><path class="cls-8" d="M542.24,234c.17,2.21,4.95,4,11,4s10.82-1.81,11-4c.53-5.15-4.95-4-11-4S541.85,228.88,542.24,234Z"/><path class="cls-18" d="M611.69,231.4a8.43,8.43,0,0,1-1.34-1.55c-1.43-2.12-1.71-4.43-.63-5.17.88-.6,2.4,0,3.71,1.44a10.61,10.61,0,0,1,.63-1.15c2.68-4.24,4.36-7,8.23-4.56s6.41,7.41,3.73,11.65a8.62,8.62,0,0,1-6.4,4.25,1.8,1.8,0,0,1-.22,1c-.58,1.09-1.87,1.39-5.16-.36s-4.86-3.93-4.28-5C610.2,231.52,610.81,231.33,611.69,231.4Z"/><path class="cls-4" d="M528.58,206.2c.16.49,2.52-1.68,5.29-2.54s5.49-.56,5.33-1.05-2.6-1-5.66,0S528.42,205.71,528.58,206.2Z"/><path class="cls-4" d="M577.93,206.21c-.16.49-2.52-1.68-5.29-2.55s-5.49-.57-5.33-1.06,2.6-.95,5.66,0S578.09,205.71,577.93,206.21Z"/><path class="cls-15" d="M528.3,193s-9.56,2.94-12.66,3.64-11.77,1.94-11.77,1.94l-2.73-11.92L525.57,181Z"/><rect class="cls-16" x="488.32" y="193.9" width="1.43" height="21.05"/><path class="cls-17" d="M534.62,183.75,484,195.33a1.7,1.7,0,0,1-1.63-2.82l12.85-13.79a7.23,7.23,0,0,1,3.65-2.11l46.45-10.81a1.79,1.79,0,0,1,1.86,2.79L537.7,181.7A5.24,5.24,0,0,1,534.62,183.75Z"/><polygon class="cls-16" points="509.76 179.83 490.02 184.08 489.12 185.13 512.51 180.19 509.76 179.83"/></g></g></svg>