
<svg xmlns="http://www.w3.org/2000/svg" version="1.1" xmlns:xlink="http://www.w3.org/1999/xlink" preserveAspectRatio="none" x="0px" y="0px" width="550px" height="400px" viewBox="0 0 550 400">
<defs>
<g id="Layer6_0_MEMBER_0_MEMBER_0_FILL">
<path fill="#34B2E6" stroke="none" d="
M 116.9 725.4
Q 93.75 728.6 93.75 733.05 93.75 737.55 116.9 740.7 140 743.85 172.75 743.85 205.5 743.85 228.6 740.7 251.7 737.55 251.7 733.05 251.7 728.6 228.6 725.4 205.45 722.25 172.75 722.25 140.05 722.25 116.9 725.4 Z"/>
</g>

<g id="Layer6_0_MEMBER_0_MEMBER_1_FILL">
<path fill="#231F20" stroke="none" d="
M 229.05 628.6
Q 228.65 630 228.95 636.15 231.05 682.95 229.6 705.55 228.85 716.85 227.7 718.8 192.35 732.35 205.9 736.6 210.8 738.15 221.4 738.15 230.15 738.15 238.1 737.25 242.5 736.75 245.4 735.05 249.55 732.6 248.5 728.4 244.55 713.1 240.9 668
L 238 625.9
Q 239.4 615.5 240.15 609.2 241.5 597.4 238.25 597.35
L 233.35 626
Q 229.8 625.95 229.05 628.6 Z"/>
</g>

<g id="Layer6_0_MEMBER_0_MEMBER_2_FILL">
<path fill="#231F20" stroke="none" d="
M 185.1 627.2
Q 184.6 628.6 184.45 634.75 183.4 681.65 180.4 704.05 178.9 715.25 177.6 717.1 141.4 728.2 154.65 733.4 159.4 735.25 170 736 178.8 736.6 186.75 736.2 191.2 736 194.2 734.45 198.5 732.3 197.75 728.05 194.85 712.5 194.2 667.25
L 194.15 625.1
Q 196.25 614.85 197.4 608.55 199.55 596.85 196.35 596.6
L 189.55 624.9
Q 186 624.65 185.1 627.2 Z"/>
</g>

<g id="Layer6_0_MEMBER_0_MEMBER_3_FILL">
<path fill="#FFD469" stroke="none" d="
M 325.15 196
Q 328.2 189 325.65 181.8 323.15 174.55 316.35 171
L 315.95 169
Q 319.8 162.5 318.3 155.15 316.8 147.8 310.75 143.35 315.85 137.05 315 129 314.1 120.95 307.8 115.85
L 307.65 115.75
Q 310.85 109.05 308.75 101.9 306.65 94.8 300.35 90.85 303.25 83.55 300.3 76.3 297.3 69.05 290.15 65.85 294.3 58.9 292.35 51.05 290.4 43.2 283.45 39.05 279.1 36.45 274 36.3 275.5 28.35 270.95 21.65 266.4 15 258.5 13.45 256.75 13.1 254.75 13.1 253.65 13.1 253.1 13.2 250.5 5.5 243.2 1.95 235.9 -1.6 228.25 1.05 223.95 2.55 220.75 5.8 217.5 9.05 216.05 13.4 208.1 12 201.5 16.7 194.9 21.35 193.5 29.35 192.9 32.75 193.6 36.3 185.5 36.7 180.05 42.65 174.6 48.65 174.95 56.75 175.1 61.25 177.35 65.3 169.8 68.05 166.4 75.3 162.95 82.55 165.6 90.1 158.5 93.95 156.15 101.7 153.85 109.45 157.65 116.55
L 158.15 117.45
Q 151.35 120.4 148.25 127.1 145.1 133.85 147.15 140.95 142.6 145.3 141.5 151.5 140.35 157.65 143.05 163.35 136.95 168.25 135.95 176 134.95 183.75 139.6 190.05 132.1 193.2 129 200.7 125.95 208.2 129.05 215.65 130.95 220.3 134.9 223.4 138.8 226.55 143.75 227.4 140.95 242.4 135.1 273.45 129.9 300.95 125.85 321.2 159.15 305.4 196.25 297.15 234.55 288.6 274.55 288.6 305.9 288.6 336.45 293.9 333.85 273.55 331.3 256 334.6 253.2 336.45 249.25 338.25 245.3 338.25 241 338.25 235.95 335.8 231.5 333.35 227.1 329.05 224.4 334.2 218.15 333.4 210.1 332.55 202.05 326.3 196.9
L 325.15 196 Z"/>
</g>

<g id="Layer6_0_MEMBER_0_MEMBER_4_FILL">
<path fill="#FEE96B" stroke="none" d="
M 258.25 36.25
Q 259.75 28.3 255.2 21.65 250.65 14.95 242.7 13.45 240.95 13.1 239 13.1 237.85 13.1 237.35 13.2 236.1 9.5 233.45 6.55 230.85 3.65 227.3 1.9 223.7 3.6 221.05 6.6 218.45 9.6 217.15 13.4 209.2 12 202.6 16.7 196 21.35 194.65 29.35 194.05 32.9 194.7 36.3 186.6 36.7 181.15 42.65 175.7 48.65 176.05 56.75 176.3 61.45 178.5 65.3 170.95 68.05 167.5 75.3 164.05 82.55 166.75 90.1 159.6 93.95 157.3 101.7 154.95 109.45 158.75 116.55
L 159.3 117.45
Q 152.5 120.4 149.35 127.1 146.2 133.85 148.3 140.95 143.75 145.3 142.6 151.5 141.45 157.65 144.15 163.35 138.1 168.25 137.1 176 136.1 183.75 140.7 190.05 133.2 193.2 130.1 200.7 127.05 208.2 130.15 215.65 132.1 220.3 136 223.4 139.95 226.55 144.85 227.4 133.05 290.4 128.55 313.15 158.5 301.2 190.9 295 224.25 288.6 258.85 288.6
L 275.65 288.6
Q 297.75 288.6 320.35 291.35 317.8 271.7 315.5 256 321.7 250.8 322.4 242.7 323.1 234.65 317.9 228.45 315.75 226 313.3 224.45 318.45 218.2 317.65 210.15 316.8 202.1 310.55 196.95
L 309.35 196.05
Q 312.45 189.05 309.9 181.8 307.4 174.55 300.6 171
L 300.15 169
Q 304 162.5 302.55 155.1 301.05 147.7 295 143.25 300.05 137 299.2 128.95 298.35 120.9 292.05 115.8
L 291.9 115.65
Q 295.05 108.95 293 101.85 290.9 94.75 284.6 90.8 287.5 83.5 284.55 76.25 281.55 69 274.4 65.8 278.55 58.85 276.6 51 274.6 43.15 267.65 39 263.3 36.4 258.25 36.25 Z"/>
</g>

<g id="Layer6_0_MEMBER_0_MEMBER_5_FILL">
<path fill="#B5C962" stroke="none" d="
M 336.05 130.15
Q 338.9 135.3 341.05 140.85 349.55 162.65 345.5 183.35 339.5 213.95 306.7 236.8 264.8 265.9 181.75 280.45 148.2 286.3 136.4 342.8 126.35 390.9 133.55 464.5 140.05 530.8 156.55 585.25 164.4 611 172.6 626.5 181.2 642.7 188.85 644.9 214 652.1 237.85 636.4 259.75 622 279.3 589.2 297.4 558.95 311.95 515.85 325.6 475.3 334.35 428.8 346.85 367.85 352.6 339.55 362.75 289.65 365.6 259.35 369.4 218.8 363.45 189.15 356.7 155.25 336.35 129.95 335.2 128.55 335.2 128.6
L 336.05 130.15 Z"/>
</g>

<g id="Layer6_0_MEMBER_0_MEMBER_6_FILL">
<path fill="#CAD86E" stroke="none" d="
M 172.35 107.9
Q 167.65 109.35 165.65 110.9 163.75 112.4 166.15 112.4 173.35 112.4 177.35 113.35 184.35 115 189.95 120.15 205 134.05 213.3 175.65 215.6 187.2 222.4 228.9 228.4 265.9 232.85 285.8 239.55 315.3 247.05 329.15 256.1 345.75 267.3 341.9 275.35 339.15 282.1 320.15 288.5 302.1 291.55 276.1 294.6 249.3 292.8 224.7 290.8 197.6 283.2 180.85 266.5 143.9 242.55 124.6 223.65 109.35 201.7 106.15 185.75 103.8 172.35 107.9 Z"/>
</g>

<g id="Layer6_0_MEMBER_0_MEMBER_7_FILL">
<path fill="#231F20" stroke="none" d="
M 192.55 100.1
Q 192.25 99.45 189.65 100.05 187.05 100.65 183.65 102.2 180.25 103.8 178.1 105.35 175.95 106.95 176.25 107.6 176.5 108.1 178.8 106.85 182.95 104.5 184.4 103.85 185.9 103.15 190.3 101.55 192.8 100.6 192.55 100.1 Z"/>
</g>

<g id="Layer6_0_MEMBER_0_MEMBER_8_FILL">
<path fill="#231F20" stroke="none" d="
M 270.9 111.6
Q 271.25 110.95 269.1 109.3 267 107.65 263.65 105.9 260.35 104.2 257.8 103.45 255.2 102.7 254.9 103.35 254.65 103.85 257.1 104.9 261.75 106.85 262.9 107.45 264.3 108.15 268.4 110.75 270.65 112.1 270.9 111.6 Z"/>
</g>

<g id="Layer5_0_FILL">
<path fill="#231F20" stroke="none" d="
M 289.45 110.2
Q 292.85 106.55 292.35 104.35 283.75 105.9 276.6 106.25 272.15 106.45 266.45 105.5
L 261.7 104.45
Q 262.45 107.4 265.55 110.45 270.35 115.25 277.7 115.1 285.1 114.95 289.45 110.2 Z"/>
</g>

<g id="Layer4_0_FILL">
<path fill="#231F20" stroke="none" d="
M 259.55 87.25
Q 258.55 86.25 257.1 86.25 255.7 86.25 254.7 87.25 253.65 88.25 253.65 89.65 253.65 91.1 254.7 92.1 255.7 93.1 257.1 93.1 258.55 93.1 259.55 92.1 260.55 91.1 260.55 89.65 260.55 88.25 259.55 87.25
M 296.65 89
Q 295.65 88 294.25 88 292.8 88 291.8 89 290.8 90 290.8 91.45 290.8 92.85 291.8 93.9 292.8 94.85 294.25 94.85 295.65 94.85 296.65 93.9 297.7 92.85 297.7 91.45 297.7 90.05 296.65 89 Z"/>
</g>

<g id="Mask_3_MASK_0_FILL">
<path fill="#FFFFFF" stroke="none" d="
M 216.95 193.95
Q 212.85 168.4 208.15 153.1 194.5 109.1 164.5 112 152.9 113 153.5 109.25 153.8 106.9 160.7 100.15 167.9 93.15 168.75 90.55 170.2 86.05 160.05 86.05 114.3 86.05 81.9 127.1 49.55 168.2 49.55 226.3 49.55 284.4 81.9 325.45 114.3 366.55 160.05 366.55 182.4 366.55 236.65 353.55 258.2 348.35 266.95 345 276.6 341.3 264.25 342 250 342.85 238.95 307.2 232.4 286 223.25 234.5 219.2 208.1 216.95 193.95
M 525.05 171.8
Q 525.05 115.15 494.05 75.1 463.1 35.05 419.3 35.05 409.05 35.05 401.55 39.8 395.3 43.8 389.45 52.3 387.05 55.75 379 69.75 371.95 81.95 366.05 89.55 349.45 111 339.05 137.9 327.5 167.65 327.5 194.55 327.5 204 327.25 218.3 327.2 229.2 328.25 235.65 330.65 250.6 344.5 268.5 375.5 308.55 419.3 308.55 463.1 308.55 494.05 268.5 525.05 228.45 525.05 171.8 Z"/>
</g>

<g id="Tween_1_0_Layer0_0_FILL">
<path fill="#E8ECEE" stroke="none" d="
M 335.45 239.1
Q 332.6 240.3 330.7 242.75 329.15 244.95 328.85 247.1 328.55 249.25 329.7 250.05 330.65 250.8 332.3 250.1 333.9 249.45 335.4 247.75 335.35 248.75 335.35 249.75 335.35 251.3 335.2 254 335.15 256.15 335.55 257.3 336.6 260.25 342.6 260.25 346.55 260.25 349.3 256.95 352.05 253.7 352.05 249.1 352.1 246.65 351.2 244.45 350.3 242.2 348.55 240.5 351 239.8 351 238.75 351 237.8 348.7 237.1 346.4 236.4 343.15 236.4 339.95 236.4 337.65 237.1 335.35 237.8 335.35 238.75 335.35 238.9 335.45 239.1 Z"/>
</g>

<g id="corn_r_hand_0_Layer0_0_FILL">
<path fill="#E8ECEE" stroke="none" d="
M 6.1 -8.7
Q 6.2 -9.65 4 -10.6 1.8 -11.5 -1.45 -11.85 -4.65 -12.2 -7 -11.75 -9.35 -11.3 -9.45 -10.35 -9.55 -9.35 -7.25 -8.4 -9.15 -6.85 -10.25 -4.75 -11.4 -2.6 -11.6 -0.15 -12.1 4.45 -9.65 7.95 -7.25 11.45 -3.4 11.9 2.55 12.5 3.95 9.7 4.5 8.65 4.65 6.45 4.8 3.75 4.95 2.25 5.05 1.15 5.05 0.2 6.4 2.1 7.95 2.9 9.5 3.75 10.55 3.15 11.75 2.4 11.7 0.25 11.65 -1.9 10.3 -4.2 8.7 -6.8 5.95 -8.35 6.1 -8.55 6.1 -8.7 Z"/>
</g>

<path id="Layer3_0_1_STROKES" stroke="#231F20" stroke-width="5" stroke-linejoin="round" stroke-linecap="round" fill="none" d="
M 403 114.05
Q 394.6 149.3 377.75 170.3 357.95 194.9 330 194.55 304.4 194.35 284 194.15 244.8 193.7 229.55 193.05 213.2 192.35 197.75 199.7 183.6 206.45 172.15 218.95 161.3 230.8 155.15 245.25 149 259.7 149.05 273.05"/>

<path id="Tween_1_0_Layer0_0_1_STROKES" stroke="#231F20" stroke-width="1.95" stroke-linejoin="miter" stroke-linecap="butt" stroke-miterlimit="10" fill="none" d="
M -6.549095916748058 -9.16412811279298
Q -8.824186706542946 -7.057809448242153 -9.771226501464866 -4.114048004150391 -9.97918243408202 -4.196236419677689 -10.128612518310547 -4.1831626892089275 -11.07500305175779 -4.1003623962402 -11.571879577636707 -1.7480903625488509 -12.068756103515625 0.6041816711425554 -11.789849853515591 3.7920234680175327 -11.506585693359341 7.0296752929687045 -10.608781433105491 9.259925842285156 -9.710977172851528 11.490176391601551 -8.764586639404286 11.407376098632824 -7.718576049804653 11.315859985351551 -7.234773254394497 8.814157867431675 -5.388705444335926 10.409339904785213 -3.0688117980957372 11.109814453125011 -0.7987281799316293 11.81464691162114 1.637605285644554 11.551299285888717 6.220127868652355 11.150371551513729 9.218094635009777 8.127555847168026 12.265871429443393 5.10038223266605 11.92159652709961 1.1653900146484943 11.39864730834961 -4.811813354492131 8.368339538574276 -5.6007072448730355 7.187845611572243 -5.898955535888717 5.050372314453114 -5.661755371093761 2.3737045288086165 -5.2769981384277 0.8295936584472656 -5.1419029235839275 -0.16660690307617188 -5.0547447204589275 -1.1584495544433366 -4.917776489257847 0.4043540954589844 -6.56024627685548 0.9124313354492415 -8.210820007324173 1.4659606933594205 -9.915561676025447 0.6360099792480582 -10.79658355712894 -0.261182403564419 -11.872487640380825 -2.376866149902355 -11.38623733520501 -4.492549896240234 -10.899987030029308 -6.549095916748058 -9.16412811279298 Z"/>

<path id="corn_r_hand_0_Layer0_0_1_STROKES" stroke="#231F20" stroke-width="1.95" stroke-linejoin="miter" stroke-linecap="butt" stroke-miterlimit="10" fill="none" d="
M 10.3 -4.2
Q 8.7 -6.8 5.95 -8.35 6.1 -8.55 6.1 -8.7 6.2 -9.65 4 -10.6 1.8 -11.5 -1.45 -11.85 -4.65 -12.2 -7 -11.75 -9.35 -11.3 -9.45 -10.35 -9.55 -9.35 -7.25 -8.4 -9.15 -6.85 -10.25 -4.75 -11.4 -2.6 -11.6 -0.15 -12.1 4.45 -9.65 7.95 -7.25 11.45 -3.4 11.9 2.55 12.5 3.95 9.7 4.5 8.65 4.65 6.45 4.8 3.75 4.95 2.25 5.05 1.15 5.05 0.2 6.4 2.1 7.95 2.9 9.5 3.75 10.55 3.15 11.75 2.4 11.7 0.25 11.65 -1.9 10.3 -4.2 Z"/>
</defs>

<g transform="matrix( 0.5099945068359375, 0, 0, 0.5099945068359375, 164.9,14.65) ">
<use xlink:href="#Layer6_0_MEMBER_0_MEMBER_0_FILL"/>
</g>

<g transform="matrix( 0.5099945068359375, 0, 0, 0.5099945068359375, 164.9,14.65) ">
<use xlink:href="#Layer6_0_MEMBER_0_MEMBER_1_FILL"/>
</g>

<g transform="matrix( 0.5099945068359375, 0, 0, 0.5099945068359375, 164.9,14.65) ">
<use xlink:href="#Layer6_0_MEMBER_0_MEMBER_2_FILL"/>
</g>

<g transform="matrix( 0.5099945068359375, 0, 0, 0.5099945068359375, 164.9,14.65) ">
<use xlink:href="#Layer6_0_MEMBER_0_MEMBER_3_FILL"/>
</g>

<g transform="matrix( 0.5099945068359375, 0, 0, 0.5099945068359375, 164.9,14.65) ">
<use xlink:href="#Layer6_0_MEMBER_0_MEMBER_4_FILL"/>
</g>

<g transform="matrix( 0.5099945068359375, 0, 0, 0.5099945068359375, 164.9,14.65) ">
<use xlink:href="#Layer6_0_MEMBER_0_MEMBER_5_FILL"/>
</g>

<g transform="matrix( 1, 0, 0, 1, 0,0) ">
<use xlink:href="#Layer6_0_MEMBER_0_MEMBER_6_FILL"/>
</g>

<g transform="matrix( 0.5099945068359375, 0, 0, 0.5099945068359375, 164.9,14.65) ">
<use xlink:href="#Layer6_0_MEMBER_0_MEMBER_7_FILL"/>
</g>

<g transform="matrix( 0.5099945068359375, 0, 0, 0.5099945068359375, 164.9,14.65) ">
<use xlink:href="#Layer6_0_MEMBER_0_MEMBER_8_FILL"/>
</g>

<g transform="matrix( 1, 0, 0, 1, 0,0) ">
<use xlink:href="#Layer5_0_FILL"/>
</g>

<g transform="matrix( 1, 0, 0, 1, 0,0) ">
<use xlink:href="#Layer4_0_FILL"/>
</g>

<mask id="Mask_Mask_1">
<g transform="matrix( 1, 0, 0, 1, 0,0) ">
<use xlink:href="#Mask_3_MASK_0_FILL"/>
</g>
</mask>

<g mask="url(#Mask_Mask_1)">
<g transform="matrix( 1, 0, 0, 1, 0,0) ">
<use xlink:href="#Layer3_0_1_STROKES"/>
</g>
</g>

<g transform="matrix( 0.308990478515625, -0.9509735107421875, 0.9509735107421875, 0.308990478515625, 403.2,100.9) ">
<g transform="matrix( 0.087158203125, 0.9962005615234375, 0.9962005615234375, -0.087158203125, -277.2,-317.45) ">
<use xlink:href="#Tween_1_0_Layer0_0_FILL"/>

<use xlink:href="#Tween_1_0_Layer0_0_1_STROKES" transform="matrix( 0.0871429443359375, 0.996185302734375, 0.996185302734375, -0.0871429443359375, 340.35,248.45) "/>
</g>
</g>

<g transform="matrix( 0.9992828369140625, 0.0348968505859375, -0.0348968505859375, 0.9992828369140625, 148.55,285.05) ">
<g transform="matrix( 1, 0, 0, 1, 0,0) ">
<use xlink:href="#corn_r_hand_0_Layer0_0_FILL"/>

<use xlink:href="#corn_r_hand_0_Layer0_0_1_STROKES"/>
</g>
</g>
</svg>
