<svg xmlns="http://www.w3.org/2000/svg" viewBox="0 0 1388.15 867.69"><defs><style>.cls-1{isolation:isolate;}.cls-2{fill:#81b4d4;}.cls-3{fill:#dbd6d1;}.cls-4{fill:#f7f0e8;}.cls-5{fill:#eeebe6;}.cls-6{opacity:0.1;}.cls-13,.cls-6{mix-blend-mode:multiply;}.cls-7{fill:#666766;}.cls-8{fill:#633515;}.cls-9{fill:#24140d;}.cls-10{fill:#381e0f;}.cls-11{fill:#502b14;}.cls-12{fill:#5e3427;}.cls-13{fill:#1b110e;opacity:0.27;}.cls-14{fill:#b22342;}.cls-15{fill:#bd243f;}.cls-16{fill:#d12e42;}.cls-17{fill:#006838;}.cls-18{fill:#d83550;}.cls-19{fill:#009444;}.cls-20{fill:#39b54a;}.cls-21{fill:#e03954;}.cls-22{fill:#e6486a;}.cls-23{fill:#e95a80;}.cls-24{fill:#e74460;}</style></defs><title>chocolate</title><g class="cls-1"><g id="Layer_2" data-name="Layer 2"><g id="Layer_8" data-name="Layer 8"><ellipse class="cls-2" cx="777.75" cy="826.66" rx="610.4" ry="41.03"/><path class="cls-3" d="M961.19,819.16C965.34,839,782.64,855.5,562.38,855.5s-398.67-16.27-398.81-36.34c-.26-35.23-338.31-38.41,398.81-36.34C1224.6,784.67,954.21,785.71,961.19,819.16Z"/><path class="cls-4" d="M566.14,800.29c-141,0-275.91-5.14-379.91-14.48C83.67,776.59,41.42,766.05,24.46,759.86c17-6.19,59.21-16.73,161.77-25.94,104-9.34,238.92-14.48,379.91-14.48s275.91,5.14,379.91,14.48c102.56,9.21,144.81,19.75,161.77,25.94-17,6.19-59.21,16.73-161.77,25.94C842.06,795.14,707.14,800.29,566.14,800.29Z"/><path class="cls-5" d="M566.14,734.79c135.88,0,267,4.83,369.07,13.59,43.63,3.74,76.54,7.72,101.31,11.48-24.76,3.76-57.68,7.74-101.31,11.48C833.1,780.11,702,784.93,566.14,784.93s-267-4.83-369.07-13.59c-43.63-3.74-76.54-7.72-101.31-11.48,24.76-3.76,57.68-7.74,101.31-11.48,102.12-8.76,233.2-13.59,369.07-13.59m0-30.71C253.47,704.08,0,729.06,0,759.86s253.47,55.78,566.14,55.78,566.14-25,566.14-55.78-253.47-55.78-566.14-55.78Z"/><g class="cls-6"><path class="cls-7" d="M961.19,819.16c-2.29-10.94,25.11-18.41,39.83-23.58,81.95-9.68,131.26-22.13,131.26-35.71,0-30.81-253.47-55.78-566.14-55.78-85.88,0-167.3,1.88-240.23,5.26L149.37,741.59,453.21,854.12c34.69.9,71.32,1.38,109.17,1.38C782.64,855.5,965.34,839,961.19,819.16Z"/></g><path class="cls-8" d="M923.27,763.73s-286.53,8.35-379.69,8.35c-92.92,0-364.65-8.35-364.65-8.35a34.08,34.08,0,0,1-34-34V254.09a34.08,34.08,0,0,1,34-34H923.27a34.08,34.08,0,0,1,34,34V729.75A34.08,34.08,0,0,1,923.27,763.73Z"/><path class="cls-9" d="M223.88,764.08c0,5.12-36.08,7.68-53.64,6.12-21.43-1.9-45.38-3.3-45.38-8.42s26.1-6.91,45.38-10.13C191.46,748.11,223.88,759,223.88,764.08Z"/><path class="cls-9" d="M502.23,767.41c6.46,1.61,11.13,15.76-42.66,12.06-39-2.69-63.06-3.71-42.66-12.06,6.16-2.52,19.1-12.06,42.66-12.06S476.26,760.92,502.23,767.41Z"/><path class="cls-9" d="M1005.34,762.54c6.95,3.27-26.6,11.51-47.59,11.51s-48.36-5.88-48.36-10,32.24-13,45.29-21.49C972.31,731.17,979.24,750.26,1005.34,762.54Z"/><path class="cls-9" d="M852.76,770.19c0,6.15-14.95,11.13-33.38,11.13s-33.38-5-33.38-11.13,14.39-8.42,27.44-14.56C816.85,754,852.76,764,852.76,770.19Z"/><path class="cls-9" d="M739,768.68c7.79,3.89-28.13,14.59-50.66,14.59s-43.76-6.65-43.76-15.35S650.69,761,686,751C707.69,744.9,720.55,759.47,739,768.68Z"/><path class="cls-9" d="M350.14,769.27c0,4.61-28.82,10.53-57.5,10.2-70.3-.81-55.13-8.74-59.56-10-53.81-15.59,47.4-10.38,81.81-12.24C346.44,755.51,350.14,764.66,350.14,769.27Z"/><path class="cls-10" d="M961.08,498.32c0,6.91-183.76,12.51-410.44,12.51s-405.07-5.33-405.07-12.24,180.17,2.3,406.85,2.3S961.08,491.41,961.08,498.32Z"/><path class="cls-11" d="M961.08,491.3c0,6.91-183.76,12.51-410.44,12.51s-405.07-5.33-405.07-12.24,180.17,2.3,406.85,2.3S961.08,484.39,961.08,491.3Z"/><path class="cls-9" d="M811.12,325.47c-13.48,8.91,9.93,442.16-6.23,442.16-19.57,0-32.67-431.81-50.86-439C647.13,286,752,797.73,681.38,765.56c-16.59-7.56,90.3-566.71-194-415.89-62.64,33.23,3.69,428-31.55,420.53-49.43-10.41-22-313.49-15.5-351.56,4.37-25.7-28.29-108.23-43.76-109.77C250.75,294.28,392,834.7,302.18,762.54c-27.61-22.18,42.46-424.42-54.5-358.49-38.38,26.1,51.75,408.85,13,358.49C197,679.63,190.63,310.65,179.36,309.63c-33.78-3.07,27.41,478.88-.76,450.7-32.3-32.3-34.67-449.08-34.67-488.39v-20.7a50.92,50.92,0,0,1,50.77-50.77H903.33a52.51,52.51,0,0,1,52.36,52.36v19.11c0,17.07,21.65,484.31-6.52,483.23C912.49,753.78,994.84,204,811.12,325.47Z"/><path class="cls-12" d="M725.1,280.57c0,9.56-166.52,8.66-305.18,8.66S164.52,262,164.52,252.43s-2.16-49.78,23.81-23.81C286.37,326.67,725.1,271,725.1,280.57Z"/><path class="cls-9" d="M706.73,724.16c0,17.59,18.22,44.52,12.28,44.52s-62.14,8.1-53-6.91c8.44-13.82,17.09-53,23-53S706.73,706.56,706.73,724.16Z"/><path class="cls-9" d="M473.36,744.12c3.47,14.86,33.05,26.86-20.73,27.64-53,.77-21.31-12.38-20.73-27.64,2.3-59.88,9.28-27.64,20.73-27.64S462.62,698.06,473.36,744.12Z"/><path class="cls-9" d="M836.46,766.38c14,17.85-27.1,6.91-36.85,6.91s-3.84-20.31-3.84-43,7-27.89,7.68-37.61C808.06,624.36,814.2,738,836.46,766.38Z"/><path class="cls-9" d="M976.17,742.58c18.22,26.57-21.17,21.49-30.71,21.49s-10.75-5.37-6.14-46.83c3.56-32,12.24-76.23,20-70.62C963.51,649.7,957.75,715.71,976.17,742.58Z"/><path class="cls-9" d="M273.78,735.29c3.15,17.74,21.49,38-18.42,32.62-10.08-1.36-13.82-15-13.82-33s-11.51-53,13.82-32.24C263.23,709.11,264.57,683.47,273.78,735.29Z"/><path class="cls-9" d="M332.89,711.11c0,21.83,15.59,55.47-9.6,53.74-55.65-3.84-28,3.84-25.72-40.69,1.13-21.8,1.45-36.08,8.44-36.08S332.89,689.27,332.89,711.11Z"/><path class="cls-9" d="M193.17,722.62c3.55,21.33,21.63,36.95-15.35,39.15-64.48,3.84-17-17.59-15.35-39.15,3.84-49.13,2.27-46.83,10.75-46.83S187.8,690.38,193.17,722.62Z"/><path class="cls-13" d="M997.39,762.3c14.77,0-50.09-6.73-49.25-6.89,18.68-3.71,13.52-319.43,9.11-439.32v-62A33.66,33.66,0,0,0,954,239.6a52.56,52.56,0,0,0-50.65-39.12h-341c11.69,73.87,25.2,156,11.21,234.89C549.43,571.6,390.51,676.1,338.07,763.73l87.05,9.41c2.77,3.5,26.94,5.75,30.53,5.91,22.65,1,48.56-3.09,50.23-7.88H649.7c.28,1,22.16,9.8,22.65,9.85,36.44,3.94,61.46-9.26,65-12.8l52.2-2c3.65,27.14,60,4.92,61.07,4.92.9,0-4.61-4.35-3.94-6.89l69.93-1C925.73,763.29,960,783,997.39,762.3Z"/><path class="cls-14" d="M510.88,204.67c13.2,19.45,49.71,11.06,89.2-5.1s66.07-64.92,48.42-89.2C613.21,61.83,554.74,51,516,84.89,495.59,102.73,462.22,133,510.88,204.67Z"/><path class="cls-15" d="M421.69,209.77c60.64,7.19,76.62,12,91.74-20.39,17.84-38.23,0-63.71-20.39-89.2-40.78-51-86.65-40.78-124.87-5.1C342.68,118.88,328.37,198.7,421.69,209.77Z"/><path class="cls-15" d="M675,207.22c-60.64,7.19-76.62,12-91.74-20.39-17.84-38.23,0-63.71,20.39-89.2,40.78-51,86.65-40.78,124.87-5.1C754,116.33,768.3,196.15,675,207.22Z"/><path class="cls-16" d="M308.53,215.39c60.64,7.19,98.33,4.6,112.23-28.36,13.56-32.17-27.82-62.37-71.38-91.12-72.93-48.14-103.89-5.5-112.23,28.36C223.45,179.9,215.21,204.32,308.53,215.39Z"/><path class="cls-17" d="M591.68,38.68c-18.27-11.59,38.9,85.63,87.16,86.33,34.14.5,26.59-25.68,36.06-37.83s9,16.77-17.29-10C666.06,45,638.88,68.62,591.68,38.68Z"/><path class="cls-16" d="M788.17,215.39c-60.64,7.19-98.33,4.6-112.23-28.36-13.56-32.17,27.82-62.37,71.38-91.12,72.93-48.14,103.76-5.46,112.23,28.36C874.65,184.6,881.48,204.32,788.17,215.39Z"/><path class="cls-18" d="M482,208.11c0,37-51,34.39-90.51,37.61-57.6,4.7-76.4-33.52-76.4-70.53s36.8-63.47,76.4-63.47S482,171.1,482,208.11Z"/><path class="cls-19" d="M669,2.93c.29-18.17-23.5,52.8-4.75,85.44,18.18,31.64,36.53,41.38,54.09,36.69s28.89-5.72,25-43.17C738.59,36.92,668.08,58.92,669,2.93Z"/><path class="cls-20" d="M813.53,20c9.11-15.73-27.39,76.48-60.28,94.81-31.88,17.77-45.72,23.75-58.36,10.69S694.5,90.09,717.14,60C744.33,23.86,785.47,68.49,813.53,20Z"/><path class="cls-18" d="M609,201.05c0,37,34.58,41.45,74.05,44.67,57.6,4.7,76.4-33.52,76.4-70.53s-36.8-63.47-76.4-63.47S609,164.05,609,201.05Z"/><path class="cls-21" d="M618.4,194c2.35,54.07-33.16,68.18-74.05,68.18s-71.7-16.46-74.05-68.18c-1.71-37.61,4.54-68.18,74.05-68.18C601.95,125.82,616.77,156.38,618.4,194Z"/><path class="cls-22" d="M330,172.93c-2.6,14.71-6.57-11.46,3.89-27.32,10.2-15.47,50.91-29,38.33-20.89C360,132.55,333.43,153.62,330,172.93Z"/><path class="cls-23" d="M481.33,182.17c-2.6,14.71-6-16.71,4.42-32.58,10.2-15.47,49-17.84,34.75-13.2C497.63,143.88,484.74,162.86,481.33,182.17Z"/><path class="cls-22" d="M651.42,135.83c-12.24,8.57-7.66,1.8,4.88-10.73,13.1-13.1,47.57-6.66,32.69-5.37C666.21,121.71,656.3,132.42,651.42,135.83Z"/><path class="cls-24" d="M258.93,112.1c-10.22,15.9-9.24,40.21-11.36,30.67-2.27-10.22-3.41-12.5,2.27-28.4,6.23-17.45,20-27.82,34.9-27.82S271.14,93.1,258.93,112.1Z"/></g></g></g></svg>