<svg xmlns="http://www.w3.org/2000/svg" viewBox="0 0 764.43 476.24"><defs><style>.cls-1{fill:#231f20;}.cls-2,.cls-25,.cls-7{fill:#e8ecee;stroke:#231f20;stroke-miterlimit:10;}.cls-2{stroke-width:1.25px;}.cls-3{fill:#aad486;}.cls-4{fill:#c6df91;}.cls-5{fill:#fff;}.cls-6{fill:#8b5e3c;}.cls-7{stroke-width:1.4px;}.cls-8{fill:#fee465;}.cls-9{fill:#ffd449;}.cls-10{fill:#754c29;}.cls-11{fill:#fef7bc;}.cls-12{fill:#feea98;}.cls-13{fill:#fdf5a4;}.cls-14{fill:#2b3990;}.cls-15{fill:#ed1f25;}.cls-16{fill:#9d1d1f;}.cls-17{fill:#28283d;}.cls-18{fill:#2a3b90;}.cls-19{fill:#181311;}.cls-20{fill:#2b201d;}.cls-21{fill:#fff7d7;}.cls-22{fill:#3f302b;}.cls-23{fill:#e9eff3;}.cls-24{fill:#009444;}.cls-25{stroke-width:1.37px;}.cls-26{fill:#f7941d;}.cls-27{fill:#f36e24;}.cls-28{fill:#d35461;}.cls-29{fill:#be1e2d;}</style></defs><title>general_interview</title><g id="Layer_2" data-name="Layer 2"><g id="Layer_2-2" data-name="Layer 2"><path class="cls-1" d="M366.19,218.28c2.61,26.29-1.58,37.51,3.23,43.43,2.86,3.52,6-11.34,3.61-36s-13.73-45-16.13-44.75C350.07,181.66,364.18,198,366.19,218.28Z"/><path class="cls-2" d="M356.91,252.13a14.9,14.9,0,0,1,5.95-4.58,1,1,0,0,1-.13-.46c0-1.64,4.4-3,9.83-3s9.83,1.33,9.83,3c0,.84-1.16,1.6-3,2.14a15,15,0,0,1,4.36,10.83c0,7.72-5.31,14-11.86,14-11.49,0-9.13-5.43-9.13-13.16,0-.85,0-1.7.1-2.52-2.49,2.81-5.53,4.1-7.21,2.9C353.7,259.89,354.28,255.8,356.91,252.13Z"/><path class="cls-1" d="M275.71,365c-2.49-.13-7.6-1.11-6.83-5.14,3-15.51,2.64-64.38,2.64-64.38-.29-4.09-4.56-17.6-1.27-17.84l4.16,17.71c3.29-.23,3.07,2.09,3.14,6.18.78,46.89,4,51.55,4,51.55C316.27,364,286.81,365.64,275.71,365Z"/><path class="cls-1" d="M322.58,362.44c-2.49-.13-7.6-1.11-6.83-5.14,3-15.51,2.64-64.38,2.64-64.38-.29-4.09-4.56-17.6-1.27-17.84l4.16,17.71c3.29-.23,3.07,2.09,3.14,6.18.78,46.89,4,51.55,4,51.55C363.14,361.44,333.68,363,322.58,362.44Z"/><path class="cls-3" d="M381.38,183.89C429.21,238.16,346,315,290,315s-132.09-70.2-89-126.84c33-43.44,31.71-139.52,87.64-139.52S333.26,129.3,381.38,183.89Z"/><path class="cls-4" d="M381.79,183.89C333.68,129.3,345,48.66,289,48.66q-1.87,0-3.66.14c-45.6,10.44-51.33,85.84-66.85,134.1-20.75,64.52,33.26,130.85,89,126.84a98.41,98.41,0,0,0,18.75-3.29C374.63,284.93,420,227.21,381.79,183.89Z"/><circle class="cls-1" cx="276.12" cy="126.61" r="3.76"/><circle class="cls-1" cx="331.61" cy="126.55" r="3.76"/><path class="cls-5" d="M324.33,144.36c0,4.82-7.15,8.72-16,8.72s-16-3.9-16-8.72,7.15-2.88,16-2.88S324.33,139.54,324.33,144.36Z"/><path class="cls-6" d="M288.78,51.8a5.92,5.92,0,0,1-1.72-5.36c-.41.25,1.33-17.53,4-24.84,1.26-3.41,2.78-3.95,6.38-3.47h0c3.6.48,6.86,3.75,6.38,7.35,0,0-9.63,7.7-10.46,22.74C293.2,51.85,292.38,52.28,288.78,51.8Z"/><path class="cls-1" d="M337.24,105.06c-.24.7-2.85-1-6.37-2.21s-6.61-1.51-6.37-2.21,3.29-.28,6.81.94S337.48,104.36,337.24,105.06Z"/><path class="cls-1" d="M270.07,105.53c.3.68,2.77-1.21,6.18-2.7s6.47-2,6.18-2.7-3.3,0-6.71,1.47S269.77,104.85,270.07,105.53Z"/><path class="cls-1" d="M216.69,217.3c-2.61,26.29,1.58,37.51-3.23,43.43-2.86,3.52-6-11.34-3.61-36s13.73-45,16.13-44.75C232.81,180.68,218.71,197,216.69,217.3Z"/><path class="cls-2" d="M226,251.15a14.9,14.9,0,0,0-5.95-4.58,1,1,0,0,0,.13-.46c0-1.64-4.4-3-9.83-3s-9.83,1.33-9.83,3c0,.84,1.16,1.6,3,2.14a15,15,0,0,0-4.36,10.83c0,7.72,5.31,14,11.86,14,11.49,0,9.13-5.43,9.13-13.16,0-.85,0-1.7-.1-2.52,2.49,2.81,5.53,4.1,7.21,2.9C229.18,258.91,228.6,254.82,226,251.15Z"/><path class="cls-1" d="M181.31,181.6c21.23-10.92,20.91-24.47,27.76-23.73,4.07.44-5.32,16.64-25.2,26.88s-41.63-8.94-40.36-10.71C148.57,167.06,164.9,190,181.31,181.6Z"/><path class="cls-7" d="M218.87,142.94c-5.22-3.6-11.22,2.44-15.67,8.64-1.64-2.84-4-5.08-7.43-4.22-5.16,1.27-1.93,8.27-.29,12.57a13.47,13.47,0,0,0,1.45,2.78c-.9-.05-1.55.13-1.84.59-.88,1.39,1.91,4.73,6.23,7.48s8.53,3.85,9.41,2.46c.31-.49.16-1.22-.34-2.07,4.86-.75,10.21-4.36,13.24-8.76C228.14,155.86,224.39,146.74,218.87,142.94Z"/><path class="cls-1" d="M112.55,385.23c-2.84-.36-8.61-1.89-7.4-6.43,4.67-17.52,8.26-73.48,8.26-73.48,0-4.7-3.79-20.52,0-20.52l3.33,20.62c3.79,0,3.34,2.64,3.09,7.33-2.92,53.75.34,59.34.34,59.34C159.06,387.39,125.21,386.82,112.55,385.23Z"/><path class="cls-1" d="M152.14,380.81c-2.82-.52-8-1-7-5.59,3.29-13.93-.64-65-.64-65-.39-4.69-.2-7.9,3.57-8.21l2.59-.88c3.77-.31-.37,2-.24,6.7,1.5,53.8,7.61,62.85,7.61,62.85C195.62,381.29,163.88,383,152.14,380.81Z"/><path class="cls-8" d="M172.45,45.3h0c-4.16-3.11-4.22-8.56-1.91-13.21,9.88-19.88,21-30.12,21-30.12,3.11-4.16,7.49-.89,11.65,2.22h0c4.16,3.11,8.13,4.89,5,9.05,0,0-23.92,9.58-27.41,28.9C179.86,47.25,176.61,48.4,172.45,45.3Z"/><path class="cls-8" d="M188.05,338.24c-4.28-4-6-8.67-7.24-13.08C176.47,299.79,158,253.1,158,191.59,158,96.3,207.08,25.24,174.5,25.24S71.61,90.64,71.61,185.92c0,80.4,46.7,139.52,80.86,156,8,5.3,15.94,10.4,18.23,12.62C175.69,359.44,193.77,343.53,188.05,338.24Z"/><path class="cls-9" d="M167.82,341.95C135.44,340.31,87,266.32,87,185.92,87,98.52,142.43,29.48,181,26.58a13.1,13.1,0,0,0-6.29-1.33c-32.58,0-102.88,65.39-102.88,160.68,0,80.4,46.7,139.52,80.86,156,8,5.3,15.94,10.4,18.23,12.62s7,.22,11.16-3.06C176.85,352,169,346.6,167.82,341.95Z"/><path class="cls-10" d="M203.17,4.18C199,1.08,194.63-2.2,191.52,2c0,0-1.53,1.41-4,4.2,3,5.55,7.48,9.25,14.45,10.18a54.16,54.16,0,0,1,6.17-3.11C211.29,9.08,207.33,7.29,203.17,4.18Z"/><path class="cls-10" d="M188.3,338.24q-.39-.36-.75-.73c-3.38-.85-8.37,1.09-12.45,5.17-3.47,3.47-5.4,7.6-5.37,10.84.5.4.91.75,1.22,1C175.94,359.44,194,343.53,188.3,338.24Z"/><circle class="cls-1" cx="115.99" cy="125.7" r="4.31"/><circle class="cls-1" cx="154.75" cy="132.53" r="4.31"/><path class="cls-1" d="M143.52,149.22c-.22,1.61-5,4.85-10.22,4.12s-8.93-5.15-8.71-6.76c0,0,3.67,4.65,8.9,5.38S143.52,149.22,143.52,149.22Z"/><path class="cls-1" d="M128.87,107.67c0,.71-2.88,0-6.44,0s-6.44.71-6.44,0,2.88-1.28,6.44-1.28S128.87,107,128.87,107.67Z"/><path class="cls-1" d="M152.29,111.8c-.28.65,2.59,1.1,5.79,2.45s5.51,3.1,5.79,2.45-2.09-2.28-5.29-3.63S152.56,111.15,152.29,111.8Z"/><path class="cls-1" d="M70.16,211.26c-2.36,23.76,1.43,33.9-2.92,39.25C64.66,253.69,61.79,240.27,64,218s12.4-40.65,14.58-40.44C84.73,178.17,72,192.9,70.16,211.26Z"/><path class="cls-7" d="M85.28,243.19A16.7,16.7,0,0,0,78.62,238a1.13,1.13,0,0,0,.14-.51c0-1.84-4.93-3.33-11-3.33s-11,1.49-11,3.33c0,.94,1.3,1.79,3.39,2.4a16.84,16.84,0,0,0-4.89,12.14c0,8.66,6,15.67,13.29,15.67,12.87,0,10.24-6.09,10.24-14.75,0-1,0-1.9-.11-2.83,2.8,3.15,6.2,4.6,8.08,3.25C88.88,251.88,88.23,247.3,85.28,243.19Z"/><polygon class="cls-11" points="537.38 209.89 402.59 209.87 16.36 254.1 223.1 265.58 537.38 209.89"/><path class="cls-12" d="M542.24,380.37,216.08,474.45c-17.44,6.52-43.21-8.22-43.21-27v-163A26.9,26.9,0,0,1,195,257.83l331.1-46.67c16.31-2.83,29.25-2.28,29.25,14.45l-2.44,127C553,363.88,552.71,376.45,542.24,380.37Z"/><rect class="cls-13" y="254.1" width="222.14" height="222.14" rx="14.18" ry="14.18"/><path class="cls-14" d="M271.68,320,286,317.32a15,15,0,0,1,6.73-.06,8.42,8.42,0,0,1,4.2,2.68,11.94,11.94,0,0,1,2.4,4.81,24.75,24.75,0,0,1,.74,6.23,26.07,26.07,0,0,1-1.1,8.41,18,18,0,0,1-3.07,5.53,13.36,13.36,0,0,1-4.24,3.54,24,24,0,0,1-5.66,2.13l-14.34,3.11Zm9.68,5.72V344l2.35-.5a10.84,10.84,0,0,0,4.26-1.61,6.35,6.35,0,0,0,2-2.9,18.19,18.19,0,0,0,.71-5.9q0-5.27-1.59-6.9t-5.3-.91Z"/><path class="cls-14" d="M306.62,346.13V313.4l15.2-2.89a19.23,19.23,0,0,1,6.35-.42,5.26,5.26,0,0,1,3.51,2.25,8.35,8.35,0,0,1,1.33,4.93,11.06,11.06,0,0,1-1,4.8,11.41,11.41,0,0,1-2.8,3.71,12.93,12.93,0,0,1-3.13,1.91,6.88,6.88,0,0,1,2.32.71,7.1,7.1,0,0,1,1.42,1.4,9.62,9.62,0,0,1,1.24,1.74l4.28,8.37-10,2.17-4.81-8.85a5.62,5.62,0,0,0-1.64-2.16,3.12,3.12,0,0,0-2.22-.29l-.8.17v13.18Zm9.2-21.32,3.82-.77a14.36,14.36,0,0,0,2.39-.92,3.12,3.12,0,0,0,1.46-1.3,3.75,3.75,0,0,0,.56-2,2.59,2.59,0,0,0-.89-2.22q-.89-.66-3.36-.18l-4,.78Z"/><path class="cls-14" d="M339.08,330.22l8.35-1.75v8.81l-8.35,1.81Z"/><path class="cls-14" d="M365.39,302.21l15.47-2.94q3.81-.72,5.83,1.08a6.39,6.39,0,0,1,2,5,8.9,8.9,0,0,1-1.44,4.94,8.56,8.56,0,0,1-2.82,2.62,5.59,5.59,0,0,1,4.15,1.88,7.13,7.13,0,0,1,1.32,4.57,10.78,10.78,0,0,1-.94,4.47,10.39,10.39,0,0,1-2.58,3.56,9.69,9.69,0,0,1-3.08,1.67,35.11,35.11,0,0,1-3.65,1.21l-14.29,3.1Zm8.39,10.54,3.58-.72a4.49,4.49,0,0,0,2.67-1.3,3.62,3.62,0,0,0,.75-2.36,2.37,2.37,0,0,0-.75-2,3.23,3.23,0,0,0-2.61-.25l-3.63.71Zm0,12.16L378,324a5.1,5.1,0,0,0,3-1.5,3.85,3.85,0,0,0,.86-2.52,2.37,2.37,0,0,0-.85-2q-.86-.65-3-.21l-4.18.86Z"/><path class="cls-14" d="M411,318.55l-8.86,1.88-1.24,5.26-8.1,1.76,9.64-32.29,8.51-1.62,9.34,27.95-8,1.74Zm-1.61-6.15-2.78-10.24-2.76,11.39Z"/><path class="cls-14" d="M424,291.05l7-1.34,9,14.44V288l6.88-1.31v29l-6.88,1.49-9-14.22v16.17L424,320.68Z"/><path class="cls-14" d="M467.07,306.65l-8,1.7-1.12,5-7.31,1.58,8.7-30.58,7.69-1.46,8.44,26.66-7.26,1.57Zm-1.45-5.86L463.1,291l-2.5,10.8Z"/><path class="cls-14" d="M478.83,280.63l6.35-1.21,8.18,13.82V277.86l6.24-1.19v27.63l-6.24,1.35L485.22,292v15.38l-6.4,1.39Z"/><path class="cls-14" d="M517.83,295.88l-7.26,1.54-1,4.73-6.63,1.44,7.89-29,7-1.33,7.67,25.49-6.6,1.43Zm-1.32-5.6L514.23,281,512,291.22Z"/><path class="cls-15" d="M405.21,203.9a2.55,2.55,0,0,1,.68-1.53c.1-.12.24-.23.13-.44a4.31,4.31,0,0,1-.11-3.3A16.22,16.22,0,0,1,409,193.1,37.9,37.9,0,0,1,420.34,184a7.34,7.34,0,0,1,5.45-.67,1.84,1.84,0,0,1,1.56,1.48c0,.2.17.14.28.13l2.62-.17c.79,0,1.58-.11,2.37-.12,1.69,0,3.39,0,5.08,0a24.88,24.88,0,0,1,5.88.72,5.22,5.22,0,0,1,1.56.68,1.3,1.3,0,0,1,.55.7,33.51,33.51,0,0,0-2.44,2.71,46.93,46.93,0,0,0-4.23,5.93c-1.36,2.25-2.5,4.62-3.73,6.94a19.2,19.2,0,0,1-4.38,5.73,7.59,7.59,0,0,1-5,1.95,27.12,27.12,0,0,1-3.49-.23,5.86,5.86,0,0,1-1.52-.29c.86.06,1.71.2,2.57.26a14.63,14.63,0,0,0,3.46-.08,8.37,8.37,0,0,0,4.13-2.19,16.52,16.52,0,0,0,3.12-4c1.27-2.16,2.37-4.41,3.66-6.57,0,0,0-.06,0-.14l-1.44,1.9c-1.85,2.46-3.49,5.07-5.48,7.43a8.22,8.22,0,0,1-3.06,2.43,10,10,0,0,1-3.61.62,24.32,24.32,0,0,1-5.38-.61c-2.13-.42-4.23-1-6.33-1.54a.88.88,0,0,0-.59-.08c.12.12.31.12.4.26a2.34,2.34,0,0,1-1-.29,30.42,30.42,0,0,1-4.81-2.16C406.07,204.48,405.64,204.18,405.21,203.9Zm34.66-13.75h0a1.65,1.65,0,0,0,.47-.92,1.32,1.32,0,0,0-1.08-1.93,19.7,19.7,0,0,0-4.21-.51c-1.27,0-2.55,0-3.83.05a6.48,6.48,0,0,0-3.15.88,5.33,5.33,0,0,0-2.27,2.44.93.93,0,0,0,.58,1.35,11.2,11.2,0,0,0,1.83.47c.82.16,1.65.24,2.48.36H431a15.24,15.24,0,0,0,2,.16,9.31,9.31,0,0,1,1.09,0,13.19,13.19,0,0,0,2.14,0,2.46,2.46,0,0,0,1.19-.25,4.5,4.5,0,0,0,2.31-1.91C439.85,190.28,439.87,190.22,439.86,190.15ZM406.19,200.3a2.85,2.85,0,0,0,.18,1.09,2.33,2.33,0,0,0,2.42,1.72,6.53,6.53,0,0,0,2.69-.7,18.74,18.74,0,0,0,5-3.68,77.25,77.25,0,0,0,6.55-7,26.33,26.33,0,0,0,3-4.32,2.45,2.45,0,0,0,.38-1.35c0-.19,0-.38-.23-.46s-.29.1-.39.21l-3.19,3.32c-1.44,1.49-2.87,3-4.32,4.46s-2.68,2.72-4.09,4a15.42,15.42,0,0,1-5.4,3.44,2.19,2.19,0,0,1-2.49-.63C406.33,200.39,406.29,200.3,406.19,200.3Zm18.52-5.83a2.14,2.14,0,0,0-1.47.44,9,9,0,0,0-1.57,1.62,1.32,1.32,0,0,0-.38,1,.18.18,0,0,1-.15.21,2.8,2.8,0,0,0-1.4,1,6.23,6.23,0,0,0-1.12,1.43,6.47,6.47,0,0,1-.86,1.06,7.78,7.78,0,0,0-2,2.28,1.07,1.07,0,0,0,.56,1.56,3.64,3.64,0,0,0,2.24.29c.38-.07.68-.12.91.25a.51.51,0,0,0,.21.14,4.12,4.12,0,0,0,2.58.42.45.45,0,0,1,.51.17,1.53,1.53,0,0,0,.72.48,6.22,6.22,0,0,0,1.56.34,2.07,2.07,0,0,0,2-.81c.33-.47.68-.92,1-1.4a2.06,2.06,0,0,0,.25-.52,2.16,2.16,0,0,1,.74-1.06,8.79,8.79,0,0,0,1.56-2,1.37,1.37,0,0,0,.31-1c0-.16.05-.24.2-.29a2.09,2.09,0,0,0,.9-.67,17.63,17.63,0,0,0,1.36-1.85,1.13,1.13,0,0,0-.72-1.8,3.46,3.46,0,0,0-2.22,0,.35.35,0,0,1-.4-.07,2.93,2.93,0,0,0-2.47-.57,1.16,1.16,0,0,1-1.05-.2A2.93,2.93,0,0,0,424.7,194.47Zm-18.63,4.81c.05,0,.08,0,.09-.05l.22-.34a36.52,36.52,0,0,1,4.53-5.9,39.76,39.76,0,0,1,7.6-6.35,26.74,26.74,0,0,1,5.59-2.82,3.2,3.2,0,0,0,.83-.29l-.2,0a9.11,9.11,0,0,0-4.79,1.13,40.23,40.23,0,0,0-10.2,8.2,18.22,18.22,0,0,0-2.94,4.38A9.45,9.45,0,0,0,406.08,199.27Z"/><path class="cls-16" d="M405.21,203.9c.44.28.86.58,1.31.84a30.42,30.42,0,0,0,4.81,2.16,2.34,2.34,0,0,0,1,.29h0a.65.65,0,0,0,.59.22h0c0,.1.14.08.22.08h0c0,.07.1.07.15.08s.23,0,.34.09a47.63,47.63,0,0,0,6.8,1.79c.14.13.3.07.46.08h0a5.86,5.86,0,0,0,1.52.29,27.12,27.12,0,0,0,3.49.23,7.59,7.59,0,0,0,5-1.95,19.2,19.2,0,0,0,4.38-5.73c1.23-2.32,2.37-4.69,3.73-6.94a46.93,46.93,0,0,1,4.23-5.93,33.51,33.51,0,0,1,2.44-2.71,6.59,6.59,0,0,1,.58,2.09,24.68,24.68,0,0,1,.31,3.66,9.55,9.55,0,0,1-1.31,4.72c-1.21,2.2-6,11.07-7.62,12.53a33.49,33.49,0,0,1-4.4,3.58c-9.63,2.2-21.28-.87-24.5-2.48a21.08,21.08,0,0,1-2.2-1.65c-.51-.36-1.08-2.65-1.22-3.18A6.38,6.38,0,0,1,405.21,203.9Z"/><path class="cls-16" d="M406.19,200.3c.1,0,.14.09.19.15a2.19,2.19,0,0,0,2.49.63,15.42,15.42,0,0,0,5.4-3.44c1.41-1.3,2.76-2.65,4.09-4s2.88-3,4.32-4.46l3.19-3.32c.1-.11.2-.28.39-.21s.22.27.23.46a2.45,2.45,0,0,1-.38,1.35,26.33,26.33,0,0,1-3,4.32,77.25,77.25,0,0,1-6.55,7,18.74,18.74,0,0,1-5,3.68,6.53,6.53,0,0,1-2.69.7,2.33,2.33,0,0,1-2.42-1.72A2.85,2.85,0,0,1,406.19,200.3Z"/><path class="cls-17" d="M431,192.34h-.35c-.08-.17-.25-.12-.38-.14a14.13,14.13,0,0,1-2.26-.39c-.87-.25-1.06-.76-.58-1.54a5.3,5.3,0,0,1,1.71-1.66,5.75,5.75,0,0,1,3.12-.72,31.52,31.52,0,0,1,5.06.3,10,10,0,0,1,2,.44.87.87,0,0,1,.59,1.21l-.09.31h0c-.08,0-.07.1-.1.15a4.5,4.5,0,0,1-2.31,1.91c-.36,0-.71.11-1.07.14a30.3,30.3,0,0,1-4,0A5.53,5.53,0,0,0,431,192.34Z"/><path class="cls-16" d="M424.7,194.47a2.93,2.93,0,0,1,1.84.43,1.16,1.16,0,0,0,1.05.2,2.93,2.93,0,0,1,2.47.57.35.35,0,0,0,.4.07,3.46,3.46,0,0,1,2.22,0,1.13,1.13,0,0,1,.72,1.8,17.63,17.63,0,0,1-1.36,1.85,2.09,2.09,0,0,1-.9.67c-.15.05-.22.13-.2.29a1.37,1.37,0,0,1-.31,1,8.79,8.79,0,0,1-1.56,2,2.16,2.16,0,0,0-.74,1.06,2.06,2.06,0,0,1-.25.52c-.31.48-.66.93-1,1.4a2.07,2.07,0,0,1-2,.81,6.22,6.22,0,0,1-1.56-.34,1.53,1.53,0,0,1-.72-.48.45.45,0,0,0-.51-.17,4.12,4.12,0,0,1-2.58-.42.51.51,0,0,1-.21-.14c-.23-.37-.53-.32-.91-.25a3.64,3.64,0,0,1-2.24-.29,1.07,1.07,0,0,1-.56-1.56,7.78,7.78,0,0,1,2-2.28,6.47,6.47,0,0,0,.86-1.06,6.23,6.23,0,0,1,1.12-1.43,2.8,2.8,0,0,1,1.4-1,.18.18,0,0,0,.15-.21,1.32,1.32,0,0,1,.38-1,9,9,0,0,1,1.57-1.62A2.14,2.14,0,0,1,424.7,194.47Zm-3.39,10.85a1.79,1.79,0,0,0,1.53-.71c.34-.41.69-.81,1-1.22s.3-.77-.21-1A3.52,3.52,0,0,0,422,202a1.78,1.78,0,0,0-1.3.63L419.47,204a.53.53,0,0,0,.17.9A4.17,4.17,0,0,0,421.31,205.32Zm-3.65-.82a1.91,1.91,0,0,0,1.53-.56c.46-.49.89-1,1.31-1.51s.25-.7-.21-.93a3.84,3.84,0,0,0-1.19-.31,1.91,1.91,0,0,0-1.81.63c-.45.51-.87,1-1.28,1.58a.48.48,0,0,0,.21.8A3.73,3.73,0,0,0,417.66,204.49Zm8-1.62a1.79,1.79,0,0,0-1.46.5,14.64,14.64,0,0,0-1.34,1.59.52.52,0,0,0,.19.85,3.36,3.36,0,0,0,1.75.42,1.6,1.6,0,0,0,1.19-.54q.63-.76,1.23-1.54a.53.53,0,0,0-.19-.89A3.89,3.89,0,0,0,425.68,202.88Zm-1.59-.81a1.8,1.8,0,0,0,1.45-.68c.34-.47.72-.92,1.06-1.39a.53.53,0,0,0-.21-.9,3.77,3.77,0,0,0-1.26-.33,1.75,1.75,0,0,0-1.6.52c-.44.47-.84,1-1.24,1.49a.52.52,0,0,0,.2.87A4.67,4.67,0,0,0,424.08,202.07Zm3.08.81a1.71,1.71,0,0,0,1.47-.57,14.68,14.68,0,0,0,1.22-1.73c.23-.4.13-.68-.3-.86a4.27,4.27,0,0,0-1-.23,1.73,1.73,0,0,0-1.65.56,19.71,19.71,0,0,0-1.24,1.62.53.53,0,0,0,.23.84A3.59,3.59,0,0,0,427.16,202.88Zm2.54-3.51a1.73,1.73,0,0,0,1.47-.59c.48-.59.92-1.22,1.35-1.85.24-.35.12-.63-.28-.8a3.6,3.6,0,0,0-.89-.17,1.94,1.94,0,0,0-1.85.63,11.92,11.92,0,0,0-1.28,1.72.51.51,0,0,0,.24.8A3.13,3.13,0,0,0,429.7,199.38Zm-8-1.4a1.91,1.91,0,0,0-1.51.54c-.44.47-.86,1-1.26,1.47a.49.49,0,0,0,.21.85,4.23,4.23,0,0,0,1.63.35,1.75,1.75,0,0,0,1.47-.68c.35-.44.72-.86,1.07-1.29a.5.5,0,0,0-.18-.86A4,4,0,0,0,421.66,198Zm4.79.75a1.83,1.83,0,0,0,1.72-.77c.26-.37.54-.72.82-1.07.75-.94.32-1.2-.54-1.37a2.2,2.2,0,0,0-2.2.49,12.51,12.51,0,0,0-1.28,1.59.51.51,0,0,0,.24.83A3.56,3.56,0,0,0,426.45,198.73Zm-1.89-3.89a2,2,0,0,0-1.71.61c-.41.44-.79.89-1.17,1.35s-.21.67.22.87a4,4,0,0,0,1.19.3,1.82,1.82,0,0,0,1.64-.51c.44-.49.84-1,1.24-1.53a.48.48,0,0,0-.21-.82A3.5,3.5,0,0,0,424.56,194.83Z"/><path class="cls-15" d="M420.4,209.45a47.63,47.63,0,0,1-6.8-1.79c-.11,0-.25,0-.34-.09s-.09-.08-.15-.08h0c-.05-.08-.14-.08-.22-.08h0a1,1,0,0,0-.59-.22h0c-.09-.14-.27-.14-.4-.26a.88.88,0,0,1,.59.08c2.09.58,4.2,1.12,6.33,1.54a24.32,24.32,0,0,0,5.38.61,10,10,0,0,0,3.61-.62,8.22,8.22,0,0,0,3.06-2.43c2-2.35,3.64-5,5.48-7.43l1.44-1.9c0,.09,0,.12,0,.14-1.28,2.15-2.39,4.41-3.66,6.57a16.52,16.52,0,0,1-3.12,4,8.37,8.37,0,0,1-4.13,2.19,14.63,14.63,0,0,1-3.46.08c-.86-.05-1.71-.2-2.57-.26h0C420.72,209.41,420.55,209.47,420.4,209.45Z"/><path class="cls-15" d="M406.08,199.27a9.45,9.45,0,0,1,.73-2.07,18.22,18.22,0,0,1,2.94-4.38,40.23,40.23,0,0,1,10.2-8.2,9.11,9.11,0,0,1,4.79-1.13l.2,0a3.2,3.2,0,0,1-.83.29,26.74,26.74,0,0,0-5.59,2.82,39.76,39.76,0,0,0-7.6,6.35,36.52,36.52,0,0,0-4.53,5.9l-.22.34S406.13,199.25,406.08,199.27Z"/><path class="cls-16" d="M439.86,190.15l.09-.31a.87.87,0,0,0-.59-1.21,10,10,0,0,0-2-.44,31.52,31.52,0,0,0-5.06-.3,5.75,5.75,0,0,0-3.12.72,5.3,5.3,0,0,0-1.71,1.66c-.47.78-.29,1.29.58,1.54a14.13,14.13,0,0,0,2.26.39c.13,0,.3,0,.38.14-.83-.12-1.66-.19-2.48-.36a11.2,11.2,0,0,1-1.83-.47.93.93,0,0,1-.58-1.35,5.33,5.33,0,0,1,2.27-2.44,6.48,6.48,0,0,1,3.15-.88c1.28-.09,2.55-.08,3.83-.05a19.7,19.7,0,0,1,4.21.51,1.32,1.32,0,0,1,1.08,1.93A1.65,1.65,0,0,1,439.86,190.15Z"/><path class="cls-16" d="M431,192.34a5.53,5.53,0,0,1,1.35,0,30.3,30.3,0,0,0,4,0c.36,0,.72-.09,1.07-.14a2.46,2.46,0,0,1-1.19.25,13.19,13.19,0,0,1-2.14,0,9.31,9.31,0,0,0-1.09,0A15.24,15.24,0,0,1,431,192.34Z"/><path class="cls-15" d="M412.3,207.19a1,1,0,0,1,.59.22A.65.65,0,0,1,412.3,207.19Z"/><path class="cls-15" d="M420.4,209.45c.15,0,.32,0,.46.08C420.7,209.52,420.53,209.58,420.4,209.45Z"/><path class="cls-15" d="M412.88,207.41c.08,0,.17,0,.22.08S412.93,207.51,412.88,207.41Z"/><path class="cls-15" d="M413.1,207.49c.06,0,.14,0,.15.08S413.12,207.56,413.1,207.49Z"/><path class="cls-15" d="M421.31,205.32a4.17,4.17,0,0,1-1.68-.4.53.53,0,0,1-.17-.9l1.18-1.39A1.78,1.78,0,0,1,422,202a3.52,3.52,0,0,1,1.72.38c.51.24.57.59.21,1s-.7.81-1,1.22A1.79,1.79,0,0,1,421.31,205.32Z"/><path class="cls-15" d="M417.66,204.49a3.73,3.73,0,0,1-1.45-.3.48.48,0,0,1-.21-.8c.42-.54.83-1.08,1.28-1.58a1.91,1.91,0,0,1,1.81-.63,3.84,3.84,0,0,1,1.19.31c.46.23.54.54.21.93s-.86,1-1.31,1.51A1.91,1.91,0,0,1,417.66,204.49Z"/><path class="cls-15" d="M425.68,202.88a3.89,3.89,0,0,1,1.37.37.53.53,0,0,1,.19.89q-.6.78-1.23,1.54a1.6,1.6,0,0,1-1.19.54,3.36,3.36,0,0,1-1.75-.42.52.52,0,0,1-.19-.85,14.64,14.64,0,0,1,1.34-1.59A1.79,1.79,0,0,1,425.68,202.88Z"/><path class="cls-15" d="M424.08,202.07a4.67,4.67,0,0,1-1.58-.43.52.52,0,0,1-.2-.87c.39-.51.8-1,1.24-1.49a1.75,1.75,0,0,1,1.6-.52,3.77,3.77,0,0,1,1.26.33.53.53,0,0,1,.21.9c-.35.47-.72.92-1.06,1.39A1.8,1.8,0,0,1,424.08,202.07Z"/><path class="cls-15" d="M427.16,202.88a3.59,3.59,0,0,1-1.29-.36.53.53,0,0,1-.23-.84,19.71,19.71,0,0,1,1.24-1.62,1.73,1.73,0,0,1,1.65-.56,4.27,4.27,0,0,1,1,.23c.43.18.53.46.3.86a14.68,14.68,0,0,1-1.22,1.73A1.71,1.71,0,0,1,427.16,202.88Z"/><path class="cls-15" d="M429.7,199.38a3.13,3.13,0,0,1-1.24-.26.51.51,0,0,1-.24-.8,11.92,11.92,0,0,1,1.28-1.72,1.94,1.94,0,0,1,1.85-.63,3.6,3.6,0,0,1,.89.17c.4.17.52.45.28.8-.43.63-.87,1.26-1.35,1.85A1.73,1.73,0,0,1,429.7,199.38Z"/><path class="cls-15" d="M421.66,198a4,4,0,0,1,1.43.36.5.5,0,0,1,.18.86c-.35.44-.72.85-1.07,1.29a1.75,1.75,0,0,1-1.47.68,4.23,4.23,0,0,1-1.63-.35.49.49,0,0,1-.21-.85c.4-.5.82-1,1.26-1.47A1.91,1.91,0,0,1,421.66,198Z"/><path class="cls-15" d="M426.45,198.73a3.56,3.56,0,0,1-1.24-.31.51.51,0,0,1-.24-.83,12.51,12.51,0,0,1,1.28-1.59,2.2,2.2,0,0,1,2.2-.49c.87.18,1.29.43.54,1.37-.28.35-.56.7-.82,1.07A1.83,1.83,0,0,1,426.45,198.73Z"/><path class="cls-15" d="M424.56,194.83a3.5,3.5,0,0,1,1.2.27.48.48,0,0,1,.21.82c-.4.52-.8,1-1.24,1.53a1.82,1.82,0,0,1-1.64.51,4,4,0,0,1-1.19-.3c-.43-.19-.51-.51-.22-.87s.76-.92,1.17-1.35A2,2,0,0,1,424.56,194.83Z"/><path class="cls-18" d="M295.2,359.39l4.32-1a5.24,5.24,0,0,1,1.36-.15,2.58,2.58,0,0,1,1.32.62,2.75,2.75,0,0,1,.91,1.29,5.54,5.54,0,0,1,.37,2.16,6.86,6.86,0,0,1-.93,3.4,4.33,4.33,0,0,1-2.8,2.21l-2.75.65v6.14l-1.8.43Zm1.8,6.93,2.68-.63a2.33,2.33,0,0,0,1.51-1.18,3.85,3.85,0,0,0,.48-1.85,3.55,3.55,0,0,0-.2-1.29,1.32,1.32,0,0,0-.57-.63,1.61,1.61,0,0,0-1.29-.14l-2.61.61Z"/><path class="cls-18" d="M305.28,357l1.7-.4v5.72h0a3.43,3.43,0,0,1,2.2-1.84,2.05,2.05,0,0,1,1.92.53,3.64,3.64,0,0,1,.9,2.7v7.44l-1.7.4v-6.67a2.42,2.42,0,0,0-.47-1.68,1.15,1.15,0,0,0-1.2-.34,2,2,0,0,0-1.21.91,3.4,3.4,0,0,0-.48,1.91v6.67l-1.7.4Z"/><path class="cls-18" d="M314.59,368.3l1.7-.4v2.24l-1.7.4Z"/><path class="cls-18" d="M318.82,353.83l4.15-1a3,3,0,0,1,3.61,1.8,4.69,4.69,0,0,1,.55,1.72q.09.95.09,3.33a31.14,31.14,0,0,1-.14,3.57,5.72,5.72,0,0,1-.2,1q-.14.42-.33.89a6.89,6.89,0,0,1-1.45,2.17,4.38,4.38,0,0,1-2.26,1.31l-4,1Zm1.8,13,2.15-.51a3.12,3.12,0,0,0,2.2-1.89,3.79,3.79,0,0,0,.38-1.37q.07-.78.07-2.89t-.07-2.92a2.58,2.58,0,0,0-.46-1.33,1.75,1.75,0,0,0-2.12-.83l-2.15.51Z"/><path class="cls-18" d="M333.78,350.31l4.15-1a3,3,0,0,1,3.61,1.8,4.69,4.69,0,0,1,.54,1.72q.09.95.09,3.33a31.14,31.14,0,0,1-.14,3.56,5.72,5.72,0,0,1-.19.95q-.14.42-.33.89a6.88,6.88,0,0,1-1.45,2.17,4.37,4.37,0,0,1-2.25,1.31l-4,1Zm1.79,13,2.15-.51a3.11,3.11,0,0,0,2.2-1.89,3.78,3.78,0,0,0,.38-1.37q.07-.78.07-2.89t-.07-2.92a2.58,2.58,0,0,0-.46-1.32,1.75,1.75,0,0,0-2.12-.83l-2.15.51Z"/><path class="cls-18" d="M344.51,347.79l1.69-.4v2.24l-1.69.4Zm0,4.52,1.69-.4v11.17l-1.69.4Z"/><path class="cls-18" d="M348.57,351.35l1.69-.4v1.18h0a3.41,3.41,0,0,1,2.19-1.84,1.94,1.94,0,0,1,1.77.44L353,353a1.25,1.25,0,0,0-1.11-.3,1.88,1.88,0,0,0-1.11.82,3.12,3.12,0,0,0-.54,1.9v6.73l-1.69.4Z"/><path class="cls-18" d="M356.21,356a2.57,2.57,0,0,0,.58,1.91,1.38,1.38,0,0,0,1.43.37,3.13,3.13,0,0,0,1.84-1.52l1.22,1.1a4.93,4.93,0,0,1-3,2.52,3.23,3.23,0,0,1-1.3,0,2.2,2.2,0,0,1-.62-.23,2.16,2.16,0,0,1-.59-.37,3.53,3.53,0,0,1-.87-1.54,8.06,8.06,0,0,1-.37-2.71,11,11,0,0,1,.32-2.83,6.78,6.78,0,0,1,.81-2,4.35,4.35,0,0,1,1.13-1.21A3.52,3.52,0,0,1,358,349a2.48,2.48,0,0,1,2.44.68,4.47,4.47,0,0,1,1,3.22v1.85Zm3.56-2.69a2.87,2.87,0,0,0-.53-1.85,1.22,1.22,0,0,0-1.25-.34,2,2,0,0,0-1.25.93,4.32,4.32,0,0,0-.53,2.1Z"/><path class="cls-18" d="M369.7,355.73a7.09,7.09,0,0,1-1.3,1.66,3.81,3.81,0,0,1-1.73,1,2.68,2.68,0,0,1-2.61-.73q-1.17-1.07-1.2-4.07a8.17,8.17,0,0,1,1.2-4.69,4.39,4.39,0,0,1,2.61-1.94,2.72,2.72,0,0,1,1.72.13,3.42,3.42,0,0,1,1.29,1.1l-1.25,1.76a1.55,1.55,0,0,0-1.71-.77q-2.16.46-2.19,4t2.19,2.95a2.7,2.7,0,0,0,1.71-1.57Z"/><path class="cls-18" d="M371.21,342.63l1.69-.4v3.39l1.23-.29v1.72l-1.23.29v6.5q0,.85.6.69l.63-.15v2.1l-.88.21a1.42,1.42,0,0,1-1.45-.39,2.53,2.53,0,0,1-.58-1.88v-6.69l-.85.2v-1.72l.85-.2Z"/><path class="cls-18" d="M375.44,350.59a13.56,13.56,0,0,1,.22-2.76,5.56,5.56,0,0,1,.7-1.72,4.93,4.93,0,0,1,1-1.22,3.65,3.65,0,0,1,1.58-.81,2.62,2.62,0,0,1,1.61.06,2.39,2.39,0,0,1,.94.78,2.94,2.94,0,0,1,.71,1.39,13.09,13.09,0,0,1,.2,2.66,14.2,14.2,0,0,1-.2,2.73,5.43,5.43,0,0,1-.71,1.77,4.37,4.37,0,0,1-.4.58,2.69,2.69,0,0,1-.54.59,3.46,3.46,0,0,1-1.61.86,2.34,2.34,0,0,1-1.58-.11,2.44,2.44,0,0,1-1-.72,3.66,3.66,0,0,1-.7-1.44A11.73,11.73,0,0,1,375.44,350.59Zm5.24-1.21a12.9,12.9,0,0,0-.08-1.73,1.91,1.91,0,0,0-.33-.85,1,1,0,0,0-.55-.46,1.31,1.31,0,0,0-.81,0,1.88,1.88,0,0,0-.79.41,2.35,2.35,0,0,0-.57.73,3.8,3.8,0,0,0-.32,1,11.47,11.47,0,0,0-.1,1.75,10.22,10.22,0,0,0,.1,1.68,2.72,2.72,0,0,0,.32.9,1.6,1.6,0,0,0,.57.44,1.27,1.27,0,0,0,.79,0,1.79,1.79,0,0,0,.81-.43,2.5,2.5,0,0,0,.55-.7,3.23,3.23,0,0,0,.33-1A13,13,0,0,0,380.68,349.37Z"/><path class="cls-18" d="M384.41,342.91l1.68-.4v1.18h0a3.4,3.4,0,0,1,2.18-1.83,1.93,1.93,0,0,1,1.76.44l-1.23,2.22a1.24,1.24,0,0,0-1.11-.3,1.87,1.87,0,0,0-1.11.82,3.12,3.12,0,0,0-.53,1.9v6.72l-1.68.4Z"/><path class="cls-18" d="M394.73,346a13.56,13.56,0,0,1,.22-2.76,5.56,5.56,0,0,1,.69-1.72,4.92,4.92,0,0,1,1-1.22,3.63,3.63,0,0,1,1.57-.81,2.61,2.61,0,0,1,1.61.06,2.39,2.39,0,0,1,.94.78,2.94,2.94,0,0,1,.71,1.39,13.09,13.09,0,0,1,.2,2.65,14.2,14.2,0,0,1-.2,2.73,5.43,5.43,0,0,1-.71,1.77,4.36,4.36,0,0,1-.39.58,2.68,2.68,0,0,1-.54.59,3.45,3.45,0,0,1-1.6.86,2.33,2.33,0,0,1-1.57-.11,2.44,2.44,0,0,1-1-.72,3.66,3.66,0,0,1-.69-1.43A11.73,11.73,0,0,1,394.73,346Zm5.22-1.21a12.9,12.9,0,0,0-.08-1.72,1.91,1.91,0,0,0-.33-.85,1,1,0,0,0-.55-.46,1.3,1.3,0,0,0-.81,0,1.87,1.87,0,0,0-.79.41,2.35,2.35,0,0,0-.57.73,3.8,3.8,0,0,0-.32,1,11.47,11.47,0,0,0-.1,1.74,10.22,10.22,0,0,0,.1,1.68,2.72,2.72,0,0,0,.32.89,1.6,1.6,0,0,0,.57.44,1.27,1.27,0,0,0,.79,0,1.79,1.79,0,0,0,.81-.43,2.5,2.5,0,0,0,.55-.7,3.22,3.22,0,0,0,.33-1A13,13,0,0,0,400,344.83Z"/><path class="cls-18" d="M403.95,340l-.85.2v-1.71l.85-.2v-1.47a4.16,4.16,0,0,1,.66-2.49,2.8,2.8,0,0,1,1.62-1.08l1.09-.26v2.1l-1,.23q-.76.15-.73,1.1v1.48l1.69-.4v1.71l-1.69.4V349l-1.68.4Z"/><path class="cls-18" d="M412.65,331.76l7.5-1.76v2.23l-5.72,1.35v4.62l4.88-1.15v2.1l-4.88,1.15V347l-1.78.42Z"/><path class="cls-18" d="M421.34,334.21l1.68-.39V335h0a3.38,3.38,0,0,1,2.17-1.83,1.91,1.91,0,0,1,1.75.44l-1.22,2.22a1.24,1.24,0,0,0-1.1-.3,1.86,1.86,0,0,0-1.1.82,3.11,3.11,0,0,0-.53,1.89v6.7l-1.68.4Z"/><path class="cls-18" d="M427.75,332.7l1.67-.39v6.62a2.39,2.39,0,0,0,.48,1.65,1.13,1.13,0,0,0,1.19.35,1.89,1.89,0,0,0,1.18-.91,3.45,3.45,0,0,0,.47-1.87v-6.62l1.67-.39v11.11l-1.67.4v-1.19h0a3.37,3.37,0,0,1-2.16,1.83,2,2,0,0,1-1.87-.56,3.28,3.28,0,0,1-.92-2.62Z"/><path class="cls-18" d="M436.92,326l1.67-.39v2.22l-1.67.39Zm0,4.49,1.67-.39v11.11l-1.67.4Z"/><path class="cls-18" d="M441,326.19l1.67-.39v3.38l1.22-.29v1.71l-1.22.29v6.47q0,.85.59.68l.63-.15V340l-.87.21a1.41,1.41,0,0,1-1.44-.39,2.53,2.53,0,0,1-.58-1.87v-6.66l-.84.2v-1.71l.84-.2Z"/><path class="cls-18" d="M450,334.78a3.6,3.6,0,0,0,3.32.77,2.68,2.68,0,0,0,2.31-2.72q0-1.75-1.52-1.74l-1.55.08a2.72,2.72,0,0,1-2.29-.95,4.16,4.16,0,0,1-.81-2.7,6.12,6.12,0,0,1,1-3.54,4.55,4.55,0,0,1,2.8-1.92,4.6,4.6,0,0,1,3.79.72l-1,2.17a3.74,3.74,0,0,0-2.9-.52,2.43,2.43,0,0,0-1.36.87,2.88,2.88,0,0,0-.59,1.83,1.66,1.66,0,0,0,.39,1.13,1.58,1.58,0,0,0,1.26.47q.48,0,1.31-.06a2.61,2.61,0,0,1,2.43,1,4.52,4.52,0,0,1,.78,2.73q-.09,4.49-4.1,5.5a4.68,4.68,0,0,1-4.46-1.07Z"/><path class="cls-18" d="M465.56,333.1a7,7,0,0,1-1.28,1.65,3.76,3.76,0,0,1-1.71,1A2.64,2.64,0,0,1,460,335q-1.15-1.06-1.18-4a8.15,8.15,0,0,1,1.18-4.66,4.33,4.33,0,0,1,2.58-1.92,2.67,2.67,0,0,1,1.7.13,3.39,3.39,0,0,1,1.28,1.1l-1.23,1.75a1.53,1.53,0,0,0-1.69-.77q-2.13.46-2.16,4t2.16,2.93a2.67,2.67,0,0,0,1.69-1.56Z"/><path class="cls-18" d="M467,319l1.67-.39v2.22l-1.67.39Zm0,4.49,1.67-.39v11.09l-1.67.39Z"/><path class="cls-18" d="M472.27,328.6a2.57,2.57,0,0,0,.58,1.89,1.36,1.36,0,0,0,1.41.37,3.08,3.08,0,0,0,1.82-1.51l1.21,1.09a4.86,4.86,0,0,1-3,2.5,3.16,3.16,0,0,1-1.28,0,2.17,2.17,0,0,1-.61-.23,2.13,2.13,0,0,1-.58-.36,3.52,3.52,0,0,1-.86-1.53,8.06,8.06,0,0,1-.36-2.69,11,11,0,0,1,.31-2.81,6.74,6.74,0,0,1,.8-1.94,4.29,4.29,0,0,1,1.11-1.2,3.46,3.46,0,0,1,1.2-.57,2.44,2.44,0,0,1,2.41.68,4.46,4.46,0,0,1,1,3.2v1.83Zm3.51-2.66a2.87,2.87,0,0,0-.52-1.84,1.19,1.19,0,0,0-1.23-.34,2,2,0,0,0-1.23.92,4.31,4.31,0,0,0-.52,2.09Z"/><path class="cls-18" d="M479.46,320.52l1.66-.39v1.17h0a3.35,3.35,0,0,1,2.15-1.82,2,2,0,0,1,1.88.53,3.63,3.63,0,0,1,.89,2.67V330l-1.66.39v-6.6a2.42,2.42,0,0,0-.46-1.66,1.12,1.12,0,0,0-1.17-.34,1.91,1.91,0,0,0-1.18.9,3.39,3.39,0,0,0-.47,1.89v6.6l-1.66.39Z"/><path class="cls-18" d="M494.63,326.24a7,7,0,0,1-1.28,1.65,3.74,3.74,0,0,1-1.7,1,2.63,2.63,0,0,1-2.57-.72q-1.15-1.06-1.18-4a8.15,8.15,0,0,1,1.18-4.65,4.32,4.32,0,0,1,2.58-1.92,2.66,2.66,0,0,1,1.7.13,3.38,3.38,0,0,1,1.28,1.09l-1.23,1.75a1.53,1.53,0,0,0-1.68-.77q-2.12.46-2.15,4t2.15,2.93a2.66,2.66,0,0,0,1.68-1.55Z"/><path class="cls-18" d="M497.27,322.71a2.57,2.57,0,0,0,.57,1.89,1.35,1.35,0,0,0,1.4.37,3.07,3.07,0,0,0,1.81-1.5l1.2,1.09a4.84,4.84,0,0,1-3,2.49,3.15,3.15,0,0,1-1.28,0,2.16,2.16,0,0,1-.61-.23,2.12,2.12,0,0,1-.58-.36A3.51,3.51,0,0,1,496,325a8.06,8.06,0,0,1-.36-2.69,11,11,0,0,1,.31-2.8,6.74,6.74,0,0,1,.8-1.94,4.28,4.28,0,0,1,1.11-1.2,3.44,3.44,0,0,1,1.2-.57,2.43,2.43,0,0,1,2.4.68,4.46,4.46,0,0,1,1,3.19v1.83Zm3.5-2.66a2.87,2.87,0,0,0-.52-1.84,1.19,1.19,0,0,0-1.23-.34,2,2,0,0,0-1.23.92,4.3,4.3,0,0,0-.52,2.08Z"/><path class="cls-18" d="M504.69,322.27a2.46,2.46,0,0,0,2.62.8,2.3,2.3,0,0,0,1.17-.65,1.62,1.62,0,0,0,.46-1.15q0-.6-.27-.77a1,1,0,0,0-.74-.09l-1.47.18a2,2,0,0,1-1.7-.54,2.74,2.74,0,0,1-.69-2,4.24,4.24,0,0,1,.9-2.77,3.9,3.9,0,0,1,2.18-1.37,5.12,5.12,0,0,1,1-.15,3.58,3.58,0,0,1,.85.1,3.52,3.52,0,0,1,1.37.8l-1,1.85a3.63,3.63,0,0,0-1-.52,2.44,2.44,0,0,0-1.21,0,1.76,1.76,0,0,0-1.09.63,1.72,1.72,0,0,0-.33,1,.68.68,0,0,0,.25.59,1,1,0,0,0,.85.2l1.37-.19a1.83,1.83,0,0,1,1.87.61,3.73,3.73,0,0,1,.53,2.15,4,4,0,0,1-1,2.72,4.59,4.59,0,0,1-2.44,1.49,3.71,3.71,0,0,1-3.64-1.12Z"/><rect class="cls-19" x="463.09" y="145.43" width="7.12" height="14.62"/><rect class="cls-20" x="456.35" y="145.43" width="7.12" height="14.62"/><polygon class="cls-21" points="506.17 151.65 418.46 152.16 426.2 80.03 496.28 80.03 506.17 151.65"/><polygon class="cls-22" points="464.05 215.64 446.12 213.9 445.87 157.93 464.05 157.93 464.05 215.64"/><polygon class="cls-20" points="480.78 212.75 464.05 215.64 464.05 157.93 480.78 157.74 480.78 212.75"/><polygon class="cls-23" points="390.38 225.94 327.76 235.79 253.88 230.17 329.17 222.43 390.38 225.94"/><polygon class="cls-5" points="307.36 239.31 238.4 239.31 263.73 228.76 321.43 229.46 307.36 239.31"/><path class="cls-24" d="M763,223c8.47-3.21-22.58,14.7-48,11.74s-49.55-13.52-48.46-23,6.93-13.8,32.12-9.38C723.43,206.73,746.83,229.11,763,223Z"/><polygon class="cls-24" points="682.21 233.42 678.04 233.21 677.49 222.14 683.04 223.13 682.21 233.42"/><path class="cls-1" d="M578.6,281.93c-15.51-10.54-19.86-24.25-23.59-19.55-1.29,1.62,10.6,19.52,27.39,27.88,16.24,8.09,23.31,9.33,24.61,7.7C611.58,292.19,594.11,292.47,578.6,281.93Z"/><path class="cls-25" d="M545,261.2c.12-7.24,5.88-13.49,13.11-13.11,4.82.26,6.44,3.89,9.83,8.82,1.78-3.59,3-4.93,6.65-3.66,1.9.67,2.11,4.46.54,8.24a22.69,22.69,0,0,1-3.32,5.5,1.79,1.79,0,0,1,.62.62c1,1.74-1.34,5-5.24,7.24s-7.88,2.66-8.89.92a2,2,0,0,1-.17-1.46h0C550.58,274.15,544.86,268.37,545,261.2Z"/><path class="cls-1" d="M677.51,408.95c4.3-.42,9.09-1.7,10.63-2.77,2.26-1.58,1-10.15.81-12.39l-2.15-28.86c-.17-2.23-2.62-1.64-5.66-1.41h0c-1.13,5.77-.16,32-2.5,33.66-9.11,6.31-19.69,11.39-11.31,12A44.67,44.67,0,0,0,677.51,408.95Z"/><path class="cls-1" d="M633.88,404.28c4.32,0,9.21-.82,10.85-1.75,2.4-1.35,1.94-10,2-12.25l.61-28.93c0-2.24-2.45-1.88-5.5-1.95h0c-1.67,5.64-3.21,31.88-5.69,33.27-9.67,5.41-20.69,9.46-12.4,10.87A44.67,44.67,0,0,0,633.88,404.28Z"/><ellipse class="cls-26" cx="668.25" cy="299.87" rx="75.27" ry="68.98"/><path class="cls-27" d="M657.77,359.5c40.16,0,72.71-30.35,72.71-67.78,0-21.45-10.69-40.58-27.38-53,24,11.52,40.43,34.58,40.43,61.16,0,38.1-33.7,69-75.27,69-24.8,0-46.79-11-60.51-27.95A75.35,75.35,0,0,0,657.77,359.5Z"/><circle class="cls-1" cx="689.47" cy="284.09" r="4.38" transform="translate(368.12 957) rotate(-86.87)"/><circle class="cls-1" cx="627.45" cy="277.7" r="4.38" transform="translate(315.87 889.04) rotate(-86.87)"/><path class="cls-1" d="M682.92,260.12c-.25.78,4-.73,8.71.81s7.19,5,7.44,4.19-2.27-4.07-7-5.6S683.18,259.34,682.92,260.12Z"/><path class="cls-1" d="M637,257.82c.13.81-3.73-1-8.63-.26s-8,3.7-8.08,2.89,3-3.6,7.85-4.36S636.88,257,637,257.82Z"/><path class="cls-28" d="M639.62,299.25c1.1,4.39,6.24,8.22,14,8.3s13.06-3.66,14.21-8c1.42-5.39-.7-7.63-14-8.3C638.88,290.48,638.52,294.88,639.62,299.25Z"/><path class="cls-1" d="M741.76,336.24c1.68,18.68-5.38,35,.62,34.86,2.07,0,8.37-20.57,4.19-38.86-4-17.69-7.57-23.94-9.64-23.91C729.58,308.45,740.08,317.57,741.76,336.24Z"/><path class="cls-25" d="M728.66,356.94a15.6,15.6,0,0,1,7.59-3.73,2.14,2.14,0,0,1-1.1-1.76c.17-1.82,4.47-2.91,9.61-2.43s9.17,2.35,9,4.17c-.08.8-1,1.46-2.35,1.91,3,2,5.1,5.7,3.45,13.41-1.59,7.4-10.09,8.95-16.5,7.71-6.09-1.17-7.94-4.53-6.91-11.11-1.89.83-3.72.81-4.77-.24C725,363.23,725.92,359.68,728.66,356.94Z"/><path class="cls-29" d="M692.91,315.71c-7.51-6.88-30.49,4.22-39.67,12.26a9.39,9.39,0,0,0-10.76-1c-8.21-9.19-29.19-22.89-37.47-17.13-5.67,4-7.1,30.76.23,37.35s28.68,1.92,36.92-5.27a9.4,9.4,0,0,0,9.49.4c7,8.31,27.86,16,36.1,10.35S698,320.38,692.91,315.71Z"/></g></g></svg>