<svg xmlns="http://www.w3.org/2000/svg" viewBox="0 0 807.83 569.2"><defs><style>.cls-1{fill:#231f20;}.cls-2{fill:#009444;}.cls-3{fill:#e8ecee;stroke:#231f20;stroke-miterlimit:10;stroke-width:1.75px;}.cls-4{fill:#f7941d;}.cls-5{fill:#f36e24;}.cls-6{fill:#d35461;}.cls-7{fill:#9d752b;}.cls-8{fill:#f8f6ed;}.cls-9{fill:#b9822b;}.cls-10{fill:#1b75bc;}.cls-11{fill:#eef2f7;}.cls-12{fill:#991c1f;}.cls-13{fill:#aa1f24;}.cls-14{fill:#be1e2d;}.cls-15{fill:#fcb432;}</style></defs><title>roleplay_interview</title><g id="Layer_2" data-name="Layer 2"><g id="Layer_3" data-name="Layer 3"><path class="cls-1" d="M382.17,537.33c-5.5-.54-11.62-2.17-13.59-3.54-2.89-2-1.25-13-1-15.83l2.75-36.89c.21-2.85,3.35-2.1,7.24-1.81h0c1.44,7.38.2,41,3.19,43,11.65,8.06,25.17,14.56,14.46,15.34A57.1,57.1,0,0,1,382.17,537.33Z"/><path class="cls-1" d="M437.93,531.37c-5.52,0-11.77-1.05-13.87-2.23-3.07-1.73-2.48-12.8-2.54-15.66l-.78-37c-.06-2.86,3.14-2.41,7-2.49h0c2.14,7.21,4.1,40.75,7.28,42.53,12.36,6.91,26.44,12.09,15.85,13.9A57.1,57.1,0,0,1,437.93,531.37Z"/><path class="cls-2" d="M272.91,299.63c-10.83-4.11,28.86,18.78,61.32,15s63.34-17.28,61.93-29.34-8.86-17.64-41.05-12C323.48,278.87,293.57,307.47,272.91,299.63Z"/><polygon class="cls-2" points="376.17 312.99 381.5 312.71 382.2 298.56 375.1 299.84 376.17 312.99"/><path class="cls-1" d="M508.6,375c19.83-13.47,25.38-31,30.15-25,1.65,2.08-13.55,24.94-35,35.63-20.76,10.34-29.8,11.92-31.45,9.85C466.44,388.1,488.77,388.46,508.6,375Z"/><path class="cls-3" d="M551.57,348.49c-.16-9.25-7.51-17.25-16.75-16.75-6.16.33-8.23,5-12.57,11.28-2.28-4.59-3.85-6.3-8.49-4.68-2.43.85-2.69,5.7-.7,10.53a29,29,0,0,0,4.24,7,2.29,2.29,0,0,0-.79.79c-1.29,2.23,1.71,6.37,6.7,9.25s10.07,3.41,11.36,1.18a2.6,2.6,0,0,0,.22-1.87h0C544.41,365,551.72,357.65,551.57,348.49Z"/><ellipse class="cls-4" cx="394.01" cy="397.92" rx="96.21" ry="88.17"/><path class="cls-5" d="M407.41,474.13c-51.33,0-92.93-38.79-92.93-86.64,0-27.42,13.67-51.86,35-67.74-30.71,14.73-51.67,44.2-51.67,78.17,0,48.69,43.07,88.17,96.21,88.17,31.69,0,59.81-14,77.33-35.72A96.3,96.3,0,0,1,407.41,474.13Z"/><circle class="cls-1" cx="366.89" cy="377.75" r="5.6" transform="translate(-20.1 20.62) rotate(-3.13)"/><circle class="cls-1" cx="446.15" cy="369.58" r="5.6" transform="translate(-19.53 24.94) rotate(-3.13)"/><path class="cls-1" d="M375.26,347.11c.33,1-5.11-.93-11.13,1s-9.19,6.36-9.51,5.36,2.9-5.2,8.92-7.16S374.93,346.12,375.26,347.11Z"/><path class="cls-1" d="M433.94,344.17c-.16,1,4.77-1.3,11-.33s10.17,4.73,10.33,3.69-3.78-4.6-10-5.57S434.1,343.14,433.94,344.17Z"/><path class="cls-6" d="M430.6,397.12c-1.41,5.61-8,10.51-18,10.61S396,403,394.49,397.48c-1.81-6.89.89-9.76,18-10.61C431.55,385.92,432,391.53,430.6,397.12Z"/><path class="cls-1" d="M300.05,444.41c-2.15,23.87,6.88,44.68-.79,44.56-2.65,0-10.7-26.29-5.36-49.66,5.16-22.61,9.67-30.6,12.32-30.56C315.63,408.88,302.2,420.53,300.05,444.41Z"/><rect class="cls-7" x="235.96" y="477.53" width="95.44" height="8.68" rx="4.34" ry="4.34" transform="matrix(1, 0, 0, 1, -2.29, 1.36)"/><path class="cls-8" d="M445.3,541.29c-23.69,0-81.48-2.85-106.44-29.25-8.47-9-12.41-19.89-11.7-32.48,1.3-23.26,15.45-40.09,42-50,21.85-8.16,47.54-9.87,65.25-9.87,11.53,0,19.37.74,19.44.75a1.35,1.35,0,0,1,1.18,1.69,274.26,274.26,0,0,0-7.2,58.71c-.28,21.6,7.69,58.29,7.77,58.66a1.35,1.35,0,0,1-1.25,1.64S450.91,541.29,445.3,541.29Z"/><path class="cls-9" d="M434.44,421c11.61,0,19.32.75,19.32.75a273,273,0,0,0-7.24,59c-.28,22,7.8,59,7.8,59s-3.38.17-9,.17c-29.32,0-119.92-4.5-116.79-60.3C331.42,427.59,400,421,434.44,421m0-2.71h0c-17.82,0-43.68,1.73-65.72,10-27.14,10.13-41.57,27.36-42.91,51.2-.73,13,3.33,24.24,12.07,33.48,25.33,26.79,83.56,29.68,107.43,29.68,5.64,0,9-.16,9.15-.17a2.71,2.71,0,0,0,2.51-3.28c-.08-.37-8-36.91-7.74-58.35a272.89,272.89,0,0,1,7.15-58.39,2.71,2.71,0,0,0-2.36-3.38c-.32,0-8-.76-19.57-.76Z"/><path class="cls-7" d="M410.35,467.32c-3.23.43,3.26-7,2.05-16.1s-9.65-16.34-6.42-16.77,13.88,6.54,15.08,15.62S413.58,466.89,410.35,467.32Z"/><path class="cls-7" d="M406.72,525.7c-3.53-.38,5.19-6,6.18-15.11s-6.15-18.23-2.62-17.85,13.06,9.77,12.08,18.87S410.25,526.08,406.72,525.7Z"/><path class="cls-7" d="M383.95,452.34c6-.23-7.21,11.81-6.58,27.94s14.87,30.25,8.86,30.48-24.35-13.72-25-29.85S377.94,452.57,383.95,452.34Z"/><path class="cls-3" d="M316.8,470.86a19.94,19.94,0,0,0-9.7-4.76,2.74,2.74,0,0,0,1.4-2.25c-.22-2.33-5.72-3.72-12.29-3.1s-11.72,3-11.5,5.33c.1,1,1.22,1.87,3,2.44-3.81,2.5-6.52,7.29-4.41,17.14,2,9.45,12.89,11.44,21.09,9.86,7.78-1.5,10.15-5.79,8.83-14.2,2.42,1.06,4.75,1,6.09-.3C321.43,478.9,320.3,474.36,316.8,470.86Z"/><rect class="cls-10" x="532.55" y="324.18" width="9.02" height="99.19" rx="4.51" ry="4.51" transform="matrix(0.97, -0.25, 0.25, 0.97, -76.7, 146.96)"/><path class="cls-11" d="M514.86,333.52c-26,0-48.31-19.71-64.39-57-12-27.93-16.49-56.24-16.54-56.52a1.35,1.35,0,0,1,1.34-1.56h.16a282,282,0,0,0,60.84-7.81c21.83-5.26,56.75-22.69,57.09-22.87a1.35,1.35,0,0,1,1.9.81c1,3.35,25,82.58,1,122.67-6.86,11.46-17.07,18.58-30.35,21.18A57.78,57.78,0,0,1,514.86,333.52Z"/><path class="cls-10" d="M554,189s39.66,128.82-28.31,142.12a56.16,56.16,0,0,1-10.8,1.08c-62.27,0-79.59-112.39-79.59-112.39h.16a285.05,285.05,0,0,0,61.15-7.85c22.24-5.36,57.39-23,57.39-23m0-2.71a2.7,2.7,0,0,0-1.21.29c-.35.17-35.13,17.54-56.81,22.76a280.48,280.48,0,0,1-60.52,7.77h-.16a2.71,2.71,0,0,0-2.67,3.12c0,.28,4.52,28.76,16.63,56.85,7.17,16.62,15.58,29.9,25,39.46,12,12.19,25.68,18.37,40.63,18.37a59.12,59.12,0,0,0,11.32-1.13c13.67-2.67,24.18-10,31.25-21.81,10.26-17.14,13.21-43.22,8.78-77.54a313.27,313.27,0,0,0-9.65-46.23,2.71,2.71,0,0,0-2.59-1.91Z"/><path class="cls-10" d="M483.27,237.71c-2.69-2.06-.69,8-6.47,15.57s-17.14,9.75-14.45,11.81,15.89,1.27,21.67-6.29S486,239.76,483.27,237.71Z"/><path class="cls-10" d="M547.29,238c.86-3.59-7.69,3-16.95.79s-15.72-12.37-16.57-8.78,5,16.19,14.28,18.4S546.43,241.62,547.29,238Z"/><path class="cls-10" d="M547,286.42c1.4,6.09-14.7-3.49-31.05.27s-27.63,20.8-29,14.71,8.88-28,25.23-31.74S545.58,280.33,547,286.42Z"/><path class="cls-12" d="M379.9,129.36C198.72,123.82,208,0,208,0H562.85S561,134.91,379.9,129.36Z"/><path class="cls-13" d="M625.69,129.36C806.86,123.82,797.56,0,797.56,0H442.73S444.58,134.91,625.69,129.36Z"/><path class="cls-14" d="M653.41,565.5l146,3.7V0h-122s-1.85,192.2,88.71,208.83c11.76,2.16-18.81,20.63-24,24C662.65,284.6,653.41,565.5,653.41,565.5Z"/><path class="cls-13" d="M180.31,129.36C-.87,123.82,8.44,0,8.44,0H363.26S361.42,134.91,180.31,129.36Z"/><path class="cls-14" d="M152.59,565.5l-146,3.7V0h122s1.85,192.2-88.71,208.83c-11.76,2.16,18.81,20.63,24,24C143.35,284.6,152.59,565.5,152.59,565.5Z"/><rect class="cls-15" y="204.56" width="60.99" height="16.63" rx="6.85" ry="6.85"/><rect class="cls-15" x="746.85" y="204.33" width="60.99" height="16.63" rx="6.85" ry="6.85"/></g></g></svg>