<svg xmlns="http://www.w3.org/2000/svg" viewBox="0 0 3494 1718"><defs><style>.cls-1{fill:#795ea4;}.cls-2{fill:#866fac;}.cls-3{fill:#5b5193;}.cls-4{fill:#453f7f;}</style></defs><title>scene5-background</title><g id="Layer_2" data-name="Layer 2"><g id="Layer_2-2" data-name="Layer 2"><rect class="cls-1" width="3494" height="1718"/><path class="cls-2" d="M2978.07,404c-49.59-77.28,7.33-140.77,76.4-154.49,9-38.52-21.95-100.39-87.62-174.07L3006.61,46c66.51,57.6,100.72,124.79,107,202.85,40.28,9.56,72.08,28.4,88.18,60.93,15.71,31.76,11.39,62.95-10.95,94.25,47.92,0,93.4,0,138.88,0,30.76,0,39.21,6.78,39.22,31.43q0,70.07,0,140.14c0,27.11-3.68,30.56-37.32,35.08-3.45.46-6.82,1.3-12,2.31,0,5.75,0,11.43,0,17.11q0,148.08,0,296.17c0,24.56-8.84,31.8-39.14,31.8q-491.56,0-983.11,0c-31.55,0-39.52-6.66-39.53-32.72,0-99.69-.18-199.37.24-299.06,0-10.7-1.29-17-17.39-17.24-14.51-.21-22.54-8.93-22.62-20.32-.39-54.41-.46-108.83.19-163.24.16-13.21,11.26-20.67,27.71-21.4,5.33-.24,10.68-.06,16-.06h716ZM2313.84,912.19h948.54v-208H2313.84Zm999.07-461.83H2272.62V564.95c17.62,8.29,33.6,15.44,49.11,23.2,23.15,11.59,45.56,11.25,68.21-1,55.27-29.81,94.44-29.72,149.32,0,23.46,12.7,46.31,13.3,69.48-.12,50.16-29,99.63-29,149.68,0,23.55,13.62,47.25,12.47,71-.54,53.07-29,93.65-28.72,147.82.6,23.59,12.77,45.41,12.41,69.65.29,14-7,28.42-14.58,44-18.19,35.47-8.22,68.93-2.94,99.66,14.45,31.32,17.73,49.88,17.19,81.32.54,10.33-5.48,22.08-9.17,32.63-14.42,3.67-1.83,8-5.86,8.06-8.92C3313.11,524.33,3312.91,487.82,3312.91,450.36Zm-50,188c-36.11,5-68.49,2.54-98.32-14.41-33.91-19.27-51.24-18.73-85.67-.15-43.16,23.3-90.68,23.34-133.22.13-34.45-18.8-51.28-18.83-85.74-.19-43.31,23.43-89.89,23.51-133.14.22-34.81-18.74-51.61-18.81-85.81-.36-44,23.74-91.42,23.65-134.68-.26-32.38-17.89-50.74-18.27-82.64-.44-23.36,13.06-48.63,19.66-77,17.61-10.85-.79-21.64-2.19-32.35-3.3V657.9h948.56ZM3083.73,404c39,.3,71.33-24.47,72.05-55.24.71-30.49-31.16-56.92-69.54-57.65-38.16-.73-72.81,26.53-72.52,57C3014,377.88,3046.41,403.73,3083.73,404Z"/><path class="cls-2" d="M496.75,70c24.66,2.79,53.57,5.12,82.15,9.58,23.8,3.71,29,15.21,19.32,37.15C543.77,240.5,610.55,381.49,741,417.33c51.46,14.13,102.06,10.34,151.21-10.77,22.79-9.79,33.62-4.27,38.3,19.69C976.68,662.68,822.38,892.8,585.46,940.88,360.79,986.47,138.62,861,67.55,648.43-9.82,417,119.9,165.95,355.22,92.44a489.05,489.05,0,0,1,68.38-16C446.25,72.84,469.38,72.28,496.75,70ZM365.58,217.14c-29.53-5.62-53.39-.09-64.89,31.39-13.52,37-40.58,59.82-76.31,75.09-30.68,13.11-34.51,21.85-30.73,54.95,3.92,34.27-2.21,65.17-23.28,93.8-26.61,36.15-26.42,40.36-.24,76.53,19.11,26.4,26.7,54.52,24.21,86.82C190.78,682,191.16,682.9,234,702.53c30.09,13.78,50.83,34.91,64.37,64.91,16.91,37.5,22.93,40.27,63.73,37.36,1.38-.1,2.77-.08,4.14-.27,30.67-4.27,59.43,1.55,83.24,21.32,29.17,24.22,55.9,24.31,85.12.06,24.25-20.12,53.51-25.67,84.65-21.37,4.54.63,9.25.12,13.78.81,23.51,3.58,39.53-6,47.83-27.86,15.19-40,43.23-66.53,83-81.32,1.71-.64,3.26-1.72,4.94-2.47,17.34-7.72,26.06-21.45,22.74-39.83-8.19-45.33,3.8-84.35,32.48-119.6,10.66-13.1,12-27.76,2.64-43.57-8.95-15.12-17.71-28-38.26-23.2-3.46.81-7.35,0-11-.33C638.68,453,539.35,345.77,535.19,205.92c-.11-3.83-.76-8.71-3.14-11.24-19.94-21.25-43.31-23.82-68.08-8.08-3.5,2.22-7,4.45-10.33,6.92C427.31,213,398.28,222.2,365.58,217.14Zm494,245.24c20.27,30.75,23.09,61.35,3.37,90.82-36.8,55-30.37,42.17-28.5,105.11,1,32.45-13.19,55.94-41.46,70.7-52.67,27.5-48.82,17.2-78.76,77.14-14.24,28.51-39.18,44-71,41.08-64.69-5.88-68.89,2.07-109.53,29-26.87,17.79-55.72,16.68-83.54.06-9.09-5.43-18.2-10.88-26.79-17-15.79-11.32-32.91-15.34-52.22-13a239.9,239.9,0,0,1-37.26,1c-25.73-1-46.05-12.28-59.68-34.32a264.78,264.78,0,0,1-17.71-32.72c-8.06-18.41-21.69-30.12-39.6-38.35a268.72,268.72,0,0,1-37.41-20.52c-19.25-12.89-29-31.74-29.27-55-.18-13.82-.36-27.72.92-41.45a63.91,63.91,0,0,0-11.63-44.2,394.28,394.28,0,0,1-22.21-34.91c-12.66-23.08-12.37-46.72-.1-69.95a165.94,165.94,0,0,1,15.29-24.58c14.52-18.63,22.43-38.79,18.17-62.78-.88-4.94-.09-10.15-.61-15.18-4.35-41.83,13.76-71.23,52-86.15,31.54-12.32,52-33.37,63.82-64.19a22.67,22.67,0,0,1,1.12-2.53c19.2-36.16,44.79-50.81,85.91-46,31.2,3.61,59.65.16,84.13-21.18,2.06-1.79,4.68-2.93,7-4.44,29.75-19.39,60.08-21.5,91.16-3.15,1.84,1.09,4.15,1.39,6.83,2.25l8.1-29.18c-2.74-.9-4-1.55-5.32-1.71-94.26-11.2-182.41,6.72-264,55.6C138.25,257.89,62.25,428.31,95.84,587c44.73,211.3,244.35,348.93,458.25,315.94,194.31-30,336.8-190.62,341.83-386.12.54-20.84-2.14-41.76-3.39-63.82Z"/><path class="cls-2" d="M493,387.4c70.79.59,125.24,55.42,124.68,125.54-.55,68-57.36,121.93-127.76,121.28-68.43-.64-124.45-56.92-123.75-124.34C366.83,441.5,423.45,386.82,493,387.4Zm81.47,123c-.22-44.66-37.19-81-82.37-81-45.64,0-82.87,37.3-82.37,82.46.49,44.17,38.6,81.06,83.17,80.49C537.79,591.81,574.65,554.76,574.43,510.4Z"/><path class="cls-2" d="M1594.48,871.89c-71.72,0-143.45-.56-215.17.2-48,.51-79.4-31.4-83.87-74-7-67-17.48-133.67-27.1-200.39-.67-4.64-5.67-9.65-9.95-12.61-45.57-31.56-70.32-74.33-70.49-130.22-.2-64.2,40.29-121.06,101-144.13a44.35,44.35,0,0,0,19.49-15.65c46.51-68,108.69-114.39,187.75-137.5,11.79-3.45,17.37-7.77,19.1-21,4.88-37.1,36.21-64.42,73.83-66.94a80.78,80.78,0,0,1,82.4,56.87c.49,1.6,1.64,3.26,1.46,4.77-2.28,19,9.41,23.18,25,28,77.78,24,138.78,70.94,184,138.69a33.69,33.69,0,0,0,14.93,11.86c59.59,23.26,95.75,66,102.86,129.57,6.58,58.82-16.87,106.13-64.07,141.91-4.69,3.55-9.24,9.8-10.17,15.41-11.41,68.53-22.22,137.16-33,205.79-6.91,43.93-36.4,69.24-81.47,69.29Q1702.69,872,1594.48,871.89Zm366.74-416.43a114.7,114.7,0,0,0-84.07-110.78c-11.48-3.18-18.67-8.84-24.81-18.8-41.65-67.51-101.19-111.44-177.31-133.44-8.2-2.37-12.43-.91-17.73,5.74-32.36,40.63-95.08,40.43-126.64-.38-5-6.48-9.14-7.61-16.71-5.46q-115.8,32.87-179,135.1c-5.42,8.82-11.84,14-22,16.67-59.57,16-97.58,78-83.41,135.69,11.15,45.39,39.53,75.48,84.42,87.49,46,12.29,86.08-.67,118.83-35.11,21.77-22.9,50.88-23.51,72.73-.8,51.92,54,125.06,53.93,178,.4a59.2,59.2,0,0,1,21.69-14c21.17-7.4,37.81,1.05,52.63,16.66,34.2,36,85,46.78,130.34,28.5C1932.76,544.94,1961.28,503,1961.22,455.45ZM1754.55,755c0-5.86-.47-10.05.07-14.11,6-45.64,12-91.29,18.59-136.86,1-6.83-.24-10-6.15-14.06a444.13,444.13,0,0,1-39.45-30.79c-6.45-5.57-11-6.21-16.9.18-23.48,25.56-52.54,41.35-86.57,47.56-7.89,1.44-10.19,4.69-10.12,12.41.33,37.31.15,74.63.15,112v25.48h-38.74V742.56c0-40.67-.16-81.35.14-122,.06-7.73-1.11-11.88-10.12-13.47-34.49-6.09-64-22.05-87.59-48.14-5.92-6.54-10.38-5.54-16.81,0A450.07,450.07,0,0,1,1419.48,591c-6.31,4.22-8.45,8.13-7.45,15.09,3,21.13,5.85,42.29,8.71,63.45,3.79,28.12,7.54,56.24,11.42,85.29l-37.67,4.91c-1.11-2.55-1.88-3.64-2-4.81-6.09-45.64-12-91.29-18.33-136.9-.47-3.39-3.39-9.15-5.34-9.22-19.4-.69-38.83-.42-58.91-.42,8.4,62.75,16.41,125,25.2,187.15,4,28,15.55,37.08,44,37.08q215.1,0,430.2,0c3.77,0,7.56,0,11.3-.36A35.21,35.21,0,0,0,1852.33,803q15.24-94.16,30-188.39c.42-2.66-.36-5.5-.43-6.33h-69.7l-20.59,151.56ZM1635.83,148.45c-.41-21.91-19.52-40.1-42-39.95s-41.16,18.62-41,40.63c.14,22.61,19.68,41.41,42.35,40.73C1617.45,189.18,1636.24,170,1635.83,148.45Z"/><path class="cls-2" d="M1386.65,364.24l-34.11-19.06c34.89-60,84.52-100.16,149.86-124.18,2.51,6.25,4.91,11.83,7,17.53s3.94,11.76,6.27,18.77C1460.21,277.6,1417.12,312.46,1386.65,364.24Z"/></g><g id="Layer_3" data-name="Layer 3"><rect class="cls-3" y="870.28" width="3494" height="847.72"/></g><g id="Layer_4" data-name="Layer 4"><rect class="cls-4" y="1561.4" width="3494" height="156.6"/></g></g></svg>