
<svg xmlns="http://www.w3.org/2000/svg" version="1.1" xmlns:xlink="http://www.w3.org/1999/xlink" preserveAspectRatio="none" x="0px" y="0px" width="550px" height="400px" viewBox="0 0 550 400">
<defs>
<g id="Layer8_0_MEMBER_0_MEMBER_0_FILL">
<path fill="#603913" stroke="none" d="
M 2.6 1500.8
L 191.15 1553.9 758.1 1542.65 645.35 1500.8 2.6 1500.8 Z"/>
</g>

<g id="Layer8_0_MEMBER_0_MEMBER_1_FILL">
<path fill="#7C5235" stroke="none" d="
M 459.4 111.75
L 8.4 111.75 8.4 1502 459.4 1502 459.4 111.75 Z"/>
</g>

<g id="Layer8_0_MEMBER_0_MEMBER_2_FILL">
<path fill="#875837" stroke="none" d="
M 379.35 111.75
L 393.5 129.35 359.35 171.75 322.35 125.75 333.6 111.75 323.25 111.75 317.2 119.3 311.15 111.75 300.75 111.75 312 125.75 275 171.75 241 129.35 255.1 111.75 244.7 111.75 235.7 122.9 226.7 111.75 216.4 111.75 230.55 129.35 191.75 177.6 155.75 132.85 172.75 111.75 162.35 111.75 150.6 126.4 138.8 111.75 130.75 111.75 129.35 112.85 145.4 132.85 8.4 303.3 8.4 316.2 150.6 139.3 186.6 184.05 149.6 230.05 123.45 197.55 117.15 202.6 144.4 236.5 12.25 400.95 18.55 406 149.6 243 183.7 285.4 145.05 333.5 125.05 308.55 118.75 313.65 139.9 339.95 70.05 426.8 76.35 431.85 145.05 346.4 182.05 392.4 145.25 438.15 114.4 399.75 108.05 404.85 140.1 444.65 132.4 454.15 138.7 459.25 145.25 451.1 184.05 499.35 145.35 547.5 134.15 533.6 127.85 538.65 140.15 554 138.5 556.05 144.8 561.15 145.35 560.45 182.35 606.45 150.7 645.8 157 650.9 187.5 612.9 226.15 661 189.65 706.4 120.45 620.3 114.15 625.35 184.45 712.85 149.1 756.85 155.4 761.9 189.65 719.35 226.45 765.15 189.6 810.95 122 726.7 115.65 731.75 184.45 817.3 159.75 848 166.05 853.05 189.6 823.75 228.35 871.9 186.35 924.2 126.55 849.85 120.25 854.95 181.15 930.65 144.6 976.15 137.15 967 130.85 972.05 181.05 1034.5 153.7 1068.5 160 1073.55 186.25 1040.9 223.05 1086.7 185.05 1134 126.55 1061.2 120.25 1066.3 179.9 1140.45 152.15 1175 158.45 1180.05 185.05 1147 227.05 1199.3 189.35 1246.15 100.65 1135.75 94.35 1140.8 184.2 1252.6 149.9 1295.25 65.7 1190.5 59.4 1195.55 186.4 1353.65 151.8 1396.65 21.6 1234.6 15.3 1239.65 146.65 1403.1 136.95 1415.2 143.25 1420.25 151.85 1409.55 189.85 1456.9 153.6 1502 164 1502 195.05 1463.3 226.15 1502 236.55 1502 200.25 1456.85 234.85 1413.85 272.5 1460.75 239.35 1502 249.75 1502 277.75 1467.15 305.75 1502 316.1 1502 282.9 1460.7 317.2 1418.05 351.5 1460.7 318.35 1502 328.7 1502 356.7 1467.15 384.7 1502 395.1 1502 361.95 1460.7 399.6 1413.85 434.2 1456.85 397.85 1502 408.25 1502 439.35 1463.3 459.4 1490.1 459.4 1475.4 444.5 1456.85 459.4 1438.3 459.45 1425.4 439.35 1450.4 404.75 1407.4 442.75 1360.1 459.4 1380.8 459.4 1367.9 448 1353.65 459.45 1339.35 459.45 1326.45 442.8 1347.15 408.5 1304.5 445 1259 458.45 1275.75 459.35 1275.05 459.35 1264.05 450.15 1252.6 459.35 1241.1 459.35 1228.2 445 1246.1 407.3 1199.25 449.3 1146.95 453.85 1152.65 459.35 1148.25 459.35 1146.55 454.5 1140.5 459.35 1134.45 459.35 1121.5 449.35 1134 411.35 1086.65 448.2 1040.85 459.45 1055.75 459.45 1042.6 453.4 1034.4 459.45 1026.85 459.45 1014 448.2 1028 411.65 982.5 448.15 937.1 459.45 951.2 459.45 938.3 453.35 930.7 459.45 923.05 459.45 910.15 448.15 924.2 406.15 871.95 444.85 823.75 459.5 839.45 459.5 827 450 817.3 459.4 805.6 459.4 792.65 444.8 810.85 408 765.05 444.75 719.25 459.45 741.05 459.45 724.6 450 712.8 459.45 701 459.45 688.1 444.75 706.35 408.25 661 447 612.85 459.45 629.45 459.45 615.45 452.15 606.4 459.45 597.35 459.45 584.4 447 599.95 408.25 551.8 445.25 505.8 459.5 523.5 459.5 510.6 450.5 499.35 459.5 488.1 459.5 475.2 445.25 492.9 408.45 447.1 447.25 398.85 459.5 414.05 459.5 401.15 452.45 392.4 459.5 383.6 459.5 370.7 447.25 385.95 408.6 337.85 445.6 291.85 459.55 309.15 459.55 296.2 450.8 285.35 459.55 274.5 459.55 261.6 445.6 278.9 408.6 232.9 442.7 190.5 459.5 211.35 459.5 198.5 447.9 184.05 459.5 169.65 459.5 156.75 442.7 177.6 403.9 129.35 418 111.75 407.6 111.75 398.6 122.9 389.6 111.75 379.35 111.75
M 364.6 178.2
L 398.65 135.8 437.45 184.05 403.35 226.5 364.6 178.2
M 366.4 285.4
L 403.4 239.4 440.4 285.4 403.4 331.4 366.4 285.4
M 398.2 232.95
L 361.2 278.95 322.4 230.65 359.4 184.65 398.2 232.95
M 398.15 337.85
L 359.35 386.1 322.35 340.1 361.15 291.85 398.15 337.85
M 364.6 392.55
L 403.4 344.3 442.05 392.4 403.25 440.65 364.6 392.55
M 197 184.05
L 235.75 135.8 269.85 178.2 231.05 226.5 197 184.05
M 280.2 178.2
L 317.2 132.2 354.2 178.2 317.2 224.2 280.2 178.2
M 278.35 285.4
L 317.15 237.1 356 285.4 317.15 333.65 278.35 285.4
M 312 230.7
L 273.2 279 236.2 233 275 184.7 312 230.7
M 194.05 285.4
L 231.05 239.4 268.05 285.4 231.05 331.4 194.05 285.4
M 225.9 232.9
L 188.9 278.9 154.8 236.5 191.8 190.5 225.9 232.9
M 192.35 392.4
L 231.05 344.3 269.85 392.55 231.15 440.65 192.35 392.4
M 225.9 337.8
L 187.25 385.9 150.25 339.9 188.9 291.8 225.9 337.8
M 280.2 392.55
L 317.2 346.55 354.2 392.55 317.2 438.55 280.2 392.55
M 312 340.15
L 275 386.15 236.15 337.85 273.2 291.85 312 340.15
M 275.05 399
L 312 445 273.3 493.1 236.3 447.1 275.05 399
M 226 447.1
L 189.2 492.9 150.4 444.65 187.2 398.85 226 447.1
M 231.3 545.35
L 194.3 499.35 231.1 453.55 268.1 499.55 231.3 545.35
M 189.25 505.85
L 226.25 551.85 187.5 600 150.5 554 189.25 505.85
M 317.2 547.65
L 278.55 499.55 317.2 451.45 355.85 499.55 317.2 547.65
M 273.3 506
L 312 554.1 275.2 599.9 236.5 551.8 273.3 506
M 317.2 652.15
L 280.4 606.35 317.2 560.55 354 606.35 317.2 652.15
M 275.2 612.85
L 312 658.6 273.25 706.75 236.5 661 275.2 612.85
M 231.3 654.5
L 192.65 606.4 231.35 558.25 270 606.35 231.3 654.5
M 231.6 758.6
L 194.8 712.85 231.3 667.4 268.1 713.2 231.6 758.6
M 317.2 761.35
L 278.5 713.2 317.2 665 355.9 713.2 317.2 761.35
M 273.25 719.65
L 312 767.8 275.5 813.2 236.8 765.05 273.25 719.65
M 398 447.1
L 361 493.1 322.35 444.95 359.35 398.95 398 447.1
M 361.05 506
L 397.85 551.8 359.2 599.9 322.35 554.05 361.05 506
M 403.05 545.4
L 366.25 499.6 403.25 453.6 440.05 499.4 403.05 545.4
M 359.15 612.75
L 397.9 661 361.1 706.8 322.35 658.55 359.15 612.75
M 403.15 654.5
L 364.45 606.35 403.1 558.25 441.8 606.4 403.15 654.5
M 361.05 719.6
L 397.55 765 358.85 813.15 322.35 767.75 361.05 719.6
M 402.75 758.6
L 366.3 713.2 403.1 667.4 439.65 712.8 402.75 758.6
M 358.85 826.05
L 395.7 871.9 359.2 917.3 322.35 871.45 358.85 826.05
M 400.95 865.5
L 364.1 819.65 402.8 771.5 439.65 817.3 400.95 865.5
M 359.2 930.2
L 401.2 982.5 364.35 1028.3 322.35 976 359.2 930.2
M 443 930.7
L 406.5 976.1 364.5 923.8 401 878.4 443 930.7
M 442.95 1034.45
L 406.1 1080.3 369.55 1034.8 406.45 989 442.95 1034.45
M 364.35 1041.25
L 401 1086.75 359 1139 322.35 1093.5 364.35 1041.25
M 406.15 1093.15
L 444.15 1140.45 402.15 1192.75 364.15 1145.45 406.15 1093.15
M 317.2 865.05
L 280.7 819.65 317.2 774.25 353.65 819.65 317.2 865.05
M 275.5 826.1
L 312 871.5 275.15 917.3 238.65 871.9 275.5 826.1
M 233.55 865.5
L 194.8 817.35 231.65 771.55 270.35 819.7 233.55 865.5
M 228 976.05
L 191.5 930.65 233.55 878.4 270 923.8 228 976.05
M 186.3 937.15
L 222.8 982.55 186.25 1028 149.75 982.6 186.3 937.15
M 317.2 969.6
L 280.35 923.8 317.2 878 354 923.8 317.2 969.6
M 275.15 930.25
L 312 976.05 270 1028.35 233.15 982.5 275.15 930.25
M 317.2 1087.05
L 275.2 1034.8 317.2 982.5 359.2 1034.8 317.2 1087.05
M 228.25 1080.25
L 191.45 1034.45 228 989 264.8 1034.8 228.25 1080.25
M 190.25 1140.45
L 228.25 1093.15 270.25 1145.4 232.25 1192.75 190.25 1140.45
M 280.65 1145.5
L 317.2 1100 353.7 1145.45 317.2 1191 280.65 1145.5
M 312 1093.55
L 275.5 1139 233.5 1086.7 270 1041.25 312 1093.55
M 312 1197.4
L 274 1244.7 237.4 1199.25 275.45 1151.9 312 1197.4
M 279.15 1251.15
L 317.15 1203.85 355.15 1251.15 317.15 1298.45 279.15 1251.15
M 194.55 1252.5
L 232.25 1205.65 268.8 1251.1 231.1 1298 194.55 1252.5
M 226 1304.5
L 191.65 1347.15 155.05 1301.65 189.35 1258.95 226 1304.5
M 196.8 1353.55
L 231.1 1310.9 269.1 1358.2 234.8 1400.85 196.8 1353.55
M 312 1304.9
L 274.3 1351.8 236.3 1304.5 274 1257.6 312 1304.9
M 279.5 1358.2
L 317.2 1311.3 354.85 1358.2 317.2 1405.1 279.5 1358.2
M 312 1411.6
L 277.7 1454.2 240.05 1407.3 274.35 1364.65 312 1411.6
M 229.65 1407.35
L 195.05 1450.35 157.05 1403.05 191.65 1360.05 229.65 1407.35
M 365.6 1251.15
L 402.15 1205.7 439.85 1252.6 403.3 1298.05 365.6 1251.15
M 396.9 1199.2
L 360.35 1244.7 322.35 1197.35 358.9 1151.9 396.9 1199.2
M 398.05 1304.5
L 360.05 1351.8 322.35 1304.9 360.35 1257.6 398.05 1304.5
M 365.25 1358.2
L 403.25 1310.9 437.55 1353.55 399.55 1400.85 365.25 1358.2
M 394.35 1407.3
L 356.7 1454.2 322.4 1411.55 360.05 1364.65 394.35 1407.3 Z"/>
</g>

<g id="Layer8_0_MEMBER_0_MEMBER_3_FILL">
<path fill="#1B120E" stroke="none" d="
M 470.9 988.45
Q 463.85 972.3 446.15 966.6 397.25 950.85 357.3 952.25 327.15 953.3 299 964.6 290.15 968.15 277.95 974.3 264.3 981.1 260.55 982.75 251.75 986.6 245.4 987.45 237.8 988.45 231.15 985.7 205.8 975.25 192.55 970.75 170.5 963.2 155.75 961.9 117.5 958.5 118.45 996.25 118.75 1008 118.5 1108.85 118.2 1207.35 119.9 1264.65 121.8 1329.65 120.25 1389 119.8 1407 117.15 1464.9 115.8 1494.2 117.55 1502.85 118.65 1508.4 121.25 1510.85 123.8 1513.2 128.5 1513.2 135.9 1513.2 144.05 1514.25 148.75 1514.9 157.6 1516.25 174 1518.55 190.5 1515.85 237.2 1508.25 354.7 1506.45 410.55 1505.65 426.7 1504.9 457.9 1503.55 462.3 1500.05 468.75 1494.95 471.7 1386.8 473.9 1305.9 473.4 1216.25 473.15 1169.3 475.65 1108 478 1049.6 477.75 1033.85 477.3 1003.05 470.9 988.45 Z"/>
</g>

<g id="Layer8_0_MEMBER_0_MEMBER_4_FILL">
<path fill="#A97C50" stroke="none" d="
M 192.35 0
L 5.25 111.75 5.25 1506.1 191.15 1553.9 192.35 0 Z"/>
</g>

<g id="Layer8_0_MEMBER_0_MEMBER_5_FILL">
<path fill="#875837" stroke="none" d="
M 754.5 1542.15
L 734.1 2.65 459.45 111.75 458.75 1502.8 754.5 1542.15 Z"/>
</g>

<g id="Layer8_0_MEMBER_0_MEMBER_6_FILL">
<path fill="#8F5D3A" stroke="none" d="
M 472.9 106.4
L 459.45 111.75 459.4 123.15 472.9 106.4 Z"/>
</g>

<g id="Layer8_0_MEMBER_0_MEMBER_7_FILL">
<path fill="#8F5D3A" stroke="none" d="
M 730.5 91.1
L 735.35 97.15 735.05 72.45 730.45 78.15 693.45 32.15 705.25 17.5 702.45 15.25 694 18.6 688.25 25.7 685.35 22 677.5 25.1 683.1 32.1 647.1 76.9 623 46.8 615.1 49.9 642 83.35 607.9 125.8 573.75 83.35 593.85 58.35 578.6 64.4 568.6 76.9 563.45 70.45 555.55 73.6 563.4 83.35 526.4 129.35 499.45 95.85 491.55 99 521.2 135.85 482.4 184.1 459.4 155.5 459.4 168.4 477.2 190.55 459.35 212.75 459.35 225.65 482.35 197 516.45 239.45 479.45 285.45 459.25 260.3 459.25 273.2 474.25 291.9 459.25 310.6 459.25 323.5 479.5 298.35 516.5 344.35 477.85 392.45 459.3 369.35 459.3 382.25 472.65 398.9 459.25 415.55 459.25 428.45 477.85 405.35 516.65 453.6 479.85 499.4 459.25 473.75 459.25 486.65 474.7 505.85 459.25 525.05 459.25 538 479.9 512.3 516.9 558.3 478.15 606.45 459.25 582.95 459.25 595.85 473 612.9 459.2 630 459.2 642.9 478.1 619.35 516.75 667.45 480.25 712.85 459.15 686.55 459.15 699.45 475.1 719.3 459.1 739.15 459.1 752.1 480.25 725.75 517.05 771.55 480.2 817.35 459.05 791.05 459.05 804 475.05 823.85 459.05 843.75 459.05 856.65 480.25 830.3 519 878.4 477 930.7 459.1 908.45 459.1 921.35 471.8 937.15 459 953 459 965.9 476.9 943.65 513.4 989 476.85 1034.45 459 1012.25 459 1025.15 471.7 1041 459 1056.75 459 1069.65 476.85 1047.4 513.7 1093.2 475.7 1140.55 459 1119.7 459 1132.6 470.5 1147 458.95 1161.35 458.95 1174.3 475.7 1153.45 517.7 1205.75 480 1252.6 458.85 1226.3 458.85 1239.2 474.8 1259.05 458.8 1278.9 458.8 1291.85 480 1265.5 516.55 1311 482.25 1353.65 458.85 1324.5 458.85 1337.4 477.1 1360.1 458.85 1382.85 458.85 1395.75 482.3 1366.55 520.3 1413.9 485.7 1456.9 458.8 1423.4 458.8 1436.3 480.5 1463.3 458.75 1490.35 458.75 1502.75 459.15 1502.8 485.75 1469.8 518.65 1510.8 536.65 1513.2 568.4 1473.7 602.7 1516.35 598.6 1521.45 619.35 1524.2 613.05 1516.35 647.35 1473.7 681.95 1516.7 670.45 1531 679.8 1532.25 687.1 1523.15 696.1 1534.4 707.7 1535.95 692.25 1516.7 730 1469.8 749.15 1493.65 753.8 1489.95 753.8 1486.5 735.2 1463.35 753.2 1441 753.05 1428.3 730.05 1456.9 695.45 1413.9 733.45 1366.6 752.5 1390.35 752.35 1377.2 738.65 1360.15 751.9 1343.65 751.75 1330.95 733.45 1353.7 699.1 1311 735.65 1265.5 749.15 1282.3 751 1280.8 750.9 1271.6 740.85 1259.05 750.55 1247 750.4 1234.3 735.65 1252.65 698 1205.75 740 1153.45 744.55 1159.1 749.35 1155.25 749.35 1152.1 745.2 1146.95 749.2 1141.95 749.05 1129.25 740.05 1140.5 702.05 1093.2 738.85 1047.35 743.1 1052.65 748 1048.7 748 1045.8 744 1041 747.75 1036.25 747.6 1023.55 738.8 1034.55 702.25 989 738.75 943.6 746.7 953.45 746.5 940.35 744 937.15 746.5 934.05 746.3 921.35 738.8 930.7 696.8 878.4 735.5 830.25 737 832.2 743.25 827.1 740.6 823.8 744.9 818.45 744.75 805.75 735.4 817.35 698.6 771.55 735.4 725.75 743.8 736.2 743.65 723.1 740.55 719.3 743.55 715.6 743.4 702.9 735.4 712.85 698.9 667.4 737.55 619.35 742.35 625.25 742.05 600.85 737.6 606.4 698.85 558.25 735.85 512.25 741 518.6 740.65 493.4 735.85 499.4 699 453.6 737.75 405.35 739.45 407.4 739.2 390.65 737.8 392.4 699.1 344.3 736.1 298.3 738.05 300.7 737.8 283.3 736.1 285.4 699.1 239.4 733.25 197 736.75 201.3 736.45 180.1 733.25 184.1 694.5 135.85 730.5 91.1
M 688.3 38.65
L 725.3 84.65 689.3 129.45 652.3 83.45 688.3 38.65
M 684.15 135.8
L 650 178.25 613 132.25 647.15 89.8 684.15 135.8
M 689.25 142.3
L 728.1 190.6 694 233 655.2 184.7 689.25 142.3
M 688.8 239.45
L 651.8 285.45 613 237.15 650 191.15 688.8 239.45
M 656.95 291.9
L 693.95 245.9 730.95 291.9 693.95 337.9 656.95 291.9
M 688.8 344.35
L 650 392.6 613 346.6 651.8 298.35 688.8 344.35
M 650 405.45
L 688.7 453.55 651.7 499.55 613 451.45 650 405.45
M 693.85 447.2
L 655.2 399.1 694 350.8 732.65 398.9 693.85 447.2
M 651.7 512.5
L 688.5 558.25 649.8 606.35 613 560.6 651.7 512.5
M 693.65 551.9
L 656.9 506 693.9 460 730.65 505.9 693.65 551.9
M 649.8 619.25
L 688.55 667.4 651.75 713.2 613 665.05 649.8 619.25
M 693.75 661
L 655 612.85 693.65 564.75 732.4 612.9 693.75 661
M 651.75 726.1
L 688.25 771.5 649.5 819.7 613 774.25 651.75 726.1
M 693.45 765.1
L 656.95 719.7 693.75 673.9 730.25 719.35 693.45 765.1
M 565.65 178.25
L 531.55 135.85 568.55 89.8 602.65 132.25 565.65 178.25
M 526.35 142.3
L 560.45 184.7 521.7 233 487.55 190.55 526.35 142.3
M 607.8 138.7
L 644.8 184.7 607.8 230.7 570.8 184.7 607.8 138.7
M 607.85 243.6
L 646.65 291.9 607.85 340.15 569.05 291.9 607.85 243.6
M 563.85 285.45
L 526.85 239.45 565.65 191.15 602.65 237.15 563.85 285.45
M 521.7 245.85
L 558.7 291.85 521.7 337.85 484.7 291.85 521.7 245.85
M 526.85 344.35
L 563.85 298.35 602.65 346.6 565.65 392.6 526.85 344.35
M 644.9 399
L 607.9 445 570.9 399 607.9 353 644.9 399
M 527 453.6
L 565.65 405.5 602.65 451.45 564 499.6 527 453.6
M 560.5 399
L 521.8 447.1 483 398.85 521.7 350.75 560.5 399
M 527.2 558.3
L 564 512.5 602.65 560.6 565.85 606.4 527.2 558.3
M 558.8 506.05
L 522 551.8 485 505.85 521.8 460.05 558.8 506.05
M 607.85 554.1
L 569.2 506 607.85 457.9 646.5 506 607.85 554.1
M 607.85 658.65
L 571.05 612.85 607.85 567.1 644.65 612.85 607.85 658.65
M 527.2 667.45
L 565.9 619.3 602.65 665.05 564 713.25 527.2 667.45
M 560.65 612.85
L 522 661 483.25 612.85 522 564.75 560.65 612.85
M 527.45 771.55
L 564 726.15 602.65 774.3 566.15 819.7 527.45 771.55
M 558.75 719.7
L 522.3 765.1 485.45 719.25 522 673.9 558.75 719.7
M 607.85 767.9
L 569.15 719.7 607.85 671.55 646.55 719.7 607.85 767.9
M 607.85 871.6
L 571.35 826.2 607.85 780.8 644.35 826.2 607.85 871.6
M 529.3 878.4
L 566.15 832.6 602.65 878 565.8 923.8 529.3 878.4
M 561 826.15
L 524.15 872 485.45 823.8 522.25 778 561 826.15
M 523.8 989
L 565.8 936.7 602.65 982.55 560.65 1034.85 523.8 989
M 560.6 930.25
L 518.6 982.55 482.1 937.15 524.1 884.85 560.6 930.25
M 607.85 976.1
L 571 930.3 607.85 884.5 644.65 930.3 607.85 976.1
M 555.45 1041.35
L 518.9 1086.8 482.05 1041 518.6 995.5 555.45 1041.35
M 566.1 1145.5
L 524.1 1093.2 560.65 1047.75 602.65 1100 566.1 1145.5
M 518.85 1099.65
L 560.85 1151.95 522.85 1199.3 480.85 1147 518.85 1099.65
M 607.85 1106.5
L 644.4 1152 607.85 1197.45 571.3 1152 607.85 1106.5
M 607.8 1093.6
L 565.8 1041.3 607.8 989 649.8 1041.3 607.8 1093.6
M 607.85 1210.35
L 645.85 1257.65 607.85 1305 569.85 1257.65 607.85 1210.35
M 564.65 1251.2
L 528.1 1205.7 566.1 1158.4 602.65 1203.85 564.65 1251.2
M 522.9 1212.2
L 559.45 1257.65 521.75 1304.55 485.2 1259.1 522.9 1212.2
M 565 1358.3
L 527 1311 564.65 1264.1 602.65 1311.4 565 1358.3
M 521.75 1317.45
L 559.75 1364.75 525.45 1407.45 487.45 1360.15 521.75 1317.45
M 570.15 1364.7
L 607.85 1317.85 645.5 1364.7 607.85 1411.6 570.15 1364.7
M 602.65 1418.1
L 568.35 1460.8 530.7 1413.9 565 1371.25 602.65 1418.1
M 607.85 1424.55
L 642.15 1467.25 607.85 1509.9 573.55 1467.25 607.85 1424.55
M 647.35 1460.75
L 613.05 1418.1 650.7 1371.2 685 1413.9 647.35 1460.75
M 525.5 1420.4
L 563.15 1467.25 528.6 1510.25 490.9 1463.4 525.5 1420.4
M 649.5 832.55
L 686.35 878.4 649.85 923.8 613 877.95 649.5 832.55
M 691.55 872
L 654.7 826.15 693.4 778 730.25 823.85 691.55 872
M 649.85 936.7
L 691.85 989 655 1034.8 613 982.5 649.85 936.7
M 697.1 982.6
L 655.1 930.3 691.55 884.9 733.55 937.2 697.1 982.6
M 660.25 1041.35
L 697.1 995.5 733.65 1041 696.8 1086.8 660.25 1041.35
M 691.55 1093.2
L 649.55 1145.5 613 1100 655 1047.75 691.55 1093.2
M 654.8 1151.95
L 696.8 1099.65 734.8 1147 692.8 1199.3 654.8 1151.95
M 687.55 1205.7
L 651 1251.2 613 1203.85 649.55 1158.4 687.55 1205.7
M 656.25 1257.65
L 692.8 1212.2 730.5 1259.1 693.95 1304.55 656.25 1257.65
M 688.75 1311
L 650.75 1358.3 613 1311.4 651 1264.1 688.75 1311
M 693.95 1317.45
L 728.25 1360.15 690.25 1407.45 655.95 1364.75 693.95 1317.45
M 690.2 1420.35
L 724.8 1463.35 687.1 1510.25 652.5 1467.25 690.2 1420.35 Z"/>
</g>

<g id="Layer8_0_MEMBER_0_MEMBER_8_FILL">
<path fill="#C49A6C" stroke="none" d="
M 805.75 0.05
L 733.2 0.05 733.2 1543.2 805.75 1543.2 805.75 0.05 Z"/>
</g>

<g id="Layer8_0_MEMBER_0_MEMBER_9_FILL">
<path fill="#F2DBBB" stroke="none" d="
M 780.15 0.1
L 767.35 0.1 767.35 1543.05 780.15 1543.05 780.15 0.1 Z"/>
</g>

<g id="Layer8_0_MEMBER_0_MEMBER_10_FILL">
<path fill="#3C2415" stroke="none" d="
M 591 980.4
Q 588.5 981.15 573.2 986.8 562.5 990.7 554.8 992.2 544 994.3 532.95 993.3 506.05 990.85 468.1 968.95 458.8 963.55 455.3 977.75 452.25 990.15 452.5 1024.5 452.55 1034.3 454.4 1106 456 1169.05 455.75 1218.95 455.5 1261.2 452.35 1389.15 450.75 1496.9 457.05 1501.3 465.05 1506.9 571.2 1521.55 586.9 1523.7 661.9 1533.75 716.35 1541 742.05 1544.85 757.75 1547.25 772.85 1546.35 798.7 1544.85 801.45 1544.85 810.2 1544.85 812.3 1530.15 813.95 1518.35 812.4 1482.5 809.45 1413.7 809 1396.75 807.35 1332.8 809.25 1267.55 810.9 1210.1 810.65 1111.15 810.4 1010.05 810.7 998.05 811.2 978.35 793.4 974.35 779.9 971.35 751.6 977.35 718.65 985.45 703.7 988.5 677.9 993.7 668.1 989.3 635.55 974.6 610.95 976.45 601.45 977.15 591 980.4 Z"/>
</g>

<g id="Layer8_0_MEMBER_0_MEMBER_11_FILL">
<path fill="#26160E" stroke="none" d="
M 591.55 979.2
Q 588.2 980.15 574 985.1 563.25 988.8 555.7 990.25 544.95 992.25 533.8 991.4 506.7 989.3 468.1 968.95 462.8 966.15 459.9 966.95 457.1 967.7 455.7 972.1 454.55 975.85 453.85 984.2 453.4 989.35 452.55 1002.95
L 451.55 1102.95
Q 451.8 1113.25 454 1157.05 455.8 1193.3 455.65 1219 455.6 1241.4 454.4 1293
L 454.4 1493.3
Q 455.5 1500.2 457.05 1501.3 464.9 1506.75 565.35 1520.7 621.25 1528.45 732.8 1543.45
L 732.8 981.7
Q 705.1 988.5 695.3 990.05 676.4 993.1 668.1 989.35 635.45 974.6 611.2 975.8 601.8 976.3 591.55 979.2 Z"/>
</g>

<g id="Layer8_0_MEMBER_0_MEMBER_12_FILL">
<path fill="#C49A6C" stroke="none" d="
M 737.45 121.6
L 737.45 0.05 280.6 0.05 280.6 121.6 737.45 121.6 Z"/>
</g>

<g id="Layer8_0_MEMBER_0_MEMBER_13_FILL">
<path fill="#603913" stroke="none" d="
M 733.35 98.55
L 733.35 17.6 289.8 17.6 289.8 98.55 733.35 98.55 Z"/>
</g>

<g id="Layer8_0_MEMBER_0_MEMBER_14_FILL">
<path fill="#FFFFFF" stroke="none" d="
M 350.2 35.5
Q 348.65 34.25 346.6 34.4
L 316.6 34.4
Q 314.65 34.25 313.1 35.4 311.75 36.5 311.85 38.25 311.75 40 313 41.1 314.55 42.35 316.55 42.2
L 326.85 42.2 326.85 76.05
Q 326.7 78.55 328.2 80.35 329.55 81.9 331.6 81.8 333.55 81.9 335 80.4 336.5 78.45 336.25 76.05
L 336.25 42.2 346.55 42.2
Q 348.5 42.35 350.2 41.15 351.5 39.95 351.4 38.3 351.5 36.6 350.2 35.5 Z"/>
</g>

<g id="Layer8_0_MEMBER_0_MEMBER_15_FILL">
<path fill="#FFFFFF" stroke="none" d="
M 391.1 35.4
Q 389.65 34.25 387.75 34.4
L 362.85 34.4
Q 361.15 34.35 359.55 35 358.2 35.55 357.65 36.9 357 38.5 357.05 40.2
L 357.05 75.2
Q 356.8 77.7 358.4 79.6 359.75 81 362.85 81
L 388.5 81
Q 390.3 81.15 391.85 80 393 78.95 393 77.3 393 75.6 391.85 74.55 390.4 73.35 388.5 73.5
L 366.5 73.5 366.5 60.25 386.05 60.25
Q 387.85 60.4 389.3 59.25 390.4 58.15 390.3 56.65 390.4 55.15 389.25 54.1 387.85 52.95 386 53.1
L 366.5 53.1 366.5 41.7 387.75 41.7
Q 389.65 41.8 391.1 40.7 392.3 39.6 392.2 38.05 392.3 36.45 391.1 35.4 Z"/>
</g>

<g id="Layer8_0_MEMBER_0_MEMBER_16_FILL">
<path fill="#FFFFFF" stroke="none" d="
M 408.4 35
Q 407 33.5 405 33.6 402.95 33.5 401.55 35 400.1 36.85 400.25 39.3
L 400.25 75.2
Q 400.1 77.75 401.6 79.65 403.05 81 406.05 81
L 428.85 81
Q 430.8 81.15 432.4 79.95 433.7 78.85 433.6 77.15 433.6 75.45 432.35 74.35 430.85 73.1 428.85 73.25
L 409.7 73.25 409.7 39.35
Q 409.95 36.95 408.4 35 Z"/>
</g>

<g id="Layer8_0_MEMBER_0_MEMBER_17_FILL">
<path fill="#FFFFFF" stroke="none" d="
M 470.5 34.35
L 445.6 34.35
Q 443.9 34.35 442.3 34.95 440.9 35.6 440.4 36.85 439.75 38.45 439.8 40.15
L 439.8 75.15
Q 439.55 77.6 441.15 79.6 442.55 81 445.6 81
L 471.25 81
Q 473.05 81.15 474.6 80 475.8 78.9 475.7 77.3 475.8 75.65 474.6 74.55 473.1 73.35 471.25 73.5
L 449.25 73.5 449.25 60.25 468.8 60.25
Q 470.6 60.4 472.05 59.25 473.15 58.15 473.05 56.65 473.15 55.15 472 54.1 470.6 52.95 468.75 53.1
L 449.25 53.1 449.25 41.7 470.5 41.7
Q 472.4 41.8 473.85 40.7 475 39.65 475 38 475 36.4 473.85 35.35 472.3 34.2 470.5 34.35 Z"/>
</g>

<g id="Layer8_0_MEMBER_0_MEMBER_18_FILL">
<path fill="#FFFFFF" stroke="none" d="
M 517.65 42.4
Q 516.7 39.8 514.5 37.85 512.4 35.95 509.55 35.2 505.3 34.25 501.3 34.4
L 489.2 34.4
Q 486.65 34.15 484.65 35.7 483.2 37.1 483.2 40.15
L 483.2 76.1
Q 483.05 78.5 484.5 80.35 485.85 81.75 487.8 81.8 489.75 81.85 491.15 80.5
L 491.3 80.35
Q 492.8 78.55 492.65 76.05
L 492.65 62.85 501.3 62.85
Q 509.95 62.85 514.35 59.2 518.75 55.55 518.75 48.4 518.85 45.35 517.65 42.4
M 507.35 43.55
Q 509.25 45.65 509.15 48.55 509.25 50.85 508 52.75 506.65 54.4 504.6 55 501.8 55.8 499 55.7
L 492.65 55.7 492.65 41.5 499 41.5
Q 505.3 41.5 507.35 43.55 Z"/>
</g>

<g id="Layer8_0_MEMBER_0_MEMBER_19_FILL">
<path fill="#FFFFFF" stroke="none" d="
M 564.65 35
Q 563.25 33.5 561.2 33.6 559.15 33.5 557.8 35 556.35 36.85 556.5 39.3
L 556.5 52.7 536.15 52.7 536.15 39.35
Q 536.4 36.9 534.8 35 533.4 33.45 531.35 33.6 529.4 33.45 528 35 526.55 36.85 526.7 39.3
L 526.7 76.05
Q 526.55 78.45 528 80.35 529.35 81.9 531.4 81.8 533.35 81.9 534.8 80.35 536.3 78.55 536.15 76.05
L 536.15 60.35 556.5 60.35 556.5 76.05
Q 556.35 78.45 557.8 80.35 559.15 81.9 561.2 81.8 563.25 81.9 564.6 80.35 566.15 78.5 566 76.05
L 566 39.35
Q 566.15 36.8 564.65 35 Z"/>
</g>

<g id="Layer8_0_MEMBER_0_MEMBER_20_FILL">
<path fill="#FFFFFF" stroke="none" d="
M 616.9 44.8
Q 614.15 39.35 609.05 36.55 603.15 33.4 596.6 33.6 591.65 33.55 587.05 35.25 582.95 36.85 580 40.1 577 43.35 575.5 47.7 573.95 52.5 574 57.55 573.95 62.5 575.45 67.35 576.8 71.55 579.8 75.05 582.85 78.35 587 80 591.75 81.75 596.75 81.75 601.8 81.75 606.5 80 610.8 78.3 613.7 75 616.75 71.6 618.1 67.35 619.65 62.45 619.55 57.5 619.7 50.8 616.9 44.8
M 596.6 41.1
Q 600.35 41.05 603.6 43.05 606.85 45.15 608.3 48.7 610.1 52.85 610 57.55 610.15 62.4 608.25 66.9 606.6 70.5 603.4 72.45 600.7 74.05 597.55 74.25 594.45 74.45 591.55 73.25 589.15 72.15 587.35 70.05 585.3 67.6 584.5 64.75 583.45 61.15 583.5 57.55 583.45 54 584.5 50.45 585.3 47.65 587.25 45.25 589 43.2 591.35 42.15 593.85 41.1 596.6 41.1 Z"/>
</g>

<g id="Layer8_0_MEMBER_0_MEMBER_21_FILL">
<path fill="#FFFFFF" stroke="none" d="
M 665.65 35
Q 664.4 33.5 662.4 33.6 660.45 33.5 659.3 35 657.95 36.85 658.1 39
L 658.1 66.75 638.5 37
Q 638 36.2 637.1 35.2 635.55 33.55 633.3 33.65 631.65 33.65 630.3 34.55 629.05 35.3 628.3 36.9 627.75 38.75 627.8 40.5
L 627.8 76.5
Q 627.65 78.65 629 80.5 630.25 81.95 632.25 81.85 634.15 81.95 635.4 80.5 636.8 78.7 636.65 76.5
L 636.65 49.1 655.9 78.4
Q 656.55 79.4 657.55 80.25 658.35 81 659.45 81.45 660.5 81.8 661.75 81.8 666.85 81.8 666.85 75.65
L 666.85 39
Q 666.95 36.75 665.65 35 Z"/>
</g>

<g id="Layer8_0_MEMBER_0_MEMBER_22_FILL">
<path fill="#FFFFFF" stroke="none" d="
M 711.2 35.4
Q 709.75 34.25 707.85 34.4
L 682.9 34.4
Q 681.15 34.3 679.65 35 678.3 35.55 677.75 36.9 677.1 38.5 677.15 40.2
L 677.15 75.2
Q 676.9 77.8 678.5 79.6 679.85 81 682.9 81
L 708.55 81
Q 710.45 81.15 711.9 80 713.15 78.9 713.05 77.3 713.15 75.65 711.95 74.55 710.4 73.4 708.6 73.55
L 686.6 73.55 686.6 60.25 706.15 60.25
Q 707.9 60.4 709.4 59.25 710.5 58.15 710.4 56.65 710.5 55.15 709.35 54.1 707.9 52.95 706.1 53.1
L 686.55 53.1 686.55 41.7 707.85 41.7
Q 709.75 41.8 711.2 40.7 712.4 39.6 712.3 38.05 712.4 36.45 711.2 35.4 Z"/>
</g>

<g id="Layer8_0_MEMBER_0_MEMBER_23_FILL">
<path fill="#C49A6C" stroke="none" d="
M 192.3 25.1
L 192.3 12.45 149.1 64.45 127.7 38.6 120.8 42.75 144.1 70.6 107.9 114.25 74.75 74.3 81.5 66.2 61.6 78.1 24.45 122.85 11.9 107.75 5.25 111.75 5.25 112.5 19.25 129.2 5.25 146 5.25 157.5 24.05 135 57.5 175 26.6 212.2 5.25 186.65 5.25 198.25 21.75 218 5.3 237.9 5.3 249.1 26.5 223.7 61.85 266 27.7 307.2 5.25 280.2 5.25 292.8 22.5 313.45 5.3 334.2 5.3 345.35 27.2 319.1 62.05 360.8 32.3 396.8 5.25 364 5.25 376.7 27.05 403.05 5.25 429.4 5.25 444.4 33.1 410.4 68 452.55 26.7 502 5.25 476.4 5.25 488.85 21.55 508.15 5.25 527.65 5.25 542.4 27.65 515.4 59.65 553.4 29.65 589.2 5.25 559.65 5.25 572.45 24.35 595.6 5.25 618.45 5.25 631.65 29.8 602.2 60.25 639.05 31 674.1 5.25 643 5.25 655.65 25.75 680.35 5.25 704.95 5.25 718.15 31.25 686.9 65.45 727.9 34.8 764.6 5.25 729.25 5.25 742.1 29.35 771.2 5.25 800.1 5.25 813.3 34.8 777.8 68.35 818.25 34.05 859.35 5.25 824.65 5.25 837.25 28.9 865.55 5.25 893.85 5.25 907.05 34.4 872.05 69.75 914.4 40.5 949.5 5.25 907.05 5.25 919.45 35.45 955.55 11 984.8 8.7 1000.8 40.9 962.2 70.55 997.65 27 1049.85 24.7 1065.85 76.05 1004.2 106.75 1040.95 55.5 1102.35 53.25 1118.35 112.25 1047.55 160.25 1105 159.55 1093 117 1041.7 146.5 1006.3 181.6 1048.3 180.9 1036.3 151.25 1000.5 185.4 959.5 191.6 967 191.6 952.4 191.5 952.25 191.6 952.1 191.65 939.2 186.15 945.8 155.35 909 185.8 872.45 191.7 879.5 191.7 868.15 190.5 866.75 191.7 865.3 191.7 852.45 185.15 860.3 155.55 824.5 184.55 789.7 191.75 798.45 191.75 785.55 189.9 783.3 191.75 781 191.75 768.2 184.55 776.85 149.3 734.1 180.4 696.75 191.8 710.25 191.8 699.25 185 691.15 191.8 683 191.8 670.25 179.65 684.8 145.85 644.45 186.5 595.65 191.85 602.1 191.85 589.9 191.55 589.55 191.85 589.15 191.85 576.4 186.25 583.15 152.1 541.8 182.6 505.15 192 516.3 192 505.15 187.3 499.55 192 493.95 192 481.15 182 493.15 151.35 456.25 186 414.6 192 421.85 192 410.65 190.65 409 192.05 407.35 192.05 394.6 185.35 402.6 153.1 363.95 184.1 326.5 192.1 336.1 192.1 324.9 188.7 320.9 192.1 316.85 192.1 303.9 183.35 314.4 147.35 271 187.55 221.9 192.15 227.4 192.15 203.4 187 209.65 153 168.55 189.45 124.9 192.25 128.25 192.25 108.85 189.1 112.65 154.3 70.65 192.3 25.1
M 62.6 168.85
L 29.3 128.7 69.5 80.6 102.8 120.4 62.6 168.85
M 147.9 162.35
L 112.9 120.25 149.25 76.75 184.25 118.55 147.9 162.35
M 107.75 126.4
L 142.9 168.35 102.55 217 67.4 174.65 107.75 126.4
M 102.5 228.9
L 137 270.15 106.1 307.55 71.5 266.1 102.5 228.9
M 141.85 264.3
L 107.5 223 148 174.5 182.25 215.45 141.85 264.3
M 66.65 260.25
L 31.3 217.9 62.3 180.75 97.55 223 66.65 260.25
M 67.1 354.65
L 32.35 312.9 66.65 271.8 101.3 313.25 67.1 354.65
M 107.1 320.15
L 142.85 362.95 108.3 404.3 73 361.75 107.1 320.15
M 147.55 357.3
L 111.8 314.4 142.6 276.85 178.7 320 147.55 357.3
M 141.25 455.55
L 110.95 491.85 79.05 453.3 109.1 417.05 141.25 455.55
M 146 449.8
L 114 411.15 148.4 369.6 180.7 408.25 146 449.8
M 73.25 446.3
L 38.3 404.05 68 367.9 103.35 410.2 73.25 446.3
M 64.6 547.3
L 32.75 509.2 73.85 459.6 105.7 498.05 64.6 547.3
M 141.65 541.45
L 100.75 590.45 70.05 553.85 111.1 504.55 141.65 541.45
M 146.8 535.3
L 116.3 498.35 146.6 462 177.35 498.75 146.8 535.3
M 135.75 643.7
L 105 680.5 71 639.25 101.3 602.8 135.75 643.7
M 110.4 687
L 141.15 650.1 175.1 690.35 144 727.65 110.4 687
M 140.5 638
L 106.15 597 147 548 181.25 589.2 140.5 638
M 65.55 632.7
L 35.1 595.8 65.1 559.8 95.9 596.35 65.55 632.7
M 36.45 680.7
L 65.65 645.65 99.7 686.9 70.55 721.85 36.45 680.7
M 40.3 771.2
L 70.9 734.5 104.55 774.85 74 811.5 40.3 771.2
M 138.6 734.05
L 109.5 768.9 76 728.4 105.05 693.4 138.6 734.05
M 114.95 775.4
L 143.95 740.55 179.25 783.25 150.25 818.05 114.95 775.4
M 120.25 866.9
L 150.75 830.3 180.45 866 150 902.5 120.25 866.9
M 145.35 823.85
L 114.85 860.45 79.4 818 110 781.35 145.35 823.85
M 39.5 866
L 73.8 824.8 109.05 867.35 74.8 908.45 39.5 866
M 46 956.1
L 75.2 921 104.9 956.5 75.5 991.7 46 956.1
M 144.05 909.6
L 109.8 950.6 80.2 915 114.45 873.9 144.05 909.6
M 115.2 957.15
L 149.4 916.1 180.05 953.1 145.8 994.1 115.2 957.15
M 111.55 1035.15
L 81 998.3 110.35 963 141.1 999.8 111.55 1035.15 Z"/>
</g>

<g id="Layer8_0_MEMBER_0_MEMBER_24_FILL">
<path fill="#C49A6C" stroke="none" d="
M 283.3 0.05
L 192.2 0.05 192.2 1553.05 283.3 1553.05 283.3 0.05 Z"/>
</g>

<g id="Layer8_0_MEMBER_0_MEMBER_25_FILL">
<path fill="#F2DBBB" stroke="none" d="
M 251.15 0.1
L 235.05 0.1 235.05 1536 251.15 1536 251.15 0.1 Z"/>
</g>

<g id="Layer8_0_MEMBER_0_MEMBER_26_FILL">
<path fill="#3C2415" stroke="none" d="
M 21.25 987.1
Q 10.75 944.65 5.75 951.5 1.4 957.45 0.35 1002.65 -0.3 1032.65 0.4 1108.15 1.2 1197.65 1 1235.55 0.6 1303.3 1.8 1397.95 3 1497.35 4.7 1506.15 7.4 1520.05 66.95 1533.6 97.25 1540.5 192.55 1556.15 209.4 1558.85 236.85 1556.55 244.15 1555.9 258.1 1554.5 270 1553.45 277.2 1553.45 285.95 1553.45 287.9 1538.45 289.5 1526.55 287.75 1490.1 284.6 1424.5 284 1403.65 282.15 1339.6 284.05 1274.15 285.75 1216.65 285.45 1117.75 285.2 1016.45 285.5 1004.65 286 985.15 266.75 986.75 253.2 987.85 222.3 1001.45 205.4 1009.1 197.15 1012.7 182.7 1019 173.5 1022.1 148.65 1030.35 141.5 1021.85 111.75 986.5 89.35 989.25 80.55 990.3 72.35 997.3 66.55 1002.25 59.5 1011.8 50.2 1024.45 49.4 1025.35 44.35 1031.25 40.6 1030.7 31.75 1029.35 21.25 987.1 Z"/>
</g>

<g id="Layer8_0_MEMBER_0_MEMBER_27_FILL">
<path fill="#26160E" stroke="none" d="
M 21.25 987.1
Q 10.75 944.65 5.75 951.5 1.4 957.45 0.35 1002.65 -0.3 1032.65 0.4 1108.15 1.2 1197.65 1 1235.55 0.6 1303.3 1.8 1397.9 3 1497.35 4.7 1506.1 7.45 1520.05 67 1533.6 97.55 1540.55 192.6 1556.1
L 192.7 1556.1 192.7 1014.6
Q 172.65 1023.2 161.35 1025.4 146.85 1028.2 141.5 1021.85 111.75 986.5 89.35 989.25 80.55 990.3 72.35 997.3 66.55 1002.25 59.5 1011.8 50.2 1024.45 49.4 1025.35 44.35 1031.25 40.6 1030.7 31.75 1029.35 21.25 987.1 Z"/>
</g>

<g id="Layer8_0_MEMBER_0_MEMBER_28_FILL">
<path fill="#C7377F" stroke="none" d="
M 499.1 976.75
Q 502.5 971.6 501.4 965.35 501 963.9 499.5 963.5 493.25 962.45 488.7 968.15 485.3 972.4 483.25 979.65
L 483.15 980.05 482.8 980.05
Q 476 980.25 470.65 974.35 466.25 969.5 464 962.15 462.05 955.7 462 949.3 466.25 951.8 471.2 951.7 477.15 951.7 481.45 946.95 486 942 484.2 936.3 482.65 931.55 477.6 929.75 472.9 928.1 468.05 929.65 464.9 930.6 462.45 932.8 459.95 935 458.65 938 455.35 932.9 454.5 926.3 453.65 920 455.25 913.8 456.85 907.55 461.3 902.25 464.05 898.95 470.75 893.2 481.65 883.9 479.85 870.4 478.55 860.25 469.55 846.5 469 845.65 468.1 846.15 467.2 846.7 467.7 847.6 474.95 859.75 476.55 867.8 478.95 879.9 470.9 887.75 467.2 891.35 460.05 897.25 454.25 902.7 451.85 909 448.8 916.9 450 927.2 451.3 938.15 456.85 944.85 455.9 952.55 458.55 961.8 460.95 970.35 465 975.65 468.3 980 472.7 982.55 477.25 985.15 482.2 985.25 481.4 991.65 482.9 997.3 484.5 1003.4 488.65 1007.85 492.7 1012.2 498.15 1014.1 503.9 1016.05 509.25 1014.45 510.7 1028.2 519.4 1039.15 522.8 1043.4 526.6 1046.05 531.2 1049.25 535.75 1049.75 534.6 1056.55 536 1064.15 537.4 1071.35 540.75 1077.65 542.9 1081.65 545.65 1084.8 549.1 1088.65 552.65 1090.25 548.95 1101.85 552.25 1114.1 555.6 1126.55 564.85 1134.25 561.6 1141.95 561.2 1151.9 560.8 1161.55 563.15 1170.25 565.65 1179.3 570.45 1184.35 575.7 1189.9 582.7 1189.25 574.75 1201.75 569.85 1215.75 565 1229.7 563.4 1244.45 562.4 1253.9 562.7 1258.5 563.2 1266.8 567 1271.65 568.95 1274.1 571.8 1275.65 570.8 1284 572.65 1292.25 574.5 1300.45 579 1307.55 577.7 1312.6 577 1316.8 574.4 1330.15 575.6 1343.95 576.4 1352.65 579.2 1359.3 582.95 1368.1 589.25 1370.25 589.55 1380.75 595.65 1390.8 601.8 1400.85 610.3 1404.55 614.05 1406.15 618.15 1406.2 622.25 1406.2 626.05 1404.65 631.3 1411.35 639 1414.6 648.65 1418.7 659.15 1417 669.85 1415.25 677.25 1408 684.6 1400.8 687.05 1390.3 689.65 1379.45 685.75 1370.15 684 1365.8 680.35 1362.85 683.1 1358.4 684.05 1353.25 685 1348.15 684 1343 683.6 1340.65 681.2 1341.35 678.85 1342 679.3 1344.3 680.1 1348.65 679.2 1352.9 678.3 1357.25 675.85 1360.9 674.75 1360.75 673.65 1360.9 669.6 1361.3 667.3 1364.4 665 1367.55 666 1371.4 666.3 1372.4 667.2 1372.85 668.1 1373.35 669.05 1373.05
L 669.55 1372.85
Q 673.6 1370.8 676.9 1367.4 679.2 1368.5 680.65 1370.6 682.5 1374.35 682.95 1378.7 683.7 1385.25 681.75 1391.5 679.65 1398.45 674.85 1403.7 669.85 1409.1 663.15 1411.35 655.25 1414 645.3 1411.5 635.15 1408.9 629.4 1402.55 631.35 1400.9 632.6 1398.4 635.1 1393.2 632.7 1387.65 630.3 1382.05 624.7 1380.75 623.8 1380.55 623 1381 622.15 1381.45 621.9 1382.35 620.25 1386.8 620.6 1391.6 621 1396.35 623.3 1400.5 622.45 1400.9 621.75 1401.05 616.65 1402.4 611.4 1399.8 607 1397.6 603.25 1392.95 597.05 1385.3 594.65 1375.9 594 1373.25 593.8 1370.9 595.5 1370.85 597.05 1370.45 604.1 1368.7 604.75 1361.15 605.4 1353.55 598.4 1351.3 597.15 1350.95 596.25 1351.85 590.65 1357.1 589.55 1364.7 586.15 1362.75 584.2 1359.55 581.65 1355.2 580.6 1348.45 579.9 1344 579.75 1336.75 579.45 1325.4 582 1314.45
L 582.45 1312.4
Q 583.45 1313.7 584.6 1314.85 585.35 1315.6 586.4 1315.6 587.45 1315.6 588.2 1314.85 591.25 1311.95 593.15 1307.85 595.45 1302.8 594 1299.5 592.8 1296.7 589.8 1296.6 587.15 1296.5 584.7 1298.3 582.75 1299.8 581.45 1301.95 575.85 1291.7 576.3 1279.95 576.3 1279.5 576.55 1277.25 581.15 1278.05 584.75 1275.15 587.8 1272.65 587.85 1268.35 587.9 1264.1 585.1 1261.25 583.8 1259.95 582.15 1259.35 580.35 1258.65 578.7 1259.1 576.75 1259.65 575.6 1261.95 575.35 1262.4 573.95 1266.2 573.2 1268.5 572.75 1270.35 568.55 1267.15 567.85 1258.95 566.3 1240.95 573 1220.8 579.05 1202.6 590.4 1186.4 591.5 1184.8 590.05 1183.55 588.65 1182.3 587.05 1183.05 581.55 1185.65 576.1 1182.2 571.3 1179.1 568.95 1173.3 566.1 1166.2 565.75 1154.45 565.45 1143.5 568.15 1136.7 569.8 1137.75 571.65 1138.7 572.4 1139.1 573.25 1139 574.05 1138.9 574.65 1138.3 577.55 1135.3 578.7 1131.3 579.9 1127.3 579.05 1123.2 578.85 1122 577.6 1121.55 576.4 1121.2 575.35 1121.7 570 1124.55 567.05 1129.8 559.15 1122.9 556.35 1112 553.65 1101.3 557.05 1091.25 558.9 1091.3 560.75 1090.7 565.7 1089 567.35 1083.9 569.1 1078.6 565.2 1075.1 564.5 1074.45 563.5 1074.45 562.45 1074.45 561.75 1075.1 557.15 1079.65 554.3 1085.7
L 553.75 1085.5
Q 550 1083.85 545.85 1077.45 541.7 1070.9 540.2 1063.25 538.8 1056.5 540.1 1049.5
L 540.7 1049.4
Q 546.5 1048 549.7 1043.2 553.1 1038.15 551.2 1032.6 550.9 1031.65 550.05 1031.2 549.2 1030.75 548.25 1031
L 547.75 1031.2
Q 543.95 1033.5 541.2 1036.95 538.45 1040.4 537 1044.55 533.2 1044.65 529.95 1042.8 522.75 1038.5 517.6 1028.2 513.85 1020.8 513.45 1012.4 518.4 1009.45 520.6 1004.1 522.75 998.75 521.3 993.15 521 992.2 520.1 991.75 519.25 991.3 518.3 991.55 517.7 991.8 517.35 992.15 513.7 995.3 511.55 999.65 509.4 1003.95 509.1 1008.8 505.45 1010.15 501.6 1009.6 497.75 1009.05 494.65 1006.75 489.6 1002.95 487.7 996.8 486 991.25 487.1 984.75 488.05 984.55 489.75 983.95 495.9 981.6 499.1 976.75
M 496.05 971.5
Q 495.45 972.85 494.45 974.25 492.25 977.15 488.9 978.6 489.7 976.55 490.9 974.35 491.95 972.5 493.05 971.05 494.95 968.55 495.95 969.1 496.85 969.55 496.05 971.5
M 468.05 935.45
Q 472.95 932.55 477.05 935.9 481.15 939.25 476.7 943.9 473.8 946.9 469.7 946.25 466.25 945.7 462.8 942.8 463.9 938.05 468.05 935.45
M 514.3 1005.55
Q 515.25 1002.05 517.2 999.35 516.8 1002.9 514.3 1005.55
M 559.5 1086
Q 560.95 1083.4 562.8 1081.25 562.8 1083.25 561.45 1084.75 560.55 1085.65 559.5 1086
M 542.25 1043.65
Q 544.1 1040 547.25 1037.35 546.95 1041.75 542.25 1043.65
M 574.35 1128.2
L 574.35 1128.25
Q 574.05 1131.2 572.3 1133.55
L 570.45 1132.45
Q 571.9 1130.15 574.35 1128.2
M 582 1265.4
L 581.95 1265.45
Q 583.15 1266.45 582.15 1269 581.2 1271.3 579.95 1272.1 578.8 1272.7 577.35 1272.35 577.6 1271.4 577.65 1271.25 578.7 1267.2 578.95 1266.65 580.2 1263.85 582 1265.4
M 589.2 1302.5
Q 589.5 1303.75 588.3 1306.25 587.5 1307.95 586.4 1309.25 584.8 1307.25 584.1 1306.25 584.8 1304.25 586.3 1303
L 586.3 1303.05
Q 588.8 1301.05 589.2 1302.5
M 597.2 1357.2
Q 598.15 1355.05 599.05 1357.3 600.25 1358.05 600.1 1359.5 600.4 1361.2 599.65 1362.45 599.1 1363.4 597.55 1364.5 595.7 1365.9 593.55 1365.8 593.9 1359.25 597.15 1357.15
L 597.2 1357.2
M 626.4 1398.05
L 626.4 1398.1
Q 623.55 1392.25 625.5 1385.9 628.8 1387.7 628.9 1391.55 628.95 1395.1 626.4 1398.05 Z"/>
</g>

<g id="Layer8_0_MEMBER_0_MEMBER_29_FILL">
<path fill="#C7377F" stroke="none" d="
M 464.25 540.35
Q 399.65 540.65 392.25 565.5 385.2 589.25 381.65 627.25 378.2 664.4 379.1 704.25 380.05 745.8 385.55 778.4 391.5 814.05 401.8 831.7 414.85 854.1 472.45 853.3 501.25 852.9 527.4 848.05
L 527.4 545
Q 496.6 540.2 464.25 540.35 Z"/>
</g>

<g id="Layer8_0_MEMBER_0_MEMBER_30_FILL">
<path fill="#D64387" stroke="none" d="
M 527.4 545.2
Q 496.3 550.85 491.3 567.45 484.25 591.2 480.7 629.2 477.25 666.3 478.2 706.15 479.15 747.7 484.6 780.3 490.6 816 500.9 833.65 506.7 843.55 521.75 849 525.35 848.45 527.4 848.05
L 527.4 545.2 Z"/>
</g>

<g id="Layer8_0_MEMBER_0_MEMBER_31_FILL">
<path fill="#F4EDF1" stroke="none" d="
M 462.3 635.3
L 465.05 635.15 467.05 613.15 459.8 607.95 443.35 627.45 444.6 613.15 437.35 607.95 420.85 627.45 422.15 613.1 414.9 607.95 395.75 630.6 403 635.8 410.8 635.5 394.3 655.05 401.55 660.25 407.9 660 391.6 679.3 398.85 684.5 416.05 683.85 416.3 680.9 421.3 684.5 438.45 683.85 438.7 680.9 443.7 684.5 460.85 683.85 462.85 661.85 459.95 659.75 463.55 659.6 465.55 637.6 462.3 635.3
M 447.85 635.8
L 455.7 635.5 441.85 651.9 443.15 637.55 439.9 635.25 442.6 635.15 442.85 632.2 447.85 635.8
M 420.7 637.55
L 417.45 635.25 420.15 635.15 420.45 632.2 425.45 635.8 433.25 635.5 419.4 651.9 420.7 637.55
M 440.5 661.8
L 437.6 659.75 441.2 659.6 441.45 656.65 446.45 660.25 452.8 660 439.2 676.15 440.5 661.8
M 418.05 661.8
L 415.15 659.75 418.75 659.6 419 656.65 424 660.25 430.35 660 416.75 676.15 418.05 661.8 Z"/>
</g>

<g id="Layer8_0_MEMBER_0_MEMBER_32_FILL">
<path fill="#CBC9E5" stroke="none" d="
M 412.25 630
L 414.95 608 398.6 607.8 397.45 609.3
Q 396.15 611.35 395.3 613.75 392.5 621.55 395.1 630.65 395.5 631.95 403.9 631.1 408.1 630.7 412.25 630 Z"/>
</g>

<g id="Layer8_0_MEMBER_0_MEMBER_33_FILL">
<path fill="#CBC9E5" stroke="none" d="
M 428.5 630.95
Q 432.05 630.65 435.2 630
L 437.2 608 420 608 418.3 617.25
Q 417.05 627 419.5 629.6 421.4 631.5 428.5 630.95 Z"/>
</g>

<g id="Layer8_0_MEMBER_0_MEMBER_34_FILL">
<path fill="#CBC9E5" stroke="none" d="
M 410.8 654.4
L 412.8 632.4 396.7 632.5 395.9 633.2
Q 395 634.3 394.35 636.15 392.3 642.1 393.7 653.55 394 656.25 402.45 655.6 406.65 655.25 410.8 654.4 Z"/>
</g>

<g id="Layer8_0_MEMBER_0_MEMBER_35_FILL">
<path fill="#CBC9E5" stroke="none" d="
M 418.1 632.4
L 416 641.45
Q 414.4 651.05 416.85 653.65 418.75 655.6 426.2 655.2 429.9 655 433.25 654.4
L 435.25 632.4 418.1 632.4 Z"/>
</g>

<g id="Layer8_0_MEMBER_0_MEMBER_36_FILL">
<path fill="#CBC9E5" stroke="none" d="
M 407.7 678.65
L 409.7 656.65 393.7 656.75 391.95 660.85
Q 390.2 667.05 390.5 677.5 390.6 680.2 399.15 679.7 403.45 679.45 407.7 678.65 Z"/>
</g>

<g id="Layer8_0_MEMBER_0_MEMBER_37_FILL">
<path fill="#CBC9E5" stroke="none" d="
M 413.8 665.95
Q 412.7 675.8 415.15 678.4 417.05 680.35 424 679.7 427.5 679.35 430.6 678.65
L 432.6 656.65 415.4 656.65 413.8 665.95 Z"/>
</g>

<g id="Layer8_0_MEMBER_0_MEMBER_38_FILL">
<path fill="#CBC9E5" stroke="none" d="
M 450.6 630.85
Q 454.05 630.6 457.15 630
L 459.6 608 441.95 608 440.4 617.15
Q 439.35 626.8 441.8 629.4 443.65 631.3 450.6 630.85 Z"/>
</g>

<g id="Layer8_0_MEMBER_0_MEMBER_39_FILL">
<path fill="#CBC9E5" stroke="none" d="
M 440.5 632.4
L 438.6 641.6
Q 437.25 651.3 439.7 653.85 441.6 655.8 448.85 655.3 452.45 655.05 455.7 654.4
L 457.7 632.4 440.5 632.4 Z"/>
</g>

<g id="Layer8_0_MEMBER_0_MEMBER_40_FILL">
<path fill="#CBC9E5" stroke="none" d="
M 436.15 665.55
Q 434.9 674.95 437.35 677.55 439.25 679.5 446.3 679.25 449.85 679.15 453 678.65
L 455 656.65 437.85 656.65 436.15 665.55 Z"/>
</g>

<g id="r_arm_0_Layer0_0_FILL">
<path fill="#221F20" stroke="none" d="
M 60.55 41.75
Q 50.5 37.4 45.65 35.25 37.1 31.45 33.3 29.05 27.7 25.45 14.5 10.45 3.95 -1.55 1.65 0.15 -1.5 2.5 9.45 16.2 20.15 29.55 29.25 35.6 40.75 43.25 55.85 49.8 74.05 57.65 76.2 53.4 78.1 49.65 60.55 41.75 Z"/>
</g>

<g id="r_hand_0_Layer0_0_FILL">
<path fill="#E9ECEE" stroke="none" d="
M 539.35 735.05
Q 541.05 730.9 540.85 727.35 540.6 723.75 538.55 723 534.8 721.7 532.7 723 530.95 724.1 528.8 728.35 523.2 720.2 522.4 719.35 519.1 715.7 514.45 715.45 506.6 715.05 500.95 720.85 495.4 726.55 495.3 734.65 495.15 742.55 500.7 748.1 506.2 753.65 514.45 753.8
L 514.5 753.8
Q 514.2 755.05 514.7 755.95 515.85 757.85 519.65 757.45 523.45 757.1 527.7 754.6 532 752.15 534.25 749 536.5 745.9 535.4 744 535.05 743.5 534.5 743.1 537.45 739.6 539.35 735.05 Z"/>
</g>

<g id="phone_arm_0_Layer3_1_MEMBER_0_FILL">
<path fill="#EC5291" stroke="none" d="
M 328.9 280
Q 328.3 279.75 327.85 279.6 325.7 278.8 323.35 278.75 321.95 278.7 320.55 278.95 319.9 279.05 319.2 279.55 318.9 279.7 317.95 280.5 317.35 280.95 316.25 282.05
L 315.6 282.9
Q 315.5 283.45 315.7 284.15 315.75 284.3 316.2 285.3
L 319.35 292.3
Q 319.65 292.9 320.1 294.15 320.35 294.8 320.8 295.1 321.25 295.4 321.95 295.4 322.75 295.4 323.85 295.2 324.5 295.05 325.75 294.7 327 294.45 329 294.1 330 293.95 330.55 294.95 331.1 296 331.6 297.2 333 300.65 333.4 301.9 334.5 305.25 334.75 308.8 335 312.2 334.6 315.6 334.55 316.1 334.45 317.1 334.35 318 334.2 318.6 334.05 319.45 333.65 319.75 333.35 320 332.6 320.1 331.75 320.2 330.35 320.3 328.7 320.45 328.15 320.5 326.9 320.6 325.8 320.9 324.55 321.2 324.45 322.6 324.45 322.85 324.35 324.25 324.3 325.25 324.2 325.85 323.95 328 323.4 332.3 323.3 333.1 323.3 333.9 323.4 334.4 323.55 334.75
L 324.35 335.3 324.6 335.4
Q 326.9 336.45 327.15 336.55 328.8 337.25 329.95 336.95 331.4 336.6 332.7 336.15 335.05 335.3 336.9 333.7 337.2 333.4 338.25 332.45
L 339.45 330.8 340.1 329.5
Q 340.4 328.85 340.5 328.45 342 323.7 342.75 320.95 343.3 318.7 343.45 316.05 343.6 313.9 343.45 311.15 343.25 308.2 342.65 304.45 342.35 302.35 341.55 299.1 341.1 297.35 340.45 295.55 339.65 293.45 338.6 291.35 337.7 289.75 335.8 286.85 335.05 285.7 333.4 283.45 333.15 283.1 332.7 282.65 332 281.9 331.95 281.85
L 330.25 280.65 329.95 280.5
Q 329.25 280.2 328.9 280 Z"/>
</g>

<g id="phone_arm_0_Layer3_1_MEMBER_1_FILL">
<path fill="#DD2F7E" stroke="none" d="
M 620.75 1131.95
Q 614.5 1125.55 610.05 1127.35 605.65 1129.15 605.65 1138.1 605.65 1147.05 610.05 1157.9 614.5 1168.75 620.75 1175.15 627.05 1181.55 631.45 1179.75 635.9 1177.9 635.85 1168.95 635.85 1160 631.4 1149.15 627 1138.3 620.75 1131.95 Z"/>
</g>

<g id="phone_arm_0_Layer3_1_MEMBER_2_FILL">
<path fill="#DD2F7E" stroke="none" d="
M 639.8 1301.7
Q 636.1 1309.85 635.6 1321.6 635.15 1333.3 638.2 1341.7 641.25 1350.1 646.05 1350.3 650.8 1350.5 654.5 1342.35 658.2 1334.2 658.7 1322.5 659.15 1310.8 656.1 1302.35 653 1293.95 648.25 1293.75 643.5 1293.55 639.8 1301.7 Z"/>
</g>

<g id="Layer6_0_FILL">
<path fill="#3E914D" stroke="none" d="
M 794.5 678.7
Q 786.15 676.45 771.8 669.45 749.55 658.55 746.7 657.3 731.75 650.7 720.05 648.65 693.95 644.05 683.35 647.9 674.4 651.15 673.1 662.35 671.9 672.5 694 682.7 715.5 692.6 743.95 695.9 767.15 698.6 797.6 687.2 807.4 683.55 813.6 680.05 819.85 676.6 814.1 678.75 806.05 681.8 794.5 678.7 Z"/>
</g>

<g id="Layer6_1_FILL">
<path fill="#3E914D" stroke="none" d="
M 697.2 679
L 689.05 677.5 689.85 693.7 695.95 694.05 697.2 679 Z"/>
</g>

<g id="Layer6_2_FILL">
<path fill="#221F20" stroke="none" d="
M 702.7 886.35
Q 702.55 884.2 700.15 883.95 699.6 883.9 694.4 884.25 693.85 887.05 693.25 911.15 692.7 932.15 690.75 933.5 684.1 938.1 672.9 945.4 666.35 950.5 674.2 951.05 679.2 951.4 682.4 951.3 683.9 951.25 689.1 950.7 693.75 950.25 698.4 949.05 702.95 947.85 704.65 946.65 706.75 945.2 706.55 937.95 705.95 930.2 705.85 928.55
L 702.7 886.35 Z"/>
</g>

<g id="Layer6_3_FILL">
<path fill="#221F20" stroke="none" d="
M 644.95 881.1
Q 645 878.95 642.6 878.5 641.95 878.35 636.9 878.25 636.1 881 633.2 904.9 630.65 925.75 628.6 926.9 621.55 930.85 609.65 937.05 602.7 941.5 610.45 942.8 615.35 943.65 618.55 943.8 620 943.9 625.3 943.9 630.05 943.85 634.7 943.1 639.35 942.35 641.15 941.35 643.35 940.1 643.9 932.85 643.9 932.65 644.05 923.4
L 644.95 881.1 Z"/>
</g>

<g id="Layer6_4_FILL">
<path fill="#EA983E" stroke="none" d="
M 785.65 791.2
Q 785.65 770.7 777 751.95 768.65 733.85 753.4 719.85 738.15 705.9 718.4 698.25 697.95 690.3 675.55 690.3 653.15 690.3 632.7 698.25 612.95 705.9 597.7 719.85 582.45 733.85 574.1 751.95 565.45 770.7 565.45 791.2 565.45 811.7 574.1 830.45 582.45 848.55 597.7 862.55 612.95 876.5 632.7 884.15 653.15 892.1 675.55 892.1 697.95 892.1 718.4 884.15 738.15 876.5 753.4 862.55 768.65 848.55 777 830.45 785.65 811.7 785.65 791.2 Z"/>
</g>

<g id="Layer6_5_FILL">
<path fill="#E3753A" stroke="none" d="
M 755.7 735.55
Q 766.55 756.15 766.55 779.25 766.55 799.4 758.2 817.85 750.1 835.65 735.4 849.35 720.7 863.1 701.6 870.6 681.85 878.4 660.2 878.4 639.35 878.4 620.2 871.1 601.65 864.1 587.05 851.2 602.4 870.15 625.25 880.95 648.85 892.1 675.55 892.1 697.95 892.1 718.4 884.15 738.15 876.5 753.4 862.55 768.65 848.55 777 830.45 785.65 811.7 785.65 791.2 785.65 762.5 769.25 738.25 753.3 714.6 726.5 701.75 745.15 715.65 755.7 735.55 Z"/>
</g>

<g id="Symbol_1_0_Layer0_0_FILL">
<path fill="#221F20" stroke="none" d="
M 629.85 729.7
Q 629.7 728.55 626 727.55 621.7 726.45 616.9 727.2 612.1 727.95 608.4 730.35 605.25 732.4 605.4 733.55 605.5 734 608.7 732.3 613.25 729.95 617.25 729.35 621.3 728.7 626.3 729.55 629.95 730.15 629.85 729.7 Z"/>
</g>

<g id="Symbol_2_0_Layer0_0_FILL">
<path fill="#221F20" stroke="none" d="
M 701.25 731.35
Q 697.4 731.95 697 733.05 696.9 733.45 700.65 733.25 705.8 732.95 709.75 734.25 713.65 735.55 717.65 738.6 720.5 740.8 720.6 740.4 721 739.3 718.25 736.7 715.05 733.7 710.4 732.2 705.8 730.7 701.25 731.35 Z"/>
</g>

<g id="eyes_0_Layer0_0_FILL">
<path fill="#221F20" stroke="none" d="
M 702.3 763.35
Q 700.35 765.1 700.2 767.75 700.05 770.4 701.8 772.4 703.6 774.35 706.25 774.5 708.9 774.65 710.85 772.9 712.85 771.1 712.95 768.45 713.1 765.8 711.35 763.85 709.55 761.85 706.95 761.75 704.3 761.6 702.3 763.35 Z"/>
</g>

<g id="eyes_0_Layer0_1_FILL">
<path fill="#221F20" stroke="none" d="
M 611.6 754
Q 609.65 755.8 609.5 758.45 609.35 761.1 611.1 763.05 612.9 765.05 615.55 765.15 618.2 765.3 620.15 763.55 622.15 761.75 622.3 759.15 622.4 756.5 620.65 754.5 618.9 752.55 616.25 752.4 613.6 752.25 611.6 754 Z"/>
</g>

<g id="mouth_0_Layer0_0_FILL">
<path fill="#C55C64" stroke="none" d="
M 7.1 20.25
Q 12.8 23.9 21 23.95 29.25 24.05 35.05 20.55 40.45 17.25 41.8 12.25 43.4 6.05 39.65 3.6 35.4 0.8 21.25 0.1 6.5 -0.65 2.05 3.15 -1.05 5.85 0.5 11.85 1.75 16.9 7.1 20.25 Z"/>
</g>

<g id="l_arm_0_Layer0_0_FILL">
<path fill="#221F20" stroke="none" d="
M 2.4 10.2
Q 9.7 27.85 10.85 40.8 11.95 52.8 8.95 76.55 7.9 84.7 8.25 87.7 8.75 91.8 11.75 91.75 12.95 91.75 14.85 86.65 16.9 81.15 18.25 73.4 21.95 52.6 17.9 34.95 13.8 17 9.75 7.75 6.35 -0.05 3.8 0 0.1 0.05 0 2.6 0 4.45 2.4 10.2 Z"/>
</g>

<g id="l_hand_0_Layer0_0_FILL">
<path fill="#E9ECEE" stroke="none" d="
M 763.9 874.65
Q 760.9 877.65 760.05 881.05 759.2 884.45 761 886.25 762.15 887.4 764.05 887.5 765.85 887.55 767.95 886.6 766.8 893.9 769.15 897.7 771.5 901.6 778.1 902.85 786.15 904.4 792.8 901.95 800.6 899.05 802.2 891.6 805.3 877.25 797.15 871.95 800.45 870.9 800.6 869.2 800.8 867.2 796.95 865.4 793.1 863.65 787.45 863.1 781.8 862.55 777.7 863.6 773.6 864.65 773.4 866.65 773.25 867.95 775 869.2 772.15 869.65 769.05 871.2 765.8 872.75 763.9 874.65 Z"/>
</g>

<g id="Layer0_0_MEMBER_0_MEMBER_0_FILL">
<path fill="#A97C50" stroke="none" d="
M 192.35 0
L 5.25 111.75 5.25 1506.1 191.15 1553.9 192.35 0 Z"/>
</g>

<g id="Layer0_0_MEMBER_0_MEMBER_1_FILL">
<path fill="#C49A6C" stroke="none" d="
M 192.3 25.1
L 192.3 12.45 149.1 64.45 127.7 38.6 120.8 42.75 144.1 70.6 107.9 114.25 74.75 74.3 81.5 66.2 61.6 78.1 24.45 122.85 11.9 107.75 5.25 111.75 5.25 112.5 19.25 129.2 5.25 146 5.25 157.5 24.05 135 57.5 175 26.6 212.2 5.25 186.65 5.25 198.25 21.75 218 5.3 237.9 5.3 249.1 26.5 223.7 61.85 266 27.7 307.2 5.25 280.2 5.25 292.8 22.5 313.45 5.3 334.2 5.3 345.35 27.2 319.1 62.05 360.8 32.3 396.8 5.25 364 5.25 376.7 27.05 403.05 5.25 429.4 5.25 444.4 33.1 410.4 68 452.55 26.7 502 5.25 476.4 5.25 488.85 21.55 508.15 5.25 527.65 5.25 542.4 27.65 515.4 59.65 553.4 29.65 589.2 5.25 559.65 5.25 572.45 24.35 595.6 5.25 618.45 5.25 631.65 29.8 602.2 60.25 639.05 31 674.1 5.25 643 5.25 655.65 25.75 680.35 5.25 704.95 5.25 718.15 31.25 686.9 65.45 727.9 34.8 764.6 5.25 729.25 5.25 742.1 29.35 771.2 5.25 800.1 5.25 813.3 34.8 777.8 68.35 818.25 34.05 859.35 5.25 824.65 5.25 837.25 28.9 865.55 5.25 893.85 5.25 907.05 34.4 872.05 69.75 914.4 40.5 949.5 5.25 907.05 5.25 919.45 35.45 955.55 11 984.8 8.7 1000.8 40.9 962.2 70.55 997.65 27 1049.85 24.7 1065.85 76.05 1004.2 106.75 1040.95 55.5 1102.35 53.25 1118.35 112.25 1047.55 160.25 1105 159.55 1093 117 1041.7 146.5 1006.3 181.6 1048.3 180.9 1036.3 151.25 1000.5 185.4 959.5 191.6 967 191.6 952.4 191.5 952.25 191.6 952.1 191.65 939.2 186.15 945.8 155.35 909 185.8 872.45 191.7 879.5 191.7 868.15 190.5 866.75 191.7 865.3 191.7 852.45 185.15 860.3 155.55 824.5 184.55 789.7 191.75 798.45 191.75 785.55 189.9 783.3 191.75 781 191.75 768.2 184.55 776.85 149.3 734.1 180.4 696.75 191.8 710.25 191.8 699.25 185 691.15 191.8 683 191.8 670.25 179.65 684.8 145.85 644.45 186.5 595.65 191.85 602.1 191.85 589.9 191.55 589.55 191.85 589.15 191.85 576.4 186.25 583.15 152.1 541.8 182.6 505.15 192 516.3 192 505.15 187.3 499.55 192 493.95 192 481.15 182 493.15 151.35 456.25 186 414.6 192 421.85 192 410.65 190.65 409 192.05 407.35 192.05 394.6 185.35 402.6 153.1 363.95 184.1 326.5 192.1 336.1 192.1 324.9 188.7 320.9 192.1 316.85 192.1 303.9 183.35 314.4 147.35 271 187.55 221.9 192.15 227.4 192.15 203.4 187 209.65 153 168.55 189.45 124.9 192.25 128.25 192.25 108.85 189.1 112.65 154.3 70.65 192.3 25.1
M 62.6 168.85
L 29.3 128.7 69.5 80.6 102.8 120.4 62.6 168.85
M 107.75 126.4
L 142.9 168.35 102.55 217 67.4 174.65 107.75 126.4
M 147.9 162.35
L 112.9 120.25 149.25 76.75 184.25 118.55 147.9 162.35
M 141.85 264.3
L 107.5 223 148 174.5 182.25 215.45 141.85 264.3
M 102.5 228.9
L 137 270.15 106.1 307.55 71.5 266.1 102.5 228.9
M 66.65 260.25
L 31.3 217.9 62.3 180.75 97.55 223 66.65 260.25
M 67.1 354.65
L 32.35 312.9 66.65 271.8 101.3 313.25 67.1 354.65
M 147.55 357.3
L 111.8 314.4 142.6 276.85 178.7 320 147.55 357.3
M 107.1 320.15
L 142.85 362.95 108.3 404.3 73 361.75 107.1 320.15
M 146 449.8
L 114 411.15 148.4 369.6 180.7 408.25 146 449.8
M 141.25 455.55
L 110.95 491.85 79.05 453.3 109.1 417.05 141.25 455.55
M 73.25 446.3
L 38.3 404.05 68 367.9 103.35 410.2 73.25 446.3
M 64.6 547.3
L 32.75 509.2 73.85 459.6 105.7 498.05 64.6 547.3
M 146.8 535.3
L 116.3 498.35 146.6 462 177.35 498.75 146.8 535.3
M 141.65 541.45
L 100.75 590.45 70.05 553.85 111.1 504.55 141.65 541.45
M 140.5 638
L 106.15 597 147 548 181.25 589.2 140.5 638
M 110.4 687
L 141.15 650.1 175.1 690.35 144 727.65 110.4 687
M 135.75 643.7
L 105 680.5 71 639.25 101.3 602.8 135.75 643.7
M 36.45 680.7
L 65.65 645.65 99.7 686.9 70.55 721.85 36.45 680.7
M 65.55 632.7
L 35.1 595.8 65.1 559.8 95.9 596.35 65.55 632.7
M 40.3 771.2
L 70.9 734.5 104.55 774.85 74 811.5 40.3 771.2
M 114.95 775.4
L 143.95 740.55 179.25 783.25 150.25 818.05 114.95 775.4
M 138.6 734.05
L 109.5 768.9 76 728.4 105.05 693.4 138.6 734.05
M 145.35 823.85
L 114.85 860.45 79.4 818 110 781.35 145.35 823.85
M 120.25 866.9
L 150.75 830.3 180.45 866 150 902.5 120.25 866.9
M 39.5 866
L 73.8 824.8 109.05 867.35 74.8 908.45 39.5 866
M 46 956.1
L 75.2 921 104.9 956.5 75.5 991.7 46 956.1
M 115.2 957.15
L 149.4 916.1 180.05 953.1 145.8 994.1 115.2 957.15
M 144.05 909.6
L 109.8 950.6 80.2 915 114.45 873.9 144.05 909.6
M 111.55 1035.15
L 81 998.3 110.35 963 141.1 999.8 111.55 1035.15 Z"/>
</g>

<g id="Layer0_0_MEMBER_0_MEMBER_2_FILL">
<path fill="#C49A6C" stroke="none" d="
M 283.3 0.05
L 192.2 0.05 192.2 1553.05 283.3 1553.05 283.3 0.05 Z"/>
</g>

<g id="Layer0_0_MEMBER_0_MEMBER_3_FILL">
<path fill="#F2DBBB" stroke="none" d="
M 251.15 0.1
L 235.05 0.1 235.05 1536 251.15 1536 251.15 0.1 Z"/>
</g>

<g id="Layer0_0_MEMBER_0_MEMBER_4_FILL">
<path fill="#3C2415" stroke="none" d="
M 21.25 987.1
Q 10.75 944.65 5.75 951.5 1.4 957.45 0.35 1002.65 -0.3 1032.65 0.4 1108.15 1.2 1197.65 1 1235.55 0.6 1303.3 1.8 1397.95 3 1497.35 4.7 1506.15 7.4 1520.05 66.95 1533.6 97.25 1540.5 192.55 1556.15 209.4 1558.85 236.85 1556.55 244.15 1555.9 258.1 1554.5 270 1553.45 277.2 1553.45 285.95 1553.45 287.9 1538.45 289.5 1526.55 287.75 1490.1 284.6 1424.5 284 1403.65 282.15 1339.6 284.05 1274.15 285.75 1216.65 285.45 1117.75 285.2 1016.45 285.5 1004.65 286 985.15 266.75 986.75 253.2 987.85 222.3 1001.45 205.4 1009.1 197.15 1012.7 182.7 1019 173.5 1022.1 148.65 1030.35 141.5 1021.85 111.75 986.5 89.35 989.25 80.55 990.3 72.35 997.3 66.55 1002.25 59.5 1011.8 50.2 1024.45 49.4 1025.35 44.35 1031.25 40.6 1030.7 31.75 1029.35 21.25 987.1 Z"/>
</g>

<g id="Layer0_0_MEMBER_0_MEMBER_5_FILL">
<path fill="#26160E" stroke="none" d="
M 21.25 987.1
Q 10.75 944.65 5.75 951.5 1.4 957.45 0.35 1002.65 -0.3 1032.65 0.4 1108.15 1.2 1197.65 1 1235.55 0.6 1303.3 1.8 1397.9 3 1497.35 4.7 1506.1 7.45 1520.05 67 1533.6 97.55 1540.55 192.6 1556.1
L 192.7 1556.1 192.7 1014.6
Q 172.65 1023.2 161.35 1025.4 146.85 1028.2 141.5 1021.85 111.75 986.5 89.35 989.25 80.55 990.3 72.35 997.3 66.55 1002.25 59.5 1011.8 50.2 1024.45 49.4 1025.35 44.35 1031.25 40.6 1030.7 31.75 1029.35 21.25 987.1 Z"/>
</g>

<path id="r_hand_0_Layer0_0_1_STROKES" stroke="#221F20" stroke-width="2" stroke-linejoin="miter" stroke-linecap="butt" stroke-miterlimit="10" fill="none" d="
M 495.3 734.65
Q 495.4 726.55 500.95 720.85 506.6 715.05 514.45 715.45 519.1 715.7 522.4 719.35 523.2 720.2 528.8 728.35 530.95 724.1 532.7 723 534.8 721.7 538.55 723 540.6 723.75 540.85 727.35 541.05 730.9 539.35 735.05 537.45 739.6 534.5 743.1 535.05 743.5 535.4 744 536.5 745.9 534.25 749 532 752.15 527.7 754.6 523.45 757.1 519.65 757.45 515.85 757.85 514.7 755.95 514.2 755.05 514.5 753.8
L 514.45 753.8
Q 506.2 753.65 500.7 748.1 495.15 742.55 495.3 734.65 Z"/>

<path id="l_hand_0_Layer0_0_1_STROKES" stroke="#221F20" stroke-width="2" stroke-linejoin="miter" stroke-linecap="butt" stroke-miterlimit="10" fill="none" d="
M 763.9 874.65
Q 765.8 872.75 769.05 871.2 772.15 869.65 775 869.2 773.25 867.95 773.4 866.65 773.6 864.65 777.7 863.6 781.8 862.55 787.45 863.1 793.1 863.65 796.95 865.4 800.8 867.2 800.6 869.2 800.45 870.9 797.15 871.95 805.3 877.25 802.2 891.6 800.6 899.05 792.8 901.95 786.15 904.4 778.1 902.85 771.5 901.6 769.15 897.7 766.8 893.9 767.95 886.6 765.85 887.55 764.05 887.5 762.15 887.4 761 886.25 759.2 884.45 760.05 881.05 760.9 877.65 763.9 874.65 Z"/>
</defs>

<g transform="matrix( 0.242523193359375, 0, 0, 0.242523193359375, 170.45,7.95) ">
<use xlink:href="#Layer8_0_MEMBER_0_MEMBER_0_FILL"/>
</g>

<g transform="matrix( 0.242523193359375, 0, 0, 0.242523193359375, 170.45,7.95) ">
<use xlink:href="#Layer8_0_MEMBER_0_MEMBER_1_FILL"/>
</g>

<g transform="matrix( 0.242523193359375, 0, 0, 0.242523193359375, 170.45,7.95) ">
<use xlink:href="#Layer8_0_MEMBER_0_MEMBER_2_FILL"/>
</g>

<g transform="matrix( 0.242523193359375, 0, 0, 0.242523193359375, 170.45,7.95) ">
<use xlink:href="#Layer8_0_MEMBER_0_MEMBER_3_FILL"/>
</g>

<g transform="matrix( 0.242523193359375, 0, 0, 0.242523193359375, 170.45,7.95) ">
<use xlink:href="#Layer8_0_MEMBER_0_MEMBER_4_FILL"/>
</g>

<g transform="matrix( 0.242523193359375, 0, 0, 0.242523193359375, 170.45,7.95) ">
<use xlink:href="#Layer8_0_MEMBER_0_MEMBER_5_FILL"/>
</g>

<g transform="matrix( 0.242523193359375, 0, 0, 0.242523193359375, 170.45,7.95) ">
<use xlink:href="#Layer8_0_MEMBER_0_MEMBER_6_FILL"/>
</g>

<g transform="matrix( 0.242523193359375, 0, 0, 0.242523193359375, 170.45,7.95) ">
<use xlink:href="#Layer8_0_MEMBER_0_MEMBER_7_FILL"/>
</g>

<g transform="matrix( 0.242523193359375, 0, 0, 0.242523193359375, 170.45,7.95) ">
<use xlink:href="#Layer8_0_MEMBER_0_MEMBER_8_FILL"/>
</g>

<g transform="matrix( 0.242523193359375, 0, 0, 0.242523193359375, 170.45,7.95) ">
<use xlink:href="#Layer8_0_MEMBER_0_MEMBER_9_FILL"/>
</g>

<g transform="matrix( 0.242523193359375, 0, 0, 0.242523193359375, 170.45,7.95) ">
<use xlink:href="#Layer8_0_MEMBER_0_MEMBER_10_FILL"/>
</g>

<g transform="matrix( 0.242523193359375, 0, 0, 0.242523193359375, 170.45,7.95) ">
<use xlink:href="#Layer8_0_MEMBER_0_MEMBER_11_FILL"/>
</g>

<g transform="matrix( 0.242523193359375, 0, 0, 0.242523193359375, 170.45,7.95) ">
<use xlink:href="#Layer8_0_MEMBER_0_MEMBER_12_FILL"/>
</g>

<g transform="matrix( 0.242523193359375, 0, 0, 0.242523193359375, 170.45,7.95) ">
<use xlink:href="#Layer8_0_MEMBER_0_MEMBER_13_FILL"/>
</g>

<g transform="matrix( 0.242523193359375, 0, 0, 0.242523193359375, 170.45,7.95) ">
<use xlink:href="#Layer8_0_MEMBER_0_MEMBER_14_FILL"/>
</g>

<g transform="matrix( 0.242523193359375, 0, 0, 0.242523193359375, 170.45,7.95) ">
<use xlink:href="#Layer8_0_MEMBER_0_MEMBER_15_FILL"/>
</g>

<g transform="matrix( 0.242523193359375, 0, 0, 0.242523193359375, 170.45,7.95) ">
<use xlink:href="#Layer8_0_MEMBER_0_MEMBER_16_FILL"/>
</g>

<g transform="matrix( 0.242523193359375, 0, 0, 0.242523193359375, 170.45,7.95) ">
<use xlink:href="#Layer8_0_MEMBER_0_MEMBER_17_FILL"/>
</g>

<g transform="matrix( 0.242523193359375, 0, 0, 0.242523193359375, 170.45,7.95) ">
<use xlink:href="#Layer8_0_MEMBER_0_MEMBER_18_FILL"/>
</g>

<g transform="matrix( 0.242523193359375, 0, 0, 0.242523193359375, 170.45,7.95) ">
<use xlink:href="#Layer8_0_MEMBER_0_MEMBER_19_FILL"/>
</g>

<g transform="matrix( 0.242523193359375, 0, 0, 0.242523193359375, 170.45,7.95) ">
<use xlink:href="#Layer8_0_MEMBER_0_MEMBER_20_FILL"/>
</g>

<g transform="matrix( 0.242523193359375, 0, 0, 0.242523193359375, 170.45,7.95) ">
<use xlink:href="#Layer8_0_MEMBER_0_MEMBER_21_FILL"/>
</g>

<g transform="matrix( 0.242523193359375, 0, 0, 0.242523193359375, 170.45,7.95) ">
<use xlink:href="#Layer8_0_MEMBER_0_MEMBER_22_FILL"/>
</g>

<g transform="matrix( 0.242523193359375, 0, 0, 0.242523193359375, 170.45,7.95) ">
<use xlink:href="#Layer8_0_MEMBER_0_MEMBER_23_FILL"/>
</g>

<g transform="matrix( 0.242523193359375, 0, 0, 0.242523193359375, 170.45,7.95) ">
<use xlink:href="#Layer8_0_MEMBER_0_MEMBER_24_FILL"/>
</g>

<g transform="matrix( 0.242523193359375, 0, 0, 0.242523193359375, 170.45,7.95) ">
<use xlink:href="#Layer8_0_MEMBER_0_MEMBER_25_FILL"/>
</g>

<g transform="matrix( 0.242523193359375, 0, 0, 0.242523193359375, 170.45,7.95) ">
<use xlink:href="#Layer8_0_MEMBER_0_MEMBER_26_FILL"/>
</g>

<g transform="matrix( 0.242523193359375, 0, 0, 0.242523193359375, 170.45,7.95) ">
<use xlink:href="#Layer8_0_MEMBER_0_MEMBER_27_FILL"/>
</g>

<g transform="matrix( 0.242523193359375, 0, 0, 0.242523193359375, 170.45,7.95) ">
<use xlink:href="#Layer8_0_MEMBER_0_MEMBER_28_FILL"/>
</g>

<g transform="matrix( 0.242523193359375, 0, 0, 0.242523193359375, 170.45,7.95) ">
<use xlink:href="#Layer8_0_MEMBER_0_MEMBER_29_FILL"/>
</g>

<g transform="matrix( 0.242523193359375, 0, 0, 0.242523193359375, 170.45,7.95) ">
<use xlink:href="#Layer8_0_MEMBER_0_MEMBER_30_FILL"/>
</g>

<g transform="matrix( 0.242523193359375, 0, 0, 0.242523193359375, 170.45,7.95) ">
<use xlink:href="#Layer8_0_MEMBER_0_MEMBER_31_FILL"/>
</g>

<g transform="matrix( 0.242523193359375, 0, 0, 0.242523193359375, 170.45,7.95) ">
<use xlink:href="#Layer8_0_MEMBER_0_MEMBER_32_FILL"/>
</g>

<g transform="matrix( 0.242523193359375, 0, 0, 0.242523193359375, 170.45,7.95) ">
<use xlink:href="#Layer8_0_MEMBER_0_MEMBER_33_FILL"/>
</g>

<g transform="matrix( 0.242523193359375, 0, 0, 0.242523193359375, 170.45,7.95) ">
<use xlink:href="#Layer8_0_MEMBER_0_MEMBER_34_FILL"/>
</g>

<g transform="matrix( 0.242523193359375, 0, 0, 0.242523193359375, 170.45,7.95) ">
<use xlink:href="#Layer8_0_MEMBER_0_MEMBER_35_FILL"/>
</g>

<g transform="matrix( 0.242523193359375, 0, 0, 0.242523193359375, 170.45,7.95) ">
<use xlink:href="#Layer8_0_MEMBER_0_MEMBER_36_FILL"/>
</g>

<g transform="matrix( 0.242523193359375, 0, 0, 0.242523193359375, 170.45,7.95) ">
<use xlink:href="#Layer8_0_MEMBER_0_MEMBER_37_FILL"/>
</g>

<g transform="matrix( 0.242523193359375, 0, 0, 0.242523193359375, 170.45,7.95) ">
<use xlink:href="#Layer8_0_MEMBER_0_MEMBER_38_FILL"/>
</g>

<g transform="matrix( 0.242523193359375, 0, 0, 0.242523193359375, 170.45,7.95) ">
<use xlink:href="#Layer8_0_MEMBER_0_MEMBER_39_FILL"/>
</g>

<g transform="matrix( 0.242523193359375, 0, 0, 0.242523193359375, 170.45,7.95) ">
<use xlink:href="#Layer8_0_MEMBER_0_MEMBER_40_FILL"/>
</g>

<g transform="matrix( 1, 0, 0, 1, 302.35,278.75) ">
<g transform="matrix( -0.41363525390625, -0.110809326171875, -0.110809326171875, 0.41363525390625, 45.85,19.2) ">
<g id="ikNode_1" transform="matrix( 1, 0, 0, 1, 14.5,19.6) ">
<g transform="matrix( 1, 0, 0, 1, 0,0) ">
<use xlink:href="#r_arm_0_Layer0_0_FILL"/>
</g>
</g>

<g transform="matrix( 1, 0, 0, 1, 0,0) ">
<g transform="matrix( 1, 0, 0, 1, -495.3,-715.4) ">
<use xlink:href="#r_hand_0_Layer0_0_FILL"/>

<use xlink:href="#r_hand_0_Layer0_0_1_STROKES"/>
</g>
</g>
</g>

<g transform="matrix( 1, 0, 0, 1, -302.35,-278.75) ">
<use xlink:href="#phone_arm_0_Layer3_1_MEMBER_0_FILL"/>
</g>

<g transform="matrix( 0.242523193359375, 0, 0, 0.242523193359375, -131.9,-270.8) ">
<use xlink:href="#phone_arm_0_Layer3_1_MEMBER_1_FILL"/>
</g>

<g transform="matrix( 0.242523193359375, 0, 0, 0.242523193359375, -131.9,-270.8) ">
<use xlink:href="#phone_arm_0_Layer3_1_MEMBER_2_FILL"/>
</g>
</g>

<g transform="matrix( -0.42822265625, 0, 0, 0.42822265625, 563.35,-26.25) ">
<use xlink:href="#Layer6_0_FILL"/>
</g>

<g transform="matrix( -0.42822265625, 0, 0, 0.42822265625, 563.35,-26.25) ">
<use xlink:href="#Layer6_1_FILL"/>
</g>

<g transform="matrix( -0.42822265625, 0, 0, 0.42822265625, 563.35,-26.25) ">
<use xlink:href="#Layer6_2_FILL"/>
</g>

<g transform="matrix( -0.42822265625, 0, 0, 0.42822265625, 563.35,-26.25) ">
<use xlink:href="#Layer6_3_FILL"/>
</g>

<g transform="matrix( -0.42822265625, 0, 0, 0.42822265625, 563.35,-26.25) ">
<use xlink:href="#Layer6_4_FILL"/>
</g>

<g transform="matrix( -0.42822265625, 0, 0, 0.42822265625, 563.35,-26.25) ">
<use xlink:href="#Layer6_5_FILL"/>
</g>

<g transform="matrix( 1, 0, 0, 1, 293.65,285.05) ">
<g transform="matrix( -0.42822265625, 0, 0, 0.42822265625, 269.7,-311.3) ">
<use xlink:href="#Symbol_1_0_Layer0_0_FILL"/>
</g>
</g>

<g transform="matrix( 1, 0, 0, 1, 254.75,286.85) ">
<g transform="matrix( -0.42822265625, 0, 0, 0.42822265625, 308.6,-313.1) ">
<use xlink:href="#Symbol_2_0_Layer0_0_FILL"/>
</g>
</g>

<g transform="matrix( -0.42822265625, 0, 0, 0.42822265625, 302.35,295.75) ">
<g transform="matrix( 1, 0, 0, 1, -609.5,-752.4) ">
<use xlink:href="#eyes_0_Layer0_0_FILL"/>
</g>

<g transform="matrix( 1, 0, 0, 1, -609.5,-752.4) ">
<use xlink:href="#eyes_0_Layer0_1_FILL"/>
</g>
</g>

<g transform="matrix( -0.42822265625, 0, 0, 0.42822265625, 292.2,306.9) ">
<g transform="matrix( 1, 0, 0, 1, 0,0) ">
<use xlink:href="#mouth_0_Layer0_0_FILL"/>
</g>
</g>

<g transform="matrix( -0.42822265625, 0, 0, 0.42822265625, 237.95,317.7) ">
<g transform="matrix( 1, 0, 0, 1, 12.4,0) ">
<g transform="matrix( 1, 0, 0, 1, 0,0) ">
<use xlink:href="#l_arm_0_Layer0_0_FILL"/>
</g>
</g>

<g transform="matrix( 1, 0, 0, 1, 0,59.3) ">
<g transform="matrix( 1, 0, 0, 1, -759.8,-862.9) ">
<use xlink:href="#l_hand_0_Layer0_0_FILL"/>

<use xlink:href="#l_hand_0_Layer0_0_1_STROKES"/>
</g>
</g>
</g>

<g transform="matrix( 0.242523193359375, 0, 0, 0.242523193359375, 170.45,7.95) ">
<use xlink:href="#Layer0_0_MEMBER_0_MEMBER_0_FILL"/>
</g>

<g transform="matrix( 0.242523193359375, 0, 0, 0.242523193359375, 170.45,7.95) ">
<use xlink:href="#Layer0_0_MEMBER_0_MEMBER_1_FILL"/>
</g>

<g transform="matrix( 0.242523193359375, 0, 0, 0.242523193359375, 170.45,7.95) ">
<use xlink:href="#Layer0_0_MEMBER_0_MEMBER_2_FILL"/>
</g>

<g transform="matrix( 0.242523193359375, 0, 0, 0.242523193359375, 170.45,7.95) ">
<use xlink:href="#Layer0_0_MEMBER_0_MEMBER_3_FILL"/>
</g>

<g transform="matrix( 0.242523193359375, 0, 0, 0.242523193359375, 170.45,7.95) ">
<use xlink:href="#Layer0_0_MEMBER_0_MEMBER_4_FILL"/>
</g>

<g transform="matrix( 0.242523193359375, 0, 0, 0.242523193359375, 170.45,7.95) ">
<use xlink:href="#Layer0_0_MEMBER_0_MEMBER_5_FILL"/>
</g>
</svg>
