
<svg xmlns="http://www.w3.org/2000/svg" version="1.1" xmlns:xlink="http://www.w3.org/1999/xlink" preserveAspectRatio="none" x="0px" y="0px" width="550px" height="400px" viewBox="0 0 550 400">
<defs>
<g id="Layer0_0_FILL">
<path fill="#000000" stroke="none" d="
M 397.1 505.35
L 403.75 539.85 407 574.1 406.85 575.85 407.35 579.25 407.25 588.25 407.85 594.1 410 595.5 410.6 596 439.75 596 440.85 595.6 441.5 595.1 441.25 593.6 440.1 591.85 437.85 590.35 432.6 585.75 430.85 583.1 430 580.25 427.1 564.85 421.1 537.75 410.75 502.5 410.25 501.25 408.85 501.25 401.25 502.6 397.25 504 397.1 505.35
M 320.75 501.85
L 319.5 509.6 314.1 535.85 310.35 581
Q 309 583.75 308.1 584
L 295.85 591.75 294.5 593.6 294.6 595.35 296.1 595.85 296.35 596 329.1 596 332.75 593.75 333.1 584.6 331.25 542.1 331.5 535.85 334.25 505.1 334.25 503.75 332.85 503 327.35 501.5 321 500.75 320.75 501.85
M 197.75 388
L 197 394.75 197.25 404.5 198.1 412.25 200.85 451.35 201 452 210.25 452 212.6 451.5 212.6 450.75 210.35 416.5 206.75 409.75 201.75 398.85 197.75 388
M 535.25 355
L 534.85 354 534.5 354.75 533.1 364.85 533.25 366.1 532.85 366.5 532.6 368.25 532.85 368.75 532.25 370.6 532.5 371.1 532 372.1 531.6 375.6 530 383 530 384.6 529.25 386.85 529.35 388.25 528.75 389.85 528.35 394.25 528.5 394.75 528.6 395.6 528.75 396.1 528.75 396.35 528.85 396.75 528.85 397.1 529.35 400.1 529.35 400.35 529.5 401.5 529.5 402.85 530.5 411.35 529.6 421.35 527.35 436.85 524.6 463.25 529.25 462.75 536.5 462.85 541.35 421.5 542.1 412.1 541.25 399.35 537.85 374.25 535.25 355
M 274.6 252.75
L 273.85 253 273.75 253 273.35 253.25 273.1 253.35 273 253.5 272.35 253.85 269.6 256.85 268.5 259.1 268.35 259.35 267.75 261.5 267.85 263.75 268.25 265.85
Q 269.5 272 277.25 270.85 284.75 267.85 286.75 262.25 288.35 254.6 284.35 253.25
L 280.1 251.85
Q 277.35 251.5 274.85 252.6
L 274.6 252.75
M 291.6 222.25
L 297.35 221 306.6 221.1 307.35 220.35 307.35 219.5 306.75 218.75
Q 297 212.25 285.5 219.1
L 279.5 222.6 273.6 227.6
Q 267.6 232.75 271 234.85
L 273 233.85 276.25 230.5 282.6 226.1 291.6 222.25
M 453.5 234.5
L 449 230 443.35 226.25 437.6 224 432 222.75 426.1 222.25 419.25 223.1 416.75 224 416.35 225.25 416.75 225.85 417.85 226.35 425.6 227.5
Q 442.6 228 452 237.1 455.1 237.1 453.5 234.5
M 433.75 271.35
Q 443.5 270.5 439.6 259 432.75 250.5 424.85 254.75 419.35 258.85 423.35 265.35 428.85 271.75 433.75 271.35 Z"/>

<path fill="#FFFFFF" stroke="none" d="
M 524.6 463.25
Q 513.5 465.35 514 468.75
L 513.75 471.25 514.6 476.1 515 484.5 505.25 511 504.5 515.6
Q 507.5 524.85 513.85 520
L 512.6 530 508.75 541.6 508.25 546
Q 510.75 562.25 518.1 560.35 527.6 556.25 533.6 543.1
L 538.25 533 540.35 527.1 542.75 517.35 543.6 505.5 544.35 478 543.75 466.1 542.75 464.75 541.5 464 536.5 462.85 529.25 462.75 524.6 463.25
M 201 452
L 200.85 451.35 190.85 452.5 190.5 453.6 191.1 463.75 196.1 502.1 196.85 505.6
Q 208.25 539.6 222 545.25 235.75 550.35 247.85 522.35
L 248.25 520.5 248.1 518.5 247.25 515.85 245.85 513.25 240.25 505.5 236.1 497.1 224.85 465.1
Q 222.5 458.35 223.1 450.85
L 212.6 450.75 212.6 451.5 210.25 452 201 452 Z"/>

<path fill="#FF9400" stroke="none" d="
M 524.5 414.1
L 524.6 413.85 524.75 413.6 524.75 413.35 521.35 419.5 524.5 414.1
M 191.6 320.6
L 191.5 321.25
Q 187.35 359.5 197.75 388
L 201.75 398.85 206.75 409.75 210.35 416.5
Q 233.1 453.35 258.25 471
L 267.85 477.85 276.5 483.25 290 490.5 301.35 495.5 309 498.35 320.75 501.85 321 500.75 327.35 501.5 332.85 503 334.25 503.75 334.25 505.1 344.5 506.75 353.25 507.6 364.85 508.1 381.35 507.5 397.1 505.35 397.25 504 401.25 502.6 408.85 501.25 410.25 501.25 410.75 502.5 427 497.6 441.5 491.75 459.1 482.6 474 472.85 487.6 461.85 494 455.85 502 447.35 512.35 434.25 516.25 428.5 520.35 421.35 519.85 421.5 516.1 427.75 514.35 429.6 511.6 433.85 510.5 435.1 509.85 435.25 509.6 436.1 509 436.35 508 438.1
Q 507.25 438 505.25 441.25
L 504.1 441.75 501.5 444.6 500.5 446.25 498.5 447.25 497.6 448.6
Q 494.6 452 493.75 451.5
L 488.75 456.25 486.85 457.1 482.25 461.25 481.75 461.35 481.5 461 479.1 463.1
Q 476.35 465.35 475.75 464.85
L 471.85 467.75
Q 465.85 471.6 464.85 471.25
L 460.25 474.35 459.35 474.1 456 476.25
Q 450.6 477.25 447.1 480.1
L 445.5 480.25 442.75 481.85 441.85 481.6 439.35 483
Q 438.1 482.25 431 485.85
L 430.6 485.6 429 486.25 427.5 486.25 425.5 487.25 422.1 487.6 420.35 488.5 416.5 489 414.25 490 413.75 489.75
Q 412.35 490.6 409.5 490.5
L 407.1 491.35
Q 402.75 491.25 402.35 491.85
L 402.1 491.6 400.1 492.25 387.75 493.25 386.75 493.6 385.85 493.1 383.5 493.6 382.6 493.35 381.35 493.75 380.6 493.25 379.85 493.6 372.5 493.5 371.75 493.85
Q 368.85 492.5 361.35 493.35
L 357.75 492.35 357 492.85 347.6 491.1 340.25 490.35 339.85 489.75
Q 336.5 490 333.1 488.1
L 330.5 488.1 330 487.5 328.75 487.5 327.85 486.85
Q 323.75 486.5 321.5 485
L 320.25 485.1 319.1 484.35 318.5 484.5 317 483.85 316.35 483.25
Q 313.35 483.1 309.75 480.75
L 308.35 480.85 303.35 478.35 302.6 478.35
Q 297.85 476.75 297.75 476
L 296.6 475.85 295.25 474.6
Q 290.5 473 289.1 471.6
L 287.25 471.1 285.5 469.6 284.5 469.5 283.1 468.35 282 468.25
Q 281.25 466.35 276.85 465.25 275.25 463 273.5 463
L 271.6 461.1 270.85 461.1 270 460.6 269.85 460.1 268.25 459.75 265.85 457.35 264.75 457.25
Q 259.1 451.75 257.85 452.25
L 255.35 449.6 254.5 449.6
Q 250.6 444.6 249.35 445.25
L 247.35 442.75 246.35 442.1 246 442.35 242.75 438.5
Q 241.35 439 239 435
L 237.75 434.75
Q 234.6 429.25 233.1 429.85
L 229.6 424.85 228.5 424.75 224.25 418.25 223.1 418 220.25 413.35 220 412.85 219.75 413.1 219 412.75 216.5 408.6 216 407.1 215.35 406.6 214.75 406.85 210.75 399 209.85 398.75
Q 207.25 391.1 205.6 391.1
L 203 384.1 202.1 383.75 199.6 376.35 199.6 375.5 198.5 374.75
Q 188.85 349.75 191.6 320.6
M 524.85 413.1
L 524.75 413.25 525 413.1 524.85 413.1
M 525.1 412.85
L 525 412.85 524.85 413.1 525.1 412.85 Z"/>

<path fill="#DD0026" stroke="none" d="
M 491.5 234.6
L 491.75 234.75 491.75 234.6 491.5 234.6
M 325.85 294.6
L 325.75 295.25 326 295.85 328.25 297 328.35 297.1 328.6 297.1 328.85 297.25 329 297.25 329.5 297.5 335 299.6 335.1 299.6 335.6 299.85 335.75 299.85 335.85 300 336.25 300 339.35 300.75 339.5 300.75 342.6 301.25
Q 369.25 304 377.75 300.1
L 379.25 299.6 380.75 298.35
Q 385.25 294.5 378.75 293.85
L 371 293.75 363.75 294.85 353 295.25 343.6 294.35 332.85 292.6 328.25 293.25 326.1 294.25 325.85 294.6 Z"/>

<path fill="#FFBE00" stroke="none" d="
M 352.1 180.25
L 333.75 182.5 315.25 186.75 305 190 287.5 197.1 275.1 203.5 261.6 211.85 253.5 217.75 244.5 225.1 238.6 230.5 229.1 240.35 218.6 253.5 211.35 264.5 206.35 273.5 203.1 280.25 198.1 292.85 193.75 308.25 192.25 315.85 192.25 316.5 192.1 316.75 192.1 317.25 192 317.5 192 318.1 191.85 318.35 191.85 318.85 191.75 319.35 191.75 319.75 191.6 320.35 191.6 320.6
Q 188.85 349.75 198.5 374.75
L 199.6 375.5 199.6 376.35 202.1 383.75 203 384.1 205.6 391.1
Q 207.25 391.1 209.85 398.75
L 210.75 399 214.75 406.85 215.35 406.6 216 407.1 216.5 408.6 219 412.75 219.75 413.1 220 412.85 220.25 413.35 223.1 418 224.25 418.25 228.5 424.75 229.6 424.85 233.1 429.85
Q 234.6 429.25 237.75 434.75
L 239 435
Q 241.35 439 242.75 438.5
L 246 442.35 246.35 442.1 247.35 442.75 249.35 445.25
Q 250.6 444.6 254.5 449.6
L 255.35 449.6 257.85 452.25
Q 259.1 451.75 264.75 457.25
L 265.85 457.35 268.25 459.75 269.85 460.1 270 460.6 270.85 461.1 271.6 461.1 273.5 463
Q 275.25 463 276.85 465.25 281.25 466.35 282 468.25
L 283.1 468.35 284.5 469.5 285.5 469.6 287.25 471.1 289.1 471.6
Q 290.5 473 295.25 474.6
L 296.6 475.85 297.75 476
Q 297.85 476.75 302.6 478.35
L 303.35 478.35 308.35 480.85 309.75 480.75
Q 313.35 483.1 316.35 483.25
L 317 483.85 318.5 484.5 319.1 484.35 320.25 485.1 321.5 485
Q 323.75 486.5 327.85 486.85
L 328.75 487.5 330 487.5 330.5 488.1 333.1 488.1
Q 336.5 490 339.85 489.75
L 340.25 490.35 347.6 491.1 357 492.85 357.75 492.35 361.35 493.35
Q 368.85 492.5 371.75 493.85
L 372.5 493.5 379.85 493.6 380.6 493.25 381.35 493.75 382.6 493.35 383.5 493.6 385.85 493.1 386.75 493.6 387.75 493.25 400.1 492.25 402.1 491.6 402.35 491.85
Q 402.75 491.25 407.1 491.35
L 409.5 490.5
Q 412.35 490.6 413.75 489.75
L 414.25 490 416.5 489 420.35 488.5 422.1 487.6 425.5 487.25 427.5 486.25 429 486.25 430.6 485.6 431 485.85
Q 438.1 482.25 439.35 483
L 441.85 481.6 442.75 481.85 445.5 480.25 447.1 480.1
Q 450.6 477.25 456 476.25
L 459.35 474.1 460.25 474.35 464.85 471.25
Q 465.85 471.6 471.85 467.75
L 475.75 464.85
Q 476.35 465.35 479.1 463.1
L 481.5 461 481.75 461.35 482.25 461.25 486.85 457.1 488.75 456.25 493.75 451.5
Q 494.6 452 497.6 448.6
L 498.5 447.25 500.5 446.25 501.5 444.6 504.1 441.75 505.25 441.25
Q 507.25 438 508 438.1
L 509 436.35 509.6 436.1 509.85 435.25 510.5 435.1 511.6 433.85 514.35 429.6 516.1 427.75 519.85 421.5 520.35 421.35 521.35 419.5 524.75 413.35 524.75 413.25 524.85 413.1 525 412.85 525.1 412.6 525.25 412.35 525.35 412.1 525.5 411.85 525.6 411.6 525.75 411.35 525.85 411.1 526 410.85 526.1 410.6 526.25 410.35 526.6 409.5 526.75 409.25 526.85 409 527 408.75 527.35 407.85 527.5 407.6 529.5 402.85 529.5 401.5 529.35 400.35 529.35 400.1 528.85 397.1 528.85 396.75 528.75 396.35 528.75 396.1 528.6 395.6 528.5 394.75 528.35 394.25 528.75 389.85 529.35 388.25 529.25 386.85 530 384.6 530 383 531.6 375.6 532 372.1 532.5 371.1 532.25 370.6 532.85 368.75 532.6 368.25 532.85 366.5 533.25 366.1 533.1 364.85 534.5 354.75 534.85 354 535.25 355 537.85 374.25 539.6 360.75 539.75 360.5 540.1 341.25 540 340.85 538.25 324.35 538 322.85 536 313.25 531.75 298.75 527.75 288.35 522.1 276.5 522 276.25 514.75 263.75 502.75 247 491.75 234.75 491.5 234.6 488.6 231.75 488.5 231.6 488.35 231.5 488.25 231.35 479.5 223.35 463 210.75 444.1 199.5 426.5 191.5 413.25 187 404.6 184.75 383.1 180.85 382.25 180.85 380.75 180.6 371.1 180 360.25 179.85 352.1 180.25
M 439.6 259
Q 443.5 270.5 433.75 271.35 428.85 271.75 423.35 265.35 419.35 258.85 424.85 254.75 432.75 250.5 439.6 259
M 449 230
L 453.5 234.5
Q 455.1 237.1 452 237.1 442.6 228 425.6 227.5
L 417.85 226.35 416.75 225.85 416.35 225.25 416.75 224 419.25 223.1 426.1 222.25 432 222.75 437.6 224 443.35 226.25 449 230
M 325.75 295.25
L 325.85 294.6 326.1 294.25 328.25 293.25 332.85 292.6 343.6 294.35 353 295.25 363.75 294.85 371 293.75 378.75 293.85
Q 385.25 294.5 380.75 298.35
L 379.25 299.6 377.75 300.1
Q 369.25 304 342.6 301.25
L 339.5 300.75 339.35 300.75 336.25 300 335.85 300 335.75 299.85 335.6 299.85 335.1 299.6 335 299.6 329.5 297.5 329 297.25 328.85 297.25 328.6 297.1 328.35 297.1 328.25 297 326 295.85 325.75 295.25
M 297.35 221
L 291.6 222.25 282.6 226.1 276.25 230.5 273 233.85 271 234.85
Q 267.6 232.75 273.6 227.6
L 279.5 222.6 285.5 219.1
Q 297 212.25 306.75 218.75
L 307.35 219.5 307.35 220.35 306.6 221.1 297.35 221
M 273.85 253
L 274.6 252.75 274.85 252.6
Q 277.35 251.5 280.1 251.85
L 284.35 253.25
Q 288.35 254.6 286.75 262.25 284.75 267.85 277.25 270.85 269.5 272 268.25 265.85
L 267.85 263.75 267.75 261.5 268.35 259.35 268.5 259.1 269.6 256.85 272.35 253.85 273 253.5 273.1 253.35 273.35 253.25 273.75 253 273.85 253 Z"/>

<path fill="#00792B" stroke="none" d="
M 382.6 109.25
L 375.25 109.35
Q 336.6 113.75 333.85 119.85
L 333.1 123.5 334.6 127.6
Q 348.6 146.1 373.1 158.35
L 373.25 160.35 371.1 180 380.75 180.6 382.25 180.85 384.85 164.75 404.6 184.75 413.25 187 426.5 191.5 444.1 199.5 463 210.75 479.5 223.35 488.25 231.35 488.35 231.5 488.5 231.6 488.6 231.75 491.5 234.6 491.75 234.6
Q 494.85 234.25 496.75 233
L 499 229.5
Q 489.1 229.5 486.25 227.35
L 484.75 226.35 480.35 222.1 476.25 217.1 471 209.75 465.25 200.25 460.5 191 456.5 182 447.75 159.5 437.25 129.6 435.25 125.5 431.25 120 426.35 117 420.6 115 410.75 112.6 396.5 110.1 382.6 109.25
M 525.1 412.6
L 525 412.85 525.25 412.6 525.1 412.6
M 525.35 412.35
L 525.25 412.35 525.1 412.6 525.35 412.35
M 525.5 412.1
L 525.35 412.1 525.25 412.35 525.5 412.1 Z"/>
</g>
</defs>

<g transform="matrix( 0.75006103515625, 0, 0, 0.75006103515625, 1.7,-64) ">
<use xlink:href="#Layer0_0_FILL"/>
</g>
</svg>
