<?xml version="1.0" encoding="UTF-8" standalone="no"?>
<svg
   xmlns:dc="http://purl.org/dc/elements/1.1/"
   xmlns:cc="http://creativecommons.org/ns#"
   xmlns:rdf="http://www.w3.org/1999/02/22-rdf-syntax-ns#"
   xmlns:svg="http://www.w3.org/2000/svg"
   xmlns="http://www.w3.org/2000/svg"
   version="1.1"
   id="svg3409"
   viewBox="0 0 3499.4299 1718"
   width="987.61688mm"
   height="484.85779mm">
  <defs
     id="defs3415">
    <style
       id="style3421">.cls-1{fill:#1db9e2;}.cls-2{fill:#7dd2f1;}.cls-3{fill:#34b2e6;}</style>
  </defs>
  <metadata
     id="metadata3411">
    <rdf:RDF>
      <cc:Work
         rdf:about="">
        <dc:format>image/svg+xml</dc:format>
        <dc:type
           rdf:resource="http://purl.org/dc/dcmitype/StillImage" />
        <dc:title></dc:title>
      </cc:Work>
    </rdf:RDF>
  </metadata>
  <g
     id="Layer_2"
     data-name="Layer 2">
    <g
       id="Layer_2-2"
       data-name="Layer 2">
      <rect
         style="fill:#1db9e2"
         y="0"
         x="0"
         class="cls-1"
         width="3494"
         height="1718"
         id="rect3427" />
      <path
         style="fill:#7dd2f1"
         class="cls-2"
         d="m 723.77,534.74 -20.84,13 9,-22.89 -24.28,-3.53 21.62,-11.63 -16.38,-18.42 23.73,5 0,-24.06 14.91,18.79 14.81,-18.85 0,24.11 23.76,-5 -16.38,18.37 21.72,11.68 -24.44,3.45 9.19,22.94 -20.93,-13 -7.73,23.3 z"
         id="path3429" />
      <path
         style="fill:#7dd2f1"
         class="cls-2"
         d="M 444,110 562.22,137.65 525,23.37 528.1,20.88 607.2,112.2 641.85,3.51 647.7,3 659.12,116.88 757.3,45.78 759.44,48.16 696.62,152.35 816,152 l 1.75,4.09 -110.42,47.1 93.94,68 -1.59,5 -113.36,-26.19 34.73,109.7 -4.81,2.64 -75.6,-86.76 L 604.53,389 600.08,388.83 589.34,270 l -93.75,68.19 -4,-3.66 59.62,-99.09 -120.72,0 -0.46,-3.88 110.87,-47.05 -98.21,-71.2 z"
         id="path3431" />
      <path
         style="fill:#7dd2f1"
         class="cls-2"
         d="m 951.63,402.46 -73.15,17.3 51.24,-54.76 -51.5,-55 73.47,17.28 21.64,-71.94 22.1,71.85 68.26,-16.29 1.71,2.33 -48.63,51.81 49,51.34 -1,2.42 -69.39,-16.15 -22,71.5 z m 36,-13 46.49,10.71 -32.31,-35.49 32.47,-35.13 -46.42,10.62 -14.3,-44.37 -14.66,44.42 -46.85,-10.47 33.15,35.17 -32.61,35.08 46.19,-10.14 14.59,44.84 z"
         id="path3433" />
      <path
         style="fill:#7dd2f1"
         class="cls-2"
         d="m 2805.68,217.09 -11,36.91 -1.14,-0.25 6.46,-38.47 -22.8,25.08 -1.2,-1 17.3,-25 -0.75,-1.44 -27.61,10.88 -0.67,-1.48 28.05,-16 -37.21,-2.52 0,-1.06 37.42,-2.36 -32.74,-18.55 0.5,-1.08 34.59,14 -17.33,-25.17 1.27,-1.23 21.19,22.8 -6.48,-38.71 1,-0.28 11.17,37.35 10.3,-34.51 1.21,0.2 -5.35,35.66 23.14,-25.5 1.16,0.81 -19.66,28.59 32,-12.71 0.58,1.29 -27.67,15.61 0.57,1.66 34.68,2.22 0,1.11 -34.66,2.12 -0.42,1.67 28.69,16.27 -0.53,1.27 -33.11,-13.27 16.37,24 -1.29,1.19 -19.83,-21 5.53,35.45 -1.24,0.3 z"
         id="path3435" />
      <path
         style="fill:#7dd2f1"
         class="cls-2"
         d="m 3082.1,184.55 c 21.06,-16.1 42.64,-33.38 65.08,-49.44 12.47,-8.93 18.76,-18.15 16.88,-34.84 -3.16,-28 -3.14,-56.41 -4.62,-88.13 22.42,15.33 44.16,27.85 63,43.76 18.56,15.65 35.17,17.88 57.05,7.07 21.88,-10.81 45.78,-17.43 68,-25.61 -7.48,29.31 -14.31,58.36 -22.5,87 -3.18,11.13 -3.07,19.06 5.27,28.58 19.72,22.51 37.74,46.52 58.33,72.29 -33.27,0.93 -63.7,2.49 -94.12,2.26 -11.69,-0.09 -17.75,4.1 -23.63,13.59 -15.76,25.47 -32.68,50.21 -51.1,78.22 -10.66,-30.3 -21.06,-57.53 -29.74,-85.3 -4.17,-13.31 -11.44,-19.38 -24.82,-23 -27.79,-7.5 -54.94,-17.34 -83.08,-26.45 z m 87.8,-153.44 c 1.53,29.9 3.7,55.79 3.63,81.68 0,7.23 -4.95,16.49 -10.61,21.28 -19.53,16.54 -40.37,31.52 -62.32,48.32 26.9,7.88 50.87,15.78 75.32,21.68 11.29,2.72 16.51,8.06 20,18.76 7.8,24.23 17,48 26.71,74.93 14.72,-22.6 28.15,-41.28 39.41,-61.19 7.87,-13.91 17.56,-19.46 33.55,-18.91 23.32,0.8 46.73,-0.76 73.17,-1.39 -18.4,-23.4 -35.31,-43.8 -50.71,-65.27 -3.91,-5.46 -5.5,-14.94 -3.92,-21.57 6.07,-25.48 13.87,-50.55 21.63,-77.94 -26.17,10 -50.19,18.14 -73.28,28.4 -11,4.89 -18.27,2.85 -27.18,-3.64 -20.39,-14.83 -41.44,-28.7 -65.39,-45.15 z"
         id="path3437" />
      <path
         style="fill:#7dd2f1"
         class="cls-2"
         d="M 2765.57,759.72 3082.26,652.42 2809,479.59 l 4.48,-8.24 284.13,140.18 -57.07,-254.1 11.68,-4.2 88.13,252.2 180.5,-283.85 5.45,3.14 -146.94,300.4 317.64,-72.69 2.43,7.52 -306.28,104 265.85,167.72 -4,8.71 -287.42,-140.67 59.42,270.49 -11.11,3.05 -88.61,-255 -176.48,278.87 -5.36,-3 146.47,-300.43 -324.15,73.57 z"
         id="path3439" />
      <path
         style="fill:#7dd2f1"
         class="cls-2"
         d="m 1273.81,930 271.06,-326.92 -177.76,-23.19 176.17,-30.18 -237.65,-289 8.6,-10.74 289.92,236.03 31.35,-184.95 21.92,189.83 351.45,-293.88 4.39,2.54 -291.4,350.09 184.26,31.37 -184,17.45 227.21,287.46 -9.66,9.69 -280.91,-226.96 -23.87,181.66 -29.81,-181.15 -324.15,266.26 z"
         id="path3441" />
      <path
         style="fill:#7dd2f1"
         class="cls-2"
         d="m 686,494.42 c -84,40.33 -161,75.34 -235.69,114.75 -14.37,7.58 -28.62,33 -27.61,49.19 C 428,743.69 438.25,828.71 447.19,918 409.9,840.26 372,766.81 339.57,691 325.15,657.25 305,650.26 272.9,654.09 190.66,663.93 108.28,672.5 21.28,682.09 100,644.37 174.6,606.68 251,573 283.52,558.67 291.81,540.2 287.35,506.1 276.64,424.1 269.95,341.66 261.28,255.78 299,335 336.83,410.58 371,487.71 c 13.69,30.88 32.12,37.48 63.44,33.5 C 514.8,511 595.53,503.83 686,494.42 Z M 375.29,550.17 291.58,350.29 c 1.31,56.06 5.2,111.86 18.72,165.21 11.12,43.9 -2.71,60.33 -42.83,73.35 -50.88,16.52 -99.27,40.7 -148.73,61.58 l 2.7,7.22 211.15,-32.65 83.74,195.8 7.23,-3.19 -31.38,-209.5 199.22,-82.44 -1.64,-7.53 z"
         id="path3443" />
      <path
         style="fill:#7dd2f1"
         class="cls-2"
         d="m 2454.59,245.21 c 5.15,51.53 10.35,95.8 13.6,140.22 1.14,15.57 6.39,22.15 21.85,25.28 36.42,7.36 72.43,16.74 108.57,25.46 7.12,1.72 14.07,4.12 26.6,7.84 -46,20.41 -86.36,39.26 -127.56,56 -13.84,5.64 -17.83,12.5 -16.39,26.71 4.46,44.27 7.77,88.65 7.13,135.7 l -103,-113.77 -148.36,60.86 c 24.84,-42.77 47.21,-82.89 71.34,-121.92 7.92,-12.82 6.91,-20.74 -2.71,-31.53 -29.65,-33.26 -58.31,-67.41 -87.35,-101.22 l 2.42,-5.76 c 35,8 70,16.07 105.09,23.91 46.3,10.35 46.11,10.14 70.64,-31.54 18,-30.45 36.6,-60.6 58.13,-96.24 z M 2442.84,297 c -20.86,33.77 -39,60.85 -54.59,89.32 -7.51,13.7 -15.47,15.26 -29.09,11.77 -31.2,-8 -62.75,-14.57 -94.16,-21.73 a 489,489 0 0 0 57.62,74.19 c 12.67,13.56 14.66,24.05 3.52,40.41 -17.2,25.22 -31,52.74 -49.55,85 36.81,-15.25 67.7,-27.27 97.85,-40.91 11.91,-5.39 18.78,-3.43 27,6.23 21.35,25.12 43.8,49.31 65.81,73.87"
         id="path3445" />
      <path
         style="fill:#7dd2f1"
         class="cls-2"
         d="m 2428.29,359.89 c 2.45,24.45 5,42.36 5.82,60.34 0.62,12.89 6,18.61 18.71,20.65 a 188.78,188.78 0 0 1 51.61,15.78 c -16,7.09 -31.92,14.51 -48.12,21.16 -11.29,4.64 -16.09,11 -14.07,24.24 2.69,17.68 2.55,35.79 3.86,57.69 l -50.44,-55.21 -69.76,28.17 36.63,-65.62 -43,-51.94 1.55,-4.82 c 13.17,3 27,4.42 39.37,9.34 22.41,8.89 35,0.82 44.16,-19.62 5.52,-12.31 13.68,-23.44 23.68,-40.16 z M 2361,437.42 c 25.35,19.24 20.64,38.45 5.29,59.72 22.93,-12 42.14,-15.14 57.61,12.19 -3.85,-26.54 2.09,-44.42 31.3,-50.58 -31.42,-0.31 -38.47,-19 -39.83,-44.72 -10.2,27.47 -27,34.29 -54.37,23.39 z"
         id="path3447" />
    </g>
  </g>
</svg>
