<svg xmlns="http://www.w3.org/2000/svg" viewBox="0 0 2328.39 872.07"><defs><style>.cls-1{fill:#34b2e6;}.cls-2{fill:#009444;}.cls-3{fill:#231f20;}.cls-13,.cls-18,.cls-23,.cls-4,.cls-8{fill:#e8ecee;stroke:#231f20;stroke-miterlimit:10;}.cls-4{stroke-width:1.89px;}.cls-5{fill:#f7941d;}.cls-6{fill:#f36e24;}.cls-7{fill:#d35461;}.cls-8{stroke-width:1.95px;}.cls-9{fill:#ffd469;}.cls-10{fill:#fee96b;}.cls-11{fill:#b5c962;}.cls-12{fill:#cad86e;}.cls-13{stroke-width:2.05px;}.cls-14{fill:#afc671;}.cls-15{fill:#c6df91;}.cls-16{fill:#fff;}.cls-17{fill:#8b5e3c;}.cls-18{stroke-width:1.72px;}.cls-19{fill:#62b482;}.cls-20{fill:#77c69a;}.cls-21{fill:#f69592;}.cls-22{fill:#f7a4a5;}.cls-23{stroke-width:2.15px;}.cls-24{fill:#fee465;}.cls-25{fill:#ffd449;}.cls-26{fill:#754c29;}</style></defs><title>characters</title><g id="Layer_2" data-name="Layer 2"><g id="drinks_and_fruits" data-name="drinks and fruits"><ellipse class="cls-1" cx="1726.47" cy="778.51" rx="78.96" ry="10.82"/><path class="cls-2" d="M1842.95,530.08c11.71-4.44-31.22,20.32-66.35,16.24s-68.53-18.69-67-31.75,9.59-19.09,44.42-13C1788.23,507.61,1820.59,538.56,1842.95,530.08Z"/><polygon class="cls-2" points="1731.23 544.53 1725.46 544.23 1724.7 528.92 1732.38 530.3 1731.23 544.53"/><path class="cls-3" d="M1587.94,611.6c-21.45-14.58-27.46-33.53-32.62-27-1.78,2.25,14.66,27,37.88,38.55,22.46,11.19,32.24,12.9,34,10.65C1633.56,625.8,1609.39,626.18,1587.94,611.6Z"/><path class="cls-4" d="M1541.45,582.93c.17-10,8.13-18.66,18.12-18.12,6.67.36,8.9,5.38,13.6,12.2,2.46-5,4.17-6.82,9.19-5.06,2.63.92,2.91,6.16.75,11.39a31.37,31.37,0,0,1-4.59,7.6,2.48,2.48,0,0,1,.86.85c1.39,2.41-1.85,6.89-7.25,10s-10.9,3.69-12.29,1.27a2.82,2.82,0,0,1-.23-2h0C1549.2,600.85,1541.28,592.85,1541.45,582.93Z"/><path class="cls-3" d="M1724.73,787.25c5.95-.59,12.57-2.35,14.7-3.83,3.13-2.18,1.35-14,1.12-17.13l-3-39.91c-.23-3.09-3.63-2.27-7.83-2h0c-1.56,8-.22,44.31-3.45,46.55-12.6,8.72-27.23,15.75-15.64,16.6A61.78,61.78,0,0,0,1724.73,787.25Z"/><path class="cls-3" d="M1664.4,780.8c6,0,12.74-1.14,15-2.41,3.32-1.87,2.68-13.85,2.75-16.94l.84-40c.06-3.09-3.39-2.6-7.61-2.69h0c-2.31,7.8-4.44,44.09-7.87,46-13.37,7.48-28.61,13.08-17.15,15A61.78,61.78,0,0,0,1664.4,780.8Z"/><ellipse class="cls-5" cx="1711.92" cy="636.42" rx="104.09" ry="95.39"/><path class="cls-6" d="M1697.42,718.87c55.53,0,100.55-42,100.55-93.74,0-29.67-14.79-56.11-37.87-73.29,33.23,15.93,55.91,47.82,55.91,84.57,0,52.68-46.6,95.39-104.09,95.39-34.29,0-64.71-15.2-83.67-38.65A104.2,104.2,0,0,0,1697.42,718.87Z"/><circle class="cls-3" cx="1741.27" cy="614.6" r="6.05" transform="translate(1032.41 2319.67) rotate(-86.87)"/><circle class="cls-3" cx="1655.5" cy="605.76" r="6.05" transform="translate(960.16 2225.68) rotate(-86.87)"/><path class="cls-3" d="M1732.21,581.45c-.35,1.08,5.53-1,12,1.12s9.94,6.88,10.29,5.8-3.14-5.62-9.65-7.75S1732.56,580.37,1732.21,581.45Z"/><path class="cls-3" d="M1668.72,578.26c.17,1.12-5.16-1.4-11.93-.35s-11,5.12-11.18,4,4.09-5,10.86-6S1668.54,577.14,1668.72,578.26Z"/><path class="cls-7" d="M1672.33,635.55c1.53,6.07,8.63,11.37,19.42,11.48s18.07-5.06,19.65-11.09c2-7.46-1-10.56-19.42-11.48C1671.31,623.43,1670.81,629.51,1672.33,635.55Z"/><path class="cls-3" d="M1813.58,686.71c2.32,25.83-7.44,48.34.85,48.21,2.87,0,11.58-28.45,5.8-53.73-5.59-24.46-10.46-33.11-13.33-33.07C1796.73,648.28,1811.26,660.88,1813.58,686.71Z"/><path class="cls-4" d="M1795.46,715.34a21.58,21.58,0,0,1,10.49-5.15,3,3,0,0,1-1.52-2.44c.24-2.52,6.19-4,13.29-3.35s12.68,3.25,12.44,5.77c-.1,1.11-1.32,2-3.25,2.64,4.12,2.7,7.06,7.89,4.77,18.55-2.2,10.23-13.95,12.38-22.82,10.67-8.42-1.62-11-6.27-9.56-15.36-2.62,1.15-5.14,1.12-6.59-.33C1790.45,724,1791.68,719.12,1795.46,715.34Z"/><ellipse class="cls-1" cx="2133.17" cy="733.08" rx="78.96" ry="10.82"/><path class="cls-3" d="M2198.54,737.27c4-.46,12-2.52,10.39-8.86-6.28-24.46-10.53-102.46-10.53-102.46.06-6.55,5.55-28.54.28-28.59L2193.77,626c-5.27-.05-4.69,3.63-4.4,10.17,3.36,74.9-1.26,82.65-1.26,82.65C2133.72,739.66,2180.88,739.32,2198.54,737.27Z"/><path class="cls-3" d="M2147.15,736.21c4-.19,12.16-1.7,11-8.14-4.61-24.83-3.57-102.94-3.57-102.94.51-6.53,7.47-28.1,2.22-28.5l-6.84,28.28c-5.26-.41-4.93,3.31-5.08,9.85-1.72,75-6.85,82.37-6.85,82.37C2082.32,734.2,2129.4,737.05,2147.15,736.21Z"/><path class="cls-3" d="M2061.27,382.9c-8.36,40.39-3.7,58.5-12.13,66.9-5,5-7.52-18.59.29-56.44s28.69-67.6,32.38-66.84C2092.3,328.69,2067.73,351.68,2061.27,382.9Z"/><path class="cls-8" d="M2070.4,441.06a23.27,23.27,0,0,0-8.48-8.09,1.57,1.57,0,0,0,.27-.69c.27-2.54-6.34-5.33-14.77-6.22s-15.47.45-15.74,3c-.14,1.3,1.54,2.67,4.34,3.81a23.46,23.46,0,0,0-8.54,16.1c-1.27,12,6,22.58,16.12,23.65,17.83,1.88,15.07-6.94,16.34-18.93.14-1.32.23-2.64.26-3.93,3.41,4.77,7.92,7.27,10.72,5.68C2074.11,453.63,2073.88,447.19,2070.4,441.06Z"/><path class="cls-9" d="M2298.68,241a19.54,19.54,0,0,0-9.17-16.56,19.55,19.55,0,0,0-3.94-28.4,19.54,19.54,0,0,0-8.75-25.11l-.44-2a19.49,19.49,0,0,0-5.19-25.64,19.54,19.54,0,0,0-3.09-27.61,19.49,19.49,0,0,0-7.3-24.87,19.51,19.51,0,0,0-10.19-25,19.53,19.53,0,0,0-16.16-29.54,19.52,19.52,0,0,0-19.22-23.2c-.55,0-1.1,0-1.64.08a19.56,19.56,0,0,0-37.06.21A19.52,19.52,0,0,0,2154,36.33a19.55,19.55,0,0,0-16.22,29,19.49,19.49,0,0,0-11.74,24.81,19.53,19.53,0,0,0-7.45,27.35,19.53,19.53,0,0,0-11,23.46,19.48,19.48,0,0,0-4.13,22.42A19.52,19.52,0,0,0,2100,190.1a19.56,19.56,0,0,0,4.18,37.33c-5.65,29.94-11.47,61.57-17.93,93.78,43.69-20.7,94.5-32.58,148.74-32.58a363,363,0,0,1,61.86,5.28q-2.42-19.24-5.14-37.95A19.52,19.52,0,0,0,2298.68,241Z"/><path class="cls-10" d="M2276,256a19.54,19.54,0,0,0-2.22-31.51,19.55,19.55,0,0,0-3.94-28.4A19.54,19.54,0,0,0,2261,171l-.44-2a19.49,19.49,0,0,0-5.19-25.64,19.54,19.54,0,0,0-3.09-27.61,19.49,19.49,0,0,0-7.3-24.87,19.51,19.51,0,0,0-10.19-25,19.53,19.53,0,0,0-16.16-29.54,19.52,19.52,0,0,0-19.22-23.2c-.55,0-1.1,0-1.64.08a10.18,10.18,0,1,0-20.21.21,19.52,19.52,0,0,0-22.47,22.92,19.55,19.55,0,0,0-16.22,29,19.49,19.49,0,0,0-11.74,24.81,19.53,19.53,0,0,0-7.45,27.35,19.53,19.53,0,0,0-11,23.46,19.48,19.48,0,0,0-4.13,22.42,19.52,19.52,0,0,0-3.46,26.72,19.56,19.56,0,0,0,4.18,37.33c-5.18,27.45-10.51,56.32-16.33,85.75,39.31-15.71,83.53-24.54,130.29-24.54q4.25,0,8.46.1c2.79-.06,5.58-.1,8.38-.1a364.45,364.45,0,0,1,44.69,2.76Q2278.48,273.45,2276,256Z"/><path class="cls-11" d="M2142.19,280.45c-96.23,16.84-34.79,352.49,7.09,364.49,69.77,20,123-96.45,145.49-216.1,23.48-124.67,59.22-227.65,2-298.85C2284.17,114.29,2385.28,237.91,2142.19,280.45Z"/><path class="cls-12" d="M2192.44,325.89c41.65,91.94,12.23,300.91-31.18,315.81-62.8,21.56-82-206.34-105.86-326-24.89-124.67-66.52-124-92.5-124C1938.65,191.69,2096.55,114.22,2192.44,325.89Z"/><circle class="cls-3" cx="2141.24" cy="147.13" r="6.74"/><circle class="cls-3" cx="2214.03" cy="150.58" r="6.74"/><path class="cls-3" d="M2203.5,167.23c.73,3-5.41,12-15.13,14.43s-19.35-2.83-20.08-5.82c0,0,9.73,5.62,19.45,3.24S2203.5,167.23,2203.5,167.23Z"/><path class="cls-3" d="M2153,100.11c.41.89-3.65,1.68-8.14,3.75s-7.73,4.65-8.14,3.75,2.9-3.3,7.4-5.37S2152.56,99.22,2153,100.11Z"/><path class="cls-3" d="M2231.31,111.63c-.45.87-3.56-1.85-8-4.14s-8.41-3.27-8-4.14,4.38.27,8.78,2.56S2231.77,110.76,2231.31,111.63Z"/><path class="cls-3" d="M2300.05,394.5c4.08,41-2.47,58.56,5,67.8,4.46,5.5,9.44-17.7,5.64-56.16s-21.43-70.24-25.18-69.87C2274.89,337.33,2296.9,362.78,2300.05,394.5Z"/><path class="cls-8" d="M2285.56,447.34a23.27,23.27,0,0,1,9.28-7.16,1.57,1.57,0,0,1-.2-.71c0-2.56,6.87-4.63,15.34-4.63s15.34,2.07,15.34,4.63c0,1.31-1.81,2.49-4.72,3.34a23.46,23.46,0,0,1,6.81,16.91c0,12.06-8.29,21.83-18.51,21.83-17.93,0-14.26-8.48-14.26-20.54,0-1.33.05-2.65.15-3.94-3.89,4.39-8.64,6.4-11.26,4.53C2280.55,459.46,2281.46,453.08,2285.56,447.34Z"/><ellipse class="cls-1" cx="889.91" cy="851.64" rx="88.71" ry="12.91"/><path class="cls-3" d="M961.42,616.31c4.3,43.27-2.6,61.74,5.31,71.48,4.7,5.79,9.95-18.66,5.95-59.2s-22.59-74-26.55-73.65C934.89,556,958.09,582.87,961.42,616.31Z"/><path class="cls-13" d="M946.14,672a24.53,24.53,0,0,1,9.79-7.55,1.66,1.66,0,0,1-.21-.75c0-2.7,7.24-4.88,16.17-4.88s16.17,2.19,16.17,4.88c0,1.38-1.91,2.63-5,3.52a24.73,24.73,0,0,1,7.17,17.83c0,12.71-8.74,23-19.52,23-18.9,0-15-8.94-15-21.65,0-1.4.06-2.79.16-4.15-4.11,4.63-9.1,6.75-11.87,4.77C940.86,684.79,941.82,678.07,946.14,672Z"/><path class="cls-3" d="M812.5,857.84c-4.1-.22-12.51-1.83-11.23-8.45,4.91-25.53,4.35-105.95,4.35-105.95-.48-6.73-7.51-29-2.1-29.36l6.85,29.15c5.41-.38,5,3.43,5.16,10.17,1.28,77.17,6.52,84.84,6.52,84.84C879.25,856.2,830.77,858.83,812.5,857.84Z"/><path class="cls-3" d="M889.64,853.56c-4.1-.22-12.51-1.83-11.23-8.45,4.91-25.53,4.35-105.95,4.35-105.95-.48-6.73-7.51-29-2.1-29.36L887.51,739c5.41-.38,5,3.43,5.16,10.17C894,826.31,899.19,834,899.19,834,956.39,851.92,907.91,854.55,889.64,853.56Z"/><path class="cls-14" d="M986.4,559.72c78.73,89.32-58.29,215.8-150.33,215.8S618.7,660,689.54,566.78c54.32-71.49,52.19-229.61,144.23-229.61S907.21,469.87,986.4,559.72Z"/><path class="cls-15" d="M987.09,559.72c-79.19-89.84-60.6-222.55-152.64-222.55q-3.08,0-6,.24c-75,17.18-84.47,141.27-110,220.69C684.27,664.28,773.15,773.44,865,766.84a162,162,0,0,0,30.86-5.42C975.3,726,1049.93,631,987.09,559.72Z"/><circle class="cls-3" cx="813.19" cy="465.46" r="6.19"/><circle class="cls-3" cx="904.51" cy="465.36" r="6.19"/><path class="cls-16" d="M892.53,494.66c0,7.92-11.76,14.35-26.27,14.35S840,502.58,840,494.66s11.76-4.74,26.27-4.74S892.53,486.73,892.53,494.66Z"/><path class="cls-17" d="M834,342.35s-3.61-2.9-2.83-8.83c-.68.41,2.19-28.84,6.64-40.88,2.07-5.61,4.57-6.5,10.5-5.71h0c5.93.78,11.29,6.17,10.5,12.1,0,0-15.86,12.67-17.21,37.42C841.28,342.42,839.95,343.13,834,342.35Z"/><path class="cls-3" d="M913.77,430c-.4,1.15-4.69-1.63-10.48-3.64s-10.88-2.49-10.48-3.64,5.42-.45,11.21,1.55S914.17,428.84,913.77,430Z"/><path class="cls-3" d="M803.22,430.76c.49,1.12,4.55-2,10.17-4.45S824,423,823.56,421.87s-5.44,0-11.05,2.43S802.73,429.64,803.22,430.76Z"/><path class="cls-3" d="M715.38,614.7c-4.3,43.27,2.6,61.74-5.31,71.48-4.7,5.79-9.95-18.66-5.95-59.2s22.59-74,26.55-73.65C741.91,554.44,718.7,581.26,715.38,614.7Z"/><path class="cls-13" d="M730.65,670.41a24.53,24.53,0,0,0-9.79-7.55,1.66,1.66,0,0,0,.21-.75c0-2.7-7.24-4.88-16.17-4.88s-16.17,2.19-16.17,4.88c0,1.38,1.91,2.63,5,3.52a24.73,24.73,0,0,0-7.17,17.83c0,12.71,8.74,23,19.52,23,18.9,0,15-8.94,15-21.65,0-1.4-.06-2.79-.16-4.15,4.11,4.63,9.1,6.75,11.87,4.77C735.93,683.18,735,676.45,730.65,670.41Z"/><ellipse class="cls-1" cx="320.98" cy="860.68" rx="110.39" ry="11.39"/><path class="cls-3" d="M455.78,733.49c7.33,35.64,3.2,51.6,10.62,59,4.42,4.41,6.66-16.39-.19-49.78s-25.23-59.66-28.49-59C428.47,685.63,450.12,705.94,455.78,733.49Z"/><path class="cls-18" d="M447.91,781.17A20.52,20.52,0,0,1,455.4,774a1.39,1.39,0,0,1-.24-.61c-.23-2.24,5.6-4.69,13-5.47s13.65.42,13.88,2.66c.12,1.15-1.36,2.35-3.83,3.36a20.7,20.7,0,0,1,7.52,14.21c1.1,10.58-5.27,19.91-14.24,20.85-15.73,1.64-13.29-6.14-14.39-16.71-.12-1.17-.2-2.33-.23-3.47-3,4.21-7,6.41-9.46,5C444.62,792.26,444.83,786.58,447.91,781.17Z"/><path class="cls-3" d="M222.12,866.28c-3.9-.49-11.83-2.6-10.17-8.84,6.42-24.08,11.35-101,11.35-101,0-6.47-5.21-28.21,0-28.21l4.57,28.34c5.2,0,4.59,3.63,4.24,10.08-4,73.87.47,81.56.47,81.56C286.06,869.24,239.53,868.47,222.12,866.28Z"/><path class="cls-3" d="M312.71,863.73c-3.93-.09-12-1.38-11-7.77,3.95-24.61,1-101.64,1-101.64-.66-6.43-8-27.54-2.87-28.07L307.3,754c5.18-.53,4.94,3.14,5.24,9.6,3.5,73.9,8.74,81.09,8.74,81.09C376.62,860.19,330.25,864.14,312.71,863.73Z"/><path class="cls-19" d="M1,589.49C-7.38,589.1,35,807.29,262,799.07c215.69-7.81,246.76-227.85,244.7-236.89C506.75,562.19,187.25,598.23,1,589.49Z"/><path class="cls-20" d="M200.23,587.11C172.36,615.4,156,650,156,687.26c0,41.48,20.26,79.55,54,109.39a312.92,312.92,0,0,0,53.07,2.43c215.69-7.81,246.76-227.85,244.7-236.89C507.78,562.19,355.71,579.34,200.23,587.11Z"/><path class="cls-21" d="M22.53,590.29c22.89,63.13,78.83,171.3,240.21,165.46C421,750,479.84,630.09,499.16,563,450.69,568.27,193.61,592.09,22.53,590.29Z"/><circle class="cls-3" cx="220.41" cy="647.72" r="7.08"/><circle class="cls-3" cx="351.37" cy="635.89" r="7.08"/><path class="cls-3" d="M313.6,664.12c.36,3.37-7.68,12.35-18.63,13.51s-20.69-5.94-21.05-9.3c0,0,9.78,7.56,20.74,6.4S313.6,664.12,313.6,664.12Z"/><path class="cls-22" d="M477.66,565.92C480.37,578,479,588.53,473,596c-5.85,7.24-15.41,10.73-27.26,10.84,6.88,27.35,3.92,50-10.14,59.32-9.5,6.32-22.63,5.61-37.11-.73-4.76,31.52-17.84,53.85-36,56.43-11.21,1.59-22.66-4.59-32.93-16.37-13.72,26-31.8,41.38-48.92,38.58-11.06-1.81-20.06-11-26.33-25-19,17.84-38.62,25.64-53.08,18.72-9.18-4.39-15-14.13-17.6-27.31-17.33,9.63-33.37,11.88-44.5,4.53s-15.25-22.62-13.37-42C111.5,677.35,99,676.6,90.5,669.71,80,661.19,77.36,644.82,81.58,625c-12.36,2.15-22.9.3-30.11-6.19-6.92-6.22-9.89-16-9.38-27.78q-9.38,0-18.48-.1C46.5,654,102.45,762.2,263.82,756.36,422,750.64,480.92,630.7,500.25,563.63,495,564.19,487.37,565,477.66,565.92Z"/><path class="cls-3" d="M367.5,614.42c-.7,1.34-5.48-2.85-12.23-6.37s-12.93-5-12.23-6.37,6.74.42,13.5,3.94S368.2,613.07,367.5,614.42Z"/><path class="cls-3" d="M201.84,621.54c.7,1.34,5.48-2.85,12.23-6.37s12.93-5,12.23-6.37-6.74.42-13.5,3.94S201.14,620.19,201.84,621.54Z"/><path class="cls-3" d="M74.24,755.31c.23,36.38,7.59,51.14,1.87,59.94C72.7,820.49,66.19,800.6,66,766.51s12.29-63.6,15.61-63.62C91,702.83,74.06,727.19,74.24,755.31Z"/><path class="cls-18" d="M91.85,800.31A20.52,20.52,0,0,0,83,794.9a1.39,1.39,0,0,0,.11-.64c-.24-2.24-6.45-3.43-13.89-2.64s-13.27,3.24-13,5.49c.12,1.15,1.82,2,4.45,2.49a20.7,20.7,0,0,0-4.4,15.46c1.12,10.58,9.29,18.38,18.26,17.43,15.73-1.66,11.72-8.76,10.6-19.34-.12-1.17-.29-2.32-.5-3.44,3.82,3.49,8.17,4.82,10.29,2.93C97.37,810.48,96,805,91.85,800.31Z"/><ellipse class="cls-1" cx="1369.52" cy="780.67" rx="78.96" ry="10.82"/><path class="cls-3" d="M1405.45,472c32.57-16.75,32.08-37.54,42.59-36.4,6.25.68-8.16,25.53-38.66,41.24s-63.87-13.71-61.92-16.43C1355.21,449.71,1380.27,485,1405.45,472Z"/><path class="cls-23" d="M1463.07,412.72c-8-5.52-17.22,3.74-24,13.25-2.52-4.36-6.06-7.79-11.4-6.48-7.92,1.95-3,12.68-.44,19.28a20.67,20.67,0,0,0,2.22,4.26c-1.37-.08-2.38.2-2.82.9-1.35,2.13,2.93,7.26,9.55,11.47s13.09,5.9,14.44,3.77c.47-.75.24-1.87-.53-3.18,7.46-1.15,15.67-6.69,20.32-13.43C1477.28,432.53,1471.53,418.55,1463.07,412.72Z"/><path class="cls-3" d="M1299.95,784.43c-4.36-.55-13.21-2.9-11.35-9.87,7.17-26.87,12.67-112.74,12.67-112.74,0-7.22-5.82-31.49,0-31.49l5.1,31.63c5.81,0,5.13,4,4.74,11.25-4.48,82.45.53,91,.53,91C1371.31,787.74,1319.37,786.87,1299.95,784.43Z"/><path class="cls-3" d="M1360.69,777.64c-4.32-.8-12.33-1.55-10.67-8.57,5-21.38-1-99.73-1-99.73-.59-7.19-.31-12.12,5.48-12.59l4-1.35c5.79-.48-.57,3.07-.37,10.28,2.3,82.54,11.68,96.42,11.68,96.42C1427.39,778.37,1378.71,781,1360.69,777.64Z"/><path class="cls-24" d="M1391.86,262.91h0c-6.38-4.77-6.48-13.13-2.93-20.27,15.15-30.5,32.19-46.21,32.19-46.21,4.77-6.38,11.49-1.36,17.87,3.41h0c6.38,4.77,12.47,7.51,7.7,13.89,0,0-36.7,14.7-42,44.34C1403.22,265.9,1398.24,267.68,1391.86,262.91Z"/><path class="cls-24" d="M1415.78,712.33c-6.56-6.07-9.17-13.3-11.1-20.07-6.67-38.92-35-110.55-35-204.92,0-146.18,75.32-255.2,25.34-255.2s-157.84,100.32-157.84,246.5c0,123.35,71.64,214,124,239.37,12.22,8.13,24.46,16,28,19.37C1396.82,744.86,1424.55,720.44,1415.78,712.33Z"/><path class="cls-25" d="M1384.75,718c-49.68-2.51-124-116-124-239.37,0-134.08,85.09-240,144.33-244.46a20.1,20.1,0,0,0-9.65-2c-50,0-157.84,100.32-157.84,246.5,0,123.35,71.64,214,124,239.37,12.22,8.13,24.46,16,28,19.37s10.76.34,17.12-4.7C1398.6,733.45,1386.58,725.16,1384.75,718Z"/><path class="cls-26" d="M1439,199.84c-6.38-4.77-13.1-9.79-17.87-3.41,0,0-2.35,2.17-6.07,6.44,4.62,8.51,11.47,14.2,22.18,15.61a83.09,83.09,0,0,1,9.46-4.77C1451.44,207.34,1445.35,204.6,1439,199.84Z"/><path class="cls-26" d="M1416.17,712.33q-.6-.55-1.15-1.12c-5.19-1.31-12.84,1.67-19.1,7.93-5.33,5.33-8.28,11.66-8.24,16.63.76.61,1.4,1.15,1.87,1.61C1397.2,744.86,1424.94,720.44,1416.17,712.33Z"/><circle class="cls-3" cx="1305.23" cy="386.27" r="6.62"/><circle class="cls-3" cx="1364.69" cy="396.74" r="6.62"/><path class="cls-3" d="M1347.46,422.34c-.34,2.46-7.66,7.44-15.68,6.32s-13.7-7.91-13.36-10.37c0,0,5.63,7.13,13.65,8.25S1347.46,422.34,1347.46,422.34Z"/><path class="cls-3" d="M1325,358.6c0,1.08-4.42,0-9.88,0s-9.88,1.08-9.88,0,4.42-2,9.88-2S1325,357.51,1325,358.6Z"/><path class="cls-3" d="M1360.92,364.93c-.42,1,4,1.69,8.88,3.76s8.46,4.76,8.88,3.76-3.21-3.49-8.11-5.57S1361.34,363.94,1360.92,364.93Z"/><path class="cls-3" d="M1234.92,517.53c-3.62,36.45,2.19,52-4.47,60.21-4,4.88-8.38-15.72-5-49.87s19-62.37,22.36-62C1257.27,466.77,1237.72,489.36,1234.92,517.53Z"/><path class="cls-23" d="M1258.11,566.5a25.63,25.63,0,0,0-10.22-7.88,1.73,1.73,0,0,0,.22-.79c0-2.82-7.56-5.1-16.9-5.1s-16.9,2.28-16.9,5.1c0,1.45,2,2.75,5.19,3.68a25.84,25.84,0,0,0-7.5,18.62c0,13.28,9.13,24,20.39,24,19.75,0,15.71-9.34,15.71-22.62,0-1.46-.06-2.91-.17-4.34,4.29,4.83,9.51,7.05,12.4,5C1263.63,579.85,1262.63,572.82,1258.11,566.5Z"/></g></g></svg>