<svg xmlns="http://www.w3.org/2000/svg" viewBox="0 0 609.05 734.51"><defs><style>.cls-1{fill:#31d3bf;}.cls-2{fill:#8eefe6;}.cls-3{fill:#009995;}.cls-4{fill:#007272;}.cls-5{fill:#009345;}.cls-6{fill:#f39131;}.cls-7,.cls-8{fill:#fff;}.cls-7{stroke:#e21a1a;stroke-miterlimit:10;stroke-width:3.18px;}.cls-9{fill:#529e26;}.cls-10{fill:#b1ea60;}.cls-11{fill:#84c93d;}.cls-12{fill:#adf0ff;}.cls-13{fill:#dcfaff;}.cls-14{opacity:0.36;}.cls-15{fill:#fffc99;}.cls-16{fill:#a398e5;}.cls-17{fill:#ccc1f7;}.cls-18{fill:#6c62cc;}.cls-19{fill:#4541aa;}.cls-20{fill:#41b743;}.cls-21{fill:#7dcc5c;}.cls-22{fill:#fde96b;}.cls-23{fill:#231f20;}.cls-24{fill:#c9d86e;}.cls-25{fill:#faaf40;}.cls-26{fill:#ffc767;}.cls-27{fill:#fce26e;}.cls-28{fill:#744c2b;}.cls-29{fill:#c0ff76;}</style></defs><title>do</title><g id="Layer_2" data-name="Layer 2"><g id="Layer_3" data-name="Layer 3"><polygon class="cls-1" points="609.05 421.65 3.18 344.63 0 730.54 607.46 734.51 609.05 421.65"/><polygon class="cls-2" points="325.84 732.67 0 730.54 3.18 344.63 317.25 384.55 325.84 732.67"/><polygon class="cls-3" points="607.46 734.51 0 730.54 0.63 654.16 607.79 670.18 607.46 734.51"/><ellipse class="cls-4" cx="177.59" cy="698.75" rx="35.46" ry="5.22"/><ellipse class="cls-4" cx="439.52" cy="700.37" rx="107.6" ry="6.35"/><path class="cls-5" d="M105.52,596.9c21.71,8.23,46-6.63,54.64-9.73C170.64,583.42,190.1,567,193.09,558c8.37-25.1-19.48-37-33.68-23.2-5.79,5.62-21,53.14-44.16,60.63C112.9,596.16,104.43,596.48,105.52,596.9Z"/><path d="M237.89,632.73c1.91,11.7-16.27,10.29-14.21,15,1.19,2.75,20-.49,18.62-14.44C241.11,621,230,616,228.58,616.73,223.41,619.31,236.1,621.76,237.89,632.73Z"/><path d="M178,685c.14,10.45-1.27,18-.29,18,.48,0,17.7,2,16.14-.88-1.36-2.5-10-3.7-10-5.16,0-2.74,0-8.81,0-12.18-.14-10.45.41-16.65-3.26-16.37C178.43,668.56,177.85,674.53,178,685Z"/><path d="M194.66,679.42c.14,10.45-1.27,18-.29,18,.48,0,17.7,2,16.14-.88-1.36-2.5-10-3.7-10-5.16,0-2.74,0-8.81,0-12.18-.14-10.45.41-16.65-3.26-16.37C195.1,663,194.52,669,194.66,679.42Z"/><path class="cls-6" d="M235.76,625.71c0,26.66-24.46,48.28-54.64,48.28s-56.88-18.25-56.88-44.91,26-54,56.14-54.64C217.79,573.69,235.76,599.05,235.76,625.71Z"/><ellipse cx="178.6" cy="610.97" rx="2.98" ry="2.85"/><ellipse cx="222.14" cy="605.01" rx="2.98" ry="2.85"/><path d="M174.9,599c-2.81,2.41-4.87,4.61-4.61,4.91.65.75,2.75-1.4,5.55-3.81s5.34-4.06,4.61-4.91C180.19,594.88,177.7,596.59,174.9,599Z"/><path d="M224.14,592.17l-1.33-.58c-3.41-1.43-6.3-2.29-6.46-1.92-.38.92,2.48,1.83,5.89,3.26,1.45.61,2.75,1.22,3.8,1.66C225.44,593.77,224.8,593,224.14,592.17Z"/><rect class="cls-7" x="155.79" y="633.62" width="32.57" height="21.57" rx="1.33" ry="1.33" transform="translate(-171.62 72.79) rotate(-16.07)"/><path d="M118.71,641.74c-2.12,13,18,11.41,15.75,16.68-1.32,3-22.15-.55-20.65-16,1.32-13.63,13.63-19.19,15.22-18.4C134.76,626.87,120.7,629.58,118.71,641.74Z"/><ellipse class="cls-8" cx="132.37" cy="657.15" rx="6.63" ry="1.57" transform="translate(-537.82 642.09) rotate(-77.32)"/><path class="cls-8" d="M149,660.27c0,5-3.91,7.41-8.73,7.41s-8.73-2.37-8.73-7.41.73-8.73,5.56-8.73S149,655.22,149,660.27Z"/><path class="cls-8" d="M134.2,653.05c0,1.94,1.84,3.51,4.1,3.51s5.16-1.5,5.16-3.44-2.37-2.91-4.63-2.91S134.2,651.12,134.2,653.05Z"/><path class="cls-8" d="M192.43,619.9c-.4,2.12,3.86,7.13,14,5.56,9.4-1.46,10.85-5.82,10.06-8.6-.52-1.83-4.24-1.72-11.12-.79S192.78,618,192.43,619.9Z"/><polygon class="cls-5" points="180.52 576.36 177.74 576.62 176.55 569.74 181.31 568.95 180.52 576.36"/><polygon class="cls-9" points="495.5 695.6 423.24 695.6 424.82 573.32 462.15 573.32 495.5 695.6"/><polygon class="cls-10" points="429.59 703.01 321.6 699.84 369.24 438.32 483.32 429.06 429.59 703.01"/><polygon class="cls-11" points="436.74 709.89 428.8 702.75 482.79 428.8 490.73 436.74 436.74 709.89"/><polygon class="cls-11" points="436.74 709.1 330.33 707.51 321.6 699.57 428.8 701.96 436.74 709.1"/><polygon class="cls-12" points="422.44 693.22 333.51 690.84 377.98 447.85 471.68 439.12 422.44 693.22"/><polygon class="cls-13" points="471.68 439.12 377.98 447.85 333.51 690.84 333.6 690.84 469.92 448.16 471.68 439.12"/><g class="cls-14"><path class="cls-5" d="M383.5,563c3,9,22.45,25.45,32.93,29.19,4.53,1.62,13.31,6.42,23.75,9.49l3.07-15.84c-13.1-16.91-22-42.06-26.07-46C403,526,375.13,537.87,383.5,563Z"/><path d="M348,621.73a3.12,3.12,0,0,0-1.91.3l-1,5.27C348.3,624.53,350.85,623.14,348,621.73Z"/><path d="M352.91,652.77c1.4-3.22-6.48-3.62-11.12-7.17l-1,5.23C345.93,654,352.23,654.32,352.91,652.77Z"/><path d="M396,673.4c-3.68-.28-3.12,5.92-3.26,16.37,0,.77,0,1.68,0,2.66l5.85.16c0-.85,0-1.7,0-2.6C398.74,679.53,398.16,673.56,396,673.4Z"/><path d="M379.37,667.84c-3.68-.28-3.12,5.92-3.26,16.37,0,2,0,5.08,0,7.77l6,.16c-.11-2.31-.19-4.89-.15-7.72C382.07,674,381.49,668,379.37,667.84Z"/><path class="cls-6" d="M440.11,602.06c-10.43-12.94-26.43-22.27-43.88-22.62-22.05-.44-37.3,8.22-46.14,20.83l-7.66,41.83c5.8,21.16,27.32,36.89,53,36.89a69.66,69.66,0,0,0,31.1-7.11Z"/><ellipse cx="397.99" cy="615.97" rx="2.98" ry="2.85"/><path d="M352.46,597.17l1.33-.58c3.41-1.43,6.3-2.29,6.46-1.92.38.92-2.48,1.83-5.89,3.26-1.45.61-2.75,1.22-3.8,1.66C351.15,598.76,351.8,598,352.46,597.17Z"/><ellipse cx="354.45" cy="610.01" rx="2.98" ry="2.85"/><path d="M401.7,604c2.81,2.41,4.87,4.61,4.61,4.91-.65.75-2.75-1.4-5.55-3.81s-5.34-4.06-4.61-4.91C396.4,599.88,398.89,601.58,401.7,604Z"/><rect class="cls-7" x="388.23" y="638.62" width="32.57" height="21.57" rx="1.33" ry="1.33" transform="translate(613.51 1385.39) rotate(-163.93)"/><path class="cls-8" d="M384.16,624.9c.4,2.12-3.86,7.13-14,5.56-9.4-1.46-10.85-5.82-10.06-8.6.52-1.83,4.24-1.72,11.12-.79S383.81,623,384.16,624.9Z"/><polygon class="cls-5" points="396.07 581.36 398.85 581.62 400.05 574.74 395.28 573.95 396.07 581.36"/></g><path class="cls-15" d="M269.59,529.63s-12.36,4.32-15.45,7.73c-4.56,5-5.33,26.64-5.33,26.64s-2-21.61-6.66-26.64c-2.91-3.13-16.25-7.46-16.25-7.46s14.3-2.62,17.32-6.39c3.76-4.71,5.59-23.44,5.59-23.44s.48,19.21,4.26,24C256.23,528,269.59,529.63,269.59,529.63Z"/><path class="cls-15" d="M289,565.62s-6,2.11-7.53,3.77c-2.23,2.45-2.6,13-2.6,13s-1-10.54-3.25-13c-1.42-1.53-7.92-3.64-7.92-3.64s7-1.28,8.44-3.12c1.83-2.3,2.73-11.43,2.73-11.43s.23,9.36,2.08,11.69C282.51,564.83,289,565.62,289,565.62Z"/><polygon class="cls-16" points="1.66 315.88 606.4 402.86 608.53 3.32 1.66 0 1.66 315.88"/><polygon class="cls-17" points="316.83 355.29 273.01 354.9 1.66 315.88 1.66 0 292.91 1.59 316.83 355.29"/><polygon class="cls-18" points="607.06 288.53 606.4 402.86 1.66 322.5 1.66 264.52 607.06 288.53"/><ellipse class="cls-19" cx="153.25" cy="291.03" rx="27" ry="3.57"/><ellipse class="cls-19" cx="334.7" cy="342.64" rx="31.37" ry="3.57"/><ellipse class="cls-19" cx="518.13" cy="347.01" rx="33.75" ry="5.56"/><ellipse class="cls-19" cx="79.41" cy="299.76" rx="12.71" ry="3.57"/><path d="M140.48,277.45c4.88,3.94,8.78-.45,9.71.86.25.36-1.06,10.78-3.76,10.7-.63,0-.21-6.76-.93-6.95-1-.26-2.24.3-5.89-1.76-5.46-3.08-7.11-10.11-6.44-10.88C135,267.33,135.59,273.5,140.48,277.45Z"/><path d="M175.2,217.7c4.65-5.86,5.34-15.86,2.76-14.82s-.52,4.83-4,11.55c-3,5.76-12.06,6.72-11.11,11.11C163.26,227.25,171.18,222.77,175.2,217.7Z"/><path class="cls-5" d="M82,222.13c15.32-1.12,25.21-9.24,31.77-13.83,7.47-5.23,14.58-10.46,14.2-18.69-.34-7.44-8.22-19.43-20.55-7.47-5,4.88-12.92,37.44-31,38.87C74.29,221.17,81,222.2,82,222.13Z"/><path class="cls-6" d="M167.6,237c0,17.77-16.53,34-34.93,34S95.45,263.17,95,232.83c-.27-17.77,22.11-34.24,40.44-32.63C161.63,202.5,167.6,219.2,167.6,237Z"/><ellipse cx="115.52" cy="232.43" rx="1.87" ry="1.9"/><ellipse cx="150.85" cy="217.23" rx="1.87" ry="1.9"/><path d="M110.75,221.15c-1.55,1.68-2.65,3.12-2.52,3.3.34.46,1.54-1.1,3.09-2.77s3-3,2.52-3.3C113.66,218.27,112.3,219.48,110.75,221.15Z"/><path d="M146.85,207.52c2.15,0,3.86.19,3.9.41.1.56-1.75.38-3.9.37s-4,.15-3.9-.41C143,207.68,144.69,207.51,146.85,207.52Z"/><path class="cls-8" d="M128.77,243.24c3.82,4.19,10.42,3.12,15,1.29,5.21-2.09,10.29-6.23,9.51-11.63-1.1-7.62-8.21-4.15-15-1.29S123.31,237.25,128.77,243.24Z"/><polygon class="cls-5" points="123.34 203.3 120.92 203.91 118.77 198.56 121.87 196.06 123.34 203.3"/><path d="M135.95,276.67c-.93,2.13-2.21,6.73-2.85,8.59-.51,1.49-9.75-.2-10,1-.64,2.64,11.83,7,12.48,7.29,1.32.58,1-7.35,3.45-15.25s8.15-10.5,4.87-11.8C142.53,266,139.27,269.07,135.95,276.67Z"/><path d="M91,256.2c-3.24,5.61-4.47,10.86-3.81,11.32,2.25,1.57,2.72-4.54,6-10.15s8.4-8.4,5.76-10.15C98.26,246.78,94.26,250.6,91,256.2Z"/><path class="cls-8" d="M187.54,195c1.09-5-1.93-8.25-5.7-9.07S175,187,173.9,192a12,12,0,0,0-.24,3.31c-1.69-.67-3.23-.61-3.82.27-.8,1.18.39,3.4,2.68,5a9.18,9.18,0,0,0,1.44.79c-1,.08-1.66.4-1.57,1.3s2.59,1.65,5.91,1.88,5.89-.26,6.12-1-.65-1.1-2-1.39A10.14,10.14,0,0,0,187.54,195Z"/><path class="cls-8" d="M93.57,268.61c-.39.64-2.76.68-5.76-.08s-5.07-1.92-5.1-2.66c-.07-1.39,2.76-.68,5.76.08S94.3,267.42,93.57,268.61Z"/><polygon class="cls-20" points="95.34 276.52 77.71 269.19 76.94 271.04 76.94 271.04 75.43 274.51 76.7 275.06 78.22 271.56 93.29 277.83 91.69 281.52 92.95 282.07 94.56 278.36 94.58 278.37 95.34 276.52"/><path class="cls-8" d="M91.88,272.41c-.17,3.27-3.07,4.63-6.55,4s-5.66-2.13-5-5.34,3.79-6,6.72-4.31C91,269.07,92.28,264.81,91.88,272.41Z"/><rect class="cls-21" x="63.32" y="276.69" width="32.67" height="20.4" rx="1.19" ry="1.19" transform="translate(116.53 -8.56) rotate(22.63)"/><path d="M520.35,319.58c0,4.72-.14,15.42,0,19.27.1,2.07-12.51,3.44-12.36,5.13.45,5.06,18.4,2.58,19.13,2.58,1.44,0-.56-12.43-1.17-27.26-.73-17.76,2.5-31.81-3.19-26.74C521.63,293.62,520.43,301.71,520.35,319.58Z"/><path class="cls-22" d="M449.21,153.59q.94-8.31,2-16.38a8.42,8.42,0,0,1,.79-13.59,8.43,8.43,0,0,1,1.55-12.26,8.42,8.42,0,0,1,3.64-10.87l.18-.87a8.4,8.4,0,0,1,2.1-11.08,8.42,8.42,0,0,1,1.18-11.92,8.4,8.4,0,0,1,3-10.76A8.41,8.41,0,0,1,467.91,55a8.42,8.42,0,0,1,6.81-12.82,8.42,8.42,0,0,1,8.16-10.1c.24,0,.47,0,.71,0a8.43,8.43,0,0,1,16-.17,7.83,7.83,0,0,1,1-.08H501a8.42,8.42,0,0,1,8.41,9.9,8.43,8.43,0,0,1,7.15,12.41,8.4,8.4,0,0,1,5.19,10.63,8.42,8.42,0,0,1,3.36,11.75A8.42,8.42,0,0,1,530,86.63a8.4,8.4,0,0,1,1.9,9.64,8.41,8.41,0,0,1,1.64,11.5,8.43,8.43,0,0,1-1.6,16.11c2.6,12.87,5.28,26.47,8.24,40.33A149.36,149.36,0,0,0,479.25,151H479q-1.66,0-3.33,0A156.45,156.45,0,0,0,449.21,153.59Z"/><path class="cls-23" d="M559.88,240.67c3.57-.31,3.13-15.5.76-28.46-2.72-14.88-13.3-31.9-13.54-24.11-.05,1.75,5.93,10.74,9.41,24.65S556.19,241,559.88,240.67Z"/><path class="cls-8" d="M553.22,238.24c0,.41.56.75,1.39,1a8.43,8.43,0,0,0-2.51,1.89c-2.18,2.48-3.92,6.1-1.75,7.43.68.42,2.52-2.1,2.8.56.63,6.09,5.11,6.19,8.47,5.54,4.7-.91,8.69-4.13,6.84-10.86a7.58,7.58,0,0,0-2.88-4.58c.31-.15.51-.32.52-.53.13-1.91-3.34-1.94-6.67-2S553.24,236.36,553.22,238.24Z"/><path class="cls-24" d="M515.81,146.95c41.79,5.15,17.7,157-1.08,157.14-25.08.21-44.61-34.42-65.93-90.17-11.3-29.55-20.86-81.69-3.48-113.85C449.45,92.43,424.46,135.7,515.81,146.95Z"/><path class="cls-24" d="M494.86,163.51c-17.45,39.86-5,137.16,14.69,139.25,39.2,4.15,35.63-88.41,45.28-140.11,10.05-53.87,13.13-61.56,24.33-61.7C589.61,100.81,535,71.75,494.86,163.51Z"/><path class="cls-23" d="M463.32,82.5c.16-.39,2.06-.79,4,0s3.27,2.55,3.11,2.94-1.39-1.25-3.36-2.07S463.15,82.89,463.32,82.5Z"/><path class="cls-23" d="M450.11,117.67a24.23,24.23,0,0,0,7.28-.3c4.42-.83,7.73-4.24,7.64-4.71s-3.61,2.91-8,3.75a42.37,42.37,0,0,1-6.81.58C450.15,117.22,450.12,117.44,450.11,117.67Z"/><circle class="cls-23" cx="467.14" cy="96.25" r="2.61" transform="translate(370.19 563.25) rotate(-89.91)"/><path d="M496.45,320.59c0,4.72-.14,15.42,0,19.27.1,2.07-12.51,3.44-12.36,5.13.45,5.06,18.4,2.58,19.13,2.58,1.44,0-.56-12.43-1.17-27.26-.73-17.76,2.5-31.81-3.19-26.74C497.73,294.63,496.53,302.73,496.45,320.59Z"/><path class="cls-23" d="M429.76,189.39c-.54,1.52,14.59,14.19,28.68,11.52s24.46-22,16.73-21.07c-1.74.22-4.16,14.38-18.25,17.06S432,183.25,429.76,189.39Z"/><path class="cls-8" d="M436.71,185.15c-.27-.31-.92-.19-1.72.15a8.43,8.43,0,0,0,.64-3.08c0-3.3-1.09-7.17-3.58-6.74-.79.14-.93,1.81-.92,3.85-1.68-1.42-3.85-2.79-5.82-4.61-4.49-4.16-11.5-.24-12.94,4.78s2.14,10.58,8.06,12.13a23,23,0,0,0,6.33.92c-.13.31-.17.58,0,.75,1.16,1.52,3.79-.75,6.32-2.91S437.94,186.57,436.71,185.15Z"/><path d="M334,314.28c0,4.72-.14,15.42,0,19.27.1,2.07-12.51,3.44-12.36,5.13.45,5.06,18.4,2.58,19.13,2.58,1.44,0-.56-12.43-1.17-27.26-.73-17.76,2.5-31.81-3.19-26.74C335.31,288.32,334.1,296.42,334,314.28Z"/><path class="cls-25" d="M441.11,301.56l-16.62,2.94a4.5,4.5,0,0,0,0,1l.28,1.6c.25,1.42-1,2.83-2.84,3.15l-18.18,3.22c-1.82.32-3.49-.57-3.74-2l-.28-1.6a3.45,3.45,0,0,0-.35-1L381.88,312a7.93,7.93,0,0,1-9.19-6.43l-6.91-39.08a7.93,7.93,0,0,1,6.43-9.19l59.23-10.48a7.93,7.93,0,0,1,9.19,6.43l6.91,39.08A7.93,7.93,0,0,1,441.11,301.56Z"/><path class="cls-26" d="M439.38,301.86l-16.62,2.94a4.5,4.5,0,0,0,0,1l.28,1.6c.25,1.42-1,2.83-2.84,3.15l-18.18,3.22c-1.82.32-3.49-.57-3.74-2l-.28-1.6a3.45,3.45,0,0,0-.35-1l-17.54,3.1a7.93,7.93,0,0,1-9.19-6.43l-6.91-39.08a7.93,7.93,0,0,1,6.43-9.19l59.23-10.48a7.93,7.93,0,0,1,9.19,6.43l6.91,39.08A7.93,7.93,0,0,1,439.38,301.86Z"/><path class="cls-23" d="M407.52,244.77c3.57-.31,3.13-15.5.76-28.46-2.72-14.88-13.3-31.9-13.54-24.11-.05,1.75,5.93,10.74,9.41,24.65S403.82,245.09,407.52,244.77Z"/><path class="cls-27" d="M400.61,182.89c-3-98.05-50-122.87-66.87-127.06-2.4-5.1-12.78-15.67-18.27-15.46-3.39.13-10.7,6.31-7.87,8.09,5.67,3.57,12.44,4.28,18.83,9.62-3.08,12.22,8.63,60.9,10.83,116.62,1.64,41.5-39.32,109.22-39.32,109.22s24.49,17.48,28.4,17.48C336,301.4,402.79,253.34,400.61,182.89Z"/><path class="cls-28" d="M307.6,48.45a32,32,0,0,0,4.7,2.37,16.87,16.87,0,0,0,8.28-8.66,10,10,0,0,0-5.12-1.79C312.09,40.5,304.77,46.67,307.6,48.45Z"/><path class="cls-23" d="M338.09,116.5c.09-.41,1.88-1.14,4-.69s3.67,1.93,3.58,2.34-1.59-1-3.68-1.44S338,116.92,338.09,116.5Z"/><path class="cls-23" d="M340.68,151.18a33.92,33.92,0,0,1-4.85.52l.07.88a26.27,26.27,0,0,0,5.17-.44c4.42-.83,7.73-4.24,7.64-4.71S345.1,150.35,340.68,151.18Z"/><path d="M311.91,315.18c-.13,4.54,0,14.83.24,18.54.12,2-14.46,4.62-14.29,6.25.5,4.87,20.27,2.32,21,2.32,1.44,0-1.46-13.14-1.31-27.42.19-17.89,1.45-27.38-2.31-25.77C313.93,289.66,312.4,298.23,311.91,315.18Z"/><circle cx="343.78" cy="129.91" r="2.75"/><path class="cls-23" d="M304.42,195.12c-.54,1.52,14.59,14.19,28.68,11.52s24.46-22,16.73-21.07c-1.74.22-4.16,14.38-18.25,17.06S306.62,189,304.42,195.12Z"/><path class="cls-8" d="M311.38,190.89c-.27-.31-.92-.19-1.72.15a8.43,8.43,0,0,0,.64-3.08c0-3.3-1.09-7.17-3.58-6.74-.79.14-.93,1.81-.92,3.85-1.68-1.42-3.85-2.79-5.82-4.61-4.49-4.16-11.5-.24-12.94,4.78s2.14,10.58,8.06,12.13a23,23,0,0,0,6.33.92c-.13.31-.17.58,0,.75,1.16,1.52,3.79-.75,6.32-2.91S312.6,192.3,311.38,190.89Z"/><path class="cls-8" d="M400.86,242.33c0,.41.56.75,1.39,1a8.43,8.43,0,0,0-2.51,1.89c-2.18,2.48-3.92,6.1-1.75,7.43.68.42,2.52-2.1,2.8.56.63,6.09,5.11,6.19,8.47,5.54,4.7-.91,8.69-4.13,6.84-10.86a7.58,7.58,0,0,0-2.88-4.58c.31-.15.51-.32.52-.53.13-1.91-3.34-1.94-6.67-2S400.87,240.46,400.86,242.33Z"/><path class="cls-29" d="M123.83,144.37c-5-19.87,8.58-40.4,30.3-45.86s43.39,6.22,48.38,26.08-8.58,40.4-30.3,45.86a44.29,44.29,0,0,1-9.62,1.32c-6.15,9.67-17,15.29-14.09,10.4s3.53-8,3.17-11.52C138.19,167.48,127.2,157.8,123.83,144.37Z"/></g></g></svg>