<svg xmlns="http://www.w3.org/2000/svg" viewBox="0 0 609.05 734.51"><defs><style>.cls-1{fill:#34cfe8;}.cls-2{fill:#77dff7;}.cls-3{fill:#177dc9;}.cls-4{fill:#055c9e;}.cls-5{fill:#009345;}.cls-6{fill:#231f20;}.cls-7{fill:#f6921e;}.cls-10,.cls-8{fill:#e8ecee;}.cls-9{fill:#fff;}.cls-10{stroke:#231f20;stroke-miterlimit:10;stroke-width:0.47px;}.cls-11{fill:#61b482;}.cls-12{fill:#76c599;}.cls-13{fill:#f59592;}.cls-14{fill:#f6a3a4;}.cls-15{fill:#c5de90;}.cls-16{fill:#f28091;}.cls-17{fill:#8a5d3b;}.cls-18{fill:#f9ec31;}.cls-19{fill:#ff6c8f;}.cls-20{fill:#ff97ad;}.cls-21{fill:#bc174e;}.cls-22{fill:#96063e;}.cls-23{fill:#fde96b;}.cls-24{fill:#c9d86e;}.cls-25{fill:#f1f1f2;}.cls-26{fill:#b1e2f8;}.cls-27{fill:#d9f0f9;}.cls-28{fill:#7fd5ef;}.cls-29{fill:#1d8ab5;}</style></defs><title>dont</title><g id="Layer_2" data-name="Layer 2"><g id="Layer_2-2" data-name="Layer 2"><polygon class="cls-1" points="607.39 315.88 2.64 402.86 0.52 3.32 607.39 0 607.39 315.88"/><polygon class="cls-2" points="292.22 355.29 336.04 354.9 607.39 315.88 607.39 0 316.14 1.59 292.22 355.29"/><polygon class="cls-3" points="1.99 288.53 2.64 402.86 607.39 322.5 607.39 264.52 1.99 288.53"/><ellipse class="cls-4" cx="127.84" cy="323.18" rx="38.91" ry="8.73"/><path class="cls-4" d="M233.92,329.14c0,3.86,25.25,9.13,55.91,9.13S345,333,345,329.14s-24.85-7-55.51-7S233.92,325.27,233.92,329.14Z"/><path class="cls-4" d="M455.47,282c0,3.13,11.39,7.57,30.5,7,27-.79,38.75-3.88,38.75-7s-15.5-5.67-34.62-5.67S455.47,278.9,455.47,282Z"/><path class="cls-5" d="M56.75,191.29c-6.91-1.81,19.25,10,38.29,4.84s36.11-16.52,34-24.33-7.15-10.86-25.83-4.51C84.86,173.52,69.95,194.75,56.75,191.29Z"/><polygon class="cls-5" points="119.51 190.84 122.74 190.67 123.17 182.08 118.86 182.85 119.51 190.84"/><path class="cls-6" d="M123.15,327.08c-3.34-.33-7.06-1.32-8.25-2.15-1.76-1.22-.76-7.88-.63-9.61l1.67-22.4c.13-1.73,2-1.27,4.4-1.1h0c.88,4.48.12,24.87,1.94,26.13,7.07,4.89,15.28,8.84,8.78,9.32A34.67,34.67,0,0,1,123.15,327.08Z"/><path class="cls-6" d="M157,323.46c-3.35,0-7.15-.64-8.42-1.35-1.86-1.05-1.51-7.77-1.54-9.51l-.47-22.46c0-1.74,1.91-1.46,4.27-1.51h0c1.3,4.38,2.49,24.75,4.42,25.82,7.51,4.2,16.06,7.34,9.63,8.44A34.67,34.67,0,0,1,157,323.46Z"/><ellipse class="cls-7" cx="130.49" cy="242.23" rx="58.32" ry="53.58"/><circle class="cls-6" cx="130.05" cy="224.27" r="3.39" transform="matrix(1, -0.05, 0.05, 1, -12.06, 7.44)"/><circle class="cls-6" cx="169.9" cy="217.64" r="3.39" transform="translate(-11.64 9.61) rotate(-3.13)"/><path class="cls-6" d="M124.73,208.71c.49.41-2.93,1.16-5.41,4.1s-2.7,6.22-3.19,5.81-.17-3.61,2.31-6.55S124.24,208.3,124.73,208.71Z"/><path class="cls-6" d="M170.73,233.75c0,.2-2.62-1.93-4.15-1.59-1.17.26-4.45,2.43-5.94,2.43s-3.83-1.23-5.2-1.17c-2.23.09-3.79,2-6.62,2.64-2.49.52-3.59-1.63-5.49-1-4.44,1.59-5.17,4.14-5.28,3.61s.35-2.72,4.67-4.34c1.93-.72,3.29,1.27,5.87.73,2.84-.59,4.48-2.47,6.72-2.52,1.49,0,3.6,1.17,5.3,1.18,1,0,4.56-1.85,5.37-2.11C168.58,230.84,170.69,233.52,170.73,233.75Z"/><path class="cls-6" d="M161.1,203c-.3.56,3,.19,6.4,2s4.92,4.71,5.21,4.15-1.27-3.38-4.68-5.17S161.4,202.43,161.1,203Z"/><path class="cls-6" d="M108,261.52c7.48,9.35,22.5,1.35,34.57-7,1.73-1.19,2.81,3.87,3.19,3.67,1.46-.79-22.22,20.85-37.37,10-8-5.71-10.94-15.83-9.95-17.09C101.28,247.61,104.18,256.69,108,261.52Z"/><path class="cls-6" d="M184.23,260.35c-3,6.57-9.75-.81-17-9.55-1-1.26-1.88.48-2.51,1.83-.51,1.09,13.33,20.18,19.53,14.44,5.09-4.71,5.66-15.35,5-16.65C187.57,246.75,186.33,255.72,184.23,260.35Z"/><path class="cls-8" d="M175.48,247.17a12.11,12.11,0,0,1-1.86,6.29,1.66,1.66,0,0,1,1.58.3c.95,1.06-.69,4.08-3.67,6.76s-6.16,4-7.11,2.94c-.42-.46-.33-1.31.15-2.34-2.68.67-5.94-.09-9.47-5.09-3.39-4.8.2-10.46,4.28-13.47,3.87-2.86,6.76-2.15,10,1.9.52-1.52,1.49-2.55,2.64-2.6C173.8,241.8,175.36,244.17,175.48,247.17Z"/><path class="cls-9" d="M136.37,247.56a12.11,12.11,0,0,0,1.86,6.29,1.66,1.66,0,0,0-1.58.3c-.95,1.06.69,4.08,3.67,6.76s6.16,4,7.11,2.94c.42-.46.33-1.31-.15-2.34,2.68.67,5.94-.09,9.47-5.09,3.39-4.8-.2-10.46-4.28-13.47-3.87-2.86-6.76-2.15-10,1.9-.52-1.52-1.49-2.55-2.64-2.6C138.06,242.18,136.5,244.56,136.37,247.56Z"/><path class="cls-6" d="M478.87,281.49c.92-3.06-4.47-10.81-5.55-14.61-.92-3.28-.7-5.4-2.22-7.33-.68-.86-2.6-2.35-2.78-.2-.29,3.43.75,7.34,1.9,11.2,1,3.39,2.44,6.19,1.77,6.61-1.68,1.06-7.83,8-5.62,8C469,285.2,478.07,284.14,478.87,281.49Z"/><path class="cls-6" d="M422,254.66c-.73,9.86.95,14-.79,16.27-1,1.34-2.37-4.18-1.69-13.42s4.7-17,5.61-16.89C427.64,240.82,422.52,247,422,254.66Z"/><path class="cls-10" d="M425.75,267.23a5.57,5.57,0,0,0-2.27-1.66.38.38,0,0,0,0-.17c0-.61-1.67-1.07-3.7-1s-3.66.59-3.65,1.2c0,.31.45.59,1.15.77a5.62,5.62,0,0,0-1.53,4.09c.07,2.89,2.12,5.18,4.57,5.12,4.29-.11,3.36-2.12,3.29-5,0-.32,0-.63-.06-.94,1,1,2.11,1.48,2.72,1S426.77,268.58,425.75,267.23Z"/><path class="cls-11" d="M539.42,199.94c2.23-.4-1.55,59.86-63,65.6C418.07,271,402,212.81,402.23,210.31,402.23,210.31,489.55,208.82,539.42,199.94Z"/><path class="cls-12" d="M485.66,206.28c8.5,6.64,14.12,15.37,15.43,25.42,1.45,11.17-2.67,22.14-10.72,31.36a85,85,0,0,1-14.21,2.51c-58.37,5.46-74.45-52.72-74.21-55.23C401.95,210.35,443.51,209.64,485.66,206.28Z"/><path class="cls-13" d="M533.64,200.91c-4,17.81-15.23,48.9-58.9,53-42.82,4-62.88-26.24-70.44-43.63C417.54,210,487.62,207.39,533.64,200.91Z"/><circle class="cls-6" cx="475.98" cy="223.89" r="1.92" transform="translate(-24.91 63.29) rotate(-7.41)"/><circle class="cls-6" cx="437.88" cy="225.32" r="1.92" transform="translate(-25.41 58.39) rotate(-7.41)"/><path class="cls-6" d="M457.82,231c0,.92,2.5,3.06,5.49,3s5.37-2.32,5.34-3.24a7.49,7.49,0,0,1-10.84.26Z"/><path class="cls-14" d="M410.19,210.3c-.31,3.35.42,6.14,2.31,7.94s4.53,2.35,7.72,2c-.89,7.61.7,13.6,4.81,15.62,2.78,1.37,6.29.72,10-1.5,2.39,8.32,6.69,13.88,11.67,13.94,3.08,0,5.94-2,8.3-5.56,4.61,6.51,10,10,14.53,8.68,2.91-.87,5-3.65,6.22-7.66,5.75,4.14,11.3,5.55,15,3.18,2.32-1.51,3.56-4.33,3.78-8,5,2,9.41,2,12.14-.34s3.31-6.63,2.13-11.79c4,.67,7.33,0,9.38-2.12,2.54-2.66,2.67-7.16.83-12.36,3.4.15,6.18-.72,7.89-2.72s2.1-4.64,1.55-7.81l5-.67c-4,17.81-15.23,48.9-58.9,53-42.82,4-62.88-26.24-70.44-43.63C405.46,210.44,407.54,210.38,410.19,210.3Z"/><path class="cls-6" d="M431.52,219.3c.24.34,1.38-1,3.07-2.14s3.31-1.81,3.07-2.14-1.8.35-3.5,1.53S431.28,219,431.52,219.3Z"/><path class="cls-6" d="M480.41,215.13c-.14.39-1.58-.58-3.52-1.29s-3.66-.9-3.52-1.29,1.83-.12,3.77.59S480.55,214.74,480.41,215.13Z"/><path class="cls-6" d="M525.49,247.17c1.21,9.81-.25,14,1.6,16.21,1.1,1.29,2.16-4.29,1-13.48s-5.54-16.7-6.44-16.59C519.13,233.62,524.55,239.59,525.49,247.17Z"/><path class="cls-10" d="M522.33,259.91a5.57,5.57,0,0,1,2.18-1.77.38.38,0,0,1-.05-.17c0-.61,1.62-1.15,3.65-1.2s3.69.41,3.7,1c0,.31-.42.61-1.11.83a5.62,5.62,0,0,1,1.73,4c.07,2.89-1.86,5.28-4.31,5.34-4.3.1-3.46-1.95-3.53-4.84,0-.32,0-.63,0-.94-.91,1.07-2,1.58-2.67,1.15S521.38,261.31,522.33,259.91Z"/><path class="cls-6" d="M464.46,287.22c2.46.16,4.71-9.59,6.31-13.92,1.34-3.63,4.92-7.32,6.29-10.47.61-1.41,0-2.94-1.74-2.33-2.69,1-6,5.52-8.23,9.58s-3.17,8.84-3.91,8.47c-4.65-2.3-11.78-1.84-10.65.94C453.79,282.64,462.33,287.08,464.46,287.22Z"/><path class="cls-6" d="M253.14,331.48c3.53-.32,10.72.66,11.44-5.12,1.17-9.32-4-29.51-1.79-46.52,1.17-9-6.44-7.91-7.9.76-1.77,10.5-.9,36.51-.9,36.51C216.67,331.74,237.9,332.86,253.14,331.48Z"/><path class="cls-6" d="M203.59,193.57c-14.61,14.55-31.4,22-28.47,25.61,1,1.26,21-9.72,34-25.53,12.67-15.3,16.15-22,15.14-23.26C220.72,165.94,218.2,179,203.59,193.57Z"/><path class="cls-6" d="M325.52,330.7c-3.53-.32-10.72.66-11.44-5.12-1.17-9.32,4-29.51,1.79-46.52-1.17-9,6.44-7.91,7.9.76,1.77,10.5.9,36.51.9,36.51C362,331,340.76,332.09,325.52,330.7Z"/><path class="cls-15" d="M360.06,172.11C324.94,141,309.89,59.84,262.75,69.24l-.22,0-.13,0c-47.14,9.4-24.07,75.47-55.46,129.57-24.91,42.94,23,84,67.35,94l.91.05c11,2.43,21.78,2.93,31.13,1.07C353.46,284.59,405.86,212.62,360.06,172.11Z"/><circle class="cls-16" cx="267.9" cy="154.44" r="5.38" transform="translate(-25.02 55.36) rotate(-11.27)"/><path class="cls-17" d="M265,74a5.09,5.09,0,0,0,.75-4.78c.38.16-3.46-14.7-6.73-20.56-1.52-2.73-2.88-3-5.88-2.1h0c-3,.88-5.32,4.1-4.44,7.09,0,0,9.21,5.26,11.91,17.92C261.21,74.65,262,74.91,265,74Z"/><path class="cls-6" d="M242.87,126.2c-.11.65,2.59-2.17,6.17-2.53s5.43.22,5.54-.43-2.39-1.34-5.78-.58C244.57,123.6,243,125.54,242.87,126.2Z"/><path class="cls-6" d="M294.13,113.1c0,.63-3.51-2.6-7.67-2.93s-7.44,2.38-7.39,1.75,3.36-3.13,7.52-2.8S294.18,112.47,294.13,113.1Z"/><path class="cls-6" d="M307.15,172.73c-3.61,8-22.47-15.9-24.21-11.85-2.91,6.78,22.07,26,29.1,16,4.06-5.79,9-25.75,3.09-25C311.86,152.3,314.37,156.74,307.15,172.73Z"/><path class="cls-9" d="M293.14,153.12a12.81,12.81,0,0,1-1.69,6.23.87.87,0,0,1,.33.25c.85,1.12-1.47,4.32-5.18,7.14s-7.42,4.2-8.27,3.08c-.44-.58,0-1.7,1-3a12.92,12.92,0,0,1-8.62-5.15c-4-5.29-3.64-12.33.85-15.74,7.86-6,9.08-1,13.09,4.26.44.58.86,1.18,1.24,1.78.25-3.22,1.65-5.68,3.43-5.73C291.3,146.14,293,149.24,293.14,153.12Z"/><path class="cls-6" d="M254.11,137.11a.73.73,0,0,0-.21-.38c-.13-.66-1.78-1.05-4.43-.82-2.19.19-5.67,1.78-5.67,2.06s2.25-1,5-1h.09c-.75.37-1.24.85-1.14,1.37a3.23,3.23,0,0,0,6.34-1.26Z"/><path class="cls-6" d="M293.51,129.38v0h0c0-.71-1.67-1.06-4.44-.9-2.25.13-5.67,1.78-5.67,2.06s1.94-.79,4.44-.95c-.47.32-.74.69-.66,1.09a3.23,3.23,0,0,0,6.34-1.26Z"/><path class="cls-18" d="M212.56,110.59c0-20.48-18.16-37.09-40.57-37.09s-40.57,16.61-40.57,37.09,18.16,37.09,40.57,37.09a44.29,44.29,0,0,0,9.65-1.06c8.32,7.88,20.23,10.68,16.2,6.66s-5.38-6.91-5.88-10.4C204.26,136.51,212.56,124.44,212.56,110.59Z"/><polygon class="cls-19" points="0 421.65 605.87 344.63 609.05 730.54 1.59 734.51 0 421.65"/><polygon class="cls-20" points="283.21 732.67 609.05 730.54 605.87 344.63 291.8 384.55 283.21 732.67"/><polygon class="cls-21" points="1.59 734.51 609.05 730.54 608.42 654.16 1.26 670.18 1.59 734.51"/><ellipse class="cls-22" cx="184.22" cy="681.31" rx="38.91" ry="4.76"/><ellipse class="cls-22" cx="327.32" cy="678.32" rx="29.57" ry="4.95"/><ellipse class="cls-22" cx="481.23" cy="711.94" rx="29.36" ry="4.43"/><path class="cls-6" d="M205.6,558.69c.06-.58-2.06-2.81-7.63-3.38s-10,.78-10,1.36,4.36-.93,9.92-.37S205.54,559.27,205.6,558.69Z"/><path class="cls-6" d="M185.33,685.38c-1.64-.14-5-.88-4.4-3.51,2.26-10.16,3-42.35,3-42.35-.11-2.7-2.67-11.68-.5-11.77l2.4,11.75c2.17-.09,2,1.43,1.95,4.13-.39,30.9,1.62,34,1.62,34C212.07,685.5,192.64,686,185.33,685.38Z"/><path class="cls-6" d="M208.57,682.38c-1.64-.13-5-.85-4.39-3.42,2.27-9.9,3-41.27,3-41.27-.11-2.63-2.65-11.38-.48-11.47l2.39,11.45c2.17-.09,2,1.39,1.94,4-.42,30.11,1.58,33.16,1.58,33.16C235.3,682.47,215.87,683,208.57,682.38Z"/><path class="cls-17" d="M188.84,489.8a3.76,3.76,0,0,1-.89-3.46c-.27.14,1.51-11,3.5-15.58.93-2.11,1.91-2.39,4.17-2h0c2.26.44,4.2,2.63,3.76,4.9a20.65,20.65,0,0,0-7.49,14C191.64,490,191.11,490.24,188.84,489.8Z"/><path class="cls-15" d="M250.18,571.86c-22.55-26.26-25.37-87.16-60.79-85h-.26C153.71,489,163.92,539.6,135.51,576c-22.54,28.89,8.37,63.72,39.77,75.52l.66.13c7.81,2.88,15.63,4.34,22.66,3.92C234,653.45,279.59,606.1,250.18,571.86Z"/><circle class="cls-6" cx="213.68" cy="540.12" r="2.39" transform="translate(-31.88 13.73) rotate(-3.42)"/><circle class="cls-6" cx="182.42" cy="541.61" r="2.39" transform="translate(-32.03 11.86) rotate(-3.42)"/><path class="cls-6" d="M178.41,529c-.12.45,1.86.48,4.14,1.07s4,1.52,4.14,1.07-1.64-1.3-3.93-1.89S178.53,528.59,178.41,529Z"/><path class="cls-6" d="M233.16,563.1c11.76-.09,3.76-11.68,6.89-8,.88,1,3.36,8.86.74,11.76s-14.69.44-17.27-.18c-20.3-4.87-13.87-5.33-14.06-7.2C209,555.15,220.2,563.2,233.16,563.1Z"/><path class="cls-6" d="M169.15,567.51c-11.76-.09-1.47-13.72-10.31-10-.67.29-.59,10.45,2.47,12.89,3.68,2.94,15.88.19,18.38-.74,19.85-7.35,9.56-5.91,9.75-7.78C189.86,557.6,182.11,567.61,169.15,567.51Z"/><path class="cls-6" d="M215.8,526.55c.24.4-1.65,1-3.68,2.17s-3.45,2.58-3.68,2.17,1.22-1.71,3.25-2.91S215.56,526.14,215.8,526.55Z"/><path class="cls-8" d="M216.56,551.92a9.46,9.46,0,0,1,1.51,4.52.64.64,0,0,1,.3,0c1,.34.87,3.25-.26,6.51s-2.84,5.62-3.82,5.28c-.5-.17-.72-1-.65-2.26a9.54,9.54,0,0,1-7.4.37c-4.63-1.6-7.28-6.09-5.92-10,2.38-6.89,5.15-4.35,9.78-2.75.51.18,1,.37,1.49.58-1.17-2.08-1.31-4.17-.24-4.92C212.57,548.38,214.9,549.58,216.56,551.92Z"/><path class="cls-9" d="M187.4,553.66a9.46,9.46,0,0,0-1.17,4.62.64.64,0,0,0-.3,0c-1,.41-.62,3.31.75,6.47s3.25,5.39,4.21,5c.49-.21.64-1.08.48-2.3a9.54,9.54,0,0,0,7.41-.19c4.5-1.95,6.8-6.62,5.15-10.43-2.9-6.69-5.47-3.95-10-2q-.74.32-1.44.69c1-2.16,1-4.25-.13-4.93C191.11,549.84,188.87,551.21,187.4,553.66Z"/><path class="cls-6" d="M316.81,484.78c.37-1.17,4.33-3,8.15-1.81s6,5,5.67,6.13c0,0-2.17-3.93-6-5.12S316.81,484.78,316.81,484.78Z"/><path class="cls-6" d="M324.45,681.51c-1.55-.13-4.71-.83-4.15-3.32,2.14-9.6,2.81-40,2.81-40-.11-2.55-2.52-11-.47-11.12l2.27,11.1c2.05-.09,1.87,1.35,1.84,3.9-.37,29.2,1.53,32.15,1.53,32.15C349.72,681.63,331.35,682.09,324.45,681.51Z"/><path class="cls-6" d="M343.2,680.41c-1.55-.13-4.71-.83-4.15-3.32,2.14-9.6,2.81-40,2.81-40-.11-2.55-2.52-11-.47-11.12l2.27,11.1c2.05-.09,1.87,1.35,1.84,3.9-.37,29.2,1.53,32.15,1.53,32.15C368.46,680.52,350.09,681,343.2,680.41Z"/><path class="cls-23" d="M378.34,505.29q-1.3-7.53-2.7-14.84a7.7,7.7,0,0,0-1.44-12.36,7.7,7.7,0,0,0-2.06-11.1,7.7,7.7,0,0,0-3.89-9.72l-.21-.79a7.68,7.68,0,0,0-2.5-10,7.69,7.69,0,0,0-1.71-10.81A7.68,7.68,0,0,0,360.5,426,7.68,7.68,0,0,0,356,416.4a7.69,7.69,0,0,0-6.89-11.33,7.69,7.69,0,0,0-8-8.78c-.22,0-.43,0-.64.06A7.7,7.7,0,0,0,326,397a7.16,7.16,0,0,0-.88,0l-.21,0h-.22a7.69,7.69,0,0,0-7.15,9.48,7.7,7.7,0,0,0-5.86,11.7,7.68,7.68,0,0,0-4.17,10,7.69,7.69,0,0,0-2.44,10.9,7.69,7.69,0,0,0-3.92,9.43,7.67,7.67,0,0,0-1.22,8.89A7.69,7.69,0,0,0,299,468a7.7,7.7,0,0,0,2.32,14.61c-1.69,11.88-3.4,24.43-5.37,37.22a136.47,136.47,0,0,1,54.83-15.31H351q1.51-.1,3-.18A142.94,142.94,0,0,1,378.34,505.29Z"/><path class="cls-24" d="M317.25,502.77c-37.56,8.36-7.35,139.31,9.35,143.28,27.81,6.61,46.64-40.16,53.35-87.64,7-49.47,19.21-90.63-4.58-117.61C370.13,434.85,412.13,481.67,317.25,502.77Z"/><path class="cls-24" d="M337.84,519.75c18,35.43,10.22,118.17-6.59,124.81-24.32,9.61-36-79.71-47.51-126.36-12-48.6-28.4-47.6-38.62-47.13C235.57,471.51,296.31,438.19,337.84,519.75Z"/><path class="cls-6" d="M329.87,439c.09.38-1.11,1.68-3,2.11s-3.79-.16-3.87-.54,1.7.19,3.6-.24S329.79,438.6,329.87,439Z"/><path class="cls-6" d="M359.71,444c.17-.35-.68-1.9-2.42-2.77s-3.72-.75-3.89-.4,1.7.22,3.44,1.1S359.54,444.37,359.71,444Z"/><path class="cls-6" d="M360.76,501.48c10.88,7.85,30,11,26.22,13.72-3.23,2.35-22.79-2.94-29.4-10.78-10.1-12-14.88-31.12-9.07-31.12C350.47,473.31,355.45,497.65,360.76,501.48Z"/><path class="cls-6" d="M318.46,503.42c-10.77,8.62-25.94,4.71-26.46,9.37-.43,3.86,25.9,2.09,33.72-10.08,6.16-9.59,7.11-32.34,5.15-31.12C328,473.37,326.7,496.83,318.46,503.42Z"/><path class="cls-25" d="M355.52,470.49a9.19,9.19,0,0,1-2.21,4.07.62.62,0,0,1,.19.23c.41.92-1.74,2.77-4.8,4.13s-5.87,1.71-6.28.78c-.21-.47.26-1.19,1.17-2a9.27,9.27,0,0,1-5.17-5c-1.93-4.36-.5-9.21,3.19-10.85,6.48-2.87,6.51.78,8.44,5.14.21.48.4,1,.58,1.45.7-2.21,2.1-3.7,3.34-3.44C355.39,465.31,356.09,467.76,355.52,470.49Z"/><path class="cls-9" d="M323.22,470.07a9.16,9.16,0,0,0,2.25,4,.62.62,0,0,0-.18.23c-.4.93,1.77,2.74,4.84,4.05s5.88,1.62,6.27.7c.2-.48-.27-1.18-1.19-1.94a9.24,9.24,0,0,0,5.08-5.07c1.87-4.37.38-9.19-3.32-10.77-6.49-2.78-6.48.86-8.34,5.23-.21.48-.39,1-.55,1.45-.73-2.19-2.14-3.66-3.38-3.38C323.29,464.91,322.63,467.36,323.22,470.07Z"/><circle class="cls-6" cx="324.9" cy="451.63" r="2.39" transform="translate(-26.4 20.21) rotate(-3.42)"/><circle class="cls-6" cx="353.12" cy="452.94" r="2.39" transform="translate(-26.42 21.9) rotate(-3.42)"/><path class="cls-6" d="M468.75,713.55c-.91-3.14,10-12.77,12.66-17.16,2.29-3.78,2.37-6,5.4-8.48,1.35-1.09,5-3.13,4.8-.82-.26,3.68-2.88,8.18-5.68,12.64-2.45,3.92-5.51,7.29-4.46,7.6,2.64.79,11.64,7,7.87,7.54C484.88,715.45,469.54,716.27,468.75,713.55Z"/><path class="cls-5" d="M427.77,605.79c-1.29-.37,16.17,4.94,31.79,3.12s31.55-9.26,30.87-15.07-5.31-11.52-19.85-5.51C456.8,594,438,608.71,427.77,605.79Z"/><polygon class="cls-5" points="477.57 608.81 480.14 608.67 480.47 601.87 477.06 602.48 477.57 608.81"/><path class="cls-6" d="M523.63,658.37c7.12,3,24.85,5.62,23.39,9-.23.53-13-.92-25.49-6-10.33-4.24-19.41-16.44-18.08-19.43C505.3,637.76,513,653.89,523.63,658.37Z"/><path class="cls-8" d="M547.39,656.74a9.6,9.6,0,0,0-3.49,3.85c-.2-.54-.49-.88-.86-.95-1.11-.21-2.48,2.15-3.07,5.27s-.17,5.82.94,6c.49.09,1-.31,1.53-1.06.65,2.09,2.51,4,7.34,4.31,4.64.32,7-4.44,7.36-8.44.34-3.8-1.33-5.46-5.39-6a2.63,2.63,0,0,0,.67-2.86C551.72,655.66,549.47,655.58,547.39,656.74Z"/><ellipse class="cls-7" cx="486.27" cy="649.53" rx="46.22" ry="42.46"/><path class="cls-26" d="M503.69,675.16c.67,6.66,14.48,8.91,35.08,6.84s35.14-7.47,34.47-14.14-16.41-9.89-37-7.9S503,668.5,503.69,675.16Z"/><path class="cls-27" d="M509.93,673.82c.57,5.71,12.41,7.64,30.07,5.87s30.13-6.4,29.55-12.12-14.07-8.48-31.73-6.78S509.35,668.11,509.93,673.82Z"/><path class="cls-6" d="M480.09,622.05c.28.42-2.49.21-5,1.87s-3.48,4.1-3.75,3.68.7-2.78,3.25-4.44S479.82,621.63,480.09,622.05Z"/><path class="cls-6" d="M506.07,713.94c-3.13.73-7.66-9.88-10.44-14.47-2.33-3.85-7.54-7.25-9.83-10.54-1-1.47-.44-3.36,1.83-3,3.61.52,8.64,5,12.17,9.1s5.56,9.37,6.45,8.78c5.57-3.65,14.76-4.7,13.8-1.28C519,706.36,508.78,713.31,506.07,713.94Z"/><path class="cls-6" d="M482.46,635c.16.48-.71,4.24-3.61,5.19s-6.17-1.63-6.33-2.11,3.06,2.14,6,1.19S482.31,634.49,482.46,635Z"/><path class="cls-6" d="M506.17,641c.07.32-1.84,2.95-5.5,3.77s-6.92-.75-7-1.07,3.12,1.28,6.77.46S506.1,640.7,506.17,641Z"/><path class="cls-6" d="M505.87,631.83c.08.5,2.57,3.44,5.58,3s4.74-4.27,4.66-4.77-1.74,3.3-4.75,3.79S505.78,631.34,505.87,631.83Z"/><path class="cls-6" d="M503.91,619.19c-.11.49,2.33-.45,5.3.24s4.71,2.64,4.82,2.14-1.65-2.34-4.62-3S504,618.7,503.91,619.19Z"/><path class="cls-28" d="M525.89,679l-11.64-7.72,10.54,1.23c1.54-2.29,5.16-8.13,15.31-9.8a40.13,40.13,0,0,1,23.66,3s-4.3,7.95-18.22,11.47c-7.89,2-15.78.29-19.43-1.65-.26-.14.71.38.51.17Z"/><path class="cls-29" d="M547.59,667c-.9.19-3.11-.07-3.33-1s1.66-2.27,2.56-2.47-2.32,1-1.95,2.33S548.48,666.77,547.59,667Z"/><path class="cls-29" d="M548.11,670.51c-1,.1-2.85-.21-3-1.08s1.66-2.27,2.56-2.47-2.32,1-1.95,2.33,3.27,1,2.82,1.15c-.13.16-2.42,1.19-2.1,2.33s3.61,1,2.71,1.18-3.11-.07-3.33-1S547.16,670.84,548.11,670.51Z"/><path class="cls-29" d="M542,667.64c-1,.21-3.38-.08-3.61-1.13s1.81-2.47,2.78-2.68-2.52,1.08-2.11,2.53S543,667.43,542,667.64Z"/><path class="cls-29" d="M542.58,671.49c-1.1.1-3.1-.22-3.31-1.18s1.81-2.47,2.78-2.68-2.52,1.08-2.11,2.53,3.55,1.09,3.06,1.25c-.14.17-2.62,1.29-2.28,2.53s3.92,1.07,2.95,1.28-3.38-.08-3.61-1.13S541.54,671.86,542.58,671.49Z"/><path class="cls-29" d="M536.17,669.63c-.79.17-2.73-.06-2.92-.91s1.46-2,2.24-2.16-2,.87-1.71,2S537,669.46,536.17,669.63Z"/><path class="cls-29" d="M536.63,672.74c-.89.08-2.5-.18-2.67-1s1.46-2,2.24-2.16-2,.87-1.71,2,2.87.88,2.47,1c-.11.14-2.12,1-1.84,2s3.16.86,2.38,1-2.73-.06-2.92-.91S535.79,673,536.63,672.74Z"/><path class="cls-29" d="M551.8,667.94a6.74,6.74,0,0,1,1.39-1.78c-1-.83-1.67-1.53-1.6-1.61a6.9,6.9,0,0,1,1.89,1.31,8,8,0,0,1,1.89-1.7,7.83,7.83,0,0,1-1.57,2,7.77,7.77,0,0,1,1.78,1.77,7.9,7.9,0,0,1-2.07-1.46A6.86,6.86,0,0,1,551.8,667.94Z"/><path class="cls-6" d="M488.41,672.68c7.35,2.39,25.24,3.49,24.07,7-.18.55-13,.18-25.91-3.86-10.65-3.35-20.74-14.73-19.66-17.82C468.39,653.7,477.44,669.11,488.41,672.68Z"/><path class="cls-9" d="M511.94,669a9.6,9.6,0,0,0-3.15,4.13c-.25-.52-.56-.83-.93-.87-1.12-.11-2.29,2.35-2.61,5.51s.33,5.81,1.44,5.92c.49.05,1-.4,1.43-1.19.83,2,2.83,3.76,7.68,3.68,4.65-.08,6.6-5,6.62-9,0-3.81-1.79-5.33-5.88-5.49a2.63,2.63,0,0,0,.42-2.9C516.17,667.6,513.92,667.71,511.94,669Z"/><path class="cls-18" d="M15.28,636.26c2.43-3.68,36.41,40.62,108.59-10.47,30.12-21.32,48.09-56.21,84.34-59,51.66-3.95,63.87,25.91,112.45,25.91,85.79,0,60.51-98.78,124.58-116.31,122.92-33.63,106,172,106,174.16s2-177.47-96.66-169.75c-54.5,4.26-42.33,120.72-127.89,120.72-50.24,0-60.51-29.57-114.66-25.36-34.36,2.68-56.39,40.34-84.89,57.88C54.33,678.89,14.23,637.86,15.28,636.26Z"/></g></g></svg>