
<svg xmlns="http://www.w3.org/2000/svg" version="1.1" xmlns:xlink="http://www.w3.org/1999/xlink" preserveAspectRatio="none" x="0px" y="0px" width="3494px" height="1718px" viewBox="0 0 3494 1718">
<defs>
<g id="Layer2_0_FILL">
<path fill="#231F20" stroke="none" d="
M 625.1 1481.1
Q 615.7 1480.4 614.55 1480.55 610.1 1481 609.8 1484.95
L 603.95 1563.1
Q 603.75 1566.1 602.6 1580.5 602.25 1593.9 606.15 1596.6 609.3 1598.8 617.75 1601 626.3 1603.25 634.95 1604.1 644.6 1605.05 647.35 1605.2 653.25 1605.4 662.5 1604.75 670.6 1604.15 670.75 1601.4 670.95 1598.95 664.95 1594.3 660.85 1591.1 650.25 1584.3 637.05 1575.85 631.85 1572.25 628.25 1569.75 627.25 1530.9 626.85 1510.25 626.55 1501.35 626.1 1486.1 625.1 1481.1 Z"/>
</g>

<g id="Layer2_1_FILL">
<path fill="#231F20" stroke="none" d="
M 487.55 1374.8
Q 490.2 1366.55 496.5 1351.25 500.95 1340.55 500.9 1337.15 500.8 1332.45 493.9 1332.35 489.15 1332.25 482.85 1346.7 475.4 1363.75 467.8 1397.05 460.35 1429.7 467.15 1468.2 469.7 1482.6 473.45 1492.75 476.9 1502.25 479.15 1502.25 484.75 1502.35 485.6 1494.7 486.25 1489.15 484.35 1474.15 481.5 1451.65 480.9 1444 479.35 1424.3 480.8 1407.9 482.3 1391.45 487.55 1374.8 Z"/>
</g>

<g id="Layer2_2_FILL">
<path fill="#EF6E31" stroke="none" d="
M 596.2 1143.75
Q 559.65 1157.95 531.45 1183.8 503.25 1209.65 487.75 1243.15 471.75 1277.85 471.75 1315.85 471.75 1353.85 487.75 1388.55 503.25 1422.05 531.45 1447.9 559.65 1473.75 596.2 1487.95 634.1 1502.6 675.55 1502.6 717 1502.6 754.9 1487.95 791.45 1473.75 819.65 1447.9 847.85 1422.05 863.35 1388.55 879.35 1353.85 879.35 1315.85 879.35 1277.85 863.35 1243.15 847.85 1209.65 819.65 1183.8 791.45 1157.95 754.9 1143.75 717 1129.1 675.55 1129.1 634.1 1129.1 596.2 1143.75 Z"/>
</g>

<g id="Layer2_3_FILL">
<path fill="#F49331" stroke="none" d="
M 623.55 1135.25
Q 598.9 1141.2 576.55 1152.6 611.8 1141.2 649.65 1143.1 688.85 1145.1 725.45 1161.15 763.5 1177.85 790.35 1204.55 816.95 1231 830 1264.75 843.25 1298.95 841.2 1337.25 839.1 1376.95 820.75 1417.7 808.65 1444.65 777 1466.85 752.95 1483.75 715.65 1499 750.3 1492.65 780.6 1475.9 810.35 1459.5 832.5 1434.95 854.85 1410.25 866.9 1380.25 879.35 1349.25 879.35 1315.85 879.35 1277.85 863.35 1243.15 847.85 1209.65 819.65 1183.8 791.45 1157.95 754.9 1143.75 717 1129.1 675.55 1129.1 649 1129.1 623.55 1135.25 Z"/>
</g>

<g id="Layer2_4_FILL">
<path fill="#E8ECEE" stroke="none" d="
M 448.35 1453.75
Q 448.65 1456.95 454.7 1458.95 439.7 1468.7 445.35 1495.25 448.3 1509.1 462.8 1514.45 475.1 1519 490.05 1516.1 502.25 1513.75 506.6 1506.55 510.85 1499.55 508.75 1486.05 512.65 1487.75 516.05 1487.65 519.55 1487.5 521.65 1485.4 525 1482.05 523.4 1475.8 521.85 1469.5 516.3 1463.9 512.8 1460.4 506.8 1457.5 501 1454.7 495.75 1453.8 498.9 1451.45 498.7 1449.05 498.35 1445.35 490.75 1443.45 483.15 1441.55 472.7 1442.5 462.3 1443.5 455.15 1446.8 448 1450.05 448.35 1453.75 Z"/>
</g>

<g id="Layer2_5_FILL">
<path fill="#231F20" stroke="none" d="
M 843.05 1338.15
Q 842.95 1341.55 847.4 1352.25 853.7 1367.55 856.35 1375.8 861.6 1392.4 863.1 1408.9 864.6 1425.3 863 1445 862.4 1452.65 859.55 1475.15 857.7 1490.15 858.3 1495.75 859.2 1503.35 864.8 1503.25 867.05 1503.25 870.55 1493.75 874.25 1483.6 876.8 1469.2 883.6 1430.7 876.15 1398.05 868.55 1364.75 861.1 1347.7 854.8 1333.25 850.05 1333.35 843.15 1333.45 843.05 1338.15 Z"/>
</g>

<g id="Layer2_6_FILL">
<path fill="#E8ECEE" stroke="none" d="
M 827.65 1464.9
Q 822.05 1470.5 820.5 1476.8 818.95 1483.05 822.3 1486.4 824.4 1488.5 827.9 1488.65 831.25 1488.75 835.2 1487.05 833.1 1500.55 837.35 1507.6 841.7 1514.8 853.9 1517.15 868.8 1520.05 881.1 1515.45 895.6 1510.1 898.55 1496.25 904.25 1469.85 889.25 1459.95 895.3 1458 895.6 1454.8 895.95 1451.1 888.8 1447.8 881.7 1444.5 871.25 1443.5 860.8 1442.55 853.15 1444.45 845.55 1446.35 845.2 1450.05 845 1452.4 848.2 1454.85 842.95 1455.7 837.15 1458.5 831.2 1461.35 827.65 1464.9 Z"/>
</g>

<g id="Layer2_7_FILL">
<path fill="#231F20" stroke="none" d="
M 723.1 1564.9
Q 723.2 1567.95 723.4 1582.4 724.4 1595.75 728.5 1598.1 731.85 1600 740.45 1601.4 749.15 1602.8 757.85 1602.8 767.6 1602.85 770.35 1602.7 776.25 1602.4 785.35 1600.8 793.35 1599.45 793.25 1596.65 793.2 1594.25 786.8 1590.15 782.45 1587.4 771.25 1581.65 757.4 1574.55 751.8 1571.4 747.95 1569.25 743.25 1530.7 740.85 1510.2 739.75 1501.3 737.8 1486.15 736.35 1481.3 726.8 1481.55 725.75 1481.75 721.4 1482.6 721.45 1486.6
L 723.1 1564.9 Z"/>
</g>

<g id="Layer2_8_FILL">
<path fill="#0D4625" stroke="none" d="
M 636.65 1122.55
L 637.75 1135.95 649.05 1135.35 650.55 1105.4 635.75 1108.05
Q 637.2306640625 1109.0515625 638.15 1110.85 639.2 1112.95 639.15 1115.4 639.0228515625 1118.9185546875 636.65 1122.55 Z"/>
</g>

<g id="Layer1_0_FILL">
<path fill="#0D4625" stroke="none" d="
M 635.5 1108.1
L 637.75 1135.95 649.05 1135.35 650.55 1105.4 635.5 1108.1 Z"/>
</g>

<g id="Layer0_0_FILL">
<path fill="#0D4625" stroke="none" d="
M 415.2 1106.85
Q 415.6 1107.6 420 1110.05 431.45 1116.5 449.6 1123.3 505.95 1144.45 548.95 1139.45 601.65 1133.3 641.45 1114.95 660.45 1106.15 670.55 1096.65 681.2 1086.6 680.1 1077.3 678.9 1067.05 674.85 1060.85 670.25 1053.85 661.1 1050.5 641.45 1043.4 593.15 1051.9 571.55 1055.7 543.85 1067.9 538.75 1070.15 497.4 1090.45 470.85 1103.45 455.3 1107.6 434 1113.3 419.05 1107.65 414.85 1106.05 415.2 1106.85 Z"/>
</g>

<path id="Layer2_4_1_STROKES" stroke="#231F20" stroke-width="3.7" stroke-linejoin="miter" stroke-linecap="butt" stroke-miterlimit="10" fill="none" d="
M 516.3 1463.9
Q 512.8 1460.4 506.8 1457.5 501 1454.7 495.75 1453.8 498.9 1451.45 498.7 1449.05 498.35 1445.35 490.75 1443.45 483.15 1441.55 472.7 1442.5 462.3 1443.5 455.15 1446.8 448 1450.05 448.35 1453.75 448.65 1456.95 454.7 1458.95 439.7 1468.7 445.35 1495.25 448.3 1509.1 462.8 1514.45 475.1 1519 490.05 1516.1 502.25 1513.75 506.6 1506.55 510.85 1499.55 508.75 1486.05 512.65 1487.75 516.05 1487.65 519.55 1487.5 521.65 1485.4 525 1482.05 523.4 1475.8 521.85 1469.5 516.3 1463.9 Z"/>

<path id="Layer2_6_1_STROKES" stroke="#231F20" stroke-width="3.7" stroke-linejoin="miter" stroke-linecap="butt" stroke-miterlimit="10" fill="none" d="
M 827.65 1464.9
Q 831.2 1461.35 837.15 1458.5 842.95 1455.7 848.2 1454.85 845 1452.4 845.2 1450.05 845.55 1446.35 853.15 1444.45 860.8 1442.55 871.25 1443.5 881.7 1444.5 888.8 1447.8 895.95 1451.1 895.6 1454.8 895.3 1458 889.25 1459.95 904.25 1469.85 898.55 1496.25 895.6 1510.1 881.1 1515.45 868.8 1520.05 853.9 1517.15 841.7 1514.8 837.35 1507.6 833.1 1500.55 835.2 1487.05 831.25 1488.75 827.9 1488.65 824.4 1488.5 822.3 1486.4 818.95 1483.05 820.5 1476.8 822.05 1470.5 827.65 1464.9 Z"/>
</defs>

<g transform="matrix( 1, 0, 0, 1, 0,0) ">
<use xlink:href="#Layer2_0_FILL"/>
</g>

<g transform="matrix( 1, 0, 0, 1, 0,0) ">
<use xlink:href="#Layer2_1_FILL"/>
</g>

<g transform="matrix( 1, 0, 0, 1, 0,0) ">
<use xlink:href="#Layer2_2_FILL"/>
</g>

<g transform="matrix( 1, 0, 0, 1, 0,0) ">
<use xlink:href="#Layer2_3_FILL"/>
</g>

<g transform="matrix( 1, 0, 0, 1, 0,0) ">
<use xlink:href="#Layer2_4_FILL"/>

<use xlink:href="#Layer2_4_1_STROKES"/>
</g>

<g transform="matrix( 1, 0, 0, 1, 0,0) ">
<use xlink:href="#Layer2_5_FILL"/>
</g>

<g transform="matrix( 1, 0, 0, 1, 0,0) ">
<use xlink:href="#Layer2_6_FILL"/>

<use xlink:href="#Layer2_6_1_STROKES"/>
</g>

<g transform="matrix( 1, 0, 0, 1, 0,0) ">
<use xlink:href="#Layer2_7_FILL"/>
</g>

<g transform="matrix( 1, 0, 0, 1, 0,0) ">
<use xlink:href="#Layer2_8_FILL"/>
</g>

<g transform="matrix( 1, 0, 0, 1, 0,0) ">
<use xlink:href="#Layer1_0_FILL"/>
</g>

<g transform="matrix( 1, 0, 0, 1, 0,0) ">
<use xlink:href="#Layer0_0_FILL"/>
</g>
</svg>
