<svg xmlns="http://www.w3.org/2000/svg" viewBox="0 0 658.43 1033.18"><defs><style>.cls-1{fill:#81b4d4;}.cls-2{opacity:0.95;}.cls-3{fill:#c8e0e8;}.cls-4{fill:#adced8;}.cls-5{opacity:0.41;}.cls-6{fill:#009444;}.cls-7{fill:#231f20;}.cls-8{fill:#e8ecee;stroke:#231f20;stroke-miterlimit:10;stroke-width:2.26px;}.cls-9{fill:#f7941d;}.cls-10{fill:#f36e24;}.cls-11{fill:#d35461;}.cls-12{fill:#be1e2d;opacity:0.42;}</style></defs><title>glass</title><g id="Layer_2" data-name="Layer 2"><g id="Layer_7" data-name="Layer 7"><path class="cls-1" d="M658.43,989.59C658.43,966.16,543.25,954,398,954s-261.27,3-261.27,26.43S242.25,1037,400.1,1032C545.32,1027.29,658.43,1013,658.43,989.59Z"/><g class="cls-2"><path class="cls-3" d="M517,982.78c-26.57,76.36-355.94,57-382.51,1.41C67.74,844.68,0,33.36,0,33.36H640.19S577.36,809.19,517,982.78Z"/><ellipse class="cls-4" cx="320.18" cy="32.69" rx="319.7" ry="32.69"/></g><g class="cls-5"><path class="cls-1" d="M226.05,1003.22c12-10,54.7-15.73,106-16,63.12-.33,95.59,7.64,95.59,17s-46.47,9-109.59,9S217.49,1010.37,226.05,1003.22Z"/><path class="cls-6" d="M194,708.38c-14-5.31,37.31,24.29,79.29,19.4s81.89-22.34,80.08-37.94S341.87,667,300.25,674.35C259.35,681.54,220.68,718.51,194,708.38Z"/><polygon class="cls-6" points="327.47 725.65 334.36 725.29 335.27 707 326.1 708.64 327.47 725.65"/><path class="cls-7" d="M498.7,805.81c25.63-17.42,32.82-40.07,39-32.31,2.13,2.69-17.53,32.25-45.27,46.07-26.84,13.37-38.53,15.41-40.66,12.73C444.19,822.77,473.07,823.23,498.7,805.81Z"/><path class="cls-8" d="M554.26,771.55c-.2-12-9.71-22.3-21.66-21.66-8,.43-10.64,6.43-16.25,14.58-2.94-5.93-5-8.15-11-6-3.14,1.1-3.48,7.37-.9,13.62a37.49,37.49,0,0,0,5.49,9.09,3,3,0,0,0-1,1c-1.66,2.88,2.21,8.24,8.66,12s13,4.4,14.69,1.52a3.36,3.36,0,0,0,.28-2.42h0C545,793,554.46,783.4,554.26,771.55Z"/><path class="cls-7" d="M335.23,1015.72c-7.11-.7-15-2.81-17.57-4.58-3.74-2.61-1.62-16.78-1.34-20.47L319.88,943c.28-3.69,4.34-2.71,9.36-2.34h0c1.87,9.54.26,53,4.13,55.63,15.06,10.42,32.54,18.82,18.69,19.84A73.83,73.83,0,0,1,335.23,1015.72Z"/><path class="cls-7" d="M407.34,1008c-7.14,0-15.22-1.36-17.93-2.88-4-2.24-3.21-16.55-3.29-20.25l-1-47.82c-.08-3.7,4.06-3.11,9.09-3.22h0c2.77,9.32,5.31,52.69,9.41,55,16,8.94,34.19,15.64,20.5,18A73.83,73.83,0,0,1,407.34,1008Z"/><ellipse class="cls-9" cx="350.54" cy="835.47" rx="124.39" ry="114"/><path class="cls-10" d="M367.87,934C301.5,934,247.7,883.85,247.7,822c0-35.46,17.67-67.06,45.25-87.58-39.71,19-66.81,57.15-66.81,101.07,0,63,55.69,114,124.39,114,41,0,77.33-18.16,100-46.18C429,922.32,399.89,934,367.87,934Z"/><circle class="cls-7" cx="315.47" cy="809.38" r="7.24" transform="translate(-43.77 18.45) rotate(-3.13)"/><circle class="cls-7" cx="417.96" cy="798.82" r="7.24" transform="translate(-43.04 24.04) rotate(-3.13)"/><path class="cls-7" d="M326.29,769.77c.42,1.29-6.61-1.2-14.39,1.34S300,779.33,299.6,778s3.75-6.72,11.54-9.26S325.87,768.48,326.29,769.77Z"/><path class="cls-7" d="M402.17,766c-.21,1.34,6.16-1.68,14.26-.42s13.15,6.11,13.36,4.78-4.88-5.94-13-7.2S402.38,764.63,402.17,766Z"/><path class="cls-11" d="M397.86,834.43c-1.82,7.25-10.32,13.59-23.21,13.72s-21.59-6-23.48-13.25c-2.34-8.91,1.15-12.62,23.21-13.72C399.08,819.95,399.67,827.21,397.86,834.43Z"/><path class="cls-7" d="M229.06,895.57c-2.78,30.87,8.89,57.77-1,57.62-3.43-.05-13.83-34-6.93-64.21,6.68-29.23,12.5-39.57,15.93-39.52C249.19,849.64,231.83,864.7,229.06,895.57Z"/><path class="cls-8" d="M250.71,929.77a25.79,25.79,0,0,0-12.54-6.16c1.23-.92,1.91-1.92,1.81-2.91-.28-3-7.39-4.8-15.89-4s-15.15,3.88-14.87,6.89c.12,1.32,1.57,2.41,3.88,3.15-4.93,3.23-8.43,9.43-5.7,22.16,2.63,12.22,16.67,14.79,27.27,12.75,10.06-1.94,13.12-7.49,11.42-18.36,3.13,1.37,6.14,1.34,7.88-.39C256.69,940.17,255.23,934.3,250.71,929.77Z"/></g><path class="cls-12" d="M440.31,858.68c-11.15-7-38,13-47.18,25.05a11.91,11.91,0,0,0-14,0c-12.82-9.46-41-21-49.8-12.09-6.17,6.23-1.79,40,8.86,46.55s35.64-4,44.55-14.69a12,12,0,0,0,4.59.35,11.83,11.83,0,0,0,6.78-3.16c9.95,9.22,39,14.54,48.28,5.37C451.24,897.22,447.75,863.33,440.31,858.68Z"/></g></g></svg>