<svg xmlns="http://www.w3.org/2000/svg" viewBox="0 0 836.12 1333.96"><defs><style>.cls-1{fill:#81b4d4;}.cls-2{fill:#c6252d;}.cls-3{fill:#ea3736;}.cls-4{fill:#d12627;}.cls-5{fill:#f2f2f3;}.cls-6{fill:#eee8e7;}.cls-7{fill:#d6d6d6;}.cls-8{fill:#d32127;}.cls-9{fill:#231f20;}.cls-10{fill:#fff;}.cls-11{fill:#ffdc83;}.cls-12{fill:#f8aeb0;}</style></defs><title>milk</title><g id="Layer_2" data-name="Layer 2"><g id="Layer_8" data-name="Layer 8"><path class="cls-1" d="M836.12,1303.12c0-20.34-167.48-36.83-374.07-36.83S88,1282.79,88,1303.12,258.51,1334,465.1,1334,836.12,1323.46,836.12,1303.12Z"/><polygon class="cls-2" points="714.86 1271.46 619.85 1331.57 610.63 354.63 718.17 387.8 714.86 1271.46"/><rect class="cls-3" x="1.34" y="365.75" width="620.87" height="965.82"/><polygon class="cls-4" points="0 366.52 319.75 138.1 631.46 366.91 0 366.52"/><polygon class="cls-3" points="44.61 353.41 323.01 146 648.27 356.32 44.61 353.41"/><polygon class="cls-5" points="74.31 345.52 344.56 141.41 613.52 350.16 74.31 345.52"/><polygon class="cls-2" points="718.35 388.11 630.33 367.39 319.75 138.1 445.05 171.34 718.35 388.11"/><rect class="cls-6" x="312.19" width="20.67" height="144.03"/><polygon class="cls-7" points="445.89 172.06 332.65 144.36 331.71 0.06 445.89 47.66 445.89 172.06"/><path class="cls-8" d="M622.21,368.08h-25c-61.39,82-119.78,310.29-296.68,417.16C200.35,845.74,94.19,868.17,1.34,886.7v440.23H622.21Z"/><path class="cls-9" d="M328.73,417.67C326,426,339.58,438,359.15,444.51s35.5,3.94,40.44-3.32c19.08-28.07,18.31-29.36-30.42-26.85C348.57,415.41,331.49,409.34,328.73,417.67Z"/><path class="cls-10" d="M30.93,600.9c0-27,14.25-42.51,40.33-42.51s40.33,15.46,40.33,42.51v87.91c0,27-14.25,42.51-40.33,42.51s-40.33-15.46-40.33-42.51ZM57.5,690.5c0,12.08,5.31,16.66,13.77,16.66S85,702.57,85,690.5V599.2c0-12.08-5.31-16.66-13.77-16.66S57.5,587.13,57.5,599.2Z"/><path class="cls-10" d="M154.11,560.32V690.74c0,12.08,5.31,16.42,13.77,16.42s13.77-4.35,13.77-16.42V560.32h25.12V689c0,27-13.52,42.51-39.61,42.51S127.54,716.1,127.54,689V560.32Z"/><path class="cls-10" d="M217.14,560.32h82.12v24.15H271.48V729.38H244.92V584.47H217.14Z"/><path class="cls-10" d="M337.41,635.43h34.29v24.15H337.41v69.8H310.85V560.32h70.28v24.15H337.41Z"/><path class="cls-10" d="M393.93,560.32h26.57V729.38H393.93Z"/><path class="cls-10" d="M432.09,560.32H514.2v24.15H486.43V729.38H459.86V584.47H432.09Z"/><path class="cls-10" d="M561.54,558.39c25.84,0,39.13,15.46,39.13,42.51v5.31H575.54v-7c0-12.08-4.83-16.66-13.28-16.66S549,587.13,549,599.2c0,12.32,5.31,21.5,22.7,36.71,22.22,19.56,29.22,33.57,29.22,52.89,0,27-13.53,42.51-39.61,42.51s-39.61-15.46-39.61-42.51V678.42H546.8V690.5c0,12.08,5.31,16.42,13.77,16.42s13.77-4.35,13.77-16.42c0-12.32-5.31-21.49-22.7-36.71-22.22-19.56-29.22-33.57-29.22-52.89C522.41,573.85,535.69,558.39,561.54,558.39Z"/><path class="cls-11" d="M436.34,406.56c-1,7.49-5.17,9-10,8.39s-8-7.21-7-14.7,8.93-17.11,10.56-12.42S437.31,399.07,436.34,406.56Z"/><path class="cls-10" d="M380.94,460.86c-4.85,37.39-3.09,69.08,76.48,78.76,78.95,9.61,89.19-19.26,94-56.66S522.06,410.3,475,404.2,385.79,423.46,380.94,460.86Z"/><ellipse class="cls-12" cx="450.63" cy="495.41" rx="32.1" ry="55.45" transform="translate(-98.59 878.62) rotate(-82.62)"/><ellipse class="cls-9" cx="471.23" cy="502.98" rx="5.84" ry="4.86" transform="translate(-88.15 905.65) rotate(-82.62)"/><ellipse class="cls-9" cx="425.53" cy="496.54" rx="5.84" ry="4.86" transform="translate(-121.59 854.72) rotate(-82.62)"/><path class="cls-9" d="M615.94,458c.55,8.76-15.68,16.91-36.26,18.2s-35.33-5.24-38.25-13.52c-11.3-32-10.22-33.06,36.26-18.2C597.33,450.72,615.39,449.2,615.94,458Z"/><path class="cls-11" d="M514.58,418.35c-1,7.49,2.7,10,7.56,10.67s9.58-4.93,10.56-12.42-4.27-18.82-7-14.7S515.55,410.86,514.58,418.35Z"/><ellipse class="cls-9" cx="490.91" cy="454.26" rx="7.76" ry="5.54" transform="translate(-22.67 882.71) rotate(-82.62)"/><ellipse class="cls-9" cx="420.64" cy="447.35" rx="7.76" ry="5.54" transform="translate(-77.07 807.01) rotate(-82.62)"/><path class="cls-10" d="M292.19,462.91a45.57,45.57,0,0,0,5.38-24.46c-2.57-36.1-50.26-62.11-106.52-58.1S91.29,416.88,93.86,453s50.26,62.11,106.52,58.1c33.23-2.37,62-14.69,79.47-31.82,12.79,2.94,29,3.26,34.24,2.22C321.62,480,300.12,472.5,292.19,462.91Z"/><path class="cls-9" d="M148.57,465.63c-10,1-17.87-7.06-19.1-18.9s5.16-21.19,15-22.2c8.76-.9,14.34,5.14,14.74,9a2.91,2.91,0,0,1-2.5,3.27,2.22,2.22,0,0,1-2.38-1.48c-1.43-3.64-5.12-5.43-9.26-5-7.49.77-10.29,8.75-9.55,15.85S140.61,460.77,148,460a9.12,9.12,0,0,0,8.52-7.56,2.69,2.69,0,0,1,5.17.52C162,455.83,159.2,464.53,148.57,465.63Z"/><path class="cls-9" d="M166,423.81c-.12-1.16,1.15-1.84,2.52-2s2.87.32,3,1.42l4,38.34c.11,1-1.11,1.67-2.48,1.82s-2.92-.25-3-1.25Z"/><path class="cls-9" d="M179.94,424a3,3,0,1,1,3.28,2.67A3,3,0,0,1,179.94,424Zm1.29,10.89c-.12-1.16,1.25-1.91,2.63-2.05s2.76.33,2.88,1.48l2.67,25.83c.11,1.1-1.21,1.8-2.58,1.94s-2.81-.27-2.92-1.37Z"/><path class="cls-9" d="M209.83,460.08c-7.66.79-14.5-5.13-15.36-13.39s4.63-15.51,12.29-16.3c7-.73,11.92,4.34,12.11,6.21a2.85,2.85,0,0,1-2.59,2.94,2.15,2.15,0,0,1-1.85-.7,8.18,8.18,0,0,0-6.89-2.57,8.69,8.69,0,0,0-7.5,9.79c.51,5,4.62,8.6,9.3,8.11a8.88,8.88,0,0,0,7-4.56,2.42,2.42,0,0,1,1.87-1.31,2.59,2.59,0,0,1,2.85,2.27C221.24,452.44,217.76,459.26,209.83,460.08Z"/><path class="cls-9" d="M231.2,441.23l1.49,14.38c.11,1.1-1.32,1.81-2.75,2s-2.69-.22-2.81-1.38l-4-38.34c-.13-1.21,1.13-2,2.45-2.09s3,.36,3.11,1.52l2.27,22,9.48-11.72a2.68,2.68,0,0,1,1.9-1,2.76,2.76,0,0,1,3.12,2.18,2.32,2.32,0,0,1-.64,1.85l-7.56,9.24,10.89,11.62A2.57,2.57,0,0,1,249,453a2.85,2.85,0,0,1-2.6,2.88,2.43,2.43,0,0,1-2.08-.79Z"/><path class="cls-9" d="M251.28,416.22a3.18,3.18,0,0,1,3.08-3.6,3.22,3.22,0,0,1,3.79,2.73l0,.17L259.73,441c.14,1.88-.92,2.93-2.08,3.05s-2.41-.7-2.66-2.56Zm7.35,37.71a2.92,2.92,0,0,1-3-2.42,2.74,2.74,0,1,1,5.45-.56A2.93,2.93,0,0,1,258.62,453.93Z"/></g></g></svg>