<svg xmlns="http://www.w3.org/2000/svg" viewBox="0 0 363.79 344.93"><defs><style>.cls-1{fill:#81b4d4;}.cls-2{fill:#009444;}.cls-3{fill:#231f20;}.cls-4{fill:#e8ecee;stroke:#231f20;stroke-miterlimit:10;stroke-width:2.26px;}.cls-5{fill:#f7941d;}.cls-6{fill:#f36e24;}.cls-7{fill:#d35461;}.cls-8{fill:#be1e2d;}</style></defs><title>orange_boy</title><g id="Layer_2" data-name="Layer 2"><g id="Layer_7" data-name="Layer 7"><path class="cls-1" d="M329.34,331.74c-12-10-54.7-15.73-106-16-63.12-.33-95.59,7.64-95.59,17s46.47,9,109.59,9S337.91,338.89,329.34,331.74Z"/><path class="cls-2" d="M361.44,36.9c14-5.31-37.31,24.29-79.29,19.4S200.26,34,202.07,18.36,213.53-4.45,255.15,2.87C296,10.06,334.72,47,361.44,36.9Z"/><polygon class="cls-2" points="227.92 54.17 221.03 53.81 220.13 35.52 229.3 37.16 227.92 54.17"/><path class="cls-3" d="M56.69,134.33C31.06,116.9,23.87,94.25,17.71,102,15.57,104.7,35.23,134.27,63,148.08c26.84,13.37,38.53,15.41,40.66,12.73C111.2,151.29,82.32,151.75,56.69,134.33Z"/><path class="cls-4" d="M1.13,100.07c.2-12,9.71-22.3,21.66-21.66,8,.43,10.64,6.43,16.25,14.58,2.94-5.93,5-8.15,11-6,3.14,1.1,3.48,7.37.9,13.62a37.49,37.49,0,0,1-5.49,9.09,3,3,0,0,1,1,1c1.66,2.88-2.21,8.24-8.66,12s-13,4.4-14.69,1.52a3.36,3.36,0,0,1-.28-2.42h0C10.39,121.48.93,111.92,1.13,100.07Z"/><path class="cls-3" d="M220.16,344.23c7.11-.7,15-2.81,17.57-4.58,3.74-2.61,1.62-16.78,1.34-20.47l-3.56-47.69c-.28-3.69-4.34-2.71-9.36-2.34h0c-1.87,9.54-.26,53-4.13,55.63-15.06,10.42-32.54,18.82-18.69,19.84A73.83,73.83,0,0,0,220.16,344.23Z"/><path class="cls-3" d="M148.06,336.53c7.14,0,15.22-1.36,17.93-2.88,4-2.24,3.21-16.55,3.29-20.25l1-47.82c.08-3.7-4.06-3.11-9.09-3.22h0c-2.77,9.32-5.31,52.69-9.41,55-16,8.94-34.19,15.64-20.5,18A73.83,73.83,0,0,0,148.06,336.53Z"/><ellipse class="cls-5" cx="204.86" cy="163.99" rx="124.39" ry="114"/><path class="cls-6" d="M187.53,262.52c66.36,0,120.16-50.15,120.16-112,0-35.46-17.67-67.06-45.25-87.58,39.71,19,66.81,57.15,66.81,101.07,0,63-55.69,114-124.39,114-41,0-77.33-18.16-100-46.18C126.4,250.84,155.5,262.52,187.53,262.52Z"/><circle class="cls-3" cx="239.92" cy="137.9" r="7.24" transform="translate(89.11 369.93) rotate(-86.87)"/><circle class="cls-3" cx="137.43" cy="127.34" r="7.24" transform="translate(2.77 257.61) rotate(-86.87)"/><path class="cls-3" d="M229.1,98.29c-.42,1.29,6.61-1.2,14.39,1.34s11.88,8.22,12.3,6.93S252,99.84,244.25,97.3,229.52,97,229.1,98.29Z"/><path class="cls-3" d="M153.22,94.49c.21,1.34-6.16-1.68-14.26-.42s-13.15,6.11-13.36,4.78,4.88-5.94,13-7.2S153,93.15,153.22,94.49Z"/><path class="cls-7" d="M157.53,162.95c1.82,7.25,10.32,13.59,23.21,13.72s21.59-6,23.48-13.25c2.34-8.91-1.15-12.62-23.21-13.72C156.32,148.47,155.72,155.73,157.53,162.95Z"/><path class="cls-3" d="M326.34,224.09c2.78,30.87-8.89,57.77,1,57.62,3.43-.05,13.83-34,6.93-64.21-6.68-29.23-12.5-39.57-15.93-39.52C306.2,178.16,323.56,193.22,326.34,224.09Z"/><path class="cls-4" d="M304.69,258.29a25.79,25.79,0,0,1,12.54-6.16c-1.23-.92-1.91-1.92-1.81-2.91.28-3,7.39-4.8,15.89-4s15.15,3.88,14.87,6.89c-.12,1.32-1.57,2.41-3.88,3.15,4.93,3.23,8.43,9.43,5.7,22.16-2.63,12.22-16.67,14.79-27.27,12.75-10.06-1.94-13.12-7.49-11.42-18.36-3.13,1.37-6.14,1.34-7.88-.39C298.7,268.69,300.16,262.82,304.69,258.29Z"/><path class="cls-8" d="M228.87,198.93c-9.09-9.18-38.9,3.43-51,13a11.92,11.92,0,0,0-13.57-1.9c-9.83-12.15-35.55-30.84-46.4-24.05-7.44,4.65-10.93,38.53-2.06,47.34S152,237.59,162.91,229a11.92,11.92,0,0,0,12,1.1c8.38,11,34.29,22,45.09,15.38S235,205.17,228.87,198.93Z"/></g></g></svg>