<svg xmlns="http://www.w3.org/2000/svg" viewBox="0 0 1775.58 440.13"><defs><style>.cls-1{fill:#0f2647;}.cls-2{fill:#0b1e32;}.cls-3{fill:#09192d;}.cls-4{fill:#231f20;}.cls-5{fill:#bce5ee;}.cls-6{fill:#97d7e2;}.cls-10,.cls-7{fill:#e8ecee;stroke:#231f20;stroke-miterlimit:10;}.cls-7{stroke-width:1.93px;}.cls-8{fill:#f69799;}.cls-9{fill:#009444;}.cls-10{stroke-width:2.09px;}.cls-11{fill:#f7941d;}.cls-12{fill:#f36e24;}.cls-13{fill:#d35461;}</style></defs><title>cubes</title><g id="Layer_2" data-name="Layer 2"><g id="Layer_11" data-name="Layer 11"><path class="cls-1" d="M1426.76,440.13,119.35,428.91c-8.29-.07-9.85-11.81-1.87-14.05l338.84-95.14a7.16,7.16,0,0,1,1.95-.27L1670.8,322c8,0,34.3,19.72,26.74,22.43l-268.31,95.28A7.16,7.16,0,0,1,1426.76,440.13Z"/><polygon class="cls-1" points="1430.18 434.08 112.04 424.19 31.02 260.17 1485.51 270.05 1430.18 434.08"/><polygon class="cls-2" points="1754.02 176.04 1479.58 262.15 1432.15 438.03 1699.62 343.85 1754.02 176.04"/><path class="cls-3" d="M1775.58,168.31l-.74-29.42-104.66-9.81,20.71,25.07L400.43,149.64a8.09,8.09,0,0,0-2.2.3L5.33,258.47c-9,2.53-4.74,14.12,4.62,14.2L1494.67,286a8.09,8.09,0,0,0,2.8-.47L1753.35,183.6C1755.53,180.33,1772.31,174.85,1775.58,168.31Z"/><polygon class="cls-3" points="71.66 267.27 0 264.51 6.26 236.82 71.66 243.81 71.66 267.27"/><path class="cls-1" d="M1490.71,258.32,13.56,245.65c-9.36-.08-11.13-13.35-2.12-15.88L394.28,122.28a8.09,8.09,0,0,1,2.2-.3l1369.64,1.66c21.8,15.26-2.36,35.1-10.9,38.16l-261.71,96.06A8.09,8.09,0,0,1,1490.71,258.32Z"/><polygon class="cls-3" points="474.47 184.14 254.01 184.14 96.54 227.59 352.79 230.31 474.47 184.14"/><polygon class="cls-3" points="749.3 183.72 512.31 183.72 401.72 229.15 657.97 232.01 749.3 183.72"/><polygon class="cls-3" points="1019.13 187.19 790.72 185.46 700.43 232.63 939.94 235.04 1019.13 187.19"/><polygon class="cls-3" points="1314.72 192.11 1062.12 188.81 982.87 233.38 1218.96 236.69 1314.72 192.11"/><polygon class="cls-3" points="1607.22 192.01 1363.31 190.46 1260.23 238.29 1490.09 238.67 1607.22 192.01"/><polygon class="cls-3" points="605.52 135.63 406.69 138.18 316.58 164.77 506.11 166.22 605.52 135.63"/><polygon class="cls-3" points="848.53 134.78 640.36 136.47 529.9 172.16 762.72 171.31 848.53 134.78"/><polygon class="cls-3" points="1102.6 134.78 886.77 136.47 804.35 173.01 1032.07 173.86 1102.6 134.78"/><polygon class="cls-3" points="1408.49 139.87 1150.18 137.32 1084.8 170.59 1328.62 176.41 1408.49 139.87"/><polygon class="cls-3" points="1726.28 139.87 1456.92 141.57 1391.06 171.54 1623.46 173.86 1726.28 139.87"/><path class="cls-4" d="M509.43,241.46c-6.06-.6-12.81-2.39-15-3.91-3.19-2.22-1.38-14.31-1.14-17.45l3-40.67c.23-3.14,3.7-2.31,8-2h0c1.59,8.14.22,45.15,3.52,47.43,12.84,8.88,27.75,16.05,15.94,16.92A63,63,0,0,1,509.43,241.46Z"/><path class="cls-4" d="M456.55,242.62c-6.06-.6-12.81-2.39-15-3.91-3.19-2.22-1.38-14.31-1.14-17.45l3-40.67c.23-3.14,3.7-2.31,8-2h0c1.59,8.14.22,45.15,3.52,47.43,12.84,8.88,27.75,16.05,15.94,16.92A63,63,0,0,1,456.55,242.62Z"/><path class="cls-4" d="M519.9,102.28c33.14,24.48,84.71,35.65,107.31,0,1-1.54,3.32-1.49,3.32-3.32h0c0-1.82-2.11-4.68-3.32-3.32-40.15,45.63-82.36,10.43-107.31,0-1.68-.7-3.32,1.49-3.32,3.32h0C516.59,100.79,518.44,101.19,519.9,102.28Z"/><rect class="cls-5" x="410.12" y="10.53" width="159.27" height="159.27" transform="translate(979.51 180.34) rotate(-180)"/><polygon class="cls-6" points="375.47 184.66 410.12 169.81 410.12 10.53 375.47 32.08 375.47 184.66"/><polygon class="cls-6" points="375.47 184.66 541.44 184.66 569.39 169.81 410.12 169.81 375.47 184.66"/><circle class="cls-4" cx="536.48" cy="63.86" r="6.73"/><circle class="cls-4" cx="454.12" cy="63.86" r="6.73"/><path class="cls-4" d="M369,137.5c11.52-14.72,21.89-19.8,26.65-26.16,1.48-1.7,2.07-2.55.38-4h0a4.1,4.1,0,0,0-5.77.39S351.71,140.49,342.3,166c-.78,2.11-3.93,14.66.85,10.09,1.11-1.06,9.72-17,10.28-18C356.69,152.75,366.43,140.77,369,137.5Z"/><path class="cls-7" d="M326.61,169c4.32-6.25,8.17-8.95,11.84-9.7-1.68-1.73-2.43-3.39-1.9-4.62,1.14-2.64,7.79-2.32,14.85.73s11.86,7.66,10.71,10.3c-.4.92-1.46,1.48-3,1.69,1.68,2,3,5.51,3.5,9.56.78,6.71-1.12,12.45-4.26,12.81-2.74.32-5.52-3.57-6.69-9-4.48,6.47-5.51,15.32-12.86,12.15C330.23,189.18,321.54,176.35,326.61,169Z"/><path class="cls-8" d="M472.43,97.59c.36,4.67,10.43,8.48,23.3,8.48s22.82-3.82,23.3-8.48c1.12-10.86-10.43-8.48-23.3-8.48S471.59,86.73,472.43,97.59Z"/><path class="cls-7" d="M618.84,92.06A17.78,17.78,0,0,1,616,88.78c-3-4.47-3.61-9.35-1.32-10.89,1.86-1.26,5.06.09,7.82,3a22.37,22.37,0,0,1,1.34-2.42c5.66-8.94,9.19-14.78,17.36-9.61s13.52,15.63,7.86,24.57c-3.49,5.51-8.55,8.54-13.5,9a3.8,3.8,0,0,1-.46,2.21c-1.22,2.3-3.95,2.93-10.87-.76s-10.25-8.29-9-10.59C615.72,92.3,617,91.9,618.84,92.06Z"/><path class="cls-4" d="M443.61,38.93c.34,1,5.31-3.54,11.16-5.36s11.57-1.18,11.23-2.22-5.48-2-11.92.09S443.27,37.89,443.61,38.93Z"/><path class="cls-4" d="M547.67,38.94c-.34,1-5.31-3.54-11.16-5.37s-11.57-1.19-11.23-2.23,5.48-2,11.92.1S548,37.9,547.67,38.94Z"/><path class="cls-4" d="M754.33,232.25c-6.06-.6-12.81-2.39-15-3.91-3.19-2.22-1.38-14.31-1.14-17.45l3-40.67c.23-3.14,3.7-2.31,8-2h0c1.59,8.14.22,45.15,3.52,47.43,12.84,8.88,27.75,16.05,15.94,16.92A63,63,0,0,1,754.33,232.25Z"/><path class="cls-4" d="M701.46,233.4c-6.06-.6-12.81-2.39-15-3.91-3.19-2.22-1.38-14.31-1.14-17.45l3-40.67c.23-3.14,3.7-2.31,8-2h0c1.59,8.14.22,45.15,3.52,47.43,12.84,8.88,27.75,16.05,15.94,16.92A63,63,0,0,1,701.46,233.4Z"/><path class="cls-4" d="M764.81,93.06c33.14,24.48,84.71,35.65,107.31,0,1-1.54,3.32-1.49,3.32-3.32h0c0-1.82-2.11-4.68-3.32-3.32-40.15,45.63-82.36,10.43-107.31,0-1.68-.7-3.32,1.49-3.32,3.32h0C761.49,91.57,763.34,92,764.81,93.06Z"/><rect class="cls-5" x="655.02" y="1.32" width="159.27" height="159.27" transform="translate(1469.31 161.91) rotate(-180)"/><polygon class="cls-6" points="620.37 175.44 655.02 160.59 655.02 1.32 620.37 22.86 620.37 175.44"/><polygon class="cls-6" points="620.37 175.44 786.34 175.44 814.29 160.59 655.02 160.59 620.37 175.44"/><circle class="cls-4" cx="781.38" cy="54.65" r="6.73"/><circle class="cls-4" cx="699.02" cy="54.65" r="6.73"/><path class="cls-4" d="M613.89,128.28c11.52-14.72,21.89-19.8,26.65-26.16,1.48-1.7,2.07-2.55.38-4h0a4.1,4.1,0,0,0-5.77.39s-38.54,32.79-47.94,58.34c-.78,2.11-3.93,14.66.85,10.09,1.11-1.06,9.72-17,10.28-18C601.59,143.54,611.33,131.55,613.89,128.28Z"/><path class="cls-7" d="M571.51,159.79c4.32-6.25,8.17-8.95,11.84-9.7-1.68-1.73-2.43-3.39-1.9-4.62,1.14-2.64,7.79-2.32,14.85.73s11.86,7.66,10.71,10.3c-.4.92-1.46,1.48-3,1.69,1.68,2,3,5.51,3.5,9.56.78,6.71-1.12,12.45-4.26,12.81-2.74.32-5.52-3.57-6.69-9-4.48,6.47-5.51,15.32-12.86,12.15C575.13,180,566.44,167.14,571.51,159.79Z"/><path class="cls-8" d="M717.33,88.38c.36,4.67,10.43,8.48,23.3,8.48s22.82-3.82,23.3-8.48c1.12-10.86-10.43-8.48-23.3-8.48S716.49,77.51,717.33,88.38Z"/><path class="cls-7" d="M863.74,82.84a17.78,17.78,0,0,1-2.82-3.28c-3-4.47-3.61-9.35-1.32-10.89,1.86-1.26,5.06.09,7.82,3a22.37,22.37,0,0,1,1.34-2.42c5.66-8.94,9.19-14.78,17.36-9.61S899.62,75.31,894,84.25c-3.49,5.51-8.55,8.54-13.5,9a3.8,3.8,0,0,1-.46,2.21c-1.22,2.3-3.95,2.93-10.87-.76s-10.25-8.29-9-10.59C860.62,83.08,861.9,82.68,863.74,82.84Z"/><path class="cls-4" d="M688.51,29.71c.34,1,5.31-3.54,11.16-5.36s11.57-1.18,11.23-2.22-5.48-2-11.92.09S688.17,28.67,688.51,29.71Z"/><path class="cls-4" d="M792.57,29.72c-.34,1-5.31-3.54-11.16-5.37s-11.57-1.19-11.23-2.23,5.48-2,11.92.1S792.91,28.68,792.57,29.72Z"/><path class="cls-4" d="M1012.4,232.25c-6.06-.6-12.81-2.39-15-3.91-3.19-2.22-1.38-14.31-1.14-17.45l3-40.67c.23-3.14,3.7-2.31,8-2h0c1.59,8.14.22,45.15,3.52,47.43,12.84,8.88,27.75,16.05,15.94,16.92A63,63,0,0,1,1012.4,232.25Z"/><path class="cls-4" d="M959.52,233.4c-6.06-.6-12.81-2.39-15-3.91-3.19-2.22-1.38-14.31-1.14-17.45l3-40.67c.23-3.14,3.7-2.31,8-2h0c1.59,8.14.22,45.15,3.52,47.43,12.84,8.88,27.75,16.05,15.94,16.92A63,63,0,0,1,959.52,233.4Z"/><path class="cls-4" d="M1022.87,93.06c33.14,24.48,84.71,35.65,107.31,0,1-1.54,3.32-1.49,3.32-3.32h0c0-1.82-2.11-4.68-3.32-3.32-40.15,45.63-82.36,10.43-107.31,0-1.68-.7-3.32,1.49-3.32,3.32h0C1019.56,91.57,1021.41,92,1022.87,93.06Z"/><rect class="cls-5" x="913.09" y="1.32" width="159.27" height="159.27" transform="translate(1985.45 161.91) rotate(-180)"/><polygon class="cls-6" points="878.44 175.44 913.09 160.59 913.09 1.32 878.44 22.86 878.44 175.44"/><polygon class="cls-6" points="878.44 175.44 1044.41 175.44 1072.36 160.59 913.09 160.59 878.44 175.44"/><circle class="cls-4" cx="1039.44" cy="54.65" r="6.73"/><circle class="cls-4" cx="957.09" cy="54.65" r="6.73"/><path class="cls-4" d="M872,128.28c11.52-14.72,21.89-19.8,26.65-26.16,1.48-1.7,2.07-2.55.38-4h0a4.1,4.1,0,0,0-5.77.39s-38.54,32.79-47.94,58.34c-.78,2.11-3.93,14.66.85,10.09,1.11-1.06,9.72-17,10.28-18C859.66,143.54,869.4,131.55,872,128.28Z"/><path class="cls-7" d="M829.58,159.79c4.32-6.25,8.17-8.95,11.84-9.7-1.68-1.73-2.43-3.39-1.9-4.62,1.14-2.64,7.79-2.32,14.85.73s11.86,7.66,10.71,10.3c-.4.92-1.46,1.48-3,1.69,1.68,2,3,5.51,3.5,9.56.78,6.71-1.12,12.45-4.26,12.81-2.74.32-5.52-3.57-6.69-9-4.48,6.47-5.51,15.32-12.86,12.15C833.19,180,824.51,167.14,829.58,159.79Z"/><path class="cls-8" d="M975.4,88.38c.36,4.67,10.43,8.48,23.3,8.48s22.82-3.82,23.3-8.48c1.12-10.86-10.43-8.48-23.3-8.48S974.56,77.51,975.4,88.38Z"/><path class="cls-7" d="M1121.81,82.84a17.78,17.78,0,0,1-2.82-3.28c-3-4.47-3.61-9.35-1.32-10.89,1.86-1.26,5.06.09,7.82,3a22.37,22.37,0,0,1,1.34-2.42c5.66-8.94,9.19-14.78,17.36-9.61s13.52,15.63,7.86,24.57c-3.49,5.51-8.55,8.54-13.5,9a3.8,3.8,0,0,1-.46,2.21c-1.22,2.3-3.95,2.93-10.87-.76s-10.25-8.29-9-10.59C1118.69,83.08,1120,82.68,1121.81,82.84Z"/><path class="cls-4" d="M946.58,29.71c.34,1,5.31-3.54,11.16-5.36s11.57-1.18,11.23-2.22-5.48-2-11.92.09S946.24,28.67,946.58,29.71Z"/><path class="cls-4" d="M1050.63,29.72c-.34,1-5.31-3.54-11.16-5.37s-11.57-1.19-11.23-2.23,5.48-2,11.92.1S1051,28.68,1050.63,29.72Z"/><path class="cls-4" d="M1282.32,230.93c-6.06-.6-12.81-2.39-15-3.91-3.19-2.22-1.38-14.31-1.14-17.45l3-40.67c.23-3.14,3.7-2.31,8-2h0c1.59,8.14.22,45.15,3.52,47.43,12.84,8.88,27.75,16.05,15.94,16.92A63,63,0,0,1,1282.32,230.93Z"/><path class="cls-4" d="M1229.44,232.09c-6.06-.6-12.81-2.39-15-3.91-3.19-2.22-1.38-14.31-1.14-17.45l3-40.67c.23-3.14,3.7-2.31,8-2h0c1.59,8.14.22,45.15,3.52,47.43,12.84,8.88,27.75,16.05,15.94,16.92A63,63,0,0,1,1229.44,232.09Z"/><path class="cls-4" d="M1292.79,91.74c33.14,24.48,84.71,35.65,107.31,0,1-1.54,3.32-1.49,3.32-3.32h0c0-1.82-2.11-4.68-3.32-3.32-40.15,45.63-82.36,10.43-107.31,0-1.68-.7-3.32,1.49-3.32,3.32h0C1289.48,90.25,1291.32,90.66,1292.79,91.74Z"/><rect class="cls-5" x="1183" width="159.27" height="159.27" transform="translate(2525.28 159.27) rotate(-180)"/><polygon class="cls-6" points="1148.36 174.12 1183 159.27 1183 0 1148.36 21.55 1148.36 174.12"/><polygon class="cls-6" points="1148.36 174.12 1314.33 174.12 1342.28 159.27 1183 159.27 1148.36 174.12"/><circle class="cls-4" cx="1309.36" cy="53.33" r="6.73"/><circle class="cls-4" cx="1227" cy="53.33" r="6.73"/><path class="cls-4" d="M1141.88,127c11.52-14.72,21.89-19.8,26.65-26.16,1.48-1.7,2.07-2.55.38-4h0a4.1,4.1,0,0,0-5.77.39s-38.54,32.79-47.94,58.34c-.78,2.11-3.93,14.66.85,10.09,1.11-1.06,9.72-17,10.28-18C1129.58,142.22,1139.32,130.23,1141.88,127Z"/><path class="cls-7" d="M1099.5,158.48c4.32-6.25,8.17-8.95,11.84-9.7-1.68-1.73-2.43-3.39-1.9-4.62,1.14-2.64,7.79-2.32,14.85.73s11.86,7.66,10.71,10.3c-.4.92-1.46,1.48-3,1.69,1.68,2,3,5.51,3.5,9.56.78,6.71-1.12,12.45-4.26,12.81-2.74.32-5.52-3.57-6.69-9-4.48,6.47-5.51,15.32-12.86,12.15C1103.11,178.65,1094.43,165.82,1099.5,158.48Z"/><path class="cls-8" d="M1245.32,87.06c.36,4.67,10.43,8.48,23.3,8.48s22.82-3.82,23.3-8.48c1.12-10.86-10.43-8.48-23.3-8.48S1244.48,76.2,1245.32,87.06Z"/><path class="cls-7" d="M1391.73,81.52a17.78,17.78,0,0,1-2.82-3.28c-3-4.47-3.61-9.35-1.32-10.89,1.86-1.26,5.06.09,7.82,3a22.37,22.37,0,0,1,1.34-2.42c5.66-8.94,9.19-14.78,17.36-9.61s13.52,15.63,7.86,24.57c-3.49,5.51-8.55,8.54-13.5,9a3.8,3.8,0,0,1-.46,2.21c-1.22,2.3-3.95,2.93-10.87-.76s-10.25-8.29-9-10.59C1388.61,81.77,1389.89,81.37,1391.73,81.52Z"/><path class="cls-4" d="M1216.5,28.39c.34,1,5.31-3.54,11.16-5.36s11.57-1.18,11.23-2.22-5.48-2-11.92.09S1216.16,27.35,1216.5,28.39Z"/><path class="cls-4" d="M1320.55,28.4c-.34,1-5.31-3.54-11.16-5.37s-11.57-1.19-11.23-2.23,5.48-2,11.92.1S1320.89,27.36,1320.55,28.4Z"/><path class="cls-4" d="M1620.64,93.06c33.14,24.48,84.71,35.65,107.31,0,1-1.54,3.32-1.49,3.32-3.32h0c0-1.82-2.11-4.68-3.32-3.32-40.15,45.63-82.36,10.43-107.31,0-1.68-.7-3.32,1.49-3.32,3.32h0C1617.33,91.57,1619.18,92,1620.64,93.06Z"/><rect class="cls-5" x="1510.86" y="1.32" width="159.27" height="159.27" transform="translate(3180.99 161.91) rotate(-180)"/><polygon class="cls-6" points="1476.21 175.44 1510.86 160.59 1510.86 1.32 1476.21 22.86 1476.21 175.44"/><polygon class="cls-6" points="1476.21 175.44 1642.18 175.44 1670.13 160.59 1510.86 160.59 1476.21 175.44"/><circle class="cls-4" cx="1637.21" cy="54.65" r="6.73"/><circle class="cls-4" cx="1554.86" cy="54.65" r="6.73"/><path class="cls-4" d="M1469.73,128.28c11.52-14.72,21.89-19.8,26.65-26.16,1.48-1.7,2.07-2.55.38-4h0a4.1,4.1,0,0,0-5.77.39s-38.54,32.79-47.94,58.34c-.78,2.11-3.93,14.66.85,10.09,1.11-1.06,9.72-17,10.28-18C1457.43,143.54,1467.17,131.55,1469.73,128.28Z"/><path class="cls-7" d="M1427.35,159.79c4.32-6.25,8.17-8.95,11.84-9.7-1.68-1.73-2.43-3.39-1.9-4.62,1.14-2.64,7.79-2.32,14.85.73s11.86,7.66,10.71,10.3c-.4.92-1.46,1.48-3,1.69,1.68,2,3,5.51,3.5,9.56.78,6.71-1.12,12.45-4.26,12.81-2.74.32-5.52-3.57-6.69-9-4.48,6.47-5.51,15.32-12.86,12.15C1431,180,1422.28,167.14,1427.35,159.79Z"/><path class="cls-8" d="M1573.17,88.38c.36,4.67,10.43,8.48,23.3,8.48s22.82-3.82,23.3-8.48c1.12-10.86-10.43-8.48-23.3-8.48S1572.33,77.51,1573.17,88.38Z"/><path class="cls-7" d="M1719.58,82.84a17.78,17.78,0,0,1-2.82-3.28c-3-4.47-3.61-9.35-1.32-10.89,1.86-1.26,5.06.09,7.82,3a22.37,22.37,0,0,1,1.34-2.42c5.66-8.94,9.19-14.78,17.36-9.61s13.52,15.63,7.86,24.57c-3.49,5.51-8.55,8.54-13.5,9a3.8,3.8,0,0,1-.46,2.21c-1.22,2.3-3.95,2.93-10.87-.76s-10.25-8.29-9-10.59C1716.46,83.08,1717.74,82.68,1719.58,82.84Z"/><path class="cls-4" d="M1544.35,29.71c.34,1,5.31-3.54,11.16-5.36s11.57-1.18,11.23-2.22-5.48-2-11.92.09S1544,28.67,1544.35,29.71Z"/><path class="cls-4" d="M1648.4,29.72c-.34,1-5.31-3.54-11.16-5.37s-11.57-1.19-11.23-2.23,5.48-2,11.92.1S1648.74,28.68,1648.4,29.72Z"/><path class="cls-4" d="M335.63,316.51c-6.06-.6-12.81-2.39-15-3.91-3.19-2.22-1.38-14.31-1.14-17.45l3-40.67c.23-3.14,3.7-2.31,8-2h0c1.59,8.14.22,45.15,3.52,47.43,12.84,8.88,27.75,16.05,15.94,16.92A63,63,0,0,1,335.63,316.51Z"/><path class="cls-4" d="M282.75,317.67c-6.06-.6-12.81-2.39-15-3.91-3.19-2.22-1.38-14.31-1.14-17.45l3-40.67c.23-3.14,3.7-2.31,8-2h0c1.59,8.14.22,45.15,3.52,47.43C294,310,308.91,317.14,297.1,318A63,63,0,0,1,282.75,317.67Z"/><path class="cls-4" d="M346.1,177.33c33.14,24.48,84.71,35.65,107.31,0,1-1.54,3.32-1.49,3.32-3.32h0c0-1.82-2.11-4.68-3.32-3.32-40.15,45.63-82.36,10.43-107.31,0-1.68-.7-3.32,1.49-3.32,3.32h0C342.79,175.84,344.64,176.25,346.1,177.33Z"/><rect class="cls-5" x="236.32" y="85.58" width="159.27" height="159.27" transform="translate(631.91 330.44) rotate(-180)"/><polygon class="cls-6" points="201.67 259.71 236.32 244.86 236.32 85.58 201.67 107.13 201.67 259.71"/><polygon class="cls-6" points="201.67 259.71 367.64 259.71 395.59 244.86 236.32 244.86 201.67 259.71"/><circle class="cls-4" cx="362.67" cy="138.92" r="6.73"/><circle class="cls-4" cx="280.32" cy="138.92" r="6.73"/><path class="cls-4" d="M195.19,212.55c11.52-14.72,21.89-19.8,26.65-26.16,1.48-1.7,2.07-2.55.38-4h0a4.1,4.1,0,0,0-5.77.39s-38.54,32.79-47.94,58.34c-.78,2.11-3.93,14.66.85,10.09,1.11-1.06,9.72-17,10.28-18C182.89,227.8,192.63,215.82,195.19,212.55Z"/><path class="cls-7" d="M152.81,244.06c4.32-6.25,8.17-8.95,11.84-9.7-1.68-1.73-2.43-3.39-1.9-4.62,1.14-2.64,7.79-2.32,14.85.73s11.86,7.66,10.71,10.3c-.4.92-1.46,1.48-3,1.69,1.68,2,3,5.51,3.5,9.56.78,6.71-1.12,12.45-4.26,12.81-2.74.32-5.52-3.57-6.69-9-4.48,6.47-5.51,15.32-12.86,12.15C156.43,264.23,147.74,251.41,152.81,244.06Z"/><path class="cls-8" d="M298.63,172.65c.36,4.67,10.43,8.48,23.3,8.48s22.82-3.82,23.3-8.48c1.12-10.86-10.43-8.48-23.3-8.48S297.79,161.78,298.63,172.65Z"/><path class="cls-7" d="M445,167.11a17.78,17.78,0,0,1-2.82-3.28c-3-4.47-3.61-9.35-1.32-10.89,1.86-1.26,5.06.09,7.82,3a22.37,22.37,0,0,1,1.34-2.42c5.66-8.94,9.19-14.78,17.36-9.61s13.52,15.63,7.86,24.57c-3.49,5.51-8.55,8.54-13.5,9a3.8,3.8,0,0,1-.46,2.21c-1.22,2.3-3.95,2.93-10.87-.76s-10.25-8.29-9-10.59C441.92,167.35,443.2,166.95,445,167.11Z"/><path class="cls-4" d="M269.81,114c.34,1,5.31-3.54,11.16-5.36s11.57-1.18,11.23-2.22-5.48-2-11.92.09S269.47,112.94,269.81,114Z"/><path class="cls-4" d="M373.86,114c-.34,1-5.31-3.54-11.16-5.37s-11.57-1.19-11.23-2.23,5.48-2,11.92.1S374.2,112.95,373.86,114Z"/><polygon class="cls-9" points="550.99 73.25 557.36 72.92 558.2 56.02 549.72 57.54 550.99 73.25"/><path class="cls-9" d="M427.63,57.29c-12.93-4.91,34.48,22.44,73.26,17.93s75.66-20.64,74-35.05-10.59-21.07-49-14.32C488,32.49,452.32,66.66,427.63,57.29Z"/><path class="cls-4" d="M709.2,147.31c23.68-16.1,30.33-37,36-29.85,2,2.48-16.19,29.8-41.83,42.56-24.8,12.35-35.6,14.24-37.57,11.76C658.83,163,685.52,163.41,709.2,147.31Z"/><path class="cls-10" d="M760.53,115.66c-.19-11.05-9-20.61-20-20-7.36.4-9.83,5.94-15,13.47-2.72-5.48-4.6-7.53-10.15-5.59-2.9,1-3.22,6.81-.83,12.58a34.64,34.64,0,0,0,5.07,8.4,2.74,2.74,0,0,0-.95.94c-1.54,2.66,2,7.61,8,11.05s12,4.07,13.57,1.41a3.11,3.11,0,0,0,.26-2.24h0C752,135.44,760.72,126.6,760.53,115.66Z"/><path class="cls-4" d="M558.16,341.25c-6.57-.65-13.88-2.59-16.23-4.23-3.45-2.41-1.49-15.51-1.24-18.91L544,274c.25-3.41,4-2.5,8.65-2.16h0c1.72,8.82.24,48.93,3.81,51.4,13.91,9.63,30.07,17.39,17.27,18.33A68.21,68.21,0,0,1,558.16,341.25Z"/><path class="cls-4" d="M624.78,334.14c-6.6,0-14.07-1.26-16.56-2.67-3.67-2.07-3-15.29-3-18.71l-.93-44.18c-.07-3.42,3.75-2.87,8.4-3h0c2.56,8.61,4.9,48.68,8.69,50.8,14.77,8.26,31.59,14.45,18.94,16.6A68.21,68.21,0,0,1,624.78,334.14Z"/><ellipse class="cls-11" cx="572.3" cy="174.71" rx="114.93" ry="105.33"/><path class="cls-12" d="M588.32,265.76c-61.32,0-111-46.34-111-103.5,0-32.76,16.33-62,41.81-80.92-36.69,17.59-61.73,52.8-61.73,93.38C457.37,232.89,508.83,280,572.3,280c37.86,0,71.45-16.78,92.39-42.67A115.05,115.05,0,0,1,588.32,265.76Z"/><circle class="cls-4" cx="539.91" cy="150.62" r="6.69" transform="translate(-7.43 29.74) rotate(-3.13)"/><circle class="cls-4" cx="634.6" cy="140.86" r="6.69" transform="translate(-6.75 34.9) rotate(-3.13)"/><path class="cls-4" d="M549.9,114c.39,1.19-6.1-1.11-13.3,1.24s-11,7.59-11.36,6.4,3.46-6.21,10.66-8.56S549.52,112.83,549.9,114Z"/><path class="cls-4" d="M620,110.5c-.19,1.24,5.69-1.55,13.17-.39s12.15,5.65,12.34,4.41-4.51-5.49-12-6.65S620.2,109.26,620,110.5Z"/><path class="cls-13" d="M616,173.76c-1.68,6.7-9.53,12.55-21.45,12.67s-19.95-5.59-21.7-12.24c-2.16-8.24,1.06-11.66,21.45-12.67C617.15,160.38,617.7,167.08,616,173.76Z"/><path class="cls-4" d="M460.06,230.25c-2.57,28.52,8.21,53.38-.94,53.23-3.17,0-12.78-31.41-6.4-59.33,6.17-27,11.55-36.56,14.72-36.51C478.67,187.81,462.63,201.73,460.06,230.25Z"/><path class="cls-10" d="M480.07,261.85a23.83,23.83,0,0,0-11.58-5.69c1.14-.85,1.76-1.78,1.67-2.69-.26-2.78-6.83-4.44-14.68-3.7s-14,3.59-13.74,6.37c.11,1.22,1.45,2.23,3.58,2.91-4.55,3-7.79,8.71-5.26,20.48,2.43,11.29,15.4,13.67,25.19,11.78,9.29-1.79,12.12-6.92,10.55-17,2.89,1.27,5.68,1.24,7.28-.36C485.6,271.46,484.25,266,480.07,261.85Z"/><path class="cls-4" d="M901.8,316.51c-6.06-.6-12.81-2.39-15-3.91-3.19-2.22-1.38-14.31-1.14-17.45l3-40.67c.23-3.14,3.7-2.31,8-2h0c1.59,8.14.22,45.15,3.52,47.43C913,308.81,928,316,916.15,316.85A63,63,0,0,1,901.8,316.51Z"/><path class="cls-4" d="M848.92,317.67c-6.06-.6-12.81-2.39-15-3.91-3.19-2.22-1.38-14.31-1.14-17.45l3-40.67c.23-3.14,3.7-2.31,8-2h0c1.59,8.14.22,45.15,3.52,47.43,12.84,8.88,27.75,16.05,15.94,16.92A63,63,0,0,1,848.92,317.67Z"/><path class="cls-4" d="M912.27,177.33c33.14,24.48,84.71,35.65,107.31,0,1-1.54,3.32-1.49,3.32-3.32h0c0-1.82-2.11-4.68-3.32-3.32-40.15,45.63-82.36,10.43-107.31,0-1.68-.7-3.32,1.49-3.32,3.32h0C909,175.84,910.81,176.25,912.27,177.33Z"/><rect class="cls-5" x="802.49" y="85.58" width="159.27" height="159.27" transform="translate(1764.25 330.44) rotate(-180)"/><polygon class="cls-6" points="767.84 259.71 802.49 244.86 802.49 85.58 767.84 107.13 767.84 259.71"/><polygon class="cls-6" points="767.84 259.71 933.81 259.71 961.76 244.86 802.49 244.86 767.84 259.71"/><circle class="cls-4" cx="928.84" cy="138.92" r="6.73"/><circle class="cls-4" cx="846.49" cy="138.92" r="6.73"/><path class="cls-4" d="M761.36,212.55c11.52-14.72,21.89-19.8,26.65-26.16,1.48-1.7,2.07-2.55.38-4h0a4.1,4.1,0,0,0-5.77.39s-38.54,32.79-47.94,58.34c-.78,2.11-3.93,14.66.85,10.09,1.11-1.06,9.72-17,10.28-18C749.06,227.8,758.8,215.82,761.36,212.55Z"/><path class="cls-7" d="M719,244.06c4.32-6.25,8.17-8.95,11.84-9.7-1.68-1.73-2.43-3.39-1.9-4.62,1.14-2.64,7.79-2.32,14.85.73s11.86,7.66,10.71,10.3c-.4.92-1.46,1.48-3,1.69,1.68,2,3,5.51,3.5,9.56.78,6.71-1.12,12.45-4.26,12.81-2.74.32-5.52-3.57-6.69-9-4.48,6.47-5.51,15.32-12.86,12.15C722.59,264.23,713.91,251.41,719,244.06Z"/><path class="cls-8" d="M864.8,172.65c.36,4.67,10.43,8.48,23.3,8.48s22.82-3.82,23.3-8.48c1.12-10.86-10.43-8.48-23.3-8.48S864,161.78,864.8,172.65Z"/><path class="cls-7" d="M1011.21,167.11a17.78,17.78,0,0,1-2.82-3.28c-3-4.47-3.61-9.35-1.32-10.89,1.86-1.26,5.06.09,7.82,3a22.37,22.37,0,0,1,1.34-2.42c5.66-8.94,9.19-14.78,17.36-9.61s13.52,15.63,7.86,24.57c-3.49,5.51-8.55,8.54-13.5,9a3.8,3.8,0,0,1-.46,2.21c-1.22,2.3-3.95,2.93-10.87-.76s-10.25-8.29-9-10.59C1008.09,167.35,1009.37,166.95,1011.21,167.11Z"/><path class="cls-4" d="M836,114c.34,1,5.31-3.54,11.16-5.36s11.57-1.18,11.23-2.22-5.48-2-11.92.09S835.64,112.94,836,114Z"/><path class="cls-4" d="M940,114c-.34,1-5.31-3.54-11.16-5.37s-11.57-1.19-11.23-2.23,5.48-2,11.92.1S940.37,112.95,940,114Z"/><path class="cls-4" d="M1170.4,317.83c-6.06-.6-12.81-2.39-15-3.91-3.19-2.22-1.38-14.31-1.14-17.45l3-40.67c.23-3.14,3.7-2.31,8-2h0c1.59,8.14.22,45.15,3.52,47.43,12.84,8.88,27.75,16.05,15.94,16.92A63,63,0,0,1,1170.4,317.83Z"/><path class="cls-4" d="M1117.52,319c-6.06-.6-12.81-2.39-15-3.91-3.19-2.22-1.38-14.31-1.14-17.45l3-40.67c.23-3.14,3.7-2.31,8-2h0c1.59,8.14.22,45.15,3.52,47.43,12.84,8.88,27.75,16.05,15.94,16.92A63,63,0,0,1,1117.52,319Z"/><path class="cls-4" d="M1180.87,178.65c33.14,24.48,84.71,35.65,107.31,0,1-1.54,3.32-1.49,3.32-3.32h0c0-1.82-2.11-4.68-3.32-3.32-40.15,45.63-82.36,10.43-107.31,0-1.68-.7-3.32,1.49-3.32,3.32h0C1177.56,177.15,1179.41,177.56,1180.87,178.65Z"/><rect class="cls-5" x="1071.09" y="86.9" width="159.27" height="159.27" transform="translate(2301.45 333.07) rotate(-180)"/><polygon class="cls-6" points="1036.44 261.02 1071.09 246.17 1071.09 86.9 1036.44 108.45 1036.44 261.02"/><polygon class="cls-6" points="1036.44 261.02 1202.41 261.02 1230.36 246.17 1071.09 246.17 1036.44 261.02"/><circle class="cls-4" cx="1197.45" cy="140.23" r="6.73"/><circle class="cls-4" cx="1115.09" cy="140.23" r="6.73"/><path class="cls-4" d="M1030,213.86c11.52-14.72,21.89-19.8,26.65-26.16,1.48-1.7,2.07-2.55.38-4h0a4.1,4.1,0,0,0-5.77.39s-38.54,32.79-47.94,58.34c-.78,2.11-3.93,14.66.85,10.09,1.11-1.06,9.72-17,10.28-18C1017.66,229.12,1027.4,217.13,1030,213.86Z"/><path class="cls-7" d="M987.58,245.38c4.32-6.25,8.17-8.95,11.84-9.7-1.68-1.73-2.43-3.39-1.9-4.62,1.14-2.64,7.79-2.32,14.85.73s11.86,7.66,10.71,10.3c-.4.92-1.46,1.48-3,1.69,1.68,2,3,5.51,3.5,9.56.78,6.71-1.12,12.45-4.26,12.81-2.74.32-5.52-3.57-6.69-9-4.48,6.47-5.51,15.32-12.86,12.15C991.2,265.55,982.51,252.72,987.58,245.38Z"/><path class="cls-8" d="M1133.4,174c.36,4.67,10.43,8.48,23.3,8.48s22.82-3.82,23.3-8.48c1.12-10.86-10.43-8.48-23.3-8.48S1132.56,163.1,1133.4,174Z"/><path class="cls-7" d="M1279.81,168.42a17.78,17.78,0,0,1-2.82-3.28c-3-4.47-3.61-9.35-1.32-10.89,1.86-1.26,5.06.09,7.82,3a22.37,22.37,0,0,1,1.34-2.42c5.66-8.94,9.19-14.78,17.36-9.61s13.52,15.63,7.86,24.57c-3.49,5.51-8.55,8.54-13.5,9a3.8,3.8,0,0,1-.46,2.21c-1.22,2.3-3.95,2.93-10.87-.76s-10.25-8.29-9-10.59C1276.69,168.67,1278,168.27,1279.81,168.42Z"/><path class="cls-4" d="M1104.58,115.29c.34,1,5.31-3.54,11.16-5.36s11.57-1.18,11.23-2.22-5.48-2-11.92.09S1104.24,114.25,1104.58,115.29Z"/><path class="cls-4" d="M1208.64,115.3c-.34,1-5.31-3.54-11.16-5.37s-11.57-1.19-11.23-2.23,5.48-2,11.92.1S1209,114.26,1208.64,115.3Z"/><path class="cls-4" d="M1394.14,304.55c-6.06-.6-12.81-2.39-15-3.91-3.19-2.22-1.38-14.31-1.14-17.45l3-40.67c.23-3.14,3.7-2.31,8-2h0c1.59,8.14.22,45.15,3.52,47.43,12.84,8.88,27.75,16.05,15.94,16.92A63,63,0,0,1,1394.14,304.55Z"/><path class="cls-4" d="M1457.49,164.21c33.14,24.48,84.71,35.65,107.31,0,1-1.54,3.32-1.49,3.32-3.32h0c0-1.82-2.11-4.68-3.32-3.32-40.15,45.63-82.36,10.43-107.31,0-1.68-.7-3.32,1.49-3.32,3.32h0C1454.18,162.72,1456,163.13,1457.49,164.21Z"/><rect class="cls-5" x="1347.71" y="72.47" width="159.27" height="159.27" transform="translate(2854.69 304.21) rotate(-180)"/><polygon class="cls-6" points="1313.06 246.59 1347.71 231.74 1347.71 72.47 1313.06 94.02 1313.06 246.59"/><polygon class="cls-6" points="1313.06 246.59 1479.03 246.59 1506.98 231.74 1347.71 231.74 1313.06 246.59"/><circle class="cls-4" cx="1474.06" cy="125.8" r="6.73"/><circle class="cls-4" cx="1391.71" cy="125.8" r="6.73"/><path class="cls-4" d="M1306.58,199.43c11.52-14.72,21.89-19.8,26.65-26.16,1.48-1.7,2.07-2.55.38-4h0a4.1,4.1,0,0,0-5.77.39s-38.54,32.79-47.94,58.34c-.78,2.11-3.93,14.66.85,10.09,1.11-1.06,9.72-17,10.28-18C1294.28,214.69,1304,202.7,1306.58,199.43Z"/><path class="cls-7" d="M1264.2,230.95c4.32-6.25,8.17-8.95,11.84-9.7-1.68-1.73-2.43-3.39-1.9-4.62,1.14-2.64,7.79-2.32,14.85.73s11.86,7.66,10.71,10.3c-.4.92-1.46,1.48-3,1.69,1.68,2,3,5.51,3.5,9.56.78,6.71-1.12,12.45-4.26,12.81-2.74.32-5.52-3.57-6.69-9-4.48,6.47-5.51,15.32-12.86,12.15C1267.81,251.11,1259.13,238.29,1264.2,230.95Z"/><path class="cls-8" d="M1410,159.53c.36,4.67,10.43,8.48,23.3,8.48s22.82-3.82,23.3-8.48c1.12-10.86-10.43-8.48-23.3-8.48S1409.18,148.67,1410,159.53Z"/><path class="cls-7" d="M1556.43,154a17.78,17.78,0,0,1-2.82-3.28c-3-4.47-3.61-9.35-1.32-10.89,1.86-1.26,5.06.09,7.82,3a22.37,22.37,0,0,1,1.34-2.42c5.66-8.94,9.19-14.78,17.36-9.61s13.52,15.63,7.86,24.57c-3.49,5.51-8.55,8.54-13.5,9a3.8,3.8,0,0,1-.46,2.21c-1.22,2.3-3.95,2.93-10.87-.76s-10.25-8.29-9-10.59C1553.31,154.23,1554.59,153.83,1556.43,154Z"/><path class="cls-4" d="M1381.2,100.86c.34,1,5.31-3.54,11.16-5.36s11.57-1.18,11.23-2.22-5.48-2-11.92.09S1380.86,99.82,1381.2,100.86Z"/><path class="cls-4" d="M1485.25,100.87c-.34,1-5.31-3.54-11.16-5.37s-11.57-1.19-11.23-2.23,5.48-2,11.92.1S1485.59,99.83,1485.25,100.87Z"/><polygon class="cls-1" points="1417.55 401.7 147.59 401.7 147.59 262.13 1417.55 275.3 1417.55 401.7"/><polygon class="cls-3" points="1470.22 285.83 49.53 272.66 53.48 246.33 1487.34 250.28 1470.22 285.83"/><polygon class="cls-1" points="1484.7 259.5 73.2 245.67 82.45 225.26 1499.19 245.01 1484.7 259.5"/></g></g></svg>