<svg xmlns="http://www.w3.org/2000/svg" viewBox="0 0 1537.03 1438.33"><defs><style>.cls-1{fill:#1c5999;}</style></defs><title>Asset 2</title><g id="Layer_2" data-name="Layer 2"><g id="Layer_18" data-name="Layer 18"><path class="cls-1" d="M1123,1400.32l-85.37,38-58.83-132.15c-14.18,18.36-26.57,36.56-40.25,54.65l-75.38-54.62c1.16-1.78,2.16-3.5,3.33-5.1q32.12-44.17,64.35-88.25c2.78-3.78,3.56-6.71,1.44-11.26-8.41-18-16.31-36.31-24.43-54.48-.82-1.84-1.84-3.59-3.29-6.39l-93.07,127.93L736,1213.93c1.3-1.94,2.47-3.8,3.76-5.57q58.51-80.47,117.16-160.84c3.17-4.33,3.45-7.59,1.22-12.38-8.48-18.24-16.54-36.67-24.61-55.09a19.88,19.88,0,0,0-7-8.57c-15-10.7-29.85-21.6-44.76-32.41-1.68-1.22-3.43-2.35-5.69-3.89-.34,2.48-.66,4.48-.88,6.49q-8.32,78.38-16.55,156.76a21,21,0,0,1-4.22,10.86c-9.27,12.4-18.36,24.94-27.53,37.42-1.21,1.65-2.5,3.25-4.27,5.53-1-1.8-1.68-2.95-2.22-4.17-6.54-14.75-13-29.52-19.6-44.25a21.57,21.57,0,0,1-1.71-11.57q8.37-77.42,16.47-154.86c.24-2.24.32-4.5.53-7.42-2.05.68-3.59,1.06-5,1.69-18,8-36,15.95-54,24.08a16.53,16.53,0,0,0-6.38,4.72c-12.82,17.33-25.42,34.81-38.08,52.26-.73,1-1.32,2.09-2.18,3.47l86,193.07-85,37.86-63.62-142.9c-4,2.6-38.28,48.7-43.91,58.8l49,110.14-85.16,37.91-27.25-61.21c-8.36,10.27-15,20.24-22.16,29.86s-14.08,19.26-21.09,28.91c-7.13,9.82-14.22,19.68-21.36,29.49-7,9.61-14,19.19-21.32,29.15L279,1312.47l85.47-117.62L297,1187.69l9.83-92.84,121.31,12.61,43.17-59.4-157.78-16.52,9.82-92.88c3.41.34,6.26.61,9.12.91q98,10.22,196,20.57c4.87.52,7.53-.67,10.32-4.63,11.58-16.41,23.6-32.51,35.33-48.81,1.53-2.12,3-4.7,3.31-7.21,2.31-20.38,4.34-40.8,6.43-61.2.1-1,0-2,.06-4l-7.36,3.28Q505.94,869,435.34,900.48a21.06,21.06,0,0,1-11.51,1.83c-16.21-1.88-32.46-3.5-48.69-5.24-1.41-.15-2.81-.48-4.8-.84,1.28-1.9,2.23-3.42,3.29-4.86,9.53-13,19.15-25.91,28.58-39a19.12,19.12,0,0,1,8.15-6.5q71.54-31.72,143-63.6l7.44-3.31c-2.14-1.72-3.35-2.77-4.65-3.72-15.57-11.33-31.13-22.69-46.78-33.91a15.18,15.18,0,0,0-6.71-2.94c-22.88-2.55-45.78-4.87-68.68-7.25a9.1,9.1,0,0,0-1.73.26L307.47,902.93l-75.62-54.82,93.27-128.36-73-7.69L180.32,810.7l-75.58-54.86,39.83-54.94L0,685.72l9.85-92.91,144.22,15c-1.8-6-4.45-10.83-6.61-15.86s-4.42-10-6.63-14.94l-6.9-15.5-6.54-14.68c4-3.32,76.64-36,85-38.36,1,2,2.15,4.18,3.14,6.4,14.5,32.53,29.13,65,43.32,97.68,2.28,5.25,5.22,7,10.62,7.43,18.34,1.58,36.64,3.7,55,5.61,3.09.32,6.18.61,9.92,1-1.64-6.88-5-12.4-7.45-18.26-2.58-6.19-5.42-12.26-8.15-18.39l-7.92-17.8-7.92-17.8L295,536.56l-8.18-18.37-7.92-17.8-8.07-18.14,85.31-38,3.06,6.88Q399.3,541.3,439.32,631.5c2.14,4.85,4.71,6.85,10,7.31,19.8,1.73,39.55,4,59.32,6.13A18.83,18.83,0,0,0,519,643.4c17.34-7.92,34.8-15.58,52.22-23.34l5.91-2.63c-2.38-1.87-4.08-3.31-5.87-4.61Q509,567.63,446.63,522.54A27.47,27.47,0,0,1,437,510.67C431.08,497,424.74,483.55,418.58,470c-.83-1.83-1.64-3.68-2.78-6.24,2.72.09,4.55,0,6.35.23,16.23,1.68,32.46,3.46,48.7,5.06a16.78,16.78,0,0,1,8.59,3.29q63.22,46,126.54,91.86c1.8,1.31,3.66,2.53,6.11,4.22.43-2.58.82-4.34,1-6.13,2-19.15,4-38.31,6.13-57.45a17.84,17.84,0,0,0-1.57-9.7c-8.27-18.33-16.53-36.67-24.49-55.15-1.8-4.19-4.12-5.88-8.72-6.35Q485.17,423.53,385.9,413c-2.07-.22-4.12-.54-6.86-.91l9.8-92.82,157.28,16.44c-.84-2.37-1.32-4.11-2-5.74-8.32-18.77-16.81-37.47-24.93-56.32-1.68-3.9-4-5.13-7.94-5.53-36.44-3.68-72.86-7.55-109.28-11.38-1.86-.19-3.7-.48-6.4-.83l9.85-92.79L471.87,170c-.65-5.77-3.71-10.07-5.61-14.77-2-5-4.39-10-6.61-14.95L453.27,126,446.62,111l-6.39-14.36-6.65-14.93L427.19,67.4l-6.65-14.93-6.47-14.53L499.29,0,558.1,132.09c14.13-18.3,26.54-36.51,40.33-54.77,25.31,18,50.15,36.38,75.63,54.72l-71.64,98.6,29.7,66.72c11-14.27,21-28.6,31.3-42.66s20.46-28.07,30.68-42.11,20.63-28.37,31.4-43.18l75.63,54.85c-41.56,57.46-83.28,114.44-124.85,171.83.57,1.55,1.05,3.12,1.71,4.61,8.42,19,16.8,37.93,25.37,56.82a16.46,16.46,0,0,0,4.76,6.34c16.84,12.44,33.83,24.66,50.78,36.94.62.45,1.32.78,2.48,1.46.38-2.7.76-4.94,1-7.18q8.15-77.13,16.21-154.26a22.36,22.36,0,0,1,4.26-11.5c9.44-12.8,18.61-25.79,27.9-38.7.94-1.31,2-2.54,3.39-4.3,1.14,2.19,2.05,3.75,2.79,5.4,6.58,14.73,13.07,29.5,19.75,44.18a18.91,18.91,0,0,1,1.58,10.31q-8.32,77.43-16.43,154.88c-.23,2.22-.3,4.46-.48,7.28,2.13-.82,3.66-1.33,5.13-2,17.81-7.91,35.59-15.87,53.42-23.73a15.49,15.49,0,0,0,6.7-5.34c12.09-16.82,24.23-33.61,36.63-50.2,2.65-3.55,2.68-6.31.95-10.19q-40.43-90.36-80.6-180.84l-3.37-7.57L924.52,191a5.45,5.45,0,0,1,.74.21,1.41,1.41,0,0,1,.49.34,4.57,4.57,0,0,1,.73,1c21,47.07,41.93,94.15,63.27,142.1,1.58-1.8,2.83-3,3.85-4.43,12.21-16.73,24.27-33.57,36.65-50.18,2.52-3.38,2.49-6,.84-9.64-14.79-32.86-29.39-65.81-44-98.73l-3.14-7.06L1069,126.7l27.46,61.68c10.43-13.37,19.5-26.49,28.92-39.34s18.72-25.71,28.08-38.57l28.88-39.67,75.52,54.69c-13.89,19.81-28.23,39-42.25,58.41s-28.29,38.91-43.14,59.32L1240,250.4,1230.2,343c-2.56-.17-4.77-.24-7-.47-36-3.76-72-7.42-108-11.43-4.87-.54-7.51.75-10.29,4.68-11.58,16.42-23.54,32.56-35.35,48.81-1.08,1.48-2.05,3-3.63,5.39l157.57,16.57-9.83,92.91-211.54-22.11q-7.4,10.19-14.74,20.28c-8.63,11.84-17.32,23.63-25.84,35.55a15.26,15.26,0,0,0-2.91,6.72c-2.34,20.59-4.44,41.21-6.59,61.82a15.5,15.5,0,0,0,.29,2.57c2.22-.86,4.28-1.57,6.25-2.44q71.5-31.8,143-63.71a22.53,22.53,0,0,1,12.1-2c17.47,1.85,35,3.45,53.15,5.21-1.06,1.78-1.75,3.18-2.66,4.42-9.7,13.39-19.49,26.71-29.11,40.15a20.12,20.12,0,0,1-8.67,6.84q-71,31.46-141.85,63.1l-6.84,3c1.85,1.6,3,2.74,4.28,3.68q23.85,17.39,47.78,34.67a13.83,13.83,0,0,0,6.17,2.64c22.67,2.5,45.35,4.8,68.5,7.21l125.14-172L1305.2,590l-93.26,128.32,72.93,7.73,71.8-98.59,75.62,54.77-39.71,54.72c16.49,2.38,32.42,3.57,48.27,5.32s31.63,3.32,47.45,5l48.72,5.13-9.81,92.92-144.68-15.1c9.23,21.12,18.27,41,27,60.89-3.93,3.17-73.74,34.74-85,38.44q-12.29-27.54-24.67-55.29c-8.18-18.35-16.35-36.71-24.61-55.27l-72.82-7.62,63.79,143.29c-3.77,3.38-76.57,36.24-85.53,38.67l-3.18-7.14q-40-89.86-79.92-179.77c-2-4.55-4.42-6.63-9.55-7.08-20-1.75-40-4.08-60-6a16.54,16.54,0,0,0-7.87.88c-19,8.26-37.94,16.78-56.88,25.23a28.84,28.84,0,0,0-2.63,1.59c1.43,1.26,2.54,2.41,3.81,3.34q63.51,46.13,127.09,92.16A24.12,24.12,0,0,1,1100,927c6.09,14.26,12.46,28.39,18.7,42.58.67,1.52,1.22,3.09,2.07,5.26-2,0-3.56.06-5.1-.1-16.23-1.73-32.45-3.58-48.7-5.19a17.89,17.89,0,0,1-9.14-3.56q-64-46.55-128.07-93c-1.68-1.22-3.41-2.37-5.65-3.92-.36,2.31-.71,4.11-.91,5.93-2,19.15-4,38.31-6.14,57.45a16.67,16.67,0,0,0,1.63,9.06c8.49,18.92,17,37.83,25.24,56.88,1.73,4,4,5.53,8.32,6q100.22,10.27,200.41,20.86c1.44.15,2.88.34,5.25.63-3.09,30.92-6.46,61.58-9.77,92.89L990.71,1102.3l29.85,67L1141.49,1182l-9.82,92.9-67.58-7ZM744,664.32a29.19,29.19,0,0,0,.82-3.22c3.07-28.69,6.05-57.39,9.24-86.06.39-3.48-1-5.29-3.56-7.18q-34.54-25-69-50.22a25.61,25.61,0,0,0-3.64-1.85,11.41,11.41,0,0,0-.51,1.66c-3,29.32-6,58.66-9.16,88-.32,3,.76,4.59,3,6.19,9,6.42,18,13,26.93,19.49Zm-35.47,48.53c-1.71-1.4-2.89-2.49-4.18-3.42C682.14,693.3,659.88,677.3,637.84,661c-3.61-2.67-6.39-2.56-10.2-.84-24.24,11-48.57,21.7-72.86,32.54-1.83.82-3.59,1.82-6.22,3.17l74.9,54.84Zm180.6-80.32,9.36-92.37c-2,.67-3.18,1-4.27,1.44-25.43,11.3-50.82,22.7-76.32,33.85-3.52,1.54-4.36,3.83-4.71,7.19-2.8,27.25-5.72,54.48-8.58,81.72-.19,1.79-.2,3.6-.31,5.94Zm-251.36,266,86-38.29,9.71-92.27L647.3,806.3Zm155.7-124.4a18,18,0,0,0-.65,2.14c-3.09,28.93-6.1,57.86-9.32,86.78-.37,3.29.93,4.91,3.34,6.63Q821,894.19,855,918.86c.9.65,1.94,1.1,3.61,2l9.93-92.23Zm195.62-32c-1.35-1.19-1.93-1.78-2.58-2.25-22.82-16.64-45.71-33.2-68.43-50-3.06-2.26-5.41-2-8.54-.61-24.83,11.16-49.72,22.19-74.58,33.28-1.83.81-3.57,1.81-6.32,3.22l75,54.4Z"/></g></g></svg>