<svg xmlns="http://www.w3.org/2000/svg" viewBox="0 0 276.72 263.84"><defs><style>.cls-1{fill:#fff;}</style></defs><title>Star2</title><g id="Layer_2" data-name="Layer 2"><g id="Layer_10" data-name="Layer 10"><path class="cls-1" d="M44.62,233l6.76-11.37c.35,0,.76,0,1.17,0,8.11.12,16.22.24,24.34.4a1.67,1.67,0,0,0,1.72-.94c2.2-3.79,4.46-7.55,6.7-11.31l.64-1.07-46.15-.67,6.78-11.4,39.51.53-12.33-22,13.38.23,9,16c.27-.39.48-.64.64-.91,1.62-2.72,3.21-5.45,4.87-8.15a1.67,1.67,0,0,0,0-2Q92.91,165,84.24,149.58L77.74,138c-.24-.43-.5-.85-.76-1.28l-11.72-.16c.26.51.44.87.64,1.23,2.61,4.61,5.2,9.22,7.84,13.81a1.66,1.66,0,0,1,0,2c-1.89,3.09-3.71,6.22-5.56,9.34l-.69,1.16L55.17,142.27c-.29.41-.49.67-.66.94q-2.81,4.65-5.6,9.31Q42.2,163.76,35.52,175a1.84,1.84,0,0,1-1.89,1.06c-3.58-.12-7.16-.14-10.74-.2-.34,0-.67,0-1.22-.06,1.5-2.78,3.16-5.31,4.68-7.91S29.46,162.66,31,160l4.68-7.86,4.68-7.86,4.77-8L29.59,136,16,158.9l-13.21-.22c4.45-7.72,9-15.13,13.48-22.83L0,135.6l.11-11.49c5.4,0,10.75.18,16.29.2l-13-23.17c.43,0,.69-.06.95-.06,3.77,0,7.54.12,11.31.13a1.5,1.5,0,0,1,1.51.91c3.95,7.09,7.95,14.15,11.88,21.24a2,2,0,0,0,2,1.22c4.3,0,8.61.1,12.91.16.37,0,.74,0,1.26,0L22.6,84.5c4.5,0,8.85.1,13.27.14L55.31,119a32.72,32.72,0,0,0,2.21-3.53c.72-1.17,1.41-2.36,2.11-3.54l2.16-3.64,2.11-3.54L66,101.26l2.16-3.64c.29.45.51.75.68,1.07,1.81,3.22,3.58,6.46,5.43,9.66a1.58,1.58,0,0,1-.06,1.86c-2.82,4.67-5.6,9.35-8.39,14-.12.19-.21.4-.36.69a6.19,6.19,0,0,0,.8.12c3.47.06,6.93.1,10.4.17a1.09,1.09,0,0,0,1.19-.65,4.7,4.7,0,0,1,.29-.49q12.3-20.69,24.63-41.37a1.91,1.91,0,0,0,0-2.26c-1.57-2.65-3.05-5.36-4.57-8-.22-.39-.46-.77-.77-1.28L88.15,86.81l-13.4-.17L87.58,65.07c-4.59-.13-8.94-.16-13.3-.24l-13.14-.21L47.91,64.4,41.4,52.79l46.22.72L80,40l-26.66-.4L46.82,28l26.63.35-8-14.18,10-5.6,8,14.15c1.33-2,2.36-3.85,3.47-5.7s2.26-3.8,3.39-5.7l3.33-5.6L97.09,0c.3.45.5.72.66,1,1.82,3.22,3.6,6.45,5.46,9.64a1.49,1.49,0,0,1-.07,1.76C99,19.33,94.88,26.29,90.71,33.21a1.92,1.92,0,0,0-.06,2.26c2.18,3.76,4.28,7.55,6.42,11.33.18.32.38.62.64,1L121.09,8.53c.66.56,5.62,9.11,6.66,11.47L107.64,53.83l25.1.4-6.81,11.45-18.39-.29,6,10.7,50.75.75,6.24-10.49-1.57,0c-5.26-.07-10.51-.16-15.77-.2a1.49,1.49,0,0,1-1.52-.88c-1.8-3.27-3.66-6.5-5.5-9.75-.17-.29-.31-.6-.55-1l25.1.35c-1.59-3-3.23-5.8-4.8-8.64s-3.24-5.78-4.86-8.67l-4.81-8.57-4.81-8.59,6.76-11.36c2,3.38,3.81,6.75,5.7,10.08s3.74,6.64,5.6,10L175.16,39l5.65,10,7.89-13.27c-.17-.32-.34-.7-.55-1.06q-5.94-10.55-11.91-21.09a1.73,1.73,0,0,1,0-2.06c1.88-3,3.68-6.15,5.52-9.23l.69-1.17,13.08,23.16,8.23-13.83,10,5.93-8.24,13.86,26.58.44-6.77,11.38-2.89,0c-7.5-.12-15-.22-22.51-.37a1.75,1.75,0,0,0-1.81,1c-2.16,3.73-4.38,7.42-6.58,11.12L190.83,55c3.18.15,6.2.12,9.22.17s6.17.09,9.26.13l9.14.13,9.25.13,9.33.14-1.45,2.43c-1.62,2.72-3.25,5.43-4.84,8.17a1.43,1.43,0,0,1-1.45.8q-18.62-.28-37.24-.51c-.41,0-.82,0-1.38,0L203,88.56l-13.38-.24-9-16c-.3.43-.52.72-.7,1-1.64,2.75-3.25,5.52-4.93,8.24a1.74,1.74,0,0,0,0,2.06c3.51,6.15,7,12.33,10.45,18.51L199,126.26c.13.23.27.45.46.76l12.08.17-9-16,6.81-11.45,12.34,21.85.7-1.17,12.32-20.61c2.23-3.73,4.47-7.45,6.67-11.2a1.58,1.58,0,0,1,1.62-.92c3.65.11,7.31.14,11,.2.33,0,.66,0,1.14.07l-23.43,39.4a9.65,9.65,0,0,0,1,.13c4.49.07,9,.12,13.48.23a1.58,1.58,0,0,0,1.62-.91c4.11-7,8.26-13.89,12.36-20.86a1.9,1.9,0,0,1,2-1.09c3.5.12,7,.13,10.51.19.41,0,.81,0,1.41.08l-13.51,22.71c2,.17,3.75.1,5.5.15s3.5.05,5.26.08l5.51.09c0,3.83-.06,7.61-.12,11.51l-16.28-.23,13.05,23.24-13.29-.17-3.37-6q-4.62-8.22-9.23-16.44a1.43,1.43,0,0,0-1.39-.9c-4.61,0-9.22-.11-13.82-.18-.22,0-.44,0-.78.07l22.68,40.21-13.3-.17-19.47-34.47c-2.24,3.64-4.3,7.17-6.39,10.68s-4.21,7.07-6.31,10.61c-.66-.51-4.92-7.86-6.69-11.5l9.33-15.7c-.57,0-1-.06-1.37-.06-3.08,0-6.17-.07-9.25-.16a1.68,1.68,0,0,0-1.72.94q-7,11.82-14,23.6c-3.64,6.13-7.27,12.26-10.95,18.37a1.67,1.67,0,0,0,0,2c1.59,2.73,3.12,5.5,4.67,8.25.16.29.35.57.63,1l.69-1.16c2.68-4.52,5.39-9,8-13.59a1.75,1.75,0,0,1,1.81-1c3.58.09,7.16.1,10.74.15l1.42,0c-.68,1.33-1.42,2.46-2.1,3.62s-1.4,2.36-2.1,3.54L195.61,188l-2.1,3.54-2.1,3.54-2.2,3.7,39.62.66,6.5,11.6-46.14-.71c.19.39.32.7.47,1,2.18,3.89,4.39,7.76,6.54,11.66a1.6,1.6,0,0,0,1.6.95c8,.08,15.92.2,23.88.31a6.74,6.74,0,0,0,.91,0,1.15,1.15,0,0,1,1.24.76c1,1.81,2,3.59,3,5.39l3.06,5.47-26.59-.36c2.6,4.82,5.31,9.41,7.91,14.19l-10,5.59-7.88-14c-.55.21-.67.69-.89,1.05q-6,10.11-12.07,20.23l-.78,1.31-6.51-11.54,13.6-22.87L179,215.87c-4,6.67-7.86,13.23-11.75,19.75s-7.78,13.08-11.74,19.74c-.26-.37-.45-.59-.59-.84-1.84-3.25-3.65-6.52-5.52-9.74a1.5,1.5,0,0,1,.06-1.76q4.75-8,9.45-15.93l9.48-16,.64-1.08c-8.43-.19-16.66-.25-25-.43.16-.35.24-.59.36-.79,1.93-3.24,3.89-6.47,5.79-9.73a1.68,1.68,0,0,1,1.73-.92c5.29.13,10.59.2,15.88.29.41,0,.82,0,1.34,0-.2-.4-.33-.7-.5-1-1.55-2.76-3.12-5.5-4.64-8.27a1.44,1.44,0,0,0-1.41-.88q-24.91-.34-49.81-.73c-.23,0-.45,0-.69,0l-5.89,9.91c6.2.14,12.27.16,18.37.28l6.59,11.64L106,209l19.33,34.47-6.75,11.35c-2-3.36-3.82-6.72-5.7-10s-3.73-6.64-5.6-10l-5.66-10.06-5.65-10L88,228l13,23.09L94.29,262.5c-1-1.51-1.77-3.06-2.63-4.54s-1.72-3.05-2.58-4.58l-2.64-4.68-2.57-4.58c-.85-1.51-1.72-3-2.67-4.7L73,253.26l-10-5.92,8.25-13.88Zm118.86-56.3.63-1.06q12.42-20.88,24.85-41.74a1.86,1.86,0,0,0,0-2.16q-12-21.28-24-42.6a1.61,1.61,0,0,0-1.59-1q-24.56-.33-49.11-.74a1.59,1.59,0,0,0-1.61.92q-12.48,21-25,42a1.6,1.6,0,0,0,0,1.86q12,21.23,23.92,42.5a2,2,0,0,0,2,1.23q20.56.25,41.12.58Z"/><path class="cls-1" d="M118.32,96.5l5.62.07q17,.26,34,.49a1.78,1.78,0,0,1,1.78,1.05q9.35,16.69,18.78,33.34a2,2,0,0,1,0,2.37q-9.78,16.33-19.46,32.71a1.94,1.94,0,0,1-2,1.11q-19.13-.34-38.26-.6l-1.21,0c-.15-.22-.32-.46-.47-.72q-9.51-16.87-19-33.73a1.85,1.85,0,0,1,0-2.16Q108,114,117.72,97.51Zm33.5,59.4,13.94-23.44c-.09-.2-.15-.38-.24-.54q-6.38-11.35-12.76-22.71a1.36,1.36,0,0,0-1.37-.74q-12.68-.17-25.36-.38a1.67,1.67,0,0,0-1.7,1Q118,119.88,111.5,130.68l-.55.92c.19.35.36.69.54,1q6.19,11,12.36,22a1.6,1.6,0,0,0,1.62.92c7.77.09,15.53.22,23.3.34Z"/></g></g></svg>