<svg xmlns="http://www.w3.org/2000/svg" viewBox="0 0 1774.99 318.16"><defs><style>.cls-1{fill:#0f2647;}.cls-2{fill:#09192d;}.cls-3{fill:#0b1e32;}</style></defs><title>icetray</title><g id="Layer_2" data-name="Layer 2"><g id="Layer_11" data-name="Layer 11"><path class="cls-1" d="M1490.71,136.34,13.56,123.67c-9.36-.08-11.13-13.35-2.12-15.88L394.28.3a8.09,8.09,0,0,1,2.2-.3L1766.12,1.66c21.8,15.26-2.36,35.1-10.9,38.16l-261.71,96.06A8.09,8.09,0,0,1,1490.71,136.34Z"/><polygon class="cls-2" points="474.47 62.17 254.01 62.17 96.54 105.62 352.79 108.33 474.47 62.17"/><polygon class="cls-2" points="749.3 61.74 512.31 61.74 401.72 107.17 657.97 110.04 749.3 61.74"/><polygon class="cls-2" points="1019.13 65.21 790.72 63.49 700.43 110.66 939.94 113.06 1019.13 65.21"/><polygon class="cls-2" points="1314.72 70.13 1062.12 66.83 982.87 111.41 1218.96 114.71 1314.72 70.13"/><polygon class="cls-2" points="1607.22 70.04 1363.31 68.48 1260.23 116.32 1490.09 116.69 1607.22 70.04"/><polygon class="cls-2" points="605.52 13.65 406.69 16.2 316.58 42.79 506.11 44.24 605.52 13.65"/><polygon class="cls-2" points="848.53 12.8 640.36 14.5 529.9 50.19 762.72 49.34 848.53 12.8"/><polygon class="cls-2" points="1102.6 12.8 886.77 14.5 804.35 51.04 1032.07 51.89 1102.6 12.8"/><polygon class="cls-2" points="1408.49 17.9 1150.18 15.35 1084.8 48.62 1328.62 54.44 1408.49 17.9"/><polygon class="cls-2" points="1726.28 17.9 1456.92 19.6 1391.06 49.56 1623.46 51.89 1726.28 17.9"/><polygon class="cls-1" points="1430.18 312.1 112.04 302.22 31.02 138.19 1485.51 148.07 1430.18 312.1"/><path class="cls-1" d="M1426.76,318.16,119.35,306.94c-8.29-.07-9.85-11.81-1.87-14.05l338.84-95.14a7.16,7.16,0,0,1,1.95-.27L1670.8,200c8,0,34.3,19.72,26.74,22.43l-268.31,95.28A7.16,7.16,0,0,1,1426.76,318.16Z"/><polygon class="cls-3" points="1759.31 37.74 1480.12 138.19 1432.15 316.05 1699.62 221.88 1759.31 37.74"/><polygon class="cls-2" points="71.66 145.3 0 142.53 6.26 114.84 71.66 121.83 71.66 145.3"/><polygon class="cls-2" points="1473.9 163.86 53.21 150.69 53.48 124.36 1487.34 128.31 1473.9 163.86"/></g></g></svg>