<svg xmlns="http://www.w3.org/2000/svg" viewBox="0 0 753.94 825"><defs><style>.cls-1{fill:#a97c50;}.cls-2{fill:#c49a6c;}.cls-3{fill:#231f20;}.cls-4{fill:#e8ecee;stroke:#231f20;stroke-miterlimit:10;stroke-width:2.42px;}.cls-5{fill:#dbaf83;}.cls-6{fill:#f7b3d0;}.cls-7{fill:#d1a378;}.cls-8{fill:#d1a479;}.cls-9{fill:#fff;}.cls-10{fill:#f6afce;}.cls-11{fill:#f392bd;}.cls-12{fill:#f6c6dc;}.cls-13{fill:#f6b2d0;}.cls-14{fill:#f7d135;}.cls-15{fill:#a57853;}.cls-16{fill:#875b3a;}.cls-17{fill:#b18766;}</style></defs><title>podium</title><g id="Layer_2" data-name="Layer 2"><g id="Layer_17" data-name="Layer 17"><ellipse class="cls-1" cx="377.97" cy="708.92" rx="375.97" ry="116.07"/><ellipse class="cls-2" cx="375.97" cy="680.92" rx="375.97" ry="116.07"/><path class="cls-3" d="M389.08,709.27,366,711.7c-12.38,2.69-33.47,3.41-30.84,0,7-9,29.17-12.67,40.15-26.46,2.69-3.38,9.35-99.15,23.51-97.58h0c4.26.68,8.94,3,6.5,6.56C390.55,615.84,390.86,692,390.86,692,390.18,696.23,393.37,708.83,389.08,709.27Z"/><path class="cls-3" d="M444,712.3l23.08,2.43c12.38,2.69,33.47,3.41,30.84,0-7-9-29.17-12.67-40.15-26.46-2.69-3.38-26.24-122-28.78-87.44l-.25-8.29c-4.26.68-9.11,3.85-6.44,7.24,16.54,21,19.92,95.22,19.92,95.22C442.91,699.27,439.72,711.87,444,712.3Z"/><path class="cls-3" d="M305.73,362.14c-18.34,35.3-31.51,53.48-38.77,48.4-2.62-1.83,12.9-15.85,31.24-51.15s22.69-65.92,25.76-66C336.12,292.84,324.07,326.84,305.73,362.14Z"/><path class="cls-4" d="M281.21,384.1c-6.95-3.37-13.59-4-14.83-1.47-.73,1.51.58,3.8,3.19,6.11-14.41.06-33.54,12.54-33.54,21.48s9.59,9.84,24,9.84c8,0,11.18-2.65,14.63-6.3.21,3.83,1.63,6.71,3.88,7.22,3.3.74,6.29-4.14,8.6-10.33a14,14,0,0,0-.46-10.9c-.48-1.29-1.19-2.6-1.52-3.56,3.23.52,5.65.1,6.35-1.35C292.78,392.29,288.16,387.47,281.21,384.1Z"/><path class="cls-3" d="M395.48,4.19c-17-4.58-53.24-8-93,4.1s-70,35.35-74.13,48.64c-4.25,13.63,47.78,6.28,87.58-5.78S412,8.63,395.48,4.19Z"/><path class="cls-3" d="M360.07,64.28,297.95,82c-16.07,5.23-19.66-9.84-27.62-22.21h0c-8.4-20.41,2.76-23.88,14.25-27.54l49.25-15.67c11.49-3.66,23.26-7.39,27.54,14.25h0A98.55,98.55,0,0,1,360.07,64.28Z"/><path class="cls-5" d="M421.83,651C397.35,667,290.69,280.62,290.69,280.62l48.12-20.83L456,251.3S435.29,642.13,421.83,651Z"/><path class="cls-6" d="M490.68,172.11c0,75.83-58.47,121.23-130.61,121.23S215,266.13,215,170.69C215,83.1,287.94,50.88,360.07,50.88S490.68,105.15,490.68,172.11Z"/><path class="cls-7" d="M412.94,284.33c24.9,15.24,17.2,349,4.56,357.27,0,0-1.54,4.2-6.26.39,5.7,8.52,8.94,9.61,10.87,8.35,13.46-8.83,34.42-405.82,34.42-405.82Z"/><path class="cls-8" d="M455.34,253.6l-4.67-5.72-4.9.35L455,259.54C455.14,257.25,455.25,255.26,455.34,253.6Z"/><path class="cls-8" d="M426.31,630.57q.62-3.6,1.25-7.87L413,640.53l-5-6.07c4.11,7.31,7.69,11.85,10.58,12.94l-3-3.7Z"/><path class="cls-8" d="M294.82,292.81l17.69,21.63-8.57,10.48,1.35,4.69,9.81-12,23.36,28.57-19.4,23.72L315.84,366q1.51,5.14,3.08,10.46l.15-.18,21.17,25.89-10,12.23,1.4,4.63,11.19-13.69,23.28,28.47-19.71,24.11-4.55-5.57q2,6.32,3.95,12.66l.61-.74,19.62,24-9.23,11.29,1.47,4.54,10.35-12.65,19.26,23.55-17,20.82-3.48-4.26q1.86,5.5,3.7,10.87l19.18,23.45-7.57,9.26,1.62,4.36L392.83,569l19.71,24.11-15.37,18.79q.91,2.12,1.8,4.14l16.16-19.76,13.75,16.82q.34-2.66.69-5.5l-11.85-14.49,15.46-18.91q.44-4.45.87-9.09l-19-23.26,19.71-24.11,3.09,3.78q.23-2.87.46-5.77l-1-1.18,1.18-1.44q.28-3.49.55-7l-4.32,5.28-19.4-23.72,19.4-23.72,6.87,8.4q.21-2.91.42-5.83l-4.69-5.74,5.59-6.84q.24-3.47.49-6.94l-8.67,10.6L415.49,434l19.26-23.55,10.31,12.6.39-5.86-8.11-9.91,9.52-11.65q.22-3.46.44-6.88l-12.56,15.36-19.62-24,19.62-24,13.58,16.61.37-5.89L437.34,353l13.2-16.14L451,330l-16.21,19.82-23.28-28.47,23.28-28.47,17.16,21,.35-5.92-14.92-18.24,17.16-21q.21-3.7.38-6.8l-20.13,24.62-21.17-25.89,8.77-10.72-5.51.4L411,257.48l-5.19-6.35-4.9.35,7.5,9.17-23.28,28.47-23.36-28.57,5.42-6.63-5.51.4-2.51,3.06-2.23-2.72L352,255l4.53,5.54-19.62,24L320.11,264l-3.83,1.66,18.08,22.11L315.1,311.27l-20.79-25.42,13.57-16.6-8,3.48-7.94,9.71C292.65,285.06,293.62,288.56,294.82,292.81Zm26.83,80.26,19.4-23.72,21.17,25.89L342.82,399Zm45.75,2.17,19.26-23.55,23.28,28.47-19.26,23.55Zm42.9,58.8-19.4,23.72-19.62-24L390.69,410Zm-45.49-62-21.17-25.89,19.26-23.55,21.17,25.89Zm-19.4,30.06,19.4-23.72,23.28,28.47L368.7,430.6ZM368.6,485l-19.62-24,19.71-24.11,19.62,24Zm2.59,3.17,19.71-24.11,19.26,23.55-19.71,24.11Zm2.23,50.71,17-20.82,19.4,23.72-17,20.82Zm58.73,30.18-17,20.82-19.71-24.11,17-20.82Zm0-54.56-19.71,24.11L393,514.93l19.71-24.11Zm0-53.79-19.4,23.72L393.5,460.93l19.4-23.72Zm0-53.44L412.9,430.87l-19.62-24,19.26-23.55Zm0-54.32-19.62,24-23.28-28.47,19.62-24ZM411,263.83l21.17,25.89-23.28,28.47L387.71,292.3Zm-4.71,57.53-19.62,24-21.17-25.89,19.62-24Zm-47.12-57.62,23.36,28.57-19.62,24-23.36-28.57Zm-22.21,27.16,23.36,28.56L341.05,343l-23.36-28.56Z"/><path class="cls-9" d="M356.08,225c0,9.86-19.45,20.48-35.48,20.48s-33.38-11.14-33.38-21,13-8,29-8S356.08,215.12,356.08,225Z"/><circle class="cls-3" cx="248.5" cy="161.16" r="7.38"/><circle class="cls-3" cx="353.46" cy="153.16" r="7.38"/><circle class="cls-10" cx="314.3" cy="285.36" r="23.45"/><path class="cls-11" d="M390.43,54.18c51.15,18.19,87,60.3,87,109.35,0,65.69-64.27,118.95-143.55,118.95a172,172,0,0,1-36.09-3.79,138,138,0,0,0,62.3,14.65c72.13,0,126.91-42.89,130.61-121.23C494.33,94.66,447.92,66.88,390.43,54.18Z"/><path class="cls-12" d="M489.74,230.89c-6.61-19.44-19.06-27.38-42.57-27.38a49.3,49.3,0,0,0-9.16.86c-7.15-11.59-21.31-19.49-37.61-19.49a49,49,0,0,0-11.68,1.41c-7.16-11.57-16.63-14-29.91-16.24-14.57-2.44-35.47,3.27-43.1,13.11-7.77-8.89-22.24-11-36.15-11-23.51,0-40.45,12.83-40.45,33.09,0,.39,0,.77,0,1.15-20.3,1.38-36.28,9.16-36.28,33.83,0,16.44,13.56,30.15,31.57,33.28a24.48,24.48,0,0,0-1.31,11C234.6,298.2,248,309.12,264,309.73c5.15.2,8.25-.92,8.88-3.81,2.05,12.2,19.8,23.09,34.53,23.09,11.91,0,22.16-6.13,26.73-14.93a33.18,33.18,0,0,0,20.3,6.7c12.48,0,23.2-6.48,27.89-15.75a36.45,36.45,0,0,0,6.94.67c11.5,0,21.55-5.31,27.05-13.23a42,42,0,0,0,4.45.24c13.61,0,25.45-6.52,31.54-16.13C473.4,274.39,495.53,247.92,489.74,230.89ZM317.1,225.55c7.77,8.89,20.12,14.63,34,14.63,1,0,1.9,0,2.84-.09a25.58,25.58,0,0,0-5.45,10.19,24,24,0,0,0-.81,6.91q-.7,0-1.41,0c-10.22,0-19.11,4.85-23.77,12-4.72-5.89-12.48-9.83-21.33-10.14a33.37,33.37,0,0,0-7-18C304.71,239.45,310.68,233.83,317.1,225.55Z"/><path class="cls-13" d="M490.46,233.88c-1.63-16.7-13.62-22.28-13.74-22.63,13.86,27.67-14.64,40.46-32.77,42.34,1.18,11.34-14.38,29.24-32.79,26.61-1.49-.21-2.34,10.33-3.31,11.28-8.85,8.7-8.3,5.55-19.8,5.55a36.45,36.45,0,0,1-6.94-.67c-4.68,9.27-15.4,15.75-27.89,15.75a33.18,33.18,0,0,1-20.3-6.7c-4.57,8.8-14.82,14.93-26.73,14.93-14.73,0-31.25-2.23-33.3-14.43l0,.08,0-.07c2.05,12.2,19.8,23.09,34.53,23.09,11.91,0,22.16-6.13,26.73-14.93a33.18,33.18,0,0,0,20.3,6.7c12.48,0,23.2-6.48,27.89-15.75a36.45,36.45,0,0,0,6.94.67c11.5,0,21.55-5.31,27.05-13.23a42,42,0,0,0,4.45.24c13.61,0,25.45-6.52,31.54-16.13C473.4,274.4,492.19,251.57,490.46,233.88Z"/><path class="cls-3" d="M371,127.31c-.14.61-6.8-3.38-15.67-5.44s-16.6-1.41-16.46-2,8.24-2.85,17.12-.79S371.18,126.7,371,127.31Z"/><path class="cls-3" d="M234.44,134.87c.14.61,6.8-3.38,15.67-5.44s16.6-1.41,16.46-2-8.24-2.85-17.12-.79S234.3,134.26,234.44,134.87Z"/><path class="cls-3" d="M412.69,371.66c-18.34,35.3-31.51,53.48-38.77,48.4-2.62-1.83,12.9-15.85,31.24-51.15s22.69-65.92,25.76-66C443.08,302.37,431,336.37,412.69,371.66Z"/><path class="cls-14" d="M248.8,48c-22.26,20-8.72,59.54-10,60.07-3.88,1.64-13.19,4.75-12.28.65,2.91-13-.63-44.55,14.65-60.22C262.13,27,299.11,8.61,299.85,9.75S269.71,29.13,248.8,48Z"/><path class="cls-4" d="M395.09,394.1c-6.95-3.37-13.59-4-14.83-1.47-.73,1.51.58,3.8,3.19,6.11-14.41.06-33.54,12.54-33.54,21.48s9.59,9.84,24,9.84S400,422.8,400,413.83a23.48,23.48,0,0,0-1-7.63c3.23.52,5.65.1,6.35-1.35C406.66,402.29,402,397.48,395.09,394.1Z"/><polygon class="cls-15" points="304.59 777.09 131.04 738.11 80.87 487.81 296.7 502.89 304.59 777.09"/><polygon class="cls-16" points="361.2 712.81 304.2 777.11 296.7 504.15 375.11 473.8 361.2 712.81"/><polygon class="cls-17" points="297.45 529.75 62.17 494.76 47.65 396.76 295.91 416.17 297.45 529.75"/><polygon class="cls-15" points="389.86 464.2 297.45 529.75 295.88 416.26 391.38 440.76 389.86 464.2"/><polygon class="cls-16" points="383.58 465.39 303.72 522.05 302.36 423.96 384.89 445.13 383.58 465.39"/><polygon class="cls-15" points="379.21 466.23 308.1 516.67 306.88 429.34 380.37 448.19 379.21 466.23"/><polygon class="cls-15" points="285.64 523.46 72.61 491.78 59.46 403.05 284.25 420.62 285.64 523.46"/><polygon class="cls-17" points="280 520.46 77.59 490.36 65.1 406.05 278.68 422.74 280 520.46"/></g></g></svg>