<svg xmlns="http://www.w3.org/2000/svg" viewBox="0 0 117.44 118.3"><defs><style>.cls-1{fill:#fff;}</style></defs><title>Star1</title><g id="Layer_2" data-name="Layer 2"><g id="Layer_10" data-name="Layer 10"><path class="cls-1" d="M45.05,105.24l-6.56,4.06-2.71-4.4c.22-.15.52-.35.83-.55,3.15-1.93,6.31-3.83,9.43-5.8a2.22,2.22,0,0,0,.87-1.21c.64-2.4,1.19-4.83,1.79-7.33L36,97.86l-2.72-4.51,7.94-4.82c2.8-1.71,5.61-3.4,8.38-5.15a2.39,2.39,0,0,0,.94-1.27c.53-1.88.92-3.8,1.42-5.69a1.23,1.23,0,0,0-.39-1.4q-4.25-4-8.44-8a1.18,1.18,0,0,0-1.32-.35c-1.87.57-3.77,1-5.63,1.63a2.51,2.51,0,0,0-1.32,1c-3.07,5.42-6.08,10.86-9.11,16.3-.07.13-.17.26-.31.47l-4.36-2.42,7.33-13.18c-2.15.61-4,1.27-5.95,1.64A4.65,4.65,0,0,0,19,75c-1.46,2.89-3.14,5.66-4.69,8.51-.33.61-.59.66-1.15.31-1.15-.7-2.35-1.32-3.63-2l3.84-7-12,3.39L0,73.34l12-3.41L5,66l2.44-4.38,5.39,3c1.82,1,3.62,2,5.45,3a1.45,1.45,0,0,0,.95.19c2.52-.68,5-1.4,7.83-2.19l-13.2-7.37,2.44-4.38,7.78,4.33c3.08,1.71,6.14,3.44,9.23,5.13a1.85,1.85,0,0,0,1.24.14q3-.77,5.9-1.69a1.4,1.4,0,0,0,.81-.83c1-3.79,1.85-7.6,2.79-11.4a1.08,1.08,0,0,0-.4-1.22c-1.45-1.31-2.88-2.63-4.28-4a2,2,0,0,0-1.59-.58q-9.19.35-18.37.66c-.25,0-.49,0-.83,0l-.19-5,15-.55c-.24-.27-.38-.45-.55-.6-1.68-1.57-3.34-3.16-5.06-4.69a2.11,2.11,0,0,0-1.33-.49c-3.74.09-7.48.24-11.22.37h-1l-.19-5,8-.3-9.11-8.5,3.42-3.68,9.14,8.48-.26-7.94,5-.18c.09,2.37.18,4.65.26,6.94.07,1.79.11,3.58.2,5.37a1.47,1.47,0,0,0,.31.92c1.91,1.82,3.85,3.61,6,5.59l-.53-15.07C38,20.09,39.5,20,41,20c.15,0,.44.45.45.7.18,4.15.33,8.29.49,12.44.08,2.07.13,4.15.24,6.22a1.86,1.86,0,0,0,.48,1.14q2.23,2.17,4.57,4.24a1.44,1.44,0,0,0,1.15.28c3.76-1.07,7.5-2.2,11.25-3.28a1.22,1.22,0,0,0,1-1.06c.42-1.91.94-3.8,1.33-5.71a2.23,2.23,0,0,0-.24-1.47C58.56,28.32,55.38,23.17,52.2,18a7.1,7.1,0,0,0-.6-.75l4.54-2.74,7.7,12.64c.47-1.94.78-3.81,1.38-5.58a5,5,0,0,0-.76-4.89c-1.73-2.51-3.23-5.19-4.83-7.8-.19-.32-.38-.65-.54-.94l4.32-2.62,4,6.78L70.35,0l5,1.19-2.87,11.9L78.93,9l2.69,4.53L74.9,17.6c-1.37.84-3.12,1.42-4,2.62S70,23.32,69.59,24.9c-.27,1.07-.52,2.14-.84,3.49L81.5,20.68,84,25.07l-7.5,4.55c-2.91,1.77-5.82,3.54-8.71,5.35a2.11,2.11,0,0,0-.83,1.14C66.39,38.05,66,40,65.47,42a1.11,1.11,0,0,0,.36,1.24c2.87,2.7,5.71,5.43,8.59,8.11a1.33,1.33,0,0,0,1.07.26q3.06-.79,6.09-1.72A1.84,1.84,0,0,0,82.5,49Q87,41,91.46,33c.14-.24.29-.48.49-.8l4.37,2.41L89,47.78c2.81-.8,5.4-1.52,8-2.3.24-.07.44-.41.59-.67q2.77-4.94,5.52-9.88c.14-.24.29-.47.5-.81l4.36,2.41-3.85,7,12-3.39,1.37,4.82-12,3.42,6.93,3.88L110,56.61,103.52,53c-1.43-.79-2.85-1.6-4.29-2.38a1.51,1.51,0,0,0-1-.25c-2.58.69-5.14,1.43-7.92,2.22L103.55,60l-2.43,4.37L96,61.51C92,59.32,88.12,57.12,84.17,55a2.11,2.11,0,0,0-1.4-.16c-1.92.49-3.82,1.09-5.73,1.6a1.22,1.22,0,0,0-1,1q-1.28,5.53-2.65,11a1.13,1.13,0,0,0,.39,1.3c1.53,1.36,3,2.8,4.52,4.15a2.09,2.09,0,0,0,1.32.48c6.25-.18,12.51-.41,18.76-.63h.58l.2,5-15,.54a6.85,6.85,0,0,0,.5.6c1.65,1.55,3.33,3.08,5,4.66a2,2,0,0,0,1.6.57c3.77-.15,7.54-.28,11.31-.41.21,0,.43,0,.74,0l.2,4.95-8,.31,9.1,8.49-3.41,3.68-9-8.38a4.79,4.79,0,0,0-.1.7c.07,2.11.12,4.21.24,6.31,0,.66-.14.88-.82.88-1.35,0-2.7.08-4.17.14-.07-1.88-.15-3.72-.22-5.56C87,94,87,91.8,86.87,89.57a1.51,1.51,0,0,0-.27-.95C84.7,86.8,82.75,85,80.58,83l.52,15.07-5,.19c-.07-1.88-.15-3.69-.21-5.5-.17-4.65-.33-9.3-.53-13.94a1.82,1.82,0,0,0-.5-1.12q-2.23-2.17-4.56-4.25a1.31,1.31,0,0,0-1-.26c-3.82,1.09-7.62,2.24-11.43,3.34a1.11,1.11,0,0,0-.9.93c-.44,2-1,3.92-1.38,5.9a2.24,2.24,0,0,0,.24,1.48q4.57,7.58,9.22,15.1c.26.43.6.81.9,1.22l-4.52,2.65L53.66,91.07c-.36,1.49-.67,2.76-1,4s-1.07,2.89-.86,4.22,1.35,2.52,2.11,3.75c1.48,2.42,3,4.83,4.43,7.21l-4.25,2.51-3.79-6.33-.34.1L47.17,118.3l-5-1.2ZM69.82,61.87c.46-1.9.89-3.8,1.39-5.7a1.17,1.17,0,0,0-.39-1.32q-4.27-4-8.49-8.06a1,1,0,0,0-1.15-.29c-3.77,1.14-7.55,2.22-11.31,3.37a1.39,1.39,0,0,0-.82.83q-1.44,5.73-2.77,11.49a1.39,1.39,0,0,0,.32,1.11c2.83,2.74,5.7,5.43,8.54,8.15a1,1,0,0,0,1.15.3q5.65-1.71,11.32-3.33a1.1,1.1,0,0,0,.87-.95C68.9,65.6,69.37,63.74,69.82,61.87Z"/><path class="cls-1" d="M62.77,60.14a4.17,4.17,0,1,1-8.12-1.91,4.17,4.17,0,0,1,8.12,1.91Z"/></g></g></svg>