
<svg xmlns="http://www.w3.org/2000/svg" version="1.1" xmlns:xlink="http://www.w3.org/1999/xlink" preserveAspectRatio="none" x="0px" y="0px" width="550px" height="400px" viewBox="0 0 550 400">
<defs>
<g id="Layer0_0_FILL">
<path fill="#FF8A00" stroke="none" d="
M 191.6 219.85
L 192.35 219.85 194.5 218.75 191.6 219.85
M 152.6 181.85
L 153.35 179.75 153.25 179.5 152.75 176.85 149.85 183.6 149.75 184 149.75 185.25 149.6 185.85 149.6 187.35 149.5 187.6 149.35 189 149.5 189 149.35 189.35 149.5 190.25 149.5 192.35 149.6 192.35 149.6 192.75 149.6 193.75 150 195.85 150 196.35 150.1 196.35 150.1 196.5 150.1 197 150.25 197.25 150.25 197.85 150.35 198.1 150.35 199.5 150.85 201.85 150.85 202.5 151 202.5 151 202.6 151 204.25 151.1 204.25 151.1 204.35 151.1 204.75 153.6 209.75 156.1 213.1 160.35 217 165.5 219.85 173.85 219.85 168.35 217.6 164.25 215 163.85 214.25 160.35 211.35 159.85 210 159 209.5 158.75 208.5 157.85 207.85 157.75 206.85 156.75 206 156.5 204.35 155.6 203.5 155.6 202.6 155 201.85 154.6 200.75 154.85 200.5 154.25 199.85 154.1 198.25 153.6 197.75 153.1 193.6 152.6 193.35 152.85 191.25 152.5 191 152.75 189.75 152.25 189.5 152.5 188.75 152.25 186 152.75 184.85 152.6 181.85
M 156.5 171.35
L 156.5 172 158.85 169.35 156.5 171.35 Z"/>

<path fill="#070F22" stroke="none" d="
M 203.85 216
L 204 216 204.6 215.75 204.6 209.6 202.1 213 197.85 216.75 196 218 195.1 218.35 195.1 218.5 194.85 218.6 194.6 218.75 194.5 218.75 192.35 219.85 199.6 219.85 198.85 219.5 198.6 218.6 198.6 218.35 198.75 218.1 201 217 203.85 216
M 261.75 219.85
L 261.6 215.75 261.25 216.6 223.6 219.6 215.1 218 214.25 215.35 210.85 218.1 210.85 219.85 261.75 219.85
M 269 202.25
L 267.5 202.25 267.35 219.75 273.6 219.85 272.35 219.6 269.25 206.85 269 202.25
M 311.35 219.5
L 312.1 218.6 311.25 218.75 297.75 219.85 310.85 219.85 311 219.6 311.35 219.5
M 160.35 217
L 156.1 213.1 153.6 209.75 153.5 219.85 165.5 219.85 160.35 217
M 147.85 197.35
L 146.1 197.35 147.25 215.85 147.6 216.1 147.6 198 147.85 197.35
M 96.75 184.35
L 96.35 184.35 96.25 186.75 97 188 97 187.6 96.75 184.35
M 96.5 171.85
L 96.35 172.85 96.85 172.6 96.85 172.5 98.1 171.75 98.1 171.6 96.5 171.85
M 318.6 187.6
L 316.75 187.75 317.1 194 317.25 194 318.5 193.6 318.75 193.35 318.6 187.6
M 318.75 180.6
L 318.1 180.25 318.6 185 318.75 180.6
M 318.6 172.25
L 318.5 171.6 317.6 171.6 317.85 175.6 318.6 176 318.6 172.25
M 268.25 191.25
L 268.1 191.25 267.75 191.35 267.5 191.5 267.35 194 268.5 194.1 268.35 191.35 268.25 191.25
M 261.25 190
L 261.5 190.1 261.6 187.6 260.5 187.6 260.5 189.85 261.25 190
M 261.85 178.75
L 261.75 178.1 261.1 177.85 261.6 186.35 261.85 186.25 261.85 184.5 261.85 178.75
M 267.6 172.5
L 267.5 173.1 267.85 173 269 172.85 269 171.6 267.5 171.6 267.6 172.5
M 212 171.6
L 210.5 171.6 210.6 172.35 210.5 173.85 212.25 173.6 212 172.5 212 171.6
M 364 251.35
L 375.5 230.6 96.5 230.6 107.85 251.35 118.35 251 364 251.35
M 325.85 201.25
L 325.6 201.1 324.6 201.25 324.35 201.35 324.35 219.5 324.6 219.35 324.6 219.25 325.25 218.35 327.75 217.5 328 217.35 328.75 217.25 326.25 207.1 325.85 201.25
M 375.5 215.85
L 374.35 218.1 353.85 219.85 375.5 219.85 375.5 215.85
M 375.5 197.35
L 374.25 197.35 375.5 214.75 375.5 197.35
M 326.25 171.6
L 324.35 171.6 324.5 172.25 324.25 179.35 324.75 179.85 326.75 179.6 326.6 177.75 326.35 176.75 326.25 171.6
M 213 211.35
L 210.5 209.85 210.5 213.35 213 211.35
M 261.75 201.85
L 260.6 201.85 261.6 214.35 261.75 201.85
M 317.5 198.25
L 317.35 198.25 317.6 200.1 318.35 215.5 318.75 215.35 318.75 200.5 318.75 200.1 318.1 199.5 318.1 198.6 317.5 198.25
M 96.35 213.25
L 96.35 219.85 101.5 219.85 99.25 211.1 96.35 213.25
M 147.75 194
L 147.6 187.6 145.5 187.85 146 194.1 147.75 194
M 147.75 174.75
L 147 174.75 147.6 183.85 147.75 174.75
M 147.5 168.85
L 147.1 169 150 169 147.5 168.85
M 97.5 197.35
L 96.5 197.35 96.6 198 96.5 208.25 98.35 206.85 97.75 200.6 97.6 200 97.5 197.35
M 97.1 190.35
L 96.5 189.25 96.25 194.1 97.35 194.1 97.1 190.35
M 268.75 197.35
L 267.5 197.35 267.6 198.35 268.75 198.5 268.75 197.35
M 269.35 176.85
L 269.1 176.75 267.5 176.85 267.35 180.25 267.5 180.75 267.5 180.1 267.75 180 269.5 179.75 269.35 176.85
M 261.5 197.85
L 260.25 197.85 260.25 198 260.35 198.25 261.6 198.25 261.6 198.1 261.5 197.85
M 261.6 171.75
L 261.25 171.75 261.25 171.85 261 172.6 261 172.75 260.6 173.35 260.6 173.6 260.75 174.1 261.75 173.85 261.6 171.75
M 266.1 169
L 265.5 168.85 262.5 168.85 262.25 169 266.1 169
M 211.75 197.35
L 210.5 197.35 210.6 198.1 210.35 205.1 212.25 206.35 212.1 201.85 211.85 200.85 211.85 198.25 211.75 197.35
M 210.75 181
L 210.35 181.25 210.35 181.5 210.35 193.85 211.6 194.1 210.75 181
M 210.5 178.35
L 212.25 178.25 212.25 177.35 210.5 177.85 210.5 178.35
M 375.25 194.25
L 375.5 192.75 374 194.1 375.25 194.25
M 375.6 187.35
L 375.6 187.25 375.5 183.5 373.35 183.75 373.75 189 375.6 187.35
M 375.6 177.1
L 375.1 176.85 375.5 179.5 375.6 177.1
M 374.75 171.6
L 374.85 172.75 375.25 172.75 375.5 172.85 375.5 172.35 375.6 171.6 374.75 171.6
M 325.25 191.35
L 325.1 191 324.25 193 324.35 194.1 325.5 194.1 325.25 191.35 Z"/>

<path fill="#D1D1D1" stroke="none" d="
M 204 216
L 203.85 216 202.1 217.85 201.35 219.6 199.35 219.6 198.6 218.6 198.85 219.5 199.6 219.85 201.35 219.85 201.35 222.5 201.75 224.6 202.6 226.1 203.75 227 205.25 227.1 206.85 226.5 207.5 225.75 206 226.6 203.85 226.5 203.5 225.35 202.85 225.25 202.35 222.6 201.75 222.5 201.6 221.5 202.25 218.6 202.85 217.25 204.6 215.75 204 216
M 137.25 159.75
L 136.35 159.85 134.85 161.35 134.6 161.75 134.25 162.25 133 164.5 132.6 166.75 132.6 166.85 133.25 168.25 133.75 168.5 135.1 168.85 136.85 168.5 139.1 167.1 139.1 166.75 137.75 167.85 136.6 168.25 136.5 166.85 134.6 166.75 134.6 165.85 133.85 165 134.25 164.6 134.1 163 137.25 159.75 Z"/>

<path fill="#FBFBFB" stroke="none" d="
M 208.35 215.75
L 207.85 215.6 204.6 215.75 202.85 217.25 202.25 218.6 201.6 221.5 201.75 222.5 202.35 222.6 202.85 225.25 203.5 225.35 203.85 226.5 206 226.6 207.5 225.75 207.75 225.5 209 222.5 209.1 222.1 209.25 221.85 209.35 221.6 209.5 221.5 209.6 221.25 209.75 221.1 209.85 220.85 210.85 219.85 210.85 218.1 210.35 217.25 209.5 216.25 208.35 215.75
M 142.35 217
L 141.75 217 140.1 218 140 218.25 139.6 218.5 139.5 218.75 139.85 218.85 138.6 219.6 138.25 219.85 138.25 220 138.1 220.35 138.5 220.35 138.25 221.35 139 221.75 141.35 220.85 141.75 217.6 142.35 217
M 147.6 216.1
L 147.25 215.85 144.35 215.85 143.35 216.25 142.6 217.1 142.5 217.6 143.25 217.6 142 218.85 141.6 220.75 142 222.1 142.6 222.35 142.6 223.35 143.1 224.25 144.25 224.5 145 226.1 146.35 226.1 146.85 227 148.25 227 148.85 226.35 148.6 226.25 149.25 226.1 149.35 225.75 149.6 225.35 149.75 224.85 150.25 222.5 150.25 220.35 150.1 219.25 150.1 218.5 149.5 217.5 148.6 216.6 147.6 216.1
M 263 191
L 261.5 190.1 261.35 190.1 261.25 190 260.5 189.85 260.25 197.35 264 197.35 264.1 197.35 264.35 197.25 264.75 197 265.35 196.35 265.1 196 265.35 195.25 265.35 194.85 265.25 194.75 264.85 193.1 264.35 192.35 263.25 191.1 263 191
M 262.5 184.1
L 262.5 184.6 262.1 184.75 263.25 189.6 266.1 190.85 266.45 191.3 266.5 191.35 267.5 191.5 267.75 191.35 268.1 191.25 268.25 191.25 268.25 190.35 268.1 189.1 267.75 181.35 267.5 180.75 265.85 180.75 265.5 180.85 265 181.1 264.85 181.1 264.6 181.35 264.5 181.5 264.6 182.1 263.25 182.85 263.35 183.75 262.5 184.1
M 383.5 186.6
L 382.25 186.6 375.6 192.6 375.6 192.75 375.5 192.75 375.25 194.25 375.75 195 375.5 195.75 376.6 196.75 378.35 197.25 381.6 197 382.1 196.75 382.6 195.85 385.1 193.75 386.75 191.35 386.75 190.35 386.25 189.85 386.5 189.5 385.75 188.25 386 188.1 385.35 187.5 385.1 187.35 383.5 186.6
M 378.35 160.1
L 377.5 158.35 377.35 158.1 376.85 157.5 374.5 155.6 373.75 155.25 373.35 155.25 372.6 155 371.5 155 371.1 155.1 370.35 155.85 370 156.6 369.85 157.35 369.25 157.75 369.1 158 368.75 159.75 368.6 160 368.6 161.1 369.35 161.5 369.6 162.6 371.35 161.85 371.35 161.75 371.85 160.75 371.85 160.6 372.75 160.25 373.1 160.25 373.35 160.1 373.25 159 372 157.1 372 156.5 372.35 156.6 374.1 159.85 373.75 160.35 374 161.35 375 162.6 374.85 163.1 375 163.5 378.1 162.85 378.45 161.45 378.5 161.25 378.45 161.05 378.35 160.1
M 201.35 219.6
L 202.1 217.85 203.85 216 201 217 198.75 218.1 198.6 218.35 198.6 218.6 199.35 219.6 201.35 219.6 Z"/>

<path fill="#000000" stroke="none" d="
M 206.85 202.75
L 206.25 203.5 205.75 205.25 205.75 206.5 206.1 206.85 210.5 209.85 213 211.35 210.5 213.35 208.35 215.75 209.5 216.25 210.35 217.25 210.85 218.1 214.25 215.35 216.85 213 217.25 211.25 216.75 209.75 212.35 206.5 212.25 206.35 210.35 205.1 207.6 203.1 206.85 202.75
M 125.35 166.35
L 124.35 165.1 124.25 164.75 124.6 164.6 124.1 164.25 124.25 163.6 118.6 165.85 125.35 166.35
M 159.85 164.5
L 159.75 164.1 159 164.35 160.6 167.85 160.85 167.75 161.1 167.5 160.85 166.6 160.75 166.35 160.6 166.1 160.5 165.85 160.35 165.6 160.25 165.25 160.1 165 160 164.75 159.85 164.5
M 145.25 168.5
L 145.25 168.35 139.1 166.75 139.1 167.1 136.85 168.5 140.25 170.5 146.75 172.85 147 174.75 147.75 174.75 149.85 175 150 172.5 149.85 170 147.1 169 142.75 170.75 142.25 170.6 142 170.1 142 170 142.25 169.85 143.1 169.5 143.25 169.35 143.5 169.35 143.6 169.25 145.25 168.5
M 153.85 151.25
L 152.75 151.25 151.85 151.6 152.25 165.25 152.25 166 152.35 167 152.5 169 152.5 171 150.85 170.35 150.85 175.1 152.75 175.35 152.75 176.85 153.25 179.5 153.35 179.5 153.35 179.75 153.35 180 153.85 182.5 154 182.75 154 183.25 154.6 186.35 154.75 186.6 154.75 187.1 155.5 191 155.75 191.85 156.85 191.85 158 190.5 158.75 188.5 158.75 186.85 156.6 176.35 156.5 172 156.5 171.35 156.1 165.35 156.1 164.5 156.1 164.1 156.1 163.6 156.1 163.5 155.75 157.85 158.1 162.35 158.35 162.35 158.75 162.25 159 162.1 159.75 161.75 160.5 161.5 161.25 161 161.35 160.85 156.25 150.1 155.85 150.35 155.5 150.85 154.35 150.75 153.85 151.25
M 140.35 195.75
L 141.6 196 143 194.75 143 193.5 142.1 192.5 140.85 192.35 139.75 193.6 139.75 194.75 140.35 195.75
M 140.5 185.85
L 140.5 186.75 143.1 187 144.6 187.6 144.5 186.6 142 185.85 140.5 185.85
M 120.85 194
L 120.1 194.35 119.6 195.5 119.6 196.75 120.75 197.6 121.6 197.6 122.85 196.6 123 195.25 122 194.1 120.85 194
M 112.1 190
L 113 190.75 114.35 189.1 116.25 188.25 115.85 187.5 113.6 188.5 112.1 190
M 144.6 152.5
L 144.75 151.5 144.1 151 140.85 149.75 140.5 150.6 142.85 151.35 144.1 152.5 144.6 152.5
M 119 164.5
L 120.1 163.35 120.25 162.25 119.1 161 118.1 160.85 117.75 161 116.75 162.6 116.85 163.35 117.85 164.35 119 164.5
M 116.35 151
L 115.35 151 115.35 151.1 113.6 151.75 112.6 152.35 112.35 152.75 112.85 153.5 114.1 152.5 116.75 151.75 116.35 151
M 226.35 183.1
L 226.75 184.1 228.35 183.1 231.25 182.6 231 181.75 228.35 182.1 226.35 183.1
M 252.35 188.75
L 252.5 189.85 253.25 190.75 254.6 190.85 255.6 190 255.6 188.35 254.6 187.35 253.5 187.35 252.35 188.75
M 231.75 189.1
L 230.6 190.85 231.1 192 232 192.6 233 192.6 233.85 191.85 234.1 191.1 234 190.1 233 189.1 231.75 189.1
M 260 174.75
L 259.35 175.25 257.6 175.35 257.5 175.5 257.25 175.75 257 176.25 256.85 176.35 257 176.75 257 177 257.1 177.6 256.75 181.5 254.5 180.85 254.35 180.85 254.25 181.1 253.85 181.75 254 181.75 256.75 182.5 256.75 200.1 257.35 201.1 258.25 201.6 260.6 201.85 261.75 201.85 267.5 202.25 269 202.25 276 202.6 276.5 200.6 276 198.85 268.75 198.5 267.6 198.35 261.6 198.25 260.35 198.25 260.25 198 260.25 197.85 260.25 197.35 260.5 189.85 260.5 187.6 260 174.75
M 254.5 171.75
L 254.1 171.35 253.1 176.5 253.25 177 255.5 177 256.1 176 256.75 174.75 256.6 174.5 256.5 174.25 256.1 173.85 255.1 172.75 255.1 172.6 254.85 172.35 254.5 171.75
M 315.85 152.25
L 314.6 151.25 311.85 150.1 311.75 151 313.5 151.6 315.5 153.1 315.85 152.25
M 311.25 192.5
L 312.5 191.5 312.6 190.25 311.6 189 310.5 188.85 309.25 190.25 309.25 191.35 310.25 192.35 311.25 192.5
M 314.25 183.85
L 315.75 185.1 316 184.1 314.75 183.1 312 182.1 311.35 182.6 314.25 183.85
M 289.6 194.25
L 290.85 193.1 290.85 191.75 289.6 190.6 288.35 191 287.6 191.75 287.6 193.1 288.25 194 289.6 194.25
M 313 160.35
L 312.1 159.1 311.25 158.85 310.25 159.25 309.6 160 309.5 161.1 310.1 162.25 311.5 162.6 312.75 161.75 313 160.35
M 283 185.25
L 283.35 186 284 185.25 286.25 184.25 287.6 184.1 287.35 183.25 285.6 183.5 283.5 184.5 283 185.25
M 267.85 173
L 267.5 173.1 261.75 173.85 260.75 174.1 261.1 177.85 261.75 178.1 261.85 178.75 264 181.75 264.5 181.5 264.6 181.35 264.85 181.1 265 181.1 265.5 180.85 265.85 180.75 267.5 180.75 267.35 180.25 265.25 177.1 267.5 176.85 269.1 176.75 273.5 176.1 274.5 175.5 274.5 175.1 274 174.1 274.25 172.75 273.85 172.5 269 172.85 267.85 173
M 254.85 144.5
L 254.5 144.6 254.5 147.75 254.5 148.75 254.35 152 252.85 151.85 253.25 152.75 254.25 152.85 254.25 154.6 254.5 164.1 254.85 163.75 255 163.75 255.25 163.5 255.75 163.1 257.6 161.85 257.85 161.6 258.25 161.35 258 148.5 257.85 144.6 254.85 144.5
M 216 152.25
L 213.5 152.25 212.6 152.1 212.35 154 212.25 164.6 211.6 164.85 211.6 165 206.25 169 203.85 170.85 202.35 172.25 204 174.6 206.35 178.85 210.5 177.85 212.25 177.35 212.25 178.25 212.5 178.35 212.75 178.75 217.6 199.75 218.35 200.25 218.75 200.25 219.25 197.1 219.25 189.6 216.85 179.6 216.75 179.35 216.35 177.85 216.1 176.5 217.75 175.85 217.6 174.25 216.6 175.25 216.1 175.75 216.1 174.6 217.5 173.1 217.45 173.05 217.35 172.85 217.25 172.5 216.1 172.5 216.1 164.75 216.25 164.6 216.1 164.6 216 159.85 216 156.1 216 155.85 216 152.25
M 211.75 169.25
L 212.25 168.75 212.25 173.6 210.5 173.85 204.6 175.35 211.75 169.25
M 173.75 178.25
L 172.25 178.85 171.6 179.25 170.35 180.35 169.75 181.25 169.75 181.35 170.25 182 170.6 182 172 180.1 174.25 179 173.75 178.25
M 197.1 171.1
L 197.1 171.85 198.35 171.85 198.5 172 198.75 172 199.1 172.1 199.35 172.25 199.6 172.5 200.1 172.85 200.75 172.85 201 171.85 200.25 171.35 197.85 171 197.1 171.1
M 202.25 181.1
L 201.25 179.85 199.85 179.6 199.1 179.85 198.35 181 198.35 182 198.85 182.85 200.1 183.85 200.85 183.85 201.75 183.35 202.25 182.5 202.25 181.1
M 177.35 188.75
L 177.5 188.25 177.5 187 176.25 185.75 174.5 185.85 174.6 186.1 173.75 186.6 173.6 187.35 173.75 188.85 174.5 189.5 175.85 189.75 177.35 188.75
M 174.6 150.25
L 173.1 150.25 171.75 150.6 170.6 151.1 170.35 151.5 170.5 152.25 172.35 151.35 174.75 151.1 174.6 150.25
M 199.75 150.35
L 199.35 150.1 196.25 149.5 195.35 149.5 195.25 149.85 195.25 150.35 197.85 150.5 199.6 151.25 199.75 150.35
M 198.85 154.6
L 198.1 154.25 197.25 154.1 196 155.25 195.85 156.35 196.5 157.5 197.6 157.85 198.5 157.6 199.25 156.6 199.35 155.5 198.85 154.6
M 210.1 147
L 210.1 143.85 202.25 122 201.6 121.35 200.75 121.35 198.75 121.6 198.5 122.25 199.75 126.75 206.85 145.35 202.6 151.1 203 157.6 210.1 147
M 324.75 179.85
L 324.25 179.35 318.6 176 317.85 175.6 318.1 180.25 318.75 180.6 324.25 183.75 322.6 186.75 320 193.25 322.6 193.35 323.85 193.85 324.25 193 325.1 191 325.1 187.75 325 187.5 325 187.35 324.5 180.1 324.75 179.85
M 328.85 129.35
L 326.85 129.5 319.6 153.75 320.35 155.6 325.6 162.75 331.6 170.6 332.35 169 332.35 166 332.1 165 325 155.35 323.35 153.6 324.6 149.85 324.75 149.5 325.75 146.1 330.35 129.75 328.85 129.35
M 371.75 151.85
L 371.75 150.75 370.85 150.25 368.5 149.5 367.85 149.5 367.6 150.35 369.6 150.6 371.75 151.85
M 366 190.35
L 366 191.6 366.85 192.5 368.1 192.6 369.25 191.5 369.25 190.1 368.35 189.25 367.1 189.1 366 190.35
M 366.75 182.25
L 366.1 182.25 365.85 183.1 367.5 183.25 369.6 184 370.25 184.6 370.6 184.25 370.5 183.6 369.5 183 366.75 182.25
M 369.1 155.75
L 368 155 367 155 366.35 155.35 366 156.25 366 157.5 366.75 158.35 368.1 158.5 369.25 157.35 369.1 155.75
M 345.6 194.35
L 346.35 194.35 347.5 193.5 347.6 192 346.5 190.85 345.1 191 344.25 192.35 344.75 193.75 345.6 194.35
M 340.1 184.5
L 341.85 183.5 344.5 183.25 344.25 182.35 342 182.5 340 183.25 339.5 183.75 339.75 184.5 340.1 184.5
M 344.25 159
L 344.75 159.85 346.5 160.25 347.6 159 347.6 157.85 347.1 157.1 345.35 156.75 344.6 157.35 344.25 159
M 345.5 153.25
L 344.85 152.5 343.35 153.1 341.25 154.6 342 155.5 343.1 154.25 345.5 153.25
M 149.5 217.5
L 149.25 216.85 148.6 216.6 149.5 217.5
M 151 208.85
L 151 209.1 151.1 208.85 151 208.85
M 151.1 205.75
L 151.25 205.85 151.25 205.75 151.1 205.75
M 151.1 204.35
L 151.1 204.25 151 204.25 151.1 204.35
M 150.85 202.5
L 151 202.6 151 202.5 150.85 202.5
M 138.5 160.25
L 138.75 160.35 139.1 159.85 139.35 159.6 139.75 159.1 138.5 160.25
M 84 190.6
L 82.85 190.5 83.85 195.25 89.6 215.6 90.85 216.25 92.6 216 96.35 213.25 99.25 211.1 105 206.6 105.25 205.85 105 203.85 104.35 202.75 103.6 202.85 98.35 206.85 96.5 208.25 92.25 211.6 89.5 200.85 86.1 189.85 86 189.85 85.35 190.5 84 190.6
M 160 125.85
L 160.1 125.35 159.6 124.85 157.6 124.25 157 124.35 156.6 124.5 156.6 124.75 155.6 128.75 153.6 140.85 153.75 140.85 154.1 140.75 156.25 139.85 156.75 139.75 157 139.6 157.35 139.5 157.75 139.25 160 125.85
M 288.85 164.25
L 290.1 164.25 291.1 163.5 291.35 162.75 291.1 161.5 288.1 163.6 288.85 164.25
M 261.35 190.1
L 261.5 190.1 261.25 190 261.35 190.1
M 256.75 176.6
L 256.6 177 257 176.75 256.75 176.5 256.75 176.6
M 174.1 157.5
L 174.5 158.85 175.1 159.35 176 159.6 177 159.1 177.6 158.5 177.75 157.5 176.85 156.25 174.1 157.5
M 378.35 163
L 378.1 162.85 375 163.5 374.85 163.1 374.6 163.6 375.5 165.6 376.1 169 376.85 173.5 375.5 172.85 375.25 172.75 374.85 172.75 375.1 176.85 375.6 177.1 377.85 177.85 379.6 184 375.6 187.25 375.6 187.35 373.75 189 374 194.1 375.5 192.75 375.6 192.6 382.25 186.6 383 185.5 383.35 184.6 383.25 183.5 382.25 179.6 387.35 181.5 383.5 186.6 385.1 187.35 385.35 187.5 386 188.1 386.5 188.85 391.35 183 392.1 181.85 392.25 180.35 391.75 179.35 390.6 178.75 382.35 175.5 381.25 175.25 379.85 169 378.35 163 Z"/>

<path fill="#D2D2D2" stroke="none" d="
M 323.25 219.1
L 322.25 221 322.35 221.6 321.85 222.25 321.5 224.25 320.85 225.25 321.6 224.5 323.35 219.1 323.25 219.1
M 265.35 196.35
L 265.5 195.75 265.35 195.25 265.1 196 265.35 196.35
M 248.25 137.5
L 248.35 136.75 248.1 137.6 249.6 141.35 251.25 142.75 253.75 144 254.5 144.6 254.85 144.5 254.85 143.85 254.1 143.85 252.85 143.1 250 140.85 248.25 137.5
M 254.35 128.75
L 254.25 128.35 252.6 129.75 251.75 131.85 251.35 135.1 252 138.25 251.75 138.75 252.1 139 252.6 138.6 252.25 135.85 252.5 135.6 252.1 134.75 252.35 132 253.25 129.5 254.35 128.75
M 202.5 110.5
L 203.6 110.35 204.1 109.85 206 109.85 203.25 109.75 201 111.25 200.85 111.75 200.1 112.1 199.1 113.6 197.85 116.85 197.1 117.85 196.75 118 196.6 117.35 197 116.5 196.25 116.75 195.85 117.35 195.75 119.85 196.35 121 197.85 122 198.5 122.25 198.75 121.6 197.85 120.25 198 118.6 198.5 117.6 199.6 116.85 199.6 115.75 201 112.35 202.5 110.5
M 324.35 201.35
L 324.6 201.25 319.85 200.75 318.85 199.5 319 198.35 318.5 197.85 319 196.75 318.6 195.25 318 195.5 317.6 197.75 317.25 197.6 317.35 198.25 317.5 198.25 318.1 198.6 318.1 199.5 318.75 200.1 319.25 200.75 320.5 201.1 320.75 201.25 324.35 201.35
M 320.25 225.85
L 320.5 225.6 318.1 226.25 316.35 226.1 315.25 225.1 314.25 222.6 314.1 223.5 314.75 224.85 315.75 226.1 316.85 226.75 318.5 226.75 319.85 226.1 320.25 225.85
M 310.85 219.85
L 311.35 219.5 311 219.6 310.85 219.85
M 313.5 219.85
L 313.85 221.75 313.75 219.75 313.5 219.85
M 318.75 193.35
L 318.5 193.6 319.35 193.35 318.75 193.35
M 265.25 194.75
L 265.35 194.85 265.35 194.75 265.25 194.75
M 260.25 197.85
L 261.5 197.85 264 197.35 260.25 197.35 260.25 197.85
M 260.1 132.85
L 259.75 132.25 260 135.5 260.5 136.75 260.1 132.85
M 205.85 117.25
L 205.85 117.1 205.5 118.1 205.85 117.25
M 325.75 201
L 326.25 200.5 324.6 201.25 325.6 201.1 325.75 201 Z"/>

<path fill="#FAFAFA" stroke="none" d="
M 313.6 217
L 312.1 218.6 311.35 219.5 310.85 219.85 313.5 219.85 313.75 219.75 313.85 221.75 314 222.1 314 222.5 314.25 222.6 315.25 225.1 316.35 226.1 318.1 226.25 320.5 225.6 320.85 225.25 321.5 224.25 321.85 222.25 322.35 221.6 322.25 221 323.25 219.1 323.1 218.1 322.85 217.75 322 216.75 321.1 216.1 320.85 216 320.25 215.6 320 215.5 318.75 215.35 318.35 215.5 317.5 215.5 314.85 216.25 313.6 217
M 141.85 160.1
L 142 159.85 141.5 159 141.1 158.75 140.85 158.75 140.25 159.25 140 159.85 140.35 160.1 140 160.5 140.6 161.35 140.1 162.25 140 162.25 139.85 161.85 138.75 160.35 138.5 160.25 138.25 160.1 137.25 159.75 134.1 163 134.25 164.6 133.85 165 134.6 165.85 134.6 166.75 136.5 166.85 136.6 168.25 137.75 167.85 139.1 166.75 140.25 164.85 140.35 164.75 140.75 164.25 140.75 164.1 141.85 160.85 141.85 160.1
M 324.75 194.6
L 324.5 194.5 323.85 193.85 322.6 193.35 320 193.25 319.85 193.25 319.5 193.35 319.35 193.35 318.5 193.6 317.25 194 317.1 194 317.25 197.6 317.6 197.75 318 195.5 318.6 195.25 319 196.75 318.5 197.85 319 198.35 318.85 199.5 319.85 200.75 324.6 201.25 326.25 200.5 326.35 200.35 326.5 200 326.5 199.85 325.6 196.85 325.5 195.6 325.5 195.25 325.35 195.25 325.1 194.85 324.75 194.6
M 318.75 200.1
L 318.75 200.5 319.25 200.75 318.75 200.1
M 206.1 116.25
L 206.1 116.35 206.25 116.25 206.1 116.25
M 205.85 117
L 205.85 117.1 206 117 205.85 117 Z"/>

<path fill="#D3D3D3" stroke="none" d="
M 142.5 217.6
L 142.6 217.1 143.35 216.25 141.75 217 142.35 217 141.75 217.6 141.35 220.85 139 221.75 138.25 221.35 138.5 220.35 138.1 220.35 137.85 221.1 138.25 221.6 138.5 221.75 139.6 221.85 141.35 221.25 141.5 222.5 142.35 225 143.35 226.5 144.5 227.35 144.75 227.5 145.35 227.75 146.25 227.75 148.1 227.35 149.25 226.1 148.6 226.25 148.85 226.35 148.25 227 146.85 227 146.35 226.1 145 226.1 144.25 224.5 143.1 224.25 142.6 223.35 142.6 222.35 142 222.1 141.6 220.75 142 218.85 143.25 217.6 142.5 217.6
M 134.25 162.25
L 134.6 161.75 134.1 162.25 134.25 162.25
M 135.5 154.5
L 134.6 155.05 135.5 154.6 136.85 154.5 135.5 154.5
M 133.5 156.25
L 133.5 155.7 129.25 158.35 124.25 163.6 124.1 164.25 124.6 164.6 124.25 164.75 124.35 165.1 125.35 166.35 129.1 166.5 129.35 166.25 127.75 166.35 126.5 164.85 126.25 164.35 126.85 163.6 126.5 162.25 129.25 159.35 133.5 156.25
M 264.6 182.1
L 264.5 181.5 264 181.75 263.25 182.85 264.6 182.1
M 262.5 184.6
L 262.5 184.1 263.35 183.75 263.25 182.85 261.85 184.5 261.85 186.25 262.6 188.75 263.1 189.75 264.6 191 266.45 191.3 266.1 190.85 263.25 189.6 262.1 184.75 262.5 184.6
M 260.1 173.6
L 260 174.5 259.35 175.25 260 174.75 260.6 173.6 260.1 173.6
M 259.1 162.1
L 261 161.75 258.85 162 257.25 162.85 255.75 164.35 254.85 166.25 255 166.75 254.5 166.85 254.6 167.1 254.1 170.75 254.1 171.35 254.5 171.75 254.85 172.35 255.1 172.6 255.1 172.75 255.5 172.75 256 173.6 256.1 173.85 256.5 174.25 256.6 174.5 256.75 174.75 257.5 174 257.5 173.85 257.75 173.35 257.75 172.1 255.6 167.75 255.5 166.25 256 164.6 257.5 163 259.1 162.1
M 218.35 150.6
L 217.75 150.6 217.5 151.1 218.35 150.6
M 211 141.6
L 211.25 139.35 210.1 143.85 210.1 147 211.5 149.85 211.6 150.1 212.35 151.5 212.6 152.1 213.5 152.25 213.85 151.35 213.5 150.6 212.35 150.35 211.6 148.6 211.35 146.25 211.6 142.5 211 141.6
M 372 160.6
L 371.85 160.6 371.85 160.75 372 160.6
M 139.85 218.85
L 139.5 218.75 138.6 219.6 139.85 218.85
M 261.35 171.5
L 261.35 170.75 261.1 171.35 261.35 171.5
M 261.35 169.85
L 261.35 170 261.5 170.25 261.35 169.85
M 218.85 146
L 219.5 146.25 220.75 144 218.85 145.85 218.85 146
M 212.5 137.25
L 211.75 138.25 213.6 136.75 212.5 137.25
M 374.25 163.5
L 374.6 163.6 374.5 163.25 374.5 163.1 372.35 162.5 374.25 163.5 Z"/>

<path fill="#FFAB00" stroke="none" d="
M 153.35 179.75
L 153.35 179.5 153.25 179.5 153.35 179.75
M 191.5 164.6
L 187 163.25 183.35 162.6 173.75 162.85 174.25 164.35 173.35 165.5 170.25 167.25 164.75 168.85 162 168.85 161.75 168.35 161.35 167.75 161.35 167.6 161.25 167.5 161.1 167.5 160.85 167.75 160.6 167.85 159.6 168.75 159.35 168.85 158.85 169.35 156.5 172 156.6 176.35 158.75 186.85 158.75 188.5 158 190.5 156.85 191.85 155.75 191.85 155.5 191 154.75 187.1 154.75 186.6 154.6 186.35 154 183.25 154 182.75 153.85 182.5 153.35 180 153.35 179.75 152.6 181.85 152.75 184.85 152.25 186 152.5 188.75 152.25 189.5 152.75 189.75 152.5 191 152.85 191.25 152.6 193.35 153.1 193.6 153.6 197.75 154.1 198.25 154.25 199.85 154.85 200.5 154.6 200.75 155 201.85 155.6 202.6 155.6 203.5 156.5 204.35 156.75 206 157.75 206.85 157.85 207.85 158.75 208.5 159 209.5 159.85 210 160.35 211.35 163.85 214.25 164.25 215 168.35 217.6 173.85 219.85 191.6 219.85 194.5 218.75 194.6 218.75 194.85 218.6 195.1 218.35 196 218 197.85 216.75 202.1 213 204.6 209.6 206.1 206.85 205.75 206.5 205.75 205.25 206.25 203.5 206.85 202.75 207.6 203.1 209.1 195.5 209.1 190.1 208.1 184 208 183.85 207.85 183 207.35 181.75 207.25 181.35 206.35 178.85 204 174.6 202.35 172.25 199.75 169.6 198.25 168.35 194.75 166.1 191.5 164.6
M 177.5 188.25
L 177.35 188.75 175.85 189.75 174.5 189.5 173.75 188.85 173.6 187.35 173.75 186.6 174.6 186.1 174.5 185.85 176.25 185.75 177.5 187 177.5 188.25
M 201.25 179.85
L 202.25 181.1 202.25 182.5 201.75 183.35 200.85 183.85 200.1 183.85 198.85 182.85 198.35 182 198.35 181 199.1 179.85 199.85 179.6 201.25 179.85
M 197.1 171.85
L 197.1 171.1 197.85 171 200.25 171.35 201 171.85 200.75 172.85 200.1 172.85 199.6 172.5 199.35 172.25 199.1 172.1 198.75 172 198.5 172 198.35 171.85 197.1 171.85
M 172.25 178.85
L 173.75 178.25 174.25 179 172 180.1 170.6 182 170.25 182 169.75 181.35 169.75 181.25 170.35 180.35 171.6 179.25 172.25 178.85
M 187 196.75
L 185.35 196.25 185 196 184.75 195.25 183.85 194.6 183.6 193.5 186.25 192.35 195.75 190.75 196.75 191.25 197.85 192.85 197.85 193.6 197 194.6 193.25 196.75 191.25 197.1 187.6 196.85 187 196.75 Z"/>

<path fill="#0D2356" stroke="none" d="
M 152.75 176.85
L 152.75 175.35 150.85 175.1 150.6 179.1 150.75 179.1 150.6 179.25 150.6 179.85 150.35 180.5 150.5 180.5 150.35 180.6 150.35 180.85 150.1 181.6 149.85 182.85 150 182.85 149.85 183 149.85 183.6 152.75 176.85
M 150.85 169
L 150.85 170.35 152.5 171 152.5 169 150.85 169
M 97.35 194.1
L 96.25 194.1 96.5 189.25 94 184.25 89.6 184 89.5 200.85 92.25 211.6 96.5 208.25 96.6 198 96.5 197.35 97.5 197.35 97.35 194.1
M 96.35 184.35
L 95.1 184.35 96.25 186.75 96.35 184.35
M 96.35 172.85
L 96.5 171.85 98.1 171.6 97.85 169 89.6 169 89.6 177.6 96.35 173 96.35 172.85
M 318.75 180.6
L 318.6 185 318.6 187.6 318.75 193.35 319.35 193.35 319.5 193.35 319.85 193.25 320 193.25 322.6 186.75 324.25 183.75 318.75 180.6
M 261.6 186.35
L 261.6 187.6 261.5 190.1 263 191 263.25 191.1 264.35 192.35 264.85 193.1 265.25 194.75 265.35 194.75 265.35 194.85 265.35 195.25 265.5 195.75 265.35 196.35 264.75 197 264.35 197.25 264.1 197.35 264 197.35 261.5 197.85 261.6 198.1 261.6 198.25 267.6 198.35 267.5 197.35 268.75 197.35 268.5 194.1 267.35 194 267.5 191.5 266.5 191.35 266.45 191.3 264.6 191 263.1 189.75 262.6 188.75 261.85 186.25 261.6 186.35
M 261.85 178.75
L 261.85 184.5 263.25 182.85 264 181.75 261.85 178.75
M 267.5 173.1
L 267.6 172.5 267.5 171.6 269 171.6 268.85 170.25 268.85 169.5 266.1 169 262.25 169 262 169.1 261.35 169.85 261.5 170.25 261.35 170.75 261.35 171.5 261.25 171.75 261.6 171.75 261.75 173.85 267.5 173.1
M 208.5 183.5
L 208.1 184 209.1 190.1 209.1 195.5 207.6 203.1 210.35 205.1 210.6 198.1 210.5 197.35 211.75 197.35 211.6 194.1 210.35 193.85 210.35 181.5 208.5 183.35 208.5 183.5
M 210.5 178.5
L 210.5 178.35 210.5 177.85 206.35 178.85 207.25 181.35 207.35 181.75 207.85 183 210.6 179.5 210.5 178.5
M 210.5 171.6
L 212 171.6 211.85 170.25 211.85 169.35 211.75 169.25 204.6 175.35 210.5 173.85 210.6 172.35 210.5 171.6
M 374 194.1
L 374.25 197.35 375.5 197.35 375.5 214.75 375.5 215.85 375.5 219.85 353.85 219.85 338.25 219.85 334.35 220.5 334.35 220.6 334.25 221 334.35 221 333.6 222.5 332.9 223.15 332.85 223.25 331.5 224.5 330.1 225.75 329.1 226 327 225.6 325.6 224.6 325 223.35 325 223.1 324.85 222.85 324.85 222.75 324.75 222.5 324.35 219.5 324.35 201.35 320.75 201.25 320.5 201.1 319.25 200.75 318.75 200.5 318.75 215.35 320 215.5 320.25 215.6 320.85 216 321.1 216.1 322 216.75 322.85 217.75 323.1 218.1 323.25 219.1 323.35 219.1 321.6 224.5 320.85 225.25 320.5 225.6 320.25 225.85 319.85 226.1 318.5 226.75 316.85 226.75 315.75 226.1 314.75 224.85 314.1 223.5 314.25 222.6 314 222.5 314 222.1 313.85 221.75 313.5 219.85 310.85 219.85 297.75 219.85 280.5 219.85 273.6 219.85 267.35 219.75 267.5 202.25 261.75 201.85 261.6 214.35 261.6 215.75 261.75 219.85 210.85 219.85 209.85 220.85 209.75 221.1 209.6 221.25 209.5 221.5 209.35 221.6 209.25 221.85 209.1 222.1 209 222.5 207.75 225.5 207.5 225.75 206.85 226.5 205.25 227.1 203.75 227 202.6 226.1 201.75 224.6 201.35 222.5 201.35 219.85 199.6 219.85 192.35 219.85 191.6 219.85 173.85 219.85 165.5 219.85 153.5 219.85 153.6 209.75 151.1 204.75 151.1 205.75 151.25 205.75 151.25 205.85 151.25 206.6 151.1 206.75 151 208.85 151.1 208.85 151 209.1 150.6 209.25 149.5 209.1 149.75 202.35 148.5 191.25 148.85 183.6 149.6 180.35 150 175.85 149.85 175 147.75 174.75 147.6 183.85 147.6 187.6 147.75 194 146 194.1 146.1 197.35 147.85 197.35 147.6 198 147.6 216.1 148.6 216.6 149.25 216.85 149.5 217.5 150.1 218.5 150.1 219.25 150.25 220.35 150.25 222.5 149.75 224.85 149.6 225.35 149.35 225.75 149.25 226.1 148.1 227.35 146.25 227.75 145.35 227.75 144.75 227.5 144.5 227.35 143.35 226.5 142.35 225 141.5 222.5 141.35 221.25 139.6 221.85 138.5 221.75 138.25 221.6 137.85 221.1 138.1 220.35 138.25 220 138.25 219.85 109.35 219.85 101.5 219.85 96.35 219.85 96.35 213.25 92.6 216 90.85 216.25 89.6 215.6 89.6 222.5 93.85 230.6 96.5 230.6 375.5 230.6 378.1 230.6 382.35 222.5 382.35 196.6 382.1 196.75 381.6 197 379.75 197.5 378.25 197.5 377.85 197.35 377.5 197.35 376.5 197 375.6 196.35 375.5 195.75 375.25 194.25 374 194.1
M 326.25 171.6
L 326 169 317.35 169 317.6 171.6 318.5 171.6 318.6 172.25 318.6 176 324.25 179.35 324.5 172.25 324.35 171.6 326.25 171.6
M 206.1 206.85
L 204.6 209.6 204.6 215.75 207.85 215.6 208.35 215.75 210.5 213.35 210.5 209.85 206.1 206.85
M 149.85 170
L 150 169 147.1 169 149.85 170
M 267.5 176.85
L 265.25 177.1 267.35 180.25 267.5 176.85
M 203.85 170.85
L 206.25 169 203.75 169 203.85 170.85
M 377.85 177.85
L 375.6 177.1 375.5 179.5 375.5 183.5 375.6 187.25 379.6 184 377.85 177.85
M 382.35 169
L 379.85 169 381.25 175.25 382.35 175.5 382.35 169
M 374.75 171.6
L 375.6 171.6 375.5 172.35 375.5 172.85 376.85 173.5 376.1 169 374.6 169 374.75 171.6
M 324.35 194.1
L 324.25 193 323.85 193.85 324.5 194.5 324.75 194.6 325.1 194.85 325.35 195.25 325.5 195.25 325.5 194.1 324.35 194.1 Z"/>

<path fill="#DD0026" stroke="none" d="
M 130.6 169.5
L 128.85 169.5 124.6 172.6 125.5 173.5 126.35 173.75 128.5 173.6 129.75 172.5 130.1 171.6 130.6 169.5
M 134.35 203
L 135.25 202.35 122.35 202.35 123.75 203.5 123.75 204.1 124.5 204.85 125.5 205.6 127.1 206.35 127.5 206.5 129.85 206.6 132.1 205.75 133.6 204.5 134.35 203
M 240.85 194.1
L 236.75 195.6 236.6 196.25 236.75 196.6 237 197.5 237.85 198.25 240.75 199 243.1 198.75 246.75 196.75 246.75 196 244.85 194.6 243.5 194.1 240.85 194.1
M 303.35 200.75
L 300.1 199.75 295.85 199.85 293.6 200.75 293.5 201.25 293.6 201.75 293.85 202 294 202.25 294.25 202.5 295 202.85 295.5 203 296.1 203.1 301.6 202.75 303 202.1 303.5 201.5 303.35 200.75
M 298.25 170.25
L 294 171.25 294 171.6 295.85 173.25 298 173.85 300.25 173.75 302.1 173 303.5 171.35 302.85 170.6 301.75 170.25 301.35 170.25 300.85 170.1 298.6 170.1 298.25 170.25
M 185.35 196.25
L 187 196.75 187.6 196.85 191.25 197.1 193.25 196.75 197 194.6 197.85 193.6 197.85 192.85 196.75 191.25 195.75 190.75 186.25 192.35 183.6 193.5 183.85 194.6 184.75 195.25 185 196 185.35 196.25
M 358.85 199.5
L 356.85 199.1 350.85 199.5 351.75 201.75 353.6 203 353.75 203 354.5 203.25 356.75 203.1 358.35 202.1 359.5 200.35 359.35 200 358.85 199.5
M 348.75 166.25
L 350.1 167.85 351.5 168.6 355.1 169 360.5 166.6 361.85 165.35 361 165.35 353.35 166.25 348.75 166.25 Z"/>

<path fill="#FCFCFC" stroke="none" d="
M 134.6 155.05
L 133.5 155.7 133.5 156.25 129.25 159.35 126.5 162.25 126.85 163.6 126.25 164.35 126.5 164.85 127.75 166.35 129.35 166.25 130 166 130.35 165.75 130.75 165.35 131.75 164.6 134.1 162.25 134.6 161.75 134.85 161.35 136.35 159.85 137.75 156.75 137.85 155.85 137.75 155.6 137.6 154.85 136.85 154.5 135.5 154.6 134.6 155.05
M 133.5 155.7
L 134.6 155.05 133.5 155.6 133.5 155.7
M 91.6 181.35
L 92.1 180.85 92.1 180.25 91.6 179.5 90.5 178.85 89.5 178.85 89.25 178.75 88.35 178.75 88 178.75 87.6 179.25 85.85 179.75 85.1 180.35 85.5 181.1 84.6 182.75 84.25 184.5 84 190.6 85.35 190.5 86 189.85 86.25 189.35 86.5 189 86.5 188.85 86.75 188.25 87 187.1 87 186.1 88 185.5 88.6 184.85 88.6 184.1 88.5 183.85 87 183.75 86.85 183.75 86.85 183.5 87.25 183.1 88.25 181.85 91.6 181.35
M 151.1 142.5
L 150.5 143.1 151 143.1 150.5 145 154.1 143.5 153 143.25 153 142.85 156.25 143.35 157.85 143.35 158 143.25 159.25 142.75 159.35 142.75 160 142.1 160.25 141.5 160.35 140.5 158.75 139.25 156.85 139.75 156.75 139.75 153.6 141.6 152.35 141.75 152 142.35 151.1 142.5
M 224.6 156.1
L 223.6 155.5 222.5 155.1 220.5 154.85 220.25 154.85 216 156.1 216 159.85 216.35 160 216.25 161.35 216.6 162.5 218.25 164.1 219.1 163.5 219.6 164 221.1 163.6 224.25 161.25 225 159.5 225.1 158.85 225 156.85 224.6 156.1
M 166.35 117.1
L 166.1 116 166 114.75 165 113.35 163.5 112.75 161.6 112.6 160.5 113.6 158.35 117.35 157.1 118.1 156.6 119 156.35 119.85 157 124.35 157.6 124.25 159.6 124.85 160.1 125.35 161.35 125.35 161.5 125.85 164.35 126 165.75 125.5 167.35 124 168 123 167.6 122 166.6 121.85 164.75 122.6 164.35 122.6 164.75 121.5 165.85 119.75 166.35 117.1
M 211.75 138.25
L 211.6 138.5 211.25 139.25 211.25 139.35 211 141.6 211.6 142.5 211.35 146.25 211.6 148.6 212.35 150.35 213.5 150.6 213.85 151.35 213.5 152.25 216 152.25 216.5 151.75 216.6 151.6 217.5 151.1 217.75 150.6 218.35 150.6 218.75 150.5 219 150.25 219.35 150 219.5 150 220.5 149.25 221.85 147 221.85 146.75 222.1 146.35 222.1 146.25 222 146.25 222.5 144.75 222.35 143.75 222 143.5 221.35 143.5 220.85 143.85 220.75 144 219.5 146.25 218.85 146 218.85 145.85 219.35 144.1 219.1 140.85 218.85 140 217.75 137.5 217.5 137.25 216.1 136.35 215.85 136.25 215.5 136.25 214.75 136.35 213.6 136.75 211.75 138.25
M 328.75 217.25
L 328 217.35 327.75 217.5 325.25 218.35 324.6 219.25 324.6 219.35 324.85 222.75 324.85 222.85 325 223.1 325 223.35 326 224.6 327.6 225.5 329 225.6 331.5 224.5 332.85 223.25 332.9 223.15 334.25 221 334.35 220.6 334.35 220.5 338.25 219.85 337.25 219.1 334.5 218 334.25 217.85 332.35 217.25 332.1 217.1 330.75 217.1 330.35 217.25 328.75 217.25
M 334.6 220.25
L 334.25 219.85 334.5 219.35 334.6 220.25
M 332.1 116
L 330.1 113.6 328.35 113.35 326.5 114 325.1 115.1 324.85 116 324.6 116.35 324.5 117 324.25 120.35 324.25 120.6 324.75 125.1 326.75 128.85 326.85 129.5 328.85 129.35 330.35 129.75 330.85 129.35 331.6 128.35 333.35 127.6 335.1 126 336.5 122.1 336.5 121.6 336.25 120.85 335.1 120.85 334.25 121.35 333.75 122.35 333.35 122.85 333.35 123 333.25 123.6 332.85 123.6 332.6 123 332.75 120.6 333.1 120.6 332.85 118.1 332.1 116
M 152.75 151.25
L 153.85 151.25 154.35 150.75 155.5 150.85 155.85 150.35 156.25 150.1 156.35 149.85 156.25 149.75 152.75 151.25
M 161.35 148.25
L 161 148.1 159.5 148.5 159.85 149.35 160.6 149.6 161.35 149.35 161.35 149.25 161.5 149 161.35 148.25
M 158.1 116.1
L 158.25 115.5 157.6 116.35 158.1 116.1 Z"/>

<path fill="#41444D" stroke="none" d="
M 159.6 168.75
L 160.6 167.85 159 164.35 156.1 165.35 156.5 171.35 158.85 169.35 159.35 168.85 159.6 168.75
M 97 187.6
L 97 188 100 192.75 108.1 202.5 107.25 186.25 104.6 186.1 103.75 184.85 103.35 184.85 103 184.75 96.75 184.35 97 187.6
M 107.1 151.6
L 102.1 150.75 97.1 149.85 96.6 150.1 97.85 169 98.1 171.6 106.6 165.6 108 165.25 107.1 151.6
M 267.5 180.1
L 267.75 181.35 268.1 189.1 268.25 190.35 268.25 191.25 268.35 191.35 268.5 194.1 268.75 197.35 268.75 198.5 276 198.85 276.5 200.6 276 202.6 269 202.25 269.25 206.85 272.35 219.6 273.6 219.85 280.5 219.85 278.25 182.1 273.1 181 267.75 180 267.5 180.1
M 269 171.6
L 269 172.85 273.85 172.5 274.25 172.75 274 174.1 274.5 175.1 274.5 175.5 273.5 176.1 269.1 176.75 269.35 176.85 269.5 179.75 279.85 179 279.35 170.5 278.25 170.6 277.5 170.85 276 170.75 275.6 170.6 275.35 170.6 275.25 170.6 275.1 170.5 269 169.5 268.85 169.5 268.85 170.25 269 171.6
M 221.25 180.5
L 216.85 179.6 219.25 189.6 219.25 197.1 218.75 200.25 218.35 200.25 217.6 199.75 212.75 178.75 210.5 178.35 210.5 178.5 210.6 179.5 211.1 179.5 211.1 180.35 210.75 181 211.6 194.1 211.75 197.35 211.85 198.25 211.85 200.85 212.1 201.85 212.25 206.35 212.35 206.5 216.75 209.75 217.25 211.25 216.85 213 214.25 215.35 215.1 218 223.6 219.6 221.25 180.5
M 216.25 164.6
L 216.1 164.75 216.1 172.5 217.25 172.5 217.35 172.85 219.5 170.75 220.35 169.5 218.1 165.1 216.25 164.6
M 211.75 169.25
L 211.85 169.35 211.85 170.25 212 171.6 212 172.5 212.25 173.6 212.25 168.75 211.75 169.25
M 329.85 180.85
L 324.75 179.85 324.5 180.1 325 187.35 325 187.5 325.1 187.75 325.25 191.35 325.5 194.1 325.5 195.25 325.5 195.6 325.6 196.85 326.5 199.85 326.5 200 326.35 200.35 326.25 200.5 325.75 201 325.85 201.25 326.25 207.1 328.75 217.25 330.35 217.25 330.75 217.1 332.1 217.1 332.35 217.25 334.25 217.85 334.5 218 337.25 219.1 335.1 182 329.85 180.85
M 329.75 146.6
L 325.75 146.1 324.75 149.5 324.75 150.1 325 155.35 332.1 165 332.35 166 332.35 169 331.6 170.6 325.6 162.75 326 169 326.25 171.6 326.35 176.75 326.6 177.75 326.75 179.6 337.1 178.85 335.1 147.5 329.75 146.6
M 158.1 162.5
L 158.1 162.35 155.75 157.85 156.1 163.5 158.1 162.5
M 97.35 194.1
L 97.5 197.35 97.6 200 97.75 200.6 98.35 206.85 103.6 202.85 104.35 202.75 105 203.85 105.25 205.85 105 206.6 99.25 211.1 101.5 219.85 109.35 219.85 108.5 204.6 100.35 194.85 97.1 190.35 97.35 194.1
M 267.85 150
L 267.6 150.75 267.85 154.5 273 150.75 267.85 150
M 220.1 171.1
L 220.1 171.25 217.6 174.25 217.75 175.85 216.1 176.5 216.35 177.85 222.75 177.35 222.75 174.1 222.6 173.85 222.5 173.6 220.85 170.5 220.1 171.1
M 211.6 150.1
L 210.85 150 210.6 150.6 211.6 164.85 212.25 164.6 212.35 154 211.85 153.1 211.6 152.85 211.5 152.6 211.35 152.35 211.25 152.1 212.35 151.5 211.6 150.1
M 164.35 149.5
L 163.25 149.1 162.1 151.75 161.75 151.6 160.85 149.75 158 149.1 156.25 149.75 156.35 149.85 156.25 150.1 161.35 160.85 164 159.85 164.1 159.85 164.35 159.75 165 159.25 164.35 149.5 Z"/>

<path fill="#9C7A00" stroke="none" d="
M 160.5 161.5
L 160.25 161.75 161.25 161.25 160.5 161.5
M 149 184
L 149.6 180.35 148.85 183.6 148.5 191.25 149.75 202.35 149.5 209.1 150.6 209.25 150.85 208.5 150.6 203.25 149.25 195.85 148.75 190.35 149 184
M 150 178.85
L 150 175.85 149.6 180.35 150 178.85
M 149.85 175
L 150 175.85 150 172.5 149.85 175
M 156.85 163.25
L 156.1 163.5 156.1 163.6 156.85 163.25
M 150.35 166
L 150.1 166.25 150 167 150 167.85 150 169 149.85 170 150 172.5 150.35 166
M 164.35 159.75
L 164.1 159.85 164 159.85 163.75 160.1 164.75 159.6 164.35 159.75 Z"/>

<path fill="#110E27" stroke="none" d="
M 159.6 162
L 159.75 162 160 161.85 160.25 161.75 160.5 161.5 159.75 161.75 159 162.1 158.75 162.25 158.35 162.35 158.1 162.35 158.1 162.5 156.1 163.5 156.85 163.25 157 163.25 157.1 163.1 158 162.75 158.25 162.6 159.6 162
M 150 167
L 150.1 166.25 146.35 167.85 146.35 168 145.25 168.35 145.25 168.5 143.6 169.25 143.5 169.35 150 167
M 162.85 160.5
L 163.6 160.1 163.75 160.1 164 159.85 161.35 160.85 161.25 161 160.5 161.5 161.25 161.25 161.35 161.25 161.5 161.1 161.75 161 162.5 160.6 162.85 160.5
M 163.75 160.5
L 163.6 160.85 156.1 164.1 156.1 164.5 160 163 186.5 150.6 173 155.75 165 159.25 164.35 159.75 164.75 159.6 165.1 160 163.75 160.5 Z"/>

<path fill="#110D26" stroke="none" d="
M 151 166.5
L 151 167.35 152.35 167 152.25 166 151 166.5
M 108 165.25
L 106.6 165.6 98.1 171.6 98.1 171.75 96.85 172.5 96.85 172.6 96.35 172.85 96.35 173 89.6 177.6 89.6 177.75 88.35 178.75 89.25 178.75 89.5 178.85 90.5 178.85 91.6 179.5 92.1 180.25 92.1 180.85 91.6 181.35 87.25 183.1 86.85 183.5 86.85 183.75 87 183.75 88.5 183.85 89.6 184 94 184.25 93.6 183 94.1 182.35 106.5 174.6 106.85 174.6 106.85 175.1 101 179.25 94.35 183 94.75 183.6 95.1 184.35 96.35 184.35 96.75 184.35 103 184.75 103.35 184.85 103.75 184.85 106.85 185 115.6 179 124.6 172.6 128.85 169.5 131.75 167.5 131.6 166.75 131.1 166.75 129.1 166.5 125.35 166.35 118.6 165.85 108 165.25
M 160.35 163.75
L 160 163 156.1 164.5 156.1 165.35 159 164.35 159.75 164.1 160.35 163.75
M 142 170
L 142 170.1 142.25 170.6 142.75 170.75 147.1 169 147.5 168.85 150 167.85 150 167 143.5 169.35 143.25 169.35 143.25 169.5 143.1 169.5 142.25 169.85 142 170 Z"/>

<path fill="#D4A700" stroke="none" d="
M 151.35 165.5
L 150.35 166 150 172.5 150 175.85 150 178.85 149.6 180.35 149 184 148.75 190.35 149.25 195.85 150.6 203.25 150.85 208.5 150.6 209.25 151 209.1 151 208.85 151.1 206.75 151.1 206.6 151.25 206.6 151.25 205.85 151.1 205.75 151.1 204.75 151.1 204.35 151 204.25 151 202.6 150.85 202.5 150.85 201.85 150.35 199.5 150.35 198.1 150.25 197.85 150.25 197.25 150.1 197 150.1 196.5 150 196.35 150 195.85 149.6 193.75 149.6 192.75 149.5 192.35 149.5 190.25 149.35 189.35 149.35 189 149.5 187.6 149.6 187.35 149.6 185.85 149.75 185.25 149.75 184 149.85 183.6 149.85 183 149.85 182.85 150.1 181.6 150.35 180.85 150.35 180.6 150.35 180.5 150.6 179.85 150.6 179.25 150.6 179.1 150.85 175.1 150.85 170.35 150.85 169 150.85 168.5 151 168 151 167.35 151 166.5 152.25 166 152.25 165.25 151.35 165.5
M 163.6 160.1
L 162.85 160.5 162.5 160.6 161.75 161 161.5 161.1 161.35 161.25 161.25 161.25 160.25 161.75 160 161.85 159.75 162 159.6 162 158.25 162.6 158 162.75 157.1 163.1 157 163.25 156.85 163.25 156.1 163.6 156.1 164.1 163.6 160.85 163.75 160.5 165.1 160 164.75 159.6 163.75 160.1 163.6 160.1 Z"/>

<path fill="#C5F2FF" stroke="none" d="
M 115.6 179
L 116.5 180.6 116.1 182 133.6 180.5 135.1 180.5 139.5 181.5 145 182.6 110.85 185.35 107.25 186.25 108.1 202.5 115.25 211.35 116.75 214.25 116 215.5 115.5 215.35 112.25 209.5 108.5 204.6 109.35 219.85 138.25 219.85 138.6 219.6 139.5 218.75 139.6 218.5 140 218.25 140.1 218 141.75 217 143.35 216.25 144.35 215.85 147.25 215.85 146.1 197.35 146 194.1 145.5 187.85 147.6 187.6 147.6 183.85 147 174.75 146.75 172.85 140.25 170.5 136.85 168.5 135.1 168.85 133.75 168.5 133.25 168.25 132.6 166.85 132.6 166.75 133 164.5 134.25 162.25 134.1 162.25 131.75 164.6 130.75 165.35 130.35 165.75 130 166 129.35 166.25 129.1 166.5 131.1 166.75 131.6 166.75 131.75 167.5 128.85 169.5 130.6 169.5 130.1 171.6 129.75 172.5 128.5 173.6 126.35 173.75 125.5 173.5 124.6 172.6 115.6 179
M 113 190.75
L 112.1 190 113.6 188.5 115.85 187.5 116.25 188.25 114.35 189.1 113 190.75
M 120.1 194.35
L 120.85 194 122 194.1 123 195.25 122.85 196.6 121.6 197.6 120.75 197.6 119.6 196.75 119.6 195.5 120.1 194.35
M 140.5 186.75
L 140.5 185.85 142 185.85 144.5 186.6 144.6 187.6 143.1 187 140.5 186.75
M 141.6 196
L 140.35 195.75 139.75 194.75 139.75 193.6 140.85 192.35 142.1 192.5 143 193.5 143 194.75 141.6 196
M 135.25 202.35
L 134.35 203 133.6 204.5 132.1 205.75 129.85 206.6 127.5 206.5 127.1 206.35 125.5 205.6 124.5 204.85 123.75 204.1 123.75 203.5 122.35 202.35 135.25 202.35
M 115.35 151.1
L 115.35 151 107.1 151.6 108 165.25 118.6 165.85 124.25 163.6 129.25 158.35 133.5 155.7 133.5 155.6 134.6 155.05 135.5 154.5 136.85 154.5 137.6 154.85 137.75 155.6 137.85 155.85 137.75 156.75 136.35 159.85 137.25 159.75 138.25 160.1 138.5 160.25 139.75 159.1 140.85 158.75 141.1 158.75 141.5 159 142 159.85 141.85 160.1 141.85 160.85 140.75 164.1 140.75 164.25 140.35 164.75 140.25 164.85 139.1 166.75 145.25 168.35 146.35 168 146.35 167.85 145.1 148.5 144.6 148.5 116.35 151 116.75 151.75 114.1 152.5 112.85 153.5 112.35 152.75 112.6 152.35 113.6 151.75 115.35 151.1
M 120.1 163.35
L 119 164.5 117.85 164.35 116.85 163.35 116.75 162.6 117.75 161 118.1 160.85 119.1 161 120.25 162.25 120.1 163.35
M 144.75 151.5
L 144.6 152.5 144.1 152.5 142.85 151.35 140.5 150.6 140.85 149.75 144.1 151 144.75 151.5
M 249.25 175.35
L 253.1 176.5 254.1 171.35 246.5 175.25 246.1 175.5 249.25 175.35
M 255.5 178.75
L 255.35 178.85 254.85 179.75 254.85 180 254.75 180.25 254.6 180.5 254.5 180.6 254.35 180.85 254.5 180.85 256.75 181.5 257.1 177.6 256.25 177.6 256 177.75 256 177.85 255.75 178.25 255.6 178.35 255.6 178.5 255.5 178.75
M 254.6 178.5
L 254.85 178.1 255 178 255 177.75 221.25 180.5 223.6 219.6 261.25 216.6 261.6 215.75 261.6 214.35 260.6 201.85 258.25 201.6 257.35 201.1 256.75 200.1 256.75 182.5 254 181.75 253.85 181.75 253.85 181.85 253.75 182.1 253.75 182.25 253.5 182.35 253.5 182.5 253.25 183 253.25 183.1 253.1 183.5 253 183.6 252.5 185.25 251 186.75 250.5 186.75 250.75 185.6 252.1 183.85 252.35 183.25 252.35 183.1 253.5 180.75 253.5 180.6 254.6 178.5
M 230.6 190.85
L 231.75 189.1 233 189.1 234 190.1 234.1 191.1 233.85 191.85 233 192.6 232 192.6 231.1 192 230.6 190.85
M 252.5 189.85
L 252.35 188.75 253.5 187.35 254.6 187.35 255.6 188.35 255.6 190 254.6 190.85 253.25 190.75 252.5 189.85
M 226.75 184.1
L 226.35 183.1 228.35 182.1 231 181.75 231.25 182.6 228.35 183.1 226.75 184.1
M 236.75 195.6
L 240.85 194.1 243.5 194.1 244.85 194.6 246.75 196 246.75 196.75 243.1 198.75 240.75 199 237.85 198.25 237 197.5 236.75 196.6 236.6 196.25 236.75 195.6
M 260.6 173.6
L 260 174.75 260.5 187.6 261.6 187.6 261.6 186.35 261.1 177.85 260.75 174.1 260.6 173.6
M 282 169.6
L 279.35 170.5 279.85 179 304.75 176.85 310.85 178 315.85 179 278.25 182.1 280.5 219.85 297.75 219.85 311.25 218.75 312.1 218.6 313.6 217 314.85 216.25 317.5 215.5 318.35 215.5 317.6 200.1 317.35 198.25 317.25 197.6 317.1 194 316.75 187.75 318.6 187.6 318.6 185 318.1 180.25 317.85 175.6 317.6 171.6 317.35 169 316.1 148.5 315.5 148.35 290.5 150.5 302 152.6 302.5 153.35 291.1 161.5 291.35 162.75 291.1 163.5 290.1 164.25 288.85 164.25 288.1 163.6 285.85 165.1 286.1 166.25 284.75 168.1 282 169.6
M 283.35 186
L 283 185.25 283.5 184.5 285.6 183.5 287.35 183.25 287.6 184.1 286.25 184.25 284 185.25 283.35 186
M 312.1 159.1
L 313 160.35 312.75 161.75 311.5 162.6 310.1 162.25 309.5 161.1 309.6 160 310.25 159.25 311.25 158.85 312.1 159.1
M 290.85 193.1
L 289.6 194.25 288.25 194 287.6 193.1 287.6 191.75 288.35 191 289.6 190.6 290.85 191.75 290.85 193.1
M 315.75 185.1
L 314.25 183.85 311.35 182.6 312 182.1 314.75 183.1 316 184.1 315.75 185.1
M 312.5 191.5
L 311.25 192.5 310.25 192.35 309.25 191.35 309.25 190.25 310.5 188.85 311.6 189 312.6 190.25 312.5 191.5
M 314.6 151.25
L 315.85 152.25 315.5 153.1 313.5 151.6 311.75 151 311.85 150.1 314.6 151.25
M 294 171.25
L 298.25 170.25 298.6 170.1 300.85 170.1 301.35 170.25 301.75 170.25 302.85 170.6 303.5 171.35 302.1 173 300.25 173.75 298 173.85 295.85 173.25 294 171.6 294 171.25
M 300.1 199.75
L 303.35 200.75 303.5 201.5 303 202.1 301.6 202.75 296.1 203.1 295.5 203 295 202.85 294.25 202.5 294 202.25 293.85 202 293.6 201.75 293.5 201.25 293.6 200.75 295.85 199.85 300.1 199.75
M 202.1 143.6
L 201.6 143.6 164.75 146.75 166.35 150.1 164.35 149.5 165 159.25 173 155.75 186.5 150.6 186.75 150.6 187 150.5 187.25 150.35 188.6 149.85 188.85 150.6 176.85 156.25 177.75 157.5 177.6 158.5 177 159.1 176 159.6 175.1 159.35 174.5 158.85 174.1 157.5 171.85 158.5 173.75 162.85 183.35 162.6 187 163.25 191.5 164.6 194.75 166.1 198.25 168.35 199.75 169.6 202.35 172.25 203.85 170.85 203.75 169 203 157.6 202.6 151.1 202.1 143.6
M 198.1 154.25
L 198.85 154.6 199.35 155.5 199.25 156.6 198.5 157.6 197.6 157.85 196.5 157.5 195.85 156.35 196 155.25 197.25 154.1 198.1 154.25
M 199.35 150.1
L 199.75 150.35 199.6 151.25 197.85 150.5 195.25 150.35 195.25 149.85 195.35 149.5 196.25 149.5 199.35 150.1
M 173.1 150.25
L 174.6 150.25 174.75 151.1 172.35 151.35 170.5 152.25 170.35 151.5 170.6 151.1 171.75 150.6 173.1 150.25
M 373.1 144.85
L 373 144.35 372.5 144.35 335.1 147.5 337.1 178.85 362.35 176.75 367.6 177.85 372.85 178.85 335.1 182 337.25 219.1 338.25 219.85 353.85 219.85 374.35 218.1 375.5 215.85 375.5 214.75 374.25 197.35 374 194.1 373.75 189 373.35 183.75 375.5 183.5 375.5 179.5 375.1 176.85 374.85 172.75 374.75 171.6 374.6 169 374.25 163.5 372.35 162.5 371.5 162.1 370.25 162.85 369.6 162.6 368.85 162.1 368.6 161.1 368.6 160 368.75 159.75 369.1 158 369.25 157.75 370 156.6 370.35 155.85 371.1 155.1 371.5 155 372.6 155 373.35 155.25 373.75 155.25 373.1 144.85
M 344.85 152.5
L 345.5 153.25 343.1 154.25 342 155.5 341.25 154.6 343.35 153.1 344.85 152.5
M 344.75 159.85
L 344.25 159 344.6 157.35 345.35 156.75 347.1 157.1 347.6 157.85 347.6 159 346.5 160.25 344.75 159.85
M 350.1 167.85
L 348.75 166.25 353.35 166.25 361 165.35 361.85 165.35 360.5 166.6 355.1 169 351.5 168.6 350.1 167.85
M 341.85 183.5
L 340.1 184.5 339.75 184.5 339.5 183.75 340 183.25 342 182.5 344.25 182.35 344.5 183.25 341.85 183.5
M 346.35 194.35
L 345.6 194.35 344.75 193.75 344.25 192.35 345.1 191 346.5 190.85 347.6 192 347.5 193.5 346.35 194.35
M 368 155
L 369.1 155.75 369.25 157.35 368.1 158.5 366.75 158.35 366 157.5 366 156.25 366.35 155.35 367 155 368 155
M 366.1 182.25
L 366.75 182.25 369.5 183 370.5 183.6 370.6 184.25 370.25 184.6 369.6 184 367.5 183.25 365.85 183.1 366.1 182.25
M 366 191.6
L 366 190.35 367.1 189.1 368.35 189.25 369.25 190.1 369.25 191.5 368.1 192.6 366.85 192.5 366 191.6
M 371.75 150.75
L 371.75 151.85 369.6 150.6 367.6 150.35 367.85 149.5 368.5 149.5 370.85 150.25 371.75 150.75
M 356.85 199.1
L 358.85 199.5 359.35 200 359.5 200.35 358.35 202.1 356.75 203.1 354.5 203.25 353.75 203 353.6 203 351.75 201.75 350.85 199.5 356.85 199.1
M 257 177
L 257 176.75 256.6 177 257 177
M 254.35 152
L 254.5 148.75 251.25 149 252.6 151.75 252.85 151.85 254.35 152
M 253.25 152.75
L 254.25 154.6 254.25 152.85 253.25 152.75
M 259.1 148.35
L 258.5 148.35 258 148.5 258.25 161.35 259.85 160.25 259.85 160.1 259.1 148.35
M 222.75 174.1
L 222.75 177.35 224.5 177.25 222.75 174.1 Z"/>

<path fill="#01010B" stroke="none" d="
M 116.5 180.6
L 115.6 179 106.85 185 103.75 184.85 104.6 186.1 107.25 186.25 110.85 185.35 114.35 183.6 116.1 182 116.5 180.6 Z"/>

<path fill="#D0D0D0" stroke="none" d="
M 88.25 181.85
L 87.25 183.1 91.6 181.35 88.25 181.85
M 157.35 139.5
L 157 139.6 156.75 139.75 156.85 139.75 158.75 139.25 157.75 139.25 157.35 139.5
M 329.1 226
L 330.1 225.75 331.5 224.5 329 225.6 327.6 225.5 326 224.6 325 223.35 325.6 224.6 327 225.6 329.1 226
M 334.35 221
L 334.25 221 332.9 223.15 333.6 222.5 334.35 221
M 334.25 219.85
L 334.6 220.25 334.5 219.35 334.25 219.85
M 160.6 149.6
L 159.85 149.35 159.5 148.5 158 149.1 160.85 149.75 161.35 149.35 160.6 149.6
M 87.6 179.25
L 88 178.75 85 179.5 84.1 180.1 82.5 183 81.75 185.6 81.75 187.85 82.85 190.5 84 190.6 84.25 184.5 84.6 182.75 85.5 181.1 85.1 180.35 85.85 179.75 87.6 179.25
M 154.1 143.5
L 156.25 143.35 153 142.85 153 143.25 154.1 143.5
M 152.35 141.75
L 153.6 141.6 156.75 139.75 156.25 139.85 154.1 140.75 153.75 140.85 153.6 140.85 151.1 142.5 152 142.35 152.35 141.75
M 160 142.25
L 160 142.1 159.35 142.75 160 142.25
M 150.5 145
L 151 143.1 150.5 143.1 150.1 143.85 150 145.25 150.5 145
M 324.35 219.5
L 324.75 222.5 324.85 222.75 324.6 219.35 324.35 219.5 Z"/>

<path fill="#8C6E00" stroke="none" d="
M 94.75 183.6
L 94.35 183 101 179.25 106.85 175.1 106.85 174.6 106.5 174.6 94.1 182.35 93.6 183 94 184.25 96.5 189.25 97.1 190.35 100.35 194.85 108.5 204.6 112.25 209.5 115.5 215.35 116 215.5 116.75 214.25 115.25 211.35 108.1 202.5 100 192.75 97 188 96.25 186.75 95.1 184.35 94.75 183.6
M 253.6 182.25
L 253.5 182.35 253.75 182.25 253.6 182.25 Z"/>

<path fill="#7C92A0" stroke="none" d="
M 115.35 151
L 116.35 151 144.6 148.5 139.5 147.6 102.1 150.75 107.1 151.6 115.35 151
M 250.25 147.1
L 250.6 147.85 253.25 147.6 250.25 147.1
M 210.85 150
L 211.6 150.1 211.5 149.85 210.85 150
M 165.25 146
L 164.75 146.75 201.6 143.6 196.35 142.85 167.35 145.25 165.25 146 Z"/>

<path fill="#330000" stroke="none" d="
M 161.5 148
L 161.75 147.1 161.75 146.75 161.25 147.35 161 148.1 161.5 148 Z"/>

<path fill="#F4F5DB" stroke="none" d="
M 161 143.25
L 160.5 142.5 160.5 142.35 160 142.25 159.35 142.75 159.25 142.75 158 143.25 157.85 143.35 156.25 143.35 147.5 146.75 149.25 148.85 149.6 150.25 149.35 151.6 149.5 151.85 161.25 147.35 161.75 146.75 161.75 145.25 161.5 144.25 161.1 143.5 161 143.25
M 165.6 145
L 165.35 145.35 176.6 141 177.1 140.25 177 138.25 176.25 136.5 175.35 135.75 163.5 140.35 165.1 142.5 165.6 145 Z"/>

<path fill="#D6D6D6" stroke="none" d="
M 160.5 113.6
L 161.6 112.6 160.6 112.85 159.1 114.25 158.25 115.35 158.25 115.5 158.1 116.1 157.6 116.35 157.6 116.5 157.25 117 156.1 119.25 156.1 121.85 156 122.1 156.6 124.5 157 124.35 156.35 119.85 156.6 119 157.1 118.1 158.35 117.35 160.5 113.6
M 160.1 125.35
L 160 125.85 164.35 126 161.5 125.85 161.35 125.35 160.1 125.35
M 165.6 122
L 164.75 122.6 166.6 121.85 165.6 122
M 371.35 161.85
L 371.5 161.75 371.35 161.75 371.35 161.85 Z"/>

<path fill="#B8E1F5" stroke="none" d="
M 267.75 181.35
L 267.5 180.1 267.5 180.75 267.75 181.35 Z"/>

<path fill="#A58100" stroke="none" d="
M 257.6 175.35
L 257.75 175 257.5 175.5 257.6 175.35
M 269.75 163.25
L 269.75 163.1 269 163.75 269.75 163.25
M 252.1 183.85
L 252.1 185.25 251 186.75 252.5 185.25 253 183.6 252.6 184 252.35 183.25 252.1 183.85
M 253.6 182.25
L 253.75 182.1 253.85 181.85 253.6 182.25
M 256.25 177.6
L 256.25 177.35 256 177.75 256.25 177.6
M 256.85 176.35
L 256.75 176.5 257 176.75 256.85 176.35
M 256.6 177
L 256.75 176.6 256.35 177.1 256.6 177
M 256.75 174.75
L 256.1 176 257.5 174 256.75 174.75
M 262.25 169
L 262.5 168.85 262.75 168.5 262 169.1 262.25 169
M 262.1 167.85
L 262 167.85 261.25 168.6 262.1 167.85
M 262.1 167.85
L 262.85 167.25 262.35 167.6 262.1 167.85
M 263.6 167.85
L 263.6 167.75 262.75 168.5 263 168.35 263.6 167.85
M 272.35 161.5
L 269.75 163.1 274.6 160.6 272.35 161.5 Z"/>

<path fill="#F8F8F8" stroke="none" d="
M 261.35 170
L 261.1 170.1 259.75 172.1 259.5 172.35 258.6 173.75 258.35 174 258.35 174.1 258.1 174.35 258.1 174.5 257.85 174.75 257.75 175 257.6 175.35 259.35 175.25 260 174.5 260.1 173.6 260.6 173.6 260.6 173.35 261 172.75 261 172.6 261.25 171.85 261.25 171.75 261.35 171.5 261.1 171.35 261.35 170.75 261.5 170.25 261.35 170
M 264.75 163.85
L 264.35 163.25 264.1 162.5 263.5 162.25 263 161.85 261 161.75 259.1 162.1 257.5 163 256 164.6 255.5 166.25 255.6 167.75 257.75 172.1 257.75 173.35 257.85 173.35 258 173.25 258.25 172.6 258.5 172.35 259 171.6 259.35 171.25 259.5 171 260.75 169.25 261 169 261.25 168.6 262 167.85 263.5 165.75 264 165.35 264.25 165.1 264.75 164.75 264.75 163.85
M 255.5 172.75
L 255.1 172.75 256.1 173.85 256 173.6 255.5 172.75 Z"/>

<path fill="#130F2B" stroke="none" d="
M 252.1 165.85
L 252.35 166.5 254.5 166.85 255 166.75 254.85 166.25 252.1 165.85
M 262.35 167.6
L 262 167.85 262.1 167.85 262.35 167.6
M 265.5 168.85
L 266.1 169 268.85 169.5 269 169.5 275.1 170.5 275.35 170.6 275.6 170.6 276 170.75 277.5 170.85 277.25 170.25 263.6 167.85 263 168.35 265.5 168.85 Z"/>

<path fill="#171233" stroke="none" d="
M 273.6 160.1
L 273.85 160 274 160 274.85 159.6 276 159.25 277.1 159.1 277.35 159.5 276.35 160 276.25 160 274.75 160.6 274.6 160.6 269.75 163.1 269.75 163.25 269 163.75 268.5 164.1 268.35 164.25 266.75 165.35 266.6 165.5 263.75 167.6 263.6 167.75 263.6 167.85 277.25 170.25 302 152.6 290.5 150.5 285.6 149.75 281.25 148.85 276.75 148.25 275.1 149.35 273.35 150.6 273 150.75 267.85 154.5 267.85 154.6 259.85 160.1 259.85 160.25 258.25 161.35 257.85 161.6 257.6 161.85 255.75 163.1 255.25 163.5 255 163.75 254.85 163.75 254.5 164.1 252.1 165.85 254.85 166.25 255.75 164.35 257.25 162.85 258.85 162 261 161.75 263 161.85 263.5 162.25 264.1 162.5 264.35 163.25 264.75 163.85 264.75 164.75 264.25 165.1 264 165.35 263.5 165.75 262 167.85 262.35 167.6 262.85 167.25 263.1 167.1 263.75 166.5 264.6 165.85 265.35 165.35 265.6 165.1 267.1 164.1 267.35 163.85 267.6 163.75 267.75 163.6 268.5 163.1 268.75 162.85 269.1 162.6 269.35 162.5 269.6 162.25 270.1 161.85 270.25 161.85 270.5 161.75 270.75 161.6 271 161.5 271.6 161.1 271.85 161 272.1 160.85 272.35 160.75 272.6 160.6 272.85 160.5 273.6 160.1
M 275.35 170.6
L 275.1 170.5 275.25 170.6 275.35 170.6 Z"/>

<path fill="#D6A800" stroke="none" d="
M 273.85 160
L 273.6 160.1 272.85 160.5 272.6 160.6 272.35 160.75 272.1 160.85 271.85 161 271.6 161.1 271 161.5 270.75 161.6 270.5 161.75 270.25 161.85 270.1 161.85 269.6 162.25 269.35 162.5 269.1 162.6 268.75 162.85 268.5 163.1 267.75 163.6 267.6 163.75 267.35 163.85 267.1 164.1 265.6 165.1 265.35 165.35 264.6 165.85 263.75 166.5 263.1 167.1 262.85 167.25 262.1 167.85 261.25 168.6 261 169 260.75 169.25 259.5 171 259.35 171.25 259 171.6 258.5 172.35 258.25 172.6 258 173.25 257.85 173.35 257.75 173.35 257.5 173.85 257.5 174 256.1 176 255.5 177 255.35 177.25 255.25 177.5 255 177.75 255 178 254.85 178.1 254.6 178.5 253.5 180.6 253.5 180.75 252.35 183.1 252.35 183.25 252.6 184 253 183.6 253.1 183.5 253.25 183.1 253.25 183 253.5 182.5 253.5 182.35 253.6 182.25 253.85 181.85 253.85 181.75 254.25 181.1 254.35 180.85 254.5 180.6 254.6 180.5 254.75 180.25 254.85 180 254.85 179.75 255.35 178.85 255.5 178.75 255.6 178.5 255.6 178.35 255.75 178.25 256 177.85 256 177.75 256.25 177.35 256.35 177.1 256.75 176.6 256.75 176.5 256.85 176.35 257 176.25 257.25 175.75 257.5 175.5 257.75 175 257.85 174.75 258.1 174.5 258.1 174.35 258.35 174.1 258.35 174 258.6 173.75 259.5 172.35 259.75 172.1 261.1 170.1 261.35 169.85 262 169.1 262.75 168.5 263.6 167.75 263.75 167.6 266.6 165.5 266.75 165.35 268.35 164.25 268.5 164.1 269 163.75 269.75 163.1 272.35 161.5 274.6 160.6 274.75 160.6 276.25 160 276.35 160 277.35 159.5 277.1 159.1 276 159.25 274.85 159.6 274 160 273.85 160 Z"/>

<path fill="#FDFDFD" stroke="none" d="
M 257.35 128.75
L 256.5 128.35 254.85 128.25 254.25 128.35 254.35 128.75 253.25 129.5 252.35 132 252.1 134.75 252.5 135.6 252.25 135.85 252.6 138.6 252.1 139 251.75 138.75 251.35 138.35 251.25 138.1 251 137.85 250.85 137.6 249.6 136.25 248.35 136.35 248.35 136.75 248.25 137.5 250 140.85 252.85 143.1 254.1 143.85 254.85 143.85 254.85 144.5 257.85 144.6 260.35 140.6 260.5 136.75 260 135.5 259.75 132.25 259.75 131.35 259.35 131 259.25 130.6 259 130.1 258.75 129.85 257.35 128.75 Z"/>

<path fill="#A38000" stroke="none" d="
M 208 183.85
L 208.1 184 208.5 183.5 208 183.85
M 211.1 179.5
L 210.6 179.5 207.85 183 211.1 179.5
M 216.6 175.25
L 217.6 174.25 220.1 171.25 216.6 175.25
M 217.35 172.85
L 217.45 173.05 219.5 170.75 217.35 172.85
M 210.35 181.5
L 210.35 181.25 208.5 183.35 210.35 181.5
M 210.35 181.25
L 210.75 181 211.1 180.35 210.35 181.25
M 220.85 170.5
L 220.75 170.35 220.1 171.1 220.85 170.5 Z"/>

<path fill="#D3A600" stroke="none" d="
M 211.1 180.35
L 211.1 179.5 207.85 183 208 183.85 208.5 183.5 208.5 183.35 210.35 181.25 211.1 180.35
M 236 159.6
L 234 160.35 233.75 160.5 233.25 160.6 232.85 160.85 232.25 161 232.25 161.1 226.25 163.35 225.85 163.6 225.75 163.75 225.1 164 224.85 164.25 223.75 165.1 223.5 165.35 223.25 165.5 222.6 166.1 221.5 167.6 221.5 167.75 220.85 168.75 220.75 168.85 220.35 169.5 219.5 170.75 217.45 173.05 217.5 173.1 216.1 174.6 216.1 175.75 216.6 175.25 220.1 171.25 220.1 171.1 220.75 170.35 221 170.1 221.25 169.6 221.35 169.5 221.75 168.75 222 168.5 222.1 168.25 222.1 168.1 222.35 167.75 222.6 167.5 222.6 167.35 222.75 167.25 223 166.85 223.35 166.5 223.75 166.25 223.75 166.1 225.25 165 225.35 164.85 225.5 164.75 225.6 164.75 225.85 164.6 227.25 164 227.35 163.85 227.85 163.6 230.75 162.5 230.85 162.5 232.6 162 232.75 161.85 233.1 161.6 236 160.35 236.25 160.1 236 159.6 Z"/>

<path fill="#CFCFCF" stroke="none" d="
M 216.35 160
L 216 159.85 216.1 164.6 216.25 164.6 218.1 165.1 219.25 165.1 221.1 163.6 219.6 164 219.1 163.5 218.25 164.1 216.6 162.5 216.25 161.35 216.35 160
M 216 155.85
L 216 156.1 220.25 154.85 218.35 155 216 155.85 Z"/>

<path fill="#312C54" stroke="none" d="
M 230.75 162.5
L 227.85 163.6 227.35 163.85 227.25 164 225.85 164.6 225.6 164.75 225.5 164.75 225.35 164.85 225.25 165 223.75 166.1 223.75 166.25 223.35 166.5 223 166.85 222.75 167.25 222.6 167.35 222.6 167.5 222.35 167.75 222.1 168.1 222.1 168.25 222 168.5 221.75 168.75 221.35 169.5 221.25 169.6 221 170.1 220.75 170.35 220.85 170.5 222.5 173.6 222.6 173.85 222.75 174.1 224.5 177.25 235.5 176.35 237.35 170.85 232.6 162 230.85 162.5 230.75 162.5
M 221.85 146.75
L 221.85 147 220.5 149.25 219.5 150 219.35 150 219 150.25 218.75 150.5 218.35 150.6 217.5 151.1 216.6 151.6 216.5 151.75 216 152.25 216 155.85 218.35 155 220.25 154.85 220.5 154.85 222.5 155.1 223.6 155.5 224.6 156.1 225 156.85 225.1 158.85 225 159.5 224.25 161.25 221.1 163.6 219.25 165.1 218.1 165.1 220.35 169.5 220.75 168.85 220.85 168.75 221.5 167.75 221.5 167.6 222.6 166.1 223.25 165.5 223.5 165.35 223.75 165.1 224.85 164.25 225.1 164 225.75 163.75 225.85 163.6 226.25 163.35 232.25 161.1 232.25 161 229.6 156.25 231.35 150.85 229.6 147.25 231.1 141.85 222.1 146.35 221.85 146.75
M 211.85 153.1
L 212.35 154 212.6 152.1 212.35 151.5 211.25 152.1 211.35 152.35 211.5 152.6 211.6 152.85 211.85 153.1 Z"/>

<path fill="#01010F" stroke="none" d="
M 164.75 168.85
L 170.25 167.25 173.35 165.5 174.25 164.35 173.75 162.85 171.85 158.5 160.35 163.75 159.75 164.1 159.85 164.5 160 164.75 160.1 165 160.25 165.25 160.35 165.6 160.5 165.85 160.6 166.1 160.75 166.35 160.85 166.6 161.1 167.5 161.25 167.5 161.35 167.6 161.35 167.75 161.75 168.35 162 168.85 164.75 168.85 Z"/>

<path fill="#A90000" stroke="none" d="
M 165.35 145.35
L 165.6 145 165.1 142.5 163.5 140.35 160.25 141.5 160 142.1 160.5 142.35 160.5 142.5 161 143.25 161.1 143.5 161.5 144.25 161.75 145.25 161.75 146.75 161.75 147.1 165.25 146 165.35 145.35 Z"/>

<path fill="#520000" stroke="none" d="
M 163 140
L 162 139.75 160.35 140.5 160.25 141.5 163.5 140.35 163 140
M 164.75 146.75
L 165.25 146 161.75 147.1 161.5 148 161 148.1 161.35 148.25 164.75 146.75 Z"/>

<path fill="#F9F9F9" stroke="none" d="
M 197.85 116.85
L 197.6 116.85 197.35 116.6 197 116.5 196.6 117.35 196.75 118 197.1 117.85 197.85 116.85
M 203.6 110.35
L 202.5 110.5 201 112.35 199.6 115.75 199.6 116.85 198.5 117.6 198 118.6 197.85 120.25 198.75 121.6 200.75 121.35 201.6 121.35 202.25 122 203.25 121.35 203.75 120.85 205.25 119 205.5 118.25 205.5 118.1 205.85 117.1 205.85 117 206.1 116.35 206.1 116.25 206.5 115 207.1 111 207 110.6 206.85 110.35 206 109.85 204.1 109.85 203.6 110.35
M 371.85 160.6
L 372 160.6 371.85 160.75 371.35 161.75 371.5 161.75 371.35 161.85 371.5 162.1 372.35 162.5 374.5 163.1 374.25 162.6 374 161.35 373.6 160.75 373.6 160.6 373.1 160.25 372.75 160.25 371.85 160.6
M 200.1 112.1
L 200.85 111.75 201 111.25 200.1 112.1 Z"/>

<path fill="#332D56" stroke="none" d="
M 231.1 141.85
L 229.6 147.25 231.35 150.85 229.6 156.25 232.25 161 232.85 160.85 233.25 160.6 233.75 160.5 234 160.35 236 159.6 236.25 160.1 236 160.35 233.1 161.6 232.75 161.85 232.6 162 237.35 170.85 235.5 176.35 246.1 175.5 246.5 175.25 254.1 171.35 254.1 170.75 254.6 167.1 254.5 166.85 252.35 166.5 252.1 165.85 254.5 164.1 254.25 154.6 253.25 152.75 252.85 151.85 252.6 151.75 251.25 149 250.6 147.85 250.25 147.1 244 135.25 231.1 141.85 Z"/>

<path fill="#D5D5D5" stroke="none" d="
M 386 188.1
L 385.75 188.25 386.5 189.5 386.25 189.85 386.75 190.35 386.5 188.85 386 188.1
M 382.6 195.85
L 382.1 196.75 382.35 196.6 385.75 193.75 386.6 192.35 386.75 191.35 385.1 193.75 382.6 195.85
M 376.6 196.75
L 375.5 195.75 375.6 196.35 376.5 197 377.5 197.35 377.85 197.35 378.25 197.5 379.75 197.5 381.6 197 378.35 197.25 376.6 196.75
M 375.5 195.75
L 375.75 195 375.25 194.25 375.5 195.75
M 326.75 128.85
L 324.75 125.1 324.25 120.6 324.35 125 326.75 128.85
M 335.25 126.1
L 335.85 125 336.5 122.1 335.1 126 333.35 127.6 331.6 128.35 330.85 129.35 333.5 127.75 335.25 126.1
M 333.1 120.6
L 332.75 120.6 332.6 123 332.85 123.6 333.25 123.6 333.35 123 332.85 122.85 333.1 120.6 Z"/>

<path fill="#D4D4D4" stroke="none" d="
M 378.1 162.85
L 378.35 163 378.45 161.45 378.1 162.85
M 369.85 157.35
L 370 156.6 369.25 157.75 369.85 157.35
M 372 156.5
L 372 157.1 373.25 159 373.35 160.1 373.1 160.25 373.6 160.6 373.6 160.75 374 161.35 373.75 160.35 374.1 159.85 372.35 156.6 372 156.5
M 378.5 160.5
L 378.25 159.6 377.5 158.35 378.35 160.1 378.45 161.05 378.5 160.5
M 139.1 159.85
L 138.75 160.35 139.85 161.85 140 162.25 140.1 162.25 140.6 161.35 140 160.5 140.35 160.1 140 159.85 140.25 159.25 140.85 158.75 139.75 159.1 139.35 159.6 139.1 159.85
M 375.5 192.75
L 375.6 192.75 375.6 192.6 375.5 192.75
M 369.35 161.5
L 368.6 161.1 368.85 162.1 369.6 162.6 369.35 161.5
M 371.35 161.85
L 369.6 162.6 370.25 162.85 371.5 162.1 371.35 161.85
M 374.5 163.25
L 374.6 163.6 374.85 163.1 375 162.6 374 161.35 374.25 162.6 374.5 163.1 374.5 163.25 Z"/>

<path fill="#251F48" stroke="none" d="
M 143.25 169.35
L 143.1 169.5 143.25 169.5 143.25 169.35
M 187 150.5
L 186.75 150.6 186.5 150.6 160 163 160.35 163.75 171.85 158.5 174.1 157.5 176.85 156.25 188.85 150.6 188.6 149.85 187.25 150.35 187 150.5 Z"/>

<path fill="#DDDEC4" stroke="none" d="
M 147.75 153
L 149 152.5 149.5 151.85 149.35 151.6 148.6 151.85 146.75 152.75 147.75 153 Z"/>

<path fill="#A0A197" stroke="none" d="
M 148.6 152.85
L 149 152.5 147.75 153 148.35 153 148.6 152.85 Z"/>

<path fill="#829AA9" stroke="none" d="
M 114.35 183.6
L 110.85 185.35 145 182.6 139.5 181.5 114.35 183.6 Z"/>

<path fill="#8098A6" stroke="none" d="
M 116.1 182
L 114.35 183.6 139.5 181.5 135.1 180.5 133.6 180.5 116.1 182 Z"/>

<path fill="#A6A79C" stroke="none" d="
M 161 148.1
L 161.25 147.35 149.5 151.85 149 152.5 148.6 152.85 151.85 151.6 152.75 151.25 156.25 149.75 158 149.1 159.5 148.5 161 148.1
M 150.5 145
L 150 145.25 146.85 146.6 147.5 146.75 156.25 143.35 154.1 143.5 150.5 145
M 165.35 145.35
L 165.25 146 167.35 145.25 171.1 143.75 176.25 141.6 176.6 141 165.35 145.35
M 174.75 135.35
L 173.6 135.5 163 140 163.5 140.35 175.35 135.75 174.75 135.35 Z"/>

<path fill="#1E0000" stroke="none" d="
M 160 142.1
L 160 142.25 160.5 142.35 160 142.1 Z"/>

<path fill="#F8F8DF" stroke="none" d="
M 147.5 146.75
L 146.25 147.35 146.5 149.35 148.6 151.85 149.35 151.6 149.6 150.25 149.25 148.85 147.5 146.75 Z"/>

<path fill="#A8A89D" stroke="none" d="
M 147.5 146.75
L 146.85 146.6 146.25 147.35 147.5 146.75 Z"/>

<path fill="#7A8F9D" stroke="none" d="
M 139.5 147.6
L 133.75 146.75 97.1 149.85 102.1 150.75 139.5 147.6 Z"/>

<path fill="#88A1B0" stroke="none" d="
M 273.1 181
L 278.25 182.1 315.85 179 310.85 178 273.1 181 Z"/>

<path fill="#859EAD" stroke="none" d="
M 267.75 180
L 273.1 181 310.85 178 304.75 176.85 279.85 179 269.5 179.75 267.75 180 Z"/>

<path fill="#D8AA00" stroke="none" d="
M 252.1 185.25
L 252.1 183.85 250.75 185.6 250.5 186.75 251 186.75 252.1 185.25 Z"/>

<path fill="#869FAE" stroke="none" d="
M 257.1 177.6
L 257 177 256.6 177 256.35 177.1 256.25 177.35 256.25 177.6 257.1 177.6
M 216.75 179.35
L 216.85 179.6 221.25 180.5 255 177.75 255.25 177.5 255.35 177.25 255.5 177 253.25 177 253.1 176.5 216.75 179.35 Z"/>

<path fill="#01010E" stroke="none" d="
M 279.35 170.5
L 282 169.6 284.75 168.1 286.1 166.25 285.85 165.1 278.25 170.6 279.35 170.5 Z"/>

<path fill="#1B163C" stroke="none" d="
M 277.5 170.85
L 278.25 170.6 285.85 165.1 288.1 163.6 291.1 161.5 302.5 153.35 302 152.6 277.25 170.25 277.5 170.85 Z"/>

<path fill="#7E94A2" stroke="none" d="
M 273 150.75
L 273.35 150.6 275.1 149.35 267.85 150 273 150.75
M 310.25 147.6
L 304.85 146.85 281.25 148.85 285.6 149.75 310.25 147.6 Z"/>

<path fill="#7E95A3" stroke="none" d="
M 254.5 147.75
L 253.25 147.6 250.6 147.85 251.25 149 254.5 148.75 254.5 147.75 Z"/>

<path fill="#8097A5" stroke="none" d="
M 315.5 148.35
L 310.25 147.6 285.6 149.75 290.5 150.5 315.5 148.35 Z"/>

<path fill="#849CAA" stroke="none" d="
M 212.25 178.25
L 210.5 178.35 212.75 178.75 212.5 178.35 212.25 178.25
M 216.35 177.85
L 216.75 179.35 253.1 176.5 249.25 175.35 246.1 175.5 235.5 176.35 224.5 177.25 222.75 177.35 216.35 177.85 Z"/>

<path fill="#BD0000" stroke="none" d="
M 164.35 149.5
L 166.35 150.1 164.75 146.75 161.35 148.25 161.5 149 161.35 149.25 161.35 149.35 160.85 149.75 161.75 151.6 162.1 151.75 163.25 149.1 164.35 149.5 Z"/>

<path fill="#7A909D" stroke="none" d="
M 171.1 143.75
L 167.35 145.25 196.35 142.85 190.75 142.1 171.1 143.75 Z"/>

<path fill="#B5DDF1" stroke="none" d="
M 325.6 201.1
L 325.85 201.25 325.75 201 325.6 201.1 Z"/>

<path fill="#89A3B3" stroke="none" d="
M 329.85 180.85
L 335.1 182 372.85 178.85 367.6 177.85 329.85 180.85 Z"/>

<path fill="#B8E0F4" stroke="none" d="
M 325.1 187.75
L 325.1 191 325.25 191.35 325.1 187.75 Z"/>

<path fill="#87A0AF" stroke="none" d="
M 326.75 179.6
L 324.75 179.85 329.85 180.85 367.6 177.85 362.35 176.75 337.1 178.85 326.75 179.6 Z"/>

<path fill="#BCE6FA" stroke="none" d="
M 324.6 149.85
L 324.75 150.1 324.75 149.5 324.6 149.85 Z"/>

<path fill="#7F95A4" stroke="none" d="
M 325.75 146.1
L 329.75 146.6 367.25 143.6 362.1 142.85 325.75 146.1 Z"/>

<path fill="#8198A7" stroke="none" d="
M 372.5 144.35
L 367.25 143.6 329.75 146.6 335.1 147.5 372.5 144.35 Z"/>
</g>
</defs>

<g transform="matrix( 1.4769134521484375, 0, 0, 1.4769134521484375, -62.95,-20.5) ">
<use xlink:href="#Layer0_0_FILL"/>
</g>
</svg>
