<svg xmlns="http://www.w3.org/2000/svg" viewBox="0 0 184.72 275.67"><defs><style>.cls-1{fill:#2d2d2d;}.cls-2{fill:#fcfadb;}.cls-3{fill:#bcbec0;}.cls-4{fill:#d1d3d4;}.cls-5{fill:#fedf40;}</style></defs><title>lightbulb</title><g id="Layer_2" data-name="Layer 2"><g id="Layer_13" data-name="Layer 13"><path class="cls-1" d="M117.16,8.67c8.26,3.69-10.95,8-24.26,7.73S62,11.49,69,7.74C77.5,3.13,79.91-.24,93.22,0S107.27,4.25,117.16,8.67Z"/><path class="cls-2" d="M184.71,197.87c.51-26.4-25.6-65-44.81-87.56C122.72,90.11,121.29,41,121.29,41c-4.88-25.36,3.59-27.26-12.37-29.25L98,11.58l-4.31-.08-10.88-.21C62.92,10.9,72.78,17.1,64.59,39.94c0,0-3.29,50.12-21.24,69.65C23.29,131.4.57,164.09,0,192.79c-1,49.58,33.31,79.63,88.61,82.71v.09l2.16,0,2.16.07v-.09C148.32,274.64,183.75,247.45,184.71,197.87Z"/><rect class="cls-3" x="60.99" y="9.28" width="62.74" height="35.38" rx="5" ry="5" transform="translate(0.54 -1.78) rotate(1.11)"/><rect class="cls-4" x="59.61" y="16.39" width="65.76" height="21.58" rx="5" ry="5" transform="translate(0.54 -1.78) rotate(1.11)"/><path class="cls-5" d="M90.46,47.47c4,20,9.22,41.24,7.64,61.74-.69,8.92-7.1,23.43-18.59,18.93-5.82-2.28-8-9.08-3-13.48,4.71-4.17,11.27-3.16,16.52-.6,7.92,3.87,17.11,11.08,19.1,20.15,2.37,10.83-9.57,19.13-18.35,22.39-4.32,1.6-10.18,3-14.72,1.55-1.26-.4-4.47-.43-3.43-3.24.25-.67,2.42-1.53,3-1.81a16.92,16.92,0,0,1,7.57-1.58c10.05.19,17.77,7.64,19.62,17.31,2.07,10.83-4.79,18.69-7,28.67-1.44,6.48-.15,13.47,5.56,17.37,1.73,1.18,3.35-1.63,1.63-2.8-6.4-4.37-4.79-12.9-2.34-19s5.52-11.63,5.82-18.27c.47-10.25-4.84-20.64-14.54-24.69a22.8,22.8,0,0,0-14.74-1.05c-3.21.9-8.86,3.19-8.43,7.36.38,3.72,5,4.69,8,5.11A31.55,31.55,0,0,0,96.51,159c9.48-4.05,20.59-12.64,19-24.21-1.54-11.08-13.07-20.35-22.78-24.38-8-3.34-21.32-1.67-22.34,9.14-.9,9.46,10.15,14.7,18,11.54,13-5.23,13.51-21.3,12.91-33.12-.88-17.32-4.3-34.37-7.71-51.33-.41-2-3.53-1.18-3.12.86Z"/></g></g></svg>