<svg xmlns="http://www.w3.org/2000/svg" viewBox="0 0 666.99 1503"><defs><style>.cls-1{fill:#81b4d4;}.cls-2{fill:#1e120d;}.cls-3{fill:#301c11;}.cls-4{fill:#e6e7e8;}.cls-5{fill:#472516;}.cls-6{fill:#d1d3d4;}.cls-7{fill:#d62027;}.cls-8{fill:#fff;}.cls-9{fill:#bb2026;}.cls-10{fill:#7c1316;}</style></defs><title>cola</title><g id="Layer_2" data-name="Layer 2"><g id="Layer_14" data-name="Layer 14"><path class="cls-1" d="M667,1445.47c0-30.08-142.2-54.47-317.62-54.47S55,1416.92,55,1447s-29.19,56,292,56C579,1503,667,1475.55,667,1445.47Z"/><path class="cls-2" d="M373.34,1274.16c-28.82,102.32-36.36,199.24-111.66,199.24-111.65,0-105.23-139.87-124.72-199.24-33.14-101,52-185.72,121.92-185.72S399.31,1181.95,373.34,1274.16Z"/><path class="cls-3" d="M473.52,1125.55c-25.36,0-81.8,57.71-121.32,119.87-26.58-28.8-60.25-46.9-97-46.9-37.51,0-71.94,15.82-98.94,42.2-38.56-57.19-90.71-108.12-115-108.12-46.19,0-37.4,96.63-37.4,187s37.44,163.65,83.64,163.65c44.91,0,61.1-26.75,105.58-98.94,16.64-9.32,34.81-16.88,54-18.75,27.38-2.66,53.48,9.81,76.5,25.26,41.49,67.28,58,92.42,101.57,92.42,46.19,0,76.69-76.14,76.69-166.52S519.71,1125.55,473.52,1125.55Z"/><path class="cls-4" d="M453.88,304.63c-55-60.12-152.41-97.55-144.62-192.52l-53.27,3V115l-1.27,0-.73-8.32v8.36l-54.31-2.52c7.79,95-89.15,131.91-144.13,192C0,365.37,0,528,0,528c3.54,8.41,53.76,20.51,101.79,35.07,78.39,23.76,89.15,17.85,152.93,10.31,63.78,7.54,74.53,13.45,152.93-10.31,48-14.55,98.25-26.65,101.79-35.07C509.43,528,509.43,365.37,453.88,304.63Z"/><path class="cls-3" d="M53.56,306.89C0,369.29,0,528,0,528c3.54,8.41,53.76,20.51,101.79,35.07,78.39,23.76,89.15,17.85,152.93,10.31,63.78,7.54,74.53,13.45,152.93-10.31,48-14.55,98.25-26.65,101.79-35.07,0,0,0-162.22-55.32-223.15-57.66-15.51-124.86-24.42-196.63-24.42C182.67,280.46,112.82,290.14,53.56,306.89Z"/><path class="cls-5" d="M53.56,306.89c-7.8,9.09,12.08-3.28,0,0C19,351.24,146.71,376.62,254.09,376.62c108.77,0,237.63-30.95,199.79-72-4.82-.59,9.4,10.83,1.63,1.87-3.7-1.52-7.78-3-12.21-4.41-47.56-11.88-101.16-19.34-158.15-21.17l-3.56-.1-5.28-.12q-5.11-.11-10.28-.16c-2.25,0-4.5,0-6.76-.05h-2.64C182.14,280.54,112.59,290.2,53.56,306.89Z"/><rect class="cls-6" x="182.99" y="12" width="140" height="97"/><ellipse class="cls-4" cx="252.99" cy="13" rx="70" ry="13"/><ellipse class="cls-6" cx="252.77" cy="109.19" rx="70.13" ry="11.2"/><path class="cls-7" d="M270,565.12v-.77c-4.21.12-8.37.2-12.5.26s-8.29-.14-12.5-.26v.88C92.16,565.56,3,528.6,3,528.6L5.9,1196.17c.49,11.84,108.15,56,239.08,62.13v1.29q6.28-.07,12.5-.26,6.22.18,12.5.26v-1.17c131-6.12,232.51-46.09,233-57.94l1.95-668.36S422.86,565.45,270,565.12Z"/><path class="cls-8" d="M269,564.36c-4,.11-8,.19-12,.25s-8-.14-12-.25v.34C92.43,565,3.41,528.13,3.41,528.13L1.86,551.86c53.58,14.59,146.37,32.52,249.68,32.52,111.14,0,208.08-11.11,259.45-27.59l.18-28.74S421.92,565,269,564.71Z"/><path class="cls-9" d="M267,1258.45c131-6.12,237.51-47.34,238-59.19l4.1-670.81s-89.21,37-242.1,36.64Z"/><path class="cls-6" d="M511.43,558l-.65-31.17c-8.68,3-23.32,7.62-43.43,12.47A792.7,792.7,0,0,1,266,564.81l1,20.46C368.41,584.73,459.5,572.55,511.43,558Z"/><path class="cls-10" d="M460.51,776.76c53.16,106.48,4.24,238.79-109.27,295.53s-248.62,16.42-301.78-90.05S45.22,743.45,158.73,686.71,407.35,670.29,460.51,776.76Z"/><path class="cls-8" d="M160.86,875.08l-19.58,4.5-21.48-84.5,1.74,89-21.9,5L95.92,714.63l22.61-5.35,18.6,74-1.42-78.05L158,700Z"/><path class="cls-8" d="M252.93,817.66c.26,28.54-14.76,41.95-32.66,46.06-18.28,4.2-33.88-2.83-34.28-30.59l-1.48-103.29c-.41-28.8,15.31-43,33.65-47.29S251.72,684.83,252,714ZM225.69,713.94c-.08-7-3.59-8.93-6.87-8.16-4.09,1-6.92,4.42-6.84,11.38l1.41,115.78c.08,6.6,2.75,8.95,7.21,7.92,4.05-.93,6.45-4.22,6.38-10.83Z"/><path class="cls-8" d="M376.09,648.39,357.09,830l-24.54,5.63-8.82-87.2-8.39,91.15-24.26,5.57L271.6,673.1,299,666.61l7,92.63L314,663.08l18.89-4.47,9,94.35,6.58-98Z"/><path class="cls-8" d="M123.43,1069.66,99.58,1075l-1.91-69.53-13.79,3.13,2,69.06L62.08,1083,57.24,925.14l24.09-5.56,1.91,66.8,13.82-3.15-1.84-66.85,24.17-5.58Z"/><path class="cls-8" d="M172.54,1058.24l-24.13,5.41L144.71,905l24.45-5.64Z"/><path class="cls-8" d="M234,1044.18a27.85,27.85,0,0,1-2-8.94c-.58-13.56-.67-18.66-1-28.62-.75-23.46-3.7-25.27-6.6-24.61l-3.45.78,1.1,64.06-24,5.38-3-158.11,30.37-7c19.61-4.53,30.26,5.79,30.67,35.1.31,22.15-1.16,34.29-13.28,43.87,10.68,5.21,12,23.45,12.18,33.49l.17,11.86c.21,14.69,1,20.23,2.76,27.39ZM223.31,909.28,220,910l.87,50.71L224,960c5.51-1.26,9.11-7.09,8.76-28.56C232.4,910.55,228.66,908,223.31,909.28Z"/><path class="cls-8" d="M304.63,1029.36,280,1034.88l-2-161.61,25-5.76Z"/><path class="cls-8" d="M386.51,1010.26l-17.93,4L350,937l.53,81.67-20.53,4.6-1.29-161,21-4.84L366,926l-.35-72.09,20.35-4.7Z"/><path class="cls-8" d="M471.69,991.09,465,992.58l-3.67-6c-5.19,7.77-11.66,11.9-23.09,14.46C421.7,1004.77,411,996.66,411,975.4l-.12-98.16c0-24.37,12.07-39.39,30.84-43.72,17.28-4,28.08,1.26,28,30.44a169.28,169.28,0,0,1-1.4,21.25l-19.1,2.66a123,123,0,0,0,1.17-16.48c0-15.62-3-17.28-7.16-16.32-5.68,1.31-7.2,5.08-7.21,12.57l-.09,104.13c0,6.16,2.08,8.87,7,7.76,4-.9,6.07-4.55,6.08-10.71l.09-49.4L472,914.2Z"/><path class="cls-8" d="M272.93,1240.32c-98.94,5-218.43-30.69-267.95-51l.07,11.58c.5,11.87,108.33,53.16,240.93,59.29v.13c1.37-.13,2.82-.2,4.31-.2s3.06.09,4.49.23c1.31,0,2.61-.07,3.83-.07,2,0,4.16.14,6.28.34a45.15,45.15,0,0,1,5.59-.34h.5v-.16c132.27-6.11,233.51-38,234-49.8V1196C447.2,1216.83,354.4,1236.22,272.93,1240.32Z"/><path class="cls-6" d="M267,1240.53v19.89c1.13-.08,2.28-.14,3.48-.14H271v-.16c132.27-6.11,233.51-38,234-49.8V1196c-57.74,20.8-150.45,40.18-231.84,44.28C271.11,1240.4,269,1240.46,267,1240.53Z"/></g></g></svg>