<svg xmlns="http://www.w3.org/2000/svg" viewBox="0 0 501.68 905.4"><defs><style>.cls-1{fill:#81b4d4;}.cls-2,.cls-9{fill:#44c7f4;}.cls-3{fill:#27aae1;}.cls-4{fill:#2ab34b;}.cls-5{fill:#009444;}.cls-6{fill:#1a8fcb;}.cls-7{fill:#f47d2b;}.cls-11,.cls-8{fill:#f7941d;}.cls-9{font-size:407.84px;font-family:CornerStoreJF, CornerStoreJF;}.cls-10{fill:#fff;}.cls-11{stroke:#fff;stroke-miterlimit:10;stroke-width:3.27px;}</style></defs><title>gatorade</title><g id="Layer_2" data-name="Layer 2"><g id="Layer_14" data-name="Layer 14"><path class="cls-1" d="M501.68,770.92c0-16.14-107.45-29.23-240-29.23S20,747.72,20,763.86s111.09,31.53,243.64,31.53S501.68,787.06,501.68,770.92Z"/><path class="cls-2" d="M347.57,697.39H16.69c-19.18,9.88-19.18,25.26-13.1,48.5,3.92,15,17.68,22.35,24.53,25.81,24.87,12.56,63.5,18.78,85.51,18.78l50.81,2.19h6.85c7.5,0,16.21.35,24.08,0h4.45l50.81-2.19c22,0,60.64-6.23,85.51-18.78,6.85-3.46,20.61-10.83,24.53-25.81C366.75,722.65,366.75,707.27,347.57,697.39Z"/><path class="cls-3" d="M347.44,697.39H182v95.4c4.44.06,9,.07,13.24-.12h4.45l50.81-2.19c22,0,60.64-6.23,85.51-18.78,6.85-3.46,20.61-10.83,24.53-25.81C366.62,722.65,366.62,707.27,347.44,697.39Z"/><path class="cls-4" d="M352,697.31c7,37.3-347.23,39.41-341.88,0,6.25-46.13,0-321.59,0-321.59S352,290.26,352,375.73C352,391.35,341.08,639.55,352,697.31Z"/><path class="cls-5" d="M182,379.39V726.15c86.86-.3,173.36-10.15,169.85-28.77-10.4-55.11-1-283.57-.07-318Z"/><path class="cls-2" d="M257.49,388.89l-126.85,2.46C119.46,391.35,16.85,388,8.15,381c-5.4-4.36-1.92-23.41-1.92-23.41,0-11.18,20.43-21.78,28.6-30.49,36.5-38.93,214.32.9,289,.9C335,328,357,342.42,357,353.6c0,0,6.47,15.55-3.15,26.86C346.61,389,268.67,388.89,257.49,388.89Z"/><path class="cls-3" d="M182,390.84l75-1.46c11.18,0,89.12.09,96.36-8.43,9.62-11.3,3.15-26.86,3.15-26.86,0-11.18-22-25.6-33.14-25.6-25.33,0-62.53-4.58-102-9.11H182Z"/><path class="cls-3" d="M340.34,334.37C360,345.62-5.35,345.47,28,333.64c6.59-2.34,3.39-18.4,0-19.85-52.92-22.62,343.42-41.13,306.4,0C327.79,321.16,333.74,330.59,340.34,334.37Z"/><path class="cls-6" d="M182,342.93c83.71,0,167.93-2.74,158.21-8.29-6.6-3.77-12.55-13.2-5.91-20.58,7.87-8.74-3.85-14.79-26.66-18.67H182Z"/><path class="cls-2" d="M329.75,233.24c-2.44-11.15-13.07-47.54-13.07-47.54-18.46-58.3-30.26-78.07-62.68-89.83V76.39h13a5,5,0,0,0,5-5v-.05a5,5,0,0,0-5-5H254v-4H106v4H91.93a5,5,0,0,0-5,5v.05a5,5,0,0,0,5,5H106V96.82c-45.79,22.7-50.75,47.09-62.57,95.06-2.2,8.9-8.94,27.52-10.61,37-8.9,50.42-85,93.47,105.78,106.4,0,0,103,9.07,192.5-21.06C374.48,299.61,338.51,273.21,329.75,233.24Z"/><path class="cls-3" d="M332.09,312.69c43.41-14.53,7.41-40.78-1.35-80.54-2.44-11.09-13.08-47.29-13.08-47.29C299.19,126.88,255,95.52,255,95.52V76.39h13.09a5,5,0,0,0,5-5v-.05a5,5,0,0,0-5-5H255v-4H182v272.5C220.42,334.57,278.65,330.57,332.09,312.69Z"/><path class="cls-7" d="M269,65.39l-180.39.74s3-21.66,6.85-27.48c16.25-24.37,94.93-28.79,166.59,0C266.19,40.32,269,65.39,269,65.39Z"/><path class="cls-8" d="M262.41,38.7S195.65,30.12,95,38.7V19.59A17,17,0,0,1,110.29,2.68C146-1.06,212.89-.67,247,2.5a17,17,0,0,1,15.44,16.9V23C262.43,26.25,262.32,31.85,262.41,38.7Z"/><text class="cls-9" transform="translate(25.56 710.86)">?</text><path class="cls-3" d="M214.42,435.16c-1,0-15,23.58-32.42,43.16v34.59c20-21.74,34.87-53.46,34.87-74.9C216.87,436,215.65,435.16,214.42,435.16Z"/><path class="cls-3" d="M247.46,393.56A173.71,173.71,0,0,0,182,406.09V432c15-10.5,31.66-17.68,47.11-17.68,16.72,0,31.4,9.38,31.4,29,0,37.11-34.26,68.11-70.56,88.5q-4,2.24-8,4.34v41c18.94-7.45,44.71-15.2,69.94-25.38,44.86-18.35,87.69-44.46,87.69-91.36C339.63,421.7,306.19,393.56,247.46,393.56Z"/><path class="cls-10" d="M29.27,482h5.56V447.53H29.27v-5.18H46.76v5.18H41.14v34.22H56.67v-7.2h5.56v12.38h-33Z"/><path class="cls-10" d="M89.95,441.6a22.52,22.52,0,0,1,22.92,22.73c0,13.13-10,23.36-22.92,23.36S67,477.46,67,464.33A22.48,22.48,0,0,1,89.95,441.6Zm0,40.47c9,0,16.35-7.7,16.35-17.74,0-9.72-7.32-17.17-16.35-17.17s-16.42,7.45-16.42,17.17C73.53,474.37,80.85,482.07,89.95,482.07Z"/><path class="cls-10" d="M141.85,441.6a22.52,22.52,0,0,1,22.92,22.73c0,13.13-10,23.36-22.92,23.36s-22.92-10.23-22.92-23.36A22.48,22.48,0,0,1,141.85,441.6Zm0,40.47c9,0,16.35-7.7,16.35-17.74,0-9.72-7.32-17.17-16.35-17.17s-16.42,7.45-16.42,17.17C125.43,474.37,132.75,482.07,141.85,482.07Z"/><path class="cls-10" d="M170.7,482h5.56V447.22H170.7v-4.86h16.73v4.86h-4.86v14h5.75l9.72-14h-4.1v-4.86H209v4.86h-4.29l-11.56,16.1v.13a6.5,6.5,0,0,1,2.53,3l8,14a3.14,3.14,0,0,0,3.16,1.64H209v4.92h-4.48c-3.73,0-4.8-.88-6.19-3.35l-8.59-15.41c-.76-1.26-1.64-1.77-3.47-1.77h-3.66V482h5.49v4.92H170.7Z"/><path class="cls-10" d="M214.4,482H220V447.22H214.4v-4.86h17.49v4.86h-5.62V482h5.62v4.92H214.4Z"/><path class="cls-10" d="M238.51,482h5.56V447.22h-5.56v-4.86h11.81l21.91,31.95a25.89,25.89,0,0,1,1.52,3.22h.19a32.93,32.93,0,0,1-.32-3.6V447.22h-5.68v-4.86h17.62v4.86h-5.62v39.72h-6.19L251.84,455a18.65,18.65,0,0,1-1.52-3.22h-.19a24.87,24.87,0,0,1,.25,3.6V482h5.75v4.92H238.51Z"/><path class="cls-10" d="M314.22,441.6c7.83,0,17.11,3.16,17.11,8.78v5.49h-5.81v-3.28c0-3.73-5.87-5.56-11.11-5.56-10.42,0-17,7.07-17,17.3s6.69,17.87,17.17,17.87c4,0,11.93-1.2,11.93-5.56v-5.87h-8.71v-4.92h14.52v12.5c0,6.88-11.49,9.35-18.18,9.35-13.7,0-23.3-10-23.3-23.17S300.33,441.6,314.22,441.6Z"/><path class="cls-10" d="M111.56,559.51h6.74v-42.2h-6.74v-5.9H149v12.79h-6.66V518H126v17.92h18.69v6.28H126v17.31h7.35v6H111.56Z"/><path class="cls-10" d="M183.16,510.5c15.62,0,27.8,12,27.8,27.57,0,15.93-12.18,28.34-27.8,28.34s-27.8-12.41-27.8-28.34C155.36,522.52,167.46,510.5,183.16,510.5Zm0,49.09c11,0,19.84-9.34,19.84-21.52,0-11.79-8.88-20.83-19.84-20.83s-19.91,9-19.91,20.83C163.25,550.25,172.13,559.59,183.16,559.59Z"/><path class="cls-10" d="M218.15,559.51h6.74v-42.2h-6.74v-5.9h23.43c3.83,0,7,.15,10,1.15,5.67,1.91,9.42,6.66,9.42,14,0,7.81-4.29,13.4-11.18,15.16v.15a6.47,6.47,0,0,1,2.3,2.53l7.66,13.33c.84,1.46,1.84,1.76,3.75,1.76h1.61v6h-4.59c-4.6,0-5.67-.84-7.51-4.06l-8.35-14.78c-1.38-2.3-2.37-3-5.67-3h-6.43v15.85h6.66v6H218.15Zm25.27-22.13c5.9,0,9.8-3.83,9.8-10.19,0-4.21-1.69-7.12-5.05-8.5a18.81,18.81,0,0,0-6.66-1h-9v19.68Z"/><path class="cls-11" d="M24.26,585.72H53.51v12H45.85L51.94,627a55.15,55.15,0,0,1,.83,6.92h.37A46.32,46.32,0,0,1,54.25,627L64.4,585.72H77.13L87.28,627a46.25,46.25,0,0,1,1.11,6.92h.37a55.25,55.25,0,0,1,.83-6.92l6.09-29.25H88v-12h29.25v12h-5.54l-13.1,54H80.46l-8.4-33.77A47.78,47.78,0,0,1,71,610.63h-.37a47.78,47.78,0,0,1-1.11,7.29l-8.4,33.77H42.9l-13.1-54H24.26Z"/><path class="cls-11" d="M155.75,584.61c20.11,0,34.69,14.76,34.69,33.68,0,19.38-14.58,34.51-34.69,34.51s-34.69-15.13-34.69-34.51C121.06,599.37,135.64,584.61,155.75,584.61Zm0,53.89c9.69,0,17.62-8.67,17.62-20.21,0-11.07-7.94-19.38-17.62-19.38s-17.62,8.3-17.62,19.38C138.13,629.82,146.06,638.5,155.75,638.5Z"/><path class="cls-11" d="M198.1,639.7h7.38v-42H198.1v-12h29.8c5,0,9.41.18,13.19,1.29,7.94,2.4,13.2,8.86,13.2,18.55,0,8.67-4.15,14.58-10.7,18.08v.18a9.13,9.13,0,0,1,4.06,4l5.07,9.78c.83,1.57,2.12,2.12,4.25,2.12h2.31v12H248.39c-5.35,0-7.47-1.29-9.32-4.89l-8-15.41c-1.11-2.12-2.31-2.86-5.72-2.86H222V639.7h6.92v12H198.1Zm31.37-24.08c5.17,0,8.4-2.58,8.4-8.58,0-3-.74-5.91-3.6-7.29a14.6,14.6,0,0,0-6.37-1.11H222v17Z"/><path class="cls-11" d="M266.39,639.7h7.38v-42h-7.38v-12h28.7v12h-4.8v13.93h5.54l9.69-13.93h-5v-12h27.13v12h-5.54l-14,18.92v.18s2.77,1.29,5.07,5.91l7.47,14.86c.74,1.48,1.94,2.12,4.06,2.12h2.86v12H316.3c-5.54,0-7.66-1.57-9.32-4.89l-9.87-20.12c-.83-1.66-2.12-2.12-4.61-2.12h-2.21V639.7h6.92v12H266.39Z"/></g></g></svg>