<svg xmlns="http://www.w3.org/2000/svg" viewBox="0 0 501.44 1037.08"><defs><style>.cls-1{fill:#81b4d4;}.cls-2{fill:#4d315b;}.cls-3{fill:#604275;}.cls-4{fill:#513468;}.cls-5{fill:#2f3178;}.cls-6{fill:#262262;}.cls-7{fill:#bdc2e2;}.cls-8{fill:#adb7d8;}.cls-9{fill:#fff;}.cls-10{fill:#83abdb;}.cls-11{fill:#8dc63f;}.cls-12{fill:#5c6fb5;}</style></defs><title>naked</title><g id="Layer_2" data-name="Layer 2"><g id="Layer_14" data-name="Layer 14"><path class="cls-1" d="M501.44,1006.25c0-20.34-108.18-36.83-241.62-36.83S18.2,985.91,18.2,1006.25s110.14,30.84,243.59,30.84S501.44,1026.58,501.44,1006.25Z"/><ellipse class="cls-2" cx="186.94" cy="95" rx="93.5" ry="10"/><path class="cls-3" d="M364.11,262.34c0-55-102.22-89.27-104.67-114.93-8.35-87.52,59.89-86.5-29.22-83.06.21-2.56.47-4.92.79-7.09-8.95,4.56-22.87,8.08-43.84,8.26-21-.19-34.89-3.7-43.84-8.26.32,2.17.58,4.53.79,7.09C55,60.92,123.27,59.9,114.91,147.42,112.46,173.07,0,196.69,0,260.57,0,590.06,11.67,799.18,14.19,996.91c.66,51.57,347.24,45.32,347.24,8.06C361.44,798.14,364.11,548,364.11,262.34Z"/><path class="cls-4" d="M260.35,147.05C252,59.45,320.3,60.48,231.1,63.91c.21-2.56.48-4.92.79-7.09-9,4.57-22.89,8.09-43.88,8.27-3.38,0-6.56-.16-9.58-.35v969.88c90.16,1.17,184-9.83,184-29.23,0-207,2.68-457.38,2.68-743.31C365.11,207,262.8,172.73,260.35,147.05Z"/><path class="cls-5" d="M284.44,72.63h0v-63h-1.37A386.57,386.57,0,0,1,236.36,6.9a134.3,134.3,0,0,1-27.15,2.74,125.79,125.79,0,0,1-46.63-8.55c-11.31,8.06-27,13.06-44.31,13.06a82.77,82.77,0,0,1-31.1-5.87s0,72.38,0,72.38c.62,5.48,44.53,14.92,98.62,14.92,54.35,0,98.43-9.88,98.63-15.4V72.63Z"/><ellipse class="cls-6" cx="185.94" cy="10" rx="98.5" ry="10"/><path class="cls-7" d="M334.59,841.82c-5.3,52.46-281.81,44.71-286.73-.87-10.49-97.2-20.37-364-20.37-364H341.87S342.1,767.49,334.59,841.82Z"/><path class="cls-8" d="M178.44,477V877.92c74.75,2.32,153.08-8.64,155.89-36.1C342,767.49,341.72,477,341.72,477Z"/><path class="cls-9" d="M339,540.68c-79.25-83.51-266.85,57.62-307.93,5.23-12-15.33-11-177.17,3-149.85,30.49,59.45,237.31-90.36,305.84-3.85C350.73,405.89,351.48,553.84,339,540.68Z"/><path class="cls-6" d="M347.28,475.95c-61-97.63-280.39,56.8-321.47,4.41-12-15.33-4.65-179.1,9.36-151.79C65.66,388,284.42,230,341,324.72,347,334.8,354.25,487.11,347.28,475.95Z"/><path class="cls-6" d="M39.35,498.41c3.11.44,4.68.61,7.88.83,2.62,11.14,4.85,22.17,6.89,33.43l.14,0c4.22-11,8.47-21.95,11.14-33.44,2.31-.14,3.47-.23,5.82-.45,3.67,10.85,7.39,21.57,11.49,32.27l.17,0c3.26-11.46,6.38-23,7.65-34.89,3.56-.63,5.35-1,9-1.71-1.6,16.75-7.32,33.06-11.48,49.27-3.43.73-5.13,1.06-8.45,1.61-4.25-10.75-7.73-21.23-11-32.31h-.15c-3.71,11.26-8.29,22.19-11.75,33.53a30.08,30.08,0,0,1-6.12-1.19C47.27,529.54,44.37,513.78,39.35,498.41Z"/><path class="cls-6" d="M140.7,519c-7.77,2.07-12.35,3.49-21.83,6.2-1.25,4.41-1.87,6.63-3,11.21-4.23,1.25-6.4,1.88-10.77,3.07,5.42-16.4,12.22-32.76,15.36-49.82,3-.73,4.46-1.11,7.45-1.87,9.85,12,17.58,24.39,25.5,37.68-2.71.84-4.11,1.25-7.06,2C144,524.11,142.92,522.37,140.7,519Zm-3.16-5.11c-4.2-6.59-6.26-9.77-11.14-16.36l-.16,0c-1.9,8.42-3.21,12.6-5.6,21.09C127.77,516.64,131.23,515.61,137.54,513.88Z"/><path class="cls-6" d="M154.38,480.42c2.43-.78,3.58-1.16,5.8-1.92,7.54,7.65,14.27,16.21,21.28,24.34l.12,0c-1-10.09-2.18-20.32-4.09-30.29,2.45-.81,3.72-1.22,6.48-2.06,2.65,14.06,4.16,28.28,5.67,42.5-2.65.86-3.91,1.29-6.37,2.13-7.39-8-14.19-16.16-21-24.64l-.11,0c.9,10.37,1.48,20.81,2.87,31.13-2.37.84-3.56,1.25-6,2.07C157.26,509.26,156.4,494.8,154.38,480.42Z"/><path class="cls-6" d="M208,469c-7.59,1.86-10.74,2.73-16.4,4.4-.36-2.09-.54-3.1-.9-5,15.88-4.38,32-7.94,48.26-10.88,0,1.72,0,2.68,0,4.73-6.22,1.13-10.59,2-19.57,4,1.27,12.62,2.59,25.31,2.16,38-4.23.93-6.21,1.39-10,2.32C211.29,494.08,209.74,481.52,208,469Z"/><path class="cls-6" d="M246.39,456.36a194.74,194.74,0,0,1,37.9-2.56c.1,2,.16,3.05.29,5.42a161.91,161.91,0,0,0-29.3,1c.08,4.46.19,7.09.28,12.54a142.69,142.69,0,0,1,25.31-.44c.09,2.73.12,4.14.15,7a138.89,138.89,0,0,0-25.4,0c0,5.81-.06,8.85-.53,14.51A145.51,145.51,0,0,1,285,495.92c-.21,3.14-.36,4.7-.75,7.73a152.2,152.2,0,0,0-38.7-3C246.83,485.8,246.49,471.24,246.39,456.36Z"/><path class="cls-6" d="M294.26,454.59A88.06,88.06,0,0,1,314.63,459a27.49,27.49,0,0,1,16.9,14.57,21.2,21.2,0,0,1,2.27,7.27,89.44,89.44,0,0,1,0,12.18,87.37,87.37,0,0,1-1.52,13.64,13.94,13.94,0,0,1-1.07,3.18,18,18,0,0,1-1.56,2.42,9.53,9.53,0,0,1-6.32,3.66q-3.87.64-9.7-2.36a89.81,89.81,0,0,0-19.12-7.42A334.7,334.7,0,0,0,294.26,454.59Zm9.83,46a83.17,83.17,0,0,1,10,3.93c4.52,2.07,7.67,2,9.79-.59a7.56,7.56,0,0,0,1.89-4.25,87,87,0,0,0,.71-11,81.42,81.42,0,0,0-.3-10.66,13,13,0,0,0-2.17-5.68,17.23,17.23,0,0,0-10-7.86,84.64,84.64,0,0,0-10.44-2.8A353.58,353.58,0,0,1,304.1,500.61Z"/><path class="cls-10" d="M155.62,371.6c7.34,1.38,10.94,4.29,10.94,7.47s-.42,6.64-1.52,6.64c-2.35,0,.28-3.88-13.84-3.88h-1.94c-16.75,27.82-25.33,47.34-26.3,49.83-1.11,2.91-1.38,5.4-5.54,5.4s-9.55-2.91-9.55-4.85c0-6.09,7.34-24.78,21-48.45-5.54.69-11.21,1.52-17.17,1.8-15.64,24.78-39.45,49.7-59.52,49.7-10.66,0-18.69-9.14-18.69-17.17,0-1,.42-3.18,1.25-3.18.55,0,.55,1.52,1.11,2.91s2.49,5.68,10.8,5.68c12,0,30.32-19.52,44.71-39.87-6.51-2.08-10.8-5-10.8-7.2s2.77-6.92,4.43-6.92c1.11,0,4.71,2.35,13.57,3.32,9-14.4,15.23-27.55,15.23-32.95,0-2.35-1-3.18-2.91-3.18-9.41,0-38.34,30.59-38.34,50.11,0,1.8.83,3.88.83,4.43s-.14.55-.69.55-10.94-9.55-10.94-18.69c0-13.84,19.93-46.51,48-46.51,12.87,0,18.83,6.23,18.83,18.13,0,6.51-3.6,16.61-9.27,27.82,5.81-.55,11.77-1.11,17.17-1.38l.69-1c19-30,40.7-51.91,47.62-51.91,3.32,0,7.61,2.77,7.61,5.12S175.28,341,155.62,371.6Z"/><path class="cls-10" d="M175.28,435.41c-9.41,0-16.75-9.55-16.75-20.9,0-17.58,20.76-49.14,39.31-49.14,5,0,7.61-1.52,10.52-1.52,4.43,0,8.58,5.12,8.58,10.52,0,10.38-15.37,28.38-37.65,28.38a3.83,3.83,0,0,1-1.25-.14c-1.8,4.15-2.91,8-2.91,11.35,0,6.09,2.21,10,7.34,10,18.41,0,33.64-27.41,35.3-27.41s1.66,2.49,1.66,4.57C219.44,406.07,198.26,435.41,175.28,435.41Zm28.93-63.54c-4.84,0-15.78,11.63-22.7,23.81,10.94-2.35,25.19-13.57,25.19-21.46C206.7,372.71,205.87,371.88,204.21,371.88Z"/><path class="cls-10" d="M229.26,409.11a40.41,40.41,0,0,0-2.08,11.21c0,2.63,2.49,4.84,5.4,4.84,13.15,0,30-28.79,31.56-28.79s1.8,3,1.8,4.57c0,4.84-21.46,33.78-39.31,33.78-8.17,0-16.2-8.72-16.2-15.23,0-22.15,37.65-89.15,64.37-89.15,5.4,0,9.69,3.18,9.69,5.4C284.5,341.42,253.08,396.24,229.26,409.11Zm43.88-67.28c-2.08,0-24.92,27.82-37.65,52.6,15-12.18,38.07-49.7,38.07-52.19A.44.44,0,0,0,273.15,341.84Z"/><path class="cls-10" d="M282.7,435.14c-6.37,0-12.74-5.4-15.37-11.21-12.6,25.75-22.84,44.71-27.41,44.71-3,0-8-4.85-8-8.44s10.94-23.81,25.33-51.22,24.92-49,28.1-49c4.43,0,9.69,2.49,9.69,4.57q0,1.87-2.49,7.48c5.81-4.29,12.18-8,18.13-8,8.31,0,12.74,5.4,12.74,16.06C323.39,400.67,301.8,435.14,282.7,435.14Zm20.63-61.74c-3.6,0-10.52,5.26-16.33,10.24-3.18,6.78-7.48,15.37-12.6,25.89,1.38,6.51,4.15,12.74,7.75,12.74,7.61,0,25.33-35.71,25.33-44C307.48,375.48,306.09,373.4,303.32,373.4Z"/><path class="cls-9" d="M155.07,365.53c7.34,1.38,10.94,4.29,10.94,7.47s-.42,6.64-1.52,6.64c-2.35,0,.28-3.88-13.84-3.88H148.7c-16.75,27.82-25.33,47.34-26.3,49.83-1.11,2.91-1.38,5.4-5.54,5.4s-9.55-2.91-9.55-4.85c0-6.09,7.34-24.78,21-48.45-5.54.69-11.21,1.52-17.17,1.8-15.64,24.78-39.45,49.7-59.52,49.7C41,429.21,33,420.07,33,412c0-1,.42-3.18,1.25-3.18.55,0,.55,1.52,1.11,2.91s2.49,5.68,10.8,5.68c12,0,30.32-19.52,44.71-39.87-6.51-2.08-10.8-5-10.8-7.2s2.77-6.92,4.43-6.92c1.11,0,4.71,2.35,13.57,3.32,9-14.4,15.23-27.55,15.23-32.95,0-2.35-1-3.18-2.91-3.18-9.41,0-38.34,30.59-38.34,50.11,0,1.8.83,3.88.83,4.43s-.14.55-.69.55-10.94-9.55-10.94-18.69c0-13.84,19.93-46.51,48-46.51,12.87,0,18.83,6.23,18.83,18.13,0,6.51-3.6,16.61-9.27,27.82,5.81-.55,11.77-1.11,17.17-1.38l.69-1c19-30,40.7-51.91,47.62-51.91,3.32,0,7.61,2.77,7.61,5.12S174.73,334.94,155.07,365.53Z"/><path class="cls-9" d="M174.73,429.35c-9.41,0-16.75-9.55-16.75-20.9,0-17.58,20.76-49.14,39.31-49.14,5,0,7.61-1.52,10.52-1.52,4.43,0,8.58,5.12,8.58,10.52,0,10.38-15.37,28.38-37.65,28.38a3.84,3.84,0,0,1-1.25-.14c-1.8,4.15-2.91,8-2.91,11.35,0,6.09,2.21,10,7.34,10,18.41,0,33.64-27.41,35.3-27.41s1.66,2.49,1.66,4.57C218.89,400,197.71,429.35,174.73,429.35Zm28.93-63.54c-4.84,0-15.78,11.63-22.7,23.81,10.94-2.35,25.19-13.57,25.19-21.46C206.15,366.64,205.32,365.81,203.66,365.81Z"/><path class="cls-9" d="M228.71,403a40.38,40.38,0,0,0-2.08,11.21c0,2.63,2.49,4.84,5.4,4.84,13.15,0,30-28.79,31.56-28.79s1.8,3,1.8,4.57c0,4.84-21.46,33.78-39.31,33.78-8.17,0-16.2-8.72-16.2-15.23,0-22.15,37.65-89.15,64.37-89.15,5.4,0,9.69,3.18,9.69,5.4C283.95,335.36,252.52,390.17,228.71,403Zm43.88-67.28c-2.08,0-24.92,27.82-37.65,52.6,15-12.18,38.07-49.7,38.07-52.19A.44.44,0,0,0,272.59,335.77Z"/><path class="cls-9" d="M282.15,429.07c-6.37,0-12.74-5.4-15.37-11.21-12.6,25.75-22.84,44.71-27.41,44.71-3,0-8-4.85-8-8.44s10.94-23.81,25.33-51.22,24.92-49,28.1-49c4.43,0,9.69,2.49,9.69,4.57q0,1.87-2.49,7.48c5.81-4.29,12.18-8,18.13-8,8.31,0,12.74,5.4,12.74,16.06C322.84,394.6,301.25,429.07,282.15,429.07Zm20.63-61.74c-3.6,0-10.52,5.26-16.33,10.24-3.18,6.78-7.47,15.37-12.6,25.89,1.38,6.51,4.15,12.74,7.75,12.74,7.61,0,25.33-35.71,25.33-44C306.92,369.41,305.54,367.33,302.77,367.33Z"/><path class="cls-11" d="M281.5,309.17c-31.55-31.18,40.41-37,47-45.24C338.72,251.19,311.51,338.83,281.5,309.17Z"/><path class="cls-12" d="M75.19,626.48,60.06,639.8,51,629.36l24.62-20.78H90.54V684H75.19Z"/><path class="cls-12" d="M111.1,646.3a78.16,78.16,0,0,1,1.23-13.64,39.94,39.94,0,0,1,4.37-12.57,26,26,0,0,1,8.58-9.22q5.43-3.57,13.85-3.57T153,610.87a26,26,0,0,1,8.58,9.22,40,40,0,0,1,4.37,12.57,76.51,76.51,0,0,1,0,27.28,40,40,0,0,1-4.37,12.57,26,26,0,0,1-8.58,9.22q-5.43,3.57-13.85,3.57t-13.85-3.57a26,26,0,0,1-8.58-9.22,39.91,39.91,0,0,1-4.37-12.57A78.14,78.14,0,0,1,111.1,646.3Zm16,0q0,3,.27,7.14a34.8,34.8,0,0,0,1.44,8,17,17,0,0,0,3.57,6.5,9.86,9.86,0,0,0,13.48,0,16.64,16.64,0,0,0,3.62-6.5,35,35,0,0,0,1.44-8q.26-4.16.27-7.14t-.27-7.14a35,35,0,0,0-1.44-8,16.64,16.64,0,0,0-3.62-6.5,9.86,9.86,0,0,0-13.48,0,17,17,0,0,0-3.57,6.5,34.8,34.8,0,0,0-1.44,8Q127.09,643.31,127.09,646.3Z"/><path class="cls-12" d="M174.18,646.3a78.16,78.16,0,0,1,1.23-13.64,39.94,39.94,0,0,1,4.37-12.57,26,26,0,0,1,8.58-9.22q5.43-3.57,13.85-3.57t13.85,3.57a26,26,0,0,1,8.58,9.22A40,40,0,0,1,229,632.66a76.51,76.51,0,0,1,0,27.28,40,40,0,0,1-4.37,12.57,26,26,0,0,1-8.58,9.22q-5.43,3.57-13.85,3.57t-13.85-3.57a26,26,0,0,1-8.58-9.22,39.91,39.91,0,0,1-4.37-12.57A78.14,78.14,0,0,1,174.18,646.3Zm16,0q0,3,.27,7.14a34.8,34.8,0,0,0,1.44,8,17,17,0,0,0,3.57,6.5,9.86,9.86,0,0,0,13.48,0,16.64,16.64,0,0,0,3.62-6.5,35,35,0,0,0,1.44-8q.26-4.16.27-7.14t-.27-7.14a35,35,0,0,0-1.44-8,16.64,16.64,0,0,0-3.62-6.5,9.86,9.86,0,0,0-13.48,0,17,17,0,0,0-3.57,6.5,34.8,34.8,0,0,0-1.44,8Q190.17,643.31,190.17,646.3Z"/><path class="cls-12" d="M234.28,628.4a20.5,20.5,0,0,1,1.65-8.21,21.75,21.75,0,0,1,4.48-6.71,20.9,20.9,0,0,1,29.73,0,21.82,21.82,0,0,1,4.48,6.71,21.21,21.21,0,0,1,0,16.41,21.82,21.82,0,0,1-4.48,6.71,20.9,20.9,0,0,1-29.73,0,21.75,21.75,0,0,1-4.48-6.71A20.5,20.5,0,0,1,234.28,628.4Zm31.11,0a10,10,0,0,0-2.93-7.25,10.16,10.16,0,0,0-14.39,0,10.42,10.42,0,0,0,0,14.49,10.16,10.16,0,0,0,14.39,0A10,10,0,0,0,265.4,628.4Zm33.89-23.23,9,5-44,77.25-8.1-4.58Zm-11.4,58.93a20.5,20.5,0,0,1,1.65-8.21,21.76,21.76,0,0,1,4.48-6.71,20.9,20.9,0,0,1,29.73,0,21.8,21.8,0,0,1,4.48,6.71,20.54,20.54,0,0,1,1.65,8.21,20.91,20.91,0,0,1-1.65,8.26,21.62,21.62,0,0,1-4.48,6.77,20.9,20.9,0,0,1-29.73,0,21.59,21.59,0,0,1-4.48-6.77A20.88,20.88,0,0,1,287.88,664.09Zm31.12,0a10,10,0,0,0-2.93-7.25,10.16,10.16,0,0,0-14.39,0,10,10,0,0,0-2.93,7.25,10.08,10.08,0,0,0,2.93,7.35,10.16,10.16,0,0,0,14.39,0A10.08,10.08,0,0,0,319,664.09Z"/><path class="cls-12" d="M87.67,728.85a13.49,13.49,0,0,1-5.13,4,15.38,15.38,0,0,1-6.42,1.41,17.26,17.26,0,0,1-5.95-1,14.3,14.3,0,0,1-4.85-2.9,13.6,13.6,0,0,1-3.24-4.54,15.38,15.38,0,0,1,0-11.83,13.62,13.62,0,0,1,3.24-4.54,14.32,14.32,0,0,1,4.85-2.9,17.27,17.27,0,0,1,5.95-1,13.53,13.53,0,0,1,5.33,1,11.09,11.09,0,0,1,4.06,2.9A13.23,13.23,0,0,1,88.06,714a18.31,18.31,0,0,1,.9,5.92v2.65H69.35a6.69,6.69,0,0,0,2.2,3.86,6.22,6.22,0,0,0,4.17,1.44,6.35,6.35,0,0,0,3.52-.93,9.47,9.47,0,0,0,2.51-2.4Zm-7.16-12.06a4.9,4.9,0,0,0-1.41-3.66,5,5,0,0,0-3.78-1.52,6.36,6.36,0,0,0-2.48.45A6.23,6.23,0,0,0,71,713.21a5.07,5.07,0,0,0-1.18,1.63,5.36,5.36,0,0,0-.48,1.94Z"/><path class="cls-12" d="M94.09,706.19h8.12v3.72h.11a6.87,6.87,0,0,1,1.13-1.58,8.22,8.22,0,0,1,1.75-1.41,10,10,0,0,1,2.31-1,9.66,9.66,0,0,1,2.82-.39,10.7,10.7,0,0,1,5.1,1.18,7.5,7.5,0,0,1,3.35,3.72,9.14,9.14,0,0,1,3.55-3.78,10.67,10.67,0,0,1,5.13-1.13,10.47,10.47,0,0,1,4.65.93,7.6,7.6,0,0,1,3,2.54,10.69,10.69,0,0,1,1.58,3.78,21.55,21.55,0,0,1,.48,4.65v16.17H128.7V717.63a6.37,6.37,0,0,0-.82-3.3A3.09,3.09,0,0,0,125,713a5.6,5.6,0,0,0-2.45.48,4,4,0,0,0-1.58,1.32,5.5,5.5,0,0,0-.84,2,10.77,10.77,0,0,0-.25,2.37v14.48h-8.45V719.1q0-.73-.06-1.8a7.22,7.22,0,0,0-.39-2,3.88,3.88,0,0,0-1.1-1.63,3.25,3.25,0,0,0-2.23-.68,5.22,5.22,0,0,0-2.65.59,4,4,0,0,0-1.55,1.58,6.44,6.44,0,0,0-.71,2.23,19.26,19.26,0,0,0-.17,2.59v13.64H94.09Z"/><path class="cls-12" d="M143.91,706.19h7.78v3.61h.11a9.35,9.35,0,0,1,1.32-1.49,10,10,0,0,1,1.92-1.38,11.92,11.92,0,0,1,2.4-1,9.46,9.46,0,0,1,2.76-.39,14.12,14.12,0,0,1,5.52,1,12.33,12.33,0,0,1,4.25,2.93,13.08,13.08,0,0,1,2.73,4.48,16.31,16.31,0,0,1,1,5.69,17.27,17.27,0,0,1-.87,5.5,15.14,15.14,0,0,1-2.48,4.65A12.12,12.12,0,0,1,166.4,733a11.13,11.13,0,0,1-5.24,1.21,14.53,14.53,0,0,1-4.93-.82,7.88,7.88,0,0,1-3.75-2.79h-.11v15.78h-8.45Zm7.78,13.69a7.08,7.08,0,0,0,1.77,5,7.45,7.45,0,0,0,10,0,8,8,0,0,0,0-10,7.45,7.45,0,0,0-10,0A7.09,7.09,0,0,0,151.69,719.89Z"/><path class="cls-12" d="M178.74,691h8.45v42.61h-8.45Z"/><path class="cls-12" d="M192.27,719.89a14.35,14.35,0,0,1,1.18-5.92,13.62,13.62,0,0,1,3.24-4.54,14.32,14.32,0,0,1,4.85-2.9,17.93,17.93,0,0,1,11.89,0,14.33,14.33,0,0,1,4.85,2.9,13.63,13.63,0,0,1,3.24,4.54,15.38,15.38,0,0,1,0,11.83,13.61,13.61,0,0,1-3.24,4.54,14.31,14.31,0,0,1-4.85,2.9,17.93,17.93,0,0,1-11.89,0,14.3,14.3,0,0,1-4.85-2.9,13.6,13.6,0,0,1-3.24-4.54A14.35,14.35,0,0,1,192.27,719.89Zm8.45,0a7.08,7.08,0,0,0,1.78,5,7.45,7.45,0,0,0,10,0,8,8,0,0,0,0-10,7.45,7.45,0,0,0-10,0A7.09,7.09,0,0,0,200.72,719.89Z"/><path class="cls-12" d="M243.44,738q-.85,2.2-1.63,3.89a9.35,9.35,0,0,1-2,2.85,7.8,7.8,0,0,1-3.07,1.75,16.61,16.61,0,0,1-4.9.59,19.82,19.82,0,0,1-6.31-1l1.13-6.93a9.67,9.67,0,0,0,3.95.85,7.25,7.25,0,0,0,2.31-.31,3.84,3.84,0,0,0,1.49-.9,5,5,0,0,0,1-1.44q.39-.85.85-2l.62-1.58-12-27.62H234l7,18.09h.11l6-18.09h8.68Z"/><path class="cls-12" d="M284.92,728.85a13.49,13.49,0,0,1-5.13,4,15.38,15.38,0,0,1-6.42,1.41,17.26,17.26,0,0,1-5.95-1,14.3,14.3,0,0,1-4.85-2.9,13.6,13.6,0,0,1-3.24-4.54,15.38,15.38,0,0,1,0-11.83,13.62,13.62,0,0,1,3.24-4.54,14.32,14.32,0,0,1,4.85-2.9,17.27,17.27,0,0,1,5.95-1,13.53,13.53,0,0,1,5.33,1,11.09,11.09,0,0,1,4.06,2.9,13.23,13.23,0,0,1,2.56,4.54,18.31,18.31,0,0,1,.9,5.92v2.65H266.6a6.69,6.69,0,0,0,2.2,3.86,6.22,6.22,0,0,0,4.17,1.44,6.35,6.35,0,0,0,3.52-.93,9.47,9.47,0,0,0,2.51-2.4Zm-7.16-12.06a4.9,4.9,0,0,0-1.41-3.66,5,5,0,0,0-3.78-1.52,6.36,6.36,0,0,0-2.48.45,6.23,6.23,0,0,0-1.83,1.16,5.07,5.07,0,0,0-1.18,1.63,5.36,5.36,0,0,0-.48,1.94Z"/><path class="cls-12" d="M317.26,728.85a13.49,13.49,0,0,1-5.13,4,15.38,15.38,0,0,1-6.42,1.41,17.26,17.26,0,0,1-5.95-1,14.3,14.3,0,0,1-4.85-2.9,13.6,13.6,0,0,1-3.24-4.54,15.38,15.38,0,0,1,0-11.83,13.62,13.62,0,0,1,3.24-4.54,14.32,14.32,0,0,1,4.85-2.9,17.27,17.27,0,0,1,5.95-1,13.53,13.53,0,0,1,5.33,1,11.09,11.09,0,0,1,4.06,2.9,13.23,13.23,0,0,1,2.56,4.54,18.31,18.31,0,0,1,.9,5.92v2.65H298.95a6.69,6.69,0,0,0,2.2,3.86,6.22,6.22,0,0,0,4.17,1.44,6.35,6.35,0,0,0,3.52-.93,9.47,9.47,0,0,0,2.51-2.4Zm-7.16-12.06a4.9,4.9,0,0,0-1.41-3.66,5,5,0,0,0-3.78-1.52,6.36,6.36,0,0,0-2.48.45,6.23,6.23,0,0,0-1.83,1.16,5.07,5.07,0,0,0-1.18,1.63,5.36,5.36,0,0,0-.48,1.94Z"/><path class="cls-12" d="M102.55,769a14.35,14.35,0,0,1,1.18-5.92,13.62,13.62,0,0,1,3.24-4.54,14.32,14.32,0,0,1,4.85-2.9,17.93,17.93,0,0,1,11.89,0,14.33,14.33,0,0,1,4.85,2.9,13.63,13.63,0,0,1,3.24,4.54,15.38,15.38,0,0,1,0,11.83,13.61,13.61,0,0,1-3.24,4.54,14.31,14.31,0,0,1-4.85,2.9,17.93,17.93,0,0,1-11.89,0,14.3,14.3,0,0,1-4.85-2.9,13.6,13.6,0,0,1-3.24-4.54A14.35,14.35,0,0,1,102.55,769Zm8.45,0a7.08,7.08,0,0,0,1.78,5,7.45,7.45,0,0,0,10,0,8,8,0,0,0,0-10,7.45,7.45,0,0,0-10,0A7.09,7.09,0,0,0,111,769Z"/><path class="cls-12" d="M134.68,755.34h9l5.58,17.19h.11l4.68-17.19h9.24l5.07,17.19h.11l5.13-17.19h8.57l-9.75,27.39H164.1l-5.69-18.2h-.11l-5.07,18.2h-8.51Z"/><path class="cls-12" d="M184.89,755.34H193v3.72h.11a6.87,6.87,0,0,1,1.13-1.58,8.22,8.22,0,0,1,1.75-1.41,10,10,0,0,1,2.31-1,9.66,9.66,0,0,1,2.82-.39,11.65,11.65,0,0,1,5.18,1,7.51,7.51,0,0,1,3.07,2.73,11.07,11.07,0,0,1,1.49,4.11,31.28,31.28,0,0,1,.39,5.13v15.1h-8.45V769.31q0-1.18-.08-2.45a7.73,7.73,0,0,0-.51-2.34,3.64,3.64,0,0,0-3.8-2.42,5.22,5.22,0,0,0-2.65.59,4,4,0,0,0-1.55,1.58,6.44,6.44,0,0,0-.71,2.23,19.26,19.26,0,0,0-.17,2.59v13.64h-8.45Z"/><path class="cls-12" d="M243.16,778a13.49,13.49,0,0,1-5.13,4,15.38,15.38,0,0,1-6.42,1.41,17.26,17.26,0,0,1-5.95-1,14.3,14.3,0,0,1-4.85-2.9,13.6,13.6,0,0,1-3.24-4.54,15.38,15.38,0,0,1,0-11.83,13.62,13.62,0,0,1,3.24-4.54,14.32,14.32,0,0,1,4.85-2.9,17.27,17.27,0,0,1,5.95-1,13.53,13.53,0,0,1,5.33,1,11.09,11.09,0,0,1,4.06,2.9,13.23,13.23,0,0,1,2.56,4.54,18.31,18.31,0,0,1,.9,5.92v2.65H224.85a6.69,6.69,0,0,0,2.2,3.86,6.22,6.22,0,0,0,4.17,1.44,6.35,6.35,0,0,0,3.52-.93,9.47,9.47,0,0,0,2.51-2.4ZM236,765.93a4.9,4.9,0,0,0-1.41-3.66,5,5,0,0,0-3.78-1.52,6.36,6.36,0,0,0-2.48.45,6.23,6.23,0,0,0-1.83,1.16,5.07,5.07,0,0,0-1.18,1.63,5.36,5.36,0,0,0-.48,1.94Z"/><path class="cls-12" d="M278.33,782.72h-7.78v-3.61h-.11a9.36,9.36,0,0,1-1.32,1.49A10,10,0,0,1,267.2,782a11.72,11.72,0,0,1-2.42,1,9.53,9.53,0,0,1-2.73.39,14.12,14.12,0,0,1-5.52-1,12.29,12.29,0,0,1-4.25-2.93,13.06,13.06,0,0,1-2.73-4.48,16.28,16.28,0,0,1-1-5.69,17.24,17.24,0,0,1,.87-5.5,15.11,15.11,0,0,1,2.48-4.65,12.1,12.1,0,0,1,3.92-3.24,11.12,11.12,0,0,1,5.24-1.21,14.54,14.54,0,0,1,4.93.82,7.9,7.9,0,0,1,3.75,2.79h.11V740.12h8.45ZM270.55,769a7.09,7.09,0,0,0-1.78-5,7.45,7.45,0,0,0-10,0,8,8,0,0,0,0,10,7.45,7.45,0,0,0,10,0A7.08,7.08,0,0,0,270.55,769Z"/></g></g></svg>