<svg xmlns="http://www.w3.org/2000/svg" viewBox="0 0 377.91 358.79"><defs><style>.cls-1{fill:#81b4d4;}.cls-2{fill:#009444;}.cls-3{fill:#231f20;}.cls-4{fill:#e8ecee;stroke:#231f20;stroke-miterlimit:10;stroke-width:2.35px;}.cls-5{fill:#f7941d;}.cls-6{fill:#f36e24;}.cls-7{fill:#d35461;}</style></defs><title>orangeboy</title><g id="Layer_2" data-name="Layer 2"><g id="Layer_16" data-name="Layer 16"><path class="cls-1" d="M40.15,348.78c12-10,54.7-15.73,106-16,63.12-.33,95.59,7.64,95.59,17s-46.47,9-109.59,9S31.58,355.92,40.15,348.78Z"/><path class="cls-2" d="M2.44,38.33C-12.1,32.82,41.2,63.56,84.81,58.49S169.88,35.28,168,19.08,156.1-4.62,112.86,3C70.37,10.45,30.2,48.86,2.44,38.33Z"/><polygon class="cls-2" points="141.14 56.27 148.3 55.9 149.24 36.9 139.71 38.61 141.14 56.27"/><path class="cls-3" d="M319,139.54c26.63-18.1,34.1-41.63,40.5-33.57,2.21,2.79-18.21,33.5-47,47.86-27.89,13.89-40,16-42.24,13.23C262.39,157.17,292.39,157.64,319,139.54Z"/><path class="cls-4" d="M376.74,104c-.21-12.42-10.09-23.17-22.5-22.5-8.27.44-11.05,6.68-16.88,15.15-3.06-6.16-5.17-8.46-11.41-6.28-3.26,1.14-3.62,7.65-.94,14.14a39,39,0,0,0,5.7,9.44,3.08,3.08,0,0,0-1.06,1.06c-1.73,3,2.3,8.56,9,12.42S352.18,132,353.9,129a3.5,3.5,0,0,0,.29-2.51h0C367.12,126.2,376.95,116.26,376.74,104Z"/><path class="cls-3" d="M149.21,357.6c-7.38-.73-15.61-2.91-18.25-4.76-3.88-2.71-1.68-17.43-1.39-21.26l3.7-49.55c.29-3.83,4.5-2.82,9.72-2.43h0c1.94,9.91.27,55,4.29,57.79C162.91,348.22,181.07,357,166.68,358,158,358.64,155.6,358.23,149.21,357.6Z"/><path class="cls-3" d="M224.11,349.6c-7.42,0-15.82-1.41-18.62-3-4.12-2.32-3.33-17.19-3.41-21l-1-49.67c-.08-3.84,4.21-3.23,9.45-3.34h0c2.87,9.68,5.51,54.74,9.78,57.12,16.6,9.28,35.52,16.24,21.29,18.66C232.94,349.8,230.53,349.61,224.11,349.6Z"/><ellipse class="cls-5" cx="165.42" cy="169.94" rx="129" ry="118.5"/><path class="cls-6" d="M183.11,272.72c-68.94,0-124.83-52.1-124.83-116.37,0-36.83,18.36-69.66,47-91-41.25,19.78-69.4,59.37-69.4,105,0,65.4,57.86,118.43,129.22,118.43,42.57,0,80.33-18.87,103.87-48C246.6,260.58,216.38,272.72,183.11,272.72Z"/><circle class="cls-3" cx="128.92" cy="142.94" r="7.5" transform="translate(-7.62 7.26) rotate(-3.13)"/><circle class="cls-3" cx="234.92" cy="131.94" r="7.5" transform="translate(-6.86 13.04) rotate(-3.13)"/><path class="cls-3" d="M139.92,102.11c.44,1.34-6.86-1.25-15,1.39s-12.34,8.54-12.78,7.2,3.9-7,12-9.62S139.48,100.77,139.92,102.11Z"/><path class="cls-3" d="M218.74,98.16c-.22,1.39,6.4-1.74,14.81-.44s13.66,6.35,13.87,5-5.07-6.18-13.48-7.48S219,96.76,218.74,98.16Z"/><path class="cls-7" d="M214.26,169.28c-1.89,7.53-10.72,14.12-24.11,14.25s-22.43-6.28-24.39-13.77c-2.43-9.26,1.19-13.11,24.11-14.25C215.53,154.23,216.15,161.77,214.26,169.28Z"/><path class="cls-3" d="M38.9,232.79c-2.88,32.07,9.23,60-1.06,59.85-3.56-.06-14.37-35.32-7.2-66.71,6.94-30.37,13-41.11,16.55-41.05C59.83,185.07,41.79,200.72,38.9,232.79Z"/><path class="cls-4" d="M61.4,268.32c-3-3-8.67-5.68-13-6.4,1.28-1,2-2,1.88-3-.29-3.13-7.68-5-16.5-4.16s-15.74,4-15.44,7.16c.13,1.38,1.63,2.51,4,3.27-5.12,3.36-8.76,9.79-5.92,23,2.73,12.7,17.31,15.36,28.32,13.24,10.45-2,13.63-7.78,11.87-19.07,3.25,1.43,6.38,1.4,8.18-.41C67.62,279.13,66.1,273,61.4,268.32Z"/></g></g></svg>