<svg xmlns="http://www.w3.org/2000/svg" viewBox="0 0 1920 687.62"><defs><style>.cls-1{fill:#174a8d;}.cls-2{fill:#2d6caa;}.cls-3{fill:#1b5998;}.cls-4{fill:#165689;}.cls-5{fill:#fff;}.cls-6{fill:#a87c4f;}.cls-7{fill:#c3996b;}.cls-8{fill:#231f20;}.cls-27,.cls-30,.cls-34,.cls-38,.cls-9{fill:#e8ecee;stroke:#231f20;stroke-miterlimit:10;}.cls-9{stroke-width:2.42px;}.cls-10{fill:#daae82;}.cls-11{fill:#f6b2cf;}.cls-12{fill:#d1a278;}.cls-13{fill:#d1a37a;}.cls-14{fill:#f5aecd;}.cls-15{fill:#f290bc;}.cls-16{fill:#f6c6dc;}.cls-17{fill:#f6b1cf;}.cls-18{fill:#f7d034;}.cls-19{fill:#a47953;}.cls-20{fill:#875c3a;}.cls-21{fill:#b18666;}.cls-22{fill:#0f2647;}.cls-23{fill:#0a1e32;}.cls-24{fill:#09192d;}.cls-25{fill:#bce4ee;}.cls-26{fill:#96d7e1;}.cls-27{stroke-width:1.93px;}.cls-28{fill:#f59698;}.cls-29{fill:#009345;}.cls-30{stroke-width:2.09px;}.cls-31{fill:#f6921e;}.cls-32{fill:#f26e24;}.cls-33{fill:#d35361;}.cls-34{stroke-width:1.98px;}.cls-35{fill:#181528;}.cls-36{fill:#faaf40;}.cls-37{fill:#241d38;}.cls-38{stroke-width:1.91px;}</style></defs><title>background</title><g id="Layer_2" data-name="Layer 2"><g id="Layer_1-2" data-name="Layer 1"><rect class="cls-1" x="1" width="1919" height="680.31"/><path class="cls-2" d="M585,268.74l-22,5.88c-.44-.41-1-.89-1.46-1.39q-14.78-14.89-29.54-29.8a2.88,2.88,0,0,0-3.25-.91c-7.28,2-14.59,3.93-21.89,5.88l-2.08.55,56.13,56.41-22.09,5.9L490.68,263,479.43,305l-16.23-16.4L471.39,258c-.8.15-1.36.21-1.89.35-5.27,1.4-10.53,2.86-15.82,4.18a2.87,2.87,0,0,0-2.36,2.41q-7.8,29.52-15.71,59-2.94,11-5.9,22.08c-.22.82-.4,1.65-.61,2.5l14.27,14.31c.28-.94.5-1.61.68-2.29,2.34-8.82,4.7-17.64,7-26.48a2.87,2.87,0,0,1,2.38-2.4c6-1.54,12.07-3.21,18.1-4.82l2.25-.6L462.66,368c.84-.16,1.4-.23,1.95-.37,6-1.57,12.08-3.14,18.12-4.74q21.82-5.78,43.62-11.63a3.17,3.17,0,0,1,3.6,1c4.27,4.45,8.66,8.8,13,13.18.41.41.79.85,1.43,1.55-5.2,1.62-10.29,2.74-15.3,4.12s-10.16,2.72-15.24,4.08l-15.24,4.07-15.24,4.07-15.56,4.15,18.9,19L531,394.67l16,16.18c-14.79,4.16-29.33,7.81-44.12,11.92l19.76,19.91-14,14c-6.65-6.52-13-13.16-19.85-19.86L477,481.09c-.56-.48-.92-.75-1.24-1.07-4.59-4.6-9.15-9.23-13.79-13.79a2.59,2.59,0,0,1-.77-2.94c3.67-13.5,7.24-27,10.93-40.51a3.47,3.47,0,0,0-1-4c-5.31-5.18-10.49-10.49-15.73-15.75-.45-.45-.94-.86-1.61-1.47l-20.46,76.87c-5.59-5.38-10.79-10.78-16.21-16.16l17.46-65.84a56.41,56.41,0,0,0-7,1.69c-2.3.57-4.57,1.21-6.86,1.82l-7,1.88-6.86,1.83-6.86,1.82-7.05,1.88c.19-.91.28-1.54.44-2.14,1.65-6.15,3.37-12.29,4.95-18.46a2.73,2.73,0,0,1,2.32-2.21c9.09-2.36,18.17-4.8,27.25-7.21.38-.1.74-.24,1.27-.41a10.67,10.67,0,0,0-.84-1.12c-4.2-4.25-8.43-8.47-12.62-12.73a1.88,1.88,0,0,0-2.26-.63,8.1,8.1,0,0,1-1,.26q-40.09,10.7-80.2,21.36a3.29,3.29,0,0,0-2.78,2.74c-1.25,5.17-2.7,10.29-4.06,15.43-.2.74-.36,1.5-.6,2.51l30.41-8.12L371.51,413l-41.8,11.16c5.51,5.68,10.84,11,16.12,16.31s10.63,10.72,15.95,16.09l16.05,16.21-6,22.16-56.15-56.56-6.89,25.89,32.41,32.6L335.32,519l-32.42-32.5-7.25,27.09-19.15-5.19,7.2-27.06c-4,.81-7.55,1.91-11.14,2.84s-7.37,2-11,2.94L250.65,490l-11.06,3c.18-.91.25-1.48.4-2,1.63-6.16,3.32-12.3,4.87-18.47a2.56,2.56,0,0,1,2.2-2.08c13.47-3.55,26.92-7.17,40.4-10.69a3.31,3.31,0,0,0,2.8-2.72c1.84-7.26,3.81-14.48,5.73-21.71.16-.61.28-1.23.46-2.06l-76.19,20.34c-.14-1.49,4-18,5.6-22.17l65.55-17.5-30.47-30.72,22.18-5.92,22.34,22.51,5.46-20.44-61.7-62-20.33,5.43c.73.75,1.3,1.35,1.88,1.94,6.39,6.42,12.77,12.86,19.21,19.23a2.58,2.58,0,0,1,.82,2.92c-1.72,6.2-3.32,12.44-5,18.66-.15.56-.33,1.11-.58,1.95l-30.53-30.66c-1.66,5.62-3,11-4.48,16.44s-3,11-4.46,16.55l-4.39,16.36L197,402.5l-22,5.88c1.61-6.58,3.43-12.92,5.1-19.3s3.39-12.69,5.09-19,3.44-12.81,5.15-19.22,3.37-12.63,5.13-19.18l-25.71,6.86c-.18.6-.42,1.27-.6,2-3.59,13.45-7.19,26.9-10.72,40.36a3,3,0,0,1-2.48,2.54c-6,1.49-11.95,3.14-17.91,4.74l-2.26.6,11.76-44.32-26.81,7.16-5.16-19.33L142.4,325l-32.26-32.56,22.06-5.89c1.12,1.12,2.33,2.31,3.53,3.52q13.67,13.77,27.32,27.56a3,3,0,0,0,3.43.95c7.15-2,14.34-3.87,21.51-5.78l2.26-.6c-3.75-4-7.51-7.61-11.16-11.32s-7.5-7.54-11.26-11.31L156.7,278.45l-11.26-11.31L134.1,255.73l4.71-1.26c5.27-1.41,10.55-2.78,15.8-4.25a2.46,2.46,0,0,1,2.75.76Q180,273.75,202.7,296.46c.5.5,1,1,1.72,1.64l11.21-41.89,16.21,16.41-8.17,30.55c.89-.17,1.51-.26,2.11-.42,5.34-1.41,10.65-2.9,16-4.23a3,3,0,0,0,2.53-2.51c3.08-11.82,6.25-23.61,9.4-35.41L266,214.55c.12-.44.21-.89.35-1.49l-14.69-14.76-8.14,30.61-22.18,5.92L232.45,193l-2.27.6-40,10.58c-7.24,1.92-14.49,3.8-21.72,5.78a2.73,2.73,0,0,1-3.1-.81c-4.38-4.54-8.85-9-13.28-13.46-.4-.41-.77-.85-1.32-1.46l76.36-20.38A16.63,16.63,0,0,0,226,172.5c-5.45-5.5-10.95-11-16.35-16.52a2.73,2.73,0,0,0-3.1-.82c-13.45,3.64-26.92,7.18-40.36,10.85a3.28,3.28,0,0,1-3.75-1c-4.18-4.36-8.48-8.6-12.74-12.89-.49-.5-.95-1-1.65-1.8l44-11.75c-2.24-2.59-4.5-4.64-6.61-6.82s-4.26-4.28-6.39-6.43l-6.69-6.75c4.61-4.74,9.24-9.32,14-14.05l19.8,19.89L218.12,80l16.19,16.21q-1.52,5.74-3,11.43-4.19,15.7-8.41,31.4a2.47,2.47,0,0,0,.63,2.79c5.65,5.59,11.23,11.24,16.84,16.87.27.27.59.49,1,.86l20.45-76.91L278,98.86l-17.49,66c7.15-1.78,13.94-3.67,20.75-5.47s13.71-3.66,20.57-5.49c.21,1.43-3.39,15.62-5.61,22.24l-30.42,8.12c.66.72,1.12,1.24,1.61,1.73,3.75,3.78,7.53,7.51,11.23,11.34a2.9,2.9,0,0,0,3.26.91Q304.76,192,327.63,186c11.87-3.17,23.74-6.36,35.63-9.48a2.89,2.89,0,0,0,2.42-2.36c1.32-5.29,2.78-10.54,4.17-15.81.15-.55.25-1.12.46-2l-2.26.6c-8.76,2.35-17.53,4.66-26.26,7.1a3,3,0,0,1-3.43-.95c-4.31-4.42-8.7-8.75-13.07-13.12-.5-.5-1-1-1.7-1.77,2.44-.82,4.71-1.32,6.94-1.94s4.57-1.22,6.86-1.83l7-1.88,6.86-1.83,6.86-1.83,7.17-1.91L317.24,88.39l5.95-22.14,56.05,56.45c.24-.72.45-1.24.6-1.78,2-7.42,3.93-14.85,6-22.26a2.75,2.75,0,0,0-.84-3.1Q370.4,81,355.9,66.43a11.63,11.63,0,0,0-1.12-1.11,2,2,0,0,1-.61-2.44c1-3.41,1.86-6.84,2.79-10.26l2.82-10.43,32.36,32.47c2.59-9.07,4.78-18,7.33-27l19.11,5.18-7.11,26.74a3.21,3.21,0,0,0,2.36-.23q19.63-5.19,39.25-10.41l2.53-.68-5.87,22.08-44.31,11.83L398.52,128c13-3.37,25.63-6.85,38.28-10.22s25.35-6.76,38.26-10.21c-.12.77-.15,1.27-.28,1.75-1.65,6.22-3.35,12.43-4.92,18.67a2.59,2.59,0,0,1-2.2,2.1q-15.44,4.08-30.85,8.26l-31,8.37-2.1.56c10.16,10.38,20.25,20.38,30.37,30.69-.62.24-1,.44-1.4.55-6.29,1.67-12.59,3.29-18.86,5a2.9,2.9,0,0,1-3.25-.95c-6.37-6.53-12.82-13-19.24-19.48-.5-.5-1-1-1.67-1.6-.23.73-.43,1.27-.58,1.82-1.41,5.26-2.78,10.54-4.23,15.79a2.49,2.49,0,0,0,.68,2.79q30.31,30.42,60.57,60.89c.27.28.58.52.89.8l19.2-5.12c-7.48-7.63-14.94-15-22.32-22.47l5.89-22.29L480.4,224.5l17.67-65.81,22-5.87c-1.57,6.56-3.39,12.88-5.06,19.24s-3.4,12.69-5.09,19-3.42,12.81-5.14,19.22l-5.13,19.2,25.8-6.89,11.76-44.16,22-5.87c-.59,3.06-1.5,5.9-2.23,8.77s-1.56,5.84-2.33,8.76-1.58,6-2.38,8.95-1.57,5.83-2.35,8.75-1.52,5.79-2.36,9l26.83-7.16L579.54,229l-26.89,7.18ZM370.57,195l-2.06.55q-40.46,10.8-80.93,21.56a3.2,3.2,0,0,0-2.62,2.64q-10.8,40.74-21.72,81.44a2.77,2.77,0,0,0,.81,3.11q29.89,30,59.69,60.06a2.75,2.75,0,0,0,3.1.8q40.73-10.92,81.49-21.75a2.75,2.75,0,0,0,2.25-2.27q10.77-40.64,21.68-81.24a3.51,3.51,0,0,0-1-4q-25.06-25.07-50-50.24Z"/><path class="cls-2" d="M329.63,348.39l-6.84-6.85q-20.68-20.81-41.39-41.6a3.06,3.06,0,0,1-.92-3.44q8.57-31.85,17-63.74a3.49,3.49,0,0,1,2.84-2.93q31.73-8.36,63.4-16.91a3.35,3.35,0,0,1,3.77,1q23.19,23.46,46.47,46.82c.46.46.91.94,1.45,1.49-.09.45-.16,1-.29,1.46Q406.54,296,398,328.21a3.19,3.19,0,0,1-2.58,2.68q-31.92,8.41-63.79,17Zm30.22-113.63-45.42,12.12c-.13.35-.27.64-.36,1q-5.8,21.69-11.61,43.37a2.34,2.34,0,0,0,.81,2.57q15.44,15.47,30.81,31a2.88,2.88,0,0,0,3.25.86c13.95-3.78,27.92-7.49,41.88-11.21L381,314c.19-.66.39-1.28.56-1.91,3.74-14,7.46-28,11.26-42a2.76,2.76,0,0,0-.89-3.09q-14.2-14.2-28.33-28.48C362.35,237.21,361.08,236,359.85,234.77Z"/><path class="cls-2" d="M1189,396.74l-22,5.88c-.44-.41-1-.89-1.46-1.39q-14.78-14.89-29.54-29.8a2.88,2.88,0,0,0-3.25-.91c-7.28,2-14.59,3.93-21.89,5.88l-2.08.55,56.13,56.41-22.09,5.9L1094.68,391,1083.43,433l-16.23-16.4,8.18-30.56c-.8.15-1.36.21-1.89.35-5.27,1.4-10.53,2.86-15.82,4.18a2.87,2.87,0,0,0-2.36,2.41q-7.8,29.52-15.71,59-2.94,11-5.9,22.08c-.22.82-.4,1.65-.61,2.5l14.27,14.31c.28-.94.5-1.61.68-2.29,2.34-8.82,4.7-17.64,7-26.48a2.87,2.87,0,0,1,2.38-2.4c6-1.54,12.07-3.21,18.1-4.82l2.25-.6L1066.66,496c.84-.16,1.4-.23,1.95-.37,6-1.57,12.08-3.14,18.12-4.74q21.82-5.78,43.62-11.63a3.17,3.17,0,0,1,3.6,1c4.27,4.45,8.66,8.8,13,13.18.41.41.79.85,1.43,1.55-5.2,1.62-10.29,2.74-15.3,4.12s-10.16,2.72-15.24,4.08l-15.24,4.07-15.24,4.07-15.56,4.15,18.9,19,44.3-11.82,16,16.18c-14.79,4.16-29.33,7.81-44.12,11.92l19.76,19.91-14,14c-6.65-6.52-13-13.16-19.85-19.86L1081,609.09c-.56-.48-.92-.75-1.24-1.07-4.59-4.6-9.15-9.23-13.79-13.79a2.59,2.59,0,0,1-.77-2.94c3.67-13.5,7.24-27,10.93-40.51a3.47,3.47,0,0,0-1-4c-5.31-5.18-10.49-10.49-15.73-15.75-.45-.45-.94-.86-1.61-1.47l-20.46,76.87c-5.59-5.38-10.79-10.78-16.21-16.16l17.46-65.84a56.41,56.41,0,0,0-7,1.69c-2.3.57-4.57,1.21-6.86,1.82l-7,1.88-6.86,1.83-6.86,1.82-7.05,1.88c.19-.91.28-1.54.44-2.14,1.65-6.15,3.37-12.29,4.95-18.46a2.73,2.73,0,0,1,2.32-2.21c9.09-2.36,18.17-4.8,27.25-7.21.38-.1.74-.24,1.27-.41a10.67,10.67,0,0,0-.84-1.12c-4.2-4.25-8.43-8.47-12.62-12.73a1.88,1.88,0,0,0-2.26-.63,8.1,8.1,0,0,1-1,.26q-40.09,10.7-80.2,21.36a3.29,3.29,0,0,0-2.78,2.74c-1.25,5.17-2.7,10.29-4.06,15.43-.2.74-.36,1.5-.6,2.51l30.41-8.12L975.51,541l-41.8,11.16c5.51,5.68,10.84,11,16.12,16.31s10.63,10.72,15.95,16.09l16.05,16.21-6,22.16-56.15-56.56-6.89,25.89,32.41,32.6L939.32,647l-32.42-32.5-7.25,27.09-19.15-5.19,7.2-27.06c-4,.81-7.55,1.91-11.14,2.84s-7.37,2-11,2.94L854.65,618l-11.06,3c.18-.91.25-1.48.4-2,1.63-6.16,3.32-12.3,4.87-18.47a2.56,2.56,0,0,1,2.2-2.08c13.47-3.55,26.92-7.17,40.4-10.69a3.31,3.31,0,0,0,2.8-2.72c1.84-7.26,3.81-14.48,5.73-21.71.16-.61.28-1.23.46-2.06l-76.19,20.34c-.14-1.49,4-18,5.6-22.17l65.55-17.5-30.47-30.72,22.18-5.92,22.34,22.51,5.46-20.44-61.7-62-20.33,5.43c.73.75,1.3,1.35,1.88,1.94,6.39,6.42,12.77,12.86,19.21,19.23a2.58,2.58,0,0,1,.82,2.92c-1.72,6.2-3.32,12.44-5,18.66-.15.56-.33,1.11-.58,1.95l-30.53-30.66c-1.66,5.62-3,11-4.48,16.44s-3,11-4.46,16.55l-4.39,16.36L801,530.5l-22,5.88c1.61-6.58,3.43-12.92,5.1-19.3s3.39-12.69,5.09-19,3.44-12.81,5.15-19.22,3.37-12.63,5.13-19.18l-25.71,6.86c-.18.6-.42,1.27-.6,2-3.59,13.45-7.19,26.9-10.72,40.36a3,3,0,0,1-2.48,2.54c-6,1.49-11.95,3.14-17.91,4.74l-2.26.6,11.76-44.32-26.81,7.16-5.16-19.33L746.4,453l-32.26-32.56,22.06-5.89c1.12,1.12,2.33,2.31,3.53,3.52q13.67,13.77,27.32,27.56a3,3,0,0,0,3.43.95c7.15-2,14.34-3.87,21.51-5.78l2.26-.6c-3.75-4-7.51-7.61-11.16-11.32s-7.5-7.54-11.26-11.31L760.7,406.45l-11.26-11.31L738.1,383.73l4.71-1.26c5.27-1.41,10.55-2.78,15.8-4.25a2.46,2.46,0,0,1,2.75.76Q784,401.75,806.7,424.46c.5.5,1,1,1.72,1.64l11.21-41.89,16.21,16.41-8.17,30.55c.89-.17,1.51-.26,2.11-.42,5.34-1.41,10.65-2.9,16-4.23a3,3,0,0,0,2.53-2.51c3.08-11.82,6.25-23.61,9.4-35.41L870,342.55c.12-.44.21-.89.35-1.49l-14.69-14.76-8.14,30.61-22.18,5.92L836.45,321l-2.27.6-40,10.58c-7.24,1.92-14.49,3.8-21.72,5.78a2.73,2.73,0,0,1-3.1-.81c-4.38-4.54-8.85-9-13.28-13.46-.4-.41-.77-.85-1.32-1.46l76.36-20.38A16.63,16.63,0,0,0,830,300.5c-5.45-5.5-10.95-11-16.35-16.52a2.73,2.73,0,0,0-3.1-.82c-13.45,3.64-26.92,7.18-40.36,10.85a3.28,3.28,0,0,1-3.75-1c-4.18-4.36-8.48-8.6-12.74-12.89-.49-.5-.95-1-1.65-1.8l44-11.75c-2.24-2.59-4.5-4.64-6.61-6.82s-4.26-4.28-6.39-6.43l-6.69-6.75c4.61-4.74,9.24-9.32,14-14.05l19.8,19.89L822.12,208l16.19,16.21q-1.52,5.74-3,11.43-4.19,15.7-8.41,31.4a2.47,2.47,0,0,0,.63,2.79c5.65,5.59,11.23,11.24,16.84,16.87.27.27.59.49,1,.86l20.45-76.91L882,226.86l-17.49,66c7.15-1.78,13.94-3.67,20.75-5.47s13.71-3.66,20.57-5.49c.21,1.43-3.39,15.62-5.61,22.24l-30.42,8.12c.66.72,1.12,1.24,1.61,1.73,3.75,3.78,7.53,7.51,11.23,11.34a2.9,2.9,0,0,0,3.26.91Q908.76,320,931.63,314c11.87-3.17,23.74-6.36,35.63-9.48a2.89,2.89,0,0,0,2.42-2.36c1.32-5.29,2.78-10.54,4.17-15.81.15-.55.25-1.12.46-2l-2.26.6c-8.76,2.35-17.53,4.66-26.26,7.1a3,3,0,0,1-3.43-.95c-4.31-4.42-8.7-8.75-13.07-13.12-.5-.5-1-1-1.7-1.77,2.44-.82,4.71-1.32,6.94-1.94s4.57-1.22,6.86-1.83l7-1.88,6.86-1.83,6.86-1.83,7.17-1.91-48.08-48.53,5.95-22.14,56.05,56.45c.24-.72.45-1.24.6-1.78,2-7.42,3.93-14.85,6-22.26a2.75,2.75,0,0,0-.84-3.1Q974.4,209,959.9,194.43a11.63,11.63,0,0,0-1.12-1.11,2,2,0,0,1-.61-2.44c1-3.41,1.86-6.84,2.79-10.26l2.82-10.43,32.36,32.47c2.59-9.07,4.78-18,7.33-27l19.11,5.18-7.11,26.74a3.21,3.21,0,0,0,2.36-.23q19.63-5.19,39.25-10.41l2.53-.68-5.87,22.08-44.31,11.83L1002.52,256c13-3.37,25.63-6.85,38.28-10.22s25.35-6.76,38.26-10.21c-.12.77-.15,1.27-.28,1.75-1.65,6.22-3.35,12.43-4.92,18.67a2.59,2.59,0,0,1-2.2,2.1q-15.44,4.08-30.85,8.26l-31,8.37-2.1.56c10.16,10.38,20.25,20.38,30.37,30.69-.62.24-1,.44-1.4.55-6.29,1.67-12.59,3.29-18.86,5a2.9,2.9,0,0,1-3.25-.95c-6.37-6.53-12.82-13-19.24-19.48-.5-.5-1-1-1.67-1.6-.23.73-.43,1.27-.58,1.82-1.41,5.26-2.78,10.54-4.23,15.79a2.49,2.49,0,0,0,.68,2.79q30.31,30.42,60.57,60.89c.27.28.58.52.89.8l19.2-5.12c-7.48-7.63-14.94-15-22.32-22.47l5.89-22.29,30.66,30.77,17.67-65.81,22-5.87c-1.57,6.56-3.39,12.88-5.06,19.24s-3.4,12.69-5.09,19-3.42,12.81-5.14,19.22l-5.13,19.2,25.8-6.89,11.76-44.16,22-5.87c-.59,3.06-1.5,5.9-2.23,8.77s-1.56,5.84-2.33,8.76-1.58,6-2.38,8.95-1.57,5.83-2.35,8.75-1.52,5.79-2.36,9l26.83-7.16,5.15,19.29-26.89,7.18ZM974.57,323l-2.06.55q-40.46,10.8-80.93,21.56a3.2,3.2,0,0,0-2.62,2.64q-10.8,40.74-21.72,81.44a2.77,2.77,0,0,0,.81,3.11q29.89,30,59.69,60.06a2.75,2.75,0,0,0,3.1.8q40.73-10.92,81.49-21.75a2.75,2.75,0,0,0,2.25-2.27q10.77-40.64,21.68-81.24a3.51,3.51,0,0,0-1-4q-25.06-25.07-50-50.24Z"/><path class="cls-2" d="M933.63,476.39l-6.84-6.85q-20.68-20.81-41.39-41.6a3.06,3.06,0,0,1-.92-3.44q8.57-31.85,17-63.74a3.49,3.49,0,0,1,2.84-2.93q31.73-8.36,63.4-16.91a3.35,3.35,0,0,1,3.77,1q23.19,23.46,46.47,46.82c.46.46.91.94,1.45,1.49-.09.45-.16,1-.29,1.46Q1010.54,424,1002,456.21a3.19,3.19,0,0,1-2.58,2.68q-31.92,8.41-63.79,17Zm30.22-113.63-45.42,12.12c-.13.35-.27.64-.36,1q-5.8,21.69-11.61,43.37a2.34,2.34,0,0,0,.81,2.57q15.44,15.47,30.81,31a2.88,2.88,0,0,0,3.25.86c13.95-3.78,27.92-7.49,41.88-11.21L985,442c.19-.66.39-1.28.56-1.91,3.74-14,7.46-28,11.26-42a2.76,2.76,0,0,0-.89-3.09q-14.2-14.2-28.33-28.48C966.35,365.21,965.08,364,963.85,362.77Z"/><path class="cls-3" d="M1628.29,531.64l-30.48,13.57-21-47.18c-5.06,6.55-9.49,13.05-14.37,19.51L1535.52,498c.41-.64.77-1.25,1.19-1.82q11.47-15.77,23-31.51a3.42,3.42,0,0,0,.52-4c-3-6.44-5.82-13-8.72-19.45-.29-.66-.66-1.28-1.17-2.28l-33.23,45.67-26.94-19.54c.47-.69.88-1.36,1.34-2q20.89-28.73,41.83-57.42a3.76,3.76,0,0,0,.44-4.42c-3-6.51-5.9-13.09-8.79-19.67a7.1,7.1,0,0,0-2.49-3.06c-5.35-3.82-10.66-7.71-16-11.57-.6-.44-1.22-.84-2-1.39-.12.88-.24,1.6-.31,2.32q-3,28-5.91,56a7.49,7.49,0,0,1-1.51,3.88c-3.31,4.43-6.55,8.91-9.83,13.36-.43.59-.89,1.16-1.52,2-.34-.64-.6-1.05-.79-1.49-2.33-5.26-4.65-10.54-7-15.8a7.7,7.7,0,0,1-.61-4.13q3-27.64,5.88-55.29c.08-.8.12-1.61.19-2.65-.73.24-1.28.38-1.79.6-6.43,2.85-12.86,5.69-19.26,8.6a5.9,5.9,0,0,0-2.28,1.69c-4.58,6.19-9.08,12.43-13.59,18.66-.26.36-.47.75-.78,1.24L1476,463.44,1445.66,477l-22.71-51c-1.43.93-13.67,17.39-15.68,21l17.51,39.32-30.4,13.54-9.73-21.85c-3,3.67-5.37,7.23-7.91,10.66s-5,6.88-7.53,10.32-5.08,7-7.63,10.53-5,6.85-7.61,10.41l-27-19.58,30.51-42-24.09-2.56,3.51-33.14,43.31,4.5,15.41-21.21-56.33-5.9,3.5-33.16,3.25.32q35,3.65,70,7.34a3.41,3.41,0,0,0,3.68-1.65c4.13-5.86,8.43-11.6,12.61-17.43a5.89,5.89,0,0,0,1.18-2.58c.83-7.28,1.55-14.56,2.3-21.85,0-.35,0-.7,0-1.44l-2.63,1.17q-25.21,11.23-50.42,22.47a7.52,7.52,0,0,1-4.11.65c-5.79-.67-11.59-1.25-17.38-1.87-.51-.05-1-.17-1.71-.3.46-.68.8-1.22,1.17-1.73,3.4-4.64,6.84-9.25,10.2-13.91a6.83,6.83,0,0,1,2.91-2.32q25.54-11.32,51.05-22.71l2.66-1.18c-.76-.61-1.2-1-1.66-1.33-5.56-4-11.11-8.1-16.7-12.11a5.42,5.42,0,0,0-2.39-1.05c-8.17-.91-16.34-1.74-24.52-2.59a3.25,3.25,0,0,0-.62.09l-44.55,61.23-27-19.57,33.3-45.83-26.07-2.74-25.62,35.22-27-19.58L1279,281.94l-51.61-5.42,3.52-33.17,51.49,5.37a51.16,51.16,0,0,0-2.36-5.66c-.77-1.79-1.58-3.56-2.37-5.33l-2.46-5.53-2.33-5.24c1.43-1.18,27.36-12.87,30.35-13.7.36.73.77,1.49,1.12,2.29,5.18,11.61,10.4,23.21,15.46,34.87a3.88,3.88,0,0,0,3.79,2.65c6.55.57,13.08,1.32,19.62,2l3.54.35c-.58-2.45-1.79-4.43-2.66-6.52s-1.94-4.38-2.91-6.56l-2.83-6.35-2.83-6.35-2.83-6.35-2.92-6.56-2.83-6.35-2.88-6.47,30.46-13.56,1.09,2.46q14.33,32.18,28.62,64.39a3.75,3.75,0,0,0,3.58,2.61c7.07.62,14.12,1.43,21.18,2.19a6.72,6.72,0,0,0,3.68-.55c6.19-2.83,12.42-5.56,18.64-8.33l2.11-.94c-.85-.67-1.46-1.18-2.1-1.65q-22.23-16.13-44.48-32.23a9.81,9.81,0,0,1-3.45-4.24c-2.1-4.88-4.36-9.68-6.56-14.52-.3-.65-.59-1.31-1-2.23,1,0,1.62,0,2.27.08,5.8.6,11.59,1.23,17.39,1.81a6,6,0,0,1,3.07,1.18q22.57,16.42,45.18,32.8c.64.47,1.31.9,2.18,1.51.15-.92.29-1.55.36-2.19.73-6.84,1.43-13.68,2.19-20.51a6.37,6.37,0,0,0-.56-3.46c-3-6.55-5.9-13.09-8.74-19.69a3.29,3.29,0,0,0-3.11-2.27q-35.45-3.62-70.89-7.37c-.74-.08-1.47-.19-2.45-.33l3.5-33.14,56.15,5.87c-.3-.85-.47-1.47-.73-2-3-6.7-6-13.38-8.9-20.11a2.94,2.94,0,0,0-2.84-2c-13-1.31-26-2.7-39-4.06-.66-.07-1.32-.17-2.28-.3L1372.08,90l23.74,2.46c-.23-2.06-1.33-3.59-2-5.27s-1.57-3.56-2.36-5.34l-2.28-5.12-2.37-5.33-2.28-5.12-2.37-5.33-2.28-5.12-2.37-5.33-2.31-5.19,30.42-13.54,21,47.16c5-6.53,9.48-13,14.4-19.55,9,6.44,17.9,13,27,19.54l-25.57,35.2,10.6,23.82c3.94-5.09,7.5-10.21,11.17-15.23s7.3-10,11-15l11.21-15.42,27,19.58c-14.84,20.51-29.73,40.86-44.57,61.34.2.55.38,1.11.61,1.64,3,6.77,6,13.54,9.06,20.29a5.88,5.88,0,0,0,1.7,2.26c6,4.44,12.08,8.8,18.13,13.19.22.16.47.28.89.52.14-1,.27-1.76.36-2.56q2.91-27.54,5.79-55.07a8,8,0,0,1,1.52-4.11c3.37-4.57,6.64-9.21,10-13.81.34-.47.71-.91,1.21-1.53.41.78.73,1.34,1,1.93,2.35,5.26,4.66,10.53,7.05,15.77a6.75,6.75,0,0,1,.57,3.68q-3,27.64-5.87,55.29c-.08.79-.11,1.59-.17,2.6.76-.29,1.31-.47,1.83-.71,6.36-2.82,12.71-5.67,19.07-8.47a5.53,5.53,0,0,0,2.39-1.91c4.31-6,8.65-12,13.08-17.92a3.13,3.13,0,0,0,.34-3.64q-14.43-32.26-28.78-64.56l-1.2-2.7,30.11-13.4a2,2,0,0,1,.26.07.5.5,0,0,1,.17.12,1.63,1.63,0,0,1,.26.36l22.59,50.73c.56-.64,1-1.08,1.37-1.58,4.36-6,8.67-12,13.09-17.91a3,3,0,0,0,.3-3.44c-5.28-11.73-10.49-23.49-15.73-35.25l-1.12-2.52L1609,76.95l9.8,22c3.73-4.77,7-9.46,10.33-14s6.68-9.18,10-13.77L1649.48,57l27,19.53c-5,7.07-10.08,13.92-15.08,20.85s-10.1,13.89-15.4,21.18l24.1,2.56-3.51,33.07c-.91-.06-1.7-.09-2.49-.17-12.86-1.34-25.72-2.65-38.56-4.08a3.41,3.41,0,0,0-3.67,1.67c-4.13,5.86-8.4,11.62-12.62,17.43-.38.53-.73,1.08-1.3,1.92l56.25,5.91L1660.66,210l-75.52-7.89-5.26,7.24c-3.08,4.23-6.18,8.44-9.22,12.69a5.45,5.45,0,0,0-1,2.4c-.83,7.35-1.58,14.71-2.35,22.07a5.53,5.53,0,0,0,.11.92c.79-.31,1.53-.56,2.23-.87q25.53-11.35,51-22.74a8,8,0,0,1,4.32-.7c6.24.66,12.48,1.23,19,1.86-.38.64-.63,1.13-.95,1.58-3.46,4.78-7,9.53-10.39,14.34a7.18,7.18,0,0,1-3.09,2.44q-25.33,11.23-50.64,22.53l-2.44,1.09c.66.57,1.07,1,1.53,1.31q8.51,6.21,17.06,12.38a4.94,4.94,0,0,0,2.2.94c8.09.89,16.19,1.72,24.45,2.57l44.68-61.39,27,19.57L1660,288.16l26,2.76,25.63-35.2,27,19.55-14.18,19.53c5.89.85,11.57,1.27,17.23,1.9s11.29,1.19,16.94,1.78l17.4,1.83-3.5,33.17-51.65-5.39c3.29,7.54,6.52,14.64,9.64,21.74-1.4,1.13-26.33,12.4-30.35,13.72l-8.81-19.74-8.79-19.73-26-2.72,22.77,51.16c-1.35,1.21-27.34,12.94-30.53,13.81l-1.13-2.55q-14.28-32.08-28.53-64.18a3.61,3.61,0,0,0-3.41-2.53c-7.14-.62-14.27-1.46-21.41-2.15a5.9,5.9,0,0,0-2.81.31c-6.79,3-13.54,6-20.31,9a10.3,10.3,0,0,0-.94.57c.51.45.91.86,1.36,1.19q22.67,16.47,45.37,32.9a8.61,8.61,0,0,1,3,3.76c2.17,5.09,4.45,10.14,6.68,15.2.24.54.44,1.1.74,1.88-.71,0-1.27,0-1.82,0-5.8-.62-11.59-1.28-17.39-1.85a6.39,6.39,0,0,1-3.26-1.27q-22.84-16.62-45.72-33.19c-.6-.44-1.22-.85-2-1.4-.13.83-.25,1.47-.32,2.12-.73,6.84-1.42,13.68-2.19,20.51a6,6,0,0,0,.58,3.23c3,6.76,6.08,13.51,9,20.31a3.13,3.13,0,0,0,3,2.13q35.78,3.67,71.55,7.45l1.87.22c-1.1,11-2.31,22-3.49,33.16l-56.21-5.88,10.66,23.94,43.17,4.53-3.51,33.17-24.13-2.49ZM1493,268.88a10.42,10.42,0,0,0,.29-1.15c1.09-10.24,2.16-20.49,3.3-30.73a2.48,2.48,0,0,0-1.27-2.56q-12.33-8.93-24.62-17.93a9.14,9.14,0,0,0-1.3-.66,4.07,4.07,0,0,0-.18.59c-1.08,10.47-2.15,20.94-3.27,31.41a2.14,2.14,0,0,0,1.08,2.21c3.22,2.29,6.41,4.64,9.61,7Zm-12.66,17.33c-.61-.5-1-.89-1.49-1.22-7.92-5.76-15.86-11.47-23.73-17.29a3.13,3.13,0,0,0-3.64-.3c-8.65,3.91-17.34,7.75-26,11.62-.65.29-1.28.65-2.22,1.13l26.74,19.58Zm64.48-28.68,3.34-33c-.71.24-1.13.34-1.52.51-9.08,4-18.14,8.1-27.25,12.09a2.65,2.65,0,0,0-1.68,2.57c-1,9.73-2,19.45-3.06,29.17-.07.64-.07,1.29-.11,2.12Zm-89.74,95,30.71-13.67,3.47-32.94-30.76,13.69Zm55.59-44.41a6.43,6.43,0,0,0-.23.77c-1.1,10.33-2.18,20.66-3.33,31a2.28,2.28,0,0,0,1.19,2.37q12.2,8.76,24.37,17.56c.32.23.69.39,1.29.72l3.55-32.93Zm69.84-11.43c-.48-.42-.69-.63-.92-.8-8.15-5.94-16.32-11.85-24.43-17.85a2.63,2.63,0,0,0-3-.22c-8.87,4-17.75,7.92-26.63,11.88-.65.29-1.27.65-2.26,1.15l26.77,19.42Z"/><rect class="cls-2" x="1" y="369.29" width="1919" height="318.33"/><rect class="cls-4" y="634.1" width="1920" height="52.12"/><path class="cls-5" d="M340.31,522.18l1.5-4.94-3.36.68L338,516c1.17-.24,2.3-.54,3.46-.68.84-.1,1.29-.45,1.4-1.29a7.12,7.12,0,0,1,.31-1l-6.34,1.29-.47-1.93.41-.11,6.72-1.36c.25,0,.4-.13.45-.4s.18-.62.3-1l-3.39.68-.48-1.94,2.13-.44c.71-.15,1.42-.28,2.12-.44a.5.5,0,0,0,.33-.25c.62-2,1.22-4,1.82-6a.52.52,0,0,0,0-.13l-1.7.28c-1.54.26-3.08.54-4.62.79a.5.5,0,0,0-.46.39c-.43,1.28-.88,2.56-1.33,3.86l-1.92-.58,1-3.19c-.43.08-.84.14-1.24.23-.08,0-.16.16-.2.25-.51,1.48-1,3-1.52,4.44-.25.75-.46,1.51-.7,2.28l-2.06-.63,2-5.94c-.57.09-1.09.22-1.61.25a.85.85,0,0,0-.85.74c-.33,1.11-.72,2.2-1.1,3.29a2.23,2.23,0,0,1-.13.27l-1.9-.58,1-3.18-5.23.88-.41-1.95L329,502l-2.28-2.6,1.55-1.26.4.44c.81.92,1.62,1.83,2.42,2.75a.55.55,0,0,0,.6.22c.59-.13,1.19-.21,1.87-.33l-4.28-4.86,1.53-1.25c.09.09.18.16.25.25,1.52,1.72,3.05,3.44,4.56,5.17a.57.57,0,0,0,.64.23c.32-.08.64-.12,1-.19l-2.29-2.6,1.55-1.26.5.55c.79.9,1.58,1.8,2.38,2.69a.56.56,0,0,0,.42.18c2-.33,4-.68,6.06-1l.14-.06-.24-.26c-1.41-1.34-2.82-2.67-4.22-4a.54.54,0,0,0-.59-.14l-4.12,1.09-.59-1.92,3.35-.89c-.36-.34-.64-.64-1-.9a.59.59,0,0,0-.43,0l-6.33,1.66-.7.18-.59-1.91,6.25-1.64c-.53-.51-1-1-1.5-1.43a.59.59,0,0,0-.46,0l-3.85,1-.29.06-.59-1.91,3.34-.88-3.88-3.7,1.42-1.39,3.85,3.65,1-3.16,1.91.58a3,3,0,0,1-.06.34c-.31,1.15-.62,2.31-1,3.46a.63.63,0,0,0,.2.76c.45.38.86.8,1.34,1.26l1.63-6.06,2,.6-.77,2.89c-.35,1.33-.71,2.67-1.06,4a.38.38,0,0,0,.06.31c.27.28.57.54.88.84l1-3.17,1.91.58c-.16.61-.32,1.25-.49,1.89s-.39,1.42-.56,2.14a.46.46,0,0,0,.08.37q2.32,2.23,4.65,4.43a.64.64,0,0,0,.13.07c0-.11.09-.22.12-.33.57-1.86,1.13-3.73,1.71-5.59a.5.5,0,0,0-.15-.58c-.91-.91-1.81-1.83-2.71-2.75l-.28-.3,1.47-1.34,2.44,2.45c.14-.45.28-.83.35-1.22,0-.11-.11-.27-.21-.38l-4.89-5-.19-.22,1.47-1.34,4.55,4.6c.21-.7.42-1.33.58-2,0-.1-.08-.26-.17-.35l-2.66-2.7-.36-.37,1.47-1.35,2.42,2.44,1.49-4.91,2,.61-1.5,4.92,3.4-.68.48,1.94c-1.34.27-2.65.57-4,.8a.79.79,0,0,0-.74.69c-.11.49-.28,1-.45,1.52l6.34-1.28.47,1.93-.34.09-6.8,1.38a.48.48,0,0,0-.45.4c-.07.32-.18.62-.3,1l3.39-.68.48,1.94-2.32.48c-.64.13-1.29.25-1.93.41a.54.54,0,0,0-.35.29c-.61,1.95-1.2,3.9-1.79,5.85a1.58,1.58,0,0,0,0,.2l1.22-.19,5.16-.88a.44.44,0,0,0,.4-.34c.44-1.29.89-2.58,1.34-3.89l1.92.58-1,3.18c.42-.07.83-.13,1.24-.22.08,0,.17-.15.2-.25.51-1.48,1-3,1.52-4.44.25-.76.47-1.53.7-2.29l2.06.63-2,5.94c.74-.13,1.41-.23,2.07-.37.12,0,.24-.22.29-.37.4-1.14.78-2.29,1.16-3.44,0-.13.11-.26.15-.37l1.91.58-1,3.16,5.23-.88.41,2-5.29.92,2.28,2.59-1.55,1.27-2-2.28c-.3-.33-.58-.68-.89-1a.49.49,0,0,0-.36-.14c-.65.09-1.29.22-2,.34l4.28,4.85-1.55,1.26-1.37-1.54c-1.13-1.28-2.27-2.56-3.38-3.85a.67.67,0,0,0-.77-.26c-.29.08-.59.11-1,.17l2.28,2.6L360,502.69l-1.62-1.83c-.43-.48-.85-1-1.28-1.44a.48.48,0,0,0-.36-.14l-6.23,1a2.65,2.65,0,0,0,.2.25c1.43,1.36,2.86,2.71,4.28,4.08a.51.51,0,0,0,.56.13l3.7-1,.45-.11.6,1.91-3.35.88c.36.34.65.64,1,.91.08.06.27,0,.4,0l6.56-1.71.49-.12.59,1.91-6.26,1.65c.54.51,1,1,1.54,1.44a.5.5,0,0,0,.39,0l3.59-.94.61-.15.59,1.92-3.34.88,3.88,3.7-1.42,1.4-3.85-3.65-1,3.17-1.92-.58c.06-.24.12-.53.2-.81.28-1,.56-2.06.85-3.08a.53.53,0,0,0-.17-.62c-.46-.41-.9-.84-1.4-1.31l-1.63,6.06-2-.62c.16-.53.34-1.07.49-1.63q.7-2.59,1.37-5.19a.56.56,0,0,0-.12-.43c-.24-.27-.51-.52-.8-.79l-1,3.17-1.91-.58c.16-.61.32-1.25.49-1.9s.39-1.42.56-2.14a.45.45,0,0,0-.09-.37q-2.3-2.21-4.62-4.4l-.15-.11c0,.13-.09.23-.12.34-.56,1.85-1.12,3.7-1.7,5.55a.56.56,0,0,0,.16.65c.9.88,1.78,1.79,2.66,2.68l.31.33-1.47,1.34-2.43-2.45c-.14.45-.27.83-.36,1.22,0,.1.09.26.18.35l4.85,4.91.27.3-1.47,1.34-4.55-4.61c-.21.69-.41,1.3-.57,1.92a.52.52,0,0,0,.16.39c.92.94,1.84,1.87,2.77,2.81l.25.27-1.46,1.34-2.42-2.44-1.5,4.94Z"/><path class="cls-5" d="M179,336.89l-6.85-1.95,3-10.6c-1.73.38-3.34.84-5,1.23l-1.74-6.88.44-.14c2.69-.68,5.38-1.36,8.07-2a.73.73,0,0,0,.63-.59c.39-1.47.82-2.92,1.23-4.38,0-.15.07-.3.12-.53L167.23,314l-1.74-6.89.49-.14q7.35-1.85,14.71-3.69a.8.8,0,0,0,.68-.66c.39-1.48.82-3,1.25-4.42a1.51,1.51,0,0,0,0-.84c-.35-1.36-.69-2.72-1-4.08,0-.15-.09-.3-.14-.51l-.37.34-8.62,8.36a1.6,1.6,0,0,1-.78.43l-3.44.85-.52.11c0-.15,0-.25.07-.35.34-1.18.68-2.36,1-3.55a1.64,1.64,0,0,1,.46-.76l8.53-8.26.39-.41c-.15-.06-.26-.11-.38-.15l-4.33-1.23a1.26,1.26,0,0,0-.6,0c-1.6.39-3.19.79-4.78,1.2l-.3.1-4.4,15.49-6.82-1.94,3.26-11.47a42.71,42.71,0,0,0-5.44,1.3l-2.51,8.84-6.83-1.94,1.39-4.91c-1,.19-1.87.45-2.75.67l-2.65.66-2.69.68-2.67.66-1.75-6.9,10.74-2.71-3.6-3.71,5.11-5,6.48,6.66,5.43-1.37-8.42-8.67,5.11-5,.49.5q5.24,5.38,10.46,10.78a.73.73,0,0,0,.83.23c1.48-.39,3-.75,4.45-1.13a1.26,1.26,0,0,0,.55-.26c1.13-1.08,2.25-2.17,3.37-3.27.05-.05.1-.11.2-.23l-.59-.17-11.34-3.21a1.6,1.6,0,0,1-.76-.46c-.86-.9-1.73-1.79-2.59-2.68-.08-.08-.14-.17-.24-.28l.43-.12,3.58-.88a1.46,1.46,0,0,1,.79,0l11.47,3.26.6.17c0-.2-.06-.33-.09-.44-.36-1.42-.71-2.85-1.08-4.27a1.16,1.16,0,0,0-.25-.5c-1.21-1.27-2.44-2.52-3.66-3.78l-.11-.07L155.6,268l-1.75-6.9,11.73-3-3.9-4-9,2.27-1.74-6.9,5-1.27-7.72-7.95,5.11-5,7.7,7.92a10.92,10.92,0,0,0,.39-1.25c.12-.4.23-.8.34-1.2l.35-1.24.33-1.18c.4,0,6.24,1.63,6.85,1.91,0,.17-.08.35-.13.53-.74,2.61-1.47,5.23-2.24,7.83a.83.83,0,0,0,.26,1c1,1,2,2,2.94,3l.53.54a8.73,8.73,0,0,0,.46-1.43c.15-.49.28-1,.42-1.47l.41-1.43.41-1.43.41-1.43.42-1.47.41-1.43.41-1.46,6.85,1.94-.16.55q-2.05,7.23-4.12,14.47a.8.8,0,0,0,.23.92c1.07,1.07,2.12,2.17,3.17,3.26a1.43,1.43,0,0,0,.68.41c1.4.38,2.8.79,4.19,1.18l.47.13c0-.23-.08-.39-.12-.56q-1.44-5.68-2.88-11.37a2.09,2.09,0,0,1,0-1.17c.32-1.09.61-2.18.91-3.28l.14-.5c.16.14.26.22.36.32l2.6,2.67a1.28,1.28,0,0,1,.34.61q1.45,5.78,2.92,11.55c0,.16.09.33.15.55.15-.13.26-.21.36-.31l3.16-3.06a1.36,1.36,0,0,0,.38-.64c.41-1.48.82-3,1.26-4.42a.7.7,0,0,0-.2-.8q-5.32-5.44-10.61-10.9l-.36-.39,5.11-5,8.4,8.64c.07-.18.12-.3.16-.44.43-1.5.85-3,1.29-4.51a.63.63,0,0,0-.19-.71q-2.93-3-5.84-6l-.33-.36,5.11-4.95,3.55,3.65a4.13,4.13,0,0,0,.39-1.14c.13-.39.23-.8.34-1.2l.33-1.15.34-1.2.33-1.15.34-1.2.33-1.15.34-1.2.33-1.17,6.84,1.94-3,10.6c1.72-.38,3.34-.84,5-1.23.6,2.29,1.16,4.58,1.75,6.89l-9,2.27-1.52,5.35c1.34-.3,2.62-.65,3.91-1l3.85-1,3.95-1,1.75,6.9c-5.24,1.33-10.46,2.63-15.69,4,0,.12-.09.23-.12.35-.43,1.52-.87,3-1.29,4.56a1.25,1.25,0,0,0,0,.6c.38,1.55.77,3.09,1.17,4.64,0,.06,0,.11.07.21l.41-.37,8.48-8.23a1.7,1.7,0,0,1,.81-.47c1.18-.29,2.35-.6,3.52-.9l.41-.09c0,.18-.06.32-.1.45-.33,1.18-.68,2.36-1,3.55a1.44,1.44,0,0,1-.41.68l-8.52,8.26-.38.4.4.13,4.28,1.22a1.18,1.18,0,0,0,.65,0c1.53-.39,3.06-.78,4.59-1.15a.67.67,0,0,0,.55-.55q2-7.26,4.12-14.52l.17-.61,6.77,1.92,0,0a.11.11,0,0,1,0,0,.35.35,0,0,1,0,.09L223.27,268c.18,0,.31,0,.44-.07,1.53-.38,3.06-.78,4.59-1.15a.63.63,0,0,0,.52-.52c.74-2.64,1.49-5.29,2.24-7.93l.16-.57,6.83,1.94-1.41,4.95c1.26-.27,2.43-.6,3.61-.89l3.53-.89,3.63-.91,1.75,6.89c-1.78.48-3.56.9-5.32,1.35l-5.42,1.36,3.6,3.72-5.1,4.94-.38-.37c-1.92-2-3.85-4-5.76-5.94a.73.73,0,0,0-.83-.23c-1.48.4-3,.76-4.45,1.13L225,275l8.41,8.66-5.11,5L217,277l-1.85.47-3.25.82a1.16,1.16,0,0,0-.5.25c-1.14,1.09-2.27,2.19-3.4,3.3a1.18,1.18,0,0,0-.11.16l.49.16,11.47,3.25a1.72,1.72,0,0,1,.8.48c.93,1,1.88,1.91,2.86,2.9-.15.05-.26.1-.37.13l-3.66.93a1.53,1.53,0,0,1-.84,0l-11.38-3.24-.55-.16c0,.18,0,.31.07.42.36,1.45.73,2.91,1.1,4.36a1.05,1.05,0,0,0,.23.46c1.2,1.25,2.42,2.5,3.66,3.77l15.72-3.95,1.75,6.9-11.72,3,3.89,4,9-2.26,1.75,6.9-5,1.26c.85.94,1.72,1.79,2.56,2.67l2.53,2.61,2.6,2.68-5.11,5L222,316.21c-.49,1.69-.93,3.29-1.39,4.88-.39,0-6-1.57-6.85-1.9l1.26-4.44,1.26-4.44-3.89-4-3.26,11.5c-.39,0-6.25-1.62-6.89-1.91l.16-.57q2-7.21,4.1-14.42a.77.77,0,0,0-.21-.88c-1.09-1.08-2.14-2.19-3.21-3.28a1.26,1.26,0,0,0-.5-.33c-1.52-.45-3-.87-4.56-1.3l-.23,0c0,.14,0,.27.06.38q1.46,5.8,2.94,11.6a1.84,1.84,0,0,1,0,1c-.34,1.13-.66,2.27-1,3.4,0,.12-.08.24-.14.41-.12-.1-.21-.17-.29-.25-.87-.89-1.72-1.79-2.6-2.68a1.36,1.36,0,0,1-.36-.65q-1.47-5.85-3-11.69c0-.15-.08-.31-.14-.51l-.34.3c-1.05,1-2.1,2-3.16,3.06a1.27,1.27,0,0,0-.35.61c-.43,1.52-.85,3-1.3,4.56a.67.67,0,0,0,.2.76q5.36,5.5,10.71,11l.28.29c-1.69,1.66-3.39,3.29-5.11,5L185.84,313l-1.53,5.38,6.46,6.65-5.11,5L182,326.27Zm13.76-61.57a2.22,2.22,0,0,0,.21-.15q2.37-2.29,4.74-4.58a.53.53,0,0,0,.14-.59c-.53-2.1-1.05-4.2-1.58-6.31a2,2,0,0,0-.12-.29l-.11.07-4.83,4.7a.46.46,0,0,0-.13.51c.21.82.42,1.64.62,2.46Zm-4.44,1.11c0-.17,0-.29-.08-.4-.51-2-1-4-1.52-6.08a.67.67,0,0,0-.56-.55l-5.85-1.65-.52-.12,1.7,6.87Zm14.49,4.12,5.06-4.95-.32-.12c-2-.58-4.08-1.15-6.12-1.75a.57.57,0,0,0-.63.19l-4.49,4.36c-.1.1-.19.2-.31.33Zm-27.69,3.29,6.9,2,5.07-4.92-6.91-2Zm15.18.33-.14.09q-2.39,2.31-4.78,4.62a.49.49,0,0,0-.13.55c.53,2.07,1.06,4.14,1.59,6.21,0,.08.06.16.11.29l5.09-4.91Zm13,7.68c0-.14,0-.2,0-.26-.52-2.09-1.05-4.17-1.56-6.27a.56.56,0,0,0-.47-.45l-6-1.7-.53-.12,1.73,6.84Z"/><path class="cls-5" d="M1769.6,330.91l2.41-4.06h.42l8.69.14a.6.6,0,0,0,.61-.33c.79-1.35,1.59-2.69,2.39-4l.23-.38-16.48-.24,2.42-4.07,14.11.19-4.4-7.84,4.78.08,3.21,5.71c.1-.14.17-.23.23-.33.58-1,1.15-1.95,1.74-2.91a.6.6,0,0,0,0-.7q-3.11-5.5-6.21-11l-2.32-4.12-.27-.46-4.18-.06.23.44c.93,1.65,1.86,3.29,2.8,4.93a.59.59,0,0,1,0,.7c-.67,1.1-1.32,2.22-2,3.33l-.25.41-4.4-7.79c-.1.15-.17.24-.23.34l-2,3.32q-2.4,4-4.78,8a.66.66,0,0,1-.67.38c-1.28,0-2.56-.05-3.83-.07l-.44,0c.54-1,1.13-1.89,1.67-2.82s1.11-1.87,1.67-2.81l1.67-2.81,1.67-2.81,1.7-2.87-5.56-.09-4.85,8.16-4.71-.08c1.59-2.76,3.22-5.4,4.81-8.15l-5.81-.09,0-4.1c1.93,0,3.84.06,5.81.07l-4.64-8.27.34,0c1.35,0,2.69,0,4,0a.54.54,0,0,1,.54.32c1.41,2.53,2.84,5.05,4.24,7.58a.72.72,0,0,0,.73.43c1.54,0,3.07,0,4.61.06l.45,0-8.09-14.35c1.61,0,3.16,0,4.74,0l6.94,12.28a11.68,11.68,0,0,0,.79-1.26c.26-.42.5-.84.75-1.26l.77-1.3.75-1.26.75-1.26.77-1.3c.1.16.18.27.24.38.64,1.15,1.28,2.31,1.94,3.45a.57.57,0,0,1,0,.66c-1,1.67-2,3.34-3,5l-.13.25a2.21,2.21,0,0,0,.29,0l3.71.06a.39.39,0,0,0,.42-.23,1.68,1.68,0,0,1,.1-.18q4.39-7.39,8.79-14.77a.68.68,0,0,0,0-.81c-.56-.95-1.09-1.91-1.63-2.87l-.27-.46-3.33,5.6-4.78-.06,4.58-7.7c-1.64,0-3.19-.06-4.75-.08l-4.69-.08-4.72-.08-2.32-4.14,16.5.26-2.73-4.83-9.52-.14-2.32-4.14,9.51.13-2.84-5.06,3.59-2,2.85,5.05c.47-.7.84-1.38,1.24-2l1.21-2,1.19-2,1.21-2c.11.16.18.26.24.36.65,1.15,1.29,2.3,2,3.44a.53.53,0,0,1,0,.63c-1.48,2.47-3,5-4.44,7.43a.69.69,0,0,0,0,.81c.78,1.34,1.53,2.7,2.29,4l.23.37,8.35-14a36,36,0,0,1,2.38,4.09l-7.18,12.08,9,.14-2.43,4.09-6.57-.1,2.15,3.82,18.12.27,2.23-3.75H1814c-1.88,0-3.75-.06-5.63-.07a.53.53,0,0,1-.54-.31c-.64-1.17-1.31-2.32-2-3.48l-.2-.37,9,.13c-.57-1.07-1.15-2.07-1.72-3.08l-1.73-3.1-1.72-3.06-1.72-3.07,2.41-4.06c.71,1.21,1.36,2.41,2,3.6s1.33,2.37,2,3.56l2,3.59,2,3.58,2.82-4.74c-.06-.12-.12-.25-.19-.38q-2.12-3.77-4.25-7.53a.62.62,0,0,1,0-.73c.67-1.09,1.32-2.19,2-3.29l.25-.42,4.67,8.27,2.94-4.94,3.56,2.12-2.94,4.95,9.49.16-2.42,4.06h-1c-2.68,0-5.36-.08-8-.13a.62.62,0,0,0-.64.36c-.77,1.33-1.56,2.65-2.35,4l-.25.42c1.13.05,2.21,0,3.29.06l3.3,0,3.26,0,3.3,0,3.33.05-.52.87c-.58,1-1.16,1.94-1.73,2.92a.51.51,0,0,1-.52.29l-13.3-.18h-.49l4.4,7.83-4.78-.09-3.21-5.71c-.11.15-.19.26-.25.37-.59,1-1.16,2-1.76,2.94a.62.62,0,0,0,0,.74c1.25,2.2,2.49,4.4,3.73,6.61l4.84,8.6.16.27,4.31.06-3.22-5.71,2.43-4.09,4.4,7.8.25-.42,4.4-7.36c.8-1.33,1.6-2.66,2.38-4a.56.56,0,0,1,.58-.33c1.3,0,2.61.05,3.92.07l.41,0-8.37,14.07a3.44,3.44,0,0,0,.36,0c1.6,0,3.21,0,4.81.08a.56.56,0,0,0,.58-.33c1.47-2.48,3-5,4.41-7.45a.68.68,0,0,1,.71-.39c1.25,0,2.5,0,3.75.07l.5,0-4.82,8.11c.71.06,1.34,0,2,.05l1.88,0,2,0c0,1.37,0,2.72,0,4.11l-5.81-.08,4.66,8.3-4.74-.06-1.2-2.13q-1.65-2.93-3.3-5.87a.51.51,0,0,0-.5-.32l-4.94-.06-.28,0,8.1,14.35-4.75-.06-7-12.31c-.8,1.3-1.53,2.56-2.28,3.81l-2.25,3.79a32.43,32.43,0,0,1-2.39-4.11l3.33-5.6-.49,0c-1.1,0-2.2,0-3.3-.06a.6.6,0,0,0-.61.34q-2.49,4.22-5,8.42c-1.3,2.19-2.6,4.38-3.91,6.56a.6.6,0,0,0,0,.7c.57,1,1.11,2,1.67,2.95l.23.37.25-.42c1-1.62,1.92-3.23,2.86-4.85a.62.62,0,0,1,.64-.36c1.28,0,2.56,0,3.83.05l.51,0c-.24.48-.51.88-.75,1.29l-.75,1.26-.77,1.3-.75,1.26-.75,1.26-.79,1.32,14.15.23,2.32,4.14-16.47-.25c.07.14.11.25.17.35.78,1.39,1.57,2.77,2.33,4.16a.57.57,0,0,0,.57.34l8.53.11a2.41,2.41,0,0,0,.33,0,.41.41,0,0,1,.44.27c.35.65.71,1.28,1.07,1.92l1.09,2-9.49-.13c.93,1.72,1.9,3.36,2.82,5.07l-3.58,2-2.81-5c-.2.07-.24.24-.32.38l-4.31,7.22-.28.47-2.33-4.12,4.85-8.16-2.72-4.84c-1.44,2.38-2.81,4.72-4.19,7.05l-4.19,7c-.09-.13-.16-.21-.21-.3-.66-1.16-1.3-2.33-2-3.48a.54.54,0,0,1,0-.63q1.7-2.84,3.38-5.69l3.38-5.73.23-.39c-3-.07-5.95-.09-8.94-.15.06-.13.08-.21.13-.28.69-1.16,1.39-2.31,2.07-3.47a.6.6,0,0,1,.62-.33c1.89,0,3.78.07,5.67.1h.48c-.07-.14-.12-.25-.18-.35-.55-1-1.11-2-1.66-3a.52.52,0,0,0-.5-.31l-17.78-.26h-.25l-2.1,3.54c2.21,0,4.38.06,6.56.1l2.35,4.15-9-.12,6.9,12.31-2.41,4.05c-.72-1.2-1.36-2.4-2-3.58s-1.33-2.37-2-3.56l-2-3.59-2-3.59-2.83,4.75,4.65,8.24-2.41,4.05c-.36-.54-.63-1.09-.94-1.62s-.61-1.09-.92-1.64l-.94-1.67-.92-1.64-1-1.68-2.94,4.94-3.55-2.11,2.95-5Zm42.43-20.1.23-.38q4.43-7.45,8.87-14.9a.66.66,0,0,0,0-.77q-4.29-7.6-8.56-15.21a.57.57,0,0,0-.57-.34l-17.53-.26a.57.57,0,0,0-.57.33q-4.45,7.51-8.93,15a.57.57,0,0,0,0,.66q4.28,7.58,8.54,15.17a.73.73,0,0,0,.72.44q7.34.09,14.68.21Z"/><path class="cls-5" d="M1795.91,282.17l2,0,12.15.18a.63.63,0,0,1,.63.38q3.34,6,6.7,11.9a.72.72,0,0,1,0,.85q-3.49,5.83-6.95,11.68a.69.69,0,0,1-.71.4l-13.66-.21h-.43c-.05-.08-.12-.17-.17-.26q-3.39-6-6.79-12a.66.66,0,0,1,0-.77q3.51-5.86,7-11.75Zm12,21.21,5-8.37c0-.07-.05-.13-.09-.19q-2.28-4.05-4.55-8.11a.48.48,0,0,0-.49-.26q-4.53-.06-9.05-.14a.6.6,0,0,0-.61.34q-2.28,3.87-4.58,7.72l-.2.33.19.36q2.21,3.93,4.41,7.86a.57.57,0,0,0,.58.33l8.32.12Z"/><path class="cls-5" d="M556.6,224.91l2.41-4.06h.42l8.69.14a.6.6,0,0,0,.61-.33c.79-1.35,1.59-2.69,2.39-4l.23-.38L554.87,216l2.42-4.07,14.11.19-4.4-7.84,4.78.08,3.21,5.71c.1-.14.17-.23.23-.33.58-1,1.15-1.95,1.74-2.91a.6.6,0,0,0,0-.7q-3.11-5.5-6.21-11L568.42,191l-.27-.46-4.18-.06.23.44c.93,1.65,1.86,3.29,2.8,4.93a.59.59,0,0,1,0,.7c-.67,1.1-1.32,2.22-2,3.33l-.25.41-4.4-7.79c-.1.15-.17.24-.23.34l-2,3.32q-2.4,4-4.78,8a.66.66,0,0,1-.67.38c-1.28,0-2.56-.05-3.83-.07l-.44,0c.54-1,1.13-1.89,1.67-2.82s1.11-1.87,1.67-2.81l1.67-2.81,1.67-2.81,1.7-2.87-5.56-.09-4.85,8.16-4.71-.08c1.59-2.76,3.22-5.4,4.81-8.15l-5.81-.09,0-4.1c1.93,0,3.84.06,5.81.07l-4.64-8.27.34,0c1.35,0,2.69,0,4,0a.54.54,0,0,1,.54.32c1.41,2.53,2.84,5.05,4.24,7.58a.72.72,0,0,0,.73.43c1.54,0,3.07,0,4.61.06l.45,0-8.09-14.35c1.61,0,3.16,0,4.74,0l6.94,12.28a11.68,11.68,0,0,0,.79-1.26c.26-.42.5-.84.75-1.26l.77-1.3.75-1.26.75-1.26.77-1.3c.1.16.18.27.24.38.64,1.15,1.28,2.31,1.94,3.45a.57.57,0,0,1,0,.66c-1,1.67-2,3.34-3,5l-.13.25a2.21,2.21,0,0,0,.29,0l3.71.06a.39.39,0,0,0,.42-.23,1.68,1.68,0,0,1,.1-.18q4.39-7.39,8.79-14.77a.68.68,0,0,0,0-.81c-.56-.95-1.09-1.91-1.63-2.87l-.27-.46-3.33,5.6-4.78-.06,4.58-7.7c-1.64,0-3.19-.06-4.75-.08l-4.69-.08-4.72-.08-2.32-4.14,16.5.26L569.22,156l-9.52-.14-2.32-4.14,9.51.13L564,146.77l3.59-2,2.85,5.05c.47-.7.84-1.38,1.24-2l1.21-2,1.19-2,1.21-2c.11.16.18.26.24.36.65,1.15,1.29,2.3,2,3.44a.53.53,0,0,1,0,.63c-1.48,2.47-3,5-4.44,7.43a.69.69,0,0,0,0,.81c.78,1.34,1.53,2.7,2.29,4l.23.37,8.35-14a36,36,0,0,1,2.38,4.09l-7.18,12.08,9,.14-2.43,4.09-6.57-.1,2.15,3.82,18.12.27,2.23-3.75H601c-1.88,0-3.75-.06-5.63-.07a.53.53,0,0,1-.54-.31c-.64-1.17-1.31-2.32-2-3.48l-.2-.37,9,.13c-.57-1.07-1.15-2.07-1.72-3.08l-1.73-3.1L596.45,152,594.73,149l2.41-4.06c.71,1.21,1.36,2.41,2,3.6s1.33,2.37,2,3.56l2,3.59,2,3.58,2.82-4.74c-.06-.12-.12-.25-.19-.38q-2.12-3.77-4.25-7.53a.62.62,0,0,1,0-.73c.67-1.09,1.32-2.19,2-3.29l.25-.42,4.67,8.27,2.94-4.94,3.56,2.12L614,152.54l9.49.16-2.42,4.06h-1c-2.68,0-5.36-.08-8-.13a.62.62,0,0,0-.64.36c-.77,1.33-1.56,2.65-2.35,4l-.25.42c1.13.05,2.21,0,3.29.06l3.3,0,3.26,0,3.3,0,3.33.05-.52.87c-.58,1-1.16,1.94-1.73,2.92a.51.51,0,0,1-.52.29l-13.3-.18h-.49l4.4,7.83-4.78-.09-3.21-5.71c-.11.15-.19.26-.25.37-.59,1-1.16,2-1.76,2.94a.62.62,0,0,0,0,.74c1.25,2.2,2.49,4.4,3.73,6.61l4.84,8.6.16.27,4.31.06L613,181.41l2.43-4.09,4.4,7.8.25-.42,4.4-7.36c.8-1.33,1.6-2.66,2.38-4a.56.56,0,0,1,.58-.33c1.3,0,2.61.05,3.92.07l.41,0-8.37,14.07a3.44,3.44,0,0,0,.36,0c1.6,0,3.21,0,4.81.08a.56.56,0,0,0,.58-.33c1.47-2.48,3-5,4.41-7.45a.68.68,0,0,1,.71-.39c1.25,0,2.5,0,3.75.07l.5,0-4.82,8.11c.71.06,1.34,0,2,.05l1.88,0,2,0c0,1.37,0,2.72,0,4.11l-5.81-.08,4.66,8.3-4.74-.06-1.2-2.13q-1.65-2.93-3.3-5.87a.51.51,0,0,0-.5-.32l-4.94-.06-.28,0,8.1,14.35-4.75-.06-7-12.31c-.8,1.3-1.53,2.56-2.28,3.81L615.17,201a32.43,32.43,0,0,1-2.39-4.11l3.33-5.6-.49,0c-1.1,0-2.2,0-3.3-.06a.6.6,0,0,0-.61.34q-2.49,4.22-5,8.42c-1.3,2.19-2.6,4.38-3.91,6.56a.6.6,0,0,0,0,.7c.57,1,1.11,2,1.67,2.95l.23.37.25-.42c1-1.62,1.92-3.23,2.86-4.85a.62.62,0,0,1,.64-.36c1.28,0,2.56,0,3.83.05l.51,0c-.24.48-.51.88-.75,1.29l-.75,1.26-.77,1.3-.75,1.26-.75,1.26-.79,1.32,14.15.23,2.32,4.14-16.47-.25c.07.14.11.25.17.35.78,1.39,1.57,2.77,2.33,4.16a.57.57,0,0,0,.57.34l8.53.11a2.41,2.41,0,0,0,.33,0,.41.41,0,0,1,.44.27c.35.65.71,1.28,1.07,1.92l1.09,2-9.49-.13c.93,1.72,1.9,3.36,2.82,5.07l-3.58,2-2.81-5c-.2.07-.24.24-.32.38l-4.31,7.22-.28.47-2.33-4.12,4.85-8.16-2.72-4.84c-1.44,2.38-2.81,4.72-4.19,7.05l-4.19,7c-.09-.13-.16-.21-.21-.3-.66-1.16-1.3-2.33-2-3.48a.54.54,0,0,1,0-.63q1.7-2.84,3.38-5.69l3.38-5.73.23-.39c-3-.07-5.95-.09-8.94-.15.06-.13.08-.21.13-.28.69-1.16,1.39-2.31,2.07-3.47a.6.6,0,0,1,.62-.33c1.89,0,3.78.07,5.67.1h.48c-.07-.14-.12-.25-.18-.35-.55-1-1.11-2-1.66-3a.52.52,0,0,0-.5-.31l-17.78-.26h-.25l-2.1,3.54c2.21,0,4.38.06,6.56.1l2.35,4.15-9-.12,6.9,12.31L583,232.69c-.72-1.2-1.36-2.4-2-3.58s-1.33-2.37-2-3.56l-2-3.59-2-3.59-2.83,4.75,4.65,8.24-2.41,4.05c-.36-.54-.63-1.09-.94-1.62s-.61-1.09-.92-1.64l-.94-1.67-.92-1.64-1-1.68-2.94,4.94L563.16,230l2.95-5ZM599,204.81l.23-.38q4.43-7.45,8.87-14.9a.66.66,0,0,0,0-.77q-4.29-7.6-8.56-15.21a.57.57,0,0,0-.57-.34l-17.53-.26a.57.57,0,0,0-.57.33q-4.45,7.51-8.93,15a.57.57,0,0,0,0,.66q4.28,7.58,8.54,15.17a.73.73,0,0,0,.72.44q7.34.09,14.68.21Z"/><path class="cls-5" d="M582.91,176.17l2,0,12.15.18a.63.63,0,0,1,.63.38q3.34,6,6.7,11.9a.72.72,0,0,1,0,.85q-3.49,5.83-6.95,11.68a.69.69,0,0,1-.71.4l-13.66-.21h-.43c-.05-.08-.12-.17-.17-.26q-3.39-6-6.79-12a.66.66,0,0,1,0-.77q3.51-5.86,7-11.75Zm12,21.21,5-8.37c0-.07-.05-.13-.09-.19q-2.28-4.05-4.55-8.11a.48.48,0,0,0-.49-.26q-4.53-.06-9.05-.14a.6.6,0,0,0-.61.34q-2.28,3.87-4.58,7.72l-.2.33.19.36q2.21,3.93,4.41,7.86a.57.57,0,0,0,.58.33l8.32.12Z"/><path class="cls-5" d="M1168.6,286.91l2.41-4.06h.42l8.69.14a.6.6,0,0,0,.61-.33c.79-1.35,1.59-2.69,2.39-4l.23-.38-16.48-.24,2.42-4.07,14.11.19-4.4-7.84,4.78.08,3.21,5.71c.1-.14.17-.23.23-.33.58-1,1.15-1.95,1.74-2.91a.6.6,0,0,0,0-.7q-3.11-5.5-6.21-11l-2.32-4.12-.27-.46-4.18-.06.23.44c.93,1.65,1.86,3.29,2.8,4.93a.59.59,0,0,1,0,.7c-.67,1.1-1.32,2.22-2,3.33l-.25.41-4.4-7.79c-.1.15-.17.24-.23.34l-2,3.32q-2.4,4-4.78,8a.66.66,0,0,1-.67.38c-1.28,0-2.56-.05-3.83-.07l-.44,0c.54-1,1.13-1.89,1.67-2.82s1.11-1.87,1.67-2.81l1.67-2.81,1.67-2.81,1.7-2.87-5.56-.09-4.85,8.16-4.71-.08c1.59-2.76,3.22-5.4,4.81-8.15l-5.81-.09,0-4.1c1.93,0,3.84.06,5.81.07l-4.64-8.27.34,0c1.35,0,2.69,0,4,0a.54.54,0,0,1,.54.32c1.41,2.53,2.84,5.05,4.24,7.58a.72.72,0,0,0,.73.43c1.54,0,3.07,0,4.61.06l.45,0-8.09-14.35c1.61,0,3.16,0,4.74,0l6.94,12.28a11.68,11.68,0,0,0,.79-1.26c.26-.42.5-.84.75-1.26l.77-1.3.75-1.26.75-1.26.77-1.3c.1.16.18.27.24.38.64,1.15,1.28,2.31,1.94,3.45a.57.57,0,0,1,0,.66c-1,1.67-2,3.34-3,5l-.13.25a2.21,2.21,0,0,0,.29,0l3.71.06a.39.39,0,0,0,.42-.23,1.68,1.68,0,0,1,.1-.18q4.39-7.39,8.79-14.77a.68.68,0,0,0,0-.81c-.56-.95-1.09-1.91-1.63-2.87l-.27-.46-3.33,5.6-4.78-.06,4.58-7.7c-1.64,0-3.19-.06-4.75-.08l-4.69-.08-4.72-.08-2.32-4.14,16.5.26-2.73-4.83-9.52-.14-2.32-4.14,9.51.13-2.84-5.06,3.59-2,2.85,5.05c.47-.7.84-1.38,1.24-2l1.21-2,1.19-2,1.21-2c.11.16.18.26.24.36.65,1.15,1.29,2.3,2,3.44a.53.53,0,0,1,0,.63c-1.48,2.47-3,5-4.44,7.43a.69.69,0,0,0,0,.81c.78,1.34,1.53,2.7,2.29,4l.23.37,8.35-14a36,36,0,0,1,2.38,4.09l-7.18,12.08,9,.14-2.43,4.09-6.57-.1,2.15,3.82,18.12.27,2.23-3.75H1213c-1.88,0-3.75-.06-5.63-.07a.53.53,0,0,1-.54-.31c-.64-1.17-1.31-2.32-2-3.48l-.2-.37,9,.13c-.57-1.07-1.15-2.07-1.72-3.08l-1.73-3.1-1.72-3.06-1.72-3.07,2.41-4.06c.71,1.21,1.36,2.41,2,3.6s1.33,2.37,2,3.56l2,3.59,2,3.58,2.82-4.74c-.06-.12-.12-.25-.19-.38q-2.12-3.77-4.25-7.53a.62.62,0,0,1,0-.73c.67-1.09,1.32-2.19,2-3.29l.25-.42,4.67,8.27,2.94-4.94,3.56,2.12-2.94,4.95,9.49.16-2.42,4.06h-1c-2.68,0-5.36-.08-8-.13a.62.62,0,0,0-.64.36c-.77,1.33-1.56,2.65-2.35,4l-.25.42c1.13.05,2.21,0,3.29.06l3.3,0,3.26,0,3.3,0,3.33.05-.52.87c-.58,1-1.16,1.94-1.73,2.92a.51.51,0,0,1-.52.29l-13.3-.18h-.49l4.4,7.83-4.78-.09-3.21-5.71c-.11.15-.19.26-.25.37-.59,1-1.16,2-1.76,2.94a.62.62,0,0,0,0,.74c1.25,2.2,2.49,4.4,3.73,6.61l4.84,8.6.16.27,4.31.06-3.22-5.71,2.43-4.09,4.4,7.8.25-.42,4.4-7.36c.8-1.33,1.6-2.66,2.38-4a.56.56,0,0,1,.58-.33c1.3,0,2.61.05,3.92.07l.41,0-8.37,14.07a3.44,3.44,0,0,0,.36,0c1.6,0,3.21,0,4.81.08a.56.56,0,0,0,.58-.33c1.47-2.48,3-5,4.41-7.45a.68.68,0,0,1,.71-.39c1.25,0,2.5,0,3.75.07l.5,0-4.82,8.11c.71.06,1.34,0,2,.05l1.88,0,2,0c0,1.37,0,2.72,0,4.11l-5.81-.08,4.66,8.3-4.74-.06-1.2-2.13q-1.65-2.93-3.3-5.87a.51.51,0,0,0-.5-.32l-4.94-.06-.28,0,8.1,14.35-4.75-.06-7-12.31c-.8,1.3-1.53,2.56-2.28,3.81l-2.25,3.79a32.43,32.43,0,0,1-2.39-4.11l3.33-5.6-.49,0c-1.1,0-2.2,0-3.3-.06a.6.6,0,0,0-.61.34q-2.49,4.22-5,8.42c-1.3,2.19-2.6,4.38-3.91,6.56a.6.6,0,0,0,0,.7c.57,1,1.11,2,1.67,2.95l.23.37.25-.42c1-1.62,1.92-3.23,2.86-4.85a.62.62,0,0,1,.64-.36c1.28,0,2.56,0,3.83.05l.51,0c-.24.48-.51.88-.75,1.29l-.75,1.26-.77,1.3-.75,1.26-.75,1.26-.79,1.32,14.15.23,2.32,4.14-16.47-.25c.07.14.11.25.17.35.78,1.39,1.57,2.77,2.33,4.16a.57.57,0,0,0,.57.34l8.53.11a2.41,2.41,0,0,0,.33,0,.41.41,0,0,1,.44.27c.35.65.71,1.28,1.07,1.92l1.09,2-9.49-.13c.93,1.72,1.9,3.36,2.82,5.07l-3.58,2-2.81-5c-.2.07-.24.24-.32.38l-4.31,7.22-.28.47-2.33-4.12,4.85-8.16-2.72-4.84c-1.44,2.38-2.81,4.72-4.19,7.05l-4.19,7c-.09-.13-.16-.21-.21-.3-.66-1.16-1.3-2.33-2-3.48a.54.54,0,0,1,0-.63q1.7-2.84,3.38-5.69l3.38-5.73.23-.39c-3-.07-5.95-.09-8.94-.15.06-.13.08-.21.13-.28.69-1.16,1.39-2.31,2.07-3.47a.6.6,0,0,1,.62-.33c1.89,0,3.78.07,5.67.1h.48c-.07-.14-.12-.25-.18-.35-.55-1-1.11-2-1.66-3a.52.52,0,0,0-.5-.31l-17.78-.26h-.25l-2.1,3.54c2.21,0,4.38.06,6.56.1l2.35,4.15-9-.12,6.9,12.31-2.41,4.05c-.72-1.2-1.36-2.4-2-3.58s-1.33-2.37-2-3.56l-2-3.59-2-3.59-2.83,4.75,4.65,8.24-2.41,4.05c-.36-.54-.63-1.09-.94-1.62s-.61-1.09-.92-1.64l-.94-1.67-.92-1.64-1-1.68-2.94,4.94-3.55-2.11,2.95-5Zm42.43-20.1.23-.38q4.43-7.45,8.87-14.9a.66.66,0,0,0,0-.77q-4.29-7.6-8.56-15.21a.57.57,0,0,0-.57-.34l-17.53-.26a.57.57,0,0,0-.57.33q-4.45,7.51-8.93,15a.57.57,0,0,0,0,.66q4.28,7.58,8.54,15.17a.73.73,0,0,0,.72.44q7.34.09,14.68.21Z"/><path class="cls-5" d="M1194.91,238.17l2,0,12.15.18a.63.63,0,0,1,.63.38q3.34,6,6.7,11.9a.72.72,0,0,1,0,.85q-3.49,5.83-6.95,11.68a.69.69,0,0,1-.71.4l-13.66-.21h-.43c-.05-.08-.12-.17-.17-.26q-3.39-6-6.79-12a.66.66,0,0,1,0-.77q3.51-5.86,7-11.75Zm12,21.21,5-8.37c0-.07-.05-.13-.09-.19q-2.28-4.05-4.55-8.11a.48.48,0,0,0-.49-.26q-4.53-.06-9.05-.14a.6.6,0,0,0-.61.34q-2.28,3.87-4.58,7.72l-.2.33.19.36q2.21,3.93,4.41,7.86a.57.57,0,0,0,.58.33l8.32.12Z"/><path class="cls-5" d="M1477.89,120.43l-2.34,1.45-1-1.57.3-.19c1.12-.69,2.25-1.37,3.37-2.07a.79.79,0,0,0,.31-.43c.23-.86.42-1.72.64-2.62l-4.52,2.8-1-1.61,2.83-1.72c1-.61,2-1.21,3-1.84a.85.85,0,0,0,.33-.45c.19-.67.33-1.36.51-2a.44.44,0,0,0-.14-.5q-1.52-1.42-3-2.85a.42.42,0,0,0-.47-.12c-.67.2-1.35.37-2,.58a.9.9,0,0,0-.47.37c-1.09,1.93-2.17,3.88-3.25,5.82l-.11.17-1.56-.87L1472,108c-.77.22-1.44.45-2.12.59a1.66,1.66,0,0,0-1.26,1c-.52,1-1.12,2-1.67,3-.12.22-.21.23-.41.11-.41-.25-.84-.47-1.3-.73l1.37-2.48-4.28,1.21-.49-1.72,4.28-1.22-2.48-1.39.87-1.56,1.92,1.06,1.95,1.07a.52.52,0,0,0,.34.07c.9-.24,1.8-.5,2.79-.78l-4.71-2.63.87-1.56,2.78,1.55c1.1.61,2.19,1.23,3.3,1.83a.66.66,0,0,0,.44.05q1.06-.28,2.11-.6a.5.5,0,0,0,.29-.3c.34-1.35.66-2.71,1-4.07a.39.39,0,0,0-.14-.44c-.52-.47-1-.94-1.53-1.43a.7.7,0,0,0-.57-.21l-6.56.24h-.3l-.07-1.77,5.36-.2-.2-.21c-.6-.56-1.19-1.13-1.81-1.67a.75.75,0,0,0-.47-.18c-1.34,0-2.67.08-4,.13h-.36l-.07-1.78,2.84-.11-3.25-3,1.22-1.31,3.26,3-.09-2.83,1.79-.07c0,.84.06,1.66.09,2.48,0,.64,0,1.28.07,1.92a.53.53,0,0,0,.11.33c.68.65,1.37,1.29,2.13,2l-.19-5.38c.56,0,1.1-.05,1.63-.05.06,0,.16.16.16.25.06,1.48.12,3,.17,4.44,0,.74,0,1.48.09,2.22a.66.66,0,0,0,.17.41q.8.78,1.63,1.51a.51.51,0,0,0,.41.1c1.34-.38,2.68-.79,4-1.17a.44.44,0,0,0,.35-.38c.15-.68.33-1.36.48-2a.8.8,0,0,0-.09-.53c-1.12-1.85-2.26-3.69-3.39-5.53a2.53,2.53,0,0,0-.21-.27l1.62-1,2.75,4.51c.17-.69.28-1.36.49-2a1.79,1.79,0,0,0-.27-1.75c-.62-.9-1.15-1.85-1.72-2.79l-.19-.33,1.54-.94,1.43,2.42,1-4.32,1.77.43-1,4.25,2.31-1.47,1,1.62-2.4,1.46a4.71,4.71,0,0,0-1.42.94,5,5,0,0,0-.47,1.67c-.1.38-.18.76-.3,1.25l4.55-2.76.88,1.57-2.68,1.63c-1,.63-2.08,1.26-3.11,1.91a.75.75,0,0,0-.3.41c-.19.7-.34,1.4-.52,2.1a.4.4,0,0,0,.13.44c1,1,2,1.94,3.07,2.9a.48.48,0,0,0,.38.09q1.09-.28,2.17-.61a.66.66,0,0,0,.33-.3q1.61-2.86,3.2-5.73l.18-.29,1.56.86-2.62,4.71c1-.29,1.93-.54,2.85-.82.09,0,.16-.15.21-.24l2-3.53.18-.29,1.56.86L1499,98.39l4.28-1.21.49,1.72-4.28,1.22,2.47,1.39-.86,1.56-2.31-1.28-1.53-.85a.54.54,0,0,0-.34-.09c-.92.25-1.83.51-2.83.79l4.71,2.63-.87,1.56-1.84-1c-1.4-.78-2.8-1.57-4.21-2.34a.75.75,0,0,0-.5-.06c-.69.17-1.36.39-2,.57a.43.43,0,0,0-.37.37q-.46,2-.95,3.94a.4.4,0,0,0,.14.46c.55.49,1.07,1,1.62,1.48a.75.75,0,0,0,.47.17l6.7-.22h.21l.07,1.78-5.34.19a2.45,2.45,0,0,0,.18.22c.59.55,1.19,1.1,1.77,1.66a.71.71,0,0,0,.57.2l4-.15h.26l.07,1.77-2.84.11,3.25,3-1.22,1.31-3.22-3a1.71,1.71,0,0,0,0,.25c0,.75,0,1.5.08,2.25,0,.24-.05.32-.29.31-.48,0-1,0-1.49,0,0-.67-.05-1.33-.08-2s-.05-1.59-.09-2.39a.54.54,0,0,0-.1-.34c-.68-.65-1.38-1.29-2.15-2l.19,5.38-1.79.07c0-.67-.05-1.32-.08-2-.06-1.66-.12-3.32-.19-5a.65.65,0,0,0-.18-.4q-.8-.78-1.63-1.52a.47.47,0,0,0-.37-.09l-4.08,1.19a.4.4,0,0,0-.32.33c-.16.7-.35,1.4-.49,2.1a.8.8,0,0,0,.09.53q1.63,2.7,3.29,5.39c.09.15.21.29.32.43l-1.61.95-2.76-4.54c-.13.53-.24,1-.35,1.44a4.34,4.34,0,0,0-.31,1.51,4.25,4.25,0,0,0,.75,1.34l1.58,2.57-1.52.9-1.35-2.26-.12,0-1,4.19-1.77-.43Zm8.84-15.48c.16-.68.32-1.36.49-2a.42.42,0,0,0-.14-.47q-1.53-1.43-3-2.88a.36.36,0,0,0-.41-.1l-4,1.2a.5.5,0,0,0-.29.29q-.52,2-1,4.1a.5.5,0,0,0,.12.4c1,1,2,1.94,3.05,2.91a.36.36,0,0,0,.41.11q2-.61,4-1.19a.39.39,0,0,0,.31-.34C1486.4,106.28,1486.57,105.62,1486.73,104.95Z"/><path class="cls-5" d="M1484.21,104.33a1.49,1.49,0,1,1-2.9-.68,1.49,1.49,0,0,1,2.9.68Z"/><ellipse class="cls-6" cx="1487.09" cy="505.01" rx="200.12" ry="61.78"/><ellipse class="cls-7" cx="1486.02" cy="490.11" rx="200.12" ry="61.78"/><rect class="cls-7" x="1286.06" y="486.81" width="399.6" height="23.42"/><path class="cls-8" d="M1484,510.52l-12.29,1.29c-6.59,1.43-17.82,1.82-16.41,0,3.71-4.81,15.52-6.74,21.37-14.08,1.43-1.8,5-52.78,12.51-51.94h0c2.27.36,4.76,1.6,3.46,3.49-7.87,11.51-7.7,52-7.7,52C1484.54,503.58,1486.24,510.29,1484,510.52Z"/><path class="cls-8" d="M1513.19,512.14l12.29,1.29c6.59,1.43,17.82,1.82,16.41,0-3.71-4.81-15.52-6.74-21.37-14.08-1.43-1.8-14-64.93-15.32-46.54l-.13-4.41c-2.27.36-4.85,2-3.43,3.85,8.81,11.18,10.6,50.68,10.6,50.68C1512.61,505.2,1510.91,511.9,1513.19,512.14Z"/><path class="cls-8" d="M1439.59,325.75c-9.76,18.79-16.77,28.47-20.64,25.76-1.39-1,6.87-8.44,16.63-27.23s12.08-35.09,13.71-35.15C1455.77,288.87,1449.35,307,1439.59,325.75Z"/><path class="cls-9" d="M1426.54,337.44c-3.7-1.8-7.23-2.15-7.89-.78-.39.8.31,2,1.7,3.25-7.67,0-17.85,6.67-17.85,11.44s5.1,5.24,12.78,5.24c4.24,0,6-1.41,7.79-3.35.11,2,.86,3.57,2.07,3.84,1.76.4,3.35-2.2,4.58-5.5a7.43,7.43,0,0,0-.24-5.8c-.25-.69-.63-1.38-.81-1.89,1.72.27,3,.05,3.38-.72C1432.7,341.8,1430.23,339.24,1426.54,337.44Z"/><path class="cls-8" d="M1487.36,135.23c-9-2.44-28.34-4.23-49.52,2.18s-37.25,18.82-39.46,25.89c-2.26,7.26,25.43,3.34,46.62-3.08S1496.13,137.6,1487.36,135.23Z"/><path class="cls-8" d="M1468.51,167.21l-33.07,9.45c-8.55,2.78-10.47-5.24-14.7-11.82h0c-4.47-10.86,1.47-12.71,7.58-14.66l26.21-8.34c6.12-1.95,12.38-3.94,14.66,7.58h0A52.45,52.45,0,0,1,1468.51,167.21Z"/><path class="cls-10" d="M1501.38,479.48c-13,8.55-69.8-197.12-69.8-197.12l25.61-11.09,62.38-4.52S1508.55,474.78,1501.38,479.48Z"/><path class="cls-11" d="M1538,224.61c0,40.36-31.12,64.53-69.52,64.53s-77.21-14.48-77.21-65.28c0-46.62,38.82-63.77,77.21-63.77S1538,189,1538,224.61Z"/><path class="cls-12" d="M1496.66,284.34c13.25,8.11,9.16,185.75,2.43,190.16,0,0-.82,2.23-3.33.21,3,4.53,4.76,5.12,5.78,4.45,7.17-4.7,18.32-216,18.32-216Z"/><path class="cls-13" d="M1519.22,268l-2.49-3-2.61.19,4.92,6Z"/><path class="cls-13" d="M1503.77,468.63q.33-1.92.67-4.19l-7.76,9.49L1494,470.7c2.19,3.89,4.1,6.31,5.63,6.89l-1.61-2Z"/><path class="cls-13" d="M1433.78,288.85l9.41,11.51-4.56,5.58.72,2.5,5.22-6.39,12.43,15.2-10.33,12.63-1.71-2.1,1.64,5.57.08-.1L1458,347l-5.32,6.51.74,2.46,6-7.29,12.39,15.15-10.49,12.83-2.42-3q1,3.37,2.1,6.74l.32-.4,10.44,12.77-4.91,6,.78,2.42,5.51-6.74,10.25,12.53-9.06,11.08-1.85-2.27q1,2.93,2,5.78l10.21,12.48-4,4.93.86,2.32,4.55-5.56,10.49,12.83-8.18,10q.48,1.13,1,2.2l8.6-10.52,7.32,9q.18-1.42.37-2.93l-6.31-7.71,8.23-10.07q.23-2.37.46-4.84l-10.13-12.38,10.49-12.83,1.65,2,.25-3.07-.51-.63.63-.77q.15-1.86.29-3.73l-2.3,2.81-10.33-12.63,10.33-12.63,3.65,4.47.22-3.1-2.5-3.06,3-3.64.26-3.69-4.62,5.64L1498,364l10.25-12.53,5.49,6.71.21-3.12-4.31-5.28,5.07-6.2.24-3.66-6.69,8.18-10.44-12.77,10.44-12.77,7.23,8.84.2-3.13-6-7.39,7-8.59.22-3.64-8.63,10.55L1495.87,304l12.39-15.15,9.14,11.17.18-3.15-7.94-9.71,9.13-11.17.2-3.62-10.71,13.1L1497,271.74l4.67-5.71-2.93.21-3.11,3.81-2.76-3.38-2.61.19,4,4.88-12.39,15.15-12.43-15.2,2.89-3.53-2.93.21L1468,270l-1.18-1.45-2.61.19,2.41,2.95-10.44,12.77-9-11-2,.88,9.62,11.77-10.25,12.53-11.06-13.53,7.22-8.84-4.27,1.85-4.23,5.17Zm14.28,42.72,10.33-12.63,11.27,13.78-10.33,12.63Zm24.35,1.15,10.25-12.53,12.39,15.15-10.25,12.53Zm22.83,31.3-10.33,12.63-10.44-12.77,10.33-12.63ZM1471,331l-11.27-13.78L1470,304.73l11.27,13.78Zm-10.33,16L1471,334.41l12.39,15.15-10.33,12.63Zm12.34,44.13-10.44-12.77,10.49-12.83,10.44,12.77Zm1.38,1.69L1484.93,380l10.25,12.53-10.49,12.83Zm1.19,27,9.06-11.08L1495,421.39l-9.06,11.08Zm31.26,16.07L1497.82,447l-10.49-12.83,9.06-11.08Zm0-29-10.49,12.83-10.33-12.63,10.49-12.83Zm0-28.63-10.33,12.63-10.25-12.53,10.33-12.63Zm0-28.44-10.25,12.53-10.44-12.77L1496.44,337Zm0-28.91-10.44,12.77L1484,318.5l10.44-12.77Zm-11.27-47.46,11.27,13.78-12.39,15.15-11.27-13.78ZM1493.11,304l-10.44,12.77L1471.4,303l10.44-12.77ZM1468,273.38l12.43,15.2L1470,301.35l-12.43-15.2Zm-11.82,14.46,12.43,15.2-10.25,12.53L1446,300.37Z"/><path class="cls-5" d="M1466.39,252.75c0,5.25-10.36,10.9-18.88,10.9s-17.77-5.93-17.77-11.18,6.91-4.25,15.44-4.25S1466.39,247.5,1466.39,252.75Z"/><circle class="cls-8" cx="1409.13" cy="218.78" r="3.93"/><circle class="cls-8" cx="1464.99" cy="214.52" r="3.93"/><circle class="cls-14" cx="1444.15" cy="284.89" r="12.48"/><path class="cls-15" d="M1484.67,161.84c27.23,9.68,46.3,32.1,46.3,58.2,0,35-34.21,63.31-76.41,63.31a91.56,91.56,0,0,1-19.21-2,73.48,73.48,0,0,0,33.16,7.8c38.39,0,67.55-22.83,69.52-64.53C1540,183.39,1515.27,168.6,1484.67,161.84Z"/><path class="cls-16" d="M1537.53,255.89c-3.52-10.35-10.15-14.58-22.66-14.58a26.24,26.24,0,0,0-4.87.46c-3.81-6.17-11.34-10.37-20-10.37a26.07,26.07,0,0,0-6.22.75c-3.81-6.16-8.85-7.46-15.92-8.64-7.75-1.3-18.88,1.74-22.94,7-4.14-4.73-11.84-5.88-19.24-5.88-12.52,0-21.53,6.83-21.53,17.61,0,.21,0,.41,0,.61-10.81.73-19.31,4.87-19.31,18,0,8.75,7.22,16,16.8,17.71a13,13,0,0,0-.7,5.83c.79,7.34,7.9,13.15,16.44,13.48,2.74.11,4.39-.49,4.73-2,1.09,6.49,10.54,12.29,18.38,12.29,6.34,0,11.79-3.26,14.23-7.95a17.66,17.66,0,0,0,10.8,3.56c6.64,0,12.35-3.45,14.84-8.38a19.4,19.4,0,0,0,3.69.36,17.44,17.44,0,0,0,14.4-7,22.34,22.34,0,0,0,2.37.13c7.24,0,13.54-3.47,16.79-8.59C1528.84,279,1540.62,265,1537.53,255.89Zm-91.89-2.84a24,24,0,0,0,18.11,7.79c.51,0,1,0,1.51,0a13.61,13.61,0,0,0-2.9,5.43,12.76,12.76,0,0,0-.43,3.68l-.75,0a15,15,0,0,0-12.65,6.4,15.15,15.15,0,0,0-11.35-5.39,17.76,17.76,0,0,0-3.74-9.59C1439,260.45,1442.22,257.46,1445.64,253.05Z"/><path class="cls-17" d="M1537.92,257.49a15.27,15.27,0,0,0-7.32-12c7.37,14.73-7.79,21.53-17.44,22.54.63,6-7.66,15.57-17.46,14.16-.79-.11-1.25,5.5-1.76,6-4.71,4.63-4.42,3-10.54,3a19.4,19.4,0,0,1-3.69-.36c-2.49,4.93-8.2,8.38-14.84,8.38a17.66,17.66,0,0,1-10.8-3.56c-2.43,4.68-7.89,7.95-14.23,7.95-7.84,0-16.63-1.19-17.72-7.68v0c1.09,6.49,10.54,12.29,18.38,12.29,6.34,0,11.79-3.26,14.23-7.95a17.66,17.66,0,0,0,10.8,3.56c6.64,0,12.35-3.45,14.84-8.38a19.4,19.4,0,0,0,3.69.36,17.44,17.44,0,0,0,14.4-7,22.34,22.34,0,0,0,2.37.13c7.24,0,13.54-3.47,16.79-8.59C1528.84,279.05,1538.84,266.9,1537.92,257.49Z"/><path class="cls-8" d="M1474.35,200.76c-.07.32-3.62-1.8-8.34-2.9s-8.84-.75-8.76-1.08,4.39-1.52,9.11-.42S1474.42,200.44,1474.35,200.76Z"/><path class="cls-8" d="M1401.64,204.79c.07.32,3.62-1.8,8.34-2.9s8.84-.75,8.76-1.08-4.39-1.52-9.11-.42S1401.57,204.46,1401.64,204.79Z"/><path class="cls-8" d="M1496.52,330.82c-9.76,18.79-16.77,28.47-20.64,25.76-1.39-1,6.87-8.44,16.63-27.23s12.08-35.09,13.71-35.15C1512.7,293.94,1506.28,312,1496.52,330.82Z"/><path class="cls-18" d="M1409.29,158.52c-11.85,10.67-4.64,31.69-5.31,32-2.07.87-7,2.53-6.54.34,1.55-6.95-.34-23.71,7.8-32.05,11.14-11.41,30.82-21.21,31.21-20.6S1420.41,148.5,1409.29,158.52Z"/><path class="cls-9" d="M1487.15,342.77c-3.7-1.8-7.23-2.15-7.89-.78-.39.8.31,2,1.7,3.25-7.67,0-17.85,6.67-17.85,11.44s5.1,5.24,12.78,5.24,13.9-3.87,13.9-8.64a12.5,12.5,0,0,0-.52-4.06c1.72.27,3,.05,3.38-.72C1493.31,347.13,1490.85,344.56,1487.15,342.77Z"/><polygon class="cls-19" points="1448.03 541.29 1355.66 520.55 1328.95 387.32 1443.83 395.35 1448.03 541.29"/><polygon class="cls-20" points="1478.16 507.08 1447.83 541.31 1443.83 396.02 1485.57 379.87 1478.16 507.08"/><polygon class="cls-21" points="1444.23 409.65 1319 391.02 1311.27 338.86 1443.41 349.19 1444.23 409.65"/><polygon class="cls-19" points="1493.42 374.75 1444.23 409.65 1443.39 349.24 1494.23 362.28 1493.42 374.75"/><polygon class="cls-20" points="1490.08 375.39 1447.57 405.55 1446.85 353.34 1490.78 364.61 1490.08 375.39"/><polygon class="cls-19" points="1487.75 375.83 1449.9 402.69 1449.25 356.2 1488.37 366.23 1487.75 375.83"/><polygon class="cls-19" points="1437.94 406.3 1324.56 389.44 1317.56 342.2 1437.2 351.56 1437.94 406.3"/><polygon class="cls-21" points="1434.94 404.7 1327.21 388.68 1320.56 343.8 1434.24 352.69 1434.94 404.7"/><polygon class="cls-22" points="870.64 565.41 239.62 560.68 200.83 482.16 897.13 486.89 870.64 565.41"/><path class="cls-22" d="M869,568.31l-625.89-5.37a3.43,3.43,0,0,1-.9-6.73l162.21-45.55a3.43,3.43,0,0,1,.93-.13l580.47,1.22c3.84,0,16.42,9.44,12.8,10.74L870.19,568.11A3.43,3.43,0,0,1,869,568.31Z"/><polygon class="cls-23" points="1025.68 441.89 894.3 483.11 871.59 567.31 999.63 522.22 1025.68 441.89"/><path class="cls-24" d="M1036,438.19l-.36-14.08-50.1-4.7,9.92,12-617.78-2.16a3.87,3.87,0,0,0-1.05.14l-188.09,52c-4.31,1.21-2.27,6.76,2.21,6.8l710.78,6.37a3.87,3.87,0,0,0,1.34-.23l122.5-48.79C1026.4,443.94,1034.43,441.32,1036,438.19Z"/><polygon class="cls-24" points="220.28 485.56 185.98 484.24 188.97 470.98 220.28 474.33 220.28 485.56"/><path class="cls-22" d="M899.63,481.28l-707.16-6.07a3.87,3.87,0,0,1-1-7.6l183.27-51.46a3.87,3.87,0,0,1,1.05-.14l655.69.79c10.44,7.31-1.13,16.8-5.22,18.27L901,481A3.87,3.87,0,0,1,899.63,481.28Z"/><polygon class="cls-24" points="413.12 445.76 307.58 445.76 232.19 466.56 354.87 467.87 413.12 445.76"/><polygon class="cls-24" points="544.69 445.56 431.24 445.56 378.29 467.31 500.97 468.68 544.69 445.56"/><polygon class="cls-24" points="673.86 447.22 564.52 446.4 521.29 468.98 635.96 470.13 673.86 447.22"/><polygon class="cls-24" points="815.37 449.58 694.44 448 656.5 469.34 769.53 470.92 815.37 449.58"/><polygon class="cls-24" points="955.4 449.53 838.63 448.79 789.29 471.69 899.33 471.87 955.4 449.53"/><polygon class="cls-24" points="475.86 422.54 380.67 423.76 337.53 436.49 428.26 437.18 475.86 422.54"/><polygon class="cls-24" points="592.2 422.13 492.54 422.94 439.65 440.03 551.11 439.62 592.2 422.13"/><polygon class="cls-24" points="713.82 422.13 610.5 422.94 571.04 440.44 680.06 440.84 713.82 422.13"/><polygon class="cls-24" points="860.26 424.57 736.6 423.35 705.3 439.28 822.02 442.06 860.26 424.57"/><polygon class="cls-24" points="1012.4 424.57 883.45 425.38 851.92 439.73 963.18 440.84 1012.4 424.57"/><path class="cls-8" d="M429.86,473.21c-2.9-.29-6.13-1.15-7.17-1.87-1.53-1.06-.66-6.85-.55-8.36l1.45-19.47c.11-1.51,1.77-1.11,3.82-1h0c.76,3.9.11,21.62,1.68,22.71,6.15,4.25,13.28,7.68,7.63,8.1A30.14,30.14,0,0,1,429.86,473.21Z"/><path class="cls-8" d="M404.54,473.76c-2.9-.29-6.13-1.15-7.17-1.87-1.53-1.06-.66-6.85-.55-8.36l1.45-19.47c.11-1.51,1.77-1.11,3.82-1h0c.76,3.9.11,21.62,1.68,22.71,6.15,4.25,13.28,7.68,7.63,8.1A30.14,30.14,0,0,1,404.54,473.76Z"/><path class="cls-8" d="M434.87,406.57c15.86,11.72,40.56,17.07,51.37,0,.47-.74,1.59-.71,1.59-1.59h0c0-.87-1-2.24-1.59-1.59-19.22,21.85-39.43,5-51.37,0-.81-.34-1.59.71-1.59,1.59h0C433.28,405.86,434.17,406.05,434.87,406.57Z"/><rect class="cls-25" x="382.31" y="362.65" width="76.25" height="76.25" transform="translate(840.87 801.55) rotate(-180)"/><polygon class="cls-26" points="365.72 446.01 382.31 438.9 382.31 362.65 365.72 372.97 365.72 446.01"/><polygon class="cls-26" points="365.72 446.01 445.18 446.01 458.56 438.9 382.31 438.9 365.72 446.01"/><circle class="cls-8" cx="442.8" cy="388.18" r="3.22"/><circle class="cls-8" cx="403.38" cy="388.18" r="3.22"/><path class="cls-8" d="M362.62,423.43c5.51-7,10.48-9.48,12.76-12.52.71-.81,1-1.22.18-1.93h0a2,2,0,0,0-2.76.19s-18.45,15.7-23,27.93c-.37,1-1.88,7,.41,4.83.53-.51,4.65-8.14,4.92-8.59C356.73,430.74,361.4,425,362.62,423.43Z"/><path class="cls-27" d="M342.34,438.52c2.07-3,3.91-4.28,5.67-4.64-.8-.83-1.17-1.62-.91-2.21.55-1.27,3.73-1.11,7.11.35s5.68,3.67,5.13,4.93a1.68,1.68,0,0,1-1.42.81,9.13,9.13,0,0,1,1.68,4.58c.37,3.21-.54,6-2,6.13-1.31.15-2.64-1.71-3.2-4.33-2.14,3.1-2.64,7.34-6.16,5.82C344.07,448.18,339.91,442,342.34,438.52Z"/><path class="cls-28" d="M412.14,404.33c.17,2.24,5,4.06,11.15,4.06s10.92-1.83,11.15-4.06c.53-5.2-5-4.06-11.15-4.06S411.74,399.13,412.14,404.33Z"/><path class="cls-27" d="M482.23,401.68a8.51,8.51,0,0,1-1.35-1.57c-1.45-2.14-1.73-4.48-.63-5.22.89-.6,2.42,0,3.74,1.46a10.71,10.71,0,0,1,.64-1.16c2.71-4.28,4.4-7.08,8.31-4.6s6.47,7.48,3.76,11.76a8.7,8.7,0,0,1-6.46,4.29,1.82,1.82,0,0,1-.22,1.06c-.59,1.1-1.89,1.4-5.21-.36s-4.91-4-4.32-5.07C480.74,401.8,481.35,401.6,482.23,401.68Z"/><path class="cls-8" d="M398.35,376.25c.16.5,2.54-1.69,5.34-2.56s5.54-.57,5.38-1.06-2.62-1-5.71,0S398.18,375.75,398.35,376.25Z"/><path class="cls-8" d="M448.16,376.25c-.16.5-2.54-1.7-5.34-2.57s-5.54-.57-5.38-1.07,2.62-1,5.71,0S448.32,375.75,448.16,376.25Z"/><path class="cls-8" d="M547.1,468.79c-2.9-.29-6.13-1.15-7.17-1.87-1.53-1.06-.66-6.85-.55-8.36l1.45-19.47c.11-1.51,1.77-1.11,3.82-1h0c.76,3.9.11,21.62,1.68,22.71,6.15,4.25,13.28,7.68,7.63,8.1A30.14,30.14,0,0,1,547.1,468.79Z"/><path class="cls-8" d="M521.78,469.35c-2.9-.29-6.13-1.15-7.17-1.87-1.53-1.06-.66-6.85-.55-8.36l1.45-19.47c.11-1.51,1.77-1.11,3.82-1h0c.76,3.9.11,21.62,1.68,22.71,6.15,4.25,13.28,7.68,7.63,8.1A30.14,30.14,0,0,1,521.78,469.35Z"/><path class="cls-8" d="M552.11,402.16c15.86,11.72,40.56,17.07,51.37,0,.47-.74,1.59-.71,1.59-1.59h0c0-.87-1-2.24-1.59-1.59-19.22,21.85-39.43,5-51.37,0-.81-.34-1.59.71-1.59,1.59h0C550.52,401.45,551.41,401.64,552.11,402.16Z"/><rect class="cls-25" x="499.55" y="358.24" width="76.25" height="76.25" transform="translate(1075.36 792.73) rotate(-180)"/><polygon class="cls-26" points="482.97 441.6 499.55 434.49 499.55 358.24 482.97 368.56 482.97 441.6"/><polygon class="cls-26" points="482.97 441.6 562.42 441.6 575.8 434.49 499.55 434.49 482.97 441.6"/><circle class="cls-8" cx="560.04" cy="383.77" r="3.22"/><circle class="cls-8" cx="520.62" cy="383.77" r="3.22"/><path class="cls-8" d="M479.87,419c5.51-7,10.48-9.48,12.76-12.52.71-.81,1-1.22.18-1.93h0a2,2,0,0,0-2.76.19s-18.45,15.7-23,27.93c-.37,1-1.88,7,.41,4.83.53-.51,4.65-8.14,4.92-8.59C474,426.32,478.64,420.59,479.87,419Z"/><path class="cls-27" d="M459.58,434.11c2.07-3,3.91-4.28,5.67-4.64-.8-.83-1.17-1.62-.91-2.21.55-1.27,3.73-1.11,7.11.35s5.68,3.67,5.13,4.93a1.68,1.68,0,0,1-1.42.81,9.13,9.13,0,0,1,1.68,4.58c.37,3.21-.54,6-2,6.13-1.31.15-2.64-1.71-3.2-4.33-2.14,3.1-2.64,7.34-6.16,5.82C461.31,443.76,457.15,437.62,459.58,434.11Z"/><path class="cls-28" d="M529.38,399.92c.17,2.24,5,4.06,11.15,4.06s10.92-1.83,11.15-4.06c.53-5.2-5-4.06-11.15-4.06S529,394.72,529.38,399.92Z"/><path class="cls-27" d="M599.48,397.27a8.51,8.51,0,0,1-1.35-1.57c-1.45-2.14-1.73-4.48-.63-5.22.89-.6,2.42,0,3.74,1.46a10.71,10.71,0,0,1,.64-1.16c2.71-4.28,4.4-7.08,8.31-4.6s6.47,7.48,3.76,11.76a8.7,8.7,0,0,1-6.46,4.29,1.82,1.82,0,0,1-.22,1.06c-.59,1.1-1.89,1.4-5.21-.36s-4.91-4-4.32-5.07C598,397.38,598.59,397.19,599.48,397.27Z"/><path class="cls-8" d="M515.59,371.83c.16.5,2.54-1.69,5.34-2.56s5.54-.57,5.38-1.06-2.62-1-5.71,0S515.43,371.33,515.59,371.83Z"/><path class="cls-8" d="M565.4,371.84c-.16.5-2.54-1.7-5.34-2.57s-5.54-.57-5.38-1.07,2.62-1,5.71,0S565.56,371.34,565.4,371.84Z"/><path class="cls-8" d="M670.64,468.79c-2.9-.29-6.13-1.15-7.17-1.87-1.53-1.06-.66-6.85-.55-8.36l1.45-19.47c.11-1.51,1.77-1.11,3.82-1h0c.76,3.9.11,21.62,1.68,22.71,6.15,4.25,13.28,7.68,7.63,8.1A30.14,30.14,0,0,1,670.64,468.79Z"/><path class="cls-8" d="M645.33,469.35c-2.9-.29-6.13-1.15-7.17-1.87-1.53-1.06-.66-6.85-.55-8.36l1.45-19.47c.11-1.51,1.77-1.11,3.82-1h0c.76,3.9.11,21.62,1.68,22.71,6.15,4.25,13.28,7.68,7.63,8.1A30.14,30.14,0,0,1,645.33,469.35Z"/><path class="cls-8" d="M675.66,402.16c15.86,11.72,40.56,17.07,51.37,0,.47-.74,1.59-.71,1.59-1.59h0c0-.87-1-2.24-1.59-1.59-19.22,21.85-39.43,5-51.37,0-.81-.34-1.59.71-1.59,1.59h0C674.07,401.45,675,401.64,675.66,402.16Z"/><rect class="cls-25" x="623.1" y="358.24" width="76.25" height="76.25" transform="translate(1322.44 792.73) rotate(-180)"/><polygon class="cls-26" points="606.51 441.6 623.1 434.49 623.1 358.24 606.51 368.56 606.51 441.6"/><polygon class="cls-26" points="606.51 441.6 685.97 441.6 699.35 434.49 623.1 434.49 606.51 441.6"/><circle class="cls-8" cx="683.59" cy="383.77" r="3.22"/><circle class="cls-8" cx="644.16" cy="383.77" r="3.22"/><path class="cls-8" d="M603.41,419c5.51-7,10.48-9.48,12.76-12.52.71-.81,1-1.22.18-1.93h0a2,2,0,0,0-2.76.19s-18.45,15.7-23,27.93c-.37,1-1.88,7,.41,4.83.53-.51,4.65-8.14,4.92-8.59C597.52,426.32,602.18,420.59,603.41,419Z"/><path class="cls-27" d="M583.12,434.11c2.07-3,3.91-4.28,5.67-4.64-.8-.83-1.17-1.62-.91-2.21.55-1.27,3.73-1.11,7.11.35s5.68,3.67,5.13,4.93a1.68,1.68,0,0,1-1.42.81,9.13,9.13,0,0,1,1.68,4.58c.37,3.21-.54,6-2,6.13-1.31.15-2.64-1.71-3.2-4.33-2.14,3.1-2.64,7.34-6.16,5.82C584.85,443.76,580.69,437.62,583.12,434.11Z"/><path class="cls-28" d="M652.93,399.92c.17,2.24,5,4.06,11.15,4.06s10.92-1.83,11.15-4.06c.53-5.2-5-4.06-11.15-4.06S652.53,394.72,652.93,399.92Z"/><path class="cls-27" d="M723,397.27a8.51,8.51,0,0,1-1.35-1.57c-1.45-2.14-1.73-4.48-.63-5.22.89-.6,2.42,0,3.74,1.46a10.71,10.71,0,0,1,.64-1.16c2.71-4.28,4.4-7.08,8.31-4.6s6.47,7.48,3.76,11.76a8.7,8.7,0,0,1-6.46,4.29,1.82,1.82,0,0,1-.22,1.06c-.59,1.1-1.89,1.4-5.21-.36s-4.91-4-4.32-5.07C721.53,397.38,722.14,397.19,723,397.27Z"/><path class="cls-8" d="M639.13,371.83c.16.5,2.54-1.69,5.34-2.56s5.54-.57,5.38-1.06-2.62-1-5.71,0S639,371.33,639.13,371.83Z"/><path class="cls-8" d="M688.95,371.84c-.16.5-2.54-1.7-5.34-2.57s-5.54-.57-5.38-1.07,2.62-1,5.71,0S689.11,371.34,688.95,371.84Z"/><path class="cls-8" d="M799.86,468.16c-2.9-.29-6.13-1.15-7.17-1.87-1.53-1.06-.66-6.85-.55-8.36l1.45-19.47c.11-1.51,1.77-1.11,3.82-1h0c.76,3.9.11,21.62,1.68,22.71,6.15,4.25,13.28,7.68,7.63,8.1A30.14,30.14,0,0,1,799.86,468.16Z"/><path class="cls-8" d="M774.55,468.72c-2.9-.29-6.13-1.15-7.17-1.87-1.53-1.06-.66-6.85-.55-8.36L768.28,439c.11-1.51,1.77-1.11,3.82-1h0c.76,3.9.11,21.62,1.68,22.71,6.15,4.25,13.28,7.68,7.63,8.1A30.14,30.14,0,0,1,774.55,468.72Z"/><path class="cls-8" d="M804.87,401.53c15.86,11.72,40.56,17.07,51.37,0,.47-.74,1.59-.71,1.59-1.59h0c0-.87-1-2.24-1.59-1.59-19.22,21.85-39.43,5-51.37,0-.81-.34-1.59.71-1.59,1.59h0C803.29,400.82,804.17,401,804.87,401.53Z"/><rect class="cls-25" x="752.32" y="357.61" width="76.25" height="76.25" transform="translate(1580.88 791.47) rotate(-180)"/><polygon class="cls-26" points="735.73 440.97 752.32 433.86 752.32 357.61 735.73 367.93 735.73 440.97"/><polygon class="cls-26" points="735.73 440.97 815.18 440.97 828.56 433.86 752.32 433.86 735.73 440.97"/><circle class="cls-8" cx="812.81" cy="383.14" r="3.22"/><circle class="cls-8" cx="773.38" cy="383.14" r="3.22"/><path class="cls-8" d="M732.63,418.39c5.51-7,10.48-9.48,12.76-12.52.71-.81,1-1.22.18-1.93h0a2,2,0,0,0-2.76.19s-18.45,15.7-23,27.93c-.37,1-1.88,7,.41,4.83.53-.51,4.65-8.14,4.92-8.59C726.74,425.69,731.4,420,732.63,418.39Z"/><path class="cls-27" d="M712.34,433.48c2.07-3,3.91-4.28,5.67-4.64-.8-.83-1.17-1.62-.91-2.21.55-1.27,3.73-1.11,7.11.35s5.68,3.67,5.13,4.93a1.68,1.68,0,0,1-1.42.81,9.13,9.13,0,0,1,1.68,4.58c.37,3.21-.54,6-2,6.13-1.31.15-2.64-1.71-3.2-4.33-2.14,3.1-2.64,7.34-6.16,5.82C714.07,443.13,709.91,437,712.34,433.48Z"/><path class="cls-28" d="M782.15,399.29c.17,2.24,5,4.06,11.15,4.06s10.92-1.83,11.15-4.06c.53-5.2-5-4.06-11.15-4.06S781.74,394.09,782.15,399.29Z"/><path class="cls-27" d="M852.24,396.64a8.51,8.51,0,0,1-1.35-1.57c-1.45-2.14-1.73-4.48-.63-5.22.89-.6,2.42,0,3.74,1.46a10.71,10.71,0,0,1,.64-1.16c2.71-4.28,4.4-7.08,8.31-4.6s6.47,7.48,3.76,11.76a8.7,8.7,0,0,1-6.46,4.29,1.82,1.82,0,0,1-.22,1.06c-.59,1.1-1.89,1.4-5.21-.36s-4.91-4-4.32-5.07C850.74,396.75,851.36,396.56,852.24,396.64Z"/><path class="cls-8" d="M768.35,371.2c.16.5,2.54-1.69,5.34-2.56s5.54-.57,5.38-1.06-2.62-1-5.71,0S768.19,370.7,768.35,371.2Z"/><path class="cls-8" d="M818.16,371.21c-.16.5-2.54-1.7-5.34-2.57s-5.54-.57-5.38-1.07,2.62-1,5.71,0S818.33,370.71,818.16,371.21Z"/><path class="cls-8" d="M956.81,468.79c-2.9-.29-6.13-1.15-7.17-1.87-1.53-1.06-.66-6.85-.55-8.36l1.45-19.47c.11-1.51,1.77-1.11,3.82-1h0c.76,3.9.11,21.62,1.68,22.71,6.15,4.25,13.28,7.68,7.63,8.1A30.14,30.14,0,0,1,956.81,468.79Z"/><path class="cls-8" d="M931.5,469.35c-2.9-.29-6.13-1.15-7.17-1.87-1.53-1.06-.66-6.85-.55-8.36l1.45-19.47c.11-1.51,1.77-1.11,3.82-1h0c.76,3.9.11,21.62,1.68,22.71,6.15,4.25,13.28,7.68,7.63,8.1A30.14,30.14,0,0,1,931.5,469.35Z"/><path class="cls-8" d="M961.83,402.16c15.86,11.72,40.56,17.07,51.37,0,.47-.74,1.59-.71,1.59-1.59h0c0-.87-1-2.24-1.59-1.59-19.22,21.85-39.43,5-51.37,0-.81-.34-1.59.71-1.59,1.59h0C960.24,401.45,961.12,401.64,961.83,402.16Z"/><rect class="cls-25" x="909.27" y="358.24" width="76.25" height="76.25" transform="translate(1894.78 792.73) rotate(-180)"/><polygon class="cls-26" points="892.68 441.6 909.27 434.49 909.27 358.24 892.68 368.56 892.68 441.6"/><polygon class="cls-26" points="892.68 441.6 972.13 441.6 985.52 434.49 909.27 434.49 892.68 441.6"/><circle class="cls-8" cx="969.76" cy="383.77" r="3.22"/><circle class="cls-8" cx="930.33" cy="383.77" r="3.22"/><path class="cls-8" d="M889.58,419c5.51-7,10.48-9.48,12.76-12.52.71-.81,1-1.22.18-1.93h0a2,2,0,0,0-2.76.19s-18.45,15.7-23,27.93c-.37,1-1.88,7,.41,4.83.53-.51,4.65-8.14,4.92-8.59C883.69,426.32,888.35,420.59,889.58,419Z"/><path class="cls-27" d="M869.29,434.11c2.07-3,3.91-4.28,5.67-4.64-.8-.83-1.17-1.62-.91-2.21.55-1.27,3.73-1.11,7.11.35s5.68,3.67,5.13,4.93a1.68,1.68,0,0,1-1.42.81,9.13,9.13,0,0,1,1.68,4.58c.37,3.21-.54,6-2,6.13-1.31.15-2.64-1.71-3.2-4.33-2.14,3.1-2.64,7.34-6.16,5.82C871,443.76,866.86,437.62,869.29,434.11Z"/><path class="cls-28" d="M939.1,399.92c.17,2.24,5,4.06,11.15,4.06s10.92-1.83,11.15-4.06c.53-5.2-5-4.06-11.15-4.06S938.7,394.72,939.1,399.92Z"/><path class="cls-27" d="M1009.19,397.27a8.51,8.51,0,0,1-1.35-1.57c-1.45-2.14-1.73-4.48-.63-5.22.89-.6,2.42,0,3.74,1.46a10.71,10.71,0,0,1,.64-1.16c2.71-4.28,4.4-7.08,8.31-4.6s6.47,7.48,3.76,11.76a8.7,8.7,0,0,1-6.46,4.29,1.82,1.82,0,0,1-.22,1.06c-.59,1.1-1.89,1.4-5.21-.36s-4.91-4-4.32-5.07C1007.69,397.38,1008.31,397.19,1009.19,397.27Z"/><path class="cls-8" d="M925.3,371.83c.16.5,2.54-1.69,5.34-2.56s5.54-.57,5.38-1.06-2.62-1-5.71,0S925.14,371.33,925.3,371.83Z"/><path class="cls-8" d="M975.12,371.84c-.16.5-2.54-1.7-5.34-2.57s-5.54-.57-5.38-1.07,2.62-1,5.71,0S975.28,371.34,975.12,371.84Z"/><path class="cls-8" d="M346.65,509.13c-2.9-.29-6.13-1.15-7.17-1.87-1.53-1.06-.66-6.85-.55-8.36l1.45-19.47c.11-1.51,1.77-1.11,3.82-1h0c.76,3.9.11,21.62,1.68,22.71,6.15,4.25,13.28,7.68,7.63,8.1A30.14,30.14,0,0,1,346.65,509.13Z"/><path class="cls-8" d="M321.34,509.69c-2.9-.29-6.13-1.15-7.17-1.87-1.53-1.06-.66-6.85-.55-8.36L315.07,480c.11-1.51,1.77-1.11,3.82-1h0c.76,3.9.11,21.62,1.68,22.71,6.15,4.25,13.28,7.68,7.63,8.1A30.14,30.14,0,0,1,321.34,509.69Z"/><path class="cls-8" d="M351.67,442.5c15.86,11.72,40.56,17.07,51.37,0,.47-.74,1.59-.71,1.59-1.59h0c0-.87-1-2.24-1.59-1.59-19.22,21.85-39.43,5-51.37,0-.81-.34-1.59.71-1.59,1.59h0C350.08,441.79,351,442,351.67,442.5Z"/><rect class="cls-25" x="299.11" y="398.58" width="76.25" height="76.25" transform="translate(674.47 873.41) rotate(-180)"/><polygon class="cls-26" points="282.52 481.94 299.11 474.83 299.11 398.58 282.52 408.9 282.52 481.94"/><polygon class="cls-26" points="282.52 481.94 361.98 481.94 375.36 474.83 299.11 474.83 282.52 481.94"/><circle class="cls-8" cx="359.6" cy="424.11" r="3.22"/><circle class="cls-8" cx="320.17" cy="424.11" r="3.22"/><path class="cls-8" d="M279.42,459.36c5.51-7,10.48-9.48,12.76-12.52.71-.81,1-1.22.18-1.93h0a2,2,0,0,0-2.76.19s-18.45,15.7-23,27.93c-.37,1-1.88,7,.41,4.83.53-.51,4.65-8.14,4.92-8.59C273.53,466.67,278.19,460.93,279.42,459.36Z"/><path class="cls-27" d="M259.13,474.45c2.07-3,3.91-4.28,5.67-4.64-.8-.83-1.17-1.62-.91-2.21.55-1.27,3.73-1.11,7.11.35s5.68,3.67,5.13,4.93a1.68,1.68,0,0,1-1.42.81,9.13,9.13,0,0,1,1.68,4.58c.37,3.21-.54,6-2,6.13-1.31.15-2.64-1.71-3.2-4.33-2.14,3.1-2.64,7.34-6.16,5.82C260.86,484.1,256.7,478,259.13,474.45Z"/><path class="cls-28" d="M328.94,440.26c.17,2.24,5,4.06,11.15,4.06s10.92-1.83,11.15-4.06c.53-5.2-5-4.06-11.15-4.06S328.54,435.06,328.94,440.26Z"/><path class="cls-27" d="M399,437.61a8.51,8.51,0,0,1-1.35-1.57c-1.45-2.14-1.73-4.48-.63-5.22.89-.6,2.42,0,3.74,1.46a10.71,10.71,0,0,1,.64-1.16c2.71-4.28,4.4-7.08,8.31-4.6s6.47,7.48,3.76,11.76a8.7,8.7,0,0,1-6.46,4.29,1.82,1.82,0,0,1-.22,1.06c-.59,1.1-1.89,1.4-5.21-.36s-4.91-4-4.32-5.07C397.54,437.72,398.15,437.53,399,437.61Z"/><path class="cls-8" d="M315.14,412.17c.16.5,2.54-1.69,5.34-2.56s5.54-.57,5.38-1.06-2.62-1-5.71,0S315,411.68,315.14,412.17Z"/><path class="cls-8" d="M365,412.18c-.16.5-2.54-1.7-5.34-2.57s-5.54-.57-5.38-1.07,2.62-1,5.71,0S365.12,411.68,365,412.18Z"/><polygon class="cls-29" points="449.75 392.68 452.8 392.52 453.2 384.43 449.14 385.15 449.75 392.68"/><path class="cls-29" d="M390.7,385c-6.19-2.35,16.5,10.74,35.07,8.58s36.22-9.88,35.42-16.78-5.07-10.09-23.48-6.85C419.62,373.16,402.52,389.52,390.7,385Z"/><path class="cls-8" d="M525.49,428.13c11.34-7.71,14.52-17.73,17.24-14.29.94,1.19-7.75,14.27-20,20.38-11.87,5.91-17,6.82-18,5.63C501.38,435.64,514.15,435.84,525.49,428.13Z"/><path class="cls-30" d="M550.07,413c-.09-5.29-4.3-9.86-9.58-9.58-3.52.19-4.71,2.84-7.19,6.45-1.3-2.62-2.2-3.6-4.86-2.67-1.39.49-1.54,3.26-.4,6a16.58,16.58,0,0,0,2.43,4,1.31,1.31,0,0,0-.45.45c-.74,1.28,1,3.64,3.83,5.29s5.76,1.95,6.5.67a1.49,1.49,0,0,0,.12-1.07h0A9.5,9.5,0,0,0,550.07,413Z"/><path class="cls-8" d="M453.19,521c-3.14-.31-6.65-1.24-7.77-2-1.65-1.15-.71-7.42-.59-9.05l1.57-21.1c.12-1.63,1.92-1.2,4.14-1h0c.82,4.22.11,23.42,1.83,24.61,6.66,4.61,14.39,8.33,8.27,8.78A32.65,32.65,0,0,1,453.19,521Z"/><path class="cls-8" d="M485.08,517.57c-3.16,0-6.73-.6-7.93-1.28-1.76-1-1.42-7.32-1.45-9l-.44-21.15c0-1.64,1.79-1.38,4-1.42h0c1.22,4.12,2.35,23.31,4.16,24.32,7.07,4,15.12,6.92,9.07,7.95A32.65,32.65,0,0,1,485.08,517.57Z"/><ellipse class="cls-31" cx="459.96" cy="441.25" rx="55.02" ry="50.42"/><path class="cls-32" d="M467.62,484.84c-29.35,0-53.15-22.18-53.15-49.55,0-15.68,7.82-29.66,20-38.74-17.56,8.42-29.55,25.28-29.55,44.7,0,27.85,24.63,50.42,55,50.42,18.13,0,34.2-8,44.23-20.43A55.08,55.08,0,0,1,467.62,484.84Z"/><circle class="cls-8" cx="444.45" cy="429.71" r="3.2" transform="translate(-22.82 24.94) rotate(-3.13)"/><circle class="cls-8" cx="489.78" cy="425.04" r="3.2" transform="translate(-22.5 27.41) rotate(-3.13)"/><path class="cls-8" d="M449.23,412.19c.19.57-2.92-.53-6.37.59s-5.25,3.63-5.44,3.06,1.66-3,5.1-4.1S449,411.62,449.23,412.19Z"/><path class="cls-8" d="M482.79,410.51c-.09.59,2.73-.74,6.31-.19s5.82,2.7,5.91,2.11-2.16-2.63-5.74-3.18S482.89,409.92,482.79,410.51Z"/><path class="cls-33" d="M480.89,440.79c-.81,3.21-4.56,6-10.27,6.07s-9.55-2.68-10.39-5.86c-1-3.94.51-5.58,10.27-6.07C481.43,434.39,481.69,437.6,480.89,440.79Z"/><path class="cls-8" d="M406.22,467.84c-1.23,13.65,3.93,25.55-.45,25.48-1.52,0-6.12-15-3.07-28.4,3-12.93,5.53-17.5,7-17.48C415.13,447.52,407.45,454.18,406.22,467.84Z"/><path class="cls-30" d="M415.8,483a11.41,11.41,0,0,0-5.55-2.72,1.57,1.57,0,0,0,.8-1.29c-.12-1.33-3.27-2.13-7-1.77s-6.7,1.72-6.58,3c.05.59.7,1.07,1.72,1.39-2.18,1.43-3.73,4.17-2.52,9.8,1.16,5.41,7.37,6.54,12.06,5.64,4.45-.86,5.8-3.31,5.05-8.12,1.38.61,2.72.59,3.48-.17C418.45,487.56,417.8,485,415.8,483Z"/><path class="cls-8" d="M617.7,509.13c-2.9-.29-6.13-1.15-7.17-1.87-1.53-1.06-.66-6.85-.55-8.36l1.45-19.47c.11-1.51,1.77-1.11,3.82-1h0c.76,3.9.11,21.62,1.68,22.71,6.15,4.25,13.28,7.68,7.63,8.1A30.14,30.14,0,0,1,617.7,509.13Z"/><path class="cls-8" d="M592.38,509.69c-2.9-.29-6.13-1.15-7.17-1.87-1.53-1.06-.66-6.85-.55-8.36L586.11,480c.11-1.51,1.77-1.11,3.82-1h0c.76,3.9.11,21.62,1.68,22.71,6.15,4.25,13.28,7.68,7.63,8.1A30.14,30.14,0,0,1,592.38,509.69Z"/><path class="cls-8" d="M622.71,442.5c15.86,11.72,40.56,17.07,51.37,0,.47-.74,1.59-.71,1.59-1.59h0c0-.87-1-2.24-1.59-1.59-19.22,21.85-39.43,5-51.37,0-.81-.34-1.59.71-1.59,1.59h0C621.12,441.79,622,442,622.71,442.5Z"/><rect class="cls-25" x="570.15" y="398.58" width="76.25" height="76.25" transform="translate(1216.55 873.41) rotate(-180)"/><polygon class="cls-26" points="553.56 481.94 570.15 474.83 570.15 398.58 553.56 408.9 553.56 481.94"/><polygon class="cls-26" points="553.56 481.94 633.02 481.94 646.4 474.83 570.15 474.83 553.56 481.94"/><circle class="cls-8" cx="630.64" cy="424.11" r="3.22"/><circle class="cls-8" cx="591.21" cy="424.11" r="3.22"/><path class="cls-8" d="M550.46,459.36c5.51-7,10.48-9.48,12.76-12.52.71-.81,1-1.22.18-1.93h0a2,2,0,0,0-2.76.19s-18.45,15.7-23,27.93c-.37,1-1.88,7,.41,4.83.53-.51,4.65-8.14,4.92-8.59C544.57,466.67,549.24,460.93,550.46,459.36Z"/><path class="cls-27" d="M530.17,474.45c2.07-3,3.91-4.28,5.67-4.64-.8-.83-1.17-1.62-.91-2.21.55-1.27,3.73-1.11,7.11.35s5.68,3.67,5.13,4.93a1.68,1.68,0,0,1-1.42.81,9.13,9.13,0,0,1,1.68,4.58c.37,3.21-.54,6-2,6.13-1.31.15-2.64-1.71-3.2-4.33-2.14,3.1-2.64,7.34-6.16,5.82C531.9,484.1,527.75,478,530.17,474.45Z"/><path class="cls-28" d="M600,440.26c.17,2.24,5,4.06,11.15,4.06s10.92-1.83,11.15-4.06c.53-5.2-5-4.06-11.15-4.06S599.58,435.06,600,440.26Z"/><path class="cls-27" d="M670.07,437.61a8.51,8.51,0,0,1-1.35-1.57c-1.45-2.14-1.73-4.48-.63-5.22.89-.6,2.42,0,3.74,1.46a10.71,10.71,0,0,1,.64-1.16c2.71-4.28,4.4-7.08,8.31-4.6s6.47,7.48,3.76,11.76a8.7,8.7,0,0,1-6.46,4.29,1.82,1.82,0,0,1-.22,1.06c-.59,1.1-1.89,1.4-5.21-.36s-4.91-4-4.32-5.07C668.58,437.72,669.19,437.53,670.07,437.61Z"/><path class="cls-8" d="M586.18,412.17c.16.5,2.54-1.69,5.34-2.56s5.54-.57,5.38-1.06-2.62-1-5.71,0S586,411.68,586.18,412.17Z"/><path class="cls-8" d="M636,412.18c-.16.5-2.54-1.7-5.34-2.57s-5.54-.57-5.38-1.07,2.62-1,5.71,0S636.16,411.68,636,412.18Z"/><path class="cls-8" d="M746.28,509.76c-2.9-.29-6.13-1.15-7.17-1.87-1.53-1.06-.66-6.85-.55-8.36L740,480.07c.11-1.51,1.77-1.11,3.82-1h0c.76,3.9.11,21.62,1.68,22.71,6.15,4.25,13.28,7.68,7.63,8.1A30.14,30.14,0,0,1,746.28,509.76Z"/><path class="cls-8" d="M721,510.32c-2.9-.29-6.13-1.15-7.17-1.87-1.53-1.06-.66-6.85-.55-8.36l1.45-19.47c.11-1.51,1.77-1.11,3.82-1h0c.76,3.9.11,21.62,1.68,22.71,6.15,4.25,13.28,7.68,7.63,8.1A30.14,30.14,0,0,1,721,510.32Z"/><path class="cls-8" d="M751.3,443.13c15.86,11.72,40.56,17.07,51.37,0,.47-.74,1.59-.71,1.59-1.59h0c0-.87-1-2.24-1.59-1.59-19.22,21.85-39.43,5-51.37,0-.81-.34-1.59.71-1.59,1.59h0C749.71,442.42,750.59,442.61,751.3,443.13Z"/><rect class="cls-25" x="698.74" y="399.21" width="76.25" height="76.25" transform="translate(1473.72 874.67) rotate(-180)"/><polygon class="cls-26" points="682.15 482.57 698.74 475.46 698.74 399.21 682.15 409.53 682.15 482.57"/><polygon class="cls-26" points="682.15 482.57 761.6 482.57 774.99 475.46 698.74 475.46 682.15 482.57"/><circle class="cls-8" cx="759.23" cy="424.74" r="3.22"/><circle class="cls-8" cx="719.8" cy="424.74" r="3.22"/><path class="cls-8" d="M679,460c5.51-7,10.48-9.48,12.76-12.52.71-.81,1-1.22.18-1.93h0a2,2,0,0,0-2.76.19s-18.45,15.7-23,27.93c-.37,1-1.88,7,.41,4.83.53-.51,4.65-8.14,4.92-8.59C673.16,467.3,677.82,461.56,679,460Z"/><path class="cls-27" d="M658.76,475.08c2.07-3,3.91-4.28,5.67-4.64-.8-.83-1.17-1.62-.91-2.21.55-1.27,3.73-1.11,7.11.35s5.68,3.67,5.13,4.93a1.68,1.68,0,0,1-1.42.81,9.13,9.13,0,0,1,1.68,4.58c.37,3.21-.54,6-2,6.13-1.31.15-2.64-1.71-3.2-4.33-2.14,3.1-2.64,7.34-6.16,5.82C660.49,484.73,656.33,478.6,658.76,475.08Z"/><path class="cls-28" d="M728.57,440.89c.17,2.24,5,4.06,11.15,4.06s10.92-1.83,11.15-4.06c.53-5.2-5-4.06-11.15-4.06S728.17,435.69,728.57,440.89Z"/><path class="cls-27" d="M798.66,438.24a8.51,8.51,0,0,1-1.35-1.57c-1.45-2.14-1.73-4.48-.63-5.22.89-.6,2.42,0,3.74,1.46a10.71,10.71,0,0,1,.64-1.16c2.71-4.28,4.4-7.08,8.31-4.6s6.47,7.48,3.76,11.76a8.7,8.7,0,0,1-6.46,4.29,1.82,1.82,0,0,1-.22,1.06c-.59,1.1-1.89,1.4-5.21-.36s-4.91-4-4.32-5.07C797.16,438.35,797.78,438.16,798.66,438.24Z"/><path class="cls-8" d="M714.77,412.8c.16.5,2.54-1.69,5.34-2.56s5.54-.57,5.38-1.06-2.62-1-5.71,0S714.61,412.31,714.77,412.8Z"/><path class="cls-8" d="M764.59,412.81c-.16.5-2.54-1.7-5.34-2.57s-5.54-.57-5.38-1.07,2.62-1,5.71,0S764.75,412.31,764.59,412.81Z"/><path class="cls-8" d="M882.43,509.76c-2.9-.29-6.13-1.15-7.17-1.87-1.53-1.06-.66-6.85-.55-8.36l1.45-19.47c.11-1.51,1.77-1.11,3.82-1h0c.76,3.9.11,21.62,1.68,22.71,6.15,4.25,13.28,7.68,7.63,8.1A30.14,30.14,0,0,1,882.43,509.76Z"/><path class="cls-8" d="M857.12,510.32c-2.9-.29-6.13-1.15-7.17-1.87-1.53-1.06-.66-6.85-.55-8.36l1.45-19.47c.11-1.51,1.77-1.11,3.82-1h0c.76,3.9.11,21.62,1.68,22.71,6.15,4.25,13.28,7.68,7.63,8.1A30.14,30.14,0,0,1,857.12,510.32Z"/><path class="cls-8" d="M887.45,443.13c15.86,11.72,40.56,17.07,51.37,0,.47-.74,1.59-.71,1.59-1.59h0c0-.87-1-2.24-1.59-1.59-19.22,21.85-39.43,5-51.37,0-.81-.34-1.59.71-1.59,1.59h0C885.86,442.42,886.74,442.61,887.45,443.13Z"/><rect class="cls-25" x="834.89" y="399.21" width="76.25" height="76.25" transform="translate(1746.03 874.67) rotate(-180)"/><polygon class="cls-26" points="818.3 482.57 834.89 475.46 834.89 399.21 818.3 409.53 818.3 482.57"/><polygon class="cls-26" points="818.3 482.57 897.76 482.57 911.14 475.46 834.89 475.46 818.3 482.57"/><circle class="cls-8" cx="895.38" cy="424.74" r="3.22"/><circle class="cls-8" cx="855.95" cy="424.74" r="3.22"/><path class="cls-8" d="M815.2,460c5.51-7,10.48-9.48,12.76-12.52.71-.81,1-1.22.18-1.93h0a2,2,0,0,0-2.76.19s-18.45,15.7-23,27.93c-.37,1-1.88,7,.41,4.83.53-.51,4.65-8.14,4.92-8.59C809.31,467.3,814,461.56,815.2,460Z"/><path class="cls-27" d="M794.91,475.08c2.07-3,3.91-4.28,5.67-4.64-.8-.83-1.17-1.62-.91-2.21.55-1.27,3.73-1.11,7.11.35s5.68,3.67,5.13,4.93a1.68,1.68,0,0,1-1.42.81,9.13,9.13,0,0,1,1.68,4.58c.37,3.21-.54,6-2,6.13-1.31.15-2.64-1.71-3.2-4.33-2.14,3.1-2.64,7.34-6.16,5.82C796.64,484.73,792.48,478.6,794.91,475.08Z"/><path class="cls-28" d="M864.72,440.89c.17,2.24,5,4.06,11.15,4.06s10.92-1.83,11.15-4.06c.53-5.2-5-4.06-11.15-4.06S864.32,435.69,864.72,440.89Z"/><path class="cls-27" d="M934.81,438.24a8.51,8.51,0,0,1-1.35-1.57c-1.45-2.14-1.73-4.48-.63-5.22.89-.6,2.42,0,3.74,1.46a10.71,10.71,0,0,1,.64-1.16c2.71-4.28,4.4-7.08,8.31-4.6s6.47,7.48,3.76,11.76a8.7,8.7,0,0,1-6.46,4.29,1.82,1.82,0,0,1-.22,1.06c-.59,1.1-1.89,1.4-5.21-.36s-4.91-4-4.32-5.07C933.32,438.35,933.93,438.16,934.81,438.24Z"/><path class="cls-8" d="M850.92,412.8c.16.5,2.54-1.69,5.34-2.56s5.54-.57,5.38-1.06-2.62-1-5.71,0S850.76,412.31,850.92,412.8Z"/><path class="cls-8" d="M900.74,412.81c-.16.5-2.54-1.7-5.34-2.57s-5.54-.57-5.38-1.07,2.62-1,5.71,0S900.9,412.31,900.74,412.81Z"/><polygon class="cls-22" points="864.6 549.91 256.63 549.91 256.63 483.1 864.6 489.4 864.6 549.91"/><polygon class="cls-24" points="889.82 494.45 209.69 488.14 211.58 475.54 898.01 477.43 889.82 494.45"/><polygon class="cls-22" points="896.75 481.84 221.02 475.22 225.45 465.45 903.68 474.9 896.75 481.84"/><path class="cls-8" d="M517.61,422.89c10.77-7.32,13.79-16.84,16.38-13.58.9,1.13-7.36,13.55-19,19.36-11.28,5.62-16.19,6.48-17.09,5.35C494.71,430,506.84,430.21,517.61,422.89Z"/><path class="cls-34" d="M541,408.49c-.09-5-4.08-9.37-9.1-9.1-3.35.18-4.47,2.7-6.83,6.13-1.24-2.49-2.09-3.42-4.62-2.54-1.32.46-1.46,3.1-.38,5.72a15.76,15.76,0,0,0,2.31,3.82,1.25,1.25,0,0,0-.43.43c-.7,1.21.93,3.46,3.64,5s5.47,1.85,6.17.64a1.41,1.41,0,0,0,.12-1h0A9,9,0,0,0,541,408.49Z"/><path class="cls-8" d="M448.92,511.1c-3-.29-6.31-1.18-7.38-1.92-1.57-1.1-.68-7.05-.56-8.6l1.5-20c.12-1.55,1.82-1.14,3.93-1h0c.78,4,.11,22.25,1.73,23.38,6.33,4.38,13.68,7.91,7.85,8.34A31,31,0,0,1,448.92,511.1Z"/><path class="cls-8" d="M479.22,507.86c-3,0-6.4-.57-7.53-1.21-1.67-.94-1.35-7-1.38-8.51L469.88,478c0-1.55,1.7-1.31,3.82-1.35h0c1.16,3.92,2.23,22.14,4,23.11,6.72,3.76,14.37,6.57,8.61,7.55A31,31,0,0,1,479.22,507.86Z"/><ellipse class="cls-31" cx="455.35" cy="435.35" rx="52.27" ry="47.91"/><path class="cls-32" d="M462.63,476.76c-27.89,0-50.5-21.08-50.5-47.08,0-14.9,7.43-28.18,19-36.81-16.69,8-28.08,24-28.08,42.47,0,26.46,23.4,47.91,52.27,47.91,17.22,0,32.5-7.63,42-19.41A52.33,52.33,0,0,1,462.63,476.76Z"/><circle class="cls-8" cx="440.61" cy="424.39" r="3.04" transform="translate(-22.54 24.72) rotate(-3.13)"/><circle class="cls-8" cx="483.68" cy="419.96" r="3.04" transform="translate(-22.23 27.07) rotate(-3.13)"/><path class="cls-8" d="M445.16,407.75c.18.54-2.78-.51-6,.56s-5,3.45-5.17,2.91,1.58-2.82,4.85-3.89S445,407.21,445.16,407.75Z"/><path class="cls-8" d="M477,406.15c-.09.56,2.59-.7,6-.18s5.53,2.57,5.61,2-2.05-2.5-5.45-3S477.13,405.58,477,406.15Z"/><path class="cls-33" d="M475.24,434.92c-.77,3-4.34,5.71-9.76,5.76s-9.07-2.54-9.87-5.57c-1-3.75.48-5.3,9.76-5.76C475.75,428.83,476,431.88,475.24,434.92Z"/><path class="cls-8" d="M404.3,460.61c-1.17,13,3.74,24.28-.43,24.21-1.44,0-5.81-14.29-2.91-27,2.81-12.29,5.25-16.63,6.7-16.61C412.76,441.31,405.46,447.64,404.3,460.61Z"/><path class="cls-34" d="M413.4,475a10.84,10.84,0,0,0-5.27-2.59,1.49,1.49,0,0,0,.76-1.22c-.12-1.26-3.11-2-6.68-1.68s-6.37,1.63-6.25,2.9c.05.56.66,1,1.63,1.32-2.07,1.36-3.54,4-2.39,9.31,1.1,5.14,7,6.22,11.46,5.36,4.23-.82,5.51-3.15,4.8-7.71,1.31.58,2.58.56,3.31-.16C415.91,479.36,415.3,476.89,413.4,475Z"/><path class="cls-35" d="M444.83,388.89s-9.28,5-12.34,6.38-11.77,4.43-11.77,4.43l-5.28-11.77,24.11-10.81Z"/><rect class="cls-36" x="401.04" y="398.04" width="1.51" height="22.2"/><path class="cls-37" d="M449.46,378.06l-50,22.41a1.8,1.8,0,0,1-2.26-2.58L407.66,381A7.62,7.62,0,0,1,411,378l45.81-20.75a1.89,1.89,0,0,1,2.5,2.5l-7.07,15.52A5.53,5.53,0,0,1,449.46,378.06Z"/><polygon class="cls-36" points="422.94 379.13 403.41 387.59 402.69 388.86 425.87 378.94 422.94 379.13"/><path class="cls-8" d="M348.43,505.93c-2.87-.28-6.08-1.13-7.11-1.85-1.51-1.05-.65-6.79-.54-8.28l1.44-19.29c.11-1.49,1.75-1.1,3.78-.94h0c.75,3.86.1,21.42,1.67,22.5,6.09,4.21,13.16,7.61,7.56,8A29.86,29.86,0,0,1,348.43,505.93Z"/><path class="cls-8" d="M323.35,506.48c-2.87-.28-6.08-1.13-7.11-1.85-1.51-1.05-.65-6.79-.54-8.28l1.44-19.29c.11-1.49,1.75-1.1,3.78-.94h0c.75,3.86.1,21.42,1.67,22.5,6.09,4.21,13.16,7.61,7.56,8A29.86,29.86,0,0,1,323.35,506.48Z"/><path class="cls-8" d="M353.39,439.92c15.72,11.61,40.18,16.91,50.9,0,.46-.73,1.57-.71,1.57-1.57h0c0-.86-1-2.22-1.57-1.57-19,21.64-39.06,4.95-50.9,0-.8-.33-1.57.71-1.57,1.57h0C351.82,439.21,352.7,439.41,353.39,439.92Z"/><rect class="cls-25" x="301.32" y="396.41" width="75.54" height="75.54" transform="translate(678.19 868.35) rotate(-180)"/><polygon class="cls-26" points="284.89 478.99 301.32 471.95 301.32 396.41 284.89 406.63 284.89 478.99"/><polygon class="cls-26" points="284.89 478.99 363.61 478.99 376.86 471.95 301.32 471.95 284.89 478.99"/><circle class="cls-8" cx="361.25" cy="421.7" r="3.19"/><circle class="cls-8" cx="322.19" cy="421.7" r="3.19"/><path class="cls-8" d="M281.82,456.62c5.46-7,10.38-9.39,12.64-12.41.7-.8,1-1.21.18-1.91h0a2,2,0,0,0-2.74.19S273.62,458,269.16,470.16c-.37,1-1.86,7,.41,4.78.53-.5,4.61-8.07,4.88-8.51C276,463.86,280.6,458.17,281.82,456.62Z"/><path class="cls-38" d="M261.72,471.57c2-3,3.87-4.24,5.62-4.6-.79-.82-1.15-1.61-.9-2.19.54-1.25,3.69-1.1,7,.35s5.62,3.63,5.08,4.89a1.66,1.66,0,0,1-1.41.8,9,9,0,0,1,1.66,4.54c.37,3.18-.53,5.9-2,6.08-1.3.15-2.62-1.7-3.17-4.29-2.12,3.07-2.62,7.27-6.1,5.76C263.43,481.14,259.31,475.05,261.72,471.57Z"/><path class="cls-28" d="M330.88,437.7c.17,2.21,4.95,4,11,4s10.82-1.81,11-4c.53-5.15-4.95-4-11-4S330.48,432.55,330.88,437.7Z"/><path class="cls-38" d="M400.32,435.07a8.43,8.43,0,0,1-1.34-1.55c-1.43-2.12-1.71-4.43-.63-5.17.88-.6,2.4,0,3.71,1.44a10.61,10.61,0,0,1,.63-1.15c2.68-4.24,4.36-7,8.23-4.56s6.41,7.41,3.73,11.65a8.62,8.62,0,0,1-6.4,4.25,1.8,1.8,0,0,1-.22,1c-.58,1.09-1.87,1.39-5.16-.36s-4.86-3.93-4.28-5C398.84,435.19,399.45,435,400.32,435.07Z"/><path class="cls-8" d="M317.21,409.87c.16.49,2.52-1.68,5.29-2.54s5.49-.56,5.33-1.05-2.6-1-5.66,0S317,409.38,317.21,409.87Z"/><path class="cls-8" d="M366.56,409.88c-.16.49-2.52-1.68-5.29-2.55s-5.49-.57-5.33-1.06,2.6-.95,5.66,0S366.72,409.38,366.56,409.88Z"/><path class="cls-35" d="M316.93,396.63s-9.56,2.94-12.66,3.64-11.77,1.94-11.77,1.94l-2.73-11.92,24.43-5.59Z"/><rect class="cls-36" x="276.95" y="397.57" width="1.43" height="21.05"/><path class="cls-37" d="M323.25,387.42,272.61,399a1.7,1.7,0,0,1-1.63-2.82l12.85-13.79a7.23,7.23,0,0,1,3.65-2.11l46.45-10.81a1.79,1.79,0,0,1,1.86,2.79l-9.45,13.12A5.24,5.24,0,0,1,323.25,387.42Z"/><polygon class="cls-36" points="298.39 383.5 278.66 387.75 277.75 388.8 301.14 383.86 298.39 383.5"/><path class="cls-8" d="M617.47,508.81c-2.87-.28-6.08-1.13-7.11-1.85-1.51-1.05-.65-6.79-.54-8.28l1.44-19.29c.11-1.49,1.75-1.1,3.78-.94h0c.75,3.86.1,21.42,1.67,22.5,6.09,4.21,13.16,7.61,7.56,8A29.86,29.86,0,0,1,617.47,508.81Z"/><path class="cls-8" d="M592.39,509.35c-2.87-.28-6.08-1.13-7.11-1.85-1.51-1.05-.65-6.79-.54-8.28l1.44-19.29c.11-1.49,1.75-1.1,3.78-.94h0c.75,3.86.1,21.42,1.67,22.5,6.09,4.21,13.16,7.61,7.56,8A29.86,29.86,0,0,1,592.39,509.35Z"/><path class="cls-8" d="M622.44,442.79c15.72,11.61,40.18,16.91,50.9,0,.46-.73,1.57-.71,1.57-1.57h0c0-.86-1-2.22-1.57-1.57-19,21.64-39.06,4.95-50.9,0-.8-.33-1.57.71-1.57,1.57h0C620.87,442.08,621.74,442.28,622.44,442.79Z"/><rect class="cls-25" x="570.37" y="399.28" width="75.54" height="75.54" transform="translate(1216.28 874.1) rotate(-180)"/><polygon class="cls-26" points="553.93 481.86 570.37 474.82 570.37 399.28 553.93 409.5 553.93 481.86"/><polygon class="cls-26" points="553.93 481.86 632.65 481.86 645.91 474.82 570.37 474.82 553.93 481.86"/><circle class="cls-8" cx="630.3" cy="424.57" r="3.19"/><circle class="cls-8" cx="591.24" cy="424.57" r="3.19"/><path class="cls-8" d="M550.86,459.5c5.46-7,10.38-9.39,12.64-12.41.7-.8,1-1.21.18-1.91h0a2,2,0,0,0-2.74.19S542.67,460.92,538.21,473c-.37,1-1.86,7,.41,4.78.53-.5,4.61-8.07,4.88-8.51C545,466.73,549.65,461,550.86,459.5Z"/><path class="cls-38" d="M530.76,474.44c2-3,3.87-4.24,5.62-4.6-.79-.82-1.15-1.61-.9-2.19.54-1.25,3.69-1.1,7,.35s5.62,3.63,5.08,4.89a1.66,1.66,0,0,1-1.41.8,9,9,0,0,1,1.66,4.54c.37,3.18-.53,5.9-2,6.08-1.3.15-2.62-1.7-3.17-4.29-2.12,3.07-2.62,7.27-6.1,5.76C532.48,484,528.36,477.93,530.76,474.44Z"/><path class="cls-28" d="M599.92,440.57c.17,2.21,4.95,4,11,4s10.82-1.81,11-4c.53-5.15-4.95-4-11-4S599.53,435.42,599.92,440.57Z"/><path class="cls-38" d="M669.36,437.94a8.43,8.43,0,0,1-1.34-1.55c-1.43-2.12-1.71-4.43-.63-5.17.88-.6,2.4,0,3.71,1.44a10.61,10.61,0,0,1,.63-1.15c2.68-4.24,4.36-7,8.23-4.56s6.41,7.41,3.73,11.65a8.62,8.62,0,0,1-6.4,4.25,1.8,1.8,0,0,1-.22,1c-.58,1.09-1.87,1.39-5.16-.36s-4.86-3.93-4.28-5C667.88,438.06,668.49,437.87,669.36,437.94Z"/><path class="cls-8" d="M586.25,412.75c.16.49,2.52-1.68,5.29-2.54s5.49-.56,5.33-1.05-2.6-1-5.66,0S586.09,412.25,586.25,412.75Z"/><path class="cls-8" d="M635.61,412.75c-.16.49-2.52-1.68-5.29-2.55s-5.49-.57-5.33-1.06,2.6-.95,5.66,0S635.77,412.26,635.61,412.75Z"/><path class="cls-35" d="M629.25,247s-10-.52-13.14-.92-11.72-2.21-11.72-2.21l1.53-12.13,24.86,3.14Z"/><rect class="cls-36" x="587.72" y="233.76" width="1.43" height="21.05" transform="translate(119.58 -187.11) rotate(20.07)"/><path class="cls-37" d="M638.35,240.5,586.81,234a1.7,1.7,0,0,1-.56-3.21l16.8-8.55a7.23,7.23,0,0,1,4.15-.73l47.34,5.78a1.79,1.79,0,0,1,.79,3.26l-13.38,9.08A5.24,5.24,0,0,1,638.35,240.5Z"/><polygon class="cls-36" points="616.34 228.3 596.35 225.51 595.14 226.19 618.8 229.58 616.34 228.3"/><path class="cls-35" d="M472.84,241.2S463.93,245.73,461,247s-11.26,3.94-11.26,3.94L445,239.62l23.1-9.7Z"/><rect class="cls-36" x="435.42" y="248.71" width="1.43" height="21.05" transform="translate(-38.08 78.85) rotate(-9.9)"/><path class="cls-37" d="M477.48,231l-47.9,20.12a1.7,1.7,0,0,1-2.09-2.5l10.29-15.8a7.23,7.23,0,0,1,3.23-2.71l43.9-18.64a1.79,1.79,0,0,1,2.31,2.43l-7.06,14.55A5.24,5.24,0,0,1,477.48,231Z"/><polygon class="cls-36" points="452.32 231.45 433.61 239.02 432.9 240.22 455.09 231.33 452.32 231.45"/><path class="cls-35" d="M777.19,234.64s-9.76-2.16-12.81-3.07-11.2-4.11-11.2-4.11l3.5-11.72,24,7.18Z"/><rect class="cls-36" x="736.67" y="214.73" width="1.43" height="21.05" transform="translate(206.84 -334.2) rotate(29.53)"/><path class="cls-37" d="M787.23,229.73l-49.77-14.89a1.7,1.7,0,0,1,0-3.26l18-5.67a7.23,7.23,0,0,1,4.22,0l45.74,13.49a1.79,1.79,0,0,1,.24,3.34l-14.69,6.76A5.24,5.24,0,0,1,787.23,229.73Z"/><polygon class="cls-36" points="767.53 214.07 748.27 208.04 746.97 208.51 769.75 215.74 767.53 214.07"/><path class="cls-35" d="M880.6,301.66s-9.76-2.16-12.81-3.07-11.2-4.11-11.2-4.11l3.5-11.72,24,7.18Z"/><rect class="cls-36" x="840.07" y="281.75" width="1.43" height="21.05" transform="translate(253.31 -376.46) rotate(29.53)"/><path class="cls-37" d="M890.64,296.75l-49.77-14.89a1.7,1.7,0,0,1,0-3.26l18-5.67a7.23,7.23,0,0,1,4.22,0l45.74,13.49a1.79,1.79,0,0,1,.24,3.34l-14.69,6.76A5.24,5.24,0,0,1,890.64,296.75Z"/><polygon class="cls-36" points="870.94 281.1 851.68 275.06 850.37 275.53 873.16 282.76 870.94 281.1"/><path class="cls-35" d="M717,316.87s-8.76,4.82-11.65,6.15-11.12,4.3-11.12,4.3l-5.1-11.12,22.78-10.44Z"/><rect class="cls-36" x="680.19" y="325.56" width="1.43" height="21.05" transform="matrix(0.98, -0.2, 0.2, 0.98, -54.19, 145.75)"/><path class="cls-37" d="M721.32,306.56l-47.22,21.66a1.7,1.7,0,0,1-2.17-2.43l9.77-16.12a7.23,7.23,0,0,1,3.14-2.81l43.27-20a1.79,1.79,0,0,1,2.39,2.35l-6.58,14.77A5.24,5.24,0,0,1,721.32,306.56Z"/><polygon class="cls-36" points="696.18 307.79 677.73 315.96 677.06 317.18 698.95 307.58 696.18 307.79"/><path class="cls-35" d="M533.18,337s-8.76,4.82-11.65,6.15-11.12,4.3-11.12,4.3l-5.1-11.12,22.78-10.44Z"/><rect class="cls-36" x="496.36" y="345.67" width="1.43" height="21.05" transform="translate(-62.14 108.73) rotate(-11.75)"/><path class="cls-37" d="M537.48,326.66l-47.22,21.66a1.7,1.7,0,0,1-2.17-2.43l9.77-16.12A7.23,7.23,0,0,1,501,327l43.27-20a1.79,1.79,0,0,1,2.39,2.35L540.09,324A5.24,5.24,0,0,1,537.48,326.66Z"/><polygon class="cls-36" points="512.35 327.9 493.9 336.07 493.23 337.29 515.12 327.69 512.35 327.9"/><path class="cls-35" d="M340.78,297.84s-10-.85-13.1-1.35S316,293.9,316,293.9L318,281.82l24.74,3.95Z"/><rect class="cls-36" x="299.36" y="283.28" width="1.43" height="21.05" transform="translate(131.56 -90.87) rotate(21.95)"/><path class="cls-37" d="M350.09,291.65l-51.3-8.19a1.7,1.7,0,0,1-.45-3.23l17.08-8a7.23,7.23,0,0,1,4.17-.6L366.7,279a1.79,1.79,0,0,1,.68,3.28l-13.67,8.64A5.24,5.24,0,0,1,350.09,291.65Z"/><polygon class="cls-36" points="328.49 278.74 308.6 275.3 307.37 275.94 330.91 280.1 328.49 278.74"/><path class="cls-8" d="M745.77,507.85c-2.87-.28-6.08-1.13-7.11-1.85-1.51-1.05-.65-6.79-.54-8.28l1.44-19.29c.11-1.49,1.75-1.1,3.78-.94h0c.75,3.86.1,21.42,1.67,22.5,6.09,4.21,13.16,7.61,7.56,8A29.86,29.86,0,0,1,745.77,507.85Z"/><path class="cls-8" d="M720.69,508.4c-2.87-.28-6.08-1.13-7.11-1.85-1.51-1.05-.65-6.79-.54-8.28L714.48,479c.11-1.49,1.75-1.1,3.78-.94h0c.75,3.86.1,21.42,1.67,22.5,6.09,4.21,13.16,7.61,7.56,8A29.86,29.86,0,0,1,720.69,508.4Z"/><path class="cls-8" d="M750.74,441.84c15.72,11.61,40.18,16.91,50.9,0,.46-.73,1.57-.71,1.57-1.57h0c0-.86-1-2.22-1.57-1.57-19,21.64-39.06,4.95-50.9,0-.8-.33-1.57.71-1.57,1.57h0C749.17,441.13,750,441.32,750.74,441.84Z"/><rect class="cls-25" x="698.67" y="398.32" width="75.54" height="75.54" transform="translate(1472.88 872.18) rotate(-180)"/><polygon class="cls-26" points="682.24 480.91 698.67 473.86 698.67 398.32 682.24 408.54 682.24 480.91"/><polygon class="cls-26" points="682.24 480.91 760.95 480.91 774.21 473.86 698.67 473.86 682.24 480.91"/><circle class="cls-8" cx="758.6" cy="423.62" r="3.19"/><circle class="cls-8" cx="719.54" cy="423.62" r="3.19"/><path class="cls-8" d="M679.16,458.54c5.46-7,10.38-9.39,12.64-12.41.7-.8,1-1.21.18-1.91h0a2,2,0,0,0-2.74.19S671,460,666.51,472.08c-.37,1-1.86,7,.41,4.78.53-.5,4.61-8.07,4.88-8.51C673.33,465.77,677.95,460.09,679.16,458.54Z"/><path class="cls-38" d="M659.06,473.49c2-3,3.87-4.24,5.62-4.6-.79-.82-1.15-1.61-.9-2.19.54-1.25,3.69-1.1,7,.35s5.62,3.63,5.08,4.89a1.66,1.66,0,0,1-1.41.8,9,9,0,0,1,1.66,4.54c.37,3.18-.53,5.9-2,6.08-1.3.15-2.62-1.7-3.17-4.29-2.12,3.07-2.62,7.27-6.1,5.76C660.78,483.05,656.66,477,659.06,473.49Z"/><path class="cls-28" d="M728.22,439.61c.17,2.21,4.95,4,11,4s10.82-1.81,11-4c.53-5.15-4.95-4-11-4S727.82,434.46,728.22,439.61Z"/><path class="cls-38" d="M797.66,437a8.43,8.43,0,0,1-1.34-1.55c-1.43-2.12-1.71-4.43-.63-5.17.88-.6,2.4,0,3.71,1.44a10.61,10.61,0,0,1,.63-1.15c2.68-4.24,4.36-7,8.23-4.56s6.41,7.41,3.73,11.65a8.62,8.62,0,0,1-6.4,4.25,1.8,1.8,0,0,1-.22,1c-.58,1.09-1.87,1.39-5.16-.36s-4.86-3.93-4.28-5C796.18,437.1,796.79,436.91,797.66,437Z"/><path class="cls-8" d="M714.55,411.79c.16.49,2.52-1.68,5.29-2.54s5.49-.56,5.33-1.05-2.6-1-5.66,0S714.39,411.3,714.55,411.79Z"/><path class="cls-8" d="M763.91,411.79c-.16.49-2.52-1.68-5.29-2.55s-5.49-.57-5.33-1.06,2.6-.95,5.66,0S764.07,411.3,763.91,411.79Z"/><path class="cls-35" d="M714.27,398.55s-9.56,2.94-12.66,3.64-11.77,1.94-11.77,1.94l-2.73-11.92,24.43-5.59Z"/><rect class="cls-36" x="674.3" y="399.49" width="1.43" height="21.05"/><path class="cls-37" d="M720.59,389.33,670,400.91a1.7,1.7,0,0,1-1.63-2.82l12.85-13.79a7.23,7.23,0,0,1,3.65-2.11l46.45-10.81a1.79,1.79,0,0,1,1.86,2.79l-9.45,13.12A5.24,5.24,0,0,1,720.59,389.33Z"/><polygon class="cls-36" points="695.74 385.42 676 389.66 675.1 390.72 698.49 385.78 695.74 385.42"/></g></g></svg>