<svg xmlns="http://www.w3.org/2000/svg" viewBox="0 0 1280 643.62"><defs><style>.cls-1{fill:#174a8d;}.cls-2{fill:#2d6caa;}.cls-3{fill:#1b5998;}.cls-4{fill:#165689;}</style></defs><title>background2</title><g id="Layer_2" data-name="Layer 2"><g id="Layer_1-2" data-name="Layer 1"><rect class="cls-1" width="1280" height="635.06"/><path class="cls-2" d="M481,309.74l-22,5.88c-.44-.41-1-.89-1.46-1.39q-14.78-14.89-29.54-29.8a2.88,2.88,0,0,0-3.25-.91c-7.28,2-14.59,3.93-21.89,5.88l-2.08.55,56.13,56.41-22.09,5.9L386.68,304,375.43,346l-16.23-16.4L367.39,299c-.8.15-1.36.21-1.89.35-5.27,1.4-10.53,2.86-15.82,4.18a2.87,2.87,0,0,0-2.36,2.41q-7.8,29.52-15.71,59-2.94,11-5.9,22.08c-.22.82-.4,1.65-.61,2.5l14.27,14.31c.28-.94.5-1.61.68-2.29,2.34-8.82,4.7-17.64,7-26.48a2.87,2.87,0,0,1,2.38-2.4c6-1.54,12.07-3.21,18.1-4.82l2.25-.6L358.66,409c.84-.16,1.4-.23,1.95-.37,6-1.57,12.08-3.14,18.12-4.74q21.82-5.78,43.62-11.63a3.17,3.17,0,0,1,3.6,1c4.27,4.45,8.66,8.8,13,13.18.41.41.79.85,1.43,1.55-5.2,1.62-10.29,2.74-15.3,4.12s-10.16,2.72-15.24,4.08l-15.24,4.07-15.24,4.07-15.56,4.15,18.9,19L427,435.67l16,16.18c-14.79,4.16-29.33,7.81-44.12,11.92l19.76,19.91-14,14c-6.65-6.52-13-13.16-19.85-19.86L373,522.09c-.56-.48-.92-.75-1.24-1.07-4.59-4.6-9.15-9.23-13.79-13.79a2.59,2.59,0,0,1-.77-2.94c3.67-13.5,7.24-27,10.93-40.51a3.47,3.47,0,0,0-1-4c-5.31-5.18-10.49-10.49-15.73-15.75-.45-.45-.94-.86-1.61-1.47l-20.46,76.87c-5.59-5.38-10.79-10.78-16.21-16.16l17.46-65.84a56.41,56.41,0,0,0-7,1.69c-2.3.57-4.57,1.21-6.86,1.82l-7,1.88-6.86,1.83-6.86,1.82-7.05,1.88c.19-.91.28-1.54.44-2.14,1.65-6.15,3.37-12.29,4.95-18.46a2.73,2.73,0,0,1,2.32-2.21c9.09-2.36,18.17-4.8,27.25-7.21.38-.1.74-.24,1.27-.41a10.67,10.67,0,0,0-.84-1.12c-4.2-4.25-8.43-8.47-12.62-12.73a1.88,1.88,0,0,0-2.26-.63,8.1,8.1,0,0,1-1,.26q-40.09,10.7-80.2,21.36a3.29,3.29,0,0,0-2.78,2.74c-1.25,5.17-2.7,10.29-4.06,15.43-.2.74-.36,1.5-.6,2.51l30.41-8.12L267.51,454l-41.8,11.16c5.51,5.68,10.84,11,16.12,16.31s10.63,10.72,15.95,16.09l16.05,16.21-6,22.16-56.15-56.56-6.89,25.89,32.41,32.6L231.32,560l-32.42-32.5-7.25,27.09-19.15-5.19,7.2-27.06c-4,.81-7.55,1.91-11.14,2.84s-7.37,2-11,2.94L146.65,531l-11.06,3c.18-.91.25-1.48.4-2,1.63-6.16,3.32-12.3,4.87-18.47a2.56,2.56,0,0,1,2.2-2.08c13.47-3.55,26.92-7.17,40.4-10.69a3.31,3.31,0,0,0,2.8-2.72c1.84-7.26,3.81-14.48,5.73-21.71.16-.61.28-1.23.46-2.06l-76.19,20.34c-.14-1.49,4-18,5.6-22.17l65.55-17.5-30.47-30.72,22.18-5.92,22.34,22.51,5.46-20.44-61.7-62-20.33,5.43c.73.75,1.3,1.35,1.88,1.94,6.39,6.42,12.77,12.86,19.21,19.23a2.58,2.58,0,0,1,.82,2.92c-1.72,6.2-3.32,12.44-5,18.66-.15.56-.33,1.11-.58,1.95l-30.53-30.66c-1.66,5.62-3,11-4.48,16.44s-3,11-4.46,16.55L97.41,427.1,93,443.5l-22,5.88c1.61-6.58,3.43-12.92,5.1-19.3s3.39-12.69,5.09-19,3.44-12.81,5.15-19.22,3.37-12.63,5.13-19.18l-25.71,6.86c-.18.6-.42,1.27-.6,2-3.59,13.45-7.19,26.9-10.72,40.36a3,3,0,0,1-2.48,2.54c-6,1.49-11.95,3.14-17.91,4.74l-2.26.6L43.5,385.39l-26.81,7.16-5.16-19.33L38.4,366,6.13,333.49l22.06-5.89c1.12,1.12,2.33,2.31,3.53,3.52Q45.39,344.89,59,358.68a3,3,0,0,0,3.43.95c7.15-2,14.34-3.87,21.51-5.78l2.26-.6c-3.75-4-7.51-7.61-11.16-11.32s-7.5-7.54-11.26-11.31L52.7,319.45,41.44,308.14,30.1,296.73l4.71-1.26c5.27-1.41,10.55-2.78,15.8-4.25a2.46,2.46,0,0,1,2.75.76Q76,314.75,98.7,337.46c.5.5,1,1,1.72,1.64l11.21-41.89,16.21,16.41-8.17,30.55c.89-.17,1.51-.26,2.11-.42,5.34-1.41,10.65-2.9,16-4.23a3,3,0,0,0,2.53-2.51c3.08-11.82,6.25-23.61,9.4-35.41L162,255.55c.12-.44.21-.89.35-1.49l-14.69-14.76-8.14,30.61-22.18,5.92L128.45,234l-2.27.6-40,10.58c-7.24,1.92-14.49,3.8-21.72,5.78a2.73,2.73,0,0,1-3.1-.81c-4.38-4.54-8.85-9-13.28-13.46-.4-.41-.77-.85-1.32-1.46l76.36-20.38A16.63,16.63,0,0,0,122,213.5c-5.45-5.5-10.95-11-16.35-16.52a2.73,2.73,0,0,0-3.1-.82c-13.45,3.64-26.92,7.18-40.36,10.85a3.28,3.28,0,0,1-3.75-1c-4.18-4.36-8.48-8.6-12.74-12.89-.49-.5-.95-1-1.65-1.8l44-11.75c-2.24-2.59-4.5-4.64-6.61-6.82s-4.26-4.28-6.39-6.43l-6.69-6.75c4.61-4.74,9.24-9.32,14-14.05l19.8,19.89L114.12,121l16.19,16.21q-1.52,5.74-3,11.43-4.19,15.7-8.41,31.4a2.47,2.47,0,0,0,.63,2.79c5.65,5.59,11.23,11.24,16.84,16.87.27.27.59.49,1,.86l20.45-76.91L174,139.86l-17.49,66c7.15-1.78,13.94-3.67,20.75-5.47s13.71-3.66,20.57-5.49c.21,1.43-3.39,15.62-5.61,22.24l-30.42,8.12c.66.72,1.12,1.24,1.61,1.73,3.75,3.78,7.53,7.51,11.23,11.34a2.9,2.9,0,0,0,3.26.91Q200.76,233,223.63,227c11.87-3.17,23.74-6.36,35.63-9.48a2.89,2.89,0,0,0,2.42-2.36c1.32-5.29,2.78-10.54,4.17-15.81.15-.55.25-1.12.46-2l-2.26.6c-8.76,2.35-17.53,4.66-26.26,7.1a3,3,0,0,1-3.43-.95c-4.31-4.42-8.7-8.75-13.07-13.12-.5-.5-1-1-1.7-1.77,2.44-.82,4.71-1.32,6.94-1.94s4.57-1.22,6.86-1.83l7-1.88,6.86-1.83,6.86-1.83,7.17-1.91-48.08-48.53,5.95-22.14,56.05,56.45c.24-.72.45-1.24.6-1.78,2-7.42,3.93-14.85,6-22.26a2.75,2.75,0,0,0-.84-3.1Q266.4,122,251.9,107.43a11.63,11.63,0,0,0-1.12-1.11,2,2,0,0,1-.61-2.44c1-3.41,1.86-6.84,2.79-10.26l2.82-10.43,32.36,32.47c2.59-9.07,4.78-18,7.33-27l19.11,5.18-7.11,26.74a3.21,3.21,0,0,0,2.36-.23q19.63-5.19,39.25-10.41l2.53-.68-5.87,22.08-44.31,11.83L294.52,169c13-3.37,25.63-6.85,38.28-10.22s25.35-6.76,38.26-10.21c-.12.77-.15,1.27-.28,1.75-1.65,6.22-3.35,12.43-4.92,18.67a2.59,2.59,0,0,1-2.2,2.1q-15.44,4.08-30.85,8.26l-31,8.37-2.1.56c10.16,10.38,20.25,20.38,30.37,30.69-.62.24-1,.44-1.4.55-6.29,1.67-12.59,3.29-18.86,5a2.9,2.9,0,0,1-3.25-.95c-6.37-6.53-12.82-13-19.24-19.48-.5-.5-1-1-1.67-1.6-.23.73-.43,1.27-.58,1.82-1.41,5.26-2.78,10.54-4.23,15.79a2.49,2.49,0,0,0,.68,2.79q30.31,30.42,60.57,60.89c.27.28.58.52.89.8l19.2-5.12c-7.48-7.63-14.94-15-22.32-22.47l5.89-22.29L376.4,265.5l17.67-65.81,22-5.87c-1.57,6.56-3.39,12.88-5.06,19.24s-3.4,12.69-5.09,19-3.42,12.81-5.14,19.22l-5.13,19.2,25.8-6.89,11.76-44.16,22-5.87c-.59,3.06-1.5,5.9-2.23,8.77s-1.56,5.84-2.33,8.76-1.58,6-2.38,8.95-1.57,5.83-2.35,8.75-1.52,5.79-2.36,9l26.83-7.16L475.54,270l-26.89,7.18ZM266.57,236l-2.06.55q-40.46,10.8-80.93,21.56a3.2,3.2,0,0,0-2.62,2.64q-10.8,40.74-21.72,81.44a2.77,2.77,0,0,0,.81,3.11q29.89,30,59.69,60.06a2.75,2.75,0,0,0,3.1.8q40.73-10.92,81.49-21.75a2.75,2.75,0,0,0,2.25-2.27q10.77-40.64,21.68-81.24a3.51,3.51,0,0,0-1-4q-25.06-25.07-50-50.24Z"/><path class="cls-2" d="M225.63,389.39l-6.84-6.85q-20.68-20.81-41.39-41.6a3.06,3.06,0,0,1-.92-3.44q8.57-31.85,17-63.74a3.49,3.49,0,0,1,2.84-2.93q31.73-8.36,63.4-16.91a3.35,3.35,0,0,1,3.77,1q23.19,23.46,46.47,46.82c.46.46.91.94,1.45,1.49-.09.45-.16,1-.29,1.46Q302.54,337,294,369.21a3.19,3.19,0,0,1-2.58,2.68q-31.92,8.41-63.79,17Zm30.22-113.63-45.42,12.12c-.13.35-.27.64-.36,1q-5.8,21.69-11.61,43.37a2.34,2.34,0,0,0,.81,2.57q15.44,15.47,30.81,31a2.88,2.88,0,0,0,3.25.86c13.95-3.78,27.92-7.49,41.88-11.21L277,355c.19-.66.39-1.28.56-1.91,3.74-14,7.46-28,11.26-42a2.76,2.76,0,0,0-.89-3.09q-14.2-14.2-28.33-28.48C258.35,278.21,257.08,277,255.85,275.77Z"/><path class="cls-3" d="M1127.29,545.64l-30.48,13.57-21-47.18c-5.06,6.55-9.49,13.05-14.37,19.51L1034.52,512c.41-.64.77-1.25,1.19-1.82q11.47-15.77,23-31.51a3.42,3.42,0,0,0,.52-4c-3-6.44-5.82-13-8.72-19.45-.29-.66-.66-1.28-1.17-2.28l-33.23,45.67L989.13,479.1c.47-.69.88-1.36,1.34-2q20.89-28.73,41.83-57.42a3.76,3.76,0,0,0,.44-4.42c-3-6.51-5.9-13.09-8.79-19.67a7.1,7.1,0,0,0-2.49-3.06c-5.35-3.82-10.66-7.71-16-11.57-.6-.44-1.22-.84-2-1.39-.12.88-.24,1.6-.31,2.32q-3,28-5.91,56a7.49,7.49,0,0,1-1.51,3.88c-3.31,4.43-6.55,8.91-9.83,13.36-.43.59-.89,1.16-1.52,2-.34-.64-.6-1.05-.79-1.49-2.33-5.26-4.65-10.54-7-15.8a7.7,7.7,0,0,1-.61-4.13q3-27.64,5.88-55.29c.08-.8.12-1.61.19-2.65-.73.24-1.28.38-1.79.6-6.43,2.85-12.86,5.69-19.26,8.6a5.9,5.9,0,0,0-2.28,1.69c-4.58,6.19-9.08,12.43-13.59,18.66-.26.36-.47.75-.78,1.24L975,477.44,944.66,491l-22.71-51c-1.43.93-13.67,17.39-15.68,21l17.51,39.32-30.4,13.54-9.73-21.85c-3,3.67-5.37,7.23-7.91,10.66s-5,6.88-7.53,10.32-5.08,7-7.63,10.53-5,6.85-7.61,10.41l-27-19.58,30.51-42-24.09-2.56,3.51-33.14,43.31,4.5,15.41-21.21L838.29,414l3.5-33.16,3.25.32q35,3.65,70,7.34a3.41,3.41,0,0,0,3.68-1.65c4.13-5.86,8.43-11.6,12.61-17.43a5.89,5.89,0,0,0,1.18-2.58c.83-7.28,1.55-14.56,2.3-21.85,0-.35,0-.7,0-1.44l-2.63,1.17Q907,355.95,881.78,367.19a7.52,7.52,0,0,1-4.11.65c-5.79-.67-11.59-1.25-17.38-1.87-.51-.05-1-.17-1.71-.3.46-.68.8-1.22,1.17-1.73,3.4-4.64,6.84-9.25,10.2-13.91a6.83,6.83,0,0,1,2.91-2.32Q898.4,336.38,923.91,325l2.66-1.18c-.76-.61-1.2-1-1.66-1.33-5.56-4-11.11-8.1-16.7-12.11a5.42,5.42,0,0,0-2.39-1.05c-8.17-.91-16.34-1.74-24.52-2.59a3.25,3.25,0,0,0-.62.09l-44.55,61.23-27-19.57,33.3-45.83-26.07-2.74-25.62,35.22-27-19.58L778,295.94l-51.61-5.42,3.52-33.17,51.49,5.37a51.16,51.16,0,0,0-2.36-5.66c-.77-1.79-1.58-3.56-2.37-5.33l-2.46-5.53L771.84,241c1.43-1.18,27.36-12.87,30.35-13.7.36.73.77,1.49,1.12,2.29,5.18,11.61,10.4,23.21,15.46,34.87a3.88,3.88,0,0,0,3.79,2.65c6.55.57,13.08,1.32,19.62,2l3.54.35c-.58-2.45-1.79-4.43-2.66-6.52s-1.94-4.38-2.91-6.56L837.32,250l-2.83-6.35-2.83-6.35-2.92-6.56-2.83-6.35L823,217.88l30.46-13.56,1.09,2.46Q868.91,239,883.2,271.16a3.75,3.75,0,0,0,3.58,2.61c7.07.62,14.12,1.43,21.18,2.19a6.72,6.72,0,0,0,3.68-.55c6.19-2.83,12.42-5.56,18.64-8.33l2.11-.94c-.85-.67-1.46-1.18-2.1-1.65q-22.23-16.13-44.48-32.23a9.81,9.81,0,0,1-3.45-4.24c-2.1-4.88-4.36-9.68-6.56-14.52-.3-.65-.59-1.31-1-2.23,1,0,1.62,0,2.27.08,5.8.6,11.59,1.23,17.39,1.81a6,6,0,0,1,3.07,1.18q22.57,16.42,45.18,32.8c.64.47,1.31.9,2.18,1.51.15-.92.29-1.55.36-2.19.73-6.84,1.43-13.68,2.19-20.51a6.37,6.37,0,0,0-.56-3.46c-3-6.55-5.9-13.09-8.74-19.69a3.29,3.29,0,0,0-3.11-2.27q-35.45-3.62-70.89-7.37c-.74-.08-1.47-.19-2.45-.33l3.5-33.14,56.15,5.87c-.3-.85-.47-1.47-.73-2-3-6.7-6-13.38-8.9-20.11a2.94,2.94,0,0,0-2.84-2c-13-1.31-26-2.7-39-4.06-.66-.07-1.32-.17-2.28-.3L871.08,104l23.74,2.46c-.23-2.06-1.33-3.59-2-5.27s-1.57-3.56-2.36-5.34l-2.28-5.12-2.37-5.33-2.28-5.12-2.37-5.33-2.28-5.12-2.37-5.33-2.31-5.19,30.42-13.54,21,47.16c5-6.53,9.48-13,14.4-19.55,9,6.44,17.9,13,27,19.54l-25.57,35.2L952,151.87c3.94-5.09,7.5-10.21,11.17-15.23s7.3-10,11-15l11.21-15.42,27,19.58c-14.84,20.51-29.73,40.86-44.57,61.34.2.55.38,1.11.61,1.64,3,6.77,6,13.54,9.06,20.29a5.88,5.88,0,0,0,1.7,2.26c6,4.44,12.08,8.8,18.13,13.19.22.16.47.28.89.52.14-1,.27-1.76.36-2.56q2.91-27.54,5.79-55.07a8,8,0,0,1,1.52-4.11c3.37-4.57,6.64-9.21,10-13.81.34-.47.71-.91,1.21-1.53.41.78.73,1.34,1,1.93,2.35,5.26,4.66,10.53,7.05,15.77a6.75,6.75,0,0,1,.57,3.68q-3,27.64-5.87,55.29c-.08.79-.11,1.59-.17,2.6.76-.29,1.31-.47,1.83-.71,6.36-2.82,12.71-5.67,19.07-8.47a5.53,5.53,0,0,0,2.39-1.91c4.31-6,8.65-12,13.08-17.92a3.13,3.13,0,0,0,.34-3.64q-14.43-32.26-28.78-64.56l-1.2-2.7,30.11-13.4a2,2,0,0,1,.26.07.5.5,0,0,1,.17.12,1.63,1.63,0,0,1,.26.36l22.59,50.73c.56-.64,1-1.08,1.37-1.58,4.36-6,8.67-12,13.09-17.91a3,3,0,0,0,.3-3.44c-5.28-11.73-10.49-23.49-15.73-35.25l-1.12-2.52L1108,90.95l9.8,22c3.73-4.77,7-9.46,10.33-14s6.68-9.18,10-13.77L1148.48,71l27,19.53c-5,7.07-10.08,13.92-15.08,20.85s-10.1,13.89-15.4,21.18l24.1,2.56-3.51,33.07c-.91-.06-1.7-.09-2.49-.17-12.86-1.34-25.72-2.65-38.56-4.08a3.41,3.41,0,0,0-3.67,1.67c-4.13,5.86-8.4,11.62-12.62,17.43-.38.53-.73,1.08-1.3,1.92l56.25,5.91L1159.66,224l-75.52-7.89-5.26,7.24c-3.08,4.23-6.18,8.44-9.22,12.69a5.45,5.45,0,0,0-1,2.4c-.83,7.35-1.58,14.71-2.35,22.07a5.53,5.53,0,0,0,.11.92c.79-.31,1.53-.56,2.23-.87q25.53-11.35,51-22.74a8,8,0,0,1,4.32-.7c6.24.66,12.48,1.23,19,1.86-.38.64-.63,1.13-.95,1.58-3.46,4.78-7,9.53-10.39,14.34a7.18,7.18,0,0,1-3.09,2.44q-25.33,11.23-50.64,22.53l-2.44,1.09c.66.57,1.07,1,1.53,1.31q8.51,6.21,17.06,12.38a4.94,4.94,0,0,0,2.2.94c8.09.89,16.19,1.72,24.45,2.57l44.68-61.39,27,19.57L1159,302.16l26,2.76,25.63-35.2,27,19.55-14.18,19.53c5.89.85,11.57,1.27,17.23,1.9s11.29,1.19,16.94,1.78l17.4,1.83-3.5,33.17-51.65-5.39c3.29,7.54,6.52,14.64,9.64,21.74-1.4,1.13-26.33,12.4-30.35,13.72l-8.81-19.74-8.79-19.73-26-2.72,22.77,51.16c-1.35,1.21-27.34,12.94-30.53,13.81l-1.13-2.55q-14.28-32.08-28.53-64.18a3.61,3.61,0,0,0-3.41-2.53c-7.14-.62-14.27-1.46-21.41-2.15a5.9,5.9,0,0,0-2.81.31c-6.79,3-13.54,6-20.31,9a10.3,10.3,0,0,0-.94.57c.51.45.91.86,1.36,1.19q22.67,16.47,45.37,32.9a8.61,8.61,0,0,1,3,3.76c2.17,5.09,4.45,10.14,6.68,15.2.24.54.44,1.1.74,1.88-.71,0-1.27,0-1.82,0-5.8-.62-11.59-1.28-17.39-1.85a6.39,6.39,0,0,1-3.26-1.27q-22.84-16.62-45.72-33.19c-.6-.44-1.22-.85-2-1.4-.13.83-.25,1.47-.32,2.12-.73,6.84-1.42,13.68-2.19,20.51a6,6,0,0,0,.58,3.23c3,6.76,6.08,13.51,9,20.31a3.13,3.13,0,0,0,3,2.13q35.78,3.67,71.55,7.45l1.87.22c-1.1,11-2.31,22-3.49,33.16l-56.21-5.88,10.66,23.94,43.17,4.53-3.51,33.17-24.13-2.49ZM992,282.88a10.42,10.42,0,0,0,.29-1.15c1.09-10.24,2.16-20.49,3.3-30.73a2.48,2.48,0,0,0-1.27-2.56q-12.33-8.93-24.62-17.93a9.14,9.14,0,0,0-1.3-.66,4.07,4.07,0,0,0-.18.59c-1.08,10.47-2.15,20.94-3.27,31.41a2.14,2.14,0,0,0,1.08,2.21c3.22,2.29,6.41,4.64,9.61,7ZM979.3,300.21c-.61-.5-1-.89-1.49-1.22-7.92-5.76-15.86-11.47-23.73-17.29a3.13,3.13,0,0,0-3.64-.3c-8.65,3.91-17.34,7.75-26,11.62-.65.29-1.28.65-2.22,1.13l26.74,19.58Zm64.48-28.68,3.34-33c-.71.24-1.13.34-1.52.51-9.08,4-18.14,8.1-27.25,12.09a2.65,2.65,0,0,0-1.68,2.57c-1,9.73-2,19.45-3.06,29.17-.07.64-.07,1.29-.11,2.12Zm-89.74,95,30.71-13.67,3.47-32.94-30.76,13.69Zm55.59-44.41a6.43,6.43,0,0,0-.23.77c-1.1,10.33-2.18,20.66-3.33,31a2.28,2.28,0,0,0,1.19,2.37q12.2,8.76,24.37,17.56c.32.23.69.39,1.29.72l3.55-32.93Zm69.84-11.43c-.48-.42-.69-.63-.92-.8-8.15-5.94-16.32-11.85-24.43-17.85a2.63,2.63,0,0,0-3-.22c-8.87,4-17.75,7.92-26.63,11.88-.65.29-1.27.65-2.26,1.15l26.77,19.42Z"/><rect class="cls-2" y="325.29" width="1280" height="318.33"/><rect class="cls-4" y="590.1" width="1280" height="52.12"/></g></g></svg>