<svg xmlns="http://www.w3.org/2000/svg" viewBox="0 0 299 656.51"><defs><style>.cls-1{fill:#1fc1aa;}.cls-2{fill:#fff;}.cls-3{fill:#231f20;}.cls-22,.cls-4{fill:#e8ecee;stroke:#231f20;stroke-miterlimit:10;}.cls-4{stroke-width:0.54px;}.cls-5{fill:#ffd469;}.cls-6{fill:#fde96b;}.cls-7{fill:#b4c862;}.cls-8{fill:#c9d86e;}.cls-9{fill:#e4f4fc;}.cls-10{fill:#5acaf4;}.cls-11{fill:#e470aa;}.cls-12{fill:#25a9e0;}.cls-13{fill:#2088c3;}.cls-14{fill:#6fb8d8;}.cls-15{fill:#a1ceee;}.cls-16{fill:#b7e4f5;}.cls-17{fill:#88d5f7;}.cls-18{fill:#2b388f;}.cls-19{fill:#ffd448;}.cls-20{fill:#fde464;}.cls-21{fill:#754c28;}.cls-22{stroke-width:0.68px;}</style></defs><title>bubble2</title><g id="Layer_2" data-name="Layer 2"><g id="Layer_2-2" data-name="Layer 2"><rect class="cls-1" width="299" height="430" rx="12" ry="12"/><path class="cls-2" d="M22.2,76.45,22,75.63h-.14v10H19.46V68h2.3l2.52,9.19.22.82h.14V68H27V85.64h-2.3Z"/><path class="cls-2" d="M28.94,68h5.93v2.66H31.53v4.63h2.4v2.83h-2.4V83h3.34v2.66H28.94Z"/><path class="cls-2" d="M40,85.64H38L35.64,68H38l1,9.17,0,.58h.19l.07-.58L40.48,68h1.87l1.1,9.17.07.58h.19l0-.58,1-9.17h2.4L44.83,85.64h-2l-1.2-8.35-.14-1h-.1l-.14,1Z"/><path class="cls-2" d="M55.2,82a4.8,4.8,0,0,1-.43,1.92,3.3,3.3,0,0,1-1,1.3,3.08,3.08,0,0,1-2,.6,3.15,3.15,0,0,1-2-.6,3.23,3.23,0,0,1-1-1.3A4.8,4.8,0,0,1,48.28,82V71.62a4.78,4.78,0,0,1,.43-1.9,3,3,0,0,1,3-1.92,3.22,3.22,0,0,1,2,.6,3.37,3.37,0,0,1,1,1.32,4.78,4.78,0,0,1,.43,1.9ZM52.6,71.62a1.6,1.6,0,0,0-.34-1.1.75.75,0,0,0-.53-.19A.8.8,0,0,0,51,71a1.83,1.83,0,0,0-.1.65V82a1.53,1.53,0,0,0,.36,1.1.69.69,0,0,0,.5.19.76.76,0,0,0,.77-.65,1.68,1.68,0,0,0,.1-.65Z"/><path class="cls-2" d="M61.58,85.64,60.24,78.2h-.7v7.44H56.95V68h2.59c3.1,0,4.42,1.75,4.42,5.09,0,1.75-.46,3.34-1.44,4l1.66,8.54Zm-2-9.84a1.8,1.8,0,0,0,1.22-.38,2.82,2.82,0,0,0,.7-2.23,2.88,2.88,0,0,0-.7-2.26,1.77,1.77,0,0,0-1.22-.36Z"/><path class="cls-2" d="M68.2,68v6.17h.1l.12-.29L70.58,68H73.1l-2.38,5.81,2.69,11.83H70.89L69.09,78,69,77.6h-.07L68.8,78l-.6,1.44v6.24H65.61V68Z"/><path class="cls-2" d="M74.61,68H77.2V85.64H74.61Z"/><path class="cls-2" d="M81.86,76.45l-.22-.82H81.5v10H79.12V68h2.3l2.52,9.19.22.82h.14V68h2.38V85.64h-2.3Z"/><path class="cls-2" d="M92.75,74.33V71.62a1.6,1.6,0,0,0-.34-1.1.75.75,0,0,0-.53-.19.8.8,0,0,0-.77.65,1.83,1.83,0,0,0-.1.65V82.23a1.53,1.53,0,0,0,.36,1.1.69.69,0,0,0,.5.19.76.76,0,0,0,.77-.65,1.69,1.69,0,0,0,.1-.65V79h-1V76.85h3.62v8.79H93.81l-.31-.84a2.58,2.58,0,0,1-2,1,2.63,2.63,0,0,1-1.85-.6,3.2,3.2,0,0,1-.91-1.3A4.83,4.83,0,0,1,88.43,82V71.62a4.78,4.78,0,0,1,.43-1.9,3,3,0,0,1,3-1.92,3.22,3.22,0,0,1,2,.6,3.37,3.37,0,0,1,1,1.32,4.78,4.78,0,0,1,.43,1.9v2.71Z"/><path class="cls-2" d="M108.21,74V85.64h-1.7V74Zm0-4v2.18h-1.61V70Z"/><path class="cls-2" d="M115.77,76.38c-.36-1.27-1.06-1.7-2-1.7a1.5,1.5,0,0,0-1.63,1.68c0,2.69,4.8,2.16,4.8,6.12a3.13,3.13,0,0,1-3.19,3.36,3.29,3.29,0,0,1-3.36-2.69l1.18-.53c.41,1.42,1.27,1.9,2.14,1.9,1.06,0,1.63-.7,1.63-1.92,0-2.88-4.82-2.33-4.82-6.12a3,3,0,0,1,3.22-3.17,3.15,3.15,0,0,1,3.14,2.62Z"/><path class="cls-2" d="M127.46,76c.62-1.58,1.66-2.71,3.36-2.71,2.16,0,3.07,1.51,3.07,3.74V83.6c0,.6.26.94.79.94H135v1.1a3.09,3.09,0,0,1-.86.14,1.74,1.74,0,0,1-1.68-1,3.21,3.21,0,0,1-2.5,1.08c-1.7,0-2.78-1.22-2.78-3.24,0-2.28,1.18-3.89,4.32-3.89h.72V77c0-1.61-.53-2.3-1.56-2.3s-1.56.65-2,1.85Zm4.73,7.44V80h-.72c-2,0-2.69.91-2.69,2.47s.6,2,1.51,2A2.13,2.13,0,0,0,132.19,83.43Z"/><path class="cls-2" d="M138.43,70V85.64h-1.7V70Z"/><path class="cls-2" d="M146.9,75.82l-2,9.82H143l-2.66-12.12h1.78L144,83.67l2.09-10.15h1.61l2.09,10.22,1.9-10.22h1.78l-2.71,12.12h-1.87Z"/><path class="cls-2" d="M154.7,76c.62-1.58,1.66-2.71,3.36-2.71,2.16,0,3.07,1.51,3.07,3.74V83.6c0,.6.26.94.79.94h.29v1.1a3.09,3.09,0,0,1-.86.14,1.74,1.74,0,0,1-1.68-1,3.21,3.21,0,0,1-2.5,1.08c-1.7,0-2.78-1.22-2.78-3.24,0-2.28,1.18-3.89,4.32-3.89h.72V77c0-1.61-.53-2.3-1.56-2.3s-1.56.65-2,1.85Zm4.73,7.44V80h-.72c-2,0-2.69.91-2.69,2.47s.6,2,1.51,2A2.13,2.13,0,0,0,159.43,83.43Z"/><path class="cls-2" d="M167.88,85.06c-.67,2.18-1.61,3.1-3.46,3.22L164.28,87c1.13-.17,1.68-.65,2.06-2l.07-.26-3.86-11.18h1.85l2.86,9,2.33-9h1.75Z"/><path class="cls-2" d="M177.83,76.38c-.36-1.27-1.06-1.7-2-1.7a1.5,1.5,0,0,0-1.63,1.68c0,2.69,4.8,2.16,4.8,6.12a3.13,3.13,0,0,1-3.19,3.36,3.29,3.29,0,0,1-3.36-2.69l1.18-.53c.41,1.42,1.27,1.9,2.14,1.9,1.06,0,1.63-.7,1.63-1.92,0-2.88-4.82-2.33-4.82-6.12a3,3,0,0,1,3.22-3.17A3.15,3.15,0,0,1,179,75.92Z"/><path class="cls-2" d="M189.52,76c.62-1.58,1.66-2.71,3.36-2.71C195,73.28,196,74.79,196,77V83.6c0,.6.26.94.79.94H197v1.1a3.09,3.09,0,0,1-.86.14,1.74,1.74,0,0,1-1.68-1,3.21,3.21,0,0,1-2.5,1.08c-1.7,0-2.78-1.22-2.78-3.24,0-2.28,1.18-3.89,4.32-3.89h.72V77c0-1.61-.53-2.3-1.56-2.3s-1.56.65-2,1.85Zm4.73,7.44V80h-.72c-2,0-2.69.91-2.69,2.47s.6,2,1.51,2A2.12,2.12,0,0,0,194.25,83.43Z"/><path class="cls-2" d="M209,84.58l-.12,1.06h-1.46V70h1.71v4.49a3.27,3.27,0,0,1,2.62-1.15c1.95,0,3,1.46,3,4v4.51c0,2.54-1.1,4-3.14,4A3.18,3.18,0,0,1,209,84.58Zm.12-1.42a2.28,2.28,0,0,0,2.06,1.18c1.27,0,1.9-.84,1.9-2.5V77.36c0-1.68-.62-2.54-1.87-2.54a2.55,2.55,0,0,0-2.09,1.13Z"/><path class="cls-2" d="M218.37,79.62v2.26c0,1.66.72,2.52,2,2.52,1.06,0,1.66-.55,2.09-2.09l1.3.43c-.5,2.11-1.66,3.1-3.53,3.1-2.35,0-3.6-1.63-3.6-3.91v-4.7c0-2.28,1.25-3.91,3.58-3.91s3.5,1.7,3.5,4v2.33Zm0-1.2h3.84v-1.3c0-1.58-.7-2.4-1.92-2.4s-1.92.86-1.92,2.42Z"/><path class="cls-2" d="M227.52,85.64h-1.71V73.52h1.49l.07,1.06a3.35,3.35,0,0,1,2.71-1.27c2,0,3.1,1.44,3.1,4v8.33h-1.7v-8.3c0-1.7-.62-2.52-1.87-2.52a2.49,2.49,0,0,0-2.09,1.13Z"/><path class="cls-2" d="M236.9,79.62v2.26c0,1.66.72,2.52,2,2.52,1.06,0,1.66-.55,2.09-2.09l1.3.43c-.5,2.11-1.66,3.1-3.53,3.1-2.35,0-3.6-1.63-3.6-3.91v-4.7c0-2.28,1.25-3.91,3.58-3.91s3.5,1.7,3.5,4v2.33Zm0-1.2h3.84v-1.3c0-1.58-.7-2.4-1.92-2.4s-1.92.86-1.92,2.42Z"/><path class="cls-2" d="M248.75,71.19c-1.8.12-2.5.86-2.5,2.5V74h5.5V85.64h-1.71V75.39h-3.67V85.64H244.7V75.39h-1.3V74h1.3v-.34c0-2.28,1.13-3.67,4-3.82ZM251.68,70V72.2H250.1V70Z"/><path class="cls-2" d="M259.65,76.54c-.34-1.25-1-1.78-1.94-1.78-1.22,0-1.92.79-1.92,2.5v4.61c0,1.7.7,2.52,1.92,2.52,1,0,1.61-.53,2-1.85l1.27.43a3.35,3.35,0,0,1-3.34,2.86c-2.35,0-3.53-1.7-3.53-3.89V77.21c0-2.23,1.2-3.91,3.5-3.91a3.36,3.36,0,0,1,3.31,2.76Z"/><path class="cls-2" d="M264.5,74V85.64h-1.7V74Zm0-4v2.18h-1.61V70Z"/><path class="cls-2" d="M267,76c.62-1.58,1.66-2.71,3.36-2.71,2.16,0,3.07,1.51,3.07,3.74V83.6c0,.6.26.94.79.94h.29v1.1a3.09,3.09,0,0,1-.86.14,1.74,1.74,0,0,1-1.68-1,3.21,3.21,0,0,1-2.5,1.08c-1.7,0-2.78-1.22-2.78-3.24,0-2.28,1.18-3.89,4.32-3.89h.72V77c0-1.61-.53-2.3-1.56-2.3s-1.56.65-2,1.85Zm4.73,7.44V80H271c-2,0-2.69.91-2.69,2.47s.6,2,1.51,2A2.12,2.12,0,0,0,271.75,83.43Z"/><path class="cls-2" d="M278,70V85.64h-1.7V70Z"/><path class="cls-2" d="M21.48,108.75v3.46h-1.7V97.52h1.49l.1,1a3.33,3.33,0,0,1,2.71-1.25c2,0,3.07,1.49,3.07,4v4.51c0,2.54-1.13,4-3.14,4A3.2,3.2,0,0,1,21.48,108.75Zm0-1.46a2.43,2.43,0,0,0,2.06,1.08c1.27,0,1.9-.86,1.9-2.52v-4.49c0-1.71-.6-2.54-1.87-2.54a2.52,2.52,0,0,0-2.09,1.13Z"/><path class="cls-2" d="M34.36,99.29a1.65,1.65,0,0,0-1-.26c-1.34,0-2.18,1.18-2.35,3.36v7.25h-1.7V97.52h1.46l.1,2c.58-1.56,1.44-2.18,2.52-2.18a2.29,2.29,0,0,1,1.15.29Z"/><path class="cls-2" d="M35.68,100c.62-1.58,1.66-2.71,3.36-2.71,2.16,0,3.07,1.51,3.07,3.74v6.58c0,.6.26.94.79.94h.29v1.1a3.09,3.09,0,0,1-.86.14,1.74,1.74,0,0,1-1.68-1,3.21,3.21,0,0,1-2.5,1.08c-1.7,0-2.78-1.22-2.78-3.24,0-2.28,1.18-3.89,4.32-3.89h.72V101c0-1.61-.53-2.3-1.56-2.3s-1.56.65-2,1.85Zm4.73,7.44V104h-.72c-2,0-2.69.91-2.69,2.47s.6,2,1.51,2A2.13,2.13,0,0,0,40.41,107.43Z"/><path class="cls-2" d="M50,100.54c-.34-1.25-1-1.78-1.94-1.78-1.22,0-1.92.79-1.92,2.5v4.61c0,1.7.7,2.52,1.92,2.52,1,0,1.61-.53,2-1.85l1.27.43a3.35,3.35,0,0,1-3.34,2.86c-2.35,0-3.53-1.7-3.53-3.89v-4.73c0-2.23,1.2-3.91,3.5-3.91a3.37,3.37,0,0,1,3.31,2.76Z"/><path class="cls-2" d="M57.52,99.42H55.08v7.42c0,1.13.48,1.61,1.3,1.61a2.1,2.1,0,0,0,1-.24l.22,1.1a3,3,0,0,1-1.75.53c-1.66,0-2.45-1.06-2.45-3V99.49L52,99.2V98l1.42-.1.41-2.71h1.22V98h2.45Z"/><path class="cls-2" d="M61.29,98v11.64h-1.7V98Zm0-4v2.18H59.63V94Z"/><path class="cls-2" d="M69.23,100.54c-.34-1.25-1-1.78-1.94-1.78-1.22,0-1.92.79-1.92,2.5v4.61c0,1.7.7,2.52,1.92,2.52,1,0,1.61-.53,2-1.85l1.27.43a3.35,3.35,0,0,1-3.34,2.86c-2.35,0-3.53-1.7-3.53-3.89v-4.73c0-2.23,1.2-3.91,3.5-3.91a3.37,3.37,0,0,1,3.31,2.76Z"/><path class="cls-2" d="M73.58,103.62v2.26c0,1.66.72,2.52,2,2.52,1.06,0,1.66-.55,2.09-2.09l1.3.43c-.5,2.11-1.66,3.1-3.53,3.1-2.35,0-3.6-1.63-3.6-3.91v-4.7c0-2.28,1.25-3.91,3.58-3.91s3.5,1.7,3.5,4v2.33Zm0-1.2h3.84v-1.3c0-1.58-.7-2.4-1.92-2.4s-1.92.86-1.92,2.42Z"/><path class="cls-2" d="M81,107.82H82.7v1.82H81Z"/><path class="cls-2" d="M26.2,151.59V154a4.8,4.8,0,0,1-.43,1.92,3.3,3.3,0,0,1-1,1.3,3.08,3.08,0,0,1-2,.6,3.15,3.15,0,0,1-2-.6,3.23,3.23,0,0,1-1-1.3,4.8,4.8,0,0,1-.43-1.92V143.62a4.78,4.78,0,0,1,.43-1.9,3,3,0,0,1,3-1.92,3.22,3.22,0,0,1,2,.6,3.37,3.37,0,0,1,1,1.32,4.78,4.78,0,0,1,.43,1.9V146H23.78v-2.42a1.51,1.51,0,0,0-.38-1.1A.87.87,0,0,0,22,143a2.58,2.58,0,0,0-.12.65V154a1.65,1.65,0,0,0,.41,1.1.69.69,0,0,0,.5.19.84.84,0,0,0,.89-.65,1.68,1.68,0,0,0,.1-.65v-2.42Z"/><path class="cls-2" d="M34.51,154a4.8,4.8,0,0,1-.43,1.92,3.3,3.3,0,0,1-1,1.3,3.08,3.08,0,0,1-2,.6,3.15,3.15,0,0,1-2-.6,3.23,3.23,0,0,1-1-1.3A4.8,4.8,0,0,1,27.6,154V143.62a4.78,4.78,0,0,1,.43-1.9,3,3,0,0,1,3-1.92,3.22,3.22,0,0,1,2,.6,3.37,3.37,0,0,1,1,1.32,4.78,4.78,0,0,1,.43,1.9Zm-2.59-10.39a1.6,1.6,0,0,0-.34-1.1.75.75,0,0,0-.53-.19.8.8,0,0,0-.77.65,1.83,1.83,0,0,0-.1.65V154a1.53,1.53,0,0,0,.36,1.1.69.69,0,0,0,.5.19.76.76,0,0,0,.77-.65,1.68,1.68,0,0,0,.1-.65Z"/><path class="cls-2" d="M39,148.45l-.22-.82h-.14v10H36.26V140h2.3l2.52,9.19.22.82h.14V140h2.38v17.64h-2.3Z"/><path class="cls-2" d="M44.83,142.66V140h7.49v2.66H49.87v15H47.28v-15Z"/><path class="cls-2" d="M52.08,157.64,54.74,140h3.17l2.66,17.64H58.05l-.48-3.6h-2.5l-.48,3.6Zm4.39-11.91-.07-.46h-.14l-.07.46-.74,5.57h1.78Z"/><path class="cls-2" d="M68.52,151.59V154a4.8,4.8,0,0,1-.43,1.92,3.3,3.3,0,0,1-1,1.3,3.08,3.08,0,0,1-2,.6,3.15,3.15,0,0,1-2-.6,3.23,3.23,0,0,1-1-1.3A4.8,4.8,0,0,1,61.6,154V143.62a4.78,4.78,0,0,1,.43-1.9,3,3,0,0,1,3-1.92,3.23,3.23,0,0,1,2,.6,3.37,3.37,0,0,1,1,1.32,4.78,4.78,0,0,1,.43,1.9V146H66.09v-2.42a1.51,1.51,0,0,0-.38-1.1.87.87,0,0,0-1.39.46,2.58,2.58,0,0,0-.12.65V154a1.65,1.65,0,0,0,.41,1.1.69.69,0,0,0,.5.19.84.84,0,0,0,.89-.65,1.68,1.68,0,0,0,.1-.65v-2.42Z"/><path class="cls-2" d="M69.16,142.66V140h7.49v2.66H74.2v15H71.61v-15Z"/><path class="cls-2" d="M81.56,140h2.59a4.42,4.42,0,0,1,3.12,1.1,5.51,5.51,0,0,1,1.44,4.18,5.44,5.44,0,0,1-1.44,4.15,4.46,4.46,0,0,1-3.12,1.15v7.06H81.56Zm2.59,7.94c.79,0,1.3-.14,1.58-.55a3.53,3.53,0,0,0,.36-2,4,4,0,0,0-.36-2.11,1.73,1.73,0,0,0-1.58-.62Z"/><path class="cls-2" d="M90,140h5.93v2.66H92.6v4.63H95v2.83H92.6V155h3.34v2.66H90Z"/><path class="cls-2" d="M104.12,154a4.8,4.8,0,0,1-.43,1.92,3.3,3.3,0,0,1-1,1.3,3.08,3.08,0,0,1-2,.6,3.15,3.15,0,0,1-2-.6,3.23,3.23,0,0,1-1-1.3A4.8,4.8,0,0,1,97.2,154V143.62a4.78,4.78,0,0,1,.43-1.9,3,3,0,0,1,3-1.92,3.22,3.22,0,0,1,2,.6,3.37,3.37,0,0,1,1,1.32,4.78,4.78,0,0,1,.43,1.9Zm-2.59-10.39a1.6,1.6,0,0,0-.34-1.1.75.75,0,0,0-.53-.19.8.8,0,0,0-.77.65,1.83,1.83,0,0,0-.1.65V154a1.53,1.53,0,0,0,.36,1.1.69.69,0,0,0,.5.19.76.76,0,0,0,.77-.65,1.68,1.68,0,0,0,.1-.65Z"/><path class="cls-2" d="M105.87,140h2.59a4.42,4.42,0,0,1,3.12,1.1,5.51,5.51,0,0,1,1.44,4.18,5.44,5.44,0,0,1-1.44,4.15,4.46,4.46,0,0,1-3.12,1.15v7.06h-2.59Zm2.59,7.94c.79,0,1.3-.14,1.58-.55a3.53,3.53,0,0,0,.36-2,4,4,0,0,0-.36-2.11,1.73,1.73,0,0,0-1.58-.62Z"/><path class="cls-2" d="M114.31,140h2.59v15.24h3.43v2.4h-6Z"/><path class="cls-2" d="M121.39,140h5.93v2.66H124v4.63h2.4v2.83H124V155h3.34v2.66h-5.93Z"/><path class="cls-2" d="M138,157.06c-.67,2.18-1.61,3.1-3.46,3.22l-.14-1.32c1.13-.17,1.68-.65,2.06-2l.07-.26-3.86-11.18h1.85l2.86,9,2.33-9h1.75Z"/><path class="cls-2" d="M150,154c0,2.28-1.3,3.86-3.72,3.86s-3.67-1.56-3.67-3.86v-4.75c0-2.28,1.27-3.91,3.67-3.91s3.72,1.61,3.72,3.91Zm-5.69,0c0,1.61.65,2.5,2,2.5s2-.89,2-2.5v-4.66c0-1.61-.65-2.52-2-2.52s-2,.91-2,2.52Z"/><path class="cls-2" d="M157.67,145.52h1.68v12.12h-1.49l-.1-1a3.31,3.31,0,0,1-2.71,1.22c-1.94,0-3.07-1.44-3.07-4v-8.33h1.7v8.33c0,1.63.65,2.5,1.87,2.5a2.54,2.54,0,0,0,2.11-1.1Z"/><path class="cls-2" d="M168.15,142v9.77l4-6.22H174l-3.41,5.21,3.82,6.91H172.5l-3-5.69-1.34,1.75v3.94h-1.7V142Z"/><path class="cls-2" d="M177.61,157.64h-1.7V145.52h1.49l.07,1.06a3.35,3.35,0,0,1,2.71-1.27c2,0,3.1,1.44,3.1,4v8.33h-1.71v-8.3c0-1.7-.62-2.52-1.87-2.52a2.49,2.49,0,0,0-2.09,1.13Z"/><path class="cls-2" d="M192.68,154c0,2.28-1.3,3.86-3.72,3.86s-3.67-1.56-3.67-3.86v-4.75c0-2.28,1.27-3.91,3.67-3.91s3.72,1.61,3.72,3.91Zm-5.69,0c0,1.61.65,2.5,2,2.5s2-.89,2-2.5v-4.66c0-1.61-.65-2.52-2-2.52s-2,.91-2,2.52Z"/><path class="cls-2" d="M200.41,147.82l-2,9.82h-1.9l-2.66-12.12h1.78l1.9,10.15,2.09-10.15h1.61l2.09,10.22,1.9-10.22H207l-2.71,12.12H202.4Z"/><path class="cls-2" d="M207.61,155.82h1.66v1.37c0,1.54-.36,2.33-1.68,2.5l-.1-.82c.65-.17.84-.41.84-1.22h-.72Z"/><path class="cls-2" d="M222,147.82l-2,9.82h-1.9l-2.66-12.12h1.78l1.9,10.15,2.09-10.15h1.61l2.09,10.22,1.9-10.22h1.78l-2.71,12.12H224Z"/><path class="cls-2" d="M232,157.64h-1.71V142H232v4.51a3.24,3.24,0,0,1,2.59-1.18c2,0,3.07,1.44,3.07,4v8.33H236v-8.3c0-1.7-.62-2.52-1.87-2.52a2.54,2.54,0,0,0-2.09,1.13Z"/><path class="cls-2" d="M241.44,151.62v2.26c0,1.66.72,2.52,2,2.52,1.06,0,1.66-.55,2.09-2.09l1.3.43c-.5,2.11-1.66,3.1-3.53,3.1-2.35,0-3.6-1.63-3.6-3.91v-4.7c0-2.28,1.25-3.91,3.58-3.91s3.5,1.7,3.5,4v2.33Zm0-1.2h3.84v-1.3c0-1.58-.7-2.4-1.92-2.4s-1.92.86-1.92,2.42Z"/><path class="cls-2" d="M253.46,147.42H251v7.42c0,1.13.48,1.61,1.3,1.61a2.1,2.1,0,0,0,1-.24l.22,1.1a3,3,0,0,1-1.75.53c-1.66,0-2.45-1.06-2.45-3v-7.32L248,147.2V146l1.42-.1.41-2.71H251V146h2.45Z"/><path class="cls-2" d="M257.13,157.64h-1.71V142h1.71v4.51a3.24,3.24,0,0,1,2.59-1.18c2,0,3.07,1.44,3.07,4v8.33h-1.7v-8.3c0-1.7-.62-2.52-1.87-2.52a2.54,2.54,0,0,0-2.09,1.13Z"/><path class="cls-2" d="M266.54,151.62v2.26c0,1.66.72,2.52,2,2.52,1.06,0,1.66-.55,2.09-2.09l1.3.43c-.5,2.11-1.66,3.1-3.53,3.1-2.35,0-3.6-1.63-3.6-3.91v-4.7c0-2.28,1.25-3.91,3.58-3.91s3.5,1.7,3.5,4v2.33Zm0-1.2h3.84v-1.3c0-1.58-.7-2.4-1.92-2.4s-1.92.86-1.92,2.42Z"/><path class="cls-2" d="M279,147.29a1.65,1.65,0,0,0-1-.26c-1.34,0-2.18,1.18-2.35,3.36v7.25H274V145.52h1.46l.1,2c.58-1.56,1.44-2.18,2.52-2.18a2.28,2.28,0,0,1,1.15.29Z"/><path class="cls-2" d="M24.28,171.39H21.81v10.25H20.13V171.39h-1.3V170h1.3v-.43c0-2.33,1.15-3.6,4-3.72l.1,1.27c-1.78.12-2.42.79-2.42,2.45V170h2.52Z"/><path class="cls-2" d="M30.88,171.29a1.65,1.65,0,0,0-1-.26c-1.34,0-2.18,1.18-2.35,3.36v7.25h-1.7V169.52h1.46l.1,2c.58-1.56,1.44-2.18,2.52-2.18a2.29,2.29,0,0,1,1.15.29Z"/><path class="cls-2" d="M34.53,170v11.64h-1.7V170Zm0-4v2.18H32.88V166Z"/><path class="cls-2" d="M38.61,175.62v2.26c0,1.66.72,2.52,2,2.52,1.06,0,1.66-.55,2.09-2.09l1.3.43c-.5,2.11-1.66,3.1-3.53,3.1-2.35,0-3.6-1.63-3.6-3.91v-4.7c0-2.28,1.25-3.91,3.58-3.91s3.5,1.7,3.5,4v2.33Zm0-1.2h3.84v-1.3c0-1.58-.7-2.4-1.92-2.4s-1.92.86-1.92,2.42Z"/><path class="cls-2" d="M47.76,181.64h-1.7V169.52h1.49l.07,1.06a3.35,3.35,0,0,1,2.71-1.27c2,0,3.1,1.44,3.1,4v8.33h-1.7v-8.3c0-1.7-.62-2.52-1.87-2.52a2.49,2.49,0,0,0-2.09,1.13Z"/><path class="cls-2" d="M61.1,170.41V166h1.7v15.67H61.32l-.1-1a3.31,3.31,0,0,1-2.71,1.22c-2,0-3.07-1.44-3.07-4v-4.51c0-2.54,1.1-4,3.14-4A3.28,3.28,0,0,1,61.1,170.41Zm0,1.51A2.44,2.44,0,0,0,59,170.84c-1.27,0-1.9.84-1.9,2.52v4.49c0,1.63.62,2.52,1.87,2.52a2.53,2.53,0,0,0,2.09-1.1Z"/><path class="cls-2" d="M70.29,172.38c-.36-1.27-1.06-1.7-2-1.7a1.5,1.5,0,0,0-1.63,1.68c0,2.69,4.8,2.16,4.8,6.12a3.13,3.13,0,0,1-3.19,3.36,3.29,3.29,0,0,1-3.36-2.69l1.18-.53c.41,1.42,1.27,1.9,2.14,1.9,1.06,0,1.63-.7,1.63-1.92,0-2.88-4.82-2.33-4.82-6.12a3,3,0,0,1,3.22-3.17,3.15,3.15,0,0,1,3.14,2.62Z"/><path class="cls-2" d="M89.38,178c0,2.28-1.3,3.86-3.72,3.86S82,180.27,82,178v-4.75c0-2.28,1.27-3.91,3.67-3.91s3.72,1.61,3.72,3.91Zm-5.69,0c0,1.61.65,2.5,2,2.5s2-.89,2-2.5v-4.66c0-1.61-.65-2.52-2-2.52s-2,.91-2,2.52Z"/><path class="cls-2" d="M96.61,171.29a1.65,1.65,0,0,0-1-.26c-1.34,0-2.18,1.18-2.35,3.36v7.25h-1.7V169.52h1.46l.1,2c.58-1.56,1.44-2.18,2.52-2.18a2.29,2.29,0,0,1,1.15.29Z"/><path class="cls-2" d="M111.84,171.39h-2.47v10.25h-1.68V171.39h-1.3V170h1.3v-.43c0-2.33,1.15-3.6,4-3.72l.1,1.27c-1.78.12-2.42.79-2.42,2.45V170h2.52Z"/><path class="cls-2" d="M113.23,172c.62-1.58,1.66-2.71,3.36-2.71,2.16,0,3.07,1.51,3.07,3.74v6.58c0,.6.26.94.79.94h.29v1.1a3.09,3.09,0,0,1-.86.14,1.74,1.74,0,0,1-1.68-1,3.21,3.21,0,0,1-2.5,1.08c-1.7,0-2.78-1.22-2.78-3.24,0-2.28,1.18-3.89,4.32-3.89H118V173c0-1.61-.53-2.3-1.56-2.3s-1.56.65-2,1.85Zm4.73,7.44V176h-.72c-2,0-2.69.91-2.69,2.47s.6,2,1.51,2A2.13,2.13,0,0,0,118,179.43Z"/><path class="cls-2" d="M129.14,181.64h-1.7v-8.33c0-1.9-.67-2.47-1.61-2.47a2,2,0,0,0-1.85,1.54v9.26h-1.7V169.52h1.49v1.25a2.89,2.89,0,0,1,2.5-1.46,2.41,2.41,0,0,1,2.4,1.68,3,3,0,0,1,2.66-1.68c1.82,0,3,1.22,3,4v8.33h-1.7v-8.33c0-1.63-.53-2.47-1.66-2.47s-1.78.7-1.78,2.47Z"/><path class="cls-2" d="M138.52,170v11.64h-1.7V170Zm0-4v2.18h-1.61V166Z"/><path class="cls-2" d="M143.16,166v15.67h-1.7V166Z"/><path class="cls-2" d="M150.38,181.06c-.67,2.18-1.61,3.1-3.46,3.22l-.14-1.32c1.13-.17,1.68-.65,2.06-2l.07-.26-3.86-11.18h1.85l2.86,9,2.33-9h1.75Z"/><path class="cls-2" d="M154.31,179.82H156v1.37c0,1.54-.36,2.33-1.68,2.5l-.1-.82c.65-.17.84-.41.84-1.22h-.72Z"/><path class="cls-2" d="M172.09,171.42h-2.45v7.42c0,1.13.48,1.61,1.3,1.61a2.1,2.1,0,0,0,1-.24l.21,1.1a3,3,0,0,1-1.75.53c-1.66,0-2.45-1.06-2.45-3v-7.32l-1.32-.29V170l1.42-.1.41-2.71h1.22V170h2.45Z"/><path class="cls-2" d="M181,178c0,2.28-1.29,3.86-3.72,3.86s-3.67-1.56-3.67-3.86v-4.75c0-2.28,1.27-3.91,3.67-3.91s3.72,1.61,3.72,3.91Zm-5.69,0c0,1.61.65,2.5,2,2.5s2-.89,2-2.5v-4.66c0-1.61-.65-2.52-2-2.52s-2,.91-2,2.52Z"/><path class="cls-2" d="M197,172.38c-.36-1.27-1.06-1.7-2-1.7a1.5,1.5,0,0,0-1.63,1.68c0,2.69,4.8,2.16,4.8,6.12a3.13,3.13,0,0,1-3.19,3.36,3.29,3.29,0,0,1-3.36-2.69l1.18-.53c.41,1.42,1.27,1.9,2.14,1.9,1.05,0,1.63-.7,1.63-1.92,0-2.88-4.82-2.33-4.82-6.12A3,3,0,0,1,195,169.3a3.15,3.15,0,0,1,3.14,2.62Z"/><path class="cls-2" d="M201.5,175.62v2.26c0,1.66.72,2.52,2,2.52,1.06,0,1.66-.55,2.09-2.09l1.3.43c-.5,2.11-1.66,3.1-3.53,3.1-2.35,0-3.6-1.63-3.6-3.91v-4.7c0-2.28,1.25-3.91,3.58-3.91s3.5,1.7,3.5,4v2.33Zm0-1.2h3.84v-1.3c0-1.58-.7-2.4-1.92-2.4s-1.92.86-1.92,2.42Z"/><path class="cls-2" d="M210.31,175.62v2.26c0,1.66.72,2.52,2,2.52,1.06,0,1.66-.55,2.09-2.09l1.3.43c-.5,2.11-1.66,3.1-3.53,3.1-2.35,0-3.6-1.63-3.6-3.91v-4.7c0-2.28,1.25-3.91,3.58-3.91s3.5,1.7,3.5,4v2.33Zm0-1.2h3.84v-1.3c0-1.58-.7-2.4-1.92-2.4s-1.92.86-1.92,2.42Z"/><path class="cls-2" d="M228.56,170v11.64h-1.7V170Zm0-4v2.18H226.9V166Z"/><path class="cls-2" d="M235.78,171.39h-2.47v10.25h-1.68V171.39h-1.3V170h1.3v-.43c0-2.33,1.15-3.6,4-3.72l.1,1.27c-1.78.12-2.42.79-2.42,2.45V170h2.52Z"/><path class="cls-2" d="M250.89,171.42h-2.45v7.42c0,1.13.48,1.61,1.3,1.61a2.09,2.09,0,0,0,1-.24l.22,1.1a3,3,0,0,1-1.75.53c-1.66,0-2.45-1.06-2.45-3v-7.32l-1.32-.29V170l1.42-.1.41-2.71h1.22V170h2.45Z"/><path class="cls-2" d="M254.56,181.64h-1.7V166h1.7v4.51a3.24,3.24,0,0,1,2.59-1.18c2,0,3.07,1.44,3.07,4v8.33h-1.71v-8.3c0-1.7-.62-2.52-1.87-2.52a2.54,2.54,0,0,0-2.09,1.13Z"/><path class="cls-2" d="M264,175.62v2.26c0,1.66.72,2.52,2,2.52,1.06,0,1.66-.55,2.09-2.09l1.3.43c-.5,2.11-1.66,3.1-3.53,3.1-2.35,0-3.6-1.63-3.6-3.91v-4.7c0-2.28,1.25-3.91,3.58-3.91s3.5,1.7,3.5,4v2.33Zm0-1.2h3.84v-1.3c0-1.58-.7-2.4-1.92-2.4s-1.92.86-1.92,2.42Z"/><path class="cls-2" d="M275.66,181.06c-.67,2.18-1.61,3.1-3.46,3.22l-.14-1.32c1.13-.17,1.68-.65,2.06-2l.07-.26-3.86-11.18h1.85l2.86,9,2.33-9h1.75Z"/><path class="cls-2" d="M21.55,190v9.77l4-6.22h1.85L24,198.73l3.82,6.91H25.89l-3-5.69-1.34,1.75v3.94h-1.7V190Z"/><path class="cls-2" d="M31,205.64H29.3V193.52h1.49l.07,1.06a3.35,3.35,0,0,1,2.71-1.27c2,0,3.1,1.44,3.1,4v8.33H35v-8.3c0-1.7-.62-2.52-1.87-2.52A2.49,2.49,0,0,0,31,195.94Z"/><path class="cls-2" d="M46.08,202c0,2.28-1.3,3.86-3.72,3.86s-3.67-1.56-3.67-3.86v-4.75c0-2.28,1.27-3.91,3.67-3.91s3.72,1.61,3.72,3.91Zm-5.69,0c0,1.61.65,2.5,2,2.5s2-.89,2-2.5v-4.66c0-1.61-.65-2.52-2-2.52s-2,.91-2,2.52Z"/><path class="cls-2" d="M53.8,195.82l-2,9.82h-1.9l-2.66-12.12H49l1.9,10.15L53,193.52h1.61l2.09,10.22,1.9-10.22h1.78l-2.71,12.12H55.8Z"/><path class="cls-2" d="M79.32,202c0,2.28-1.3,3.86-3.72,3.86s-3.67-1.56-3.67-3.86v-4.75c0-2.28,1.27-3.91,3.67-3.91s3.72,1.61,3.72,3.91Zm-5.69,0c0,1.61.65,2.5,2,2.5s2-.89,2-2.5v-4.66c0-1.61-.65-2.52-2-2.52s-2,.91-2,2.52Z"/><path class="cls-2" d="M86,195.39H83.57v10.25H81.89V195.39H80.6V194h1.3v-.43c0-2.33,1.15-3.6,4-3.72l.1,1.27c-1.78.12-2.42.79-2.42,2.45V194H86Z"/><path class="cls-2" d="M97.67,196c.62-1.58,1.66-2.71,3.36-2.71,2.16,0,3.07,1.51,3.07,3.74v6.58c0,.6.26.94.79.94h.29v1.1a3.09,3.09,0,0,1-.86.14,1.74,1.74,0,0,1-1.68-1,3.21,3.21,0,0,1-2.5,1.08c-1.7,0-2.78-1.22-2.78-3.24,0-2.28,1.18-3.89,4.32-3.89h.72V197c0-1.61-.53-2.3-1.56-2.3s-1.56.65-2,1.85Zm4.73,7.44V200h-.72c-2,0-2.69.91-2.69,2.47s.6,2,1.51,2A2.13,2.13,0,0,0,102.4,203.43Z"/><path class="cls-2" d="M108.42,205.64h-1.7V193.52h1.49l.07,1.06A3.35,3.35,0,0,1,111,193.3c2,0,3.1,1.44,3.1,4v8.33h-1.7v-8.3c0-1.7-.62-2.52-1.87-2.52a2.49,2.49,0,0,0-2.09,1.13Z"/><path class="cls-2" d="M120.88,205.06c-.67,2.18-1.61,3.1-3.46,3.22l-.14-1.32c1.13-.17,1.68-.65,2.06-2l.07-.26-3.86-11.18h1.85l2.86,9,2.33-9h1.75Z"/><path class="cls-2" d="M143.27,202c0,2.28-1.3,3.86-3.72,3.86s-3.67-1.56-3.67-3.86v-4.75c0-2.28,1.27-3.91,3.67-3.91s3.72,1.61,3.72,3.91Zm-5.69,0c0,1.61.65,2.5,2,2.5s2-.89,2-2.5v-4.66c0-1.61-.65-2.52-2-2.52s-2,.91-2,2.52Z"/><path class="cls-2" d="M147.19,204.75v3.46h-1.7V193.52H147l.1,1a3.33,3.33,0,0,1,2.71-1.25c2,0,3.07,1.49,3.07,4v4.51c0,2.54-1.13,4-3.14,4A3.2,3.2,0,0,1,147.19,204.75Zm0-1.46a2.43,2.43,0,0,0,2.06,1.08c1.27,0,1.9-.86,1.9-2.52v-4.49c0-1.71-.6-2.54-1.87-2.54a2.52,2.52,0,0,0-2.09,1.13Z"/><path class="cls-2" d="M156.76,204.75v3.46h-1.7V193.52h1.49l.1,1a3.33,3.33,0,0,1,2.71-1.25c2,0,3.07,1.49,3.07,4v4.51c0,2.54-1.13,4-3.14,4A3.2,3.2,0,0,1,156.76,204.75Zm0-1.46a2.43,2.43,0,0,0,2.06,1.08c1.27,0,1.9-.86,1.9-2.52v-4.49c0-1.71-.6-2.54-1.87-2.54a2.52,2.52,0,0,0-2.09,1.13Z"/><path class="cls-2" d="M171.69,202c0,2.28-1.29,3.86-3.72,3.86s-3.67-1.56-3.67-3.86v-4.75c0-2.28,1.27-3.91,3.67-3.91s3.72,1.61,3.72,3.91Zm-5.69,0c0,1.61.65,2.5,2,2.5s2-.89,2-2.5v-4.66c0-1.61-.65-2.52-2-2.52s-2,.91-2,2.52Z"/><path class="cls-2" d="M178.91,195.29a1.66,1.66,0,0,0-1-.26c-1.34,0-2.18,1.18-2.35,3.36v7.25H173.9V193.52h1.46l.1,2c.58-1.56,1.44-2.18,2.52-2.18a2.28,2.28,0,0,1,1.15.29Z"/><path class="cls-2" d="M185.27,195.42h-2.45v7.42c0,1.13.48,1.61,1.3,1.61a2.09,2.09,0,0,0,1-.24l.22,1.1a3,3,0,0,1-1.75.53c-1.66,0-2.45-1.06-2.45-3v-7.32l-1.32-.29V194l1.42-.1.41-2.71h1.22V194h2.45Z"/><path class="cls-2" d="M192.66,193.52h1.68v12.12h-1.49l-.1-1a3.31,3.31,0,0,1-2.71,1.22c-1.94,0-3.07-1.44-3.07-4v-8.33h1.7v8.33c0,1.63.65,2.5,1.87,2.5a2.54,2.54,0,0,0,2.11-1.1Z"/><path class="cls-2" d="M198.59,205.64h-1.71V193.52h1.49l.07,1.06a3.35,3.35,0,0,1,2.71-1.27c2,0,3.1,1.44,3.1,4v8.33h-1.7v-8.3c0-1.7-.62-2.52-1.87-2.52a2.49,2.49,0,0,0-2.09,1.13Z"/><path class="cls-2" d="M208.48,194v11.64h-1.7V194Zm0-4v2.18h-1.61V190Z"/><path class="cls-2" d="M215.78,195.42h-2.45v7.42c0,1.13.48,1.61,1.3,1.61a2.1,2.1,0,0,0,1-.24l.21,1.1a3,3,0,0,1-1.75.53c-1.66,0-2.45-1.06-2.45-3v-7.32l-1.32-.29V194l1.42-.1.41-2.71h1.22V194h2.45Z"/><path class="cls-2" d="M219.54,194v11.64h-1.71V194Zm0-4v2.18h-1.61V190Z"/><path class="cls-2" d="M223.62,199.62v2.26c0,1.66.72,2.52,2,2.52,1.06,0,1.66-.55,2.09-2.09l1.3.43c-.5,2.11-1.66,3.1-3.53,3.1-2.35,0-3.6-1.63-3.6-3.91v-4.7c0-2.28,1.25-3.91,3.58-3.91s3.5,1.7,3.5,4v2.33Zm0-1.2h3.84v-1.3c0-1.58-.7-2.4-1.92-2.4s-1.92.86-1.92,2.42Z"/><path class="cls-2" d="M235.91,196.38c-.36-1.27-1.06-1.7-2-1.7a1.5,1.5,0,0,0-1.63,1.68c0,2.69,4.8,2.16,4.8,6.12a3.13,3.13,0,0,1-3.19,3.36,3.29,3.29,0,0,1-3.36-2.69l1.18-.53c.41,1.42,1.27,1.9,2.14,1.9,1.05,0,1.63-.7,1.63-1.92,0-2.88-4.82-2.33-4.82-6.12a3,3,0,0,1,3.22-3.17,3.15,3.15,0,0,1,3.14,2.62Z"/><path class="cls-2" d="M253.82,195.42h-2.45v7.42c0,1.13.48,1.61,1.3,1.61a2.1,2.1,0,0,0,1-.24l.22,1.1a3,3,0,0,1-1.75.53c-1.66,0-2.45-1.06-2.45-3v-7.32l-1.32-.29V194l1.42-.1.41-2.71h1.22V194h2.45Z"/><path class="cls-2" d="M257.49,205.64h-1.7V190h1.7v4.51a3.24,3.24,0,0,1,2.59-1.18c2,0,3.07,1.44,3.07,4v8.33h-1.7v-8.3c0-1.7-.62-2.52-1.87-2.52a2.54,2.54,0,0,0-2.09,1.13Z"/><path class="cls-2" d="M265.34,196c.63-1.58,1.66-2.71,3.36-2.71,2.16,0,3.07,1.51,3.07,3.74v6.58c0,.6.26.94.79.94h.29v1.1a3.09,3.09,0,0,1-.87.14,1.74,1.74,0,0,1-1.68-1,3.21,3.21,0,0,1-2.5,1.08c-1.7,0-2.78-1.22-2.78-3.24,0-2.28,1.18-3.89,4.32-3.89h.72V197c0-1.61-.53-2.3-1.56-2.3s-1.56.65-2,1.85Zm4.73,7.44V200h-.72c-2,0-2.69.91-2.69,2.47s.6,2,1.51,2A2.12,2.12,0,0,0,270.07,203.43Z"/><path class="cls-2" d="M278.88,195.42h-2.45v7.42c0,1.13.48,1.61,1.3,1.61a2.1,2.1,0,0,0,1-.24l.22,1.1a3,3,0,0,1-1.75.53c-1.66,0-2.45-1.06-2.45-3v-7.32l-1.32-.29V194l1.42-.1.41-2.71h1.22V194h2.45Z"/><path class="cls-2" d="M24.62,220.38c-.36-1.27-1.06-1.7-2-1.7A1.5,1.5,0,0,0,21,220.35c0,2.69,4.8,2.16,4.8,6.12a3.13,3.13,0,0,1-3.19,3.36,3.29,3.29,0,0,1-3.36-2.69l1.18-.53c.41,1.42,1.27,1.9,2.14,1.9,1.06,0,1.63-.7,1.63-1.92,0-2.88-4.82-2.33-4.82-6.12a3,3,0,0,1,3.22-3.17,3.15,3.15,0,0,1,3.14,2.62Z"/><path class="cls-2" d="M33.21,217.52h1.68v12.12H33.4l-.1-1a3.31,3.31,0,0,1-2.71,1.22c-1.94,0-3.07-1.44-3.07-4v-8.33h1.7v8.33c0,1.63.65,2.5,1.87,2.5a2.54,2.54,0,0,0,2.11-1.1Z"/><path class="cls-2" d="M39.31,218v11.64H37.6V218Zm0-4v2.18H37.65V214Z"/><path class="cls-2" d="M46.6,219.42H44.16v7.42c0,1.13.48,1.61,1.3,1.61a2.1,2.1,0,0,0,1-.24l.22,1.1a3,3,0,0,1-1.75.53c-1.66,0-2.45-1.06-2.45-3v-7.32l-1.32-.29V218l1.42-.1.41-2.71h1.22V218H46.6Z"/><path class="cls-2" d="M57.19,229.06c-.67,2.18-1.61,3.1-3.46,3.22L53.59,231c1.13-.17,1.68-.65,2.06-2l.07-.26-3.86-11.18h1.85l2.86,9,2.33-9h1.75Z"/><path class="cls-2" d="M69.16,226c0,2.28-1.3,3.86-3.72,3.86s-3.67-1.56-3.67-3.86v-4.75c0-2.28,1.27-3.91,3.67-3.91s3.72,1.61,3.72,3.91Zm-5.69,0c0,1.61.65,2.5,2,2.5s2-.89,2-2.5v-4.66c0-1.61-.65-2.52-2-2.52s-2,.91-2,2.52Z"/><path class="cls-2" d="M76.87,217.52h1.68v12.12H77.06l-.1-1a3.31,3.31,0,0,1-2.71,1.22c-1.94,0-3.07-1.44-3.07-4v-8.33h1.7v8.33c0,1.63.65,2.5,1.87,2.5a2.54,2.54,0,0,0,2.11-1.1Z"/><path class="cls-2" d="M81.11,227.82h1.66v1.82H81.11Z"/><path class="cls-2" d="M26.66,262v1.66h-3v14H21.79v-14h-3V262Z"/><path class="cls-2" d="M29.95,277.64h-1.7V262h1.7v4.51a3.24,3.24,0,0,1,2.59-1.18c2,0,3.07,1.44,3.07,4v8.33h-1.7v-8.3c0-1.7-.62-2.52-1.87-2.52a2.54,2.54,0,0,0-2.09,1.13Z"/><path class="cls-2" d="M39.36,271.62v2.26c0,1.66.72,2.52,2,2.52,1.06,0,1.66-.55,2.09-2.09l1.3.43c-.5,2.11-1.66,3.1-3.53,3.1-2.35,0-3.6-1.63-3.6-3.91v-4.7c0-2.28,1.25-3.91,3.58-3.91s3.5,1.7,3.5,4v2.33Zm0-1.2H43.2v-1.3c0-1.58-.7-2.4-1.92-2.4s-1.92.86-1.92,2.42Z"/><path class="cls-2" d="M51,277.06c-.67,2.18-1.61,3.1-3.46,3.22L47.44,279c1.13-.17,1.68-.65,2.06-2l.07-.26-3.86-11.18h1.85l2.86,9,2.33-9H54.5Z"/><path class="cls-2" d="M55.44,262h1.68v1.3A3.12,3.12,0,0,1,56,265.85l-.48-.48a2,2,0,0,0,.62-1.54l-.74-.17Z"/><path class="cls-2" d="M64.05,267.29a1.65,1.65,0,0,0-1-.26c-1.34,0-2.18,1.18-2.35,3.36v7.25H59V265.52H60.5l.1,2c.58-1.56,1.44-2.18,2.52-2.18a2.29,2.29,0,0,1,1.15.29Z"/><path class="cls-2" d="M66.91,271.62v2.26c0,1.66.72,2.52,2,2.52,1.06,0,1.66-.55,2.09-2.09l1.3.43c-.5,2.11-1.66,3.1-3.53,3.1-2.35,0-3.6-1.63-3.6-3.91v-4.7c0-2.28,1.25-3.91,3.58-3.91s3.5,1.7,3.5,4v2.33Zm0-1.2h3.84v-1.3c0-1.58-.7-2.4-1.92-2.4s-1.92.86-1.92,2.42Z"/><path class="cls-2" d="M84.91,276.75v3.46h-1.7V265.52H84.7l.1,1a3.33,3.33,0,0,1,2.71-1.25c2,0,3.07,1.49,3.07,4v4.51c0,2.54-1.13,4-3.14,4A3.2,3.2,0,0,1,84.91,276.75Zm0-1.46A2.43,2.43,0,0,0,87,276.37c1.27,0,1.9-.86,1.9-2.52v-4.49c0-1.71-.6-2.54-1.87-2.54a2.52,2.52,0,0,0-2.09,1.13Z"/><path class="cls-2" d="M97.8,267.29a1.65,1.65,0,0,0-1-.26c-1.34,0-2.18,1.18-2.35,3.36v7.25h-1.7V265.52h1.46l.1,2c.58-1.56,1.44-2.18,2.52-2.18a2.29,2.29,0,0,1,1.15.29Z"/><path class="cls-2" d="M101.45,266v11.64h-1.7V266Zm0-4v2.18H99.79V262Z"/><path class="cls-2" d="M111.22,274c0,2.28-1.3,3.86-3.72,3.86s-3.67-1.56-3.67-3.86v-4.75c0-2.28,1.27-3.91,3.67-3.91s3.72,1.61,3.72,3.91Zm-5.69,0c0,1.61.65,2.5,2,2.5s2-.89,2-2.5v-4.66c0-1.61-.65-2.52-2-2.52s-2,.91-2,2.52Z"/><path class="cls-2" d="M118.44,267.29a1.65,1.65,0,0,0-1-.26c-1.34,0-2.18,1.18-2.35,3.36v7.25h-1.7V265.52h1.46l.1,2c.58-1.56,1.44-2.18,2.52-2.18a2.29,2.29,0,0,1,1.15.29Z"/><path class="cls-2" d="M130.86,262v9.77l4-6.22h1.85l-3.41,5.21,3.82,6.91H135.2l-3-5.69-1.34,1.75v3.94h-1.7V262Z"/><path class="cls-2" d="M140.31,277.64h-1.7V265.52h1.49l.07,1.06a3.35,3.35,0,0,1,2.71-1.27c2,0,3.1,1.44,3.1,4v8.33h-1.7v-8.3c0-1.7-.62-2.52-1.87-2.52a2.49,2.49,0,0,0-2.09,1.13Z"/><path class="cls-2" d="M155.38,274c0,2.28-1.3,3.86-3.72,3.86S148,276.27,148,274v-4.75c0-2.28,1.27-3.91,3.67-3.91s3.72,1.61,3.72,3.91Zm-5.69,0c0,1.61.65,2.5,2,2.5s2-.89,2-2.5v-4.66c0-1.61-.65-2.52-2-2.52s-2,.91-2,2.52Z"/><path class="cls-2" d="M163.11,267.82l-2,9.82h-1.9l-2.66-12.12h1.78l1.9,10.15,2.09-10.15h1.61L166,275.74l1.9-10.22h1.78L167,277.64H165.1Z"/><path class="cls-2" d="M173.26,262v15.67h-1.71V262Z"/><path class="cls-2" d="M177.42,271.62v2.26c0,1.66.72,2.52,2,2.52,1.06,0,1.66-.55,2.09-2.09l1.3.43c-.5,2.11-1.66,3.1-3.53,3.1-2.35,0-3.6-1.63-3.6-3.91v-4.7c0-2.28,1.25-3.91,3.58-3.91s3.5,1.7,3.5,4v2.33Zm0-1.2h3.84v-1.3c0-1.58-.7-2.4-1.92-2.4s-1.92.86-1.92,2.42Z"/><path class="cls-2" d="M190.18,266.41V262h1.7v15.67H190.4l-.1-1a3.31,3.31,0,0,1-2.71,1.22c-2,0-3.07-1.44-3.07-4v-4.51c0-2.54,1.1-4,3.14-4A3.28,3.28,0,0,1,190.18,266.41Zm0,1.51a2.44,2.44,0,0,0-2.06-1.08c-1.27,0-1.9.84-1.9,2.52v4.49c0,1.63.62,2.52,1.87,2.52a2.53,2.53,0,0,0,2.09-1.1Z"/><path class="cls-2" d="M196.28,272.41a1.11,1.11,0,0,0-.72,1c0,.5.34.84,1.22.84h2.06c2.33,0,3.19,1,3.19,2.66,0,2.23-1.56,3.43-4.13,3.43s-3.58-1-3.58-2.66a2.76,2.76,0,0,1,.94-2.18,1.84,1.84,0,0,1-1.15-1.78,2.08,2.08,0,0,1,1.29-1.82,3.94,3.94,0,0,1-.89-2.88c0-2.59,1.06-3.67,3.38-3.67a4,4,0,0,1,2.06.46,3.05,3.05,0,0,0,1.27-1.39l.84.36a3.63,3.63,0,0,1-1.2,2,4.91,4.91,0,0,1,.43,2.23c0,2.52-1.06,3.67-3.41,3.67A4.14,4.14,0,0,1,196.28,272.41Zm.31,3.31a1.88,1.88,0,0,0-.79,1.75c0,1.1.79,1.58,2.18,1.58,2,0,2.52-.82,2.52-1.92s-.41-1.42-1.78-1.42Zm1.32-4.37c1.37,0,1.78-.5,1.78-2.3s-.5-2.35-1.78-2.35-1.75.5-1.75,2.35S196.59,271.35,197.91,271.35Z"/><path class="cls-2" d="M205.11,271.62v2.26c0,1.66.72,2.52,2,2.52,1.06,0,1.66-.55,2.09-2.09l1.3.43c-.5,2.11-1.66,3.1-3.53,3.1-2.35,0-3.6-1.63-3.6-3.91v-4.7c0-2.28,1.25-3.91,3.58-3.91s3.5,1.7,3.5,4v2.33Zm0-1.2H209v-1.3c0-1.58-.7-2.4-1.92-2.4s-1.92.86-1.92,2.42Z"/><path class="cls-2" d="M228.47,274c0,2.28-1.29,3.86-3.72,3.86s-3.67-1.56-3.67-3.86v-4.75c0-2.28,1.27-3.91,3.67-3.91s3.72,1.61,3.72,3.91Zm-5.69,0c0,1.61.65,2.5,2,2.5s2-.89,2-2.5v-4.66c0-1.61-.65-2.52-2-2.52s-2,.91-2,2.52Z"/><path class="cls-2" d="M235.19,267.39h-2.47v10.25H231V267.39h-1.3V266H231v-.43c0-2.33,1.15-3.6,4-3.72l.1,1.27c-1.78.12-2.42.79-2.42,2.45V266h2.52Z"/><path class="cls-2" d="M250.08,277.06c-.67,2.18-1.61,3.1-3.46,3.22l-.14-1.32c1.13-.17,1.68-.65,2.06-2l.07-.26-3.86-11.18h1.85l2.86,9,2.33-9h1.75Z"/><path class="cls-2" d="M262.05,274c0,2.28-1.3,3.86-3.72,3.86s-3.67-1.56-3.67-3.86v-4.75c0-2.28,1.27-3.91,3.67-3.91s3.72,1.61,3.72,3.91Zm-5.69,0c0,1.61.65,2.5,2,2.5s2-.89,2-2.5v-4.66c0-1.61-.65-2.52-2-2.52s-2,.91-2,2.52Z"/><path class="cls-2" d="M269.76,265.52h1.68v12.12h-1.49l-.1-1a3.31,3.31,0,0,1-2.71,1.22c-1.94,0-3.07-1.44-3.07-4v-8.33h1.71v8.33c0,1.63.65,2.5,1.87,2.5a2.54,2.54,0,0,0,2.11-1.1Z"/><path class="cls-2" d="M279,267.29a1.66,1.66,0,0,0-1-.26c-1.34,0-2.18,1.18-2.35,3.36v7.25H274V265.52h1.46l.1,2c.58-1.56,1.44-2.18,2.52-2.18a2.28,2.28,0,0,1,1.15.29Z"/><path class="cls-2" d="M21.64,290v11.64h-1.7V290Zm0-4v2.18H20V286Z"/><path class="cls-2" d="M26.06,301.64h-1.7V289.52h1.49l.07,1.06a3.35,3.35,0,0,1,2.71-1.27c2,0,3.1,1.44,3.1,4v8.33H30v-8.3c0-1.7-.62-2.52-1.87-2.52a2.49,2.49,0,0,0-2.09,1.13Z"/><path class="cls-2" d="M38.66,291.42H36.21v7.42c0,1.13.48,1.61,1.3,1.61a2.1,2.1,0,0,0,1-.24l.22,1.1a3,3,0,0,1-1.75.53c-1.66,0-2.45-1.06-2.45-3v-7.32l-1.32-.29V290l1.42-.1.41-2.71h1.22V290h2.45Z"/><path class="cls-2" d="M41.92,295.62v2.26c0,1.66.72,2.52,2,2.52,1.06,0,1.66-.55,2.09-2.09l1.3.43c-.5,2.11-1.66,3.1-3.53,3.1-2.35,0-3.6-1.63-3.6-3.91v-4.7c0-2.28,1.25-3.91,3.58-3.91s3.5,1.7,3.5,4v2.33Zm0-1.2h3.84v-1.3c0-1.58-.7-2.4-1.92-2.4s-1.92.86-1.92,2.42Z"/><path class="cls-2" d="M54.38,291.29a1.65,1.65,0,0,0-1-.26c-1.34,0-2.18,1.18-2.35,3.36v7.25h-1.7V289.52h1.46l.1,2c.58-1.56,1.44-2.18,2.52-2.18a2.29,2.29,0,0,1,1.15.29Z"/><path class="cls-2" d="M57.23,295.62v2.26c0,1.66.72,2.52,2,2.52,1.06,0,1.66-.55,2.09-2.09l1.3.43c-.5,2.11-1.66,3.1-3.53,3.1-2.35,0-3.6-1.63-3.6-3.91v-4.7c0-2.28,1.25-3.91,3.58-3.91s3.5,1.7,3.5,4v2.33Zm0-1.2h3.84v-1.3c0-1.58-.7-2.4-1.92-2.4s-1.92.86-1.92,2.42Z"/><path class="cls-2" d="M69.52,292.38c-.36-1.27-1.06-1.7-2-1.7a1.5,1.5,0,0,0-1.63,1.68c0,2.69,4.8,2.16,4.8,6.12a3.13,3.13,0,0,1-3.19,3.36,3.29,3.29,0,0,1-3.36-2.69l1.18-.53c.41,1.42,1.27,1.9,2.14,1.9,1.06,0,1.63-.7,1.63-1.92,0-2.88-4.82-2.33-4.82-6.12a3,3,0,0,1,3.22-3.17,3.15,3.15,0,0,1,3.14,2.62Z"/><path class="cls-2" d="M77.2,291.42H74.75v7.42c0,1.13.48,1.61,1.3,1.61a2.1,2.1,0,0,0,1-.24l.22,1.1a3,3,0,0,1-1.75.53c-1.66,0-2.45-1.06-2.45-3v-7.32l-1.32-.29V290l1.42-.1.41-2.71h1.22V290H77.2Z"/><path class="cls-2" d="M83.95,292.38c-.36-1.27-1.06-1.7-2-1.7a1.5,1.5,0,0,0-1.63,1.68c0,2.69,4.8,2.16,4.8,6.12A3.13,3.13,0,0,1,82,301.83a3.29,3.29,0,0,1-3.36-2.69l1.18-.53c.41,1.42,1.27,1.9,2.14,1.9,1.06,0,1.63-.7,1.63-1.92,0-2.88-4.82-2.33-4.82-6.12a3,3,0,0,1,3.22-3.17,3.15,3.15,0,0,1,3.14,2.62Z"/><path class="cls-2" d="M95.43,292c.62-1.58,1.66-2.71,3.36-2.71,2.16,0,3.07,1.51,3.07,3.74v6.58c0,.6.26.94.79.94h.29v1.1a3.09,3.09,0,0,1-.86.14,1.74,1.74,0,0,1-1.68-1,3.21,3.21,0,0,1-2.5,1.08c-1.7,0-2.78-1.22-2.78-3.24,0-2.28,1.18-3.89,4.32-3.89h.72V293c0-1.61-.53-2.3-1.56-2.3s-1.56.65-2,1.85Zm4.73,7.44V296h-.72c-2,0-2.69.91-2.69,2.47s.6,2,1.51,2A2.13,2.13,0,0,0,100.16,299.43Z"/><path class="cls-2" d="M106.18,301.64h-1.7V289.52H106l.07,1.06a3.35,3.35,0,0,1,2.71-1.27c2,0,3.1,1.44,3.1,4v8.33h-1.7v-8.3c0-1.7-.62-2.52-1.87-2.52a2.49,2.49,0,0,0-2.09,1.13Z"/><path class="cls-2" d="M119.53,290.41V286h1.7v15.67h-1.49l-.1-1a3.31,3.31,0,0,1-2.71,1.22c-2,0-3.07-1.44-3.07-4v-4.51c0-2.54,1.1-4,3.14-4A3.28,3.28,0,0,1,119.53,290.41Zm0,1.51a2.44,2.44,0,0,0-2.06-1.08c-1.27,0-1.9.84-1.9,2.52v4.49c0,1.63.62,2.52,1.87,2.52a2.53,2.53,0,0,0,2.09-1.1Z"/><path class="cls-2" d="M134.16,300.75v3.46h-1.7V289.52h1.49l.1,1a3.33,3.33,0,0,1,2.71-1.25c2,0,3.07,1.49,3.07,4v4.51c0,2.54-1.13,4-3.14,4A3.2,3.2,0,0,1,134.16,300.75Zm0-1.46a2.43,2.43,0,0,0,2.06,1.08c1.27,0,1.9-.86,1.9-2.52v-4.49c0-1.71-.6-2.54-1.87-2.54a2.52,2.52,0,0,0-2.09,1.13Z"/><path class="cls-2" d="M149.09,298c0,2.28-1.3,3.86-3.72,3.86s-3.67-1.56-3.67-3.86v-4.75c0-2.28,1.27-3.91,3.67-3.91s3.72,1.61,3.72,3.91Zm-5.69,0c0,1.61.65,2.5,2,2.5s2-.89,2-2.5v-4.66c0-1.61-.65-2.52-2-2.52s-2,.91-2,2.52Z"/><path class="cls-2" d="M155.88,291.42h-2.45v7.42c0,1.13.48,1.61,1.3,1.61a2.1,2.1,0,0,0,1-.24l.22,1.1a3,3,0,0,1-1.75.53c-1.66,0-2.45-1.06-2.45-3v-7.32l-1.32-.29V290l1.42-.1.41-2.71h1.22V290h2.45Z"/><path class="cls-2" d="M159.14,295.62v2.26c0,1.66.72,2.52,2,2.52,1.06,0,1.66-.55,2.09-2.09l1.3.43c-.5,2.11-1.66,3.1-3.53,3.1-2.35,0-3.6-1.63-3.6-3.91v-4.7c0-2.28,1.25-3.91,3.58-3.91s3.5,1.7,3.5,4v2.33Zm0-1.2H163v-1.3c0-1.58-.7-2.4-1.92-2.4s-1.92.86-1.92,2.42Z"/><path class="cls-2" d="M168.29,301.64h-1.7V289.52h1.49l.07,1.06a3.35,3.35,0,0,1,2.71-1.27c2,0,3.1,1.44,3.1,4v8.33h-1.71v-8.3c0-1.7-.62-2.52-1.87-2.52a2.49,2.49,0,0,0-2.09,1.13Z"/><path class="cls-2" d="M180.89,291.42h-2.45v7.42c0,1.13.48,1.61,1.3,1.61a2.1,2.1,0,0,0,1-.24l.22,1.1a3,3,0,0,1-1.75.53c-1.66,0-2.45-1.06-2.45-3v-7.32l-1.32-.29V290l1.42-.1.41-2.71h1.22V290h2.45Z"/><path class="cls-2" d="M184.65,290v11.64h-1.7V290Zm0-4v2.18H183V286Z"/><path class="cls-2" d="M187.17,292c.62-1.58,1.66-2.71,3.36-2.71,2.16,0,3.07,1.51,3.07,3.74v6.58c0,.6.26.94.79.94h.29v1.1a3.08,3.08,0,0,1-.86.14,1.74,1.74,0,0,1-1.68-1,3.21,3.21,0,0,1-2.5,1.08c-1.7,0-2.78-1.22-2.78-3.24,0-2.28,1.18-3.89,4.32-3.89h.72V293c0-1.61-.53-2.3-1.56-2.3s-1.56.65-2,1.85Zm4.73,7.44V296h-.72c-2,0-2.69.91-2.69,2.47s.6,2,1.51,2A2.13,2.13,0,0,0,191.9,299.43Z"/><path class="cls-2" d="M198.14,286v15.67h-1.7V286Z"/><path class="cls-2" d="M214.74,292.54c-.34-1.25-1-1.78-1.94-1.78-1.22,0-1.92.79-1.92,2.5v4.61c0,1.7.7,2.52,1.92,2.52,1,0,1.61-.53,2-1.85L216,299a3.35,3.35,0,0,1-3.34,2.86c-2.35,0-3.53-1.7-3.53-3.89v-4.73c0-2.23,1.2-3.91,3.5-3.91a3.36,3.36,0,0,1,3.31,2.76Z"/><path class="cls-2" d="M217.53,292c.62-1.58,1.66-2.71,3.36-2.71,2.16,0,3.07,1.51,3.07,3.74v6.58c0,.6.26.94.79.94H225v1.1a3.08,3.08,0,0,1-.86.14,1.74,1.74,0,0,1-1.68-1,3.21,3.21,0,0,1-2.5,1.08c-1.7,0-2.78-1.22-2.78-3.24,0-2.28,1.18-3.89,4.32-3.89h.72V293c0-1.61-.53-2.3-1.56-2.3s-1.56.65-2,1.85Zm4.73,7.44V296h-.72c-2,0-2.69.91-2.69,2.47s.6,2,1.51,2A2.13,2.13,0,0,0,222.25,299.43Z"/><path class="cls-2" d="M228.28,301.64h-1.7V289.52h1.49l.07,1.06a3.35,3.35,0,0,1,2.71-1.27c2,0,3.1,1.44,3.1,4v8.33h-1.71v-8.3c0-1.7-.62-2.52-1.87-2.52a2.49,2.49,0,0,0-2.09,1.13Z"/><path class="cls-2" d="M246.53,300.58l-.12,1.06h-1.46V286h1.7v4.49a3.27,3.27,0,0,1,2.62-1.15c1.94,0,3,1.46,3,4v4.51c0,2.54-1.1,4-3.14,4A3.17,3.17,0,0,1,246.53,300.58Zm.12-1.42a2.28,2.28,0,0,0,2.06,1.18c1.27,0,1.9-.84,1.9-2.5v-4.49c0-1.68-.62-2.54-1.87-2.54a2.55,2.55,0,0,0-2.09,1.13Z"/><path class="cls-2" d="M255.89,295.62v2.26c0,1.66.72,2.52,2,2.52,1.06,0,1.66-.55,2.09-2.09l1.3.43c-.5,2.11-1.66,3.1-3.53,3.1-2.35,0-3.6-1.63-3.6-3.91v-4.7c0-2.28,1.25-3.91,3.58-3.91s3.5,1.7,3.5,4v2.33Zm0-1.2h3.84v-1.3c0-1.58-.7-2.4-1.92-2.4s-1.92.86-1.92,2.42Z"/><path class="cls-2" d="M271.72,292c.62-1.58,1.66-2.71,3.36-2.71,2.16,0,3.07,1.51,3.07,3.74v6.58c0,.6.26.94.79.94h.29v1.1a3.09,3.09,0,0,1-.86.14,1.74,1.74,0,0,1-1.68-1,3.21,3.21,0,0,1-2.5,1.08c-1.7,0-2.78-1.22-2.78-3.24,0-2.28,1.18-3.89,4.32-3.89h.72V293c0-1.61-.53-2.3-1.56-2.3s-1.56.65-2,1.85Zm4.73,7.44V296h-.72c-2,0-2.69.91-2.69,2.47s.6,2,1.51,2A2.12,2.12,0,0,0,276.45,299.43Z"/><path class="cls-2" d="M21.52,320.41a1.11,1.11,0,0,0-.72,1c0,.5.34.84,1.22.84h2.06c2.33,0,3.19,1,3.19,2.66,0,2.23-1.56,3.43-4.13,3.43s-3.58-1-3.58-2.66a2.76,2.76,0,0,1,.94-2.18,1.84,1.84,0,0,1-1.15-1.78,2.08,2.08,0,0,1,1.3-1.82,3.94,3.94,0,0,1-.89-2.88c0-2.59,1.06-3.67,3.38-3.67a4.05,4.05,0,0,1,2.06.46,3.05,3.05,0,0,0,1.27-1.39l.84.36a3.64,3.64,0,0,1-1.2,2,4.93,4.93,0,0,1,.43,2.23c0,2.52-1.06,3.67-3.41,3.67A4.15,4.15,0,0,1,21.52,320.41Zm.31,3.31a1.88,1.88,0,0,0-.79,1.75c0,1.1.79,1.58,2.18,1.58,2,0,2.52-.82,2.52-1.92s-.41-1.42-1.78-1.42Zm1.32-4.37c1.37,0,1.78-.5,1.78-2.3s-.5-2.35-1.78-2.35-1.75.5-1.75,2.35S21.84,319.35,23.16,319.35Z"/><path class="cls-2" d="M34,315.29a1.65,1.65,0,0,0-1-.26c-1.34,0-2.18,1.18-2.35,3.36v7.25H29V313.52h1.46l.1,2c.58-1.56,1.44-2.18,2.52-2.18a2.29,2.29,0,0,1,1.15.29Z"/><path class="cls-2" d="M36.86,319.62v2.26c0,1.66.72,2.52,2,2.52,1.06,0,1.66-.55,2.09-2.09l1.3.43c-.5,2.11-1.66,3.1-3.53,3.1-2.35,0-3.6-1.63-3.6-3.91v-4.7c0-2.28,1.25-3.91,3.58-3.91s3.5,1.7,3.5,4v2.33Zm0-1.2H40.7v-1.3c0-1.58-.7-2.4-1.92-2.4s-1.92.86-1.92,2.42Z"/><path class="cls-2" d="M44.11,316c.62-1.58,1.66-2.71,3.36-2.71,2.16,0,3.07,1.51,3.07,3.74v6.58c0,.6.26.94.79.94h.29v1.1a3.09,3.09,0,0,1-.86.14,1.74,1.74,0,0,1-1.68-1,3.21,3.21,0,0,1-2.5,1.08c-1.7,0-2.78-1.22-2.78-3.24,0-2.28,1.18-3.89,4.32-3.89h.72V317c0-1.61-.53-2.3-1.56-2.3s-1.56.65-2,1.85Zm4.73,7.44V320h-.72c-2,0-2.69.91-2.69,2.47s.6,2,1.51,2A2.13,2.13,0,0,0,48.84,323.43Z"/><path class="cls-2" d="M57.64,315.42H55.2v7.42c0,1.13.48,1.61,1.3,1.61a2.1,2.1,0,0,0,1-.24l.22,1.1a3,3,0,0,1-1.75.53c-1.66,0-2.45-1.06-2.45-3v-7.32l-1.32-.29V314l1.42-.1.41-2.71H55.2V314h2.45Z"/><path class="cls-2" d="M65.18,324.58l-.12,1.06H63.6V310h1.7v4.49a3.28,3.28,0,0,1,2.62-1.15c1.94,0,3,1.46,3,4v4.51c0,2.54-1.1,4-3.14,4A3.17,3.17,0,0,1,65.18,324.58Zm.12-1.42a2.28,2.28,0,0,0,2.06,1.18c1.27,0,1.9-.84,1.9-2.5v-4.49c0-1.68-.62-2.54-1.87-2.54a2.55,2.55,0,0,0-2.09,1.13Z"/><path class="cls-2" d="M74.54,319.62v2.26c0,1.66.72,2.52,2,2.52,1.06,0,1.66-.55,2.09-2.09l1.3.43c-.5,2.11-1.66,3.1-3.53,3.1-2.35,0-3.6-1.63-3.6-3.91v-4.7c0-2.28,1.25-3.91,3.58-3.91s3.5,1.7,3.5,4v2.33Zm0-1.2h3.84v-1.3c0-1.58-.7-2.4-1.92-2.4s-1.92.86-1.92,2.42Z"/><path class="cls-2" d="M83.69,325.64H82V313.52h1.49l.07,1.06a3.35,3.35,0,0,1,2.71-1.27c2,0,3.1,1.44,3.1,4v8.33h-1.7v-8.3c0-1.7-.62-2.52-1.87-2.52a2.49,2.49,0,0,0-2.09,1.13Z"/><path class="cls-2" d="M93.07,319.62v2.26c0,1.66.72,2.52,2,2.52,1.06,0,1.66-.55,2.09-2.09l1.3.43c-.5,2.11-1.66,3.1-3.53,3.1-2.35,0-3.6-1.63-3.6-3.91v-4.7c0-2.28,1.25-3.91,3.58-3.91s3.5,1.7,3.5,4v2.33Zm0-1.2h3.84v-1.3c0-1.58-.7-2.4-1.92-2.4s-1.92.86-1.92,2.42Z"/><path class="cls-2" d="M104.93,311.19c-1.8.12-2.5.86-2.5,2.5V314h5.5v11.62h-1.7V315.39h-3.67v10.25h-1.68V315.39h-1.3V314h1.3v-.34c0-2.28,1.13-3.67,4-3.82Zm2.93-1.22v2.23h-1.58V310Z"/><path class="cls-2" d="M115.18,315.42h-2.45v7.42c0,1.13.48,1.61,1.3,1.61a2.1,2.1,0,0,0,1-.24l.22,1.1a3,3,0,0,1-1.75.53c-1.66,0-2.45-1.06-2.45-3v-7.32l-1.32-.29V314l1.42-.1.41-2.71h1.22V314h2.45Z"/><path class="cls-2" d="M125.65,315.42H123.2v7.42c0,1.13.48,1.61,1.3,1.61a2.1,2.1,0,0,0,1-.24l.22,1.1a3,3,0,0,1-1.75.53c-1.66,0-2.45-1.06-2.45-3v-7.32l-1.32-.29V314l1.42-.1.41-2.71h1.22V314h2.45Z"/><path class="cls-2" d="M134.6,322c0,2.28-1.3,3.86-3.72,3.86s-3.67-1.56-3.67-3.86v-4.75c0-2.28,1.27-3.91,3.67-3.91s3.72,1.61,3.72,3.91Zm-5.69,0c0,1.61.65,2.5,2,2.5s2-.89,2-2.5v-4.66c0-1.61-.65-2.52-2-2.52s-2,.91-2,2.52Z"/><path class="cls-2" d="M145.23,325.06c-.67,2.18-1.61,3.1-3.46,3.22l-.14-1.32c1.13-.17,1.68-.65,2.06-2l.07-.26-3.86-11.18h1.85l2.86,9,2.33-9h1.75Z"/><path class="cls-2" d="M157.21,322c0,2.28-1.3,3.86-3.72,3.86s-3.67-1.56-3.67-3.86v-4.75c0-2.28,1.27-3.91,3.67-3.91s3.72,1.61,3.72,3.91Zm-5.69,0c0,1.61.65,2.5,2,2.5s2-.89,2-2.5v-4.66c0-1.61-.65-2.52-2-2.52s-2,.91-2,2.52Z"/><path class="cls-2" d="M164.91,313.52h1.68v12.12h-1.49l-.1-1a3.31,3.31,0,0,1-2.71,1.22c-1.94,0-3.07-1.44-3.07-4v-8.33h1.7v8.33c0,1.63.65,2.5,1.87,2.5a2.54,2.54,0,0,0,2.11-1.1Z"/><path class="cls-2" d="M174.15,315.29a1.65,1.65,0,0,0-1-.26c-1.34,0-2.18,1.18-2.35,3.36v7.25h-1.7V313.52h1.46l.1,2c.58-1.56,1.44-2.18,2.52-2.18a2.28,2.28,0,0,1,1.15.29Z"/><path class="cls-2" d="M178.17,326.89c1.3-.22,1.94-1.06,1.94-3V314h1.7v9.86c0,2.83-1.25,4.25-3.5,4.44ZM181.74,310v2.18h-1.61V310Z"/><path class="cls-2" d="M191.27,322c0,2.28-1.29,3.86-3.72,3.86s-3.67-1.56-3.67-3.86v-4.75c0-2.28,1.27-3.91,3.67-3.91s3.72,1.61,3.72,3.91Zm-5.69,0c0,1.61.65,2.5,2,2.5s2-.89,2-2.5v-4.66c0-1.61-.65-2.52-2-2.52s-2,.91-2,2.52Z"/><path class="cls-2" d="M195.13,324.58l-.12,1.06h-1.46V310h1.71v4.49a3.27,3.27,0,0,1,2.62-1.15c1.95,0,3,1.46,3,4v4.51c0,2.54-1.1,4-3.14,4A3.18,3.18,0,0,1,195.13,324.58Zm.12-1.42a2.28,2.28,0,0,0,2.06,1.18c1.27,0,1.9-.84,1.9-2.5v-4.49c0-1.68-.62-2.54-1.87-2.54a2.55,2.55,0,0,0-2.09,1.13Z"/><path class="cls-2" d="M212,316.38c-.36-1.27-1.06-1.7-2-1.7a1.5,1.5,0,0,0-1.63,1.68c0,2.69,4.8,2.16,4.8,6.12a3.13,3.13,0,0,1-3.19,3.36,3.29,3.29,0,0,1-3.36-2.69l1.18-.53c.41,1.42,1.27,1.9,2.14,1.9,1.05,0,1.63-.7,1.63-1.92,0-2.88-4.82-2.33-4.82-6.12a3,3,0,0,1,3.22-3.17,3.15,3.15,0,0,1,3.14,2.62Z"/><path class="cls-2" d="M216.43,319.62v2.26c0,1.66.72,2.52,2,2.52,1.06,0,1.66-.55,2.09-2.09l1.3.43c-.5,2.11-1.66,3.1-3.53,3.1-2.35,0-3.6-1.63-3.6-3.91v-4.7c0-2.28,1.25-3.91,3.58-3.91s3.5,1.7,3.5,4v2.33Zm0-1.2h3.84v-1.3c0-1.58-.7-2.4-1.92-2.4s-1.92.86-1.92,2.42Z"/><path class="cls-2" d="M223.68,316c.63-1.58,1.66-2.71,3.36-2.71,2.16,0,3.07,1.51,3.07,3.74v6.58c0,.6.26.94.79.94h.29v1.1a3.09,3.09,0,0,1-.87.14,1.74,1.74,0,0,1-1.68-1,3.21,3.21,0,0,1-2.5,1.08c-1.7,0-2.78-1.22-2.78-3.24,0-2.28,1.18-3.89,4.32-3.89h.72V317c0-1.61-.53-2.3-1.56-2.3s-1.56.65-2,1.85Zm4.73,7.44V320h-.72c-2,0-2.69.91-2.69,2.47s.6,2,1.51,2A2.12,2.12,0,0,0,228.4,323.43Z"/><path class="cls-2" d="M237.74,315.29a1.65,1.65,0,0,0-1-.26c-1.34,0-2.19,1.18-2.35,3.36v7.25h-1.7V313.52h1.46l.1,2c.58-1.56,1.44-2.18,2.52-2.18a2.29,2.29,0,0,1,1.15.29Z"/><path class="cls-2" d="M244.46,316.54c-.34-1.25-1-1.78-1.94-1.78-1.22,0-1.92.79-1.92,2.5v4.61c0,1.7.7,2.52,1.92,2.52,1,0,1.61-.53,2-1.85l1.27.43a3.35,3.35,0,0,1-3.34,2.86c-2.35,0-3.53-1.7-3.53-3.89v-4.73c0-2.23,1.2-3.91,3.5-3.91a3.37,3.37,0,0,1,3.31,2.76Z"/><path class="cls-2" d="M249.21,325.64h-1.7V310h1.7v4.51a3.24,3.24,0,0,1,2.59-1.18c2,0,3.07,1.44,3.07,4v8.33h-1.7v-8.3c0-1.7-.62-2.52-1.87-2.52a2.54,2.54,0,0,0-2.09,1.13Z"/><path class="cls-2" d="M259.12,314v11.64h-1.7V314Zm0-4v2.18h-1.61V310Z"/><path class="cls-2" d="M263.54,325.64h-1.7V313.52h1.49l.07,1.06a3.35,3.35,0,0,1,2.71-1.27c2,0,3.1,1.44,3.1,4v8.33H267.5v-8.3c0-1.7-.62-2.52-1.87-2.52a2.49,2.49,0,0,0-2.09,1.13Z"/><path class="cls-2" d="M273.31,320.41a1.11,1.11,0,0,0-.72,1c0,.5.34.84,1.22.84h2.06c2.33,0,3.19,1,3.19,2.66,0,2.23-1.56,3.43-4.13,3.43s-3.58-1-3.58-2.66a2.76,2.76,0,0,1,.94-2.18,1.84,1.84,0,0,1-1.15-1.78,2.08,2.08,0,0,1,1.3-1.82,3.94,3.94,0,0,1-.89-2.88c0-2.59,1.06-3.67,3.38-3.67a4.06,4.06,0,0,1,2.06.46,3.05,3.05,0,0,0,1.27-1.39l.84.36a3.64,3.64,0,0,1-1.2,2,4.94,4.94,0,0,1,.43,2.23c0,2.52-1.06,3.67-3.41,3.67A4.16,4.16,0,0,1,273.31,320.41Zm.31,3.31a1.88,1.88,0,0,0-.79,1.75c0,1.1.79,1.58,2.18,1.58,2,0,2.52-.82,2.52-1.92s-.41-1.42-1.78-1.42Zm1.32-4.37c1.37,0,1.78-.5,1.78-2.3s-.5-2.35-1.78-2.35-1.75.5-1.75,2.35S273.62,319.35,274.94,319.35Z"/><path class="cls-2" d="M21.14,343.62v2.26c0,1.66.72,2.52,2,2.52,1.06,0,1.66-.55,2.09-2.09l1.3.43c-.5,2.11-1.66,3.1-3.53,3.1-2.35,0-3.6-1.63-3.6-3.91v-4.7c0-2.28,1.25-3.91,3.58-3.91s3.5,1.7,3.5,4v2.33Zm0-1.2H25v-1.3c0-1.58-.7-2.4-1.92-2.4s-1.92.86-1.92,2.42Z"/><path class="cls-2" d="M30.28,349.64h-1.7V337.52h1.49l.07,1.06a3.35,3.35,0,0,1,2.71-1.27c2,0,3.1,1.44,3.1,4v8.33h-1.7v-8.3c0-1.7-.62-2.52-1.87-2.52a2.49,2.49,0,0,0-2.09,1.13Z"/><path class="cls-2" d="M43.63,338.41V334h1.7v15.67H43.84l-.1-1A3.31,3.31,0,0,1,41,349.83c-2,0-3.07-1.44-3.07-4v-4.51c0-2.54,1.1-4,3.14-4A3.28,3.28,0,0,1,43.63,338.41Zm0,1.51a2.44,2.44,0,0,0-2.06-1.08c-1.27,0-1.9.84-1.9,2.52v4.49c0,1.63.62,2.52,1.87,2.52a2.53,2.53,0,0,0,2.09-1.1Z"/><path class="cls-2" d="M49.34,343.62v2.26c0,1.66.72,2.52,2,2.52,1.06,0,1.66-.55,2.09-2.09l1.3.43c-.5,2.11-1.66,3.1-3.53,3.1-2.35,0-3.6-1.63-3.6-3.91v-4.7c0-2.28,1.25-3.91,3.58-3.91s3.5,1.7,3.5,4v2.33Zm0-1.2h3.84v-1.3c0-1.58-.7-2.4-1.92-2.4s-1.92.86-1.92,2.42Z"/><path class="cls-2" d="M56.59,340c.62-1.58,1.66-2.71,3.36-2.71,2.16,0,3.07,1.51,3.07,3.74v6.58c0,.6.26.94.79.94h.29v1.1a3.09,3.09,0,0,1-.86.14,1.74,1.74,0,0,1-1.68-1,3.21,3.21,0,0,1-2.5,1.08c-1.7,0-2.78-1.22-2.78-3.24,0-2.28,1.18-3.89,4.32-3.89h.72V341c0-1.61-.53-2.3-1.56-2.3s-1.56.65-2,1.85Zm4.73,7.44V344H60.6c-2,0-2.69.91-2.69,2.47s.6,2,1.51,2A2.13,2.13,0,0,0,61.32,347.43Z"/><path class="cls-2" d="M69.69,349.64H67.75l-3.36-12.12h1.87l2.47,10.37,2.5-10.37h1.9Z"/><path class="cls-2" d="M81.57,346c0,2.28-1.3,3.86-3.72,3.86s-3.67-1.56-3.67-3.86v-4.75c0-2.28,1.27-3.91,3.67-3.91s3.72,1.61,3.72,3.91Zm-5.69,0c0,1.61.65,2.5,2,2.5s2-.89,2-2.5v-4.66c0-1.61-.65-2.52-2-2.52s-2,.91-2,2.52Z"/><path class="cls-2" d="M88.79,339.29a1.65,1.65,0,0,0-1-.26c-1.34,0-2.18,1.18-2.35,3.36v7.25h-1.7V337.52h1.46l.1,2c.58-1.56,1.44-2.18,2.52-2.18a2.29,2.29,0,0,1,1.15.29Z"/><path class="cls-2" d="M95.42,340.38c-.36-1.27-1.06-1.7-2-1.7a1.5,1.5,0,0,0-1.63,1.68c0,2.69,4.8,2.16,4.8,6.12a3.13,3.13,0,0,1-3.19,3.36,3.29,3.29,0,0,1-3.36-2.69l1.18-.53c.41,1.42,1.27,1.9,2.14,1.9,1.06,0,1.63-.7,1.63-1.92,0-2.88-4.82-2.33-4.82-6.12a3,3,0,0,1,3.22-3.17,3.15,3.15,0,0,1,3.14,2.62Z"/><path class="cls-2" d="M98.54,347.82h1.66v1.82H98.54Z"/><path class="cls-1" d="M153.1,458.31a4.16,4.16,0,0,1-7.21,0l-17.92-31-17.92-31a4.16,4.16,0,0,1,3.6-6.24h71.66a4.16,4.16,0,0,1,3.6,6.24l-17.92,31Z"/><path class="cls-3" d="M208.42,642.29c1.09-.18,3.3-.85,2.77-2.59-2-6.7-4.22-28.26-4.22-28.26-.07-1.82,1.18-8-.28-7.93l-1,8c-1.46.05-1.25,1.07-1.09,2.87,1.88,20.71.7,22.92.7,22.92C190.48,643.77,203.55,643.08,208.42,642.29Z"/><path class="cls-3" d="M194.16,642.64c1.1-.1,3.35-.62,2.94-2.39-1.59-6.82-2.29-28.48-2.29-28.48.06-1.82,1.72-7.88.25-7.93l-1.54,7.92c-1.46,0-1.32,1-1.28,2.79.47,20.79-.86,22.91-.86,22.91C176.17,642.91,189.25,643.1,194.16,642.64Z"/><path class="cls-3" d="M165.88,545.82c-1.81,11.3-.28,16.26-2.51,18.69-1.33,1.45-2.32-5.06-.64-15.65s7.09-19.1,8.13-18.93C173.8,530.4,167.28,537.08,165.88,545.82Z"/><path class="cls-4" d="M169.15,561.82a6.46,6.46,0,0,0-2.45-2.14.44.44,0,0,0,.07-.19c0-.71-1.83-1.4-4.17-1.54s-4.28.32-4.33,1c0,.36.46.72,1.25,1a6.51,6.51,0,0,0-2.16,4.57c-.2,3.34,1.94,6.18,4.77,6.35,5,.3,4.09-2.11,4.29-5.45,0-.37,0-.73,0-1.09,1,1.28,2.29,1.92,3,1.44S170.19,563.47,169.15,561.82Z"/><path class="cls-5" d="M229.88,503.49a5.42,5.42,0,0,0-2.75-4.47,5.42,5.42,0,0,0-1.45-7.82,5.42,5.42,0,0,0-2.74-6.85l-.15-.55a5.41,5.41,0,0,0-1.76-7,5.42,5.42,0,0,0-1.21-7.61,5.41,5.41,0,0,0-2.34-6.8,5.41,5.41,0,0,0-3.14-6.79,5.42,5.42,0,0,0-4.85-8,5.42,5.42,0,0,0-5.62-6.19l-.45,0a5.43,5.43,0,0,0-10.27.53,5.41,5.41,0,0,0-5.94,6.64,5.42,5.42,0,0,0-4.13,8.24,5.41,5.41,0,0,0-2.94,7,5.42,5.42,0,0,0-1.72,7.67,5.42,5.42,0,0,0-2.76,6.64,5.4,5.4,0,0,0-.86,6.27,5.42,5.42,0,0,0-.62,7.45,5.43,5.43,0,0,0,1.63,10.29c-1.19,8.37-2.4,17.21-3.78,26.22a96.47,96.47,0,0,1,40.81-10.91,100.69,100.69,0,0,1,17.21.68q-.92-5.3-1.9-10.45A5.42,5.42,0,0,0,229.88,503.49Z"/><path class="cls-6" d="M223.77,507.92a5.42,5.42,0,0,0-1-8.71,5.42,5.42,0,0,0-1.45-7.82,5.42,5.42,0,0,0-2.74-6.85l-.15-.55a5.41,5.41,0,0,0-1.76-7,5.42,5.42,0,0,0-1.21-7.61,5.41,5.41,0,0,0-2.34-6.8,5.41,5.41,0,0,0-3.14-6.79,5.42,5.42,0,0,0-4.85-8,5.42,5.42,0,0,0-5.62-6.19l-.45,0a5.45,5.45,0,0,0-2.93-3,5.45,5.45,0,0,0-2.67,3.31,5.41,5.41,0,0,0-5.94,6.64,5.42,5.42,0,0,0-4.13,8.24,5.41,5.41,0,0,0-2.94,7,5.42,5.42,0,0,0-1.72,7.67,5.42,5.42,0,0,0-2.76,6.64,5.4,5.4,0,0,0-.86,6.27,5.42,5.42,0,0,0-.62,7.45,5.43,5.43,0,0,0,1.63,10.29c-1.09,7.67-2.2,15.74-3.44,24a97.48,97.48,0,0,1,35.8-8.45l2.35-.08,2.32-.13a101.11,101.11,0,0,1,12.42.2Q224.7,512.73,223.77,507.92Z"/><path class="cls-7" d="M187,516.4c-26.45,5.89-5.18,98.13,6.58,100.92,19.59,4.66,32.85-28.29,37.58-61.73,4.93-34.85,13.53-63.84-3.23-82.85C224.26,468.55,253.85,501.53,187,516.4Z"/><path class="cls-8" d="M201.52,528.36c12.71,25,7.2,83.24-4.64,87.92-17.13,6.77-25.33-56.15-33.47-89-8.48-34.24-20-33.53-27.21-33.2C129.48,494.38,172.26,470.91,201.52,528.36Z"/><path class="cls-3" d="M202.57,484.25c.24.82-1.35,3.41-4,4.19s-5.4-.54-5.64-1.36a6.95,6.95,0,0,0,9.65-2.83Z"/><path class="cls-3" d="M202.89,480.45a3.17,3.17,0,0,1,3.52-2.28,3.7,3.7,0,0,1,2.91,3,4,4,0,0,0-6.43-.68Z"/><path class="cls-3" d="M182.05,481.38a3.17,3.17,0,0,1,3.15-2.77,3.7,3.7,0,0,1,3.31,2.5,4,4,0,0,0-6.46.27Z"/><path class="cls-3" d="M187.72,466.28c.13.24-1,.51-2.21,1.14s-2.08,1.39-2.21,1.14.76-1,2-1.58S187.59,466,187.72,466.28Z"/><path class="cls-3" d="M209.57,468.48c-.11.25-1-.47-2.26-1s-2.37-.8-2.26-1,1.22,0,2.46.6S209.69,468.24,209.57,468.48Z"/><path class="cls-9" d="M193.83,531.14a1.35,1.35,0,0,0,1.1-1.19,1.4,1.4,0,0,0-1.25-1.23v-5.27h-.93v5.27a1.39,1.39,0,0,0-1.23,1.23,1.35,1.35,0,0,0,1.11,1.2c-.9.19-6.31,1.37-4.91,1.62a28.24,28.24,0,0,0,10.9-.17C200,532.29,194.77,531.31,193.83,531.14Z"/><path class="cls-3" d="M219.05,539.1c-9.37,2.57-20-9.78-20.41-6.5-.3,2.72,16,14.06,24.34,8.16,8.75-6.2,8.92-13.3,5.59-10.88C226.17,531.63,225.64,537.29,219.05,539.1Z"/><path class="cls-4" d="M199.14,527.44a6.46,6.46,0,0,1,1.32,3,.44.44,0,0,1,.21,0c.69.17.8,2.15.25,4.44s-1.56,4-2.25,3.83c-.35-.09-.55-.65-.59-1.49a6.51,6.51,0,0,1-5,.73c-3.25-.79-5.34-3.66-4.68-6.42,1.17-4.83,3.22-3.29,6.47-2.5.36.09.71.19,1.05.3-.93-1.34-1.16-2.75-.48-3.33S197.87,526,199.14,527.44Z"/><path class="cls-9" d="M198.28,526.62a7.59,7.59,0,0,1-10.39,0c-4.6-4.37.51-12.05.51-18.4,0-2-2.56-11.58-2.56-11.58h14.48s-2.56,9.63-2.56,11.58C197.77,514.65,202.47,522.44,198.28,526.62Z"/><path class="cls-10" d="M197.43,525.6c-1.75,1.75-6,2.72-8.69.17-3.63-3.45.65-11.61.65-16.61,0-1.61-1.5-8.78-1.5-8.78h10.22s-1.33,7.23-1.33,8.78C196.78,514.23,200.73,522.3,197.43,525.6Z"/><rect class="cls-11" x="194.37" y="487.95" width="1.36" height="34.07" transform="translate(68.85 -21.44) rotate(7.64)"/><path class="cls-12" d="M188.6,504a44.26,44.26,0,0,1,.79,5.2c0,5-4.28,13.16-.65,16.61,2.69,2.55,6.94,1.58,8.69-.17,3.3-3.3-.65-11.37-.65-16.44a51.16,51.16,0,0,1,.71-5.2Z"/><path class="cls-13" d="M189.36,508.56c0,.24,0,.45,0,.6,0,5-4.28,13.16-.65,16.61,2.69,2.55,6.94,1.58,8.69-.17,3.3-3.3-.65-11.37-.65-16.44,0-.15,0-.35,0-.6Z"/><rect class="cls-14" x="192.27" y="519.42" width="4.09" height="4.09" transform="translate(-157.11 89.98) rotate(-18.72)"/><rect class="cls-15" x="189.77" y="516.68" width="4.09" height="4.09" transform="matrix(0.96, 0.27, -0.27, 0.96, 147.1, -32.52)"/><ellipse class="cls-16" cx="190.53" cy="502.26" rx="0.77" ry="0.85"/><ellipse class="cls-17" cx="191.55" cy="505.67" rx="0.6" ry="0.68"/><path class="cls-18" d="M101.29,550.59C99,548.23,89.41,551.91,86.85,553a3.12,3.12,0,0,0-1.21-1.35,2.77,2.77,0,0,0-3.58.39c-2.46-2.27-9.41-8.33-12.25-7-2.58,1.18-4.1,9.32-2,11.17,2.48,2.14,12.2-.57,14.18-1.15a3.18,3.18,0,0,0,1,.92,2.81,2.81,0,0,0,3.43-.23c2,1.48,9.68,7.11,12.67,6C101.78,560.76,103.27,552.62,101.29,550.59Z"/><path class="cls-3" d="M53.25,572.76c-.81,8.08,10.62,5.06,8.52,7.65C60.52,582,50.1,582.54,50.26,576c.26-10.83,6-19.68,7.06-19.58C60.3,556.74,54.14,563.87,53.25,572.76Z"/><path class="cls-3" d="M75.25,653.8c-1.38-.17-4.17-.91-3.58-3.11,2.26-8.48,4-35.57,4-35.57,0-2.28-1.84-9.94,0-9.94l1.61,10c1.83,0,1.62,1.28,1.49,3.55-1.41,26,.17,28.72.17,28.72C97.77,654.84,81.38,654.57,75.25,653.8Z"/><path class="cls-19" d="M102.77,492.42h0c-2-1.5-2-4.14-.93-6.39,4.78-9.62,10.16-14.58,10.16-14.58,1.5-2,3.62-.43,5.64,1.07h0c2,1.5,3.93,2.37,2.43,4.38,0,0-11.58,4.64-13.27,14C106.35,493.36,104.78,493.93,102.77,492.42Z"/><path class="cls-20" d="M110.32,634.23a12.84,12.84,0,0,1-3.5-6.33c-2.1-12.28-11.05-34.88-11.05-64.66,0-46.13,23.77-80.52,8-80.52S54,514.37,54,560.5C54,599.42,76.56,628,93.09,636c3.86,2.56,7.72,5,8.82,6.11C104.33,644.49,113.08,636.79,110.32,634.23Z"/><path class="cls-19" d="M105,629.19c-3-4.67-4.88-3.82-8.69-21-2.77-12.48-4.88-32.82-4.88-48.56,0-22.9,8.63-46.17,12.94-59.8,2.54-8.06,4.45-11.45,2.53-16.47a6.34,6.34,0,0,0-3-.65c-15.77,0-49.8,31.66-49.8,77.78,0,38.92,22.61,67.54,39.14,75.53,3.86,2.56,7.72,5,8.82,6.11.89.87,4.33-2.55,6.63-4.65a.7.7,0,0,0-.29-1.19C107.12,635.92,105.46,630.89,105,629.19Z"/><path class="cls-21" d="M117.63,472.52c-2-1.5-4.13-3.09-5.64-1.07,0,0-.74.68-1.91,2a8.86,8.86,0,0,0,7,4.93,26.22,26.22,0,0,1,3-1.5C121.57,474.89,119.65,474,117.63,472.52Z"/><path class="cls-21" d="M110.44,634.23c-.13-.12-1.17,2.17-.53.9-1.27,2.33-.42,2.33-3.18,4-2,1.25-4,2.54-5.28,2.47.24.19.44.36.59.51C104.45,644.49,113.21,636.79,110.44,634.23Z"/><path class="cls-3" d="M107.05,558.41c10.28-5.29,10.12-11.85,13.44-11.49,2,.21-2.57,8.06-12.2,13s-20.15-4.33-19.54-5.18C91.2,551.36,99.11,562.49,107.05,558.41Z"/><path class="cls-22" d="M125.24,539.69c-2.53-1.74-5.43,1.18-7.59,4.18-.8-1.38-1.91-2.46-3.6-2-2.5.61-.93,4-.14,6.08a6.52,6.52,0,0,0,.7,1.35c-.43,0-.75.06-.89.28-.43.67.92,2.29,3,3.62s4.13,1.86,4.56,1.19c.15-.24.08-.59-.17-1a10.4,10.4,0,0,0,6.41-4.24C129.72,545.94,127.91,541.53,125.24,539.69Z"/><path class="cls-3" d="M92.93,656.11c-1.36-.25-3.89-.49-3.37-2.71,1.59-6.75-.31-31.47-.31-31.47-.19-2.27-.1-3.82,1.73-4a2.69,2.69,0,0,1,1.85,2.71c.72,26,3,30.53,3,30.53C114,656.34,98.62,657.16,92.93,656.11Z"/></g></g></svg>