<svg xmlns="http://www.w3.org/2000/svg" viewBox="0 0 269.16 290.96"><defs><style>.cls-1{fill:#a87c4f;}.cls-2{fill:#c3996b;}.cls-3{fill:#231f20;}.cls-4{fill:#e8ecee;stroke:#231f20;stroke-miterlimit:10;stroke-width:2.42px;}.cls-5{fill:#daae82;}.cls-6{fill:#f6b2cf;}.cls-7{fill:#d1a278;}.cls-8{fill:#d1a37a;}.cls-9{fill:#fff;}.cls-10{fill:#f5aecd;}.cls-11{fill:#f290bc;}.cls-12{fill:#f6c6dc;}.cls-13{fill:#f6b1cf;}.cls-14{fill:#f7d034;}.cls-15{fill:#a47953;}.cls-16{fill:#875c3a;}.cls-17{fill:#b18666;}</style></defs><title>icecream</title><g id="Layer_2" data-name="Layer 2"><g id="Layer_1-2" data-name="Layer 1"><ellipse class="cls-1" cx="134.94" cy="249.52" rx="134.22" ry="41.44"/><ellipse class="cls-2" cx="134.22" cy="239.53" rx="134.22" ry="41.44"/><path class="cls-3" d="M132.84,253.22l-8.24.87c-4.42,1-12,1.22-11,0,2.49-3.22,10.41-4.52,14.34-9.45,1-1.2,3.34-35.4,8.39-34.84h0c1.52.24,3.19,1.07,2.32,2.34-5.28,7.72-5.17,34.9-5.17,34.9C133.23,248.56,134.37,253.06,132.84,253.22Z"/><path class="cls-3" d="M152.45,254.3l8.24.87c4.42,1,12,1.22,11,0-2.49-3.22-10.41-4.52-14.34-9.45-1-1.2-9.37-43.55-10.28-31.22l-.09-3c-1.52.24-3.25,1.37-2.3,2.58,5.91,7.5,7.11,34,7.11,34C152.05,249.65,150.91,254.14,152.45,254.3Z"/><path class="cls-3" d="M103.08,129.29c-6.55,12.6-11.25,19.09-13.84,17.28-.94-.65,4.61-5.66,11.15-18.26s8.1-23.53,9.2-23.58C113.93,104.55,109.63,116.69,103.08,129.29Z"/><path class="cls-4" d="M94.33,137.13c-2.48-1.2-4.85-1.44-5.3-.52-.26.54.21,1.36,1.14,2.18-5.15,0-12,4.48-12,7.67S81.62,150,86.77,150A6.14,6.14,0,0,0,92,147.72c.07,1.37.58,2.4,1.39,2.58,1.18.26,2.25-1.48,3.07-3.69a5,5,0,0,0-.16-3.89c-.17-.46-.42-.93-.54-1.27,1.15.18,2,0,2.27-.48C98.46,140.05,96.81,138.33,94.33,137.13Z"/><path class="cls-3" d="M135.12,1.5c-6.06-1.64-19-2.84-33.22,1.46s-25,12.62-26.46,17.37,17.06,2.24,31.27-2.06S141,3.08,135.12,1.5Z"/><path class="cls-3" d="M122.48,22.95,100.3,29.29c-5.74,1.87-7-3.51-9.86-7.93h0c-3-7.29,1-8.53,5.09-9.83l17.58-5.59c4.1-1.31,8.31-2.64,9.83,5.09h0A35.18,35.18,0,0,1,122.48,22.95Z"/><path class="cls-5" d="M144.53,232.4c-8.74,5.73-46.82-132.22-46.82-132.22l17.18-7.44,41.84-3S149.33,229.25,144.53,232.4Z"/><path class="cls-6" d="M169.11,61.44c0,27.07-20.88,43.28-46.63,43.28S70.69,95,70.69,60.94c0-31.27,26-42.77,51.79-42.77S169.11,37.54,169.11,61.44Z"/><path class="cls-7" d="M141.36,101.51c8.89,5.44,6.14,124.59,1.63,127.55,0,0-.55,1.5-2.24.14,2,3,3.19,3.43,3.88,3,4.81-3.15,12.29-144.88,12.29-144.88Z"/><path class="cls-8" d="M156.49,90.54l-1.67-2-1.75.13,3.3,4Z"/><path class="cls-8" d="M146.13,225.12q.22-1.29.45-2.81l-5.2,6.36-1.77-2.17c1.47,2.61,2.75,4.23,3.78,4.62l-1.08-1.32Z"/><path class="cls-8" d="M99.18,104.54l6.31,7.72L102.44,116l.48,1.68,3.5-4.28,8.34,10.2-6.93,8.47-1.15-1.41,1.1,3.73.05-.06,7.56,9.24-3.57,4.37.5,1.65,4-4.89,8.31,10.16-7,8.61-1.63-2,1.41,4.52.22-.27,7,8.56-3.3,4,.53,1.62,3.69-4.52,6.87,8.41-6.08,7.43-1.24-1.52q.66,2,1.32,3.88l6.85,8.37-2.7,3.3.58,1.56,3.05-3.73,7,8.61-5.49,6.71.64,1.48,5.77-7.05,4.91,6q.12-1,.25-2l-4.23-5.17,5.52-6.75q.16-1.59.31-3.25l-6.79-8.31,7-8.61,1.1,1.35.17-2.06-.35-.42.42-.51.2-2.51-1.54,1.89-6.93-8.47,6.93-8.47,2.45,3,.15-2.08-1.68-2,2-2.44.17-2.48-3.1,3.79L142.27,155l6.87-8.41,3.68,4.5L153,149l-2.89-3.54,3.4-4.16.16-2.46-4.48,5.48-7-8.56,7-8.56,4.85,5.93.13-2.1-4.05-5,4.71-5.76.15-2.44-5.79,7.08-8.31-10.16,8.31-10.16,6.13,7.49.12-2.11-5.33-6.51,6.13-7.49.13-2.43-7.19,8.79-7.56-9.24,3.13-3.83-2,.14-2.09,2.55-1.85-2.27-1.75.13,2.68,3.27-8.31,10.16L123.08,93,125,90.66l-2,.14-.89,1.09-.79-1-1.75.13,1.62,2-7,8.56-6-7.35-1.37.59,6.45,7.89-6.87,8.41L99,102.05l4.85-5.93L101,97.37l-2.84,3.47Zm9.58,28.65,6.93-8.47,7.56,9.24-6.93,8.47Zm16.33.77,6.87-8.41,8.31,10.16-6.87,8.41Zm15.32,21-6.93,8.47-7-8.56,6.93-8.47Zm-16.24-22.13-7.56-9.24,6.87-8.41,7.56,9.24Zm-6.93,10.73,6.93-8.47,8.31,10.16-6.93,8.47Zm8.28,29.6-7-8.56,7-8.61,7,8.56Zm.93,1.13,7-8.61,6.87,8.41-7,8.61Zm.8,18.1,6.08-7.43,6.93,8.47-6.08,7.43Zm21,10.78-6.08,7.43-7-8.61,6.08-7.43Zm0-19.48-7,8.61-6.93-8.47,7-8.61Zm0-19.2L141.29,173l-6.87-8.41,6.93-8.47Zm0-19.08-6.87,8.41-7-8.56,6.87-8.41Zm0-19.39-7,8.56-8.31-10.16,7-8.56Zm-7.56-31.84,7.56,9.24L139.9,113.6l-7.56-9.24ZM139,114.73l-7,8.56-7.56-9.24,7-8.56ZM122.16,94.16l8.34,10.2-7,8.56-8.34-10.2Zm-7.93,9.7,8.34,10.2-6.87,8.41-8.34-10.2Z"/><path class="cls-9" d="M121.06,80.32c0,3.52-6.95,7.31-12.67,7.31s-11.92-4-11.92-7.5,4.64-2.85,10.36-2.85S121.06,76.8,121.06,80.32Z"/><circle class="cls-3" cx="82.65" cy="57.54" r="2.63"/><circle class="cls-3" cx="120.12" cy="54.68" r="2.63"/><circle class="cls-10" cx="106.14" cy="101.88" r="8.37"/><path class="cls-11" d="M133.32,19.34c18.26,6.49,31.05,21.53,31.05,39,0,23.45-22.94,42.47-51.25,42.47a61.41,61.41,0,0,1-12.88-1.35,49.28,49.28,0,0,0,22.24,5.23c25.75,0,45.31-15.31,46.63-43.28C170.41,33.8,153.84,23.88,133.32,19.34Z"/><path class="cls-12" d="M168.77,82.43c-2.36-6.94-6.81-9.78-15.2-9.78a17.6,17.6,0,0,0-3.27.31,15.66,15.66,0,0,0-13.43-7,17.49,17.49,0,0,0-4.17.5c-2.56-4.13-5.94-5-10.68-5.8-5.2-.87-12.66,1.17-15.39,4.68-2.77-3.17-7.94-3.94-12.91-3.94C85.34,61.44,79.3,66,79.3,73.26c0,.14,0,.27,0,.41-7.25.49-13,3.27-13,12.08,0,5.87,4.84,10.76,11.27,11.88a8.74,8.74,0,0,0-.47,3.91c.53,4.92,5.3,8.82,11,9,1.84.07,2.95-.33,3.17-1.36.73,4.36,7.07,8.24,12.33,8.24a10.64,10.64,0,0,0,9.54-5.33,11.84,11.84,0,0,0,7.25,2.39,11,11,0,0,0,10-5.62,13,13,0,0,0,2.48.24,11.7,11.7,0,0,0,9.66-4.72,15,15,0,0,0,1.59.09,13.25,13.25,0,0,0,11.26-5.76C162.94,98,170.84,88.51,168.77,82.43Zm-61.63-1.91a16.1,16.1,0,0,0,12.15,5.22c.34,0,.68,0,1,0a9.13,9.13,0,0,0-1.95,3.64,8.56,8.56,0,0,0-.29,2.47h-.5a10.05,10.05,0,0,0-8.49,4.29,10.16,10.16,0,0,0-7.61-3.62A11.91,11.91,0,0,0,99,86.05C102.71,85.49,104.85,83.48,107.14,80.52Z"/><path class="cls-13" d="M169,83.5a10.24,10.24,0,0,0-4.91-8.08c4.95,9.88-5.23,14.44-11.7,15.12.42,4-5.14,10.44-11.71,9.5-.53-.08-.84,3.69-1.18,4-3.16,3.11-3,2-7.07,2a13,13,0,0,1-2.48-.24,11,11,0,0,1-10,5.62,11.84,11.84,0,0,1-7.25-2.39,10.64,10.64,0,0,1-9.54,5.33c-5.26,0-11.16-.8-11.89-5.15v0c.73,4.36,7.07,8.24,12.33,8.24a10.64,10.64,0,0,0,9.54-5.33,11.84,11.84,0,0,0,7.25,2.39,11,11,0,0,0,10-5.62,13,13,0,0,0,2.48.24,11.7,11.7,0,0,0,9.66-4.72,15,15,0,0,0,1.59.09,13.25,13.25,0,0,0,11.26-5.76C162.94,98,169.65,89.81,169,83.5Z"/><path class="cls-3" d="M126.39,45.45c-.05.22-2.43-1.21-5.59-1.94s-5.93-.5-5.88-.72,2.94-1,6.11-.28S126.44,45.23,126.39,45.45Z"/><path class="cls-3" d="M77.63,48.15c.05.22,2.43-1.21,5.59-1.94s5.93-.5,5.88-.72-2.94-1-6.11-.28S77.58,47.93,77.63,48.15Z"/><path class="cls-3" d="M141.26,132.69c-6.55,12.6-11.25,19.09-13.84,17.28-.94-.65,4.61-5.66,11.15-18.26s8.1-23.53,9.2-23.58C152.12,107.95,147.81,120.09,141.26,132.69Z"/><path class="cls-14" d="M82.76,17.12c-7.95,7.16-3.11,21.26-3.56,21.45-1.39.59-4.71,1.7-4.38.23,1-4.66-.23-15.91,5.23-21.5C87.51,9.64,100.72,3.07,101,3.48S90.22,10.4,82.76,17.12Z"/><path class="cls-4" d="M135,140.7c-2.48-1.2-4.85-1.44-5.3-.52-.26.54.21,1.36,1.14,2.18-5.15,0-12,4.48-12,7.67s3.42,3.51,8.57,3.51,9.32-2.59,9.32-5.8a8.38,8.38,0,0,0-.35-2.72c1.15.18,2,0,2.27-.48C139.11,143.62,137.46,141.9,135,140.7Z"/><polygon class="cls-15" points="108.74 273.86 46.78 259.94 28.87 170.58 105.93 175.97 108.74 273.86"/><polygon class="cls-16" points="128.95 250.91 108.6 273.87 105.93 176.42 133.92 165.58 128.95 250.91"/><polygon class="cls-17" points="106.19 185.56 22.2 173.06 17.01 138.08 105.64 145.01 106.19 185.56"/><polygon class="cls-15" points="139.19 162.15 106.19 185.56 105.63 145.04 139.73 153.78 139.19 162.15"/><polygon class="cls-16" points="136.94 162.58 108.43 182.81 107.95 147.79 137.41 155.35 136.94 162.58"/><polygon class="cls-15" points="135.38 162.88 109.99 180.89 109.56 149.71 135.8 156.44 135.38 162.88"/><polygon class="cls-15" points="101.98 183.31 25.92 172 21.23 140.32 101.48 146.6 101.98 183.31"/><polygon class="cls-17" points="99.96 182.24 27.7 171.49 23.24 141.39 99.49 147.35 99.96 182.24"/></g></g></svg>