<svg xmlns="http://www.w3.org/2000/svg" viewBox="0 0 258.25 186.24"><defs><style>.cls-1{fill:#231f20;}.cls-15,.cls-2{fill:#e8ecee;stroke:#231f20;stroke-miterlimit:10;}.cls-2{stroke-width:0.67px;}.cls-3{fill:#a9d385;}.cls-4{fill:#c5de90;}.cls-5{fill:#dfe6e9;}.cls-6{fill:#fff;}.cls-7{fill:#8a5d3b;}.cls-8{fill:#f7f0da;}.cls-9{fill:#6d6e70;}.cls-10{fill:#90b76b;}.cls-11{fill:#be1e2d;}.cls-12{fill:#e9c34c;}.cls-13{fill:#fbd776;}.cls-14{fill:#009345;}.cls-15{stroke-width:0.65px;}.cls-16{fill:#f6921e;}.cls-17{fill:#f26e24;}.cls-18{fill:#d35361;}.cls-19{fill:#0d1226;}.cls-20{fill:#006838;}.cls-21{fill:#95c958;}.cls-22{fill:#00a69c;}.cls-23{fill:#93d5db;}.cls-24{fill:#d6de23;}.cls-25{fill:#fdf7c0;}</style></defs><title>mocktail</title><g id="Layer_2" data-name="Layer 2"><g id="Layer_2-2" data-name="Layer 2"><path class="cls-1" d="M162.64,109.69c-.56,14.18,2.05,20.07-.34,23.4-1.42,2-3.6-5.89-3.09-19.17s5.92-24.57,7.21-24.52C170.11,89.53,163.07,98.72,162.64,109.69Z"/><path class="cls-2" d="M168.7,127.54a8,8,0,0,0-3.34-2.27.54.54,0,0,0,.05-.25c-.05-.88-2.45-1.45-5.37-1.28s-5.23,1-5.17,1.91c0,.45.67.82,1.69,1a8.07,8.07,0,0,0-2,5.95c.25,4.14,3.3,7.33,6.81,7.12,6.16-.37,4.72-3.21,4.48-7.35,0-.46-.07-.91-.13-1.35,1.43,1.43,3.1,2,4,1.32S170.23,129.43,168.7,127.54Z"/><path class="cls-1" d="M215.87,185.49c1.33-.15,4-.84,3.5-3-2.1-8.22-3.48-34.44-3.48-34.44,0-2.2,1.88-9.59.11-9.61l-1.66,9.63c-1.77,0-1.58,1.22-1.48,3.42,1.09,25.17-.47,27.77-.47,27.77C194.09,186.25,209.94,186.16,215.87,185.49Z"/><path class="cls-1" d="M190.65,185.59c1.33-.15,4-.84,3.5-3-2.1-8.22-3.48-34.44-3.48-34.44,0-2.2,1.88-9.59.11-9.61l-1.66,9.63c-1.77,0-1.58,1.22-1.48,3.42,1.09,25.17-.47,27.77-.47,27.77C168.87,186.36,184.72,186.27,190.65,185.59Z"/><path class="cls-3" d="M153.4,91.73c-23.91,30.64,23.2,69.18,53.19,67.39s68.58-41.88,43.68-70.88c-19.1-22.23-21.48-73.8-51.47-72S177.45,60.91,153.4,91.73Z"/><path class="cls-4" d="M153.17,91.74c24.05-30.82,15.41-73.7,45.4-75.49q1-.06,2,0C225.33,20.35,230.82,60.6,240.69,86c13.2,33.94-13.64,71.24-43.68,70.88a52.87,52.87,0,0,1-10.16-1.16C160.26,145.7,134.08,116.2,153.17,91.74Z"/><circle class="cls-1" cx="208" cy="57.64" r="2.02" transform="translate(-3.07 12.53) rotate(-3.42)"/><polygon class="cls-5" points="226.57 131.02 221.96 127.9 221.96 113.32 221.26 113.32 221.26 127.9 216.65 131.02 226.57 131.02"/><circle class="cls-1" cx="178.24" cy="59.39" r="2.02" transform="translate(-3.23 10.75) rotate(-3.42)"/><path class="cls-6" d="M182.72,68.7c.15,2.58,4.11,4.45,8.84,4.16s8.43-2.61,8.28-5.19-3.92-1.31-8.65-1S182.56,66.12,182.72,68.7Z"/><path class="cls-7" d="M198.81,17.93a3.18,3.18,0,0,0,.75-2.93c.23.12-1.28-9.36-3-13.19C195.82,0,195-.22,193.07.15h0c-1.92.37-3.56,2.23-3.19,4.15a17.49,17.49,0,0,1,6.34,11.86C196.45,18.09,196.9,18.3,198.81,17.93Z"/><path class="cls-1" d="M174.53,48c.15.37,1.5-.62,3.35-1.39s3.5-1,3.35-1.39-1.77,0-3.62.73S174.38,47.68,174.53,48Z"/><path class="cls-1" d="M210.57,46.14c-.14.37-1.52-.56-3.4-1.25s-3.54-.88-3.4-1.25,1.77-.12,3.65.58S210.71,45.76,210.57,46.14Z"/><path class="cls-1" d="M242.78,104.36c2.07,12-19.16,10.29-16.4,13.31,1.65,1.8,21.39-1.94,20.3-9.53C244.81,95,237.88,84.46,236.6,84.66,233,85.24,240.92,93.55,242.78,104.36Z"/><path class="cls-2" d="M224.67,110.05a8,8,0,0,1,3.27,2.35.54.54,0,0,1,.22-.14c.84-.25,2.2,1.81,3,4.6s.83,5.26,0,5.51c-.43.13-1-.35-1.57-1.23a8.07,8.07,0,0,1-4.9,3.91c-4,1.19-8-.58-9-4-1.77-5.91,1.39-5.54,5.37-6.73.44-.13.88-.24,1.31-.34-1.83-.85-3-2.22-2.6-3.26S222.38,109.27,224.67,110.05Z"/><path class="cls-8" d="M241,72.81a3.78,3.78,0,0,0-3.68,2.94,3.77,3.77,0,0,0-4.16,5,3.78,3.78,0,0,0-6.46,3.31,3.78,3.78,0,0,0-6.25,2.85c0,.08,0,.16,0,.23A3.78,3.78,0,0,0,214.18,90v0A3.77,3.77,0,0,0,208,92.44a3.77,3.77,0,0,0-6.71,1.75,3.78,3.78,0,0,0-6.69.81,3.78,3.78,0,0,0-7.18,0,3.78,3.78,0,0,0-7-1.62c0-.07,0-.14,0-.22a3.78,3.78,0,0,0-6.7-2.4A3.77,3.77,0,0,0,170,86.52a3.76,3.76,0,0,0-2.49.94,3.77,3.77,0,0,0-2.78-4.38,3.78,3.78,0,1,0-4.22,1.81,3.78,3.78,0,0,0,5.78,4.69,3.78,3.78,0,0,0,6.63,3.11,3.78,3.78,0,0,0,7,2.37c0,.07,0,.14,0,.22a3.78,3.78,0,0,0,7.37,1.19,3.78,3.78,0,0,0,7.31,1,3.78,3.78,0,0,0,7.33-.6,3.78,3.78,0,0,0,6.89-1.59,3.78,3.78,0,0,0,6.76-2.32v0A3.78,3.78,0,0,0,221.74,90c0-.08,0-.16,0-.23a3.78,3.78,0,0,0,6.18-3.58,3.77,3.77,0,0,0,6-4.14,3.77,3.77,0,0,0,6.44-1.75,3.78,3.78,0,1,0,.61-7.51Z"/><polygon class="cls-5" points="235.26 100.61 221.62 114.33 207.9 100.69 235.26 100.61"/><rect class="cls-9" x="213.82" y="95.08" width="0.35" height="12.04" transform="translate(-19.66 138.81) rotate(-34.46)"/><circle class="cls-10" cx="214.18" cy="101.1" r="2.66"/><ellipse class="cls-11" cx="215.36" cy="100.43" rx="0.81" ry="1.08" transform="translate(-7.94 181.7) rotate(-45)"/><polygon class="cls-12" points="230.31 104.35 221.62 113.09 212.88 104.4 230.31 104.35"/><circle class="cls-13" cx="224.76" cy="106.33" r="0.97"/><circle class="cls-13" cx="222.33" cy="108.84" r="0.64"/><path class="cls-6" d="M36.74,85.71c.15,2.58,4.11,4.45,8.84,4.16s8.43-2.61,8.28-5.19-3.92-1.31-8.65-1S36.59,83.13,36.74,85.71Z"/><polygon class="cls-14" points="34.32 102.87 36.29 102.76 36.55 97.52 33.92 97.99 34.32 102.87"/><path class="cls-1" d="M83.41,125.85c7.35-5,9.41-11.49,11.18-9.26.61.77-5,9.25-13,13.21-7.7,3.83-11,4.42-11.66,3.65C67.78,130.72,76.06,130.85,83.41,125.85Z"/><path class="cls-15" d="M99.34,116a6.13,6.13,0,0,0-6.21-6.21c-2.28.12-3.05,1.84-4.66,4.18-.84-1.7-1.43-2.34-3.15-1.73-.9.32-1,2.11-.26,3.9a10.75,10.75,0,0,0,1.57,2.61.85.85,0,0,0-.29.29c-.48.83.63,2.36,2.48,3.43s3.73,1.26,4.21.44a1,1,0,0,0,.08-.69h0A6.16,6.16,0,0,0,99.34,116Z"/><path class="cls-1" d="M36.54,186a14.09,14.09,0,0,1-5-1.31c-1.07-.75-.46-4.81-.38-5.87l1-13.68c.08-1.06,1.24-.78,2.68-.67h0c.53,2.74.07,15.18,1.18,16,4.32,3,9.33,5.4,5.36,5.69A21.17,21.17,0,0,1,36.54,186Z"/><path class="cls-1" d="M57.22,183.83a14.09,14.09,0,0,1-5.14-.83c-1.14-.64-.92-4.75-.94-5.81l-.29-13.71c0-1.06,1.16-.89,2.61-.92h0c.79,2.67,1.52,15.11,2.7,15.77,4.58,2.56,9.8,4.48,5.88,5.15A21.17,21.17,0,0,1,57.22,183.83Z"/><ellipse class="cls-16" cx="40.93" cy="134.35" rx="35.67" ry="32.69"/><path class="cls-17" d="M45.9,162.61c-19,0-34.45-14.38-34.45-32.12a31.31,31.31,0,0,1,13-25.11c-11.39,5.46-19.16,16.39-19.16,29,0,18.05,16,32.69,35.67,32.69A36.76,36.76,0,0,0,69.6,153.8,35.7,35.7,0,0,1,45.9,162.61Z"/><circle class="cls-1" cx="36.28" cy="124.28" r="2.07" transform="translate(-6.74 2.17) rotate(-3.13)"/><polygon class="cls-5" points="20.97 167.63 26.49 164.39 26.49 154.35 27.04 154.35 27.04 147.45 27.98 147.45 27.98 154.35 28.54 154.35 28.54 164.4 34.05 167.63 20.97 167.63"/><circle class="cls-1" cx="65.66" cy="120.82" r="2.07" transform="translate(-6.51 3.77) rotate(-3.13)"/><path class="cls-1" d="M38,114.45c.18.35-1.92,0-4,1s-3,2.87-3.17,2.52.76-2.07,2.84-3.15S37.77,114.1,38,114.45Z"/><path class="cls-1" d="M60.72,112.34c-.08.38,1.8-.36,4.09.15s3.64,2,3.73,1.62-1.28-1.79-3.58-2.31S60.8,112,60.72,112.34Z"/><path class="cls-18" d="M62.92,131.68c-.52,2.08-3,3.9-6.66,3.93s-6.19-1.73-6.73-3.8c-.67-2.56.33-3.62,6.66-3.93C63.27,127.53,63.44,129.61,62.92,131.68Z"/><path class="cls-1" d="M15.6,152.45c1,7.23,10.53,6.27,8.81,9.07-.52.84-13.07-2.3-11.09-11,1.91-8.38,3.59-11.35,4.57-11.33C21.38,139.28,14.69,145.76,15.6,152.45Z"/><path class="cls-15" d="M25.2,153.34a7.39,7.39,0,0,0-2,3.47c-.24-.37-.51-.58-.8-.57-.87,0-1.51,2-1.45,4.47s.83,4.41,1.69,4.38c.38,0,.72-.4,1-1.05.83,1.47,2.54,2.59,6.23,2,3.55-.52,4.54-4.49,4.16-7.56-.37-2.91-1.9-3.89-5-3.61a2,2,0,0,0,0-2.26C28.29,151.82,26.58,152.13,25.2,153.34Z"/><path class="cls-19" d="M79.1,138.42c-.86-3.44-10.41-.14-14.19,3.2a25,25,0,0,0-2.7,2.57,3.25,3.25,0,0,0-1.69-.44,3.31,3.31,0,0,0-2.7,1.49c-.69-.74-2-1.31-4.17-2.47-4.33-2.26-13.29-2.74-13.45.83s-.34,12,4.43,12.3c4.3.3,12.05-3,13.64-6.22a3.27,3.27,0,0,0,4.82-.2c2.62,2.47,10.2,3.42,14.13,2.08C81.78,150,80,141.85,79.1,138.42Z"/><path class="cls-20" d="M20.31,97.83c-3.1,6.09-1.13,18.55,10.8,1.27,2.22-3.21,2.24,2.38,5.81-2.08,1.38-1.72-1.57-5.91-5.81-5.91S21.31,95.86,20.31,97.83Z"/><path class="cls-14" d="M0,122s14.88-.09,23.11-9.29c4.33-4.83,5.24-16.73,8.21-17.93,10.15-4.1,1.83,8,4.32,5,21-25.17-13.83-15.17-19.71-9.29-3.46,3.46-6.48,9.4-7.78,17.34C6.21,119.68,0,122,0,122Z"/><path class="cls-5" d="M16.83,140.27s-4,14.35,10.71,14.58C43.49,155.1,39,140.27,39,140.27Z"/><path class="cls-21" d="M17.58,143.64s-1.49,10.34,10,10.28c12.65-.06,10.66-10.28,10.66-10.28Z"/><path class="cls-22" d="M38.26,146.63c-.45,3-2.54,7.25-10.66,7.29-7.42,0-9.44-4.24-9.93-7.29Z"/><circle class="cls-23" cx="33.64" cy="149.13" r="1.18"/><circle class="cls-23" cx="30.46" cy="151.31" r="0.75"/><path class="cls-24" d="M15.71,137.29c-3.69,2.32-1.64,7.94-1.64,7.94l9.5-6S19.22,135.09,15.71,137.29Z"/><polygon class="cls-25" points="18.6 141.8 22.86 139.3 20.26 137.75 18.6 141.8"/><path class="cls-25" d="M18.38,141.8l1.38-4.21a3,3,0,0,0-1.61-.39,2.74,2.74,0,0,0-1.55.5Z"/><polygon class="cls-25" points="18.27 142.02 14.18 144.79 13.84 141.78 18.27 142.02"/><path class="cls-25" d="M18,141.8,16.11,138a3.33,3.33,0,0,0-1.72,1.22,2.84,2.84,0,0,0-.28,2Z"/></g></g></svg>