<svg xmlns="http://www.w3.org/2000/svg" viewBox="0 0 633.9 270.5"><defs><style>.cls-1{fill:#0f2647;}.cls-2{fill:#0a1e32;}.cls-3{fill:#09192d;}.cls-4{fill:#231f20;}.cls-5{fill:#bce4ee;}.cls-6{fill:#96d7e1;}.cls-10,.cls-14,.cls-18,.cls-7{fill:#e8ecee;stroke:#231f20;stroke-miterlimit:10;}.cls-7{stroke-width:1.93px;}.cls-8{fill:#f59698;}.cls-9{fill:#009345;}.cls-10{stroke-width:2.09px;}.cls-11{fill:#f6921e;}.cls-12{fill:#f26e24;}.cls-13{fill:#d35361;}.cls-14{stroke-width:1.98px;}.cls-15{fill:#181528;}.cls-16{fill:#faaf40;}.cls-17{fill:#241d38;}.cls-18{stroke-width:1.91px;}</style></defs><title>tray</title><g id="Layer_2" data-name="Layer 2"><g id="Layer_5" data-name="Layer 5"><polygon class="cls-1" points="510.59 268.34 40 264.81 11.07 206.25 530.34 209.78 510.59 268.34"/><path class="cls-1" d="M509.37,270.5l-466.76-4a2.56,2.56,0,0,1-.67-5l121-34a2.56,2.56,0,0,1,.69-.1l432.89.91c2.87,0,12.24,7,9.55,8l-95.79,34A2.56,2.56,0,0,1,509.37,270.5Z"/><polygon class="cls-2" points="626.2 176.22 528.23 206.96 511.3 269.75 606.78 236.13 626.2 176.22"/><path class="cls-3" d="M633.9,173.46l-.27-10.5-37.36-3.5,7.39,9L143,166.8a2.89,2.89,0,0,0-.78.11L1.9,205.65c-3.22.9-1.69,5,1.65,5.07l530.06,4.75a2.89,2.89,0,0,0,1-.17L626,178.92C626.74,177.75,632.73,175.8,633.9,173.46Z"/><polygon class="cls-3" points="25.59 208.79 0 207.8 2.23 197.92 25.59 200.41 25.59 208.79"/><path class="cls-1" d="M532.2,205.6,4.84,201.07a2.89,2.89,0,0,1-.76-5.67L140.76,157a2.89,2.89,0,0,1,.78-.11l489,.59c7.78,5.45-.84,12.53-3.89,13.62L533.2,205.43A2.89,2.89,0,0,1,532.2,205.6Z"/><polygon class="cls-3" points="169.39 179.11 90.68 179.11 34.47 194.63 125.95 195.59 169.39 179.11"/><polygon class="cls-3" points="267.51 178.96 182.9 178.96 143.42 195.18 234.9 196.2 267.51 178.96"/><polygon class="cls-3" points="363.84 180.2 282.3 179.58 250.06 196.42 335.57 197.28 363.84 180.2"/><polygon class="cls-3" points="469.37 181.96 379.19 180.78 350.89 196.69 435.18 197.87 469.37 181.96"/><polygon class="cls-3" points="573.8 181.92 486.72 181.37 449.92 198.45 531.98 198.58 573.8 181.92"/><polygon class="cls-3" points="216.18 161.79 145.19 162.7 113.02 172.19 180.69 172.71 216.18 161.79"/><polygon class="cls-3" points="302.94 161.49 228.62 162.09 189.18 174.84 272.3 174.53 302.94 161.49"/><polygon class="cls-3" points="393.64 161.49 316.59 162.09 287.16 175.14 368.46 175.44 393.64 161.49"/><polygon class="cls-3" points="502.85 163.31 410.63 162.4 387.29 174.28 474.33 176.35 502.85 163.31"/><polygon class="cls-3" points="616.3 163.31 520.14 163.91 496.62 174.61 579.59 175.44 616.3 163.31"/><path class="cls-4" d="M181.87,199.58a15,15,0,0,1-5.35-1.39c-1.14-.79-.49-5.11-.41-6.23l1.08-14.52c.08-1.12,1.32-.83,2.85-.71h0c.57,2.91.08,16.12,1.26,16.93,4.58,3.17,9.91,5.73,5.69,6A22.47,22.47,0,0,1,181.87,199.58Z"/><path class="cls-4" d="M163,200a15,15,0,0,1-5.35-1.39c-1.14-.79-.49-5.11-.41-6.23l1.08-14.52c.08-1.12,1.32-.83,2.85-.71h0c.57,2.91.08,16.12,1.26,16.93,4.58,3.17,9.91,5.73,5.69,6A22.47,22.47,0,0,1,163,200Z"/><path class="cls-4" d="M185.61,149.89c11.83,8.74,30.24,12.73,38.31,0,.35-.55,1.18-.53,1.18-1.18h0c0-.65-.75-1.67-1.18-1.18-14.33,16.29-29.4,3.72-38.31,0-.6-.25-1.18.53-1.18,1.18h0C184.43,149.35,185.09,149.5,185.61,149.89Z"/><rect class="cls-5" x="146.42" y="117.13" width="56.86" height="56.86" transform="translate(349.7 291.13) rotate(-180)"/><polygon class="cls-6" points="134.05 179.3 146.42 174 146.42 117.13 134.05 124.83 134.05 179.3"/><polygon class="cls-6" points="134.05 179.3 193.3 179.3 203.28 174 146.42 174 134.05 179.3"/><circle class="cls-4" cx="191.53" cy="136.17" r="2.4"/><circle class="cls-4" cx="162.12" cy="136.17" r="2.4"/><path class="cls-4" d="M131.73,162.46c4.11-5.25,7.81-7.07,9.51-9.34.53-.61.74-.91.14-1.44h0a1.46,1.46,0,0,0-2.06.14s-13.76,11.71-17.12,20.83c-.28.75-1.4,5.23.31,3.6.4-.38,3.47-6.07,3.67-6.41C127.34,167.91,130.82,163.63,131.73,162.46Z"/><path class="cls-7" d="M116.6,173.71c1.54-2.23,2.92-3.19,4.23-3.46-.6-.62-.87-1.21-.68-1.65.41-.94,2.78-.83,5.3.26s4.23,2.73,3.83,3.68a1.25,1.25,0,0,1-1.06.6,6.81,6.81,0,0,1,1.25,3.41c.28,2.4-.4,4.44-1.52,4.57s-2-1.28-2.39-3.23c-1.6,2.31-2,5.47-4.59,4.34C117.89,180.91,114.79,176.33,116.6,173.71Z"/><path class="cls-8" d="M168.66,148.21c.13,1.67,3.72,3,8.32,3s8.15-1.36,8.32-3c.4-3.88-3.72-3-8.32-3S168.36,144.34,168.66,148.21Z"/><path class="cls-7" d="M220.93,146.24a6.35,6.35,0,0,1-1-1.17c-1.08-1.6-1.29-3.34-.47-3.89.67-.45,1.81,0,2.79,1.09a8,8,0,0,1,.48-.87c2-3.19,3.28-5.28,6.2-3.43s4.83,5.58,2.81,8.77a6.49,6.49,0,0,1-4.82,3.2,1.36,1.36,0,0,1-.17.79c-.44.82-1.41,1-3.88-.27s-3.66-3-3.22-3.78C219.82,146.32,220.28,146.18,220.93,146.24Z"/><path class="cls-4" d="M158.37,127.27c.12.37,1.9-1.26,4-1.91s4.13-.42,4-.79-2-.72-4.26,0S158.25,126.9,158.37,127.27Z"/><path class="cls-4" d="M195.52,127.27c-.12.37-1.9-1.26-4-1.92s-4.13-.43-4-.8,2-.71,4.26,0S195.64,126.9,195.52,127.27Z"/><path class="cls-4" d="M269.31,196.29a15,15,0,0,1-5.35-1.39c-1.14-.79-.49-5.11-.41-6.23l1.08-14.52c.08-1.12,1.32-.83,2.85-.71h0c.57,2.91.08,16.12,1.26,16.93,4.58,3.17,9.91,5.73,5.69,6A22.47,22.47,0,0,1,269.31,196.29Z"/><path class="cls-4" d="M250.43,196.7a15,15,0,0,1-5.35-1.39c-1.14-.79-.49-5.11-.41-6.23l1.08-14.52c.08-1.12,1.32-.83,2.85-.71h0c.57,2.91.08,16.12,1.26,16.93,4.58,3.17,9.91,5.73,5.69,6A22.47,22.47,0,0,1,250.43,196.7Z"/><path class="cls-4" d="M273,146.6c11.83,8.74,30.24,12.73,38.31,0,.35-.55,1.18-.53,1.18-1.18h0c0-.65-.75-1.67-1.18-1.18C297,160.52,282,148,273,144.23c-.6-.25-1.18.53-1.18,1.18h0C271.86,146.06,272.52,146.21,273,146.6Z"/><rect class="cls-5" x="233.85" y="113.84" width="56.86" height="56.86" transform="translate(524.56 284.55) rotate(-180)"/><polygon class="cls-6" points="221.48 176.01 233.85 170.7 233.85 113.84 221.48 121.53 221.48 176.01"/><polygon class="cls-6" points="221.48 176.01 280.73 176.01 290.71 170.7 233.85 170.7 221.48 176.01"/><circle class="cls-4" cx="278.96" cy="132.88" r="2.4"/><circle class="cls-4" cx="249.56" cy="132.88" r="2.4"/><path class="cls-4" d="M219.17,159.17c4.11-5.25,7.81-7.07,9.51-9.34.53-.61.74-.91.14-1.44h0a1.46,1.46,0,0,0-2.06.14S213,160.24,209.64,169.36c-.28.75-1.4,5.23.31,3.6.4-.38,3.47-6.07,3.67-6.41C214.77,164.62,218.25,160.34,219.17,159.17Z"/><path class="cls-7" d="M204,170.42c1.54-2.23,2.92-3.19,4.23-3.46-.6-.62-.87-1.21-.68-1.65.41-.94,2.78-.83,5.3.26s4.23,2.73,3.83,3.68a1.25,1.25,0,0,1-1.06.6,6.81,6.81,0,0,1,1.25,3.41c.28,2.4-.4,4.44-1.52,4.57s-2-1.28-2.39-3.23c-1.6,2.31-2,5.47-4.59,4.34C205.33,177.62,202.23,173,204,170.42Z"/><path class="cls-8" d="M256.09,144.92c.13,1.67,3.72,3,8.32,3s8.15-1.36,8.32-3c.4-3.88-3.72-3-8.32-3S255.8,141,256.09,144.92Z"/><path class="cls-7" d="M308.37,142.95a6.35,6.35,0,0,1-1-1.17c-1.08-1.6-1.29-3.34-.47-3.89.67-.45,1.81,0,2.79,1.09a8,8,0,0,1,.48-.87c2-3.19,3.28-5.28,6.2-3.43s4.83,5.58,2.81,8.77a6.49,6.49,0,0,1-4.82,3.2,1.36,1.36,0,0,1-.17.79c-.44.82-1.41,1-3.88-.27s-3.66-3-3.22-3.78C307.25,143,307.71,142.89,308.37,142.95Z"/><path class="cls-4" d="M245.81,124c.12.37,1.9-1.26,4-1.91s4.13-.42,4-.79-2-.72-4.26,0S245.69,123.61,245.81,124Z"/><path class="cls-4" d="M283,124c-.12.37-1.9-1.26-4-1.92s-4.13-.43-4-.8,2-.71,4.26,0S283.08,123.61,283,124Z"/><path class="cls-4" d="M361.44,196.29a15,15,0,0,1-5.35-1.39c-1.14-.79-.49-5.11-.41-6.23l1.08-14.52c.08-1.12,1.32-.83,2.85-.71h0c.57,2.91.08,16.12,1.26,16.93,4.58,3.17,9.91,5.73,5.69,6A22.47,22.47,0,0,1,361.44,196.29Z"/><path class="cls-4" d="M342.56,196.7a15,15,0,0,1-5.35-1.39c-1.14-.79-.49-5.11-.41-6.23l1.08-14.52c.08-1.12,1.32-.83,2.85-.71h0c.57,2.91.08,16.12,1.26,16.93,4.58,3.17,9.91,5.73,5.69,6A22.47,22.47,0,0,1,342.56,196.7Z"/><path class="cls-4" d="M365.18,146.6c11.83,8.74,30.24,12.73,38.31,0,.35-.55,1.18-.53,1.18-1.18h0c0-.65-.75-1.67-1.18-1.18-14.33,16.29-29.4,3.72-38.31,0-.6-.25-1.18.53-1.18,1.18h0C364,146.06,364.65,146.21,365.18,146.6Z"/><rect class="cls-5" x="325.98" y="113.84" width="56.86" height="56.86" transform="translate(708.83 284.55) rotate(-180)"/><polygon class="cls-6" points="313.61 176.01 325.98 170.7 325.98 113.84 313.61 121.53 313.61 176.01"/><polygon class="cls-6" points="313.61 176.01 372.87 176.01 382.84 170.7 325.98 170.7 313.61 176.01"/><circle class="cls-4" cx="371.09" cy="132.88" r="2.4"/><circle class="cls-4" cx="341.69" cy="132.88" r="2.4"/><path class="cls-4" d="M311.3,159.17c4.11-5.25,7.81-7.07,9.51-9.34.53-.61.74-.91.14-1.44h0a1.46,1.46,0,0,0-2.06.14s-13.76,11.71-17.12,20.83c-.28.75-1.4,5.23.31,3.6.4-.38,3.47-6.07,3.67-6.41C306.91,164.62,310.39,160.34,311.3,159.17Z"/><path class="cls-7" d="M296.17,170.42c1.54-2.23,2.92-3.19,4.23-3.46-.6-.62-.87-1.21-.68-1.65.41-.94,2.78-.83,5.3.26s4.23,2.73,3.83,3.68a1.25,1.25,0,0,1-1.06.6,6.81,6.81,0,0,1,1.25,3.41c.28,2.4-.4,4.44-1.52,4.57s-2-1.28-2.39-3.23c-1.6,2.31-2,5.47-4.59,4.34C297.46,177.62,294.36,173,296.17,170.42Z"/><path class="cls-8" d="M348.23,144.92c.13,1.67,3.72,3,8.32,3s8.15-1.36,8.32-3c.4-3.88-3.72-3-8.32-3S347.93,141,348.23,144.92Z"/><path class="cls-7" d="M400.5,142.95a6.35,6.35,0,0,1-1-1.17c-1.08-1.6-1.29-3.34-.47-3.89.67-.45,1.81,0,2.79,1.09a8,8,0,0,1,.48-.87c2-3.19,3.28-5.28,6.2-3.43s4.83,5.58,2.81,8.77a6.49,6.49,0,0,1-4.82,3.2,1.36,1.36,0,0,1-.17.79c-.44.82-1.41,1-3.88-.27s-3.66-3-3.22-3.78C399.38,143,399.84,142.89,400.5,142.95Z"/><path class="cls-4" d="M337.94,124c.12.37,1.9-1.26,4-1.91s4.13-.42,4-.79-2-.72-4.26,0S337.82,123.61,337.94,124Z"/><path class="cls-4" d="M375.09,124c-.12.37-1.9-1.26-4-1.92s-4.13-.43-4-.8,2-.71,4.26,0S375.21,123.61,375.09,124Z"/><path class="cls-4" d="M457.8,195.82a15,15,0,0,1-5.35-1.39c-1.14-.79-.49-5.11-.41-6.23l1.08-14.52c.08-1.12,1.32-.83,2.85-.71h0c.57,2.91.08,16.12,1.26,16.93,4.58,3.17,9.91,5.73,5.69,6A22.47,22.47,0,0,1,457.8,195.82Z"/><path class="cls-4" d="M438.92,196.23a15,15,0,0,1-5.35-1.39c-1.14-.79-.49-5.11-.41-6.23l1.08-14.52c.08-1.12,1.32-.83,2.85-.71h0c.57,2.91.08,16.12,1.26,16.93,4.58,3.17,9.91,5.73,5.69,6A22.47,22.47,0,0,1,438.92,196.23Z"/><path class="cls-4" d="M461.54,146.13c11.83,8.74,30.24,12.73,38.31,0,.35-.55,1.18-.53,1.18-1.18h0c0-.65-.75-1.67-1.18-1.18-14.33,16.29-29.4,3.72-38.31,0-.6-.25-1.18.53-1.18,1.18h0C460.36,145.59,461,145.74,461.54,146.13Z"/><rect class="cls-5" x="422.35" y="113.37" width="56.86" height="56.86" transform="translate(901.55 283.61) rotate(-180)"/><polygon class="cls-6" points="409.98 175.54 422.35 170.23 422.35 113.37 409.98 121.06 409.98 175.54"/><polygon class="cls-6" points="409.98 175.54 469.23 175.54 479.21 170.23 422.35 170.23 409.98 175.54"/><circle class="cls-4" cx="467.46" cy="132.41" r="2.4"/><circle class="cls-4" cx="438.05" cy="132.41" r="2.4"/><path class="cls-4" d="M407.66,158.7c4.11-5.25,7.81-7.07,9.51-9.34.53-.61.74-.91.14-1.44h0a1.46,1.46,0,0,0-2.06.14s-13.76,11.71-17.12,20.83c-.28.75-1.4,5.23.31,3.6.4-.38,3.47-6.07,3.67-6.41C403.27,164.15,406.75,159.87,407.66,158.7Z"/><path class="cls-7" d="M392.53,170c1.54-2.23,2.92-3.19,4.23-3.46-.6-.62-.87-1.21-.68-1.65.41-.94,2.78-.83,5.3.26s4.23,2.73,3.83,3.68a1.25,1.25,0,0,1-1.06.6,6.81,6.81,0,0,1,1.25,3.41c.28,2.4-.4,4.44-1.52,4.57s-2-1.28-2.39-3.23c-1.6,2.31-2,5.47-4.59,4.34C393.82,177.15,390.72,172.57,392.53,170Z"/><path class="cls-8" d="M444.59,144.45c.13,1.67,3.72,3,8.32,3s8.15-1.36,8.32-3c.4-3.88-3.72-3-8.32-3S444.29,140.58,444.59,144.45Z"/><path class="cls-7" d="M496.86,142.48a6.35,6.35,0,0,1-1-1.17c-1.08-1.6-1.29-3.34-.47-3.89.67-.45,1.81,0,2.79,1.09a8,8,0,0,1,.48-.87c2-3.19,3.28-5.28,6.2-3.43s4.83,5.58,2.81,8.77a6.49,6.49,0,0,1-4.82,3.2,1.36,1.36,0,0,1-.17.79c-.44.82-1.41,1-3.88-.27s-3.66-3-3.22-3.78C495.75,142.56,496.21,142.42,496.86,142.48Z"/><path class="cls-4" d="M434.3,123.51c.12.37,1.9-1.26,4-1.91s4.13-.42,4-.79-2-.72-4.26,0S434.18,123.14,434.3,123.51Z"/><path class="cls-4" d="M471.45,123.51c-.12.37-1.9-1.26-4-1.92s-4.13-.43-4-.8,2-.71,4.26,0S471.57,123.14,471.45,123.51Z"/><path class="cls-4" d="M578.59,146.6c11.83,8.74,30.24,12.73,38.31,0,.35-.55,1.18-.53,1.18-1.18h0c0-.65-.75-1.67-1.18-1.18-14.33,16.29-29.4,3.72-38.31,0-.6-.25-1.18.53-1.18,1.18h0C577.4,146.06,578.06,146.21,578.59,146.6Z"/><rect class="cls-5" x="539.39" y="113.84" width="56.86" height="56.86" transform="translate(1135.65 284.55) rotate(-180)"/><polygon class="cls-6" points="527.02 176.01 539.39 170.7 539.39 113.84 527.02 121.53 527.02 176.01"/><polygon class="cls-6" points="527.02 176.01 586.27 176.01 596.25 170.7 539.39 170.7 527.02 176.01"/><circle class="cls-4" cx="584.5" cy="132.88" r="2.4"/><circle class="cls-4" cx="555.1" cy="132.88" r="2.4"/><path class="cls-4" d="M524.71,159.17c4.11-5.25,7.81-7.07,9.51-9.34.53-.61.74-.91.14-1.44h0a1.46,1.46,0,0,0-2.06.14s-13.76,11.71-17.12,20.83c-.28.75-1.4,5.23.31,3.6.4-.38,3.47-6.07,3.67-6.41C520.32,164.62,523.8,160.34,524.71,159.17Z"/><path class="cls-7" d="M509.58,170.42c1.54-2.23,2.92-3.19,4.23-3.46-.6-.62-.87-1.21-.68-1.65.41-.94,2.78-.83,5.3.26s4.23,2.73,3.83,3.68a1.25,1.25,0,0,1-1.06.6,6.81,6.81,0,0,1,1.25,3.41c.28,2.4-.4,4.44-1.52,4.57s-2-1.28-2.39-3.23c-1.6,2.31-2,5.47-4.59,4.34C510.87,177.62,507.77,173,509.58,170.42Z"/><path class="cls-8" d="M561.64,144.92c.13,1.67,3.72,3,8.32,3s8.15-1.36,8.32-3c.4-3.88-3.72-3-8.32-3S561.34,141,561.64,144.92Z"/><path class="cls-7" d="M613.91,142.95a6.35,6.35,0,0,1-1-1.17c-1.08-1.6-1.29-3.34-.47-3.89.67-.45,1.81,0,2.79,1.09a8,8,0,0,1,.48-.87c2-3.19,3.28-5.28,6.2-3.43s4.83,5.58,2.81,8.77a6.49,6.49,0,0,1-4.82,3.2,1.36,1.36,0,0,1-.17.79c-.44.82-1.41,1-3.88-.27s-3.66-3-3.22-3.78C612.79,143,613.25,142.89,613.91,142.95Z"/><path class="cls-4" d="M551.35,124c.12.37,1.9-1.26,4-1.91s4.13-.42,4-.79-2-.72-4.26,0S551.23,123.61,551.35,124Z"/><path class="cls-4" d="M588.5,124c-.12.37-1.9-1.26-4-1.92s-4.13-.43-4-.8,2-.71,4.26,0S588.62,123.61,588.5,124Z"/><path class="cls-4" d="M119.82,226.37a15,15,0,0,1-5.35-1.39c-1.14-.79-.49-5.11-.41-6.23l1.08-14.52c.08-1.12,1.32-.83,2.85-.71h0c.57,2.91.08,16.12,1.26,16.93,4.58,3.17,9.91,5.73,5.69,6A22.47,22.47,0,0,1,119.82,226.37Z"/><path class="cls-4" d="M100.95,226.78a15,15,0,0,1-5.35-1.39c-1.14-.79-.49-5.11-.41-6.23l1.08-14.52c.08-1.12,1.32-.83,2.85-.71h0c.57,2.91.08,16.12,1.26,16.93,4.58,3.17,9.91,5.73,5.69,6A22.47,22.47,0,0,1,100.95,226.78Z"/><path class="cls-4" d="M123.56,176.68c11.83,8.74,30.24,12.73,38.31,0,.35-.55,1.18-.53,1.18-1.18h0c0-.65-.75-1.67-1.18-1.18-14.33,16.29-29.4,3.72-38.31,0-.6-.25-1.18.53-1.18,1.18h0C122.38,176.15,123,176.29,123.56,176.68Z"/><rect class="cls-5" x="84.37" y="143.93" width="56.86" height="56.86" transform="translate(225.6 344.71) rotate(-180)"/><polygon class="cls-6" points="72 206.09 84.37 200.79 84.37 143.93 72 151.62 72 206.09"/><polygon class="cls-6" points="72 206.09 131.25 206.09 141.23 200.79 84.37 200.79 72 206.09"/><circle class="cls-4" cx="129.48" cy="162.97" r="2.4"/><circle class="cls-4" cx="100.08" cy="162.97" r="2.4"/><path class="cls-4" d="M69.69,189.25c4.11-5.25,7.81-7.07,9.51-9.34.53-.61.74-.91.14-1.44h0a1.46,1.46,0,0,0-2.06.14s-13.76,11.71-17.12,20.83c-.28.75-1.4,5.23.31,3.6.4-.38,3.47-6.07,3.67-6.41C65.29,194.7,68.77,190.42,69.69,189.25Z"/><path class="cls-7" d="M54.56,200.5c1.54-2.23,2.92-3.19,4.23-3.46-.6-.62-.87-1.21-.68-1.65.41-.94,2.78-.83,5.3.26s4.23,2.73,3.83,3.68a1.25,1.25,0,0,1-1.06.6,6.81,6.81,0,0,1,1.25,3.41c.28,2.4-.4,4.44-1.52,4.57s-2-1.28-2.39-3.23c-1.6,2.31-2,5.47-4.59,4.34C55.85,207.7,52.74,203.13,54.56,200.5Z"/><path class="cls-8" d="M106.61,175c.13,1.67,3.72,3,8.32,3s8.15-1.36,8.32-3c.4-3.88-3.72-3-8.32-3S106.31,171.13,106.61,175Z"/><path class="cls-7" d="M158.88,173a6.35,6.35,0,0,1-1-1.17c-1.08-1.6-1.29-3.34-.47-3.89.67-.45,1.81,0,2.79,1.09a8,8,0,0,1,.48-.87c2-3.19,3.28-5.28,6.2-3.43s4.83,5.58,2.81,8.77a6.49,6.49,0,0,1-4.82,3.2,1.36,1.36,0,0,1-.17.79c-.44.82-1.41,1-3.88-.27s-3.66-3-3.22-3.78C157.77,173.12,158.23,173,158.88,173Z"/><path class="cls-4" d="M96.32,154.06c.12.37,1.9-1.26,4-1.91s4.13-.42,4-.79-2-.72-4.26,0S96.2,153.69,96.32,154.06Z"/><path class="cls-4" d="M133.47,154.07c-.12.37-1.9-1.26-4-1.92s-4.13-.43-4-.8,2-.71,4.26,0S133.59,153.7,133.47,154.07Z"/><polygon class="cls-9" points="196.71 139.52 198.98 139.4 199.28 133.37 196.26 133.91 196.71 139.52"/><path class="cls-9" d="M152.67,133.83c-4.62-1.75,12.31,8,26.15,6.4s27-7.37,26.41-12.51-3.78-7.52-17.51-5.11C174.24,125,161.48,137.17,152.67,133.83Z"/><path class="cls-4" d="M253.19,166c8.46-5.75,10.83-13.22,12.86-10.66.7.89-5.78,10.64-14.93,15.2-8.85,4.41-12.71,5.08-13.41,4.2C235.21,171.56,244.74,171.71,253.19,166Z"/><path class="cls-10" d="M271.52,154.66c-.07-3.95-3.2-7.36-7.14-7.14-2.63.14-3.51,2.12-5.36,4.81-1-2-1.64-2.69-3.62-2-1,.36-1.15,2.43-.3,4.49a12.37,12.37,0,0,0,1.81,3,1,1,0,0,0-.34.34c-.55,1,.73,2.72,2.86,3.95s4.3,1.45,4.85.5a1.11,1.11,0,0,0,.09-.8h0A7.08,7.08,0,0,0,271.52,154.66Z"/><path class="cls-4" d="M199.27,235.2a16.2,16.2,0,0,1-5.8-1.51c-1.23-.86-.53-5.54-.44-6.75l1.17-15.73c.09-1.22,1.43-.89,3.09-.77h0c.62,3.15.09,17.47,1.36,18.35,5,3.44,10.73,6.21,6.17,6.54A24.35,24.35,0,0,1,199.27,235.2Z"/><path class="cls-4" d="M223.05,232.66a16.2,16.2,0,0,1-5.91-1c-1.31-.74-1.06-5.46-1.08-6.68l-.33-15.77c0-1.22,1.34-1,3-1.06h0c.91,3.07,1.75,17.38,3.1,18.14,5.27,2.95,11.28,5.16,6.76,5.93A24.35,24.35,0,0,1,223.05,232.66Z"/><ellipse class="cls-11" cx="204.32" cy="175.75" rx="41.03" ry="37.6"/><path class="cls-12" d="M210,208.25c-21.89,0-39.64-16.54-39.64-37a36,36,0,0,1,14.93-28.89c-13.1,6.28-22,18.85-22,33.34,0,20.77,18.37,37.6,41,37.6a42.28,42.28,0,0,0,33-15.23A41.07,41.07,0,0,1,210,208.25Z"/><circle class="cls-4" cx="192.75" cy="167.14" r="2.39" transform="translate(-8.85 10.79) rotate(-3.13)"/><circle class="cls-4" cx="226.56" cy="163.66" r="2.39" transform="translate(-8.61 12.63) rotate(-3.13)"/><path class="cls-4" d="M196.32,154.08c.14.42-2.18-.4-4.75.44s-3.92,2.71-4.06,2.29,1.24-2.22,3.81-3.06S196.18,153.65,196.32,154.08Z"/><path class="cls-4" d="M221.35,152.82c-.07.44,2-.55,4.7-.14s4.34,2,4.41,1.58-1.61-2-4.28-2.38S221.42,152.38,221.35,152.82Z"/><path class="cls-13" d="M219.93,175.4c-.6,2.39-3.4,4.48-7.66,4.52s-7.12-2-7.75-4.37c-.77-2.94.38-4.16,7.66-4.52C220.33,170.63,220.53,173,219.93,175.4Z"/><path class="cls-4" d="M164.25,195.57c-.92,10.18,2.93,19.06-.34,19-1.13,0-4.56-11.21-2.29-21.18,2.2-9.64,4.12-13.05,5.26-13C170.89,180.42,165.16,185.39,164.25,195.57Z"/><path class="cls-10" d="M171.39,206.86a8.51,8.51,0,0,0-4.14-2,1.17,1.17,0,0,0,.6-1c-.09-1-2.44-1.58-5.24-1.32s-5,1.28-4.9,2.27c0,.44.52.8,1.28,1-1.63,1.07-2.78,3.11-1.88,7.31.87,4,5.5,4.88,9,4.2,3.32-.64,4.33-2.47,3.77-6.05a2.33,2.33,0,0,0,2.6-.13C173.36,210.29,172.88,208.35,171.39,206.86Z"/><path class="cls-4" d="M322,226.37A15,15,0,0,1,316.6,225c-1.14-.79-.49-5.11-.41-6.23l1.08-14.52c.08-1.12,1.32-.83,2.85-.71h0c.57,2.91.08,16.12,1.26,16.93,4.58,3.17,9.91,5.73,5.69,6A22.47,22.47,0,0,1,322,226.37Z"/><path class="cls-4" d="M303.07,226.78a15,15,0,0,1-5.35-1.39c-1.14-.79-.49-5.11-.41-6.23l1.08-14.52c.08-1.12,1.32-.83,2.85-.71h0c.57,2.91.08,16.12,1.26,16.93,4.58,3.17,9.91,5.73,5.69,6A22.47,22.47,0,0,1,303.07,226.78Z"/><path class="cls-4" d="M325.69,176.68c11.83,8.74,30.24,12.73,38.31,0,.35-.55,1.18-.53,1.18-1.18h0c0-.65-.75-1.67-1.18-1.18-14.33,16.29-29.4,3.72-38.31,0-.6-.25-1.18.53-1.18,1.18h0C324.51,176.15,325.17,176.29,325.69,176.68Z"/><rect class="cls-5" x="286.5" y="143.93" width="56.86" height="56.86" transform="translate(629.85 344.71) rotate(-180)"/><polygon class="cls-6" points="274.13 206.09 286.5 200.79 286.5 143.93 274.13 151.62 274.13 206.09"/><polygon class="cls-6" points="274.13 206.09 333.38 206.09 343.36 200.79 286.5 200.79 274.13 206.09"/><circle class="cls-4" cx="331.61" cy="162.97" r="2.4"/><circle class="cls-4" cx="302.2" cy="162.97" r="2.4"/><path class="cls-4" d="M271.81,189.25c4.11-5.25,7.81-7.07,9.51-9.34.53-.61.74-.91.14-1.44h0a1.46,1.46,0,0,0-2.06.14s-13.76,11.71-17.12,20.83c-.28.75-1.4,5.23.31,3.6.4-.38,3.47-6.07,3.67-6.41C267.42,194.7,270.9,190.42,271.81,189.25Z"/><path class="cls-7" d="M256.68,200.5c1.54-2.23,2.92-3.19,4.23-3.46-.6-.62-.87-1.21-.68-1.65.41-.94,2.78-.83,5.3.26s4.23,2.73,3.83,3.68a1.25,1.25,0,0,1-1.06.6,6.81,6.81,0,0,1,1.25,3.41c.28,2.4-.4,4.44-1.52,4.57s-2-1.28-2.39-3.23c-1.6,2.31-2,5.47-4.59,4.34C258,207.7,254.87,203.13,256.68,200.5Z"/><path class="cls-8" d="M308.74,175c.13,1.67,3.72,3,8.32,3s8.15-1.36,8.32-3c.4-3.88-3.72-3-8.32-3S308.44,171.13,308.74,175Z"/><path class="cls-7" d="M361,173a6.35,6.35,0,0,1-1-1.17c-1.08-1.6-1.29-3.34-.47-3.89.67-.45,1.81,0,2.79,1.09a8,8,0,0,1,.48-.87c2-3.19,3.28-5.28,6.2-3.43s4.83,5.58,2.81,8.77a6.49,6.49,0,0,1-4.82,3.2,1.36,1.36,0,0,1-.17.79c-.44.82-1.41,1-3.88-.27s-3.66-3-3.22-3.78C359.9,173.12,360.36,173,361,173Z"/><path class="cls-4" d="M298.45,154.06c.12.37,1.9-1.26,4-1.91s4.13-.42,4-.79-2-.72-4.26,0S298.33,153.69,298.45,154.06Z"/><path class="cls-4" d="M335.6,154.07c-.12.37-1.9-1.26-4-1.92s-4.13-.43-4-.8,2-.71,4.26,0S335.72,153.7,335.6,154.07Z"/><path class="cls-4" d="M417.85,226.84a15,15,0,0,1-5.35-1.39c-1.14-.79-.49-5.11-.41-6.23l1.08-14.52c.08-1.12,1.32-.83,2.85-.71h0c.57,2.91.08,16.12,1.26,16.93,4.58,3.17,9.91,5.73,5.69,6A22.47,22.47,0,0,1,417.85,226.84Z"/><path class="cls-4" d="M399,227.25a15,15,0,0,1-5.35-1.39c-1.14-.79-.49-5.11-.41-6.23l1.08-14.52c.08-1.12,1.32-.83,2.85-.71h0c.57,2.91.08,16.12,1.26,16.93,4.58,3.17,9.91,5.73,5.69,6A22.47,22.47,0,0,1,399,227.25Z"/><path class="cls-4" d="M421.58,177.15c11.83,8.74,30.24,12.73,38.31,0,.35-.55,1.18-.53,1.18-1.18h0c0-.65-.75-1.67-1.18-1.18-14.33,16.29-29.4,3.72-38.31,0-.6-.25-1.18.53-1.18,1.18h0C420.4,176.62,421.06,176.76,421.58,177.15Z"/><rect class="cls-5" x="382.39" y="144.4" width="56.86" height="56.86" transform="translate(821.64 345.66) rotate(-180)"/><polygon class="cls-6" points="370.02 206.56 382.39 201.26 382.39 144.4 370.02 152.09 370.02 206.56"/><polygon class="cls-6" points="370.02 206.56 429.27 206.56 439.25 201.26 382.39 201.26 370.02 206.56"/><circle class="cls-4" cx="427.5" cy="163.44" r="2.4"/><circle class="cls-4" cx="398.1" cy="163.44" r="2.4"/><path class="cls-4" d="M367.71,189.72c4.11-5.25,7.81-7.07,9.51-9.34.53-.61.74-.91.14-1.44h0a1.46,1.46,0,0,0-2.06.14s-13.76,11.71-17.12,20.83c-.28.75-1.4,5.23.31,3.6.4-.38,3.47-6.07,3.67-6.41C363.32,195.17,366.79,190.89,367.71,189.72Z"/><path class="cls-7" d="M352.58,201c1.54-2.23,2.92-3.19,4.23-3.46-.6-.62-.87-1.21-.68-1.65.41-.94,2.78-.83,5.3.26s4.23,2.73,3.83,3.68a1.25,1.25,0,0,1-1.06.6,6.81,6.81,0,0,1,1.25,3.41c.28,2.4-.4,4.44-1.52,4.57s-2-1.28-2.39-3.23c-1.6,2.31-2,5.47-4.59,4.34C353.87,208.17,350.77,203.6,352.58,201Z"/><path class="cls-8" d="M404.64,175.48c.13,1.67,3.72,3,8.32,3s8.15-1.36,8.32-3c.4-3.88-3.72-3-8.32-3S404.34,171.6,404.64,175.48Z"/><path class="cls-7" d="M456.91,173.5a6.35,6.35,0,0,1-1-1.17c-1.08-1.6-1.29-3.34-.47-3.89.67-.45,1.81,0,2.79,1.09a8,8,0,0,1,.48-.87c2-3.19,3.28-5.28,6.2-3.43s4.83,5.58,2.81,8.77a6.49,6.49,0,0,1-4.82,3.2,1.36,1.36,0,0,1-.17.79c-.44.82-1.41,1-3.88-.27s-3.66-3-3.22-3.78C455.79,173.59,456.25,173.44,456.91,173.5Z"/><path class="cls-4" d="M394.35,154.53c.12.37,1.9-1.26,4-1.91s4.13-.42,4-.79-2-.72-4.26,0S394.23,154.16,394.35,154.53Z"/><path class="cls-4" d="M431.5,154.54c-.12.37-1.9-1.26-4-1.92s-4.13-.43-4-.8,2-.71,4.26,0S431.62,154.17,431.5,154.54Z"/><path class="cls-4" d="M492.5,229.25a15,15,0,0,1-5.35-1.39c-1.14-.79-.49-5.11-.41-6.23l1.08-14.52c.08-1.12,1.32-.83,2.85-.71h0c.57,2.91.08,16.12,1.26,16.93,4.58,3.17,9.91,5.73,5.69,6A22.47,22.47,0,0,1,492.5,229.25Z"/><path class="cls-4" d="M515.12,179.15c11.83,8.74,30.24,12.73,38.31,0,.35-.55,1.18-.53,1.18-1.18h0c0-.65-.75-1.67-1.18-1.18-14.33,16.29-29.4,3.72-38.31,0-.6-.25-1.18.53-1.18,1.18h0C513.94,178.62,514.6,178.76,515.12,179.15Z"/><rect class="cls-5" x="475.92" y="146.4" width="56.86" height="56.86" transform="translate(1008.71 349.66) rotate(-180)"/><polygon class="cls-6" points="463.55 208.56 475.92 203.26 475.92 146.4 463.55 154.09 463.55 208.56"/><polygon class="cls-6" points="463.55 208.56 522.81 208.56 532.79 203.26 475.92 203.26 463.55 208.56"/><circle class="cls-4" cx="521.04" cy="165.44" r="2.4"/><circle class="cls-4" cx="491.63" cy="165.44" r="2.4"/><path class="cls-4" d="M461.24,191.72c4.11-5.25,7.81-7.07,9.51-9.34.53-.61.74-.91.14-1.44h0a1.46,1.46,0,0,0-2.06.14s-13.76,11.71-17.12,20.83c-.28.75-1.4,5.23.31,3.6.4-.38,3.47-6.07,3.67-6.41C456.85,197.17,460.33,192.89,461.24,191.72Z"/><path class="cls-7" d="M446.11,203c1.54-2.23,2.92-3.19,4.23-3.46-.6-.62-.87-1.21-.68-1.65.41-.94,2.78-.83,5.3.26s4.23,2.73,3.83,3.68a1.25,1.25,0,0,1-1.06.6,6.81,6.81,0,0,1,1.25,3.41c.28,2.4-.4,4.44-1.52,4.57s-2-1.28-2.39-3.23c-1.6,2.31-2,5.47-4.59,4.34C447.4,210.17,444.3,205.6,446.11,203Z"/><path class="cls-8" d="M498.17,177.48c.13,1.67,3.72,3,8.32,3s8.15-1.36,8.32-3c.4-3.88-3.72-3-8.32-3S497.87,173.6,498.17,177.48Z"/><path class="cls-7" d="M550.44,175.5a6.35,6.35,0,0,1-1-1.17c-1.08-1.6-1.29-3.34-.47-3.89.67-.45,1.81,0,2.79,1.09a8,8,0,0,1,.48-.87c2-3.19,3.28-5.28,6.2-3.43s4.83,5.58,2.81,8.77a6.49,6.49,0,0,1-4.82,3.2,1.36,1.36,0,0,1-.17.79c-.44.82-1.41,1-3.88-.27s-3.66-3-3.22-3.78C549.33,175.59,549.78,175.44,550.44,175.5Z"/><path class="cls-4" d="M487.88,156.53c.12.37,1.9-1.26,4-1.91s4.13-.42,4-.79-2-.72-4.26,0S487.76,156.16,487.88,156.53Z"/><path class="cls-4" d="M525,156.54c-.12.37-1.9-1.26-4-1.92s-4.13-.43-4-.8,2-.71,4.26,0S525.15,156.17,525,156.54Z"/><path class="cls-4" d="M247.32,162.05c8-5.46,10.29-12.56,12.22-10.13.67.84-5.49,10.11-14.19,14.44-8.41,4.19-12.07,4.83-12.74,4C230.23,167.37,239.28,167.51,247.32,162.05Z"/><path class="cls-14" d="M264.73,151.32c-.06-3.75-3-7-6.79-6.79-2.5.13-3.33,2-5.09,4.57-.92-1.86-1.56-2.55-3.44-1.9-1,.34-1.09,2.31-.28,4.27a11.75,11.75,0,0,0,1.72,2.85.93.93,0,0,0-.32.32c-.52.9.69,2.58,2.71,3.75s4.08,1.38,4.6.48a1.05,1.05,0,0,0,.09-.76h0A6.73,6.73,0,0,0,264.73,151.32Z"/><path class="cls-4" d="M196.09,227.84a15.4,15.4,0,0,1-5.51-1.44c-1.17-.82-.51-5.26-.42-6.41L191.28,205c.09-1.16,1.36-.85,2.93-.73h0c.58,3,.08,16.6,1.29,17.43,4.72,3.27,10.2,5.9,5.86,6.22A23.14,23.14,0,0,1,196.09,227.84Z"/><path class="cls-4" d="M218.68,225.42a15.4,15.4,0,0,1-5.62-.9c-1.24-.7-1-5.19-1-6.35l-.31-15c0-1.16,1.27-1,2.85-1h0c.87,2.92,1.66,16.51,2.95,17.23,5,2.8,10.71,4.9,6.42,5.63A23.14,23.14,0,0,1,218.68,225.42Z"/><ellipse class="cls-11" cx="200.88" cy="171.35" rx="38.98" ry="35.73"/><path class="cls-12" d="M206.31,202.23c-20.8,0-37.66-15.72-37.66-35.11a34.22,34.22,0,0,1,14.18-27.45c-12.44,6-20.94,17.91-20.94,31.67,0,19.73,17.45,35.73,39,35.73a40.17,40.17,0,0,0,31.34-14.47A39,39,0,0,1,206.31,202.23Z"/><circle class="cls-4" cx="189.89" cy="163.18" r="2.27" transform="translate(-8.64 10.62) rotate(-3.13)"/><circle class="cls-4" cx="222.01" cy="159.87" r="2.27" transform="translate(-8.41 12.37) rotate(-3.13)"/><path class="cls-4" d="M193.29,150.76c.13.4-2.07-.38-4.51.42s-3.72,2.58-3.85,2.17,1.18-2.11,3.62-2.9S193.15,150.36,193.29,150.76Z"/><path class="cls-4" d="M217.06,149.57c-.07.42,1.93-.53,4.47-.13s4.12,1.92,4.19,1.5-1.53-1.86-4.07-2.26S217.13,149.15,217.06,149.57Z"/><path class="cls-13" d="M215.71,171c-.57,2.27-3.23,4.26-7.27,4.3s-6.77-1.9-7.36-4.15c-.73-2.79.36-4,7.27-4.3C216.1,166.49,216.28,168.76,215.71,171Z"/><path class="cls-4" d="M162.81,190.19c-.87,9.67,2.79,18.1-.32,18.06-1.07,0-4.34-10.66-2.17-20.12,2.09-9.16,3.92-12.4,5-12.38C169.12,175.79,163.68,180.51,162.81,190.19Z"/><path class="cls-14" d="M169.6,200.9a8.08,8.08,0,0,0-3.93-1.93,1.11,1.11,0,0,0,.57-.91c-.09-.94-2.32-1.51-5-1.26S156.51,198,156.6,199c0,.42.49.76,1.22,1-1.54,1-2.64,3-1.78,6.95.82,3.83,5.22,4.64,8.54,4,3.15-.61,4.11-2.35,3.58-5.75a2.21,2.21,0,0,0,2.47-.12C171.47,204.16,171,202.32,169.6,200.9Z"/><path class="cls-15" d="M193,136.7s-6.92,3.73-9.2,4.76-8.78,3.31-8.78,3.31L171.12,136l18-8.06Z"/><rect class="cls-16" x="160.39" y="143.52" width="1.13" height="16.56"/><path class="cls-17" d="M196.49,128.62l-37.28,16.71a1.34,1.34,0,0,1-1.69-1.93l7.79-12.61a5.68,5.68,0,0,1,2.49-2.19L202,113.13a1.41,1.41,0,0,1,1.86,1.87l-5.28,11.57A4.12,4.12,0,0,1,196.49,128.62Z"/><polygon class="cls-16" points="176.72 129.42 162.15 135.73 161.62 136.68 178.9 129.28 176.72 129.42"/><path class="cls-4" d="M121.15,224a14.82,14.82,0,0,1-5.3-1.38c-1.13-.79-.49-5.06-.4-6.17L116.52,202c.08-1.11,1.31-.82,2.82-.7h0c.56,2.88.08,16,1.24,16.78,4.54,3.14,9.81,5.68,5.64,6A22.26,22.26,0,0,1,121.15,224Z"/><path class="cls-4" d="M102.44,224.39a14.82,14.82,0,0,1-5.3-1.38c-1.13-.79-.49-5.06-.4-6.17l1.07-14.38c.08-1.11,1.31-.82,2.82-.7h0c.56,2.88.08,16,1.24,16.78,4.54,3.14,9.81,5.68,5.64,6A22.26,22.26,0,0,1,102.44,224.39Z"/><path class="cls-4" d="M124.85,174.75c11.72,8.66,30,12.61,38,0,.35-.54,1.17-.53,1.17-1.17h0c0-.64-.75-1.66-1.17-1.17-14.2,16.14-29.13,3.69-38,0-.6-.25-1.17.53-1.17,1.17h0C123.68,174.23,124.33,174.37,124.85,174.75Z"/><rect class="cls-5" x="86.02" y="142.3" width="56.33" height="56.33" transform="translate(228.37 340.94) rotate(-180)"/><polygon class="cls-6" points="73.76 203.89 86.02 198.64 86.02 142.31 73.76 149.93 73.76 203.89"/><polygon class="cls-6" points="73.76 203.89 132.47 203.89 142.35 198.64 86.02 198.64 73.76 203.89"/><circle class="cls-4" cx="130.71" cy="161.17" r="2.38"/><circle class="cls-4" cx="101.58" cy="161.17" r="2.38"/><path class="cls-4" d="M71.47,187.21c4.07-5.21,7.74-7,9.43-9.25.52-.6.73-.9.13-1.43h0a1.45,1.45,0,0,0-2,.14s-13.63,11.6-17,20.63c-.27.75-1.39,5.18.3,3.57.39-.37,3.44-6,3.64-6.35C67.12,192.61,70.57,188.37,71.47,187.21Z"/><path class="cls-18" d="M56.48,198.36c1.53-2.21,2.89-3.17,4.19-3.43-.59-.61-.86-1.2-.67-1.64.4-.94,2.75-.82,5.25.26s4.19,2.71,3.79,3.64a1.24,1.24,0,0,1-1,.6,6.74,6.74,0,0,1,1.24,3.38c.28,2.37-.4,4.4-1.51,4.53s-2-1.26-2.37-3.2c-1.58,2.29-2,5.42-4.55,4.3C57.76,205.49,54.69,201,56.48,198.36Z"/><path class="cls-8" d="M108.06,173.1c.13,1.65,3.69,3,8.24,3s8.07-1.35,8.24-3c.39-3.84-3.69-3-8.24-3S107.76,169.26,108.06,173.1Z"/><path class="cls-18" d="M159.84,171.14a6.29,6.29,0,0,1-1-1.16c-1.07-1.58-1.28-3.31-.47-3.85.66-.44,1.79,0,2.76,1.08a7.91,7.91,0,0,1,.47-.86c2-3.16,3.25-5.23,6.14-3.4s4.78,5.53,2.78,8.69a6.43,6.43,0,0,1-4.78,3.17,1.35,1.35,0,0,1-.16.78c-.43.81-1.4,1-3.85-.27s-3.63-2.93-3.19-3.75C158.74,171.22,159.19,171.08,159.84,171.14Z"/><path class="cls-4" d="M97.87,152.35c.12.37,1.88-1.25,3.95-1.89s4.09-.42,4-.79-1.94-.71-4.22,0S97.75,152,97.87,152.35Z"/><path class="cls-4" d="M134.67,152.35c-.12.37-1.88-1.25-3.95-1.9s-4.09-.42-4-.79,1.94-.71,4.22,0S134.79,152,134.67,152.35Z"/><path class="cls-15" d="M97.66,142.47s-7.13,2.19-9.44,2.72-8.78,1.45-8.78,1.45l-2-8.89,18.22-4.17Z"/><rect class="cls-16" x="67.85" y="143.17" width="1.07" height="15.7"/><path class="cls-17" d="M102.37,135.6,64.6,144.24a1.27,1.27,0,0,1-1.21-2.1L73,131.85a5.39,5.39,0,0,1,2.72-1.58l34.64-8.06a1.34,1.34,0,0,1,1.39,2.08l-7,9.79A3.91,3.91,0,0,1,102.37,135.6Z"/><polygon class="cls-16" points="83.83 132.68 69.12 135.85 68.44 136.63 85.88 132.95 83.83 132.68"/><path class="cls-4" d="M321.79,226.13a14.82,14.82,0,0,1-5.3-1.38c-1.13-.79-.49-5.06-.4-6.17l1.07-14.38c.08-1.11,1.31-.82,2.82-.7h0c.56,2.88.08,16,1.24,16.78,4.54,3.14,9.81,5.68,5.64,6A22.26,22.26,0,0,1,321.79,226.13Z"/><path class="cls-4" d="M303.08,226.54a14.82,14.82,0,0,1-5.3-1.38c-1.13-.79-.49-5.06-.4-6.17l1.07-14.38c.08-1.11,1.31-.82,2.82-.7h0c.56,2.88.08,16,1.24,16.78,4.54,3.14,9.81,5.68,5.64,6A22.26,22.26,0,0,1,303.08,226.54Z"/><path class="cls-4" d="M325.49,176.9c11.72,8.66,30,12.61,38,0,.35-.54,1.17-.53,1.17-1.17h0c0-.64-.75-1.66-1.17-1.17-14.2,16.14-29.13,3.69-38,0-.6-.25-1.17.53-1.17,1.17h0C324.32,176.37,325,176.51,325.49,176.9Z"/><rect class="cls-5" x="286.66" y="144.45" width="56.33" height="56.33" transform="translate(629.65 345.23) rotate(-180)"/><polygon class="cls-6" points="274.4 206.03 286.66 200.78 286.66 144.45 274.4 152.07 274.4 206.03"/><polygon class="cls-6" points="274.4 206.03 333.11 206.03 342.99 200.78 286.66 200.78 274.4 206.03"/><circle class="cls-4" cx="331.35" cy="163.31" r="2.38"/><circle class="cls-4" cx="302.22" cy="163.31" r="2.38"/><path class="cls-4" d="M272.11,189.35c4.07-5.21,7.74-7,9.43-9.25.52-.6.73-.9.13-1.43h0a1.45,1.45,0,0,0-2,.14s-13.63,11.6-17,20.63c-.27.75-1.39,5.18.3,3.57.39-.37,3.44-6,3.64-6.35C267.76,194.75,271.21,190.51,272.11,189.35Z"/><path class="cls-18" d="M257.12,200.5c1.53-2.21,2.89-3.17,4.19-3.43-.59-.61-.86-1.2-.67-1.64.4-.94,2.75-.82,5.25.26s4.19,2.71,3.79,3.64a1.24,1.24,0,0,1-1,.6,6.74,6.74,0,0,1,1.24,3.38c.28,2.37-.4,4.4-1.51,4.53s-2-1.26-2.37-3.2c-1.58,2.29-2,5.42-4.55,4.3C258.4,207.63,255.33,203.1,257.12,200.5Z"/><path class="cls-8" d="M308.7,175.24c.13,1.65,3.69,3,8.24,3s8.07-1.35,8.24-3c.39-3.84-3.69-3-8.24-3S308.4,171.4,308.7,175.24Z"/><path class="cls-18" d="M360.48,173.28a6.29,6.29,0,0,1-1-1.16c-1.07-1.58-1.28-3.31-.47-3.85.66-.44,1.79,0,2.76,1.08a7.91,7.91,0,0,1,.47-.86c2-3.16,3.25-5.23,6.14-3.4s4.78,5.53,2.78,8.69a6.43,6.43,0,0,1-4.78,3.17,1.35,1.35,0,0,1-.16.78c-.43.81-1.4,1-3.85-.27s-3.63-2.93-3.19-3.75C359.38,173.37,359.83,173.23,360.48,173.28Z"/><path class="cls-4" d="M298.51,154.49c.12.37,1.88-1.25,3.95-1.89s4.09-.42,4-.79-1.94-.71-4.22,0S298.39,154.12,298.51,154.49Z"/><path class="cls-4" d="M335.31,154.49c-.12.37-1.88-1.25-3.95-1.9s-4.09-.42-4-.79,1.94-.71,4.22,0S335.43,154.13,335.31,154.49Z"/><path class="cls-15" d="M330.57,30.88s-7.45-.39-9.8-.69S312,28.54,312,28.54l1.14-9,18.54,2.34Z"/><rect class="cls-16" x="299.6" y="21.01" width="1.07" height="15.7" transform="translate(28.13 -101.25) rotate(20.07)"/><path class="cls-17" d="M337.35,26l-38.44-4.85a1.27,1.27,0,0,1-.42-2.39L311,12.43a5.39,5.39,0,0,1,3.1-.55l35.3,4.31a1.34,1.34,0,0,1,.59,2.43L340,25.4A3.91,3.91,0,0,1,337.35,26Z"/><polygon class="cls-16" points="320.94 16.94 306.04 14.86 305.13 15.37 322.78 17.89 320.94 16.94"/><path class="cls-15" d="M213.93,26.56s-6.65,3.38-8.83,4.3-8.4,2.94-8.4,2.94l-3.53-8.41,17.23-7.24Z"/><rect class="cls-16" x="186.02" y="32.16" width="1.07" height="15.7" transform="translate(-4.1 32.67) rotate(-9.9)"/><path class="cls-17" d="M217.39,19,181.67,34a1.27,1.27,0,0,1-1.56-1.86l7.67-11.78a5.39,5.39,0,0,1,2.41-2l32.74-13.9a1.34,1.34,0,0,1,1.72,1.81l-5.26,10.85A3.91,3.91,0,0,1,217.39,19Z"/><polygon class="cls-16" points="198.63 19.29 184.67 24.94 184.15 25.82 200.69 19.2 198.63 19.29"/><path class="cls-15" d="M440.9,21.66s-7.28-1.61-9.55-2.29S423,16.31,423,16.31l2.61-8.74,17.9,5.35Z"/><rect class="cls-16" x="410.67" y="6.82" width="1.07" height="15.7" transform="translate(60.66 -200.78) rotate(29.53)"/><path class="cls-17" d="M448.39,18,411.27,6.9a1.27,1.27,0,0,1,0-2.43L424.66.25a5.39,5.39,0,0,1,3.14,0l34.11,10.06a1.34,1.34,0,0,1,.18,2.49l-11,5A3.91,3.91,0,0,1,448.39,18Z"/><polygon class="cls-16" points="433.69 6.33 419.33 1.83 418.36 2.18 435.35 7.57 433.69 6.33"/><path class="cls-15" d="M518,71.65s-7.28-1.61-9.55-2.29-8.35-3.07-8.35-3.07l2.61-8.74,17.9,5.35Z"/><rect class="cls-16" x="487.79" y="56.8" width="1.07" height="15.7" transform="translate(95.31 -232.3) rotate(29.53)"/><path class="cls-17" d="M525.5,68l-37.12-11.1a1.27,1.27,0,0,1,0-2.43l13.41-4.23a5.39,5.39,0,0,1,3.14,0L539,60.26a1.34,1.34,0,0,1,.18,2.49l-11,5A3.91,3.91,0,0,1,525.5,68Z"/><polygon class="cls-16" points="510.81 56.31 496.44 51.81 495.47 52.16 512.46 57.55 510.81 56.31"/><path class="cls-15" d="M396,83s-6.53,3.6-8.69,4.58-8.3,3.21-8.3,3.21l-3.8-8.29,17-7.79Z"/><rect class="cls-16" x="368.56" y="89.47" width="1.07" height="15.7" transform="translate(-12.09 77.23) rotate(-11.75)"/><path class="cls-17" d="M399.23,75.3,364,91.45a1.27,1.27,0,0,1-1.62-1.81l7.29-12a5.39,5.39,0,0,1,2.34-2.1l32.27-15a1.34,1.34,0,0,1,1.78,1.76l-4.91,11A3.91,3.91,0,0,1,399.23,75.3Z"/><polygon class="cls-16" points="380.49 76.22 366.72 82.31 366.22 83.22 382.55 76.06 380.49 76.22"/><path class="cls-15" d="M258.92,98s-6.53,3.6-8.69,4.58-8.3,3.21-8.3,3.21l-3.8-8.29,17-7.79Z"/><rect class="cls-16" x="231.47" y="104.47" width="1.07" height="15.7" transform="translate(-18.02 49.61) rotate(-11.75)"/><path class="cls-17" d="M262.14,90.29l-35.22,16.15a1.27,1.27,0,0,1-1.62-1.81l7.29-12a5.39,5.39,0,0,1,2.34-2.1l32.27-15A1.34,1.34,0,0,1,269,77.31l-4.91,11A3.91,3.91,0,0,1,262.14,90.29Z"/><polygon class="cls-16" points="243.39 91.21 229.63 97.31 229.13 98.22 245.46 91.06 243.39 91.21"/><path class="cls-15" d="M115.44,68.8s-7.43-.63-9.77-1S97,65.86,97,65.86l1.44-9,18.45,2.94Z"/><rect class="cls-16" x="84.56" y="57.94" width="1.07" height="15.7" transform="translate(30.76 -27.04) rotate(21.95)"/><path class="cls-17" d="M122.38,64.19l-38.26-6.1a1.27,1.27,0,0,1-.34-2.41l12.73-6a5.39,5.39,0,0,1,3.11-.44l35.14,5.47a1.34,1.34,0,0,1,.51,2.45l-10.2,6.44A3.91,3.91,0,0,1,122.38,64.19Z"/><polygon class="cls-16" points="106.28 54.55 91.45 51.99 90.53 52.46 108.08 55.57 106.28 54.55"/><path class="cls-4" d="M417.47,225.41a14.82,14.82,0,0,1-5.3-1.38c-1.13-.79-.49-5.06-.4-6.17l1.07-14.38c.08-1.11,1.31-.82,2.82-.7h0c.56,2.88.08,16,1.24,16.78,4.54,3.14,9.81,5.68,5.64,6A22.26,22.26,0,0,1,417.47,225.41Z"/><path class="cls-4" d="M398.76,225.82a14.82,14.82,0,0,1-5.3-1.38c-1.13-.79-.49-5.06-.4-6.17l1.07-14.38c.08-1.11,1.31-.82,2.82-.7h0c.56,2.88.08,16,1.24,16.78,4.54,3.14,9.81,5.68,5.64,6A22.26,22.26,0,0,1,398.76,225.82Z"/><path class="cls-4" d="M421.17,176.18c11.72,8.66,30,12.61,38,0,.35-.54,1.17-.53,1.17-1.17h0c0-.64-.75-1.66-1.17-1.17-14.2,16.14-29.13,3.69-38,0-.6-.25-1.17.53-1.17,1.17h0C420,175.66,420.65,175.8,421.17,176.18Z"/><rect class="cls-5" x="382.34" y="143.73" width="56.33" height="56.33" transform="translate(821.01 343.8) rotate(-180)"/><polygon class="cls-6" points="370.08 205.32 382.34 200.07 382.34 143.73 370.08 151.35 370.08 205.32"/><polygon class="cls-6" points="370.08 205.32 428.79 205.32 438.67 200.07 382.34 200.07 370.08 205.32"/><circle class="cls-4" cx="427.03" cy="162.6" r="2.38"/><circle class="cls-4" cx="397.9" cy="162.6" r="2.38"/><path class="cls-4" d="M367.79,188.64c4.07-5.21,7.74-7,9.43-9.25.52-.6.73-.9.13-1.43h0a1.45,1.45,0,0,0-2,.14s-13.63,11.6-17,20.63c-.27.75-1.39,5.18.3,3.57.39-.37,3.44-6,3.64-6.35C363.44,194,366.89,189.8,367.79,188.64Z"/><path class="cls-18" d="M352.8,199.79c1.53-2.21,2.89-3.17,4.19-3.43-.59-.61-.86-1.2-.67-1.64.4-.94,2.75-.82,5.25.26s4.19,2.71,3.79,3.64a1.24,1.24,0,0,1-1,.6,6.74,6.74,0,0,1,1.24,3.38c.28,2.37-.4,4.4-1.51,4.53s-2-1.26-2.37-3.2c-1.58,2.29-2,5.42-4.55,4.3C354.08,206.92,351,202.38,352.8,199.79Z"/><path class="cls-8" d="M404.38,174.53c.13,1.65,3.69,3,8.24,3s8.07-1.35,8.24-3c.39-3.84-3.69-3-8.24-3S404.08,170.68,404.38,174.53Z"/><path class="cls-18" d="M456.16,172.57a6.29,6.29,0,0,1-1-1.16c-1.07-1.58-1.28-3.31-.47-3.85.66-.44,1.79,0,2.76,1.08a7.91,7.91,0,0,1,.47-.86c2-3.16,3.25-5.23,6.14-3.4s4.78,5.53,2.78,8.69a6.43,6.43,0,0,1-4.78,3.17,1.35,1.35,0,0,1-.16.78c-.43.81-1.4,1-3.85-.27s-3.63-2.93-3.19-3.75C455.06,172.65,455.51,172.51,456.16,172.57Z"/><path class="cls-4" d="M394.18,153.78c.12.37,1.88-1.25,3.95-1.89s4.09-.42,4-.79-1.94-.71-4.22,0S394.06,153.41,394.18,153.78Z"/><path class="cls-4" d="M431,153.78c-.12.37-1.88-1.25-3.95-1.9s-4.09-.42-4-.79,1.94-.71,4.22,0S431.11,153.41,431,153.78Z"/><path class="cls-15" d="M394,143.9s-7.13,2.19-9.44,2.72-8.78,1.45-8.78,1.45l-2-8.89L391.94,135Z"/><rect class="cls-16" x="364.16" y="144.6" width="1.07" height="15.7"/><path class="cls-17" d="M398.69,137l-37.77,8.64a1.27,1.27,0,0,1-1.21-2.1l9.58-10.29A5.39,5.39,0,0,1,372,131.7l34.64-8.06a1.34,1.34,0,0,1,1.39,2.08l-7,9.79A3.91,3.91,0,0,1,398.69,137Z"/><polygon class="cls-16" points="380.15 134.11 365.44 137.28 364.76 138.06 382.2 134.38 380.15 134.11"/><polygon class="cls-1" points="530.06 206.01 26.13 201.08 29.43 193.79 535.23 200.84 530.06 206.01"/><polygon class="cls-1" points="506.08 256.78 52.69 256.78 52.69 206.96 506.08 211.66 506.08 256.78"/><polygon class="cls-3" points="524.88 215.42 17.68 210.72 19.09 201.31 531 202.72 524.88 215.42"/></g></g></svg>