<svg xmlns="http://www.w3.org/2000/svg" viewBox="0 0 3543.77 566.77"><defs><style>.cls-1{fill:#231f20;}.cls-2{fill:#054724;}.cls-3{fill:#f36e24;}.cls-4{fill:#f7941d;}.cls-5{fill:#e8ecee;stroke:#231f20;stroke-miterlimit:10;stroke-width:3.7px;}.cls-6{fill:#18498e;}</style></defs><title>orange</title><g id="Layer_2" data-name="Layer 2"><g id="Layer_6" data-name="Layer 6"><path class="cls-1" d="M678.28,556.91c-11.64-1.15-24.62-4.6-28.79-7.5-6.12-4.27-2.65-27.49-2.2-33.53l5.83-78.14c.45-6,7.1-4.44,15.33-3.83h0c3.06,15.63.42,86.75,6.76,91.14,24.67,17.07,53.31,30.84,30.62,32.5C692.12,558.56,688.36,557.91,678.28,556.91Z"/><path class="cls-1" d="M524.17,360.68c-4.55,50.57,14.56,94.64-1.67,94.39-5.62-.09-22.66-55.7-11.35-105.2,10.94-47.89,20.48-64.83,26.1-64.74C557.17,285.43,528.72,310.1,524.17,360.68Z"/><path class="cls-2" d="M462.38,60.45c-22.93-8.7,61.13,39.79,129.9,31.79s134.16-36.6,131.19-62.15-18.77-37.37-87-25.38C569.51,16.48,506.15,77.05,462.38,60.45Z"/><ellipse class="cls-3" cx="718.9" cy="268.65" rx="203.79" ry="186.76"/><path class="cls-4" d="M759,451.78c93.34-17.07,163.68-92.57,163.68-183.13,0-103.14-91.24-186.76-203.79-186.76a217.46,217.46,0,0,0-99,23.49c46.11-14.91,99.17-13.25,148.88,8.55,102,44.72,145.14,146,95.34,256.57C846.31,410,800.23,435,759,451.78Z"/><path class="cls-5" d="M559.64,416.71c-4.81-4.81-13.67-9-20.54-10.09,2-1.51,3.12-3.15,3-4.77-.46-4.93-12.11-7.87-26-6.57s-24.82,6.36-24.35,11.29c.2,2.17,2.58,4,6.35,5.16C490,417,484.23,427.17,488.71,448c4.3,20,27.3,24.23,44.67,20.88,16.47-3.18,21.5-12.27,18.71-30.07,5.13,2.25,10.06,2.2,12.9-.64C569.45,433.75,567.06,424.12,559.64,416.71Z"/><path class="cls-1" d="M906.46,361.68c4.55,50.57-14.56,94.64,1.67,94.39,5.62-.09,22.66-55.7,11.35-105.2C908.54,303,899,286,893.38,286.13,873.46,286.43,901.91,311.11,906.46,361.68Z"/><path class="cls-5" d="M871,417.72c4.81-4.81,13.67-9,20.54-10.09-2-1.51-3.12-3.15-3-4.77.46-4.93,12.11-7.87,26-6.57s24.82,6.36,24.35,11.29c-.2,2.17-2.58,4-6.35,5.16,8.07,5.29,13.82,15.44,9.33,36.31-4.3,20-27.3,24.23-44.67,20.88-16.47-3.18-21.5-12.27-18.71-30.07-5.13,2.25-10.06,2.2-12.9-.64C861.18,434.75,863.57,425.13,871,417.72Z"/><path class="cls-1" d="M801.21,555.61c-11.7,0-24.94-2.23-29.37-4.73-6.5-3.67-5.26-27.11-5.38-33.17l-1.65-78.34c-.13-6.06,6.65-5.1,14.9-5.27h0c4.53,15.27,8.69,86.32,15.42,90.08,26.18,14.64,56,25.62,33.58,29.43C815.14,555.93,811.34,555.64,801.21,555.61Z"/><polygon class="cls-2" points="681.11 88.74 692.39 88.15 693.88 58.19 678.86 60.88 681.11 88.74"/><rect class="cls-6" y="555.64" width="3543.77" height="11.13"/></g></g></svg>