<?xml version="1.0" encoding="utf-8"?>
<!-- Generator: Adobe Illustrator 20.1.0, SVG Export Plug-In . SVG Version: 6.00 Build 0)  -->
<svg version="1.1" xmlns="http://www.w3.org/2000/svg" xmlns:xlink="http://www.w3.org/1999/xlink" x="0px" y="0px"
	 viewBox="0 0 3494 1718" style="enable-background:new 0 0 3494 1718;" xml:space="preserve">
<style type="text/css">
	.st0{fill:#FAFDFF;}
	.st1{fill:#FFF6AC;}
	.st2{fill:#DAE3E9;}
	.st3{fill:#B1BFC8;}
	.st4{fill:#2D2D2D;}
	.st5{fill:#FFFDEB;}
	.st6{fill:#BCBEC0;}
	.st7{fill:#D1D3D4;}
	.st8{fill:#FEE576;}
</style>
<g id="Layer_1">
</g>
<g id="Layer_3">
	<g>
		<rect x="-16.4" y="-14.6" class="st0" width="3527.3" height="1754.5"/>
		<polygon class="st1" points="1765.2,-19.5 1726.4,-19.5 -13.3,843.4 -13.3,992.6 1745.8,974 3504.8,992.6 3504.8,843.4 		"/>
		<rect x="-14.4" y="849" class="st2" width="3534.3" height="863.6"/>
		<rect x="-14.4" y="1561.2" class="st3" width="3534.3" height="178.4"/>
		<path class="st4" d="M1784.4,13c11.9,5.3-15.8,11.5-35,11.1c-19.2-0.4-44.6-7.1-34.5-12.5c12.3-6.7,15.8-11.5,35-11.1
			S1770.1,6.6,1784.4,13z"/>
		<path class="st5" d="M1881.8,286c0.7-38.1-36.9-93.8-64.7-126.3c-24.8-29.2-26.9-100-26.9-100c-7-36.6,5.2-39.3-17.8-42.2
			l-15.7-0.3l-6.2-0.1l-15.7-0.3c-28.8-0.6-14.5,8.4-26.3,41.4c0,0-4.7,72.3-30.7,100.5c-28.9,31.5-61.7,78.6-62.5,120.1
			c-1.4,71.5,48.1,114.9,127.9,119.3l0,0.1c1,0,2.1,0,3.1,0c1,0,2.1,0.1,3.1,0.1l0-0.1C1829.3,396.8,1880.5,357.6,1881.8,286z"/>
		<path class="st6" d="M1788.3,65.7l-80.5-1.6c-2.7-0.1-5-2.3-4.9-5.1l0.8-41c0.1-2.7,2.3-5,5.1-4.9l80.5,1.6c2.7,0.1,5,2.3,4.9,5.1
			l-0.8,41C1793.4,63.6,1791.1,65.8,1788.3,65.7z"/>
		<path class="st7" d="M1790.9,56.1l-84.9-1.6c-2.7-0.1-5-2.3-4.9-5.1l0.4-21.1c0.1-2.7,2.3-5,5.1-4.9l84.9,1.6
			c2.7,0.1,5,2.3,4.9,5.1l-0.4,21.1C1795.9,54,1793.7,56.2,1790.9,56.1z"/>
		<g>
			<g>
				<path class="st8" d="M1745.8,69c3.3,16.3,6.6,32.7,8.8,49.3c1.9,14.7,4.3,31.2,1.5,45.9c-2.4,12.6-16.3,30.3-30.2,18.9
					c-5.1-4.2-6-11.2-1.4-16.2c5.5-5.9,13.9-6,21-3.5c12.6,4.4,27.4,16.1,31.2,29.4c4.2,14.8-9.8,26-21.6,31.8
					c-6.4,3.1-13.5,5-20.7,4.8c-2.3-0.1-13.7-0.6-9-6.1c1.7-2,5.8-3,8.3-3.5c13.3-2.9,26.5,4.6,31.9,16.8c2.9,6.5,3.7,13.9,2.4,20.9
					c-1.5,7.9-5.6,14.8-8.4,22.2c-3.9,10.5-4.2,24.1,6.2,30.9c2.5,1.6,4.9-2.4,2.4-4c-17-11.1,2.4-35.6,4.6-49.3
					c2.2-14.4-3.5-30.4-16.4-38.1c-6.1-3.6-13.5-5.3-20.6-4.5c-5.4,0.6-14.3,3-16.6,8.7c-2.8,7,6.4,9.6,11.4,10.3
					c8.1,1.1,16.4-0.5,23.9-3.7c13.7-5.8,29.8-18.2,27.5-34.9c-2.2-15.7-18-28.5-31.6-34.6c-6.7-3.1-14.4-4.5-21.5-1.7
					c-5.9,2.3-11,7.2-12,13.6c-2.1,14.1,14.7,22.2,26.3,17.2c19.6-8.4,19.2-33.1,18.1-50.9c-1.5-23.9-6.2-47.4-10.9-70.8
					C1749.8,64.8,1745.3,66.1,1745.8,69L1745.8,69z"/>
			</g>
		</g>
	</g>
</g>
</svg>
