<svg xmlns="http://www.w3.org/2000/svg" viewBox="0 0 377.7 824.16"><defs><style>.cls-1{isolation:isolate;}.cls-2{fill:#81b4d4;}.cls-3{fill:#28180e;}.cls-4{fill:#acd9b4;}.cls-5{fill:#c12d27;}.cls-6{fill:#dd3b2e;}.cls-7{fill:#fcf9d1;}.cls-8{fill:#006951;opacity:0.24;mix-blend-mode:multiply;}.cls-9{fill:#fff8d3;}</style></defs><title>coke</title><g class="cls-1"><g id="Layer_2" data-name="Layer 2"><g id="drinks_and_fruits" data-name="drinks and fruits"><path class="cls-2" d="M377.7,806c0-9.91-76.67-15-173.39-15S30.39,792.24,30.39,802.15s70.27,23.93,175.34,21.79C302.41,822,377.7,815.92,377.7,806Z"/><path class="cls-3" d="M226.61,805.7c-22.21,18-53.11,18-96.9,18-52.25,0-94.39-4.65-102.6-24.7-8.55-20.9.95-38.95,15.9-69.25.7-1.42.11-3.15,0-4.7C40,645.6,6.75,521,.52,414.84-2.76,359,10.25,312,20,271.24c8-33.56,37.74-96.85,46.09-127.64,9.41-34.7,16-125.87,16-125.87h92.19s2.75,94.55,12.41,129.42c8.64,31.18,28.28,90.59,37.23,124.1,11.15,41.75,25.62,88.2,23,145.37-4.69,104.08-36.41,227.15-39,304.93-.07,2-.91,4.37.24,6.1C220.91,746.8,246.56,789.55,226.61,805.7Z"/><path class="cls-4" d="M186.66,147.15C177,112.28,174.26,17.73,174.26,17.73H82.07s-6.54,91.17-16,125.87c-1.64,6-4.1,13.34-7.06,21.41,22-2.51,47.28-4.93,62.93-4.93a583.5,583.5,0,0,1,69.79,4.66C189.84,158.27,188.1,152.31,186.66,147.15Z"/><rect class="cls-5" x="64.34" width="125.87" height="40.78" rx="20.39" ry="20.39"/><path class="cls-6" d="M240,465.5c-39.06-1.38-89.54-3-114.56-3-24.86,0-76.84,1.58-117.17,2.94C6,446.95,4.5,430.3,3.59,414.66.69,365.28,11,321.33,18.92,288.81c41.64-2.33,74.34-3.51,97.21-3.51,2.82,0,5.53,0,8.11.06,27.26.4,61.33,1.68,101.31,3.79,9.34,34.47,20.58,77.1,18.32,127.32C243.19,431.59,241.92,447.65,240,465.5Z"/><path class="cls-7" d="M116.13,288.38c2.84,0,5.55,0,8.07.06,26.71.39,60,1.63,99,3.67C232.33,326,243,367.62,240.8,416.34c-.64,14.25-1.81,29.34-3.56,46-38.65-1.36-87.35-2.87-111.8-2.87S50.91,461,11,462.3c-2-17.34-3.47-33-4.33-47.81-2.62-44.67,5-82.25,14.72-122.73,40.5-2.24,72.36-3.38,94.75-3.38m0-6.15c-27.36,0-65.24,1.7-99.66,3.64-9.06,37.28-18.85,79.65-16,129,1,17.52,2.8,35.55,5,53.79,43.77-1.49,95.11-3,119.88-3,25,0,75.1,1.57,117.3,3.07,2-17.67,3.43-35.11,4.2-52.05,2.27-50.44-8.73-92.53-19-130.41-33.34-1.78-71.25-3.44-103.65-3.92-2.6,0-5.32-.06-8.16-.06Z"/><path class="cls-8" d="M208.18,727.64c-1.15-1.73-.3-4.1-.24-6.1,2.59-77.78,34.32-200.85,39-304.93,2.57-57.17-11.9-103.62-23-145.37-7.46-28-22.37-73.92-32.12-106.5l-.67-2.25-.16-.55-1-3.31-.37-1.25-.43-1.47-.56-1.93-.31-1.09-.66-2.32-.23-.8-.73-2.62v0c-.49-1.75-1-3.66-1.4-5.7q-.33-1.5-.65-3.08-.45-2.22-.87-4.6-.19-1.08-.38-2.19c-.48-2.86-.94-5.86-1.38-9q-.38-2.73-.74-5.57-.28-2.24-.56-4.54l-.07-.57q-.27-2.29-.52-4.63l-.06-.54q-.26-2.39-.5-4.81-.15-1.46-.29-2.93c-.78-8.08-1.46-16.33-2-24.34q-.19-2.67-.37-5.3t-.34-5.19c-.16-2.57-.32-5.08-.46-7.54-.19-3.27-.37-6.43-.52-9.43-.12-2.25-.23-4.42-.33-6.48l0-.68a20.45,20.45,0,0,0,15.06-19.65h0A20.45,20.45,0,0,0,169.82,0h-49.4c-5.23,96.79,9,257.71,9,439.41,0,147.16-6.55,284.07-4.51,384.32h4.76c43.79,0,74.68-.07,96.9-18C246.56,789.55,220.91,746.8,208.18,727.64Z"/><path class="cls-9" d="M25.79,399.4h6.47v26.41H25.79Zm4.84,25.18V400.63H27.41v23.95ZM27.85,401h2.33v.22H27.85Zm0,.88h2.33v.22H27.85Zm0,.88h2.33V403H27.85Zm0,.88h2.33v.22H27.85Zm0,.88h2.33v.22H27.85Zm0,.88h2.33v.22H27.85Zm0,.88h2.33v.22H27.85Zm0,.88h2.33v.22H27.85Zm0,.88h2.33v.22H27.85Zm0,.88h2.33v.22H27.85Zm0,.88h2.33V410H27.85Zm0,.88h2.33v.22H27.85Zm0,.88h2.33v.22H27.85Zm0,.88h2.33v.22H27.85Zm0,.88h2.33v.22H27.85Z"/><path class="cls-9" d="M36.48,399.4h6.82l10.26,15.67V399.4H60v26.41H53.25L43,410.14v15.67H36.48Zm4.84,25.18V406H42l12.28,18.62h4.09V400.63H55.19V419H54.4l-12.11-18.4H38.11v23.95Zm-2.07-23.46H42l.18.22H39.39Zm.62.88H42.6l.18.22H40Zm.57.88h2.73l.18.22H40.58Zm.62.88h2.68l.18.22H41.19Zm.57.88h2.68l.18.22H41.76Zm.62.88h2.64l.18.22H42.38Zm.57.88h2.69l.18.22H43Zm.57.88h2.69l.18.22H43.53Zm.62.88h2.64l.18.22H44.14Zm.57.88h2.64l.18.22H44.71Zm.57.88H47.8l.18.22H45.29Zm.57.88h2.69l.18.22H45.86Zm.57.88H49l.18.22H46.43Zm.57.88h2.69l.18.22H47Zm.62.88h2.64l.18.22H47.62Zm.57.88H50.7l.18.22H48.19Zm.57.88h2.64l.18.22H48.76Zm.57.88h2.68l.18.22H49.34Zm3.26.88.18.22H49.91l-.13-.22Zm.57.88.18.22H50.53l-.13-.22Zm.57.88.18.22H51.1l-.13-.22Zm.66.88.18.22H51.67l-.13-.22Zm.62.88.22.22H52.24l-.13-.22Zm.66.88.22.22h-3l-.13-.22Zm.66.88.18.22h-3l-.13-.22Zm.66.88.22.22H54l-.13-.22Zm.62.79.22.22H54.49l-.13-.22Z"/><path class="cls-9" d="M68.92,405.12H63V399.4h18.4v5.72h-6v20.69H68.92Zm4.84,19.46V403.89h6v-3.26H64.61v3.26h5.94v20.69Zm-8.72-23.29H79.31v.22H65.05Zm0,.88H79.31v.22H65.05Zm0,.88H79.31v.22H65.05Z"/><path class="cls-9" d="M84.38,399.4h17.48v5.72h-11v4.75H101v5.63H90.85v4.75h11.49v5.55h-18Zm16.33,25.18V421.5H89.22v-7.22H99.39v-3.17H89.22v-7.22h11v-3.26H86v23.95Zm-13.91-.75h13.47V424H86.58Zm-.18-22.58H99.78v.22H86.84Zm.88.88H99.78v.22H87.72Zm.22,20.82h12.55v.22H87.5ZM88.38,403h11.4v.22H88.6Zm.26,19.06h11.62v.22H88.38Zm.57-10.39h9.73v.22H89.22Zm0,.88h9.73v.22H89.22Zm0,.88h9.73v.22H89.22Z"/><path class="cls-9" d="M105.46,399.4h11c5.68,0,9.38,3.43,9.38,8.41,0,4.62-2.33,7.22-6.25,8.19l7.13,9.82h-8.1l-6.74-9.86v9.86h-6.47Zm4.84,25.18v-9.46h2.91l6.47,9.46H124l-6.6-9.11v-.4c4.49-.53,6.82-2.77,6.82-7,0-4.53-3.35-7.44-7.75-7.44h-9.42v23.95Zm0-20.91H117a4.12,4.12,0,0,1,4.23,4.14,4.06,4.06,0,0,1-4,4.27H110.3Zm0-2.55h6.16l2.07.22h-8.23Zm0,.88h9.9l.35.22H110.35Zm0,.88h11.23l.22.22H110.35Zm0,9.68h11.89l-.22.22H110.35Zm0,.88h10.74l-.4.22H110.35Zm0,.88h8.58l-1.14.22h-7.44Zm6.78-3.48c1.45,0,2.42-1.5,2.42-3a2.79,2.79,0,0,0-2.6-2.91h-5v5.94Zm-3.35,4.36h3.13v.22h-3Zm.57.88h2.91l.22.22h-3Zm.62.88h3l.18.22h-3Zm.57.88h3l.22.22h-3.08Zm3.65.88.18.22h-3.08l-.13-.22Zm.62.88.22.22h-3.17l-.13-.22Zm.66.88.18.22h-3.17l-.13-.22Zm.62.88.22.22h-3.21l-.13-.22Zm.66.88.18.22h-3.21l-.13-.22Zm.66-18.49.18.22H119.5l-.48-.22Zm0,19.37.22.22h-3.26l-.13-.22Zm-2.64-11.45h3.21l-.18.22h-3.39ZM123,424l.13.22h-3.21l-.13-.22Zm0-19.37.09.22H120.6l-.31-.22Zm-2.33,6.16h2.73l-.13.22h-2.82Zm.31-5.28h2.42l.09.22h-2.38Zm.22,4.4h2.47l-.09.22H121Zm.22-3.52h2.25v.22h-2.11Zm0,2.64h2.29v.22H121.4Zm.13-1.76h2.2v.22h-2.2Zm0,.88h2.2v.22h-2.2Z"/><path class="cls-9" d="M126.06,399.4h6.74l5.33,12.72,5.33-12.72h6.74l-11.67,27.29h-.79ZM148,400.63h-3.34l-6.16,14.7h-.66l-6.21-14.7h-3.35l9.86,23Zm-19.06.48h2.38l.09.22h-2.33Zm.35.88h2.38l.09.22h-2.33Zm.4.88H132l.09.22H129.8Zm.35.88h2.38l.09.22h-2.33Zm.4.88h2.38l.09.22h-2.33Zm.4.88h2.33l.09.22h-2.29Zm.35.88h2.38l.09.22H131.3Zm.4.88h2.33l.09.22H131.7Zm.4.88h2.33l.09.22h-2.29Zm.35.88h2.33l.09.22h-2.29Zm.4.88H135l.09.22h-2.29Zm.35.88h2.33l.09.22h-2.29Zm.4.88h2.33l.09.22h-2.29Zm.35.88h2.33l.09.22h-2.29Zm.4.88h2.29l.09.22h-2.25Zm.4.88h2.24l.09.22h-2.2Zm.35.88h2.29l.09.22h-2.24Zm.4.88h2.24l.09.22h-2.2Zm.35.88H138l.09.22h-2.24Zm.4.88h2.25l.09.22h-2.2Zm.4.88h2.2l.09.22h-2.16Zm2.55.88.09.22H137l-.13-.22Zm0,.88-.13.22h-1.5l-.13-.22Zm-.4.88-.13.22h-.7l-.13-.22Zm-.35.88-.09.18-.09-.18Z"/><path class="cls-9" d="M152.74,399.4h6.47v26.41h-6.47Zm4.84,25.18V400.63h-3.21v23.95ZM154.81,401h2.33v.22h-2.33Zm0,.88h2.33v.22h-2.33Zm0,.88h2.33V403h-2.33Zm0,.88h2.33v.22h-2.33Zm0,.88h2.33v.22h-2.33Zm0,.88h2.33v.22h-2.33Zm0,.88h2.33v.22h-2.33Zm0,.88h2.33v.22h-2.33Zm0,.88h2.33v.22h-2.33Zm0,.88h2.33v.22h-2.33Zm0,.88h2.33V410h-2.33Zm0,.88h2.33v.22h-2.33Zm0,.88h2.33v.22h-2.33Zm0,.88h2.33v.22h-2.33Zm0,.88h2.33v.22h-2.33Z"/><path class="cls-9" d="M163.43,399.4h17.48v5.72h-11v4.75h10.17v5.63H169.91v4.75H181.4v5.55h-18Zm16.33,25.18V421.5H168.28v-7.22h10.17v-3.17H168.28v-7.22h11v-3.26H165.06v23.95Zm-13.91-.75h13.47V424H165.64Zm-.18-22.58h13.16v.22H165.9Zm.88.88h12.28v.22H166.78Zm.22,20.82h12.55v.22H166.56Zm.66-19.94h11.4v.22H167.66Zm.26,19.06h11.62v.22H167.44Zm.57-10.39H178v.22h-9.73Zm0,.88H178v.22h-9.73Zm0,.88H178v.22h-9.73Z"/><path class="cls-9" d="M182.85,399.4h6.78L195,411.85l3.21-8.28-1.67-4.18h6.69l5.28,12.41,4.84-12.41H220l-11,27.29h-.88l-6.52-15.23-6.29,15.23h-.84Zm18.49,8.8H202l6.6,15.5,9.33-23.07h-3.35l-5.63,14.31h-.7L202,400.63h-3.3l1.14,2.91-4.31,11.31h-.88l-6.21-14.22H185l9.86,23Zm-15.63-7.09h2.42l.09.22h-2.38Zm.35.88h2.47l.09.22h-2.42Zm.4.88h2.46l.09.22h-2.42Zm.35.88h2.51l.09.22h-2.46Zm.4.88h2.47l.09.22h-2.42Zm.35.88h2.51l.09.22h-2.46Zm.4.88h2.51l.09.22h-2.46Zm.4.88h2.47l.09.22h-2.42Zm.4.88h2.46l.09.22h-2.42Zm.35.88h2.51l.09.22h-2.46Zm.4.88H192l.09.22h-2.42Zm.35.88h2.51l.09.22H190Zm.4.88h2.47l.09.22h-2.42Zm.35.88h2.51l.09.22h-2.46Zm.4.88h2.51l.09.22h-2.47Zm.35.88h2.51l.09.22h-2.47Zm.4.88h2.51l.09.22h-2.46Zm.4.88h2.51l.09.22h-2.47Zm.35.88H195l.09.22h-2.47Zm.4.88h2.51l.09.22H193Zm.35.88h2.55l.09.22h-2.51Zm2.82.88-.09.22h-2.2l-.13-.22Zm-.35.88-.09.22h-1.5l-.13-.22Zm-.35.88-.09.22h-.75l-.13-.22Zm-.35.88-.09.26-.13-.26Zm4.36-21.13h2.33l.09.22h-2.29Zm.35.88h2.38l.09.22h-2.33Zm.4.88h2.38l.09.22h-2.33Zm.35.88h2.42l.09.22h-2.38Zm.4.88h2.38l.09.22H201Zm.4.88h2.38l.09.22h-2.33Zm.35.88H204l.09.22h-2.33Zm.35.88h2.42l.09.22h-2.38Zm.4.88h2.42l.09.22h-2.38Zm.4.88h2.42l.09.22h-2.38Zm.35.88h2.42l.09.22h-2.38Zm.4.88h2.42l.09.22h-2.38Zm.35.88h2.46l.09.22H204Zm2.86.88.09.22h-2.42l-.13-.22Zm.35.88.09.22h-2.42l-.13-.22Zm.4.88.09.22h-2.42l-.13-.22Zm.4.88.09.22h-2.42l-.13-.22Zm.35.88.09.22h-2.38l-.13-.22Zm.4.88.09.22h-2.42l-.13-.22Zm.4.88.09.22h-2.42l-.13-.22Zm.35.88.09.22H207l-.13-.22Zm.4.88-.09.22h-2.24l-.13-.22Zm-.35.88-.13.22h-1.5l-.13-.22Zm-.35.88-.13.22h-.75l-.13-.22Zm-.35.88-.13.26-.13-.26Z"/><path class="cls-9" d="M57.94,368.34H57.8c-6.3,9.32-14.1,16.75-25.19,16.75-12.52,0-18.61-7.89-18.61-16,0-8.67,6.3-17.73,18.61-17.73a13.17,13.17,0,0,1,7.16,2,4.36,4.36,0,0,1-.5-2.15c0-10.49,16.53-17.4,32.06-17.4.86,0,1.79.06,2.65.13A19,19,0,0,1,83.49,331c4.37,0,7.59,1.82,7.59,2.48,0,.26-.21.33-.64.33-.64,0-1.72-.13-2.86-.13a13.33,13.33,0,0,0-6.37,1.63c7.37,2.48,11.31,7.82,11.31,13.49C92.5,358.11,81.77,368.34,57.94,368.34ZM69.1,336.8c-10.38-.07-23.83,5.08-23.83,12,0,1.11.93,2,2.58,2a4.37,4.37,0,0,0,4.29-4c0-.85.21-1.11.57-1.11s.72.33.72,1.11c0,6.45-4.44,9.32-8.3,9.32a8.2,8.2,0,0,1-2.86-.52,11.26,11.26,0,0,1,2.36,7c0,5.93-4,12-10.95,12-1.65,0-2.93-.46-2.93-.85s1-.26,2.93-1.37a14.09,14.09,0,0,0,5.15-10.82,7.16,7.16,0,0,0-7.37-7.43c-7.37,0-11.52,7.17-11.52,13.82A10.6,10.6,0,0,0,31,379c12,0,19-15.77,24.62-25.35,3.29-5.47,8.23-12.12,14-16.75Zm8.09,1.43c-4.87,4.63-9,12.19-13.53,20.4-1,1.89-2.07,3.78-3.22,5.6,15.74-.33,23-9.58,23-17.21C83.49,343.31,81.48,340.06,77.19,338.23Z"/><path class="cls-9" d="M110.67,384.31c-5,0-6.15-5.41-6.37-5.41s-5.44,6-11.38,6c-3.94,0-7.8-2.93-7.8-8.73,0-9.58,12.45-24.7,24.19-24.7,5.8,0,6.3,4.5,6.51,4.5s4.15-4.24,5.44-4.24a5.42,5.42,0,0,1,2.07.39c.72.13,1.79.26,1.79,1.17,0,3.58-12.59,19.75-12.59,23.79a1,1,0,0,0,1.07,1.11c4.58,0,12.09-11.53,12.81-11.53s.93,1.11.93,2.35S116.9,384.31,110.67,384.31ZM108.24,355c-5.8,0-14.17,13.62-14.17,20,0,2.09.79,3.26,2.22,3.26,1.86,0,6.87-3.13,6.87-4.37,0-.52-1.5-.65-2.08-.65v-.52c1.86-.46,10.09-8.15,10.09-14.14C111.18,356.61,110,355,108.24,355Z"/><path class="cls-9" d="M144.52,384.7c-3.36,0-6.58-2.41-6.58-5.8,0-7.43,7.51-18,9.38-20.33l-.29-.13a129.31,129.31,0,0,0-15.67,16.88c-3.94,5.47-5.37,9.32-6.87,9.32s-4.58-2-4.58-4.37c0-3.06,13.67-29.13,16.82-29.13,1.07,0,4.94.85,4.94,2.67,0,1.63-2.43,6.45-2.79,7.56l.07.06c1.29-1.17,9.45-9.84,13.38-9.84,2.65,0,6.08,1.63,6.08,2.8,0,1.76-.86,2.87-1.86,4.63s-9,15.05-9,17.86c0,.78.21,1.37,1.65,1.37,3.72,0,11.52-11.67,12.17-11.67s.93,1.11.93,2.22C162.27,370.69,151.53,384.7,144.52,384.7Z"/><path class="cls-9" d="M167,385c-4.87,0-8.66-4.5-8.66-9.84,0-8.28,10.73-23.14,20.32-23.14,2.58,0,3.94-.72,5.44-.72,2.29,0,4.44,2.41,4.44,5,0,4.89-7.94,13.36-19.46,13.36a2.18,2.18,0,0,1-.64-.06,13.07,13.07,0,0,0-1.5,5.34c0,2.87,1.14,4.69,3.79,4.69,9.52,0,17.39-12.9,18.25-12.9s.86,1.17.86,2.15C189.82,371.21,178.87,385,167,385Zm15-29.91c-2.5,0-8.16,5.47-11.74,11.21,5.65-1.11,13-6.39,13-10.1C183.23,355.5,182.8,355.11,181.94,355.11Z"/><path class="cls-9" d="M194.89,372.64a17.51,17.51,0,0,0-1.07,5.28,2.61,2.61,0,0,0,2.79,2.28c6.8,0,15.53-13.56,16.32-13.56s.93,1.43.93,2.15c0,2.28-11.09,15.9-20.32,15.9-4.22,0-8.37-4.11-8.37-7.17,0-10.43,19.47-42,33.28-42,2.79,0,5,1.5,5,2.54C223.45,340.77,207.2,366.58,194.89,372.64ZM217.58,341c-1.07,0-12.88,13.1-19.47,24.76,7.73-5.73,19.68-23.4,19.68-24.57C217.79,341,217.65,341,217.58,341Z"/></g></g></g></svg>