<svg xmlns="http://www.w3.org/2000/svg" viewBox="0 0 584.83 1127.99"><defs><style>.cls-1{isolation:isolate;}.cls-2{fill:#81b4d4;}.cls-3{fill:#face41;}.cls-4{fill:#fff7e2;}.cls-5{fill:#f7941d;}.cls-6{fill:#f15a29;opacity:0.15;mix-blend-mode:multiply;}.cls-7{fill:#009444;}</style></defs><title>orangejuice</title><g class="cls-1"><g id="Layer_2" data-name="Layer 2"><g id="drinks_and_fruits" data-name="drinks and fruits"><path class="cls-2" d="M584.83,1098.76c0-16-83.84-24.24-189.6-24.24s-190.18,2-190.18,18,76.84,38.56,191.74,35.1C502.5,1124.45,584.83,1114.72,584.83,1098.76Z"/><path class="cls-3" d="M400.89,1128H87.59c-17.34,0-31.39-15.62-31.39-34.9,0,0-56.2-204.79-56.2-452.87,0-91.05,105.91-261.63,105.91-314.77C105.91,286.1,88.62,138,88.62,138c0-19.27,60.47-40.85,77.81-40.85H317.17c17.34,0,82.69,16.77,82.69,36,0,0-21.61,148.69-21.61,187.42,0,53.63,99.91,225.15,99.91,317.17,0,248.58-45.87,455.27-45.87,455.27C432.28,1112.34,418.23,1128,400.89,1128Z"/><path class="cls-4" d="M20.24,664.66c0-128,99.1-231.68,221.35-231.68S462.93,536.7,462.93,664.66,449.74,898,241.59,896.34C25.71,894.63,20.24,792.61,20.24,664.66Z"/><polygon class="cls-5" points="393.02 97.18 95.23 96.29 82.75 0 401.94 0.89 393.02 97.18"/><path class="cls-5" d="M241.83,558.72c70.59,0,131.7-21.29,161.39-52.32C362.83,461.22,305.36,433,241.59,433s-121,28.13-161.4,73.16C109.78,537.3,171,558.72,241.83,558.72Z"/><path class="cls-6" d="M401.94.89,212,.36c1.26,27.13,4.52,59.38,8.64,96.31l172.4.52Z"/><path class="cls-6" d="M399.86,133.21c0-19.27-65.36-36-82.69-36H220.68C233.1,208.3,253.3,361.68,250.47,545.53,246.81,783.16,183,998.61,146.93,1128h254c17.34,0,31.39-15.62,31.39-34.9,0,0,45.87-206.69,45.87-455.27,0-92-99.91-263.54-99.91-317.17C378.25,281.9,399.86,133.21,399.86,133.21Z"/><path class="cls-7" d="M61.75,614.68c12.08,0,14.58,10.14,14.58,15.17,0,22.83-28.8,26.16-28.8,36.89,0,7.16,2.58,17.55,2.58,18.06,0,1-1.69.77-2.21.77h-9.8c-1.84,0-4.05,1.62-4.05-30.33,0-42.09,3.83-40.56,5.08-40.56Zm2.65,17.89c0-5.88-4.42-7.84-8.84-7.84-5.3,0-9.65.94-9.58,20.53,0,2,.15,3.92,2.28,3.92C52.1,649.19,64.4,638.71,64.4,632.58Z"/><path class="cls-7" d="M83.85,685.57c-2.73,0-4.05,2.64-4.05-25.56,0-23.6-.59-28.88,1.47-29h6.11c1.11,0,2.43-.43,2.5,1.19.15,1.28.29,2.9,1.77,2.9,1.1,0,2.36-1.36,3.9-2.73s3.31-2.64,5.3-2.64c3.76,0,6.85,3.75,6.85,8.35,0,6-4.2,9.54-6.41,9.54-.88,0,.15-5.71-4.93-5.71-6.19,0-6.63,11.5-6.63,16.62,0,17,2.5,24.11,2.5,25.65-.07,1.36-1.69,1.36-2.5,1.36Z"/><path class="cls-7" d="M108.82,660.61c0-20.62,9.87-30.84,19.74-30.84,8.1,0,15,5.28,15,15.34,0,18.32-23.72,14.49-23.72,23.35,0,4,5.6,6.9,9.28,6.9,12.08,0,12.08-10.65,13.11-10.65s1.33,4.43,1.33,5.11c0,10.82-7.22,17-16.06,17C114.27,686.85,108.82,674.24,108.82,660.61Zm9.94-8.44c0,.94.37,1.87,1.33,1.87s14.29-3.41,14.29-7.75a6.34,6.34,0,0,0-6.19-6.48C122.22,639.82,118.76,647.23,118.76,652.17Z"/><path class="cls-7" d="M148.81,671.6c0-4,1.77-9.12,2.36-9.12.37,0,2.21,12.87,12.67,12.87,3,0,6.55-1.79,6.55-6.13,0-8.78-19.89-6.48-19.89-23.43,0-10.39,7.22-16,15.17-16,9.21,0,14.29,6.39,14.29,8.09s-4.12,8.52-5.82,8.52c-1.92,0-2.36-6.56-9.13-6.56-2.28,0-5.38,1.19-5.38,3.75,0,8.78,21.51,8.61,21.51,25.9,0,11.08-8,17.38-16.79,17.38C156.54,686.85,148.81,681.57,148.81,671.6Z"/><path class="cls-7" d="M185.57,660.61c0-20.62,9.87-30.84,19.74-30.84,8.1,0,15,5.28,15,15.34,0,18.32-23.72,14.49-23.72,23.35,0,4,5.6,6.9,9.28,6.9,12.08,0,12.08-10.65,13.11-10.65s1.33,4.43,1.33,5.11c0,10.82-7.22,17-16.06,17C191,686.85,185.57,674.24,185.57,660.61Zm9.94-8.44c0,.94.37,1.87,1.33,1.87s14.29-3.41,14.29-7.75a6.34,6.34,0,0,0-6.19-6.48C199,639.82,195.51,647.23,195.51,652.17Z"/><path class="cls-7" d="M248.83,685.57c-1,0-2.58.26-2.58-1.36A118.18,118.18,0,0,0,250,654.73c0-6-.44-13.63-5.45-13.63-2.8,0-8.54,2.13-8.54,19,0,10.22,2.14,23.35,2.14,24.37,0,1.19-1.25,1.11-2,1.11h-6.26c-2.72,0-3.83,1.45-3.83-21,0-38.6,2.58-36.21,8.25-36.21,2.58,0,5.23-.43,5.23,1.53,0,.85-.66,1.87-.66,3.07,0,.85.37,1.62,1.1,1.62,1.25,0,4.64-3.49,9.35-3.49,2.06,0,10.61.34,10.61,22.75,0,33.49-2.28,31.78-4.79,31.78Z"/><path class="cls-7" d="M284,620.39c0,2.3-2.21,7.5-2.21,8.52,0,1.53.37,2.56,1.47,2.56s1.84-.43,2.8-.43c2.8,0,2.87,2.3,2.87,5.2,0,1.19,0,4.43-1.55,4.43-.59,0-2.06-.77-3.39-.77-4.05,0-4.05,5.45-4.05,13,0,22.67,4.13,26.41,4.13,27.86,0,1.28-8.54,6-10.24,6-2.8,0-3.54-19-3.54-23.69,0-10.48.44-14.57.44-16.19,0-2.56.66-7.07-2.65-7.07-1.33,0-2.06,1-2.87,1s-.88-1.11-.88-2.64c0-6.48,1.62-7.24,4.42-7.24a9.67,9.67,0,0,0,1.4.34c2.28,0,2.5-4.17,2.87-7.16.37-3.24,8.62-5.62,10.09-5.62C283.6,618.6,284,618.77,284,620.39Z"/><path class="cls-7" d="M309.89,650.13c2.14-.43,3.83-.85,3.83-3.66,0-4.35-3.9-6.65-7.14-6.65-7.51,0-6.41,7.33-8,7.33-2.36,0-4.94-3.32-4.94-7,0-6.31,6.11-10.4,12.89-10.4,2.36,0,12.45-.08,16.2,11.84,1.55,4.94,1.69,30.16,1.69,33.14,0,3.75.59,6,.59,8.86,0,1.79-6.92,2-13.48,2-17.75,0-19-10.57-19-15.68C292.51,659.16,301.64,651.75,309.89,650.13ZM314.46,665c0-3,.44-6.56-3.09-6.56-4.35,0-8.91,4.26-8.91,9.46a7.34,7.34,0,0,0,7.51,7.58c4.35,0,4.49-2.56,4.49-6.73Z"/><path class="cls-7" d="M349,620.39c0,2.3-2.21,7.5-2.21,8.52,0,1.53.37,2.56,1.47,2.56s1.84-.43,2.8-.43c2.8,0,2.87,2.3,2.87,5.2,0,1.19,0,4.43-1.55,4.43-.59,0-2.06-.77-3.39-.77-4.05,0-4.05,5.45-4.05,13,0,22.67,4.13,26.41,4.13,27.86,0,1.28-8.54,6-10.24,6-2.8,0-3.54-19-3.54-23.69,0-10.48.44-14.57.44-16.19,0-2.56.66-7.07-2.65-7.07-1.33,0-2.06,1-2.87,1s-.88-1.11-.88-2.64c0-6.48,1.62-7.24,4.42-7.24a9.67,9.67,0,0,0,1.4.34c2.28,0,2.5-4.17,2.87-7.16.37-3.24,8.62-5.62,10.09-5.62C348.64,618.6,349,618.77,349,620.39Z"/><path class="cls-7" d="M362.41,685.57c-3.61,0-3.9,1.79-3.9-28.2,0-29.14,1.18-26.33,3.61-26.33h4.05c3.09,0,3.17.26,3.17,1.28,0,3.15-.88,6.3-.88,15.59a204.73,204.73,0,0,0,2.87,35.45c0,2.73-2.21,2.22-3.9,2.22Zm-3.09-66.8a5.68,5.68,0,1,1,11.34,0,5.67,5.67,0,0,1-11.34,0Z"/><path class="cls-7" d="M376.26,658.22c0-13.72,5.67-28.46,18.49-28.46s18.49,14.74,18.49,28.46c0,20-10,28.63-18.49,28.63S376.26,678.25,376.26,658.22Zm27.84-2.13c0-6.73-2.06-16.27-9.35-16.27s-9.35,9.54-9.35,16.27,1.92,16.53,9.35,16.53S404.1,662.91,404.1,656.09Z"/><path class="cls-7" d="M440.93,685.57c-1,0-2.58.26-2.58-1.36a118.18,118.18,0,0,0,3.76-29.48c0-6-.44-13.63-5.45-13.63-2.8,0-8.54,2.13-8.54,19,0,10.22,2.14,23.35,2.14,24.37,0,1.19-1.25,1.11-2,1.11H422c-2.72,0-3.83,1.45-3.83-21,0-38.6,2.58-36.21,8.25-36.21,2.58,0,5.23-.43,5.23,1.53,0,.85-.66,1.87-.66,3.07,0,.85.37,1.62,1.1,1.62,1.25,0,4.64-3.49,9.35-3.49,2.06,0,10.61.34,10.61,22.75,0,33.49-2.28,31.78-4.79,31.78Z"/><path class="cls-7" d="M81.12,772.67c-1.93,0-4.24,1.58-4.24-29.55,0-41,4-39.5,5.32-39.5h8.32c1,0,2.93-.25,2.93,1.33,0,.83-4.08,14.69-4.08,30.71a171.6,171.6,0,0,0,3.85,36.1c0,.83-.46.91-1.16.91H81.12Z"/><path class="cls-7" d="M124.66,772.67c-1,0-2.7.25-2.7-1.33a107.73,107.73,0,0,0,3.93-28.72c0-5.89-.46-13.28-5.7-13.28-2.93,0-8.94,2.08-8.94,18.51,0,10,2.24,22.74,2.24,23.74,0,1.16-1.31,1.08-2.08,1.08h-6.55c-2.85,0-4,1.41-4-20.5,0-37.6,2.7-35.27,8.63-35.27,2.7,0,5.47-.42,5.47,1.49,0,.83-.69,1.83-.69,3,0,.83.38,1.58,1.16,1.58,1.31,0,4.86-3.4,9.79-3.4,2.16,0,11.1.33,11.1,22.16,0,32.62-2.39,31-5,31Z"/><path class="cls-7" d="M161.42,709.18c0,2.24-2.31,7.3-2.31,8.3,0,1.49.39,2.49,1.54,2.49,1,0,1.93-.42,2.93-.42,2.93,0,3,2.24,3,5.06,0,1.16,0,4.32-1.62,4.32-.62,0-2.16-.75-3.55-.75-4.24,0-4.24,5.31-4.24,12.7,0,22.08,4.32,25.73,4.32,27.14,0,1.24-8.94,5.89-10.71,5.89-2.93,0-3.7-18.51-3.7-23.07,0-10.21.46-14.19.46-15.77,0-2.49.69-6.89-2.77-6.89-1.39,0-2.16,1-3,1-1,0-.92-1.08-.92-2.57,0-6.31,1.7-7.05,4.62-7.05a10.79,10.79,0,0,0,1.46.33c2.39,0,2.62-4.07,3-7,.38-3.15,9-5.48,10.56-5.48C161,707.43,161.42,707.6,161.42,709.18Z"/><path class="cls-7" d="M169.43,748.35c0-20.08,10.33-30,20.66-30,8.48,0,15.65,5.15,15.65,14.94,0,17.84-24.82,14.11-24.82,22.74,0,3.9,5.86,6.72,9.71,6.72,12.64,0,12.64-10.37,13.72-10.37s1.39,4.32,1.39,5c0,10.54-7.55,16.6-16.8,16.6C175.14,773.91,169.43,761.63,169.43,748.35Zm10.41-8.22c0,.91.38,1.83,1.39,1.83s15-3.32,15-7.55a6.41,6.41,0,0,0-6.47-6.31C183.46,728.1,179.84,735.32,179.84,740.13Z"/><path class="cls-7" d="M216.14,772.67c-2.85,0-4.24,2.57-4.24-24.9,0-23-.62-28.13,1.54-28.22h6.4c1.16,0,2.54-.42,2.62,1.16.15,1.24.31,2.82,1.85,2.82,1.16,0,2.47-1.33,4.08-2.66s3.47-2.57,5.55-2.57c3.93,0,7.17,3.65,7.17,8.13,0,5.81-4.39,9.3-6.71,9.3-.93,0,.15-5.56-5.16-5.56-6.47,0-6.94,11.2-6.94,16.18,0,16.52,2.62,23.49,2.62,25-.08,1.33-1.77,1.33-2.62,1.33Z"/><path class="cls-7" d="M280.49,719.55c2.7,0,3.24,0,3.24,4.73,0,34.86-16.72,49.63-19.27,49.63-1.77,0-17.26-13.94-17.26-51.79,0-2.41.31-2.57,2.39-2.57h5.93c1.08,0,3.31-.42,3.31,1.33,0,1.91-.39,3.65-.39,7.3,0,20.42,5.63,28.47,7.4,28.47,2.7,0,7.71-11.37,7.71-27.55,0-2.9-.46-5.23-.46-7.8,0-1.91.77-1.74,2.31-1.74Z"/><path class="cls-7" d="M293,772.67c-3.78,0-4.08,1.74-4.08-27.47,0-28.38,1.23-25.64,3.78-25.64h4.24c3.24,0,3.31.25,3.31,1.25,0,3.07-.92,6.14-.92,15.19a186.08,186.08,0,0,0,3,34.52c0,2.66-2.31,2.16-4.08,2.16Zm-3.24-65.07a5.94,5.94,0,0,1,11.87,0c0,3.57-2.85,5.48-5.93,5.48S289.73,711.17,289.73,707.6Z"/><path class="cls-7" d="M307.46,748.35c0-20.08,10.33-30,20.66-30,8.48,0,15.65,5.15,15.65,14.94,0,17.84-24.82,14.11-24.82,22.74,0,3.9,5.86,6.72,9.71,6.72,12.64,0,12.64-10.37,13.72-10.37s1.39,4.32,1.39,5c0,10.54-7.55,16.6-16.8,16.6C313.16,773.91,307.46,761.63,307.46,748.35Zm10.41-8.22c0,.91.38,1.83,1.39,1.83s15-3.32,15-7.55a6.41,6.41,0,0,0-6.47-6.31C321.49,728.1,317.86,735.32,317.86,740.13Z"/><path class="cls-7" d="M396.7,719.55c3.08,0,3.62-.17,3.62,8.22,0,30.13-15.18,46.14-17,46.14-2.16,0-6.24-9-7.17-11.12-.23-.5-1.77-4.65-2.7-4.65-.77,0-1.7,2.24-2,2.9-.85,1.91-6.24,12.86-8.4,12.86-2.39,0-15.11-17.93-15.11-45.31,0-10,1.23-9,4.24-9h6.09c.92.08,1.77,0,1.77,1.25a49.31,49.31,0,0,0-.85,10.29c0,14.19,3.62,25.23,4.93,25.23s6.55-5.56,6.32-26.56c0-3-.46-7.55-.46-8.88,0-1,.31-1.33,1.16-1.33h7.63c.69.08,1.7-.08,1.7,1.16,0,1-.69,6.22-.69,10.54,0,15.52,3.7,25.06,5.32,25.06,1.85,0,5.7-11.78,5.7-24.15,0-5.48-1-9.21-1-11.37,0-1.49,1.7-1.25,2.7-1.25Z"/></g></g></g></svg>