<svg xmlns="http://www.w3.org/2000/svg" viewBox="0 0 377.67 481.17"><defs><style>.cls-1{fill:#81b4d4;}.cls-2{fill:#bcbec0;}.cls-3{fill:#39b54a;}.cls-4{fill:#009444;}.cls-5{fill:#0963af;}.cls-6{fill:#184890;}.cls-7{fill:#a7a9ac;}.cls-8{fill:#fff200;}.cls-9{fill:#feda00;}.cls-10{fill:#fff;}.cls-11{fill:#3855a6;}.cls-12{fill:#d1d3d4;}</style></defs><title>sprite</title><g id="Layer_2" data-name="Layer 2"><g id="Layer_14" data-name="Layer 14"><path class="cls-1" d="M377.67,455.63c0-16.85-74.32-30.5-166-30.5s-166,13.66-166,30.5S121.35,481.17,213,481.17,377.67,472.48,377.67,455.63Z"/><rect class="cls-2" x="59" y="452" width="177" height="26"/><path class="cls-3" d="M293,411.94A52.21,52.21,0,0,1,240.94,464H56.14C27.5,464,0,403.72,0,375.11L4.06,73A52.2,52.2,0,0,1,56.14,21H240.94A52.21,52.21,0,0,1,293,73.06Z"/><path class="cls-4" d="M226.52,14H148V470h78.52A70.69,70.69,0,0,0,297,399.52v-315A70.69,70.69,0,0,0,226.52,14Z"/><path class="cls-5" d="M226.52,470A70.69,70.69,0,0,0,297,399.52V84.05a69.91,69.91,0,0,0-8.14-32.76c-9.42,105.87-65.31,205.37-160.62,265.45A342.61,342.61,0,0,1,0,365.3v34.22A70.69,70.69,0,0,0,70.48,470Z"/><path class="cls-6" d="M296.87,80c0-.41-.06-.81-.09-1.21-.07-1-.16-1.91-.27-2.86,0-.37-.09-.74-.14-1.1q-.21-1.53-.48-3.05c-.06-.36-.12-.71-.19-1.07-.24-1.21-.5-2.4-.79-3.59l-.05-.23A69.73,69.73,0,0,0,292.35,59c-.06-.16-.13-.31-.18-.47-.41-1.1-.89-2.18-1.37-3.25l-.2-.44q-.83-1.81-1.76-3.56h0C280.08,149.41,231.24,242,148,302.91V470h78.52A70.69,70.69,0,0,0,297,399.52V84.05C297,82.69,297,81.34,296.87,80Z"/><path class="cls-7" d="M267.09,26.92C266.77,37.33,213.26,44,148.41,44s-116.94-7.86-117-18.28c-.08-23.48,59.22-8.2,117.42-11.69C243.9,8.36,267.68,7.7,267.09,26.92Z"/><ellipse class="cls-2" cx="148.5" cy="19" rx="117.5" ry="19"/><circle class="cls-8" cx="149" cy="242" r="106"/><path class="cls-9" d="M254,242.27a106,106,0,0,0-106-106v212A106,106,0,0,0,254,242.27Z"/><path class="cls-10" d="M38,286.53c0-13,10.75-20.42,42.85-25.79,9.54-24.31,23.1-61.25,33.72-82.07-17.33,8.06-30.09,16.25-41.51,27.67-10.34,10.34-17.46,27-17.46,37.07,0,4.43,1.21,7.79,4,9.27,10.61-7.52,19.61-35.86,19.88-45.67a6.28,6.28,0,0,1,2.28-.4c3.09,0,6.31,2.15,6.31,9.4,0,15.18-11.69,41.37-27.27,41.37-11.82,0-16.25-9.27-16.25-20.15,0-27.4,23.64-45.27,51.58-56.28,7.12-2.82,14.1-5.24,21.49-7.92,4-7,10.48-15.85,15.31-15.85,3.22,0,7.39,4.43,7.39,8.6,0,5.51-10.75,8.33-16.12,9.4-7.92,21-18.27,53.19-27,77.37a121.83,121.83,0,0,0,9.4-9.27,3.09,3.09,0,0,1,3,3.36c0,6.45-9.67,10.21-14.64,12.22-2.28,6.45-4.57,12-6.45,16.25C80.18,293.78,73.06,302.78,58,302.78,45.12,302.78,38,295,38,286.53Zm12.36-1.48c0,5.91,3.36,11.55,9.27,12.49,8.33-5.1,14.64-20.69,19.07-31.43-16,6.45-28.48,9.94-28.48,18.94Z"/><path class="cls-10" d="M111.48,258.46c0-8.19,3.22-19.34,8.06-29.42,4.57-9.81,9.4-19.34,17.87-19.34,2.82,0,4.16.81,4.83,2.28-9,13.83-18.8,40.83-18.8,52.25,0,3.49.94,4.84,2.55,5.78,7.52-6.85,23.1-40.43,22.7-59.77-7.12-1.21-12-3.49-12-6,0-3.76,3.49-7.39,6.58-7.39,5.64,0,13.16,4.84,16.12,10.75.94,0,1.88.13,2.82.13,8.19,0,15.31-3.49,19.21-13.84,1.21-.27,2.28.54,2.28,2.15,0,5.64-5.91,15.45-19.88,15.45h-3.09c0,12.36-9.27,39.89-19.21,54-5,7.12-11,9.81-15.58,9.81C117.39,275.25,111.48,269.47,111.48,258.46Z"/><path class="cls-10" d="M158.36,259c0-10.21,3.9-25.92,9.81-42.31,10.07-27.8,23.1-54.8,41-54.8,7.39,0,11.15,4.57,11.15,9.27,0,13.16-25,61.25-46.34,67.43-2.15,8.19-3.49,15.31-3.63,21.09-.13,4.16.54,7.39,2,9.54,5.64-2.82,13.43-12.63,13.43-23.51a15.82,15.82,0,0,0-1.88-7.39,5,5,0,0,1,3.9-1.61,11.23,11.23,0,0,1,8.6,4.84c8.87-4.57,17.46-16.66,22-27.54,1.61-.27,2.82.13,2.82,1.61,0,3.63-9.94,26.06-23.37,31.83-.67,14.51-14.1,27.81-25,27.94C166.55,275.38,158.36,271.62,158.36,259Zm17.33-26.06c12.89-10.75,33.58-48.89,33.85-62.73,0-2-.4-3.63-1.07-4C196.77,171,188,197.34,179.31,222.06Q177.3,227.7,175.68,232.94Z"/><path class="cls-10" d="M196.37,264.37c0-3.22,1.61-5.91,4.57-6.18,2.42,4.3,6.31,9.81,8.87,11.42,4.3-4,8.19-18,9.13-46.48.13-3.36-2-3.9-2-5.51a2.48,2.48,0,0,1,.27-.94c8.73-22.16,12.76-30,19.75-30,5,0,8.19,5.24,9.54,10.88-7.92,3.63-21.36,9.54-21.36,17.46,0,5.51,4.43,19.61,4.3,32.24,0,15.72-6.85,28.07-18.54,28.07C200.8,275.38,196.37,269.47,196.37,264.37Z"/><path class="cls-11" d="M47.7,286.53c0-13,10.75-20.42,42.85-25.79,9.54-24.31,23.1-61.25,33.72-82.07-17.33,8.06-30.09,16.25-41.51,27.67-10.34,10.34-17.46,27-17.46,37.07,0,4.43,1.21,7.79,4,9.27C79.93,245.16,88.93,216.82,89.2,207a6.28,6.28,0,0,1,2.28-.4c3.09,0,6.31,2.15,6.31,9.4,0,15.18-11.69,41.37-27.27,41.37-11.82,0-16.25-9.27-16.25-20.15,0-27.4,23.64-45.27,51.58-56.28,7.12-2.82,14.1-5.24,21.49-7.92,4-7,10.48-15.85,15.31-15.85,3.22,0,7.39,4.43,7.39,8.6,0,5.51-10.75,8.33-16.12,9.4-7.92,21-18.27,53.19-27,77.37a121.83,121.83,0,0,0,9.4-9.27,3.09,3.09,0,0,1,3,3.36c0,6.45-9.67,10.21-14.64,12.22-2.28,6.45-4.57,12-6.45,16.25-8.33,18.67-15.45,27.67-30.49,27.67C54.82,302.78,47.7,295,47.7,286.53Zm12.36-1.48c0,5.91,3.36,11.55,9.27,12.49,8.33-5.1,14.64-20.69,19.07-31.43-16,6.45-28.48,9.94-28.48,18.94Z"/><path class="cls-11" d="M121.17,258.46c0-8.19,3.22-19.34,8.06-29.42,4.57-9.81,9.4-19.34,17.87-19.34,2.82,0,4.16.81,4.83,2.28-9,13.83-18.8,40.83-18.8,52.25,0,3.49.94,4.84,2.55,5.78,7.52-6.85,23.1-40.43,22.7-59.77-7.12-1.21-12-3.49-12-6,0-3.76,3.49-7.39,6.58-7.39,5.64,0,13.16,4.84,16.12,10.75.94,0,1.88.13,2.82.13,8.19,0,15.31-3.49,19.21-13.84,1.21-.27,2.28.54,2.28,2.15,0,5.64-5.91,15.45-19.88,15.45h-3.09c0,12.36-9.27,39.89-19.21,54-5,7.12-11,9.81-15.58,9.81C127.08,275.25,121.17,269.47,121.17,258.46Z"/><path class="cls-11" d="M168,259c0-10.21,3.9-25.92,9.81-42.31,10.07-27.8,23.1-54.8,41-54.8,7.39,0,11.15,4.57,11.15,9.27,0,13.16-25,61.25-46.34,67.43-2.15,8.19-3.49,15.31-3.63,21.09-.13,4.16.54,7.39,2,9.54,5.64-2.82,13.43-12.63,13.43-23.51a15.82,15.82,0,0,0-1.88-7.39,5,5,0,0,1,3.9-1.61,11.23,11.23,0,0,1,8.6,4.84c8.87-4.57,17.46-16.66,22-27.54,1.61-.27,2.82.13,2.82,1.61,0,3.63-9.94,26.06-23.37,31.83-.67,14.51-14.1,27.81-25,27.94C176.24,275.38,168,271.62,168,259Zm17.33-26.06C198.27,222.19,219,184,219.23,170.21c0-2-.4-3.63-1.07-4C206.47,171,197.73,197.34,189,222.06Q187,227.7,185.38,232.94Z"/><path class="cls-11" d="M206.06,264.37c0-3.22,1.61-5.91,4.57-6.18,2.42,4.3,6.31,9.81,8.87,11.42,4.3-4,8.19-18,9.13-46.48.13-3.36-2-3.9-2-5.51a2.48,2.48,0,0,1,.27-.94c8.73-22.16,12.76-30,19.75-30,5,0,8.19,5.24,9.54,10.88-7.92,3.63-21.36,9.54-21.36,17.46,0,5.51,4.43,19.61,4.3,32.24,0,15.72-6.85,28.07-18.54,28.07C210.5,275.38,206.06,269.47,206.06,264.37Z"/><text></text><ellipse class="cls-12" cx="191" cy="19" rx="64" ry="10"/></g></g></svg>